0
SECTION
2
HEADER
9
$ACADVER
1
AC1009
9
$DWGCODEPAGE
3
ANSI_1252
0
ENDSEC
0
SECTION
2
TABLES
0
TABLE
2
LTYPE
70
3
0
LTYPE
2
CONTINUOUS
70
0
3
Solid line
72
65
73
0
40
0
0
LTYPE
2
DASHED
70
0
3
Segmentada __ __ __
72
65
73
2
40
6
49
4
49
-2
0
LTYPE
2
CENTER
70
0
3
Centro ____ _ ____
72
65
73
4
40
11
49
7
49
-1.2
49
1.2
49
-1.2
0
ENDTAB
0
TABLE
2
LAYER
70
9
0
LAYER
2
SOMBRA
70
0
62
8
6
CONTINUOUS
0
LAYER
2
NORMA
70
0
62
7
6
CONTINUOUS
0
LAYER
2
FINA
70
0
62
7
6
CONTINUOUS
0
LAYER
2
VISIBLE
70
0
62
7
6
CONTINUOUS
0
LAYER
2
COTAS
70
0
62
7
6
CONTINUOUS
0
LAYER
2
TEXTO
70
0
62
7
6
CONTINUOUS
0
LAYER
2
PLIEGUE
70
0
62
1
6
DASHED
0
LAYER
2
OCULTA
70
0
62
7
6
DASHED
0
LAYER
2
EJE
70
0
62
4
6
CENTER
0
ENDTAB
0
ENDSEC
0
SECTION
2
ENTITIES
0
LINE
8
VISIBLE
10
135.0000
20
108.0000
30
0
11
135.2400
21
105.8400
31
0
0
LINE
8
VISIBLE
10
135.2400
20
105.8400
30
0
11
135.9600
21
104.1600
31
0
0
LINE
8
VISIBLE
10
135.9600
20
104.1600
30
0
11
137.1600
21
102.9600
31
0
0
LINE
8
VISIBLE
10
137.1600
20
102.9600
30
0
11
138.8400
21
102.2400
31
0
0
LINE
8
VISIBLE
10
138.8400
20
102.2400
30
0
11
141.0000
21
102.0000
31
0
0
LINE
8
VISIBLE
10
141.0000
20
102.0000
30
0
11
289.0000
21
102.0000
31
0
0
LINE
8
VISIBLE
10
289.0000
20
102.0000
30
0
11
291.1600
21
102.2400
31
0
0
LINE
8
VISIBLE
10
291.1600
20
102.2400
30
0
11
292.8400
21
102.9600
31
0
0
LINE
8
VISIBLE
10
292.8400
20
102.9600
30
0
11
294.0400
21
104.1600
31
0
0
LINE
8
VISIBLE
10
294.0400
20
104.1600
30
0
11
294.7600
21
105.8400
31
0
0
LINE
8
VISIBLE
10
294.7600
20
105.8400
30
0
11
295.0000
21
108.0000
31
0
0
LINE
8
VISIBLE
10
295.0000
20
108.0000
30
0
11
295.0000
21
236.0000
31
0
0
LINE
8
VISIBLE
10
295.0000
20
236.0000
30
0
11
294.7600
21
238.1600
31
0
0
LINE
8
VISIBLE
10
294.7600
20
238.1600
30
0
11
294.0400
21
239.8400
31
0
0
LINE
8
VISIBLE
10
294.0400
20
239.8400
30
0
11
292.8400
21
241.0400
31
0
0
LINE
8
VISIBLE
10
292.8400
20
241.0400
30
0
11
291.1600
21
241.7600
31
0
0
LINE
8
VISIBLE
10
291.1600
20
241.7600
30
0
11
289.0000
21
242.0000
31
0
0
LINE
8
VISIBLE
10
289.0000
20
242.0000
30
0
11
141.0000
21
242.0000
31
0
0
LINE
8
VISIBLE
10
141.0000
20
242.0000
30
0
11
138.8400
21
241.7600
31
0
0
LINE
8
VISIBLE
10
138.8400
20
241.7600
30
0
11
137.1600
21
241.0400
31
0
0
LINE
8
VISIBLE
10
137.1600
20
241.0400
30
0
11
135.9600
21
239.8400
31
0
0
LINE
8
VISIBLE
10
135.9600
20
239.8400
30
0
11
135.2400
21
238.1600
31
0
0
LINE
8
VISIBLE
10
135.2400
20
238.1600
30
0
11
135.0000
21
236.0000
31
0
0
LINE
8
VISIBLE
10
135.0000
20
236.0000
30
0
11
135.0000
21
108.0000
31
0
0
CIRCLE
8
VISIBLE
10
215.0000
20
199.5500
30
0
40
11.0000
0
TEXT
8
TEXTO
10
226.7000
20
198.7500
30
0
40
2.2000
1
C
0
CIRCLE
8
VISIBLE
10
170.0000
20
199.5500
30
0
40
5.0000
0
TEXT
8
TEXTO
10
175.7000
20
198.7500
30
0
40
2.2000
1
B
0
CIRCLE
8
VISIBLE
10
260.0000
20
199.5500
30
0
40
5.0000
0
TEXT
8
TEXTO
10
265.7000
20
198.7500
30
0
40
2.2000
1
B
0
CIRCLE
8
VISIBLE
10
155.0000
20
122.0000
30
0
40
4.5000
0
TEXT
8
TEXTO
10
160.2000
20
121.2000
30
0
40
2.2000
1
A
0
CIRCLE
8
VISIBLE
10
275.0000
20
122.0000
30
0
40
4.5000
0
TEXT
8
TEXTO
10
280.2000
20
121.2000
30
0
40
2.2000
1
A
0
CIRCLE
8
VISIBLE
10
155.0000
20
222.0000
30
0
40
4.5000
0
TEXT
8
TEXTO
10
160.2000
20
221.2000
30
0
40
2.2000
1
A
0
CIRCLE
8
VISIBLE
10
275.0000
20
222.0000
30
0
40
4.5000
0
TEXT
8
TEXTO
10
280.2000
20
221.2000
30
0
40
2.2000
1
A
0
TEXT
8
TEXTO
10
135.0000
20
89.0000
30
0
40
3.2000
1
BARRENOS (corte láser): 
0
TEXT
8
TEXTO
10
172.4272
20
89.0000
30
0
40
3.2000
1
A = 4× Ø9  ·  
0
TEXT
8
TEXTO
10
190.7824
20
89.0000
30
0
40
3.2000
1
B = 2× Ø10  ·  
0
TEXT
8
TEXTO
10
210.9168
20
89.0000
30
0
40
3.2000
1
C = 1× Ø22
0
TEXT
8
TEXTO
10
135.0000
20
84.5000
30
0
40
2.8000
1
POSICIONES: DXF de corte a escala REAL 1:1 + _agujeros.csv (X·Y·Ø de cada barreno) — contornos interiores ídem
0
LINE
8
COTAS
10
135.0000
20
101.0000
30
0
11
135.0000
21
91.5000
31
0
0
LINE
8
COTAS
10
295.0000
20
101.0000
30
0
11
295.0000
21
91.5000
31
0
0
LINE
8
COTAS
10
135.0000
20
93.0000
30
0
11
295.0000
21
93.0000
31
0
0
SOLID
8
COTAS
10
135.0000
20
93.0000
30
0
11
137.5000
21
93.4500
31
0
12
137.5000
22
92.5500
32
0
13
137.5000
23
92.5500
33
0
0
SOLID
8
COTAS
10
295.0000
20
93.0000
30
0
11
292.5000
21
93.4500
31
0
12
292.5000
22
92.5500
32
0
13
292.5000
23
92.5500
33
0
0
TEXT
8
COTAS
10
215.0000
20
95.2000
30
0
40
3.5000
1
160
72
1
73
2
11
215.0000
21
95.2000
31
0
0
LINE
8
COTAS
10
296.0000
20
102.0000
30
0
11
305.5000
21
102.0000
31
0
0
LINE
8
COTAS
10
296.0000
20
242.0000
30
0
11
305.5000
21
242.0000
31
0
0
LINE
8
COTAS
10
304.0000
20
102.0000
30
0
11
304.0000
21
242.0000
31
0
0
SOLID
8
COTAS
10
304.0000
20
102.0000
30
0
11
304.4500
21
104.5000
31
0
12
303.5500
22
104.5000
32
0
13
303.5500
23
104.5000
33
0
0
SOLID
8
COTAS
10
304.0000
20
242.0000
30
0
11
304.4500
21
239.5000
31
0
12
303.5500
22
239.5000
32
0
13
303.5500
23
239.5000
33
0
0
TEXT
8
COTAS
10
306.2000
20
172.0000
30
0
40
3.5000
1
140
72
1
73
2
11
306.2000
21
172.0000
31
0
0
TEXT
8
TEXTO
10
135.0000
20
252.5000
30
0
40
3.5000
1
PIEZA PLANA DE CORTE — sin pliegues (láser directo)
0
TEXT
8
TEXTO
10
135.0000
20
247.0000
30
0
40
4.0000
1
ESPESOR DE CHAPA e = 6 mm (constante en toda la pieza)
0
LINE
8
FINA
10
0.0000
20
0.0000
30
0
11
420.0000
21
0.0000
31
0
0
LINE
8
FINA
10
420.0000
20
0.0000
30
0
11
420.0000
21
297.0000
31
0
0
LINE
8
FINA
10
420.0000
20
297.0000
30
0
11
0.0000
21
297.0000
31
0
0
LINE
8
FINA
10
0.0000
20
297.0000
30
0
11
0.0000
21
0.0000
31
0
0
LINE
8
NORMA
10
20.0000
20
10.0000
30
0
11
410.0000
21
10.0000
31
0
0
LINE
8
NORMA
10
410.0000
20
10.0000
30
0
11
410.0000
21
287.0000
31
0
0
LINE
8
NORMA
10
410.0000
20
287.0000
30
0
11
20.0000
21
287.0000
31
0
0
LINE
8
NORMA
10
20.0000
20
287.0000
30
0
11
20.0000
21
10.0000
31
0
0
LINE
8
NORMA
10
0.0000
20
148.5000
30
0
11
25.0000
21
148.5000
31
0
0
LINE
8
NORMA
10
420.0000
20
148.5000
30
0
11
405.0000
21
148.5000
31
0
0
LINE
8
NORMA
10
210.0000
20
0.0000
30
0
11
210.0000
21
15.0000
31
0
0
LINE
8
NORMA
10
210.0000
20
297.0000
30
0
11
210.0000
21
282.0000
31
0
0
LINE
8
FINA
10
52.5000
20
0.0000
30
0
11
52.5000
21
10.0000
31
0
0
LINE
8
FINA
10
52.5000
20
287.0000
30
0
11
52.5000
21
297.0000
31
0
0
LINE
8
FINA
10
105.0000
20
0.0000
30
0
11
105.0000
21
10.0000
31
0
0
LINE
8
FINA
10
105.0000
20
287.0000
30
0
11
105.0000
21
297.0000
31
0
0
LINE
8
FINA
10
157.5000
20
0.0000
30
0
11
157.5000
21
10.0000
31
0
0
LINE
8
FINA
10
157.5000
20
287.0000
30
0
11
157.5000
21
297.0000
31
0
0
LINE
8
FINA
10
210.0000
20
0.0000
30
0
11
210.0000
21
10.0000
31
0
0
LINE
8
FINA
10
210.0000
20
287.0000
30
0
11
210.0000
21
297.0000
31
0
0
LINE
8
FINA
10
262.5000
20
0.0000
30
0
11
262.5000
21
10.0000
31
0
0
LINE
8
FINA
10
262.5000
20
287.0000
30
0
11
262.5000
21
297.0000
31
0
0
LINE
8
FINA
10
315.0000
20
0.0000
30
0
11
315.0000
21
10.0000
31
0
0
LINE
8
FINA
10
315.0000
20
287.0000
30
0
11
315.0000
21
297.0000
31
0
0
LINE
8
FINA
10
367.5000
20
0.0000
30
0
11
367.5000
21
10.0000
31
0
0
LINE
8
FINA
10
367.5000
20
287.0000
30
0
11
367.5000
21
297.0000
31
0
0
LINE
8
FINA
10
0.0000
20
49.5000
30
0
11
10.0000
21
49.5000
31
0
0
LINE
8
FINA
10
410.0000
20
49.5000
30
0
11
420.0000
21
49.5000
31
0
0
LINE
8
FINA
10
0.0000
20
99.0000
30
0
11
10.0000
21
99.0000
31
0
0
LINE
8
FINA
10
410.0000
20
99.0000
30
0
11
420.0000
21
99.0000
31
0
0
LINE
8
FINA
10
0.0000
20
148.5000
30
0
11
10.0000
21
148.5000
31
0
0
LINE
8
FINA
10
410.0000
20
148.5000
30
0
11
420.0000
21
148.5000
31
0
0
LINE
8
FINA
10
0.0000
20
198.0000
30
0
11
10.0000
21
198.0000
31
0
0
LINE
8
FINA
10
410.0000
20
198.0000
30
0
11
420.0000
21
198.0000
31
0
0
LINE
8
FINA
10
0.0000
20
247.5000
30
0
11
10.0000
21
247.5000
31
0
0
LINE
8
FINA
10
410.0000
20
247.5000
30
0
11
420.0000
21
247.5000
31
0
0
TEXT
8
TEXTO
10
26.2500
20
5.0000
30
0
40
2.5000
1
1
72
1
73
2
11
26.2500
21
5.0000
31
0
0
TEXT
8
TEXTO
10
26.2500
20
292.0000
30
0
40
2.5000
1
1
72
1
73
2
11
26.2500
21
292.0000
31
0
0
TEXT
8
TEXTO
10
78.7500
20
5.0000
30
0
40
2.5000
1
2
72
1
73
2
11
78.7500
21
5.0000
31
0
0
TEXT
8
TEXTO
10
78.7500
20
292.0000
30
0
40
2.5000
1
2
72
1
73
2
11
78.7500
21
292.0000
31
0
0
TEXT
8
TEXTO
10
131.2500
20
5.0000
30
0
40
2.5000
1
3
72
1
73
2
11
131.2500
21
5.0000
31
0
0
TEXT
8
TEXTO
10
131.2500
20
292.0000
30
0
40
2.5000
1
3
72
1
73
2
11
131.2500
21
292.0000
31
0
0
TEXT
8
TEXTO
10
183.7500
20
5.0000
30
0
40
2.5000
1
4
72
1
73
2
11
183.7500
21
5.0000
31
0
0
TEXT
8
TEXTO
10
183.7500
20
292.0000
30
0
40
2.5000
1
4
72
1
73
2
11
183.7500
21
292.0000
31
0
0
TEXT
8
TEXTO
10
236.2500
20
5.0000
30
0
40
2.5000
1
5
72
1
73
2
11
236.2500
21
5.0000
31
0
0
TEXT
8
TEXTO
10
236.2500
20
292.0000
30
0
40
2.5000
1
5
72
1
73
2
11
236.2500
21
292.0000
31
0
0
TEXT
8
TEXTO
10
288.7500
20
5.0000
30
0
40
2.5000
1
6
72
1
73
2
11
288.7500
21
5.0000
31
0
0
TEXT
8
TEXTO
10
288.7500
20
292.0000
30
0
40
2.5000
1
6
72
1
73
2
11
288.7500
21
292.0000
31
0
0
TEXT
8
TEXTO
10
341.2500
20
5.0000
30
0
40
2.5000
1
7
72
1
73
2
11
341.2500
21
5.0000
31
0
0
TEXT
8
TEXTO
10
341.2500
20
292.0000
30
0
40
2.5000
1
7
72
1
73
2
11
341.2500
21
292.0000
31
0
0
TEXT
8
TEXTO
10
393.7500
20
5.0000
30
0
40
2.5000
1
8
72
1
73
2
11
393.7500
21
5.0000
31
0
0
TEXT
8
TEXTO
10
393.7500
20
292.0000
30
0
40
2.5000
1
8
72
1
73
2
11
393.7500
21
292.0000
31
0
0
TEXT
8
TEXTO
10
5.0000
20
272.2500
30
0
40
2.5000
1
A
72
1
73
2
11
5.0000
21
272.2500
31
0
0
TEXT
8
TEXTO
10
415.0000
20
272.2500
30
0
40
2.5000
1
A
72
1
73
2
11
415.0000
21
272.2500
31
0
0
TEXT
8
TEXTO
10
5.0000
20
222.7500
30
0
40
2.5000
1
B
72
1
73
2
11
5.0000
21
222.7500
31
0
0
TEXT
8
TEXTO
10
415.0000
20
222.7500
30
0
40
2.5000
1
B
72
1
73
2
11
415.0000
21
222.7500
31
0
0
TEXT
8
TEXTO
10
5.0000
20
173.2500
30
0
40
2.5000
1
C
72
1
73
2
11
5.0000
21
173.2500
31
0
0
TEXT
8
TEXTO
10
415.0000
20
173.2500
30
0
40
2.5000
1
C
72
1
73
2
11
415.0000
21
173.2500
31
0
0
TEXT
8
TEXTO
10
5.0000
20
123.7500
30
0
40
2.5000
1
D
72
1
73
2
11
5.0000
21
123.7500
31
0
0
TEXT
8
TEXTO
10
415.0000
20
123.7500
30
0
40
2.5000
1
D
72
1
73
2
11
415.0000
21
123.7500
31
0
0
TEXT
8
TEXTO
10
5.0000
20
74.2500
30
0
40
2.5000
1
E
72
1
73
2
11
5.0000
21
74.2500
31
0
0
TEXT
8
TEXTO
10
415.0000
20
74.2500
30
0
40
2.5000
1
E
72
1
73
2
11
415.0000
21
74.2500
31
0
0
TEXT
8
TEXTO
10
5.0000
20
24.7500
30
0
40
2.5000
1
F
72
1
73
2
11
5.0000
21
24.7500
31
0
0
TEXT
8
TEXTO
10
415.0000
20
24.7500
30
0
40
2.5000
1
F
72
1
73
2
11
415.0000
21
24.7500
31
0
0
LINE
8
NORMA
10
230.0000
20
10.0000
30
0
11
410.0000
21
10.0000
31
0
0
LINE
8
NORMA
10
410.0000
20
10.0000
30
0
11
410.0000
21
52.0000
31
0
0
LINE
8
NORMA
10
410.0000
20
52.0000
30
0
11
230.0000
21
52.0000
31
0
0
LINE
8
NORMA
10
230.0000
20
52.0000
30
0
11
230.0000
21
10.0000
31
0
0
LINE
8
NORMA
10
270.0000
20
10.0000
30
0
11
270.0000
21
52.0000
31
0
0
LINE
8
NORMA
10
364.0000
20
10.0000
30
0
11
364.0000
21
52.0000
31
0
0
LINE
8
FINA
10
230.0000
20
29.0000
30
0
11
270.0000
21
29.0000
31
0
0
TEXT
8
TEXTO
10
250.0000
20
43.4000
30
0
40
4.9000
1
ConveyOne
72
1
73
2
11
250.0000
21
43.4000
31
0
0
LINE
8
FINA
10
236.5000
20
38.6000
30
0
11
263.5000
21
38.6000
31
0
0
TEXT
8
TEXTO
10
250.0000
20
35.8000
30
0
40
1.3000
1
CAD · DISEÑO CAPA USER
72
1
73
2
11
250.0000
21
35.8000
31
0
0
TEXT
8
TEXTO
10
250.0000
20
32.6000
30
0
40
1.3000
1
ISO 5457 · 7200 · 129 · 5456-2
72
1
73
2
11
250.0000
21
32.6000
31
0
0
TEXT
8
TEXTO
10
250.0000
20
26.6000
30
0
40
1.4000
1
PROYECCIÓN — PRIMER DIEDRO
72
1
73
2
11
250.0000
21
26.6000
31
0
0
CIRCLE
8
TEXTO
10
245.4000
20
17.5000
30
0
40
2.9900
0
CIRCLE
8
TEXTO
10
245.4000
20
17.5000
30
0
40
1.6100
0
LINE
8
TEXTO
10
250.4600
20
14.5100
30
0
11
257.5900
21
15.8900
31
0
0
LINE
8
TEXTO
10
257.5900
20
15.8900
30
0
11
257.5900
21
19.1100
31
0
0
LINE
8
TEXTO
10
257.5900
20
19.1100
30
0
11
250.4600
21
20.4900
31
0
0
LINE
8
TEXTO
10
250.4600
20
20.4900
30
0
11
250.4600
21
14.5100
31
0
0
LINE
8
FINA
10
241.0300
20
17.5000
30
0
11
258.9700
21
17.5000
31
0
0
LINE
8
FINA
10
270.0000
20
39.0000
30
0
11
364.0000
21
39.0000
31
0
0
LINE
8
FINA
10
270.0000
20
29.0000
30
0
11
364.0000
21
29.0000
31
0
0
LINE
8
FINA
10
270.0000
20
19.0000
30
0
11
364.0000
21
19.0000
31
0
0
LINE
8
FINA
10
317.0000
20
29.0000
30
0
11
317.0000
21
39.0000
31
0
0
LINE
8
FINA
10
326.0000
20
19.0000
30
0
11
326.0000
21
29.0000
31
0
0
TEXT
8
TEXTO
10
271.3000
20
49.6000
30
0
40
1.4000
1
DESIGNACIÓN
0
TEXT
8
TEXTO
10
271.6000
20
44.1000
30
0
40
2.3185
1
BTD-02 · Placa cabezal MOTRIZ PL6 160×140 (ambidiestra ×2) (x2) — DESARROLLO
72
0
73
2
11
271.6000
21
44.1000
31
0
0
TEXT
8
TEXTO
10
271.3000
20
36.6000
30
0
40
1.4000
1
PROYECTO
0
TEXT
8
TEXTO
10
271.6000
20
32.6000
30
0
40
2.0000
1
CV-BLT-800×500 · banda plana estilo MB800 …
72
0
73
2
11
271.6000
21
32.6000
31
0
0
TEXT
8
TEXTO
10
318.3000
20
36.6000
30
0
40
1.4000
1
FUENTE
0
TEXT
8
TEXTO
10
318.6000
20
32.6000
30
0
40
2.4000
1
chapa plegada — capa user
72
0
73
2
11
318.6000
21
32.6000
31
0
0
TEXT
8
TEXTO
10
271.3000
20
26.6000
30
0
40
1.4000
1
VERIFICACIÓN DE ESCALA
0
TEXT
8
TEXTO
10
271.6000
20
22.6000
30
0
40
2.4000
1
CAD EN MM (CAPA USER)
72
0
73
2
11
271.6000
21
22.6000
31
0
0
TEXT
8
TEXTO
10
327.3000
20
26.6000
30
0
40
1.4000
1
PLIEGUES
0
TEXT
8
TEXTO
10
327.6000
20
22.6000
30
0
40
2.6000
1
0
72
0
73
2
11
327.6000
21
22.6000
31
0
0
TEXT
8
TEXTO
10
271.3000
20
16.6000
30
0
40
1.4000
1
NOTA
0
TEXT
8
TEXTO
10
271.6000
20
13.1000
30
0
40
2.2000
1
Acero S275JR PL6 — PINTADO RAL 7035 · e6 · tol. gral. ISO 2768-mK · K=0.44
72
0
73
2
11
271.6000
21
13.1000
31
0
0
LINE
8
FINA
10
364.0000
20
39.0000
30
0
11
410.0000
21
39.0000
31
0
0
LINE
8
FINA
10
364.0000
20
29.0000
30
0
11
410.0000
21
29.0000
31
0
0
LINE
8
FINA
10
364.0000
20
19.0000
30
0
11
410.0000
21
19.0000
31
0
0
LINE
8
FINA
10
387.0000
20
29.0000
30
0
11
387.0000
21
39.0000
31
0
0
LINE
8
FINA
10
390.0000
20
19.0000
30
0
11
390.0000
21
29.0000
31
0
0
TEXT
8
TEXTO
10
365.3000
20
49.6000
30
0
40
1.4000
1
ESCALA
0
TEXT
8
TEXTO
10
387.0000
20
44.1000
30
0
40
5.0000
1
1:1
72
1
73
2
11
387.0000
21
44.1000
31
0
0
TEXT
8
TEXTO
10
365.3000
20
36.6000
30
0
40
1.4000
1
FORMATO
0
TEXT
8
TEXTO
10
371.5000
20
32.6000
30
0
40
2.6000
1
A3
72
1
73
2
11
371.5000
21
32.6000
31
0
0
TEXT
8
TEXTO
10
380.3000
20
36.6000
30
0
40
1.4000
1
LÁMINA
0
TEXT
8
TEXTO
10
386.5000
20
32.6000
30
0
40
2.4000
1
1 / 1
72
1
73
2
11
386.5000
21
32.6000
31
0
0
LINE
8
FINA
10
394.0000
20
29.0000
30
0
11
394.0000
21
39.0000
31
0
0
TEXT
8
TEXTO
10
395.3000
20
36.6000
30
0
40
1.4000
1
REV
0
TEXT
8
TEXTO
10
402.0000
20
32.6000
30
0
40
4.6000
1
—
72
1
73
2
11
402.0000
21
32.6000
31
0
0
TEXT
8
TEXTO
10
365.3000
20
26.6000
30
0
40
1.4000
1
FECHA
0
TEXT
8
TEXTO
10
377.0000
20
22.6000
30
0
40
2.6000
1
2026-08-18
72
1
73
2
11
377.0000
21
22.6000
31
0
0
TEXT
8
TEXTO
10
391.3000
20
26.6000
30
0
40
1.4000
1
UNIDADES
0
TEXT
8
TEXTO
10
400.0000
20
22.6000
30
0
40
3.0000
1
mm
72
1
73
2
11
400.0000
21
22.6000
31
0
0
TEXT
8
TEXTO
10
365.3000
20
16.6000
30
0
40
1.4000
1
Nº DE PLANO
0
TEXT
8
TEXTO
10
387.0000
20
13.1000
30
0
40
2.6000
1
BTD-02
72
1
73
2
11
387.0000
21
13.1000
31
0
0
TEXT
8
TEXTO
10
230.0000
20
56.5000
30
0
40
2.0000
1
DIBUJÓ: Célula de Diseño ConveyOne · REVISÓ: panel adversarial · APROBÓ: S. Contreras — PENDIENTE DE FIRMA
0
ENDSEC
0
EOF
