0
SECTION
2
HEADER
9
$ACADVER
1
AC1009
9
$DWGCODEPAGE
3
ANSI_1252
0
ENDSEC
0
SECTION
2
TABLES
0
TABLE
2
LTYPE
70
2
0
LTYPE
2
CONTINUOUS
70
0
3
Solid line
72
65
73
0
40
0
0
LTYPE
2
DASHED
70
0
3
Segmentada __ __ __
72
65
73
2
40
6
49
4
49
-2
0
ENDTAB
0
TABLE
2
LAYER
70
7
0
LAYER
2
SOMBRA
70
0
62
8
6
CONTINUOUS
0
LAYER
2
NORMA
70
0
62
7
6
CONTINUOUS
0
LAYER
2
FINA
70
0
62
7
6
CONTINUOUS
0
LAYER
2
VISIBLE
70
0
62
7
6
CONTINUOUS
0
LAYER
2
COTAS
70
0
62
7
6
CONTINUOUS
0
LAYER
2
TEXTO
70
0
62
7
6
CONTINUOUS
0
LAYER
2
PLIEGUE
70
0
62
1
6
DASHED
0
ENDTAB
0
ENDSEC
0
SECTION
2
ENTITIES
0
LINE
8
VISIBLE
10
1119.3600
20
170.4500
30
0
11
1137.7200
21
203.2300
31
0
0
LINE
8
VISIBLE
10
1137.7200
20
203.2300
30
0
11
1155.2100
21
236.4800
31
0
0
LINE
8
VISIBLE
10
1155.2100
20
236.4800
30
0
11
1171.8300
21
270.1700
31
0
0
LINE
8
VISIBLE
10
1171.8300
20
270.1700
30
0
11
1187.5600
21
304.2900
31
0
0
LINE
8
VISIBLE
10
1187.5600
20
304.2900
30
0
11
1202.3900
21
338.8100
31
0
0
LINE
8
VISIBLE
10
1202.3900
20
338.8100
30
0
11
1216.3100
21
373.7100
31
0
0
LINE
8
VISIBLE
10
1216.3100
20
373.7100
30
0
11
1229.3100
21
408.9500
31
0
0
LINE
8
VISIBLE
10
1229.3100
20
408.9500
30
0
11
1241.3900
21
444.5300
31
0
0
LINE
8
VISIBLE
10
1241.3900
20
444.5300
30
0
11
1252.5300
21
480.4100
31
0
0
LINE
8
VISIBLE
10
1252.5300
20
480.4100
30
0
11
1262.7300
21
516.5700
31
0
0
LINE
8
VISIBLE
10
1262.7300
20
516.5700
30
0
11
1271.9800
21
552.9800
31
0
0
LINE
8
VISIBLE
10
1271.9800
20
552.9800
30
0
11
1280.2700
21
589.6300
31
0
0
LINE
8
VISIBLE
10
1280.2700
20
589.6300
30
0
11
1287.6000
21
626.4700
31
0
0
LINE
8
VISIBLE
10
1287.6000
20
626.4700
30
0
11
1293.9600
21
663.5000
31
0
0
LINE
8
VISIBLE
10
1293.9600
20
663.5000
30
0
11
1299.3500
21
700.6800
31
0
0
LINE
8
VISIBLE
10
1299.3500
20
700.6800
30
0
11
1303.7700
21
737.9900
31
0
0
LINE
8
VISIBLE
10
1303.7700
20
737.9900
30
0
11
1307.2100
21
775.4000
31
0
0
LINE
8
VISIBLE
10
1307.2100
20
775.4000
30
0
11
1309.6600
21
812.8900
31
0
0
LINE
8
VISIBLE
10
1309.6600
20
812.8900
30
0
11
1311.1400
21
850.4300
31
0
0
LINE
8
VISIBLE
10
1311.1400
20
850.4300
30
0
11
1311.6300
21
888.0000
31
0
0
LINE
8
VISIBLE
10
1311.6300
20
888.0000
30
0
11
1311.1400
21
925.5700
31
0
0
LINE
8
VISIBLE
10
1311.1400
20
925.5700
30
0
11
1309.6600
21
963.1100
31
0
0
LINE
8
VISIBLE
10
1309.6600
20
963.1100
30
0
11
1307.2100
21
1000.6000
31
0
0
LINE
8
VISIBLE
10
1307.2100
20
1000.6000
30
0
11
1303.7700
21
1038.0100
31
0
0
LINE
8
VISIBLE
10
1303.7700
20
1038.0100
30
0
11
1299.3500
21
1075.3200
31
0
0
LINE
8
VISIBLE
10
1299.3500
20
1075.3200
30
0
11
1293.9600
21
1112.5000
31
0
0
LINE
8
VISIBLE
10
1293.9600
20
1112.5000
30
0
11
1287.6000
21
1149.5300
31
0
0
LINE
8
VISIBLE
10
1287.6000
20
1149.5300
30
0
11
1280.2700
21
1186.3700
31
0
0
LINE
8
VISIBLE
10
1280.2700
20
1186.3700
30
0
11
1271.9800
21
1223.0200
31
0
0
LINE
8
VISIBLE
10
1271.9800
20
1223.0200
30
0
11
1262.7300
21
1259.4300
31
0
0
LINE
8
VISIBLE
10
1262.7300
20
1259.4300
30
0
11
1252.5300
21
1295.5900
31
0
0
LINE
8
VISIBLE
10
1252.5300
20
1295.5900
30
0
11
1241.3900
21
1331.4700
31
0
0
LINE
8
VISIBLE
10
1241.3900
20
1331.4700
30
0
11
1229.3100
21
1367.0500
31
0
0
LINE
8
VISIBLE
10
1229.3100
20
1367.0500
30
0
11
1216.3100
21
1402.2900
31
0
0
LINE
8
VISIBLE
10
1216.3100
20
1402.2900
30
0
11
1202.3900
21
1437.1900
31
0
0
LINE
8
VISIBLE
10
1202.3900
20
1437.1900
30
0
11
1187.5600
21
1471.7100
31
0
0
LINE
8
VISIBLE
10
1187.5600
20
1471.7100
30
0
11
1171.8300
21
1505.8300
31
0
0
LINE
8
VISIBLE
10
1171.8300
20
1505.8300
30
0
11
1155.2100
21
1539.5200
31
0
0
LINE
8
VISIBLE
10
1155.2100
20
1539.5200
30
0
11
1137.7200
21
1572.7700
31
0
0
LINE
8
VISIBLE
10
1137.7200
20
1572.7700
30
0
11
1119.3600
21
1605.5500
31
0
0
LINE
8
VISIBLE
10
1119.3600
20
1605.5500
30
0
11
1086.3700
21
1586.5000
31
0
0
LINE
8
VISIBLE
10
1086.3700
20
1586.5000
30
0
11
1104.2400
21
1554.5900
31
0
0
LINE
8
VISIBLE
10
1104.2400
20
1554.5900
30
0
11
1121.2700
21
1522.2200
31
0
0
LINE
8
VISIBLE
10
1121.2700
20
1522.2200
30
0
11
1137.4400
21
1489.4200
31
0
0
LINE
8
VISIBLE
10
1137.4400
20
1489.4200
30
0
11
1152.7500
21
1456.2100
31
0
0
LINE
8
VISIBLE
10
1152.7500
20
1456.2100
30
0
11
1167.1900
21
1422.6100
31
0
0
LINE
8
VISIBLE
10
1167.1900
20
1422.6100
30
0
11
1180.7400
21
1388.6400
31
0
0
LINE
8
VISIBLE
10
1180.7400
20
1388.6400
30
0
11
1193.4000
21
1354.3300
31
0
0
LINE
8
VISIBLE
10
1193.4000
20
1354.3300
30
0
11
1205.1600
21
1319.7000
31
0
0
LINE
8
VISIBLE
10
1205.1600
20
1319.7000
30
0
11
1216.0000
21
1284.7700
31
0
0
LINE
8
VISIBLE
10
1216.0000
20
1284.7700
30
0
11
1225.9300
21
1249.5700
31
0
0
LINE
8
VISIBLE
10
1225.9300
20
1249.5700
30
0
11
1234.9300
21
1214.1200
31
0
0
LINE
8
VISIBLE
10
1234.9300
20
1214.1200
30
0
11
1243.0000
21
1178.4500
31
0
0
LINE
8
VISIBLE
10
1243.0000
20
1178.4500
30
0
11
1250.1400
21
1142.5800
31
0
0
LINE
8
VISIBLE
10
1250.1400
20
1142.5800
30
0
11
1256.3300
21
1106.5400
31
0
0
LINE
8
VISIBLE
10
1256.3300
20
1106.5400
30
0
11
1261.5800
21
1070.3500
31
0
0
LINE
8
VISIBLE
10
1261.5800
20
1070.3500
30
0
11
1265.8800
21
1034.0300
31
0
0
LINE
8
VISIBLE
10
1265.8800
20
1034.0300
30
0
11
1269.2200
21
997.6100
31
0
0
LINE
8
VISIBLE
10
1269.2200
20
997.6100
30
0
11
1271.6200
21
961.1100
31
0
0
LINE
8
VISIBLE
10
1271.6200
20
961.1100
30
0
11
1273.0500
21
924.5700
31
0
0
LINE
8
VISIBLE
10
1273.0500
20
924.5700
30
0
11
1273.5300
21
888.0000
31
0
0
LINE
8
VISIBLE
10
1273.5300
20
888.0000
30
0
11
1273.0500
21
851.4300
31
0
0
LINE
8
VISIBLE
10
1273.0500
20
851.4300
30
0
11
1271.6200
21
814.8900
31
0
0
LINE
8
VISIBLE
10
1271.6200
20
814.8900
30
0
11
1269.2200
21
778.3900
31
0
0
LINE
8
VISIBLE
10
1269.2200
20
778.3900
30
0
11
1265.8800
21
741.9700
31
0
0
LINE
8
VISIBLE
10
1265.8800
20
741.9700
30
0
11
1261.5800
21
705.6500
31
0
0
LINE
8
VISIBLE
10
1261.5800
20
705.6500
30
0
11
1256.3300
21
669.4600
31
0
0
LINE
8
VISIBLE
10
1256.3300
20
669.4600
30
0
11
1250.1400
21
633.4200
31
0
0
LINE
8
VISIBLE
10
1250.1400
20
633.4200
30
0
11
1243.0000
21
597.5500
31
0
0
LINE
8
VISIBLE
10
1243.0000
20
597.5500
30
0
11
1234.9300
21
561.8800
31
0
0
LINE
8
VISIBLE
10
1234.9300
20
561.8800
30
0
11
1225.9300
21
526.4300
31
0
0
LINE
8
VISIBLE
10
1225.9300
20
526.4300
30
0
11
1216.0000
21
491.2300
31
0
0
LINE
8
VISIBLE
10
1216.0000
20
491.2300
30
0
11
1205.1600
21
456.3000
31
0
0
LINE
8
VISIBLE
10
1205.1600
20
456.3000
30
0
11
1193.4000
21
421.6700
31
0
0
LINE
8
VISIBLE
10
1193.4000
20
421.6700
30
0
11
1180.7400
21
387.3600
31
0
0
LINE
8
VISIBLE
10
1180.7400
20
387.3600
30
0
11
1167.1900
21
353.3900
31
0
0
LINE
8
VISIBLE
10
1167.1900
20
353.3900
30
0
11
1152.7500
21
319.7900
31
0
0
LINE
8
VISIBLE
10
1152.7500
20
319.7900
30
0
11
1137.4400
21
286.5800
31
0
0
LINE
8
VISIBLE
10
1137.4400
20
286.5800
30
0
11
1121.2700
21
253.7800
31
0
0
LINE
8
VISIBLE
10
1121.2700
20
253.7800
30
0
11
1104.2400
21
221.4100
31
0
0
LINE
8
VISIBLE
10
1104.2400
20
221.4100
30
0
11
1086.3700
21
189.5000
31
0
0
LINE
8
VISIBLE
10
1086.3700
20
189.5000
30
0
11
1119.3600
21
170.4500
31
0
0
CIRCLE
8
VISIBLE
10
1165.8700
20
302.5100
30
0
40
5.5000
0
CIRCLE
8
VISIBLE
10
1285.8900
20
750.4800
30
0
40
5.5000
0
CIRCLE
8
VISIBLE
10
1285.8900
20
1025.5200
30
0
40
5.5000
0
CIRCLE
8
VISIBLE
10
1165.8700
20
1473.4900
30
0
40
5.5000
0
CIRCLE
8
VISIBLE
10
1113.3300
20
198.4100
30
0
40
5.5000
0
CIRCLE
8
VISIBLE
10
1292.4200
20
866.8000
30
0
40
5.5000
0
CIRCLE
8
VISIBLE
10
1292.4200
20
909.2000
30
0
40
5.5000
0
CIRCLE
8
VISIBLE
10
1113.3300
20
1577.5900
30
0
40
5.5000
0
TEXT
8
TEXTO
10
1086.3700
20
158.4500
30
0
40
6.4000
1
BARRENOS: 8× · Ø 11 mm (corte láser)
0
LINE
8
COTAS
10
1086.3700
20
168.4500
30
0
11
1086.3700
21
149.4500
31
0
0
LINE
8
COTAS
10
1311.6300
20
168.4500
30
0
11
1311.6300
21
149.4500
31
0
0
LINE
8
COTAS
10
1086.3700
20
152.4500
30
0
11
1311.6300
21
152.4500
31
0
0
SOLID
8
COTAS
10
1086.3700
20
152.4500
30
0
11
1091.3700
21
153.3500
31
0
12
1091.3700
22
151.5500
32
0
13
1091.3700
23
151.5500
33
0
0
SOLID
8
COTAS
10
1311.6300
20
152.4500
30
0
11
1306.6300
21
153.3500
31
0
12
1306.6300
22
151.5500
32
0
13
1306.6300
23
151.5500
33
0
0
TEXT
8
COTAS
10
1199.0000
20
156.8500
30
0
40
7.0000
1
225.3
72
1
73
2
11
1199.0000
21
156.8500
31
0
0
LINE
8
COTAS
10
1313.6300
20
170.4500
30
0
11
1332.6300
21
170.4500
31
0
0
LINE
8
COTAS
10
1313.6300
20
1605.5500
30
0
11
1332.6300
21
1605.5500
31
0
0
LINE
8
COTAS
10
1329.6300
20
170.4500
30
0
11
1329.6300
21
1605.5500
31
0
0
SOLID
8
COTAS
10
1329.6300
20
170.4500
30
0
11
1330.5300
21
175.4500
31
0
12
1328.7300
22
175.4500
32
0
13
1328.7300
23
175.4500
33
0
0
SOLID
8
COTAS
10
1329.6300
20
1605.5500
30
0
11
1330.5300
21
1600.5500
31
0
12
1328.7300
22
1600.5500
32
0
13
1328.7300
23
1600.5500
33
0
0
TEXT
8
COTAS
10
1334.0300
20
888.0000
30
0
40
7.0000
1
1435.1
72
1
73
2
11
1334.0300
21
888.0000
31
0
0
TEXT
8
TEXTO
10
1086.3700
20
1626.5500
30
0
40
7.0000
1
DESARROLLO DE CHAPA — BA = ang·(R + K·t), fibra neutra por factor K
0
TEXT
8
TEXTO
10
1086.3700
20
1615.5500
30
0
40
8.0000
1
ESPESOR DE CHAPA e = 3 mm (constante en toda la pieza)
0
LINE
8
FINA
10
0.0000
20
0.0000
30
0
11
2378.0000
21
0.0000
31
0
0
LINE
8
FINA
10
2378.0000
20
0.0000
30
0
11
2378.0000
21
1682.0000
31
0
0
LINE
8
FINA
10
2378.0000
20
1682.0000
30
0
11
0.0000
21
1682.0000
31
0
0
LINE
8
FINA
10
0.0000
20
1682.0000
30
0
11
0.0000
21
0.0000
31
0
0
LINE
8
NORMA
10
40.0000
20
20.0000
30
0
11
2358.0000
21
20.0000
31
0
0
LINE
8
NORMA
10
2358.0000
20
20.0000
30
0
11
2358.0000
21
1662.0000
31
0
0
LINE
8
NORMA
10
2358.0000
20
1662.0000
30
0
11
40.0000
21
1662.0000
31
0
0
LINE
8
NORMA
10
40.0000
20
1662.0000
30
0
11
40.0000
21
20.0000
31
0
0
LINE
8
NORMA
10
0.0000
20
841.0000
30
0
11
50.0000
21
841.0000
31
0
0
LINE
8
NORMA
10
2378.0000
20
841.0000
30
0
11
2348.0000
21
841.0000
31
0
0
LINE
8
NORMA
10
1189.0000
20
0.0000
30
0
11
1189.0000
21
30.0000
31
0
0
LINE
8
NORMA
10
1189.0000
20
1682.0000
30
0
11
1189.0000
21
1652.0000
31
0
0
LINE
8
FINA
10
99.0833
20
0.0000
30
0
11
99.0833
21
20.0000
31
0
0
LINE
8
FINA
10
99.0833
20
1662.0000
30
0
11
99.0833
21
1682.0000
31
0
0
LINE
8
FINA
10
198.1667
20
0.0000
30
0
11
198.1667
21
20.0000
31
0
0
LINE
8
FINA
10
198.1667
20
1662.0000
30
0
11
198.1667
21
1682.0000
31
0
0
LINE
8
FINA
10
297.2500
20
0.0000
30
0
11
297.2500
21
20.0000
31
0
0
LINE
8
FINA
10
297.2500
20
1662.0000
30
0
11
297.2500
21
1682.0000
31
0
0
LINE
8
FINA
10
396.3333
20
0.0000
30
0
11
396.3333
21
20.0000
31
0
0
LINE
8
FINA
10
396.3333
20
1662.0000
30
0
11
396.3333
21
1682.0000
31
0
0
LINE
8
FINA
10
495.4167
20
0.0000
30
0
11
495.4167
21
20.0000
31
0
0
LINE
8
FINA
10
495.4167
20
1662.0000
30
0
11
495.4167
21
1682.0000
31
0
0
LINE
8
FINA
10
594.5000
20
0.0000
30
0
11
594.5000
21
20.0000
31
0
0
LINE
8
FINA
10
594.5000
20
1662.0000
30
0
11
594.5000
21
1682.0000
31
0
0
LINE
8
FINA
10
693.5833
20
0.0000
30
0
11
693.5833
21
20.0000
31
0
0
LINE
8
FINA
10
693.5833
20
1662.0000
30
0
11
693.5833
21
1682.0000
31
0
0
LINE
8
FINA
10
792.6667
20
0.0000
30
0
11
792.6667
21
20.0000
31
0
0
LINE
8
FINA
10
792.6667
20
1662.0000
30
0
11
792.6667
21
1682.0000
31
0
0
LINE
8
FINA
10
891.7500
20
0.0000
30
0
11
891.7500
21
20.0000
31
0
0
LINE
8
FINA
10
891.7500
20
1662.0000
30
0
11
891.7500
21
1682.0000
31
0
0
LINE
8
FINA
10
990.8333
20
0.0000
30
0
11
990.8333
21
20.0000
31
0
0
LINE
8
FINA
10
990.8333
20
1662.0000
30
0
11
990.8333
21
1682.0000
31
0
0
LINE
8
FINA
10
1089.9167
20
0.0000
30
0
11
1089.9167
21
20.0000
31
0
0
LINE
8
FINA
10
1089.9167
20
1662.0000
30
0
11
1089.9167
21
1682.0000
31
0
0
LINE
8
FINA
10
1189.0000
20
0.0000
30
0
11
1189.0000
21
20.0000
31
0
0
LINE
8
FINA
10
1189.0000
20
1662.0000
30
0
11
1189.0000
21
1682.0000
31
0
0
LINE
8
FINA
10
1288.0833
20
0.0000
30
0
11
1288.0833
21
20.0000
31
0
0
LINE
8
FINA
10
1288.0833
20
1662.0000
30
0
11
1288.0833
21
1682.0000
31
0
0
LINE
8
FINA
10
1387.1667
20
0.0000
30
0
11
1387.1667
21
20.0000
31
0
0
LINE
8
FINA
10
1387.1667
20
1662.0000
30
0
11
1387.1667
21
1682.0000
31
0
0
LINE
8
FINA
10
1486.2500
20
0.0000
30
0
11
1486.2500
21
20.0000
31
0
0
LINE
8
FINA
10
1486.2500
20
1662.0000
30
0
11
1486.2500
21
1682.0000
31
0
0
LINE
8
FINA
10
1585.3333
20
0.0000
30
0
11
1585.3333
21
20.0000
31
0
0
LINE
8
FINA
10
1585.3333
20
1662.0000
30
0
11
1585.3333
21
1682.0000
31
0
0
LINE
8
FINA
10
1684.4167
20
0.0000
30
0
11
1684.4167
21
20.0000
31
0
0
LINE
8
FINA
10
1684.4167
20
1662.0000
30
0
11
1684.4167
21
1682.0000
31
0
0
LINE
8
FINA
10
1783.5000
20
0.0000
30
0
11
1783.5000
21
20.0000
31
0
0
LINE
8
FINA
10
1783.5000
20
1662.0000
30
0
11
1783.5000
21
1682.0000
31
0
0
LINE
8
FINA
10
1882.5833
20
0.0000
30
0
11
1882.5833
21
20.0000
31
0
0
LINE
8
FINA
10
1882.5833
20
1662.0000
30
0
11
1882.5833
21
1682.0000
31
0
0
LINE
8
FINA
10
1981.6667
20
0.0000
30
0
11
1981.6667
21
20.0000
31
0
0
LINE
8
FINA
10
1981.6667
20
1662.0000
30
0
11
1981.6667
21
1682.0000
31
0
0
LINE
8
FINA
10
2080.7500
20
0.0000
30
0
11
2080.7500
21
20.0000
31
0
0
LINE
8
FINA
10
2080.7500
20
1662.0000
30
0
11
2080.7500
21
1682.0000
31
0
0
LINE
8
FINA
10
2179.8333
20
0.0000
30
0
11
2179.8333
21
20.0000
31
0
0
LINE
8
FINA
10
2179.8333
20
1662.0000
30
0
11
2179.8333
21
1682.0000
31
0
0
LINE
8
FINA
10
2278.9167
20
0.0000
30
0
11
2278.9167
21
20.0000
31
0
0
LINE
8
FINA
10
2278.9167
20
1662.0000
30
0
11
2278.9167
21
1682.0000
31
0
0
LINE
8
FINA
10
0.0000
20
105.1250
30
0
11
20.0000
21
105.1250
31
0
0
LINE
8
FINA
10
2358.0000
20
105.1250
30
0
11
2378.0000
21
105.1250
31
0
0
LINE
8
FINA
10
0.0000
20
210.2500
30
0
11
20.0000
21
210.2500
31
0
0
LINE
8
FINA
10
2358.0000
20
210.2500
30
0
11
2378.0000
21
210.2500
31
0
0
LINE
8
FINA
10
0.0000
20
315.3750
30
0
11
20.0000
21
315.3750
31
0
0
LINE
8
FINA
10
2358.0000
20
315.3750
30
0
11
2378.0000
21
315.3750
31
0
0
LINE
8
FINA
10
0.0000
20
420.5000
30
0
11
20.0000
21
420.5000
31
0
0
LINE
8
FINA
10
2358.0000
20
420.5000
30
0
11
2378.0000
21
420.5000
31
0
0
LINE
8
FINA
10
0.0000
20
525.6250
30
0
11
20.0000
21
525.6250
31
0
0
LINE
8
FINA
10
2358.0000
20
525.6250
30
0
11
2378.0000
21
525.6250
31
0
0
LINE
8
FINA
10
0.0000
20
630.7500
30
0
11
20.0000
21
630.7500
31
0
0
LINE
8
FINA
10
2358.0000
20
630.7500
30
0
11
2378.0000
21
630.7500
31
0
0
LINE
8
FINA
10
0.0000
20
735.8750
30
0
11
20.0000
21
735.8750
31
0
0
LINE
8
FINA
10
2358.0000
20
735.8750
30
0
11
2378.0000
21
735.8750
31
0
0
LINE
8
FINA
10
0.0000
20
841.0000
30
0
11
20.0000
21
841.0000
31
0
0
LINE
8
FINA
10
2358.0000
20
841.0000
30
0
11
2378.0000
21
841.0000
31
0
0
LINE
8
FINA
10
0.0000
20
946.1250
30
0
11
20.0000
21
946.1250
31
0
0
LINE
8
FINA
10
2358.0000
20
946.1250
30
0
11
2378.0000
21
946.1250
31
0
0
LINE
8
FINA
10
0.0000
20
1051.2500
30
0
11
20.0000
21
1051.2500
31
0
0
LINE
8
FINA
10
2358.0000
20
1051.2500
30
0
11
2378.0000
21
1051.2500
31
0
0
LINE
8
FINA
10
0.0000
20
1156.3750
30
0
11
20.0000
21
1156.3750
31
0
0
LINE
8
FINA
10
2358.0000
20
1156.3750
30
0
11
2378.0000
21
1156.3750
31
0
0
LINE
8
FINA
10
0.0000
20
1261.5000
30
0
11
20.0000
21
1261.5000
31
0
0
LINE
8
FINA
10
2358.0000
20
1261.5000
30
0
11
2378.0000
21
1261.5000
31
0
0
LINE
8
FINA
10
0.0000
20
1366.6250
30
0
11
20.0000
21
1366.6250
31
0
0
LINE
8
FINA
10
2358.0000
20
1366.6250
30
0
11
2378.0000
21
1366.6250
31
0
0
LINE
8
FINA
10
0.0000
20
1471.7500
30
0
11
20.0000
21
1471.7500
31
0
0
LINE
8
FINA
10
2358.0000
20
1471.7500
30
0
11
2378.0000
21
1471.7500
31
0
0
LINE
8
FINA
10
0.0000
20
1576.8750
30
0
11
20.0000
21
1576.8750
31
0
0
LINE
8
FINA
10
2358.0000
20
1576.8750
30
0
11
2378.0000
21
1576.8750
31
0
0
TEXT
8
TEXTO
10
49.5417
20
10.0000
30
0
40
5.0000
1
1
72
1
73
2
11
49.5417
21
10.0000
31
0
0
TEXT
8
TEXTO
10
49.5417
20
1672.0000
30
0
40
5.0000
1
1
72
1
73
2
11
49.5417
21
1672.0000
31
0
0
TEXT
8
TEXTO
10
148.6250
20
10.0000
30
0
40
5.0000
1
2
72
1
73
2
11
148.6250
21
10.0000
31
0
0
TEXT
8
TEXTO
10
148.6250
20
1672.0000
30
0
40
5.0000
1
2
72
1
73
2
11
148.6250
21
1672.0000
31
0
0
TEXT
8
TEXTO
10
247.7083
20
10.0000
30
0
40
5.0000
1
3
72
1
73
2
11
247.7083
21
10.0000
31
0
0
TEXT
8
TEXTO
10
247.7083
20
1672.0000
30
0
40
5.0000
1
3
72
1
73
2
11
247.7083
21
1672.0000
31
0
0
TEXT
8
TEXTO
10
346.7917
20
10.0000
30
0
40
5.0000
1
4
72
1
73
2
11
346.7917
21
10.0000
31
0
0
TEXT
8
TEXTO
10
346.7917
20
1672.0000
30
0
40
5.0000
1
4
72
1
73
2
11
346.7917
21
1672.0000
31
0
0
TEXT
8
TEXTO
10
445.8750
20
10.0000
30
0
40
5.0000
1
5
72
1
73
2
11
445.8750
21
10.0000
31
0
0
TEXT
8
TEXTO
10
445.8750
20
1672.0000
30
0
40
5.0000
1
5
72
1
73
2
11
445.8750
21
1672.0000
31
0
0
TEXT
8
TEXTO
10
544.9583
20
10.0000
30
0
40
5.0000
1
6
72
1
73
2
11
544.9583
21
10.0000
31
0
0
TEXT
8
TEXTO
10
544.9583
20
1672.0000
30
0
40
5.0000
1
6
72
1
73
2
11
544.9583
21
1672.0000
31
0
0
TEXT
8
TEXTO
10
644.0417
20
10.0000
30
0
40
5.0000
1
7
72
1
73
2
11
644.0417
21
10.0000
31
0
0
TEXT
8
TEXTO
10
644.0417
20
1672.0000
30
0
40
5.0000
1
7
72
1
73
2
11
644.0417
21
1672.0000
31
0
0
TEXT
8
TEXTO
10
743.1250
20
10.0000
30
0
40
5.0000
1
8
72
1
73
2
11
743.1250
21
10.0000
31
0
0
TEXT
8
TEXTO
10
743.1250
20
1672.0000
30
0
40
5.0000
1
8
72
1
73
2
11
743.1250
21
1672.0000
31
0
0
TEXT
8
TEXTO
10
842.2083
20
10.0000
30
0
40
5.0000
1
9
72
1
73
2
11
842.2083
21
10.0000
31
0
0
TEXT
8
TEXTO
10
842.2083
20
1672.0000
30
0
40
5.0000
1
9
72
1
73
2
11
842.2083
21
1672.0000
31
0
0
TEXT
8
TEXTO
10
941.2917
20
10.0000
30
0
40
5.0000
1
10
72
1
73
2
11
941.2917
21
10.0000
31
0
0
TEXT
8
TEXTO
10
941.2917
20
1672.0000
30
0
40
5.0000
1
10
72
1
73
2
11
941.2917
21
1672.0000
31
0
0
TEXT
8
TEXTO
10
1040.3750
20
10.0000
30
0
40
5.0000
1
11
72
1
73
2
11
1040.3750
21
10.0000
31
0
0
TEXT
8
TEXTO
10
1040.3750
20
1672.0000
30
0
40
5.0000
1
11
72
1
73
2
11
1040.3750
21
1672.0000
31
0
0
TEXT
8
TEXTO
10
1139.4583
20
10.0000
30
0
40
5.0000
1
12
72
1
73
2
11
1139.4583
21
10.0000
31
0
0
TEXT
8
TEXTO
10
1139.4583
20
1672.0000
30
0
40
5.0000
1
12
72
1
73
2
11
1139.4583
21
1672.0000
31
0
0
TEXT
8
TEXTO
10
1238.5417
20
10.0000
30
0
40
5.0000
1
13
72
1
73
2
11
1238.5417
21
10.0000
31
0
0
TEXT
8
TEXTO
10
1238.5417
20
1672.0000
30
0
40
5.0000
1
13
72
1
73
2
11
1238.5417
21
1672.0000
31
0
0
TEXT
8
TEXTO
10
1337.6250
20
10.0000
30
0
40
5.0000
1
14
72
1
73
2
11
1337.6250
21
10.0000
31
0
0
TEXT
8
TEXTO
10
1337.6250
20
1672.0000
30
0
40
5.0000
1
14
72
1
73
2
11
1337.6250
21
1672.0000
31
0
0
TEXT
8
TEXTO
10
1436.7083
20
10.0000
30
0
40
5.0000
1
15
72
1
73
2
11
1436.7083
21
10.0000
31
0
0
TEXT
8
TEXTO
10
1436.7083
20
1672.0000
30
0
40
5.0000
1
15
72
1
73
2
11
1436.7083
21
1672.0000
31
0
0
TEXT
8
TEXTO
10
1535.7917
20
10.0000
30
0
40
5.0000
1
16
72
1
73
2
11
1535.7917
21
10.0000
31
0
0
TEXT
8
TEXTO
10
1535.7917
20
1672.0000
30
0
40
5.0000
1
16
72
1
73
2
11
1535.7917
21
1672.0000
31
0
0
TEXT
8
TEXTO
10
1634.8750
20
10.0000
30
0
40
5.0000
1
17
72
1
73
2
11
1634.8750
21
10.0000
31
0
0
TEXT
8
TEXTO
10
1634.8750
20
1672.0000
30
0
40
5.0000
1
17
72
1
73
2
11
1634.8750
21
1672.0000
31
0
0
TEXT
8
TEXTO
10
1733.9583
20
10.0000
30
0
40
5.0000
1
18
72
1
73
2
11
1733.9583
21
10.0000
31
0
0
TEXT
8
TEXTO
10
1733.9583
20
1672.0000
30
0
40
5.0000
1
18
72
1
73
2
11
1733.9583
21
1672.0000
31
0
0
TEXT
8
TEXTO
10
1833.0417
20
10.0000
30
0
40
5.0000
1
19
72
1
73
2
11
1833.0417
21
10.0000
31
0
0
TEXT
8
TEXTO
10
1833.0417
20
1672.0000
30
0
40
5.0000
1
19
72
1
73
2
11
1833.0417
21
1672.0000
31
0
0
TEXT
8
TEXTO
10
1932.1250
20
10.0000
30
0
40
5.0000
1
20
72
1
73
2
11
1932.1250
21
10.0000
31
0
0
TEXT
8
TEXTO
10
1932.1250
20
1672.0000
30
0
40
5.0000
1
20
72
1
73
2
11
1932.1250
21
1672.0000
31
0
0
TEXT
8
TEXTO
10
2031.2083
20
10.0000
30
0
40
5.0000
1
21
72
1
73
2
11
2031.2083
21
10.0000
31
0
0
TEXT
8
TEXTO
10
2031.2083
20
1672.0000
30
0
40
5.0000
1
21
72
1
73
2
11
2031.2083
21
1672.0000
31
0
0
TEXT
8
TEXTO
10
2130.2917
20
10.0000
30
0
40
5.0000
1
22
72
1
73
2
11
2130.2917
21
10.0000
31
0
0
TEXT
8
TEXTO
10
2130.2917
20
1672.0000
30
0
40
5.0000
1
22
72
1
73
2
11
2130.2917
21
1672.0000
31
0
0
TEXT
8
TEXTO
10
2229.3750
20
10.0000
30
0
40
5.0000
1
23
72
1
73
2
11
2229.3750
21
10.0000
31
0
0
TEXT
8
TEXTO
10
2229.3750
20
1672.0000
30
0
40
5.0000
1
23
72
1
73
2
11
2229.3750
21
1672.0000
31
0
0
TEXT
8
TEXTO
10
2328.4583
20
10.0000
30
0
40
5.0000
1
24
72
1
73
2
11
2328.4583
21
10.0000
31
0
0
TEXT
8
TEXTO
10
2328.4583
20
1672.0000
30
0
40
5.0000
1
24
72
1
73
2
11
2328.4583
21
1672.0000
31
0
0
TEXT
8
TEXTO
10
10.0000
20
1629.4375
30
0
40
5.0000
1
A
72
1
73
2
11
10.0000
21
1629.4375
31
0
0
TEXT
8
TEXTO
10
2368.0000
20
1629.4375
30
0
40
5.0000
1
A
72
1
73
2
11
2368.0000
21
1629.4375
31
0
0
TEXT
8
TEXTO
10
10.0000
20
1524.3125
30
0
40
5.0000
1
B
72
1
73
2
11
10.0000
21
1524.3125
31
0
0
TEXT
8
TEXTO
10
2368.0000
20
1524.3125
30
0
40
5.0000
1
B
72
1
73
2
11
2368.0000
21
1524.3125
31
0
0
TEXT
8
TEXTO
10
10.0000
20
1419.1875
30
0
40
5.0000
1
C
72
1
73
2
11
10.0000
21
1419.1875
31
0
0
TEXT
8
TEXTO
10
2368.0000
20
1419.1875
30
0
40
5.0000
1
C
72
1
73
2
11
2368.0000
21
1419.1875
31
0
0
TEXT
8
TEXTO
10
10.0000
20
1314.0625
30
0
40
5.0000
1
D
72
1
73
2
11
10.0000
21
1314.0625
31
0
0
TEXT
8
TEXTO
10
2368.0000
20
1314.0625
30
0
40
5.0000
1
D
72
1
73
2
11
2368.0000
21
1314.0625
31
0
0
TEXT
8
TEXTO
10
10.0000
20
1208.9375
30
0
40
5.0000
1
E
72
1
73
2
11
10.0000
21
1208.9375
31
0
0
TEXT
8
TEXTO
10
2368.0000
20
1208.9375
30
0
40
5.0000
1
E
72
1
73
2
11
2368.0000
21
1208.9375
31
0
0
TEXT
8
TEXTO
10
10.0000
20
1103.8125
30
0
40
5.0000
1
F
72
1
73
2
11
10.0000
21
1103.8125
31
0
0
TEXT
8
TEXTO
10
2368.0000
20
1103.8125
30
0
40
5.0000
1
F
72
1
73
2
11
2368.0000
21
1103.8125
31
0
0
TEXT
8
TEXTO
10
10.0000
20
998.6875
30
0
40
5.0000
1
G
72
1
73
2
11
10.0000
21
998.6875
31
0
0
TEXT
8
TEXTO
10
2368.0000
20
998.6875
30
0
40
5.0000
1
G
72
1
73
2
11
2368.0000
21
998.6875
31
0
0
TEXT
8
TEXTO
10
10.0000
20
893.5625
30
0
40
5.0000
1
H
72
1
73
2
11
10.0000
21
893.5625
31
0
0
TEXT
8
TEXTO
10
2368.0000
20
893.5625
30
0
40
5.0000
1
H
72
1
73
2
11
2368.0000
21
893.5625
31
0
0
TEXT
8
TEXTO
10
10.0000
20
788.4375
30
0
40
5.0000
1
J
72
1
73
2
11
10.0000
21
788.4375
31
0
0
TEXT
8
TEXTO
10
2368.0000
20
788.4375
30
0
40
5.0000
1
J
72
1
73
2
11
2368.0000
21
788.4375
31
0
0
TEXT
8
TEXTO
10
10.0000
20
683.3125
30
0
40
5.0000
1
K
72
1
73
2
11
10.0000
21
683.3125
31
0
0
TEXT
8
TEXTO
10
2368.0000
20
683.3125
30
0
40
5.0000
1
K
72
1
73
2
11
2368.0000
21
683.3125
31
0
0
TEXT
8
TEXTO
10
10.0000
20
578.1875
30
0
40
5.0000
1
L
72
1
73
2
11
10.0000
21
578.1875
31
0
0
TEXT
8
TEXTO
10
2368.0000
20
578.1875
30
0
40
5.0000
1
L
72
1
73
2
11
2368.0000
21
578.1875
31
0
0
TEXT
8
TEXTO
10
10.0000
20
473.0625
30
0
40
5.0000
1
M
72
1
73
2
11
10.0000
21
473.0625
31
0
0
TEXT
8
TEXTO
10
2368.0000
20
473.0625
30
0
40
5.0000
1
M
72
1
73
2
11
2368.0000
21
473.0625
31
0
0
TEXT
8
TEXTO
10
10.0000
20
367.9375
30
0
40
5.0000
1
N
72
1
73
2
11
10.0000
21
367.9375
31
0
0
TEXT
8
TEXTO
10
2368.0000
20
367.9375
30
0
40
5.0000
1
N
72
1
73
2
11
2368.0000
21
367.9375
31
0
0
TEXT
8
TEXTO
10
10.0000
20
262.8125
30
0
40
5.0000
1
P
72
1
73
2
11
10.0000
21
262.8125
31
0
0
TEXT
8
TEXTO
10
2368.0000
20
262.8125
30
0
40
5.0000
1
P
72
1
73
2
11
2368.0000
21
262.8125
31
0
0
TEXT
8
TEXTO
10
10.0000
20
157.6875
30
0
40
5.0000
1
Q
72
1
73
2
11
10.0000
21
157.6875
31
0
0
TEXT
8
TEXTO
10
2368.0000
20
157.6875
30
0
40
5.0000
1
Q
72
1
73
2
11
2368.0000
21
157.6875
31
0
0
TEXT
8
TEXTO
10
10.0000
20
52.5625
30
0
40
5.0000
1
R
72
1
73
2
11
10.0000
21
52.5625
31
0
0
TEXT
8
TEXTO
10
2368.0000
20
52.5625
30
0
40
5.0000
1
R
72
1
73
2
11
2368.0000
21
52.5625
31
0
0
LINE
8
NORMA
10
1998.0000
20
20.0000
30
0
11
2358.0000
21
20.0000
31
0
0
LINE
8
NORMA
10
2358.0000
20
20.0000
30
0
11
2358.0000
21
104.0000
31
0
0
LINE
8
NORMA
10
2358.0000
20
104.0000
30
0
11
1998.0000
21
104.0000
31
0
0
LINE
8
NORMA
10
1998.0000
20
104.0000
30
0
11
1998.0000
21
20.0000
31
0
0
LINE
8
NORMA
10
2078.0000
20
20.0000
30
0
11
2078.0000
21
104.0000
31
0
0
LINE
8
NORMA
10
2266.0000
20
20.0000
30
0
11
2266.0000
21
104.0000
31
0
0
LINE
8
FINA
10
1998.0000
20
58.0000
30
0
11
2078.0000
21
58.0000
31
0
0
TEXT
8
TEXTO
10
2038.0000
20
87.6000
30
0
40
12.0000
1
foto3d
72
1
73
2
11
2038.0000
21
87.6000
31
0
0
LINE
8
FINA
10
2011.0000
20
77.2000
30
0
11
2065.0000
21
77.2000
31
0
0
TEXT
8
TEXTO
10
2038.0000
20
71.6000
30
0
40
2.6000
1
CAD · DISEÑO CAPA USER
72
1
73
2
11
2038.0000
21
71.6000
31
0
0
TEXT
8
TEXTO
10
2038.0000
20
65.2000
30
0
40
2.6000
1
ISO 5457 · 7200 · 129 · 5456-2
72
1
73
2
11
2038.0000
21
65.2000
31
0
0
TEXT
8
TEXTO
10
2038.0000
20
53.2000
30
0
40
2.8000
1
PROYECCIÓN — PRIMER DIEDRO
72
1
73
2
11
2038.0000
21
53.2000
31
0
0
CIRCLE
8
TEXTO
10
2028.8000
20
35.0000
30
0
40
5.9800
0
CIRCLE
8
TEXTO
10
2028.8000
20
35.0000
30
0
40
3.2200
0
LINE
8
TEXTO
10
2038.9200
20
29.0200
30
0
11
2053.1800
21
31.7800
31
0
0
LINE
8
TEXTO
10
2053.1800
20
31.7800
30
0
11
2053.1800
21
38.2200
31
0
0
LINE
8
TEXTO
10
2053.1800
20
38.2200
30
0
11
2038.9200
21
40.9800
31
0
0
LINE
8
TEXTO
10
2038.9200
20
40.9800
30
0
11
2038.9200
21
29.0200
31
0
0
LINE
8
FINA
10
2020.0600
20
35.0000
30
0
11
2055.9400
21
35.0000
31
0
0
LINE
8
FINA
10
2078.0000
20
78.0000
30
0
11
2266.0000
21
78.0000
31
0
0
LINE
8
FINA
10
2078.0000
20
58.0000
30
0
11
2266.0000
21
58.0000
31
0
0
LINE
8
FINA
10
2078.0000
20
38.0000
30
0
11
2266.0000
21
38.0000
31
0
0
LINE
8
FINA
10
2172.0000
20
58.0000
30
0
11
2172.0000
21
78.0000
31
0
0
LINE
8
FINA
10
2190.0000
20
38.0000
30
0
11
2190.0000
21
58.0000
31
0
0
TEXT
8
TEXTO
10
2080.6000
20
99.2000
30
0
40
2.8000
1
DESIGNACIÓN
0
TEXT
8
TEXTO
10
2081.2000
20
88.2000
30
0
40
6.2506
1
CUD-05 · Refuerzo externo superior C60° (x2) — DESARROLLO
72
0
73
2
11
2081.2000
21
88.2000
31
0
0
TEXT
8
TEXTO
10
2080.6000
20
73.2000
30
0
40
2.8000
1
PROYECTO
0
TEXT
8
TEXTO
10
2081.2000
20
65.2000
30
0
40
4.0000
1
Curva 60° 24" de polines cónicos — Conveyo…
72
0
73
2
11
2081.2000
21
65.2000
31
0
0
TEXT
8
TEXTO
10
2174.6000
20
73.2000
30
0
40
2.8000
1
FUENTE
0
TEXT
8
TEXTO
10
2175.2000
20
65.2000
30
0
40
4.8000
1
chapa plegada — capa user
72
0
73
2
11
2175.2000
21
65.2000
31
0
0
TEXT
8
TEXTO
10
2080.6000
20
53.2000
30
0
40
2.8000
1
VERIFICACIÓN DE ESCALA
0
TEXT
8
TEXTO
10
2081.2000
20
45.2000
30
0
40
4.8000
1
CAD EN MM (CAPA USER)
72
0
73
2
11
2081.2000
21
45.2000
31
0
0
TEXT
8
TEXTO
10
2192.6000
20
53.2000
30
0
40
2.8000
1
PLIEGUES
0
TEXT
8
TEXTO
10
2193.2000
20
45.2000
30
0
40
5.2000
1
0
72
0
73
2
11
2193.2000
21
45.2000
31
0
0
TEXT
8
TEXTO
10
2080.6000
20
33.2000
30
0
40
2.8000
1
NOTA
0
TEXT
8
TEXTO
10
2081.2000
20
26.2000
30
0
40
4.4000
1
Fe e=3 mm — corte plano de corona · e3 · tol. gral. ISO 2768-mK · K=0.5
72
0
73
2
11
2081.2000
21
26.2000
31
0
0
LINE
8
FINA
10
2266.0000
20
78.0000
30
0
11
2358.0000
21
78.0000
31
0
0
LINE
8
FINA
10
2266.0000
20
58.0000
30
0
11
2358.0000
21
58.0000
31
0
0
LINE
8
FINA
10
2266.0000
20
38.0000
30
0
11
2358.0000
21
38.0000
31
0
0
LINE
8
FINA
10
2312.0000
20
58.0000
30
0
11
2312.0000
21
78.0000
31
0
0
LINE
8
FINA
10
2318.0000
20
38.0000
30
0
11
2318.0000
21
58.0000
31
0
0
TEXT
8
TEXTO
10
2268.6000
20
99.2000
30
0
40
2.8000
1
ESCALA
0
TEXT
8
TEXTO
10
2312.0000
20
88.2000
30
0
40
10.0000
1
1:2
72
1
73
2
11
2312.0000
21
88.2000
31
0
0
TEXT
8
TEXTO
10
2268.6000
20
73.2000
30
0
40
2.8000
1
FORMATO
0
TEXT
8
TEXTO
10
2289.0000
20
65.2000
30
0
40
6.0000
1
A0
72
1
73
2
11
2289.0000
21
65.2000
31
0
0
TEXT
8
TEXTO
10
2314.6000
20
73.2000
30
0
40
2.8000
1
LÁMINA
0
TEXT
8
TEXTO
10
2335.0000
20
65.2000
30
0
40
6.0000
1
1 / 1
72
1
73
2
11
2335.0000
21
65.2000
31
0
0
TEXT
8
TEXTO
10
2268.6000
20
53.2000
30
0
40
2.8000
1
FECHA
0
TEXT
8
TEXTO
10
2292.0000
20
45.2000
30
0
40
5.2000
1
2026-08-13
72
1
73
2
11
2292.0000
21
45.2000
31
0
0
TEXT
8
TEXTO
10
2320.6000
20
53.2000
30
0
40
2.8000
1
UNIDADES
0
TEXT
8
TEXTO
10
2338.0000
20
45.2000
30
0
40
6.0000
1
mm
72
1
73
2
11
2338.0000
21
45.2000
31
0
0
TEXT
8
TEXTO
10
2268.6000
20
33.2000
30
0
40
2.8000
1
Nº DE PLANO
0
TEXT
8
TEXTO
10
2312.0000
20
26.2000
30
0
40
5.2000
1
CUD-05
72
1
73
2
11
2312.0000
21
26.2000
31
0
0
ENDSEC
0
EOF
