0
SECTION
2
HEADER
9
$ACADVER
1
AC1009
9
$DWGCODEPAGE
3
ANSI_1252
0
ENDSEC
0
SECTION
2
TABLES
0
TABLE
2
LTYPE
70
2
0
LTYPE
2
CONTINUOUS
70
0
3
Solid line
72
65
73
0
40
0
0
LTYPE
2
DASHED
70
0
3
Segmentada __ __ __
72
65
73
2
40
6
49
4
49
-2
0
ENDTAB
0
TABLE
2
LAYER
70
7
0
LAYER
2
SOMBRA
70
0
62
8
6
CONTINUOUS
0
LAYER
2
NORMA
70
0
62
7
6
CONTINUOUS
0
LAYER
2
FINA
70
0
62
7
6
CONTINUOUS
0
LAYER
2
VISIBLE
70
0
62
7
6
CONTINUOUS
0
LAYER
2
COTAS
70
0
62
7
6
CONTINUOUS
0
LAYER
2
TEXTO
70
0
62
7
6
CONTINUOUS
0
LAYER
2
PLIEGUE
70
0
62
1
6
DASHED
0
ENDTAB
0
ENDSEC
0
SECTION
2
ENTITIES
0
LINE
8
VISIBLE
10
809.6250
20
209.0000
30
0
11
820.6750
21
228.7300
31
0
0
LINE
8
VISIBLE
10
820.6750
20
228.7300
30
0
11
831.2050
21
248.7500
31
0
0
LINE
8
VISIBLE
10
831.2050
20
248.7500
30
0
11
841.2050
21
269.0400
31
0
0
LINE
8
VISIBLE
10
841.2050
20
269.0400
30
0
11
850.6750
21
289.5800
31
0
0
LINE
8
VISIBLE
10
850.6750
20
289.5800
30
0
11
859.6050
21
310.3600
31
0
0
LINE
8
VISIBLE
10
859.6050
20
310.3600
30
0
11
867.9850
21
331.3700
31
0
0
LINE
8
VISIBLE
10
867.9850
20
331.3700
30
0
11
875.8150
21
352.5900
31
0
0
LINE
8
VISIBLE
10
875.8150
20
352.5900
30
0
11
883.0850
21
374.0100
31
0
0
LINE
8
VISIBLE
10
883.0850
20
374.0100
30
0
11
889.7950
21
395.6100
31
0
0
LINE
8
VISIBLE
10
889.7950
20
395.6100
30
0
11
895.9350
21
417.3800
31
0
0
LINE
8
VISIBLE
10
895.9350
20
417.3800
30
0
11
901.5050
21
439.3000
31
0
0
LINE
8
VISIBLE
10
901.5050
20
439.3000
30
0
11
906.4950
21
461.3600
31
0
0
LINE
8
VISIBLE
10
906.4950
20
461.3600
30
0
11
910.9050
21
483.5500
31
0
0
LINE
8
VISIBLE
10
910.9050
20
483.5500
30
0
11
914.7350
21
505.8400
31
0
0
LINE
8
VISIBLE
10
914.7350
20
505.8400
30
0
11
917.9850
21
528.2300
31
0
0
LINE
8
VISIBLE
10
917.9850
20
528.2300
30
0
11
920.6450
21
550.6900
31
0
0
LINE
8
VISIBLE
10
920.6450
20
550.6900
30
0
11
922.7150
21
573.2100
31
0
0
LINE
8
VISIBLE
10
922.7150
20
573.2100
30
0
11
924.1950
21
595.7800
31
0
0
LINE
8
VISIBLE
10
924.1950
20
595.7800
30
0
11
925.0750
21
618.3800
31
0
0
LINE
8
VISIBLE
10
925.0750
20
618.3800
30
0
11
925.3750
21
641.0000
31
0
0
LINE
8
VISIBLE
10
925.3750
20
641.0000
30
0
11
925.0750
21
663.6200
31
0
0
LINE
8
VISIBLE
10
925.0750
20
663.6200
30
0
11
924.1950
21
686.2200
31
0
0
LINE
8
VISIBLE
10
924.1950
20
686.2200
30
0
11
922.7150
21
708.7900
31
0
0
LINE
8
VISIBLE
10
922.7150
20
708.7900
30
0
11
920.6450
21
731.3100
31
0
0
LINE
8
VISIBLE
10
920.6450
20
731.3100
30
0
11
917.9850
21
753.7700
31
0
0
LINE
8
VISIBLE
10
917.9850
20
753.7700
30
0
11
914.7350
21
776.1600
31
0
0
LINE
8
VISIBLE
10
914.7350
20
776.1600
30
0
11
910.9050
21
798.4500
31
0
0
LINE
8
VISIBLE
10
910.9050
20
798.4500
30
0
11
906.4950
21
820.6400
31
0
0
LINE
8
VISIBLE
10
906.4950
20
820.6400
30
0
11
901.5050
21
842.7000
31
0
0
LINE
8
VISIBLE
10
901.5050
20
842.7000
30
0
11
895.9350
21
864.6200
31
0
0
LINE
8
VISIBLE
10
895.9350
20
864.6200
30
0
11
889.7950
21
886.3900
31
0
0
LINE
8
VISIBLE
10
889.7950
20
886.3900
30
0
11
883.0850
21
907.9900
31
0
0
LINE
8
VISIBLE
10
883.0850
20
907.9900
30
0
11
875.8150
21
929.4100
31
0
0
LINE
8
VISIBLE
10
875.8150
20
929.4100
30
0
11
867.9850
21
950.6300
31
0
0
LINE
8
VISIBLE
10
867.9850
20
950.6300
30
0
11
859.6050
21
971.6400
31
0
0
LINE
8
VISIBLE
10
859.6050
20
971.6400
30
0
11
850.6750
21
992.4200
31
0
0
LINE
8
VISIBLE
10
850.6750
20
992.4200
30
0
11
841.2050
21
1012.9600
31
0
0
LINE
8
VISIBLE
10
841.2050
20
1012.9600
30
0
11
831.2050
21
1033.2500
31
0
0
LINE
8
VISIBLE
10
831.2050
20
1033.2500
30
0
11
820.6750
21
1053.2700
31
0
0
LINE
8
VISIBLE
10
820.6750
20
1053.2700
30
0
11
809.6250
21
1073.0000
31
0
0
LINE
8
VISIBLE
10
809.6250
20
1073.0000
30
0
11
776.6250
21
1053.9500
31
0
0
LINE
8
VISIBLE
10
776.6250
20
1053.9500
30
0
11
787.1950
21
1035.0900
31
0
0
LINE
8
VISIBLE
10
787.1950
20
1035.0900
30
0
11
797.2550
21
1015.9500
31
0
0
LINE
8
VISIBLE
10
797.2550
20
1015.9500
30
0
11
806.8250
21
996.5600
31
0
0
LINE
8
VISIBLE
10
806.8250
20
996.5600
30
0
11
815.8750
21
976.9200
31
0
0
LINE
8
VISIBLE
10
815.8750
20
976.9200
30
0
11
824.4050
21
957.0600
31
0
0
LINE
8
VISIBLE
10
824.4050
20
957.0600
30
0
11
832.4150
21
936.9800
31
0
0
LINE
8
VISIBLE
10
832.4150
20
936.9800
30
0
11
839.9050
21
916.6900
31
0
0
LINE
8
VISIBLE
10
839.9050
20
916.6900
30
0
11
846.8550
21
896.2200
31
0
0
LINE
8
VISIBLE
10
846.8550
20
896.2200
30
0
11
853.2650
21
875.5700
31
0
0
LINE
8
VISIBLE
10
853.2650
20
875.5700
30
0
11
859.1350
21
854.7600
31
0
0
LINE
8
VISIBLE
10
859.1350
20
854.7600
30
0
11
864.4550
21
833.8000
31
0
0
LINE
8
VISIBLE
10
864.4550
20
833.8000
30
0
11
869.2250
21
812.7100
31
0
0
LINE
8
VISIBLE
10
869.2250
20
812.7100
30
0
11
873.4450
21
791.5100
31
0
0
LINE
8
VISIBLE
10
873.4450
20
791.5100
30
0
11
877.1050
21
770.2000
31
0
0
LINE
8
VISIBLE
10
877.1050
20
770.2000
30
0
11
880.2050
21
748.8000
31
0
0
LINE
8
VISIBLE
10
880.2050
20
748.8000
30
0
11
882.7550
21
727.3300
31
0
0
LINE
8
VISIBLE
10
882.7550
20
727.3300
30
0
11
884.7250
21
705.8000
31
0
0
LINE
8
VISIBLE
10
884.7250
20
705.8000
30
0
11
886.1450
21
684.2200
31
0
0
LINE
8
VISIBLE
10
886.1450
20
684.2200
30
0
11
886.9950
21
662.6200
31
0
0
LINE
8
VISIBLE
10
886.9950
20
662.6200
30
0
11
887.2750
21
641.0000
31
0
0
LINE
8
VISIBLE
10
887.2750
20
641.0000
30
0
11
886.9950
21
619.3800
31
0
0
LINE
8
VISIBLE
10
886.9950
20
619.3800
30
0
11
886.1450
21
597.7800
31
0
0
LINE
8
VISIBLE
10
886.1450
20
597.7800
30
0
11
884.7250
21
576.2000
31
0
0
LINE
8
VISIBLE
10
884.7250
20
576.2000
30
0
11
882.7550
21
554.6700
31
0
0
LINE
8
VISIBLE
10
882.7550
20
554.6700
30
0
11
880.2050
21
533.2000
31
0
0
LINE
8
VISIBLE
10
880.2050
20
533.2000
30
0
11
877.1050
21
511.8000
31
0
0
LINE
8
VISIBLE
10
877.1050
20
511.8000
30
0
11
873.4450
21
490.4900
31
0
0
LINE
8
VISIBLE
10
873.4450
20
490.4900
30
0
11
869.2250
21
469.2900
31
0
0
LINE
8
VISIBLE
10
869.2250
20
469.2900
30
0
11
864.4550
21
448.2000
31
0
0
LINE
8
VISIBLE
10
864.4550
20
448.2000
30
0
11
859.1350
21
427.2400
31
0
0
LINE
8
VISIBLE
10
859.1350
20
427.2400
30
0
11
853.2650
21
406.4300
31
0
0
LINE
8
VISIBLE
10
853.2650
20
406.4300
30
0
11
846.8550
21
385.7800
31
0
0
LINE
8
VISIBLE
10
846.8550
20
385.7800
30
0
11
839.9050
21
365.3100
31
0
0
LINE
8
VISIBLE
10
839.9050
20
365.3100
30
0
11
832.4150
21
345.0200
31
0
0
LINE
8
VISIBLE
10
832.4150
20
345.0200
30
0
11
824.4050
21
324.9400
31
0
0
LINE
8
VISIBLE
10
824.4050
20
324.9400
30
0
11
815.8750
21
305.0800
31
0
0
LINE
8
VISIBLE
10
815.8750
20
305.0800
30
0
11
806.8250
21
285.4400
31
0
0
LINE
8
VISIBLE
10
806.8250
20
285.4400
30
0
11
797.2550
21
266.0500
31
0
0
LINE
8
VISIBLE
10
797.2550
20
266.0500
30
0
11
787.1950
21
246.9100
31
0
0
LINE
8
VISIBLE
10
787.1950
20
246.9100
30
0
11
776.6250
21
228.0500
31
0
0
LINE
8
VISIBLE
10
776.6250
20
228.0500
30
0
11
809.6250
21
209.0000
31
0
0
CIRCLE
8
VISIBLE
10
830.7150
20
291.6400
30
0
40
5.5000
0
CIRCLE
8
VISIBLE
10
902.3350
20
558.9400
30
0
40
5.5000
0
CIRCLE
8
VISIBLE
10
902.3350
20
723.0600
30
0
40
5.5000
0
CIRCLE
8
VISIBLE
10
830.7150
20
990.3600
30
0
40
5.5000
0
CIRCLE
8
VISIBLE
10
803.4950
20
237.0200
30
0
40
5.5000
0
CIRCLE
8
VISIBLE
10
906.0550
20
619.8000
30
0
40
5.5000
0
CIRCLE
8
VISIBLE
10
906.0550
20
662.2000
30
0
40
5.5000
0
CIRCLE
8
VISIBLE
10
803.4950
20
1044.9800
30
0
40
5.5000
0
TEXT
8
TEXTO
10
776.6250
20
197.0000
30
0
40
6.4000
1
BARRENOS: 8× · Ø 11 mm (corte láser)
0
LINE
8
COTAS
10
776.6250
20
207.0000
30
0
11
776.6250
21
188.0000
31
0
0
LINE
8
COTAS
10
925.3750
20
207.0000
30
0
11
925.3750
21
188.0000
31
0
0
LINE
8
COTAS
10
776.6250
20
191.0000
30
0
11
925.3750
21
191.0000
31
0
0
SOLID
8
COTAS
10
776.6250
20
191.0000
30
0
11
781.6250
21
191.9000
31
0
12
781.6250
22
190.1000
32
0
13
781.6250
23
190.1000
33
0
0
SOLID
8
COTAS
10
925.3750
20
191.0000
30
0
11
920.3750
21
191.9000
31
0
12
920.3750
22
190.1000
32
0
13
920.3750
23
190.1000
33
0
0
TEXT
8
COTAS
10
851.0000
20
195.4000
30
0
40
7.0000
1
148.8
72
1
73
2
11
851.0000
21
195.4000
31
0
0
LINE
8
COTAS
10
927.3750
20
209.0000
30
0
11
946.3750
21
209.0000
31
0
0
LINE
8
COTAS
10
927.3750
20
1073.0000
30
0
11
946.3750
21
1073.0000
31
0
0
LINE
8
COTAS
10
943.3750
20
209.0000
30
0
11
943.3750
21
1073.0000
31
0
0
SOLID
8
COTAS
10
943.3750
20
209.0000
30
0
11
944.2750
21
214.0000
31
0
12
942.4750
22
214.0000
32
0
13
942.4750
23
214.0000
33
0
0
SOLID
8
COTAS
10
943.3750
20
1073.0000
30
0
11
944.2750
21
1068.0000
31
0
12
942.4750
22
1068.0000
32
0
13
942.4750
23
1068.0000
33
0
0
TEXT
8
COTAS
10
947.7750
20
641.0000
30
0
40
7.0000
1
864
72
1
73
2
11
947.7750
21
641.0000
31
0
0
TEXT
8
TEXTO
10
776.6250
20
1094.0000
30
0
40
7.0000
1
DESARROLLO DE CHAPA — BA = ang·(R + K·t), fibra neutra por factor K
0
TEXT
8
TEXTO
10
776.6250
20
1083.0000
30
0
40
8.0000
1
ESPESOR DE CHAPA e = 3 mm (constante en toda la pieza)
0
LINE
8
FINA
10
0.0000
20
0.0000
30
0
11
1682.0000
21
0.0000
31
0
0
LINE
8
FINA
10
1682.0000
20
0.0000
30
0
11
1682.0000
21
1188.0000
31
0
0
LINE
8
FINA
10
1682.0000
20
1188.0000
30
0
11
0.0000
21
1188.0000
31
0
0
LINE
8
FINA
10
0.0000
20
1188.0000
30
0
11
0.0000
21
0.0000
31
0
0
LINE
8
NORMA
10
40.0000
20
20.0000
30
0
11
1662.0000
21
20.0000
31
0
0
LINE
8
NORMA
10
1662.0000
20
20.0000
30
0
11
1662.0000
21
1168.0000
31
0
0
LINE
8
NORMA
10
1662.0000
20
1168.0000
30
0
11
40.0000
21
1168.0000
31
0
0
LINE
8
NORMA
10
40.0000
20
1168.0000
30
0
11
40.0000
21
20.0000
31
0
0
LINE
8
NORMA
10
0.0000
20
594.0000
30
0
11
50.0000
21
594.0000
31
0
0
LINE
8
NORMA
10
1682.0000
20
594.0000
30
0
11
1652.0000
21
594.0000
31
0
0
LINE
8
NORMA
10
841.0000
20
0.0000
30
0
11
841.0000
21
30.0000
31
0
0
LINE
8
NORMA
10
841.0000
20
1188.0000
30
0
11
841.0000
21
1158.0000
31
0
0
LINE
8
FINA
10
105.1250
20
0.0000
30
0
11
105.1250
21
20.0000
31
0
0
LINE
8
FINA
10
105.1250
20
1168.0000
30
0
11
105.1250
21
1188.0000
31
0
0
LINE
8
FINA
10
210.2500
20
0.0000
30
0
11
210.2500
21
20.0000
31
0
0
LINE
8
FINA
10
210.2500
20
1168.0000
30
0
11
210.2500
21
1188.0000
31
0
0
LINE
8
FINA
10
315.3750
20
0.0000
30
0
11
315.3750
21
20.0000
31
0
0
LINE
8
FINA
10
315.3750
20
1168.0000
30
0
11
315.3750
21
1188.0000
31
0
0
LINE
8
FINA
10
420.5000
20
0.0000
30
0
11
420.5000
21
20.0000
31
0
0
LINE
8
FINA
10
420.5000
20
1168.0000
30
0
11
420.5000
21
1188.0000
31
0
0
LINE
8
FINA
10
525.6250
20
0.0000
30
0
11
525.6250
21
20.0000
31
0
0
LINE
8
FINA
10
525.6250
20
1168.0000
30
0
11
525.6250
21
1188.0000
31
0
0
LINE
8
FINA
10
630.7500
20
0.0000
30
0
11
630.7500
21
20.0000
31
0
0
LINE
8
FINA
10
630.7500
20
1168.0000
30
0
11
630.7500
21
1188.0000
31
0
0
LINE
8
FINA
10
735.8750
20
0.0000
30
0
11
735.8750
21
20.0000
31
0
0
LINE
8
FINA
10
735.8750
20
1168.0000
30
0
11
735.8750
21
1188.0000
31
0
0
LINE
8
FINA
10
841.0000
20
0.0000
30
0
11
841.0000
21
20.0000
31
0
0
LINE
8
FINA
10
841.0000
20
1168.0000
30
0
11
841.0000
21
1188.0000
31
0
0
LINE
8
FINA
10
946.1250
20
0.0000
30
0
11
946.1250
21
20.0000
31
0
0
LINE
8
FINA
10
946.1250
20
1168.0000
30
0
11
946.1250
21
1188.0000
31
0
0
LINE
8
FINA
10
1051.2500
20
0.0000
30
0
11
1051.2500
21
20.0000
31
0
0
LINE
8
FINA
10
1051.2500
20
1168.0000
30
0
11
1051.2500
21
1188.0000
31
0
0
LINE
8
FINA
10
1156.3750
20
0.0000
30
0
11
1156.3750
21
20.0000
31
0
0
LINE
8
FINA
10
1156.3750
20
1168.0000
30
0
11
1156.3750
21
1188.0000
31
0
0
LINE
8
FINA
10
1261.5000
20
0.0000
30
0
11
1261.5000
21
20.0000
31
0
0
LINE
8
FINA
10
1261.5000
20
1168.0000
30
0
11
1261.5000
21
1188.0000
31
0
0
LINE
8
FINA
10
1366.6250
20
0.0000
30
0
11
1366.6250
21
20.0000
31
0
0
LINE
8
FINA
10
1366.6250
20
1168.0000
30
0
11
1366.6250
21
1188.0000
31
0
0
LINE
8
FINA
10
1471.7500
20
0.0000
30
0
11
1471.7500
21
20.0000
31
0
0
LINE
8
FINA
10
1471.7500
20
1168.0000
30
0
11
1471.7500
21
1188.0000
31
0
0
LINE
8
FINA
10
1576.8750
20
0.0000
30
0
11
1576.8750
21
20.0000
31
0
0
LINE
8
FINA
10
1576.8750
20
1168.0000
30
0
11
1576.8750
21
1188.0000
31
0
0
LINE
8
FINA
10
0.0000
20
99.0000
30
0
11
20.0000
21
99.0000
31
0
0
LINE
8
FINA
10
1662.0000
20
99.0000
30
0
11
1682.0000
21
99.0000
31
0
0
LINE
8
FINA
10
0.0000
20
198.0000
30
0
11
20.0000
21
198.0000
31
0
0
LINE
8
FINA
10
1662.0000
20
198.0000
30
0
11
1682.0000
21
198.0000
31
0
0
LINE
8
FINA
10
0.0000
20
297.0000
30
0
11
20.0000
21
297.0000
31
0
0
LINE
8
FINA
10
1662.0000
20
297.0000
30
0
11
1682.0000
21
297.0000
31
0
0
LINE
8
FINA
10
0.0000
20
396.0000
30
0
11
20.0000
21
396.0000
31
0
0
LINE
8
FINA
10
1662.0000
20
396.0000
30
0
11
1682.0000
21
396.0000
31
0
0
LINE
8
FINA
10
0.0000
20
495.0000
30
0
11
20.0000
21
495.0000
31
0
0
LINE
8
FINA
10
1662.0000
20
495.0000
30
0
11
1682.0000
21
495.0000
31
0
0
LINE
8
FINA
10
0.0000
20
594.0000
30
0
11
20.0000
21
594.0000
31
0
0
LINE
8
FINA
10
1662.0000
20
594.0000
30
0
11
1682.0000
21
594.0000
31
0
0
LINE
8
FINA
10
0.0000
20
693.0000
30
0
11
20.0000
21
693.0000
31
0
0
LINE
8
FINA
10
1662.0000
20
693.0000
30
0
11
1682.0000
21
693.0000
31
0
0
LINE
8
FINA
10
0.0000
20
792.0000
30
0
11
20.0000
21
792.0000
31
0
0
LINE
8
FINA
10
1662.0000
20
792.0000
30
0
11
1682.0000
21
792.0000
31
0
0
LINE
8
FINA
10
0.0000
20
891.0000
30
0
11
20.0000
21
891.0000
31
0
0
LINE
8
FINA
10
1662.0000
20
891.0000
30
0
11
1682.0000
21
891.0000
31
0
0
LINE
8
FINA
10
0.0000
20
990.0000
30
0
11
20.0000
21
990.0000
31
0
0
LINE
8
FINA
10
1662.0000
20
990.0000
30
0
11
1682.0000
21
990.0000
31
0
0
LINE
8
FINA
10
0.0000
20
1089.0000
30
0
11
20.0000
21
1089.0000
31
0
0
LINE
8
FINA
10
1662.0000
20
1089.0000
30
0
11
1682.0000
21
1089.0000
31
0
0
TEXT
8
TEXTO
10
52.5625
20
10.0000
30
0
40
5.0000
1
1
72
1
73
2
11
52.5625
21
10.0000
31
0
0
TEXT
8
TEXTO
10
52.5625
20
1178.0000
30
0
40
5.0000
1
1
72
1
73
2
11
52.5625
21
1178.0000
31
0
0
TEXT
8
TEXTO
10
157.6875
20
10.0000
30
0
40
5.0000
1
2
72
1
73
2
11
157.6875
21
10.0000
31
0
0
TEXT
8
TEXTO
10
157.6875
20
1178.0000
30
0
40
5.0000
1
2
72
1
73
2
11
157.6875
21
1178.0000
31
0
0
TEXT
8
TEXTO
10
262.8125
20
10.0000
30
0
40
5.0000
1
3
72
1
73
2
11
262.8125
21
10.0000
31
0
0
TEXT
8
TEXTO
10
262.8125
20
1178.0000
30
0
40
5.0000
1
3
72
1
73
2
11
262.8125
21
1178.0000
31
0
0
TEXT
8
TEXTO
10
367.9375
20
10.0000
30
0
40
5.0000
1
4
72
1
73
2
11
367.9375
21
10.0000
31
0
0
TEXT
8
TEXTO
10
367.9375
20
1178.0000
30
0
40
5.0000
1
4
72
1
73
2
11
367.9375
21
1178.0000
31
0
0
TEXT
8
TEXTO
10
473.0625
20
10.0000
30
0
40
5.0000
1
5
72
1
73
2
11
473.0625
21
10.0000
31
0
0
TEXT
8
TEXTO
10
473.0625
20
1178.0000
30
0
40
5.0000
1
5
72
1
73
2
11
473.0625
21
1178.0000
31
0
0
TEXT
8
TEXTO
10
578.1875
20
10.0000
30
0
40
5.0000
1
6
72
1
73
2
11
578.1875
21
10.0000
31
0
0
TEXT
8
TEXTO
10
578.1875
20
1178.0000
30
0
40
5.0000
1
6
72
1
73
2
11
578.1875
21
1178.0000
31
0
0
TEXT
8
TEXTO
10
683.3125
20
10.0000
30
0
40
5.0000
1
7
72
1
73
2
11
683.3125
21
10.0000
31
0
0
TEXT
8
TEXTO
10
683.3125
20
1178.0000
30
0
40
5.0000
1
7
72
1
73
2
11
683.3125
21
1178.0000
31
0
0
TEXT
8
TEXTO
10
788.4375
20
10.0000
30
0
40
5.0000
1
8
72
1
73
2
11
788.4375
21
10.0000
31
0
0
TEXT
8
TEXTO
10
788.4375
20
1178.0000
30
0
40
5.0000
1
8
72
1
73
2
11
788.4375
21
1178.0000
31
0
0
TEXT
8
TEXTO
10
893.5625
20
10.0000
30
0
40
5.0000
1
9
72
1
73
2
11
893.5625
21
10.0000
31
0
0
TEXT
8
TEXTO
10
893.5625
20
1178.0000
30
0
40
5.0000
1
9
72
1
73
2
11
893.5625
21
1178.0000
31
0
0
TEXT
8
TEXTO
10
998.6875
20
10.0000
30
0
40
5.0000
1
10
72
1
73
2
11
998.6875
21
10.0000
31
0
0
TEXT
8
TEXTO
10
998.6875
20
1178.0000
30
0
40
5.0000
1
10
72
1
73
2
11
998.6875
21
1178.0000
31
0
0
TEXT
8
TEXTO
10
1103.8125
20
10.0000
30
0
40
5.0000
1
11
72
1
73
2
11
1103.8125
21
10.0000
31
0
0
TEXT
8
TEXTO
10
1103.8125
20
1178.0000
30
0
40
5.0000
1
11
72
1
73
2
11
1103.8125
21
1178.0000
31
0
0
TEXT
8
TEXTO
10
1208.9375
20
10.0000
30
0
40
5.0000
1
12
72
1
73
2
11
1208.9375
21
10.0000
31
0
0
TEXT
8
TEXTO
10
1208.9375
20
1178.0000
30
0
40
5.0000
1
12
72
1
73
2
11
1208.9375
21
1178.0000
31
0
0
TEXT
8
TEXTO
10
1314.0625
20
10.0000
30
0
40
5.0000
1
13
72
1
73
2
11
1314.0625
21
10.0000
31
0
0
TEXT
8
TEXTO
10
1314.0625
20
1178.0000
30
0
40
5.0000
1
13
72
1
73
2
11
1314.0625
21
1178.0000
31
0
0
TEXT
8
TEXTO
10
1419.1875
20
10.0000
30
0
40
5.0000
1
14
72
1
73
2
11
1419.1875
21
10.0000
31
0
0
TEXT
8
TEXTO
10
1419.1875
20
1178.0000
30
0
40
5.0000
1
14
72
1
73
2
11
1419.1875
21
1178.0000
31
0
0
TEXT
8
TEXTO
10
1524.3125
20
10.0000
30
0
40
5.0000
1
15
72
1
73
2
11
1524.3125
21
10.0000
31
0
0
TEXT
8
TEXTO
10
1524.3125
20
1178.0000
30
0
40
5.0000
1
15
72
1
73
2
11
1524.3125
21
1178.0000
31
0
0
TEXT
8
TEXTO
10
1629.4375
20
10.0000
30
0
40
5.0000
1
16
72
1
73
2
11
1629.4375
21
10.0000
31
0
0
TEXT
8
TEXTO
10
1629.4375
20
1178.0000
30
0
40
5.0000
1
16
72
1
73
2
11
1629.4375
21
1178.0000
31
0
0
TEXT
8
TEXTO
10
10.0000
20
1138.5000
30
0
40
5.0000
1
A
72
1
73
2
11
10.0000
21
1138.5000
31
0
0
TEXT
8
TEXTO
10
1672.0000
20
1138.5000
30
0
40
5.0000
1
A
72
1
73
2
11
1672.0000
21
1138.5000
31
0
0
TEXT
8
TEXTO
10
10.0000
20
1039.5000
30
0
40
5.0000
1
B
72
1
73
2
11
10.0000
21
1039.5000
31
0
0
TEXT
8
TEXTO
10
1672.0000
20
1039.5000
30
0
40
5.0000
1
B
72
1
73
2
11
1672.0000
21
1039.5000
31
0
0
TEXT
8
TEXTO
10
10.0000
20
940.5000
30
0
40
5.0000
1
C
72
1
73
2
11
10.0000
21
940.5000
31
0
0
TEXT
8
TEXTO
10
1672.0000
20
940.5000
30
0
40
5.0000
1
C
72
1
73
2
11
1672.0000
21
940.5000
31
0
0
TEXT
8
TEXTO
10
10.0000
20
841.5000
30
0
40
5.0000
1
D
72
1
73
2
11
10.0000
21
841.5000
31
0
0
TEXT
8
TEXTO
10
1672.0000
20
841.5000
30
0
40
5.0000
1
D
72
1
73
2
11
1672.0000
21
841.5000
31
0
0
TEXT
8
TEXTO
10
10.0000
20
742.5000
30
0
40
5.0000
1
E
72
1
73
2
11
10.0000
21
742.5000
31
0
0
TEXT
8
TEXTO
10
1672.0000
20
742.5000
30
0
40
5.0000
1
E
72
1
73
2
11
1672.0000
21
742.5000
31
0
0
TEXT
8
TEXTO
10
10.0000
20
643.5000
30
0
40
5.0000
1
F
72
1
73
2
11
10.0000
21
643.5000
31
0
0
TEXT
8
TEXTO
10
1672.0000
20
643.5000
30
0
40
5.0000
1
F
72
1
73
2
11
1672.0000
21
643.5000
31
0
0
TEXT
8
TEXTO
10
10.0000
20
544.5000
30
0
40
5.0000
1
G
72
1
73
2
11
10.0000
21
544.5000
31
0
0
TEXT
8
TEXTO
10
1672.0000
20
544.5000
30
0
40
5.0000
1
G
72
1
73
2
11
1672.0000
21
544.5000
31
0
0
TEXT
8
TEXTO
10
10.0000
20
445.5000
30
0
40
5.0000
1
H
72
1
73
2
11
10.0000
21
445.5000
31
0
0
TEXT
8
TEXTO
10
1672.0000
20
445.5000
30
0
40
5.0000
1
H
72
1
73
2
11
1672.0000
21
445.5000
31
0
0
TEXT
8
TEXTO
10
10.0000
20
346.5000
30
0
40
5.0000
1
J
72
1
73
2
11
10.0000
21
346.5000
31
0
0
TEXT
8
TEXTO
10
1672.0000
20
346.5000
30
0
40
5.0000
1
J
72
1
73
2
11
1672.0000
21
346.5000
31
0
0
TEXT
8
TEXTO
10
10.0000
20
247.5000
30
0
40
5.0000
1
K
72
1
73
2
11
10.0000
21
247.5000
31
0
0
TEXT
8
TEXTO
10
1672.0000
20
247.5000
30
0
40
5.0000
1
K
72
1
73
2
11
1672.0000
21
247.5000
31
0
0
TEXT
8
TEXTO
10
10.0000
20
148.5000
30
0
40
5.0000
1
L
72
1
73
2
11
10.0000
21
148.5000
31
0
0
TEXT
8
TEXTO
10
1672.0000
20
148.5000
30
0
40
5.0000
1
L
72
1
73
2
11
1672.0000
21
148.5000
31
0
0
TEXT
8
TEXTO
10
10.0000
20
49.5000
30
0
40
5.0000
1
M
72
1
73
2
11
10.0000
21
49.5000
31
0
0
TEXT
8
TEXTO
10
1672.0000
20
49.5000
30
0
40
5.0000
1
M
72
1
73
2
11
1672.0000
21
49.5000
31
0
0
LINE
8
NORMA
10
1302.0000
20
20.0000
30
0
11
1662.0000
21
20.0000
31
0
0
LINE
8
NORMA
10
1662.0000
20
20.0000
30
0
11
1662.0000
21
104.0000
31
0
0
LINE
8
NORMA
10
1662.0000
20
104.0000
30
0
11
1302.0000
21
104.0000
31
0
0
LINE
8
NORMA
10
1302.0000
20
104.0000
30
0
11
1302.0000
21
20.0000
31
0
0
LINE
8
NORMA
10
1382.0000
20
20.0000
30
0
11
1382.0000
21
104.0000
31
0
0
LINE
8
NORMA
10
1570.0000
20
20.0000
30
0
11
1570.0000
21
104.0000
31
0
0
LINE
8
FINA
10
1302.0000
20
58.0000
30
0
11
1382.0000
21
58.0000
31
0
0
TEXT
8
TEXTO
10
1342.0000
20
87.6000
30
0
40
12.0000
1
foto3d
72
1
73
2
11
1342.0000
21
87.6000
31
0
0
LINE
8
FINA
10
1315.0000
20
77.2000
30
0
11
1369.0000
21
77.2000
31
0
0
TEXT
8
TEXTO
10
1342.0000
20
71.6000
30
0
40
2.6000
1
CAD · DISEÑO CAPA USER
72
1
73
2
11
1342.0000
21
71.6000
31
0
0
TEXT
8
TEXTO
10
1342.0000
20
65.2000
30
0
40
2.6000
1
ISO 5457 · 7200 · 129 · 5456-2
72
1
73
2
11
1342.0000
21
65.2000
31
0
0
TEXT
8
TEXTO
10
1342.0000
20
53.2000
30
0
40
2.8000
1
PROYECCIÓN — PRIMER DIEDRO
72
1
73
2
11
1342.0000
21
53.2000
31
0
0
CIRCLE
8
TEXTO
10
1332.8000
20
35.0000
30
0
40
5.9800
0
CIRCLE
8
TEXTO
10
1332.8000
20
35.0000
30
0
40
3.2200
0
LINE
8
TEXTO
10
1342.9200
20
29.0200
30
0
11
1357.1800
21
31.7800
31
0
0
LINE
8
TEXTO
10
1357.1800
20
31.7800
30
0
11
1357.1800
21
38.2200
31
0
0
LINE
8
TEXTO
10
1357.1800
20
38.2200
30
0
11
1342.9200
21
40.9800
31
0
0
LINE
8
TEXTO
10
1342.9200
20
40.9800
30
0
11
1342.9200
21
29.0200
31
0
0
LINE
8
FINA
10
1324.0600
20
35.0000
30
0
11
1359.9400
21
35.0000
31
0
0
LINE
8
FINA
10
1382.0000
20
78.0000
30
0
11
1570.0000
21
78.0000
31
0
0
LINE
8
FINA
10
1382.0000
20
58.0000
30
0
11
1570.0000
21
58.0000
31
0
0
LINE
8
FINA
10
1382.0000
20
38.0000
30
0
11
1570.0000
21
38.0000
31
0
0
LINE
8
FINA
10
1476.0000
20
58.0000
30
0
11
1476.0000
21
78.0000
31
0
0
LINE
8
FINA
10
1494.0000
20
38.0000
30
0
11
1494.0000
21
58.0000
31
0
0
TEXT
8
TEXTO
10
1384.6000
20
99.2000
30
0
40
2.8000
1
DESIGNACIÓN
0
TEXT
8
TEXTO
10
1385.2000
20
88.2000
30
0
40
6.3233
1
CUD-06 · Refuerzo interno superior C60° (x2) — DESARROLLO
72
0
73
2
11
1385.2000
21
88.2000
31
0
0
TEXT
8
TEXTO
10
1384.6000
20
73.2000
30
0
40
2.8000
1
PROYECTO
0
TEXT
8
TEXTO
10
1385.2000
20
65.2000
30
0
40
4.0000
1
Curva 60° 24" de polines cónicos — Conveyo…
72
0
73
2
11
1385.2000
21
65.2000
31
0
0
TEXT
8
TEXTO
10
1478.6000
20
73.2000
30
0
40
2.8000
1
FUENTE
0
TEXT
8
TEXTO
10
1479.2000
20
65.2000
30
0
40
4.8000
1
chapa plegada — capa user
72
0
73
2
11
1479.2000
21
65.2000
31
0
0
TEXT
8
TEXTO
10
1384.6000
20
53.2000
30
0
40
2.8000
1
VERIFICACIÓN DE ESCALA
0
TEXT
8
TEXTO
10
1385.2000
20
45.2000
30
0
40
4.8000
1
CAD EN MM (CAPA USER)
72
0
73
2
11
1385.2000
21
45.2000
31
0
0
TEXT
8
TEXTO
10
1496.6000
20
53.2000
30
0
40
2.8000
1
PLIEGUES
0
TEXT
8
TEXTO
10
1497.2000
20
45.2000
30
0
40
5.2000
1
0
72
0
73
2
11
1497.2000
21
45.2000
31
0
0
TEXT
8
TEXTO
10
1384.6000
20
33.2000
30
0
40
2.8000
1
NOTA
0
TEXT
8
TEXTO
10
1385.2000
20
26.2000
30
0
40
4.4000
1
Fe e=3 mm — corte plano de corona · e3 · tol. gral. ISO 2768-mK · K=0.5
72
0
73
2
11
1385.2000
21
26.2000
31
0
0
LINE
8
FINA
10
1570.0000
20
78.0000
30
0
11
1662.0000
21
78.0000
31
0
0
LINE
8
FINA
10
1570.0000
20
58.0000
30
0
11
1662.0000
21
58.0000
31
0
0
LINE
8
FINA
10
1570.0000
20
38.0000
30
0
11
1662.0000
21
38.0000
31
0
0
LINE
8
FINA
10
1616.0000
20
58.0000
30
0
11
1616.0000
21
78.0000
31
0
0
LINE
8
FINA
10
1622.0000
20
38.0000
30
0
11
1622.0000
21
58.0000
31
0
0
TEXT
8
TEXTO
10
1572.6000
20
99.2000
30
0
40
2.8000
1
ESCALA
0
TEXT
8
TEXTO
10
1616.0000
20
88.2000
30
0
40
10.0000
1
1:2
72
1
73
2
11
1616.0000
21
88.2000
31
0
0
TEXT
8
TEXTO
10
1572.6000
20
73.2000
30
0
40
2.8000
1
FORMATO
0
TEXT
8
TEXTO
10
1593.0000
20
65.2000
30
0
40
6.0000
1
A1
72
1
73
2
11
1593.0000
21
65.2000
31
0
0
TEXT
8
TEXTO
10
1618.6000
20
73.2000
30
0
40
2.8000
1
LÁMINA
0
TEXT
8
TEXTO
10
1639.0000
20
65.2000
30
0
40
6.0000
1
1 / 1
72
1
73
2
11
1639.0000
21
65.2000
31
0
0
TEXT
8
TEXTO
10
1572.6000
20
53.2000
30
0
40
2.8000
1
FECHA
0
TEXT
8
TEXTO
10
1596.0000
20
45.2000
30
0
40
5.2000
1
2026-08-13
72
1
73
2
11
1596.0000
21
45.2000
31
0
0
TEXT
8
TEXTO
10
1624.6000
20
53.2000
30
0
40
2.8000
1
UNIDADES
0
TEXT
8
TEXTO
10
1642.0000
20
45.2000
30
0
40
6.0000
1
mm
72
1
73
2
11
1642.0000
21
45.2000
31
0
0
TEXT
8
TEXTO
10
1572.6000
20
33.2000
30
0
40
2.8000
1
Nº DE PLANO
0
TEXT
8
TEXTO
10
1616.0000
20
26.2000
30
0
40
5.2000
1
CUD-06
72
1
73
2
11
1616.0000
21
26.2000
31
0
0
ENDSEC
0
EOF
