  0
SECTION
  2
HEADER
  9
$ACADVER
  1
AC1032
  9
$ACADMAINTVER
 90
4
  9
$DWGCODEPAGE
  3
ANSI_1252
  9
$LASTSAVEDBY
  1
ezdxf
  9
$REQUIREDVERSIONS
160
0
  9
$INSBASE
 10
0.0
 20
0.0
 30
0.0
  9
$EXTMIN
 10
1e+20
 20
1e+20
 30
1e+20
  9
$EXTMAX
 10
-1e+20
 20
-1e+20
 30
-1e+20
  9
$LIMMIN
 10
0.0
 20
0.0
  9
$LIMMAX
 10
420.0
 20
297.0
  9
$ORTHOMODE
 70
0
  9
$REGENMODE
 70
1
  9
$FILLMODE
 70
1
  9
$QTEXTMODE
 70
0
  9
$MIRRTEXT
 70
1
  9
$LTSCALE
 40
1.0
  9
$ATTMODE
 70
1
  9
$TEXTSIZE
 40
2.5
  9
$TRACEWID
 40
1.0
  9
$TEXTSTYLE
  7
OpenSans
  9
$CLAYER
  8
0
  9
$CELTYPE
  6
ByLayer
  9
$CECOLOR
 62
256
  9
$CELTSCALE
 40
1.0
  9
$DISPSILH
 70
0
  9
$DIMSCALE
 40
1.0
  9
$DIMASZ
 40
0.175
  9
$DIMEXO
 40
0.125
  9
$DIMDLI
 40
3.75
  9
$DIMRND
 40
0.0
  9
$DIMDLE
 40
0.0
  9
$DIMEXE
 40
0.375
  9
$DIMTP
 40
0.0
  9
$DIMTM
 40
0.0
  9
$DIMTXT
 40
0.25
  9
$DIMCEN
 40
2.5
  9
$DIMTSZ
 40
0.0
  9
$DIMTOL
 70
0
  9
$DIMLIM
 70
0
  9
$DIMTIH
 70
0
  9
$DIMTOH
 70
0
  9
$DIMSE1
 70
0
  9
$DIMSE2
 70
0
  9
$DIMTAD
 70
1
  9
$DIMZIN
 70
12
  9
$DIMBLK
  1
ARCHTICK
  9
$DIMASO
 70
1
  9
$DIMSHO
 70
1
  9
$DIMPOST
  1

  9
$DIMAPOST
  1

  9
$DIMALT
 70
0
  9
$DIMALTD
 70
3
  9
$DIMALTF
 40
0.03937007874
  9
$DIMLFAC
 40
100.0
  9
$DIMTOFL
 70
1
  9
$DIMTVP
 40
0.0
  9
$DIMTIX
 70
0
  9
$DIMSOXD
 70
0
  9
$DIMSAH
 70
0
  9
$DIMBLK1
  1

  9
$DIMBLK2
  1

  9
$DIMSTYLE
  2
EZDXF
  9
$DIMCLRD
 70
0
  9
$DIMCLRE
 70
0
  9
$DIMCLRT
 70
0
  9
$DIMTFAC
 40
0.5
  9
$DIMGAP
 40
0.1
  9
$DIMJUST
 70
0
  9
$DIMSD1
 70
0
  9
$DIMSD2
 70
0
  9
$DIMTOLJ
 70
0
  9
$DIMTZIN
 70
8
  9
$DIMALTZ
 70
0
  9
$DIMALTTZ
 70
0
  9
$DIMUPT
 70
1
  9
$DIMDEC
 70
2
  9
$DIMTDEC
 70
2
  9
$DIMALTU
 70
2
  9
$DIMALTTD
 70
3
  9
$DIMTXSTY
  7
OpenSansCondensed-Light
  9
$DIMAUNIT
 70
0
  9
$DIMADEC
 70
2
  9
$DIMALTRND
 40
0.0
  9
$DIMAZIN
 70
3
  9
$DIMDSEP
 70
46
  9
$DIMATFIT
 70
3
  9
$DIMFRAC
 70
0
  9
$DIMLDRBLK
  1

  9
$DIMLUNIT
 70
2
  9
$DIMLWD
 70
-2
  9
$DIMLWE
 70
-2
  9
$DIMTMOVE
 70
2
  9
$DIMFXL
 40
1.0
  9
$DIMFXLON
 70
0
  9
$DIMJOGANG
 40
0.785398163397
  9
$DIMTFILL
 70
0
  9
$DIMTFILLCLR
 70
0
  9
$DIMARCSYM
 70
0
  9
$DIMLTYPE
  6

  9
$DIMLTEX1
  6

  9
$DIMLTEX2
  6

  9
$DIMTXTDIRECTION
 70
0
  9
$LUNITS
 70
2
  9
$LUPREC
 70
4
  9
$SKETCHINC
 40
1.0
  9
$FILLETRAD
 40
10.0
  9
$AUNITS
 70
0
  9
$AUPREC
 70
2
  9
$MENU
  1
.
  9
$ELEVATION
 40
0.0
  9
$PELEVATION
 40
0.0
  9
$THICKNESS
 40
0.0
  9
$LIMCHECK
 70
0
  9
$CHAMFERA
 40
0.0
  9
$CHAMFERB
 40
0.0
  9
$CHAMFERC
 40
0.0
  9
$CHAMFERD
 40
0.0
  9
$SKPOLY
 70
0
  9
$TDCREATE
 40
2461251.192789352
  9
$TDUCREATE
 40
2458532.153996898
  9
$TDUPDATE
 40
2461251.192789352
  9
$TDUUPDATE
 40
2458532.1544311
  9
$TDINDWG
 40
0.0
  9
$TDUSRTIMER
 40
0.0
  9
$USRTIMER
 70
1
  9
$ANGBASE
 50
0.0
  9
$ANGDIR
 70
0
  9
$PDMODE
 70
0
  9
$PDSIZE
 40
0.0
  9
$PLINEWID
 40
0.0
  9
$SPLFRAME
 70
0
  9
$SPLINETYPE
 70
6
  9
$SPLINESEGS
 70
8
  9
$HANDSEED
  5
C4
  9
$SURFTAB1
 70
6
  9
$SURFTAB2
 70
6
  9
$SURFTYPE
 70
6
  9
$SURFU
 70
6
  9
$SURFV
 70
6
  9
$UCSBASE
  2

  9
$UCSNAME
  2

  9
$UCSORG
 10
0.0
 20
0.0
 30
0.0
  9
$UCSXDIR
 10
1.0
 20
0.0
 30
0.0
  9
$UCSYDIR
 10
0.0
 20
1.0
 30
0.0
  9
$UCSORTHOREF
  2

  9
$UCSORTHOVIEW
 70
0
  9
$UCSORGTOP
 10
0.0
 20
0.0
 30
0.0
  9
$UCSORGBOTTOM
 10
0.0
 20
0.0
 30
0.0
  9
$UCSORGLEFT
 10
0.0
 20
0.0
 30
0.0
  9
$UCSORGRIGHT
 10
0.0
 20
0.0
 30
0.0
  9
$UCSORGFRONT
 10
0.0
 20
0.0
 30
0.0
  9
$UCSORGBACK
 10
0.0
 20
0.0
 30
0.0
  9
$PUCSBASE
  2

  9
$PUCSNAME
  2

  9
$PUCSORG
 10
0.0
 20
0.0
 30
0.0
  9
$PUCSXDIR
 10
1.0
 20
0.0
 30
0.0
  9
$PUCSYDIR
 10
0.0
 20
1.0
 30
0.0
  9
$PUCSORTHOREF
  2

  9
$PUCSORTHOVIEW
 70
0
  9
$PUCSORGTOP
 10
0.0
 20
0.0
 30
0.0
  9
$PUCSORGBOTTOM
 10
0.0
 20
0.0
 30
0.0
  9
$PUCSORGLEFT
 10
0.0
 20
0.0
 30
0.0
  9
$PUCSORGRIGHT
 10
0.0
 20
0.0
 30
0.0
  9
$PUCSORGFRONT
 10
0.0
 20
0.0
 30
0.0
  9
$PUCSORGBACK
 10
0.0
 20
0.0
 30
0.0
  9
$USERI1
 70
0
  9
$USERI2
 70
0
  9
$USERI3
 70
0
  9
$USERI4
 70
0
  9
$USERI5
 70
0
  9
$USERR1
 40
0.0
  9
$USERR2
 40
0.0
  9
$USERR3
 40
0.0
  9
$USERR4
 40
0.0
  9
$USERR5
 40
0.0
  9
$WORLDVIEW
 70
1
  9
$SHADEDGE
 70
3
  9
$SHADEDIF
 70
70
  9
$TILEMODE
 70
1
  9
$MAXACTVP
 70
64
  9
$PINSBASE
 10
0.0
 20
0.0
 30
0.0
  9
$PLIMCHECK
 70
0
  9
$PEXTMIN
 10
1e+20
 20
1e+20
 30
1e+20
  9
$PEXTMAX
 10
-1e+20
 20
-1e+20
 30
-1e+20
  9
$PLIMMIN
 10
0.0
 20
0.0
  9
$PLIMMAX
 10
420.0
 20
297.0
  9
$UNITMODE
 70
0
  9
$VISRETAIN
 70
1
  9
$PLINEGEN
 70
0
  9
$PSLTSCALE
 70
1
  9
$TREEDEPTH
 70
3020
  9
$CMLSTYLE
  2
Standard
  9
$CMLJUST
 70
0
  9
$CMLSCALE
 40
20.0
  9
$PROXYGRAPHICS
 70
1
  9
$MEASUREMENT
 70
1
  9
$CELWEIGHT
370
-1
  9
$ENDCAPS
280
0
  9
$JOINSTYLE
280
0
  9
$LWDISPLAY
290
0
  9
$INSUNITS
 70
4
  9
$HYPERLINKBASE
  1

  9
$STYLESHEET
  1

  9
$XEDIT
290
1
  9
$CEPSNTYPE
380
0
  9
$PSTYLEMODE
290
1
  9
$FINGERPRINTGUID
  2
{44FCE67F-431B-463D-8D55-677D42407FFA}
  9
$VERSIONGUID
  2
{E81CB2C4-BDFC-479A-A78B-F074AC295156}
  9
$EXTNAMES
290
1
  9
$PSVPSCALE
 40
0.0
  9
$OLESTARTUP
290
0
  9
$SORTENTS
280
127
  9
$INDEXCTL
280
0
  9
$HIDETEXT
280
1
  9
$XCLIPFRAME
280
1
  9
$HALOGAP
280
0
  9
$OBSCOLOR
 70
257
  9
$OBSLTYPE
280
0
  9
$INTERSECTIONDISPLAY
280
0
  9
$INTERSECTIONCOLOR
 70
257
  9
$DIMASSOC
280
2
  9
$PROJECTNAME
  1

  9
$CAMERADISPLAY
290
0
  9
$LENSLENGTH
 40
50.0
  9
$CAMERAHEIGHT
 40
0.0
  9
$STEPSPERSEC
 40
24.0
  9
$STEPSIZE
 40
100.0
  9
$3DDWFPREC
 40
2.0
  9
$PSOLWIDTH
 40
0.005
  9
$PSOLHEIGHT
 40
0.08
  9
$LOFTANG1
 40
1.570796326795
  9
$LOFTANG2
 40
1.570796326795
  9
$LOFTMAG1
 40
0.0
  9
$LOFTMAG2
 40
0.0
  9
$LOFTPARAM
 70
7
  9
$LOFTNORMALS
280
1
  9
$LATITUDE
 40
37.795
  9
$LONGITUDE
 40
-122.394
  9
$NORTHDIRECTION
 40
0.0
  9
$TIMEZONE
 70
-8000
  9
$LIGHTGLYPHDISPLAY
280
1
  9
$TILEMODELIGHTSYNCH
280
1
  9
$CMATERIAL
347
20
  9
$SOLIDHIST
280
0
  9
$SHOWHIST
280
1
  9
$DWFFRAME
280
2
  9
$DGNFRAME
280
2
  9
$REALWORLDSCALE
290
1
  9
$INTERFERECOLOR
 62
256
  9
$CSHADOW
280
0
  9
$SHADOWPLANELOCATION
 40
0.0
  0
ENDSEC
  0
SECTION
  2
CLASSES
  0
CLASS
  1
ACDBDICTIONARYWDFLT
  2
AcDbDictionaryWithDefault
  3
ObjectDBX Classes
 90
0
 91
0
280
0
281
0
  0
CLASS
  1
SUN
  2
AcDbSun
  3
SCENEOE
 90
1153
 91
0
280
0
281
0
  0
CLASS
  1
VISUALSTYLE
  2
AcDbVisualStyle
  3
ObjectDBX Classes
 90
4095
 91
0
280
0
281
0
  0
CLASS
  1
MATERIAL
  2
AcDbMaterial
  3
ObjectDBX Classes
 90
1153
 91
0
280
0
281
0
  0
CLASS
  1
SCALE
  2
AcDbScale
  3
ObjectDBX Classes
 90
1153
 91
0
280
0
281
0
  0
CLASS
  1
TABLESTYLE
  2
AcDbTableStyle
  3
ObjectDBX Classes
 90
4095
 91
0
280
0
281
0
  0
CLASS
  1
MLEADERSTYLE
  2
AcDbMLeaderStyle
  3
ACDB_MLEADERSTYLE_CLASS
 90
4095
 91
0
280
0
281
0
  0
CLASS
  1
DICTIONARYVAR
  2
AcDbDictionaryVar
  3
ObjectDBX Classes
 90
0
 91
0
280
0
281
0
  0
CLASS
  1
CELLSTYLEMAP
  2
AcDbCellStyleMap
  3
ObjectDBX Classes
 90
1152
 91
0
280
0
281
0
  0
CLASS
  1
MENTALRAYRENDERSETTINGS
  2
AcDbMentalRayRenderSettings
  3
SCENEOE
 90
1024
 91
0
280
0
281
0
  0
CLASS
  1
ACDBDETAILVIEWSTYLE
  2
AcDbDetailViewStyle
  3
ObjectDBX Classes
 90
1025
 91
0
280
0
281
0
  0
CLASS
  1
ACDBSECTIONVIEWSTYLE
  2
AcDbSectionViewStyle
  3
ObjectDBX Classes
 90
1025
 91
0
280
0
281
0
  0
CLASS
  1
RASTERVARIABLES
  2
AcDbRasterVariables
  3
ISM
 90
0
 91
0
280
0
281
0
  0
CLASS
  1
LAYOUT
  2
AcDbLayout
  3
ObjectDBX Classes
 90
0
 91
0
280
0
281
0
  0
CLASS
  1
ACDBPLACEHOLDER
  2
AcDbPlaceHolder
  3
ObjectDBX Classes
 90
0
 91
0
280
0
281
0
  0
ENDSEC
  0
SECTION
  2
TABLES
  0
TABLE
  2
VPORT
  5
8
330
0
100
AcDbSymbolTable
 70
1
  0
VPORT
  5
23
330
8
100
AcDbSymbolTableRecord
100
AcDbViewportTableRecord
  2
*Active
 70
0
 10
0.0
 20
0.0
 11
1.0
 21
1.0
 12
0.0
 22
0.0
 13
0.0
 23
0.0
 14
0.5
 24
0.5
 15
0.5
 25
0.5
 16
0.0
 26
0.0
 36
1.0
 17
0.0
 27
0.0
 37
0.0
 40
1000.0
 41
1.34
 42
50.0
 43
0.0
 44
0.0
 50
0.0
 51
0.0
 71
0
 72
1000
 73
1
 74
3
 75
0
 76
0
 77
0
 78
0
281
0
 65
0
146
0.0
  0
ENDTAB
  0
TABLE
  2
LTYPE
  5
2
330
0
100
AcDbSymbolTable
 70
21
  0
LTYPE
  5
24
330
2
100
AcDbSymbolTableRecord
100
AcDbLinetypeTableRecord
  2
ByBlock
 70
0
  3

 72
65
 73
0
 40
0.0
  0
LTYPE
  5
25
330
2
100
AcDbSymbolTableRecord
100
AcDbLinetypeTableRecord
  2
ByLayer
 70
0
  3

 72
65
 73
0
 40
0.0
  0
LTYPE
  5
26
330
2
100
AcDbSymbolTableRecord
100
AcDbLinetypeTableRecord
  2
Continuous
 70
0
  3

 72
65
 73
0
 40
0.0
  0
LTYPE
  5
2F
330
2
100
AcDbSymbolTableRecord
100
AcDbLinetypeTableRecord
  2
CENTER
 70
0
  3
Center ____ _ ____ _ ____ _ ____ _ ____ _ ____
 72
65
 73
4
 40
5.08
 49
3.175
 74
0
 49
-0.635
 74
0
 49
0.635
 74
0
 49
-0.635
 74
0
  0
LTYPE
  5
30
330
2
100
AcDbSymbolTableRecord
100
AcDbLinetypeTableRecord
  2
CENTERX2
 70
0
  3
Center (2x) ________  __  ________  __  ________
 72
65
 73
4
 40
8.89
 49
6.35
 74
0
 49
-0.635
 74
0
 49
1.27
 74
0
 49
-0.635
 74
0
  0
LTYPE
  5
31
330
2
100
AcDbSymbolTableRecord
100
AcDbLinetypeTableRecord
  2
CENTER2
 70
0
  3
Center (.5x) ____ _ ____ _ ____ _ ____ _ ____
 72
65
 73
4
 40
2.54
 49
1.587
 74
0
 49
-0.318
 74
0
 49
0.318
 74
0
 49
-0.318
 74
0
  0
LTYPE
  5
32
330
2
100
AcDbSymbolTableRecord
100
AcDbLinetypeTableRecord
  2
DASHED
 70
0
  3
Dashed __ __ __ __ __ __ __ __ __ __ __ __ __ _
 72
65
 73
2
 40
1.524
 49
1.27
 74
0
 49
-0.254
 74
0
  0
LTYPE
  5
33
330
2
100
AcDbSymbolTableRecord
100
AcDbLinetypeTableRecord
  2
DASHEDX2
 70
0
  3
Dashed (2x) ____  ____  ____  ____  ____  ____
 72
65
 73
2
 40
3.048
 49
2.54
 74
0
 49
-0.508
 74
0
  0
LTYPE
  5
34
330
2
100
AcDbSymbolTableRecord
100
AcDbLinetypeTableRecord
  2
DASHED2
 70
0
  3
Dashed (.5x) _ _ _ _ _ _ _ _ _ _ _ _ _ _
 72
65
 73
2
 40
0.762
 49
0.635
 74
0
 49
-0.127
 74
0
  0
LTYPE
  5
35
330
2
100
AcDbSymbolTableRecord
100
AcDbLinetypeTableRecord
  2
PHANTOM
 70
0
  3
Phantom ______  __  __  ______  __  __  ______
 72
65
 73
6
 40
6.35
 49
3.175
 74
0
 49
-0.635
 74
0
 49
0.635
 74
0
 49
-0.635
 74
0
 49
0.635
 74
0
 49
-0.635
 74
0
  0
LTYPE
  5
36
330
2
100
AcDbSymbolTableRecord
100
AcDbLinetypeTableRecord
  2
PHANTOMX2
 70
0
  3
Phantom (2x)____________    ____    ____    ____________
 72
65
 73
6
 40
10.795
 49
6.35
 74
0
 49
-0.635
 74
0
 49
1.27
 74
0
 49
-0.635
 74
0
 49
1.27
 74
0
 49
-0.635
 74
0
  0
LTYPE
  5
37
330
2
100
AcDbSymbolTableRecord
100
AcDbLinetypeTableRecord
  2
PHANTOM2
 70
0
  3
Phantom (.5x) ___ _ _ ___ _ _ ___ _ _ ___ _ _ ___
 72
65
 73
6
 40
3.175
 49
1.587
 74
0
 49
-0.318
 74
0
 49
0.318
 74
0
 49
-0.318
 74
0
 49
0.318
 74
0
 49
-0.318
 74
0
  0
LTYPE
  5
38
330
2
100
AcDbSymbolTableRecord
100
AcDbLinetypeTableRecord
  2
DASHDOT
 70
0
  3
Dash dot __ . __ . __ . __ . __ . __ . __ . __
 72
65
 73
4
 40
3.556
 49
2.54
 74
0
 49
-0.508
 74
0
 49
0.0
 74
0
 49
-0.508
 74
0
  0
LTYPE
  5
39
330
2
100
AcDbSymbolTableRecord
100
AcDbLinetypeTableRecord
  2
DASHDOTX2
 70
0
  3
Dash dot (2x) ____  .  ____  .  ____  .  ____
 72
65
 73
4
 40
6.096
 49
5.08
 74
0
 49
-0.508
 74
0
 49
0.0
 74
0
 49
-0.508
 74
0
  0
LTYPE
  5
3A
330
2
100
AcDbSymbolTableRecord
100
AcDbLinetypeTableRecord
  2
DASHDOT2
 70
0
  3
Dash dot (.5x) _ . _ . _ . _ . _ . _ . _ . _
 72
65
 73
4
 40
1.778
 49
1.27
 74
0
 49
-0.254
 74
0
 49
0.0
 74
0
 49
-0.254
 74
0
  0
LTYPE
  5
3B
330
2
100
AcDbSymbolTableRecord
100
AcDbLinetypeTableRecord
  2
DOT
 70
0
  3
Dot .  .  .  .  .  .  .  .  .  .  .  .  .  .  .  .
 72
65
 73
2
 40
0.508
 49
0.0
 74
0
 49
-0.508
 74
0
  0
LTYPE
  5
3C
330
2
100
AcDbSymbolTableRecord
100
AcDbLinetypeTableRecord
  2
DOTX2
 70
0
  3
Dot (2x) .    .    .    .    .    .    .    . 
 72
65
 73
2
 40
1.016
 49
0.0
 74
0
 49
-1.016
 74
0
  0
LTYPE
  5
3D
330
2
100
AcDbSymbolTableRecord
100
AcDbLinetypeTableRecord
  2
DOT2
 70
0
  3
Dot (.5) . . . . . . . . . . . . . . . . . . . 
 72
65
 73
2
 40
0.254
 49
0.0
 74
0
 49
-0.254
 74
0
  0
LTYPE
  5
3E
330
2
100
AcDbSymbolTableRecord
100
AcDbLinetypeTableRecord
  2
DIVIDE
 70
0
  3
Divide __ . . __ . . __ . . __ . . __ . . __
 72
65
 73
6
 40
4.064
 49
2.54
 74
0
 49
-0.508
 74
0
 49
0.0
 74
0
 49
-0.508
 74
0
 49
0.0
 74
0
 49
-0.508
 74
0
  0
LTYPE
  5
3F
330
2
100
AcDbSymbolTableRecord
100
AcDbLinetypeTableRecord
  2
DIVIDEX2
 70
0
  3
Divide (2x) ____  . .  ____  . .  ____  . .  ____
 72
65
 73
6
 40
6.604
 49
5.08
 74
0
 49
-0.508
 74
0
 49
0.0
 74
0
 49
-0.508
 74
0
 49
0.0
 74
0
 49
-0.508
 74
0
  0
LTYPE
  5
40
330
2
100
AcDbSymbolTableRecord
100
AcDbLinetypeTableRecord
  2
DIVIDE2
 70
0
  3
Divide(.5x) _ . _ . _ . _ . _ . _ . _ . _
 72
65
 73
6
 40
2.032
 49
1.27
 74
0
 49
-0.254
 74
0
 49
0.0
 74
0
 49
-0.254
 74
0
 49
0.0
 74
0
 49
-0.254
 74
0
  0
ENDTAB
  0
TABLE
  2
LAYER
  5
1
330
0
100
AcDbSymbolTable
 70
5
  0
LAYER
  5
27
330
1
100
AcDbSymbolTableRecord
100
AcDbLayerTableRecord
  2
0
 70
0
 62
7
  6
Continuous
370
-3
390
13
347
21
  0
LAYER
  5
28
330
1
100
AcDbSymbolTableRecord
100
AcDbLayerTableRecord
  2
Defpoints
 70
0
 62
7
  6
Continuous
290
0
370
-3
390
13
347
21
  0
LAYER
  5
8A
330
1
100
AcDbSymbolTableRecord
100
AcDbLayerTableRecord
  2
CORTE
 70
0
 62
7
  6
CONTINUOUS
370
-3
390
13
347
21
  0
LAYER
  5
8B
330
1
100
AcDbSymbolTableRecord
100
AcDbLayerTableRecord
  2
PLIEGUE
 70
0
 62
1
  6
DASHDOT
370
-3
390
13
347
21
  0
LAYER
  5
8C
330
1
100
AcDbSymbolTableRecord
100
AcDbLayerTableRecord
  2
TEXTO
 70
0
 62
7
  6
CONTINUOUS
370
-3
390
13
347
21
  0
ENDTAB
  0
TABLE
  2
STYLE
  5
5
330
0
100
AcDbSymbolTable
 70
26
  0
STYLE
  5
29
330
5
100
AcDbSymbolTableRecord
100
AcDbTextStyleTableRecord
  2
Standard
 70
0
 40
0.0
 41
1.0
 50
0.0
 71
0
 42
2.5
  3
txt
  4

  0
STYLE
  5
41
330
5
100
AcDbSymbolTableRecord
100
AcDbTextStyleTableRecord
  2
OpenSans-Light
 70
0
 40
0.0
 41
1.0
 50
0.0
 71
0
 42
2.5
  3
OpenSans-Light.ttf
  4

  0
STYLE
  5
42
330
5
100
AcDbSymbolTableRecord
100
AcDbTextStyleTableRecord
  2
OpenSans-Light-Italic
 70
0
 40
0.0
 41
1.0
 50
0.0
 71
0
 42
2.5
  3
OpenSans-LightItalic.ttf
  4

  0
STYLE
  5
43
330
5
100
AcDbSymbolTableRecord
100
AcDbTextStyleTableRecord
  2
OpenSans
 70
0
 40
0.0
 41
1.0
 50
0.0
 71
0
 42
2.5
  3
OpenSans-Regular.ttf
  4

  0
STYLE
  5
44
330
5
100
AcDbSymbolTableRecord
100
AcDbTextStyleTableRecord
  2
OpenSans-Italic
 70
0
 40
0.0
 41
1.0
 50
0.0
 71
0
 42
2.5
  3
OpenSans-Italic.ttf
  4

  0
STYLE
  5
45
330
5
100
AcDbSymbolTableRecord
100
AcDbTextStyleTableRecord
  2
OpenSans-SemiBold
 70
0
 40
0.0
 41
1.0
 50
0.0
 71
0
 42
2.5
  3
OpenSans-SemiBold.ttf
  4

  0
STYLE
  5
46
330
5
100
AcDbSymbolTableRecord
100
AcDbTextStyleTableRecord
  2
OpenSans-SemiBoldItalic
 70
0
 40
0.0
 41
1.0
 50
0.0
 71
0
 42
2.5
  3
OpenSans-SemiBoldItalic.ttf
  4

  0
STYLE
  5
47
330
5
100
AcDbSymbolTableRecord
100
AcDbTextStyleTableRecord
  2
OpenSans-Bold
 70
0
 40
0.0
 41
1.0
 50
0.0
 71
0
 42
2.5
  3
OpenSans-Bold.ttf
  4

  0
STYLE
  5
48
330
5
100
AcDbSymbolTableRecord
100
AcDbTextStyleTableRecord
  2
OpenSans-BoldItalic
 70
0
 40
0.0
 41
1.0
 50
0.0
 71
0
 42
2.5
  3
OpenSans-BoldItalic.ttf
  4

  0
STYLE
  5
49
330
5
100
AcDbSymbolTableRecord
100
AcDbTextStyleTableRecord
  2
OpenSans-ExtraBold
 70
0
 40
0.0
 41
1.0
 50
0.0
 71
0
 42
2.5
  3
OpenSans-ExtraBold.ttf
  4

  0
STYLE
  5
4A
330
5
100
AcDbSymbolTableRecord
100
AcDbTextStyleTableRecord
  2
OpenSans-ExtraBoldItalic
 70
0
 40
0.0
 41
1.0
 50
0.0
 71
0
 42
2.5
  3
OpenSans-ExtraBoldItalic.ttf
  4

  0
STYLE
  5
4B
330
5
100
AcDbSymbolTableRecord
100
AcDbTextStyleTableRecord
  2
OpenSansCondensed-Bold
 70
0
 40
0.0
 41
1.0
 50
0.0
 71
0
 42
2.5
  3
OpenSansCondensed-Bold.ttf
  4

  0
STYLE
  5
4C
330
5
100
AcDbSymbolTableRecord
100
AcDbTextStyleTableRecord
  2
OpenSansCondensed-Light
 70
0
 40
0.0
 41
1.0
 50
0.0
 71
0
 42
2.5
  3
OpenSansCondensed-Light.ttf
  4

  0
STYLE
  5
4D
330
5
100
AcDbSymbolTableRecord
100
AcDbTextStyleTableRecord
  2
OpenSansCondensed-Italic
 70
0
 40
0.0
 41
1.0
 50
0.0
 71
0
 42
2.5
  3
OpenSansCondensed-LightItalic.ttf
  4

  0
STYLE
  5
4E
330
5
100
AcDbSymbolTableRecord
100
AcDbTextStyleTableRecord
  2
LiberationSans
 70
0
 40
0.0
 41
1.0
 50
0.0
 71
0
 42
2.5
  3
LiberationSans-Regular.ttf
  4

  0
STYLE
  5
4F
330
5
100
AcDbSymbolTableRecord
100
AcDbTextStyleTableRecord
  2
LiberationSans-Bold
 70
0
 40
0.0
 41
1.0
 50
0.0
 71
0
 42
2.5
  3
LiberationSans-Bold.ttf
  4

  0
STYLE
  5
50
330
5
100
AcDbSymbolTableRecord
100
AcDbTextStyleTableRecord
  2
LiberationSans-BoldItalic
 70
0
 40
0.0
 41
1.0
 50
0.0
 71
0
 42
2.5
  3
LiberationSans-BoldItalic.ttf
  4

  0
STYLE
  5
51
330
5
100
AcDbSymbolTableRecord
100
AcDbTextStyleTableRecord
  2
LiberationSans-Italic
 70
0
 40
0.0
 41
1.0
 50
0.0
 71
0
 42
2.5
  3
LiberationSans-Italic.ttf
  4

  0
STYLE
  5
52
330
5
100
AcDbSymbolTableRecord
100
AcDbTextStyleTableRecord
  2
LiberationSerif
 70
0
 40
0.0
 41
1.0
 50
0.0
 71
0
 42
2.5
  3
LiberationSerif-Regular.ttf
  4

  0
STYLE
  5
53
330
5
100
AcDbSymbolTableRecord
100
AcDbTextStyleTableRecord
  2
LiberationSerif-Bold
 70
0
 40
0.0
 41
1.0
 50
0.0
 71
0
 42
2.5
  3
LiberationSerif-Bold.ttf
  4

  0
STYLE
  5
54
330
5
100
AcDbSymbolTableRecord
100
AcDbTextStyleTableRecord
  2
LiberationSerif-BoldItalic
 70
0
 40
0.0
 41
1.0
 50
0.0
 71
0
 42
2.5
  3
LiberationSerif-BoldItalic.ttf
  4

  0
STYLE
  5
55
330
5
100
AcDbSymbolTableRecord
100
AcDbTextStyleTableRecord
  2
LiberationSerif-Italic
 70
0
 40
0.0
 41
1.0
 50
0.0
 71
0
 42
2.5
  3
LiberationSerif-Italic.ttf
  4

  0
STYLE
  5
56
330
5
100
AcDbSymbolTableRecord
100
AcDbTextStyleTableRecord
  2
LiberationMono
 70
0
 40
0.0
 41
1.0
 50
0.0
 71
0
 42
2.5
  3
LiberationMono-Regular.ttf
  4

  0
STYLE
  5
57
330
5
100
AcDbSymbolTableRecord
100
AcDbTextStyleTableRecord
  2
LiberationMono-Bold
 70
0
 40
0.0
 41
1.0
 50
0.0
 71
0
 42
2.5
  3
LiberationMono-Bold.ttf
  4

  0
STYLE
  5
58
330
5
100
AcDbSymbolTableRecord
100
AcDbTextStyleTableRecord
  2
LiberationMono-BoldItalic
 70
0
 40
0.0
 41
1.0
 50
0.0
 71
0
 42
2.5
  3
LiberationMono-BoldItalic.ttf
  4

  0
STYLE
  5
59
330
5
100
AcDbSymbolTableRecord
100
AcDbTextStyleTableRecord
  2
LiberationMono-Italic
 70
0
 40
0.0
 41
1.0
 50
0.0
 71
0
 42
2.5
  3
LiberationMono-Italic.ttf
  4

  0
ENDTAB
  0
TABLE
  2
VIEW
  5
7
330
0
100
AcDbSymbolTable
 70
0
  0
ENDTAB
  0
TABLE
  2
UCS
  5
6
330
0
100
AcDbSymbolTable
 70
0
  0
ENDTAB
  0
TABLE
  2
APPID
  5
3
330
0
100
AcDbSymbolTable
 70
3
  0
APPID
  5
2A
330
3
100
AcDbSymbolTableRecord
100
AcDbRegAppTableRecord
  2
ACAD
 70
0
  0
APPID
  5
C1
330
3
100
AcDbSymbolTableRecord
100
AcDbRegAppTableRecord
  2
HATCHBACKGROUNDCOLOR
 70
0
  0
APPID
  5
C2
330
3
100
AcDbSymbolTableRecord
100
AcDbRegAppTableRecord
  2
EZDXF
 70
0
  0
ENDTAB
  0
TABLE
  2
DIMSTYLE
  5
4
330
0
100
AcDbSymbolTable
 70
12
100
AcDbDimStyleTable
  0
DIMSTYLE
105
2B
330
4
100
AcDbSymbolTableRecord
100
AcDbDimStyleTableRecord
  2
Standard
 70
0
 40
1.0
 41
2.5
 42
0.625
 43
3.75
 44
1.25
 45
0.0
 46
0.0
 47
0.0
 48
0.0
 49
2.5
140
2.5
141
2.5
142
0.0
143
0.03937007874
144
1.0
145
0.0
146
1.0
147
0.625
148
0.0
 69
0
 70
0
 71
0
 72
0
 73
0
 74
0
 75
0
 76
0
 77
1
 78
8
 79
3
170
0
171
3
172
1
173
0
174
0
175
0
176
0
177
0
178
0
179
2
271
2
272
2
273
2
274
3
275
0
276
0
277
2
278
44
279
0
280
0
281
0
282
0
283
0
284
8
285
0
286
0
288
0
289
3
290
0
371
-2
372
-2
  0
DIMSTYLE
105
73
330
4
100
AcDbSymbolTableRecord
100
AcDbDimStyleTableRecord
  2
EZDXF
 70
0
 40
1.0
 41
0.175
 42
0.125
 43
3.75
 44
0.375
 45
0.0
 46
0.0
 47
0.0
 48
0.0
 49
2.5
140
0.25
141
2.5
142
0.0
143
0.03937007874
144
100.0
145
0.0
146
0.5
147
0.1
148
0.0
 69
0
 70
0
 71
0
 72
0
 73
0
 74
0
 75
0
 76
0
 77
1
 78
12
 79
3
170
0
171
3
172
1
173
0
174
0
175
0
176
0
177
0
178
0
179
2
271
2
272
2
273
2
274
3
275
0
276
0
277
2
278
46
279
2
280
0
281
0
282
0
283
0
284
8
285
0
286
0
288
1
289
3
290
0
340
4C
342
74
371
-2
372
-2
  0
DIMSTYLE
105
7C
330
4
100
AcDbSymbolTableRecord
100
AcDbDimStyleTableRecord
  2
EZ_M_100_H25_CM
 70
0
 40
1.0
 41
0.25
 42
0.125
 43
3.75
 44
0.375
 45
0.0
 46
0.0
 47
0.0
 48
0.0
 49
2.5
140
0.25
141
2.5
142
0.125
143
0.03937007874
144
100.0
145
0.0
146
0.5
147
0.1
148
0.0
 69
0
 70
0
 71
0
 72
0
 73
0
 74
0
 75
0
 76
0
 77
1
 78
12
 79
3
170
0
171
3
172
1
173
0
174
0
175
0
176
0
177
0
178
0
179
2
271
2
272
2
273
2
274
3
275
0
276
0
277
2
278
46
279
2
280
0
281
0
282
0
283
0
284
8
285
0
286
0
288
1
289
3
290
0
340
4C
371
-2
372
-2
  0
DIMSTYLE
105
7D
330
4
100
AcDbSymbolTableRecord
100
AcDbDimStyleTableRecord
  2
EZ_M_50_H25_CM
 70
0
 40
1.0
 41
0.125
 42
0.0625
 43
3.75
 44
0.1875
 45
0.0
 46
0.0
 47
0.0
 48
0.0
 49
2.5
140
0.125
141
2.5
142
0.0625
143
0.03937007874
144
100.0
145
0.0
146
0.5
147
0.05
148
0.0
 69
0
 70
0
 71
0
 72
0
 73
0
 74
0
 75
0
 76
0
 77
1
 78
12
 79
3
170
0
171
3
172
1
173
0
174
0
175
0
176
0
177
0
178
0
179
2
271
2
272
2
273
2
274
3
275
0
276
0
277
2
278
46
279
2
280
0
281
0
282
0
283
0
284
8
285
0
286
0
288
1
289
3
290
0
340
4C
371
-2
372
-2
  0
DIMSTYLE
105
7E
330
4
100
AcDbSymbolTableRecord
100
AcDbDimStyleTableRecord
  2
EZ_M_25_H25_CM
 70
0
 40
1.0
 41
0.0625
 42
0.03125
 43
3.75
 44
0.09375
 45
0.0
 46
0.0
 47
0.0
 48
0.0
 49
2.5
140
0.0625
141
2.5
142
0.03125
143
0.03937007874
144
100.0
145
0.0
146
0.5
147
0.025
148
0.0
 69
0
 70
0
 71
0
 72
0
 73
0
 74
0
 75
0
 76
0
 77
1
 78
12
 79
3
170
0
171
3
172
1
173
0
174
0
175
0
176
0
177
0
178
0
179
2
271
2
272
2
273
2
274
3
275
0
276
0
277
2
278
46
279
2
280
0
281
0
282
0
283
0
284
8
285
0
286
0
288
1
289
3
290
0
340
4C
371
-2
372
-2
  0
DIMSTYLE
105
7F
330
4
100
AcDbSymbolTableRecord
100
AcDbDimStyleTableRecord
  2
EZ_M_20_H25_CM
 70
0
 40
1.0
 41
0.05
 42
0.025
 43
3.75
 44
0.07500000000000001
 45
0.0
 46
0.0
 47
0.0
 48
0.0
 49
2.5
140
0.05
141
2.5
142
0.025
143
0.03937007874
144
100.0
145
0.0
146
0.5
147
0.020000000000000004
148
0.0
 69
0
 70
0
 71
0
 72
0
 73
0
 74
0
 75
0
 76
0
 77
1
 78
12
 79
3
170
0
171
3
172
1
173
0
174
0
175
0
176
0
177
0
178
0
179
2
271
2
272
2
273
2
274
3
275
0
276
0
277
2
278
46
279
2
280
0
281
0
282
0
283
0
284
8
285
0
286
0
288
1
289
3
290
0
340
4C
371
-2
372
-2
  0
DIMSTYLE
105
80
330
4
100
AcDbSymbolTableRecord
100
AcDbDimStyleTableRecord
  2
EZ_M_10_H25_CM
 70
0
 40
1.0
 41
0.025
 42
0.0125
 43
3.75
 44
0.037500000000000006
 45
0.0
 46
0.0
 47
0.0
 48
0.0
 49
2.5
140
0.025
141
2.5
142
0.0125
143
0.03937007874
144
100.0
145
0.0
146
0.5
147
0.010000000000000002
148
0.0
 69
0
 70
0
 71
0
 72
0
 73
0
 74
0
 75
0
 76
0
 77
1
 78
12
 79
3
170
0
171
3
172
1
173
0
174
0
175
0
176
0
177
0
178
0
179
2
271
2
272
2
273
2
274
3
275
0
276
0
277
2
278
46
279
2
280
0
281
0
282
0
283
0
284
8
285
0
286
0
288
1
289
3
290
0
340
4C
371
-2
372
-2
  0
DIMSTYLE
105
81
330
4
100
AcDbSymbolTableRecord
100
AcDbDimStyleTableRecord
  2
EZ_M_5_H25_CM
 70
0
 40
1.0
 41
0.0125
 42
0.00625
 43
3.75
 44
0.018750000000000003
 45
0.0
 46
0.0
 47
0.0
 48
0.0
 49
2.5
140
0.0125
141
2.5
142
0.00625
143
0.03937007874
144
100.0
145
0.0
146
0.5
147
0.005000000000000001
148
0.0
 69
0
 70
0
 71
0
 72
0
 73
0
 74
0
 75
0
 76
0
 77
1
 78
12
 79
3
170
0
171
3
172
1
173
0
174
0
175
0
176
0
177
0
178
0
179
2
271
2
272
2
273
2
274
3
275
0
276
0
277
2
278
46
279
2
280
0
281
0
282
0
283
0
284
8
285
0
286
0
288
1
289
3
290
0
340
4C
371
-2
372
-2
  0
DIMSTYLE
105
82
330
4
100
AcDbSymbolTableRecord
100
AcDbDimStyleTableRecord
  2
EZ_M_1_H25_CM
 70
0
 40
1.0
 41
0.0025
 42
0.00125
 43
3.75
 44
0.00375
 45
0.0
 46
0.0
 47
0.0
 48
0.0
 49
2.5
140
0.0025
141
2.5
142
0.00125
143
0.03937007874
144
100.0
145
0.0
146
0.5
147
0.001
148
0.0
 69
0
 70
0
 71
0
 72
0
 73
0
 74
0
 75
0
 76
0
 77
1
 78
12
 79
3
170
0
171
3
172
1
173
0
174
0
175
0
176
0
177
0
178
0
179
2
271
2
272
2
273
2
274
3
275
0
276
0
277
2
278
46
279
2
280
0
281
0
282
0
283
0
284
8
285
0
286
0
288
1
289
3
290
0
340
4C
371
-2
372
-2
  0
DIMSTYLE
105
83
330
4
100
AcDbSymbolTableRecord
100
AcDbDimStyleTableRecord
  2
EZ_RADIUS
 70
0
 40
1.0
 41
0.25
 42
0.125
 43
3.75
 44
0.375
 45
0.0
 46
0.0
 47
0.0
 48
0.0
 49
2.5
140
0.25
141
0.0
142
0.0
143
0.03937007874
144
100.0
145
0.0
146
0.5
147
0.1
148
0.0
 69
0
 70
0
 71
0
 72
0
 73
0
 74
0
 75
0
 76
0
 77
1
 78
12
 79
3
170
0
171
3
172
0
173
0
174
0
175
0
176
0
177
0
178
0
179
2
271
2
272
2
273
2
274
3
275
0
276
0
277
2
278
46
279
1
280
0
281
0
282
0
283
0
284
8
285
0
286
0
288
1
289
3
290
0
340
4C
342
84
371
-2
372
-2
  0
DIMSTYLE
105
88
330
4
100
AcDbSymbolTableRecord
100
AcDbDimStyleTableRecord
  2
EZ_RADIUS_INSIDE
 70
0
 40
1.0
 41
0.25
 42
0.125
 43
3.75
 44
0.375
 45
0.0
 46
0.0
 47
0.0
 48
0.0
 49
2.5
140
0.25
141
0.0
142
0.0
143
0.03937007874
144
100.0
145
0.0
146
0.5
147
0.1
148
0.0
 69
0
 70
0
 71
0
 72
0
 73
0
 74
0
 75
0
 76
0
 77
0
 78
12
 79
3
170
0
171
3
172
0
173
0
174
1
175
0
176
0
177
0
178
0
179
2
271
2
272
2
273
2
274
3
275
0
276
0
277
2
278
46
279
0
280
0
281
0
282
0
283
0
284
8
285
0
286
0
288
1
289
0
290
0
340
4C
342
84
371
-2
372
-2
  0
DIMSTYLE
105
89
330
4
100
AcDbSymbolTableRecord
100
AcDbDimStyleTableRecord
  2
EZ_CURVED
 70
0
 40
1.0
 41
0.25
 42
0.125
 43
3.75
 44
0.375
 45
0.0
 46
0.0
 47
0.0
 48
0.0
 49
2.5
140
0.25
141
2.5
142
0.0
143
0.03937007874
144
100.0
145
0.0
146
0.5
147
0.1
148
0.0
 69
0
 70
0
 71
0
 72
0
 73
0
 74
0
 75
0
 76
0
 77
1
 78
12
 79
2
 90
2
170
0
171
3
172
1
173
0
174
0
175
0
176
0
177
0
178
0
179
2
271
2
272
2
273
2
274
3
275
0
276
0
277
2
278
46
279
2
280
0
281
0
282
0
283
0
284
8
285
0
286
0
288
1
289
3
290
0
340
4C
371
-2
372
-2
  0
ENDTAB
  0
TABLE
  2
BLOCK_RECORD
  5
9
330
0
100
AcDbSymbolTable
 70
5
  0
BLOCK_RECORD
  5
17
330
9
100
AcDbSymbolTableRecord
100
AcDbBlockTableRecord
  2
*Model_Space
340
1A
 70
0
280
1
281
0
  0
BLOCK_RECORD
  5
1B
330
9
100
AcDbSymbolTableRecord
100
AcDbBlockTableRecord
  2
*Paper_Space
340
1E
 70
0
280
1
281
0
  0
BLOCK_RECORD
  5
74
330
9
100
AcDbSymbolTableRecord
100
AcDbBlockTableRecord
  2
_ARCHTICK
340
0
 70
0
280
1
281
0
  0
BLOCK_RECORD
  5
78
330
9
100
AcDbSymbolTableRecord
100
AcDbBlockTableRecord
  2
_CLOSEDFILLED
340
0
 70
0
280
1
281
0
  0
BLOCK_RECORD
  5
84
330
9
100
AcDbSymbolTableRecord
100
AcDbBlockTableRecord
  2
_CLOSEDBLANK
340
0
 70
0
280
1
281
0
  0
ENDTAB
  0
ENDSEC
  0
SECTION
  2
BLOCKS
  0
BLOCK
  5
18
330
17
100
AcDbEntity
  8
0
100
AcDbBlockBegin
  2
*Model_Space
 70
0
 10
0.0
 20
0.0
 30
0.0
  3
*Model_Space
  1

  0
ENDBLK
  5
19
330
17
100
AcDbEntity
  8
0
100
AcDbBlockEnd
  0
BLOCK
  5
1C
330
1B
100
AcDbEntity
  8
0
100
AcDbBlockBegin
  2
*Paper_Space
 70
0
 10
0.0
 20
0.0
 30
0.0
  3
*Paper_Space
  1

  0
ENDBLK
  5
1D
330
1B
100
AcDbEntity
  8
0
100
AcDbBlockEnd
  0
BLOCK
  5
75
330
74
100
AcDbEntity
  8
0
100
AcDbBlockBegin
  2
_ARCHTICK
 70
0
 10
0.0
 20
0.0
 30
0.0
  3
_ARCHTICK
  1

  0
LWPOLYLINE
  5
77
330
74
100
AcDbEntity
  8
0
  6
BYBLOCK
 62
0
100
AcDbPolyline
 90
2
 70
0
 43
0.15
 10
-0.5
 20
-0.5
 10
0.5
 20
0.5
  0
ENDBLK
  5
76
330
74
100
AcDbEntity
  8
0
100
AcDbBlockEnd
  0
BLOCK
  5
79
330
78
100
AcDbEntity
  8
0
100
AcDbBlockBegin
  2
_CLOSEDFILLED
 70
0
 10
0.0
 20
0.0
 30
0.0
  3
_CLOSEDFILLED
  1

  0
SOLID
  5
7B
330
78
100
AcDbEntity
  8
0
  6
BYBLOCK
 62
0
100
AcDbTrace
 10
-1.0
 20
0.16439898372402537
 30
0.0
 11
0.0
 21
0.0
 31
0.0
 12
-1.0
 22
-0.16439898372402537
 32
0.0
 13
-1.0
 23
-0.16439898372402537
 33
0.0
  0
ENDBLK
  5
7A
330
78
100
AcDbEntity
  8
0
100
AcDbBlockEnd
  0
BLOCK
  5
85
330
84
100
AcDbEntity
  8
0
100
AcDbBlockBegin
  2
_CLOSEDBLANK
 70
0
 10
0.0
 20
0.0
 30
0.0
  3
_CLOSEDBLANK
  1

  0
LWPOLYLINE
  5
87
330
84
100
AcDbEntity
  8
0
  6
BYBLOCK
 62
0
100
AcDbPolyline
 90
3
 70
1
 10
-1.0
 20
0.16439898372402537
 10
0.0
 20
0.0
 10
-1.0
 20
-0.16439898372402537
  0
ENDBLK
  5
86
330
84
100
AcDbEntity
  8
0
100
AcDbBlockEnd
  0
ENDSEC
  0
SECTION
  2
ENTITIES
  0
LWPOLYLINE
  5
8D
330
17
100
AcDbEntity
  8
CORTE
100
AcDbPolyline
 90
5
 70
1
 10
0.0
 20
0.0
 10
0.0
 20
146.0
 10
445.2
 20
146.0
 10
445.2
 20
0.0
 10
0.0
 20
0.0
  0
LWPOLYLINE
  5
8E
330
17
100
AcDbEntity
  8
CORTE
100
AcDbPolyline
 90
97
 70
1
 10
172.97216600210186
 20
46.85024067999187
 10
172.88878319785954
 20
47.69684049886068
 10
172.750208645242
 20
48.53617418620967
 10
172.5570357417579
 20
49.36464758633278
 10
172.31009168343638
 20
50.178713048941106
 10
172.0104339226467
 20
50.974884620746174
 10
171.65934563992494
 20
51.74975297284703
 10
171.25833024919768
 20
52.5
 10
170.80910495993308
 20
53.22241302925484
 10
170.31359342378605
 20
53.91389857711337
 10
169.7739174972267
 20
54.571495596300906
 10
169.1923881554251
 20
55.19238815542512
 10
168.57149559630088
 20
55.773917497226705
 10
167.91389857711337
 20
56.31359342378606
 10
167.22241302925482
 20
56.809104959933094
 10
166.5
 20
57.25833024919771
 10
165.749752972847
 20
57.65934563992495
 10
164.97488462074617
 20
58.010433922646726
 10
164.1787130489411
 20
58.31009168343637
 10
163.36464758633275
 20
58.557035741757886
 10
162.53617418620965
 20
58.750208645242
 10
161.69684049886067
 20
58.88878319785954
 10
160.85024067999186
 20
58.972166002101844
 10
160.0
 20
59.0
 10
159.14975932000814
 20
58.972166002101844
 10
158.3031595011393
 20
58.88878319785954
 10
157.46382581379032
 20
58.750208645242
 10
156.63535241366722
 20
58.557035741757886
 10
155.8212869510589
 20
58.31009168343637
 10
155.02511537925383
 20
58.010433922646726
 10
154.250247027153
 20
57.65934563992495
 10
153.5
 20
57.2583302491977
 10
152.77758697074518
 20
56.80910495993308
 10
152.08610142288663
 20
56.31359342378606
 10
151.4285044036991
 20
55.773917497226705
 10
150.80761184457486
 20
55.19238815542511
 10
150.2260825027733
 20
54.57149559630089
 10
149.68640657621393
 20
53.91389857711336
 10
149.19089504006692
 20
53.222413029254824
 10
148.7416697508023
 20
52.5
 10
148.34065436007506
 20
51.74975297284701
 10
147.98956607735326
 20
50.97488462074616
 10
147.68990831656362
 20
50.17871304894109
 10
147.4429642582421
 20
49.364647586332765
 10
147.249791354758
 20
48.536174186209664
 10
147.11121680214046
 20
47.69684049886067
 10
147.02783399789814
 20
46.850240679991856
 10
147.0
 20
46.0
 10
147.02783399789814
 20
45.14975932000814
 10
147.11121680214046
 20
44.303159501139326
 10
147.249791354758
 20
43.46382581379033
 10
147.4429642582421
 20
42.63535241366723
 10
147.68990831656362
 20
41.821286951058894
 10
147.98956607735326
 20
41.02511537925383
 10
148.34065436007506
 20
40.25024702715298
 10
148.7416697508023
 20
39.49999999999999
 10
149.19089504006692
 20
38.77758697074517
 10
149.68640657621395
 20
38.08610142288663
 10
150.2260825027733
 20
37.4285044036991
 10
150.8076118445749
 20
36.80761184457488
 10
151.42850440369912
 20
36.22608250277329
 10
152.08610142288663
 20
35.68640657621394
 10
152.77758697074518
 20
35.190895040066906
 10
153.5
 20
34.741669750802295
 10
154.250247027153
 20
34.34065436007505
 10
155.02511537925383
 20
33.989566077353274
 10
155.8212869510589
 20
33.689908316563624
 10
156.63535241366722
 20
33.442964258242114
 10
157.46382581379032
 20
33.249791354758
 10
158.30315950113933
 20
33.11121680214046
 10
159.14975932000814
 20
33.027833997898156
 10
160.0
 20
33.0
 10
160.85024067999186
 20
33.027833997898156
 10
161.69684049886067
 20
33.11121680214046
 10
162.53617418620968
 20
33.249791354758
 10
163.36464758633278
 20
33.442964258242114
 10
164.1787130489411
 20
33.68990831656363
 10
164.97488462074617
 20
33.989566077353274
 10
165.749752972847
 20
34.34065436007505
 10
166.5
 20
34.7416697508023
 10
167.22241302925482
 20
35.19089504006691
 10
167.91389857711337
 20
35.68640657621394
 10
168.5714955963009
 20
36.226082502773295
 10
169.1923881554251
 20
36.80761184457488
 10
169.7739174972267
 20
37.42850440369911
 10
170.31359342378605
 20
38.086101422886635
 10
170.80910495993308
 20
38.77758697074517
 10
171.2583302491977
 20
39.5
 10
171.65934563992494
 20
40.25024702715298
 10
172.01043392264674
 20
41.02511537925383
 10
172.31009168343638
 20
41.8212869510589
 10
172.5570357417579
 20
42.63535241366723
 10
172.750208645242
 20
43.463825813790336
 10
172.88878319785954
 20
44.303159501139326
 10
172.97216600210186
 20
45.14975932000814
 10
173.0
 20
46.0
 10
172.97216600210186
 20
46.85024067999187
  0
TEXT
  5
8F
330
17
100
AcDbEntity
  8
TEXTO
100
AcDbText
 10
0.0
 20
-22.0
 30
0.0
 40
8.0
  1
placa_extremo
 11
0.0
 21
-22.0
 31
0.0
100
AcDbText
  0
LWPOLYLINE
  5
90
330
17
100
AcDbEntity
  8
CORTE
100
AcDbPolyline
 90
5
 70
1
 10
485.2
 20
152.0
 10
930.4
 20
152.0
 10
930.4
 20
0.0
 10
485.2
 20
0.0
 10
485.2
 20
152.0
  0
LWPOLYLINE
  5
91
330
17
100
AcDbEntity
  8
CORTE
100
AcDbPolyline
 90
97
 70
1
 10
657.2104339226466
 20
58.974884620746174
 10
656.8593456399249
 20
59.74975297284703
 10
656.4583302491976
 20
60.5
 10
656.0091049599331
 20
61.22241302925484
 10
655.513593423786
 20
61.91389857711337
 10
654.9739174972267
 20
62.571495596300906
 10
654.3923881554251
 20
63.19238815542512
 10
653.7714955963008
 20
63.773917497226705
 10
653.1138985771133
 20
64.31359342378606
 10
652.4224130292548
 20
64.8091049599331
 10
651.7
 20
65.25833024919771
 10
650.949752972847
 20
65.65934563992495
 10
650.1748846207462
 20
66.01043392264673
 10
649.3787130489411
 20
66.31009168343637
 10
648.5646475863327
 20
66.55703574175789
 10
647.7361741862096
 20
66.750208645242
 10
646.8968404988607
 20
66.88878319785954
 10
646.0502406799918
 20
66.97216600210184
 10
645.2
 20
67.0
 10
644.3497593200082
 20
66.97216600210184
 10
643.5031595011393
 20
66.88878319785954
 10
642.6638258137903
 20
66.750208645242
 10
641.8353524136672
 20
66.55703574175789
 10
641.0212869510589
 20
66.31009168343637
 10
640.2251153792538
 20
66.01043392264673
 10
639.450247027153
 20
65.65934563992495
 10
638.7
 20
65.2583302491977
 10
637.9775869707452
 20
64.80910495993308
 10
637.2861014228866
 20
64.31359342378606
 10
636.628504403699
 20
63.773917497226705
 10
636.0076118445749
 20
63.19238815542511
 10
635.4260825027733
 20
62.57149559630089
 10
634.8864065762139
 20
61.91389857711336
 10
634.3908950400669
 20
61.222413029254824
 10
633.9416697508022
 20
60.5
 10
633.540654360075
 20
59.74975297284701
 10
633.1895660773532
 20
58.97488462074616
 10
632.8899083165636
 20
58.17871304894109
 10
632.642964258242
 20
57.364647586332765
 10
632.449791354758
 20
56.536174186209664
 10
632.3112168021405
 20
55.69684049886067
 10
632.2278339978982
 20
54.850240679991856
 10
632.2
 20
54.0
 10
632.2278339978982
 20
53.14975932000814
 10
632.3112168021405
 20
52.303159501139326
 10
632.449791354758
 20
51.46382581379033
 10
632.642964258242
 20
50.63535241366723
 10
632.8899083165636
 20
49.821286951058894
 10
633.1895660773532
 20
49.02511537925383
 10
633.540654360075
 20
48.25024702715298
 10
633.9416697508022
 20
47.49999999999999
 10
634.3908950400669
 20
46.77758697074517
 10
634.886406576214
 20
46.08610142288663
 10
635.4260825027733
 20
45.4285044036991
 10
636.0076118445749
 20
44.80761184457488
 10
636.6285044036991
 20
44.22608250277329
 10
637.2861014228866
 20
43.68640657621394
 10
637.9775869707452
 20
43.190895040066906
 10
638.7
 20
42.741669750802295
 10
639.450247027153
 20
42.34065436007505
 10
640.2251153792538
 20
41.989566077353274
 10
641.0212869510589
 20
41.689908316563624
 10
641.8353524136672
 20
41.442964258242114
 10
642.6638258137903
 20
41.249791354758
 10
643.5031595011393
 20
41.11121680214046
 10
644.3497593200082
 20
41.027833997898156
 10
645.2
 20
41.0
 10
646.0502406799918
 20
41.027833997898156
 10
646.8968404988607
 20
41.11121680214046
 10
647.7361741862096
 20
41.249791354758
 10
648.5646475863327
 20
41.442964258242114
 10
649.3787130489411
 20
41.68990831656363
 10
650.1748846207462
 20
41.989566077353274
 10
650.949752972847
 20
42.34065436007505
 10
651.7
 20
42.7416697508023
 10
652.4224130292548
 20
43.19089504006691
 10
653.1138985771133
 20
43.68640657621394
 10
653.7714955963008
 20
44.226082502773295
 10
654.3923881554251
 20
44.80761184457488
 10
654.9739174972267
 20
45.42850440369911
 10
655.513593423786
 20
46.086101422886635
 10
656.0091049599331
 20
46.77758697074517
 10
656.4583302491977
 20
47.5
 10
656.8593456399249
 20
48.25024702715298
 10
657.2104339226468
 20
49.02511537925383
 10
657.5100916834364
 20
49.8212869510589
 10
657.7570357417578
 20
50.63535241366723
 10
657.950208645242
 20
51.463825813790336
 10
658.0887831978596
 20
52.303159501139326
 10
658.1721660021019
 20
53.14975932000814
 10
658.2
 20
54.0
 10
658.1721660021019
 20
54.85024067999187
 10
658.0887831978596
 20
55.69684049886068
 10
657.950208645242
 20
56.53617418620967
 10
657.7570357417578
 20
57.36464758633278
 10
657.5100916834364
 20
58.178713048941106
 10
657.2104339226466
 20
58.974884620746174
  0
LWPOLYLINE
  5
92
330
17
100
AcDbEntity
  8
CORTE
100
AcDbPolyline
 90
97
 70
1
 10
750.8488001870235
 20
82.6698689050406
 10
750.3705002996091
 20
83.94068122157563
 10
749.8101093868033
 20
85.17749032204429
 10
749.1700271285271
 20
86.37500000000001
 10
748.4529944552778
 20
87.52808233515677
 10
747.6620818110431
 20
88.63179965193096
 10
746.8006760051887
 20
89.68142566332644
 10
745.8724657096209
 20
90.67246570962087
 10
744.8814256633264
 20
91.60067600518879
 10
743.8317996519309
 20
92.46208181104313
 10
742.7280823351567
 20
93.25299445527781
 10
741.575
 20
93.97002712852711
 10
740.3774903220442
 20
94.61010938680329
 10
739.1406812215756
 20
95.1705002996092
 10
737.8698689050406
 20
95.64880018702344
 10
736.5704951858772
 20
96.04296089549817
 10
735.2481241818347
 20
96.35129456836704
 10
733.908418488566
 20
96.57248087350656
 10
732.5571149315255
 20
96.70557265720103
 10
731.2
 20
96.75
 10
729.8428850684745
 20
96.70557265720102
 10
728.4915815114339
 20
96.57248087350656
 10
727.1518758181653
 20
96.35129456836702
 10
725.8295048141226
 20
96.04296089549817
 10
724.5301310949594
 20
95.64880018702344
 10
723.2593187784244
 20
95.17050029960919
 10
722.0225096779557
 20
94.61010938680329
 10
720.825
 20
93.9700271285271
 10
719.6719176648432
 20
93.2529944552778
 10
718.568200348069
 20
92.46208181104312
 10
717.5185743366735
 20
91.60067600518877
 10
716.5275342903791
 20
90.67246570962085
 10
715.5993239948111
 20
89.68142566332642
 10
714.7379181889569
 20
88.63179965193095
 10
713.9470055447222
 20
87.52808233515674
 10
713.2299728714729
 20
86.375
 10
712.5898906131968
 20
85.17749032204428
 10
712.0294997003907
 20
83.9406812215756
 10
711.5511998129765
 20
82.66986890504059
 10
711.1570391045018
 20
81.3704951858773
 10
710.848705431633
 20
80.04812418183465
 10
710.6275191264934
 20
78.70841848856607
 10
710.494427342799
 20
77.35711493152546
 10
710.45
 20
76.0
 10
710.494427342799
 20
74.64288506847453
 10
710.6275191264934
 20
73.29158151143392
 10
710.848705431633
 20
71.95187581816533
 10
711.1570391045018
 20
70.62950481412268
 10
711.5511998129766
 20
69.3301310949594
 10
712.0294997003908
 20
68.05931877842438
 10
712.5898906131968
 20
66.82250967795571
 10
713.2299728714729
 20
65.625
 10
713.9470055447222
 20
64.47191766484325
 10
714.7379181889569
 20
63.36820034806904
 10
715.5993239948112
 20
62.318574336673564
 10
716.5275342903791
 20
61.327534290379134
 10
717.5185743366735
 20
60.39932399481121
 10
718.568200348069
 20
59.537918188956866
 10
719.6719176648432
 20
58.747005544722185
 10
720.825
 20
58.02997287147289
 10
722.0225096779557
 20
57.38989061319671
 10
723.2593187784244
 20
56.8294997003908
 10
724.5301310949594
 20
56.35119981297656
 10
725.8295048141226
 20
55.95703910450183
 10
727.1518758181653
 20
55.64870543163296
 10
728.4915815114339
 20
55.427519126493436
 10
729.8428850684745
 20
55.29442734279898
 10
731.2
 20
55.25
 10
732.5571149315255
 20
55.29442734279898
 10
733.9084184885661
 20
55.427519126493436
 10
735.2481241818347
 20
55.64870543163297
 10
736.5704951858772
 20
55.95703910450183
 10
737.8698689050406
 20
56.35119981297656
 10
739.1406812215756
 20
56.8294997003908
 10
740.3774903220443
 20
57.38989061319672
 10
741.575
 20
58.0299728714729
 10
742.7280823351567
 20
58.747005544722185
 10
743.831799651931
 20
59.537918188956866
 10
744.8814256633264
 20
60.399323994811226
 10
745.8724657096209
 20
61.327534290379134
 10
746.8006760051887
 20
62.31857433667358
 10
747.6620818110431
 20
63.36820034806905
 10
748.4529944552778
 20
64.47191766484326
 10
749.1700271285271
 20
65.625
 10
749.8101093868033
 20
66.82250967795572
 10
750.3705002996091
 20
68.05931877842438
 10
750.8488001870235
 20
69.3301310949594
 10
751.2429608954981
 20
70.6295048141227
 10
751.551294568367
 20
71.95187581816533
 10
751.7724808735065
 20
73.29158151143393
 10
751.905572657201
 20
74.64288506847453
 10
751.95
 20
76.0
 10
751.905572657201
 20
77.35711493152549
 10
751.7724808735065
 20
78.7084184885661
 10
751.551294568367
 20
80.04812418183467
 10
751.2429608954981
 20
81.37049518587732
 10
750.8488001870235
 20
82.6698689050406
  0
LWPOLYLINE
  5
93
330
17
100
AcDbEntity
  8
CORTE
100
AcDbPolyline
 90
49
 70
1
 10
658.5479284741596
 20
8.285000000000007
 10
658.2376187630435
 20
8.749411301867244
 10
657.8693459556665
 20
9.169345955666564
 10
657.4494113018673
 20
9.537618763043582
 10
656.985
 20
9.847928474159561
 10
656.484058256199
 20
10.094965603823201
 10
655.9551573225878
 20
10.274503278254329
 10
655.4073468407796
 20
10.383469558066178
 10
654.85
 20
10.420000000000005
 10
654.2926531592204
 20
10.383469558066176
 10
653.7448426774122
 20
10.274503278254327
 10
653.2159417438011
 20
10.0949656038232
 10
652.715
 20
9.847928474159557
 10
652.2505886981328
 20
9.537618763043579
 10
651.8306540443334
 20
9.169345955666563
 10
651.4623812369564
 20
8.74941130186724
 10
651.1520715258405
 20
8.285000000000004
 10
650.9050343961768
 20
7.7840582561989375
 10
650.7254967217457
 20
7.255157322587767
 10
650.6165304419338
 20
6.707346840779625
 10
650.5799999999999
 20
6.150000000000006
 10
650.6165304419338
 20
5.592653159220383
 10
650.7254967217457
 20
5.044842677412241
 10
650.9050343961768
 20
4.515941743801072
 10
651.1520715258405
 20
4.015000000000004
 10
651.4623812369564
 20
3.550588698132767
 10
651.8306540443334
 20
3.130654044333447
 10
652.2505886981328
 20
2.76238123695643
 10
652.715
 20
2.452071525840452
 10
653.2159417438011
 20
2.20503439617681
 10
653.7448426774122
 20
2.025496721745683
 10
654.2926531592204
 20
1.9165304419338343
 10
654.85
 20
1.8800000000000052
 10
655.4073468407796
 20
1.9165304419338351
 10
655.9551573225878
 20
2.025496721745684
 10
656.484058256199
 20
2.205034396176811
 10
656.985
 20
2.452071525840452
 10
657.4494113018673
 20
2.762381236956431
 10
657.8693459556665
 20
3.130654044333448
 10
658.2376187630435
 20
3.550588698132769
 10
658.5479284741596
 20
4.015000000000006
 10
658.7949656038231
 20
4.515941743801072
 10
658.9745032782544
 20
5.044842677412241
 10
659.0834695580661
 20
5.592653159220385
 10
659.12
 20
6.150000000000006
 10
659.0834695580661
 20
6.70734684077963
 10
658.9745032782544
 20
7.255157322587774
 10
658.7949656038231
 20
7.784058256198941
 10
658.5479284741596
 20
8.285000000000007
  0
LWPOLYLINE
  5
94
330
17
100
AcDbEntity
  8
CORTE
100
AcDbPolyline
 90
49
 70
1
 10
658.7949656038231
 20
147.48405825619892
 10
658.5479284741596
 20
147.98499999999999
 10
658.2376187630435
 20
148.44941130186723
 10
657.8693459556665
 20
148.86934595566655
 10
657.4494113018673
 20
149.23761876304357
 10
656.985
 20
149.54792847415956
 10
656.484058256199
 20
149.7949656038232
 10
655.9551573225878
 20
149.9745032782543
 10
655.4073468407796
 20
150.08346955806616
 10
654.85
 20
150.12
 10
654.2926531592204
 20
150.08346955806616
 10
653.7448426774122
 20
149.9745032782543
 10
653.2159417438011
 20
149.7949656038232
 10
652.715
 20
149.54792847415953
 10
652.2505886981328
 20
149.23761876304357
 10
651.8306540443334
 20
148.86934595566655
 10
651.4623812369564
 20
148.44941130186723
 10
651.1520715258405
 20
147.98499999999999
 10
650.9050343961768
 20
147.48405825619892
 10
650.7254967217457
 20
146.95515732258775
 10
650.6165304419338
 20
146.4073468407796
 10
650.5799999999999
 20
145.85
 10
650.6165304419338
 20
145.29265315922038
 10
650.7254967217457
 20
144.74484267741224
 10
650.9050343961768
 20
144.21594174380107
 10
651.1520715258405
 20
143.715
 10
651.4623812369564
 20
143.25058869813276
 10
651.8306540443334
 20
142.83065404433344
 10
652.2505886981328
 20
142.46238123695642
 10
652.715
 20
142.15207152584043
 10
653.2159417438011
 20
141.9050343961768
 10
653.7448426774122
 20
141.72549672174569
 10
654.2926531592204
 20
141.61653044193383
 10
654.85
 20
141.57999999999998
 10
655.4073468407796
 20
141.61653044193383
 10
655.9551573225878
 20
141.72549672174569
 10
656.484058256199
 20
141.9050343961768
 10
656.985
 20
142.15207152584046
 10
657.4494113018673
 20
142.46238123695642
 10
657.8693459556665
 20
142.83065404433344
 10
658.2376187630435
 20
143.25058869813276
 10
658.5479284741596
 20
143.715
 10
658.7949656038231
 20
144.21594174380107
 10
658.9745032782544
 20
144.74484267741224
 10
659.0834695580661
 20
145.29265315922038
 10
659.12
 20
145.85
 10
659.0834695580661
 20
146.4073468407796
 10
658.9745032782544
 20
146.95515732258775
 10
658.7949656038231
 20
147.48405825619892
  0
LWPOLYLINE
  5
95
330
17
100
AcDbEntity
  8
CORTE
100
AcDbPolyline
 90
49
 70
1
 10
811.6745032782544
 20
7.255157322587774
 10
811.4949656038232
 20
7.784058256198941
 10
811.2479284741596
 20
8.285000000000007
 10
810.9376187630436
 20
8.749411301867244
 10
810.5693459556666
 20
9.169345955666564
 10
810.1494113018673
 20
9.537618763043582
 10
809.685
 20
9.847928474159561
 10
809.184058256199
 20
10.094965603823201
 10
808.6551573225878
 20
10.274503278254329
 10
808.1073468407797
 20
10.383469558066178
 10
807.55
 20
10.420000000000005
 10
806.9926531592204
 20
10.383469558066176
 10
806.4448426774122
 20
10.274503278254327
 10
805.9159417438011
 20
10.0949656038232
 10
805.415
 20
9.847928474159557
 10
804.9505886981328
 20
9.537618763043579
 10
804.5306540443335
 20
9.169345955666563
 10
804.1623812369564
 20
8.74941130186724
 10
803.8520715258405
 20
8.285000000000004
 10
803.6050343961767
 20
7.7840582561989375
 10
803.4254967217457
 20
7.255157322587767
 10
803.3165304419338
 20
6.707346840779625
 10
803.28
 20
6.150000000000006
 10
803.3165304419338
 20
5.592653159220383
 10
803.4254967217457
 20
5.044842677412241
 10
803.6050343961767
 20
4.515941743801072
 10
803.8520715258405
 20
4.015000000000004
 10
804.1623812369564
 20
3.550588698132767
 10
804.5306540443335
 20
3.130654044333447
 10
804.9505886981328
 20
2.76238123695643
 10
805.415
 20
2.452071525840452
 10
805.9159417438011
 20
2.20503439617681
 10
806.4448426774122
 20
2.025496721745683
 10
806.9926531592204
 20
1.9165304419338343
 10
807.55
 20
1.8800000000000052
 10
808.1073468407797
 20
1.9165304419338351
 10
808.6551573225878
 20
2.025496721745684
 10
809.184058256199
 20
2.205034396176811
 10
809.685
 20
2.452071525840452
 10
810.1494113018673
 20
2.762381236956431
 10
810.5693459556666
 20
3.130654044333448
 10
810.9376187630436
 20
3.550588698132769
 10
811.2479284741596
 20
4.015000000000006
 10
811.4949656038232
 20
4.515941743801072
 10
811.6745032782544
 20
5.044842677412241
 10
811.7834695580661
 20
5.592653159220385
 10
811.8199999999999
 20
6.150000000000006
 10
811.7834695580661
 20
6.70734684077963
 10
811.6745032782544
 20
7.255157322587774
  0
LWPOLYLINE
  5
96
330
17
100
AcDbEntity
  8
CORTE
100
AcDbPolyline
 90
49
 70
1
 10
811.7834695580661
 20
146.4073468407796
 10
811.6745032782544
 20
146.95515732258775
 10
811.4949656038232
 20
147.48405825619892
 10
811.2479284741596
 20
147.98499999999999
 10
810.9376187630436
 20
148.44941130186723
 10
810.5693459556666
 20
148.86934595566655
 10
810.1494113018673
 20
149.23761876304357
 10
809.685
 20
149.54792847415956
 10
809.184058256199
 20
149.7949656038232
 10
808.6551573225878
 20
149.9745032782543
 10
808.1073468407797
 20
150.08346955806616
 10
807.55
 20
150.12
 10
806.9926531592204
 20
150.08346955806616
 10
806.4448426774122
 20
149.9745032782543
 10
805.9159417438011
 20
149.7949656038232
 10
805.415
 20
149.54792847415953
 10
804.9505886981328
 20
149.23761876304357
 10
804.5306540443335
 20
148.86934595566655
 10
804.1623812369564
 20
148.44941130186723
 10
803.8520715258405
 20
147.98499999999999
 10
803.6050343961767
 20
147.48405825619892
 10
803.4254967217457
 20
146.95515732258775
 10
803.3165304419338
 20
146.4073468407796
 10
803.28
 20
145.85
 10
803.3165304419338
 20
145.29265315922038
 10
803.4254967217457
 20
144.74484267741224
 10
803.6050343961767
 20
144.21594174380107
 10
803.8520715258405
 20
143.715
 10
804.1623812369564
 20
143.25058869813276
 10
804.5306540443335
 20
142.83065404433344
 10
804.9505886981328
 20
142.46238123695642
 10
805.415
 20
142.15207152584043
 10
805.9159417438011
 20
141.9050343961768
 10
806.4448426774122
 20
141.72549672174569
 10
806.9926531592204
 20
141.61653044193383
 10
807.55
 20
141.57999999999998
 10
808.1073468407797
 20
141.61653044193383
 10
808.6551573225878
 20
141.72549672174569
 10
809.184058256199
 20
141.9050343961768
 10
809.685
 20
142.15207152584046
 10
810.1494113018673
 20
142.46238123695642
 10
810.5693459556666
 20
142.83065404433344
 10
810.9376187630436
 20
143.25058869813276
 10
811.2479284741596
 20
143.715
 10
811.4949656038232
 20
144.21594174380107
 10
811.6745032782544
 20
144.74484267741224
 10
811.7834695580661
 20
145.29265315922038
 10
811.8199999999999
 20
145.85
 10
811.7834695580661
 20
146.4073468407796
  0
TEXT
  5
97
330
17
100
AcDbEntity
  8
TEXTO
100
AcDbText
 10
485.2
 20
-22.0
 30
0.0
 40
8.0
  1
mampara_motores
 11
485.2
 21
-22.0
 31
0.0
100
AcDbText
  0
LWPOLYLINE
  5
98
330
17
100
AcDbEntity
  8
CORTE
100
AcDbPolyline
 90
5
 70
1
 10
1338.4
 20
0.0
 10
970.4
 20
0.0
 10
970.4
 20
88.0
 10
1338.4
 20
88.0
 10
1338.4
 20
0.0
  0
LWPOLYLINE
  5
99
330
17
100
AcDbEntity
  8
CORTE
100
AcDbPolyline
 90
65
 70
1
 10
1029.7149157926015
 20
69.5441508912858
 10
1029.3372913791352
 20
70.34257063143397
 10
1028.8832265107228
 20
71.10013209717641
 10
1028.3570940802647
 20
71.80953955747282
 10
1027.763961030679
 20
72.46396103067892
 10
1027.1095395574728
 20
73.05709408026462
 10
1026.4001320971763
 20
73.58322651072291
 10
1025.642570631434
 20
74.03729137913518
 10
1024.8441508912858
 20
74.41491579260156
 10
1024.0125620952901
 20
74.71246302158988
 10
1023.1558128981451
 20
74.92706752362906
 10
1022.2821542629661
 20
75.05666254004976
 10
1021.4
 20
75.1
 10
1020.5178457370339
 20
75.05666254004976
 10
1019.6441871018549
 20
74.92706752362906
 10
1018.7874379047098
 20
74.71246302158988
 10
1017.9558491087141
 20
74.41491579260156
 10
1017.157429368566
 20
74.03729137913518
 10
1016.3998679028235
 20
73.58322651072291
 10
1015.6904604425272
 20
73.05709408026462
 10
1015.036038969321
 20
72.46396103067892
 10
1014.4429059197354
 20
71.80953955747279
 10
1013.916773489277
 20
71.10013209717641
 10
1013.4627086208648
 20
70.34257063143397
 10
1013.0850842073984
 20
69.5441508912858
 10
1012.7875369784101
 20
68.71256209529017
 10
1012.5729324763709
 20
67.85581289814516
 10
1012.4433374599502
 20
66.98215426296605
 10
1012.4
 20
66.1
 10
1012.4433374599502
 20
65.21784573703394
 10
1012.5729324763709
 20
64.34418710185483
 10
1012.7875369784101
 20
63.48743790470982
 10
1013.0850842073984
 20
62.65584910871419
 10
1013.4627086208648
 20
61.85742936856602
 10
1013.916773489277
 20
61.099867902823576
 10
1014.4429059197354
 20
60.39046044252717
 10
1015.036038969321
 20
59.73603896932107
 10
1015.6904604425272
 20
59.14290591973537
 10
1016.3998679028235
 20
58.61677348927708
 10
1017.157429368566
 20
58.162708620864805
 10
1017.9558491087141
 20
57.78508420739841
 10
1018.7874379047098
 20
57.48753697841012
 10
1019.6441871018549
 20
57.272932476370926
 10
1020.5178457370339
 20
57.14333745995022
 10
1021.4
 20
57.099999999999994
 10
1022.2821542629661
 20
57.14333745995022
 10
1023.1558128981451
 20
57.272932476370926
 10
1024.0125620952901
 20
57.48753697841012
 10
1024.8441508912858
 20
57.78508420739841
 10
1025.642570631434
 20
58.162708620864805
 10
1026.4001320971763
 20
58.61677348927708
 10
1027.1095395574728
 20
59.14290591973537
 10
1027.763961030679
 20
59.73603896932107
 10
1028.3570940802647
 20
60.39046044252717
 10
1028.8832265107228
 20
61.099867902823576
 10
1029.3372913791352
 20
61.85742936856602
 10
1029.7149157926015
 20
62.65584910871419
 10
1030.0124630215898
 20
63.48743790470982
 10
1030.227067523629
 20
64.34418710185483
 10
1030.3566625400497
 20
65.21784573703394
 10
1030.4
 20
66.1
 10
1030.3566625400497
 20
66.98215426296605
 10
1030.227067523629
 20
67.85581289814516
 10
1030.0124630215898
 20
68.71256209529017
 10
1029.7149157926015
 20
69.5441508912858
  0
LWPOLYLINE
  5
9A
330
17
100
AcDbEntity
  8
CORTE
100
AcDbPolyline
 90
65
 70
1
 10
1140.0124630215898
 20
68.71256209529017
 10
1139.7149157926015
 20
69.5441508912858
 10
1139.3372913791352
 20
70.34257063143397
 10
1138.8832265107228
 20
71.10013209717641
 10
1138.3570940802647
 20
71.80953955747282
 10
1137.763961030679
 20
72.46396103067892
 10
1137.1095395574728
 20
73.05709408026462
 10
1136.4001320971763
 20
73.58322651072291
 10
1135.642570631434
 20
74.03729137913518
 10
1134.8441508912858
 20
74.41491579260156
 10
1134.0125620952901
 20
74.71246302158988
 10
1133.155812898145
 20
74.92706752362906
 10
1132.282154262966
 20
75.05666254004976
 10
1131.4
 20
75.1
 10
1130.517845737034
 20
75.05666254004976
 10
1129.6441871018549
 20
74.92706752362906
 10
1128.7874379047098
 20
74.71246302158988
 10
1127.9558491087141
 20
74.41491579260156
 10
1127.157429368566
 20
74.03729137913518
 10
1126.3998679028236
 20
73.58322651072291
 10
1125.6904604425272
 20
73.05709408026462
 10
1125.036038969321
 20
72.46396103067892
 10
1124.4429059197353
 20
71.80953955747279
 10
1123.9167734892771
 20
71.10013209717641
 10
1123.4627086208648
 20
70.34257063143397
 10
1123.0850842073983
 20
69.5441508912858
 10
1122.7875369784101
 20
68.71256209529017
 10
1122.5729324763709
 20
67.85581289814516
 10
1122.4433374599503
 20
66.98215426296605
 10
1122.4
 20
66.1
 10
1122.4433374599503
 20
65.21784573703394
 10
1122.5729324763709
 20
64.34418710185483
 10
1122.7875369784101
 20
63.48743790470982
 10
1123.0850842073985
 20
62.65584910871419
 10
1123.4627086208648
 20
61.85742936856602
 10
1123.9167734892771
 20
61.099867902823576
 10
1124.4429059197353
 20
60.39046044252717
 10
1125.036038969321
 20
59.73603896932107
 10
1125.6904604425272
 20
59.14290591973537
 10
1126.3998679028236
 20
58.61677348927708
 10
1127.157429368566
 20
58.162708620864805
 10
1127.9558491087141
 20
57.78508420739841
 10
1128.7874379047098
 20
57.48753697841012
 10
1129.6441871018549
 20
57.272932476370926
 10
1130.517845737034
 20
57.14333745995022
 10
1131.4
 20
57.099999999999994
 10
1132.282154262966
 20
57.14333745995022
 10
1133.155812898145
 20
57.272932476370926
 10
1134.0125620952901
 20
57.48753697841012
 10
1134.8441508912858
 20
57.78508420739841
 10
1135.642570631434
 20
58.162708620864805
 10
1136.4001320971763
 20
58.61677348927708
 10
1137.1095395574728
 20
59.14290591973537
 10
1137.763961030679
 20
59.73603896932107
 10
1138.3570940802647
 20
60.39046044252717
 10
1138.8832265107228
 20
61.099867902823576
 10
1139.3372913791352
 20
61.85742936856602
 10
1139.7149157926015
 20
62.65584910871419
 10
1140.0124630215898
 20
63.48743790470982
 10
1140.227067523629
 20
64.34418710185483
 10
1140.3566625400497
 20
65.21784573703394
 10
1140.4
 20
66.1
 10
1140.3566625400497
 20
66.98215426296605
 10
1140.227067523629
 20
67.85581289814516
 10
1140.0124630215898
 20
68.71256209529017
  0
LWPOLYLINE
  5
9B
330
17
100
AcDbEntity
  8
CORTE
100
AcDbPolyline
 90
65
 70
1
 10
1250.227067523629
 20
67.85581289814516
 10
1250.0124630215898
 20
68.71256209529017
 10
1249.7149157926015
 20
69.5441508912858
 10
1249.3372913791352
 20
70.34257063143397
 10
1248.8832265107228
 20
71.10013209717641
 10
1248.3570940802647
 20
71.80953955747282
 10
1247.763961030679
 20
72.46396103067892
 10
1247.1095395574728
 20
73.05709408026462
 10
1246.4001320971763
 20
73.58322651072291
 10
1245.642570631434
 20
74.03729137913518
 10
1244.8441508912858
 20
74.41491579260156
 10
1244.0125620952901
 20
74.71246302158988
 10
1243.155812898145
 20
74.92706752362906
 10
1242.282154262966
 20
75.05666254004976
 10
1241.4
 20
75.1
 10
1240.517845737034
 20
75.05666254004976
 10
1239.6441871018549
 20
74.92706752362906
 10
1238.7874379047098
 20
74.71246302158988
 10
1237.9558491087141
 20
74.41491579260156
 10
1237.157429368566
 20
74.03729137913518
 10
1236.3998679028236
 20
73.58322651072291
 10
1235.6904604425272
 20
73.05709408026462
 10
1235.036038969321
 20
72.46396103067892
 10
1234.4429059197353
 20
71.80953955747279
 10
1233.9167734892771
 20
71.10013209717641
 10
1233.4627086208648
 20
70.34257063143397
 10
1233.0850842073983
 20
69.5441508912858
 10
1232.7875369784101
 20
68.71256209529017
 10
1232.5729324763709
 20
67.85581289814516
 10
1232.4433374599503
 20
66.98215426296605
 10
1232.4
 20
66.1
 10
1232.4433374599503
 20
65.21784573703394
 10
1232.5729324763709
 20
64.34418710185483
 10
1232.7875369784101
 20
63.48743790470982
 10
1233.0850842073983
 20
62.65584910871419
 10
1233.4627086208648
 20
61.85742936856602
 10
1233.9167734892771
 20
61.099867902823576
 10
1234.4429059197353
 20
60.39046044252717
 10
1235.036038969321
 20
59.73603896932107
 10
1235.6904604425272
 20
59.14290591973537
 10
1236.3998679028236
 20
58.61677348927708
 10
1237.157429368566
 20
58.162708620864805
 10
1237.9558491087141
 20
57.78508420739841
 10
1238.7874379047098
 20
57.48753697841012
 10
1239.6441871018549
 20
57.272932476370926
 10
1240.517845737034
 20
57.14333745995022
 10
1241.4
 20
57.099999999999994
 10
1242.282154262966
 20
57.14333745995022
 10
1243.155812898145
 20
57.272932476370926
 10
1244.0125620952901
 20
57.48753697841012
 10
1244.8441508912858
 20
57.78508420739841
 10
1245.642570631434
 20
58.162708620864805
 10
1246.4001320971765
 20
58.61677348927708
 10
1247.1095395574728
 20
59.14290591973537
 10
1247.763961030679
 20
59.73603896932107
 10
1248.3570940802647
 20
60.39046044252717
 10
1248.8832265107228
 20
61.099867902823576
 10
1249.3372913791352
 20
61.85742936856602
 10
1249.7149157926015
 20
62.65584910871419
 10
1250.0124630215898
 20
63.48743790470982
 10
1250.227067523629
 20
64.34418710185483
 10
1250.3566625400497
 20
65.21784573703394
 10
1250.4
 20
66.1
 10
1250.3566625400497
 20
66.98215426296605
 10
1250.227067523629
 20
67.85581289814516
  0
TEXT
  5
9C
330
17
100
AcDbEntity
  8
TEXTO
100
AcDbText
 10
970.4
 20
-22.0
 30
0.0
 40
8.0
  1
pantalla_tren
 11
970.4
 21
-22.0
 31
0.0
100
AcDbText
  0
LWPOLYLINE
  5
9D
330
17
100
AcDbEntity
  8
CORTE
100
AcDbPolyline
 90
5
 70
1
 10
1378.4
 20
0.0
 10
1378.4
 20
152.0
 10
1548.4
 20
152.0
 10
1548.4
 20
0.0
 10
1378.4
 20
0.0
  0
LWPOLYLINE
  5
9E
330
17
100
AcDbEntity
  8
CORTE
100
AcDbPolyline
 90
97
 70
1
 10
1483.0488001870235
 20
82.6698689050406
 10
1482.5705002996092
 20
83.94068122157563
 10
1482.0101093868034
 20
85.17749032204429
 10
1481.3700271285272
 20
86.37500000000001
 10
1480.6529944552778
 20
87.52808233515677
 10
1479.8620818110433
 20
88.63179965193096
 10
1479.0006760051888
 20
89.68142566332644
 10
1478.072465709621
 20
90.67246570962087
 10
1477.0814256633266
 20
91.60067600518879
 10
1476.0317996519311
 20
92.46208181104313
 10
1474.928082335157
 20
93.25299445527781
 10
1473.775
 20
93.97002712852711
 10
1472.5774903220445
 20
94.61010938680329
 10
1471.3406812215758
 20
95.1705002996092
 10
1470.0698689050407
 20
95.64880018702344
 10
1468.7704951858773
 20
96.04296089549817
 10
1467.4481241818348
 20
96.35129456836704
 10
1466.1084184885663
 20
96.57248087350656
 10
1464.7571149315256
 20
96.70557265720103
 10
1463.4
 20
96.75
 10
1462.0428850684746
 20
96.70557265720102
 10
1460.691581511434
 20
96.57248087350656
 10
1459.3518758181654
 20
96.35129456836702
 10
1458.029504814123
 20
96.04296089549817
 10
1456.7301310949595
 20
95.64880018702344
 10
1455.4593187784244
 20
95.17050029960919
 10
1454.2225096779557
 20
94.61010938680329
 10
1453.025
 20
93.9700271285271
 10
1451.8719176648433
 20
93.2529944552778
 10
1450.768200348069
 20
92.46208181104312
 10
1449.7185743366736
 20
91.60067600518877
 10
1448.7275342903793
 20
90.67246570962085
 10
1447.7993239948114
 20
89.68142566332642
 10
1446.937918188957
 20
88.63179965193095
 10
1446.1470055447223
 20
87.52808233515674
 10
1445.429972871473
 20
86.375
 10
1444.7898906131968
 20
85.17749032204428
 10
1444.229499700391
 20
83.9406812215756
 10
1443.7511998129767
 20
82.66986890504059
 10
1443.3570391045018
 20
81.3704951858773
 10
1443.0487054316332
 20
80.04812418183465
 10
1442.8275191264936
 20
78.70841848856607
 10
1442.6944273427991
 20
77.35711493152546
 10
1442.65
 20
76.0
 10
1442.6944273427991
 20
74.64288506847453
 10
1442.8275191264936
 20
73.29158151143392
 10
1443.0487054316332
 20
71.95187581816533
 10
1443.3570391045018
 20
70.62950481412268
 10
1443.7511998129767
 20
69.3301310949594
 10
1444.229499700391
 20
68.05931877842438
 10
1444.7898906131968
 20
66.82250967795571
 10
1445.429972871473
 20
65.625
 10
1446.1470055447223
 20
64.47191766484325
 10
1446.937918188957
 20
63.36820034806904
 10
1447.7993239948114
 20
62.318574336673564
 10
1448.7275342903793
 20
61.327534290379134
 10
1449.7185743366736
 20
60.39932399481121
 10
1450.768200348069
 20
59.537918188956866
 10
1451.8719176648433
 20
58.747005544722185
 10
1453.025
 20
58.02997287147289
 10
1454.2225096779557
 20
57.38989061319671
 10
1455.4593187784244
 20
56.8294997003908
 10
1456.7301310949595
 20
56.35119981297656
 10
1458.029504814123
 20
55.95703910450183
 10
1459.3518758181654
 20
55.64870543163296
 10
1460.691581511434
 20
55.427519126493436
 10
1462.0428850684746
 20
55.29442734279898
 10
1463.4
 20
55.25
 10
1464.7571149315256
 20
55.29442734279898
 10
1466.1084184885663
 20
55.427519126493436
 10
1467.4481241818348
 20
55.64870543163297
 10
1468.7704951858773
 20
55.95703910450183
 10
1470.0698689050407
 20
56.35119981297656
 10
1471.3406812215758
 20
56.8294997003908
 10
1472.5774903220445
 20
57.38989061319672
 10
1473.775
 20
58.0299728714729
 10
1474.928082335157
 20
58.747005544722185
 10
1476.0317996519311
 20
59.537918188956866
 10
1477.0814256633266
 20
60.399323994811226
 10
1478.072465709621
 20
61.327534290379134
 10
1479.0006760051888
 20
62.31857433667358
 10
1479.8620818110433
 20
63.36820034806905
 10
1480.6529944552778
 20
64.47191766484326
 10
1481.3700271285272
 20
65.625
 10
1482.0101093868034
 20
66.82250967795572
 10
1482.5705002996092
 20
68.05931877842438
 10
1483.0488001870235
 20
69.3301310949594
 10
1483.4429608954983
 20
70.6295048141227
 10
1483.751294568367
 20
71.95187581816533
 10
1483.9724808735066
 20
73.29158151143393
 10
1484.105572657201
 20
74.64288506847453
 10
1484.15
 20
76.0
 10
1484.105572657201
 20
77.35711493152549
 10
1483.9724808735066
 20
78.7084184885661
 10
1483.751294568367
 20
80.04812418183467
 10
1483.4429608954983
 20
81.37049518587732
 10
1483.0488001870235
 20
82.6698689050406
  0
LWPOLYLINE
  5
9F
330
17
100
AcDbEntity
  8
CORTE
100
AcDbPolyline
 90
49
 70
1
 10
1390.7479284741596
 20
8.285000000000007
 10
1390.4376187630437
 20
8.749411301867244
 10
1390.0693459556667
 20
9.169345955666564
 10
1389.6494113018673
 20
9.537618763043582
 10
1389.185
 20
9.847928474159561
 10
1388.684058256199
 20
10.094965603823201
 10
1388.155157322588
 20
10.274503278254329
 10
1387.6073468407797
 20
10.383469558066178
 10
1387.0500000000002
 20
10.420000000000005
 10
1386.4926531592205
 20
10.383469558066176
 10
1385.9448426774122
 20
10.274503278254327
 10
1385.415941743801
 20
10.0949656038232
 10
1384.915
 20
9.847928474159557
 10
1384.4505886981328
 20
9.537618763043579
 10
1384.0306540443335
 20
9.169345955666563
 10
1383.6623812369564
 20
8.74941130186724
 10
1383.3520715258405
 20
8.285000000000004
 10
1383.105034396177
 20
7.7840582561989375
 10
1382.9254967217457
 20
7.255157322587767
 10
1382.816530441934
 20
6.707346840779625
 10
1382.7800000000002
 20
6.150000000000006
 10
1382.816530441934
 20
5.592653159220383
 10
1382.9254967217457
 20
5.044842677412241
 10
1383.105034396177
 20
4.515941743801072
 10
1383.3520715258405
 20
4.015000000000004
 10
1383.6623812369564
 20
3.550588698132767
 10
1384.0306540443335
 20
3.130654044333447
 10
1384.4505886981328
 20
2.76238123695643
 10
1384.915
 20
2.452071525840452
 10
1385.415941743801
 20
2.20503439617681
 10
1385.9448426774122
 20
2.025496721745683
 10
1386.4926531592205
 20
1.9165304419338343
 10
1387.0500000000002
 20
1.8800000000000052
 10
1387.6073468407797
 20
1.9165304419338351
 10
1388.155157322588
 20
2.025496721745684
 10
1388.684058256199
 20
2.205034396176811
 10
1389.185
 20
2.452071525840452
 10
1389.6494113018673
 20
2.762381236956431
 10
1390.0693459556667
 20
3.130654044333448
 10
1390.4376187630437
 20
3.550588698132769
 10
1390.7479284741596
 20
4.015000000000006
 10
1390.9949656038234
 20
4.515941743801072
 10
1391.1745032782544
 20
5.044842677412241
 10
1391.2834695580664
 20
5.592653159220385
 10
1391.3200000000002
 20
6.150000000000006
 10
1391.2834695580664
 20
6.70734684077963
 10
1391.1745032782544
 20
7.255157322587774
 10
1390.9949656038234
 20
7.784058256198941
 10
1390.7479284741596
 20
8.285000000000007
  0
LWPOLYLINE
  5
A0
330
17
100
AcDbEntity
  8
CORTE
100
AcDbPolyline
 90
49
 70
1
 10
1390.9949656038234
 20
147.48405825619892
 10
1390.7479284741596
 20
147.98499999999999
 10
1390.4376187630437
 20
148.44941130186723
 10
1390.0693459556667
 20
148.86934595566655
 10
1389.6494113018673
 20
149.23761876304357
 10
1389.185
 20
149.54792847415956
 10
1388.684058256199
 20
149.7949656038232
 10
1388.155157322588
 20
149.9745032782543
 10
1387.6073468407797
 20
150.08346955806616
 10
1387.0500000000002
 20
150.12
 10
1386.4926531592205
 20
150.08346955806616
 10
1385.9448426774122
 20
149.9745032782543
 10
1385.415941743801
 20
149.7949656038232
 10
1384.915
 20
149.54792847415953
 10
1384.4505886981328
 20
149.23761876304357
 10
1384.0306540443335
 20
148.86934595566655
 10
1383.6623812369564
 20
148.44941130186723
 10
1383.3520715258405
 20
147.98499999999999
 10
1383.105034396177
 20
147.48405825619892
 10
1382.9254967217457
 20
146.95515732258775
 10
1382.816530441934
 20
146.4073468407796
 10
1382.7800000000002
 20
145.85
 10
1382.816530441934
 20
145.29265315922038
 10
1382.9254967217457
 20
144.74484267741224
 10
1383.105034396177
 20
144.21594174380107
 10
1383.3520715258405
 20
143.715
 10
1383.6623812369564
 20
143.25058869813276
 10
1384.0306540443335
 20
142.83065404433344
 10
1384.4505886981328
 20
142.46238123695642
 10
1384.915
 20
142.15207152584043
 10
1385.415941743801
 20
141.9050343961768
 10
1385.9448426774122
 20
141.72549672174569
 10
1386.4926531592205
 20
141.61653044193383
 10
1387.0500000000002
 20
141.57999999999998
 10
1387.6073468407797
 20
141.61653044193383
 10
1388.155157322588
 20
141.72549672174569
 10
1388.684058256199
 20
141.9050343961768
 10
1389.185
 20
142.15207152584046
 10
1389.6494113018673
 20
142.46238123695642
 10
1390.0693459556667
 20
142.83065404433344
 10
1390.4376187630437
 20
143.25058869813276
 10
1390.7479284741596
 20
143.715
 10
1390.9949656038234
 20
144.21594174380107
 10
1391.1745032782544
 20
144.74484267741224
 10
1391.2834695580664
 20
145.29265315922038
 10
1391.3200000000002
 20
145.85
 10
1391.2834695580664
 20
146.4073468407796
 10
1391.1745032782544
 20
146.95515732258775
 10
1390.9949656038234
 20
147.48405825619892
  0
LWPOLYLINE
  5
A1
330
17
100
AcDbEntity
  8
CORTE
100
AcDbPolyline
 90
49
 70
1
 10
1543.8745032782545
 20
7.255157322587774
 10
1543.6949656038232
 20
7.784058256198941
 10
1543.4479284741597
 20
8.285000000000007
 10
1543.1376187630435
 20
8.749411301867244
 10
1542.7693459556667
 20
9.169345955666564
 10
1542.3494113018673
 20
9.537618763043582
 10
1541.8850000000002
 20
9.847928474159561
 10
1541.384058256199
 20
10.094965603823201
 10
1540.8551573225877
 20
10.274503278254329
 10
1540.3073468407797
 20
10.383469558066178
 10
1539.75
 20
10.420000000000005
 10
1539.1926531592205
 20
10.383469558066176
 10
1538.6448426774123
 20
10.274503278254327
 10
1538.1159417438012
 20
10.0949656038232
 10
1537.6150000000002
 20
9.847928474159557
 10
1537.1505886981329
 20
9.537618763043579
 10
1536.7306540443335
 20
9.169345955666563
 10
1536.3623812369565
 20
8.74941130186724
 10
1536.0520715258406
 20
8.285000000000004
 10
1535.8050343961768
 20
7.7840582561989375
 10
1535.6254967217458
 20
7.255157322587767
 10
1535.5165304419338
 20
6.707346840779625
 10
1535.48
 20
6.150000000000006
 10
1535.5165304419338
 20
5.592653159220383
 10
1535.6254967217458
 20
5.044842677412241
 10
1535.8050343961768
 20
4.515941743801072
 10
1536.0520715258406
 20
4.015000000000004
 10
1536.3623812369565
 20
3.550588698132767
 10
1536.7306540443335
 20
3.130654044333447
 10
1537.1505886981329
 20
2.76238123695643
 10
1537.6150000000002
 20
2.452071525840452
 10
1538.1159417438012
 20
2.20503439617681
 10
1538.6448426774123
 20
2.025496721745683
 10
1539.1926531592205
 20
1.9165304419338343
 10
1539.75
 20
1.8800000000000052
 10
1540.3073468407797
 20
1.9165304419338351
 10
1540.8551573225877
 20
2.025496721745684
 10
1541.384058256199
 20
2.205034396176811
 10
1541.8850000000002
 20
2.452071525840452
 10
1542.3494113018673
 20
2.762381236956431
 10
1542.7693459556667
 20
3.130654044333448
 10
1543.1376187630435
 20
3.550588698132769
 10
1543.4479284741597
 20
4.015000000000006
 10
1543.6949656038232
 20
4.515941743801072
 10
1543.8745032782545
 20
5.044842677412241
 10
1543.9834695580662
 20
5.592653159220385
 10
1544.02
 20
6.150000000000006
 10
1543.9834695580662
 20
6.70734684077963
 10
1543.8745032782545
 20
7.255157322587774
  0
LWPOLYLINE
  5
A2
330
17
100
AcDbEntity
  8
CORTE
100
AcDbPolyline
 90
49
 70
1
 10
1543.9834695580662
 20
146.4073468407796
 10
1543.8745032782545
 20
146.95515732258775
 10
1543.6949656038232
 20
147.48405825619892
 10
1543.4479284741597
 20
147.98499999999999
 10
1543.1376187630435
 20
148.44941130186723
 10
1542.7693459556667
 20
148.86934595566655
 10
1542.3494113018673
 20
149.23761876304357
 10
1541.8850000000002
 20
149.54792847415956
 10
1541.384058256199
 20
149.7949656038232
 10
1540.8551573225877
 20
149.9745032782543
 10
1540.3073468407797
 20
150.08346955806616
 10
1539.75
 20
150.12
 10
1539.1926531592205
 20
150.08346955806616
 10
1538.6448426774123
 20
149.9745032782543
 10
1538.1159417438012
 20
149.7949656038232
 10
1537.6150000000002
 20
149.54792847415953
 10
1537.1505886981329
 20
149.23761876304357
 10
1536.7306540443335
 20
148.86934595566655
 10
1536.3623812369565
 20
148.44941130186723
 10
1536.0520715258406
 20
147.98499999999999
 10
1535.8050343961768
 20
147.48405825619892
 10
1535.6254967217458
 20
146.95515732258775
 10
1535.5165304419338
 20
146.4073468407796
 10
1535.48
 20
145.85
 10
1535.5165304419338
 20
145.29265315922038
 10
1535.6254967217458
 20
144.74484267741224
 10
1535.8050343961768
 20
144.21594174380107
 10
1536.0520715258406
 20
143.715
 10
1536.3623812369565
 20
143.25058869813276
 10
1536.7306540443335
 20
142.83065404433344
 10
1537.1505886981329
 20
142.46238123695642
 10
1537.6150000000002
 20
142.15207152584043
 10
1538.1159417438012
 20
141.9050343961768
 10
1538.6448426774123
 20
141.72549672174569
 10
1539.1926531592205
 20
141.61653044193383
 10
1539.75
 20
141.57999999999998
 10
1540.3073468407797
 20
141.61653044193383
 10
1540.8551573225877
 20
141.72549672174569
 10
1541.384058256199
 20
141.9050343961768
 10
1541.8850000000002
 20
142.15207152584046
 10
1542.3494113018673
 20
142.46238123695642
 10
1542.7693459556667
 20
142.83065404433344
 10
1543.1376187630435
 20
143.25058869813276
 10
1543.4479284741597
 20
143.715
 10
1543.6949656038232
 20
144.21594174380107
 10
1543.8745032782545
 20
144.74484267741224
 10
1543.9834695580662
 20
145.29265315922038
 10
1544.02
 20
145.85
 10
1543.9834695580662
 20
146.4073468407796
  0
TEXT
  5
A3
330
17
100
AcDbEntity
  8
TEXTO
100
AcDbText
 10
1378.4
 20
-22.0
 30
0.0
 40
8.0
  1
soporte_motor_A
 11
1378.4
 21
-22.0
 31
0.0
100
AcDbText
  0
LWPOLYLINE
  5
A4
330
17
100
AcDbEntity
  8
CORTE
100
AcDbPolyline
 90
5
 70
1
 10
1588.4
 20
0.0
 10
1588.4
 20
54.0
 10
1642.4
 20
54.0
 10
1642.4
 20
0.0
 10
1588.4
 20
0.0
  0
LWPOLYLINE
  5
A5
330
17
100
AcDbEntity
  8
CORTE
100
AcDbPolyline
 90
129
 70
1
 10
1629.6702900805315
 20
31.00105439695298
 10
1629.618701782329
 20
31.70041989245857
 10
1629.5328593861218
 20
32.39641165378097
 10
1629.4129696937612
 20
33.08735297580543
 10
1629.2593215300171
 20
33.77157932036786
 10
1629.0722850467741
 20
34.44744232627312
 10
1628.8523108313025
 20
35.113313780341315
 10
1628.5999288207552
 20
35.7675895399162
 10
1628.3157470255012
 20
36.40869339738515
 10
1628.0004500643772
 20
37.03508087740144
 10
1627.654797515379
 20
37.64524295766063
 10
1627.2796220857726
 20
38.23770970426756
 10
1626.8758276060298
 20
38.811053812935626
 10
1626.4443868524202
 20
39.36389404748809
 10
1625.986339203509
 20
39.89489856737677
 10
1625.502788136203
 20
40.40278813620279
 10
1624.9948985673768
 20
40.88633920350895
 10
1624.463894047488
 20
41.34438685242009
 10
1623.9110538129357
 20
41.77582760602971
 10
1623.3377097042676
 20
42.17962208577259
 10
1622.7452429576608
 20
42.55479751537888
 10
1622.1350808774016
 20
42.90045006437711
 10
1621.5086933973853
 20
43.21574702550117
 10
1620.8675895399163
 20
43.499928820755
 10
1620.2133137803414
 20
43.752310831302395
 10
1619.5474423262733
 20
43.97228504677392
 10
1618.871579320368
 20
44.159321530017024
 10
1618.1873529758054
 20
44.31296969376115
 10
1617.496411653781
 20
44.43285938612178
 10
1616.8004198924586
 20
44.518701782329
 10
1616.101054396953
 20
44.57029008053138
 10
1615.4
 20
44.58749999999998
 10
1614.6989456030472
 20
44.57029008053138
 10
1613.9995801075415
 20
44.518701782329
 10
1613.3035883462192
 20
44.43285938612178
 10
1612.6126470241948
 20
44.31296969376115
 10
1611.9284206796322
 20
44.159321530017024
 10
1611.2525576737269
 20
43.97228504677392
 10
1610.5866862196588
 20
43.752310831302395
 10
1609.932410460084
 20
43.499928820754974
 10
1609.291306602615
 20
43.21574702550117
 10
1608.6649191225986
 20
42.90045006437711
 10
1608.0547570423394
 20
42.55479751537888
 10
1607.4622902957326
 20
42.17962208577259
 10
1606.8889461870644
 20
41.77582760602971
 10
1606.336105952512
 20
41.34438685242009
 10
1605.8051014326234
 20
40.88633920350895
 10
1605.2972118637972
 20
40.40278813620279
 10
1604.8136607964911
 20
39.89489856737677
 10
1604.35561314758
 20
39.36389404748806
 10
1603.9241723939704
 20
38.811053812935626
 10
1603.5203779142275
 20
38.23770970426756
 10
1603.1452024846212
 20
37.64524295766063
 10
1602.799549935623
 20
37.03508087740141
 10
1602.484252974499
 20
36.40869339738512
 10
1602.200071179245
 20
35.7675895399162
 10
1601.9476891686977
 20
35.113313780341315
 10
1601.7277149532263
 20
34.44744232627312
 10
1601.540678469983
 20
33.77157932036786
 10
1601.387030306239
 20
33.08735297580543
 10
1601.2671406138784
 20
32.39641165378097
 10
1601.1812982176712
 20
31.70041989245857
 10
1601.1297099194687
 20
31.001054396952952
 10
1601.1125000000002
 20
30.299999999999983
 10
1601.1297099194687
 20
29.598945603046985
 10
1601.1812982176712
 20
28.899580107541397
 10
1601.2671406138784
 20
28.203588346218993
 10
1601.387030306239
 20
27.512647024194536
 10
1601.540678469983
 20
26.828420679632103
 10
1601.7277149532263
 20
26.152557673726847
 10
1601.9476891686977
 20
25.486686219658623
 10
1602.200071179245
 20
24.832410460083764
 10
1602.484252974499
 20
24.191306602614816
 10
1602.799549935623
 20
23.564919122598553
 10
1603.1452024846212
 20
22.954757042339338
 10
1603.5203779142275
 20
22.362290295732407
 10
1603.9241723939704
 20
21.78894618706434
 10
1604.35561314758
 20
21.236105952511906
 10
1604.8136607964911
 20
20.70510143262321
 10
1605.2972118637972
 20
20.19721186379718
 10
1605.8051014326234
 20
19.713660796491013
 10
1606.336105952512
 20
19.25561314757988
 10
1606.8889461870644
 20
18.824172393970272
 10
1607.4622902957326
 20
18.42037791422736
 10
1608.0547570423394
 20
18.0452024846211
 10
1608.6649191225986
 20
17.699549935622855
 10
1609.291306602615
 20
17.384252974498793
 10
1609.932410460084
 20
17.100071179244978
 10
1610.5866862196588
 20
16.84768916869757
 10
1611.2525576737269
 20
16.627714953226047
 10
1611.9284206796322
 20
16.44067846998294
 10
1612.6126470241948
 20
16.287030306238833
 10
1613.3035883462192
 20
16.167140613878175
 10
1613.9995801075415
 20
16.081298217670962
 10
1614.6989456030472
 20
16.029709919468587
 10
1615.4
 20
16.01249999999999
 10
1616.101054396953
 20
16.029709919468587
 10
1616.8004198924586
 20
16.081298217670977
 10
1617.496411653781
 20
16.167140613878175
 10
1618.1873529758054
 20
16.287030306238833
 10
1618.871579320368
 20
16.44067846998294
 10
1619.5474423262733
 20
16.627714953226047
 10
1620.2133137803414
 20
16.84768916869757
 10
1620.8675895399163
 20
17.100071179244978
 10
1621.5086933973853
 20
17.384252974498793
 10
1622.1350808774016
 20
17.699549935622855
 10
1622.7452429576608
 20
18.0452024846211
 10
1623.3377097042676
 20
18.420377914227373
 10
1623.9110538129357
 20
18.824172393970272
 10
1624.463894047488
 20
19.25561314757988
 10
1624.9948985673768
 20
19.713660796491013
 10
1625.502788136203
 20
20.19721186379718
 10
1625.986339203509
 20
20.70510143262321
 10
1626.4443868524202
 20
21.236105952511906
 10
1626.8758276060298
 20
21.78894618706434
 10
1627.2796220857726
 20
22.362290295732407
 10
1627.654797515379
 20
22.954757042339338
 10
1628.0004500643772
 20
23.564919122598553
 10
1628.3157470255012
 20
24.191306602614816
 10
1628.5999288207552
 20
24.832410460083764
 10
1628.8523108313025
 20
25.48668621965865
 10
1629.0722850467741
 20
26.152557673726847
 10
1629.2593215300171
 20
26.828420679632103
 10
1629.4129696937612
 20
27.512647024194564
 10
1629.5328593861218
 20
28.203588346218993
 10
1629.618701782329
 20
28.899580107541397
 10
1629.6702900805315
 20
29.598945603046985
 10
1629.6875
 20
30.299999999999983
 10
1629.6702900805315
 20
31.00105439695298
  0
TEXT
  5
A6
330
17
100
AcDbEntity
  8
TEXTO
100
AcDbText
 10
1588.4
 20
-22.0
 30
0.0
 40
8.0
  1
soporte_eje
 11
1588.4
 21
-22.0
 31
0.0
100
AcDbText
  0
LWPOLYLINE
  5
A7
330
17
100
AcDbEntity
  8
CORTE
100
AcDbPolyline
 90
56
 70
1
 10
2024.4
 20
0.0
 10
1898.9973564880297
 20
0.0
 10
1899.1153637655127
 20
0.1302009666017625
 10
1899.4719646350457
 20
0.61102157858042
 10
1899.779719712525
 20
1.1244799053614116
 10
1900.035665148319
 20
1.665631062572956
 10
1900.2373360479664
 20
2.2292634687477744
 10
1900.38279021046
 20
2.809949035701621
 10
1900.4706268327004
 20
3.40209544398968
 10
1900.5
 20
4.0
 10
1900.5
 20
20.0
 10
1900.4706268327004
 20
20.59790455601032
 10
1900.38279021046
 20
21.19005096429838
 10
1900.2373360479664
 20
21.770736531252226
 10
1900.035665148319
 20
22.334368937427058
 10
1899.779719712525
 20
22.87552009463859
 10
1899.4719646350457
 20
23.38897842141958
 10
1899.1153637655127
 20
23.869799033398237
 10
1898.713351365238
 20
24.313351365237935
 10
1898.2697990333984
 20
24.71536376551269
 10
1897.7889784214196
 20
25.071964635045532
 10
1897.2755200946388
 20
25.37971971252496
 10
1896.7343689374272
 20
25.63566514831885
 10
1896.1707365312523
 20
25.837336047966474
 10
1895.5900509642984
 20
25.98279021045971
 10
1894.9979045560103
 20
26.0706268327004
 10
1894.4
 20
26.099999999999994
 10
1893.8020954439899
 20
26.0706268327004
 10
1893.2099490357018
 20
25.98279021045971
 10
1892.629263468748
 20
25.837336047966474
 10
1892.065631062573
 20
25.63566514831885
 10
1891.5244799053614
 20
25.37971971252496
 10
1891.0110215785805
 20
25.071964635045532
 10
1890.5302009666018
 20
24.71536376551269
 10
1890.0866486347622
 20
24.313351365237935
 10
1889.6846362344875
 20
23.869799033398237
 10
1889.3280353649545
 20
23.388978421419566
 10
1889.020280287475
 20
22.87552009463859
 10
1888.7643348516813
 20
22.334368937427044
 10
1888.5626639520337
 20
21.770736531252226
 10
1888.4172097895403
 20
21.19005096429838
 10
1888.3293731672998
 20
20.59790455601032
 10
1888.3000000000002
 20
20.0
 10
1888.3000000000002
 20
4.0
 10
1888.3293731672998
 20
3.40209544398968
 10
1888.4172097895403
 20
2.809949035701621
 10
1888.5626639520337
 20
2.2292634687477744
 10
1888.7643348516813
 20
1.665631062572956
 10
1889.020280287475
 20
1.1244799053614116
 10
1889.3280353649545
 20
0.61102157858042
 10
1889.6846362344875
 20
0.1302009666017625
 10
1889.8026435119705
 20
0.0
 10
1682.4
 20
0.0
 10
1682.4
 20
78.0
 10
2024.4
 20
78.0
 10
2024.4
 20
0.0
  0
LWPOLYLINE
  5
A8
330
17
100
AcDbEntity
  8
CORTE
100
AcDbPolyline
 90
65
 70
1
 10
1717.035665148319
 20
54.43436893742705
 10
1716.779719712525
 20
54.97552009463857
 10
1716.4719646350457
 20
55.488978421419574
 10
1716.1153637655127
 20
55.96979903339823
 10
1715.713351365238
 20
56.41335136523793
 10
1715.2697990333984
 20
56.8153637655127
 10
1714.7889784214196
 20
57.171964635045526
 10
1714.2755200946388
 20
57.47971971252497
 10
1713.7343689374272
 20
57.735665148318844
 10
1713.1707365312523
 20
57.93733604796648
 10
1712.5900509642984
 20
58.082790210459706
 10
1711.9979045560103
 20
58.17062683270041
 10
1711.4
 20
58.19999999999999
 10
1710.8020954439899
 20
58.17062683270041
 10
1710.2099490357018
 20
58.082790210459706
 10
1709.629263468748
 20
57.937336047966454
 10
1709.065631062573
 20
57.735665148318844
 10
1708.5244799053614
 20
57.47971971252497
 10
1708.0110215785805
 20
57.171964635045526
 10
1707.5302009666018
 20
56.8153637655127
 10
1707.0866486347622
 20
56.41335136523793
 10
1706.6846362344875
 20
55.96979903339823
 10
1706.3280353649545
 20
55.488978421419574
 10
1706.020280287475
 20
54.97552009463857
 10
1705.7643348516813
 20
54.43436893742705
 10
1705.5626639520335
 20
53.87073653125222
 10
1705.4172097895405
 20
53.29005096429839
 10
1705.3293731672998
 20
52.697904556010315
 10
1705.3000000000002
 20
52.099999999999994
 10
1705.3293731672998
 20
51.502095443989674
 10
1705.4172097895405
 20
50.9099490357016
 10
1705.5626639520335
 20
50.32926346874777
 10
1705.7643348516813
 20
49.765631062572936
 10
1706.020280287475
 20
49.22447990536142
 10
1706.3280353649545
 20
48.711021578580414
 10
1706.6846362344875
 20
48.23020096660176
 10
1707.0866486347622
 20
47.78664863476206
 10
1707.5302009666018
 20
47.3846362344873
 10
1708.0110215785805
 20
47.02803536495446
 10
1708.5244799053614
 20
46.720280287475035
 10
1709.065631062573
 20
46.464334851681144
 10
1709.629263468748
 20
46.26266395203352
 10
1710.2099490357018
 20
46.11720978954028
 10
1710.8020954439899
 20
46.029373167299596
 10
1711.4
 20
46.0
 10
1711.9979045560103
 20
46.029373167299596
 10
1712.5900509642984
 20
46.11720978954028
 10
1713.1707365312523
 20
46.26266395203352
 10
1713.7343689374272
 20
46.464334851681144
 10
1714.2755200946388
 20
46.720280287475035
 10
1714.7889784214196
 20
47.02803536495446
 10
1715.2697990333984
 20
47.3846362344873
 10
1715.713351365238
 20
47.78664863476206
 10
1716.1153637655127
 20
48.23020096660176
 10
1716.4719646350457
 20
48.711021578580414
 10
1716.779719712525
 20
49.22447990536142
 10
1717.035665148319
 20
49.765631062572936
 10
1717.2373360479667
 20
50.32926346874777
 10
1717.3827902104597
 20
50.9099490357016
 10
1717.4706268327004
 20
51.502095443989674
 10
1717.5
 20
52.099999999999994
 10
1717.4706268327004
 20
52.697904556010315
 10
1717.3827902104597
 20
53.29005096429839
 10
1717.2373360479667
 20
53.87073653125222
 10
1717.035665148319
 20
54.43436893742705
  0
LWPOLYLINE
  5
A9
330
17
100
AcDbEntity
  8
CORTE
100
AcDbPolyline
 90
65
 70
1
 10
1996.2373360479664
 20
53.87073653125222
 10
1996.035665148319
 20
54.43436893742705
 10
1995.779719712525
 20
54.97552009463857
 10
1995.4719646350457
 20
55.488978421419574
 10
1995.1153637655127
 20
55.96979903339823
 10
1994.713351365238
 20
56.41335136523793
 10
1994.2697990333984
 20
56.8153637655127
 10
1993.7889784214196
 20
57.171964635045526
 10
1993.2755200946388
 20
57.47971971252497
 10
1992.734368937427
 20
57.735665148318844
 10
1992.1707365312523
 20
57.93733604796648
 10
1991.5900509642984
 20
58.082790210459706
 10
1990.9979045560103
 20
58.17062683270041
 10
1990.4
 20
58.19999999999999
 10
1989.8020954439899
 20
58.17062683270041
 10
1989.2099490357018
 20
58.082790210459706
 10
1988.629263468748
 20
57.937336047966454
 10
1988.0656310625732
 20
57.735665148318844
 10
1987.5244799053614
 20
57.47971971252497
 10
1987.0110215785805
 20
57.171964635045526
 10
1986.5302009666018
 20
56.8153637655127
 10
1986.0866486347622
 20
56.41335136523793
 10
1985.6846362344875
 20
55.96979903339823
 10
1985.3280353649545
 20
55.488978421419574
 10
1985.020280287475
 20
54.97552009463857
 10
1984.7643348516813
 20
54.43436893742705
 10
1984.5626639520337
 20
53.87073653125222
 10
1984.4172097895403
 20
53.29005096429839
 10
1984.3293731672998
 20
52.697904556010315
 10
1984.3000000000002
 20
52.099999999999994
 10
1984.3293731672998
 20
51.502095443989674
 10
1984.4172097895403
 20
50.9099490357016
 10
1984.5626639520337
 20
50.32926346874777
 10
1984.7643348516813
 20
49.765631062572936
 10
1985.020280287475
 20
49.22447990536142
 10
1985.3280353649545
 20
48.711021578580414
 10
1985.6846362344875
 20
48.23020096660176
 10
1986.0866486347622
 20
47.78664863476206
 10
1986.5302009666018
 20
47.3846362344873
 10
1987.0110215785805
 20
47.02803536495446
 10
1987.5244799053614
 20
46.720280287475035
 10
1988.0656310625732
 20
46.464334851681144
 10
1988.629263468748
 20
46.26266395203352
 10
1989.2099490357018
 20
46.11720978954028
 10
1989.8020954439899
 20
46.029373167299596
 10
1990.4
 20
46.0
 10
1990.9979045560103
 20
46.029373167299596
 10
1991.5900509642984
 20
46.11720978954028
 10
1992.1707365312523
 20
46.26266395203352
 10
1992.734368937427
 20
46.464334851681144
 10
1993.2755200946388
 20
46.720280287475035
 10
1993.7889784214196
 20
47.02803536495446
 10
1994.2697990333984
 20
47.3846362344873
 10
1994.713351365238
 20
47.78664863476206
 10
1995.1153637655127
 20
48.23020096660176
 10
1995.4719646350457
 20
48.711021578580414
 10
1995.779719712525
 20
49.22447990536142
 10
1996.035665148319
 20
49.765631062572936
 10
1996.2373360479664
 20
50.32926346874777
 10
1996.38279021046
 20
50.9099490357016
 10
1996.4706268327004
 20
51.502095443989674
 10
1996.5
 20
52.099999999999994
 10
1996.4706268327004
 20
52.697904556010315
 10
1996.38279021046
 20
53.29005096429839
 10
1996.2373360479664
 20
53.87073653125222
  0
TEXT
  5
AA
330
17
100
AcDbEntity
  8
TEXTO
100
AcDbText
 10
1682.4
 20
-22.0
 30
0.0
 40
8.0
  1
placa_casete
 11
1682.4
 21
-22.0
 31
0.0
100
AcDbText
  0
LWPOLYLINE
  5
AB
330
17
100
AcDbEntity
  8
CORTE
100
AcDbPolyline
 90
115
 70
1
 10
2122.3
 20
31.947441116742354
 10
2124.692751438192
 20
33.54622651359283
 10
2126.856349186104
 20
35.44365081389596
 10
2128.753773486407
 20
37.60724856180815
 10
2130.3525588832576
 20
40.0
 10
2131.6253497152484
 20
42.580964487968025
 10
2132.55036817836
 20
45.30598100774454
 10
2133.111786950224
 20
48.128423771158864
 10
2133.3
 20
51.0
 10
2133.111786950224
 20
53.87157622884116
 10
2132.55036817836
 20
56.69401899225547
 10
2131.6253497152484
 20
59.41903551203199
 10
2130.3525588832576
 20
62.000000000000014
 10
2128.753773486407
 20
64.39275143819185
 10
2126.856349186104
 20
66.55634918610404
 10
2124.692751438192
 20
68.45377348640719
 10
2122.3
 20
70.05255888325766
 10
2119.719035512032
 20
71.32534971524831
 10
2116.9940189922554
 20
72.25036817835951
 10
2114.1715762288413
 20
72.81178695022383
 10
2111.4
 20
72.99344565371848
 10
2111.4
 20
73.0
 10
2111.3
 20
73.0
 10
2081.5
 20
73.0
 10
2081.4
 20
73.0
 10
2081.4
 20
72.99344565371848
 10
2078.628423771159
 20
72.81178695022382
 10
2075.805981007745
 20
72.2503681783595
 10
2073.0809644879682
 20
71.32534971524831
 10
2070.5
 20
70.05255888325765
 10
2068.1072485618083
 20
68.45377348640717
 10
2065.943650813896
 20
66.55634918610403
 10
2064.4
 20
64.79615278513324
 10
2064.4
 20
84.5
 10
2408.4
 20
84.5
 10
2408.4
 20
127.5
 10
2064.4
 20
127.5
 10
2064.4
 20
194.5
 10
2408.4
 20
194.5
 10
2408.4
 20
237.5
 10
2064.4
 20
237.5
 10
2064.4
 20
257.20384721486676
 10
2065.943650813896
 20
255.44365081389594
 10
2068.1072485618083
 20
253.54622651359284
 10
2070.5
 20
251.94744111674234
 10
2073.0809644879682
 20
250.6746502847517
 10
2075.805981007745
 20
249.7496318216405
 10
2078.628423771159
 20
249.18821304977618
 10
2081.4
 20
249.00655434628152
 10
2081.4
 20
249.0
 10
2081.5
 20
249.0
 10
2111.3
 20
249.0
 10
2111.4
 20
249.0
 10
2111.4
 20
249.00655434628152
 10
2114.1715762288413
 20
249.18821304977618
 10
2116.9940189922554
 20
249.7496318216405
 10
2119.719035512032
 20
250.6746502847517
 10
2122.3
 20
251.94744111674234
 10
2124.692751438192
 20
253.54622651359284
 10
2126.856349186104
 20
255.44365081389594
 10
2128.753773486407
 20
257.60724856180815
 10
2130.3525588832576
 20
260.0
 10
2131.6253497152484
 20
262.580964487968
 10
2132.55036817836
 20
265.30598100774455
 10
2133.111786950224
 20
268.12842377115885
 10
2133.3
 20
271.0
 10
2133.111786950224
 20
273.87157622884115
 10
2132.55036817836
 20
276.69401899225545
 10
2131.6253497152484
 20
279.419035512032
 10
2130.3525588832576
 20
282.0
 10
2128.753773486407
 20
284.39275143819185
 10
2126.856349186104
 20
286.55634918610406
 10
2124.692751438192
 20
288.45377348640716
 10
2122.3
 20
290.0525588832577
 10
2119.719035512032
 20
291.3253497152483
 10
2116.9940189922554
 20
292.2503681783595
 10
2114.1715762288413
 20
292.81178695022385
 10
2111.4
 20
292.9934456537185
 10
2111.4
 20
293.0
 10
2111.3
 20
293.0
 10
2081.5
 20
293.0
 10
2081.4
 20
293.0
 10
2081.4
 20
292.9934456537185
 10
2078.628423771159
 20
292.81178695022385
 10
2075.805981007745
 20
292.2503681783595
 10
2073.0809644879682
 20
291.3253497152483
 10
2070.5
 20
290.05255888325763
 10
2068.1072485618083
 20
288.45377348640716
 10
2065.943650813896
 20
286.55634918610406
 10
2064.4
 20
284.79615278513324
 10
2064.4
 20
304.5
 10
2408.4
 20
304.5
 10
2408.4
 20
347.5
 10
2064.4
 20
347.5
 10
2064.4
 20
578.0
 10
2501.6
 20
578.0
 10
2501.6
 20
0.0
 10
2064.4
 20
0.0
 10
2064.4
 20
37.203847214866755
 10
2065.943650813896
 20
35.44365081389596
 10
2068.1072485618083
 20
33.54622651359282
 10
2070.5
 20
31.947441116742347
 10
2073.0809644879682
 20
30.674650284751692
 10
2075.805981007745
 20
29.7496318216405
 10
2078.628423771159
 20
29.188213049776166
 10
2081.4
 20
29.006554346281526
 10
2081.4
 20
29.0
 10
2081.5
 20
29.0
 10
2111.3
 20
29.0
 10
2111.4
 20
29.0
 10
2111.4
 20
29.006554346281526
 10
2114.1715762288413
 20
29.188213049776166
 10
2116.9940189922554
 20
29.7496318216405
 10
2119.719035512032
 20
30.674650284751692
 10
2122.3
 20
31.947441116742354
  0
LWPOLYLINE
  5
AC
330
17
100
AcDbEntity
  8
CORTE
100
AcDbPolyline
 90
59
 70
1
 10
2135.174650284752
 20
42.580964487968025
 10
2136.4474411167425
 20
39.99999999999999
 10
2138.046226513593
 20
37.60724856180814
 10
2139.943650813896
 20
35.44365081389596
 10
2142.1072485618083
 20
33.54622651359282
 10
2144.5
 20
31.947441116742347
 10
2147.0809644879682
 20
30.674650284751692
 10
2149.805981007745
 20
29.7496318216405
 10
2152.628423771159
 20
29.188213049776166
 10
2155.4
 20
29.006554346281526
 10
2155.4
 20
29.0
 10
2155.5
 20
29.0
 10
2185.3
 20
29.0
 10
2185.4
 20
29.0
 10
2185.4
 20
29.006554346281526
 10
2188.1715762288413
 20
29.188213049776166
 10
2190.9940189922554
 20
29.7496318216405
 10
2193.719035512032
 20
30.674650284751692
 10
2196.3
 20
31.947441116742354
 10
2198.692751438192
 20
33.54622651359283
 10
2200.856349186104
 20
35.44365081389596
 10
2202.753773486407
 20
37.60724856180815
 10
2204.3525588832576
 20
40.0
 10
2205.6253497152484
 20
42.580964487968025
 10
2206.55036817836
 20
45.30598100774454
 10
2207.111786950224
 20
48.128423771158864
 10
2207.3
 20
51.0
 10
2207.111786950224
 20
53.87157622884116
 10
2206.55036817836
 20
56.69401899225547
 10
2205.6253497152484
 20
59.41903551203199
 10
2204.3525588832576
 20
62.000000000000014
 10
2202.753773486407
 20
64.39275143819185
 10
2200.856349186104
 20
66.55634918610404
 10
2198.692751438192
 20
68.45377348640719
 10
2196.3
 20
70.05255888325766
 10
2193.719035512032
 20
71.32534971524831
 10
2190.9940189922554
 20
72.25036817835951
 10
2188.1715762288413
 20
72.81178695022383
 10
2185.4
 20
72.99344565371848
 10
2185.4
 20
73.0
 10
2185.3
 20
73.0
 10
2155.5
 20
73.0
 10
2155.4
 20
73.0
 10
2155.4
 20
72.99344565371848
 10
2152.628423771159
 20
72.81178695022382
 10
2149.805981007745
 20
72.2503681783595
 10
2147.0809644879682
 20
71.32534971524831
 10
2144.5
 20
70.05255888325765
 10
2142.1072485618083
 20
68.45377348640717
 10
2139.943650813896
 20
66.55634918610403
 10
2138.046226513593
 20
64.39275143819185
 10
2136.4474411167425
 20
62.0
 10
2135.174650284752
 20
59.41903551203196
 10
2134.2496318216404
 20
56.69401899225545
 10
2133.688213049776
 20
53.87157622884113
 10
2133.5
 20
51.0
 10
2133.688213049776
 20
48.12842377115886
 10
2134.2496318216404
 20
45.305981007744535
 10
2135.174650284752
 20
42.580964487968025
  0
LWPOLYLINE
  5
AD
330
17
100
AcDbEntity
  8
CORTE
100
AcDbPolyline
 90
59
 70
1
 10
2208.2496318216404
 20
45.305981007744535
 10
2209.174650284752
 20
42.580964487968025
 10
2210.4474411167425
 20
39.99999999999999
 10
2212.046226513593
 20
37.60724856180814
 10
2213.943650813896
 20
35.44365081389596
 10
2216.1072485618083
 20
33.54622651359282
 10
2218.5
 20
31.947441116742347
 10
2221.0809644879682
 20
30.674650284751692
 10
2223.805981007745
 20
29.7496318216405
 10
2226.628423771159
 20
29.188213049776166
 10
2229.4
 20
29.006554346281526
 10
2229.4
 20
29.0
 10
2229.5
 20
29.0
 10
2259.3
 20
29.0
 10
2259.4
 20
29.0
 10
2259.4
 20
29.006554346281526
 10
2262.1715762288413
 20
29.188213049776166
 10
2264.9940189922554
 20
29.7496318216405
 10
2267.719035512032
 20
30.674650284751692
 10
2270.3
 20
31.947441116742354
 10
2272.692751438192
 20
33.54622651359283
 10
2274.856349186104
 20
35.44365081389596
 10
2276.753773486407
 20
37.60724856180815
 10
2278.3525588832576
 20
40.0
 10
2279.6253497152484
 20
42.580964487968025
 10
2280.55036817836
 20
45.30598100774454
 10
2281.111786950224
 20
48.128423771158864
 10
2281.3
 20
51.0
 10
2281.111786950224
 20
53.87157622884116
 10
2280.55036817836
 20
56.69401899225547
 10
2279.6253497152484
 20
59.41903551203199
 10
2278.3525588832576
 20
62.000000000000014
 10
2276.753773486407
 20
64.39275143819185
 10
2274.856349186104
 20
66.55634918610404
 10
2272.692751438192
 20
68.45377348640719
 10
2270.3
 20
70.05255888325766
 10
2267.719035512032
 20
71.32534971524831
 10
2264.9940189922554
 20
72.25036817835951
 10
2262.1715762288413
 20
72.81178695022383
 10
2259.4
 20
72.99344565371848
 10
2259.4
 20
73.0
 10
2259.3
 20
73.0
 10
2229.5
 20
73.0
 10
2229.4
 20
73.0
 10
2229.4
 20
72.99344565371848
 10
2226.628423771159
 20
72.81178695022382
 10
2223.805981007745
 20
72.2503681783595
 10
2221.0809644879682
 20
71.32534971524831
 10
2218.5
 20
70.05255888325765
 10
2216.1072485618083
 20
68.45377348640717
 10
2213.943650813896
 20
66.55634918610403
 10
2212.046226513593
 20
64.39275143819185
 10
2210.4474411167425
 20
62.0
 10
2209.174650284752
 20
59.41903551203196
 10
2208.2496318216404
 20
56.69401899225545
 10
2207.688213049776
 20
53.87157622884113
 10
2207.5
 20
51.0
 10
2207.688213049776
 20
48.12842377115886
 10
2208.2496318216404
 20
45.305981007744535
  0
LWPOLYLINE
  5
AE
330
17
100
AcDbEntity
  8
CORTE
100
AcDbPolyline
 90
59
 70
1
 10
2281.688213049776
 20
48.12842377115886
 10
2282.2496318216404
 20
45.305981007744535
 10
2283.174650284752
 20
42.580964487968025
 10
2284.4474411167425
 20
39.99999999999999
 10
2286.046226513593
 20
37.60724856180814
 10
2287.943650813896
 20
35.44365081389596
 10
2290.1072485618083
 20
33.54622651359282
 10
2292.5
 20
31.947441116742347
 10
2295.0809644879682
 20
30.674650284751692
 10
2297.805981007745
 20
29.7496318216405
 10
2300.628423771159
 20
29.188213049776166
 10
2303.4
 20
29.006554346281526
 10
2303.4
 20
29.0
 10
2303.5
 20
29.0
 10
2333.3
 20
29.0
 10
2333.4
 20
29.0
 10
2333.4
 20
29.006554346281526
 10
2336.1715762288413
 20
29.188213049776166
 10
2338.9940189922554
 20
29.7496318216405
 10
2341.719035512032
 20
30.674650284751692
 10
2344.3
 20
31.947441116742354
 10
2346.692751438192
 20
33.54622651359283
 10
2348.856349186104
 20
35.44365081389596
 10
2350.753773486407
 20
37.60724856180815
 10
2352.3525588832576
 20
40.0
 10
2353.6253497152484
 20
42.580964487968025
 10
2354.5503681783593
 20
45.30598100774454
 10
2355.111786950224
 20
48.128423771158864
 10
2355.3
 20
51.0
 10
2355.111786950224
 20
53.87157622884116
 10
2354.5503681783593
 20
56.69401899225547
 10
2353.6253497152484
 20
59.41903551203199
 10
2352.3525588832576
 20
62.000000000000014
 10
2350.753773486407
 20
64.39275143819185
 10
2348.856349186104
 20
66.55634918610404
 10
2346.692751438192
 20
68.45377348640719
 10
2344.3
 20
70.05255888325766
 10
2341.719035512032
 20
71.32534971524831
 10
2338.9940189922554
 20
72.25036817835951
 10
2336.1715762288413
 20
72.81178695022383
 10
2333.4
 20
72.99344565371848
 10
2333.4
 20
73.0
 10
2333.3
 20
73.0
 10
2303.5
 20
73.0
 10
2303.4
 20
73.0
 10
2303.4
 20
72.99344565371848
 10
2300.628423771159
 20
72.81178695022382
 10
2297.805981007745
 20
72.2503681783595
 10
2295.0809644879682
 20
71.32534971524831
 10
2292.5
 20
70.05255888325765
 10
2290.1072485618083
 20
68.45377348640717
 10
2287.943650813896
 20
66.55634918610403
 10
2286.046226513593
 20
64.39275143819185
 10
2284.4474411167425
 20
62.0
 10
2283.174650284752
 20
59.41903551203196
 10
2282.2496318216404
 20
56.69401899225545
 10
2281.688213049776
 20
53.87157622884113
 10
2281.5
 20
51.0
 10
2281.688213049776
 20
48.12842377115886
  0
LWPOLYLINE
  5
AF
330
17
100
AcDbEntity
  8
CORTE
100
AcDbPolyline
 90
59
 70
1
 10
2355.5
 20
51.0
 10
2355.688213049776
 20
48.12842377115886
 10
2356.249631821641
 20
45.305981007744535
 10
2357.174650284752
 20
42.580964487968025
 10
2358.4474411167425
 20
39.99999999999999
 10
2360.046226513593
 20
37.60724856180814
 10
2361.943650813896
 20
35.44365081389596
 10
2364.1072485618083
 20
33.54622651359282
 10
2366.5
 20
31.947441116742347
 10
2369.0809644879682
 20
30.674650284751692
 10
2371.805981007745
 20
29.7496318216405
 10
2374.628423771159
 20
29.188213049776166
 10
2377.4
 20
29.006554346281526
 10
2377.4
 20
29.0
 10
2377.5
 20
29.0
 10
2407.3
 20
29.0
 10
2407.4
 20
29.0
 10
2407.4
 20
29.006554346281526
 10
2410.1715762288413
 20
29.188213049776166
 10
2412.9940189922554
 20
29.7496318216405
 10
2415.719035512032
 20
30.674650284751692
 10
2418.3
 20
31.947441116742354
 10
2420.692751438192
 20
33.54622651359283
 10
2422.856349186104
 20
35.44365081389596
 10
2424.753773486407
 20
37.60724856180815
 10
2426.3525588832576
 20
40.0
 10
2427.6253497152484
 20
42.580964487968025
 10
2428.5503681783593
 20
45.30598100774454
 10
2429.111786950224
 20
48.128423771158864
 10
2429.3
 20
51.0
 10
2429.111786950224
 20
53.87157622884116
 10
2428.5503681783593
 20
56.69401899225547
 10
2427.6253497152484
 20
59.41903551203199
 10
2426.3525588832576
 20
62.000000000000014
 10
2424.753773486407
 20
64.39275143819185
 10
2422.856349186104
 20
66.55634918610404
 10
2420.692751438192
 20
68.45377348640719
 10
2418.3
 20
70.05255888325766
 10
2415.719035512032
 20
71.32534971524831
 10
2412.9940189922554
 20
72.25036817835951
 10
2410.1715762288413
 20
72.81178695022383
 10
2407.4
 20
72.99344565371848
 10
2407.4
 20
73.0
 10
2407.3
 20
73.0
 10
2377.5
 20
73.0
 10
2377.4
 20
73.0
 10
2377.4
 20
72.99344565371848
 10
2374.628423771159
 20
72.81178695022382
 10
2371.805981007745
 20
72.2503681783595
 10
2369.0809644879682
 20
71.32534971524831
 10
2366.5
 20
70.05255888325765
 10
2364.1072485618083
 20
68.45377348640717
 10
2361.943650813896
 20
66.55634918610403
 10
2360.046226513593
 20
64.39275143819185
 10
2358.4474411167425
 20
62.0
 10
2357.174650284752
 20
59.41903551203196
 10
2356.249631821641
 20
56.69401899225545
 10
2355.688213049776
 20
53.87157622884113
 10
2355.5
 20
51.0
  0
LWPOLYLINE
  5
B0
330
17
100
AcDbEntity
  8
CORTE
100
AcDbPolyline
 90
59
 70
1
 10
2096.688213049776
 20
163.87157622884112
 10
2096.5
 20
161.0
 10
2096.688213049776
 20
158.12842377115885
 10
2097.2496318216404
 20
155.30598100774455
 10
2098.174650284752
 20
152.58096448796803
 10
2099.4474411167425
 20
150.0
 10
2101.046226513593
 20
147.60724856180815
 10
2102.943650813896
 20
145.44365081389594
 10
2105.1072485618083
 20
143.5462265135928
 10
2107.5
 20
141.94744111674234
 10
2110.0809644879682
 20
140.6746502847517
 10
2112.805981007745
 20
139.7496318216405
 10
2115.628423771159
 20
139.18821304977618
 10
2118.4
 20
139.00655434628152
 10
2118.4
 20
139.0
 10
2118.5
 20
139.0
 10
2148.3
 20
139.0
 10
2148.4
 20
139.0
 10
2148.4
 20
139.00655434628152
 10
2151.1715762288413
 20
139.18821304977618
 10
2153.9940189922554
 20
139.7496318216405
 10
2156.719035512032
 20
140.6746502847517
 10
2159.3
 20
141.94744111674234
 10
2161.692751438192
 20
143.54622651359284
 10
2163.856349186104
 20
145.44365081389594
 10
2165.753773486407
 20
147.60724856180815
 10
2167.3525588832576
 20
150.0
 10
2168.6253497152484
 20
152.58096448796803
 10
2169.55036817836
 20
155.30598100774455
 10
2170.111786950224
 20
158.12842377115888
 10
2170.3
 20
161.0
 10
2170.111786950224
 20
163.87157622884115
 10
2169.55036817836
 20
166.69401899225548
 10
2168.6253497152484
 20
169.419035512032
 10
2167.3525588832576
 20
172.0
 10
2165.753773486407
 20
174.39275143819185
 10
2163.856349186104
 20
176.55634918610406
 10
2161.692751438192
 20
178.4537734864072
 10
2159.3
 20
180.05255888325766
 10
2156.719035512032
 20
181.3253497152483
 10
2153.9940189922554
 20
182.2503681783595
 10
2151.1715762288413
 20
182.81178695022382
 10
2148.4
 20
182.99344565371848
 10
2148.4
 20
183.0
 10
2148.3
 20
183.0
 10
2118.5
 20
183.0
 10
2118.4
 20
183.0
 10
2118.4
 20
182.99344565371848
 10
2115.628423771159
 20
182.81178695022382
 10
2112.805981007745
 20
182.2503681783595
 10
2110.0809644879682
 20
181.3253497152483
 10
2107.5
 20
180.05255888325763
 10
2105.1072485618083
 20
178.45377348640716
 10
2102.943650813896
 20
176.55634918610403
 10
2101.046226513593
 20
174.39275143819185
 10
2099.4474411167425
 20
172.0
 10
2098.174650284752
 20
169.41903551203197
 10
2097.2496318216404
 20
166.69401899225545
 10
2096.688213049776
 20
163.87157622884112
  0
LWPOLYLINE
  5
B1
330
17
100
AcDbEntity
  8
CORTE
100
AcDbPolyline
 90
59
 70
1
 10
2171.2496318216404
 20
166.69401899225545
 10
2170.688213049776
 20
163.87157622884112
 10
2170.5
 20
161.0
 10
2170.688213049776
 20
158.12842377115885
 10
2171.2496318216404
 20
155.30598100774455
 10
2172.174650284752
 20
152.58096448796803
 10
2173.4474411167425
 20
150.0
 10
2175.046226513593
 20
147.60724856180815
 10
2176.943650813896
 20
145.44365081389594
 10
2179.1072485618083
 20
143.5462265135928
 10
2181.5
 20
141.94744111674234
 10
2184.0809644879682
 20
140.6746502847517
 10
2186.805981007745
 20
139.7496318216405
 10
2189.628423771159
 20
139.18821304977618
 10
2192.4
 20
139.00655434628152
 10
2192.4
 20
139.0
 10
2192.5
 20
139.0
 10
2222.3
 20
139.0
 10
2222.4
 20
139.0
 10
2222.4
 20
139.00655434628152
 10
2225.1715762288413
 20
139.18821304977618
 10
2227.9940189922554
 20
139.7496318216405
 10
2230.719035512032
 20
140.6746502847517
 10
2233.3
 20
141.94744111674234
 10
2235.692751438192
 20
143.54622651359284
 10
2237.856349186104
 20
145.44365081389594
 10
2239.753773486407
 20
147.60724856180815
 10
2241.3525588832576
 20
150.0
 10
2242.6253497152484
 20
152.58096448796803
 10
2243.55036817836
 20
155.30598100774455
 10
2244.111786950224
 20
158.12842377115888
 10
2244.3
 20
161.0
 10
2244.111786950224
 20
163.87157622884115
 10
2243.55036817836
 20
166.69401899225548
 10
2242.6253497152484
 20
169.419035512032
 10
2241.3525588832576
 20
172.0
 10
2239.753773486407
 20
174.39275143819185
 10
2237.856349186104
 20
176.55634918610406
 10
2235.692751438192
 20
178.4537734864072
 10
2233.3
 20
180.05255888325766
 10
2230.719035512032
 20
181.3253497152483
 10
2227.9940189922554
 20
182.2503681783595
 10
2225.1715762288413
 20
182.81178695022382
 10
2222.4
 20
182.99344565371848
 10
2222.4
 20
183.0
 10
2222.3
 20
183.0
 10
2192.5
 20
183.0
 10
2192.4
 20
183.0
 10
2192.4
 20
182.99344565371848
 10
2189.628423771159
 20
182.81178695022382
 10
2186.805981007745
 20
182.2503681783595
 10
2184.0809644879682
 20
181.3253497152483
 10
2181.5
 20
180.05255888325763
 10
2179.1072485618083
 20
178.45377348640716
 10
2176.943650813896
 20
176.55634918610403
 10
2175.046226513593
 20
174.39275143819185
 10
2173.4474411167425
 20
172.0
 10
2172.174650284752
 20
169.41903551203197
 10
2171.2496318216404
 20
166.69401899225545
  0
LWPOLYLINE
  5
B2
330
17
100
AcDbEntity
  8
CORTE
100
AcDbPolyline
 90
59
 70
1
 10
2246.174650284752
 20
169.41903551203197
 10
2245.2496318216404
 20
166.69401899225545
 10
2244.688213049776
 20
163.87157622884112
 10
2244.5
 20
161.0
 10
2244.688213049776
 20
158.12842377115885
 10
2245.2496318216404
 20
155.30598100774455
 10
2246.174650284752
 20
152.58096448796803
 10
2247.4474411167425
 20
150.0
 10
2249.046226513593
 20
147.60724856180815
 10
2250.943650813896
 20
145.44365081389594
 10
2253.1072485618083
 20
143.5462265135928
 10
2255.5
 20
141.94744111674234
 10
2258.0809644879682
 20
140.6746502847517
 10
2260.805981007745
 20
139.7496318216405
 10
2263.628423771159
 20
139.18821304977618
 10
2266.4
 20
139.00655434628152
 10
2266.4
 20
139.0
 10
2266.5
 20
139.0
 10
2296.3
 20
139.0
 10
2296.4
 20
139.0
 10
2296.4
 20
139.00655434628152
 10
2299.1715762288413
 20
139.18821304977618
 10
2301.9940189922554
 20
139.7496318216405
 10
2304.719035512032
 20
140.6746502847517
 10
2307.3
 20
141.94744111674234
 10
2309.692751438192
 20
143.54622651359284
 10
2311.856349186104
 20
145.44365081389594
 10
2313.753773486407
 20
147.60724856180815
 10
2315.3525588832576
 20
150.0
 10
2316.6253497152484
 20
152.58096448796803
 10
2317.5503681783593
 20
155.30598100774455
 10
2318.111786950224
 20
158.12842377115888
 10
2318.3
 20
161.0
 10
2318.111786950224
 20
163.87157622884115
 10
2317.5503681783593
 20
166.69401899225548
 10
2316.6253497152484
 20
169.419035512032
 10
2315.3525588832576
 20
172.0
 10
2313.753773486407
 20
174.39275143819185
 10
2311.856349186104
 20
176.55634918610406
 10
2309.692751438192
 20
178.4537734864072
 10
2307.3
 20
180.05255888325766
 10
2304.719035512032
 20
181.3253497152483
 10
2301.9940189922554
 20
182.2503681783595
 10
2299.1715762288413
 20
182.81178695022382
 10
2296.4
 20
182.99344565371848
 10
2296.4
 20
183.0
 10
2296.3
 20
183.0
 10
2266.5
 20
183.0
 10
2266.4
 20
183.0
 10
2266.4
 20
182.99344565371848
 10
2263.628423771159
 20
182.81178695022382
 10
2260.805981007745
 20
182.2503681783595
 10
2258.0809644879682
 20
181.3253497152483
 10
2255.5
 20
180.05255888325763
 10
2253.1072485618083
 20
178.45377348640716
 10
2250.943650813896
 20
176.55634918610403
 10
2249.046226513593
 20
174.39275143819185
 10
2247.4474411167425
 20
172.0
 10
2246.174650284752
 20
169.41903551203197
  0
LWPOLYLINE
  5
B3
330
17
100
AcDbEntity
  8
CORTE
100
AcDbPolyline
 90
59
 70
1
 10
2321.4474411167425
 20
172.0
 10
2320.174650284752
 20
169.41903551203197
 10
2319.249631821641
 20
166.69401899225545
 10
2318.688213049776
 20
163.87157622884112
 10
2318.5
 20
161.0
 10
2318.688213049776
 20
158.12842377115885
 10
2319.249631821641
 20
155.30598100774455
 10
2320.174650284752
 20
152.58096448796803
 10
2321.4474411167425
 20
150.0
 10
2323.046226513593
 20
147.60724856180815
 10
2324.943650813896
 20
145.44365081389594
 10
2327.1072485618083
 20
143.5462265135928
 10
2329.5
 20
141.94744111674234
 10
2332.0809644879682
 20
140.6746502847517
 10
2334.805981007745
 20
139.7496318216405
 10
2337.628423771159
 20
139.18821304977618
 10
2340.4
 20
139.00655434628152
 10
2340.4
 20
139.0
 10
2340.5
 20
139.0
 10
2370.3
 20
139.0
 10
2370.4
 20
139.0
 10
2370.4
 20
139.00655434628152
 10
2373.1715762288413
 20
139.18821304977618
 10
2375.9940189922554
 20
139.7496318216405
 10
2378.719035512032
 20
140.6746502847517
 10
2381.3
 20
141.94744111674234
 10
2383.692751438192
 20
143.54622651359284
 10
2385.856349186104
 20
145.44365081389594
 10
2387.753773486407
 20
147.60724856180815
 10
2389.3525588832576
 20
150.0
 10
2390.6253497152484
 20
152.58096448796803
 10
2391.5503681783593
 20
155.30598100774455
 10
2392.111786950224
 20
158.12842377115888
 10
2392.3
 20
161.0
 10
2392.111786950224
 20
163.87157622884115
 10
2391.5503681783593
 20
166.69401899225548
 10
2390.6253497152484
 20
169.419035512032
 10
2389.3525588832576
 20
172.0
 10
2387.753773486407
 20
174.39275143819185
 10
2385.856349186104
 20
176.55634918610406
 10
2383.692751438192
 20
178.4537734864072
 10
2381.3
 20
180.05255888325766
 10
2378.719035512032
 20
181.3253497152483
 10
2375.9940189922554
 20
182.2503681783595
 10
2373.1715762288413
 20
182.81178695022382
 10
2370.4
 20
182.99344565371848
 10
2370.4
 20
183.0
 10
2370.3
 20
183.0
 10
2340.5
 20
183.0
 10
2340.4
 20
183.0
 10
2340.4
 20
182.99344565371848
 10
2337.628423771159
 20
182.81178695022382
 10
2334.805981007745
 20
182.2503681783595
 10
2332.0809644879682
 20
181.3253497152483
 10
2329.5
 20
180.05255888325763
 10
2327.1072485618083
 20
178.45377348640716
 10
2324.943650813896
 20
176.55634918610403
 10
2323.046226513593
 20
174.39275143819185
 10
2321.4474411167425
 20
172.0
  0
LWPOLYLINE
  5
B4
330
17
100
AcDbEntity
  8
CORTE
100
AcDbPolyline
 90
59
 70
1
 10
2139.943650813896
 20
286.55634918610406
 10
2138.046226513593
 20
284.39275143819185
 10
2136.4474411167425
 20
282.0
 10
2135.174650284752
 20
279.41903551203194
 10
2134.2496318216404
 20
276.69401899225545
 10
2133.688213049776
 20
273.87157622884115
 10
2133.5
 20
271.0
 10
2133.688213049776
 20
268.12842377115885
 10
2134.2496318216404
 20
265.30598100774455
 10
2135.174650284752
 20
262.580964487968
 10
2136.4474411167425
 20
260.0
 10
2138.046226513593
 20
257.60724856180815
 10
2139.943650813896
 20
255.44365081389594
 10
2142.1072485618083
 20
253.54622651359284
 10
2144.5
 20
251.94744111674234
 10
2147.0809644879682
 20
250.6746502847517
 10
2149.805981007745
 20
249.7496318216405
 10
2152.628423771159
 20
249.18821304977618
 10
2155.4
 20
249.00655434628152
 10
2155.4
 20
249.0
 10
2155.5
 20
249.0
 10
2185.3
 20
249.0
 10
2185.4
 20
249.0
 10
2185.4
 20
249.00655434628152
 10
2188.1715762288413
 20
249.18821304977618
 10
2190.9940189922554
 20
249.7496318216405
 10
2193.719035512032
 20
250.6746502847517
 10
2196.3
 20
251.94744111674234
 10
2198.692751438192
 20
253.54622651359284
 10
2200.856349186104
 20
255.44365081389594
 10
2202.753773486407
 20
257.60724856180815
 10
2204.3525588832576
 20
260.0
 10
2205.6253497152484
 20
262.580964487968
 10
2206.55036817836
 20
265.30598100774455
 10
2207.111786950224
 20
268.12842377115885
 10
2207.3
 20
271.0
 10
2207.111786950224
 20
273.87157622884115
 10
2206.55036817836
 20
276.69401899225545
 10
2205.6253497152484
 20
279.419035512032
 10
2204.3525588832576
 20
282.0
 10
2202.753773486407
 20
284.39275143819185
 10
2200.856349186104
 20
286.55634918610406
 10
2198.692751438192
 20
288.45377348640716
 10
2196.3
 20
290.0525588832577
 10
2193.719035512032
 20
291.3253497152483
 10
2190.9940189922554
 20
292.2503681783595
 10
2188.1715762288413
 20
292.81178695022385
 10
2185.4
 20
292.9934456537185
 10
2185.4
 20
293.0
 10
2185.3
 20
293.0
 10
2155.5
 20
293.0
 10
2155.4
 20
293.0
 10
2155.4
 20
292.9934456537185
 10
2152.628423771159
 20
292.81178695022385
 10
2149.805981007745
 20
292.2503681783595
 10
2147.0809644879682
 20
291.3253497152483
 10
2144.5
 20
290.05255888325763
 10
2142.1072485618083
 20
288.45377348640716
 10
2139.943650813896
 20
286.55634918610406
  0
LWPOLYLINE
  5
B5
330
17
100
AcDbEntity
  8
CORTE
100
AcDbPolyline
 90
59
 70
1
 10
2216.1072485618083
 20
288.45377348640716
 10
2213.943650813896
 20
286.55634918610406
 10
2212.046226513593
 20
284.39275143819185
 10
2210.4474411167425
 20
282.0
 10
2209.174650284752
 20
279.41903551203194
 10
2208.2496318216404
 20
276.69401899225545
 10
2207.688213049776
 20
273.87157622884115
 10
2207.5
 20
271.0
 10
2207.688213049776
 20
268.12842377115885
 10
2208.2496318216404
 20
265.30598100774455
 10
2209.174650284752
 20
262.580964487968
 10
2210.4474411167425
 20
260.0
 10
2212.046226513593
 20
257.60724856180815
 10
2213.943650813896
 20
255.44365081389594
 10
2216.1072485618083
 20
253.54622651359284
 10
2218.5
 20
251.94744111674234
 10
2221.0809644879682
 20
250.6746502847517
 10
2223.805981007745
 20
249.7496318216405
 10
2226.628423771159
 20
249.18821304977618
 10
2229.4
 20
249.00655434628152
 10
2229.4
 20
249.0
 10
2229.5
 20
249.0
 10
2259.3
 20
249.0
 10
2259.4
 20
249.0
 10
2259.4
 20
249.00655434628152
 10
2262.1715762288413
 20
249.18821304977618
 10
2264.9940189922554
 20
249.7496318216405
 10
2267.719035512032
 20
250.6746502847517
 10
2270.3
 20
251.94744111674234
 10
2272.692751438192
 20
253.54622651359284
 10
2274.856349186104
 20
255.44365081389594
 10
2276.753773486407
 20
257.60724856180815
 10
2278.3525588832576
 20
260.0
 10
2279.6253497152484
 20
262.580964487968
 10
2280.55036817836
 20
265.30598100774455
 10
2281.111786950224
 20
268.12842377115885
 10
2281.3
 20
271.0
 10
2281.111786950224
 20
273.87157622884115
 10
2280.55036817836
 20
276.69401899225545
 10
2279.6253497152484
 20
279.419035512032
 10
2278.3525588832576
 20
282.0
 10
2276.753773486407
 20
284.39275143819185
 10
2274.856349186104
 20
286.55634918610406
 10
2272.692751438192
 20
288.45377348640716
 10
2270.3
 20
290.0525588832577
 10
2267.719035512032
 20
291.3253497152483
 10
2264.9940189922554
 20
292.2503681783595
 10
2262.1715762288413
 20
292.81178695022385
 10
2259.4
 20
292.9934456537185
 10
2259.4
 20
293.0
 10
2259.3
 20
293.0
 10
2229.5
 20
293.0
 10
2229.4
 20
293.0
 10
2229.4
 20
292.9934456537185
 10
2226.628423771159
 20
292.81178695022385
 10
2223.805981007745
 20
292.2503681783595
 10
2221.0809644879682
 20
291.3253497152483
 10
2218.5
 20
290.05255888325763
 10
2216.1072485618083
 20
288.45377348640716
  0
LWPOLYLINE
  5
B6
330
17
100
AcDbEntity
  8
CORTE
100
AcDbPolyline
 90
59
 70
1
 10
2292.5
 20
290.05255888325763
 10
2290.1072485618083
 20
288.45377348640716
 10
2287.943650813896
 20
286.55634918610406
 10
2286.046226513593
 20
284.39275143819185
 10
2284.4474411167425
 20
282.0
 10
2283.174650284752
 20
279.41903551203194
 10
2282.2496318216404
 20
276.69401899225545
 10
2281.688213049776
 20
273.87157622884115
 10
2281.5
 20
271.0
 10
2281.688213049776
 20
268.12842377115885
 10
2282.2496318216404
 20
265.30598100774455
 10
2283.174650284752
 20
262.580964487968
 10
2284.4474411167425
 20
260.0
 10
2286.046226513593
 20
257.60724856180815
 10
2287.943650813896
 20
255.44365081389594
 10
2290.1072485618083
 20
253.54622651359284
 10
2292.5
 20
251.94744111674234
 10
2295.0809644879682
 20
250.6746502847517
 10
2297.805981007745
 20
249.7496318216405
 10
2300.628423771159
 20
249.18821304977618
 10
2303.4
 20
249.00655434628152
 10
2303.4
 20
249.0
 10
2303.5
 20
249.0
 10
2333.3
 20
249.0
 10
2333.4
 20
249.0
 10
2333.4
 20
249.00655434628152
 10
2336.1715762288413
 20
249.18821304977618
 10
2338.9940189922554
 20
249.7496318216405
 10
2341.719035512032
 20
250.6746502847517
 10
2344.3
 20
251.94744111674234
 10
2346.692751438192
 20
253.54622651359284
 10
2348.856349186104
 20
255.44365081389594
 10
2350.753773486407
 20
257.60724856180815
 10
2352.3525588832576
 20
260.0
 10
2353.6253497152484
 20
262.580964487968
 10
2354.5503681783593
 20
265.30598100774455
 10
2355.111786950224
 20
268.12842377115885
 10
2355.3
 20
271.0
 10
2355.111786950224
 20
273.87157622884115
 10
2354.5503681783593
 20
276.69401899225545
 10
2353.6253497152484
 20
279.419035512032
 10
2352.3525588832576
 20
282.0
 10
2350.753773486407
 20
284.39275143819185
 10
2348.856349186104
 20
286.55634918610406
 10
2346.692751438192
 20
288.45377348640716
 10
2344.3
 20
290.0525588832577
 10
2341.719035512032
 20
291.3253497152483
 10
2338.9940189922554
 20
292.2503681783595
 10
2336.1715762288413
 20
292.81178695022385
 10
2333.4
 20
292.9934456537185
 10
2333.4
 20
293.0
 10
2333.3
 20
293.0
 10
2303.5
 20
293.0
 10
2303.4
 20
293.0
 10
2303.4
 20
292.9934456537185
 10
2300.628423771159
 20
292.81178695022385
 10
2297.805981007745
 20
292.2503681783595
 10
2295.0809644879682
 20
291.3253497152483
 10
2292.5
 20
290.05255888325763
  0
LWPOLYLINE
  5
B7
330
17
100
AcDbEntity
  8
CORTE
100
AcDbPolyline
 90
59
 70
1
 10
2369.0809644879682
 20
291.3253497152483
 10
2366.5
 20
290.05255888325763
 10
2364.1072485618083
 20
288.45377348640716
 10
2361.943650813896
 20
286.55634918610406
 10
2360.046226513593
 20
284.39275143819185
 10
2358.4474411167425
 20
282.0
 10
2357.174650284752
 20
279.41903551203194
 10
2356.249631821641
 20
276.69401899225545
 10
2355.688213049776
 20
273.87157622884115
 10
2355.5
 20
271.0
 10
2355.688213049776
 20
268.12842377115885
 10
2356.249631821641
 20
265.30598100774455
 10
2357.174650284752
 20
262.580964487968
 10
2358.4474411167425
 20
260.0
 10
2360.046226513593
 20
257.60724856180815
 10
2361.943650813896
 20
255.44365081389594
 10
2364.1072485618083
 20
253.54622651359284
 10
2366.5
 20
251.94744111674234
 10
2369.0809644879682
 20
250.6746502847517
 10
2371.805981007745
 20
249.7496318216405
 10
2374.628423771159
 20
249.18821304977618
 10
2377.4
 20
249.00655434628152
 10
2377.4
 20
249.0
 10
2377.5
 20
249.0
 10
2407.3
 20
249.0
 10
2407.4
 20
249.0
 10
2407.4
 20
249.00655434628152
 10
2410.1715762288413
 20
249.18821304977618
 10
2412.9940189922554
 20
249.7496318216405
 10
2415.719035512032
 20
250.6746502847517
 10
2418.3
 20
251.94744111674234
 10
2420.692751438192
 20
253.54622651359284
 10
2422.856349186104
 20
255.44365081389594
 10
2424.753773486407
 20
257.60724856180815
 10
2426.3525588832576
 20
260.0
 10
2427.6253497152484
 20
262.580964487968
 10
2428.5503681783593
 20
265.30598100774455
 10
2429.111786950224
 20
268.12842377115885
 10
2429.3
 20
271.0
 10
2429.111786950224
 20
273.87157622884115
 10
2428.5503681783593
 20
276.69401899225545
 10
2427.6253497152484
 20
279.419035512032
 10
2426.3525588832576
 20
282.0
 10
2424.753773486407
 20
284.39275143819185
 10
2422.856349186104
 20
286.55634918610406
 10
2420.692751438192
 20
288.45377348640716
 10
2418.3
 20
290.0525588832577
 10
2415.719035512032
 20
291.3253497152483
 10
2412.9940189922554
 20
292.2503681783595
 10
2410.1715762288413
 20
292.81178695022385
 10
2407.4
 20
292.9934456537185
 10
2407.4
 20
293.0
 10
2407.3
 20
293.0
 10
2377.5
 20
293.0
 10
2377.4
 20
293.0
 10
2377.4
 20
292.9934456537185
 10
2374.628423771159
 20
292.81178695022385
 10
2371.805981007745
 20
292.2503681783595
 10
2369.0809644879682
 20
291.3253497152483
  0
LWPOLYLINE
  5
B8
330
17
100
AcDbEntity
  8
CORTE
100
AcDbPolyline
 90
59
 70
1
 10
2112.805981007745
 20
402.2503681783595
 10
2110.0809644879682
 20
401.3253497152483
 10
2107.5
 20
400.05255888325763
 10
2105.1072485618083
 20
398.45377348640716
 10
2102.943650813896
 20
396.55634918610406
 10
2101.046226513593
 20
394.39275143819185
 10
2099.4474411167425
 20
392.0
 10
2098.174650284752
 20
389.41903551203194
 10
2097.2496318216404
 20
386.69401899225545
 10
2096.688213049776
 20
383.87157622884115
 10
2096.5
 20
381.0
 10
2096.688213049776
 20
378.12842377115885
 10
2097.2496318216404
 20
375.30598100774455
 10
2098.174650284752
 20
372.580964487968
 10
2099.4474411167425
 20
370.0
 10
2101.046226513593
 20
367.60724856180815
 10
2102.943650813896
 20
365.44365081389594
 10
2105.1072485618083
 20
363.54622651359284
 10
2107.5
 20
361.94744111674237
 10
2110.0809644879682
 20
360.6746502847517
 10
2112.805981007745
 20
359.7496318216405
 10
2115.628423771159
 20
359.18821304977615
 10
2118.4
 20
359.0065543462815
 10
2118.4
 20
359.0
 10
2118.5
 20
359.0
 10
2148.3
 20
359.0
 10
2148.4
 20
359.0
 10
2148.4
 20
359.0065543462815
 10
2151.1715762288413
 20
359.18821304977615
 10
2153.9940189922554
 20
359.7496318216405
 10
2156.719035512032
 20
360.6746502847517
 10
2159.3
 20
361.94744111674237
 10
2161.692751438192
 20
363.54622651359284
 10
2163.856349186104
 20
365.44365081389594
 10
2165.753773486407
 20
367.60724856180815
 10
2167.3525588832576
 20
370.0
 10
2168.6253497152484
 20
372.580964487968
 10
2169.55036817836
 20
375.30598100774455
 10
2170.111786950224
 20
378.12842377115885
 10
2170.3
 20
381.0
 10
2170.111786950224
 20
383.87157622884115
 10
2169.55036817836
 20
386.69401899225545
 10
2168.6253497152484
 20
389.419035512032
 10
2167.3525588832576
 20
392.0
 10
2165.753773486407
 20
394.39275143819185
 10
2163.856349186104
 20
396.55634918610406
 10
2161.692751438192
 20
398.45377348640716
 10
2159.3
 20
400.0525588832577
 10
2156.719035512032
 20
401.3253497152483
 10
2153.9940189922554
 20
402.2503681783595
 10
2151.1715762288413
 20
402.81178695022385
 10
2148.4
 20
402.9934456537185
 10
2148.4
 20
403.0
 10
2148.3
 20
403.0
 10
2118.5
 20
403.0
 10
2118.4
 20
403.0
 10
2118.4
 20
402.9934456537185
 10
2115.628423771159
 20
402.81178695022385
 10
2112.805981007745
 20
402.2503681783595
  0
LWPOLYLINE
  5
B9
330
17
100
AcDbEntity
  8
CORTE
100
AcDbPolyline
 90
59
 70
1
 10
2189.628423771159
 20
402.81178695022385
 10
2186.805981007745
 20
402.2503681783595
 10
2184.0809644879682
 20
401.3253497152483
 10
2181.5
 20
400.05255888325763
 10
2179.1072485618083
 20
398.45377348640716
 10
2176.943650813896
 20
396.55634918610406
 10
2175.046226513593
 20
394.39275143819185
 10
2173.4474411167425
 20
392.0
 10
2172.174650284752
 20
389.41903551203194
 10
2171.2496318216404
 20
386.69401899225545
 10
2170.688213049776
 20
383.87157622884115
 10
2170.5
 20
381.0
 10
2170.688213049776
 20
378.12842377115885
 10
2171.2496318216404
 20
375.30598100774455
 10
2172.174650284752
 20
372.580964487968
 10
2173.4474411167425
 20
370.0
 10
2175.046226513593
 20
367.60724856180815
 10
2176.943650813896
 20
365.44365081389594
 10
2179.1072485618083
 20
363.54622651359284
 10
2181.5
 20
361.94744111674237
 10
2184.0809644879682
 20
360.6746502847517
 10
2186.805981007745
 20
359.7496318216405
 10
2189.628423771159
 20
359.18821304977615
 10
2192.4
 20
359.0065543462815
 10
2192.4
 20
359.0
 10
2192.5
 20
359.0
 10
2222.3
 20
359.0
 10
2222.4
 20
359.0
 10
2222.4
 20
359.0065543462815
 10
2225.1715762288413
 20
359.18821304977615
 10
2227.9940189922554
 20
359.7496318216405
 10
2230.719035512032
 20
360.6746502847517
 10
2233.3
 20
361.94744111674237
 10
2235.692751438192
 20
363.54622651359284
 10
2237.856349186104
 20
365.44365081389594
 10
2239.753773486407
 20
367.60724856180815
 10
2241.3525588832576
 20
370.0
 10
2242.6253497152484
 20
372.580964487968
 10
2243.55036817836
 20
375.30598100774455
 10
2244.111786950224
 20
378.12842377115885
 10
2244.3
 20
381.0
 10
2244.111786950224
 20
383.87157622884115
 10
2243.55036817836
 20
386.69401899225545
 10
2242.6253497152484
 20
389.419035512032
 10
2241.3525588832576
 20
392.0
 10
2239.753773486407
 20
394.39275143819185
 10
2237.856349186104
 20
396.55634918610406
 10
2235.692751438192
 20
398.45377348640716
 10
2233.3
 20
400.0525588832577
 10
2230.719035512032
 20
401.3253497152483
 10
2227.9940189922554
 20
402.2503681783595
 10
2225.1715762288413
 20
402.81178695022385
 10
2222.4
 20
402.9934456537185
 10
2222.4
 20
403.0
 10
2222.3
 20
403.0
 10
2192.5
 20
403.0
 10
2192.4
 20
403.0
 10
2192.4
 20
402.9934456537185
 10
2189.628423771159
 20
402.81178695022385
  0
LWPOLYLINE
  5
BA
330
17
100
AcDbEntity
  8
CORTE
100
AcDbPolyline
 90
59
 70
1
 10
2266.4
 20
402.9934456537185
 10
2263.628423771159
 20
402.81178695022385
 10
2260.805981007745
 20
402.2503681783595
 10
2258.0809644879682
 20
401.3253497152483
 10
2255.5
 20
400.05255888325763
 10
2253.1072485618083
 20
398.45377348640716
 10
2250.943650813896
 20
396.55634918610406
 10
2249.046226513593
 20
394.39275143819185
 10
2247.4474411167425
 20
392.0
 10
2246.174650284752
 20
389.41903551203194
 10
2245.2496318216404
 20
386.69401899225545
 10
2244.688213049776
 20
383.87157622884115
 10
2244.5
 20
381.0
 10
2244.688213049776
 20
378.12842377115885
 10
2245.2496318216404
 20
375.30598100774455
 10
2246.174650284752
 20
372.580964487968
 10
2247.4474411167425
 20
370.0
 10
2249.046226513593
 20
367.60724856180815
 10
2250.943650813896
 20
365.44365081389594
 10
2253.1072485618083
 20
363.54622651359284
 10
2255.5
 20
361.94744111674237
 10
2258.0809644879682
 20
360.6746502847517
 10
2260.805981007745
 20
359.7496318216405
 10
2263.628423771159
 20
359.18821304977615
 10
2266.4
 20
359.0065543462815
 10
2266.4
 20
359.0
 10
2266.5
 20
359.0
 10
2296.3
 20
359.0
 10
2296.4
 20
359.0
 10
2296.4
 20
359.0065543462815
 10
2299.1715762288413
 20
359.18821304977615
 10
2301.9940189922554
 20
359.7496318216405
 10
2304.719035512032
 20
360.6746502847517
 10
2307.3
 20
361.94744111674237
 10
2309.692751438192
 20
363.54622651359284
 10
2311.856349186104
 20
365.44365081389594
 10
2313.753773486407
 20
367.60724856180815
 10
2315.3525588832576
 20
370.0
 10
2316.6253497152484
 20
372.580964487968
 10
2317.5503681783593
 20
375.30598100774455
 10
2318.111786950224
 20
378.12842377115885
 10
2318.3
 20
381.0
 10
2318.111786950224
 20
383.87157622884115
 10
2317.5503681783593
 20
386.69401899225545
 10
2316.6253497152484
 20
389.419035512032
 10
2315.3525588832576
 20
392.0
 10
2313.753773486407
 20
394.39275143819185
 10
2311.856349186104
 20
396.55634918610406
 10
2309.692751438192
 20
398.45377348640716
 10
2307.3
 20
400.0525588832577
 10
2304.719035512032
 20
401.3253497152483
 10
2301.9940189922554
 20
402.2503681783595
 10
2299.1715762288413
 20
402.81178695022385
 10
2296.4
 20
402.9934456537185
 10
2296.4
 20
403.0
 10
2296.3
 20
403.0
 10
2266.5
 20
403.0
 10
2266.4
 20
403.0
 10
2266.4
 20
402.9934456537185
  0
LWPOLYLINE
  5
BB
330
17
100
AcDbEntity
  8
CORTE
100
AcDbPolyline
 90
59
 70
1
 10
2340.4
 20
403.0
 10
2340.4
 20
402.9934456537185
 10
2337.628423771159
 20
402.81178695022385
 10
2334.805981007745
 20
402.2503681783595
 10
2332.0809644879682
 20
401.3253497152483
 10
2329.5
 20
400.05255888325763
 10
2327.1072485618083
 20
398.45377348640716
 10
2324.943650813896
 20
396.55634918610406
 10
2323.046226513593
 20
394.39275143819185
 10
2321.4474411167425
 20
392.0
 10
2320.174650284752
 20
389.41903551203194
 10
2319.249631821641
 20
386.69401899225545
 10
2318.688213049776
 20
383.87157622884115
 10
2318.5
 20
381.0
 10
2318.688213049776
 20
378.12842377115885
 10
2319.249631821641
 20
375.30598100774455
 10
2320.174650284752
 20
372.580964487968
 10
2321.4474411167425
 20
370.0
 10
2323.046226513593
 20
367.60724856180815
 10
2324.943650813896
 20
365.44365081389594
 10
2327.1072485618083
 20
363.54622651359284
 10
2329.5
 20
361.94744111674237
 10
2332.0809644879682
 20
360.6746502847517
 10
2334.805981007745
 20
359.7496318216405
 10
2337.628423771159
 20
359.18821304977615
 10
2340.4
 20
359.0065543462815
 10
2340.4
 20
359.0
 10
2340.5
 20
359.0
 10
2370.3
 20
359.0
 10
2370.4
 20
359.0
 10
2370.4
 20
359.0065543462815
 10
2373.1715762288413
 20
359.18821304977615
 10
2375.9940189922554
 20
359.7496318216405
 10
2378.719035512032
 20
360.6746502847517
 10
2381.3
 20
361.94744111674237
 10
2383.692751438192
 20
363.54622651359284
 10
2385.856349186104
 20
365.44365081389594
 10
2387.753773486407
 20
367.60724856180815
 10
2389.3525588832576
 20
370.0
 10
2390.6253497152484
 20
372.580964487968
 10
2391.5503681783593
 20
375.30598100774455
 10
2392.111786950224
 20
378.12842377115885
 10
2392.3
 20
381.0
 10
2392.111786950224
 20
383.87157622884115
 10
2391.5503681783593
 20
386.69401899225545
 10
2390.6253497152484
 20
389.419035512032
 10
2389.3525588832576
 20
392.0
 10
2387.753773486407
 20
394.39275143819185
 10
2385.856349186104
 20
396.55634918610406
 10
2383.692751438192
 20
398.45377348640716
 10
2381.3
 20
400.0525588832577
 10
2378.719035512032
 20
401.3253497152483
 10
2375.9940189922554
 20
402.2503681783595
 10
2373.1715762288413
 20
402.81178695022385
 10
2370.4
 20
402.9934456537185
 10
2370.4
 20
403.0
 10
2370.3
 20
403.0
 10
2340.5
 20
403.0
 10
2340.4
 20
403.0
  0
TEXT
  5
BC
330
17
100
AcDbEntity
  8
TEXTO
100
AcDbText
 10
2064.4
 20
-22.0
 30
0.0
 40
8.0
  1
tapa_superior
 11
2064.4
 21
-22.0
 31
0.0
100
AcDbText
  0
LWPOLYLINE
  5
BD
330
17
100
AcDbEntity
  8
CORTE
100
AcDbPolyline
 90
4
 70
1
 10
2541.6
 20
0.0
 10
3127.6
 20
0.0
 10
3127.6
 20
228.3316802635079
 10
2541.6
 20
228.3316802635079
  0
LINE
  5
BE
330
17
100
AcDbEntity
  8
PLIEGUE
100
AcDbLine
 10
2541.6
 20
35.49292006587697
 30
0.0
 11
3127.6
 21
35.49292006587697
 31
0.0
  0
LINE
  5
BF
330
17
100
AcDbEntity
  8
PLIEGUE
100
AcDbLine
 10
2541.6
 20
195.37876019763092
 30
0.0
 11
3127.6
 21
195.37876019763092
 31
0.0
  0
TEXT
  5
C0
330
17
100
AcDbEntity
  8
TEXTO
100
AcDbText
 10
2541.6
 20
-22.0
 30
0.0
 40
8.0
  1
desarrollo_canal (x2) — BA 6.786 mm, K 0.44
 11
2541.6
 21
-22.0
 31
0.0
100
AcDbText
  0
ENDSEC
  0
SECTION
  2
OBJECTS
  0
DICTIONARY
  5
A
330
0
100
AcDbDictionary
281
1
  3
ACAD_COLOR
350
B
  3
ACAD_GROUP
350
C
  3
ACAD_LAYOUT
350
D
  3
ACAD_MATERIAL
350
E
  3
ACAD_MLEADERSTYLE
350
F
  3
ACAD_MLINESTYLE
350
10
  3
ACAD_PLOTSETTINGS
350
11
  3
ACAD_PLOTSTYLENAME
350
12
  3
ACAD_SCALELIST
350
14
  3
ACAD_TABLESTYLE
350
15
  3
ACAD_VISUALSTYLE
350
16
  3
EZDXF_META
350
2D
  0
DICTIONARY
  5
B
330
A
100
AcDbDictionary
281
1
  0
DICTIONARY
  5
C
330
A
100
AcDbDictionary
281
1
  0
DICTIONARY
  5
D
330
A
100
AcDbDictionary
281
1
  3
Model
350
1A
  3
Layout1
350
1E
  0
DICTIONARY
  5
E
330
A
100
AcDbDictionary
281
1
  3
ByBlock
350
1F
  3
ByLayer
350
20
  3
Global
350
21
  0
DICTIONARY
  5
F
330
A
100
AcDbDictionary
281
1
  3
Standard
350
2C
  0
DICTIONARY
  5
10
330
A
100
AcDbDictionary
281
1
  3
Standard
350
22
  0
DICTIONARY
  5
11
330
A
100
AcDbDictionary
281
1
  0
ACDBDICTIONARYWDFLT
  5
12
330
A
100
AcDbDictionary
281
1
  3
Normal
350
13
100
AcDbDictionaryWithDefault
340
13
  0
ACDBPLACEHOLDER
  5
13
330
12
  0
DICTIONARY
  5
14
330
A
100
AcDbDictionary
281
1
  0
DICTIONARY
  5
15
330
A
100
AcDbDictionary
281
1
  0
DICTIONARY
  5
16
330
A
100
AcDbDictionary
281
1
  3
2dWireframe
350
5A
  3
Basic
350
5B
  3
Brighten
350
5C
  3
ColorChange
350
5D
  3
Conceptual
350
5E
  3
Dim
350
5F
  3
EdgeColorOff
350
60
  3
Facepattern
350
61
  3
Flat
350
62
  3
FlatWithEdges
350
63
  3
Gouraud
350
64
  3
GouraudWithEdges
350
65
  3
Hidden
350
66
  3
JitterOff
350
67
  3
Linepattern
350
68
  3
Modeling
350
69
  3
OverhangOff
350
6A
  3
Realistic
350
6B
  3
Shaded
350
6C
  3
Shaded with edges
350
6D
  3
Shades of Gray
350
6E
  3
Sketchy
350
6F
  3
Thicken
350
70
  3
Wireframe
350
71
  3
X-Ray
350
72
  0
LAYOUT
  5
1A
330
D
100
AcDbPlotSettings
  1

  4
A3
  6

 40
7.5
 41
20.0
 42
7.5
 43
20.0
 44
420.0
 45
297.0
 46
0.0
 47
0.0
 48
0.0
 49
0.0
140
0.0
141
0.0
142
1.0
143
1.0
 70
1024
 72
1
 73
0
 74
5
  7

 75
16
 76
0
 77
2
 78
300
147
1.0
148
0.0
149
0.0
100
AcDbLayout
  1
Model
 70
1
 71
0
 10
0.0
 20
0.0
 11
420.0
 21
297.0
 12
0.0
 22
0.0
 32
0.0
 14
1e+20
 24
1e+20
 34
1e+20
 15
-1e+20
 25
-1e+20
 35
-1e+20
146
0.0
 13
0.0
 23
0.0
 33
0.0
 16
1.0
 26
0.0
 36
0.0
 17
0.0
 27
1.0
 37
0.0
 76
1
330
17
  0
LAYOUT
  5
1E
330
D
100
AcDbPlotSettings
  1

  4
A3
  6

 40
7.5
 41
20.0
 42
7.5
 43
20.0
 44
420.0
 45
297.0
 46
0.0
 47
0.0
 48
0.0
 49
0.0
140
0.0
141
0.0
142
1.0
143
1.0
 70
0
 72
1
 73
0
 74
5
  7

 75
16
 76
0
 77
2
 78
300
147
1.0
148
0.0
149
0.0
100
AcDbLayout
  1
Layout1
 70
1
 71
1
 10
0.0
 20
0.0
 11
420.0
 21
297.0
 12
0.0
 22
0.0
 32
0.0
 14
1e+20
 24
1e+20
 34
1e+20
 15
-1e+20
 25
-1e+20
 35
-1e+20
146
0.0
 13
0.0
 23
0.0
 33
0.0
 16
1.0
 26
0.0
 36
0.0
 17
0.0
 27
1.0
 37
0.0
 76
1
330
1B
  0
MATERIAL
  5
1F
102
{ACAD_REACTORS
330
E
102
}
330
E
100
AcDbMaterial
  1
ByBlock
  2

 70
0
 40
1.0
 71
1
 41
1.0
 91
-1023410177
 42
1.0
 72
1
  3

 73
1
 74
1
 75
1
 44
0.5
 73
0
 45
1.0
 46
1.0
 77
1
  4

 78
1
 79
1
170
1
 48
1.0
171
1
  6

172
1
173
1
174
1
140
1.0
141
1.0
175
1
  7

176
1
177
1
178
1
143
1.0
179
1
  8

270
1
271
1
272
1
145
1.0
146
1.0
273
1
  9

274
1
275
1
276
1
 42
1.0
 72
1
  3

 73
1
 74
1
 75
1
 94
63
  0
MATERIAL
  5
20
102
{ACAD_REACTORS
330
E
102
}
330
E
100
AcDbMaterial
  1
ByLayer
  2

 70
0
 40
1.0
 71
1
 41
1.0
 91
-1023410177
 42
1.0
 72
1
  3

 73
1
 74
1
 75
1
 44
0.5
 73
0
 45
1.0
 46
1.0
 77
1
  4

 78
1
 79
1
170
1
 48
1.0
171
1
  6

172
1
173
1
174
1
140
1.0
141
1.0
175
1
  7

176
1
177
1
178
1
143
1.0
179
1
  8

270
1
271
1
272
1
145
1.0
146
1.0
273
1
  9

274
1
275
1
276
1
 42
1.0
 72
1
  3

 73
1
 74
1
 75
1
 94
63
  0
MATERIAL
  5
21
102
{ACAD_REACTORS
330
E
102
}
330
E
100
AcDbMaterial
  1
Global
  2

 70
0
 40
1.0
 71
1
 41
1.0
 91
-1023410177
 42
1.0
 72
1
  3

 73
1
 74
1
 75
1
 44
0.5
 73
0
 45
1.0
 46
1.0
 77
1
  4

 78
1
 79
1
170
1
 48
1.0
171
1
  6

172
1
173
1
174
1
140
1.0
141
1.0
175
1
  7

176
1
177
1
178
1
143
1.0
179
1
  8

270
1
271
1
272
1
145
1.0
146
1.0
273
1
  9

274
1
275
1
276
1
 42
1.0
 72
1
  3

 73
1
 74
1
 75
1
 94
63
  0
MLINESTYLE
  5
22
102
{ACAD_REACTORS
330
10
102
}
330
10
100
AcDbMlineStyle
  2
Standard
 70
0
  3

 62
256
 51
90.0
 52
90.0
 71
2
 49
0.5
 62
256
  6
BYLAYER
 49
-0.5
 62
256
  6
BYLAYER
  0
MLEADERSTYLE
  5
2C
102
{ACAD_REACTORS
330
F
102
}
330
F
100
AcDbMLeaderStyle
179
2
170
2
171
1
172
0
 90
2
 40
0.0
 41
0.0
173
1
 91
-1056964608
 92
-2
290
1
 42
2.0
291
1
 43
8.0
  3
Standard
 44
4.0
300

342
29
174
1
175
1
176
0
178
1
 93
-1056964608
 45
4.0
292
0
297
0
 46
4.0
 94
-1056964608
 47
1.0
 49
1.0
140
1.0
294
1
141
0.0
177
0
142
1.0
295
0
296
0
143
3.75
271
0
272
9
273
9
  0
DICTIONARY
  5
2D
330
A
100
AcDbDictionary
280
1
281
1
  3
CREATED_BY_EZDXF
350
2E
  3
WRITTEN_BY_EZDXF
350
C3
  0
DICTIONARYVAR
  5
2E
330
2D
100
DictionaryVariables
280
0
  1
1.4.4 @ 2026-07-29T04:37:37.454693+00:00
  0
VISUALSTYLE
  5
5A
102
{ACAD_REACTORS
330
16
102
}
330
16
100
AcDbVisualStyle
  2
2dWireframe
 70
4
177
3
291
0
 70
58
 90
2
176
1
 90
2
176
1
 90
0
176
1
 90
0
176
1
 40
0.6
176
1
 40
30.0
176
1
 62
7
420
16777215
176
1
 90
1
176
1
 90
4
176
1
 62
7
176
1
 62
257
176
1
 90
1
176
1
 90
1
176
1
 40
1.0
176
1
 90
8
176
1
 62
7
176
1
 40
1.0
176
1
 90
1
176
1
 90
6
176
1
 90
2
176
1
 62
7
176
1
 90
5
176
1
 90
0
176
1
 90
0
176
1
290
0
176
1
 90
1
176
1
 40
0.0
176
1
 90
0
176
1
290
1
176
1
290
1
176
1
290
0
176
1
290
0
176
1
290
0
176
1
290
0
176
1
290
0
176
1
290
0
176
1
290
0
176
1
 90
50
176
1
 40
0.0
176
1
 40
1.0
176
1
 90
0
176
1
 62
18
420
0
176
1
 90
50
176
1
 90
3
176
1
 62
5
420
255
176
1
290
0
176
1
 90
50
176
1
 90
50
176
1
 90
50
176
1
290
0
176
1
 90
50
176
1
 62
256
176
0
 40
1.0
176
0
 90
2
176
1
  1
strokes_ogs.tif
176
1
290
0
176
1
 40
1.0
176
1
 40
1.0
176
1
  0
VISUALSTYLE
  5
5B
102
{ACAD_REACTORS
330
16
102
}
330
16
100
AcDbVisualStyle
  2
Basic
 70
7
177
3
291
1
 70
58
 90
2
176
1
 90
2
176
1
 90
0
176
1
 90
1
176
1
 40
0.6
176
1
 40
30.0
176
1
 62
7
420
16777215
176
1
 90
1
176
1
 90
4
176
1
 62
7
176
1
 62
257
176
1
 90
1
176
1
 90
1
176
1
 40
1.0
176
1
 90
8
176
1
 62
7
176
1
 40
1.0
176
1
 90
1
176
1
 90
6
176
1
 90
2
176
1
 62
7
176
1
 90
5
176
1
 90
0
176
1
 90
0
176
1
290
0
176
1
 90
1
176
1
 40
0.0
176
1
 90
0
176
1
290
0
176
1
290
1
176
1
290
1
176
1
290
0
176
1
290
0
176
1
290
0
176
1
290
0
176
1
290
0
176
1
290
0
176
1
 90
50
176
1
 40
0.0
176
1
 40
1.0
176
1
 90
0
176
1
 62
18
420
0
176
1
 90
50
176
1
 90
3
176
1
 62
5
420
255
176
1
290
0
176
1
 90
50
176
1
 90
50
176
1
 90
50
176
1
290
0
176
1
 90
50
176
1
 62
256
176
0
 40
1.0
176
0
 90
2
176
1
  1
strokes_ogs.tif
176
1
290
0
176
1
 40
1.0
176
1
 40
1.0
176
1
  0
VISUALSTYLE
  5
5C
102
{ACAD_REACTORS
330
16
102
}
330
16
100
AcDbVisualStyle
  2
Brighten
 70
12
177
3
291
1
 70
58
 90
2
176
1
 90
2
176
1
 90
0
176
1
 90
2
176
1
 40
0.6
176
1
 40
30.0
176
1
 62
7
420
16777215
176
1
 90
1
176
1
 90
4
176
1
 62
7
176
1
 62
257
176
1
 90
1
176
1
 90
1
176
1
 40
1.0
176
1
 90
8
176
1
 62
7
176
1
 40
1.0
176
1
 90
1
176
1
 90
6
176
1
 90
2
176
1
 62
7
176
1
 90
5
176
1
 90
0
176
1
 90
0
176
1
290
0
176
1
 90
1
176
1
 40
0.0
176
1
 90
0
176
1
290
0
176
1
290
1
176
1
290
1
176
1
290
0
176
1
290
0
176
1
290
0
176
1
290
0
176
1
290
0
176
1
290
0
176
1
 90
50
176
1
 40
0.0
176
1
 40
1.0
176
1
 90
0
176
1
 62
18
420
0
176
1
 90
50
176
1
 90
3
176
1
 62
5
420
255
176
1
290
0
176
1
 90
50
176
1
 90
50
176
1
 90
50
176
1
290
0
176
1
 90
50
176
1
 62
256
176
0
 40
1.0
176
0
 90
2
176
1
  1
strokes_ogs.tif
176
1
290
0
176
1
 40
1.0
176
1
 40
1.0
176
1
  0
VISUALSTYLE
  5
5D
102
{ACAD_REACTORS
330
16
102
}
330
16
100
AcDbVisualStyle
  2
ColorChange
 70
16
177
3
291
1
 70
58
 90
2
176
1
 90
2
176
1
 90
0
176
1
 90
2
176
1
 40
0.6
176
1
 40
30.0
176
1
 62
7
420
16777215
176
1
 90
1
176
1
 90
4
176
1
 62
7
176
1
 62
257
176
1
 90
1
176
1
 90
1
176
1
 40
1.0
176
1
 90
8
176
1
 62
7
176
1
 40
1.0
176
1
 90
1
176
1
 90
6
176
1
 90
2
176
1
 62
7
176
1
 90
5
176
1
 90
0
176
1
 90
0
176
1
290
0
176
1
 90
1
176
1
 40
0.0
176
1
 90
0
176
1
290
0
176
1
290
1
176
1
290
1
176
1
290
0
176
1
290
0
176
1
290
0
176
1
290
0
176
1
290
0
176
1
290
0
176
1
 90
50
176
1
 40
0.0
176
1
 40
1.0
176
1
 90
0
176
1
 62
18
420
0
176
1
 90
50
176
1
 90
3
176
1
 62
5
420
255
176
1
290
0
176
1
 90
50
176
1
 90
50
176
1
 90
50
176
1
290
0
176
1
 90
50
176
1
 62
256
176
0
 40
1.0
176
0
 90
2
176
1
  1
strokes_ogs.tif
176
1
290
0
176
1
 40
1.0
176
1
 40
1.0
176
1
  0
VISUALSTYLE
  5
5E
102
{ACAD_REACTORS
330
16
102
}
330
16
100
AcDbVisualStyle
  2
Conceptual
 70
9
177
3
291
0
 70
58
 90
2
176
1
 90
2
176
1
 90
0
176
1
 90
3
176
1
 40
0.6
176
1
 40
30.0
176
1
 62
7
420
16777215
176
1
 90
1
176
1
 90
4
176
1
 62
7
176
1
 62
257
176
1
 90
1
176
1
 90
1
176
1
 40
1.0
176
1
 90
8
176
1
 62
7
176
1
 40
1.0
176
1
 90
1
176
1
 90
6
176
1
 90
2
176
1
 62
7
176
1
 90
5
176
1
 90
0
176
1
 90
0
176
1
290
0
176
1
 90
1
176
1
 40
0.0
176
1
 90
0
176
1
290
0
176
1
290
1
176
1
290
1
176
1
290
0
176
1
290
0
176
1
290
0
176
1
290
0
176
1
290
0
176
1
290
0
176
1
 90
50
176
1
 40
0.0
176
1
 40
1.0
176
1
 90
0
176
1
 62
18
420
0
176
1
 90
50
176
1
 90
3
176
1
 62
5
420
255
176
1
290
0
176
1
 90
50
176
1
 90
50
176
1
 90
50
176
1
290
0
176
1
 90
50
176
1
 62
256
176
0
 40
1.0
176
0
 90
2
176
1
  1
strokes_ogs.tif
176
1
290
0
176
1
 40
1.0
176
1
 40
1.0
176
1
  0
VISUALSTYLE
  5
5F
102
{ACAD_REACTORS
330
16
102
}
330
16
100
AcDbVisualStyle
  2
Dim
 70
11
177
3
291
1
 70
58
 90
2
176
1
 90
2
176
1
 90
0
176
1
 90
2
176
1
 40
0.6
176
1
 40
30.0
176
1
 62
7
420
16777215
176
1
 90
1
176
1
 90
4
176
1
 62
7
176
1
 62
257
176
1
 90
1
176
1
 90
1
176
1
 40
1.0
176
1
 90
8
176
1
 62
7
176
1
 40
1.0
176
1
 90
1
176
1
 90
6
176
1
 90
2
176
1
 62
7
176
1
 90
5
176
1
 90
0
176
1
 90
0
176
1
290
0
176
1
 90
1
176
1
 40
0.0
176
1
 90
0
176
1
290
0
176
1
290
1
176
1
290
1
176
1
290
0
176
1
290
0
176
1
290
0
176
1
290
0
176
1
290
0
176
1
290
0
176
1
 90
50
176
1
 40
0.0
176
1
 40
1.0
176
1
 90
0
176
1
 62
18
420
0
176
1
 90
50
176
1
 90
3
176
1
 62
5
420
255
176
1
290
0
176
1
 90
50
176
1
 90
50
176
1
 90
50
176
1
290
0
176
1
 90
50
176
1
 62
256
176
0
 40
1.0
176
0
 90
2
176
1
  1
strokes_ogs.tif
176
1
290
0
176
1
 40
1.0
176
1
 40
1.0
176
1
  0
VISUALSTYLE
  5
60
102
{ACAD_REACTORS
330
16
102
}
330
16
100
AcDbVisualStyle
  2
EdgeColorOff
 70
22
177
3
291
1
 70
58
 90
2
176
1
 90
2
176
1
 90
0
176
1
 90
2
176
1
 40
0.6
176
1
 40
30.0
176
1
 62
7
420
16777215
176
1
 90
1
176
1
 90
4
176
1
 62
7
176
1
 62
257
176
1
 90
1
176
1
 90
1
176
1
 40
1.0
176
1
 90
8
176
1
 62
7
176
1
 40
1.0
176
1
 90
1
176
1
 90
6
176
1
 90
2
176
1
 62
7
176
1
 90
5
176
1
 90
0
176
1
 90
0
176
1
290
0
176
1
 90
1
176
1
 40
0.0
176
1
 90
0
176
1
290
0
176
1
290
1
176
1
290
1
176
1
290
0
176
1
290
0
176
1
290
0
176
1
290
0
176
1
290
0
176
1
290
0
176
1
 90
50
176
1
 40
0.0
176
1
 40
1.0
176
1
 90
0
176
1
 62
18
420
0
176
1
 90
50
176
1
 90
3
176
1
 62
5
420
255
176
1
290
0
176
1
 90
50
176
1
 90
50
176
1
 90
50
176
1
290
0
176
1
 90
50
176
1
 62
256
176
0
 40
1.0
176
0
 90
2
176
1
  1
strokes_ogs.tif
176
1
290
0
176
1
 40
1.0
176
1
 40
1.0
176
1
  0
VISUALSTYLE
  5
61
102
{ACAD_REACTORS
330
16
102
}
330
16
100
AcDbVisualStyle
  2
Facepattern
 70
15
177
3
291
1
 70
58
 90
2
176
1
 90
2
176
1
 90
0
176
1
 90
2
176
1
 40
0.6
176
1
 40
30.0
176
1
 62
7
420
16777215
176
1
 90
1
176
1
 90
4
176
1
 62
7
176
1
 62
257
176
1
 90
1
176
1
 90
1
176
1
 40
1.0
176
1
 90
8
176
1
 62
7
176
1
 40
1.0
176
1
 90
1
176
1
 90
6
176
1
 90
2
176
1
 62
7
176
1
 90
5
176
1
 90
0
176
1
 90
0
176
1
290
0
176
1
 90
1
176
1
 40
0.0
176
1
 90
0
176
1
290
0
176
1
290
1
176
1
290
1
176
1
290
0
176
1
290
0
176
1
290
0
176
1
290
0
176
1
290
0
176
1
290
0
176
1
 90
50
176
1
 40
0.0
176
1
 40
1.0
176
1
 90
0
176
1
 62
18
420
0
176
1
 90
50
176
1
 90
3
176
1
 62
5
420
255
176
1
290
0
176
1
 90
50
176
1
 90
50
176
1
 90
50
176
1
290
0
176
1
 90
50
176
1
 62
256
176
0
 40
1.0
176
0
 90
2
176
1
  1
strokes_ogs.tif
176
1
290
0
176
1
 40
1.0
176
1
 40
1.0
176
1
  0
VISUALSTYLE
  5
62
102
{ACAD_REACTORS
330
16
102
}
330
16
100
AcDbVisualStyle
  2
Flat
 70
0
177
3
291
1
 70
58
 90
2
176
1
 90
2
176
1
 90
0
176
1
 90
2
176
1
 40
0.6
176
1
 40
30.0
176
1
 62
7
420
16777215
176
1
 90
1
176
1
 90
4
176
1
 62
7
176
1
 62
257
176
1
 90
1
176
1
 90
1
176
1
 40
1.0
176
1
 90
8
176
1
 62
7
176
1
 40
1.0
176
1
 90
1
176
1
 90
6
176
1
 90
2
176
1
 62
7
176
1
 90
5
176
1
 90
0
176
1
 90
0
176
1
290
0
176
1
 90
1
176
1
 40
0.0
176
1
 90
0
176
1
290
0
176
1
290
1
176
1
290
1
176
1
290
0
176
1
290
0
176
1
290
0
176
1
290
0
176
1
290
0
176
1
290
0
176
1
 90
50
176
1
 40
0.0
176
1
 40
1.0
176
1
 90
0
176
1
 62
18
420
0
176
1
 90
50
176
1
 90
3
176
1
 62
5
420
255
176
1
290
0
176
1
 90
50
176
1
 90
50
176
1
 90
50
176
1
290
0
176
1
 90
50
176
1
 62
256
176
0
 40
1.0
176
0
 90
2
176
1
  1
strokes_ogs.tif
176
1
290
0
176
1
 40
1.0
176
1
 40
1.0
176
1
  0
VISUALSTYLE
  5
63
102
{ACAD_REACTORS
330
16
102
}
330
16
100
AcDbVisualStyle
  2
FlatWithEdges
 70
1
177
3
291
1
 70
58
 90
2
176
1
 90
2
176
1
 90
0
176
1
 90
2
176
1
 40
0.6
176
1
 40
30.0
176
1
 62
7
420
16777215
176
1
 90
1
176
1
 90
4
176
1
 62
7
176
1
 62
257
176
1
 90
1
176
1
 90
1
176
1
 40
1.0
176
1
 90
8
176
1
 62
7
176
1
 40
1.0
176
1
 90
1
176
1
 90
6
176
1
 90
2
176
1
 62
7
176
1
 90
5
176
1
 90
0
176
1
 90
0
176
1
290
0
176
1
 90
1
176
1
 40
0.0
176
1
 90
0
176
1
290
0
176
1
290
1
176
1
290
1
176
1
290
0
176
1
290
0
176
1
290
0
176
1
290
0
176
1
290
0
176
1
290
0
176
1
 90
50
176
1
 40
0.0
176
1
 40
1.0
176
1
 90
0
176
1
 62
18
420
0
176
1
 90
50
176
1
 90
3
176
1
 62
5
420
255
176
1
290
0
176
1
 90
50
176
1
 90
50
176
1
 90
50
176
1
290
0
176
1
 90
50
176
1
 62
256
176
0
 40
1.0
176
0
 90
2
176
1
  1
strokes_ogs.tif
176
1
290
0
176
1
 40
1.0
176
1
 40
1.0
176
1
  0
VISUALSTYLE
  5
64
102
{ACAD_REACTORS
330
16
102
}
330
16
100
AcDbVisualStyle
  2
Gouraud
 70
2
177
3
291
1
 70
58
 90
2
176
1
 90
2
176
1
 90
0
176
1
 90
2
176
1
 40
0.6
176
1
 40
30.0
176
1
 62
7
420
16777215
176
1
 90
1
176
1
 90
4
176
1
 62
7
176
1
 62
257
176
1
 90
1
176
1
 90
1
176
1
 40
1.0
176
1
 90
8
176
1
 62
7
176
1
 40
1.0
176
1
 90
1
176
1
 90
6
176
1
 90
2
176
1
 62
7
176
1
 90
5
176
1
 90
0
176
1
 90
0
176
1
290
0
176
1
 90
1
176
1
 40
0.0
176
1
 90
0
176
1
290
0
176
1
290
1
176
1
290
1
176
1
290
0
176
1
290
0
176
1
290
0
176
1
290
0
176
1
290
0
176
1
290
0
176
1
 90
50
176
1
 40
0.0
176
1
 40
1.0
176
1
 90
0
176
1
 62
18
420
0
176
1
 90
50
176
1
 90
3
176
1
 62
5
420
255
176
1
290
0
176
1
 90
50
176
1
 90
50
176
1
 90
50
176
1
290
0
176
1
 90
50
176
1
 62
256
176
0
 40
1.0
176
0
 90
2
176
1
  1
strokes_ogs.tif
176
1
290
0
176
1
 40
1.0
176
1
 40
1.0
176
1
  0
VISUALSTYLE
  5
65
102
{ACAD_REACTORS
330
16
102
}
330
16
100
AcDbVisualStyle
  2
GouraudWithEdges
 70
3
177
3
291
1
 70
58
 90
2
176
1
 90
2
176
1
 90
0
176
1
 90
2
176
1
 40
0.6
176
1
 40
30.0
176
1
 62
7
420
16777215
176
1
 90
1
176
1
 90
4
176
1
 62
7
176
1
 62
257
176
1
 90
1
176
1
 90
1
176
1
 40
1.0
176
1
 90
8
176
1
 62
7
176
1
 40
1.0
176
1
 90
1
176
1
 90
6
176
1
 90
2
176
1
 62
7
176
1
 90
5
176
1
 90
0
176
1
 90
0
176
1
290
0
176
1
 90
1
176
1
 40
0.0
176
1
 90
0
176
1
290
0
176
1
290
1
176
1
290
1
176
1
290
0
176
1
290
0
176
1
290
0
176
1
290
0
176
1
290
0
176
1
290
0
176
1
 90
50
176
1
 40
0.0
176
1
 40
1.0
176
1
 90
0
176
1
 62
18
420
0
176
1
 90
50
176
1
 90
3
176
1
 62
5
420
255
176
1
290
0
176
1
 90
50
176
1
 90
50
176
1
 90
50
176
1
290
0
176
1
 90
50
176
1
 62
256
176
0
 40
1.0
176
0
 90
2
176
1
  1
strokes_ogs.tif
176
1
290
0
176
1
 40
1.0
176
1
 40
1.0
176
1
  0
VISUALSTYLE
  5
66
102
{ACAD_REACTORS
330
16
102
}
330
16
100
AcDbVisualStyle
  2
Hidden
 70
6
177
3
291
0
 70
58
 90
2
176
1
 90
2
176
1
 90
0
176
1
 90
1
176
1
 40
0.6
176
1
 40
30.0
176
1
 62
7
420
16777215
176
1
 90
1
176
1
 90
4
176
1
 62
7
176
1
 62
257
176
1
 90
1
176
1
 90
1
176
1
 40
1.0
176
1
 90
8
176
1
 62
7
176
1
 40
1.0
176
1
 90
1
176
1
 90
6
176
1
 90
2
176
1
 62
7
176
1
 90
5
176
1
 90
0
176
1
 90
0
176
1
290
0
176
1
 90
1
176
1
 40
0.0
176
1
 90
0
176
1
290
0
176
1
290
1
176
1
290
1
176
1
290
0
176
1
290
0
176
1
290
0
176
1
290
0
176
1
290
0
176
1
290
0
176
1
 90
50
176
1
 40
0.0
176
1
 40
1.0
176
1
 90
0
176
1
 62
18
420
0
176
1
 90
50
176
1
 90
3
176
1
 62
5
420
255
176
1
290
0
176
1
 90
50
176
1
 90
50
176
1
 90
50
176
1
290
0
176
1
 90
50
176
1
 62
256
176
0
 40
1.0
176
0
 90
2
176
1
  1
strokes_ogs.tif
176
1
290
0
176
1
 40
1.0
176
1
 40
1.0
176
1
  0
VISUALSTYLE
  5
67
102
{ACAD_REACTORS
330
16
102
}
330
16
100
AcDbVisualStyle
  2
JitterOff
 70
20
177
3
291
1
 70
58
 90
2
176
1
 90
2
176
1
 90
0
176
1
 90
2
176
1
 40
0.6
176
1
 40
30.0
176
1
 62
7
420
16777215
176
1
 90
1
176
1
 90
4
176
1
 62
7
176
1
 62
257
176
1
 90
1
176
1
 90
1
176
1
 40
1.0
176
1
 90
8
176
1
 62
7
176
1
 40
1.0
176
1
 90
1
176
1
 90
6
176
1
 90
2
176
1
 62
7
176
1
 90
5
176
1
 90
0
176
1
 90
0
176
1
290
0
176
1
 90
1
176
1
 40
0.0
176
1
 90
0
176
1
290
0
176
1
290
1
176
1
290
1
176
1
290
0
176
1
290
0
176
1
290
0
176
1
290
0
176
1
290
0
176
1
290
0
176
1
 90
50
176
1
 40
0.0
176
1
 40
1.0
176
1
 90
0
176
1
 62
18
420
0
176
1
 90
50
176
1
 90
3
176
1
 62
5
420
255
176
1
290
0
176
1
 90
50
176
1
 90
50
176
1
 90
50
176
1
290
0
176
1
 90
50
176
1
 62
256
176
0
 40
1.0
176
0
 90
2
176
1
  1
strokes_ogs.tif
176
1
290
0
176
1
 40
1.0
176
1
 40
1.0
176
1
  0
VISUALSTYLE
  5
68
102
{ACAD_REACTORS
330
16
102
}
330
16
100
AcDbVisualStyle
  2
Linepattern
 70
14
177
3
291
1
 70
58
 90
2
176
1
 90
2
176
1
 90
0
176
1
 90
2
176
1
 40
0.6
176
1
 40
30.0
176
1
 62
7
420
16777215
176
1
 90
1
176
1
 90
4
176
1
 62
7
176
1
 62
257
176
1
 90
1
176
1
 90
1
176
1
 40
1.0
176
1
 90
8
176
1
 62
7
176
1
 40
1.0
176
1
 90
1
176
1
 90
6
176
1
 90
2
176
1
 62
7
176
1
 90
5
176
1
 90
0
176
1
 90
0
176
1
290
0
176
1
 90
1
176
1
 40
0.0
176
1
 90
0
176
1
290
0
176
1
290
1
176
1
290
1
176
1
290
0
176
1
290
0
176
1
290
0
176
1
290
0
176
1
290
0
176
1
290
0
176
1
 90
50
176
1
 40
0.0
176
1
 40
1.0
176
1
 90
0
176
1
 62
18
420
0
176
1
 90
50
176
1
 90
3
176
1
 62
5
420
255
176
1
290
0
176
1
 90
50
176
1
 90
50
176
1
 90
50
176
1
290
0
176
1
 90
50
176
1
 62
256
176
0
 40
1.0
176
0
 90
2
176
1
  1
strokes_ogs.tif
176
1
290
0
176
1
 40
1.0
176
1
 40
1.0
176
1
  0
VISUALSTYLE
  5
69
102
{ACAD_REACTORS
330
16
102
}
330
16
100
AcDbVisualStyle
  2
Modeling
 70
10
177
3
291
0
 70
58
 90
2
176
1
 90
2
176
1
 90
0
176
1
 90
2
176
1
 40
0.6
176
1
 40
30.0
176
1
 62
7
420
16777215
176
1
 90
1
176
1
 90
4
176
1
 62
7
176
1
 62
257
176
1
 90
1
176
1
 90
1
176
1
 40
1.0
176
1
 90
8
176
1
 62
7
176
1
 40
1.0
176
1
 90
1
176
1
 90
6
176
1
 90
2
176
1
 62
7
176
1
 90
5
176
1
 90
0
176
1
 90
0
176
1
290
0
176
1
 90
1
176
1
 40
0.0
176
1
 90
0
176
1
290
0
176
1
290
1
176
1
290
1
176
1
290
0
176
1
290
0
176
1
290
0
176
1
290
0
176
1
290
0
176
1
290
0
176
1
 90
50
176
1
 40
0.0
176
1
 40
1.0
176
1
 90
0
176
1
 62
18
420
0
176
1
 90
50
176
1
 90
3
176
1
 62
5
420
255
176
1
290
0
176
1
 90
50
176
1
 90
50
176
1
 90
50
176
1
290
0
176
1
 90
50
176
1
 62
256
176
0
 40
1.0
176
0
 90
2
176
1
  1
strokes_ogs.tif
176
1
290
0
176
1
 40
1.0
176
1
 40
1.0
176
1
  0
VISUALSTYLE
  5
6A
102
{ACAD_REACTORS
330
16
102
}
330
16
100
AcDbVisualStyle
  2
OverhangOff
 70
21
177
3
291
1
 70
58
 90
2
176
1
 90
2
176
1
 90
0
176
1
 90
2
176
1
 40
0.6
176
1
 40
30.0
176
1
 62
7
420
16777215
176
1
 90
1
176
1
 90
4
176
1
 62
7
176
1
 62
257
176
1
 90
1
176
1
 90
1
176
1
 40
1.0
176
1
 90
8
176
1
 62
7
176
1
 40
1.0
176
1
 90
1
176
1
 90
6
176
1
 90
2
176
1
 62
7
176
1
 90
5
176
1
 90
0
176
1
 90
0
176
1
290
0
176
1
 90
1
176
1
 40
0.0
176
1
 90
0
176
1
290
0
176
1
290
1
176
1
290
1
176
1
290
0
176
1
290
0
176
1
290
0
176
1
290
0
176
1
290
0
176
1
290
0
176
1
 90
50
176
1
 40
0.0
176
1
 40
1.0
176
1
 90
0
176
1
 62
18
420
0
176
1
 90
50
176
1
 90
3
176
1
 62
5
420
255
176
1
290
0
176
1
 90
50
176
1
 90
50
176
1
 90
50
176
1
290
0
176
1
 90
50
176
1
 62
256
176
0
 40
1.0
176
0
 90
2
176
1
  1
strokes_ogs.tif
176
1
290
0
176
1
 40
1.0
176
1
 40
1.0
176
1
  0
VISUALSTYLE
  5
6B
102
{ACAD_REACTORS
330
16
102
}
330
16
100
AcDbVisualStyle
  2
Realistic
 70
8
177
3
291
0
 70
58
 90
2
176
1
 90
2
176
1
 90
0
176
1
 90
2
176
1
 40
0.6
176
1
 40
30.0
176
1
 62
7
420
16777215
176
1
 90
1
176
1
 90
4
176
1
 62
7
176
1
 62
257
176
1
 90
1
176
1
 90
1
176
1
 40
1.0
176
1
 90
8
176
1
 62
7
176
1
 40
1.0
176
1
 90
1
176
1
 90
6
176
1
 90
2
176
1
 62
7
176
1
 90
5
176
1
 90
0
176
1
 90
0
176
1
290
0
176
1
 90
1
176
1
 40
0.0
176
1
 90
0
176
1
290
0
176
1
290
1
176
1
290
1
176
1
290
0
176
1
290
0
176
1
290
0
176
1
290
0
176
1
290
0
176
1
290
0
176
1
 90
50
176
1
 40
0.0
176
1
 40
1.0
176
1
 90
0
176
1
 62
18
420
0
176
1
 90
50
176
1
 90
3
176
1
 62
5
420
255
176
1
290
0
176
1
 90
50
176
1
 90
50
176
1
 90
50
176
1
290
0
176
1
 90
50
176
1
 62
256
176
0
 40
1.0
176
0
 90
2
176
1
  1
strokes_ogs.tif
176
1
290
0
176
1
 40
1.0
176
1
 40
1.0
176
1
  0
VISUALSTYLE
  5
6C
102
{ACAD_REACTORS
330
16
102
}
330
16
100
AcDbVisualStyle
  2
Shaded
 70
27
177
3
291
0
 70
58
 90
2
176
1
 90
2
176
1
 90
0
176
1
 90
2
176
1
 40
0.6
176
1
 40
30.0
176
1
 62
7
420
16777215
176
1
 90
1
176
1
 90
4
176
1
 62
7
176
1
 62
257
176
1
 90
1
176
1
 90
1
176
1
 40
1.0
176
1
 90
8
176
1
 62
7
176
1
 40
1.0
176
1
 90
1
176
1
 90
6
176
1
 90
2
176
1
 62
7
176
1
 90
5
176
1
 90
0
176
1
 90
0
176
1
290
0
176
1
 90
1
176
1
 40
0.0
176
1
 90
0
176
1
290
0
176
1
290
1
176
1
290
1
176
1
290
0
176
1
290
0
176
1
290
0
176
1
290
0
176
1
290
0
176
1
290
0
176
1
 90
50
176
1
 40
0.0
176
1
 40
1.0
176
1
 90
0
176
1
 62
18
420
0
176
1
 90
50
176
1
 90
3
176
1
 62
5
420
255
176
1
290
0
176
1
 90
50
176
1
 90
50
176
1
 90
50
176
1
290
0
176
1
 90
50
176
1
 62
256
176
0
 40
1.0
176
0
 90
2
176
1
  1
strokes_ogs.tif
176
1
290
0
176
1
 40
1.0
176
1
 40
1.0
176
1
  0
VISUALSTYLE
  5
6D
102
{ACAD_REACTORS
330
16
102
}
330
16
100
AcDbVisualStyle
  2
Shaded with edges
 70
26
177
3
291
0
 70
58
 90
2
176
1
 90
2
176
1
 90
0
176
1
 90
2
176
1
 40
0.6
176
1
 40
30.0
176
1
 62
7
420
16777215
176
1
 90
1
176
1
 90
4
176
1
 62
7
176
1
 62
257
176
1
 90
1
176
1
 90
1
176
1
 40
1.0
176
1
 90
8
176
1
 62
7
176
1
 40
1.0
176
1
 90
1
176
1
 90
6
176
1
 90
2
176
1
 62
7
176
1
 90
5
176
1
 90
0
176
1
 90
0
176
1
290
0
176
1
 90
1
176
1
 40
0.0
176
1
 90
0
176
1
290
0
176
1
290
1
176
1
290
1
176
1
290
0
176
1
290
0
176
1
290
0
176
1
290
0
176
1
290
0
176
1
290
0
176
1
 90
50
176
1
 40
0.0
176
1
 40
1.0
176
1
 90
0
176
1
 62
18
420
0
176
1
 90
50
176
1
 90
3
176
1
 62
5
420
255
176
1
290
0
176
1
 90
50
176
1
 90
50
176
1
 90
50
176
1
290
0
176
1
 90
50
176
1
 62
256
176
0
 40
1.0
176
0
 90
2
176
1
  1
strokes_ogs.tif
176
1
290
0
176
1
 40
1.0
176
1
 40
1.0
176
1
  0
VISUALSTYLE
  5
6E
102
{ACAD_REACTORS
330
16
102
}
330
16
100
AcDbVisualStyle
  2
Shades of Gray
 70
23
177
3
291
0
 70
58
 90
2
176
1
 90
2
176
1
 90
0
176
1
 90
2
176
1
 40
0.6
176
1
 40
30.0
176
1
 62
7
420
16777215
176
1
 90
1
176
1
 90
4
176
1
 62
7
176
1
 62
257
176
1
 90
1
176
1
 90
1
176
1
 40
1.0
176
1
 90
8
176
1
 62
7
176
1
 40
1.0
176
1
 90
1
176
1
 90
6
176
1
 90
2
176
1
 62
7
176
1
 90
5
176
1
 90
0
176
1
 90
0
176
1
290
0
176
1
 90
1
176
1
 40
0.0
176
1
 90
0
176
1
290
0
176
1
290
1
176
1
290
1
176
1
290
0
176
1
290
0
176
1
290
0
176
1
290
0
176
1
290
0
176
1
290
0
176
1
 90
50
176
1
 40
0.0
176
1
 40
1.0
176
1
 90
0
176
1
 62
18
420
0
176
1
 90
50
176
1
 90
3
176
1
 62
5
420
255
176
1
290
0
176
1
 90
50
176
1
 90
50
176
1
 90
50
176
1
290
0
176
1
 90
50
176
1
 62
256
176
0
 40
1.0
176
0
 90
2
176
1
  1
strokes_ogs.tif
176
1
290
0
176
1
 40
1.0
176
1
 40
1.0
176
1
  0
VISUALSTYLE
  5
6F
102
{ACAD_REACTORS
330
16
102
}
330
16
100
AcDbVisualStyle
  2
Sketchy
 70
24
177
3
291
0
 70
58
 90
2
176
1
 90
2
176
1
 90
0
176
1
 90
1
176
1
 40
0.6
176
1
 40
30.0
176
1
 62
7
420
16777215
176
1
 90
1
176
1
 90
4
176
1
 62
7
176
1
 62
257
176
1
 90
1
176
1
 90
1
176
1
 40
1.0
176
1
 90
8
176
1
 62
7
176
1
 40
1.0
176
1
 90
1
176
1
 90
6
176
1
 90
2
176
1
 62
7
176
1
 90
5
176
1
 90
0
176
1
 90
0
176
1
290
0
176
1
 90
1
176
1
 40
0.0
176
1
 90
0
176
1
290
0
176
1
290
1
176
1
290
1
176
1
290
0
176
1
290
0
176
1
290
0
176
1
290
0
176
1
290
0
176
1
290
0
176
1
 90
50
176
1
 40
0.0
176
1
 40
1.0
176
1
 90
0
176
1
 62
18
420
0
176
1
 90
50
176
1
 90
3
176
1
 62
5
420
255
176
1
290
0
176
1
 90
50
176
1
 90
50
176
1
 90
50
176
1
290
0
176
1
 90
50
176
1
 62
256
176
0
 40
1.0
176
0
 90
2
176
1
  1
strokes_ogs.tif
176
1
290
0
176
1
 40
1.0
176
1
 40
1.0
176
1
  0
VISUALSTYLE
  5
70
102
{ACAD_REACTORS
330
16
102
}
330
16
100
AcDbVisualStyle
  2
Thicken
 70
13
177
3
291
1
 70
58
 90
2
176
1
 90
2
176
1
 90
0
176
1
 90
2
176
1
 40
0.6
176
1
 40
30.0
176
1
 62
7
420
16777215
176
1
 90
1
176
1
 90
4
176
1
 62
7
176
1
 62
257
176
1
 90
1
176
1
 90
1
176
1
 40
1.0
176
1
 90
8
176
1
 62
7
176
1
 40
1.0
176
1
 90
1
176
1
 90
6
176
1
 90
2
176
1
 62
7
176
1
 90
5
176
1
 90
0
176
1
 90
0
176
1
290
0
176
1
 90
1
176
1
 40
0.0
176
1
 90
0
176
1
290
0
176
1
290
1
176
1
290
1
176
1
290
0
176
1
290
0
176
1
290
0
176
1
290
0
176
1
290
0
176
1
290
0
176
1
 90
50
176
1
 40
0.0
176
1
 40
1.0
176
1
 90
0
176
1
 62
18
420
0
176
1
 90
50
176
1
 90
3
176
1
 62
5
420
255
176
1
290
0
176
1
 90
50
176
1
 90
50
176
1
 90
50
176
1
290
0
176
1
 90
50
176
1
 62
256
176
0
 40
1.0
176
0
 90
2
176
1
  1
strokes_ogs.tif
176
1
290
0
176
1
 40
1.0
176
1
 40
1.0
176
1
  0
VISUALSTYLE
  5
71
102
{ACAD_REACTORS
330
16
102
}
330
16
100
AcDbVisualStyle
  2
Wireframe
 70
5
177
3
291
0
 70
58
 90
2
176
1
 90
2
176
1
 90
0
176
1
 90
0
176
1
 40
0.6
176
1
 40
30.0
176
1
 62
7
420
16777215
176
1
 90
1
176
1
 90
4
176
1
 62
7
176
1
 62
257
176
1
 90
1
176
1
 90
1
176
1
 40
1.0
176
1
 90
8
176
1
 62
7
176
1
 40
1.0
176
1
 90
1
176
1
 90
6
176
1
 90
2
176
1
 62
7
176
1
 90
5
176
1
 90
0
176
1
 90
0
176
1
290
0
176
1
 90
1
176
1
 40
0.0
176
1
 90
0
176
1
290
0
176
1
290
1
176
1
290
1
176
1
290
0
176
1
290
0
176
1
290
0
176
1
290
0
176
1
290
0
176
1
290
0
176
1
 90
50
176
1
 40
0.0
176
1
 40
1.0
176
1
 90
0
176
1
 62
18
420
0
176
1
 90
50
176
1
 90
3
176
1
 62
5
420
255
176
1
290
0
176
1
 90
50
176
1
 90
50
176
1
 90
50
176
1
290
0
176
1
 90
50
176
1
 62
256
176
0
 40
1.0
176
0
 90
2
176
1
  1
strokes_ogs.tif
176
1
290
0
176
1
 40
1.0
176
1
 40
1.0
176
1
  0
VISUALSTYLE
  5
72
102
{ACAD_REACTORS
330
16
102
}
330
16
100
AcDbVisualStyle
  2
X-Ray
 70
25
177
3
291
0
 70
58
 90
2
176
1
 90
2
176
1
 90
0
176
1
 90
2
176
1
 40
0.5
176
1
 40
30.0
176
1
 62
7
420
16777215
176
1
 90
1
176
1
 90
4
176
1
 62
7
176
1
 62
257
176
1
 90
1
176
1
 90
1
176
1
 40
1.0
176
1
 90
8
176
1
 62
7
176
1
 40
1.0
176
1
 90
1
176
1
 90
6
176
1
 90
2
176
1
 62
7
176
1
 90
5
176
1
 90
0
176
1
 90
0
176
1
290
0
176
1
 90
1
176
1
 40
0.0
176
1
 90
0
176
1
290
0
176
1
290
1
176
1
290
1
176
1
290
0
176
1
290
0
176
1
290
0
176
1
290
0
176
1
290
0
176
1
290
0
176
1
 90
50
176
1
 40
0.0
176
1
 40
1.0
176
1
 90
0
176
1
 62
18
420
0
176
1
 90
50
176
1
 90
3
176
1
 62
5
420
255
176
1
290
0
176
1
 90
50
176
1
 90
50
176
1
 90
50
176
1
290
0
176
1
 90
50
176
1
 62
256
176
0
 40
1.0
176
0
 90
2
176
1
  1
strokes_ogs.tif
176
1
290
0
176
1
 40
1.0
176
1
 40
1.0
176
1
  0
DICTIONARYVAR
  5
C3
330
2D
100
DictionaryVariables
280
0
  1
1.4.4 @ 2026-07-29T04:37:37.470483+00:00
  0
ENDSEC
  0
EOF
