  0
SECTION
  2
HEADER
  9
$ACADVER
  1
AC1032
  9
$ACADMAINTVER
 90
4
  9
$DWGCODEPAGE
  3
ANSI_1252
  9
$LASTSAVEDBY
  1
ezdxf
  9
$REQUIREDVERSIONS
160
0
  9
$INSBASE
 10
0.0
 20
0.0
 30
0.0
  9
$EXTMIN
 10
1e+20
 20
1e+20
 30
1e+20
  9
$EXTMAX
 10
-1e+20
 20
-1e+20
 30
-1e+20
  9
$LIMMIN
 10
0.0
 20
0.0
  9
$LIMMAX
 10
420.0
 20
297.0
  9
$ORTHOMODE
 70
0
  9
$REGENMODE
 70
1
  9
$FILLMODE
 70
1
  9
$QTEXTMODE
 70
0
  9
$MIRRTEXT
 70
1
  9
$LTSCALE
 40
1.0
  9
$ATTMODE
 70
1
  9
$TEXTSIZE
 40
2.5
  9
$TRACEWID
 40
1.0
  9
$TEXTSTYLE
  7
OpenSans
  9
$CLAYER
  8
0
  9
$CELTYPE
  6
ByLayer
  9
$CECOLOR
 62
256
  9
$CELTSCALE
 40
1.0
  9
$DISPSILH
 70
0
  9
$DIMSCALE
 40
1.0
  9
$DIMASZ
 40
0.175
  9
$DIMEXO
 40
0.125
  9
$DIMDLI
 40
3.75
  9
$DIMRND
 40
0.0
  9
$DIMDLE
 40
0.0
  9
$DIMEXE
 40
0.375
  9
$DIMTP
 40
0.0
  9
$DIMTM
 40
0.0
  9
$DIMTXT
 40
0.25
  9
$DIMCEN
 40
2.5
  9
$DIMTSZ
 40
0.0
  9
$DIMTOL
 70
0
  9
$DIMLIM
 70
0
  9
$DIMTIH
 70
0
  9
$DIMTOH
 70
0
  9
$DIMSE1
 70
0
  9
$DIMSE2
 70
0
  9
$DIMTAD
 70
1
  9
$DIMZIN
 70
12
  9
$DIMBLK
  1
ARCHTICK
  9
$DIMASO
 70
1
  9
$DIMSHO
 70
1
  9
$DIMPOST
  1

  9
$DIMAPOST
  1

  9
$DIMALT
 70
0
  9
$DIMALTD
 70
3
  9
$DIMALTF
 40
0.03937007874
  9
$DIMLFAC
 40
100.0
  9
$DIMTOFL
 70
1
  9
$DIMTVP
 40
0.0
  9
$DIMTIX
 70
0
  9
$DIMSOXD
 70
0
  9
$DIMSAH
 70
0
  9
$DIMBLK1
  1

  9
$DIMBLK2
  1

  9
$DIMSTYLE
  2
EZDXF
  9
$DIMCLRD
 70
0
  9
$DIMCLRE
 70
0
  9
$DIMCLRT
 70
0
  9
$DIMTFAC
 40
0.5
  9
$DIMGAP
 40
0.1
  9
$DIMJUST
 70
0
  9
$DIMSD1
 70
0
  9
$DIMSD2
 70
0
  9
$DIMTOLJ
 70
0
  9
$DIMTZIN
 70
8
  9
$DIMALTZ
 70
0
  9
$DIMALTTZ
 70
0
  9
$DIMUPT
 70
1
  9
$DIMDEC
 70
2
  9
$DIMTDEC
 70
2
  9
$DIMALTU
 70
2
  9
$DIMALTTD
 70
3
  9
$DIMTXSTY
  7
OpenSansCondensed-Light
  9
$DIMAUNIT
 70
0
  9
$DIMADEC
 70
2
  9
$DIMALTRND
 40
0.0
  9
$DIMAZIN
 70
3
  9
$DIMDSEP
 70
46
  9
$DIMATFIT
 70
3
  9
$DIMFRAC
 70
0
  9
$DIMLDRBLK
  1

  9
$DIMLUNIT
 70
2
  9
$DIMLWD
 70
-2
  9
$DIMLWE
 70
-2
  9
$DIMTMOVE
 70
2
  9
$DIMFXL
 40
1.0
  9
$DIMFXLON
 70
0
  9
$DIMJOGANG
 40
0.785398163397
  9
$DIMTFILL
 70
0
  9
$DIMTFILLCLR
 70
0
  9
$DIMARCSYM
 70
0
  9
$DIMLTYPE
  6

  9
$DIMLTEX1
  6

  9
$DIMLTEX2
  6

  9
$DIMTXTDIRECTION
 70
0
  9
$LUNITS
 70
2
  9
$LUPREC
 70
4
  9
$SKETCHINC
 40
1.0
  9
$FILLETRAD
 40
10.0
  9
$AUNITS
 70
0
  9
$AUPREC
 70
2
  9
$MENU
  1
.
  9
$ELEVATION
 40
0.0
  9
$PELEVATION
 40
0.0
  9
$THICKNESS
 40
0.0
  9
$LIMCHECK
 70
0
  9
$CHAMFERA
 40
0.0
  9
$CHAMFERB
 40
0.0
  9
$CHAMFERC
 40
0.0
  9
$CHAMFERD
 40
0.0
  9
$SKPOLY
 70
0
  9
$TDCREATE
 40
2461251.1725810184
  9
$TDUCREATE
 40
2458532.153996898
  9
$TDUPDATE
 40
2461251.1725810184
  9
$TDUUPDATE
 40
2458532.1544311
  9
$TDINDWG
 40
0.0
  9
$TDUSRTIMER
 40
0.0
  9
$USRTIMER
 70
1
  9
$ANGBASE
 50
0.0
  9
$ANGDIR
 70
0
  9
$PDMODE
 70
0
  9
$PDSIZE
 40
0.0
  9
$PLINEWID
 40
0.0
  9
$SPLFRAME
 70
0
  9
$SPLINETYPE
 70
6
  9
$SPLINESEGS
 70
8
  9
$HANDSEED
  5
BB
  9
$SURFTAB1
 70
6
  9
$SURFTAB2
 70
6
  9
$SURFTYPE
 70
6
  9
$SURFU
 70
6
  9
$SURFV
 70
6
  9
$UCSBASE
  2

  9
$UCSNAME
  2

  9
$UCSORG
 10
0.0
 20
0.0
 30
0.0
  9
$UCSXDIR
 10
1.0
 20
0.0
 30
0.0
  9
$UCSYDIR
 10
0.0
 20
1.0
 30
0.0
  9
$UCSORTHOREF
  2

  9
$UCSORTHOVIEW
 70
0
  9
$UCSORGTOP
 10
0.0
 20
0.0
 30
0.0
  9
$UCSORGBOTTOM
 10
0.0
 20
0.0
 30
0.0
  9
$UCSORGLEFT
 10
0.0
 20
0.0
 30
0.0
  9
$UCSORGRIGHT
 10
0.0
 20
0.0
 30
0.0
  9
$UCSORGFRONT
 10
0.0
 20
0.0
 30
0.0
  9
$UCSORGBACK
 10
0.0
 20
0.0
 30
0.0
  9
$PUCSBASE
  2

  9
$PUCSNAME
  2

  9
$PUCSORG
 10
0.0
 20
0.0
 30
0.0
  9
$PUCSXDIR
 10
1.0
 20
0.0
 30
0.0
  9
$PUCSYDIR
 10
0.0
 20
1.0
 30
0.0
  9
$PUCSORTHOREF
  2

  9
$PUCSORTHOVIEW
 70
0
  9
$PUCSORGTOP
 10
0.0
 20
0.0
 30
0.0
  9
$PUCSORGBOTTOM
 10
0.0
 20
0.0
 30
0.0
  9
$PUCSORGLEFT
 10
0.0
 20
0.0
 30
0.0
  9
$PUCSORGRIGHT
 10
0.0
 20
0.0
 30
0.0
  9
$PUCSORGFRONT
 10
0.0
 20
0.0
 30
0.0
  9
$PUCSORGBACK
 10
0.0
 20
0.0
 30
0.0
  9
$USERI1
 70
0
  9
$USERI2
 70
0
  9
$USERI3
 70
0
  9
$USERI4
 70
0
  9
$USERI5
 70
0
  9
$USERR1
 40
0.0
  9
$USERR2
 40
0.0
  9
$USERR3
 40
0.0
  9
$USERR4
 40
0.0
  9
$USERR5
 40
0.0
  9
$WORLDVIEW
 70
1
  9
$SHADEDGE
 70
3
  9
$SHADEDIF
 70
70
  9
$TILEMODE
 70
1
  9
$MAXACTVP
 70
64
  9
$PINSBASE
 10
0.0
 20
0.0
 30
0.0
  9
$PLIMCHECK
 70
0
  9
$PEXTMIN
 10
1e+20
 20
1e+20
 30
1e+20
  9
$PEXTMAX
 10
-1e+20
 20
-1e+20
 30
-1e+20
  9
$PLIMMIN
 10
0.0
 20
0.0
  9
$PLIMMAX
 10
420.0
 20
297.0
  9
$UNITMODE
 70
0
  9
$VISRETAIN
 70
1
  9
$PLINEGEN
 70
0
  9
$PSLTSCALE
 70
1
  9
$TREEDEPTH
 70
3020
  9
$CMLSTYLE
  2
Standard
  9
$CMLJUST
 70
0
  9
$CMLSCALE
 40
20.0
  9
$PROXYGRAPHICS
 70
1
  9
$MEASUREMENT
 70
1
  9
$CELWEIGHT
370
-1
  9
$ENDCAPS
280
0
  9
$JOINSTYLE
280
0
  9
$LWDISPLAY
290
0
  9
$INSUNITS
 70
4
  9
$HYPERLINKBASE
  1

  9
$STYLESHEET
  1

  9
$XEDIT
290
1
  9
$CEPSNTYPE
380
0
  9
$PSTYLEMODE
290
1
  9
$FINGERPRINTGUID
  2
{71886E77-9CBB-46B9-BD6D-70BEA88A67D6}
  9
$VERSIONGUID
  2
{2D5B06DE-A6C3-47C4-B7C5-8977019C282A}
  9
$EXTNAMES
290
1
  9
$PSVPSCALE
 40
0.0
  9
$OLESTARTUP
290
0
  9
$SORTENTS
280
127
  9
$INDEXCTL
280
0
  9
$HIDETEXT
280
1
  9
$XCLIPFRAME
280
1
  9
$HALOGAP
280
0
  9
$OBSCOLOR
 70
257
  9
$OBSLTYPE
280
0
  9
$INTERSECTIONDISPLAY
280
0
  9
$INTERSECTIONCOLOR
 70
257
  9
$DIMASSOC
280
2
  9
$PROJECTNAME
  1

  9
$CAMERADISPLAY
290
0
  9
$LENSLENGTH
 40
50.0
  9
$CAMERAHEIGHT
 40
0.0
  9
$STEPSPERSEC
 40
24.0
  9
$STEPSIZE
 40
100.0
  9
$3DDWFPREC
 40
2.0
  9
$PSOLWIDTH
 40
0.005
  9
$PSOLHEIGHT
 40
0.08
  9
$LOFTANG1
 40
1.570796326795
  9
$LOFTANG2
 40
1.570796326795
  9
$LOFTMAG1
 40
0.0
  9
$LOFTMAG2
 40
0.0
  9
$LOFTPARAM
 70
7
  9
$LOFTNORMALS
280
1
  9
$LATITUDE
 40
37.795
  9
$LONGITUDE
 40
-122.394
  9
$NORTHDIRECTION
 40
0.0
  9
$TIMEZONE
 70
-8000
  9
$LIGHTGLYPHDISPLAY
280
1
  9
$TILEMODELIGHTSYNCH
280
1
  9
$CMATERIAL
347
20
  9
$SOLIDHIST
280
0
  9
$SHOWHIST
280
1
  9
$DWFFRAME
280
2
  9
$DGNFRAME
280
2
  9
$REALWORLDSCALE
290
1
  9
$INTERFERECOLOR
 62
256
  9
$CSHADOW
280
0
  9
$SHADOWPLANELOCATION
 40
0.0
  0
ENDSEC
  0
SECTION
  2
CLASSES
  0
CLASS
  1
ACDBDICTIONARYWDFLT
  2
AcDbDictionaryWithDefault
  3
ObjectDBX Classes
 90
0
 91
0
280
0
281
0
  0
CLASS
  1
SUN
  2
AcDbSun
  3
SCENEOE
 90
1153
 91
0
280
0
281
0
  0
CLASS
  1
VISUALSTYLE
  2
AcDbVisualStyle
  3
ObjectDBX Classes
 90
4095
 91
0
280
0
281
0
  0
CLASS
  1
MATERIAL
  2
AcDbMaterial
  3
ObjectDBX Classes
 90
1153
 91
0
280
0
281
0
  0
CLASS
  1
SCALE
  2
AcDbScale
  3
ObjectDBX Classes
 90
1153
 91
0
280
0
281
0
  0
CLASS
  1
TABLESTYLE
  2
AcDbTableStyle
  3
ObjectDBX Classes
 90
4095
 91
0
280
0
281
0
  0
CLASS
  1
MLEADERSTYLE
  2
AcDbMLeaderStyle
  3
ACDB_MLEADERSTYLE_CLASS
 90
4095
 91
0
280
0
281
0
  0
CLASS
  1
DICTIONARYVAR
  2
AcDbDictionaryVar
  3
ObjectDBX Classes
 90
0
 91
0
280
0
281
0
  0
CLASS
  1
CELLSTYLEMAP
  2
AcDbCellStyleMap
  3
ObjectDBX Classes
 90
1152
 91
0
280
0
281
0
  0
CLASS
  1
MENTALRAYRENDERSETTINGS
  2
AcDbMentalRayRenderSettings
  3
SCENEOE
 90
1024
 91
0
280
0
281
0
  0
CLASS
  1
ACDBDETAILVIEWSTYLE
  2
AcDbDetailViewStyle
  3
ObjectDBX Classes
 90
1025
 91
0
280
0
281
0
  0
CLASS
  1
ACDBSECTIONVIEWSTYLE
  2
AcDbSectionViewStyle
  3
ObjectDBX Classes
 90
1025
 91
0
280
0
281
0
  0
CLASS
  1
RASTERVARIABLES
  2
AcDbRasterVariables
  3
ISM
 90
0
 91
0
280
0
281
0
  0
CLASS
  1
LAYOUT
  2
AcDbLayout
  3
ObjectDBX Classes
 90
0
 91
0
280
0
281
0
  0
CLASS
  1
ACDBPLACEHOLDER
  2
AcDbPlaceHolder
  3
ObjectDBX Classes
 90
0
 91
0
280
0
281
0
  0
ENDSEC
  0
SECTION
  2
TABLES
  0
TABLE
  2
VPORT
  5
8
330
0
100
AcDbSymbolTable
 70
1
  0
VPORT
  5
23
330
8
100
AcDbSymbolTableRecord
100
AcDbViewportTableRecord
  2
*Active
 70
0
 10
0.0
 20
0.0
 11
1.0
 21
1.0
 12
0.0
 22
0.0
 13
0.0
 23
0.0
 14
0.5
 24
0.5
 15
0.5
 25
0.5
 16
0.0
 26
0.0
 36
1.0
 17
0.0
 27
0.0
 37
0.0
 40
1000.0
 41
1.34
 42
50.0
 43
0.0
 44
0.0
 50
0.0
 51
0.0
 71
0
 72
1000
 73
1
 74
3
 75
0
 76
0
 77
0
 78
0
281
0
 65
0
146
0.0
  0
ENDTAB
  0
TABLE
  2
LTYPE
  5
2
330
0
100
AcDbSymbolTable
 70
21
  0
LTYPE
  5
24
330
2
100
AcDbSymbolTableRecord
100
AcDbLinetypeTableRecord
  2
ByBlock
 70
0
  3

 72
65
 73
0
 40
0.0
  0
LTYPE
  5
25
330
2
100
AcDbSymbolTableRecord
100
AcDbLinetypeTableRecord
  2
ByLayer
 70
0
  3

 72
65
 73
0
 40
0.0
  0
LTYPE
  5
26
330
2
100
AcDbSymbolTableRecord
100
AcDbLinetypeTableRecord
  2
Continuous
 70
0
  3

 72
65
 73
0
 40
0.0
  0
LTYPE
  5
2F
330
2
100
AcDbSymbolTableRecord
100
AcDbLinetypeTableRecord
  2
CENTER
 70
0
  3
Center ____ _ ____ _ ____ _ ____ _ ____ _ ____
 72
65
 73
4
 40
5.08
 49
3.175
 74
0
 49
-0.635
 74
0
 49
0.635
 74
0
 49
-0.635
 74
0
  0
LTYPE
  5
30
330
2
100
AcDbSymbolTableRecord
100
AcDbLinetypeTableRecord
  2
CENTERX2
 70
0
  3
Center (2x) ________  __  ________  __  ________
 72
65
 73
4
 40
8.89
 49
6.35
 74
0
 49
-0.635
 74
0
 49
1.27
 74
0
 49
-0.635
 74
0
  0
LTYPE
  5
31
330
2
100
AcDbSymbolTableRecord
100
AcDbLinetypeTableRecord
  2
CENTER2
 70
0
  3
Center (.5x) ____ _ ____ _ ____ _ ____ _ ____
 72
65
 73
4
 40
2.54
 49
1.587
 74
0
 49
-0.318
 74
0
 49
0.318
 74
0
 49
-0.318
 74
0
  0
LTYPE
  5
32
330
2
100
AcDbSymbolTableRecord
100
AcDbLinetypeTableRecord
  2
DASHED
 70
0
  3
Dashed __ __ __ __ __ __ __ __ __ __ __ __ __ _
 72
65
 73
2
 40
1.524
 49
1.27
 74
0
 49
-0.254
 74
0
  0
LTYPE
  5
33
330
2
100
AcDbSymbolTableRecord
100
AcDbLinetypeTableRecord
  2
DASHEDX2
 70
0
  3
Dashed (2x) ____  ____  ____  ____  ____  ____
 72
65
 73
2
 40
3.048
 49
2.54
 74
0
 49
-0.508
 74
0
  0
LTYPE
  5
34
330
2
100
AcDbSymbolTableRecord
100
AcDbLinetypeTableRecord
  2
DASHED2
 70
0
  3
Dashed (.5x) _ _ _ _ _ _ _ _ _ _ _ _ _ _
 72
65
 73
2
 40
0.762
 49
0.635
 74
0
 49
-0.127
 74
0
  0
LTYPE
  5
35
330
2
100
AcDbSymbolTableRecord
100
AcDbLinetypeTableRecord
  2
PHANTOM
 70
0
  3
Phantom ______  __  __  ______  __  __  ______
 72
65
 73
6
 40
6.35
 49
3.175
 74
0
 49
-0.635
 74
0
 49
0.635
 74
0
 49
-0.635
 74
0
 49
0.635
 74
0
 49
-0.635
 74
0
  0
LTYPE
  5
36
330
2
100
AcDbSymbolTableRecord
100
AcDbLinetypeTableRecord
  2
PHANTOMX2
 70
0
  3
Phantom (2x)____________    ____    ____    ____________
 72
65
 73
6
 40
10.795
 49
6.35
 74
0
 49
-0.635
 74
0
 49
1.27
 74
0
 49
-0.635
 74
0
 49
1.27
 74
0
 49
-0.635
 74
0
  0
LTYPE
  5
37
330
2
100
AcDbSymbolTableRecord
100
AcDbLinetypeTableRecord
  2
PHANTOM2
 70
0
  3
Phantom (.5x) ___ _ _ ___ _ _ ___ _ _ ___ _ _ ___
 72
65
 73
6
 40
3.175
 49
1.587
 74
0
 49
-0.318
 74
0
 49
0.318
 74
0
 49
-0.318
 74
0
 49
0.318
 74
0
 49
-0.318
 74
0
  0
LTYPE
  5
38
330
2
100
AcDbSymbolTableRecord
100
AcDbLinetypeTableRecord
  2
DASHDOT
 70
0
  3
Dash dot __ . __ . __ . __ . __ . __ . __ . __
 72
65
 73
4
 40
3.556
 49
2.54
 74
0
 49
-0.508
 74
0
 49
0.0
 74
0
 49
-0.508
 74
0
  0
LTYPE
  5
39
330
2
100
AcDbSymbolTableRecord
100
AcDbLinetypeTableRecord
  2
DASHDOTX2
 70
0
  3
Dash dot (2x) ____  .  ____  .  ____  .  ____
 72
65
 73
4
 40
6.096
 49
5.08
 74
0
 49
-0.508
 74
0
 49
0.0
 74
0
 49
-0.508
 74
0
  0
LTYPE
  5
3A
330
2
100
AcDbSymbolTableRecord
100
AcDbLinetypeTableRecord
  2
DASHDOT2
 70
0
  3
Dash dot (.5x) _ . _ . _ . _ . _ . _ . _ . _
 72
65
 73
4
 40
1.778
 49
1.27
 74
0
 49
-0.254
 74
0
 49
0.0
 74
0
 49
-0.254
 74
0
  0
LTYPE
  5
3B
330
2
100
AcDbSymbolTableRecord
100
AcDbLinetypeTableRecord
  2
DOT
 70
0
  3
Dot .  .  .  .  .  .  .  .  .  .  .  .  .  .  .  .
 72
65
 73
2
 40
0.508
 49
0.0
 74
0
 49
-0.508
 74
0
  0
LTYPE
  5
3C
330
2
100
AcDbSymbolTableRecord
100
AcDbLinetypeTableRecord
  2
DOTX2
 70
0
  3
Dot (2x) .    .    .    .    .    .    .    . 
 72
65
 73
2
 40
1.016
 49
0.0
 74
0
 49
-1.016
 74
0
  0
LTYPE
  5
3D
330
2
100
AcDbSymbolTableRecord
100
AcDbLinetypeTableRecord
  2
DOT2
 70
0
  3
Dot (.5) . . . . . . . . . . . . . . . . . . . 
 72
65
 73
2
 40
0.254
 49
0.0
 74
0
 49
-0.254
 74
0
  0
LTYPE
  5
3E
330
2
100
AcDbSymbolTableRecord
100
AcDbLinetypeTableRecord
  2
DIVIDE
 70
0
  3
Divide __ . . __ . . __ . . __ . . __ . . __
 72
65
 73
6
 40
4.064
 49
2.54
 74
0
 49
-0.508
 74
0
 49
0.0
 74
0
 49
-0.508
 74
0
 49
0.0
 74
0
 49
-0.508
 74
0
  0
LTYPE
  5
3F
330
2
100
AcDbSymbolTableRecord
100
AcDbLinetypeTableRecord
  2
DIVIDEX2
 70
0
  3
Divide (2x) ____  . .  ____  . .  ____  . .  ____
 72
65
 73
6
 40
6.604
 49
5.08
 74
0
 49
-0.508
 74
0
 49
0.0
 74
0
 49
-0.508
 74
0
 49
0.0
 74
0
 49
-0.508
 74
0
  0
LTYPE
  5
40
330
2
100
AcDbSymbolTableRecord
100
AcDbLinetypeTableRecord
  2
DIVIDE2
 70
0
  3
Divide(.5x) _ . _ . _ . _ . _ . _ . _ . _
 72
65
 73
6
 40
2.032
 49
1.27
 74
0
 49
-0.254
 74
0
 49
0.0
 74
0
 49
-0.254
 74
0
 49
0.0
 74
0
 49
-0.254
 74
0
  0
ENDTAB
  0
TABLE
  2
LAYER
  5
1
330
0
100
AcDbSymbolTable
 70
5
  0
LAYER
  5
27
330
1
100
AcDbSymbolTableRecord
100
AcDbLayerTableRecord
  2
0
 70
0
 62
7
  6
Continuous
370
-3
390
13
347
21
  0
LAYER
  5
28
330
1
100
AcDbSymbolTableRecord
100
AcDbLayerTableRecord
  2
Defpoints
 70
0
 62
7
  6
Continuous
290
0
370
-3
390
13
347
21
  0
LAYER
  5
8A
330
1
100
AcDbSymbolTableRecord
100
AcDbLayerTableRecord
  2
CORTE
 70
0
 62
7
  6
CONTINUOUS
370
-3
390
13
347
21
  0
LAYER
  5
8B
330
1
100
AcDbSymbolTableRecord
100
AcDbLayerTableRecord
  2
PLIEGUE
 70
0
 62
1
  6
DASHDOT
370
-3
390
13
347
21
  0
LAYER
  5
8C
330
1
100
AcDbSymbolTableRecord
100
AcDbLayerTableRecord
  2
TEXTO
 70
0
 62
7
  6
CONTINUOUS
370
-3
390
13
347
21
  0
ENDTAB
  0
TABLE
  2
STYLE
  5
5
330
0
100
AcDbSymbolTable
 70
26
  0
STYLE
  5
29
330
5
100
AcDbSymbolTableRecord
100
AcDbTextStyleTableRecord
  2
Standard
 70
0
 40
0.0
 41
1.0
 50
0.0
 71
0
 42
2.5
  3
txt
  4

  0
STYLE
  5
41
330
5
100
AcDbSymbolTableRecord
100
AcDbTextStyleTableRecord
  2
OpenSans-Light
 70
0
 40
0.0
 41
1.0
 50
0.0
 71
0
 42
2.5
  3
OpenSans-Light.ttf
  4

  0
STYLE
  5
42
330
5
100
AcDbSymbolTableRecord
100
AcDbTextStyleTableRecord
  2
OpenSans-Light-Italic
 70
0
 40
0.0
 41
1.0
 50
0.0
 71
0
 42
2.5
  3
OpenSans-LightItalic.ttf
  4

  0
STYLE
  5
43
330
5
100
AcDbSymbolTableRecord
100
AcDbTextStyleTableRecord
  2
OpenSans
 70
0
 40
0.0
 41
1.0
 50
0.0
 71
0
 42
2.5
  3
OpenSans-Regular.ttf
  4

  0
STYLE
  5
44
330
5
100
AcDbSymbolTableRecord
100
AcDbTextStyleTableRecord
  2
OpenSans-Italic
 70
0
 40
0.0
 41
1.0
 50
0.0
 71
0
 42
2.5
  3
OpenSans-Italic.ttf
  4

  0
STYLE
  5
45
330
5
100
AcDbSymbolTableRecord
100
AcDbTextStyleTableRecord
  2
OpenSans-SemiBold
 70
0
 40
0.0
 41
1.0
 50
0.0
 71
0
 42
2.5
  3
OpenSans-SemiBold.ttf
  4

  0
STYLE
  5
46
330
5
100
AcDbSymbolTableRecord
100
AcDbTextStyleTableRecord
  2
OpenSans-SemiBoldItalic
 70
0
 40
0.0
 41
1.0
 50
0.0
 71
0
 42
2.5
  3
OpenSans-SemiBoldItalic.ttf
  4

  0
STYLE
  5
47
330
5
100
AcDbSymbolTableRecord
100
AcDbTextStyleTableRecord
  2
OpenSans-Bold
 70
0
 40
0.0
 41
1.0
 50
0.0
 71
0
 42
2.5
  3
OpenSans-Bold.ttf
  4

  0
STYLE
  5
48
330
5
100
AcDbSymbolTableRecord
100
AcDbTextStyleTableRecord
  2
OpenSans-BoldItalic
 70
0
 40
0.0
 41
1.0
 50
0.0
 71
0
 42
2.5
  3
OpenSans-BoldItalic.ttf
  4

  0
STYLE
  5
49
330
5
100
AcDbSymbolTableRecord
100
AcDbTextStyleTableRecord
  2
OpenSans-ExtraBold
 70
0
 40
0.0
 41
1.0
 50
0.0
 71
0
 42
2.5
  3
OpenSans-ExtraBold.ttf
  4

  0
STYLE
  5
4A
330
5
100
AcDbSymbolTableRecord
100
AcDbTextStyleTableRecord
  2
OpenSans-ExtraBoldItalic
 70
0
 40
0.0
 41
1.0
 50
0.0
 71
0
 42
2.5
  3
OpenSans-ExtraBoldItalic.ttf
  4

  0
STYLE
  5
4B
330
5
100
AcDbSymbolTableRecord
100
AcDbTextStyleTableRecord
  2
OpenSansCondensed-Bold
 70
0
 40
0.0
 41
1.0
 50
0.0
 71
0
 42
2.5
  3
OpenSansCondensed-Bold.ttf
  4

  0
STYLE
  5
4C
330
5
100
AcDbSymbolTableRecord
100
AcDbTextStyleTableRecord
  2
OpenSansCondensed-Light
 70
0
 40
0.0
 41
1.0
 50
0.0
 71
0
 42
2.5
  3
OpenSansCondensed-Light.ttf
  4

  0
STYLE
  5
4D
330
5
100
AcDbSymbolTableRecord
100
AcDbTextStyleTableRecord
  2
OpenSansCondensed-Italic
 70
0
 40
0.0
 41
1.0
 50
0.0
 71
0
 42
2.5
  3
OpenSansCondensed-LightItalic.ttf
  4

  0
STYLE
  5
4E
330
5
100
AcDbSymbolTableRecord
100
AcDbTextStyleTableRecord
  2
LiberationSans
 70
0
 40
0.0
 41
1.0
 50
0.0
 71
0
 42
2.5
  3
LiberationSans-Regular.ttf
  4

  0
STYLE
  5
4F
330
5
100
AcDbSymbolTableRecord
100
AcDbTextStyleTableRecord
  2
LiberationSans-Bold
 70
0
 40
0.0
 41
1.0
 50
0.0
 71
0
 42
2.5
  3
LiberationSans-Bold.ttf
  4

  0
STYLE
  5
50
330
5
100
AcDbSymbolTableRecord
100
AcDbTextStyleTableRecord
  2
LiberationSans-BoldItalic
 70
0
 40
0.0
 41
1.0
 50
0.0
 71
0
 42
2.5
  3
LiberationSans-BoldItalic.ttf
  4

  0
STYLE
  5
51
330
5
100
AcDbSymbolTableRecord
100
AcDbTextStyleTableRecord
  2
LiberationSans-Italic
 70
0
 40
0.0
 41
1.0
 50
0.0
 71
0
 42
2.5
  3
LiberationSans-Italic.ttf
  4

  0
STYLE
  5
52
330
5
100
AcDbSymbolTableRecord
100
AcDbTextStyleTableRecord
  2
LiberationSerif
 70
0
 40
0.0
 41
1.0
 50
0.0
 71
0
 42
2.5
  3
LiberationSerif-Regular.ttf
  4

  0
STYLE
  5
53
330
5
100
AcDbSymbolTableRecord
100
AcDbTextStyleTableRecord
  2
LiberationSerif-Bold
 70
0
 40
0.0
 41
1.0
 50
0.0
 71
0
 42
2.5
  3
LiberationSerif-Bold.ttf
  4

  0
STYLE
  5
54
330
5
100
AcDbSymbolTableRecord
100
AcDbTextStyleTableRecord
  2
LiberationSerif-BoldItalic
 70
0
 40
0.0
 41
1.0
 50
0.0
 71
0
 42
2.5
  3
LiberationSerif-BoldItalic.ttf
  4

  0
STYLE
  5
55
330
5
100
AcDbSymbolTableRecord
100
AcDbTextStyleTableRecord
  2
LiberationSerif-Italic
 70
0
 40
0.0
 41
1.0
 50
0.0
 71
0
 42
2.5
  3
LiberationSerif-Italic.ttf
  4

  0
STYLE
  5
56
330
5
100
AcDbSymbolTableRecord
100
AcDbTextStyleTableRecord
  2
LiberationMono
 70
0
 40
0.0
 41
1.0
 50
0.0
 71
0
 42
2.5
  3
LiberationMono-Regular.ttf
  4

  0
STYLE
  5
57
330
5
100
AcDbSymbolTableRecord
100
AcDbTextStyleTableRecord
  2
LiberationMono-Bold
 70
0
 40
0.0
 41
1.0
 50
0.0
 71
0
 42
2.5
  3
LiberationMono-Bold.ttf
  4

  0
STYLE
  5
58
330
5
100
AcDbSymbolTableRecord
100
AcDbTextStyleTableRecord
  2
LiberationMono-BoldItalic
 70
0
 40
0.0
 41
1.0
 50
0.0
 71
0
 42
2.5
  3
LiberationMono-BoldItalic.ttf
  4

  0
STYLE
  5
59
330
5
100
AcDbSymbolTableRecord
100
AcDbTextStyleTableRecord
  2
LiberationMono-Italic
 70
0
 40
0.0
 41
1.0
 50
0.0
 71
0
 42
2.5
  3
LiberationMono-Italic.ttf
  4

  0
ENDTAB
  0
TABLE
  2
VIEW
  5
7
330
0
100
AcDbSymbolTable
 70
0
  0
ENDTAB
  0
TABLE
  2
UCS
  5
6
330
0
100
AcDbSymbolTable
 70
0
  0
ENDTAB
  0
TABLE
  2
APPID
  5
3
330
0
100
AcDbSymbolTable
 70
3
  0
APPID
  5
2A
330
3
100
AcDbSymbolTableRecord
100
AcDbRegAppTableRecord
  2
ACAD
 70
0
  0
APPID
  5
B8
330
3
100
AcDbSymbolTableRecord
100
AcDbRegAppTableRecord
  2
HATCHBACKGROUNDCOLOR
 70
0
  0
APPID
  5
B9
330
3
100
AcDbSymbolTableRecord
100
AcDbRegAppTableRecord
  2
EZDXF
 70
0
  0
ENDTAB
  0
TABLE
  2
DIMSTYLE
  5
4
330
0
100
AcDbSymbolTable
 70
12
100
AcDbDimStyleTable
  0
DIMSTYLE
105
2B
330
4
100
AcDbSymbolTableRecord
100
AcDbDimStyleTableRecord
  2
Standard
 70
0
 40
1.0
 41
2.5
 42
0.625
 43
3.75
 44
1.25
 45
0.0
 46
0.0
 47
0.0
 48
0.0
 49
2.5
140
2.5
141
2.5
142
0.0
143
0.03937007874
144
1.0
145
0.0
146
1.0
147
0.625
148
0.0
 69
0
 70
0
 71
0
 72
0
 73
0
 74
0
 75
0
 76
0
 77
1
 78
8
 79
3
170
0
171
3
172
1
173
0
174
0
175
0
176
0
177
0
178
0
179
2
271
2
272
2
273
2
274
3
275
0
276
0
277
2
278
44
279
0
280
0
281
0
282
0
283
0
284
8
285
0
286
0
288
0
289
3
290
0
371
-2
372
-2
  0
DIMSTYLE
105
73
330
4
100
AcDbSymbolTableRecord
100
AcDbDimStyleTableRecord
  2
EZDXF
 70
0
 40
1.0
 41
0.175
 42
0.125
 43
3.75
 44
0.375
 45
0.0
 46
0.0
 47
0.0
 48
0.0
 49
2.5
140
0.25
141
2.5
142
0.0
143
0.03937007874
144
100.0
145
0.0
146
0.5
147
0.1
148
0.0
 69
0
 70
0
 71
0
 72
0
 73
0
 74
0
 75
0
 76
0
 77
1
 78
12
 79
3
170
0
171
3
172
1
173
0
174
0
175
0
176
0
177
0
178
0
179
2
271
2
272
2
273
2
274
3
275
0
276
0
277
2
278
46
279
2
280
0
281
0
282
0
283
0
284
8
285
0
286
0
288
1
289
3
290
0
340
4C
342
74
371
-2
372
-2
  0
DIMSTYLE
105
7C
330
4
100
AcDbSymbolTableRecord
100
AcDbDimStyleTableRecord
  2
EZ_M_100_H25_CM
 70
0
 40
1.0
 41
0.25
 42
0.125
 43
3.75
 44
0.375
 45
0.0
 46
0.0
 47
0.0
 48
0.0
 49
2.5
140
0.25
141
2.5
142
0.125
143
0.03937007874
144
100.0
145
0.0
146
0.5
147
0.1
148
0.0
 69
0
 70
0
 71
0
 72
0
 73
0
 74
0
 75
0
 76
0
 77
1
 78
12
 79
3
170
0
171
3
172
1
173
0
174
0
175
0
176
0
177
0
178
0
179
2
271
2
272
2
273
2
274
3
275
0
276
0
277
2
278
46
279
2
280
0
281
0
282
0
283
0
284
8
285
0
286
0
288
1
289
3
290
0
340
4C
371
-2
372
-2
  0
DIMSTYLE
105
7D
330
4
100
AcDbSymbolTableRecord
100
AcDbDimStyleTableRecord
  2
EZ_M_50_H25_CM
 70
0
 40
1.0
 41
0.125
 42
0.0625
 43
3.75
 44
0.1875
 45
0.0
 46
0.0
 47
0.0
 48
0.0
 49
2.5
140
0.125
141
2.5
142
0.0625
143
0.03937007874
144
100.0
145
0.0
146
0.5
147
0.05
148
0.0
 69
0
 70
0
 71
0
 72
0
 73
0
 74
0
 75
0
 76
0
 77
1
 78
12
 79
3
170
0
171
3
172
1
173
0
174
0
175
0
176
0
177
0
178
0
179
2
271
2
272
2
273
2
274
3
275
0
276
0
277
2
278
46
279
2
280
0
281
0
282
0
283
0
284
8
285
0
286
0
288
1
289
3
290
0
340
4C
371
-2
372
-2
  0
DIMSTYLE
105
7E
330
4
100
AcDbSymbolTableRecord
100
AcDbDimStyleTableRecord
  2
EZ_M_25_H25_CM
 70
0
 40
1.0
 41
0.0625
 42
0.03125
 43
3.75
 44
0.09375
 45
0.0
 46
0.0
 47
0.0
 48
0.0
 49
2.5
140
0.0625
141
2.5
142
0.03125
143
0.03937007874
144
100.0
145
0.0
146
0.5
147
0.025
148
0.0
 69
0
 70
0
 71
0
 72
0
 73
0
 74
0
 75
0
 76
0
 77
1
 78
12
 79
3
170
0
171
3
172
1
173
0
174
0
175
0
176
0
177
0
178
0
179
2
271
2
272
2
273
2
274
3
275
0
276
0
277
2
278
46
279
2
280
0
281
0
282
0
283
0
284
8
285
0
286
0
288
1
289
3
290
0
340
4C
371
-2
372
-2
  0
DIMSTYLE
105
7F
330
4
100
AcDbSymbolTableRecord
100
AcDbDimStyleTableRecord
  2
EZ_M_20_H25_CM
 70
0
 40
1.0
 41
0.05
 42
0.025
 43
3.75
 44
0.07500000000000001
 45
0.0
 46
0.0
 47
0.0
 48
0.0
 49
2.5
140
0.05
141
2.5
142
0.025
143
0.03937007874
144
100.0
145
0.0
146
0.5
147
0.020000000000000004
148
0.0
 69
0
 70
0
 71
0
 72
0
 73
0
 74
0
 75
0
 76
0
 77
1
 78
12
 79
3
170
0
171
3
172
1
173
0
174
0
175
0
176
0
177
0
178
0
179
2
271
2
272
2
273
2
274
3
275
0
276
0
277
2
278
46
279
2
280
0
281
0
282
0
283
0
284
8
285
0
286
0
288
1
289
3
290
0
340
4C
371
-2
372
-2
  0
DIMSTYLE
105
80
330
4
100
AcDbSymbolTableRecord
100
AcDbDimStyleTableRecord
  2
EZ_M_10_H25_CM
 70
0
 40
1.0
 41
0.025
 42
0.0125
 43
3.75
 44
0.037500000000000006
 45
0.0
 46
0.0
 47
0.0
 48
0.0
 49
2.5
140
0.025
141
2.5
142
0.0125
143
0.03937007874
144
100.0
145
0.0
146
0.5
147
0.010000000000000002
148
0.0
 69
0
 70
0
 71
0
 72
0
 73
0
 74
0
 75
0
 76
0
 77
1
 78
12
 79
3
170
0
171
3
172
1
173
0
174
0
175
0
176
0
177
0
178
0
179
2
271
2
272
2
273
2
274
3
275
0
276
0
277
2
278
46
279
2
280
0
281
0
282
0
283
0
284
8
285
0
286
0
288
1
289
3
290
0
340
4C
371
-2
372
-2
  0
DIMSTYLE
105
81
330
4
100
AcDbSymbolTableRecord
100
AcDbDimStyleTableRecord
  2
EZ_M_5_H25_CM
 70
0
 40
1.0
 41
0.0125
 42
0.00625
 43
3.75
 44
0.018750000000000003
 45
0.0
 46
0.0
 47
0.0
 48
0.0
 49
2.5
140
0.0125
141
2.5
142
0.00625
143
0.03937007874
144
100.0
145
0.0
146
0.5
147
0.005000000000000001
148
0.0
 69
0
 70
0
 71
0
 72
0
 73
0
 74
0
 75
0
 76
0
 77
1
 78
12
 79
3
170
0
171
3
172
1
173
0
174
0
175
0
176
0
177
0
178
0
179
2
271
2
272
2
273
2
274
3
275
0
276
0
277
2
278
46
279
2
280
0
281
0
282
0
283
0
284
8
285
0
286
0
288
1
289
3
290
0
340
4C
371
-2
372
-2
  0
DIMSTYLE
105
82
330
4
100
AcDbSymbolTableRecord
100
AcDbDimStyleTableRecord
  2
EZ_M_1_H25_CM
 70
0
 40
1.0
 41
0.0025
 42
0.00125
 43
3.75
 44
0.00375
 45
0.0
 46
0.0
 47
0.0
 48
0.0
 49
2.5
140
0.0025
141
2.5
142
0.00125
143
0.03937007874
144
100.0
145
0.0
146
0.5
147
0.001
148
0.0
 69
0
 70
0
 71
0
 72
0
 73
0
 74
0
 75
0
 76
0
 77
1
 78
12
 79
3
170
0
171
3
172
1
173
0
174
0
175
0
176
0
177
0
178
0
179
2
271
2
272
2
273
2
274
3
275
0
276
0
277
2
278
46
279
2
280
0
281
0
282
0
283
0
284
8
285
0
286
0
288
1
289
3
290
0
340
4C
371
-2
372
-2
  0
DIMSTYLE
105
83
330
4
100
AcDbSymbolTableRecord
100
AcDbDimStyleTableRecord
  2
EZ_RADIUS
 70
0
 40
1.0
 41
0.25
 42
0.125
 43
3.75
 44
0.375
 45
0.0
 46
0.0
 47
0.0
 48
0.0
 49
2.5
140
0.25
141
0.0
142
0.0
143
0.03937007874
144
100.0
145
0.0
146
0.5
147
0.1
148
0.0
 69
0
 70
0
 71
0
 72
0
 73
0
 74
0
 75
0
 76
0
 77
1
 78
12
 79
3
170
0
171
3
172
0
173
0
174
0
175
0
176
0
177
0
178
0
179
2
271
2
272
2
273
2
274
3
275
0
276
0
277
2
278
46
279
1
280
0
281
0
282
0
283
0
284
8
285
0
286
0
288
1
289
3
290
0
340
4C
342
84
371
-2
372
-2
  0
DIMSTYLE
105
88
330
4
100
AcDbSymbolTableRecord
100
AcDbDimStyleTableRecord
  2
EZ_RADIUS_INSIDE
 70
0
 40
1.0
 41
0.25
 42
0.125
 43
3.75
 44
0.375
 45
0.0
 46
0.0
 47
0.0
 48
0.0
 49
2.5
140
0.25
141
0.0
142
0.0
143
0.03937007874
144
100.0
145
0.0
146
0.5
147
0.1
148
0.0
 69
0
 70
0
 71
0
 72
0
 73
0
 74
0
 75
0
 76
0
 77
0
 78
12
 79
3
170
0
171
3
172
0
173
0
174
1
175
0
176
0
177
0
178
0
179
2
271
2
272
2
273
2
274
3
275
0
276
0
277
2
278
46
279
0
280
0
281
0
282
0
283
0
284
8
285
0
286
0
288
1
289
0
290
0
340
4C
342
84
371
-2
372
-2
  0
DIMSTYLE
105
89
330
4
100
AcDbSymbolTableRecord
100
AcDbDimStyleTableRecord
  2
EZ_CURVED
 70
0
 40
1.0
 41
0.25
 42
0.125
 43
3.75
 44
0.375
 45
0.0
 46
0.0
 47
0.0
 48
0.0
 49
2.5
140
0.25
141
2.5
142
0.0
143
0.03937007874
144
100.0
145
0.0
146
0.5
147
0.1
148
0.0
 69
0
 70
0
 71
0
 72
0
 73
0
 74
0
 75
0
 76
0
 77
1
 78
12
 79
2
 90
2
170
0
171
3
172
1
173
0
174
0
175
0
176
0
177
0
178
0
179
2
271
2
272
2
273
2
274
3
275
0
276
0
277
2
278
46
279
2
280
0
281
0
282
0
283
0
284
8
285
0
286
0
288
1
289
3
290
0
340
4C
371
-2
372
-2
  0
ENDTAB
  0
TABLE
  2
BLOCK_RECORD
  5
9
330
0
100
AcDbSymbolTable
 70
5
  0
BLOCK_RECORD
  5
17
330
9
100
AcDbSymbolTableRecord
100
AcDbBlockTableRecord
  2
*Model_Space
340
1A
 70
0
280
1
281
0
  0
BLOCK_RECORD
  5
1B
330
9
100
AcDbSymbolTableRecord
100
AcDbBlockTableRecord
  2
*Paper_Space
340
1E
 70
0
280
1
281
0
  0
BLOCK_RECORD
  5
74
330
9
100
AcDbSymbolTableRecord
100
AcDbBlockTableRecord
  2
_ARCHTICK
340
0
 70
0
280
1
281
0
  0
BLOCK_RECORD
  5
78
330
9
100
AcDbSymbolTableRecord
100
AcDbBlockTableRecord
  2
_CLOSEDFILLED
340
0
 70
0
280
1
281
0
  0
BLOCK_RECORD
  5
84
330
9
100
AcDbSymbolTableRecord
100
AcDbBlockTableRecord
  2
_CLOSEDBLANK
340
0
 70
0
280
1
281
0
  0
ENDTAB
  0
ENDSEC
  0
SECTION
  2
BLOCKS
  0
BLOCK
  5
18
330
17
100
AcDbEntity
  8
0
100
AcDbBlockBegin
  2
*Model_Space
 70
0
 10
0.0
 20
0.0
 30
0.0
  3
*Model_Space
  1

  0
ENDBLK
  5
19
330
17
100
AcDbEntity
  8
0
100
AcDbBlockEnd
  0
BLOCK
  5
1C
330
1B
100
AcDbEntity
  8
0
100
AcDbBlockBegin
  2
*Paper_Space
 70
0
 10
0.0
 20
0.0
 30
0.0
  3
*Paper_Space
  1

  0
ENDBLK
  5
1D
330
1B
100
AcDbEntity
  8
0
100
AcDbBlockEnd
  0
BLOCK
  5
75
330
74
100
AcDbEntity
  8
0
100
AcDbBlockBegin
  2
_ARCHTICK
 70
0
 10
0.0
 20
0.0
 30
0.0
  3
_ARCHTICK
  1

  0
LWPOLYLINE
  5
77
330
74
100
AcDbEntity
  8
0
  6
BYBLOCK
 62
0
100
AcDbPolyline
 90
2
 70
0
 43
0.15
 10
-0.5
 20
-0.5
 10
0.5
 20
0.5
  0
ENDBLK
  5
76
330
74
100
AcDbEntity
  8
0
100
AcDbBlockEnd
  0
BLOCK
  5
79
330
78
100
AcDbEntity
  8
0
100
AcDbBlockBegin
  2
_CLOSEDFILLED
 70
0
 10
0.0
 20
0.0
 30
0.0
  3
_CLOSEDFILLED
  1

  0
SOLID
  5
7B
330
78
100
AcDbEntity
  8
0
  6
BYBLOCK
 62
0
100
AcDbTrace
 10
-1.0
 20
0.16439898372402537
 30
0.0
 11
0.0
 21
0.0
 31
0.0
 12
-1.0
 22
-0.16439898372402537
 32
0.0
 13
-1.0
 23
-0.16439898372402537
 33
0.0
  0
ENDBLK
  5
7A
330
78
100
AcDbEntity
  8
0
100
AcDbBlockEnd
  0
BLOCK
  5
85
330
84
100
AcDbEntity
  8
0
100
AcDbBlockBegin
  2
_CLOSEDBLANK
 70
0
 10
0.0
 20
0.0
 30
0.0
  3
_CLOSEDBLANK
  1

  0
LWPOLYLINE
  5
87
330
84
100
AcDbEntity
  8
0
  6
BYBLOCK
 62
0
100
AcDbPolyline
 90
3
 70
1
 10
-1.0
 20
0.16439898372402537
 10
0.0
 20
0.0
 10
-1.0
 20
-0.16439898372402537
  0
ENDBLK
  5
86
330
84
100
AcDbEntity
  8
0
100
AcDbBlockEnd
  0
ENDSEC
  0
SECTION
  2
ENTITIES
  0
LWPOLYLINE
  5
8D
330
17
100
AcDbEntity
  8
CORTE
100
AcDbPolyline
 90
5
 70
1
 10
0.0
 20
0.0
 10
0.0
 20
146.0
 10
445.2
 20
146.0
 10
445.2
 20
0.0
 10
0.0
 20
0.0
  0
LWPOLYLINE
  5
8E
330
17
100
AcDbEntity
  8
CORTE
100
AcDbPolyline
 90
97
 70
1
 10
202.97216600210186
 20
46.85024067999187
 10
202.88878319785954
 20
47.69684049886068
 10
202.750208645242
 20
48.53617418620967
 10
202.5570357417579
 20
49.36464758633278
 10
202.31009168343638
 20
50.178713048941106
 10
202.0104339226467
 20
50.974884620746174
 10
201.65934563992494
 20
51.74975297284703
 10
201.25833024919768
 20
52.5
 10
200.80910495993308
 20
53.22241302925484
 10
200.31359342378605
 20
53.91389857711337
 10
199.7739174972267
 20
54.571495596300906
 10
199.1923881554251
 20
55.19238815542512
 10
198.57149559630088
 20
55.773917497226705
 10
197.91389857711337
 20
56.31359342378606
 10
197.22241302925482
 20
56.809104959933094
 10
196.5
 20
57.25833024919771
 10
195.749752972847
 20
57.65934563992495
 10
194.97488462074617
 20
58.010433922646726
 10
194.1787130489411
 20
58.31009168343637
 10
193.36464758633275
 20
58.557035741757886
 10
192.53617418620965
 20
58.750208645242
 10
191.69684049886067
 20
58.88878319785954
 10
190.85024067999186
 20
58.972166002101844
 10
190.0
 20
59.0
 10
189.14975932000814
 20
58.972166002101844
 10
188.3031595011393
 20
58.88878319785954
 10
187.46382581379032
 20
58.750208645242
 10
186.63535241366722
 20
58.557035741757886
 10
185.8212869510589
 20
58.31009168343637
 10
185.02511537925383
 20
58.010433922646726
 10
184.250247027153
 20
57.65934563992495
 10
183.5
 20
57.2583302491977
 10
182.77758697074518
 20
56.80910495993308
 10
182.08610142288663
 20
56.31359342378606
 10
181.4285044036991
 20
55.773917497226705
 10
180.80761184457486
 20
55.19238815542511
 10
180.2260825027733
 20
54.57149559630089
 10
179.68640657621393
 20
53.91389857711336
 10
179.19089504006692
 20
53.222413029254824
 10
178.7416697508023
 20
52.5
 10
178.34065436007506
 20
51.74975297284701
 10
177.98956607735326
 20
50.97488462074616
 10
177.68990831656362
 20
50.17871304894109
 10
177.4429642582421
 20
49.364647586332765
 10
177.249791354758
 20
48.536174186209664
 10
177.11121680214046
 20
47.69684049886067
 10
177.02783399789814
 20
46.850240679991856
 10
177.0
 20
46.0
 10
177.02783399789814
 20
45.14975932000814
 10
177.11121680214046
 20
44.303159501139326
 10
177.249791354758
 20
43.46382581379033
 10
177.4429642582421
 20
42.63535241366723
 10
177.68990831656362
 20
41.821286951058894
 10
177.98956607735326
 20
41.02511537925383
 10
178.34065436007506
 20
40.25024702715298
 10
178.7416697508023
 20
39.49999999999999
 10
179.19089504006692
 20
38.77758697074517
 10
179.68640657621395
 20
38.08610142288663
 10
180.2260825027733
 20
37.4285044036991
 10
180.8076118445749
 20
36.80761184457488
 10
181.42850440369912
 20
36.22608250277329
 10
182.08610142288663
 20
35.68640657621394
 10
182.77758697074518
 20
35.190895040066906
 10
183.5
 20
34.741669750802295
 10
184.250247027153
 20
34.34065436007505
 10
185.02511537925383
 20
33.989566077353274
 10
185.8212869510589
 20
33.689908316563624
 10
186.63535241366722
 20
33.442964258242114
 10
187.46382581379032
 20
33.249791354758
 10
188.30315950113933
 20
33.11121680214046
 10
189.14975932000814
 20
33.027833997898156
 10
190.0
 20
33.0
 10
190.85024067999186
 20
33.027833997898156
 10
191.69684049886067
 20
33.11121680214046
 10
192.53617418620968
 20
33.249791354758
 10
193.36464758633278
 20
33.442964258242114
 10
194.1787130489411
 20
33.68990831656363
 10
194.97488462074617
 20
33.989566077353274
 10
195.749752972847
 20
34.34065436007505
 10
196.5
 20
34.7416697508023
 10
197.22241302925482
 20
35.19089504006691
 10
197.91389857711337
 20
35.68640657621394
 10
198.5714955963009
 20
36.226082502773295
 10
199.1923881554251
 20
36.80761184457488
 10
199.7739174972267
 20
37.42850440369911
 10
200.31359342378605
 20
38.086101422886635
 10
200.80910495993308
 20
38.77758697074517
 10
201.2583302491977
 20
39.5
 10
201.65934563992494
 20
40.25024702715298
 10
202.01043392264674
 20
41.02511537925383
 10
202.31009168343638
 20
41.8212869510589
 10
202.5570357417579
 20
42.63535241366723
 10
202.750208645242
 20
43.463825813790336
 10
202.88878319785954
 20
44.303159501139326
 10
202.97216600210186
 20
45.14975932000814
 10
203.0
 20
46.0
 10
202.97216600210186
 20
46.85024067999187
  0
TEXT
  5
8F
330
17
100
AcDbEntity
  8
TEXTO
100
AcDbText
 10
0.0
 20
-22.0
 30
0.0
 40
8.0
  1
placa_extremo
 11
0.0
 21
-22.0
 31
0.0
100
AcDbText
  0
LWPOLYLINE
  5
90
330
17
100
AcDbEntity
  8
CORTE
100
AcDbPolyline
 90
43
 70
1
 10
865.2479284741596
 20
0.28500000000000725
 10
864.9376187630436
 20
0.7494113018672444
 10
864.5693459556666
 20
1.1693459556665644
 10
864.1494113018673
 20
1.5376187630435822
 10
863.685
 20
1.847928474159561
 10
863.184058256199
 20
2.0949656038232014
 10
862.6551573225878
 20
2.274503278254328
 10
862.1073468407797
 20
2.383469558066177
 10
861.55
 20
2.420000000000006
 10
860.9926531592204
 20
2.383469558066176
 10
860.4448426774122
 20
2.2745032782543273
 10
859.9159417438011
 20
2.0949656038231996
 10
859.415
 20
1.8479284741595574
 10
858.9505886981328
 20
1.5376187630435787
 10
858.5306540443335
 20
1.1693459556665626
 10
858.1623812369564
 20
0.7494113018672417
 10
857.8520715258405
 20
0.2850000000000046
 10
857.7115250794216
 20
0.0
 10
712.6884749205785
 20
0.0
 10
712.5479284741596
 20
0.28500000000000725
 10
712.2376187630435
 20
0.7494113018672444
 10
711.8693459556665
 20
1.1693459556665644
 10
711.4494113018673
 20
1.5376187630435822
 10
710.985
 20
1.847928474159561
 10
710.484058256199
 20
2.0949656038232014
 10
709.9551573225878
 20
2.274503278254328
 10
709.4073468407796
 20
2.383469558066177
 10
708.85
 20
2.420000000000006
 10
708.2926531592204
 20
2.383469558066176
 10
707.7448426774122
 20
2.2745032782543273
 10
707.2159417438011
 20
2.0949656038231996
 10
706.715
 20
1.8479284741595574
 10
706.2505886981328
 20
1.5376187630435787
 10
705.8306540443334
 20
1.1693459556665626
 10
705.4623812369564
 20
0.7494113018672417
 10
705.1520715258405
 20
0.2850000000000046
 10
705.0115250794215
 20
0.0
 10
485.2
 20
0.0
 10
485.2
 20
153.0
 10
930.4
 20
153.0
 10
930.4
 20
0.0
 10
865.3884749205786
 20
0.0
 10
865.2479284741596
 20
0.28500000000000725
  0
LWPOLYLINE
  5
91
330
17
100
AcDbEntity
  8
CORTE
100
AcDbPolyline
 90
97
 70
1
 10
687.2104339226466
 20
57.974884620746174
 10
686.8593456399249
 20
58.74975297284703
 10
686.4583302491976
 20
59.5
 10
686.0091049599331
 20
60.22241302925484
 10
685.513593423786
 20
60.91389857711337
 10
684.9739174972267
 20
61.571495596300906
 10
684.3923881554251
 20
62.19238815542512
 10
683.7714955963008
 20
62.773917497226705
 10
683.1138985771133
 20
63.31359342378606
 10
682.4224130292548
 20
63.809104959933094
 10
681.7
 20
64.25833024919771
 10
680.949752972847
 20
64.65934563992495
 10
680.1748846207462
 20
65.01043392264673
 10
679.3787130489411
 20
65.31009168343637
 10
678.5646475863327
 20
65.55703574175789
 10
677.7361741862096
 20
65.750208645242
 10
676.8968404988607
 20
65.88878319785954
 10
676.0502406799918
 20
65.97216600210184
 10
675.2
 20
66.0
 10
674.3497593200082
 20
65.97216600210184
 10
673.5031595011393
 20
65.88878319785954
 10
672.6638258137903
 20
65.750208645242
 10
671.8353524136672
 20
65.55703574175789
 10
671.0212869510589
 20
65.31009168343637
 10
670.2251153792538
 20
65.01043392264673
 10
669.450247027153
 20
64.65934563992495
 10
668.7
 20
64.2583302491977
 10
667.9775869707452
 20
63.80910495993308
 10
667.2861014228866
 20
63.31359342378606
 10
666.628504403699
 20
62.773917497226705
 10
666.0076118445749
 20
62.19238815542511
 10
665.4260825027733
 20
61.57149559630089
 10
664.8864065762139
 20
60.91389857711336
 10
664.3908950400669
 20
60.222413029254824
 10
663.9416697508022
 20
59.5
 10
663.540654360075
 20
58.74975297284701
 10
663.1895660773532
 20
57.97488462074616
 10
662.8899083165636
 20
57.17871304894109
 10
662.642964258242
 20
56.364647586332765
 10
662.449791354758
 20
55.536174186209664
 10
662.3112168021405
 20
54.69684049886067
 10
662.2278339978982
 20
53.850240679991856
 10
662.2
 20
53.0
 10
662.2278339978982
 20
52.14975932000814
 10
662.3112168021405
 20
51.303159501139326
 10
662.449791354758
 20
50.46382581379033
 10
662.642964258242
 20
49.63535241366723
 10
662.8899083165636
 20
48.821286951058894
 10
663.1895660773532
 20
48.02511537925383
 10
663.540654360075
 20
47.25024702715298
 10
663.9416697508022
 20
46.49999999999999
 10
664.3908950400669
 20
45.77758697074517
 10
664.886406576214
 20
45.08610142288663
 10
665.4260825027733
 20
44.4285044036991
 10
666.0076118445749
 20
43.80761184457488
 10
666.6285044036991
 20
43.22608250277329
 10
667.2861014228866
 20
42.68640657621394
 10
667.9775869707452
 20
42.190895040066906
 10
668.7
 20
41.741669750802295
 10
669.450247027153
 20
41.34065436007505
 10
670.2251153792538
 20
40.989566077353274
 10
671.0212869510589
 20
40.689908316563624
 10
671.8353524136672
 20
40.442964258242114
 10
672.6638258137903
 20
40.249791354758
 10
673.5031595011393
 20
40.11121680214046
 10
674.3497593200082
 20
40.027833997898156
 10
675.2
 20
40.0
 10
676.0502406799918
 20
40.027833997898156
 10
676.8968404988607
 20
40.11121680214046
 10
677.7361741862096
 20
40.249791354758
 10
678.5646475863327
 20
40.442964258242114
 10
679.3787130489411
 20
40.68990831656363
 10
680.1748846207462
 20
40.989566077353274
 10
680.949752972847
 20
41.34065436007505
 10
681.7
 20
41.7416697508023
 10
682.4224130292548
 20
42.19089504006691
 10
683.1138985771133
 20
42.68640657621394
 10
683.7714955963008
 20
43.226082502773295
 10
684.3923881554251
 20
43.80761184457488
 10
684.9739174972267
 20
44.42850440369911
 10
685.513593423786
 20
45.086101422886635
 10
686.0091049599331
 20
45.77758697074517
 10
686.4583302491977
 20
46.5
 10
686.8593456399249
 20
47.25024702715298
 10
687.2104339226468
 20
48.02511537925383
 10
687.5100916834364
 20
48.8212869510589
 10
687.7570357417578
 20
49.63535241366723
 10
687.950208645242
 20
50.463825813790336
 10
688.0887831978596
 20
51.303159501139326
 10
688.1721660021019
 20
52.14975932000814
 10
688.2
 20
53.0
 10
688.1721660021019
 20
53.85024067999187
 10
688.0887831978596
 20
54.69684049886068
 10
687.950208645242
 20
55.53617418620967
 10
687.7570357417578
 20
56.36464758633278
 10
687.5100916834364
 20
57.178713048941106
 10
687.2104339226466
 20
57.974884620746174
  0
LWPOLYLINE
  5
92
330
17
100
AcDbEntity
  8
CORTE
100
AcDbPolyline
 90
97
 70
1
 10
804.8488001870235
 20
74.6698689050406
 10
804.3705002996091
 20
75.94068122157563
 10
803.8101093868033
 20
77.17749032204429
 10
803.1700271285271
 20
78.37500000000001
 10
802.4529944552778
 20
79.52808233515677
 10
801.6620818110431
 20
80.63179965193096
 10
800.8006760051887
 20
81.68142566332644
 10
799.8724657096209
 20
82.67246570962087
 10
798.8814256633264
 20
83.60067600518879
 10
797.8317996519309
 20
84.46208181104313
 10
796.7280823351567
 20
85.25299445527781
 10
795.575
 20
85.97002712852711
 10
794.3774903220442
 20
86.61010938680329
 10
793.1406812215755
 20
87.1705002996092
 10
791.8698689050406
 20
87.64880018702344
 10
790.5704951858772
 20
88.04296089549817
 10
789.2481241818346
 20
88.35129456836704
 10
787.908418488566
 20
88.57248087350656
 10
786.5571149315255
 20
88.70557265720103
 10
785.2
 20
88.75
 10
783.8428850684745
 20
88.70557265720102
 10
782.4915815114339
 20
88.57248087350656
 10
781.1518758181653
 20
88.35129456836702
 10
779.8295048141226
 20
88.04296089549817
 10
778.5301310949594
 20
87.64880018702344
 10
777.2593187784244
 20
87.17050029960919
 10
776.0225096779557
 20
86.61010938680329
 10
774.825
 20
85.9700271285271
 10
773.6719176648432
 20
85.2529944552778
 10
772.568200348069
 20
84.46208181104312
 10
771.5185743366735
 20
83.60067600518877
 10
770.5275342903791
 20
82.67246570962085
 10
769.5993239948111
 20
81.68142566332642
 10
768.7379181889569
 20
80.63179965193095
 10
767.9470055447222
 20
79.52808233515674
 10
767.2299728714729
 20
78.375
 10
766.5898906131968
 20
77.17749032204428
 10
766.0294997003907
 20
75.9406812215756
 10
765.5511998129766
 20
74.66986890504059
 10
765.1570391045018
 20
73.3704951858773
 10
764.8487054316329
 20
72.04812418183465
 10
764.6275191264934
 20
70.70841848856607
 10
764.494427342799
 20
69.35711493152546
 10
764.45
 20
68.0
 10
764.494427342799
 20
66.64288506847453
 10
764.6275191264934
 20
65.29158151143392
 10
764.8487054316329
 20
63.951875818165334
 10
765.1570391045018
 20
62.62950481412268
 10
765.5511998129766
 20
61.3301310949594
 10
766.0294997003907
 20
60.059318778424384
 10
766.5898906131968
 20
58.822509677955715
 10
767.2299728714729
 20
57.62499999999999
 10
767.9470055447222
 20
56.47191766484325
 10
768.7379181889569
 20
55.36820034806904
 10
769.5993239948111
 20
54.31857433667357
 10
770.5275342903792
 20
53.327534290379134
 10
771.5185743366735
 20
52.39932399481121
 10
772.568200348069
 20
51.537918188956866
 10
773.6719176648432
 20
50.747005544722185
 10
774.825
 20
50.02997287147289
 10
776.0225096779557
 20
49.38989061319671
 10
777.2593187784244
 20
48.8294997003908
 10
778.5301310949594
 20
48.35119981297656
 10
779.8295048141226
 20
47.95703910450183
 10
781.1518758181653
 20
47.64870543163296
 10
782.4915815114339
 20
47.427519126493436
 10
783.8428850684745
 20
47.29442734279898
 10
785.2
 20
47.25
 10
786.5571149315255
 20
47.29442734279898
 10
787.908418488566
 20
47.427519126493436
 10
789.2481241818347
 20
47.64870543163297
 10
790.5704951858772
 20
47.95703910450183
 10
791.8698689050407
 20
48.35119981297656
 10
793.1406812215756
 20
48.8294997003908
 10
794.3774903220442
 20
49.38989061319672
 10
795.575
 20
50.0299728714729
 10
796.7280823351567
 20
50.747005544722185
 10
797.831799651931
 20
51.537918188956866
 10
798.8814256633264
 20
52.39932399481122
 10
799.8724657096209
 20
53.32753429037914
 10
800.8006760051887
 20
54.31857433667357
 10
801.6620818110431
 20
55.36820034806905
 10
802.4529944552778
 20
56.471917664843254
 10
803.1700271285271
 20
57.625
 10
803.8101093868033
 20
58.82250967795572
 10
804.3705002996091
 20
60.059318778424384
 10
804.8488001870235
 20
61.3301310949594
 10
805.2429608954981
 20
62.6295048141227
 10
805.551294568367
 20
63.951875818165334
 10
805.7724808735065
 20
65.29158151143393
 10
805.905572657201
 20
66.64288506847453
 10
805.95
 20
68.0
 10
805.905572657201
 20
69.35711493152549
 10
805.7724808735065
 20
70.7084184885661
 10
805.551294568367
 20
72.04812418183467
 10
805.2429608954981
 20
73.37049518587732
 10
804.8488001870235
 20
74.6698689050406
  0
LWPOLYLINE
  5
93
330
17
100
AcDbEntity
  8
CORTE
100
AcDbPolyline
 90
49
 70
1
 10
712.7949656038231
 20
139.48405825619892
 10
712.5479284741596
 20
139.98499999999999
 10
712.2376187630435
 20
140.44941130186723
 10
711.8693459556665
 20
140.86934595566655
 10
711.4494113018673
 20
141.23761876304357
 10
710.985
 20
141.54792847415956
 10
710.484058256199
 20
141.7949656038232
 10
709.9551573225878
 20
141.9745032782543
 10
709.4073468407796
 20
142.08346955806616
 10
708.85
 20
142.12
 10
708.2926531592204
 20
142.08346955806616
 10
707.7448426774122
 20
141.9745032782543
 10
707.2159417438011
 20
141.7949656038232
 10
706.715
 20
141.54792847415953
 10
706.2505886981328
 20
141.23761876304357
 10
705.8306540443334
 20
140.86934595566655
 10
705.4623812369564
 20
140.44941130186723
 10
705.1520715258405
 20
139.98499999999999
 10
704.9050343961768
 20
139.48405825619892
 10
704.7254967217457
 20
138.95515732258775
 10
704.6165304419338
 20
138.4073468407796
 10
704.5799999999999
 20
137.85
 10
704.6165304419338
 20
137.29265315922038
 10
704.7254967217457
 20
136.74484267741224
 10
704.9050343961768
 20
136.21594174380107
 10
705.1520715258405
 20
135.715
 10
705.4623812369564
 20
135.25058869813276
 10
705.8306540443334
 20
134.83065404433344
 10
706.2505886981328
 20
134.46238123695642
 10
706.715
 20
134.15207152584043
 10
707.2159417438011
 20
133.9050343961768
 10
707.7448426774122
 20
133.72549672174569
 10
708.2926531592204
 20
133.61653044193383
 10
708.85
 20
133.57999999999998
 10
709.4073468407796
 20
133.61653044193383
 10
709.9551573225878
 20
133.72549672174569
 10
710.484058256199
 20
133.9050343961768
 10
710.985
 20
134.15207152584046
 10
711.4494113018673
 20
134.46238123695642
 10
711.8693459556665
 20
134.83065404433344
 10
712.2376187630435
 20
135.25058869813276
 10
712.5479284741596
 20
135.715
 10
712.7949656038231
 20
136.21594174380107
 10
712.9745032782544
 20
136.74484267741224
 10
713.0834695580661
 20
137.29265315922038
 10
713.12
 20
137.85
 10
713.0834695580661
 20
138.4073468407796
 10
712.9745032782544
 20
138.95515732258775
 10
712.7949656038231
 20
139.48405825619892
  0
LWPOLYLINE
  5
94
330
17
100
AcDbEntity
  8
CORTE
100
AcDbPolyline
 90
49
 70
1
 10
865.7834695580661
 20
138.4073468407796
 10
865.6745032782544
 20
138.95515732258775
 10
865.4949656038232
 20
139.48405825619892
 10
865.2479284741596
 20
139.98499999999999
 10
864.9376187630436
 20
140.44941130186723
 10
864.5693459556666
 20
140.86934595566655
 10
864.1494113018673
 20
141.23761876304357
 10
863.685
 20
141.54792847415956
 10
863.184058256199
 20
141.7949656038232
 10
862.6551573225878
 20
141.9745032782543
 10
862.1073468407797
 20
142.08346955806616
 10
861.55
 20
142.12
 10
860.9926531592204
 20
142.08346955806616
 10
860.4448426774122
 20
141.9745032782543
 10
859.9159417438011
 20
141.7949656038232
 10
859.415
 20
141.54792847415953
 10
858.9505886981328
 20
141.23761876304357
 10
858.5306540443335
 20
140.86934595566655
 10
858.1623812369564
 20
140.44941130186723
 10
857.8520715258405
 20
139.98499999999999
 10
857.6050343961767
 20
139.48405825619892
 10
857.4254967217457
 20
138.95515732258775
 10
857.3165304419338
 20
138.4073468407796
 10
857.28
 20
137.85
 10
857.3165304419338
 20
137.29265315922038
 10
857.4254967217457
 20
136.74484267741224
 10
857.6050343961767
 20
136.21594174380107
 10
857.8520715258405
 20
135.715
 10
858.1623812369564
 20
135.25058869813276
 10
858.5306540443335
 20
134.83065404433344
 10
858.9505886981328
 20
134.46238123695642
 10
859.415
 20
134.15207152584043
 10
859.9159417438011
 20
133.9050343961768
 10
860.4448426774122
 20
133.72549672174569
 10
860.9926531592204
 20
133.61653044193383
 10
861.55
 20
133.57999999999998
 10
862.1073468407797
 20
133.61653044193383
 10
862.6551573225878
 20
133.72549672174569
 10
863.184058256199
 20
133.9050343961768
 10
863.685
 20
134.15207152584046
 10
864.1494113018673
 20
134.46238123695642
 10
864.5693459556666
 20
134.83065404433344
 10
864.9376187630436
 20
135.25058869813276
 10
865.2479284741596
 20
135.715
 10
865.4949656038232
 20
136.21594174380107
 10
865.6745032782544
 20
136.74484267741224
 10
865.7834695580661
 20
137.29265315922038
 10
865.8199999999999
 20
137.85
 10
865.7834695580661
 20
138.4073468407796
  0
TEXT
  5
95
330
17
100
AcDbEntity
  8
TEXTO
100
AcDbText
 10
485.2
 20
-22.0
 30
0.0
 40
8.0
  1
mampara_motores
 11
485.2
 21
-22.0
 31
0.0
100
AcDbText
  0
LWPOLYLINE
  5
96
330
17
100
AcDbEntity
  8
CORTE
100
AcDbPolyline
 90
5
 70
1
 10
1449.4
 20
0.0
 10
1449.4
 20
88.0
 10
970.4
 20
88.0
 10
970.4
 20
0.0
 10
1449.4
 20
0.0
  0
TEXT
  5
97
330
17
100
AcDbEntity
  8
TEXTO
100
AcDbText
 10
970.4
 20
-22.0
 30
0.0
 40
8.0
  1
pantalla_tren
 11
970.4
 21
-22.0
 31
0.0
100
AcDbText
  0
LWPOLYLINE
  5
98
330
17
100
AcDbEntity
  8
CORTE
100
AcDbPolyline
 90
5
 70
1
 10
1489.4
 20
0.0
 10
1489.4
 20
150.0
 10
1613.4
 20
150.0
 10
1613.4
 20
0.0
 10
1489.4
 20
0.0
  0
LWPOLYLINE
  5
99
330
17
100
AcDbEntity
  8
CORTE
100
AcDbPolyline
 90
97
 70
1
 10
1571.0488001870235
 20
74.6698689050406
 10
1570.5705002996092
 20
75.94068122157563
 10
1570.0101093868034
 20
77.17749032204429
 10
1569.3700271285272
 20
78.37500000000001
 10
1568.6529944552778
 20
79.52808233515677
 10
1567.8620818110433
 20
80.63179965193096
 10
1567.0006760051888
 20
81.68142566332644
 10
1566.072465709621
 20
82.67246570962087
 10
1565.0814256633266
 20
83.60067600518879
 10
1564.0317996519311
 20
84.46208181104313
 10
1562.928082335157
 20
85.25299445527781
 10
1561.775
 20
85.97002712852711
 10
1560.5774903220445
 20
86.61010938680329
 10
1559.3406812215758
 20
87.1705002996092
 10
1558.0698689050407
 20
87.64880018702344
 10
1556.7704951858773
 20
88.04296089549817
 10
1555.4481241818348
 20
88.35129456836704
 10
1554.1084184885663
 20
88.57248087350656
 10
1552.7571149315256
 20
88.70557265720103
 10
1551.4
 20
88.75
 10
1550.0428850684746
 20
88.70557265720102
 10
1548.691581511434
 20
88.57248087350656
 10
1547.3518758181654
 20
88.35129456836702
 10
1546.029504814123
 20
88.04296089549817
 10
1544.7301310949595
 20
87.64880018702344
 10
1543.4593187784244
 20
87.17050029960919
 10
1542.2225096779557
 20
86.61010938680329
 10
1541.025
 20
85.9700271285271
 10
1539.8719176648433
 20
85.2529944552778
 10
1538.768200348069
 20
84.46208181104312
 10
1537.7185743366736
 20
83.60067600518877
 10
1536.7275342903793
 20
82.67246570962085
 10
1535.7993239948114
 20
81.68142566332642
 10
1534.937918188957
 20
80.63179965193095
 10
1534.1470055447223
 20
79.52808233515674
 10
1533.429972871473
 20
78.375
 10
1532.7898906131968
 20
77.17749032204428
 10
1532.229499700391
 20
75.9406812215756
 10
1531.7511998129767
 20
74.66986890504059
 10
1531.3570391045018
 20
73.3704951858773
 10
1531.0487054316332
 20
72.04812418183465
 10
1530.8275191264936
 20
70.70841848856607
 10
1530.6944273427991
 20
69.35711493152546
 10
1530.65
 20
68.0
 10
1530.6944273427991
 20
66.64288506847453
 10
1530.8275191264936
 20
65.29158151143392
 10
1531.0487054316332
 20
63.951875818165334
 10
1531.3570391045018
 20
62.62950481412268
 10
1531.7511998129767
 20
61.3301310949594
 10
1532.229499700391
 20
60.059318778424384
 10
1532.7898906131968
 20
58.822509677955715
 10
1533.429972871473
 20
57.62499999999999
 10
1534.1470055447223
 20
56.47191766484325
 10
1534.937918188957
 20
55.36820034806904
 10
1535.7993239948114
 20
54.31857433667357
 10
1536.7275342903793
 20
53.327534290379134
 10
1537.7185743366736
 20
52.39932399481121
 10
1538.768200348069
 20
51.537918188956866
 10
1539.8719176648433
 20
50.747005544722185
 10
1541.025
 20
50.02997287147289
 10
1542.2225096779557
 20
49.38989061319671
 10
1543.4593187784244
 20
48.8294997003908
 10
1544.7301310949595
 20
48.35119981297656
 10
1546.029504814123
 20
47.95703910450183
 10
1547.3518758181654
 20
47.64870543163296
 10
1548.691581511434
 20
47.427519126493436
 10
1550.0428850684746
 20
47.29442734279898
 10
1551.4
 20
47.25
 10
1552.7571149315256
 20
47.29442734279898
 10
1554.1084184885663
 20
47.427519126493436
 10
1555.4481241818348
 20
47.64870543163297
 10
1556.7704951858773
 20
47.95703910450183
 10
1558.0698689050407
 20
48.35119981297656
 10
1559.3406812215758
 20
48.8294997003908
 10
1560.5774903220445
 20
49.38989061319672
 10
1561.775
 20
50.0299728714729
 10
1562.928082335157
 20
50.747005544722185
 10
1564.0317996519311
 20
51.537918188956866
 10
1565.0814256633266
 20
52.39932399481122
 10
1566.072465709621
 20
53.32753429037914
 10
1567.0006760051888
 20
54.31857433667357
 10
1567.8620818110433
 20
55.36820034806905
 10
1568.6529944552778
 20
56.471917664843254
 10
1569.3700271285272
 20
57.625
 10
1570.0101093868034
 20
58.82250967795572
 10
1570.5705002996092
 20
60.059318778424384
 10
1571.0488001870235
 20
61.3301310949594
 10
1571.4429608954983
 20
62.6295048141227
 10
1571.751294568367
 20
63.951875818165334
 10
1571.9724808735066
 20
65.29158151143393
 10
1572.105572657201
 20
66.64288506847453
 10
1572.15
 20
68.0
 10
1572.105572657201
 20
69.35711493152549
 10
1571.9724808735066
 20
70.7084184885661
 10
1571.751294568367
 20
72.04812418183467
 10
1571.4429608954983
 20
73.37049518587732
 10
1571.0488001870235
 20
74.6698689050406
  0
TEXT
  5
9A
330
17
100
AcDbEntity
  8
TEXTO
100
AcDbText
 10
1489.4
 20
-22.0
 30
0.0
 40
8.0
  1
soporte_motor_A
 11
1489.4
 21
-22.0
 31
0.0
100
AcDbText
  0
LWPOLYLINE
  5
9B
330
17
100
AcDbEntity
  8
CORTE
100
AcDbPolyline
 90
5
 70
1
 10
1653.4
 20
0.0
 10
1653.4
 20
54.0
 10
1707.4
 20
54.0
 10
1707.4
 20
0.0
 10
1653.4
 20
0.0
  0
LWPOLYLINE
  5
9C
330
17
100
AcDbEntity
  8
CORTE
100
AcDbPolyline
 90
129
 70
1
 10
1694.6702900805315
 20
31.00105439695298
 10
1694.618701782329
 20
31.70041989245857
 10
1694.5328593861218
 20
32.39641165378097
 10
1694.4129696937612
 20
33.08735297580543
 10
1694.2593215300171
 20
33.77157932036786
 10
1694.0722850467741
 20
34.44744232627312
 10
1693.8523108313025
 20
35.113313780341315
 10
1693.5999288207552
 20
35.7675895399162
 10
1693.3157470255012
 20
36.40869339738515
 10
1693.0004500643772
 20
37.03508087740144
 10
1692.654797515379
 20
37.64524295766063
 10
1692.2796220857726
 20
38.23770970426756
 10
1691.8758276060298
 20
38.811053812935626
 10
1691.4443868524202
 20
39.36389404748809
 10
1690.986339203509
 20
39.89489856737677
 10
1690.502788136203
 20
40.40278813620279
 10
1689.9948985673768
 20
40.88633920350895
 10
1689.463894047488
 20
41.34438685242009
 10
1688.9110538129357
 20
41.77582760602971
 10
1688.3377097042676
 20
42.17962208577259
 10
1687.7452429576608
 20
42.55479751537888
 10
1687.1350808774016
 20
42.90045006437711
 10
1686.5086933973853
 20
43.21574702550117
 10
1685.8675895399163
 20
43.499928820755
 10
1685.2133137803414
 20
43.752310831302395
 10
1684.5474423262733
 20
43.97228504677392
 10
1683.871579320368
 20
44.159321530017024
 10
1683.1873529758054
 20
44.31296969376115
 10
1682.496411653781
 20
44.43285938612178
 10
1681.8004198924586
 20
44.518701782329
 10
1681.101054396953
 20
44.57029008053138
 10
1680.4
 20
44.58749999999998
 10
1679.6989456030472
 20
44.57029008053138
 10
1678.9995801075415
 20
44.518701782329
 10
1678.3035883462192
 20
44.43285938612178
 10
1677.6126470241948
 20
44.31296969376115
 10
1676.9284206796322
 20
44.159321530017024
 10
1676.2525576737269
 20
43.97228504677392
 10
1675.5866862196588
 20
43.752310831302395
 10
1674.932410460084
 20
43.499928820754974
 10
1674.291306602615
 20
43.21574702550117
 10
1673.6649191225986
 20
42.90045006437711
 10
1673.0547570423394
 20
42.55479751537888
 10
1672.4622902957326
 20
42.17962208577259
 10
1671.8889461870644
 20
41.77582760602971
 10
1671.336105952512
 20
41.34438685242009
 10
1670.8051014326234
 20
40.88633920350895
 10
1670.2972118637972
 20
40.40278813620279
 10
1669.8136607964911
 20
39.89489856737677
 10
1669.35561314758
 20
39.36389404748806
 10
1668.9241723939704
 20
38.811053812935626
 10
1668.5203779142275
 20
38.23770970426756
 10
1668.1452024846212
 20
37.64524295766063
 10
1667.799549935623
 20
37.03508087740141
 10
1667.484252974499
 20
36.40869339738512
 10
1667.200071179245
 20
35.7675895399162
 10
1666.9476891686977
 20
35.113313780341315
 10
1666.7277149532263
 20
34.44744232627312
 10
1666.540678469983
 20
33.77157932036786
 10
1666.387030306239
 20
33.08735297580543
 10
1666.2671406138784
 20
32.39641165378097
 10
1666.1812982176712
 20
31.70041989245857
 10
1666.1297099194687
 20
31.001054396952952
 10
1666.1125000000002
 20
30.299999999999983
 10
1666.1297099194687
 20
29.598945603046985
 10
1666.1812982176712
 20
28.899580107541397
 10
1666.2671406138784
 20
28.203588346218993
 10
1666.387030306239
 20
27.512647024194536
 10
1666.540678469983
 20
26.828420679632103
 10
1666.7277149532263
 20
26.152557673726847
 10
1666.9476891686977
 20
25.486686219658623
 10
1667.200071179245
 20
24.832410460083764
 10
1667.484252974499
 20
24.191306602614816
 10
1667.799549935623
 20
23.564919122598553
 10
1668.1452024846212
 20
22.954757042339338
 10
1668.5203779142275
 20
22.362290295732407
 10
1668.9241723939704
 20
21.78894618706434
 10
1669.35561314758
 20
21.236105952511906
 10
1669.8136607964911
 20
20.70510143262321
 10
1670.2972118637972
 20
20.19721186379718
 10
1670.8051014326234
 20
19.713660796491013
 10
1671.336105952512
 20
19.25561314757988
 10
1671.8889461870644
 20
18.824172393970272
 10
1672.4622902957326
 20
18.42037791422736
 10
1673.0547570423394
 20
18.0452024846211
 10
1673.6649191225986
 20
17.699549935622855
 10
1674.291306602615
 20
17.384252974498793
 10
1674.932410460084
 20
17.100071179244978
 10
1675.5866862196588
 20
16.84768916869757
 10
1676.2525576737269
 20
16.627714953226047
 10
1676.9284206796322
 20
16.44067846998294
 10
1677.6126470241948
 20
16.287030306238833
 10
1678.3035883462192
 20
16.167140613878175
 10
1678.9995801075415
 20
16.081298217670962
 10
1679.6989456030472
 20
16.029709919468587
 10
1680.4
 20
16.01249999999999
 10
1681.101054396953
 20
16.029709919468587
 10
1681.8004198924586
 20
16.081298217670977
 10
1682.496411653781
 20
16.167140613878175
 10
1683.1873529758054
 20
16.287030306238833
 10
1683.871579320368
 20
16.44067846998294
 10
1684.5474423262733
 20
16.627714953226047
 10
1685.2133137803414
 20
16.84768916869757
 10
1685.8675895399163
 20
17.100071179244978
 10
1686.5086933973853
 20
17.384252974498793
 10
1687.1350808774016
 20
17.699549935622855
 10
1687.7452429576608
 20
18.0452024846211
 10
1688.3377097042676
 20
18.420377914227373
 10
1688.9110538129357
 20
18.824172393970272
 10
1689.463894047488
 20
19.25561314757988
 10
1689.9948985673768
 20
19.713660796491013
 10
1690.502788136203
 20
20.19721186379718
 10
1690.986339203509
 20
20.70510143262321
 10
1691.4443868524202
 20
21.236105952511906
 10
1691.8758276060298
 20
21.78894618706434
 10
1692.2796220857726
 20
22.362290295732407
 10
1692.654797515379
 20
22.954757042339338
 10
1693.0004500643772
 20
23.564919122598553
 10
1693.3157470255012
 20
24.191306602614816
 10
1693.5999288207552
 20
24.832410460083764
 10
1693.8523108313025
 20
25.48668621965865
 10
1694.0722850467741
 20
26.152557673726847
 10
1694.2593215300171
 20
26.828420679632103
 10
1694.4129696937612
 20
27.512647024194564
 10
1694.5328593861218
 20
28.203588346218993
 10
1694.618701782329
 20
28.899580107541397
 10
1694.6702900805315
 20
29.598945603046985
 10
1694.6875
 20
30.299999999999983
 10
1694.6702900805315
 20
31.00105439695298
  0
TEXT
  5
9D
330
17
100
AcDbEntity
  8
TEXTO
100
AcDbText
 10
1653.4
 20
-22.0
 30
0.0
 40
8.0
  1
soporte_eje
 11
1653.4
 21
-22.0
 31
0.0
100
AcDbText
  0
LWPOLYLINE
  5
9E
330
17
100
AcDbEntity
  8
CORTE
100
AcDbPolyline
 90
40
 70
1
 10
2089.4
 20
0.0
 10
1995.5
 20
0.0
 10
1995.5
 20
18.0
 10
1995.4706268327004
 20
18.59790455601032
 10
1995.38279021046
 20
19.19005096429838
 10
1995.2373360479664
 20
19.770736531252226
 10
1995.035665148319
 20
20.334368937427058
 10
1994.779719712525
 20
20.87552009463859
 10
1994.4719646350457
 20
21.38897842141958
 10
1994.1153637655127
 20
21.869799033398237
 10
1993.713351365238
 20
22.313351365237935
 10
1993.2697990333984
 20
22.71536376551269
 10
1992.7889784214196
 20
23.071964635045532
 10
1992.2755200946388
 20
23.37971971252496
 10
1991.7343689374272
 20
23.63566514831885
 10
1991.1707365312523
 20
23.837336047966474
 10
1990.5900509642984
 20
23.98279021045971
 10
1989.9979045560103
 20
24.0706268327004
 10
1989.4
 20
24.099999999999994
 10
1988.8020954439899
 20
24.0706268327004
 10
1988.2099490357018
 20
23.98279021045971
 10
1987.629263468748
 20
23.837336047966474
 10
1987.065631062573
 20
23.63566514831885
 10
1986.5244799053614
 20
23.37971971252496
 10
1986.0110215785805
 20
23.071964635045532
 10
1985.5302009666018
 20
22.71536376551269
 10
1985.0866486347622
 20
22.313351365237935
 10
1984.6846362344875
 20
21.869799033398237
 10
1984.3280353649545
 20
21.388978421419566
 10
1984.020280287475
 20
20.87552009463859
 10
1983.7643348516813
 20
20.334368937427044
 10
1983.5626639520337
 20
19.770736531252226
 10
1983.4172097895403
 20
19.19005096429838
 10
1983.3293731672998
 20
18.59790455601032
 10
1983.3000000000002
 20
18.0
 10
1983.3000000000002
 20
0.0
 10
1747.4
 20
0.0
 10
1747.4
 20
78.0
 10
2089.4
 20
78.0
 10
2089.4
 20
0.0
  0
LWPOLYLINE
  5
9F
330
17
100
AcDbEntity
  8
CORTE
100
AcDbPolyline
 90
65
 70
1
 10
1782.035665148319
 20
54.43436893742705
 10
1781.779719712525
 20
54.97552009463857
 10
1781.4719646350457
 20
55.488978421419574
 10
1781.1153637655127
 20
55.96979903339823
 10
1780.713351365238
 20
56.41335136523793
 10
1780.2697990333984
 20
56.8153637655127
 10
1779.7889784214196
 20
57.171964635045526
 10
1779.2755200946388
 20
57.47971971252497
 10
1778.7343689374272
 20
57.735665148318844
 10
1778.1707365312523
 20
57.93733604796648
 10
1777.5900509642984
 20
58.082790210459706
 10
1776.9979045560103
 20
58.17062683270041
 10
1776.4
 20
58.19999999999999
 10
1775.8020954439899
 20
58.17062683270041
 10
1775.2099490357018
 20
58.082790210459706
 10
1774.629263468748
 20
57.937336047966454
 10
1774.065631062573
 20
57.735665148318844
 10
1773.5244799053614
 20
57.47971971252497
 10
1773.0110215785805
 20
57.171964635045526
 10
1772.5302009666018
 20
56.8153637655127
 10
1772.0866486347622
 20
56.41335136523793
 10
1771.6846362344875
 20
55.96979903339823
 10
1771.3280353649545
 20
55.488978421419574
 10
1771.020280287475
 20
54.97552009463857
 10
1770.7643348516813
 20
54.43436893742705
 10
1770.5626639520335
 20
53.87073653125222
 10
1770.4172097895405
 20
53.29005096429839
 10
1770.3293731672998
 20
52.697904556010315
 10
1770.3000000000002
 20
52.099999999999994
 10
1770.3293731672998
 20
51.502095443989674
 10
1770.4172097895405
 20
50.9099490357016
 10
1770.5626639520335
 20
50.32926346874777
 10
1770.7643348516813
 20
49.765631062572936
 10
1771.020280287475
 20
49.22447990536142
 10
1771.3280353649545
 20
48.711021578580414
 10
1771.6846362344875
 20
48.23020096660176
 10
1772.0866486347622
 20
47.78664863476206
 10
1772.5302009666018
 20
47.3846362344873
 10
1773.0110215785805
 20
47.02803536495446
 10
1773.5244799053614
 20
46.720280287475035
 10
1774.065631062573
 20
46.464334851681144
 10
1774.629263468748
 20
46.26266395203352
 10
1775.2099490357018
 20
46.11720978954028
 10
1775.8020954439899
 20
46.029373167299596
 10
1776.4
 20
46.0
 10
1776.9979045560103
 20
46.029373167299596
 10
1777.5900509642984
 20
46.11720978954028
 10
1778.1707365312523
 20
46.26266395203352
 10
1778.7343689374272
 20
46.464334851681144
 10
1779.2755200946388
 20
46.720280287475035
 10
1779.7889784214196
 20
47.02803536495446
 10
1780.2697990333984
 20
47.3846362344873
 10
1780.713351365238
 20
47.78664863476206
 10
1781.1153637655127
 20
48.23020096660176
 10
1781.4719646350457
 20
48.711021578580414
 10
1781.779719712525
 20
49.22447990536142
 10
1782.035665148319
 20
49.765631062572936
 10
1782.2373360479667
 20
50.32926346874777
 10
1782.3827902104597
 20
50.9099490357016
 10
1782.4706268327004
 20
51.502095443989674
 10
1782.5
 20
52.099999999999994
 10
1782.4706268327004
 20
52.697904556010315
 10
1782.3827902104597
 20
53.29005096429839
 10
1782.2373360479667
 20
53.87073653125222
 10
1782.035665148319
 20
54.43436893742705
  0
LWPOLYLINE
  5
A0
330
17
100
AcDbEntity
  8
CORTE
100
AcDbPolyline
 90
65
 70
1
 10
2063.2373360479664
 20
53.87073653125222
 10
2063.035665148319
 20
54.43436893742705
 10
2062.779719712525
 20
54.97552009463857
 10
2062.4719646350454
 20
55.488978421419574
 10
2062.115363765513
 20
55.96979903339823
 10
2061.713351365238
 20
56.41335136523793
 10
2061.269799033398
 20
56.8153637655127
 10
2060.7889784214194
 20
57.171964635045526
 10
2060.2755200946385
 20
57.47971971252497
 10
2059.734368937427
 20
57.735665148318844
 10
2059.1707365312523
 20
57.93733604796648
 10
2058.5900509642984
 20
58.082790210459706
 10
2057.9979045560103
 20
58.17062683270041
 10
2057.4
 20
58.19999999999999
 10
2056.80209544399
 20
58.17062683270041
 10
2056.209949035702
 20
58.082790210459706
 10
2055.629263468748
 20
57.937336047966454
 10
2055.065631062573
 20
57.735665148318844
 10
2054.5244799053617
 20
57.47971971252497
 10
2054.0110215785808
 20
57.171964635045526
 10
2053.530200966602
 20
56.8153637655127
 10
2053.0866486347622
 20
56.41335136523793
 10
2052.6846362344872
 20
55.96979903339823
 10
2052.3280353649548
 20
55.488978421419574
 10
2052.020280287475
 20
54.97552009463857
 10
2051.7643348516813
 20
54.43436893742705
 10
2051.5626639520337
 20
53.87073653125222
 10
2051.4172097895403
 20
53.29005096429839
 10
2051.3293731672998
 20
52.697904556010315
 10
2051.3
 20
52.099999999999994
 10
2051.3293731672998
 20
51.502095443989674
 10
2051.4172097895403
 20
50.9099490357016
 10
2051.5626639520337
 20
50.32926346874777
 10
2051.7643348516813
 20
49.765631062572936
 10
2052.020280287475
 20
49.22447990536142
 10
2052.3280353649548
 20
48.711021578580414
 10
2052.6846362344872
 20
48.23020096660176
 10
2053.0866486347622
 20
47.78664863476206
 10
2053.530200966602
 20
47.3846362344873
 10
2054.0110215785808
 20
47.02803536495446
 10
2054.5244799053617
 20
46.720280287475035
 10
2055.065631062573
 20
46.464334851681144
 10
2055.629263468748
 20
46.26266395203352
 10
2056.209949035702
 20
46.11720978954028
 10
2056.80209544399
 20
46.029373167299596
 10
2057.4
 20
46.0
 10
2057.9979045560103
 20
46.029373167299596
 10
2058.5900509642984
 20
46.11720978954028
 10
2059.1707365312523
 20
46.26266395203352
 10
2059.734368937427
 20
46.464334851681144
 10
2060.2755200946385
 20
46.720280287475035
 10
2060.7889784214194
 20
47.02803536495446
 10
2061.269799033398
 20
47.3846362344873
 10
2061.713351365238
 20
47.78664863476206
 10
2062.115363765513
 20
48.23020096660176
 10
2062.4719646350454
 20
48.711021578580414
 10
2062.779719712525
 20
49.22447990536142
 10
2063.035665148319
 20
49.765631062572936
 10
2063.2373360479664
 20
50.32926346874777
 10
2063.38279021046
 20
50.9099490357016
 10
2063.4706268327004
 20
51.502095443989674
 10
2063.5
 20
52.099999999999994
 10
2063.4706268327004
 20
52.697904556010315
 10
2063.38279021046
 20
53.29005096429839
 10
2063.2373360479664
 20
53.87073653125222
  0
TEXT
  5
A1
330
17
100
AcDbEntity
  8
TEXTO
100
AcDbText
 10
1747.4
 20
-22.0
 30
0.0
 40
8.0
  1
placa_casete
 11
1747.4
 21
-22.0
 31
0.0
100
AcDbText
  0
LWPOLYLINE
  5
A2
330
17
100
AcDbEntity
  8
CORTE
100
AcDbPolyline
 90
111
 70
1
 10
2192.4314214351307
 20
39.099699895631474
 10
2193.9066017177984
 20
40.39339828220179
 10
2195.2003001043686
 20
41.868578564869196
 10
2196.290381056767
 20
43.5
 10
2197.1581929876693
 20
45.25974851452365
 10
2197.788887394336
 20
47.11771432346219
 10
2198.1716729206073
 20
49.04210711669923
 10
2198.3
 20
51.0
 10
2198.1716729206073
 20
52.95789288330079
 10
2197.788887394336
 20
54.882285676537826
 10
2197.1581929876693
 20
56.74025148547636
 10
2196.290381056767
 20
58.50000000000001
 10
2195.2003001043686
 20
60.13142143513082
 10
2193.9066017177984
 20
61.60660171779821
 10
2192.4314214351307
 20
62.90030010436854
 10
2190.8
 20
63.99038105676658
 10
2189.0402514854763
 20
64.8581929876693
 10
2187.182285676538
 20
65.48888739433603
 10
2185.257892883301
 20
65.87167292060715
 10
2183.4
 20
65.99344565371848
 10
2183.4
 20
66.0
 10
2183.3
 20
66.0
 10
2139.5
 20
66.0
 10
2139.4
 20
66.0
 10
2139.4
 20
65.99344565371848
 10
2137.5421071166993
 20
65.87167292060715
 10
2135.617714323462
 20
65.48888739433602
 10
2133.759748514524
 20
64.8581929876693
 10
2132.0
 20
63.99038105676658
 10
2130.3685785648695
 20
62.900300104368526
 10
2129.4
 20
62.050879500418944
 10
2129.4
 20
85.5
 10
2475.4
 20
85.5
 10
2475.4
 20
126.5
 10
2129.4
 20
126.5
 10
2129.4
 20
195.5
 10
2475.4
 20
195.5
 10
2475.4
 20
236.5
 10
2129.4
 20
236.5
 10
2129.4
 20
259.94912049958106
 10
2130.3685785648695
 20
259.0996998956315
 10
2132.0
 20
258.0096189432334
 10
2133.759748514524
 20
257.1418070123307
 10
2135.617714323462
 20
256.511112605664
 10
2137.5421071166993
 20
256.1283270793928
 10
2139.4
 20
256.0065543462815
 10
2139.4
 20
256.0
 10
2139.5
 20
256.0
 10
2183.3
 20
256.0
 10
2183.4
 20
256.0
 10
2183.4
 20
256.0065543462815
 10
2185.257892883301
 20
256.1283270793928
 10
2187.182285676538
 20
256.511112605664
 10
2189.0402514854763
 20
257.1418070123307
 10
2190.8
 20
258.0096189432334
 10
2192.4314214351307
 20
259.0996998956315
 10
2193.9066017177984
 20
260.3933982822018
 10
2195.2003001043686
 20
261.8685785648692
 10
2196.290381056767
 20
263.5
 10
2197.1581929876693
 20
265.25974851452366
 10
2197.788887394336
 20
267.11771432346217
 10
2198.1716729206073
 20
269.04210711669924
 10
2198.3
 20
271.0
 10
2198.1716729206073
 20
272.9578928833008
 10
2197.788887394336
 20
274.88228567653783
 10
2197.1581929876693
 20
276.74025148547634
 10
2196.290381056767
 20
278.5
 10
2195.2003001043686
 20
280.1314214351308
 10
2193.9066017177984
 20
281.60660171779824
 10
2192.4314214351307
 20
282.9003001043685
 10
2190.8
 20
283.9903810567666
 10
2189.0402514854763
 20
284.8581929876693
 10
2187.182285676538
 20
285.488887394336
 10
2185.257892883301
 20
285.8716729206072
 10
2183.4
 20
285.9934456537185
 10
2183.4
 20
286.0
 10
2183.3
 20
286.0
 10
2139.5
 20
286.0
 10
2139.4
 20
286.0
 10
2139.4
 20
285.9934456537185
 10
2137.5421071166993
 20
285.8716729206071
 10
2135.617714323462
 20
285.488887394336
 10
2133.759748514524
 20
284.8581929876693
 10
2132.0
 20
283.9903810567666
 10
2130.3685785648695
 20
282.9003001043685
 10
2129.4
 20
282.05087950041894
 10
2129.4
 20
305.5
 10
2475.4
 20
305.5
 10
2475.4
 20
346.5
 10
2129.4
 20
346.5
 10
2129.4
 20
522.0
 10
2566.6
 20
522.0
 10
2566.6
 20
0.0
 10
2129.4
 20
0.0
 10
2129.4
 20
39.949120499581056
 10
2130.3685785648695
 20
39.09969989563147
 10
2132.0
 20
38.00961894323342
 10
2133.759748514524
 20
37.141807012330695
 10
2135.617714323462
 20
36.511112605663975
 10
2137.5421071166993
 20
36.12832707939285
 10
2139.4
 20
36.006554346281526
 10
2139.4
 20
36.0
 10
2139.5
 20
36.0
 10
2183.3
 20
36.0
 10
2183.4
 20
36.0
 10
2183.4
 20
36.006554346281526
 10
2185.257892883301
 20
36.12832707939285
 10
2187.182285676538
 20
36.511112605663975
 10
2189.0402514854763
 20
37.1418070123307
 10
2190.8
 20
38.00961894323342
 10
2192.4314214351307
 20
39.099699895631474
  0
LWPOLYLINE
  5
A3
330
17
100
AcDbEntity
  8
CORTE
100
AcDbPolyline
 90
59
 70
1
 10
2199.641807012331
 20
45.25974851452365
 10
2200.5096189432334
 20
43.49999999999999
 10
2201.5996998956316
 20
41.86857856486919
 10
2202.893398282202
 20
40.39339828220179
 10
2204.3685785648695
 20
39.09969989563147
 10
2206.0
 20
38.00961894323342
 10
2207.759748514524
 20
37.141807012330695
 10
2209.617714323462
 20
36.511112605663975
 10
2211.5421071166993
 20
36.12832707939285
 10
2213.4
 20
36.006554346281526
 10
2213.4
 20
36.0
 10
2213.5
 20
36.0
 10
2257.3
 20
36.0
 10
2257.4
 20
36.0
 10
2257.4
 20
36.006554346281526
 10
2259.257892883301
 20
36.12832707939285
 10
2261.182285676538
 20
36.511112605663975
 10
2263.0402514854763
 20
37.1418070123307
 10
2264.8
 20
38.00961894323342
 10
2266.4314214351307
 20
39.099699895631474
 10
2267.9066017177984
 20
40.39339828220179
 10
2269.2003001043686
 20
41.868578564869196
 10
2270.290381056767
 20
43.5
 10
2271.1581929876693
 20
45.25974851452365
 10
2271.788887394336
 20
47.11771432346219
 10
2272.1716729206073
 20
49.04210711669923
 10
2272.3
 20
51.0
 10
2272.1716729206073
 20
52.95789288330079
 10
2271.788887394336
 20
54.882285676537826
 10
2271.1581929876693
 20
56.74025148547636
 10
2270.290381056767
 20
58.50000000000001
 10
2269.2003001043686
 20
60.13142143513082
 10
2267.9066017177984
 20
61.60660171779821
 10
2266.4314214351307
 20
62.90030010436854
 10
2264.8
 20
63.99038105676658
 10
2263.0402514854763
 20
64.8581929876693
 10
2261.182285676538
 20
65.48888739433603
 10
2259.257892883301
 20
65.87167292060715
 10
2257.4
 20
65.99344565371848
 10
2257.4
 20
66.0
 10
2257.3
 20
66.0
 10
2213.5
 20
66.0
 10
2213.4
 20
66.0
 10
2213.4
 20
65.99344565371848
 10
2211.5421071166993
 20
65.87167292060715
 10
2209.617714323462
 20
65.48888739433602
 10
2207.759748514524
 20
64.8581929876693
 10
2206.0
 20
63.99038105676658
 10
2204.3685785648695
 20
62.900300104368526
 10
2202.893398282202
 20
61.60660171779821
 10
2201.5996998956316
 20
60.131421435130804
 10
2200.5096189432334
 20
58.49999999999999
 10
2199.641807012331
 20
56.740251485476335
 10
2199.011112605664
 20
54.882285676537805
 10
2198.628327079393
 20
52.95789288330077
 10
2198.5
 20
51.0
 10
2198.628327079393
 20
49.04210711669922
 10
2199.011112605664
 20
47.11771432346219
 10
2199.641807012331
 20
45.25974851452365
  0
LWPOLYLINE
  5
A4
330
17
100
AcDbEntity
  8
CORTE
100
AcDbPolyline
 90
59
 70
1
 10
2273.011112605664
 20
47.11771432346219
 10
2273.641807012331
 20
45.25974851452365
 10
2274.5096189432334
 20
43.49999999999999
 10
2275.5996998956316
 20
41.86857856486919
 10
2276.893398282202
 20
40.39339828220179
 10
2278.3685785648695
 20
39.09969989563147
 10
2280.0
 20
38.00961894323342
 10
2281.759748514524
 20
37.141807012330695
 10
2283.617714323462
 20
36.511112605663975
 10
2285.5421071166993
 20
36.12832707939285
 10
2287.4
 20
36.006554346281526
 10
2287.4
 20
36.0
 10
2287.5
 20
36.0
 10
2331.3
 20
36.0
 10
2331.4
 20
36.0
 10
2331.4
 20
36.006554346281526
 10
2333.257892883301
 20
36.12832707939285
 10
2335.182285676538
 20
36.511112605663975
 10
2337.0402514854763
 20
37.1418070123307
 10
2338.8
 20
38.00961894323342
 10
2340.4314214351307
 20
39.099699895631474
 10
2341.9066017177984
 20
40.39339828220179
 10
2343.2003001043686
 20
41.868578564869196
 10
2344.290381056767
 20
43.5
 10
2345.1581929876693
 20
45.25974851452365
 10
2345.788887394336
 20
47.11771432346219
 10
2346.1716729206073
 20
49.04210711669923
 10
2346.3
 20
51.0
 10
2346.1716729206073
 20
52.95789288330079
 10
2345.788887394336
 20
54.882285676537826
 10
2345.1581929876693
 20
56.74025148547636
 10
2344.290381056767
 20
58.50000000000001
 10
2343.2003001043686
 20
60.13142143513082
 10
2341.9066017177984
 20
61.60660171779821
 10
2340.4314214351307
 20
62.90030010436854
 10
2338.8
 20
63.99038105676658
 10
2337.0402514854763
 20
64.8581929876693
 10
2335.182285676538
 20
65.48888739433603
 10
2333.257892883301
 20
65.87167292060715
 10
2331.4
 20
65.99344565371848
 10
2331.4
 20
66.0
 10
2331.3
 20
66.0
 10
2287.5
 20
66.0
 10
2287.4
 20
66.0
 10
2287.4
 20
65.99344565371848
 10
2285.5421071166993
 20
65.87167292060715
 10
2283.617714323462
 20
65.48888739433602
 10
2281.759748514524
 20
64.8581929876693
 10
2280.0
 20
63.99038105676658
 10
2278.3685785648695
 20
62.900300104368526
 10
2276.893398282202
 20
61.60660171779821
 10
2275.5996998956316
 20
60.131421435130804
 10
2274.5096189432334
 20
58.49999999999999
 10
2273.641807012331
 20
56.740251485476335
 10
2273.011112605664
 20
54.882285676537805
 10
2272.628327079393
 20
52.95789288330077
 10
2272.5
 20
51.0
 10
2272.628327079393
 20
49.04210711669922
 10
2273.011112605664
 20
47.11771432346219
  0
LWPOLYLINE
  5
A5
330
17
100
AcDbEntity
  8
CORTE
100
AcDbPolyline
 90
59
 70
1
 10
2346.628327079393
 20
49.04210711669922
 10
2347.011112605664
 20
47.11771432346219
 10
2347.641807012331
 20
45.25974851452365
 10
2348.5096189432334
 20
43.49999999999999
 10
2349.5996998956316
 20
41.86857856486919
 10
2350.893398282202
 20
40.39339828220179
 10
2352.3685785648695
 20
39.09969989563147
 10
2354.0
 20
38.00961894323342
 10
2355.759748514524
 20
37.141807012330695
 10
2357.617714323462
 20
36.511112605663975
 10
2359.5421071166993
 20
36.12832707939285
 10
2361.4
 20
36.006554346281526
 10
2361.4
 20
36.0
 10
2361.5
 20
36.0
 10
2405.3
 20
36.0
 10
2405.4
 20
36.0
 10
2405.4
 20
36.006554346281526
 10
2407.257892883301
 20
36.12832707939285
 10
2409.182285676538
 20
36.511112605663975
 10
2411.0402514854763
 20
37.1418070123307
 10
2412.8
 20
38.00961894323342
 10
2414.4314214351307
 20
39.099699895631474
 10
2415.9066017177984
 20
40.39339828220179
 10
2417.2003001043686
 20
41.868578564869196
 10
2418.290381056767
 20
43.5
 10
2419.1581929876693
 20
45.25974851452365
 10
2419.788887394336
 20
47.11771432346219
 10
2420.1716729206073
 20
49.04210711669923
 10
2420.3
 20
51.0
 10
2420.1716729206073
 20
52.95789288330079
 10
2419.788887394336
 20
54.882285676537826
 10
2419.1581929876693
 20
56.74025148547636
 10
2418.290381056767
 20
58.50000000000001
 10
2417.2003001043686
 20
60.13142143513082
 10
2415.9066017177984
 20
61.60660171779821
 10
2414.4314214351307
 20
62.90030010436854
 10
2412.8
 20
63.99038105676658
 10
2411.0402514854763
 20
64.8581929876693
 10
2409.182285676538
 20
65.48888739433603
 10
2407.257892883301
 20
65.87167292060715
 10
2405.4
 20
65.99344565371848
 10
2405.4
 20
66.0
 10
2405.3
 20
66.0
 10
2361.5
 20
66.0
 10
2361.4
 20
66.0
 10
2361.4
 20
65.99344565371848
 10
2359.5421071166993
 20
65.87167292060715
 10
2357.617714323462
 20
65.48888739433602
 10
2355.759748514524
 20
64.8581929876693
 10
2354.0
 20
63.99038105676658
 10
2352.3685785648695
 20
62.900300104368526
 10
2350.893398282202
 20
61.60660171779821
 10
2349.5996998956316
 20
60.131421435130804
 10
2348.5096189432334
 20
58.49999999999999
 10
2347.641807012331
 20
56.740251485476335
 10
2347.011112605664
 20
54.882285676537805
 10
2346.628327079393
 20
52.95789288330077
 10
2346.5
 20
51.0
 10
2346.628327079393
 20
49.04210711669922
  0
LWPOLYLINE
  5
A6
330
17
100
AcDbEntity
  8
CORTE
100
AcDbPolyline
 90
59
 70
1
 10
2420.5
 20
51.0
 10
2420.628327079393
 20
49.04210711669922
 10
2421.011112605664
 20
47.11771432346219
 10
2421.641807012331
 20
45.25974851452365
 10
2422.5096189432334
 20
43.49999999999999
 10
2423.5996998956316
 20
41.86857856486919
 10
2424.893398282202
 20
40.39339828220179
 10
2426.3685785648695
 20
39.09969989563147
 10
2428.0
 20
38.00961894323342
 10
2429.759748514524
 20
37.141807012330695
 10
2431.617714323462
 20
36.511112605663975
 10
2433.5421071166993
 20
36.12832707939285
 10
2435.4
 20
36.006554346281526
 10
2435.4
 20
36.0
 10
2435.5
 20
36.0
 10
2479.3
 20
36.0
 10
2479.4
 20
36.0
 10
2479.4
 20
36.006554346281526
 10
2481.257892883301
 20
36.12832707939285
 10
2483.182285676538
 20
36.511112605663975
 10
2485.0402514854763
 20
37.1418070123307
 10
2486.8
 20
38.00961894323342
 10
2488.4314214351307
 20
39.099699895631474
 10
2489.9066017177984
 20
40.39339828220179
 10
2491.2003001043686
 20
41.868578564869196
 10
2492.290381056767
 20
43.5
 10
2493.1581929876693
 20
45.25974851452365
 10
2493.788887394336
 20
47.11771432346219
 10
2494.1716729206073
 20
49.04210711669923
 10
2494.3
 20
51.0
 10
2494.1716729206073
 20
52.95789288330079
 10
2493.788887394336
 20
54.882285676537826
 10
2493.1581929876693
 20
56.74025148547636
 10
2492.290381056767
 20
58.50000000000001
 10
2491.2003001043686
 20
60.13142143513082
 10
2489.9066017177984
 20
61.60660171779821
 10
2488.4314214351307
 20
62.90030010436854
 10
2486.8
 20
63.99038105676658
 10
2485.0402514854763
 20
64.8581929876693
 10
2483.182285676538
 20
65.48888739433603
 10
2481.257892883301
 20
65.87167292060715
 10
2479.4
 20
65.99344565371848
 10
2479.4
 20
66.0
 10
2479.3
 20
66.0
 10
2435.5
 20
66.0
 10
2435.4
 20
66.0
 10
2435.4
 20
65.99344565371848
 10
2433.5421071166993
 20
65.87167292060715
 10
2431.617714323462
 20
65.48888739433602
 10
2429.759748514524
 20
64.8581929876693
 10
2428.0
 20
63.99038105676658
 10
2426.3685785648695
 20
62.900300104368526
 10
2424.893398282202
 20
61.60660171779821
 10
2423.5996998956316
 20
60.131421435130804
 10
2422.5096189432334
 20
58.49999999999999
 10
2421.641807012331
 20
56.740251485476335
 10
2421.011112605664
 20
54.882285676537805
 10
2420.628327079393
 20
52.95789288330077
 10
2420.5
 20
51.0
  0
LWPOLYLINE
  5
A7
330
17
100
AcDbEntity
  8
CORTE
100
AcDbPolyline
 90
59
 70
1
 10
2161.628327079393
 20
162.95789288330076
 10
2161.5
 20
161.0
 10
2161.628327079393
 20
159.0421071166992
 10
2162.011112605664
 20
157.1177143234622
 10
2162.641807012331
 20
155.25974851452366
 10
2163.5096189432334
 20
153.5
 10
2164.5996998956316
 20
151.86857856486918
 10
2165.893398282202
 20
150.3933982822018
 10
2167.3685785648695
 20
149.09969989563146
 10
2169.0
 20
148.00961894323342
 10
2170.759748514524
 20
147.1418070123307
 10
2172.617714323462
 20
146.51111260566398
 10
2174.5421071166993
 20
146.12832707939285
 10
2176.4
 20
146.00655434628152
 10
2176.4
 20
146.0
 10
2176.5
 20
146.0
 10
2220.3
 20
146.0
 10
2220.4
 20
146.0
 10
2220.4
 20
146.00655434628152
 10
2222.257892883301
 20
146.12832707939285
 10
2224.182285676538
 20
146.51111260566398
 10
2226.0402514854763
 20
147.1418070123307
 10
2227.8
 20
148.00961894323342
 10
2229.4314214351307
 20
149.09969989563146
 10
2230.9066017177984
 20
150.3933982822018
 10
2232.2003001043686
 20
151.86857856486918
 10
2233.290381056767
 20
153.5
 10
2234.1581929876693
 20
155.25974851452366
 10
2234.788887394336
 20
157.1177143234622
 10
2235.1716729206073
 20
159.0421071166992
 10
2235.3
 20
161.0
 10
2235.1716729206073
 20
162.9578928833008
 10
2234.788887394336
 20
164.88228567653783
 10
2234.1581929876693
 20
166.74025148547636
 10
2233.290381056767
 20
168.5
 10
2232.2003001043686
 20
170.13142143513082
 10
2230.9066017177984
 20
171.6066017177982
 10
2229.4314214351307
 20
172.90030010436854
 10
2227.8
 20
173.99038105676658
 10
2226.0402514854763
 20
174.8581929876693
 10
2224.182285676538
 20
175.48888739433602
 10
2222.257892883301
 20
175.87167292060715
 10
2220.4
 20
175.99344565371848
 10
2220.4
 20
176.0
 10
2220.3
 20
176.0
 10
2176.5
 20
176.0
 10
2176.4
 20
176.0
 10
2176.4
 20
175.99344565371848
 10
2174.5421071166993
 20
175.87167292060715
 10
2172.617714323462
 20
175.48888739433602
 10
2170.759748514524
 20
174.8581929876693
 10
2169.0
 20
173.99038105676658
 10
2167.3685785648695
 20
172.9003001043685
 10
2165.893398282202
 20
171.6066017177982
 10
2164.5996998956316
 20
170.13142143513082
 10
2163.5096189432334
 20
168.5
 10
2162.641807012331
 20
166.74025148547634
 10
2162.011112605664
 20
164.8822856765378
 10
2161.628327079393
 20
162.95789288330076
  0
LWPOLYLINE
  5
A8
330
17
100
AcDbEntity
  8
CORTE
100
AcDbPolyline
 90
59
 70
1
 10
2236.011112605664
 20
164.8822856765378
 10
2235.628327079393
 20
162.95789288330076
 10
2235.5
 20
161.0
 10
2235.628327079393
 20
159.0421071166992
 10
2236.011112605664
 20
157.1177143234622
 10
2236.641807012331
 20
155.25974851452366
 10
2237.5096189432334
 20
153.5
 10
2238.5996998956316
 20
151.86857856486918
 10
2239.893398282202
 20
150.3933982822018
 10
2241.3685785648695
 20
149.09969989563146
 10
2243.0
 20
148.00961894323342
 10
2244.759748514524
 20
147.1418070123307
 10
2246.617714323462
 20
146.51111260566398
 10
2248.5421071166993
 20
146.12832707939285
 10
2250.4
 20
146.00655434628152
 10
2250.4
 20
146.0
 10
2250.5
 20
146.0
 10
2294.3
 20
146.0
 10
2294.4
 20
146.0
 10
2294.4
 20
146.00655434628152
 10
2296.257892883301
 20
146.12832707939285
 10
2298.182285676538
 20
146.51111260566398
 10
2300.0402514854763
 20
147.1418070123307
 10
2301.8
 20
148.00961894323342
 10
2303.4314214351307
 20
149.09969989563146
 10
2304.9066017177984
 20
150.3933982822018
 10
2306.2003001043686
 20
151.86857856486918
 10
2307.290381056767
 20
153.5
 10
2308.1581929876693
 20
155.25974851452366
 10
2308.788887394336
 20
157.1177143234622
 10
2309.1716729206073
 20
159.0421071166992
 10
2309.3
 20
161.0
 10
2309.1716729206073
 20
162.9578928833008
 10
2308.788887394336
 20
164.88228567653783
 10
2308.1581929876693
 20
166.74025148547636
 10
2307.290381056767
 20
168.5
 10
2306.2003001043686
 20
170.13142143513082
 10
2304.9066017177984
 20
171.6066017177982
 10
2303.4314214351307
 20
172.90030010436854
 10
2301.8
 20
173.99038105676658
 10
2300.0402514854763
 20
174.8581929876693
 10
2298.182285676538
 20
175.48888739433602
 10
2296.257892883301
 20
175.87167292060715
 10
2294.4
 20
175.99344565371848
 10
2294.4
 20
176.0
 10
2294.3
 20
176.0
 10
2250.5
 20
176.0
 10
2250.4
 20
176.0
 10
2250.4
 20
175.99344565371848
 10
2248.5421071166993
 20
175.87167292060715
 10
2246.617714323462
 20
175.48888739433602
 10
2244.759748514524
 20
174.8581929876693
 10
2243.0
 20
173.99038105676658
 10
2241.3685785648695
 20
172.9003001043685
 10
2239.893398282202
 20
171.6066017177982
 10
2238.5996998956316
 20
170.13142143513082
 10
2237.5096189432334
 20
168.5
 10
2236.641807012331
 20
166.74025148547634
 10
2236.011112605664
 20
164.8822856765378
  0
LWPOLYLINE
  5
A9
330
17
100
AcDbEntity
  8
CORTE
100
AcDbPolyline
 90
59
 70
1
 10
2310.641807012331
 20
166.74025148547634
 10
2310.011112605664
 20
164.8822856765378
 10
2309.628327079393
 20
162.95789288330076
 10
2309.5
 20
161.0
 10
2309.628327079393
 20
159.0421071166992
 10
2310.011112605664
 20
157.1177143234622
 10
2310.641807012331
 20
155.25974851452366
 10
2311.5096189432334
 20
153.5
 10
2312.5996998956316
 20
151.86857856486918
 10
2313.893398282202
 20
150.3933982822018
 10
2315.3685785648695
 20
149.09969989563146
 10
2317.0
 20
148.00961894323342
 10
2318.759748514524
 20
147.1418070123307
 10
2320.617714323462
 20
146.51111260566398
 10
2322.5421071166993
 20
146.12832707939285
 10
2324.4
 20
146.00655434628152
 10
2324.4
 20
146.0
 10
2324.5
 20
146.0
 10
2368.3
 20
146.0
 10
2368.4
 20
146.0
 10
2368.4
 20
146.00655434628152
 10
2370.257892883301
 20
146.12832707939285
 10
2372.182285676538
 20
146.51111260566398
 10
2374.0402514854763
 20
147.1418070123307
 10
2375.8
 20
148.00961894323342
 10
2377.4314214351307
 20
149.09969989563146
 10
2378.9066017177984
 20
150.3933982822018
 10
2380.2003001043686
 20
151.86857856486918
 10
2381.290381056767
 20
153.5
 10
2382.1581929876693
 20
155.25974851452366
 10
2382.788887394336
 20
157.1177143234622
 10
2383.1716729206073
 20
159.0421071166992
 10
2383.3
 20
161.0
 10
2383.1716729206073
 20
162.9578928833008
 10
2382.788887394336
 20
164.88228567653783
 10
2382.1581929876693
 20
166.74025148547636
 10
2381.290381056767
 20
168.5
 10
2380.2003001043686
 20
170.13142143513082
 10
2378.9066017177984
 20
171.6066017177982
 10
2377.4314214351307
 20
172.90030010436854
 10
2375.8
 20
173.99038105676658
 10
2374.0402514854763
 20
174.8581929876693
 10
2372.182285676538
 20
175.48888739433602
 10
2370.257892883301
 20
175.87167292060715
 10
2368.4
 20
175.99344565371848
 10
2368.4
 20
176.0
 10
2368.3
 20
176.0
 10
2324.5
 20
176.0
 10
2324.4
 20
176.0
 10
2324.4
 20
175.99344565371848
 10
2322.5421071166993
 20
175.87167292060715
 10
2320.617714323462
 20
175.48888739433602
 10
2318.759748514524
 20
174.8581929876693
 10
2317.0
 20
173.99038105676658
 10
2315.3685785648695
 20
172.9003001043685
 10
2313.893398282202
 20
171.6066017177982
 10
2312.5996998956316
 20
170.13142143513082
 10
2311.5096189432334
 20
168.5
 10
2310.641807012331
 20
166.74025148547634
  0
LWPOLYLINE
  5
AA
330
17
100
AcDbEntity
  8
CORTE
100
AcDbPolyline
 90
59
 70
1
 10
2385.5096189432334
 20
168.5
 10
2384.641807012331
 20
166.74025148547634
 10
2384.011112605664
 20
164.8822856765378
 10
2383.628327079393
 20
162.95789288330076
 10
2383.5
 20
161.0
 10
2383.628327079393
 20
159.0421071166992
 10
2384.011112605664
 20
157.1177143234622
 10
2384.641807012331
 20
155.25974851452366
 10
2385.5096189432334
 20
153.5
 10
2386.5996998956316
 20
151.86857856486918
 10
2387.893398282202
 20
150.3933982822018
 10
2389.3685785648695
 20
149.09969989563146
 10
2391.0
 20
148.00961894323342
 10
2392.759748514524
 20
147.1418070123307
 10
2394.617714323462
 20
146.51111260566398
 10
2396.5421071166993
 20
146.12832707939285
 10
2398.4
 20
146.00655434628152
 10
2398.4
 20
146.0
 10
2398.5
 20
146.0
 10
2442.3
 20
146.0
 10
2442.4
 20
146.0
 10
2442.4
 20
146.00655434628152
 10
2444.257892883301
 20
146.12832707939285
 10
2446.182285676538
 20
146.51111260566398
 10
2448.0402514854763
 20
147.1418070123307
 10
2449.8
 20
148.00961894323342
 10
2451.4314214351307
 20
149.09969989563146
 10
2452.9066017177984
 20
150.3933982822018
 10
2454.2003001043686
 20
151.86857856486918
 10
2455.290381056767
 20
153.5
 10
2456.1581929876693
 20
155.25974851452366
 10
2456.788887394336
 20
157.1177143234622
 10
2457.1716729206073
 20
159.0421071166992
 10
2457.3
 20
161.0
 10
2457.1716729206073
 20
162.9578928833008
 10
2456.788887394336
 20
164.88228567653783
 10
2456.1581929876693
 20
166.74025148547636
 10
2455.290381056767
 20
168.5
 10
2454.2003001043686
 20
170.13142143513082
 10
2452.9066017177984
 20
171.6066017177982
 10
2451.4314214351307
 20
172.90030010436854
 10
2449.8
 20
173.99038105676658
 10
2448.0402514854763
 20
174.8581929876693
 10
2446.182285676538
 20
175.48888739433602
 10
2444.257892883301
 20
175.87167292060715
 10
2442.4
 20
175.99344565371848
 10
2442.4
 20
176.0
 10
2442.3
 20
176.0
 10
2398.5
 20
176.0
 10
2398.4
 20
176.0
 10
2398.4
 20
175.99344565371848
 10
2396.5421071166993
 20
175.87167292060715
 10
2394.617714323462
 20
175.48888739433602
 10
2392.759748514524
 20
174.8581929876693
 10
2391.0
 20
173.99038105676658
 10
2389.3685785648695
 20
172.9003001043685
 10
2387.893398282202
 20
171.6066017177982
 10
2386.5996998956316
 20
170.13142143513082
 10
2385.5096189432334
 20
168.5
  0
LWPOLYLINE
  5
AB
330
17
100
AcDbEntity
  8
CORTE
100
AcDbPolyline
 90
59
 70
1
 10
2202.893398282202
 20
281.6066017177982
 10
2201.5996998956316
 20
280.1314214351308
 10
2200.5096189432334
 20
278.5
 10
2199.641807012331
 20
276.74025148547634
 10
2199.011112605664
 20
274.88228567653783
 10
2198.628327079393
 20
272.95789288330076
 10
2198.5
 20
271.0
 10
2198.628327079393
 20
269.04210711669924
 10
2199.011112605664
 20
267.11771432346217
 10
2199.641807012331
 20
265.25974851452366
 10
2200.5096189432334
 20
263.5
 10
2201.5996998956316
 20
261.8685785648692
 10
2202.893398282202
 20
260.3933982822018
 10
2204.3685785648695
 20
259.0996998956315
 10
2206.0
 20
258.0096189432334
 10
2207.759748514524
 20
257.1418070123307
 10
2209.617714323462
 20
256.511112605664
 10
2211.5421071166993
 20
256.1283270793928
 10
2213.4
 20
256.0065543462815
 10
2213.4
 20
256.0
 10
2213.5
 20
256.0
 10
2257.3
 20
256.0
 10
2257.4
 20
256.0
 10
2257.4
 20
256.0065543462815
 10
2259.257892883301
 20
256.1283270793928
 10
2261.182285676538
 20
256.511112605664
 10
2263.0402514854763
 20
257.1418070123307
 10
2264.8
 20
258.0096189432334
 10
2266.4314214351307
 20
259.0996998956315
 10
2267.9066017177984
 20
260.3933982822018
 10
2269.2003001043686
 20
261.8685785648692
 10
2270.290381056767
 20
263.5
 10
2271.1581929876693
 20
265.25974851452366
 10
2271.788887394336
 20
267.11771432346217
 10
2272.1716729206073
 20
269.04210711669924
 10
2272.3
 20
271.0
 10
2272.1716729206073
 20
272.9578928833008
 10
2271.788887394336
 20
274.88228567653783
 10
2271.1581929876693
 20
276.74025148547634
 10
2270.290381056767
 20
278.5
 10
2269.2003001043686
 20
280.1314214351308
 10
2267.9066017177984
 20
281.60660171779824
 10
2266.4314214351307
 20
282.9003001043685
 10
2264.8
 20
283.9903810567666
 10
2263.0402514854763
 20
284.8581929876693
 10
2261.182285676538
 20
285.488887394336
 10
2259.257892883301
 20
285.8716729206072
 10
2257.4
 20
285.9934456537185
 10
2257.4
 20
286.0
 10
2257.3
 20
286.0
 10
2213.5
 20
286.0
 10
2213.4
 20
286.0
 10
2213.4
 20
285.9934456537185
 10
2211.5421071166993
 20
285.8716729206071
 10
2209.617714323462
 20
285.488887394336
 10
2207.759748514524
 20
284.8581929876693
 10
2206.0
 20
283.9903810567666
 10
2204.3685785648695
 20
282.9003001043685
 10
2202.893398282202
 20
281.6066017177982
  0
LWPOLYLINE
  5
AC
330
17
100
AcDbEntity
  8
CORTE
100
AcDbPolyline
 90
59
 70
1
 10
2278.3685785648695
 20
282.9003001043685
 10
2276.893398282202
 20
281.6066017177982
 10
2275.5996998956316
 20
280.1314214351308
 10
2274.5096189432334
 20
278.5
 10
2273.641807012331
 20
276.74025148547634
 10
2273.011112605664
 20
274.88228567653783
 10
2272.628327079393
 20
272.95789288330076
 10
2272.5
 20
271.0
 10
2272.628327079393
 20
269.04210711669924
 10
2273.011112605664
 20
267.11771432346217
 10
2273.641807012331
 20
265.25974851452366
 10
2274.5096189432334
 20
263.5
 10
2275.5996998956316
 20
261.8685785648692
 10
2276.893398282202
 20
260.3933982822018
 10
2278.3685785648695
 20
259.0996998956315
 10
2280.0
 20
258.0096189432334
 10
2281.759748514524
 20
257.1418070123307
 10
2283.617714323462
 20
256.511112605664
 10
2285.5421071166993
 20
256.1283270793928
 10
2287.4
 20
256.0065543462815
 10
2287.4
 20
256.0
 10
2287.5
 20
256.0
 10
2331.3
 20
256.0
 10
2331.4
 20
256.0
 10
2331.4
 20
256.0065543462815
 10
2333.257892883301
 20
256.1283270793928
 10
2335.182285676538
 20
256.511112605664
 10
2337.0402514854763
 20
257.1418070123307
 10
2338.8
 20
258.0096189432334
 10
2340.4314214351307
 20
259.0996998956315
 10
2341.9066017177984
 20
260.3933982822018
 10
2343.2003001043686
 20
261.8685785648692
 10
2344.290381056767
 20
263.5
 10
2345.1581929876693
 20
265.25974851452366
 10
2345.788887394336
 20
267.11771432346217
 10
2346.1716729206073
 20
269.04210711669924
 10
2346.3
 20
271.0
 10
2346.1716729206073
 20
272.9578928833008
 10
2345.788887394336
 20
274.88228567653783
 10
2345.1581929876693
 20
276.74025148547634
 10
2344.290381056767
 20
278.5
 10
2343.2003001043686
 20
280.1314214351308
 10
2341.9066017177984
 20
281.60660171779824
 10
2340.4314214351307
 20
282.9003001043685
 10
2338.8
 20
283.9903810567666
 10
2337.0402514854763
 20
284.8581929876693
 10
2335.182285676538
 20
285.488887394336
 10
2333.257892883301
 20
285.8716729206072
 10
2331.4
 20
285.9934456537185
 10
2331.4
 20
286.0
 10
2331.3
 20
286.0
 10
2287.5
 20
286.0
 10
2287.4
 20
286.0
 10
2287.4
 20
285.9934456537185
 10
2285.5421071166993
 20
285.8716729206071
 10
2283.617714323462
 20
285.488887394336
 10
2281.759748514524
 20
284.8581929876693
 10
2280.0
 20
283.9903810567666
 10
2278.3685785648695
 20
282.9003001043685
  0
LWPOLYLINE
  5
AD
330
17
100
AcDbEntity
  8
CORTE
100
AcDbPolyline
 90
59
 70
1
 10
2354.0
 20
283.9903810567666
 10
2352.3685785648695
 20
282.9003001043685
 10
2350.893398282202
 20
281.6066017177982
 10
2349.5996998956316
 20
280.1314214351308
 10
2348.5096189432334
 20
278.5
 10
2347.641807012331
 20
276.74025148547634
 10
2347.011112605664
 20
274.88228567653783
 10
2346.628327079393
 20
272.95789288330076
 10
2346.5
 20
271.0
 10
2346.628327079393
 20
269.04210711669924
 10
2347.011112605664
 20
267.11771432346217
 10
2347.641807012331
 20
265.25974851452366
 10
2348.5096189432334
 20
263.5
 10
2349.5996998956316
 20
261.8685785648692
 10
2350.893398282202
 20
260.3933982822018
 10
2352.3685785648695
 20
259.0996998956315
 10
2354.0
 20
258.0096189432334
 10
2355.759748514524
 20
257.1418070123307
 10
2357.617714323462
 20
256.511112605664
 10
2359.5421071166993
 20
256.1283270793928
 10
2361.4
 20
256.0065543462815
 10
2361.4
 20
256.0
 10
2361.5
 20
256.0
 10
2405.3
 20
256.0
 10
2405.4
 20
256.0
 10
2405.4
 20
256.0065543462815
 10
2407.257892883301
 20
256.1283270793928
 10
2409.182285676538
 20
256.511112605664
 10
2411.0402514854763
 20
257.1418070123307
 10
2412.8
 20
258.0096189432334
 10
2414.4314214351307
 20
259.0996998956315
 10
2415.9066017177984
 20
260.3933982822018
 10
2417.2003001043686
 20
261.8685785648692
 10
2418.290381056767
 20
263.5
 10
2419.1581929876693
 20
265.25974851452366
 10
2419.788887394336
 20
267.11771432346217
 10
2420.1716729206073
 20
269.04210711669924
 10
2420.3
 20
271.0
 10
2420.1716729206073
 20
272.9578928833008
 10
2419.788887394336
 20
274.88228567653783
 10
2419.1581929876693
 20
276.74025148547634
 10
2418.290381056767
 20
278.5
 10
2417.2003001043686
 20
280.1314214351308
 10
2415.9066017177984
 20
281.60660171779824
 10
2414.4314214351307
 20
282.9003001043685
 10
2412.8
 20
283.9903810567666
 10
2411.0402514854763
 20
284.8581929876693
 10
2409.182285676538
 20
285.488887394336
 10
2407.257892883301
 20
285.8716729206072
 10
2405.4
 20
285.9934456537185
 10
2405.4
 20
286.0
 10
2405.3
 20
286.0
 10
2361.5
 20
286.0
 10
2361.4
 20
286.0
 10
2361.4
 20
285.9934456537185
 10
2359.5421071166993
 20
285.8716729206071
 10
2357.617714323462
 20
285.488887394336
 10
2355.759748514524
 20
284.8581929876693
 10
2354.0
 20
283.9903810567666
  0
LWPOLYLINE
  5
AE
330
17
100
AcDbEntity
  8
CORTE
100
AcDbPolyline
 90
59
 70
1
 10
2429.759748514524
 20
284.8581929876693
 10
2428.0
 20
283.9903810567666
 10
2426.3685785648695
 20
282.9003001043685
 10
2424.893398282202
 20
281.6066017177982
 10
2423.5996998956316
 20
280.1314214351308
 10
2422.5096189432334
 20
278.5
 10
2421.641807012331
 20
276.74025148547634
 10
2421.011112605664
 20
274.88228567653783
 10
2420.628327079393
 20
272.95789288330076
 10
2420.5
 20
271.0
 10
2420.628327079393
 20
269.04210711669924
 10
2421.011112605664
 20
267.11771432346217
 10
2421.641807012331
 20
265.25974851452366
 10
2422.5096189432334
 20
263.5
 10
2423.5996998956316
 20
261.8685785648692
 10
2424.893398282202
 20
260.3933982822018
 10
2426.3685785648695
 20
259.0996998956315
 10
2428.0
 20
258.0096189432334
 10
2429.759748514524
 20
257.1418070123307
 10
2431.617714323462
 20
256.511112605664
 10
2433.5421071166993
 20
256.1283270793928
 10
2435.4
 20
256.0065543462815
 10
2435.4
 20
256.0
 10
2435.5
 20
256.0
 10
2479.3
 20
256.0
 10
2479.4
 20
256.0
 10
2479.4
 20
256.0065543462815
 10
2481.257892883301
 20
256.1283270793928
 10
2483.182285676538
 20
256.511112605664
 10
2485.0402514854763
 20
257.1418070123307
 10
2486.8
 20
258.0096189432334
 10
2488.4314214351307
 20
259.0996998956315
 10
2489.9066017177984
 20
260.3933982822018
 10
2491.2003001043686
 20
261.8685785648692
 10
2492.290381056767
 20
263.5
 10
2493.1581929876693
 20
265.25974851452366
 10
2493.788887394336
 20
267.11771432346217
 10
2494.1716729206073
 20
269.04210711669924
 10
2494.3
 20
271.0
 10
2494.1716729206073
 20
272.9578928833008
 10
2493.788887394336
 20
274.88228567653783
 10
2493.1581929876693
 20
276.74025148547634
 10
2492.290381056767
 20
278.5
 10
2491.2003001043686
 20
280.1314214351308
 10
2489.9066017177984
 20
281.60660171779824
 10
2488.4314214351307
 20
282.9003001043685
 10
2486.8
 20
283.9903810567666
 10
2485.0402514854763
 20
284.8581929876693
 10
2483.182285676538
 20
285.488887394336
 10
2481.257892883301
 20
285.8716729206072
 10
2479.4
 20
285.9934456537185
 10
2479.4
 20
286.0
 10
2479.3
 20
286.0
 10
2435.5
 20
286.0
 10
2435.4
 20
286.0
 10
2435.4
 20
285.9934456537185
 10
2433.5421071166993
 20
285.8716729206071
 10
2431.617714323462
 20
285.488887394336
 10
2429.759748514524
 20
284.8581929876693
  0
LWPOLYLINE
  5
AF
330
17
100
AcDbEntity
  8
CORTE
100
AcDbPolyline
 90
59
 70
1
 10
2172.617714323462
 20
395.488887394336
 10
2170.759748514524
 20
394.8581929876693
 10
2169.0
 20
393.9903810567666
 10
2167.3685785648695
 20
392.9003001043685
 10
2165.893398282202
 20
391.6066017177982
 10
2164.5996998956316
 20
390.1314214351308
 10
2163.5096189432334
 20
388.5
 10
2162.641807012331
 20
386.74025148547634
 10
2162.011112605664
 20
384.88228567653783
 10
2161.628327079393
 20
382.95789288330076
 10
2161.5
 20
381.0
 10
2161.628327079393
 20
379.04210711669924
 10
2162.011112605664
 20
377.11771432346217
 10
2162.641807012331
 20
375.25974851452366
 10
2163.5096189432334
 20
373.5
 10
2164.5996998956316
 20
371.8685785648692
 10
2165.893398282202
 20
370.3933982822018
 10
2167.3685785648695
 20
369.0996998956315
 10
2169.0
 20
368.0096189432334
 10
2170.759748514524
 20
367.1418070123307
 10
2172.617714323462
 20
366.511112605664
 10
2174.5421071166993
 20
366.1283270793928
 10
2176.4
 20
366.0065543462815
 10
2176.4
 20
366.0
 10
2176.5
 20
366.0
 10
2220.3
 20
366.0
 10
2220.4
 20
366.0
 10
2220.4
 20
366.0065543462815
 10
2222.257892883301
 20
366.1283270793928
 10
2224.182285676538
 20
366.511112605664
 10
2226.0402514854763
 20
367.1418070123307
 10
2227.8
 20
368.0096189432334
 10
2229.4314214351307
 20
369.0996998956315
 10
2230.9066017177984
 20
370.3933982822018
 10
2232.2003001043686
 20
371.8685785648692
 10
2233.290381056767
 20
373.5
 10
2234.1581929876693
 20
375.25974851452366
 10
2234.788887394336
 20
377.11771432346217
 10
2235.1716729206073
 20
379.04210711669924
 10
2235.3
 20
381.0
 10
2235.1716729206073
 20
382.9578928833008
 10
2234.788887394336
 20
384.88228567653783
 10
2234.1581929876693
 20
386.74025148547634
 10
2233.290381056767
 20
388.5
 10
2232.2003001043686
 20
390.1314214351308
 10
2230.9066017177984
 20
391.60660171779824
 10
2229.4314214351307
 20
392.9003001043685
 10
2227.8
 20
393.9903810567666
 10
2226.0402514854763
 20
394.8581929876693
 10
2224.182285676538
 20
395.488887394336
 10
2222.257892883301
 20
395.8716729206072
 10
2220.4
 20
395.9934456537185
 10
2220.4
 20
396.0
 10
2220.3
 20
396.0
 10
2176.5
 20
396.0
 10
2176.4
 20
396.0
 10
2176.4
 20
395.9934456537185
 10
2174.5421071166993
 20
395.8716729206071
 10
2172.617714323462
 20
395.488887394336
  0
LWPOLYLINE
  5
B0
330
17
100
AcDbEntity
  8
CORTE
100
AcDbPolyline
 90
59
 70
1
 10
2248.5421071166993
 20
395.8716729206071
 10
2246.617714323462
 20
395.488887394336
 10
2244.759748514524
 20
394.8581929876693
 10
2243.0
 20
393.9903810567666
 10
2241.3685785648695
 20
392.9003001043685
 10
2239.893398282202
 20
391.6066017177982
 10
2238.5996998956316
 20
390.1314214351308
 10
2237.5096189432334
 20
388.5
 10
2236.641807012331
 20
386.74025148547634
 10
2236.011112605664
 20
384.88228567653783
 10
2235.628327079393
 20
382.95789288330076
 10
2235.5
 20
381.0
 10
2235.628327079393
 20
379.04210711669924
 10
2236.011112605664
 20
377.11771432346217
 10
2236.641807012331
 20
375.25974851452366
 10
2237.5096189432334
 20
373.5
 10
2238.5996998956316
 20
371.8685785648692
 10
2239.893398282202
 20
370.3933982822018
 10
2241.3685785648695
 20
369.0996998956315
 10
2243.0
 20
368.0096189432334
 10
2244.759748514524
 20
367.1418070123307
 10
2246.617714323462
 20
366.511112605664
 10
2248.5421071166993
 20
366.1283270793928
 10
2250.4
 20
366.0065543462815
 10
2250.4
 20
366.0
 10
2250.5
 20
366.0
 10
2294.3
 20
366.0
 10
2294.4
 20
366.0
 10
2294.4
 20
366.0065543462815
 10
2296.257892883301
 20
366.1283270793928
 10
2298.182285676538
 20
366.511112605664
 10
2300.0402514854763
 20
367.1418070123307
 10
2301.8
 20
368.0096189432334
 10
2303.4314214351307
 20
369.0996998956315
 10
2304.9066017177984
 20
370.3933982822018
 10
2306.2003001043686
 20
371.8685785648692
 10
2307.290381056767
 20
373.5
 10
2308.1581929876693
 20
375.25974851452366
 10
2308.788887394336
 20
377.11771432346217
 10
2309.1716729206073
 20
379.04210711669924
 10
2309.3
 20
381.0
 10
2309.1716729206073
 20
382.9578928833008
 10
2308.788887394336
 20
384.88228567653783
 10
2308.1581929876693
 20
386.74025148547634
 10
2307.290381056767
 20
388.5
 10
2306.2003001043686
 20
390.1314214351308
 10
2304.9066017177984
 20
391.60660171779824
 10
2303.4314214351307
 20
392.9003001043685
 10
2301.8
 20
393.9903810567666
 10
2300.0402514854763
 20
394.8581929876693
 10
2298.182285676538
 20
395.488887394336
 10
2296.257892883301
 20
395.8716729206072
 10
2294.4
 20
395.9934456537185
 10
2294.4
 20
396.0
 10
2294.3
 20
396.0
 10
2250.5
 20
396.0
 10
2250.4
 20
396.0
 10
2250.4
 20
395.9934456537185
 10
2248.5421071166993
 20
395.8716729206071
  0
LWPOLYLINE
  5
B1
330
17
100
AcDbEntity
  8
CORTE
100
AcDbPolyline
 90
59
 70
1
 10
2324.4
 20
395.9934456537185
 10
2322.5421071166993
 20
395.8716729206071
 10
2320.617714323462
 20
395.488887394336
 10
2318.759748514524
 20
394.8581929876693
 10
2317.0
 20
393.9903810567666
 10
2315.3685785648695
 20
392.9003001043685
 10
2313.893398282202
 20
391.6066017177982
 10
2312.5996998956316
 20
390.1314214351308
 10
2311.5096189432334
 20
388.5
 10
2310.641807012331
 20
386.74025148547634
 10
2310.011112605664
 20
384.88228567653783
 10
2309.628327079393
 20
382.95789288330076
 10
2309.5
 20
381.0
 10
2309.628327079393
 20
379.04210711669924
 10
2310.011112605664
 20
377.11771432346217
 10
2310.641807012331
 20
375.25974851452366
 10
2311.5096189432334
 20
373.5
 10
2312.5996998956316
 20
371.8685785648692
 10
2313.893398282202
 20
370.3933982822018
 10
2315.3685785648695
 20
369.0996998956315
 10
2317.0
 20
368.0096189432334
 10
2318.759748514524
 20
367.1418070123307
 10
2320.617714323462
 20
366.511112605664
 10
2322.5421071166993
 20
366.1283270793928
 10
2324.4
 20
366.0065543462815
 10
2324.4
 20
366.0
 10
2324.5
 20
366.0
 10
2368.3
 20
366.0
 10
2368.4
 20
366.0
 10
2368.4
 20
366.0065543462815
 10
2370.257892883301
 20
366.1283270793928
 10
2372.182285676538
 20
366.511112605664
 10
2374.0402514854763
 20
367.1418070123307
 10
2375.8
 20
368.0096189432334
 10
2377.4314214351307
 20
369.0996998956315
 10
2378.9066017177984
 20
370.3933982822018
 10
2380.2003001043686
 20
371.8685785648692
 10
2381.290381056767
 20
373.5
 10
2382.1581929876693
 20
375.25974851452366
 10
2382.788887394336
 20
377.11771432346217
 10
2383.1716729206073
 20
379.04210711669924
 10
2383.3
 20
381.0
 10
2383.1716729206073
 20
382.9578928833008
 10
2382.788887394336
 20
384.88228567653783
 10
2382.1581929876693
 20
386.74025148547634
 10
2381.290381056767
 20
388.5
 10
2380.2003001043686
 20
390.1314214351308
 10
2378.9066017177984
 20
391.60660171779824
 10
2377.4314214351307
 20
392.9003001043685
 10
2375.8
 20
393.9903810567666
 10
2374.0402514854763
 20
394.8581929876693
 10
2372.182285676538
 20
395.488887394336
 10
2370.257892883301
 20
395.8716729206072
 10
2368.4
 20
395.9934456537185
 10
2368.4
 20
396.0
 10
2368.3
 20
396.0
 10
2324.5
 20
396.0
 10
2324.4
 20
396.0
 10
2324.4
 20
395.9934456537185
  0
LWPOLYLINE
  5
B2
330
17
100
AcDbEntity
  8
CORTE
100
AcDbPolyline
 90
59
 70
1
 10
2398.4
 20
396.0
 10
2398.4
 20
395.9934456537185
 10
2396.5421071166993
 20
395.8716729206071
 10
2394.617714323462
 20
395.488887394336
 10
2392.759748514524
 20
394.8581929876693
 10
2391.0
 20
393.9903810567666
 10
2389.3685785648695
 20
392.9003001043685
 10
2387.893398282202
 20
391.6066017177982
 10
2386.5996998956316
 20
390.1314214351308
 10
2385.5096189432334
 20
388.5
 10
2384.641807012331
 20
386.74025148547634
 10
2384.011112605664
 20
384.88228567653783
 10
2383.628327079393
 20
382.95789288330076
 10
2383.5
 20
381.0
 10
2383.628327079393
 20
379.04210711669924
 10
2384.011112605664
 20
377.11771432346217
 10
2384.641807012331
 20
375.25974851452366
 10
2385.5096189432334
 20
373.5
 10
2386.5996998956316
 20
371.8685785648692
 10
2387.893398282202
 20
370.3933982822018
 10
2389.3685785648695
 20
369.0996998956315
 10
2391.0
 20
368.0096189432334
 10
2392.759748514524
 20
367.1418070123307
 10
2394.617714323462
 20
366.511112605664
 10
2396.5421071166993
 20
366.1283270793928
 10
2398.4
 20
366.0065543462815
 10
2398.4
 20
366.0
 10
2398.5
 20
366.0
 10
2442.3
 20
366.0
 10
2442.4
 20
366.0
 10
2442.4
 20
366.0065543462815
 10
2444.257892883301
 20
366.1283270793928
 10
2446.182285676538
 20
366.511112605664
 10
2448.0402514854763
 20
367.1418070123307
 10
2449.8
 20
368.0096189432334
 10
2451.4314214351307
 20
369.0996998956315
 10
2452.9066017177984
 20
370.3933982822018
 10
2454.2003001043686
 20
371.8685785648692
 10
2455.290381056767
 20
373.5
 10
2456.1581929876693
 20
375.25974851452366
 10
2456.788887394336
 20
377.11771432346217
 10
2457.1716729206073
 20
379.04210711669924
 10
2457.3
 20
381.0
 10
2457.1716729206073
 20
382.9578928833008
 10
2456.788887394336
 20
384.88228567653783
 10
2456.1581929876693
 20
386.74025148547634
 10
2455.290381056767
 20
388.5
 10
2454.2003001043686
 20
390.1314214351308
 10
2452.9066017177984
 20
391.60660171779824
 10
2451.4314214351307
 20
392.9003001043685
 10
2449.8
 20
393.9903810567666
 10
2448.0402514854763
 20
394.8581929876693
 10
2446.182285676538
 20
395.488887394336
 10
2444.257892883301
 20
395.8716729206072
 10
2442.4
 20
395.9934456537185
 10
2442.4
 20
396.0
 10
2442.3
 20
396.0
 10
2398.5
 20
396.0
 10
2398.4
 20
396.0
  0
TEXT
  5
B3
330
17
100
AcDbEntity
  8
TEXTO
100
AcDbText
 10
2129.4
 20
-22.0
 30
0.0
 40
8.0
  1
tapa_superior
 11
2129.4
 21
-22.0
 31
0.0
100
AcDbText
  0
LWPOLYLINE
  5
B4
330
17
100
AcDbEntity
  8
CORTE
100
AcDbPolyline
 90
4
 70
1
 10
2606.6
 20
0.0
 10
3136.6
 20
0.0
 10
3136.6
 20
246.3316802635079
 10
2606.6
 20
246.3316802635079
  0
LINE
  5
B5
330
17
100
AcDbEntity
  8
PLIEGUE
100
AcDbLine
 10
2606.6
 20
38.49292006587697
 30
0.0
 11
3136.6
 21
38.49292006587697
 31
0.0
  0
LINE
  5
B6
330
17
100
AcDbEntity
  8
PLIEGUE
100
AcDbLine
 10
2606.6
 20
210.37876019763092
 30
0.0
 11
3136.6
 21
210.37876019763092
 31
0.0
  0
TEXT
  5
B7
330
17
100
AcDbEntity
  8
TEXTO
100
AcDbText
 10
2606.6
 20
-22.0
 30
0.0
 40
8.0
  1
desarrollo_canal (x2) — BA 6.786 mm, K 0.44
 11
2606.6
 21
-22.0
 31
0.0
100
AcDbText
  0
ENDSEC
  0
SECTION
  2
OBJECTS
  0
DICTIONARY
  5
A
330
0
100
AcDbDictionary
281
1
  3
ACAD_COLOR
350
B
  3
ACAD_GROUP
350
C
  3
ACAD_LAYOUT
350
D
  3
ACAD_MATERIAL
350
E
  3
ACAD_MLEADERSTYLE
350
F
  3
ACAD_MLINESTYLE
350
10
  3
ACAD_PLOTSETTINGS
350
11
  3
ACAD_PLOTSTYLENAME
350
12
  3
ACAD_SCALELIST
350
14
  3
ACAD_TABLESTYLE
350
15
  3
ACAD_VISUALSTYLE
350
16
  3
EZDXF_META
350
2D
  0
DICTIONARY
  5
B
330
A
100
AcDbDictionary
281
1
  0
DICTIONARY
  5
C
330
A
100
AcDbDictionary
281
1
  0
DICTIONARY
  5
D
330
A
100
AcDbDictionary
281
1
  3
Model
350
1A
  3
Layout1
350
1E
  0
DICTIONARY
  5
E
330
A
100
AcDbDictionary
281
1
  3
ByBlock
350
1F
  3
ByLayer
350
20
  3
Global
350
21
  0
DICTIONARY
  5
F
330
A
100
AcDbDictionary
281
1
  3
Standard
350
2C
  0
DICTIONARY
  5
10
330
A
100
AcDbDictionary
281
1
  3
Standard
350
22
  0
DICTIONARY
  5
11
330
A
100
AcDbDictionary
281
1
  0
ACDBDICTIONARYWDFLT
  5
12
330
A
100
AcDbDictionary
281
1
  3
Normal
350
13
100
AcDbDictionaryWithDefault
340
13
  0
ACDBPLACEHOLDER
  5
13
330
12
  0
DICTIONARY
  5
14
330
A
100
AcDbDictionary
281
1
  0
DICTIONARY
  5
15
330
A
100
AcDbDictionary
281
1
  0
DICTIONARY
  5
16
330
A
100
AcDbDictionary
281
1
  3
2dWireframe
350
5A
  3
Basic
350
5B
  3
Brighten
350
5C
  3
ColorChange
350
5D
  3
Conceptual
350
5E
  3
Dim
350
5F
  3
EdgeColorOff
350
60
  3
Facepattern
350
61
  3
Flat
350
62
  3
FlatWithEdges
350
63
  3
Gouraud
350
64
  3
GouraudWithEdges
350
65
  3
Hidden
350
66
  3
JitterOff
350
67
  3
Linepattern
350
68
  3
Modeling
350
69
  3
OverhangOff
350
6A
  3
Realistic
350
6B
  3
Shaded
350
6C
  3
Shaded with edges
350
6D
  3
Shades of Gray
350
6E
  3
Sketchy
350
6F
  3
Thicken
350
70
  3
Wireframe
350
71
  3
X-Ray
350
72
  0
LAYOUT
  5
1A
330
D
100
AcDbPlotSettings
  1

  4
A3
  6

 40
7.5
 41
20.0
 42
7.5
 43
20.0
 44
420.0
 45
297.0
 46
0.0
 47
0.0
 48
0.0
 49
0.0
140
0.0
141
0.0
142
1.0
143
1.0
 70
1024
 72
1
 73
0
 74
5
  7

 75
16
 76
0
 77
2
 78
300
147
1.0
148
0.0
149
0.0
100
AcDbLayout
  1
Model
 70
1
 71
0
 10
0.0
 20
0.0
 11
420.0
 21
297.0
 12
0.0
 22
0.0
 32
0.0
 14
1e+20
 24
1e+20
 34
1e+20
 15
-1e+20
 25
-1e+20
 35
-1e+20
146
0.0
 13
0.0
 23
0.0
 33
0.0
 16
1.0
 26
0.0
 36
0.0
 17
0.0
 27
1.0
 37
0.0
 76
1
330
17
  0
LAYOUT
  5
1E
330
D
100
AcDbPlotSettings
  1

  4
A3
  6

 40
7.5
 41
20.0
 42
7.5
 43
20.0
 44
420.0
 45
297.0
 46
0.0
 47
0.0
 48
0.0
 49
0.0
140
0.0
141
0.0
142
1.0
143
1.0
 70
0
 72
1
 73
0
 74
5
  7

 75
16
 76
0
 77
2
 78
300
147
1.0
148
0.0
149
0.0
100
AcDbLayout
  1
Layout1
 70
1
 71
1
 10
0.0
 20
0.0
 11
420.0
 21
297.0
 12
0.0
 22
0.0
 32
0.0
 14
1e+20
 24
1e+20
 34
1e+20
 15
-1e+20
 25
-1e+20
 35
-1e+20
146
0.0
 13
0.0
 23
0.0
 33
0.0
 16
1.0
 26
0.0
 36
0.0
 17
0.0
 27
1.0
 37
0.0
 76
1
330
1B
  0
MATERIAL
  5
1F
102
{ACAD_REACTORS
330
E
102
}
330
E
100
AcDbMaterial
  1
ByBlock
  2

 70
0
 40
1.0
 71
1
 41
1.0
 91
-1023410177
 42
1.0
 72
1
  3

 73
1
 74
1
 75
1
 44
0.5
 73
0
 45
1.0
 46
1.0
 77
1
  4

 78
1
 79
1
170
1
 48
1.0
171
1
  6

172
1
173
1
174
1
140
1.0
141
1.0
175
1
  7

176
1
177
1
178
1
143
1.0
179
1
  8

270
1
271
1
272
1
145
1.0
146
1.0
273
1
  9

274
1
275
1
276
1
 42
1.0
 72
1
  3

 73
1
 74
1
 75
1
 94
63
  0
MATERIAL
  5
20
102
{ACAD_REACTORS
330
E
102
}
330
E
100
AcDbMaterial
  1
ByLayer
  2

 70
0
 40
1.0
 71
1
 41
1.0
 91
-1023410177
 42
1.0
 72
1
  3

 73
1
 74
1
 75
1
 44
0.5
 73
0
 45
1.0
 46
1.0
 77
1
  4

 78
1
 79
1
170
1
 48
1.0
171
1
  6

172
1
173
1
174
1
140
1.0
141
1.0
175
1
  7

176
1
177
1
178
1
143
1.0
179
1
  8

270
1
271
1
272
1
145
1.0
146
1.0
273
1
  9

274
1
275
1
276
1
 42
1.0
 72
1
  3

 73
1
 74
1
 75
1
 94
63
  0
MATERIAL
  5
21
102
{ACAD_REACTORS
330
E
102
}
330
E
100
AcDbMaterial
  1
Global
  2

 70
0
 40
1.0
 71
1
 41
1.0
 91
-1023410177
 42
1.0
 72
1
  3

 73
1
 74
1
 75
1
 44
0.5
 73
0
 45
1.0
 46
1.0
 77
1
  4

 78
1
 79
1
170
1
 48
1.0
171
1
  6

172
1
173
1
174
1
140
1.0
141
1.0
175
1
  7

176
1
177
1
178
1
143
1.0
179
1
  8

270
1
271
1
272
1
145
1.0
146
1.0
273
1
  9

274
1
275
1
276
1
 42
1.0
 72
1
  3

 73
1
 74
1
 75
1
 94
63
  0
MLINESTYLE
  5
22
102
{ACAD_REACTORS
330
10
102
}
330
10
100
AcDbMlineStyle
  2
Standard
 70
0
  3

 62
256
 51
90.0
 52
90.0
 71
2
 49
0.5
 62
256
  6
BYLAYER
 49
-0.5
 62
256
  6
BYLAYER
  0
MLEADERSTYLE
  5
2C
102
{ACAD_REACTORS
330
F
102
}
330
F
100
AcDbMLeaderStyle
179
2
170
2
171
1
172
0
 90
2
 40
0.0
 41
0.0
173
1
 91
-1056964608
 92
-2
290
1
 42
2.0
291
1
 43
8.0
  3
Standard
 44
4.0
300

342
29
174
1
175
1
176
0
178
1
 93
-1056964608
 45
4.0
292
0
297
0
 46
4.0
 94
-1056964608
 47
1.0
 49
1.0
140
1.0
294
1
141
0.0
177
0
142
1.0
295
0
296
0
143
3.75
271
0
272
9
273
9
  0
DICTIONARY
  5
2D
330
A
100
AcDbDictionary
280
1
281
1
  3
CREATED_BY_EZDXF
350
2E
  3
WRITTEN_BY_EZDXF
350
BA
  0
DICTIONARYVAR
  5
2E
330
2D
100
DictionaryVariables
280
0
  1
1.4.4 @ 2026-07-29T04:08:31.097461+00:00
  0
VISUALSTYLE
  5
5A
102
{ACAD_REACTORS
330
16
102
}
330
16
100
AcDbVisualStyle
  2
2dWireframe
 70
4
177
3
291
0
 70
58
 90
2
176
1
 90
2
176
1
 90
0
176
1
 90
0
176
1
 40
0.6
176
1
 40
30.0
176
1
 62
7
420
16777215
176
1
 90
1
176
1
 90
4
176
1
 62
7
176
1
 62
257
176
1
 90
1
176
1
 90
1
176
1
 40
1.0
176
1
 90
8
176
1
 62
7
176
1
 40
1.0
176
1
 90
1
176
1
 90
6
176
1
 90
2
176
1
 62
7
176
1
 90
5
176
1
 90
0
176
1
 90
0
176
1
290
0
176
1
 90
1
176
1
 40
0.0
176
1
 90
0
176
1
290
1
176
1
290
1
176
1
290
0
176
1
290
0
176
1
290
0
176
1
290
0
176
1
290
0
176
1
290
0
176
1
290
0
176
1
 90
50
176
1
 40
0.0
176
1
 40
1.0
176
1
 90
0
176
1
 62
18
420
0
176
1
 90
50
176
1
 90
3
176
1
 62
5
420
255
176
1
290
0
176
1
 90
50
176
1
 90
50
176
1
 90
50
176
1
290
0
176
1
 90
50
176
1
 62
256
176
0
 40
1.0
176
0
 90
2
176
1
  1
strokes_ogs.tif
176
1
290
0
176
1
 40
1.0
176
1
 40
1.0
176
1
  0
VISUALSTYLE
  5
5B
102
{ACAD_REACTORS
330
16
102
}
330
16
100
AcDbVisualStyle
  2
Basic
 70
7
177
3
291
1
 70
58
 90
2
176
1
 90
2
176
1
 90
0
176
1
 90
1
176
1
 40
0.6
176
1
 40
30.0
176
1
 62
7
420
16777215
176
1
 90
1
176
1
 90
4
176
1
 62
7
176
1
 62
257
176
1
 90
1
176
1
 90
1
176
1
 40
1.0
176
1
 90
8
176
1
 62
7
176
1
 40
1.0
176
1
 90
1
176
1
 90
6
176
1
 90
2
176
1
 62
7
176
1
 90
5
176
1
 90
0
176
1
 90
0
176
1
290
0
176
1
 90
1
176
1
 40
0.0
176
1
 90
0
176
1
290
0
176
1
290
1
176
1
290
1
176
1
290
0
176
1
290
0
176
1
290
0
176
1
290
0
176
1
290
0
176
1
290
0
176
1
 90
50
176
1
 40
0.0
176
1
 40
1.0
176
1
 90
0
176
1
 62
18
420
0
176
1
 90
50
176
1
 90
3
176
1
 62
5
420
255
176
1
290
0
176
1
 90
50
176
1
 90
50
176
1
 90
50
176
1
290
0
176
1
 90
50
176
1
 62
256
176
0
 40
1.0
176
0
 90
2
176
1
  1
strokes_ogs.tif
176
1
290
0
176
1
 40
1.0
176
1
 40
1.0
176
1
  0
VISUALSTYLE
  5
5C
102
{ACAD_REACTORS
330
16
102
}
330
16
100
AcDbVisualStyle
  2
Brighten
 70
12
177
3
291
1
 70
58
 90
2
176
1
 90
2
176
1
 90
0
176
1
 90
2
176
1
 40
0.6
176
1
 40
30.0
176
1
 62
7
420
16777215
176
1
 90
1
176
1
 90
4
176
1
 62
7
176
1
 62
257
176
1
 90
1
176
1
 90
1
176
1
 40
1.0
176
1
 90
8
176
1
 62
7
176
1
 40
1.0
176
1
 90
1
176
1
 90
6
176
1
 90
2
176
1
 62
7
176
1
 90
5
176
1
 90
0
176
1
 90
0
176
1
290
0
176
1
 90
1
176
1
 40
0.0
176
1
 90
0
176
1
290
0
176
1
290
1
176
1
290
1
176
1
290
0
176
1
290
0
176
1
290
0
176
1
290
0
176
1
290
0
176
1
290
0
176
1
 90
50
176
1
 40
0.0
176
1
 40
1.0
176
1
 90
0
176
1
 62
18
420
0
176
1
 90
50
176
1
 90
3
176
1
 62
5
420
255
176
1
290
0
176
1
 90
50
176
1
 90
50
176
1
 90
50
176
1
290
0
176
1
 90
50
176
1
 62
256
176
0
 40
1.0
176
0
 90
2
176
1
  1
strokes_ogs.tif
176
1
290
0
176
1
 40
1.0
176
1
 40
1.0
176
1
  0
VISUALSTYLE
  5
5D
102
{ACAD_REACTORS
330
16
102
}
330
16
100
AcDbVisualStyle
  2
ColorChange
 70
16
177
3
291
1
 70
58
 90
2
176
1
 90
2
176
1
 90
0
176
1
 90
2
176
1
 40
0.6
176
1
 40
30.0
176
1
 62
7
420
16777215
176
1
 90
1
176
1
 90
4
176
1
 62
7
176
1
 62
257
176
1
 90
1
176
1
 90
1
176
1
 40
1.0
176
1
 90
8
176
1
 62
7
176
1
 40
1.0
176
1
 90
1
176
1
 90
6
176
1
 90
2
176
1
 62
7
176
1
 90
5
176
1
 90
0
176
1
 90
0
176
1
290
0
176
1
 90
1
176
1
 40
0.0
176
1
 90
0
176
1
290
0
176
1
290
1
176
1
290
1
176
1
290
0
176
1
290
0
176
1
290
0
176
1
290
0
176
1
290
0
176
1
290
0
176
1
 90
50
176
1
 40
0.0
176
1
 40
1.0
176
1
 90
0
176
1
 62
18
420
0
176
1
 90
50
176
1
 90
3
176
1
 62
5
420
255
176
1
290
0
176
1
 90
50
176
1
 90
50
176
1
 90
50
176
1
290
0
176
1
 90
50
176
1
 62
256
176
0
 40
1.0
176
0
 90
2
176
1
  1
strokes_ogs.tif
176
1
290
0
176
1
 40
1.0
176
1
 40
1.0
176
1
  0
VISUALSTYLE
  5
5E
102
{ACAD_REACTORS
330
16
102
}
330
16
100
AcDbVisualStyle
  2
Conceptual
 70
9
177
3
291
0
 70
58
 90
2
176
1
 90
2
176
1
 90
0
176
1
 90
3
176
1
 40
0.6
176
1
 40
30.0
176
1
 62
7
420
16777215
176
1
 90
1
176
1
 90
4
176
1
 62
7
176
1
 62
257
176
1
 90
1
176
1
 90
1
176
1
 40
1.0
176
1
 90
8
176
1
 62
7
176
1
 40
1.0
176
1
 90
1
176
1
 90
6
176
1
 90
2
176
1
 62
7
176
1
 90
5
176
1
 90
0
176
1
 90
0
176
1
290
0
176
1
 90
1
176
1
 40
0.0
176
1
 90
0
176
1
290
0
176
1
290
1
176
1
290
1
176
1
290
0
176
1
290
0
176
1
290
0
176
1
290
0
176
1
290
0
176
1
290
0
176
1
 90
50
176
1
 40
0.0
176
1
 40
1.0
176
1
 90
0
176
1
 62
18
420
0
176
1
 90
50
176
1
 90
3
176
1
 62
5
420
255
176
1
290
0
176
1
 90
50
176
1
 90
50
176
1
 90
50
176
1
290
0
176
1
 90
50
176
1
 62
256
176
0
 40
1.0
176
0
 90
2
176
1
  1
strokes_ogs.tif
176
1
290
0
176
1
 40
1.0
176
1
 40
1.0
176
1
  0
VISUALSTYLE
  5
5F
102
{ACAD_REACTORS
330
16
102
}
330
16
100
AcDbVisualStyle
  2
Dim
 70
11
177
3
291
1
 70
58
 90
2
176
1
 90
2
176
1
 90
0
176
1
 90
2
176
1
 40
0.6
176
1
 40
30.0
176
1
 62
7
420
16777215
176
1
 90
1
176
1
 90
4
176
1
 62
7
176
1
 62
257
176
1
 90
1
176
1
 90
1
176
1
 40
1.0
176
1
 90
8
176
1
 62
7
176
1
 40
1.0
176
1
 90
1
176
1
 90
6
176
1
 90
2
176
1
 62
7
176
1
 90
5
176
1
 90
0
176
1
 90
0
176
1
290
0
176
1
 90
1
176
1
 40
0.0
176
1
 90
0
176
1
290
0
176
1
290
1
176
1
290
1
176
1
290
0
176
1
290
0
176
1
290
0
176
1
290
0
176
1
290
0
176
1
290
0
176
1
 90
50
176
1
 40
0.0
176
1
 40
1.0
176
1
 90
0
176
1
 62
18
420
0
176
1
 90
50
176
1
 90
3
176
1
 62
5
420
255
176
1
290
0
176
1
 90
50
176
1
 90
50
176
1
 90
50
176
1
290
0
176
1
 90
50
176
1
 62
256
176
0
 40
1.0
176
0
 90
2
176
1
  1
strokes_ogs.tif
176
1
290
0
176
1
 40
1.0
176
1
 40
1.0
176
1
  0
VISUALSTYLE
  5
60
102
{ACAD_REACTORS
330
16
102
}
330
16
100
AcDbVisualStyle
  2
EdgeColorOff
 70
22
177
3
291
1
 70
58
 90
2
176
1
 90
2
176
1
 90
0
176
1
 90
2
176
1
 40
0.6
176
1
 40
30.0
176
1
 62
7
420
16777215
176
1
 90
1
176
1
 90
4
176
1
 62
7
176
1
 62
257
176
1
 90
1
176
1
 90
1
176
1
 40
1.0
176
1
 90
8
176
1
 62
7
176
1
 40
1.0
176
1
 90
1
176
1
 90
6
176
1
 90
2
176
1
 62
7
176
1
 90
5
176
1
 90
0
176
1
 90
0
176
1
290
0
176
1
 90
1
176
1
 40
0.0
176
1
 90
0
176
1
290
0
176
1
290
1
176
1
290
1
176
1
290
0
176
1
290
0
176
1
290
0
176
1
290
0
176
1
290
0
176
1
290
0
176
1
 90
50
176
1
 40
0.0
176
1
 40
1.0
176
1
 90
0
176
1
 62
18
420
0
176
1
 90
50
176
1
 90
3
176
1
 62
5
420
255
176
1
290
0
176
1
 90
50
176
1
 90
50
176
1
 90
50
176
1
290
0
176
1
 90
50
176
1
 62
256
176
0
 40
1.0
176
0
 90
2
176
1
  1
strokes_ogs.tif
176
1
290
0
176
1
 40
1.0
176
1
 40
1.0
176
1
  0
VISUALSTYLE
  5
61
102
{ACAD_REACTORS
330
16
102
}
330
16
100
AcDbVisualStyle
  2
Facepattern
 70
15
177
3
291
1
 70
58
 90
2
176
1
 90
2
176
1
 90
0
176
1
 90
2
176
1
 40
0.6
176
1
 40
30.0
176
1
 62
7
420
16777215
176
1
 90
1
176
1
 90
4
176
1
 62
7
176
1
 62
257
176
1
 90
1
176
1
 90
1
176
1
 40
1.0
176
1
 90
8
176
1
 62
7
176
1
 40
1.0
176
1
 90
1
176
1
 90
6
176
1
 90
2
176
1
 62
7
176
1
 90
5
176
1
 90
0
176
1
 90
0
176
1
290
0
176
1
 90
1
176
1
 40
0.0
176
1
 90
0
176
1
290
0
176
1
290
1
176
1
290
1
176
1
290
0
176
1
290
0
176
1
290
0
176
1
290
0
176
1
290
0
176
1
290
0
176
1
 90
50
176
1
 40
0.0
176
1
 40
1.0
176
1
 90
0
176
1
 62
18
420
0
176
1
 90
50
176
1
 90
3
176
1
 62
5
420
255
176
1
290
0
176
1
 90
50
176
1
 90
50
176
1
 90
50
176
1
290
0
176
1
 90
50
176
1
 62
256
176
0
 40
1.0
176
0
 90
2
176
1
  1
strokes_ogs.tif
176
1
290
0
176
1
 40
1.0
176
1
 40
1.0
176
1
  0
VISUALSTYLE
  5
62
102
{ACAD_REACTORS
330
16
102
}
330
16
100
AcDbVisualStyle
  2
Flat
 70
0
177
3
291
1
 70
58
 90
2
176
1
 90
2
176
1
 90
0
176
1
 90
2
176
1
 40
0.6
176
1
 40
30.0
176
1
 62
7
420
16777215
176
1
 90
1
176
1
 90
4
176
1
 62
7
176
1
 62
257
176
1
 90
1
176
1
 90
1
176
1
 40
1.0
176
1
 90
8
176
1
 62
7
176
1
 40
1.0
176
1
 90
1
176
1
 90
6
176
1
 90
2
176
1
 62
7
176
1
 90
5
176
1
 90
0
176
1
 90
0
176
1
290
0
176
1
 90
1
176
1
 40
0.0
176
1
 90
0
176
1
290
0
176
1
290
1
176
1
290
1
176
1
290
0
176
1
290
0
176
1
290
0
176
1
290
0
176
1
290
0
176
1
290
0
176
1
 90
50
176
1
 40
0.0
176
1
 40
1.0
176
1
 90
0
176
1
 62
18
420
0
176
1
 90
50
176
1
 90
3
176
1
 62
5
420
255
176
1
290
0
176
1
 90
50
176
1
 90
50
176
1
 90
50
176
1
290
0
176
1
 90
50
176
1
 62
256
176
0
 40
1.0
176
0
 90
2
176
1
  1
strokes_ogs.tif
176
1
290
0
176
1
 40
1.0
176
1
 40
1.0
176
1
  0
VISUALSTYLE
  5
63
102
{ACAD_REACTORS
330
16
102
}
330
16
100
AcDbVisualStyle
  2
FlatWithEdges
 70
1
177
3
291
1
 70
58
 90
2
176
1
 90
2
176
1
 90
0
176
1
 90
2
176
1
 40
0.6
176
1
 40
30.0
176
1
 62
7
420
16777215
176
1
 90
1
176
1
 90
4
176
1
 62
7
176
1
 62
257
176
1
 90
1
176
1
 90
1
176
1
 40
1.0
176
1
 90
8
176
1
 62
7
176
1
 40
1.0
176
1
 90
1
176
1
 90
6
176
1
 90
2
176
1
 62
7
176
1
 90
5
176
1
 90
0
176
1
 90
0
176
1
290
0
176
1
 90
1
176
1
 40
0.0
176
1
 90
0
176
1
290
0
176
1
290
1
176
1
290
1
176
1
290
0
176
1
290
0
176
1
290
0
176
1
290
0
176
1
290
0
176
1
290
0
176
1
 90
50
176
1
 40
0.0
176
1
 40
1.0
176
1
 90
0
176
1
 62
18
420
0
176
1
 90
50
176
1
 90
3
176
1
 62
5
420
255
176
1
290
0
176
1
 90
50
176
1
 90
50
176
1
 90
50
176
1
290
0
176
1
 90
50
176
1
 62
256
176
0
 40
1.0
176
0
 90
2
176
1
  1
strokes_ogs.tif
176
1
290
0
176
1
 40
1.0
176
1
 40
1.0
176
1
  0
VISUALSTYLE
  5
64
102
{ACAD_REACTORS
330
16
102
}
330
16
100
AcDbVisualStyle
  2
Gouraud
 70
2
177
3
291
1
 70
58
 90
2
176
1
 90
2
176
1
 90
0
176
1
 90
2
176
1
 40
0.6
176
1
 40
30.0
176
1
 62
7
420
16777215
176
1
 90
1
176
1
 90
4
176
1
 62
7
176
1
 62
257
176
1
 90
1
176
1
 90
1
176
1
 40
1.0
176
1
 90
8
176
1
 62
7
176
1
 40
1.0
176
1
 90
1
176
1
 90
6
176
1
 90
2
176
1
 62
7
176
1
 90
5
176
1
 90
0
176
1
 90
0
176
1
290
0
176
1
 90
1
176
1
 40
0.0
176
1
 90
0
176
1
290
0
176
1
290
1
176
1
290
1
176
1
290
0
176
1
290
0
176
1
290
0
176
1
290
0
176
1
290
0
176
1
290
0
176
1
 90
50
176
1
 40
0.0
176
1
 40
1.0
176
1
 90
0
176
1
 62
18
420
0
176
1
 90
50
176
1
 90
3
176
1
 62
5
420
255
176
1
290
0
176
1
 90
50
176
1
 90
50
176
1
 90
50
176
1
290
0
176
1
 90
50
176
1
 62
256
176
0
 40
1.0
176
0
 90
2
176
1
  1
strokes_ogs.tif
176
1
290
0
176
1
 40
1.0
176
1
 40
1.0
176
1
  0
VISUALSTYLE
  5
65
102
{ACAD_REACTORS
330
16
102
}
330
16
100
AcDbVisualStyle
  2
GouraudWithEdges
 70
3
177
3
291
1
 70
58
 90
2
176
1
 90
2
176
1
 90
0
176
1
 90
2
176
1
 40
0.6
176
1
 40
30.0
176
1
 62
7
420
16777215
176
1
 90
1
176
1
 90
4
176
1
 62
7
176
1
 62
257
176
1
 90
1
176
1
 90
1
176
1
 40
1.0
176
1
 90
8
176
1
 62
7
176
1
 40
1.0
176
1
 90
1
176
1
 90
6
176
1
 90
2
176
1
 62
7
176
1
 90
5
176
1
 90
0
176
1
 90
0
176
1
290
0
176
1
 90
1
176
1
 40
0.0
176
1
 90
0
176
1
290
0
176
1
290
1
176
1
290
1
176
1
290
0
176
1
290
0
176
1
290
0
176
1
290
0
176
1
290
0
176
1
290
0
176
1
 90
50
176
1
 40
0.0
176
1
 40
1.0
176
1
 90
0
176
1
 62
18
420
0
176
1
 90
50
176
1
 90
3
176
1
 62
5
420
255
176
1
290
0
176
1
 90
50
176
1
 90
50
176
1
 90
50
176
1
290
0
176
1
 90
50
176
1
 62
256
176
0
 40
1.0
176
0
 90
2
176
1
  1
strokes_ogs.tif
176
1
290
0
176
1
 40
1.0
176
1
 40
1.0
176
1
  0
VISUALSTYLE
  5
66
102
{ACAD_REACTORS
330
16
102
}
330
16
100
AcDbVisualStyle
  2
Hidden
 70
6
177
3
291
0
 70
58
 90
2
176
1
 90
2
176
1
 90
0
176
1
 90
1
176
1
 40
0.6
176
1
 40
30.0
176
1
 62
7
420
16777215
176
1
 90
1
176
1
 90
4
176
1
 62
7
176
1
 62
257
176
1
 90
1
176
1
 90
1
176
1
 40
1.0
176
1
 90
8
176
1
 62
7
176
1
 40
1.0
176
1
 90
1
176
1
 90
6
176
1
 90
2
176
1
 62
7
176
1
 90
5
176
1
 90
0
176
1
 90
0
176
1
290
0
176
1
 90
1
176
1
 40
0.0
176
1
 90
0
176
1
290
0
176
1
290
1
176
1
290
1
176
1
290
0
176
1
290
0
176
1
290
0
176
1
290
0
176
1
290
0
176
1
290
0
176
1
 90
50
176
1
 40
0.0
176
1
 40
1.0
176
1
 90
0
176
1
 62
18
420
0
176
1
 90
50
176
1
 90
3
176
1
 62
5
420
255
176
1
290
0
176
1
 90
50
176
1
 90
50
176
1
 90
50
176
1
290
0
176
1
 90
50
176
1
 62
256
176
0
 40
1.0
176
0
 90
2
176
1
  1
strokes_ogs.tif
176
1
290
0
176
1
 40
1.0
176
1
 40
1.0
176
1
  0
VISUALSTYLE
  5
67
102
{ACAD_REACTORS
330
16
102
}
330
16
100
AcDbVisualStyle
  2
JitterOff
 70
20
177
3
291
1
 70
58
 90
2
176
1
 90
2
176
1
 90
0
176
1
 90
2
176
1
 40
0.6
176
1
 40
30.0
176
1
 62
7
420
16777215
176
1
 90
1
176
1
 90
4
176
1
 62
7
176
1
 62
257
176
1
 90
1
176
1
 90
1
176
1
 40
1.0
176
1
 90
8
176
1
 62
7
176
1
 40
1.0
176
1
 90
1
176
1
 90
6
176
1
 90
2
176
1
 62
7
176
1
 90
5
176
1
 90
0
176
1
 90
0
176
1
290
0
176
1
 90
1
176
1
 40
0.0
176
1
 90
0
176
1
290
0
176
1
290
1
176
1
290
1
176
1
290
0
176
1
290
0
176
1
290
0
176
1
290
0
176
1
290
0
176
1
290
0
176
1
 90
50
176
1
 40
0.0
176
1
 40
1.0
176
1
 90
0
176
1
 62
18
420
0
176
1
 90
50
176
1
 90
3
176
1
 62
5
420
255
176
1
290
0
176
1
 90
50
176
1
 90
50
176
1
 90
50
176
1
290
0
176
1
 90
50
176
1
 62
256
176
0
 40
1.0
176
0
 90
2
176
1
  1
strokes_ogs.tif
176
1
290
0
176
1
 40
1.0
176
1
 40
1.0
176
1
  0
VISUALSTYLE
  5
68
102
{ACAD_REACTORS
330
16
102
}
330
16
100
AcDbVisualStyle
  2
Linepattern
 70
14
177
3
291
1
 70
58
 90
2
176
1
 90
2
176
1
 90
0
176
1
 90
2
176
1
 40
0.6
176
1
 40
30.0
176
1
 62
7
420
16777215
176
1
 90
1
176
1
 90
4
176
1
 62
7
176
1
 62
257
176
1
 90
1
176
1
 90
1
176
1
 40
1.0
176
1
 90
8
176
1
 62
7
176
1
 40
1.0
176
1
 90
1
176
1
 90
6
176
1
 90
2
176
1
 62
7
176
1
 90
5
176
1
 90
0
176
1
 90
0
176
1
290
0
176
1
 90
1
176
1
 40
0.0
176
1
 90
0
176
1
290
0
176
1
290
1
176
1
290
1
176
1
290
0
176
1
290
0
176
1
290
0
176
1
290
0
176
1
290
0
176
1
290
0
176
1
 90
50
176
1
 40
0.0
176
1
 40
1.0
176
1
 90
0
176
1
 62
18
420
0
176
1
 90
50
176
1
 90
3
176
1
 62
5
420
255
176
1
290
0
176
1
 90
50
176
1
 90
50
176
1
 90
50
176
1
290
0
176
1
 90
50
176
1
 62
256
176
0
 40
1.0
176
0
 90
2
176
1
  1
strokes_ogs.tif
176
1
290
0
176
1
 40
1.0
176
1
 40
1.0
176
1
  0
VISUALSTYLE
  5
69
102
{ACAD_REACTORS
330
16
102
}
330
16
100
AcDbVisualStyle
  2
Modeling
 70
10
177
3
291
0
 70
58
 90
2
176
1
 90
2
176
1
 90
0
176
1
 90
2
176
1
 40
0.6
176
1
 40
30.0
176
1
 62
7
420
16777215
176
1
 90
1
176
1
 90
4
176
1
 62
7
176
1
 62
257
176
1
 90
1
176
1
 90
1
176
1
 40
1.0
176
1
 90
8
176
1
 62
7
176
1
 40
1.0
176
1
 90
1
176
1
 90
6
176
1
 90
2
176
1
 62
7
176
1
 90
5
176
1
 90
0
176
1
 90
0
176
1
290
0
176
1
 90
1
176
1
 40
0.0
176
1
 90
0
176
1
290
0
176
1
290
1
176
1
290
1
176
1
290
0
176
1
290
0
176
1
290
0
176
1
290
0
176
1
290
0
176
1
290
0
176
1
 90
50
176
1
 40
0.0
176
1
 40
1.0
176
1
 90
0
176
1
 62
18
420
0
176
1
 90
50
176
1
 90
3
176
1
 62
5
420
255
176
1
290
0
176
1
 90
50
176
1
 90
50
176
1
 90
50
176
1
290
0
176
1
 90
50
176
1
 62
256
176
0
 40
1.0
176
0
 90
2
176
1
  1
strokes_ogs.tif
176
1
290
0
176
1
 40
1.0
176
1
 40
1.0
176
1
  0
VISUALSTYLE
  5
6A
102
{ACAD_REACTORS
330
16
102
}
330
16
100
AcDbVisualStyle
  2
OverhangOff
 70
21
177
3
291
1
 70
58
 90
2
176
1
 90
2
176
1
 90
0
176
1
 90
2
176
1
 40
0.6
176
1
 40
30.0
176
1
 62
7
420
16777215
176
1
 90
1
176
1
 90
4
176
1
 62
7
176
1
 62
257
176
1
 90
1
176
1
 90
1
176
1
 40
1.0
176
1
 90
8
176
1
 62
7
176
1
 40
1.0
176
1
 90
1
176
1
 90
6
176
1
 90
2
176
1
 62
7
176
1
 90
5
176
1
 90
0
176
1
 90
0
176
1
290
0
176
1
 90
1
176
1
 40
0.0
176
1
 90
0
176
1
290
0
176
1
290
1
176
1
290
1
176
1
290
0
176
1
290
0
176
1
290
0
176
1
290
0
176
1
290
0
176
1
290
0
176
1
 90
50
176
1
 40
0.0
176
1
 40
1.0
176
1
 90
0
176
1
 62
18
420
0
176
1
 90
50
176
1
 90
3
176
1
 62
5
420
255
176
1
290
0
176
1
 90
50
176
1
 90
50
176
1
 90
50
176
1
290
0
176
1
 90
50
176
1
 62
256
176
0
 40
1.0
176
0
 90
2
176
1
  1
strokes_ogs.tif
176
1
290
0
176
1
 40
1.0
176
1
 40
1.0
176
1
  0
VISUALSTYLE
  5
6B
102
{ACAD_REACTORS
330
16
102
}
330
16
100
AcDbVisualStyle
  2
Realistic
 70
8
177
3
291
0
 70
58
 90
2
176
1
 90
2
176
1
 90
0
176
1
 90
2
176
1
 40
0.6
176
1
 40
30.0
176
1
 62
7
420
16777215
176
1
 90
1
176
1
 90
4
176
1
 62
7
176
1
 62
257
176
1
 90
1
176
1
 90
1
176
1
 40
1.0
176
1
 90
8
176
1
 62
7
176
1
 40
1.0
176
1
 90
1
176
1
 90
6
176
1
 90
2
176
1
 62
7
176
1
 90
5
176
1
 90
0
176
1
 90
0
176
1
290
0
176
1
 90
1
176
1
 40
0.0
176
1
 90
0
176
1
290
0
176
1
290
1
176
1
290
1
176
1
290
0
176
1
290
0
176
1
290
0
176
1
290
0
176
1
290
0
176
1
290
0
176
1
 90
50
176
1
 40
0.0
176
1
 40
1.0
176
1
 90
0
176
1
 62
18
420
0
176
1
 90
50
176
1
 90
3
176
1
 62
5
420
255
176
1
290
0
176
1
 90
50
176
1
 90
50
176
1
 90
50
176
1
290
0
176
1
 90
50
176
1
 62
256
176
0
 40
1.0
176
0
 90
2
176
1
  1
strokes_ogs.tif
176
1
290
0
176
1
 40
1.0
176
1
 40
1.0
176
1
  0
VISUALSTYLE
  5
6C
102
{ACAD_REACTORS
330
16
102
}
330
16
100
AcDbVisualStyle
  2
Shaded
 70
27
177
3
291
0
 70
58
 90
2
176
1
 90
2
176
1
 90
0
176
1
 90
2
176
1
 40
0.6
176
1
 40
30.0
176
1
 62
7
420
16777215
176
1
 90
1
176
1
 90
4
176
1
 62
7
176
1
 62
257
176
1
 90
1
176
1
 90
1
176
1
 40
1.0
176
1
 90
8
176
1
 62
7
176
1
 40
1.0
176
1
 90
1
176
1
 90
6
176
1
 90
2
176
1
 62
7
176
1
 90
5
176
1
 90
0
176
1
 90
0
176
1
290
0
176
1
 90
1
176
1
 40
0.0
176
1
 90
0
176
1
290
0
176
1
290
1
176
1
290
1
176
1
290
0
176
1
290
0
176
1
290
0
176
1
290
0
176
1
290
0
176
1
290
0
176
1
 90
50
176
1
 40
0.0
176
1
 40
1.0
176
1
 90
0
176
1
 62
18
420
0
176
1
 90
50
176
1
 90
3
176
1
 62
5
420
255
176
1
290
0
176
1
 90
50
176
1
 90
50
176
1
 90
50
176
1
290
0
176
1
 90
50
176
1
 62
256
176
0
 40
1.0
176
0
 90
2
176
1
  1
strokes_ogs.tif
176
1
290
0
176
1
 40
1.0
176
1
 40
1.0
176
1
  0
VISUALSTYLE
  5
6D
102
{ACAD_REACTORS
330
16
102
}
330
16
100
AcDbVisualStyle
  2
Shaded with edges
 70
26
177
3
291
0
 70
58
 90
2
176
1
 90
2
176
1
 90
0
176
1
 90
2
176
1
 40
0.6
176
1
 40
30.0
176
1
 62
7
420
16777215
176
1
 90
1
176
1
 90
4
176
1
 62
7
176
1
 62
257
176
1
 90
1
176
1
 90
1
176
1
 40
1.0
176
1
 90
8
176
1
 62
7
176
1
 40
1.0
176
1
 90
1
176
1
 90
6
176
1
 90
2
176
1
 62
7
176
1
 90
5
176
1
 90
0
176
1
 90
0
176
1
290
0
176
1
 90
1
176
1
 40
0.0
176
1
 90
0
176
1
290
0
176
1
290
1
176
1
290
1
176
1
290
0
176
1
290
0
176
1
290
0
176
1
290
0
176
1
290
0
176
1
290
0
176
1
 90
50
176
1
 40
0.0
176
1
 40
1.0
176
1
 90
0
176
1
 62
18
420
0
176
1
 90
50
176
1
 90
3
176
1
 62
5
420
255
176
1
290
0
176
1
 90
50
176
1
 90
50
176
1
 90
50
176
1
290
0
176
1
 90
50
176
1
 62
256
176
0
 40
1.0
176
0
 90
2
176
1
  1
strokes_ogs.tif
176
1
290
0
176
1
 40
1.0
176
1
 40
1.0
176
1
  0
VISUALSTYLE
  5
6E
102
{ACAD_REACTORS
330
16
102
}
330
16
100
AcDbVisualStyle
  2
Shades of Gray
 70
23
177
3
291
0
 70
58
 90
2
176
1
 90
2
176
1
 90
0
176
1
 90
2
176
1
 40
0.6
176
1
 40
30.0
176
1
 62
7
420
16777215
176
1
 90
1
176
1
 90
4
176
1
 62
7
176
1
 62
257
176
1
 90
1
176
1
 90
1
176
1
 40
1.0
176
1
 90
8
176
1
 62
7
176
1
 40
1.0
176
1
 90
1
176
1
 90
6
176
1
 90
2
176
1
 62
7
176
1
 90
5
176
1
 90
0
176
1
 90
0
176
1
290
0
176
1
 90
1
176
1
 40
0.0
176
1
 90
0
176
1
290
0
176
1
290
1
176
1
290
1
176
1
290
0
176
1
290
0
176
1
290
0
176
1
290
0
176
1
290
0
176
1
290
0
176
1
 90
50
176
1
 40
0.0
176
1
 40
1.0
176
1
 90
0
176
1
 62
18
420
0
176
1
 90
50
176
1
 90
3
176
1
 62
5
420
255
176
1
290
0
176
1
 90
50
176
1
 90
50
176
1
 90
50
176
1
290
0
176
1
 90
50
176
1
 62
256
176
0
 40
1.0
176
0
 90
2
176
1
  1
strokes_ogs.tif
176
1
290
0
176
1
 40
1.0
176
1
 40
1.0
176
1
  0
VISUALSTYLE
  5
6F
102
{ACAD_REACTORS
330
16
102
}
330
16
100
AcDbVisualStyle
  2
Sketchy
 70
24
177
3
291
0
 70
58
 90
2
176
1
 90
2
176
1
 90
0
176
1
 90
1
176
1
 40
0.6
176
1
 40
30.0
176
1
 62
7
420
16777215
176
1
 90
1
176
1
 90
4
176
1
 62
7
176
1
 62
257
176
1
 90
1
176
1
 90
1
176
1
 40
1.0
176
1
 90
8
176
1
 62
7
176
1
 40
1.0
176
1
 90
1
176
1
 90
6
176
1
 90
2
176
1
 62
7
176
1
 90
5
176
1
 90
0
176
1
 90
0
176
1
290
0
176
1
 90
1
176
1
 40
0.0
176
1
 90
0
176
1
290
0
176
1
290
1
176
1
290
1
176
1
290
0
176
1
290
0
176
1
290
0
176
1
290
0
176
1
290
0
176
1
290
0
176
1
 90
50
176
1
 40
0.0
176
1
 40
1.0
176
1
 90
0
176
1
 62
18
420
0
176
1
 90
50
176
1
 90
3
176
1
 62
5
420
255
176
1
290
0
176
1
 90
50
176
1
 90
50
176
1
 90
50
176
1
290
0
176
1
 90
50
176
1
 62
256
176
0
 40
1.0
176
0
 90
2
176
1
  1
strokes_ogs.tif
176
1
290
0
176
1
 40
1.0
176
1
 40
1.0
176
1
  0
VISUALSTYLE
  5
70
102
{ACAD_REACTORS
330
16
102
}
330
16
100
AcDbVisualStyle
  2
Thicken
 70
13
177
3
291
1
 70
58
 90
2
176
1
 90
2
176
1
 90
0
176
1
 90
2
176
1
 40
0.6
176
1
 40
30.0
176
1
 62
7
420
16777215
176
1
 90
1
176
1
 90
4
176
1
 62
7
176
1
 62
257
176
1
 90
1
176
1
 90
1
176
1
 40
1.0
176
1
 90
8
176
1
 62
7
176
1
 40
1.0
176
1
 90
1
176
1
 90
6
176
1
 90
2
176
1
 62
7
176
1
 90
5
176
1
 90
0
176
1
 90
0
176
1
290
0
176
1
 90
1
176
1
 40
0.0
176
1
 90
0
176
1
290
0
176
1
290
1
176
1
290
1
176
1
290
0
176
1
290
0
176
1
290
0
176
1
290
0
176
1
290
0
176
1
290
0
176
1
 90
50
176
1
 40
0.0
176
1
 40
1.0
176
1
 90
0
176
1
 62
18
420
0
176
1
 90
50
176
1
 90
3
176
1
 62
5
420
255
176
1
290
0
176
1
 90
50
176
1
 90
50
176
1
 90
50
176
1
290
0
176
1
 90
50
176
1
 62
256
176
0
 40
1.0
176
0
 90
2
176
1
  1
strokes_ogs.tif
176
1
290
0
176
1
 40
1.0
176
1
 40
1.0
176
1
  0
VISUALSTYLE
  5
71
102
{ACAD_REACTORS
330
16
102
}
330
16
100
AcDbVisualStyle
  2
Wireframe
 70
5
177
3
291
0
 70
58
 90
2
176
1
 90
2
176
1
 90
0
176
1
 90
0
176
1
 40
0.6
176
1
 40
30.0
176
1
 62
7
420
16777215
176
1
 90
1
176
1
 90
4
176
1
 62
7
176
1
 62
257
176
1
 90
1
176
1
 90
1
176
1
 40
1.0
176
1
 90
8
176
1
 62
7
176
1
 40
1.0
176
1
 90
1
176
1
 90
6
176
1
 90
2
176
1
 62
7
176
1
 90
5
176
1
 90
0
176
1
 90
0
176
1
290
0
176
1
 90
1
176
1
 40
0.0
176
1
 90
0
176
1
290
0
176
1
290
1
176
1
290
1
176
1
290
0
176
1
290
0
176
1
290
0
176
1
290
0
176
1
290
0
176
1
290
0
176
1
 90
50
176
1
 40
0.0
176
1
 40
1.0
176
1
 90
0
176
1
 62
18
420
0
176
1
 90
50
176
1
 90
3
176
1
 62
5
420
255
176
1
290
0
176
1
 90
50
176
1
 90
50
176
1
 90
50
176
1
290
0
176
1
 90
50
176
1
 62
256
176
0
 40
1.0
176
0
 90
2
176
1
  1
strokes_ogs.tif
176
1
290
0
176
1
 40
1.0
176
1
 40
1.0
176
1
  0
VISUALSTYLE
  5
72
102
{ACAD_REACTORS
330
16
102
}
330
16
100
AcDbVisualStyle
  2
X-Ray
 70
25
177
3
291
0
 70
58
 90
2
176
1
 90
2
176
1
 90
0
176
1
 90
2
176
1
 40
0.5
176
1
 40
30.0
176
1
 62
7
420
16777215
176
1
 90
1
176
1
 90
4
176
1
 62
7
176
1
 62
257
176
1
 90
1
176
1
 90
1
176
1
 40
1.0
176
1
 90
8
176
1
 62
7
176
1
 40
1.0
176
1
 90
1
176
1
 90
6
176
1
 90
2
176
1
 62
7
176
1
 90
5
176
1
 90
0
176
1
 90
0
176
1
290
0
176
1
 90
1
176
1
 40
0.0
176
1
 90
0
176
1
290
0
176
1
290
1
176
1
290
1
176
1
290
0
176
1
290
0
176
1
290
0
176
1
290
0
176
1
290
0
176
1
290
0
176
1
 90
50
176
1
 40
0.0
176
1
 40
1.0
176
1
 90
0
176
1
 62
18
420
0
176
1
 90
50
176
1
 90
3
176
1
 62
5
420
255
176
1
290
0
176
1
 90
50
176
1
 90
50
176
1
 90
50
176
1
290
0
176
1
 90
50
176
1
 62
256
176
0
 40
1.0
176
0
 90
2
176
1
  1
strokes_ogs.tif
176
1
290
0
176
1
 40
1.0
176
1
 40
1.0
176
1
  0
DICTIONARYVAR
  5
BA
330
2D
100
DictionaryVariables
280
0
  1
1.4.4 @ 2026-07-29T04:08:31.110065+00:00
  0
ENDSEC
  0
EOF
