0
SECTION
2
HEADER
9
$ACADVER
1
AC1009
9
$DWGCODEPAGE
3
ANSI_1252
0
ENDSEC
0
SECTION
2
TABLES
0
TABLE
2
LTYPE
70
2
0
LTYPE
2
CONTINUOUS
70
0
3
Solid line
72
65
73
0
40
0
0
LTYPE
2
DASHED
70
0
3
Segmentada __ __ __
72
65
73
2
40
6
49
4
49
-2
0
ENDTAB
0
TABLE
2
LAYER
70
7
0
LAYER
2
SOMBRA
70
0
62
8
6
CONTINUOUS
0
LAYER
2
NORMA
70
0
62
7
6
CONTINUOUS
0
LAYER
2
FINA
70
0
62
7
6
CONTINUOUS
0
LAYER
2
VISIBLE
70
0
62
7
6
CONTINUOUS
0
LAYER
2
COTAS
70
0
62
7
6
CONTINUOUS
0
LAYER
2
TEXTO
70
0
62
7
6
CONTINUOUS
0
LAYER
2
PLIEGUE
70
0
62
1
6
DASHED
0
ENDTAB
0
ENDSEC
0
SECTION
2
ENTITIES
0
LINE
8
VISIBLE
10
67.0000
20
154.7150
30
0
11
537.0000
21
154.7150
31
0
0
LINE
8
VISIBLE
10
537.0000
20
154.7150
30
0
11
537.0000
21
312.2850
31
0
0
LINE
8
VISIBLE
10
537.0000
20
312.2850
30
0
11
67.0000
21
312.2850
31
0
0
LINE
8
VISIBLE
10
67.0000
20
312.2850
30
0
11
67.0000
21
154.7150
31
0
0
LINE
8
FINA
10
67.0000
20
188.7150
30
0
11
537.0000
21
188.7150
31
0
0
LINE
8
PLIEGUE
10
67.0000
20
192.1050
30
0
11
537.0000
21
192.1050
31
0
0
LINE
8
FINA
10
67.0000
20
195.5050
30
0
11
537.0000
21
195.5050
31
0
0
LINE
8
FINA
10
67.0000
20
271.5050
30
0
11
537.0000
21
271.5050
31
0
0
LINE
8
PLIEGUE
10
67.0000
20
274.8950
30
0
11
537.0000
21
274.8950
31
0
0
LINE
8
FINA
10
67.0000
20
278.2850
30
0
11
537.0000
21
278.2850
31
0
0
TEXT
8
TEXTO
10
302.0000
20
196.1050
30
0
40
2.5000
1
PLEGAR ARRIBA 90° R3 (×2)
72
1
73
2
11
302.0000
21
196.1050
31
0
0
LINE
8
COTAS
10
67.0000
20
153.7150
30
0
11
67.0000
21
144.2150
31
0
0
LINE
8
COTAS
10
537.0000
20
153.7150
30
0
11
537.0000
21
144.2150
31
0
0
LINE
8
COTAS
10
67.0000
20
145.7150
30
0
11
537.0000
21
145.7150
31
0
0
SOLID
8
COTAS
10
67.0000
20
145.7150
30
0
11
69.5000
21
146.1650
31
0
12
69.5000
22
145.2650
32
0
13
69.5000
23
145.2650
33
0
0
SOLID
8
COTAS
10
537.0000
20
145.7150
30
0
11
534.5000
21
146.1650
31
0
12
534.5000
22
145.2650
32
0
13
534.5000
23
145.2650
33
0
0
TEXT
8
COTAS
10
302.0000
20
147.9150
30
0
40
3.5000
1
470
72
1
73
2
11
302.0000
21
147.9150
31
0
0
LINE
8
COTAS
10
538.0000
20
154.7150
30
0
11
547.5000
21
154.7150
31
0
0
LINE
8
COTAS
10
538.0000
20
312.2850
30
0
11
547.5000
21
312.2850
31
0
0
LINE
8
COTAS
10
546.0000
20
154.7150
30
0
11
546.0000
21
312.2850
31
0
0
SOLID
8
COTAS
10
546.0000
20
154.7150
30
0
11
546.4500
21
157.2150
31
0
12
545.5500
22
157.2150
32
0
13
545.5500
23
157.2150
33
0
0
SOLID
8
COTAS
10
546.0000
20
312.2850
30
0
11
546.4500
21
309.7850
31
0
12
545.5500
22
309.7850
32
0
13
545.5500
23
309.7850
33
0
0
TEXT
8
COTAS
10
548.2000
20
233.5000
30
0
40
3.5000
1
157.6
72
1
73
2
11
548.2000
21
233.5000
31
0
0
TEXT
8
TEXTO
10
67.0000
20
322.7850
30
0
40
3.5000
1
DESARROLLO DE CHAPA — BA = ang·(R + K·t), fibra neutra por factor K
0
TEXT
8
TEXTO
10
67.0000
20
317.2850
30
0
40
4.0000
1
ESPESOR DE CHAPA e = 3 mm (constante en toda la pieza)
0
LINE
8
FINA
10
0.0000
20
0.0000
30
0
11
594.0000
21
0.0000
31
0
0
LINE
8
FINA
10
594.0000
20
0.0000
30
0
11
594.0000
21
420.0000
31
0
0
LINE
8
FINA
10
594.0000
20
420.0000
30
0
11
0.0000
21
420.0000
31
0
0
LINE
8
FINA
10
0.0000
20
420.0000
30
0
11
0.0000
21
0.0000
31
0
0
LINE
8
NORMA
10
20.0000
20
10.0000
30
0
11
584.0000
21
10.0000
31
0
0
LINE
8
NORMA
10
584.0000
20
10.0000
30
0
11
584.0000
21
410.0000
31
0
0
LINE
8
NORMA
10
584.0000
20
410.0000
30
0
11
20.0000
21
410.0000
31
0
0
LINE
8
NORMA
10
20.0000
20
410.0000
30
0
11
20.0000
21
10.0000
31
0
0
LINE
8
NORMA
10
0.0000
20
210.0000
30
0
11
25.0000
21
210.0000
31
0
0
LINE
8
NORMA
10
594.0000
20
210.0000
30
0
11
579.0000
21
210.0000
31
0
0
LINE
8
NORMA
10
297.0000
20
0.0000
30
0
11
297.0000
21
15.0000
31
0
0
LINE
8
NORMA
10
297.0000
20
420.0000
30
0
11
297.0000
21
405.0000
31
0
0
LINE
8
FINA
10
49.5000
20
0.0000
30
0
11
49.5000
21
10.0000
31
0
0
LINE
8
FINA
10
49.5000
20
410.0000
30
0
11
49.5000
21
420.0000
31
0
0
LINE
8
FINA
10
99.0000
20
0.0000
30
0
11
99.0000
21
10.0000
31
0
0
LINE
8
FINA
10
99.0000
20
410.0000
30
0
11
99.0000
21
420.0000
31
0
0
LINE
8
FINA
10
148.5000
20
0.0000
30
0
11
148.5000
21
10.0000
31
0
0
LINE
8
FINA
10
148.5000
20
410.0000
30
0
11
148.5000
21
420.0000
31
0
0
LINE
8
FINA
10
198.0000
20
0.0000
30
0
11
198.0000
21
10.0000
31
0
0
LINE
8
FINA
10
198.0000
20
410.0000
30
0
11
198.0000
21
420.0000
31
0
0
LINE
8
FINA
10
247.5000
20
0.0000
30
0
11
247.5000
21
10.0000
31
0
0
LINE
8
FINA
10
247.5000
20
410.0000
30
0
11
247.5000
21
420.0000
31
0
0
LINE
8
FINA
10
297.0000
20
0.0000
30
0
11
297.0000
21
10.0000
31
0
0
LINE
8
FINA
10
297.0000
20
410.0000
30
0
11
297.0000
21
420.0000
31
0
0
LINE
8
FINA
10
346.5000
20
0.0000
30
0
11
346.5000
21
10.0000
31
0
0
LINE
8
FINA
10
346.5000
20
410.0000
30
0
11
346.5000
21
420.0000
31
0
0
LINE
8
FINA
10
396.0000
20
0.0000
30
0
11
396.0000
21
10.0000
31
0
0
LINE
8
FINA
10
396.0000
20
410.0000
30
0
11
396.0000
21
420.0000
31
0
0
LINE
8
FINA
10
445.5000
20
0.0000
30
0
11
445.5000
21
10.0000
31
0
0
LINE
8
FINA
10
445.5000
20
410.0000
30
0
11
445.5000
21
420.0000
31
0
0
LINE
8
FINA
10
495.0000
20
0.0000
30
0
11
495.0000
21
10.0000
31
0
0
LINE
8
FINA
10
495.0000
20
410.0000
30
0
11
495.0000
21
420.0000
31
0
0
LINE
8
FINA
10
544.5000
20
0.0000
30
0
11
544.5000
21
10.0000
31
0
0
LINE
8
FINA
10
544.5000
20
410.0000
30
0
11
544.5000
21
420.0000
31
0
0
LINE
8
FINA
10
0.0000
20
52.5000
30
0
11
10.0000
21
52.5000
31
0
0
LINE
8
FINA
10
584.0000
20
52.5000
30
0
11
594.0000
21
52.5000
31
0
0
LINE
8
FINA
10
0.0000
20
105.0000
30
0
11
10.0000
21
105.0000
31
0
0
LINE
8
FINA
10
584.0000
20
105.0000
30
0
11
594.0000
21
105.0000
31
0
0
LINE
8
FINA
10
0.0000
20
157.5000
30
0
11
10.0000
21
157.5000
31
0
0
LINE
8
FINA
10
584.0000
20
157.5000
30
0
11
594.0000
21
157.5000
31
0
0
LINE
8
FINA
10
0.0000
20
210.0000
30
0
11
10.0000
21
210.0000
31
0
0
LINE
8
FINA
10
584.0000
20
210.0000
30
0
11
594.0000
21
210.0000
31
0
0
LINE
8
FINA
10
0.0000
20
262.5000
30
0
11
10.0000
21
262.5000
31
0
0
LINE
8
FINA
10
584.0000
20
262.5000
30
0
11
594.0000
21
262.5000
31
0
0
LINE
8
FINA
10
0.0000
20
315.0000
30
0
11
10.0000
21
315.0000
31
0
0
LINE
8
FINA
10
584.0000
20
315.0000
30
0
11
594.0000
21
315.0000
31
0
0
LINE
8
FINA
10
0.0000
20
367.5000
30
0
11
10.0000
21
367.5000
31
0
0
LINE
8
FINA
10
584.0000
20
367.5000
30
0
11
594.0000
21
367.5000
31
0
0
TEXT
8
TEXTO
10
24.7500
20
5.0000
30
0
40
2.5000
1
1
72
1
73
2
11
24.7500
21
5.0000
31
0
0
TEXT
8
TEXTO
10
24.7500
20
415.0000
30
0
40
2.5000
1
1
72
1
73
2
11
24.7500
21
415.0000
31
0
0
TEXT
8
TEXTO
10
74.2500
20
5.0000
30
0
40
2.5000
1
2
72
1
73
2
11
74.2500
21
5.0000
31
0
0
TEXT
8
TEXTO
10
74.2500
20
415.0000
30
0
40
2.5000
1
2
72
1
73
2
11
74.2500
21
415.0000
31
0
0
TEXT
8
TEXTO
10
123.7500
20
5.0000
30
0
40
2.5000
1
3
72
1
73
2
11
123.7500
21
5.0000
31
0
0
TEXT
8
TEXTO
10
123.7500
20
415.0000
30
0
40
2.5000
1
3
72
1
73
2
11
123.7500
21
415.0000
31
0
0
TEXT
8
TEXTO
10
173.2500
20
5.0000
30
0
40
2.5000
1
4
72
1
73
2
11
173.2500
21
5.0000
31
0
0
TEXT
8
TEXTO
10
173.2500
20
415.0000
30
0
40
2.5000
1
4
72
1
73
2
11
173.2500
21
415.0000
31
0
0
TEXT
8
TEXTO
10
222.7500
20
5.0000
30
0
40
2.5000
1
5
72
1
73
2
11
222.7500
21
5.0000
31
0
0
TEXT
8
TEXTO
10
222.7500
20
415.0000
30
0
40
2.5000
1
5
72
1
73
2
11
222.7500
21
415.0000
31
0
0
TEXT
8
TEXTO
10
272.2500
20
5.0000
30
0
40
2.5000
1
6
72
1
73
2
11
272.2500
21
5.0000
31
0
0
TEXT
8
TEXTO
10
272.2500
20
415.0000
30
0
40
2.5000
1
6
72
1
73
2
11
272.2500
21
415.0000
31
0
0
TEXT
8
TEXTO
10
321.7500
20
5.0000
30
0
40
2.5000
1
7
72
1
73
2
11
321.7500
21
5.0000
31
0
0
TEXT
8
TEXTO
10
321.7500
20
415.0000
30
0
40
2.5000
1
7
72
1
73
2
11
321.7500
21
415.0000
31
0
0
TEXT
8
TEXTO
10
371.2500
20
5.0000
30
0
40
2.5000
1
8
72
1
73
2
11
371.2500
21
5.0000
31
0
0
TEXT
8
TEXTO
10
371.2500
20
415.0000
30
0
40
2.5000
1
8
72
1
73
2
11
371.2500
21
415.0000
31
0
0
TEXT
8
TEXTO
10
420.7500
20
5.0000
30
0
40
2.5000
1
9
72
1
73
2
11
420.7500
21
5.0000
31
0
0
TEXT
8
TEXTO
10
420.7500
20
415.0000
30
0
40
2.5000
1
9
72
1
73
2
11
420.7500
21
415.0000
31
0
0
TEXT
8
TEXTO
10
470.2500
20
5.0000
30
0
40
2.5000
1
10
72
1
73
2
11
470.2500
21
5.0000
31
0
0
TEXT
8
TEXTO
10
470.2500
20
415.0000
30
0
40
2.5000
1
10
72
1
73
2
11
470.2500
21
415.0000
31
0
0
TEXT
8
TEXTO
10
519.7500
20
5.0000
30
0
40
2.5000
1
11
72
1
73
2
11
519.7500
21
5.0000
31
0
0
TEXT
8
TEXTO
10
519.7500
20
415.0000
30
0
40
2.5000
1
11
72
1
73
2
11
519.7500
21
415.0000
31
0
0
TEXT
8
TEXTO
10
569.2500
20
5.0000
30
0
40
2.5000
1
12
72
1
73
2
11
569.2500
21
5.0000
31
0
0
TEXT
8
TEXTO
10
569.2500
20
415.0000
30
0
40
2.5000
1
12
72
1
73
2
11
569.2500
21
415.0000
31
0
0
TEXT
8
TEXTO
10
5.0000
20
393.7500
30
0
40
2.5000
1
A
72
1
73
2
11
5.0000
21
393.7500
31
0
0
TEXT
8
TEXTO
10
589.0000
20
393.7500
30
0
40
2.5000
1
A
72
1
73
2
11
589.0000
21
393.7500
31
0
0
TEXT
8
TEXTO
10
5.0000
20
341.2500
30
0
40
2.5000
1
B
72
1
73
2
11
5.0000
21
341.2500
31
0
0
TEXT
8
TEXTO
10
589.0000
20
341.2500
30
0
40
2.5000
1
B
72
1
73
2
11
589.0000
21
341.2500
31
0
0
TEXT
8
TEXTO
10
5.0000
20
288.7500
30
0
40
2.5000
1
C
72
1
73
2
11
5.0000
21
288.7500
31
0
0
TEXT
8
TEXTO
10
589.0000
20
288.7500
30
0
40
2.5000
1
C
72
1
73
2
11
589.0000
21
288.7500
31
0
0
TEXT
8
TEXTO
10
5.0000
20
236.2500
30
0
40
2.5000
1
D
72
1
73
2
11
5.0000
21
236.2500
31
0
0
TEXT
8
TEXTO
10
589.0000
20
236.2500
30
0
40
2.5000
1
D
72
1
73
2
11
589.0000
21
236.2500
31
0
0
TEXT
8
TEXTO
10
5.0000
20
183.7500
30
0
40
2.5000
1
E
72
1
73
2
11
5.0000
21
183.7500
31
0
0
TEXT
8
TEXTO
10
589.0000
20
183.7500
30
0
40
2.5000
1
E
72
1
73
2
11
589.0000
21
183.7500
31
0
0
TEXT
8
TEXTO
10
5.0000
20
131.2500
30
0
40
2.5000
1
F
72
1
73
2
11
5.0000
21
131.2500
31
0
0
TEXT
8
TEXTO
10
589.0000
20
131.2500
30
0
40
2.5000
1
F
72
1
73
2
11
589.0000
21
131.2500
31
0
0
TEXT
8
TEXTO
10
5.0000
20
78.7500
30
0
40
2.5000
1
G
72
1
73
2
11
5.0000
21
78.7500
31
0
0
TEXT
8
TEXTO
10
589.0000
20
78.7500
30
0
40
2.5000
1
G
72
1
73
2
11
589.0000
21
78.7500
31
0
0
TEXT
8
TEXTO
10
5.0000
20
26.2500
30
0
40
2.5000
1
H
72
1
73
2
11
5.0000
21
26.2500
31
0
0
TEXT
8
TEXTO
10
589.0000
20
26.2500
30
0
40
2.5000
1
H
72
1
73
2
11
589.0000
21
26.2500
31
0
0
LINE
8
NORMA
10
404.0000
20
10.0000
30
0
11
584.0000
21
10.0000
31
0
0
LINE
8
NORMA
10
584.0000
20
10.0000
30
0
11
584.0000
21
52.0000
31
0
0
LINE
8
NORMA
10
584.0000
20
52.0000
30
0
11
404.0000
21
52.0000
31
0
0
LINE
8
NORMA
10
404.0000
20
52.0000
30
0
11
404.0000
21
10.0000
31
0
0
LINE
8
NORMA
10
444.0000
20
10.0000
30
0
11
444.0000
21
52.0000
31
0
0
LINE
8
NORMA
10
538.0000
20
10.0000
30
0
11
538.0000
21
52.0000
31
0
0
LINE
8
FINA
10
404.0000
20
29.0000
30
0
11
444.0000
21
29.0000
31
0
0
TEXT
8
TEXTO
10
424.0000
20
43.8000
30
0
40
6.0000
1
foto3d
72
1
73
2
11
424.0000
21
43.8000
31
0
0
LINE
8
FINA
10
410.5000
20
38.6000
30
0
11
437.5000
21
38.6000
31
0
0
TEXT
8
TEXTO
10
424.0000
20
35.8000
30
0
40
1.3000
1
CAD · DISEÑO CAPA USER
72
1
73
2
11
424.0000
21
35.8000
31
0
0
TEXT
8
TEXTO
10
424.0000
20
32.6000
30
0
40
1.3000
1
ISO 5457 · 7200 · 129 · 5456-2
72
1
73
2
11
424.0000
21
32.6000
31
0
0
TEXT
8
TEXTO
10
424.0000
20
26.6000
30
0
40
1.4000
1
PROYECCIÓN — PRIMER DIEDRO
72
1
73
2
11
424.0000
21
26.6000
31
0
0
CIRCLE
8
TEXTO
10
419.4000
20
17.5000
30
0
40
2.9900
0
CIRCLE
8
TEXTO
10
419.4000
20
17.5000
30
0
40
1.6100
0
LINE
8
TEXTO
10
424.4600
20
14.5100
30
0
11
431.5900
21
15.8900
31
0
0
LINE
8
TEXTO
10
431.5900
20
15.8900
30
0
11
431.5900
21
19.1100
31
0
0
LINE
8
TEXTO
10
431.5900
20
19.1100
30
0
11
424.4600
21
20.4900
31
0
0
LINE
8
TEXTO
10
424.4600
20
20.4900
30
0
11
424.4600
21
14.5100
31
0
0
LINE
8
FINA
10
415.0300
20
17.5000
30
0
11
432.9700
21
17.5000
31
0
0
LINE
8
FINA
10
444.0000
20
39.0000
30
0
11
538.0000
21
39.0000
31
0
0
LINE
8
FINA
10
444.0000
20
29.0000
30
0
11
538.0000
21
29.0000
31
0
0
LINE
8
FINA
10
444.0000
20
19.0000
30
0
11
538.0000
21
19.0000
31
0
0
LINE
8
FINA
10
491.0000
20
29.0000
30
0
11
491.0000
21
39.0000
31
0
0
LINE
8
FINA
10
500.0000
20
19.0000
30
0
11
500.0000
21
29.0000
31
0
0
TEXT
8
TEXTO
10
445.3000
20
49.6000
30
0
40
1.4000
1
DESIGNACIÓN
0
TEXT
8
TEXTO
10
445.6000
20
44.1000
30
0
40
2.5701
1
LBD-06 · Travesaño tipo ZP2026 (TR_S) — C 88×40×3 (x1) — DESARROLLO
72
0
73
2
11
445.6000
21
44.1000
31
0
0
TEXT
8
TEXTO
10
445.3000
20
36.6000
30
0
40
1.4000
1
PROYECTO
0
TEXT
8
TEXTO
10
445.6000
20
32.6000
30
0
40
2.0000
1
CV-GT-800 · Movex 530 GT (friction top) 18 in…
72
0
73
2
11
445.6000
21
32.6000
31
0
0
TEXT
8
TEXTO
10
492.3000
20
36.6000
30
0
40
1.4000
1
FUENTE
0
TEXT
8
TEXTO
10
492.6000
20
32.6000
30
0
40
2.4000
1
chapa plegada — capa user
72
0
73
2
11
492.6000
21
32.6000
31
0
0
TEXT
8
TEXTO
10
445.3000
20
26.6000
30
0
40
1.4000
1
VERIFICACIÓN DE ESCALA
0
TEXT
8
TEXTO
10
445.6000
20
22.6000
30
0
40
2.4000
1
CAD EN MM (CAPA USER)
72
0
73
2
11
445.6000
21
22.6000
31
0
0
TEXT
8
TEXTO
10
501.3000
20
26.6000
30
0
40
1.4000
1
PLIEGUES
0
TEXT
8
TEXTO
10
501.6000
20
22.6000
30
0
40
2.6000
1
2
72
0
73
2
11
501.6000
21
22.6000
31
0
0
TEXT
8
TEXTO
10
445.3000
20
16.6000
30
0
40
1.4000
1
NOTA
0
TEXT
8
TEXTO
10
445.6000
20
13.1000
30
0
40
2.0000
1
Acero S275JR e3 — plegado en C 88×40 (matriz ZP2026), PINTADO RAL 7035. SOLDAR a placa…
72
0
73
2
11
445.6000
21
13.1000
31
0
0
LINE
8
FINA
10
538.0000
20
39.0000
30
0
11
584.0000
21
39.0000
31
0
0
LINE
8
FINA
10
538.0000
20
29.0000
30
0
11
584.0000
21
29.0000
31
0
0
LINE
8
FINA
10
538.0000
20
19.0000
30
0
11
584.0000
21
19.0000
31
0
0
LINE
8
FINA
10
561.0000
20
29.0000
30
0
11
561.0000
21
39.0000
31
0
0
LINE
8
FINA
10
564.0000
20
19.0000
30
0
11
564.0000
21
29.0000
31
0
0
TEXT
8
TEXTO
10
539.3000
20
49.6000
30
0
40
1.4000
1
ESCALA
0
TEXT
8
TEXTO
10
561.0000
20
44.1000
30
0
40
5.0000
1
1:1
72
1
73
2
11
561.0000
21
44.1000
31
0
0
TEXT
8
TEXTO
10
539.3000
20
36.6000
30
0
40
1.4000
1
FORMATO
0
TEXT
8
TEXTO
10
549.5000
20
32.6000
30
0
40
3.0000
1
A2
72
1
73
2
11
549.5000
21
32.6000
31
0
0
TEXT
8
TEXTO
10
562.3000
20
36.6000
30
0
40
1.4000
1
LÁMINA
0
TEXT
8
TEXTO
10
572.5000
20
32.6000
30
0
40
3.0000
1
1 / 1
72
1
73
2
11
572.5000
21
32.6000
31
0
0
TEXT
8
TEXTO
10
539.3000
20
26.6000
30
0
40
1.4000
1
FECHA
0
TEXT
8
TEXTO
10
551.0000
20
22.6000
30
0
40
2.6000
1
2026-08-12
72
1
73
2
11
551.0000
21
22.6000
31
0
0
TEXT
8
TEXTO
10
565.3000
20
26.6000
30
0
40
1.4000
1
UNIDADES
0
TEXT
8
TEXTO
10
574.0000
20
22.6000
30
0
40
3.0000
1
mm
72
1
73
2
11
574.0000
21
22.6000
31
0
0
TEXT
8
TEXTO
10
539.3000
20
16.6000
30
0
40
1.4000
1
Nº DE PLANO
0
TEXT
8
TEXTO
10
561.0000
20
13.1000
30
0
40
2.6000
1
LBD-06
72
1
73
2
11
561.0000
21
13.1000
31
0
0
ENDSEC
0
EOF
