0
SECTION
2
HEADER
9
$ACADVER
1
AC1009
9
$DWGCODEPAGE
3
ANSI_1252
0
ENDSEC
0
SECTION
2
TABLES
0
TABLE
2
LTYPE
70
2
0
LTYPE
2
CONTINUOUS
70
0
3
Solid line
72
65
73
0
40
0
0
LTYPE
2
DASHED
70
0
3
Segmentada __ __ __
72
65
73
2
40
6
49
4
49
-2
0
ENDTAB
0
TABLE
2
LAYER
70
7
0
LAYER
2
SOMBRA
70
0
62
8
6
CONTINUOUS
0
LAYER
2
NORMA
70
0
62
7
6
CONTINUOUS
0
LAYER
2
FINA
70
0
62
7
6
CONTINUOUS
0
LAYER
2
VISIBLE
70
0
62
7
6
CONTINUOUS
0
LAYER
2
COTAS
70
0
62
7
6
CONTINUOUS
0
LAYER
2
TEXTO
70
0
62
7
6
CONTINUOUS
0
LAYER
2
PLIEGUE
70
0
62
1
6
DASHED
0
ENDTAB
0
ENDSEC
0
SECTION
2
ENTITIES
0
LINE
8
VISIBLE
10
1085.9400
20
277.0600
30
0
11
1101.7200
21
293.2600
31
0
0
LINE
8
VISIBLE
10
1101.7200
20
293.2600
30
0
11
1117.0800
21
309.8700
31
0
0
LINE
8
VISIBLE
10
1117.0800
20
309.8700
30
0
11
1131.9900
21
326.8800
31
0
0
LINE
8
VISIBLE
10
1131.9900
20
326.8800
30
0
11
1146.4500
21
344.2700
31
0
0
LINE
8
VISIBLE
10
1146.4500
20
344.2700
30
0
11
1160.4600
21
362.0300
31
0
0
LINE
8
VISIBLE
10
1160.4600
20
362.0300
30
0
11
1173.9900
21
380.1500
31
0
0
LINE
8
VISIBLE
10
1173.9900
20
380.1500
30
0
11
1187.0500
21
398.6300
31
0
0
LINE
8
VISIBLE
10
1187.0500
20
398.6300
30
0
11
1199.6100
21
417.4300
31
0
0
LINE
8
VISIBLE
10
1199.6100
20
417.4300
30
0
11
1211.6800
21
436.5600
31
0
0
LINE
8
VISIBLE
10
1211.6800
20
436.5600
30
0
11
1223.2500
21
456.0000
31
0
0
LINE
8
VISIBLE
10
1223.2500
20
456.0000
30
0
11
1234.3000
21
475.7300
31
0
0
LINE
8
VISIBLE
10
1234.3000
20
475.7300
30
0
11
1244.8300
21
495.7500
31
0
0
LINE
8
VISIBLE
10
1244.8300
20
495.7500
30
0
11
1254.8300
21
516.0400
31
0
0
LINE
8
VISIBLE
10
1254.8300
20
516.0400
30
0
11
1264.3000
21
536.5800
31
0
0
LINE
8
VISIBLE
10
1264.3000
20
536.5800
30
0
11
1273.2300
21
557.3600
31
0
0
LINE
8
VISIBLE
10
1273.2300
20
557.3600
30
0
11
1281.6100
21
578.3700
31
0
0
LINE
8
VISIBLE
10
1281.6100
20
578.3700
30
0
11
1289.4400
21
599.5900
31
0
0
LINE
8
VISIBLE
10
1289.4400
20
599.5900
30
0
11
1296.7100
21
621.0100
31
0
0
LINE
8
VISIBLE
10
1296.7100
20
621.0100
30
0
11
1303.4200
21
642.6100
31
0
0
LINE
8
VISIBLE
10
1303.4200
20
642.6100
30
0
11
1309.5600
21
664.3800
31
0
0
LINE
8
VISIBLE
10
1309.5600
20
664.3800
30
0
11
1315.1300
21
686.3000
31
0
0
LINE
8
VISIBLE
10
1315.1300
20
686.3000
30
0
11
1320.1200
21
708.3600
31
0
0
LINE
8
VISIBLE
10
1320.1200
20
708.3600
30
0
11
1324.5300
21
730.5500
31
0
0
LINE
8
VISIBLE
10
1324.5300
20
730.5500
30
0
11
1328.3600
21
752.8400
31
0
0
LINE
8
VISIBLE
10
1328.3600
20
752.8400
30
0
11
1331.6100
21
775.2300
31
0
0
LINE
8
VISIBLE
10
1331.6100
20
775.2300
30
0
11
1334.2700
21
797.6900
31
0
0
LINE
8
VISIBLE
10
1334.2700
20
797.6900
30
0
11
1336.3400
21
820.2100
31
0
0
LINE
8
VISIBLE
10
1336.3400
20
820.2100
30
0
11
1337.8200
21
842.7800
31
0
0
LINE
8
VISIBLE
10
1337.8200
20
842.7800
30
0
11
1338.7000
21
865.3800
31
0
0
LINE
8
VISIBLE
10
1338.7000
20
865.3800
30
0
11
1339.0000
21
888.0000
31
0
0
LINE
8
VISIBLE
10
1339.0000
20
888.0000
30
0
11
1338.7000
21
910.6200
31
0
0
LINE
8
VISIBLE
10
1338.7000
20
910.6200
30
0
11
1337.8200
21
933.2200
31
0
0
LINE
8
VISIBLE
10
1337.8200
20
933.2200
30
0
11
1336.3400
21
955.7900
31
0
0
LINE
8
VISIBLE
10
1336.3400
20
955.7900
30
0
11
1334.2700
21
978.3100
31
0
0
LINE
8
VISIBLE
10
1334.2700
20
978.3100
30
0
11
1331.6100
21
1000.7700
31
0
0
LINE
8
VISIBLE
10
1331.6100
20
1000.7700
30
0
11
1328.3600
21
1023.1600
31
0
0
LINE
8
VISIBLE
10
1328.3600
20
1023.1600
30
0
11
1324.5300
21
1045.4500
31
0
0
LINE
8
VISIBLE
10
1324.5300
20
1045.4500
30
0
11
1320.1200
21
1067.6400
31
0
0
LINE
8
VISIBLE
10
1320.1200
20
1067.6400
30
0
11
1315.1300
21
1089.7000
31
0
0
LINE
8
VISIBLE
10
1315.1300
20
1089.7000
30
0
11
1309.5600
21
1111.6200
31
0
0
LINE
8
VISIBLE
10
1309.5600
20
1111.6200
30
0
11
1303.4200
21
1133.3900
31
0
0
LINE
8
VISIBLE
10
1303.4200
20
1133.3900
30
0
11
1296.7100
21
1154.9900
31
0
0
LINE
8
VISIBLE
10
1296.7100
20
1154.9900
30
0
11
1289.4400
21
1176.4100
31
0
0
LINE
8
VISIBLE
10
1289.4400
20
1176.4100
30
0
11
1281.6100
21
1197.6300
31
0
0
LINE
8
VISIBLE
10
1281.6100
20
1197.6300
30
0
11
1273.2300
21
1218.6400
31
0
0
LINE
8
VISIBLE
10
1273.2300
20
1218.6400
30
0
11
1264.3000
21
1239.4200
31
0
0
LINE
8
VISIBLE
10
1264.3000
20
1239.4200
30
0
11
1254.8300
21
1259.9600
31
0
0
LINE
8
VISIBLE
10
1254.8300
20
1259.9600
30
0
11
1244.8300
21
1280.2500
31
0
0
LINE
8
VISIBLE
10
1244.8300
20
1280.2500
30
0
11
1234.3000
21
1300.2700
31
0
0
LINE
8
VISIBLE
10
1234.3000
20
1300.2700
30
0
11
1223.2500
21
1320.0000
31
0
0
LINE
8
VISIBLE
10
1223.2500
20
1320.0000
30
0
11
1211.6800
21
1339.4400
31
0
0
LINE
8
VISIBLE
10
1211.6800
20
1339.4400
30
0
11
1199.6100
21
1358.5700
31
0
0
LINE
8
VISIBLE
10
1199.6100
20
1358.5700
30
0
11
1187.0500
21
1377.3700
31
0
0
LINE
8
VISIBLE
10
1187.0500
20
1377.3700
30
0
11
1173.9900
21
1395.8500
31
0
0
LINE
8
VISIBLE
10
1173.9900
20
1395.8500
30
0
11
1160.4600
21
1413.9700
31
0
0
LINE
8
VISIBLE
10
1160.4600
20
1413.9700
30
0
11
1146.4500
21
1431.7300
31
0
0
LINE
8
VISIBLE
10
1146.4500
20
1431.7300
30
0
11
1131.9900
21
1449.1200
31
0
0
LINE
8
VISIBLE
10
1131.9900
20
1449.1200
30
0
11
1117.0800
21
1466.1300
31
0
0
LINE
8
VISIBLE
10
1117.0800
20
1466.1300
30
0
11
1101.7200
21
1482.7400
31
0
0
LINE
8
VISIBLE
10
1101.7200
20
1482.7400
30
0
11
1085.9400
21
1498.9400
31
0
0
LINE
8
VISIBLE
10
1085.9400
20
1498.9400
30
0
11
1059.0000
21
1472.0000
31
0
0
LINE
8
VISIBLE
10
1059.0000
20
1472.0000
30
0
11
1074.0900
21
1456.5100
31
0
0
LINE
8
VISIBLE
10
1074.0900
20
1456.5100
30
0
11
1088.7600
21
1440.6300
31
0
0
LINE
8
VISIBLE
10
1088.7600
20
1440.6300
30
0
11
1103.0200
21
1424.3800
31
0
0
LINE
8
VISIBLE
10
1103.0200
20
1424.3800
30
0
11
1116.8400
21
1407.7600
31
0
0
LINE
8
VISIBLE
10
1116.8400
20
1407.7600
30
0
11
1130.2300
21
1390.7800
31
0
0
LINE
8
VISIBLE
10
1130.2300
20
1390.7800
30
0
11
1143.1700
21
1373.4500
31
0
0
LINE
8
VISIBLE
10
1143.1700
20
1373.4500
30
0
11
1155.6500
21
1355.7900
31
0
0
LINE
8
VISIBLE
10
1155.6500
20
1355.7900
30
0
11
1167.6600
21
1337.8200
31
0
0
LINE
8
VISIBLE
10
1167.6600
20
1337.8200
30
0
11
1179.2000
21
1319.5300
31
0
0
LINE
8
VISIBLE
10
1179.2000
20
1319.5300
30
0
11
1190.2500
21
1300.9500
31
0
0
LINE
8
VISIBLE
10
1190.2500
20
1300.9500
30
0
11
1200.8200
21
1282.0900
31
0
0
LINE
8
VISIBLE
10
1200.8200
20
1282.0900
30
0
11
1210.8800
21
1262.9500
31
0
0
LINE
8
VISIBLE
10
1210.8800
20
1262.9500
30
0
11
1220.4500
21
1243.5600
31
0
0
LINE
8
VISIBLE
10
1220.4500
20
1243.5600
30
0
11
1229.5000
21
1223.9200
31
0
0
LINE
8
VISIBLE
10
1229.5000
20
1223.9200
30
0
11
1238.0300
21
1204.0600
31
0
0
LINE
8
VISIBLE
10
1238.0300
20
1204.0600
30
0
11
1246.0400
21
1183.9800
31
0
0
LINE
8
VISIBLE
10
1246.0400
20
1183.9800
30
0
11
1253.5300
21
1163.6900
31
0
0
LINE
8
VISIBLE
10
1253.5300
20
1163.6900
30
0
11
1260.4800
21
1143.2200
31
0
0
LINE
8
VISIBLE
10
1260.4800
20
1143.2200
30
0
11
1266.8900
21
1122.5700
31
0
0
LINE
8
VISIBLE
10
1266.8900
20
1122.5700
30
0
11
1272.7600
21
1101.7600
31
0
0
LINE
8
VISIBLE
10
1272.7600
20
1101.7600
30
0
11
1278.0800
21
1080.8000
31
0
0
LINE
8
VISIBLE
10
1278.0800
20
1080.8000
30
0
11
1282.8500
21
1059.7100
31
0
0
LINE
8
VISIBLE
10
1282.8500
20
1059.7100
30
0
11
1287.0700
21
1038.5100
31
0
0
LINE
8
VISIBLE
10
1287.0700
20
1038.5100
30
0
11
1290.7300
21
1017.2000
31
0
0
LINE
8
VISIBLE
10
1290.7300
20
1017.2000
30
0
11
1293.8300
21
995.8000
31
0
0
LINE
8
VISIBLE
10
1293.8300
20
995.8000
30
0
11
1296.3800
21
974.3300
31
0
0
LINE
8
VISIBLE
10
1296.3800
20
974.3300
30
0
11
1298.3500
21
952.8000
31
0
0
LINE
8
VISIBLE
10
1298.3500
20
952.8000
30
0
11
1299.7700
21
931.2200
31
0
0
LINE
8
VISIBLE
10
1299.7700
20
931.2200
30
0
11
1300.6200
21
909.6200
31
0
0
LINE
8
VISIBLE
10
1300.6200
20
909.6200
30
0
11
1300.9000
21
888.0000
31
0
0
LINE
8
VISIBLE
10
1300.9000
20
888.0000
30
0
11
1300.6200
21
866.3800
31
0
0
LINE
8
VISIBLE
10
1300.6200
20
866.3800
30
0
11
1299.7700
21
844.7800
31
0
0
LINE
8
VISIBLE
10
1299.7700
20
844.7800
30
0
11
1298.3500
21
823.2000
31
0
0
LINE
8
VISIBLE
10
1298.3500
20
823.2000
30
0
11
1296.3800
21
801.6700
31
0
0
LINE
8
VISIBLE
10
1296.3800
20
801.6700
30
0
11
1293.8300
21
780.2000
31
0
0
LINE
8
VISIBLE
10
1293.8300
20
780.2000
30
0
11
1290.7300
21
758.8000
31
0
0
LINE
8
VISIBLE
10
1290.7300
20
758.8000
30
0
11
1287.0700
21
737.4900
31
0
0
LINE
8
VISIBLE
10
1287.0700
20
737.4900
30
0
11
1282.8500
21
716.2900
31
0
0
LINE
8
VISIBLE
10
1282.8500
20
716.2900
30
0
11
1278.0800
21
695.2000
31
0
0
LINE
8
VISIBLE
10
1278.0800
20
695.2000
30
0
11
1272.7600
21
674.2400
31
0
0
LINE
8
VISIBLE
10
1272.7600
20
674.2400
30
0
11
1266.8900
21
653.4300
31
0
0
LINE
8
VISIBLE
10
1266.8900
20
653.4300
30
0
11
1260.4800
21
632.7800
31
0
0
LINE
8
VISIBLE
10
1260.4800
20
632.7800
30
0
11
1253.5300
21
612.3100
31
0
0
LINE
8
VISIBLE
10
1253.5300
20
612.3100
30
0
11
1246.0400
21
592.0200
31
0
0
LINE
8
VISIBLE
10
1246.0400
20
592.0200
30
0
11
1238.0300
21
571.9400
31
0
0
LINE
8
VISIBLE
10
1238.0300
20
571.9400
30
0
11
1229.5000
21
552.0800
31
0
0
LINE
8
VISIBLE
10
1229.5000
20
552.0800
30
0
11
1220.4500
21
532.4400
31
0
0
LINE
8
VISIBLE
10
1220.4500
20
532.4400
30
0
11
1210.8800
21
513.0500
31
0
0
LINE
8
VISIBLE
10
1210.8800
20
513.0500
30
0
11
1200.8200
21
493.9100
31
0
0
LINE
8
VISIBLE
10
1200.8200
20
493.9100
30
0
11
1190.2500
21
475.0500
31
0
0
LINE
8
VISIBLE
10
1190.2500
20
475.0500
30
0
11
1179.2000
21
456.4700
31
0
0
LINE
8
VISIBLE
10
1179.2000
20
456.4700
30
0
11
1167.6600
21
438.1800
31
0
0
LINE
8
VISIBLE
10
1167.6600
20
438.1800
30
0
11
1155.6500
21
420.2100
31
0
0
LINE
8
VISIBLE
10
1155.6500
20
420.2100
30
0
11
1143.1700
21
402.5500
31
0
0
LINE
8
VISIBLE
10
1143.1700
20
402.5500
30
0
11
1130.2300
21
385.2200
31
0
0
LINE
8
VISIBLE
10
1130.2300
20
385.2200
30
0
11
1116.8400
21
368.2400
31
0
0
LINE
8
VISIBLE
10
1116.8400
20
368.2400
30
0
11
1103.0200
21
351.6200
31
0
0
LINE
8
VISIBLE
10
1103.0200
20
351.6200
30
0
11
1088.7600
21
335.3700
31
0
0
LINE
8
VISIBLE
10
1088.7600
20
335.3700
30
0
11
1074.0900
21
319.4900
31
0
0
LINE
8
VISIBLE
10
1074.0900
20
319.4900
30
0
11
1059.0000
21
304.0000
31
0
0
LINE
8
VISIBLE
10
1059.0000
20
304.0000
30
0
11
1085.9400
21
277.0600
31
0
0
CIRCLE
8
VISIBLE
10
1127.7100
20
351.4200
30
0
40
5.5000
0
CIRCLE
8
VISIBLE
10
1266.0600
20
591.0800
30
0
40
5.5000
0
CIRCLE
8
VISIBLE
10
1313.9100
20
787.1100
30
0
40
5.5000
0
CIRCLE
8
VISIBLE
10
1313.9100
20
988.8900
30
0
40
5.5000
0
CIRCLE
8
VISIBLE
10
1266.0600
20
1184.9200
30
0
40
5.5000
0
CIRCLE
8
VISIBLE
10
1127.7100
20
1424.5800
30
0
40
5.5000
0
CIRCLE
8
VISIBLE
10
1087.2700
20
305.7100
30
0
40
5.5000
0
CIRCLE
8
VISIBLE
10
1285.4200
20
648.9000
30
0
40
5.5000
0
CIRCLE
8
VISIBLE
10
1296.3900
20
689.8600
30
0
40
5.5000
0
CIRCLE
8
VISIBLE
10
1296.3900
20
1086.1400
30
0
40
5.5000
0
CIRCLE
8
VISIBLE
10
1285.4200
20
1127.1000
30
0
40
5.5000
0
CIRCLE
8
VISIBLE
10
1087.2700
20
1470.2900
30
0
40
5.5000
0
TEXT
8
TEXTO
10
1059.0000
20
265.0600
30
0
40
6.4000
1
BARRENOS: 12× · Ø 11 mm (corte láser)
0
LINE
8
COTAS
10
1059.0000
20
275.0600
30
0
11
1059.0000
21
256.0600
31
0
0
LINE
8
COTAS
10
1339.0000
20
275.0600
30
0
11
1339.0000
21
256.0600
31
0
0
LINE
8
COTAS
10
1059.0000
20
259.0600
30
0
11
1339.0000
21
259.0600
31
0
0
SOLID
8
COTAS
10
1059.0000
20
259.0600
30
0
11
1064.0000
21
259.9600
31
0
12
1064.0000
22
258.1600
32
0
13
1064.0000
23
258.1600
33
0
0
SOLID
8
COTAS
10
1339.0000
20
259.0600
30
0
11
1334.0000
21
259.9600
31
0
12
1334.0000
22
258.1600
32
0
13
1334.0000
23
258.1600
33
0
0
TEXT
8
COTAS
10
1199.0000
20
263.4600
30
0
40
7.0000
1
280
72
1
73
2
11
1199.0000
21
263.4600
31
0
0
LINE
8
COTAS
10
1341.0000
20
277.0600
30
0
11
1360.0000
21
277.0600
31
0
0
LINE
8
COTAS
10
1341.0000
20
1498.9400
30
0
11
1360.0000
21
1498.9400
31
0
0
LINE
8
COTAS
10
1357.0000
20
277.0600
30
0
11
1357.0000
21
1498.9400
31
0
0
SOLID
8
COTAS
10
1357.0000
20
277.0600
30
0
11
1357.9000
21
282.0600
31
0
12
1356.1000
22
282.0600
32
0
13
1356.1000
23
282.0600
33
0
0
SOLID
8
COTAS
10
1357.0000
20
1498.9400
30
0
11
1357.9000
21
1493.9400
31
0
12
1356.1000
22
1493.9400
32
0
13
1356.1000
23
1493.9400
33
0
0
TEXT
8
COTAS
10
1361.4000
20
888.0000
30
0
40
7.0000
1
1221.9
72
1
73
2
11
1361.4000
21
888.0000
31
0
0
TEXT
8
TEXTO
10
1059.0000
20
1519.9400
30
0
40
7.0000
1
DESARROLLO DE CHAPA — BA = ang·(R + K·t), fibra neutra por factor K
0
TEXT
8
TEXTO
10
1059.0000
20
1508.9400
30
0
40
8.0000
1
ESPESOR DE CHAPA e = 3 mm (constante en toda la pieza)
0
LINE
8
FINA
10
0.0000
20
0.0000
30
0
11
2378.0000
21
0.0000
31
0
0
LINE
8
FINA
10
2378.0000
20
0.0000
30
0
11
2378.0000
21
1682.0000
31
0
0
LINE
8
FINA
10
2378.0000
20
1682.0000
30
0
11
0.0000
21
1682.0000
31
0
0
LINE
8
FINA
10
0.0000
20
1682.0000
30
0
11
0.0000
21
0.0000
31
0
0
LINE
8
NORMA
10
40.0000
20
20.0000
30
0
11
2358.0000
21
20.0000
31
0
0
LINE
8
NORMA
10
2358.0000
20
20.0000
30
0
11
2358.0000
21
1662.0000
31
0
0
LINE
8
NORMA
10
2358.0000
20
1662.0000
30
0
11
40.0000
21
1662.0000
31
0
0
LINE
8
NORMA
10
40.0000
20
1662.0000
30
0
11
40.0000
21
20.0000
31
0
0
LINE
8
NORMA
10
0.0000
20
841.0000
30
0
11
50.0000
21
841.0000
31
0
0
LINE
8
NORMA
10
2378.0000
20
841.0000
30
0
11
2348.0000
21
841.0000
31
0
0
LINE
8
NORMA
10
1189.0000
20
0.0000
30
0
11
1189.0000
21
30.0000
31
0
0
LINE
8
NORMA
10
1189.0000
20
1682.0000
30
0
11
1189.0000
21
1652.0000
31
0
0
LINE
8
FINA
10
99.0833
20
0.0000
30
0
11
99.0833
21
20.0000
31
0
0
LINE
8
FINA
10
99.0833
20
1662.0000
30
0
11
99.0833
21
1682.0000
31
0
0
LINE
8
FINA
10
198.1667
20
0.0000
30
0
11
198.1667
21
20.0000
31
0
0
LINE
8
FINA
10
198.1667
20
1662.0000
30
0
11
198.1667
21
1682.0000
31
0
0
LINE
8
FINA
10
297.2500
20
0.0000
30
0
11
297.2500
21
20.0000
31
0
0
LINE
8
FINA
10
297.2500
20
1662.0000
30
0
11
297.2500
21
1682.0000
31
0
0
LINE
8
FINA
10
396.3333
20
0.0000
30
0
11
396.3333
21
20.0000
31
0
0
LINE
8
FINA
10
396.3333
20
1662.0000
30
0
11
396.3333
21
1682.0000
31
0
0
LINE
8
FINA
10
495.4167
20
0.0000
30
0
11
495.4167
21
20.0000
31
0
0
LINE
8
FINA
10
495.4167
20
1662.0000
30
0
11
495.4167
21
1682.0000
31
0
0
LINE
8
FINA
10
594.5000
20
0.0000
30
0
11
594.5000
21
20.0000
31
0
0
LINE
8
FINA
10
594.5000
20
1662.0000
30
0
11
594.5000
21
1682.0000
31
0
0
LINE
8
FINA
10
693.5833
20
0.0000
30
0
11
693.5833
21
20.0000
31
0
0
LINE
8
FINA
10
693.5833
20
1662.0000
30
0
11
693.5833
21
1682.0000
31
0
0
LINE
8
FINA
10
792.6667
20
0.0000
30
0
11
792.6667
21
20.0000
31
0
0
LINE
8
FINA
10
792.6667
20
1662.0000
30
0
11
792.6667
21
1682.0000
31
0
0
LINE
8
FINA
10
891.7500
20
0.0000
30
0
11
891.7500
21
20.0000
31
0
0
LINE
8
FINA
10
891.7500
20
1662.0000
30
0
11
891.7500
21
1682.0000
31
0
0
LINE
8
FINA
10
990.8333
20
0.0000
30
0
11
990.8333
21
20.0000
31
0
0
LINE
8
FINA
10
990.8333
20
1662.0000
30
0
11
990.8333
21
1682.0000
31
0
0
LINE
8
FINA
10
1089.9167
20
0.0000
30
0
11
1089.9167
21
20.0000
31
0
0
LINE
8
FINA
10
1089.9167
20
1662.0000
30
0
11
1089.9167
21
1682.0000
31
0
0
LINE
8
FINA
10
1189.0000
20
0.0000
30
0
11
1189.0000
21
20.0000
31
0
0
LINE
8
FINA
10
1189.0000
20
1662.0000
30
0
11
1189.0000
21
1682.0000
31
0
0
LINE
8
FINA
10
1288.0833
20
0.0000
30
0
11
1288.0833
21
20.0000
31
0
0
LINE
8
FINA
10
1288.0833
20
1662.0000
30
0
11
1288.0833
21
1682.0000
31
0
0
LINE
8
FINA
10
1387.1667
20
0.0000
30
0
11
1387.1667
21
20.0000
31
0
0
LINE
8
FINA
10
1387.1667
20
1662.0000
30
0
11
1387.1667
21
1682.0000
31
0
0
LINE
8
FINA
10
1486.2500
20
0.0000
30
0
11
1486.2500
21
20.0000
31
0
0
LINE
8
FINA
10
1486.2500
20
1662.0000
30
0
11
1486.2500
21
1682.0000
31
0
0
LINE
8
FINA
10
1585.3333
20
0.0000
30
0
11
1585.3333
21
20.0000
31
0
0
LINE
8
FINA
10
1585.3333
20
1662.0000
30
0
11
1585.3333
21
1682.0000
31
0
0
LINE
8
FINA
10
1684.4167
20
0.0000
30
0
11
1684.4167
21
20.0000
31
0
0
LINE
8
FINA
10
1684.4167
20
1662.0000
30
0
11
1684.4167
21
1682.0000
31
0
0
LINE
8
FINA
10
1783.5000
20
0.0000
30
0
11
1783.5000
21
20.0000
31
0
0
LINE
8
FINA
10
1783.5000
20
1662.0000
30
0
11
1783.5000
21
1682.0000
31
0
0
LINE
8
FINA
10
1882.5833
20
0.0000
30
0
11
1882.5833
21
20.0000
31
0
0
LINE
8
FINA
10
1882.5833
20
1662.0000
30
0
11
1882.5833
21
1682.0000
31
0
0
LINE
8
FINA
10
1981.6667
20
0.0000
30
0
11
1981.6667
21
20.0000
31
0
0
LINE
8
FINA
10
1981.6667
20
1662.0000
30
0
11
1981.6667
21
1682.0000
31
0
0
LINE
8
FINA
10
2080.7500
20
0.0000
30
0
11
2080.7500
21
20.0000
31
0
0
LINE
8
FINA
10
2080.7500
20
1662.0000
30
0
11
2080.7500
21
1682.0000
31
0
0
LINE
8
FINA
10
2179.8333
20
0.0000
30
0
11
2179.8333
21
20.0000
31
0
0
LINE
8
FINA
10
2179.8333
20
1662.0000
30
0
11
2179.8333
21
1682.0000
31
0
0
LINE
8
FINA
10
2278.9167
20
0.0000
30
0
11
2278.9167
21
20.0000
31
0
0
LINE
8
FINA
10
2278.9167
20
1662.0000
30
0
11
2278.9167
21
1682.0000
31
0
0
LINE
8
FINA
10
0.0000
20
105.1250
30
0
11
20.0000
21
105.1250
31
0
0
LINE
8
FINA
10
2358.0000
20
105.1250
30
0
11
2378.0000
21
105.1250
31
0
0
LINE
8
FINA
10
0.0000
20
210.2500
30
0
11
20.0000
21
210.2500
31
0
0
LINE
8
FINA
10
2358.0000
20
210.2500
30
0
11
2378.0000
21
210.2500
31
0
0
LINE
8
FINA
10
0.0000
20
315.3750
30
0
11
20.0000
21
315.3750
31
0
0
LINE
8
FINA
10
2358.0000
20
315.3750
30
0
11
2378.0000
21
315.3750
31
0
0
LINE
8
FINA
10
0.0000
20
420.5000
30
0
11
20.0000
21
420.5000
31
0
0
LINE
8
FINA
10
2358.0000
20
420.5000
30
0
11
2378.0000
21
420.5000
31
0
0
LINE
8
FINA
10
0.0000
20
525.6250
30
0
11
20.0000
21
525.6250
31
0
0
LINE
8
FINA
10
2358.0000
20
525.6250
30
0
11
2378.0000
21
525.6250
31
0
0
LINE
8
FINA
10
0.0000
20
630.7500
30
0
11
20.0000
21
630.7500
31
0
0
LINE
8
FINA
10
2358.0000
20
630.7500
30
0
11
2378.0000
21
630.7500
31
0
0
LINE
8
FINA
10
0.0000
20
735.8750
30
0
11
20.0000
21
735.8750
31
0
0
LINE
8
FINA
10
2358.0000
20
735.8750
30
0
11
2378.0000
21
735.8750
31
0
0
LINE
8
FINA
10
0.0000
20
841.0000
30
0
11
20.0000
21
841.0000
31
0
0
LINE
8
FINA
10
2358.0000
20
841.0000
30
0
11
2378.0000
21
841.0000
31
0
0
LINE
8
FINA
10
0.0000
20
946.1250
30
0
11
20.0000
21
946.1250
31
0
0
LINE
8
FINA
10
2358.0000
20
946.1250
30
0
11
2378.0000
21
946.1250
31
0
0
LINE
8
FINA
10
0.0000
20
1051.2500
30
0
11
20.0000
21
1051.2500
31
0
0
LINE
8
FINA
10
2358.0000
20
1051.2500
30
0
11
2378.0000
21
1051.2500
31
0
0
LINE
8
FINA
10
0.0000
20
1156.3750
30
0
11
20.0000
21
1156.3750
31
0
0
LINE
8
FINA
10
2358.0000
20
1156.3750
30
0
11
2378.0000
21
1156.3750
31
0
0
LINE
8
FINA
10
0.0000
20
1261.5000
30
0
11
20.0000
21
1261.5000
31
0
0
LINE
8
FINA
10
2358.0000
20
1261.5000
30
0
11
2378.0000
21
1261.5000
31
0
0
LINE
8
FINA
10
0.0000
20
1366.6250
30
0
11
20.0000
21
1366.6250
31
0
0
LINE
8
FINA
10
2358.0000
20
1366.6250
30
0
11
2378.0000
21
1366.6250
31
0
0
LINE
8
FINA
10
0.0000
20
1471.7500
30
0
11
20.0000
21
1471.7500
31
0
0
LINE
8
FINA
10
2358.0000
20
1471.7500
30
0
11
2378.0000
21
1471.7500
31
0
0
LINE
8
FINA
10
0.0000
20
1576.8750
30
0
11
20.0000
21
1576.8750
31
0
0
LINE
8
FINA
10
2358.0000
20
1576.8750
30
0
11
2378.0000
21
1576.8750
31
0
0
TEXT
8
TEXTO
10
49.5417
20
10.0000
30
0
40
5.0000
1
1
72
1
73
2
11
49.5417
21
10.0000
31
0
0
TEXT
8
TEXTO
10
49.5417
20
1672.0000
30
0
40
5.0000
1
1
72
1
73
2
11
49.5417
21
1672.0000
31
0
0
TEXT
8
TEXTO
10
148.6250
20
10.0000
30
0
40
5.0000
1
2
72
1
73
2
11
148.6250
21
10.0000
31
0
0
TEXT
8
TEXTO
10
148.6250
20
1672.0000
30
0
40
5.0000
1
2
72
1
73
2
11
148.6250
21
1672.0000
31
0
0
TEXT
8
TEXTO
10
247.7083
20
10.0000
30
0
40
5.0000
1
3
72
1
73
2
11
247.7083
21
10.0000
31
0
0
TEXT
8
TEXTO
10
247.7083
20
1672.0000
30
0
40
5.0000
1
3
72
1
73
2
11
247.7083
21
1672.0000
31
0
0
TEXT
8
TEXTO
10
346.7917
20
10.0000
30
0
40
5.0000
1
4
72
1
73
2
11
346.7917
21
10.0000
31
0
0
TEXT
8
TEXTO
10
346.7917
20
1672.0000
30
0
40
5.0000
1
4
72
1
73
2
11
346.7917
21
1672.0000
31
0
0
TEXT
8
TEXTO
10
445.8750
20
10.0000
30
0
40
5.0000
1
5
72
1
73
2
11
445.8750
21
10.0000
31
0
0
TEXT
8
TEXTO
10
445.8750
20
1672.0000
30
0
40
5.0000
1
5
72
1
73
2
11
445.8750
21
1672.0000
31
0
0
TEXT
8
TEXTO
10
544.9583
20
10.0000
30
0
40
5.0000
1
6
72
1
73
2
11
544.9583
21
10.0000
31
0
0
TEXT
8
TEXTO
10
544.9583
20
1672.0000
30
0
40
5.0000
1
6
72
1
73
2
11
544.9583
21
1672.0000
31
0
0
TEXT
8
TEXTO
10
644.0417
20
10.0000
30
0
40
5.0000
1
7
72
1
73
2
11
644.0417
21
10.0000
31
0
0
TEXT
8
TEXTO
10
644.0417
20
1672.0000
30
0
40
5.0000
1
7
72
1
73
2
11
644.0417
21
1672.0000
31
0
0
TEXT
8
TEXTO
10
743.1250
20
10.0000
30
0
40
5.0000
1
8
72
1
73
2
11
743.1250
21
10.0000
31
0
0
TEXT
8
TEXTO
10
743.1250
20
1672.0000
30
0
40
5.0000
1
8
72
1
73
2
11
743.1250
21
1672.0000
31
0
0
TEXT
8
TEXTO
10
842.2083
20
10.0000
30
0
40
5.0000
1
9
72
1
73
2
11
842.2083
21
10.0000
31
0
0
TEXT
8
TEXTO
10
842.2083
20
1672.0000
30
0
40
5.0000
1
9
72
1
73
2
11
842.2083
21
1672.0000
31
0
0
TEXT
8
TEXTO
10
941.2917
20
10.0000
30
0
40
5.0000
1
10
72
1
73
2
11
941.2917
21
10.0000
31
0
0
TEXT
8
TEXTO
10
941.2917
20
1672.0000
30
0
40
5.0000
1
10
72
1
73
2
11
941.2917
21
1672.0000
31
0
0
TEXT
8
TEXTO
10
1040.3750
20
10.0000
30
0
40
5.0000
1
11
72
1
73
2
11
1040.3750
21
10.0000
31
0
0
TEXT
8
TEXTO
10
1040.3750
20
1672.0000
30
0
40
5.0000
1
11
72
1
73
2
11
1040.3750
21
1672.0000
31
0
0
TEXT
8
TEXTO
10
1139.4583
20
10.0000
30
0
40
5.0000
1
12
72
1
73
2
11
1139.4583
21
10.0000
31
0
0
TEXT
8
TEXTO
10
1139.4583
20
1672.0000
30
0
40
5.0000
1
12
72
1
73
2
11
1139.4583
21
1672.0000
31
0
0
TEXT
8
TEXTO
10
1238.5417
20
10.0000
30
0
40
5.0000
1
13
72
1
73
2
11
1238.5417
21
10.0000
31
0
0
TEXT
8
TEXTO
10
1238.5417
20
1672.0000
30
0
40
5.0000
1
13
72
1
73
2
11
1238.5417
21
1672.0000
31
0
0
TEXT
8
TEXTO
10
1337.6250
20
10.0000
30
0
40
5.0000
1
14
72
1
73
2
11
1337.6250
21
10.0000
31
0
0
TEXT
8
TEXTO
10
1337.6250
20
1672.0000
30
0
40
5.0000
1
14
72
1
73
2
11
1337.6250
21
1672.0000
31
0
0
TEXT
8
TEXTO
10
1436.7083
20
10.0000
30
0
40
5.0000
1
15
72
1
73
2
11
1436.7083
21
10.0000
31
0
0
TEXT
8
TEXTO
10
1436.7083
20
1672.0000
30
0
40
5.0000
1
15
72
1
73
2
11
1436.7083
21
1672.0000
31
0
0
TEXT
8
TEXTO
10
1535.7917
20
10.0000
30
0
40
5.0000
1
16
72
1
73
2
11
1535.7917
21
10.0000
31
0
0
TEXT
8
TEXTO
10
1535.7917
20
1672.0000
30
0
40
5.0000
1
16
72
1
73
2
11
1535.7917
21
1672.0000
31
0
0
TEXT
8
TEXTO
10
1634.8750
20
10.0000
30
0
40
5.0000
1
17
72
1
73
2
11
1634.8750
21
10.0000
31
0
0
TEXT
8
TEXTO
10
1634.8750
20
1672.0000
30
0
40
5.0000
1
17
72
1
73
2
11
1634.8750
21
1672.0000
31
0
0
TEXT
8
TEXTO
10
1733.9583
20
10.0000
30
0
40
5.0000
1
18
72
1
73
2
11
1733.9583
21
10.0000
31
0
0
TEXT
8
TEXTO
10
1733.9583
20
1672.0000
30
0
40
5.0000
1
18
72
1
73
2
11
1733.9583
21
1672.0000
31
0
0
TEXT
8
TEXTO
10
1833.0417
20
10.0000
30
0
40
5.0000
1
19
72
1
73
2
11
1833.0417
21
10.0000
31
0
0
TEXT
8
TEXTO
10
1833.0417
20
1672.0000
30
0
40
5.0000
1
19
72
1
73
2
11
1833.0417
21
1672.0000
31
0
0
TEXT
8
TEXTO
10
1932.1250
20
10.0000
30
0
40
5.0000
1
20
72
1
73
2
11
1932.1250
21
10.0000
31
0
0
TEXT
8
TEXTO
10
1932.1250
20
1672.0000
30
0
40
5.0000
1
20
72
1
73
2
11
1932.1250
21
1672.0000
31
0
0
TEXT
8
TEXTO
10
2031.2083
20
10.0000
30
0
40
5.0000
1
21
72
1
73
2
11
2031.2083
21
10.0000
31
0
0
TEXT
8
TEXTO
10
2031.2083
20
1672.0000
30
0
40
5.0000
1
21
72
1
73
2
11
2031.2083
21
1672.0000
31
0
0
TEXT
8
TEXTO
10
2130.2917
20
10.0000
30
0
40
5.0000
1
22
72
1
73
2
11
2130.2917
21
10.0000
31
0
0
TEXT
8
TEXTO
10
2130.2917
20
1672.0000
30
0
40
5.0000
1
22
72
1
73
2
11
2130.2917
21
1672.0000
31
0
0
TEXT
8
TEXTO
10
2229.3750
20
10.0000
30
0
40
5.0000
1
23
72
1
73
2
11
2229.3750
21
10.0000
31
0
0
TEXT
8
TEXTO
10
2229.3750
20
1672.0000
30
0
40
5.0000
1
23
72
1
73
2
11
2229.3750
21
1672.0000
31
0
0
TEXT
8
TEXTO
10
2328.4583
20
10.0000
30
0
40
5.0000
1
24
72
1
73
2
11
2328.4583
21
10.0000
31
0
0
TEXT
8
TEXTO
10
2328.4583
20
1672.0000
30
0
40
5.0000
1
24
72
1
73
2
11
2328.4583
21
1672.0000
31
0
0
TEXT
8
TEXTO
10
10.0000
20
1629.4375
30
0
40
5.0000
1
A
72
1
73
2
11
10.0000
21
1629.4375
31
0
0
TEXT
8
TEXTO
10
2368.0000
20
1629.4375
30
0
40
5.0000
1
A
72
1
73
2
11
2368.0000
21
1629.4375
31
0
0
TEXT
8
TEXTO
10
10.0000
20
1524.3125
30
0
40
5.0000
1
B
72
1
73
2
11
10.0000
21
1524.3125
31
0
0
TEXT
8
TEXTO
10
2368.0000
20
1524.3125
30
0
40
5.0000
1
B
72
1
73
2
11
2368.0000
21
1524.3125
31
0
0
TEXT
8
TEXTO
10
10.0000
20
1419.1875
30
0
40
5.0000
1
C
72
1
73
2
11
10.0000
21
1419.1875
31
0
0
TEXT
8
TEXTO
10
2368.0000
20
1419.1875
30
0
40
5.0000
1
C
72
1
73
2
11
2368.0000
21
1419.1875
31
0
0
TEXT
8
TEXTO
10
10.0000
20
1314.0625
30
0
40
5.0000
1
D
72
1
73
2
11
10.0000
21
1314.0625
31
0
0
TEXT
8
TEXTO
10
2368.0000
20
1314.0625
30
0
40
5.0000
1
D
72
1
73
2
11
2368.0000
21
1314.0625
31
0
0
TEXT
8
TEXTO
10
10.0000
20
1208.9375
30
0
40
5.0000
1
E
72
1
73
2
11
10.0000
21
1208.9375
31
0
0
TEXT
8
TEXTO
10
2368.0000
20
1208.9375
30
0
40
5.0000
1
E
72
1
73
2
11
2368.0000
21
1208.9375
31
0
0
TEXT
8
TEXTO
10
10.0000
20
1103.8125
30
0
40
5.0000
1
F
72
1
73
2
11
10.0000
21
1103.8125
31
0
0
TEXT
8
TEXTO
10
2368.0000
20
1103.8125
30
0
40
5.0000
1
F
72
1
73
2
11
2368.0000
21
1103.8125
31
0
0
TEXT
8
TEXTO
10
10.0000
20
998.6875
30
0
40
5.0000
1
G
72
1
73
2
11
10.0000
21
998.6875
31
0
0
TEXT
8
TEXTO
10
2368.0000
20
998.6875
30
0
40
5.0000
1
G
72
1
73
2
11
2368.0000
21
998.6875
31
0
0
TEXT
8
TEXTO
10
10.0000
20
893.5625
30
0
40
5.0000
1
H
72
1
73
2
11
10.0000
21
893.5625
31
0
0
TEXT
8
TEXTO
10
2368.0000
20
893.5625
30
0
40
5.0000
1
H
72
1
73
2
11
2368.0000
21
893.5625
31
0
0
TEXT
8
TEXTO
10
10.0000
20
788.4375
30
0
40
5.0000
1
J
72
1
73
2
11
10.0000
21
788.4375
31
0
0
TEXT
8
TEXTO
10
2368.0000
20
788.4375
30
0
40
5.0000
1
J
72
1
73
2
11
2368.0000
21
788.4375
31
0
0
TEXT
8
TEXTO
10
10.0000
20
683.3125
30
0
40
5.0000
1
K
72
1
73
2
11
10.0000
21
683.3125
31
0
0
TEXT
8
TEXTO
10
2368.0000
20
683.3125
30
0
40
5.0000
1
K
72
1
73
2
11
2368.0000
21
683.3125
31
0
0
TEXT
8
TEXTO
10
10.0000
20
578.1875
30
0
40
5.0000
1
L
72
1
73
2
11
10.0000
21
578.1875
31
0
0
TEXT
8
TEXTO
10
2368.0000
20
578.1875
30
0
40
5.0000
1
L
72
1
73
2
11
2368.0000
21
578.1875
31
0
0
TEXT
8
TEXTO
10
10.0000
20
473.0625
30
0
40
5.0000
1
M
72
1
73
2
11
10.0000
21
473.0625
31
0
0
TEXT
8
TEXTO
10
2368.0000
20
473.0625
30
0
40
5.0000
1
M
72
1
73
2
11
2368.0000
21
473.0625
31
0
0
TEXT
8
TEXTO
10
10.0000
20
367.9375
30
0
40
5.0000
1
N
72
1
73
2
11
10.0000
21
367.9375
31
0
0
TEXT
8
TEXTO
10
2368.0000
20
367.9375
30
0
40
5.0000
1
N
72
1
73
2
11
2368.0000
21
367.9375
31
0
0
TEXT
8
TEXTO
10
10.0000
20
262.8125
30
0
40
5.0000
1
P
72
1
73
2
11
10.0000
21
262.8125
31
0
0
TEXT
8
TEXTO
10
2368.0000
20
262.8125
30
0
40
5.0000
1
P
72
1
73
2
11
2368.0000
21
262.8125
31
0
0
TEXT
8
TEXTO
10
10.0000
20
157.6875
30
0
40
5.0000
1
Q
72
1
73
2
11
10.0000
21
157.6875
31
0
0
TEXT
8
TEXTO
10
2368.0000
20
157.6875
30
0
40
5.0000
1
Q
72
1
73
2
11
2368.0000
21
157.6875
31
0
0
TEXT
8
TEXTO
10
10.0000
20
52.5625
30
0
40
5.0000
1
R
72
1
73
2
11
10.0000
21
52.5625
31
0
0
TEXT
8
TEXTO
10
2368.0000
20
52.5625
30
0
40
5.0000
1
R
72
1
73
2
11
2368.0000
21
52.5625
31
0
0
LINE
8
NORMA
10
1998.0000
20
20.0000
30
0
11
2358.0000
21
20.0000
31
0
0
LINE
8
NORMA
10
2358.0000
20
20.0000
30
0
11
2358.0000
21
104.0000
31
0
0
LINE
8
NORMA
10
2358.0000
20
104.0000
30
0
11
1998.0000
21
104.0000
31
0
0
LINE
8
NORMA
10
1998.0000
20
104.0000
30
0
11
1998.0000
21
20.0000
31
0
0
LINE
8
NORMA
10
2078.0000
20
20.0000
30
0
11
2078.0000
21
104.0000
31
0
0
LINE
8
NORMA
10
2266.0000
20
20.0000
30
0
11
2266.0000
21
104.0000
31
0
0
LINE
8
FINA
10
1998.0000
20
58.0000
30
0
11
2078.0000
21
58.0000
31
0
0
TEXT
8
TEXTO
10
2038.0000
20
87.6000
30
0
40
12.0000
1
foto3d
72
1
73
2
11
2038.0000
21
87.6000
31
0
0
LINE
8
FINA
10
2011.0000
20
77.2000
30
0
11
2065.0000
21
77.2000
31
0
0
TEXT
8
TEXTO
10
2038.0000
20
71.6000
30
0
40
2.6000
1
CAD · DISEÑO CAPA USER
72
1
73
2
11
2038.0000
21
71.6000
31
0
0
TEXT
8
TEXTO
10
2038.0000
20
65.2000
30
0
40
2.6000
1
ISO 5457 · 7200 · 129 · 5456-2
72
1
73
2
11
2038.0000
21
65.2000
31
0
0
TEXT
8
TEXTO
10
2038.0000
20
53.2000
30
0
40
2.8000
1
PROYECCIÓN — PRIMER DIEDRO
72
1
73
2
11
2038.0000
21
53.2000
31
0
0
CIRCLE
8
TEXTO
10
2028.8000
20
35.0000
30
0
40
5.9800
0
CIRCLE
8
TEXTO
10
2028.8000
20
35.0000
30
0
40
3.2200
0
LINE
8
TEXTO
10
2038.9200
20
29.0200
30
0
11
2053.1800
21
31.7800
31
0
0
LINE
8
TEXTO
10
2053.1800
20
31.7800
30
0
11
2053.1800
21
38.2200
31
0
0
LINE
8
TEXTO
10
2053.1800
20
38.2200
30
0
11
2038.9200
21
40.9800
31
0
0
LINE
8
TEXTO
10
2038.9200
20
40.9800
30
0
11
2038.9200
21
29.0200
31
0
0
LINE
8
FINA
10
2020.0600
20
35.0000
30
0
11
2055.9400
21
35.0000
31
0
0
LINE
8
FINA
10
2078.0000
20
78.0000
30
0
11
2266.0000
21
78.0000
31
0
0
LINE
8
FINA
10
2078.0000
20
58.0000
30
0
11
2266.0000
21
58.0000
31
0
0
LINE
8
FINA
10
2078.0000
20
38.0000
30
0
11
2266.0000
21
38.0000
31
0
0
LINE
8
FINA
10
2172.0000
20
58.0000
30
0
11
2172.0000
21
78.0000
31
0
0
LINE
8
FINA
10
2190.0000
20
38.0000
30
0
11
2190.0000
21
58.0000
31
0
0
TEXT
8
TEXTO
10
2080.6000
20
99.2000
30
0
40
2.8000
1
DESIGNACIÓN
0
TEXT
8
TEXTO
10
2081.2000
20
88.2000
30
0
40
6.3233
1
CUD-06 · Refuerzo interno superior C90° (x2) — DESARROLLO
72
0
73
2
11
2081.2000
21
88.2000
31
0
0
TEXT
8
TEXTO
10
2080.6000
20
73.2000
30
0
40
2.8000
1
PROYECTO
0
TEXT
8
TEXTO
10
2081.2000
20
65.2000
30
0
40
4.0000
1
Curva 90° 24" de polines cónicos — Conveyo…
72
0
73
2
11
2081.2000
21
65.2000
31
0
0
TEXT
8
TEXTO
10
2174.6000
20
73.2000
30
0
40
2.8000
1
FUENTE
0
TEXT
8
TEXTO
10
2175.2000
20
65.2000
30
0
40
4.8000
1
chapa plegada — capa user
72
0
73
2
11
2175.2000
21
65.2000
31
0
0
TEXT
8
TEXTO
10
2080.6000
20
53.2000
30
0
40
2.8000
1
VERIFICACIÓN DE ESCALA
0
TEXT
8
TEXTO
10
2081.2000
20
45.2000
30
0
40
4.8000
1
CAD EN MM (CAPA USER)
72
0
73
2
11
2081.2000
21
45.2000
31
0
0
TEXT
8
TEXTO
10
2192.6000
20
53.2000
30
0
40
2.8000
1
PLIEGUES
0
TEXT
8
TEXTO
10
2193.2000
20
45.2000
30
0
40
5.2000
1
0
72
0
73
2
11
2193.2000
21
45.2000
31
0
0
TEXT
8
TEXTO
10
2080.6000
20
33.2000
30
0
40
2.8000
1
NOTA
0
TEXT
8
TEXTO
10
2081.2000
20
26.2000
30
0
40
4.4000
1
Fe e=3 mm — corte plano de corona · e3 · tol. gral. ISO 2768-mK · K=0.5
72
0
73
2
11
2081.2000
21
26.2000
31
0
0
LINE
8
FINA
10
2266.0000
20
78.0000
30
0
11
2358.0000
21
78.0000
31
0
0
LINE
8
FINA
10
2266.0000
20
58.0000
30
0
11
2358.0000
21
58.0000
31
0
0
LINE
8
FINA
10
2266.0000
20
38.0000
30
0
11
2358.0000
21
38.0000
31
0
0
LINE
8
FINA
10
2312.0000
20
58.0000
30
0
11
2312.0000
21
78.0000
31
0
0
LINE
8
FINA
10
2318.0000
20
38.0000
30
0
11
2318.0000
21
58.0000
31
0
0
TEXT
8
TEXTO
10
2268.6000
20
99.2000
30
0
40
2.8000
1
ESCALA
0
TEXT
8
TEXTO
10
2312.0000
20
88.2000
30
0
40
10.0000
1
1:2
72
1
73
2
11
2312.0000
21
88.2000
31
0
0
TEXT
8
TEXTO
10
2268.6000
20
73.2000
30
0
40
2.8000
1
FORMATO
0
TEXT
8
TEXTO
10
2289.0000
20
65.2000
30
0
40
6.0000
1
A0
72
1
73
2
11
2289.0000
21
65.2000
31
0
0
TEXT
8
TEXTO
10
2314.6000
20
73.2000
30
0
40
2.8000
1
LÁMINA
0
TEXT
8
TEXTO
10
2335.0000
20
65.2000
30
0
40
6.0000
1
1 / 1
72
1
73
2
11
2335.0000
21
65.2000
31
0
0
TEXT
8
TEXTO
10
2268.6000
20
53.2000
30
0
40
2.8000
1
FECHA
0
TEXT
8
TEXTO
10
2292.0000
20
45.2000
30
0
40
5.2000
1
2026-08-13
72
1
73
2
11
2292.0000
21
45.2000
31
0
0
TEXT
8
TEXTO
10
2320.6000
20
53.2000
30
0
40
2.8000
1
UNIDADES
0
TEXT
8
TEXTO
10
2338.0000
20
45.2000
30
0
40
6.0000
1
mm
72
1
73
2
11
2338.0000
21
45.2000
31
0
0
TEXT
8
TEXTO
10
2268.6000
20
33.2000
30
0
40
2.8000
1
Nº DE PLANO
0
TEXT
8
TEXTO
10
2312.0000
20
26.2000
30
0
40
5.2000
1
CUD-06
72
1
73
2
11
2312.0000
21
26.2000
31
0
0
ENDSEC
0
EOF
