0
SECTION
2
HEADER
9
$ACADVER
1
AC1009
9
$DWGCODEPAGE
3
ANSI_1252
0
ENDSEC
0
SECTION
2
TABLES
0
TABLE
2
LTYPE
70
2
0
LTYPE
2
CONTINUOUS
70
0
3
Solid line
72
65
73
0
40
0
0
LTYPE
2
DASHED
70
0
3
Segmentada __ __ __
72
65
73
2
40
6
49
4
49
-2
0
ENDTAB
0
TABLE
2
LAYER
70
7
0
LAYER
2
SOMBRA
70
0
62
8
6
CONTINUOUS
0
LAYER
2
NORMA
70
0
62
7
6
CONTINUOUS
0
LAYER
2
FINA
70
0
62
7
6
CONTINUOUS
0
LAYER
2
VISIBLE
70
0
62
7
6
CONTINUOUS
0
LAYER
2
COTAS
70
0
62
7
6
CONTINUOUS
0
LAYER
2
TEXTO
70
0
62
7
6
CONTINUOUS
0
LAYER
2
PLIEGUE
70
0
62
1
6
DASHED
0
ENDTAB
0
ENDSEC
0
SECTION
2
ENTITIES
0
LINE
8
VISIBLE
10
1930.8050
20
587.7300
30
0
11
1957.0150
21
614.6400
31
0
0
LINE
8
VISIBLE
10
1957.0150
20
614.6400
30
0
11
1982.5250
21
642.2300
31
0
0
LINE
8
VISIBLE
10
1982.5250
20
642.2300
30
0
11
2007.2950
21
670.4800
31
0
0
LINE
8
VISIBLE
10
2007.2950
20
670.4800
30
0
11
2031.3150
21
699.3600
31
0
0
LINE
8
VISIBLE
10
2031.3150
20
699.3600
30
0
11
2054.5750
21
728.8700
31
0
0
LINE
8
VISIBLE
10
2054.5750
20
728.8700
30
0
11
2077.0550
21
758.9700
31
0
0
LINE
8
VISIBLE
10
2077.0550
20
758.9700
30
0
11
2098.7350
21
789.6500
31
0
0
LINE
8
VISIBLE
10
2098.7350
20
789.6500
30
0
11
2119.6150
21
820.8900
31
0
0
LINE
8
VISIBLE
10
2119.6150
20
820.8900
30
0
11
2139.6550
21
852.6600
31
0
0
LINE
8
VISIBLE
10
2139.6550
20
852.6600
30
0
11
2158.8650
21
884.9500
31
0
0
LINE
8
VISIBLE
10
2158.8650
20
884.9500
30
0
11
2177.2250
21
917.7300
31
0
0
LINE
8
VISIBLE
10
2177.2250
20
917.7300
30
0
11
2194.7150
21
950.9800
31
0
0
LINE
8
VISIBLE
10
2194.7150
20
950.9800
30
0
11
2211.3350
21
984.6700
31
0
0
LINE
8
VISIBLE
10
2211.3350
20
984.6700
30
0
11
2227.0650
21
1018.7900
31
0
0
LINE
8
VISIBLE
10
2227.0650
20
1018.7900
30
0
11
2241.8950
21
1053.3100
31
0
0
LINE
8
VISIBLE
10
2241.8950
20
1053.3100
30
0
11
2255.8150
21
1088.2100
31
0
0
LINE
8
VISIBLE
10
2255.8150
20
1088.2100
30
0
11
2268.8150
21
1123.4500
31
0
0
LINE
8
VISIBLE
10
2268.8150
20
1123.4500
30
0
11
2280.8950
21
1159.0300
31
0
0
LINE
8
VISIBLE
10
2280.8950
20
1159.0300
30
0
11
2292.0350
21
1194.9100
31
0
0
LINE
8
VISIBLE
10
2292.0350
20
1194.9100
30
0
11
2302.2350
21
1231.0700
31
0
0
LINE
8
VISIBLE
10
2302.2350
20
1231.0700
30
0
11
2311.4850
21
1267.4800
31
0
0
LINE
8
VISIBLE
10
2311.4850
20
1267.4800
30
0
11
2319.7750
21
1304.1300
31
0
0
LINE
8
VISIBLE
10
2319.7750
20
1304.1300
30
0
11
2327.1050
21
1340.9700
31
0
0
LINE
8
VISIBLE
10
2327.1050
20
1340.9700
30
0
11
2333.4650
21
1378.0000
31
0
0
LINE
8
VISIBLE
10
2333.4650
20
1378.0000
30
0
11
2338.8550
21
1415.1800
31
0
0
LINE
8
VISIBLE
10
2338.8550
20
1415.1800
30
0
11
2343.2750
21
1452.4900
31
0
0
LINE
8
VISIBLE
10
2343.2750
20
1452.4900
30
0
11
2346.7150
21
1489.9000
31
0
0
LINE
8
VISIBLE
10
2346.7150
20
1489.9000
30
0
11
2349.1650
21
1527.3900
31
0
0
LINE
8
VISIBLE
10
2349.1650
20
1527.3900
30
0
11
2350.6450
21
1564.9300
31
0
0
LINE
8
VISIBLE
10
2350.6450
20
1564.9300
30
0
11
2351.1350
21
1602.5000
31
0
0
LINE
8
VISIBLE
10
2351.1350
20
1602.5000
30
0
11
2350.6450
21
1640.0700
31
0
0
LINE
8
VISIBLE
10
2350.6450
20
1640.0700
30
0
11
2349.1650
21
1677.6100
31
0
0
LINE
8
VISIBLE
10
2349.1650
20
1677.6100
30
0
11
2346.7150
21
1715.1000
31
0
0
LINE
8
VISIBLE
10
2346.7150
20
1715.1000
30
0
11
2343.2750
21
1752.5100
31
0
0
LINE
8
VISIBLE
10
2343.2750
20
1752.5100
30
0
11
2338.8550
21
1789.8200
31
0
0
LINE
8
VISIBLE
10
2338.8550
20
1789.8200
30
0
11
2333.4650
21
1827.0000
31
0
0
LINE
8
VISIBLE
10
2333.4650
20
1827.0000
30
0
11
2327.1050
21
1864.0300
31
0
0
LINE
8
VISIBLE
10
2327.1050
20
1864.0300
30
0
11
2319.7750
21
1900.8700
31
0
0
LINE
8
VISIBLE
10
2319.7750
20
1900.8700
30
0
11
2311.4850
21
1937.5200
31
0
0
LINE
8
VISIBLE
10
2311.4850
20
1937.5200
30
0
11
2302.2350
21
1973.9300
31
0
0
LINE
8
VISIBLE
10
2302.2350
20
1973.9300
30
0
11
2292.0350
21
2010.0900
31
0
0
LINE
8
VISIBLE
10
2292.0350
20
2010.0900
30
0
11
2280.8950
21
2045.9700
31
0
0
LINE
8
VISIBLE
10
2280.8950
20
2045.9700
30
0
11
2268.8150
21
2081.5500
31
0
0
LINE
8
VISIBLE
10
2268.8150
20
2081.5500
30
0
11
2255.8150
21
2116.7900
31
0
0
LINE
8
VISIBLE
10
2255.8150
20
2116.7900
30
0
11
2241.8950
21
2151.6900
31
0
0
LINE
8
VISIBLE
10
2241.8950
20
2151.6900
30
0
11
2227.0650
21
2186.2100
31
0
0
LINE
8
VISIBLE
10
2227.0650
20
2186.2100
30
0
11
2211.3350
21
2220.3300
31
0
0
LINE
8
VISIBLE
10
2211.3350
20
2220.3300
30
0
11
2194.7150
21
2254.0200
31
0
0
LINE
8
VISIBLE
10
2194.7150
20
2254.0200
30
0
11
2177.2250
21
2287.2700
31
0
0
LINE
8
VISIBLE
10
2177.2250
20
2287.2700
30
0
11
2158.8650
21
2320.0500
31
0
0
LINE
8
VISIBLE
10
2158.8650
20
2320.0500
30
0
11
2139.6550
21
2352.3400
31
0
0
LINE
8
VISIBLE
10
2139.6550
20
2352.3400
30
0
11
2119.6150
21
2384.1100
31
0
0
LINE
8
VISIBLE
10
2119.6150
20
2384.1100
30
0
11
2098.7350
21
2415.3500
31
0
0
LINE
8
VISIBLE
10
2098.7350
20
2415.3500
30
0
11
2077.0550
21
2446.0300
31
0
0
LINE
8
VISIBLE
10
2077.0550
20
2446.0300
30
0
11
2054.5750
21
2476.1300
31
0
0
LINE
8
VISIBLE
10
2054.5750
20
2476.1300
30
0
11
2031.3150
21
2505.6400
31
0
0
LINE
8
VISIBLE
10
2031.3150
20
2505.6400
30
0
11
2007.2950
21
2534.5200
31
0
0
LINE
8
VISIBLE
10
2007.2950
20
2534.5200
30
0
11
1982.5250
21
2562.7700
31
0
0
LINE
8
VISIBLE
10
1982.5250
20
2562.7700
30
0
11
1957.0150
21
2590.3600
31
0
0
LINE
8
VISIBLE
10
1957.0150
20
2590.3600
30
0
11
1930.8050
21
2617.2700
31
0
0
LINE
8
VISIBLE
10
1930.8050
20
2617.2700
30
0
11
1903.8650
21
2590.3300
31
0
0
LINE
8
VISIBLE
10
1903.8650
20
2590.3300
30
0
11
1929.3850
21
2564.1300
31
0
0
LINE
8
VISIBLE
10
1929.3850
20
2564.1300
30
0
11
1954.2050
21
2537.2800
31
0
0
LINE
8
VISIBLE
10
1954.2050
20
2537.2800
30
0
11
1978.3250
21
2509.7800
31
0
0
LINE
8
VISIBLE
10
1978.3250
20
2509.7800
30
0
11
2001.7050
21
2481.6600
31
0
0
LINE
8
VISIBLE
10
2001.7050
20
2481.6600
30
0
11
2024.3450
21
2452.9400
31
0
0
LINE
8
VISIBLE
10
2024.3450
20
2452.9400
30
0
11
2046.2350
21
2423.6400
31
0
0
LINE
8
VISIBLE
10
2046.2350
20
2423.6400
30
0
11
2067.3350
21
2393.7700
31
0
0
LINE
8
VISIBLE
10
2067.3350
20
2393.7700
30
0
11
2087.6550
21
2363.3600
31
0
0
LINE
8
VISIBLE
10
2087.6550
20
2363.3600
30
0
11
2107.1750
21
2332.4300
31
0
0
LINE
8
VISIBLE
10
2107.1750
20
2332.4300
30
0
11
2125.8750
21
2301.0000
31
0
0
LINE
8
VISIBLE
10
2125.8750
20
2301.0000
30
0
11
2143.7450
21
2269.0900
31
0
0
LINE
8
VISIBLE
10
2143.7450
20
2269.0900
30
0
11
2160.7750
21
2236.7200
31
0
0
LINE
8
VISIBLE
10
2160.7750
20
2236.7200
30
0
11
2176.9450
21
2203.9200
31
0
0
LINE
8
VISIBLE
10
2176.9450
20
2203.9200
30
0
11
2192.2550
21
2170.7100
31
0
0
LINE
8
VISIBLE
10
2192.2550
20
2170.7100
30
0
11
2206.6950
21
2137.1100
31
0
0
LINE
8
VISIBLE
10
2206.6950
20
2137.1100
30
0
11
2220.2450
21
2103.1400
31
0
0
LINE
8
VISIBLE
10
2220.2450
20
2103.1400
30
0
11
2232.9050
21
2068.8300
31
0
0
LINE
8
VISIBLE
10
2232.9050
20
2068.8300
30
0
11
2244.6650
21
2034.2000
31
0
0
LINE
8
VISIBLE
10
2244.6650
20
2034.2000
30
0
11
2255.5050
21
1999.2700
31
0
0
LINE
8
VISIBLE
10
2255.5050
20
1999.2700
30
0
11
2265.4350
21
1964.0700
31
0
0
LINE
8
VISIBLE
10
2265.4350
20
1964.0700
30
0
11
2274.4350
21
1928.6200
31
0
0
LINE
8
VISIBLE
10
2274.4350
20
1928.6200
30
0
11
2282.5050
21
1892.9500
31
0
0
LINE
8
VISIBLE
10
2282.5050
20
1892.9500
30
0
11
2289.6450
21
1857.0800
31
0
0
LINE
8
VISIBLE
10
2289.6450
20
1857.0800
30
0
11
2295.8350
21
1821.0400
31
0
0
LINE
8
VISIBLE
10
2295.8350
20
1821.0400
30
0
11
2301.0850
21
1784.8500
31
0
0
LINE
8
VISIBLE
10
2301.0850
20
1784.8500
30
0
11
2305.3850
21
1748.5300
31
0
0
LINE
8
VISIBLE
10
2305.3850
20
1748.5300
30
0
11
2308.7250
21
1712.1100
31
0
0
LINE
8
VISIBLE
10
2308.7250
20
1712.1100
30
0
11
2311.1250
21
1675.6100
31
0
0
LINE
8
VISIBLE
10
2311.1250
20
1675.6100
30
0
11
2312.5550
21
1639.0700
31
0
0
LINE
8
VISIBLE
10
2312.5550
20
1639.0700
30
0
11
2313.0350
21
1602.5000
31
0
0
LINE
8
VISIBLE
10
2313.0350
20
1602.5000
30
0
11
2312.5550
21
1565.9300
31
0
0
LINE
8
VISIBLE
10
2312.5550
20
1565.9300
30
0
11
2311.1250
21
1529.3900
31
0
0
LINE
8
VISIBLE
10
2311.1250
20
1529.3900
30
0
11
2308.7250
21
1492.8900
31
0
0
LINE
8
VISIBLE
10
2308.7250
20
1492.8900
30
0
11
2305.3850
21
1456.4700
31
0
0
LINE
8
VISIBLE
10
2305.3850
20
1456.4700
30
0
11
2301.0850
21
1420.1500
31
0
0
LINE
8
VISIBLE
10
2301.0850
20
1420.1500
30
0
11
2295.8350
21
1383.9600
31
0
0
LINE
8
VISIBLE
10
2295.8350
20
1383.9600
30
0
11
2289.6450
21
1347.9200
31
0
0
LINE
8
VISIBLE
10
2289.6450
20
1347.9200
30
0
11
2282.5050
21
1312.0500
31
0
0
LINE
8
VISIBLE
10
2282.5050
20
1312.0500
30
0
11
2274.4350
21
1276.3800
31
0
0
LINE
8
VISIBLE
10
2274.4350
20
1276.3800
30
0
11
2265.4350
21
1240.9300
31
0
0
LINE
8
VISIBLE
10
2265.4350
20
1240.9300
30
0
11
2255.5050
21
1205.7300
31
0
0
LINE
8
VISIBLE
10
2255.5050
20
1205.7300
30
0
11
2244.6650
21
1170.8000
31
0
0
LINE
8
VISIBLE
10
2244.6650
20
1170.8000
30
0
11
2232.9050
21
1136.1700
31
0
0
LINE
8
VISIBLE
10
2232.9050
20
1136.1700
30
0
11
2220.2450
21
1101.8600
31
0
0
LINE
8
VISIBLE
10
2220.2450
20
1101.8600
30
0
11
2206.6950
21
1067.8900
31
0
0
LINE
8
VISIBLE
10
2206.6950
20
1067.8900
30
0
11
2192.2550
21
1034.2900
31
0
0
LINE
8
VISIBLE
10
2192.2550
20
1034.2900
30
0
11
2176.9450
21
1001.0800
31
0
0
LINE
8
VISIBLE
10
2176.9450
20
1001.0800
30
0
11
2160.7750
21
968.2800
31
0
0
LINE
8
VISIBLE
10
2160.7750
20
968.2800
30
0
11
2143.7450
21
935.9100
31
0
0
LINE
8
VISIBLE
10
2143.7450
20
935.9100
30
0
11
2125.8750
21
904.0000
31
0
0
LINE
8
VISIBLE
10
2125.8750
20
904.0000
30
0
11
2107.1750
21
872.5700
31
0
0
LINE
8
VISIBLE
10
2107.1750
20
872.5700
30
0
11
2087.6550
21
841.6400
31
0
0
LINE
8
VISIBLE
10
2087.6550
20
841.6400
30
0
11
2067.3350
21
811.2300
31
0
0
LINE
8
VISIBLE
10
2067.3350
20
811.2300
30
0
11
2046.2350
21
781.3600
31
0
0
LINE
8
VISIBLE
10
2046.2350
20
781.3600
30
0
11
2024.3450
21
752.0600
31
0
0
LINE
8
VISIBLE
10
2024.3450
20
752.0600
30
0
11
2001.7050
21
723.3400
31
0
0
LINE
8
VISIBLE
10
2001.7050
20
723.3400
30
0
11
1978.3250
21
695.2200
31
0
0
LINE
8
VISIBLE
10
1978.3250
20
695.2200
30
0
11
1954.2050
21
667.7200
31
0
0
LINE
8
VISIBLE
10
1954.2050
20
667.7200
30
0
11
1929.3850
21
640.8700
31
0
0
LINE
8
VISIBLE
10
1929.3850
20
640.8700
30
0
11
1903.8650
21
614.6700
31
0
0
LINE
8
VISIBLE
10
1903.8650
20
614.6700
30
0
11
1930.8050
21
587.7300
31
0
0
CIRCLE
8
VISIBLE
10
2009.9050
20
703.2500
30
0
40
5.5000
0
CIRCLE
8
VISIBLE
10
2241.7750
20
1104.9000
30
0
40
5.5000
0
CIRCLE
8
VISIBLE
10
2321.9550
20
1433.4200
30
0
40
5.5000
0
CIRCLE
8
VISIBLE
10
2321.9550
20
1771.5800
30
0
40
5.5000
0
CIRCLE
8
VISIBLE
10
2241.7750
20
2100.1000
30
0
40
5.5000
0
CIRCLE
8
VISIBLE
10
2009.9050
20
2501.7500
30
0
40
5.5000
0
CIRCLE
8
VISIBLE
10
1932.2150
20
616.3000
30
0
40
5.5000
0
CIRCLE
8
VISIBLE
10
2278.1950
20
1215.5600
30
0
40
5.5000
0
CIRCLE
8
VISIBLE
10
2289.1650
20
1256.5200
30
0
40
5.5000
0
CIRCLE
8
VISIBLE
10
2289.1650
20
1948.4800
30
0
40
5.5000
0
CIRCLE
8
VISIBLE
10
2278.1950
20
1989.4400
30
0
40
5.5000
0
CIRCLE
8
VISIBLE
10
1932.2150
20
2588.7000
30
0
40
5.5000
0
TEXT
8
TEXTO
10
1903.8650
20
557.7300
30
0
40
16.0000
1
BARRENOS: 12× · Ø 11 mm (corte láser)
0
LINE
8
COTAS
10
1903.8650
20
582.7300
30
0
11
1903.8650
21
535.2300
31
0
0
LINE
8
COTAS
10
2351.1350
20
582.7300
30
0
11
2351.1350
21
535.2300
31
0
0
LINE
8
COTAS
10
1903.8650
20
542.7300
30
0
11
2351.1350
21
542.7300
31
0
0
SOLID
8
COTAS
10
1903.8650
20
542.7300
30
0
11
1916.3650
21
544.9800
31
0
12
1916.3650
22
540.4800
32
0
13
1916.3650
23
540.4800
33
0
0
SOLID
8
COTAS
10
2351.1350
20
542.7300
30
0
11
2338.6350
21
544.9800
31
0
12
2338.6350
22
540.4800
32
0
13
2338.6350
23
540.4800
33
0
0
TEXT
8
COTAS
10
2127.5000
20
553.7300
30
0
40
17.5000
1
447.3
72
1
73
2
11
2127.5000
21
553.7300
31
0
0
LINE
8
COTAS
10
2356.1350
20
587.7300
30
0
11
2403.6350
21
587.7300
31
0
0
LINE
8
COTAS
10
2356.1350
20
2617.2700
30
0
11
2403.6350
21
2617.2700
31
0
0
LINE
8
COTAS
10
2396.1350
20
587.7300
30
0
11
2396.1350
21
2617.2700
31
0
0
SOLID
8
COTAS
10
2396.1350
20
587.7300
30
0
11
2398.3850
21
600.2300
31
0
12
2393.8850
22
600.2300
32
0
13
2393.8850
23
600.2300
33
0
0
SOLID
8
COTAS
10
2396.1350
20
2617.2700
30
0
11
2398.3850
21
2604.7700
31
0
12
2393.8850
22
2604.7700
32
0
13
2393.8850
23
2604.7700
33
0
0
TEXT
8
COTAS
10
2407.1350
20
1602.5000
30
0
40
17.5000
1
2029.5
72
1
73
2
11
2407.1350
21
1602.5000
31
0
0
TEXT
8
TEXTO
10
1903.8650
20
2669.7700
30
0
40
17.5000
1
DESARROLLO DE CHAPA — BA = ang·(R + K·t), fibra neutra por factor K
0
TEXT
8
TEXTO
10
1903.8650
20
2642.2700
30
0
40
20.0000
1
ESPESOR DE CHAPA e = 3 mm (constante en toda la pieza)
0
LINE
8
FINA
10
0.0000
20
0.0000
30
0
11
4205.0000
21
0.0000
31
0
0
LINE
8
FINA
10
4205.0000
20
0.0000
30
0
11
4205.0000
21
2970.0000
31
0
0
LINE
8
FINA
10
4205.0000
20
2970.0000
30
0
11
0.0000
21
2970.0000
31
0
0
LINE
8
FINA
10
0.0000
20
2970.0000
30
0
11
0.0000
21
0.0000
31
0
0
LINE
8
NORMA
10
100.0000
20
50.0000
30
0
11
4155.0000
21
50.0000
31
0
0
LINE
8
NORMA
10
4155.0000
20
50.0000
30
0
11
4155.0000
21
2920.0000
31
0
0
LINE
8
NORMA
10
4155.0000
20
2920.0000
30
0
11
100.0000
21
2920.0000
31
0
0
LINE
8
NORMA
10
100.0000
20
2920.0000
30
0
11
100.0000
21
50.0000
31
0
0
LINE
8
NORMA
10
0.0000
20
1485.0000
30
0
11
125.0000
21
1485.0000
31
0
0
LINE
8
NORMA
10
4205.0000
20
1485.0000
30
0
11
4130.0000
21
1485.0000
31
0
0
LINE
8
NORMA
10
2102.5000
20
0.0000
30
0
11
2102.5000
21
75.0000
31
0
0
LINE
8
NORMA
10
2102.5000
20
2970.0000
30
0
11
2102.5000
21
2895.0000
31
0
0
LINE
8
FINA
10
262.8125
20
0.0000
30
0
11
262.8125
21
50.0000
31
0
0
LINE
8
FINA
10
262.8125
20
2920.0000
30
0
11
262.8125
21
2970.0000
31
0
0
LINE
8
FINA
10
525.6250
20
0.0000
30
0
11
525.6250
21
50.0000
31
0
0
LINE
8
FINA
10
525.6250
20
2920.0000
30
0
11
525.6250
21
2970.0000
31
0
0
LINE
8
FINA
10
788.4375
20
0.0000
30
0
11
788.4375
21
50.0000
31
0
0
LINE
8
FINA
10
788.4375
20
2920.0000
30
0
11
788.4375
21
2970.0000
31
0
0
LINE
8
FINA
10
1051.2500
20
0.0000
30
0
11
1051.2500
21
50.0000
31
0
0
LINE
8
FINA
10
1051.2500
20
2920.0000
30
0
11
1051.2500
21
2970.0000
31
0
0
LINE
8
FINA
10
1314.0625
20
0.0000
30
0
11
1314.0625
21
50.0000
31
0
0
LINE
8
FINA
10
1314.0625
20
2920.0000
30
0
11
1314.0625
21
2970.0000
31
0
0
LINE
8
FINA
10
1576.8750
20
0.0000
30
0
11
1576.8750
21
50.0000
31
0
0
LINE
8
FINA
10
1576.8750
20
2920.0000
30
0
11
1576.8750
21
2970.0000
31
0
0
LINE
8
FINA
10
1839.6875
20
0.0000
30
0
11
1839.6875
21
50.0000
31
0
0
LINE
8
FINA
10
1839.6875
20
2920.0000
30
0
11
1839.6875
21
2970.0000
31
0
0
LINE
8
FINA
10
2102.5000
20
0.0000
30
0
11
2102.5000
21
50.0000
31
0
0
LINE
8
FINA
10
2102.5000
20
2920.0000
30
0
11
2102.5000
21
2970.0000
31
0
0
LINE
8
FINA
10
2365.3125
20
0.0000
30
0
11
2365.3125
21
50.0000
31
0
0
LINE
8
FINA
10
2365.3125
20
2920.0000
30
0
11
2365.3125
21
2970.0000
31
0
0
LINE
8
FINA
10
2628.1250
20
0.0000
30
0
11
2628.1250
21
50.0000
31
0
0
LINE
8
FINA
10
2628.1250
20
2920.0000
30
0
11
2628.1250
21
2970.0000
31
0
0
LINE
8
FINA
10
2890.9375
20
0.0000
30
0
11
2890.9375
21
50.0000
31
0
0
LINE
8
FINA
10
2890.9375
20
2920.0000
30
0
11
2890.9375
21
2970.0000
31
0
0
LINE
8
FINA
10
3153.7500
20
0.0000
30
0
11
3153.7500
21
50.0000
31
0
0
LINE
8
FINA
10
3153.7500
20
2920.0000
30
0
11
3153.7500
21
2970.0000
31
0
0
LINE
8
FINA
10
3416.5625
20
0.0000
30
0
11
3416.5625
21
50.0000
31
0
0
LINE
8
FINA
10
3416.5625
20
2920.0000
30
0
11
3416.5625
21
2970.0000
31
0
0
LINE
8
FINA
10
3679.3750
20
0.0000
30
0
11
3679.3750
21
50.0000
31
0
0
LINE
8
FINA
10
3679.3750
20
2920.0000
30
0
11
3679.3750
21
2970.0000
31
0
0
LINE
8
FINA
10
3942.1875
20
0.0000
30
0
11
3942.1875
21
50.0000
31
0
0
LINE
8
FINA
10
3942.1875
20
2920.0000
30
0
11
3942.1875
21
2970.0000
31
0
0
LINE
8
FINA
10
0.0000
20
247.5000
30
0
11
50.0000
21
247.5000
31
0
0
LINE
8
FINA
10
4155.0000
20
247.5000
30
0
11
4205.0000
21
247.5000
31
0
0
LINE
8
FINA
10
0.0000
20
495.0000
30
0
11
50.0000
21
495.0000
31
0
0
LINE
8
FINA
10
4155.0000
20
495.0000
30
0
11
4205.0000
21
495.0000
31
0
0
LINE
8
FINA
10
0.0000
20
742.5000
30
0
11
50.0000
21
742.5000
31
0
0
LINE
8
FINA
10
4155.0000
20
742.5000
30
0
11
4205.0000
21
742.5000
31
0
0
LINE
8
FINA
10
0.0000
20
990.0000
30
0
11
50.0000
21
990.0000
31
0
0
LINE
8
FINA
10
4155.0000
20
990.0000
30
0
11
4205.0000
21
990.0000
31
0
0
LINE
8
FINA
10
0.0000
20
1237.5000
30
0
11
50.0000
21
1237.5000
31
0
0
LINE
8
FINA
10
4155.0000
20
1237.5000
30
0
11
4205.0000
21
1237.5000
31
0
0
LINE
8
FINA
10
0.0000
20
1485.0000
30
0
11
50.0000
21
1485.0000
31
0
0
LINE
8
FINA
10
4155.0000
20
1485.0000
30
0
11
4205.0000
21
1485.0000
31
0
0
LINE
8
FINA
10
0.0000
20
1732.5000
30
0
11
50.0000
21
1732.5000
31
0
0
LINE
8
FINA
10
4155.0000
20
1732.5000
30
0
11
4205.0000
21
1732.5000
31
0
0
LINE
8
FINA
10
0.0000
20
1980.0000
30
0
11
50.0000
21
1980.0000
31
0
0
LINE
8
FINA
10
4155.0000
20
1980.0000
30
0
11
4205.0000
21
1980.0000
31
0
0
LINE
8
FINA
10
0.0000
20
2227.5000
30
0
11
50.0000
21
2227.5000
31
0
0
LINE
8
FINA
10
4155.0000
20
2227.5000
30
0
11
4205.0000
21
2227.5000
31
0
0
LINE
8
FINA
10
0.0000
20
2475.0000
30
0
11
50.0000
21
2475.0000
31
0
0
LINE
8
FINA
10
4155.0000
20
2475.0000
30
0
11
4205.0000
21
2475.0000
31
0
0
LINE
8
FINA
10
0.0000
20
2722.5000
30
0
11
50.0000
21
2722.5000
31
0
0
LINE
8
FINA
10
4155.0000
20
2722.5000
30
0
11
4205.0000
21
2722.5000
31
0
0
TEXT
8
TEXTO
10
131.4063
20
25.0000
30
0
40
12.5000
1
1
72
1
73
2
11
131.4063
21
25.0000
31
0
0
TEXT
8
TEXTO
10
131.4063
20
2945.0000
30
0
40
12.5000
1
1
72
1
73
2
11
131.4063
21
2945.0000
31
0
0
TEXT
8
TEXTO
10
394.2188
20
25.0000
30
0
40
12.5000
1
2
72
1
73
2
11
394.2188
21
25.0000
31
0
0
TEXT
8
TEXTO
10
394.2188
20
2945.0000
30
0
40
12.5000
1
2
72
1
73
2
11
394.2188
21
2945.0000
31
0
0
TEXT
8
TEXTO
10
657.0313
20
25.0000
30
0
40
12.5000
1
3
72
1
73
2
11
657.0313
21
25.0000
31
0
0
TEXT
8
TEXTO
10
657.0313
20
2945.0000
30
0
40
12.5000
1
3
72
1
73
2
11
657.0313
21
2945.0000
31
0
0
TEXT
8
TEXTO
10
919.8438
20
25.0000
30
0
40
12.5000
1
4
72
1
73
2
11
919.8438
21
25.0000
31
0
0
TEXT
8
TEXTO
10
919.8438
20
2945.0000
30
0
40
12.5000
1
4
72
1
73
2
11
919.8438
21
2945.0000
31
0
0
TEXT
8
TEXTO
10
1182.6563
20
25.0000
30
0
40
12.5000
1
5
72
1
73
2
11
1182.6563
21
25.0000
31
0
0
TEXT
8
TEXTO
10
1182.6563
20
2945.0000
30
0
40
12.5000
1
5
72
1
73
2
11
1182.6563
21
2945.0000
31
0
0
TEXT
8
TEXTO
10
1445.4688
20
25.0000
30
0
40
12.5000
1
6
72
1
73
2
11
1445.4688
21
25.0000
31
0
0
TEXT
8
TEXTO
10
1445.4688
20
2945.0000
30
0
40
12.5000
1
6
72
1
73
2
11
1445.4688
21
2945.0000
31
0
0
TEXT
8
TEXTO
10
1708.2813
20
25.0000
30
0
40
12.5000
1
7
72
1
73
2
11
1708.2813
21
25.0000
31
0
0
TEXT
8
TEXTO
10
1708.2813
20
2945.0000
30
0
40
12.5000
1
7
72
1
73
2
11
1708.2813
21
2945.0000
31
0
0
TEXT
8
TEXTO
10
1971.0938
20
25.0000
30
0
40
12.5000
1
8
72
1
73
2
11
1971.0938
21
25.0000
31
0
0
TEXT
8
TEXTO
10
1971.0938
20
2945.0000
30
0
40
12.5000
1
8
72
1
73
2
11
1971.0938
21
2945.0000
31
0
0
TEXT
8
TEXTO
10
2233.9063
20
25.0000
30
0
40
12.5000
1
9
72
1
73
2
11
2233.9063
21
25.0000
31
0
0
TEXT
8
TEXTO
10
2233.9063
20
2945.0000
30
0
40
12.5000
1
9
72
1
73
2
11
2233.9063
21
2945.0000
31
0
0
TEXT
8
TEXTO
10
2496.7188
20
25.0000
30
0
40
12.5000
1
10
72
1
73
2
11
2496.7188
21
25.0000
31
0
0
TEXT
8
TEXTO
10
2496.7188
20
2945.0000
30
0
40
12.5000
1
10
72
1
73
2
11
2496.7188
21
2945.0000
31
0
0
TEXT
8
TEXTO
10
2759.5313
20
25.0000
30
0
40
12.5000
1
11
72
1
73
2
11
2759.5313
21
25.0000
31
0
0
TEXT
8
TEXTO
10
2759.5313
20
2945.0000
30
0
40
12.5000
1
11
72
1
73
2
11
2759.5313
21
2945.0000
31
0
0
TEXT
8
TEXTO
10
3022.3438
20
25.0000
30
0
40
12.5000
1
12
72
1
73
2
11
3022.3438
21
25.0000
31
0
0
TEXT
8
TEXTO
10
3022.3438
20
2945.0000
30
0
40
12.5000
1
12
72
1
73
2
11
3022.3438
21
2945.0000
31
0
0
TEXT
8
TEXTO
10
3285.1563
20
25.0000
30
0
40
12.5000
1
13
72
1
73
2
11
3285.1563
21
25.0000
31
0
0
TEXT
8
TEXTO
10
3285.1563
20
2945.0000
30
0
40
12.5000
1
13
72
1
73
2
11
3285.1563
21
2945.0000
31
0
0
TEXT
8
TEXTO
10
3547.9688
20
25.0000
30
0
40
12.5000
1
14
72
1
73
2
11
3547.9688
21
25.0000
31
0
0
TEXT
8
TEXTO
10
3547.9688
20
2945.0000
30
0
40
12.5000
1
14
72
1
73
2
11
3547.9688
21
2945.0000
31
0
0
TEXT
8
TEXTO
10
3810.7813
20
25.0000
30
0
40
12.5000
1
15
72
1
73
2
11
3810.7813
21
25.0000
31
0
0
TEXT
8
TEXTO
10
3810.7813
20
2945.0000
30
0
40
12.5000
1
15
72
1
73
2
11
3810.7813
21
2945.0000
31
0
0
TEXT
8
TEXTO
10
4073.5938
20
25.0000
30
0
40
12.5000
1
16
72
1
73
2
11
4073.5938
21
25.0000
31
0
0
TEXT
8
TEXTO
10
4073.5938
20
2945.0000
30
0
40
12.5000
1
16
72
1
73
2
11
4073.5938
21
2945.0000
31
0
0
TEXT
8
TEXTO
10
25.0000
20
2846.2500
30
0
40
12.5000
1
A
72
1
73
2
11
25.0000
21
2846.2500
31
0
0
TEXT
8
TEXTO
10
4180.0000
20
2846.2500
30
0
40
12.5000
1
A
72
1
73
2
11
4180.0000
21
2846.2500
31
0
0
TEXT
8
TEXTO
10
25.0000
20
2598.7500
30
0
40
12.5000
1
B
72
1
73
2
11
25.0000
21
2598.7500
31
0
0
TEXT
8
TEXTO
10
4180.0000
20
2598.7500
30
0
40
12.5000
1
B
72
1
73
2
11
4180.0000
21
2598.7500
31
0
0
TEXT
8
TEXTO
10
25.0000
20
2351.2500
30
0
40
12.5000
1
C
72
1
73
2
11
25.0000
21
2351.2500
31
0
0
TEXT
8
TEXTO
10
4180.0000
20
2351.2500
30
0
40
12.5000
1
C
72
1
73
2
11
4180.0000
21
2351.2500
31
0
0
TEXT
8
TEXTO
10
25.0000
20
2103.7500
30
0
40
12.5000
1
D
72
1
73
2
11
25.0000
21
2103.7500
31
0
0
TEXT
8
TEXTO
10
4180.0000
20
2103.7500
30
0
40
12.5000
1
D
72
1
73
2
11
4180.0000
21
2103.7500
31
0
0
TEXT
8
TEXTO
10
25.0000
20
1856.2500
30
0
40
12.5000
1
E
72
1
73
2
11
25.0000
21
1856.2500
31
0
0
TEXT
8
TEXTO
10
4180.0000
20
1856.2500
30
0
40
12.5000
1
E
72
1
73
2
11
4180.0000
21
1856.2500
31
0
0
TEXT
8
TEXTO
10
25.0000
20
1608.7500
30
0
40
12.5000
1
F
72
1
73
2
11
25.0000
21
1608.7500
31
0
0
TEXT
8
TEXTO
10
4180.0000
20
1608.7500
30
0
40
12.5000
1
F
72
1
73
2
11
4180.0000
21
1608.7500
31
0
0
TEXT
8
TEXTO
10
25.0000
20
1361.2500
30
0
40
12.5000
1
G
72
1
73
2
11
25.0000
21
1361.2500
31
0
0
TEXT
8
TEXTO
10
4180.0000
20
1361.2500
30
0
40
12.5000
1
G
72
1
73
2
11
4180.0000
21
1361.2500
31
0
0
TEXT
8
TEXTO
10
25.0000
20
1113.7500
30
0
40
12.5000
1
H
72
1
73
2
11
25.0000
21
1113.7500
31
0
0
TEXT
8
TEXTO
10
4180.0000
20
1113.7500
30
0
40
12.5000
1
H
72
1
73
2
11
4180.0000
21
1113.7500
31
0
0
TEXT
8
TEXTO
10
25.0000
20
866.2500
30
0
40
12.5000
1
J
72
1
73
2
11
25.0000
21
866.2500
31
0
0
TEXT
8
TEXTO
10
4180.0000
20
866.2500
30
0
40
12.5000
1
J
72
1
73
2
11
4180.0000
21
866.2500
31
0
0
TEXT
8
TEXTO
10
25.0000
20
618.7500
30
0
40
12.5000
1
K
72
1
73
2
11
25.0000
21
618.7500
31
0
0
TEXT
8
TEXTO
10
4180.0000
20
618.7500
30
0
40
12.5000
1
K
72
1
73
2
11
4180.0000
21
618.7500
31
0
0
TEXT
8
TEXTO
10
25.0000
20
371.2500
30
0
40
12.5000
1
L
72
1
73
2
11
25.0000
21
371.2500
31
0
0
TEXT
8
TEXTO
10
4180.0000
20
371.2500
30
0
40
12.5000
1
L
72
1
73
2
11
4180.0000
21
371.2500
31
0
0
TEXT
8
TEXTO
10
25.0000
20
123.7500
30
0
40
12.5000
1
M
72
1
73
2
11
25.0000
21
123.7500
31
0
0
TEXT
8
TEXTO
10
4180.0000
20
123.7500
30
0
40
12.5000
1
M
72
1
73
2
11
4180.0000
21
123.7500
31
0
0
LINE
8
NORMA
10
3255.0000
20
50.0000
30
0
11
4155.0000
21
50.0000
31
0
0
LINE
8
NORMA
10
4155.0000
20
50.0000
30
0
11
4155.0000
21
260.0000
31
0
0
LINE
8
NORMA
10
4155.0000
20
260.0000
30
0
11
3255.0000
21
260.0000
31
0
0
LINE
8
NORMA
10
3255.0000
20
260.0000
30
0
11
3255.0000
21
50.0000
31
0
0
LINE
8
NORMA
10
3455.0000
20
50.0000
30
0
11
3455.0000
21
260.0000
31
0
0
LINE
8
NORMA
10
3925.0000
20
50.0000
30
0
11
3925.0000
21
260.0000
31
0
0
LINE
8
FINA
10
3255.0000
20
145.0000
30
0
11
3455.0000
21
145.0000
31
0
0
TEXT
8
TEXTO
10
3355.0000
20
219.0000
30
0
40
30.0000
1
foto3d
72
1
73
2
11
3355.0000
21
219.0000
31
0
0
LINE
8
FINA
10
3287.5000
20
193.0000
30
0
11
3422.5000
21
193.0000
31
0
0
TEXT
8
TEXTO
10
3355.0000
20
179.0000
30
0
40
6.5000
1
CAD · DISEÑO CAPA USER
72
1
73
2
11
3355.0000
21
179.0000
31
0
0
TEXT
8
TEXTO
10
3355.0000
20
163.0000
30
0
40
6.5000
1
ISO 5457 · 7200 · 129 · 5456-2
72
1
73
2
11
3355.0000
21
163.0000
31
0
0
TEXT
8
TEXTO
10
3355.0000
20
133.0000
30
0
40
7.0000
1
PROYECCIÓN — PRIMER DIEDRO
72
1
73
2
11
3355.0000
21
133.0000
31
0
0
CIRCLE
8
TEXTO
10
3332.0000
20
87.5000
30
0
40
14.9500
0
CIRCLE
8
TEXTO
10
3332.0000
20
87.5000
30
0
40
8.0500
0
LINE
8
TEXTO
10
3357.3000
20
72.5500
30
0
11
3392.9500
21
79.4500
31
0
0
LINE
8
TEXTO
10
3392.9500
20
79.4500
30
0
11
3392.9500
21
95.5500
31
0
0
LINE
8
TEXTO
10
3392.9500
20
95.5500
30
0
11
3357.3000
21
102.4500
31
0
0
LINE
8
TEXTO
10
3357.3000
20
102.4500
30
0
11
3357.3000
21
72.5500
31
0
0
LINE
8
FINA
10
3310.1500
20
87.5000
30
0
11
3399.8500
21
87.5000
31
0
0
LINE
8
FINA
10
3455.0000
20
195.0000
30
0
11
3925.0000
21
195.0000
31
0
0
LINE
8
FINA
10
3455.0000
20
145.0000
30
0
11
3925.0000
21
145.0000
31
0
0
LINE
8
FINA
10
3455.0000
20
95.0000
30
0
11
3925.0000
21
95.0000
31
0
0
LINE
8
FINA
10
3690.0000
20
145.0000
30
0
11
3690.0000
21
195.0000
31
0
0
LINE
8
FINA
10
3735.0000
20
95.0000
30
0
11
3735.0000
21
145.0000
31
0
0
TEXT
8
TEXTO
10
3461.5000
20
248.0000
30
0
40
7.0000
1
DESIGNACIÓN
0
TEXT
8
TEXTO
10
3463.0000
20
220.5000
30
0
40
15.6266
1
CUD-05 · Refuerzo externo superior C90° (x2) — DESARROLLO
72
0
73
2
11
3463.0000
21
220.5000
31
0
0
TEXT
8
TEXTO
10
3461.5000
20
183.0000
30
0
40
7.0000
1
PROYECTO
0
TEXT
8
TEXTO
10
3463.0000
20
163.0000
30
0
40
10.0000
1
Curva 90° 24" de polines cónicos — Conveyo…
72
0
73
2
11
3463.0000
21
163.0000
31
0
0
TEXT
8
TEXTO
10
3696.5000
20
183.0000
30
0
40
7.0000
1
FUENTE
0
TEXT
8
TEXTO
10
3698.0000
20
163.0000
30
0
40
12.0000
1
chapa plegada — capa user
72
0
73
2
11
3698.0000
21
163.0000
31
0
0
TEXT
8
TEXTO
10
3461.5000
20
133.0000
30
0
40
7.0000
1
VERIFICACIÓN DE ESCALA
0
TEXT
8
TEXTO
10
3463.0000
20
113.0000
30
0
40
12.0000
1
CAD EN MM (CAPA USER)
72
0
73
2
11
3463.0000
21
113.0000
31
0
0
TEXT
8
TEXTO
10
3741.5000
20
133.0000
30
0
40
7.0000
1
PLIEGUES
0
TEXT
8
TEXTO
10
3743.0000
20
113.0000
30
0
40
13.0000
1
0
72
0
73
2
11
3743.0000
21
113.0000
31
0
0
TEXT
8
TEXTO
10
3461.5000
20
83.0000
30
0
40
7.0000
1
NOTA
0
TEXT
8
TEXTO
10
3463.0000
20
65.5000
30
0
40
11.0000
1
Fe e=3 mm — corte plano de corona · e3 · tol. gral. ISO 2768-mK · K=0.5
72
0
73
2
11
3463.0000
21
65.5000
31
0
0
LINE
8
FINA
10
3925.0000
20
195.0000
30
0
11
4155.0000
21
195.0000
31
0
0
LINE
8
FINA
10
3925.0000
20
145.0000
30
0
11
4155.0000
21
145.0000
31
0
0
LINE
8
FINA
10
3925.0000
20
95.0000
30
0
11
4155.0000
21
95.0000
31
0
0
LINE
8
FINA
10
4040.0000
20
145.0000
30
0
11
4040.0000
21
195.0000
31
0
0
LINE
8
FINA
10
4055.0000
20
95.0000
30
0
11
4055.0000
21
145.0000
31
0
0
TEXT
8
TEXTO
10
3931.5000
20
248.0000
30
0
40
7.0000
1
ESCALA
0
TEXT
8
TEXTO
10
4040.0000
20
220.5000
30
0
40
25.0000
1
1:5
72
1
73
2
11
4040.0000
21
220.5000
31
0
0
TEXT
8
TEXTO
10
3931.5000
20
183.0000
30
0
40
7.0000
1
FORMATO
0
TEXT
8
TEXTO
10
3982.5000
20
163.0000
30
0
40
15.0000
1
A1
72
1
73
2
11
3982.5000
21
163.0000
31
0
0
TEXT
8
TEXTO
10
4046.5000
20
183.0000
30
0
40
7.0000
1
LÁMINA
0
TEXT
8
TEXTO
10
4097.5000
20
163.0000
30
0
40
15.0000
1
1 / 1
72
1
73
2
11
4097.5000
21
163.0000
31
0
0
TEXT
8
TEXTO
10
3931.5000
20
133.0000
30
0
40
7.0000
1
FECHA
0
TEXT
8
TEXTO
10
3990.0000
20
113.0000
30
0
40
13.0000
1
2026-08-13
72
1
73
2
11
3990.0000
21
113.0000
31
0
0
TEXT
8
TEXTO
10
4061.5000
20
133.0000
30
0
40
7.0000
1
UNIDADES
0
TEXT
8
TEXTO
10
4105.0000
20
113.0000
30
0
40
15.0000
1
mm
72
1
73
2
11
4105.0000
21
113.0000
31
0
0
TEXT
8
TEXTO
10
3931.5000
20
83.0000
30
0
40
7.0000
1
Nº DE PLANO
0
TEXT
8
TEXTO
10
4040.0000
20
65.5000
30
0
40
13.0000
1
CUD-05
72
1
73
2
11
4040.0000
21
65.5000
31
0
0
ENDSEC
0
EOF
