  0
SECTION
  2
HEADER
  9
$ACADVER
  1
AC1032
  9
$ACADMAINTVER
 90
4
  9
$DWGCODEPAGE
  3
ANSI_1252
  9
$LASTSAVEDBY
  1
ezdxf
  9
$REQUIREDVERSIONS
160
0
  9
$INSBASE
 10
0.0
 20
0.0
 30
0.0
  9
$EXTMIN
 10
1e+20
 20
1e+20
 30
1e+20
  9
$EXTMAX
 10
-1e+20
 20
-1e+20
 30
-1e+20
  9
$LIMMIN
 10
0.0
 20
0.0
  9
$LIMMAX
 10
420.0
 20
297.0
  9
$ORTHOMODE
 70
0
  9
$REGENMODE
 70
1
  9
$FILLMODE
 70
1
  9
$QTEXTMODE
 70
0
  9
$MIRRTEXT
 70
1
  9
$LTSCALE
 40
1.0
  9
$ATTMODE
 70
1
  9
$TEXTSIZE
 40
2.5
  9
$TRACEWID
 40
1.0
  9
$TEXTSTYLE
  7
OpenSans
  9
$CLAYER
  8
0
  9
$CELTYPE
  6
ByLayer
  9
$CECOLOR
 62
256
  9
$CELTSCALE
 40
1.0
  9
$DISPSILH
 70
0
  9
$DIMSCALE
 40
1.0
  9
$DIMASZ
 40
0.175
  9
$DIMEXO
 40
0.125
  9
$DIMDLI
 40
3.75
  9
$DIMRND
 40
0.0
  9
$DIMDLE
 40
0.0
  9
$DIMEXE
 40
0.375
  9
$DIMTP
 40
0.0
  9
$DIMTM
 40
0.0
  9
$DIMTXT
 40
0.25
  9
$DIMCEN
 40
2.5
  9
$DIMTSZ
 40
0.0
  9
$DIMTOL
 70
0
  9
$DIMLIM
 70
0
  9
$DIMTIH
 70
0
  9
$DIMTOH
 70
0
  9
$DIMSE1
 70
0
  9
$DIMSE2
 70
0
  9
$DIMTAD
 70
1
  9
$DIMZIN
 70
12
  9
$DIMBLK
  1
ARCHTICK
  9
$DIMASO
 70
1
  9
$DIMSHO
 70
1
  9
$DIMPOST
  1

  9
$DIMAPOST
  1

  9
$DIMALT
 70
0
  9
$DIMALTD
 70
3
  9
$DIMALTF
 40
0.03937007874
  9
$DIMLFAC
 40
100.0
  9
$DIMTOFL
 70
1
  9
$DIMTVP
 40
0.0
  9
$DIMTIX
 70
0
  9
$DIMSOXD
 70
0
  9
$DIMSAH
 70
0
  9
$DIMBLK1
  1

  9
$DIMBLK2
  1

  9
$DIMSTYLE
  2
EZDXF
  9
$DIMCLRD
 70
0
  9
$DIMCLRE
 70
0
  9
$DIMCLRT
 70
0
  9
$DIMTFAC
 40
0.5
  9
$DIMGAP
 40
0.1
  9
$DIMJUST
 70
0
  9
$DIMSD1
 70
0
  9
$DIMSD2
 70
0
  9
$DIMTOLJ
 70
0
  9
$DIMTZIN
 70
8
  9
$DIMALTZ
 70
0
  9
$DIMALTTZ
 70
0
  9
$DIMUPT
 70
1
  9
$DIMDEC
 70
2
  9
$DIMTDEC
 70
2
  9
$DIMALTU
 70
2
  9
$DIMALTTD
 70
3
  9
$DIMTXSTY
  7
OpenSansCondensed-Light
  9
$DIMAUNIT
 70
0
  9
$DIMADEC
 70
2
  9
$DIMALTRND
 40
0.0
  9
$DIMAZIN
 70
3
  9
$DIMDSEP
 70
46
  9
$DIMATFIT
 70
3
  9
$DIMFRAC
 70
0
  9
$DIMLDRBLK
  1

  9
$DIMLUNIT
 70
2
  9
$DIMLWD
 70
-2
  9
$DIMLWE
 70
-2
  9
$DIMTMOVE
 70
2
  9
$DIMFXL
 40
1.0
  9
$DIMFXLON
 70
0
  9
$DIMJOGANG
 40
0.785398163397
  9
$DIMTFILL
 70
0
  9
$DIMTFILLCLR
 70
0
  9
$DIMARCSYM
 70
0
  9
$DIMLTYPE
  6

  9
$DIMLTEX1
  6

  9
$DIMLTEX2
  6

  9
$DIMTXTDIRECTION
 70
0
  9
$LUNITS
 70
2
  9
$LUPREC
 70
4
  9
$SKETCHINC
 40
1.0
  9
$FILLETRAD
 40
10.0
  9
$AUNITS
 70
0
  9
$AUPREC
 70
2
  9
$MENU
  1
.
  9
$ELEVATION
 40
0.0
  9
$PELEVATION
 40
0.0
  9
$THICKNESS
 40
0.0
  9
$LIMCHECK
 70
0
  9
$CHAMFERA
 40
0.0
  9
$CHAMFERB
 40
0.0
  9
$CHAMFERC
 40
0.0
  9
$CHAMFERD
 40
0.0
  9
$SKPOLY
 70
0
  9
$TDCREATE
 40
2461290.8560648146
  9
$TDUCREATE
 40
2458532.153996898
  9
$TDUPDATE
 40
2461290.8560648146
  9
$TDUUPDATE
 40
2458532.1544311
  9
$TDINDWG
 40
0.0
  9
$TDUSRTIMER
 40
0.0
  9
$USRTIMER
 70
1
  9
$ANGBASE
 50
0.0
  9
$ANGDIR
 70
0
  9
$PDMODE
 70
0
  9
$PDSIZE
 40
0.0
  9
$PLINEWID
 40
0.0
  9
$SPLFRAME
 70
0
  9
$SPLINETYPE
 70
6
  9
$SPLINESEGS
 70
8
  9
$HANDSEED
  5
AE
  9
$SURFTAB1
 70
6
  9
$SURFTAB2
 70
6
  9
$SURFTYPE
 70
6
  9
$SURFU
 70
6
  9
$SURFV
 70
6
  9
$UCSBASE
  2

  9
$UCSNAME
  2

  9
$UCSORG
 10
0.0
 20
0.0
 30
0.0
  9
$UCSXDIR
 10
1.0
 20
0.0
 30
0.0
  9
$UCSYDIR
 10
0.0
 20
1.0
 30
0.0
  9
$UCSORTHOREF
  2

  9
$UCSORTHOVIEW
 70
0
  9
$UCSORGTOP
 10
0.0
 20
0.0
 30
0.0
  9
$UCSORGBOTTOM
 10
0.0
 20
0.0
 30
0.0
  9
$UCSORGLEFT
 10
0.0
 20
0.0
 30
0.0
  9
$UCSORGRIGHT
 10
0.0
 20
0.0
 30
0.0
  9
$UCSORGFRONT
 10
0.0
 20
0.0
 30
0.0
  9
$UCSORGBACK
 10
0.0
 20
0.0
 30
0.0
  9
$PUCSBASE
  2

  9
$PUCSNAME
  2

  9
$PUCSORG
 10
0.0
 20
0.0
 30
0.0
  9
$PUCSXDIR
 10
1.0
 20
0.0
 30
0.0
  9
$PUCSYDIR
 10
0.0
 20
1.0
 30
0.0
  9
$PUCSORTHOREF
  2

  9
$PUCSORTHOVIEW
 70
0
  9
$PUCSORGTOP
 10
0.0
 20
0.0
 30
0.0
  9
$PUCSORGBOTTOM
 10
0.0
 20
0.0
 30
0.0
  9
$PUCSORGLEFT
 10
0.0
 20
0.0
 30
0.0
  9
$PUCSORGRIGHT
 10
0.0
 20
0.0
 30
0.0
  9
$PUCSORGFRONT
 10
0.0
 20
0.0
 30
0.0
  9
$PUCSORGBACK
 10
0.0
 20
0.0
 30
0.0
  9
$USERI1
 70
0
  9
$USERI2
 70
0
  9
$USERI3
 70
0
  9
$USERI4
 70
0
  9
$USERI5
 70
0
  9
$USERR1
 40
0.0
  9
$USERR2
 40
0.0
  9
$USERR3
 40
0.0
  9
$USERR4
 40
0.0
  9
$USERR5
 40
0.0
  9
$WORLDVIEW
 70
1
  9
$SHADEDGE
 70
3
  9
$SHADEDIF
 70
70
  9
$TILEMODE
 70
1
  9
$MAXACTVP
 70
64
  9
$PINSBASE
 10
0.0
 20
0.0
 30
0.0
  9
$PLIMCHECK
 70
0
  9
$PEXTMIN
 10
1e+20
 20
1e+20
 30
1e+20
  9
$PEXTMAX
 10
-1e+20
 20
-1e+20
 30
-1e+20
  9
$PLIMMIN
 10
0.0
 20
0.0
  9
$PLIMMAX
 10
420.0
 20
297.0
  9
$UNITMODE
 70
0
  9
$VISRETAIN
 70
1
  9
$PLINEGEN
 70
0
  9
$PSLTSCALE
 70
1
  9
$TREEDEPTH
 70
3020
  9
$CMLSTYLE
  2
Standard
  9
$CMLJUST
 70
0
  9
$CMLSCALE
 40
20.0
  9
$PROXYGRAPHICS
 70
1
  9
$MEASUREMENT
 70
1
  9
$CELWEIGHT
370
-1
  9
$ENDCAPS
280
0
  9
$JOINSTYLE
280
0
  9
$LWDISPLAY
290
0
  9
$INSUNITS
 70
4
  9
$HYPERLINKBASE
  1

  9
$STYLESHEET
  1

  9
$XEDIT
290
1
  9
$CEPSNTYPE
380
0
  9
$PSTYLEMODE
290
1
  9
$FINGERPRINTGUID
  2
{A3455922-8107-4C8E-B7AF-6A7311FB7094}
  9
$VERSIONGUID
  2
{60A297BC-0F40-46B5-B7FA-3F2B6DBDA3B6}
  9
$EXTNAMES
290
1
  9
$PSVPSCALE
 40
0.0
  9
$OLESTARTUP
290
0
  9
$SORTENTS
280
127
  9
$INDEXCTL
280
0
  9
$HIDETEXT
280
1
  9
$XCLIPFRAME
280
1
  9
$HALOGAP
280
0
  9
$OBSCOLOR
 70
257
  9
$OBSLTYPE
280
0
  9
$INTERSECTIONDISPLAY
280
0
  9
$INTERSECTIONCOLOR
 70
257
  9
$DIMASSOC
280
2
  9
$PROJECTNAME
  1

  9
$CAMERADISPLAY
290
0
  9
$LENSLENGTH
 40
50.0
  9
$CAMERAHEIGHT
 40
0.0
  9
$STEPSPERSEC
 40
24.0
  9
$STEPSIZE
 40
100.0
  9
$3DDWFPREC
 40
2.0
  9
$PSOLWIDTH
 40
0.005
  9
$PSOLHEIGHT
 40
0.08
  9
$LOFTANG1
 40
1.570796326795
  9
$LOFTANG2
 40
1.570796326795
  9
$LOFTMAG1
 40
0.0
  9
$LOFTMAG2
 40
0.0
  9
$LOFTPARAM
 70
7
  9
$LOFTNORMALS
280
1
  9
$LATITUDE
 40
37.795
  9
$LONGITUDE
 40
-122.394
  9
$NORTHDIRECTION
 40
0.0
  9
$TIMEZONE
 70
-8000
  9
$LIGHTGLYPHDISPLAY
280
1
  9
$TILEMODELIGHTSYNCH
280
1
  9
$CMATERIAL
347
20
  9
$SOLIDHIST
280
0
  9
$SHOWHIST
280
1
  9
$DWFFRAME
280
2
  9
$DGNFRAME
280
2
  9
$REALWORLDSCALE
290
1
  9
$INTERFERECOLOR
 62
256
  9
$CSHADOW
280
0
  9
$SHADOWPLANELOCATION
 40
0.0
  0
ENDSEC
  0
SECTION
  2
CLASSES
  0
CLASS
  1
ACDBDICTIONARYWDFLT
  2
AcDbDictionaryWithDefault
  3
ObjectDBX Classes
 90
0
 91
0
280
0
281
0
  0
CLASS
  1
SUN
  2
AcDbSun
  3
SCENEOE
 90
1153
 91
0
280
0
281
0
  0
CLASS
  1
VISUALSTYLE
  2
AcDbVisualStyle
  3
ObjectDBX Classes
 90
4095
 91
0
280
0
281
0
  0
CLASS
  1
MATERIAL
  2
AcDbMaterial
  3
ObjectDBX Classes
 90
1153
 91
0
280
0
281
0
  0
CLASS
  1
SCALE
  2
AcDbScale
  3
ObjectDBX Classes
 90
1153
 91
0
280
0
281
0
  0
CLASS
  1
TABLESTYLE
  2
AcDbTableStyle
  3
ObjectDBX Classes
 90
4095
 91
0
280
0
281
0
  0
CLASS
  1
MLEADERSTYLE
  2
AcDbMLeaderStyle
  3
ACDB_MLEADERSTYLE_CLASS
 90
4095
 91
0
280
0
281
0
  0
CLASS
  1
DICTIONARYVAR
  2
AcDbDictionaryVar
  3
ObjectDBX Classes
 90
0
 91
0
280
0
281
0
  0
CLASS
  1
CELLSTYLEMAP
  2
AcDbCellStyleMap
  3
ObjectDBX Classes
 90
1152
 91
0
280
0
281
0
  0
CLASS
  1
MENTALRAYRENDERSETTINGS
  2
AcDbMentalRayRenderSettings
  3
SCENEOE
 90
1024
 91
0
280
0
281
0
  0
CLASS
  1
ACDBDETAILVIEWSTYLE
  2
AcDbDetailViewStyle
  3
ObjectDBX Classes
 90
1025
 91
0
280
0
281
0
  0
CLASS
  1
ACDBSECTIONVIEWSTYLE
  2
AcDbSectionViewStyle
  3
ObjectDBX Classes
 90
1025
 91
0
280
0
281
0
  0
CLASS
  1
RASTERVARIABLES
  2
AcDbRasterVariables
  3
ISM
 90
0
 91
0
280
0
281
0
  0
CLASS
  1
LAYOUT
  2
AcDbLayout
  3
ObjectDBX Classes
 90
0
 91
0
280
0
281
0
  0
CLASS
  1
ACDBPLACEHOLDER
  2
AcDbPlaceHolder
  3
ObjectDBX Classes
 90
0
 91
0
280
0
281
0
  0
ENDSEC
  0
SECTION
  2
TABLES
  0
TABLE
  2
VPORT
  5
8
330
0
100
AcDbSymbolTable
 70
1
  0
VPORT
  5
23
330
8
100
AcDbSymbolTableRecord
100
AcDbViewportTableRecord
  2
*Active
 70
0
 10
0.0
 20
0.0
 11
1.0
 21
1.0
 12
0.0
 22
0.0
 13
0.0
 23
0.0
 14
0.5
 24
0.5
 15
0.5
 25
0.5
 16
0.0
 26
0.0
 36
1.0
 17
0.0
 27
0.0
 37
0.0
 40
1000.0
 41
1.34
 42
50.0
 43
0.0
 44
0.0
 50
0.0
 51
0.0
 71
0
 72
1000
 73
1
 74
3
 75
0
 76
0
 77
0
 78
0
281
0
 65
0
146
0.0
  0
ENDTAB
  0
TABLE
  2
LTYPE
  5
2
330
0
100
AcDbSymbolTable
 70
21
  0
LTYPE
  5
24
330
2
100
AcDbSymbolTableRecord
100
AcDbLinetypeTableRecord
  2
ByBlock
 70
0
  3

 72
65
 73
0
 40
0.0
  0
LTYPE
  5
25
330
2
100
AcDbSymbolTableRecord
100
AcDbLinetypeTableRecord
  2
ByLayer
 70
0
  3

 72
65
 73
0
 40
0.0
  0
LTYPE
  5
26
330
2
100
AcDbSymbolTableRecord
100
AcDbLinetypeTableRecord
  2
Continuous
 70
0
  3

 72
65
 73
0
 40
0.0
  0
LTYPE
  5
2F
330
2
100
AcDbSymbolTableRecord
100
AcDbLinetypeTableRecord
  2
CENTER
 70
0
  3
Center ____ _ ____ _ ____ _ ____ _ ____ _ ____
 72
65
 73
4
 40
5.08
 49
3.175
 74
0
 49
-0.635
 74
0
 49
0.635
 74
0
 49
-0.635
 74
0
  0
LTYPE
  5
30
330
2
100
AcDbSymbolTableRecord
100
AcDbLinetypeTableRecord
  2
CENTERX2
 70
0
  3
Center (2x) ________  __  ________  __  ________
 72
65
 73
4
 40
8.89
 49
6.35
 74
0
 49
-0.635
 74
0
 49
1.27
 74
0
 49
-0.635
 74
0
  0
LTYPE
  5
31
330
2
100
AcDbSymbolTableRecord
100
AcDbLinetypeTableRecord
  2
CENTER2
 70
0
  3
Center (.5x) ____ _ ____ _ ____ _ ____ _ ____
 72
65
 73
4
 40
2.54
 49
1.587
 74
0
 49
-0.318
 74
0
 49
0.318
 74
0
 49
-0.318
 74
0
  0
LTYPE
  5
32
330
2
100
AcDbSymbolTableRecord
100
AcDbLinetypeTableRecord
  2
DASHED
 70
0
  3
Dashed __ __ __ __ __ __ __ __ __ __ __ __ __ _
 72
65
 73
2
 40
1.524
 49
1.27
 74
0
 49
-0.254
 74
0
  0
LTYPE
  5
33
330
2
100
AcDbSymbolTableRecord
100
AcDbLinetypeTableRecord
  2
DASHEDX2
 70
0
  3
Dashed (2x) ____  ____  ____  ____  ____  ____
 72
65
 73
2
 40
3.048
 49
2.54
 74
0
 49
-0.508
 74
0
  0
LTYPE
  5
34
330
2
100
AcDbSymbolTableRecord
100
AcDbLinetypeTableRecord
  2
DASHED2
 70
0
  3
Dashed (.5x) _ _ _ _ _ _ _ _ _ _ _ _ _ _
 72
65
 73
2
 40
0.762
 49
0.635
 74
0
 49
-0.127
 74
0
  0
LTYPE
  5
35
330
2
100
AcDbSymbolTableRecord
100
AcDbLinetypeTableRecord
  2
PHANTOM
 70
0
  3
Phantom ______  __  __  ______  __  __  ______
 72
65
 73
6
 40
6.35
 49
3.175
 74
0
 49
-0.635
 74
0
 49
0.635
 74
0
 49
-0.635
 74
0
 49
0.635
 74
0
 49
-0.635
 74
0
  0
LTYPE
  5
36
330
2
100
AcDbSymbolTableRecord
100
AcDbLinetypeTableRecord
  2
PHANTOMX2
 70
0
  3
Phantom (2x)____________    ____    ____    ____________
 72
65
 73
6
 40
10.795
 49
6.35
 74
0
 49
-0.635
 74
0
 49
1.27
 74
0
 49
-0.635
 74
0
 49
1.27
 74
0
 49
-0.635
 74
0
  0
LTYPE
  5
37
330
2
100
AcDbSymbolTableRecord
100
AcDbLinetypeTableRecord
  2
PHANTOM2
 70
0
  3
Phantom (.5x) ___ _ _ ___ _ _ ___ _ _ ___ _ _ ___
 72
65
 73
6
 40
3.175
 49
1.587
 74
0
 49
-0.318
 74
0
 49
0.318
 74
0
 49
-0.318
 74
0
 49
0.318
 74
0
 49
-0.318
 74
0
  0
LTYPE
  5
38
330
2
100
AcDbSymbolTableRecord
100
AcDbLinetypeTableRecord
  2
DASHDOT
 70
0
  3
Dash dot __ . __ . __ . __ . __ . __ . __ . __
 72
65
 73
4
 40
3.556
 49
2.54
 74
0
 49
-0.508
 74
0
 49
0.0
 74
0
 49
-0.508
 74
0
  0
LTYPE
  5
39
330
2
100
AcDbSymbolTableRecord
100
AcDbLinetypeTableRecord
  2
DASHDOTX2
 70
0
  3
Dash dot (2x) ____  .  ____  .  ____  .  ____
 72
65
 73
4
 40
6.096
 49
5.08
 74
0
 49
-0.508
 74
0
 49
0.0
 74
0
 49
-0.508
 74
0
  0
LTYPE
  5
3A
330
2
100
AcDbSymbolTableRecord
100
AcDbLinetypeTableRecord
  2
DASHDOT2
 70
0
  3
Dash dot (.5x) _ . _ . _ . _ . _ . _ . _ . _
 72
65
 73
4
 40
1.778
 49
1.27
 74
0
 49
-0.254
 74
0
 49
0.0
 74
0
 49
-0.254
 74
0
  0
LTYPE
  5
3B
330
2
100
AcDbSymbolTableRecord
100
AcDbLinetypeTableRecord
  2
DOT
 70
0
  3
Dot .  .  .  .  .  .  .  .  .  .  .  .  .  .  .  .
 72
65
 73
2
 40
0.508
 49
0.0
 74
0
 49
-0.508
 74
0
  0
LTYPE
  5
3C
330
2
100
AcDbSymbolTableRecord
100
AcDbLinetypeTableRecord
  2
DOTX2
 70
0
  3
Dot (2x) .    .    .    .    .    .    .    . 
 72
65
 73
2
 40
1.016
 49
0.0
 74
0
 49
-1.016
 74
0
  0
LTYPE
  5
3D
330
2
100
AcDbSymbolTableRecord
100
AcDbLinetypeTableRecord
  2
DOT2
 70
0
  3
Dot (.5) . . . . . . . . . . . . . . . . . . . 
 72
65
 73
2
 40
0.254
 49
0.0
 74
0
 49
-0.254
 74
0
  0
LTYPE
  5
3E
330
2
100
AcDbSymbolTableRecord
100
AcDbLinetypeTableRecord
  2
DIVIDE
 70
0
  3
Divide __ . . __ . . __ . . __ . . __ . . __
 72
65
 73
6
 40
4.064
 49
2.54
 74
0
 49
-0.508
 74
0
 49
0.0
 74
0
 49
-0.508
 74
0
 49
0.0
 74
0
 49
-0.508
 74
0
  0
LTYPE
  5
3F
330
2
100
AcDbSymbolTableRecord
100
AcDbLinetypeTableRecord
  2
DIVIDEX2
 70
0
  3
Divide (2x) ____  . .  ____  . .  ____  . .  ____
 72
65
 73
6
 40
6.604
 49
5.08
 74
0
 49
-0.508
 74
0
 49
0.0
 74
0
 49
-0.508
 74
0
 49
0.0
 74
0
 49
-0.508
 74
0
  0
LTYPE
  5
40
330
2
100
AcDbSymbolTableRecord
100
AcDbLinetypeTableRecord
  2
DIVIDE2
 70
0
  3
Divide(.5x) _ . _ . _ . _ . _ . _ . _ . _
 72
65
 73
6
 40
2.032
 49
1.27
 74
0
 49
-0.254
 74
0
 49
0.0
 74
0
 49
-0.254
 74
0
 49
0.0
 74
0
 49
-0.254
 74
0
  0
ENDTAB
  0
TABLE
  2
LAYER
  5
1
330
0
100
AcDbSymbolTable
 70
6
  0
LAYER
  5
27
330
1
100
AcDbSymbolTableRecord
100
AcDbLayerTableRecord
  2
0
 70
0
 62
7
  6
Continuous
370
-3
390
13
347
21
  0
LAYER
  5
28
330
1
100
AcDbSymbolTableRecord
100
AcDbLayerTableRecord
  2
Defpoints
 70
0
 62
7
  6
Continuous
290
0
370
-3
390
13
347
21
  0
LAYER
  5
8A
330
1
100
AcDbSymbolTableRecord
100
AcDbLayerTableRecord
  2
CORTE
 70
0
 62
1
  6
CONTINUOUS
370
50
390
13
347
21
  0
LAYER
  5
8B
330
1
100
AcDbSymbolTableRecord
100
AcDbLayerTableRecord
  2
PLIEGUE
 70
0
 62
5
  6
DASHDOT
370
25
390
13
347
21
  0
LAYER
  5
8C
330
1
100
AcDbSymbolTableRecord
100
AcDbLayerTableRecord
  2
TANGENTE
 70
0
 62
8
  6
DASHED
370
13
390
13
347
21
  0
LAYER
  5
8D
330
1
100
AcDbSymbolTableRecord
100
AcDbLayerTableRecord
  2
TEXTO
 70
0
 62
7
  6
CONTINUOUS
370
25
390
13
347
21
  0
ENDTAB
  0
TABLE
  2
STYLE
  5
5
330
0
100
AcDbSymbolTable
 70
26
  0
STYLE
  5
29
330
5
100
AcDbSymbolTableRecord
100
AcDbTextStyleTableRecord
  2
Standard
 70
0
 40
0.0
 41
1.0
 50
0.0
 71
0
 42
2.5
  3
txt
  4

  0
STYLE
  5
41
330
5
100
AcDbSymbolTableRecord
100
AcDbTextStyleTableRecord
  2
OpenSans-Light
 70
0
 40
0.0
 41
1.0
 50
0.0
 71
0
 42
2.5
  3
OpenSans-Light.ttf
  4

  0
STYLE
  5
42
330
5
100
AcDbSymbolTableRecord
100
AcDbTextStyleTableRecord
  2
OpenSans-Light-Italic
 70
0
 40
0.0
 41
1.0
 50
0.0
 71
0
 42
2.5
  3
OpenSans-LightItalic.ttf
  4

  0
STYLE
  5
43
330
5
100
AcDbSymbolTableRecord
100
AcDbTextStyleTableRecord
  2
OpenSans
 70
0
 40
0.0
 41
1.0
 50
0.0
 71
0
 42
2.5
  3
OpenSans-Regular.ttf
  4

  0
STYLE
  5
44
330
5
100
AcDbSymbolTableRecord
100
AcDbTextStyleTableRecord
  2
OpenSans-Italic
 70
0
 40
0.0
 41
1.0
 50
0.0
 71
0
 42
2.5
  3
OpenSans-Italic.ttf
  4

  0
STYLE
  5
45
330
5
100
AcDbSymbolTableRecord
100
AcDbTextStyleTableRecord
  2
OpenSans-SemiBold
 70
0
 40
0.0
 41
1.0
 50
0.0
 71
0
 42
2.5
  3
OpenSans-SemiBold.ttf
  4

  0
STYLE
  5
46
330
5
100
AcDbSymbolTableRecord
100
AcDbTextStyleTableRecord
  2
OpenSans-SemiBoldItalic
 70
0
 40
0.0
 41
1.0
 50
0.0
 71
0
 42
2.5
  3
OpenSans-SemiBoldItalic.ttf
  4

  0
STYLE
  5
47
330
5
100
AcDbSymbolTableRecord
100
AcDbTextStyleTableRecord
  2
OpenSans-Bold
 70
0
 40
0.0
 41
1.0
 50
0.0
 71
0
 42
2.5
  3
OpenSans-Bold.ttf
  4

  0
STYLE
  5
48
330
5
100
AcDbSymbolTableRecord
100
AcDbTextStyleTableRecord
  2
OpenSans-BoldItalic
 70
0
 40
0.0
 41
1.0
 50
0.0
 71
0
 42
2.5
  3
OpenSans-BoldItalic.ttf
  4

  0
STYLE
  5
49
330
5
100
AcDbSymbolTableRecord
100
AcDbTextStyleTableRecord
  2
OpenSans-ExtraBold
 70
0
 40
0.0
 41
1.0
 50
0.0
 71
0
 42
2.5
  3
OpenSans-ExtraBold.ttf
  4

  0
STYLE
  5
4A
330
5
100
AcDbSymbolTableRecord
100
AcDbTextStyleTableRecord
  2
OpenSans-ExtraBoldItalic
 70
0
 40
0.0
 41
1.0
 50
0.0
 71
0
 42
2.5
  3
OpenSans-ExtraBoldItalic.ttf
  4

  0
STYLE
  5
4B
330
5
100
AcDbSymbolTableRecord
100
AcDbTextStyleTableRecord
  2
OpenSansCondensed-Bold
 70
0
 40
0.0
 41
1.0
 50
0.0
 71
0
 42
2.5
  3
OpenSansCondensed-Bold.ttf
  4

  0
STYLE
  5
4C
330
5
100
AcDbSymbolTableRecord
100
AcDbTextStyleTableRecord
  2
OpenSansCondensed-Light
 70
0
 40
0.0
 41
1.0
 50
0.0
 71
0
 42
2.5
  3
OpenSansCondensed-Light.ttf
  4

  0
STYLE
  5
4D
330
5
100
AcDbSymbolTableRecord
100
AcDbTextStyleTableRecord
  2
OpenSansCondensed-Italic
 70
0
 40
0.0
 41
1.0
 50
0.0
 71
0
 42
2.5
  3
OpenSansCondensed-LightItalic.ttf
  4

  0
STYLE
  5
4E
330
5
100
AcDbSymbolTableRecord
100
AcDbTextStyleTableRecord
  2
LiberationSans
 70
0
 40
0.0
 41
1.0
 50
0.0
 71
0
 42
2.5
  3
LiberationSans-Regular.ttf
  4

  0
STYLE
  5
4F
330
5
100
AcDbSymbolTableRecord
100
AcDbTextStyleTableRecord
  2
LiberationSans-Bold
 70
0
 40
0.0
 41
1.0
 50
0.0
 71
0
 42
2.5
  3
LiberationSans-Bold.ttf
  4

  0
STYLE
  5
50
330
5
100
AcDbSymbolTableRecord
100
AcDbTextStyleTableRecord
  2
LiberationSans-BoldItalic
 70
0
 40
0.0
 41
1.0
 50
0.0
 71
0
 42
2.5
  3
LiberationSans-BoldItalic.ttf
  4

  0
STYLE
  5
51
330
5
100
AcDbSymbolTableRecord
100
AcDbTextStyleTableRecord
  2
LiberationSans-Italic
 70
0
 40
0.0
 41
1.0
 50
0.0
 71
0
 42
2.5
  3
LiberationSans-Italic.ttf
  4

  0
STYLE
  5
52
330
5
100
AcDbSymbolTableRecord
100
AcDbTextStyleTableRecord
  2
LiberationSerif
 70
0
 40
0.0
 41
1.0
 50
0.0
 71
0
 42
2.5
  3
LiberationSerif-Regular.ttf
  4

  0
STYLE
  5
53
330
5
100
AcDbSymbolTableRecord
100
AcDbTextStyleTableRecord
  2
LiberationSerif-Bold
 70
0
 40
0.0
 41
1.0
 50
0.0
 71
0
 42
2.5
  3
LiberationSerif-Bold.ttf
  4

  0
STYLE
  5
54
330
5
100
AcDbSymbolTableRecord
100
AcDbTextStyleTableRecord
  2
LiberationSerif-BoldItalic
 70
0
 40
0.0
 41
1.0
 50
0.0
 71
0
 42
2.5
  3
LiberationSerif-BoldItalic.ttf
  4

  0
STYLE
  5
55
330
5
100
AcDbSymbolTableRecord
100
AcDbTextStyleTableRecord
  2
LiberationSerif-Italic
 70
0
 40
0.0
 41
1.0
 50
0.0
 71
0
 42
2.5
  3
LiberationSerif-Italic.ttf
  4

  0
STYLE
  5
56
330
5
100
AcDbSymbolTableRecord
100
AcDbTextStyleTableRecord
  2
LiberationMono
 70
0
 40
0.0
 41
1.0
 50
0.0
 71
0
 42
2.5
  3
LiberationMono-Regular.ttf
  4

  0
STYLE
  5
57
330
5
100
AcDbSymbolTableRecord
100
AcDbTextStyleTableRecord
  2
LiberationMono-Bold
 70
0
 40
0.0
 41
1.0
 50
0.0
 71
0
 42
2.5
  3
LiberationMono-Bold.ttf
  4

  0
STYLE
  5
58
330
5
100
AcDbSymbolTableRecord
100
AcDbTextStyleTableRecord
  2
LiberationMono-BoldItalic
 70
0
 40
0.0
 41
1.0
 50
0.0
 71
0
 42
2.5
  3
LiberationMono-BoldItalic.ttf
  4

  0
STYLE
  5
59
330
5
100
AcDbSymbolTableRecord
100
AcDbTextStyleTableRecord
  2
LiberationMono-Italic
 70
0
 40
0.0
 41
1.0
 50
0.0
 71
0
 42
2.5
  3
LiberationMono-Italic.ttf
  4

  0
ENDTAB
  0
TABLE
  2
VIEW
  5
7
330
0
100
AcDbSymbolTable
 70
0
  0
ENDTAB
  0
TABLE
  2
UCS
  5
6
330
0
100
AcDbSymbolTable
 70
0
  0
ENDTAB
  0
TABLE
  2
APPID
  5
3
330
0
100
AcDbSymbolTable
 70
3
  0
APPID
  5
2A
330
3
100
AcDbSymbolTableRecord
100
AcDbRegAppTableRecord
  2
ACAD
 70
0
  0
APPID
  5
AB
330
3
100
AcDbSymbolTableRecord
100
AcDbRegAppTableRecord
  2
HATCHBACKGROUNDCOLOR
 70
0
  0
APPID
  5
AC
330
3
100
AcDbSymbolTableRecord
100
AcDbRegAppTableRecord
  2
EZDXF
 70
0
  0
ENDTAB
  0
TABLE
  2
DIMSTYLE
  5
4
330
0
100
AcDbSymbolTable
 70
12
100
AcDbDimStyleTable
  0
DIMSTYLE
105
2B
330
4
100
AcDbSymbolTableRecord
100
AcDbDimStyleTableRecord
  2
Standard
 70
0
 40
1.0
 41
2.5
 42
0.625
 43
3.75
 44
1.25
 45
0.0
 46
0.0
 47
0.0
 48
0.0
 49
2.5
140
2.5
141
2.5
142
0.0
143
0.03937007874
144
1.0
145
0.0
146
1.0
147
0.625
148
0.0
 69
0
 70
0
 71
0
 72
0
 73
0
 74
0
 75
0
 76
0
 77
1
 78
8
 79
3
170
0
171
3
172
1
173
0
174
0
175
0
176
0
177
0
178
0
179
2
271
2
272
2
273
2
274
3
275
0
276
0
277
2
278
44
279
0
280
0
281
0
282
0
283
0
284
8
285
0
286
0
288
0
289
3
290
0
371
-2
372
-2
  0
DIMSTYLE
105
73
330
4
100
AcDbSymbolTableRecord
100
AcDbDimStyleTableRecord
  2
EZDXF
 70
0
 40
1.0
 41
0.175
 42
0.125
 43
3.75
 44
0.375
 45
0.0
 46
0.0
 47
0.0
 48
0.0
 49
2.5
140
0.25
141
2.5
142
0.0
143
0.03937007874
144
100.0
145
0.0
146
0.5
147
0.1
148
0.0
 69
0
 70
0
 71
0
 72
0
 73
0
 74
0
 75
0
 76
0
 77
1
 78
12
 79
3
170
0
171
3
172
1
173
0
174
0
175
0
176
0
177
0
178
0
179
2
271
2
272
2
273
2
274
3
275
0
276
0
277
2
278
46
279
2
280
0
281
0
282
0
283
0
284
8
285
0
286
0
288
1
289
3
290
0
340
4C
342
74
371
-2
372
-2
  0
DIMSTYLE
105
7C
330
4
100
AcDbSymbolTableRecord
100
AcDbDimStyleTableRecord
  2
EZ_M_100_H25_CM
 70
0
 40
1.0
 41
0.25
 42
0.125
 43
3.75
 44
0.375
 45
0.0
 46
0.0
 47
0.0
 48
0.0
 49
2.5
140
0.25
141
2.5
142
0.125
143
0.03937007874
144
100.0
145
0.0
146
0.5
147
0.1
148
0.0
 69
0
 70
0
 71
0
 72
0
 73
0
 74
0
 75
0
 76
0
 77
1
 78
12
 79
3
170
0
171
3
172
1
173
0
174
0
175
0
176
0
177
0
178
0
179
2
271
2
272
2
273
2
274
3
275
0
276
0
277
2
278
46
279
2
280
0
281
0
282
0
283
0
284
8
285
0
286
0
288
1
289
3
290
0
340
4C
371
-2
372
-2
  0
DIMSTYLE
105
7D
330
4
100
AcDbSymbolTableRecord
100
AcDbDimStyleTableRecord
  2
EZ_M_50_H25_CM
 70
0
 40
1.0
 41
0.125
 42
0.0625
 43
3.75
 44
0.1875
 45
0.0
 46
0.0
 47
0.0
 48
0.0
 49
2.5
140
0.125
141
2.5
142
0.0625
143
0.03937007874
144
100.0
145
0.0
146
0.5
147
0.05
148
0.0
 69
0
 70
0
 71
0
 72
0
 73
0
 74
0
 75
0
 76
0
 77
1
 78
12
 79
3
170
0
171
3
172
1
173
0
174
0
175
0
176
0
177
0
178
0
179
2
271
2
272
2
273
2
274
3
275
0
276
0
277
2
278
46
279
2
280
0
281
0
282
0
283
0
284
8
285
0
286
0
288
1
289
3
290
0
340
4C
371
-2
372
-2
  0
DIMSTYLE
105
7E
330
4
100
AcDbSymbolTableRecord
100
AcDbDimStyleTableRecord
  2
EZ_M_25_H25_CM
 70
0
 40
1.0
 41
0.0625
 42
0.03125
 43
3.75
 44
0.09375
 45
0.0
 46
0.0
 47
0.0
 48
0.0
 49
2.5
140
0.0625
141
2.5
142
0.03125
143
0.03937007874
144
100.0
145
0.0
146
0.5
147
0.025
148
0.0
 69
0
 70
0
 71
0
 72
0
 73
0
 74
0
 75
0
 76
0
 77
1
 78
12
 79
3
170
0
171
3
172
1
173
0
174
0
175
0
176
0
177
0
178
0
179
2
271
2
272
2
273
2
274
3
275
0
276
0
277
2
278
46
279
2
280
0
281
0
282
0
283
0
284
8
285
0
286
0
288
1
289
3
290
0
340
4C
371
-2
372
-2
  0
DIMSTYLE
105
7F
330
4
100
AcDbSymbolTableRecord
100
AcDbDimStyleTableRecord
  2
EZ_M_20_H25_CM
 70
0
 40
1.0
 41
0.05
 42
0.025
 43
3.75
 44
0.07500000000000001
 45
0.0
 46
0.0
 47
0.0
 48
0.0
 49
2.5
140
0.05
141
2.5
142
0.025
143
0.03937007874
144
100.0
145
0.0
146
0.5
147
0.020000000000000004
148
0.0
 69
0
 70
0
 71
0
 72
0
 73
0
 74
0
 75
0
 76
0
 77
1
 78
12
 79
3
170
0
171
3
172
1
173
0
174
0
175
0
176
0
177
0
178
0
179
2
271
2
272
2
273
2
274
3
275
0
276
0
277
2
278
46
279
2
280
0
281
0
282
0
283
0
284
8
285
0
286
0
288
1
289
3
290
0
340
4C
371
-2
372
-2
  0
DIMSTYLE
105
80
330
4
100
AcDbSymbolTableRecord
100
AcDbDimStyleTableRecord
  2
EZ_M_10_H25_CM
 70
0
 40
1.0
 41
0.025
 42
0.0125
 43
3.75
 44
0.037500000000000006
 45
0.0
 46
0.0
 47
0.0
 48
0.0
 49
2.5
140
0.025
141
2.5
142
0.0125
143
0.03937007874
144
100.0
145
0.0
146
0.5
147
0.010000000000000002
148
0.0
 69
0
 70
0
 71
0
 72
0
 73
0
 74
0
 75
0
 76
0
 77
1
 78
12
 79
3
170
0
171
3
172
1
173
0
174
0
175
0
176
0
177
0
178
0
179
2
271
2
272
2
273
2
274
3
275
0
276
0
277
2
278
46
279
2
280
0
281
0
282
0
283
0
284
8
285
0
286
0
288
1
289
3
290
0
340
4C
371
-2
372
-2
  0
DIMSTYLE
105
81
330
4
100
AcDbSymbolTableRecord
100
AcDbDimStyleTableRecord
  2
EZ_M_5_H25_CM
 70
0
 40
1.0
 41
0.0125
 42
0.00625
 43
3.75
 44
0.018750000000000003
 45
0.0
 46
0.0
 47
0.0
 48
0.0
 49
2.5
140
0.0125
141
2.5
142
0.00625
143
0.03937007874
144
100.0
145
0.0
146
0.5
147
0.005000000000000001
148
0.0
 69
0
 70
0
 71
0
 72
0
 73
0
 74
0
 75
0
 76
0
 77
1
 78
12
 79
3
170
0
171
3
172
1
173
0
174
0
175
0
176
0
177
0
178
0
179
2
271
2
272
2
273
2
274
3
275
0
276
0
277
2
278
46
279
2
280
0
281
0
282
0
283
0
284
8
285
0
286
0
288
1
289
3
290
0
340
4C
371
-2
372
-2
  0
DIMSTYLE
105
82
330
4
100
AcDbSymbolTableRecord
100
AcDbDimStyleTableRecord
  2
EZ_M_1_H25_CM
 70
0
 40
1.0
 41
0.0025
 42
0.00125
 43
3.75
 44
0.00375
 45
0.0
 46
0.0
 47
0.0
 48
0.0
 49
2.5
140
0.0025
141
2.5
142
0.00125
143
0.03937007874
144
100.0
145
0.0
146
0.5
147
0.001
148
0.0
 69
0
 70
0
 71
0
 72
0
 73
0
 74
0
 75
0
 76
0
 77
1
 78
12
 79
3
170
0
171
3
172
1
173
0
174
0
175
0
176
0
177
0
178
0
179
2
271
2
272
2
273
2
274
3
275
0
276
0
277
2
278
46
279
2
280
0
281
0
282
0
283
0
284
8
285
0
286
0
288
1
289
3
290
0
340
4C
371
-2
372
-2
  0
DIMSTYLE
105
83
330
4
100
AcDbSymbolTableRecord
100
AcDbDimStyleTableRecord
  2
EZ_RADIUS
 70
0
 40
1.0
 41
0.25
 42
0.125
 43
3.75
 44
0.375
 45
0.0
 46
0.0
 47
0.0
 48
0.0
 49
2.5
140
0.25
141
0.0
142
0.0
143
0.03937007874
144
100.0
145
0.0
146
0.5
147
0.1
148
0.0
 69
0
 70
0
 71
0
 72
0
 73
0
 74
0
 75
0
 76
0
 77
1
 78
12
 79
3
170
0
171
3
172
0
173
0
174
0
175
0
176
0
177
0
178
0
179
2
271
2
272
2
273
2
274
3
275
0
276
0
277
2
278
46
279
1
280
0
281
0
282
0
283
0
284
8
285
0
286
0
288
1
289
3
290
0
340
4C
342
84
371
-2
372
-2
  0
DIMSTYLE
105
88
330
4
100
AcDbSymbolTableRecord
100
AcDbDimStyleTableRecord
  2
EZ_RADIUS_INSIDE
 70
0
 40
1.0
 41
0.25
 42
0.125
 43
3.75
 44
0.375
 45
0.0
 46
0.0
 47
0.0
 48
0.0
 49
2.5
140
0.25
141
0.0
142
0.0
143
0.03937007874
144
100.0
145
0.0
146
0.5
147
0.1
148
0.0
 69
0
 70
0
 71
0
 72
0
 73
0
 74
0
 75
0
 76
0
 77
0
 78
12
 79
3
170
0
171
3
172
0
173
0
174
1
175
0
176
0
177
0
178
0
179
2
271
2
272
2
273
2
274
3
275
0
276
0
277
2
278
46
279
0
280
0
281
0
282
0
283
0
284
8
285
0
286
0
288
1
289
0
290
0
340
4C
342
84
371
-2
372
-2
  0
DIMSTYLE
105
89
330
4
100
AcDbSymbolTableRecord
100
AcDbDimStyleTableRecord
  2
EZ_CURVED
 70
0
 40
1.0
 41
0.25
 42
0.125
 43
3.75
 44
0.375
 45
0.0
 46
0.0
 47
0.0
 48
0.0
 49
2.5
140
0.25
141
2.5
142
0.0
143
0.03937007874
144
100.0
145
0.0
146
0.5
147
0.1
148
0.0
 69
0
 70
0
 71
0
 72
0
 73
0
 74
0
 75
0
 76
0
 77
1
 78
12
 79
2
 90
2
170
0
171
3
172
1
173
0
174
0
175
0
176
0
177
0
178
0
179
2
271
2
272
2
273
2
274
3
275
0
276
0
277
2
278
46
279
2
280
0
281
0
282
0
283
0
284
8
285
0
286
0
288
1
289
3
290
0
340
4C
371
-2
372
-2
  0
ENDTAB
  0
TABLE
  2
BLOCK_RECORD
  5
9
330
0
100
AcDbSymbolTable
 70
5
  0
BLOCK_RECORD
  5
17
330
9
100
AcDbSymbolTableRecord
100
AcDbBlockTableRecord
  2
*Model_Space
340
1A
 70
0
280
1
281
0
  0
BLOCK_RECORD
  5
1B
330
9
100
AcDbSymbolTableRecord
100
AcDbBlockTableRecord
  2
*Paper_Space
340
1E
 70
0
280
1
281
0
  0
BLOCK_RECORD
  5
74
330
9
100
AcDbSymbolTableRecord
100
AcDbBlockTableRecord
  2
_ARCHTICK
340
0
 70
0
280
1
281
0
  0
BLOCK_RECORD
  5
78
330
9
100
AcDbSymbolTableRecord
100
AcDbBlockTableRecord
  2
_CLOSEDFILLED
340
0
 70
0
280
1
281
0
  0
BLOCK_RECORD
  5
84
330
9
100
AcDbSymbolTableRecord
100
AcDbBlockTableRecord
  2
_CLOSEDBLANK
340
0
 70
0
280
1
281
0
  0
ENDTAB
  0
ENDSEC
  0
SECTION
  2
BLOCKS
  0
BLOCK
  5
18
330
17
100
AcDbEntity
  8
0
100
AcDbBlockBegin
  2
*Model_Space
 70
0
 10
0.0
 20
0.0
 30
0.0
  3
*Model_Space
  1

  0
ENDBLK
  5
19
330
17
100
AcDbEntity
  8
0
100
AcDbBlockEnd
  0
BLOCK
  5
1C
330
1B
100
AcDbEntity
  8
0
100
AcDbBlockBegin
  2
*Paper_Space
 70
0
 10
0.0
 20
0.0
 30
0.0
  3
*Paper_Space
  1

  0
ENDBLK
  5
1D
330
1B
100
AcDbEntity
  8
0
100
AcDbBlockEnd
  0
BLOCK
  5
75
330
74
100
AcDbEntity
  8
0
100
AcDbBlockBegin
  2
_ARCHTICK
 70
0
 10
0.0
 20
0.0
 30
0.0
  3
_ARCHTICK
  1

  0
LWPOLYLINE
  5
77
330
74
100
AcDbEntity
  8
0
  6
BYBLOCK
 62
0
100
AcDbPolyline
 90
2
 70
0
 43
0.15
 10
-0.5
 20
-0.5
 10
0.5
 20
0.5
  0
ENDBLK
  5
76
330
74
100
AcDbEntity
  8
0
100
AcDbBlockEnd
  0
BLOCK
  5
79
330
78
100
AcDbEntity
  8
0
100
AcDbBlockBegin
  2
_CLOSEDFILLED
 70
0
 10
0.0
 20
0.0
 30
0.0
  3
_CLOSEDFILLED
  1

  0
SOLID
  5
7B
330
78
100
AcDbEntity
  8
0
  6
BYBLOCK
 62
0
100
AcDbTrace
 10
-1.0
 20
0.16439898372402537
 30
0.0
 11
0.0
 21
0.0
 31
0.0
 12
-1.0
 22
-0.16439898372402537
 32
0.0
 13
-1.0
 23
-0.16439898372402537
 33
0.0
  0
ENDBLK
  5
7A
330
78
100
AcDbEntity
  8
0
100
AcDbBlockEnd
  0
BLOCK
  5
85
330
84
100
AcDbEntity
  8
0
100
AcDbBlockBegin
  2
_CLOSEDBLANK
 70
0
 10
0.0
 20
0.0
 30
0.0
  3
_CLOSEDBLANK
  1

  0
LWPOLYLINE
  5
87
330
84
100
AcDbEntity
  8
0
  6
BYBLOCK
 62
0
100
AcDbPolyline
 90
3
 70
1
 10
-1.0
 20
0.16439898372402537
 10
0.0
 20
0.0
 10
-1.0
 20
-0.16439898372402537
  0
ENDBLK
  5
86
330
84
100
AcDbEntity
  8
0
100
AcDbBlockEnd
  0
ENDSEC
  0
SECTION
  2
ENTITIES
  0
LWPOLYLINE
  5
8E
330
17
100
AcDbEntity
  8
CORTE
100
AcDbPolyline
 90
119
 70
1
 10
15.0
 20
-84.50309679293088
 10
15.0
 20
0.0
 10
0.0
 20
0.0
 10
0.0
 20
55.0
 10
59.84408798140781
 20
241.53334117240388
 10
58.64695338047638
 20
243.2430265665261
 10
93.25739562381634
 20
267.47751912608453
 10
127.6719818048791
 20
218.32839646874498
 10
95.31293931120385
 20
195.67035098542527
 10
98.64600642598174
 20
191.01011965992424
 10
102.07159876909927
 20
186.41747232994464
 10
105.58834634599165
 20
181.89424572947283
 10
109.19484270645015
 20
177.44224882911513
 10
112.88964550710253
 20
173.0632621126377
 10
116.67127708824853
 20
168.75903686489872
 10
120.53822506481916
 20
164.53129447145858
 10
124.48894293122359
 20
160.38172573014734
 10
128.52185067984215
 20
156.3119901748653
 10
132.63533543291746
 20
152.32371541188678
 10
136.8277520875915
 20
148.4184964689328
 10
141.09742397383025
 20
144.59789515727297
 10
145.44264352497322
 20
140.86343944711123
 10
149.8616729606391
 20
137.21662285650606
 10
154.35274498171515
 20
133.65890385406894
 10
158.91406347715176
 20
130.19170527567996
 10
163.54380424227966
 20
126.81641375545428
 10
168.24011570836294
 20
123.53437917118652
 10
173.00111968309523
 20
120.34691410449517
 10
177.82491210174408
 20
117.25529331588282
 10
182.70956378864196
 20
114.26075323492208
 10
187.65312122871995
 20
111.3644914657713
 10
192.6536073487757
 20
108.56766630821778
 10
197.7090223081628
 20
105.87139629443948
 10
202.8173442985854
 20
103.27675974167158
 10
207.97653035267868
 20
100.78479432095565
 10
213.1845171610512
 20
98.396496642145
 10
218.43922189746252
 20
96.11282185533076
 10
223.7385430518065
 20
93.93468326884988
 10
229.08036127056658
 20
91.86295198402621
 10
234.46254020440728
 20
89.89845654679146
 10
239.88292736256267
 20
88.04198261632581
 10
245.33935497368054
 20
86.29427265084945
 10
250.8296408527774
 20
84.65602561069221
 10
256.35158927395827
 20
83.12789667875842
 10
261.9029918485514
 20
81.71049699850062
 10
267.48162840830787
 20
80.40439342950486
 10
273.08526789331137
 20
79.21010832078753
 10
278.7116692442447
 20
78.12811930189235
 10
284.35858229865477
 20
77.15885909187233
 10
290.02374869085827
 20
76.30271532623311
 10
295.7049027551282
 20
75.56003040190575
 10
301.3997724318002
 20
74.93110134031247
 10
307.10608017593506
 20
74.4161796685791
 10
312.82154386817615
 20
74.01547131894182
 10
318.5438777274351
 20
73.72913654638893
 10
324.27079322504306
 20
73.5572898645703
 10
330.0
 20
73.5
 10
335.7292067749569
 20
73.5572898645703
 10
341.45612227256487
 20
73.72913654638893
 10
347.17845613182385
 20
74.01547131894182
 10
352.8939198240649
 20
74.4161796685791
 10
358.6002275681998
 20
74.93110134031247
 10
364.2950972448717
 20
75.56003040190575
 10
369.97625130914173
 20
76.30271532623311
 10
375.6414177013452
 20
77.15885909187233
 10
381.2883307557552
 20
78.12811930189235
 10
386.9147321066886
 20
79.21010832078753
 10
392.51837159169213
 20
80.40439342950486
 10
398.09700815144856
 20
81.71049699850062
 10
403.64841072604173
 20
83.12789667875842
 10
409.17035914722254
 20
84.65602561069215
 10
414.66064502631946
 20
86.29427265084945
 10
420.1170726374373
 20
88.04198261632581
 10
425.53745979559267
 20
89.89845654679146
 10
430.9196387294334
 20
91.86295198402621
 10
436.2614569481935
 20
93.93468326884988
 10
441.5607781025375
 20
96.11282185533076
 10
446.81548283894875
 20
98.39649664214494
 10
452.02346964732135
 20
100.78479432095565
 10
457.1826557014146
 20
103.27675974167153
 10
462.29097769183716
 20
105.87139629443948
 10
467.3463926512243
 20
108.56766630821775
 10
472.34687877128005
 20
111.3644914657713
 10
477.29043621135804
 20
114.26075323492205
 10
482.17508789825587
 20
117.25529331588277
 10
486.9988803169047
 20
120.34691410449514
 10
491.75988429163704
 20
123.53437917118652
 10
496.4561957577203
 20
126.81641375545428
 10
501.0859365228482
 20
130.19170527567994
 10
505.64725501828485
 20
133.65890385406894
 10
510.1383270393609
 20
137.21662285650606
 10
514.5573564750268
 20
140.8634394471112
 10
518.9025760261698
 20
144.59789515727294
 10
523.1722479124085
 20
148.4184964689328
 10
527.3646645670825
 20
152.32371541188675
 10
531.4781493201579
 20
156.31199017486526
 10
535.5110570687764
 20
160.3817257301473
 10
539.4617749351809
 20
164.53129447145858
 10
543.3287229117515
 20
168.75903686489872
 10
547.1103544928974
 20
173.0632621126377
 10
550.8051572935498
 20
177.4422488291151
 10
554.4116536540083
 20
181.89424572947283
 10
557.9284012309007
 20
186.41747232994464
 10
561.3539935740182
 20
191.01011965992424
 10
564.6870606887961
 20
195.67035098542524
 10
562.4356609391314
 20
197.24679806166395
 10
596.8502471201941
 20
246.39592071900347
 10
599.1016468698589
 20
244.81947364276476
 10
631.4606893635341
 20
222.16142815944508
 10
614.2544471455725
 20
197.5883676323412
 10
660.0
 20
55.0
 10
660.0
 20
0.0
 10
645.0
 20
0.0
 10
645.0
 20
-84.50309679293088
 10
595.0
 20
-84.50309679293088
 10
595.0
 20
0.0
 10
65.0
 20
0.0
 10
65.0
 20
-84.50309679293088
 10
15.0
 20
-84.50309679293088
  0
LWPOLYLINE
  5
8F
330
17
100
AcDbEntity
  8
CORTE
100
AcDbPolyline
 90
65
 70
1
 10
44.25
 20
-22.503096792930876
 10
44.22953508835684
 20
-22.086523946530242
 10
44.16833744171373
 20
-21.67396292436233
 10
44.06699642686189
 20
-21.26938691459941
 10
43.92648801317297
 20
-20.876692205379243
 10
43.74816537348051
 20
-20.499660661420386
 10
43.53374585228582
 20
-20.14192330259757
 10
43.28529442679164
 20
-19.806925335235384
 10
43.00520382004282
 20
-19.497892972888046
 10
42.69617145769549
 20
-19.21780236613924
 10
42.361173490333314
 20
-18.969350940645057
 10
42.00343613151049
 20
-18.754931419450365
 10
41.62640458755163
 20
-18.576608779757905
 10
41.23370987833147
 20
-18.436100366068985
 10
40.82913386856855
 20
-18.334759351217144
 10
40.41657284640063
 20
-18.273561704574036
 10
40.0
 20
-18.253096792930876
 10
39.58342715359937
 20
-18.273561704574036
 10
39.17086613143145
 20
-18.334759351217144
 10
38.76629012166853
 20
-18.436100366068985
 10
38.37359541244837
 20
-18.576608779757905
 10
37.99656386848951
 20
-18.754931419450365
 10
37.63882650966669
 20
-18.969350940645057
 10
37.30382854230451
 20
-19.21780236613924
 10
36.99479617995718
 20
-19.497892972888046
 10
36.71470557320836
 20
-19.806925335235384
 10
36.46625414771418
 20
-20.14192330259757
 10
36.251834626519496
 20
-20.499660661420386
 10
36.07351198682703
 20
-20.876692205379243
 10
35.93300357313811
 20
-21.26938691459941
 10
35.83166255828627
 20
-21.67396292436233
 10
35.77046491164316
 20
-22.086523946530242
 10
35.75
 20
-22.503096792930876
 10
35.77046491164316
 20
-22.91966963933151
 10
35.83166255828627
 20
-23.332230661499416
 10
35.93300357313811
 20
-23.736806671262336
 10
36.07351198682703
 20
-24.129501380482502
 10
36.25183462651949
 20
-24.506532924441366
 10
36.46625414771418
 20
-24.864270283264183
 10
36.71470557320836
 20
-25.199268250626368
 10
36.99479617995718
 20
-25.5083006129737
 10
37.3038285423045
 20
-25.788391219722506
 10
37.63882650966669
 20
-26.036842645216694
 10
37.99656386848951
 20
-26.25126216641138
 10
38.37359541244837
 20
-26.42958480610384
 10
38.76629012166853
 20
-26.570093219792767
 10
39.17086613143145
 20
-26.671434234644607
 10
39.58342715359937
 20
-26.732631881287716
 10
40.0
 20
-26.753096792930876
 10
40.416572846400626
 20
-26.732631881287716
 10
40.82913386856855
 20
-26.671434234644607
 10
41.23370987833147
 20
-26.570093219792767
 10
41.62640458755163
 20
-26.42958480610384
 10
42.00343613151049
 20
-26.251262166411387
 10
42.36117349033331
 20
-26.036842645216694
 10
42.69617145769549
 20
-25.788391219722506
 10
43.00520382004282
 20
-25.5083006129737
 10
43.28529442679163
 20
-25.199268250626368
 10
43.53374585228582
 20
-24.864270283264183
 10
43.748165373480504
 20
-24.506532924441366
 10
43.92648801317297
 20
-24.12950138048251
 10
44.06699642686189
 20
-23.736806671262343
 10
44.16833744171373
 20
-23.332230661499423
 10
44.22953508835684
 20
-22.91966963933151
 10
44.25
 20
-22.503096792930876
  0
LWPOLYLINE
  5
90
330
17
100
AcDbEntity
  8
CORTE
100
AcDbPolyline
 90
65
 70
1
 10
44.22953508835684
 20
-62.08652394653025
 10
44.16833744171373
 20
-61.67396292436233
 10
44.06699642686189
 20
-61.26938691459941
 10
43.92648801317297
 20
-60.87669220537924
 10
43.74816537348051
 20
-60.49966066142039
 10
43.53374585228582
 20
-60.14192330259756
 10
43.28529442679164
 20
-59.80692533523538
 10
43.00520382004282
 20
-59.49789297288805
 10
42.69617145769549
 20
-59.21780236613924
 10
42.361173490333314
 20
-58.96935094064506
 10
42.00343613151049
 20
-58.75493141945037
 10
41.62640458755163
 20
-58.576608779757905
 10
41.23370987833147
 20
-58.436100366068985
 10
40.82913386856855
 20
-58.334759351217144
 10
40.41657284640063
 20
-58.273561704574036
 10
40.0
 20
-58.253096792930876
 10
39.58342715359937
 20
-58.273561704574036
 10
39.17086613143145
 20
-58.334759351217144
 10
38.76629012166853
 20
-58.436100366068985
 10
38.37359541244837
 20
-58.576608779757905
 10
37.99656386848951
 20
-58.75493141945037
 10
37.63882650966669
 20
-58.96935094064506
 10
37.30382854230451
 20
-59.21780236613924
 10
36.99479617995718
 20
-59.49789297288805
 10
36.71470557320836
 20
-59.80692533523538
 10
36.46625414771418
 20
-60.14192330259756
 10
36.251834626519496
 20
-60.49966066142038
 10
36.07351198682703
 20
-60.87669220537924
 10
35.93300357313811
 20
-61.26938691459941
 10
35.83166255828627
 20
-61.67396292436233
 10
35.77046491164316
 20
-62.086523946530235
 10
35.75
 20
-62.503096792930876
 10
35.77046491164316
 20
-62.9196696393315
 10
35.83166255828627
 20
-63.33223066149942
 10
35.93300357313811
 20
-63.73680667126234
 10
36.07351198682703
 20
-64.12950138048251
 10
36.25183462651949
 20
-64.50653292444136
 10
36.46625414771418
 20
-64.86427028326419
 10
36.71470557320836
 20
-65.19926825062637
 10
36.99479617995718
 20
-65.5083006129737
 10
37.3038285423045
 20
-65.78839121972251
 10
37.63882650966669
 20
-66.0368426452167
 10
37.99656386848951
 20
-66.25126216641138
 10
38.37359541244837
 20
-66.42958480610385
 10
38.76629012166853
 20
-66.57009321979277
 10
39.17086613143145
 20
-66.67143423464461
 10
39.58342715359937
 20
-66.73263188128772
 10
40.0
 20
-66.75309679293088
 10
40.416572846400626
 20
-66.73263188128772
 10
40.82913386856855
 20
-66.67143423464461
 10
41.23370987833147
 20
-66.57009321979277
 10
41.62640458755163
 20
-66.42958480610385
 10
42.00343613151049
 20
-66.25126216641138
 10
42.36117349033331
 20
-66.0368426452167
 10
42.69617145769549
 20
-65.78839121972251
 10
43.00520382004282
 20
-65.5083006129737
 10
43.28529442679163
 20
-65.19926825062637
 10
43.53374585228582
 20
-64.86427028326419
 10
43.748165373480504
 20
-64.50653292444137
 10
43.92648801317297
 20
-64.12950138048251
 10
44.06699642686189
 20
-63.73680667126234
 10
44.16833744171373
 20
-63.33223066149942
 10
44.22953508835684
 20
-62.9196696393315
 10
44.25
 20
-62.503096792930876
 10
44.22953508835684
 20
-62.08652394653025
  0
LWPOLYLINE
  5
91
330
17
100
AcDbEntity
  8
CORTE
100
AcDbPolyline
 90
65
 70
1
 10
624.25
 20
-22.503096792930876
 10
624.2295350883568
 20
-22.086523946530242
 10
624.1683374417137
 20
-21.67396292436233
 10
624.0669964268619
 20
-21.26938691459941
 10
623.926488013173
 20
-20.876692205379243
 10
623.7481653734806
 20
-20.499660661420386
 10
623.5337458522858
 20
-20.14192330259757
 10
623.2852944267917
 20
-19.806925335235384
 10
623.0052038200429
 20
-19.497892972888046
 10
622.6961714576955
 20
-19.21780236613924
 10
622.3611734903333
 20
-18.969350940645057
 10
622.0034361315105
 20
-18.754931419450365
 10
621.6264045875516
 20
-18.576608779757905
 10
621.2337098783314
 20
-18.436100366068985
 10
620.8291338685685
 20
-18.334759351217144
 10
620.4165728464006
 20
-18.273561704574036
 10
620.0
 20
-18.253096792930876
 10
619.5834271535994
 20
-18.273561704574036
 10
619.1708661314315
 20
-18.334759351217144
 10
618.7662901216686
 20
-18.436100366068985
 10
618.3735954124484
 20
-18.576608779757905
 10
617.9965638684895
 20
-18.754931419450365
 10
617.6388265096667
 20
-18.969350940645057
 10
617.3038285423045
 20
-19.21780236613924
 10
616.9947961799571
 20
-19.497892972888046
 10
616.7147055732083
 20
-19.806925335235384
 10
616.4662541477142
 20
-20.14192330259757
 10
616.2518346265194
 20
-20.499660661420386
 10
616.073511986827
 20
-20.876692205379243
 10
615.9330035731381
 20
-21.26938691459941
 10
615.8316625582863
 20
-21.67396292436233
 10
615.7704649116432
 20
-22.086523946530242
 10
615.75
 20
-22.503096792930876
 10
615.7704649116432
 20
-22.91966963933151
 10
615.8316625582863
 20
-23.332230661499416
 10
615.9330035731381
 20
-23.736806671262336
 10
616.073511986827
 20
-24.129501380482502
 10
616.2518346265194
 20
-24.506532924441366
 10
616.4662541477142
 20
-24.864270283264183
 10
616.7147055732083
 20
-25.199268250626368
 10
616.9947961799571
 20
-25.5083006129737
 10
617.3038285423045
 20
-25.788391219722506
 10
617.6388265096667
 20
-26.036842645216694
 10
617.9965638684895
 20
-26.25126216641138
 10
618.3735954124484
 20
-26.42958480610384
 10
618.7662901216686
 20
-26.570093219792767
 10
619.1708661314315
 20
-26.671434234644607
 10
619.5834271535994
 20
-26.732631881287716
 10
620.0
 20
-26.753096792930876
 10
620.4165728464006
 20
-26.732631881287716
 10
620.8291338685685
 20
-26.671434234644607
 10
621.2337098783314
 20
-26.570093219792767
 10
621.6264045875516
 20
-26.42958480610384
 10
622.0034361315105
 20
-26.251262166411387
 10
622.3611734903333
 20
-26.036842645216694
 10
622.6961714576955
 20
-25.788391219722506
 10
623.0052038200429
 20
-25.5083006129737
 10
623.2852944267917
 20
-25.199268250626368
 10
623.5337458522858
 20
-24.864270283264183
 10
623.7481653734806
 20
-24.506532924441366
 10
623.926488013173
 20
-24.12950138048251
 10
624.0669964268619
 20
-23.736806671262343
 10
624.1683374417137
 20
-23.332230661499423
 10
624.2295350883568
 20
-22.91966963933151
 10
624.25
 20
-22.503096792930876
  0
LWPOLYLINE
  5
92
330
17
100
AcDbEntity
  8
CORTE
100
AcDbPolyline
 90
65
 70
1
 10
624.2295350883568
 20
-62.08652394653025
 10
624.1683374417137
 20
-61.67396292436233
 10
624.0669964268619
 20
-61.26938691459941
 10
623.926488013173
 20
-60.87669220537924
 10
623.7481653734806
 20
-60.49966066142039
 10
623.5337458522858
 20
-60.14192330259756
 10
623.2852944267917
 20
-59.80692533523538
 10
623.0052038200429
 20
-59.49789297288805
 10
622.6961714576955
 20
-59.21780236613924
 10
622.3611734903333
 20
-58.96935094064506
 10
622.0034361315105
 20
-58.75493141945037
 10
621.6264045875516
 20
-58.576608779757905
 10
621.2337098783314
 20
-58.436100366068985
 10
620.8291338685685
 20
-58.334759351217144
 10
620.4165728464006
 20
-58.273561704574036
 10
620.0
 20
-58.253096792930876
 10
619.5834271535994
 20
-58.273561704574036
 10
619.1708661314315
 20
-58.334759351217144
 10
618.7662901216686
 20
-58.436100366068985
 10
618.3735954124484
 20
-58.576608779757905
 10
617.9965638684895
 20
-58.75493141945037
 10
617.6388265096667
 20
-58.96935094064506
 10
617.3038285423045
 20
-59.21780236613924
 10
616.9947961799571
 20
-59.49789297288805
 10
616.7147055732083
 20
-59.80692533523538
 10
616.4662541477142
 20
-60.14192330259756
 10
616.2518346265194
 20
-60.49966066142038
 10
616.073511986827
 20
-60.87669220537924
 10
615.9330035731381
 20
-61.26938691459941
 10
615.8316625582863
 20
-61.67396292436233
 10
615.7704649116432
 20
-62.086523946530235
 10
615.75
 20
-62.503096792930876
 10
615.7704649116432
 20
-62.9196696393315
 10
615.8316625582863
 20
-63.33223066149942
 10
615.9330035731381
 20
-63.73680667126234
 10
616.073511986827
 20
-64.12950138048251
 10
616.2518346265194
 20
-64.50653292444136
 10
616.4662541477142
 20
-64.86427028326419
 10
616.7147055732083
 20
-65.19926825062637
 10
616.9947961799571
 20
-65.5083006129737
 10
617.3038285423045
 20
-65.78839121972251
 10
617.6388265096667
 20
-66.0368426452167
 10
617.9965638684895
 20
-66.25126216641138
 10
618.3735954124484
 20
-66.42958480610385
 10
618.7662901216686
 20
-66.57009321979277
 10
619.1708661314315
 20
-66.67143423464461
 10
619.5834271535994
 20
-66.73263188128772
 10
620.0
 20
-66.75309679293088
 10
620.4165728464006
 20
-66.73263188128772
 10
620.8291338685685
 20
-66.67143423464461
 10
621.2337098783314
 20
-66.57009321979277
 10
621.6264045875516
 20
-66.42958480610385
 10
622.0034361315105
 20
-66.25126216641138
 10
622.3611734903333
 20
-66.0368426452167
 10
622.6961714576955
 20
-65.78839121972251
 10
623.0052038200429
 20
-65.5083006129737
 10
623.2852944267917
 20
-65.19926825062637
 10
623.5337458522858
 20
-64.86427028326419
 10
623.7481653734806
 20
-64.50653292444137
 10
623.926488013173
 20
-64.12950138048251
 10
624.0669964268619
 20
-63.73680667126234
 10
624.1683374417137
 20
-63.33223066149942
 10
624.2295350883568
 20
-62.9196696393315
 10
624.25
 20
-62.503096792930876
 10
624.2295350883568
 20
-62.08652394653025
  0
LWPOLYLINE
  5
93
330
17
100
AcDbEntity
  8
CORTE
100
AcDbPolyline
 90
65
 70
1
 10
352.41730314751936
 20
58.397405240745734
 10
350.5060966544099
 20
60.50609665440989
 10
348.39740524074574
 20
62.41730314751937
 10
346.11153675756844
 20
64.11261875677383
 10
343.6705053679539
 20
65.5757166661023
 10
341.0978195385876
 20
66.79250644282732
 10
338.4182556403794
 20
67.75126973623406
 10
335.6576193384677
 20
68.44277313169368
 10
332.8424970695572
 20
68.8603570734937
 10
330.0
 20
69.0
 10
327.1575029304428
 20
68.8603570734937
 10
324.3423806615323
 20
68.44277313169368
 10
321.5817443596206
 20
67.75126973623406
 10
318.9021804614124
 20
66.79250644282732
 10
316.3294946320461
 20
65.5757166661023
 10
313.88846324243156
 20
64.11261875677381
 10
311.60259475925426
 20
62.41730314751936
 10
309.4939033455901
 20
60.50609665440987
 10
307.58269685248064
 20
58.39740524074571
 10
305.8873812432262
 20
56.11153675756846
 10
304.42428333389773
 20
53.67050536795393
 10
303.2074935571727
 20
51.0978195385876
 10
302.24873026376594
 20
48.4182556403794
 10
301.5572268683063
 20
45.657619338467725
 10
301.13964292650627
 20
42.842497069557254
 10
301.0
 20
40.0
 10
301.13964292650627
 20
37.15750293044274
 10
301.5572268683063
 20
34.34238066153227
 10
302.24873026376594
 20
31.581744359620593
 10
303.2074935571727
 20
28.902180461412392
 10
304.42428333389773
 20
26.329494632046064
 10
305.8873812432262
 20
23.888463242431538
 10
307.58269685248064
 20
21.60259475925428
 10
309.4939033455901
 20
19.49390334559012
 10
311.60259475925426
 20
17.582696852480623
 10
313.88846324243156
 20
15.88738124322618
 10
316.3294946320461
 20
14.424283333897705
 10
318.9021804614124
 20
13.207493557172686
 10
321.5817443596206
 20
12.248730263765943
 10
324.3423806615323
 20
11.557226868306316
 10
327.1575029304427
 20
11.13964292650629
 10
330.0
 20
11.0
 10
332.8424970695573
 20
11.13964292650629
 10
335.6576193384677
 20
11.557226868306316
 10
338.4182556403794
 20
12.248730263765943
 10
341.0978195385876
 20
13.207493557172686
 10
343.6705053679539
 20
14.424283333897705
 10
346.11153675756844
 20
15.887381243226187
 10
348.39740524074574
 20
17.582696852480627
 10
350.5060966544099
 20
19.493903345590123
 10
352.41730314751936
 20
21.60259475925428
 10
354.1126187567738
 20
23.888463242431538
 10
355.57571666610227
 20
26.32949463204607
 10
356.7925064428273
 20
28.902180461412396
 10
357.75126973623406
 20
31.581744359620593
 10
358.4427731316937
 20
34.34238066153228
 10
358.86035707349373
 20
37.157502930442746
 10
359.0
 20
40.0
 10
358.86035707349373
 20
42.842497069557254
 10
358.4427731316937
 20
45.65761933846773
 10
357.75126973623406
 20
48.418255640379414
 10
356.7925064428273
 20
51.09781953858762
 10
355.57571666610227
 20
53.670505367953936
 10
354.1126187567738
 20
56.11153675756846
 10
352.41730314751936
 20
58.397405240745734
  0
LWPOLYLINE
  5
94
330
17
100
AcDbEntity
  8
CORTE
100
AcDbPolyline
 90
65
 70
1
 10
200.7755579813789
 20
72.22267722360766
 10
198.96332405424482
 20
74.66619180907303
 10
196.92031021678298
 20
76.92031021678298
 10
194.666191809073
 20
78.96332405424485
 10
192.22267722360766
 20
80.77555798137891
 10
189.6132988416059
 20
82.33955919479901
 10
186.8631864033178
 20
83.64026550784989
 10
183.9988249948883
 20
84.66515040769848
 10
181.04779998249998
 20
85.40434369250013
 10
178.03853135021637
 20
85.8507265268381
 10
175.0
 20
86.0
 10
171.96146864978363
 20
85.8507265268381
 10
168.95220001750002
 20
85.40434369250013
 10
166.00117500511166
 20
84.66515040769848
 10
163.1368135966822
 20
83.64026550784988
 10
160.38670115839406
 20
82.339559194799
 10
157.77732277639234
 20
80.77555798137891
 10
155.333808190927
 20
78.96332405424484
 10
153.07968978321702
 20
76.92031021678298
 10
151.03667594575515
 20
74.666191809073
 10
149.2244420186211
 20
72.22267722360766
 10
147.660440805201
 20
69.61329884160592
 10
146.3597344921501
 20
66.86318640331778
 10
145.3348495923015
 20
63.998824994888324
 10
144.59565630749987
 20
61.04779998249998
 10
144.14927347316188
 20
58.03853135021638
 10
144.0
 20
55.0
 10
144.14927347316188
 20
51.96146864978361
 10
144.59565630749987
 20
48.95220001750001
 10
145.33484959230154
 20
46.00117500511166
 10
146.3597344921501
 20
43.13681359668222
 10
147.660440805201
 20
40.38670115839407
 10
149.2244420186211
 20
37.77732277639233
 10
151.03667594575515
 20
35.33380819092699
 10
153.07968978321702
 20
33.07968978321702
 10
155.333808190927
 20
31.03667594575515
 10
157.77732277639234
 20
29.22444201862109
 10
160.38670115839406
 20
27.660440805200995
 10
163.13681359668223
 20
26.35973449215011
 10
166.00117500511166
 20
25.334849592301524
 10
168.95220001750002
 20
24.59565630749986
 10
171.96146864978363
 20
24.149273473161895
 10
175.0
 20
24.0
 10
178.03853135021637
 20
24.149273473161898
 10
181.04779998249998
 20
24.59565630749986
 10
183.99882499488834
 20
25.334849592301524
 10
186.8631864033178
 20
26.35973449215011
 10
189.61329884160594
 20
27.660440805201
 10
192.22267722360766
 20
29.224442018621097
 10
194.666191809073
 20
31.036675945755153
 10
196.92031021678298
 20
33.07968978321703
 10
198.96332405424485
 20
35.33380819092699
 10
200.7755579813789
 20
37.77732277639233
 10
202.339559194799
 20
40.386701158394075
 10
203.6402655078499
 20
43.13681359668222
 10
204.66515040769846
 20
46.00117500511167
 10
205.40434369250013
 20
48.952200017500026
 10
205.85072652683812
 20
51.96146864978362
 10
206.0
 20
55.0
 10
205.85072652683812
 20
58.038531350216374
 10
205.40434369250013
 20
61.04779998249999
 10
204.66515040769846
 20
63.99882499488834
 10
203.64026550784988
 20
66.8631864033178
 10
202.339559194799
 20
69.61329884160594
 10
200.7755579813789
 20
72.22267722360766
  0
LWPOLYLINE
  5
95
330
17
100
AcDbEntity
  8
CORTE
100
AcDbPolyline
 90
65
 70
1
 10
512.339559194799
 20
69.61329884160594
 10
510.7755579813789
 20
72.22267722360766
 10
508.9633240542448
 20
74.66619180907303
 10
506.920310216783
 20
76.92031021678298
 10
504.666191809073
 20
78.96332405424485
 10
502.22267722360766
 20
80.77555798137891
 10
499.6132988416059
 20
82.33955919479901
 10
496.8631864033178
 20
83.64026550784989
 10
493.9988249948883
 20
84.66515040769848
 10
491.04779998249995
 20
85.40434369250013
 10
488.0385313502164
 20
85.8507265268381
 10
485.0
 20
86.0
 10
481.9614686497836
 20
85.8507265268381
 10
478.9522000175
 20
85.40434369250013
 10
476.0011750051117
 20
84.66515040769848
 10
473.1368135966822
 20
83.64026550784988
 10
470.3867011583941
 20
82.339559194799
 10
467.77732277639234
 20
80.77555798137891
 10
465.33380819092696
 20
78.96332405424484
 10
463.079689783217
 20
76.92031021678298
 10
461.0366759457552
 20
74.666191809073
 10
459.22444201862106
 20
72.22267722360766
 10
457.660440805201
 20
69.61329884160592
 10
456.3597344921501
 20
66.86318640331778
 10
455.3348495923015
 20
63.998824994888324
 10
454.59565630749984
 20
61.04779998249998
 10
454.1492734731619
 20
58.03853135021638
 10
454.0
 20
55.0
 10
454.1492734731619
 20
51.96146864978361
 10
454.59565630749984
 20
48.95220001750001
 10
455.3348495923015
 20
46.00117500511166
 10
456.3597344921501
 20
43.13681359668222
 10
457.660440805201
 20
40.38670115839407
 10
459.2244420186211
 20
37.77732277639233
 10
461.0366759457552
 20
35.33380819092699
 10
463.079689783217
 20
33.07968978321702
 10
465.333808190927
 20
31.03667594575515
 10
467.77732277639234
 20
29.22444201862109
 10
470.3867011583941
 20
27.660440805200995
 10
473.1368135966822
 20
26.35973449215011
 10
476.0011750051117
 20
25.334849592301524
 10
478.95220001750005
 20
24.59565630749986
 10
481.9614686497836
 20
24.149273473161895
 10
485.0
 20
24.0
 10
488.0385313502164
 20
24.149273473161898
 10
491.04779998249995
 20
24.59565630749986
 10
493.9988249948883
 20
25.334849592301524
 10
496.8631864033178
 20
26.35973449215011
 10
499.6132988416059
 20
27.660440805201
 10
502.22267722360766
 20
29.224442018621097
 10
504.666191809073
 20
31.036675945755153
 10
506.920310216783
 20
33.07968978321703
 10
508.9633240542448
 20
35.33380819092699
 10
510.7755579813789
 20
37.77732277639233
 10
512.339559194799
 20
40.386701158394075
 10
513.6402655078499
 20
43.13681359668222
 10
514.6651504076984
 20
46.00117500511167
 10
515.4043436925001
 20
48.952200017500026
 10
515.8507265268381
 20
51.96146864978362
 10
516.0
 20
55.0
 10
515.8507265268381
 20
58.038531350216374
 10
515.4043436925001
 20
61.04779998249999
 10
514.6651504076984
 20
63.99882499488834
 10
513.6402655078499
 20
66.8631864033178
 10
512.339559194799
 20
69.61329884160594
  0
LWPOLYLINE
  5
96
330
17
100
AcDbEntity
  8
CORTE
100
AcDbPolyline
 90
65
 70
1
 10
119.02086784529345
 20
114.94976924149235
 10
117.92995287305723
 20
117.25631515747594
 10
116.61820991986617
 20
119.44482605850966
 10
115.09827178743114
 20
121.49422538825479
 10
113.38477631085023
 20
123.38477631085024
 10
111.49422538825479
 20
125.09827178743116
 10
109.44482605850965
 20
126.61820991986619
 10
107.25631515747594
 20
127.92995287305723
 10
104.94976924149233
 20
129.02086784529345
 10
102.54740160861601
 20
129.88044872903743
 10
100.07234837241934
 20
130.500417290484
 10
97.54844564856856
 20
130.87480289347712
 10
95.0
 20
131.0
 10
92.45155435143143
 20
130.87480289347712
 10
89.92765162758066
 20
130.500417290484
 10
87.45259839138397
 20
129.88044872903743
 10
85.05023075850765
 20
129.02086784529345
 10
82.74368484252406
 20
127.92995287305723
 10
80.55517394149034
 20
126.61820991986617
 10
78.50577461174521
 20
125.09827178743114
 10
76.61522368914976
 20
123.38477631085024
 10
74.90172821256883
 20
121.49422538825478
 10
73.38179008013381
 20
119.44482605850965
 10
72.07004712694277
 20
117.25631515747594
 10
70.97913215470655
 20
114.94976924149233
 10
70.11955127096257
 20
112.54740160861601
 10
69.499582709516
 20
110.07234837241934
 10
69.12519710652288
 20
107.54844564856857
 10
69.0
 20
105.0
 10
69.12519710652288
 20
102.45155435143141
 10
69.499582709516
 20
99.92765162758066
 10
70.11955127096257
 20
97.45259839138397
 10
70.97913215470655
 20
95.05023075850767
 10
72.07004712694277
 20
92.74368484252406
 10
73.38179008013383
 20
90.55517394149034
 10
74.90172821256884
 20
88.50577461174521
 10
76.61522368914976
 20
86.61522368914976
 10
78.50577461174522
 20
84.90172821256883
 10
80.55517394149035
 20
83.38179008013381
 10
82.74368484252406
 20
82.07004712694277
 10
85.05023075850767
 20
80.97913215470655
 10
87.45259839138399
 20
80.11955127096257
 10
89.92765162758067
 20
79.499582709516
 10
92.45155435143143
 20
79.12519710652288
 10
95.0
 20
79.0
 10
97.54844564856857
 20
79.12519710652288
 10
100.07234837241934
 20
79.499582709516
 10
102.54740160861601
 20
80.11955127096257
 10
104.94976924149233
 20
80.97913215470655
 10
107.25631515747594
 20
82.07004712694277
 10
109.44482605850966
 20
83.38179008013383
 10
111.49422538825479
 20
84.90172821256884
 10
113.38477631085024
 20
86.61522368914976
 10
115.09827178743116
 20
88.50577461174521
 10
116.61820991986617
 20
90.55517394149034
 10
117.92995287305723
 20
92.74368484252406
 10
119.02086784529345
 20
95.05023075850767
 10
119.88044872903743
 20
97.45259839138399
 10
120.500417290484
 20
99.92765162758067
 10
120.87480289347712
 20
102.45155435143143
 10
121.0
 20
105.0
 10
120.87480289347712
 20
107.54844564856857
 10
120.500417290484
 20
110.07234837241934
 10
119.88044872903743
 20
112.54740160861603
 10
119.02086784529345
 20
114.94976924149235
  0
LWPOLYLINE
  5
97
330
17
100
AcDbEntity
  8
CORTE
100
AcDbPolyline
 90
65
 70
1
 10
589.8804487290374
 20
112.54740160861603
 10
589.0208678452934
 20
114.94976924149235
 10
587.9299528730572
 20
117.25631515747594
 10
586.6182099198662
 20
119.44482605850966
 10
585.0982717874311
 20
121.49422538825479
 10
583.3847763108503
 20
123.38477631085024
 10
581.4942253882548
 20
125.09827178743116
 10
579.4448260585096
 20
126.61820991986619
 10
577.2563151574759
 20
127.92995287305723
 10
574.9497692414924
 20
129.02086784529345
 10
572.547401608616
 20
129.88044872903743
 10
570.0723483724194
 20
130.500417290484
 10
567.5484456485685
 20
130.87480289347712
 10
565.0
 20
131.0
 10
562.4515543514315
 20
130.87480289347712
 10
559.9276516275806
 20
130.500417290484
 10
557.452598391384
 20
129.88044872903743
 10
555.0502307585076
 20
129.02086784529345
 10
552.7436848425241
 20
127.92995287305723
 10
550.5551739414904
 20
126.61820991986617
 10
548.5057746117452
 20
125.09827178743114
 10
546.6152236891497
 20
123.38477631085024
 10
544.9017282125689
 20
121.49422538825478
 10
543.3817900801338
 20
119.44482605850965
 10
542.0700471269428
 20
117.25631515747594
 10
540.9791321547066
 20
114.94976924149233
 10
540.1195512709626
 20
112.54740160861601
 10
539.4995827095161
 20
110.07234837241934
 10
539.1251971065229
 20
107.54844564856857
 10
539.0
 20
105.0
 10
539.1251971065229
 20
102.45155435143141
 10
539.4995827095161
 20
99.92765162758066
 10
540.1195512709626
 20
97.45259839138397
 10
540.9791321547066
 20
95.05023075850767
 10
542.0700471269428
 20
92.74368484252406
 10
543.3817900801338
 20
90.55517394149034
 10
544.9017282125689
 20
88.50577461174521
 10
546.6152236891497
 20
86.61522368914976
 10
548.5057746117452
 20
84.90172821256883
 10
550.5551739414904
 20
83.38179008013381
 10
552.7436848425241
 20
82.07004712694277
 10
555.0502307585077
 20
80.97913215470655
 10
557.452598391384
 20
80.11955127096257
 10
559.9276516275806
 20
79.499582709516
 10
562.4515543514315
 20
79.12519710652288
 10
565.0
 20
79.0
 10
567.5484456485685
 20
79.12519710652288
 10
570.0723483724194
 20
79.499582709516
 10
572.547401608616
 20
80.11955127096257
 10
574.9497692414924
 20
80.97913215470655
 10
577.2563151574759
 20
82.07004712694277
 10
579.4448260585096
 20
83.38179008013383
 10
581.4942253882548
 20
84.90172821256884
 10
583.3847763108503
 20
86.61522368914976
 10
585.0982717874311
 20
88.50577461174521
 10
586.6182099198662
 20
90.55517394149034
 10
587.9299528730572
 20
92.74368484252406
 10
589.0208678452934
 20
95.05023075850767
 10
589.8804487290374
 20
97.45259839138399
 10
590.5004172904839
 20
99.92765162758067
 10
590.8748028934771
 20
102.45155435143143
 10
591.0
 20
105.0
 10
590.8748028934771
 20
107.54844564856857
 10
590.5004172904839
 20
110.07234837241934
 10
589.8804487290374
 20
112.54740160861603
  0
LWPOLYLINE
  5
98
330
17
100
AcDbEntity
  8
CORTE
100
AcDbPolyline
 90
65
 70
1
 10
97.68399164403938
 20
230.23191679920035
 10
97.8443828996016
 20
230.51325520436168
 10
97.9764258414901
 20
230.80895998040864
 10
98.07884882399247
 20
231.11618332869924
 10
98.15066545779715
 20
231.431966520444
 10
98.1911841094616
 20
231.75326839088183
 10
98.20001456222056
 20
232.07699462735894
 10
98.17707177398674
 20
232.40002756925125
 10
98.12257669635264
 20
232.7192562327406
 10
98.03705414670591
 20
233.03160627128946
 10
97.92132775395103
 20
233.3340695832787
 10
97.77651202651272
 20
233.62373328167058
 10
97.60400161901053
 20
233.89780774670334
 10
97.4054579009725
 20
234.1536534914543
 10
97.18279295693836
 20
234.38880658154207
 10
96.9381511720402
 20
234.6010023641613
 10
96.67388858040138
 20
234.7881972779274
 10
96.39255017524005
 20
234.9485885334896
 10
96.09684539919307
 20
235.0806314753781
 10
95.78962205090251
 20
235.1830544578805
 10
95.47383885915772
 20
235.25487109168515
 10
95.1525369887199
 20
235.2953897433496
 10
94.82881075224282
 20
235.30422019610856
 10
94.50577781035048
 20
235.28127740787477
 10
94.18654914686113
 20
235.22678233024064
 10
93.87419910831227
 20
235.1412597805939
 10
93.57173579632303
 20
235.02553338783906
 10
93.28207209793115
 20
234.88071766040073
 10
93.00799763289841
 20
234.70820725289855
 10
92.75215188814744
 20
234.50966353486052
 10
92.51699879805966
 20
234.28699859082636
 10
92.30480301544043
 20
234.0423568059282
 10
92.11760810167434
 20
233.77809421428938
 10
91.95721684611212
 20
233.49675580912805
 10
91.82517390422362
 20
233.2010510330811
 10
91.72275092172124
 20
232.89382768479052
 10
91.65093428791658
 20
232.57804449304575
 10
91.61041563625213
 20
232.25674262260793
 10
91.60158518349316
 20
231.93301638613082
 10
91.62452797172698
 20
231.6099834442385
 10
91.67902304936109
 20
231.29075478074913
 10
91.76454559900782
 20
230.97840474220027
 10
91.88027199176268
 20
230.67594143021103
 10
92.025087719201
 20
230.38627773181915
 10
92.19759812670318
 20
230.11220326678642
 10
92.39614184474122
 20
229.85635752203544
 10
92.61880678877537
 20
229.6212044319477
 10
92.86344857367354
 20
229.40900864932843
 10
93.12771116531235
 20
229.22181373556236
 10
93.40904957047368
 20
229.06142248000015
 10
93.70475434652064
 20
228.92937953811165
 10
94.01197769481122
 20
228.82695655560926
 10
94.32776088655599
 20
228.75513992180458
 10
94.64906275699381
 20
228.71462127014013
 10
94.97278899347091
 20
228.70579081738117
 10
95.29582193536324
 20
228.728733605615
 10
95.6150505988526
 20
228.7832286832491
 10
95.92740063740146
 20
228.86875123289582
 10
96.2298639493907
 20
228.9844776256507
 10
96.51952764778258
 20
229.129293353089
 10
96.79360211281531
 20
229.3018037605912
 10
97.04944785756629
 20
229.50034747862924
 10
97.28460094765406
 20
229.72301242266337
 10
97.4967967302733
 20
229.96765420756154
 10
97.68399164403938
 20
230.23191679920035
  0
LINE
  5
99
330
17
100
AcDbEntity
  8
PLIEGUE
100
AcDbLine
 10
15.0
 20
2.748451603534563
 30
0.0
 11
65.0
 21
2.748451603534563
 31
0.0
  0
LINE
  5
9A
330
17
100
AcDbEntity
  8
TANGENTE
100
AcDbLine
 10
15.0
 20
5.999999999999999
 30
0.0
 11
65.0
 21
5.999999999999999
 31
0.0
  0
LINE
  5
9B
330
17
100
AcDbEntity
  8
TANGENTE
100
AcDbLine
 10
15.0
 20
-0.5030967929308732
 30
0.0
 11
65.0
 21
-0.5030967929308732
 31
0.0
  0
TEXT
  5
9C
330
17
100
AcDbEntity
  8
TEXTO
100
AcDbText
 10
40.0
 20
5.748451603534563
 30
0.0
 40
5.0
  1
PLEGAR ARRIBA 90deg R3  (BA 6.50)
 11
40.0
 21
5.748451603534563
 31
0.0
100
AcDbText
  0
LINE
  5
9D
330
17
100
AcDbEntity
  8
PLIEGUE
100
AcDbLine
 10
595.0
 20
2.748451603534563
 30
0.0
 11
645.0
 21
2.748451603534563
 31
0.0
  0
LINE
  5
9E
330
17
100
AcDbEntity
  8
TANGENTE
100
AcDbLine
 10
595.0
 20
5.999999999999999
 30
0.0
 11
645.0
 21
5.999999999999999
 31
0.0
  0
LINE
  5
9F
330
17
100
AcDbEntity
  8
TANGENTE
100
AcDbLine
 10
595.0
 20
-0.5030967929308732
 30
0.0
 11
645.0
 21
-0.5030967929308732
 31
0.0
  0
TEXT
  5
A0
330
17
100
AcDbEntity
  8
TEXTO
100
AcDbText
 10
620.0
 20
5.748451603534563
 30
0.0
 40
5.0
  1
PLEGAR ARRIBA 90deg R3  (BA 6.50)
 11
620.0
 21
5.748451603534563
 31
0.0
100
AcDbText
  0
LINE
  5
A1
330
17
100
AcDbEntity
  8
PLIEGUE
100
AcDbLine
 10
562.4356609391314
 20
197.24679806166395
 30
0.0
 11
596.8502471201941
 21
246.39592071900347
 31
0.0
  0
LINE
  5
A2
330
17
100
AcDbEntity
  8
TANGENTE
100
AcDbLine
 10
559.7721484230622
 20
199.11180960353155
 30
0.0
 11
594.1867346041249
 21
248.26093226087107
 31
0.0
  0
LINE
  5
A3
330
17
100
AcDbEntity
  8
TANGENTE
100
AcDbLine
 10
565.0991734552007
 20
195.38178651979635
 30
0.0
 11
599.5137596362634
 21
244.53090917713587
 31
0.0
  0
TEXT
  5
A4
330
17
100
AcDbEntity
  8
TEXTO
100
AcDbText
 10
579.6429540296627
 20
224.82135939033373
 30
0.0
 40
5.0
  1
PLEGAR ARRIBA 90deg R3  (BA 6.50)
 11
579.6429540296627
 21
224.82135939033373
 31
0.0
100
AcDbText
  0
LINE
  5
A5
330
17
100
AcDbEntity
  8
PLIEGUE
100
AcDbLine
 10
58.64695338047638
 20
243.2430265665261
 30
0.0
 11
93.06153956153915
 21
194.0939039091866
 31
0.0
  0
LINE
  5
A6
330
17
100
AcDbEntity
  8
TANGENTE
100
AcDbLine
 10
55.98344086440713
 20
241.3780150246585
 30
0.0
 11
90.39802704546989
 21
192.228892367319
 31
0.0
  0
LINE
  5
A7
330
17
100
AcDbEntity
  8
TANGENTE
100
AcDbLine
 10
61.310465896545644
 20
245.1080381083937
 30
0.0
 11
95.72505207760841
 21
195.9589154510542
 31
0.0
  0
TEXT
  5
A8
330
17
100
AcDbEntity
  8
TEXTO
100
AcDbText
 10
75.85424647100777
 20
221.66846523785637
 30
0.0
 40
5.0
  1
PLEGAR ARRIBA 90deg R3  (BA 6.50)
 11
75.85424647100777
 21
221.66846523785637
 31
0.0
100
AcDbText
  0
TEXT
  5
A9
330
17
100
AcDbEntity
  8
TEXTO
100
AcDbText
 10
0.0
 20
-102.50309679293088
 30
0.0
 40
7.0
  1
CUN-CUNA — Cuna del tambor (soporta y amarra)  |  x2  |  acero e3  |  desarrollo 660 x 352  |  4 pliegue(s), 11 agujero(s)  |  masa 1.965 kg c/u
 11
0.0
 21
-102.50309679293088
 31
0.0
100
AcDbText
  0
TEXT
  5
AA
330
17
100
AcDbEntity
  8
TEXTO
100
AcDbText
 10
0.0
 20
-114.50309679293088
 30
0.0
 40
4.5
  1
Escala real 1:1 (1 unidad = 1 mm). Capa CORTE = trayectoria del laser. Capa PLIEGUE/TANGENTE = referencia de plegado, NO se corta. Factor K 0.38, radio interior = espesor. Vista desde la cara EXTERIOR.
 11
0.0
 21
-114.50309679293088
 31
0.0
100
AcDbText
  0
ENDSEC
  0
SECTION
  2
OBJECTS
  0
DICTIONARY
  5
A
330
0
100
AcDbDictionary
281
1
  3
ACAD_COLOR
350
B
  3
ACAD_GROUP
350
C
  3
ACAD_LAYOUT
350
D
  3
ACAD_MATERIAL
350
E
  3
ACAD_MLEADERSTYLE
350
F
  3
ACAD_MLINESTYLE
350
10
  3
ACAD_PLOTSETTINGS
350
11
  3
ACAD_PLOTSTYLENAME
350
12
  3
ACAD_SCALELIST
350
14
  3
ACAD_TABLESTYLE
350
15
  3
ACAD_VISUALSTYLE
350
16
  3
EZDXF_META
350
2D
  0
DICTIONARY
  5
B
330
A
100
AcDbDictionary
281
1
  0
DICTIONARY
  5
C
330
A
100
AcDbDictionary
281
1
  0
DICTIONARY
  5
D
330
A
100
AcDbDictionary
281
1
  3
Model
350
1A
  3
Layout1
350
1E
  0
DICTIONARY
  5
E
330
A
100
AcDbDictionary
281
1
  3
ByBlock
350
1F
  3
ByLayer
350
20
  3
Global
350
21
  0
DICTIONARY
  5
F
330
A
100
AcDbDictionary
281
1
  3
Standard
350
2C
  0
DICTIONARY
  5
10
330
A
100
AcDbDictionary
281
1
  3
Standard
350
22
  0
DICTIONARY
  5
11
330
A
100
AcDbDictionary
281
1
  0
ACDBDICTIONARYWDFLT
  5
12
330
A
100
AcDbDictionary
281
1
  3
Normal
350
13
100
AcDbDictionaryWithDefault
340
13
  0
ACDBPLACEHOLDER
  5
13
330
12
  0
DICTIONARY
  5
14
330
A
100
AcDbDictionary
281
1
  0
DICTIONARY
  5
15
330
A
100
AcDbDictionary
281
1
  0
DICTIONARY
  5
16
330
A
100
AcDbDictionary
281
1
  3
2dWireframe
350
5A
  3
Basic
350
5B
  3
Brighten
350
5C
  3
ColorChange
350
5D
  3
Conceptual
350
5E
  3
Dim
350
5F
  3
EdgeColorOff
350
60
  3
Facepattern
350
61
  3
Flat
350
62
  3
FlatWithEdges
350
63
  3
Gouraud
350
64
  3
GouraudWithEdges
350
65
  3
Hidden
350
66
  3
JitterOff
350
67
  3
Linepattern
350
68
  3
Modeling
350
69
  3
OverhangOff
350
6A
  3
Realistic
350
6B
  3
Shaded
350
6C
  3
Shaded with edges
350
6D
  3
Shades of Gray
350
6E
  3
Sketchy
350
6F
  3
Thicken
350
70
  3
Wireframe
350
71
  3
X-Ray
350
72
  0
LAYOUT
  5
1A
330
D
100
AcDbPlotSettings
  1

  4
A3
  6

 40
7.5
 41
20.0
 42
7.5
 43
20.0
 44
420.0
 45
297.0
 46
0.0
 47
0.0
 48
0.0
 49
0.0
140
0.0
141
0.0
142
1.0
143
1.0
 70
1024
 72
1
 73
0
 74
5
  7

 75
16
 76
0
 77
2
 78
300
147
1.0
148
0.0
149
0.0
100
AcDbLayout
  1
Model
 70
1
 71
0
 10
0.0
 20
0.0
 11
420.0
 21
297.0
 12
0.0
 22
0.0
 32
0.0
 14
1e+20
 24
1e+20
 34
1e+20
 15
-1e+20
 25
-1e+20
 35
-1e+20
146
0.0
 13
0.0
 23
0.0
 33
0.0
 16
1.0
 26
0.0
 36
0.0
 17
0.0
 27
1.0
 37
0.0
 76
1
330
17
  0
LAYOUT
  5
1E
330
D
100
AcDbPlotSettings
  1

  4
A3
  6

 40
7.5
 41
20.0
 42
7.5
 43
20.0
 44
420.0
 45
297.0
 46
0.0
 47
0.0
 48
0.0
 49
0.0
140
0.0
141
0.0
142
1.0
143
1.0
 70
0
 72
1
 73
0
 74
5
  7

 75
16
 76
0
 77
2
 78
300
147
1.0
148
0.0
149
0.0
100
AcDbLayout
  1
Layout1
 70
1
 71
1
 10
0.0
 20
0.0
 11
420.0
 21
297.0
 12
0.0
 22
0.0
 32
0.0
 14
1e+20
 24
1e+20
 34
1e+20
 15
-1e+20
 25
-1e+20
 35
-1e+20
146
0.0
 13
0.0
 23
0.0
 33
0.0
 16
1.0
 26
0.0
 36
0.0
 17
0.0
 27
1.0
 37
0.0
 76
1
330
1B
  0
MATERIAL
  5
1F
102
{ACAD_REACTORS
330
E
102
}
330
E
100
AcDbMaterial
  1
ByBlock
  2

 70
0
 40
1.0
 71
1
 41
1.0
 91
-1023410177
 42
1.0
 72
1
  3

 73
1
 74
1
 75
1
 44
0.5
 73
0
 45
1.0
 46
1.0
 77
1
  4

 78
1
 79
1
170
1
 48
1.0
171
1
  6

172
1
173
1
174
1
140
1.0
141
1.0
175
1
  7

176
1
177
1
178
1
143
1.0
179
1
  8

270
1
271
1
272
1
145
1.0
146
1.0
273
1
  9

274
1
275
1
276
1
 42
1.0
 72
1
  3

 73
1
 74
1
 75
1
 94
63
  0
MATERIAL
  5
20
102
{ACAD_REACTORS
330
E
102
}
330
E
100
AcDbMaterial
  1
ByLayer
  2

 70
0
 40
1.0
 71
1
 41
1.0
 91
-1023410177
 42
1.0
 72
1
  3

 73
1
 74
1
 75
1
 44
0.5
 73
0
 45
1.0
 46
1.0
 77
1
  4

 78
1
 79
1
170
1
 48
1.0
171
1
  6

172
1
173
1
174
1
140
1.0
141
1.0
175
1
  7

176
1
177
1
178
1
143
1.0
179
1
  8

270
1
271
1
272
1
145
1.0
146
1.0
273
1
  9

274
1
275
1
276
1
 42
1.0
 72
1
  3

 73
1
 74
1
 75
1
 94
63
  0
MATERIAL
  5
21
102
{ACAD_REACTORS
330
E
102
}
330
E
100
AcDbMaterial
  1
Global
  2

 70
0
 40
1.0
 71
1
 41
1.0
 91
-1023410177
 42
1.0
 72
1
  3

 73
1
 74
1
 75
1
 44
0.5
 73
0
 45
1.0
 46
1.0
 77
1
  4

 78
1
 79
1
170
1
 48
1.0
171
1
  6

172
1
173
1
174
1
140
1.0
141
1.0
175
1
  7

176
1
177
1
178
1
143
1.0
179
1
  8

270
1
271
1
272
1
145
1.0
146
1.0
273
1
  9

274
1
275
1
276
1
 42
1.0
 72
1
  3

 73
1
 74
1
 75
1
 94
63
  0
MLINESTYLE
  5
22
102
{ACAD_REACTORS
330
10
102
}
330
10
100
AcDbMlineStyle
  2
Standard
 70
0
  3

 62
256
 51
90.0
 52
90.0
 71
2
 49
0.5
 62
256
  6
BYLAYER
 49
-0.5
 62
256
  6
BYLAYER
  0
MLEADERSTYLE
  5
2C
102
{ACAD_REACTORS
330
F
102
}
330
F
100
AcDbMLeaderStyle
179
2
170
2
171
1
172
0
 90
2
 40
0.0
 41
0.0
173
1
 91
-1056964608
 92
-2
290
1
 42
2.0
291
1
 43
8.0
  3
Standard
 44
4.0
300

342
29
174
1
175
1
176
0
178
1
 93
-1056964608
 45
4.0
292
0
297
0
 46
4.0
 94
-1056964608
 47
1.0
 49
1.0
140
1.0
294
1
141
0.0
177
0
142
1.0
295
0
296
0
143
3.75
271
0
272
9
273
9
  0
DICTIONARY
  5
2D
330
A
100
AcDbDictionary
280
1
281
1
  3
CREATED_BY_EZDXF
350
2E
  3
WRITTEN_BY_EZDXF
350
AD
  0
DICTIONARYVAR
  5
2E
330
2D
100
DictionaryVariables
280
0
  1
1.4.4 @ 2026-09-06T20:32:44.346607+00:00
  0
VISUALSTYLE
  5
5A
102
{ACAD_REACTORS
330
16
102
}
330
16
100
AcDbVisualStyle
  2
2dWireframe
 70
4
177
3
291
0
 70
58
 90
2
176
1
 90
2
176
1
 90
0
176
1
 90
0
176
1
 40
0.6
176
1
 40
30.0
176
1
 62
7
420
16777215
176
1
 90
1
176
1
 90
4
176
1
 62
7
176
1
 62
257
176
1
 90
1
176
1
 90
1
176
1
 40
1.0
176
1
 90
8
176
1
 62
7
176
1
 40
1.0
176
1
 90
1
176
1
 90
6
176
1
 90
2
176
1
 62
7
176
1
 90
5
176
1
 90
0
176
1
 90
0
176
1
290
0
176
1
 90
1
176
1
 40
0.0
176
1
 90
0
176
1
290
1
176
1
290
1
176
1
290
0
176
1
290
0
176
1
290
0
176
1
290
0
176
1
290
0
176
1
290
0
176
1
290
0
176
1
 90
50
176
1
 40
0.0
176
1
 40
1.0
176
1
 90
0
176
1
 62
18
420
0
176
1
 90
50
176
1
 90
3
176
1
 62
5
420
255
176
1
290
0
176
1
 90
50
176
1
 90
50
176
1
 90
50
176
1
290
0
176
1
 90
50
176
1
 62
256
176
0
 40
1.0
176
0
 90
2
176
1
  1
strokes_ogs.tif
176
1
290
0
176
1
 40
1.0
176
1
 40
1.0
176
1
  0
VISUALSTYLE
  5
5B
102
{ACAD_REACTORS
330
16
102
}
330
16
100
AcDbVisualStyle
  2
Basic
 70
7
177
3
291
1
 70
58
 90
2
176
1
 90
2
176
1
 90
0
176
1
 90
1
176
1
 40
0.6
176
1
 40
30.0
176
1
 62
7
420
16777215
176
1
 90
1
176
1
 90
4
176
1
 62
7
176
1
 62
257
176
1
 90
1
176
1
 90
1
176
1
 40
1.0
176
1
 90
8
176
1
 62
7
176
1
 40
1.0
176
1
 90
1
176
1
 90
6
176
1
 90
2
176
1
 62
7
176
1
 90
5
176
1
 90
0
176
1
 90
0
176
1
290
0
176
1
 90
1
176
1
 40
0.0
176
1
 90
0
176
1
290
0
176
1
290
1
176
1
290
1
176
1
290
0
176
1
290
0
176
1
290
0
176
1
290
0
176
1
290
0
176
1
290
0
176
1
 90
50
176
1
 40
0.0
176
1
 40
1.0
176
1
 90
0
176
1
 62
18
420
0
176
1
 90
50
176
1
 90
3
176
1
 62
5
420
255
176
1
290
0
176
1
 90
50
176
1
 90
50
176
1
 90
50
176
1
290
0
176
1
 90
50
176
1
 62
256
176
0
 40
1.0
176
0
 90
2
176
1
  1
strokes_ogs.tif
176
1
290
0
176
1
 40
1.0
176
1
 40
1.0
176
1
  0
VISUALSTYLE
  5
5C
102
{ACAD_REACTORS
330
16
102
}
330
16
100
AcDbVisualStyle
  2
Brighten
 70
12
177
3
291
1
 70
58
 90
2
176
1
 90
2
176
1
 90
0
176
1
 90
2
176
1
 40
0.6
176
1
 40
30.0
176
1
 62
7
420
16777215
176
1
 90
1
176
1
 90
4
176
1
 62
7
176
1
 62
257
176
1
 90
1
176
1
 90
1
176
1
 40
1.0
176
1
 90
8
176
1
 62
7
176
1
 40
1.0
176
1
 90
1
176
1
 90
6
176
1
 90
2
176
1
 62
7
176
1
 90
5
176
1
 90
0
176
1
 90
0
176
1
290
0
176
1
 90
1
176
1
 40
0.0
176
1
 90
0
176
1
290
0
176
1
290
1
176
1
290
1
176
1
290
0
176
1
290
0
176
1
290
0
176
1
290
0
176
1
290
0
176
1
290
0
176
1
 90
50
176
1
 40
0.0
176
1
 40
1.0
176
1
 90
0
176
1
 62
18
420
0
176
1
 90
50
176
1
 90
3
176
1
 62
5
420
255
176
1
290
0
176
1
 90
50
176
1
 90
50
176
1
 90
50
176
1
290
0
176
1
 90
50
176
1
 62
256
176
0
 40
1.0
176
0
 90
2
176
1
  1
strokes_ogs.tif
176
1
290
0
176
1
 40
1.0
176
1
 40
1.0
176
1
  0
VISUALSTYLE
  5
5D
102
{ACAD_REACTORS
330
16
102
}
330
16
100
AcDbVisualStyle
  2
ColorChange
 70
16
177
3
291
1
 70
58
 90
2
176
1
 90
2
176
1
 90
0
176
1
 90
2
176
1
 40
0.6
176
1
 40
30.0
176
1
 62
7
420
16777215
176
1
 90
1
176
1
 90
4
176
1
 62
7
176
1
 62
257
176
1
 90
1
176
1
 90
1
176
1
 40
1.0
176
1
 90
8
176
1
 62
7
176
1
 40
1.0
176
1
 90
1
176
1
 90
6
176
1
 90
2
176
1
 62
7
176
1
 90
5
176
1
 90
0
176
1
 90
0
176
1
290
0
176
1
 90
1
176
1
 40
0.0
176
1
 90
0
176
1
290
0
176
1
290
1
176
1
290
1
176
1
290
0
176
1
290
0
176
1
290
0
176
1
290
0
176
1
290
0
176
1
290
0
176
1
 90
50
176
1
 40
0.0
176
1
 40
1.0
176
1
 90
0
176
1
 62
18
420
0
176
1
 90
50
176
1
 90
3
176
1
 62
5
420
255
176
1
290
0
176
1
 90
50
176
1
 90
50
176
1
 90
50
176
1
290
0
176
1
 90
50
176
1
 62
256
176
0
 40
1.0
176
0
 90
2
176
1
  1
strokes_ogs.tif
176
1
290
0
176
1
 40
1.0
176
1
 40
1.0
176
1
  0
VISUALSTYLE
  5
5E
102
{ACAD_REACTORS
330
16
102
}
330
16
100
AcDbVisualStyle
  2
Conceptual
 70
9
177
3
291
0
 70
58
 90
2
176
1
 90
2
176
1
 90
0
176
1
 90
3
176
1
 40
0.6
176
1
 40
30.0
176
1
 62
7
420
16777215
176
1
 90
1
176
1
 90
4
176
1
 62
7
176
1
 62
257
176
1
 90
1
176
1
 90
1
176
1
 40
1.0
176
1
 90
8
176
1
 62
7
176
1
 40
1.0
176
1
 90
1
176
1
 90
6
176
1
 90
2
176
1
 62
7
176
1
 90
5
176
1
 90
0
176
1
 90
0
176
1
290
0
176
1
 90
1
176
1
 40
0.0
176
1
 90
0
176
1
290
0
176
1
290
1
176
1
290
1
176
1
290
0
176
1
290
0
176
1
290
0
176
1
290
0
176
1
290
0
176
1
290
0
176
1
 90
50
176
1
 40
0.0
176
1
 40
1.0
176
1
 90
0
176
1
 62
18
420
0
176
1
 90
50
176
1
 90
3
176
1
 62
5
420
255
176
1
290
0
176
1
 90
50
176
1
 90
50
176
1
 90
50
176
1
290
0
176
1
 90
50
176
1
 62
256
176
0
 40
1.0
176
0
 90
2
176
1
  1
strokes_ogs.tif
176
1
290
0
176
1
 40
1.0
176
1
 40
1.0
176
1
  0
VISUALSTYLE
  5
5F
102
{ACAD_REACTORS
330
16
102
}
330
16
100
AcDbVisualStyle
  2
Dim
 70
11
177
3
291
1
 70
58
 90
2
176
1
 90
2
176
1
 90
0
176
1
 90
2
176
1
 40
0.6
176
1
 40
30.0
176
1
 62
7
420
16777215
176
1
 90
1
176
1
 90
4
176
1
 62
7
176
1
 62
257
176
1
 90
1
176
1
 90
1
176
1
 40
1.0
176
1
 90
8
176
1
 62
7
176
1
 40
1.0
176
1
 90
1
176
1
 90
6
176
1
 90
2
176
1
 62
7
176
1
 90
5
176
1
 90
0
176
1
 90
0
176
1
290
0
176
1
 90
1
176
1
 40
0.0
176
1
 90
0
176
1
290
0
176
1
290
1
176
1
290
1
176
1
290
0
176
1
290
0
176
1
290
0
176
1
290
0
176
1
290
0
176
1
290
0
176
1
 90
50
176
1
 40
0.0
176
1
 40
1.0
176
1
 90
0
176
1
 62
18
420
0
176
1
 90
50
176
1
 90
3
176
1
 62
5
420
255
176
1
290
0
176
1
 90
50
176
1
 90
50
176
1
 90
50
176
1
290
0
176
1
 90
50
176
1
 62
256
176
0
 40
1.0
176
0
 90
2
176
1
  1
strokes_ogs.tif
176
1
290
0
176
1
 40
1.0
176
1
 40
1.0
176
1
  0
VISUALSTYLE
  5
60
102
{ACAD_REACTORS
330
16
102
}
330
16
100
AcDbVisualStyle
  2
EdgeColorOff
 70
22
177
3
291
1
 70
58
 90
2
176
1
 90
2
176
1
 90
0
176
1
 90
2
176
1
 40
0.6
176
1
 40
30.0
176
1
 62
7
420
16777215
176
1
 90
1
176
1
 90
4
176
1
 62
7
176
1
 62
257
176
1
 90
1
176
1
 90
1
176
1
 40
1.0
176
1
 90
8
176
1
 62
7
176
1
 40
1.0
176
1
 90
1
176
1
 90
6
176
1
 90
2
176
1
 62
7
176
1
 90
5
176
1
 90
0
176
1
 90
0
176
1
290
0
176
1
 90
1
176
1
 40
0.0
176
1
 90
0
176
1
290
0
176
1
290
1
176
1
290
1
176
1
290
0
176
1
290
0
176
1
290
0
176
1
290
0
176
1
290
0
176
1
290
0
176
1
 90
50
176
1
 40
0.0
176
1
 40
1.0
176
1
 90
0
176
1
 62
18
420
0
176
1
 90
50
176
1
 90
3
176
1
 62
5
420
255
176
1
290
0
176
1
 90
50
176
1
 90
50
176
1
 90
50
176
1
290
0
176
1
 90
50
176
1
 62
256
176
0
 40
1.0
176
0
 90
2
176
1
  1
strokes_ogs.tif
176
1
290
0
176
1
 40
1.0
176
1
 40
1.0
176
1
  0
VISUALSTYLE
  5
61
102
{ACAD_REACTORS
330
16
102
}
330
16
100
AcDbVisualStyle
  2
Facepattern
 70
15
177
3
291
1
 70
58
 90
2
176
1
 90
2
176
1
 90
0
176
1
 90
2
176
1
 40
0.6
176
1
 40
30.0
176
1
 62
7
420
16777215
176
1
 90
1
176
1
 90
4
176
1
 62
7
176
1
 62
257
176
1
 90
1
176
1
 90
1
176
1
 40
1.0
176
1
 90
8
176
1
 62
7
176
1
 40
1.0
176
1
 90
1
176
1
 90
6
176
1
 90
2
176
1
 62
7
176
1
 90
5
176
1
 90
0
176
1
 90
0
176
1
290
0
176
1
 90
1
176
1
 40
0.0
176
1
 90
0
176
1
290
0
176
1
290
1
176
1
290
1
176
1
290
0
176
1
290
0
176
1
290
0
176
1
290
0
176
1
290
0
176
1
290
0
176
1
 90
50
176
1
 40
0.0
176
1
 40
1.0
176
1
 90
0
176
1
 62
18
420
0
176
1
 90
50
176
1
 90
3
176
1
 62
5
420
255
176
1
290
0
176
1
 90
50
176
1
 90
50
176
1
 90
50
176
1
290
0
176
1
 90
50
176
1
 62
256
176
0
 40
1.0
176
0
 90
2
176
1
  1
strokes_ogs.tif
176
1
290
0
176
1
 40
1.0
176
1
 40
1.0
176
1
  0
VISUALSTYLE
  5
62
102
{ACAD_REACTORS
330
16
102
}
330
16
100
AcDbVisualStyle
  2
Flat
 70
0
177
3
291
1
 70
58
 90
2
176
1
 90
2
176
1
 90
0
176
1
 90
2
176
1
 40
0.6
176
1
 40
30.0
176
1
 62
7
420
16777215
176
1
 90
1
176
1
 90
4
176
1
 62
7
176
1
 62
257
176
1
 90
1
176
1
 90
1
176
1
 40
1.0
176
1
 90
8
176
1
 62
7
176
1
 40
1.0
176
1
 90
1
176
1
 90
6
176
1
 90
2
176
1
 62
7
176
1
 90
5
176
1
 90
0
176
1
 90
0
176
1
290
0
176
1
 90
1
176
1
 40
0.0
176
1
 90
0
176
1
290
0
176
1
290
1
176
1
290
1
176
1
290
0
176
1
290
0
176
1
290
0
176
1
290
0
176
1
290
0
176
1
290
0
176
1
 90
50
176
1
 40
0.0
176
1
 40
1.0
176
1
 90
0
176
1
 62
18
420
0
176
1
 90
50
176
1
 90
3
176
1
 62
5
420
255
176
1
290
0
176
1
 90
50
176
1
 90
50
176
1
 90
50
176
1
290
0
176
1
 90
50
176
1
 62
256
176
0
 40
1.0
176
0
 90
2
176
1
  1
strokes_ogs.tif
176
1
290
0
176
1
 40
1.0
176
1
 40
1.0
176
1
  0
VISUALSTYLE
  5
63
102
{ACAD_REACTORS
330
16
102
}
330
16
100
AcDbVisualStyle
  2
FlatWithEdges
 70
1
177
3
291
1
 70
58
 90
2
176
1
 90
2
176
1
 90
0
176
1
 90
2
176
1
 40
0.6
176
1
 40
30.0
176
1
 62
7
420
16777215
176
1
 90
1
176
1
 90
4
176
1
 62
7
176
1
 62
257
176
1
 90
1
176
1
 90
1
176
1
 40
1.0
176
1
 90
8
176
1
 62
7
176
1
 40
1.0
176
1
 90
1
176
1
 90
6
176
1
 90
2
176
1
 62
7
176
1
 90
5
176
1
 90
0
176
1
 90
0
176
1
290
0
176
1
 90
1
176
1
 40
0.0
176
1
 90
0
176
1
290
0
176
1
290
1
176
1
290
1
176
1
290
0
176
1
290
0
176
1
290
0
176
1
290
0
176
1
290
0
176
1
290
0
176
1
 90
50
176
1
 40
0.0
176
1
 40
1.0
176
1
 90
0
176
1
 62
18
420
0
176
1
 90
50
176
1
 90
3
176
1
 62
5
420
255
176
1
290
0
176
1
 90
50
176
1
 90
50
176
1
 90
50
176
1
290
0
176
1
 90
50
176
1
 62
256
176
0
 40
1.0
176
0
 90
2
176
1
  1
strokes_ogs.tif
176
1
290
0
176
1
 40
1.0
176
1
 40
1.0
176
1
  0
VISUALSTYLE
  5
64
102
{ACAD_REACTORS
330
16
102
}
330
16
100
AcDbVisualStyle
  2
Gouraud
 70
2
177
3
291
1
 70
58
 90
2
176
1
 90
2
176
1
 90
0
176
1
 90
2
176
1
 40
0.6
176
1
 40
30.0
176
1
 62
7
420
16777215
176
1
 90
1
176
1
 90
4
176
1
 62
7
176
1
 62
257
176
1
 90
1
176
1
 90
1
176
1
 40
1.0
176
1
 90
8
176
1
 62
7
176
1
 40
1.0
176
1
 90
1
176
1
 90
6
176
1
 90
2
176
1
 62
7
176
1
 90
5
176
1
 90
0
176
1
 90
0
176
1
290
0
176
1
 90
1
176
1
 40
0.0
176
1
 90
0
176
1
290
0
176
1
290
1
176
1
290
1
176
1
290
0
176
1
290
0
176
1
290
0
176
1
290
0
176
1
290
0
176
1
290
0
176
1
 90
50
176
1
 40
0.0
176
1
 40
1.0
176
1
 90
0
176
1
 62
18
420
0
176
1
 90
50
176
1
 90
3
176
1
 62
5
420
255
176
1
290
0
176
1
 90
50
176
1
 90
50
176
1
 90
50
176
1
290
0
176
1
 90
50
176
1
 62
256
176
0
 40
1.0
176
0
 90
2
176
1
  1
strokes_ogs.tif
176
1
290
0
176
1
 40
1.0
176
1
 40
1.0
176
1
  0
VISUALSTYLE
  5
65
102
{ACAD_REACTORS
330
16
102
}
330
16
100
AcDbVisualStyle
  2
GouraudWithEdges
 70
3
177
3
291
1
 70
58
 90
2
176
1
 90
2
176
1
 90
0
176
1
 90
2
176
1
 40
0.6
176
1
 40
30.0
176
1
 62
7
420
16777215
176
1
 90
1
176
1
 90
4
176
1
 62
7
176
1
 62
257
176
1
 90
1
176
1
 90
1
176
1
 40
1.0
176
1
 90
8
176
1
 62
7
176
1
 40
1.0
176
1
 90
1
176
1
 90
6
176
1
 90
2
176
1
 62
7
176
1
 90
5
176
1
 90
0
176
1
 90
0
176
1
290
0
176
1
 90
1
176
1
 40
0.0
176
1
 90
0
176
1
290
0
176
1
290
1
176
1
290
1
176
1
290
0
176
1
290
0
176
1
290
0
176
1
290
0
176
1
290
0
176
1
290
0
176
1
 90
50
176
1
 40
0.0
176
1
 40
1.0
176
1
 90
0
176
1
 62
18
420
0
176
1
 90
50
176
1
 90
3
176
1
 62
5
420
255
176
1
290
0
176
1
 90
50
176
1
 90
50
176
1
 90
50
176
1
290
0
176
1
 90
50
176
1
 62
256
176
0
 40
1.0
176
0
 90
2
176
1
  1
strokes_ogs.tif
176
1
290
0
176
1
 40
1.0
176
1
 40
1.0
176
1
  0
VISUALSTYLE
  5
66
102
{ACAD_REACTORS
330
16
102
}
330
16
100
AcDbVisualStyle
  2
Hidden
 70
6
177
3
291
0
 70
58
 90
2
176
1
 90
2
176
1
 90
0
176
1
 90
1
176
1
 40
0.6
176
1
 40
30.0
176
1
 62
7
420
16777215
176
1
 90
1
176
1
 90
4
176
1
 62
7
176
1
 62
257
176
1
 90
1
176
1
 90
1
176
1
 40
1.0
176
1
 90
8
176
1
 62
7
176
1
 40
1.0
176
1
 90
1
176
1
 90
6
176
1
 90
2
176
1
 62
7
176
1
 90
5
176
1
 90
0
176
1
 90
0
176
1
290
0
176
1
 90
1
176
1
 40
0.0
176
1
 90
0
176
1
290
0
176
1
290
1
176
1
290
1
176
1
290
0
176
1
290
0
176
1
290
0
176
1
290
0
176
1
290
0
176
1
290
0
176
1
 90
50
176
1
 40
0.0
176
1
 40
1.0
176
1
 90
0
176
1
 62
18
420
0
176
1
 90
50
176
1
 90
3
176
1
 62
5
420
255
176
1
290
0
176
1
 90
50
176
1
 90
50
176
1
 90
50
176
1
290
0
176
1
 90
50
176
1
 62
256
176
0
 40
1.0
176
0
 90
2
176
1
  1
strokes_ogs.tif
176
1
290
0
176
1
 40
1.0
176
1
 40
1.0
176
1
  0
VISUALSTYLE
  5
67
102
{ACAD_REACTORS
330
16
102
}
330
16
100
AcDbVisualStyle
  2
JitterOff
 70
20
177
3
291
1
 70
58
 90
2
176
1
 90
2
176
1
 90
0
176
1
 90
2
176
1
 40
0.6
176
1
 40
30.0
176
1
 62
7
420
16777215
176
1
 90
1
176
1
 90
4
176
1
 62
7
176
1
 62
257
176
1
 90
1
176
1
 90
1
176
1
 40
1.0
176
1
 90
8
176
1
 62
7
176
1
 40
1.0
176
1
 90
1
176
1
 90
6
176
1
 90
2
176
1
 62
7
176
1
 90
5
176
1
 90
0
176
1
 90
0
176
1
290
0
176
1
 90
1
176
1
 40
0.0
176
1
 90
0
176
1
290
0
176
1
290
1
176
1
290
1
176
1
290
0
176
1
290
0
176
1
290
0
176
1
290
0
176
1
290
0
176
1
290
0
176
1
 90
50
176
1
 40
0.0
176
1
 40
1.0
176
1
 90
0
176
1
 62
18
420
0
176
1
 90
50
176
1
 90
3
176
1
 62
5
420
255
176
1
290
0
176
1
 90
50
176
1
 90
50
176
1
 90
50
176
1
290
0
176
1
 90
50
176
1
 62
256
176
0
 40
1.0
176
0
 90
2
176
1
  1
strokes_ogs.tif
176
1
290
0
176
1
 40
1.0
176
1
 40
1.0
176
1
  0
VISUALSTYLE
  5
68
102
{ACAD_REACTORS
330
16
102
}
330
16
100
AcDbVisualStyle
  2
Linepattern
 70
14
177
3
291
1
 70
58
 90
2
176
1
 90
2
176
1
 90
0
176
1
 90
2
176
1
 40
0.6
176
1
 40
30.0
176
1
 62
7
420
16777215
176
1
 90
1
176
1
 90
4
176
1
 62
7
176
1
 62
257
176
1
 90
1
176
1
 90
1
176
1
 40
1.0
176
1
 90
8
176
1
 62
7
176
1
 40
1.0
176
1
 90
1
176
1
 90
6
176
1
 90
2
176
1
 62
7
176
1
 90
5
176
1
 90
0
176
1
 90
0
176
1
290
0
176
1
 90
1
176
1
 40
0.0
176
1
 90
0
176
1
290
0
176
1
290
1
176
1
290
1
176
1
290
0
176
1
290
0
176
1
290
0
176
1
290
0
176
1
290
0
176
1
290
0
176
1
 90
50
176
1
 40
0.0
176
1
 40
1.0
176
1
 90
0
176
1
 62
18
420
0
176
1
 90
50
176
1
 90
3
176
1
 62
5
420
255
176
1
290
0
176
1
 90
50
176
1
 90
50
176
1
 90
50
176
1
290
0
176
1
 90
50
176
1
 62
256
176
0
 40
1.0
176
0
 90
2
176
1
  1
strokes_ogs.tif
176
1
290
0
176
1
 40
1.0
176
1
 40
1.0
176
1
  0
VISUALSTYLE
  5
69
102
{ACAD_REACTORS
330
16
102
}
330
16
100
AcDbVisualStyle
  2
Modeling
 70
10
177
3
291
0
 70
58
 90
2
176
1
 90
2
176
1
 90
0
176
1
 90
2
176
1
 40
0.6
176
1
 40
30.0
176
1
 62
7
420
16777215
176
1
 90
1
176
1
 90
4
176
1
 62
7
176
1
 62
257
176
1
 90
1
176
1
 90
1
176
1
 40
1.0
176
1
 90
8
176
1
 62
7
176
1
 40
1.0
176
1
 90
1
176
1
 90
6
176
1
 90
2
176
1
 62
7
176
1
 90
5
176
1
 90
0
176
1
 90
0
176
1
290
0
176
1
 90
1
176
1
 40
0.0
176
1
 90
0
176
1
290
0
176
1
290
1
176
1
290
1
176
1
290
0
176
1
290
0
176
1
290
0
176
1
290
0
176
1
290
0
176
1
290
0
176
1
 90
50
176
1
 40
0.0
176
1
 40
1.0
176
1
 90
0
176
1
 62
18
420
0
176
1
 90
50
176
1
 90
3
176
1
 62
5
420
255
176
1
290
0
176
1
 90
50
176
1
 90
50
176
1
 90
50
176
1
290
0
176
1
 90
50
176
1
 62
256
176
0
 40
1.0
176
0
 90
2
176
1
  1
strokes_ogs.tif
176
1
290
0
176
1
 40
1.0
176
1
 40
1.0
176
1
  0
VISUALSTYLE
  5
6A
102
{ACAD_REACTORS
330
16
102
}
330
16
100
AcDbVisualStyle
  2
OverhangOff
 70
21
177
3
291
1
 70
58
 90
2
176
1
 90
2
176
1
 90
0
176
1
 90
2
176
1
 40
0.6
176
1
 40
30.0
176
1
 62
7
420
16777215
176
1
 90
1
176
1
 90
4
176
1
 62
7
176
1
 62
257
176
1
 90
1
176
1
 90
1
176
1
 40
1.0
176
1
 90
8
176
1
 62
7
176
1
 40
1.0
176
1
 90
1
176
1
 90
6
176
1
 90
2
176
1
 62
7
176
1
 90
5
176
1
 90
0
176
1
 90
0
176
1
290
0
176
1
 90
1
176
1
 40
0.0
176
1
 90
0
176
1
290
0
176
1
290
1
176
1
290
1
176
1
290
0
176
1
290
0
176
1
290
0
176
1
290
0
176
1
290
0
176
1
290
0
176
1
 90
50
176
1
 40
0.0
176
1
 40
1.0
176
1
 90
0
176
1
 62
18
420
0
176
1
 90
50
176
1
 90
3
176
1
 62
5
420
255
176
1
290
0
176
1
 90
50
176
1
 90
50
176
1
 90
50
176
1
290
0
176
1
 90
50
176
1
 62
256
176
0
 40
1.0
176
0
 90
2
176
1
  1
strokes_ogs.tif
176
1
290
0
176
1
 40
1.0
176
1
 40
1.0
176
1
  0
VISUALSTYLE
  5
6B
102
{ACAD_REACTORS
330
16
102
}
330
16
100
AcDbVisualStyle
  2
Realistic
 70
8
177
3
291
0
 70
58
 90
2
176
1
 90
2
176
1
 90
0
176
1
 90
2
176
1
 40
0.6
176
1
 40
30.0
176
1
 62
7
420
16777215
176
1
 90
1
176
1
 90
4
176
1
 62
7
176
1
 62
257
176
1
 90
1
176
1
 90
1
176
1
 40
1.0
176
1
 90
8
176
1
 62
7
176
1
 40
1.0
176
1
 90
1
176
1
 90
6
176
1
 90
2
176
1
 62
7
176
1
 90
5
176
1
 90
0
176
1
 90
0
176
1
290
0
176
1
 90
1
176
1
 40
0.0
176
1
 90
0
176
1
290
0
176
1
290
1
176
1
290
1
176
1
290
0
176
1
290
0
176
1
290
0
176
1
290
0
176
1
290
0
176
1
290
0
176
1
 90
50
176
1
 40
0.0
176
1
 40
1.0
176
1
 90
0
176
1
 62
18
420
0
176
1
 90
50
176
1
 90
3
176
1
 62
5
420
255
176
1
290
0
176
1
 90
50
176
1
 90
50
176
1
 90
50
176
1
290
0
176
1
 90
50
176
1
 62
256
176
0
 40
1.0
176
0
 90
2
176
1
  1
strokes_ogs.tif
176
1
290
0
176
1
 40
1.0
176
1
 40
1.0
176
1
  0
VISUALSTYLE
  5
6C
102
{ACAD_REACTORS
330
16
102
}
330
16
100
AcDbVisualStyle
  2
Shaded
 70
27
177
3
291
0
 70
58
 90
2
176
1
 90
2
176
1
 90
0
176
1
 90
2
176
1
 40
0.6
176
1
 40
30.0
176
1
 62
7
420
16777215
176
1
 90
1
176
1
 90
4
176
1
 62
7
176
1
 62
257
176
1
 90
1
176
1
 90
1
176
1
 40
1.0
176
1
 90
8
176
1
 62
7
176
1
 40
1.0
176
1
 90
1
176
1
 90
6
176
1
 90
2
176
1
 62
7
176
1
 90
5
176
1
 90
0
176
1
 90
0
176
1
290
0
176
1
 90
1
176
1
 40
0.0
176
1
 90
0
176
1
290
0
176
1
290
1
176
1
290
1
176
1
290
0
176
1
290
0
176
1
290
0
176
1
290
0
176
1
290
0
176
1
290
0
176
1
 90
50
176
1
 40
0.0
176
1
 40
1.0
176
1
 90
0
176
1
 62
18
420
0
176
1
 90
50
176
1
 90
3
176
1
 62
5
420
255
176
1
290
0
176
1
 90
50
176
1
 90
50
176
1
 90
50
176
1
290
0
176
1
 90
50
176
1
 62
256
176
0
 40
1.0
176
0
 90
2
176
1
  1
strokes_ogs.tif
176
1
290
0
176
1
 40
1.0
176
1
 40
1.0
176
1
  0
VISUALSTYLE
  5
6D
102
{ACAD_REACTORS
330
16
102
}
330
16
100
AcDbVisualStyle
  2
Shaded with edges
 70
26
177
3
291
0
 70
58
 90
2
176
1
 90
2
176
1
 90
0
176
1
 90
2
176
1
 40
0.6
176
1
 40
30.0
176
1
 62
7
420
16777215
176
1
 90
1
176
1
 90
4
176
1
 62
7
176
1
 62
257
176
1
 90
1
176
1
 90
1
176
1
 40
1.0
176
1
 90
8
176
1
 62
7
176
1
 40
1.0
176
1
 90
1
176
1
 90
6
176
1
 90
2
176
1
 62
7
176
1
 90
5
176
1
 90
0
176
1
 90
0
176
1
290
0
176
1
 90
1
176
1
 40
0.0
176
1
 90
0
176
1
290
0
176
1
290
1
176
1
290
1
176
1
290
0
176
1
290
0
176
1
290
0
176
1
290
0
176
1
290
0
176
1
290
0
176
1
 90
50
176
1
 40
0.0
176
1
 40
1.0
176
1
 90
0
176
1
 62
18
420
0
176
1
 90
50
176
1
 90
3
176
1
 62
5
420
255
176
1
290
0
176
1
 90
50
176
1
 90
50
176
1
 90
50
176
1
290
0
176
1
 90
50
176
1
 62
256
176
0
 40
1.0
176
0
 90
2
176
1
  1
strokes_ogs.tif
176
1
290
0
176
1
 40
1.0
176
1
 40
1.0
176
1
  0
VISUALSTYLE
  5
6E
102
{ACAD_REACTORS
330
16
102
}
330
16
100
AcDbVisualStyle
  2
Shades of Gray
 70
23
177
3
291
0
 70
58
 90
2
176
1
 90
2
176
1
 90
0
176
1
 90
2
176
1
 40
0.6
176
1
 40
30.0
176
1
 62
7
420
16777215
176
1
 90
1
176
1
 90
4
176
1
 62
7
176
1
 62
257
176
1
 90
1
176
1
 90
1
176
1
 40
1.0
176
1
 90
8
176
1
 62
7
176
1
 40
1.0
176
1
 90
1
176
1
 90
6
176
1
 90
2
176
1
 62
7
176
1
 90
5
176
1
 90
0
176
1
 90
0
176
1
290
0
176
1
 90
1
176
1
 40
0.0
176
1
 90
0
176
1
290
0
176
1
290
1
176
1
290
1
176
1
290
0
176
1
290
0
176
1
290
0
176
1
290
0
176
1
290
0
176
1
290
0
176
1
 90
50
176
1
 40
0.0
176
1
 40
1.0
176
1
 90
0
176
1
 62
18
420
0
176
1
 90
50
176
1
 90
3
176
1
 62
5
420
255
176
1
290
0
176
1
 90
50
176
1
 90
50
176
1
 90
50
176
1
290
0
176
1
 90
50
176
1
 62
256
176
0
 40
1.0
176
0
 90
2
176
1
  1
strokes_ogs.tif
176
1
290
0
176
1
 40
1.0
176
1
 40
1.0
176
1
  0
VISUALSTYLE
  5
6F
102
{ACAD_REACTORS
330
16
102
}
330
16
100
AcDbVisualStyle
  2
Sketchy
 70
24
177
3
291
0
 70
58
 90
2
176
1
 90
2
176
1
 90
0
176
1
 90
1
176
1
 40
0.6
176
1
 40
30.0
176
1
 62
7
420
16777215
176
1
 90
1
176
1
 90
4
176
1
 62
7
176
1
 62
257
176
1
 90
1
176
1
 90
1
176
1
 40
1.0
176
1
 90
8
176
1
 62
7
176
1
 40
1.0
176
1
 90
1
176
1
 90
6
176
1
 90
2
176
1
 62
7
176
1
 90
5
176
1
 90
0
176
1
 90
0
176
1
290
0
176
1
 90
1
176
1
 40
0.0
176
1
 90
0
176
1
290
0
176
1
290
1
176
1
290
1
176
1
290
0
176
1
290
0
176
1
290
0
176
1
290
0
176
1
290
0
176
1
290
0
176
1
 90
50
176
1
 40
0.0
176
1
 40
1.0
176
1
 90
0
176
1
 62
18
420
0
176
1
 90
50
176
1
 90
3
176
1
 62
5
420
255
176
1
290
0
176
1
 90
50
176
1
 90
50
176
1
 90
50
176
1
290
0
176
1
 90
50
176
1
 62
256
176
0
 40
1.0
176
0
 90
2
176
1
  1
strokes_ogs.tif
176
1
290
0
176
1
 40
1.0
176
1
 40
1.0
176
1
  0
VISUALSTYLE
  5
70
102
{ACAD_REACTORS
330
16
102
}
330
16
100
AcDbVisualStyle
  2
Thicken
 70
13
177
3
291
1
 70
58
 90
2
176
1
 90
2
176
1
 90
0
176
1
 90
2
176
1
 40
0.6
176
1
 40
30.0
176
1
 62
7
420
16777215
176
1
 90
1
176
1
 90
4
176
1
 62
7
176
1
 62
257
176
1
 90
1
176
1
 90
1
176
1
 40
1.0
176
1
 90
8
176
1
 62
7
176
1
 40
1.0
176
1
 90
1
176
1
 90
6
176
1
 90
2
176
1
 62
7
176
1
 90
5
176
1
 90
0
176
1
 90
0
176
1
290
0
176
1
 90
1
176
1
 40
0.0
176
1
 90
0
176
1
290
0
176
1
290
1
176
1
290
1
176
1
290
0
176
1
290
0
176
1
290
0
176
1
290
0
176
1
290
0
176
1
290
0
176
1
 90
50
176
1
 40
0.0
176
1
 40
1.0
176
1
 90
0
176
1
 62
18
420
0
176
1
 90
50
176
1
 90
3
176
1
 62
5
420
255
176
1
290
0
176
1
 90
50
176
1
 90
50
176
1
 90
50
176
1
290
0
176
1
 90
50
176
1
 62
256
176
0
 40
1.0
176
0
 90
2
176
1
  1
strokes_ogs.tif
176
1
290
0
176
1
 40
1.0
176
1
 40
1.0
176
1
  0
VISUALSTYLE
  5
71
102
{ACAD_REACTORS
330
16
102
}
330
16
100
AcDbVisualStyle
  2
Wireframe
 70
5
177
3
291
0
 70
58
 90
2
176
1
 90
2
176
1
 90
0
176
1
 90
0
176
1
 40
0.6
176
1
 40
30.0
176
1
 62
7
420
16777215
176
1
 90
1
176
1
 90
4
176
1
 62
7
176
1
 62
257
176
1
 90
1
176
1
 90
1
176
1
 40
1.0
176
1
 90
8
176
1
 62
7
176
1
 40
1.0
176
1
 90
1
176
1
 90
6
176
1
 90
2
176
1
 62
7
176
1
 90
5
176
1
 90
0
176
1
 90
0
176
1
290
0
176
1
 90
1
176
1
 40
0.0
176
1
 90
0
176
1
290
0
176
1
290
1
176
1
290
1
176
1
290
0
176
1
290
0
176
1
290
0
176
1
290
0
176
1
290
0
176
1
290
0
176
1
 90
50
176
1
 40
0.0
176
1
 40
1.0
176
1
 90
0
176
1
 62
18
420
0
176
1
 90
50
176
1
 90
3
176
1
 62
5
420
255
176
1
290
0
176
1
 90
50
176
1
 90
50
176
1
 90
50
176
1
290
0
176
1
 90
50
176
1
 62
256
176
0
 40
1.0
176
0
 90
2
176
1
  1
strokes_ogs.tif
176
1
290
0
176
1
 40
1.0
176
1
 40
1.0
176
1
  0
VISUALSTYLE
  5
72
102
{ACAD_REACTORS
330
16
102
}
330
16
100
AcDbVisualStyle
  2
X-Ray
 70
25
177
3
291
0
 70
58
 90
2
176
1
 90
2
176
1
 90
0
176
1
 90
2
176
1
 40
0.5
176
1
 40
30.0
176
1
 62
7
420
16777215
176
1
 90
1
176
1
 90
4
176
1
 62
7
176
1
 62
257
176
1
 90
1
176
1
 90
1
176
1
 40
1.0
176
1
 90
8
176
1
 62
7
176
1
 40
1.0
176
1
 90
1
176
1
 90
6
176
1
 90
2
176
1
 62
7
176
1
 90
5
176
1
 90
0
176
1
 90
0
176
1
290
0
176
1
 90
1
176
1
 40
0.0
176
1
 90
0
176
1
290
0
176
1
290
1
176
1
290
1
176
1
290
0
176
1
290
0
176
1
290
0
176
1
290
0
176
1
290
0
176
1
290
0
176
1
 90
50
176
1
 40
0.0
176
1
 40
1.0
176
1
 90
0
176
1
 62
18
420
0
176
1
 90
50
176
1
 90
3
176
1
 62
5
420
255
176
1
290
0
176
1
 90
50
176
1
 90
50
176
1
 90
50
176
1
290
0
176
1
 90
50
176
1
 62
256
176
0
 40
1.0
176
0
 90
2
176
1
  1
strokes_ogs.tif
176
1
290
0
176
1
 40
1.0
176
1
 40
1.0
176
1
  0
DICTIONARYVAR
  5
AD
330
2D
100
DictionaryVariables
280
0
  1
1.4.4 @ 2026-09-06T20:32:44.364249+00:00
  0
ENDSEC
  0
EOF
