  0
SECTION
  2
HEADER
  9
$ACADVER
  1
AC1032
  9
$ACADMAINTVER
 90
4
  9
$DWGCODEPAGE
  3
ANSI_1252
  9
$LASTSAVEDBY
  1
ezdxf
  9
$REQUIREDVERSIONS
160
0
  9
$INSBASE
 10
0.0
 20
0.0
 30
0.0
  9
$EXTMIN
 10
1e+20
 20
1e+20
 30
1e+20
  9
$EXTMAX
 10
-1e+20
 20
-1e+20
 30
-1e+20
  9
$LIMMIN
 10
0.0
 20
0.0
  9
$LIMMAX
 10
420.0
 20
297.0
  9
$ORTHOMODE
 70
0
  9
$REGENMODE
 70
1
  9
$FILLMODE
 70
1
  9
$QTEXTMODE
 70
0
  9
$MIRRTEXT
 70
1
  9
$LTSCALE
 40
1.0
  9
$ATTMODE
 70
1
  9
$TEXTSIZE
 40
2.5
  9
$TRACEWID
 40
1.0
  9
$TEXTSTYLE
  7
OpenSans
  9
$CLAYER
  8
0
  9
$CELTYPE
  6
ByLayer
  9
$CECOLOR
 62
256
  9
$CELTSCALE
 40
1.0
  9
$DISPSILH
 70
0
  9
$DIMSCALE
 40
1.0
  9
$DIMASZ
 40
0.175
  9
$DIMEXO
 40
0.125
  9
$DIMDLI
 40
3.75
  9
$DIMRND
 40
0.0
  9
$DIMDLE
 40
0.0
  9
$DIMEXE
 40
0.375
  9
$DIMTP
 40
0.0
  9
$DIMTM
 40
0.0
  9
$DIMTXT
 40
0.25
  9
$DIMCEN
 40
2.5
  9
$DIMTSZ
 40
0.0
  9
$DIMTOL
 70
0
  9
$DIMLIM
 70
0
  9
$DIMTIH
 70
0
  9
$DIMTOH
 70
0
  9
$DIMSE1
 70
0
  9
$DIMSE2
 70
0
  9
$DIMTAD
 70
1
  9
$DIMZIN
 70
12
  9
$DIMBLK
  1
ARCHTICK
  9
$DIMASO
 70
1
  9
$DIMSHO
 70
1
  9
$DIMPOST
  1

  9
$DIMAPOST
  1

  9
$DIMALT
 70
0
  9
$DIMALTD
 70
3
  9
$DIMALTF
 40
0.03937007874
  9
$DIMLFAC
 40
100.0
  9
$DIMTOFL
 70
1
  9
$DIMTVP
 40
0.0
  9
$DIMTIX
 70
0
  9
$DIMSOXD
 70
0
  9
$DIMSAH
 70
0
  9
$DIMBLK1
  1

  9
$DIMBLK2
  1

  9
$DIMSTYLE
  2
EZDXF
  9
$DIMCLRD
 70
0
  9
$DIMCLRE
 70
0
  9
$DIMCLRT
 70
0
  9
$DIMTFAC
 40
0.5
  9
$DIMGAP
 40
0.1
  9
$DIMJUST
 70
0
  9
$DIMSD1
 70
0
  9
$DIMSD2
 70
0
  9
$DIMTOLJ
 70
0
  9
$DIMTZIN
 70
8
  9
$DIMALTZ
 70
0
  9
$DIMALTTZ
 70
0
  9
$DIMUPT
 70
1
  9
$DIMDEC
 70
2
  9
$DIMTDEC
 70
2
  9
$DIMALTU
 70
2
  9
$DIMALTTD
 70
3
  9
$DIMTXSTY
  7
OpenSansCondensed-Light
  9
$DIMAUNIT
 70
0
  9
$DIMADEC
 70
2
  9
$DIMALTRND
 40
0.0
  9
$DIMAZIN
 70
3
  9
$DIMDSEP
 70
46
  9
$DIMATFIT
 70
3
  9
$DIMFRAC
 70
0
  9
$DIMLDRBLK
  1

  9
$DIMLUNIT
 70
2
  9
$DIMLWD
 70
-2
  9
$DIMLWE
 70
-2
  9
$DIMTMOVE
 70
2
  9
$DIMFXL
 40
1.0
  9
$DIMFXLON
 70
0
  9
$DIMJOGANG
 40
0.785398163397
  9
$DIMTFILL
 70
0
  9
$DIMTFILLCLR
 70
0
  9
$DIMARCSYM
 70
0
  9
$DIMLTYPE
  6

  9
$DIMLTEX1
  6

  9
$DIMLTEX2
  6

  9
$DIMTXTDIRECTION
 70
0
  9
$LUNITS
 70
2
  9
$LUPREC
 70
4
  9
$SKETCHINC
 40
1.0
  9
$FILLETRAD
 40
10.0
  9
$AUNITS
 70
0
  9
$AUPREC
 70
2
  9
$MENU
  1
.
  9
$ELEVATION
 40
0.0
  9
$PELEVATION
 40
0.0
  9
$THICKNESS
 40
0.0
  9
$LIMCHECK
 70
0
  9
$CHAMFERA
 40
0.0
  9
$CHAMFERB
 40
0.0
  9
$CHAMFERC
 40
0.0
  9
$CHAMFERD
 40
0.0
  9
$SKPOLY
 70
0
  9
$TDCREATE
 40
2461291.04125
  9
$TDUCREATE
 40
2458532.153996898
  9
$TDUPDATE
 40
2461291.04125
  9
$TDUUPDATE
 40
2458532.1544311
  9
$TDINDWG
 40
0.0
  9
$TDUSRTIMER
 40
0.0
  9
$USRTIMER
 70
1
  9
$ANGBASE
 50
0.0
  9
$ANGDIR
 70
0
  9
$PDMODE
 70
0
  9
$PDSIZE
 40
0.0
  9
$PLINEWID
 40
0.0
  9
$SPLFRAME
 70
0
  9
$SPLINETYPE
 70
6
  9
$SPLINESEGS
 70
8
  9
$HANDSEED
  5
C3
  9
$SURFTAB1
 70
6
  9
$SURFTAB2
 70
6
  9
$SURFTYPE
 70
6
  9
$SURFU
 70
6
  9
$SURFV
 70
6
  9
$UCSBASE
  2

  9
$UCSNAME
  2

  9
$UCSORG
 10
0.0
 20
0.0
 30
0.0
  9
$UCSXDIR
 10
1.0
 20
0.0
 30
0.0
  9
$UCSYDIR
 10
0.0
 20
1.0
 30
0.0
  9
$UCSORTHOREF
  2

  9
$UCSORTHOVIEW
 70
0
  9
$UCSORGTOP
 10
0.0
 20
0.0
 30
0.0
  9
$UCSORGBOTTOM
 10
0.0
 20
0.0
 30
0.0
  9
$UCSORGLEFT
 10
0.0
 20
0.0
 30
0.0
  9
$UCSORGRIGHT
 10
0.0
 20
0.0
 30
0.0
  9
$UCSORGFRONT
 10
0.0
 20
0.0
 30
0.0
  9
$UCSORGBACK
 10
0.0
 20
0.0
 30
0.0
  9
$PUCSBASE
  2

  9
$PUCSNAME
  2

  9
$PUCSORG
 10
0.0
 20
0.0
 30
0.0
  9
$PUCSXDIR
 10
1.0
 20
0.0
 30
0.0
  9
$PUCSYDIR
 10
0.0
 20
1.0
 30
0.0
  9
$PUCSORTHOREF
  2

  9
$PUCSORTHOVIEW
 70
0
  9
$PUCSORGTOP
 10
0.0
 20
0.0
 30
0.0
  9
$PUCSORGBOTTOM
 10
0.0
 20
0.0
 30
0.0
  9
$PUCSORGLEFT
 10
0.0
 20
0.0
 30
0.0
  9
$PUCSORGRIGHT
 10
0.0
 20
0.0
 30
0.0
  9
$PUCSORGFRONT
 10
0.0
 20
0.0
 30
0.0
  9
$PUCSORGBACK
 10
0.0
 20
0.0
 30
0.0
  9
$USERI1
 70
0
  9
$USERI2
 70
0
  9
$USERI3
 70
0
  9
$USERI4
 70
0
  9
$USERI5
 70
0
  9
$USERR1
 40
0.0
  9
$USERR2
 40
0.0
  9
$USERR3
 40
0.0
  9
$USERR4
 40
0.0
  9
$USERR5
 40
0.0
  9
$WORLDVIEW
 70
1
  9
$SHADEDGE
 70
3
  9
$SHADEDIF
 70
70
  9
$TILEMODE
 70
1
  9
$MAXACTVP
 70
64
  9
$PINSBASE
 10
0.0
 20
0.0
 30
0.0
  9
$PLIMCHECK
 70
0
  9
$PEXTMIN
 10
1e+20
 20
1e+20
 30
1e+20
  9
$PEXTMAX
 10
-1e+20
 20
-1e+20
 30
-1e+20
  9
$PLIMMIN
 10
0.0
 20
0.0
  9
$PLIMMAX
 10
420.0
 20
297.0
  9
$UNITMODE
 70
0
  9
$VISRETAIN
 70
1
  9
$PLINEGEN
 70
0
  9
$PSLTSCALE
 70
1
  9
$TREEDEPTH
 70
3020
  9
$CMLSTYLE
  2
Standard
  9
$CMLJUST
 70
0
  9
$CMLSCALE
 40
20.0
  9
$PROXYGRAPHICS
 70
1
  9
$MEASUREMENT
 70
1
  9
$CELWEIGHT
370
-1
  9
$ENDCAPS
280
0
  9
$JOINSTYLE
280
0
  9
$LWDISPLAY
290
0
  9
$INSUNITS
 70
4
  9
$HYPERLINKBASE
  1

  9
$STYLESHEET
  1

  9
$XEDIT
290
1
  9
$CEPSNTYPE
380
0
  9
$PSTYLEMODE
290
1
  9
$FINGERPRINTGUID
  2
{BAC2AF3A-21FB-4D93-A6A0-5AA161C5B03F}
  9
$VERSIONGUID
  2
{921A734B-E928-498B-8A20-18C3B42C14CC}
  9
$EXTNAMES
290
1
  9
$PSVPSCALE
 40
0.0
  9
$OLESTARTUP
290
0
  9
$SORTENTS
280
127
  9
$INDEXCTL
280
0
  9
$HIDETEXT
280
1
  9
$XCLIPFRAME
280
1
  9
$HALOGAP
280
0
  9
$OBSCOLOR
 70
257
  9
$OBSLTYPE
280
0
  9
$INTERSECTIONDISPLAY
280
0
  9
$INTERSECTIONCOLOR
 70
257
  9
$DIMASSOC
280
2
  9
$PROJECTNAME
  1

  9
$CAMERADISPLAY
290
0
  9
$LENSLENGTH
 40
50.0
  9
$CAMERAHEIGHT
 40
0.0
  9
$STEPSPERSEC
 40
24.0
  9
$STEPSIZE
 40
100.0
  9
$3DDWFPREC
 40
2.0
  9
$PSOLWIDTH
 40
0.005
  9
$PSOLHEIGHT
 40
0.08
  9
$LOFTANG1
 40
1.570796326795
  9
$LOFTANG2
 40
1.570796326795
  9
$LOFTMAG1
 40
0.0
  9
$LOFTMAG2
 40
0.0
  9
$LOFTPARAM
 70
7
  9
$LOFTNORMALS
280
1
  9
$LATITUDE
 40
37.795
  9
$LONGITUDE
 40
-122.394
  9
$NORTHDIRECTION
 40
0.0
  9
$TIMEZONE
 70
-8000
  9
$LIGHTGLYPHDISPLAY
280
1
  9
$TILEMODELIGHTSYNCH
280
1
  9
$CMATERIAL
347
20
  9
$SOLIDHIST
280
0
  9
$SHOWHIST
280
1
  9
$DWFFRAME
280
2
  9
$DGNFRAME
280
2
  9
$REALWORLDSCALE
290
1
  9
$INTERFERECOLOR
 62
256
  9
$CSHADOW
280
0
  9
$SHADOWPLANELOCATION
 40
0.0
  0
ENDSEC
  0
SECTION
  2
CLASSES
  0
CLASS
  1
ACDBDICTIONARYWDFLT
  2
AcDbDictionaryWithDefault
  3
ObjectDBX Classes
 90
0
 91
0
280
0
281
0
  0
CLASS
  1
SUN
  2
AcDbSun
  3
SCENEOE
 90
1153
 91
0
280
0
281
0
  0
CLASS
  1
VISUALSTYLE
  2
AcDbVisualStyle
  3
ObjectDBX Classes
 90
4095
 91
0
280
0
281
0
  0
CLASS
  1
MATERIAL
  2
AcDbMaterial
  3
ObjectDBX Classes
 90
1153
 91
0
280
0
281
0
  0
CLASS
  1
SCALE
  2
AcDbScale
  3
ObjectDBX Classes
 90
1153
 91
0
280
0
281
0
  0
CLASS
  1
TABLESTYLE
  2
AcDbTableStyle
  3
ObjectDBX Classes
 90
4095
 91
0
280
0
281
0
  0
CLASS
  1
MLEADERSTYLE
  2
AcDbMLeaderStyle
  3
ACDB_MLEADERSTYLE_CLASS
 90
4095
 91
0
280
0
281
0
  0
CLASS
  1
DICTIONARYVAR
  2
AcDbDictionaryVar
  3
ObjectDBX Classes
 90
0
 91
0
280
0
281
0
  0
CLASS
  1
CELLSTYLEMAP
  2
AcDbCellStyleMap
  3
ObjectDBX Classes
 90
1152
 91
0
280
0
281
0
  0
CLASS
  1
MENTALRAYRENDERSETTINGS
  2
AcDbMentalRayRenderSettings
  3
SCENEOE
 90
1024
 91
0
280
0
281
0
  0
CLASS
  1
ACDBDETAILVIEWSTYLE
  2
AcDbDetailViewStyle
  3
ObjectDBX Classes
 90
1025
 91
0
280
0
281
0
  0
CLASS
  1
ACDBSECTIONVIEWSTYLE
  2
AcDbSectionViewStyle
  3
ObjectDBX Classes
 90
1025
 91
0
280
0
281
0
  0
CLASS
  1
RASTERVARIABLES
  2
AcDbRasterVariables
  3
ISM
 90
0
 91
0
280
0
281
0
  0
CLASS
  1
LAYOUT
  2
AcDbLayout
  3
ObjectDBX Classes
 90
0
 91
0
280
0
281
0
  0
CLASS
  1
ACDBPLACEHOLDER
  2
AcDbPlaceHolder
  3
ObjectDBX Classes
 90
0
 91
0
280
0
281
0
  0
ENDSEC
  0
SECTION
  2
TABLES
  0
TABLE
  2
VPORT
  5
8
330
0
100
AcDbSymbolTable
 70
1
  0
VPORT
  5
23
330
8
100
AcDbSymbolTableRecord
100
AcDbViewportTableRecord
  2
*Active
 70
0
 10
0.0
 20
0.0
 11
1.0
 21
1.0
 12
0.0
 22
0.0
 13
0.0
 23
0.0
 14
0.5
 24
0.5
 15
0.5
 25
0.5
 16
0.0
 26
0.0
 36
1.0
 17
0.0
 27
0.0
 37
0.0
 40
1000.0
 41
1.34
 42
50.0
 43
0.0
 44
0.0
 50
0.0
 51
0.0
 71
0
 72
1000
 73
1
 74
3
 75
0
 76
0
 77
0
 78
0
281
0
 65
0
146
0.0
  0
ENDTAB
  0
TABLE
  2
LTYPE
  5
2
330
0
100
AcDbSymbolTable
 70
21
  0
LTYPE
  5
24
330
2
100
AcDbSymbolTableRecord
100
AcDbLinetypeTableRecord
  2
ByBlock
 70
0
  3

 72
65
 73
0
 40
0.0
  0
LTYPE
  5
25
330
2
100
AcDbSymbolTableRecord
100
AcDbLinetypeTableRecord
  2
ByLayer
 70
0
  3

 72
65
 73
0
 40
0.0
  0
LTYPE
  5
26
330
2
100
AcDbSymbolTableRecord
100
AcDbLinetypeTableRecord
  2
Continuous
 70
0
  3

 72
65
 73
0
 40
0.0
  0
LTYPE
  5
2F
330
2
100
AcDbSymbolTableRecord
100
AcDbLinetypeTableRecord
  2
CENTER
 70
0
  3
Center ____ _ ____ _ ____ _ ____ _ ____ _ ____
 72
65
 73
4
 40
5.08
 49
3.175
 74
0
 49
-0.635
 74
0
 49
0.635
 74
0
 49
-0.635
 74
0
  0
LTYPE
  5
30
330
2
100
AcDbSymbolTableRecord
100
AcDbLinetypeTableRecord
  2
CENTERX2
 70
0
  3
Center (2x) ________  __  ________  __  ________
 72
65
 73
4
 40
8.89
 49
6.35
 74
0
 49
-0.635
 74
0
 49
1.27
 74
0
 49
-0.635
 74
0
  0
LTYPE
  5
31
330
2
100
AcDbSymbolTableRecord
100
AcDbLinetypeTableRecord
  2
CENTER2
 70
0
  3
Center (.5x) ____ _ ____ _ ____ _ ____ _ ____
 72
65
 73
4
 40
2.54
 49
1.587
 74
0
 49
-0.318
 74
0
 49
0.318
 74
0
 49
-0.318
 74
0
  0
LTYPE
  5
32
330
2
100
AcDbSymbolTableRecord
100
AcDbLinetypeTableRecord
  2
DASHED
 70
0
  3
Dashed __ __ __ __ __ __ __ __ __ __ __ __ __ _
 72
65
 73
2
 40
1.524
 49
1.27
 74
0
 49
-0.254
 74
0
  0
LTYPE
  5
33
330
2
100
AcDbSymbolTableRecord
100
AcDbLinetypeTableRecord
  2
DASHEDX2
 70
0
  3
Dashed (2x) ____  ____  ____  ____  ____  ____
 72
65
 73
2
 40
3.048
 49
2.54
 74
0
 49
-0.508
 74
0
  0
LTYPE
  5
34
330
2
100
AcDbSymbolTableRecord
100
AcDbLinetypeTableRecord
  2
DASHED2
 70
0
  3
Dashed (.5x) _ _ _ _ _ _ _ _ _ _ _ _ _ _
 72
65
 73
2
 40
0.762
 49
0.635
 74
0
 49
-0.127
 74
0
  0
LTYPE
  5
35
330
2
100
AcDbSymbolTableRecord
100
AcDbLinetypeTableRecord
  2
PHANTOM
 70
0
  3
Phantom ______  __  __  ______  __  __  ______
 72
65
 73
6
 40
6.35
 49
3.175
 74
0
 49
-0.635
 74
0
 49
0.635
 74
0
 49
-0.635
 74
0
 49
0.635
 74
0
 49
-0.635
 74
0
  0
LTYPE
  5
36
330
2
100
AcDbSymbolTableRecord
100
AcDbLinetypeTableRecord
  2
PHANTOMX2
 70
0
  3
Phantom (2x)____________    ____    ____    ____________
 72
65
 73
6
 40
10.795
 49
6.35
 74
0
 49
-0.635
 74
0
 49
1.27
 74
0
 49
-0.635
 74
0
 49
1.27
 74
0
 49
-0.635
 74
0
  0
LTYPE
  5
37
330
2
100
AcDbSymbolTableRecord
100
AcDbLinetypeTableRecord
  2
PHANTOM2
 70
0
  3
Phantom (.5x) ___ _ _ ___ _ _ ___ _ _ ___ _ _ ___
 72
65
 73
6
 40
3.175
 49
1.587
 74
0
 49
-0.318
 74
0
 49
0.318
 74
0
 49
-0.318
 74
0
 49
0.318
 74
0
 49
-0.318
 74
0
  0
LTYPE
  5
38
330
2
100
AcDbSymbolTableRecord
100
AcDbLinetypeTableRecord
  2
DASHDOT
 70
0
  3
Dash dot __ . __ . __ . __ . __ . __ . __ . __
 72
65
 73
4
 40
3.556
 49
2.54
 74
0
 49
-0.508
 74
0
 49
0.0
 74
0
 49
-0.508
 74
0
  0
LTYPE
  5
39
330
2
100
AcDbSymbolTableRecord
100
AcDbLinetypeTableRecord
  2
DASHDOTX2
 70
0
  3
Dash dot (2x) ____  .  ____  .  ____  .  ____
 72
65
 73
4
 40
6.096
 49
5.08
 74
0
 49
-0.508
 74
0
 49
0.0
 74
0
 49
-0.508
 74
0
  0
LTYPE
  5
3A
330
2
100
AcDbSymbolTableRecord
100
AcDbLinetypeTableRecord
  2
DASHDOT2
 70
0
  3
Dash dot (.5x) _ . _ . _ . _ . _ . _ . _ . _
 72
65
 73
4
 40
1.778
 49
1.27
 74
0
 49
-0.254
 74
0
 49
0.0
 74
0
 49
-0.254
 74
0
  0
LTYPE
  5
3B
330
2
100
AcDbSymbolTableRecord
100
AcDbLinetypeTableRecord
  2
DOT
 70
0
  3
Dot .  .  .  .  .  .  .  .  .  .  .  .  .  .  .  .
 72
65
 73
2
 40
0.508
 49
0.0
 74
0
 49
-0.508
 74
0
  0
LTYPE
  5
3C
330
2
100
AcDbSymbolTableRecord
100
AcDbLinetypeTableRecord
  2
DOTX2
 70
0
  3
Dot (2x) .    .    .    .    .    .    .    . 
 72
65
 73
2
 40
1.016
 49
0.0
 74
0
 49
-1.016
 74
0
  0
LTYPE
  5
3D
330
2
100
AcDbSymbolTableRecord
100
AcDbLinetypeTableRecord
  2
DOT2
 70
0
  3
Dot (.5) . . . . . . . . . . . . . . . . . . . 
 72
65
 73
2
 40
0.254
 49
0.0
 74
0
 49
-0.254
 74
0
  0
LTYPE
  5
3E
330
2
100
AcDbSymbolTableRecord
100
AcDbLinetypeTableRecord
  2
DIVIDE
 70
0
  3
Divide __ . . __ . . __ . . __ . . __ . . __
 72
65
 73
6
 40
4.064
 49
2.54
 74
0
 49
-0.508
 74
0
 49
0.0
 74
0
 49
-0.508
 74
0
 49
0.0
 74
0
 49
-0.508
 74
0
  0
LTYPE
  5
3F
330
2
100
AcDbSymbolTableRecord
100
AcDbLinetypeTableRecord
  2
DIVIDEX2
 70
0
  3
Divide (2x) ____  . .  ____  . .  ____  . .  ____
 72
65
 73
6
 40
6.604
 49
5.08
 74
0
 49
-0.508
 74
0
 49
0.0
 74
0
 49
-0.508
 74
0
 49
0.0
 74
0
 49
-0.508
 74
0
  0
LTYPE
  5
40
330
2
100
AcDbSymbolTableRecord
100
AcDbLinetypeTableRecord
  2
DIVIDE2
 70
0
  3
Divide(.5x) _ . _ . _ . _ . _ . _ . _ . _
 72
65
 73
6
 40
2.032
 49
1.27
 74
0
 49
-0.254
 74
0
 49
0.0
 74
0
 49
-0.254
 74
0
 49
0.0
 74
0
 49
-0.254
 74
0
  0
ENDTAB
  0
TABLE
  2
LAYER
  5
1
330
0
100
AcDbSymbolTable
 70
6
  0
LAYER
  5
27
330
1
100
AcDbSymbolTableRecord
100
AcDbLayerTableRecord
  2
0
 70
0
 62
7
  6
Continuous
370
-3
390
13
347
21
  0
LAYER
  5
28
330
1
100
AcDbSymbolTableRecord
100
AcDbLayerTableRecord
  2
Defpoints
 70
0
 62
7
  6
Continuous
290
0
370
-3
390
13
347
21
  0
LAYER
  5
8A
330
1
100
AcDbSymbolTableRecord
100
AcDbLayerTableRecord
  2
CORTE
 70
0
 62
1
  6
CONTINUOUS
370
50
390
13
347
21
  0
LAYER
  5
8B
330
1
100
AcDbSymbolTableRecord
100
AcDbLayerTableRecord
  2
PLIEGUE
 70
0
 62
5
  6
DASHDOT
370
25
390
13
347
21
  0
LAYER
  5
8C
330
1
100
AcDbSymbolTableRecord
100
AcDbLayerTableRecord
  2
TANGENTE
 70
0
 62
8
  6
DASHED
370
13
390
13
347
21
  0
LAYER
  5
8D
330
1
100
AcDbSymbolTableRecord
100
AcDbLayerTableRecord
  2
TEXTO
 70
0
 62
7
  6
CONTINUOUS
370
25
390
13
347
21
  0
ENDTAB
  0
TABLE
  2
STYLE
  5
5
330
0
100
AcDbSymbolTable
 70
26
  0
STYLE
  5
29
330
5
100
AcDbSymbolTableRecord
100
AcDbTextStyleTableRecord
  2
Standard
 70
0
 40
0.0
 41
1.0
 50
0.0
 71
0
 42
2.5
  3
txt
  4

  0
STYLE
  5
41
330
5
100
AcDbSymbolTableRecord
100
AcDbTextStyleTableRecord
  2
OpenSans-Light
 70
0
 40
0.0
 41
1.0
 50
0.0
 71
0
 42
2.5
  3
OpenSans-Light.ttf
  4

  0
STYLE
  5
42
330
5
100
AcDbSymbolTableRecord
100
AcDbTextStyleTableRecord
  2
OpenSans-Light-Italic
 70
0
 40
0.0
 41
1.0
 50
0.0
 71
0
 42
2.5
  3
OpenSans-LightItalic.ttf
  4

  0
STYLE
  5
43
330
5
100
AcDbSymbolTableRecord
100
AcDbTextStyleTableRecord
  2
OpenSans
 70
0
 40
0.0
 41
1.0
 50
0.0
 71
0
 42
2.5
  3
OpenSans-Regular.ttf
  4

  0
STYLE
  5
44
330
5
100
AcDbSymbolTableRecord
100
AcDbTextStyleTableRecord
  2
OpenSans-Italic
 70
0
 40
0.0
 41
1.0
 50
0.0
 71
0
 42
2.5
  3
OpenSans-Italic.ttf
  4

  0
STYLE
  5
45
330
5
100
AcDbSymbolTableRecord
100
AcDbTextStyleTableRecord
  2
OpenSans-SemiBold
 70
0
 40
0.0
 41
1.0
 50
0.0
 71
0
 42
2.5
  3
OpenSans-SemiBold.ttf
  4

  0
STYLE
  5
46
330
5
100
AcDbSymbolTableRecord
100
AcDbTextStyleTableRecord
  2
OpenSans-SemiBoldItalic
 70
0
 40
0.0
 41
1.0
 50
0.0
 71
0
 42
2.5
  3
OpenSans-SemiBoldItalic.ttf
  4

  0
STYLE
  5
47
330
5
100
AcDbSymbolTableRecord
100
AcDbTextStyleTableRecord
  2
OpenSans-Bold
 70
0
 40
0.0
 41
1.0
 50
0.0
 71
0
 42
2.5
  3
OpenSans-Bold.ttf
  4

  0
STYLE
  5
48
330
5
100
AcDbSymbolTableRecord
100
AcDbTextStyleTableRecord
  2
OpenSans-BoldItalic
 70
0
 40
0.0
 41
1.0
 50
0.0
 71
0
 42
2.5
  3
OpenSans-BoldItalic.ttf
  4

  0
STYLE
  5
49
330
5
100
AcDbSymbolTableRecord
100
AcDbTextStyleTableRecord
  2
OpenSans-ExtraBold
 70
0
 40
0.0
 41
1.0
 50
0.0
 71
0
 42
2.5
  3
OpenSans-ExtraBold.ttf
  4

  0
STYLE
  5
4A
330
5
100
AcDbSymbolTableRecord
100
AcDbTextStyleTableRecord
  2
OpenSans-ExtraBoldItalic
 70
0
 40
0.0
 41
1.0
 50
0.0
 71
0
 42
2.5
  3
OpenSans-ExtraBoldItalic.ttf
  4

  0
STYLE
  5
4B
330
5
100
AcDbSymbolTableRecord
100
AcDbTextStyleTableRecord
  2
OpenSansCondensed-Bold
 70
0
 40
0.0
 41
1.0
 50
0.0
 71
0
 42
2.5
  3
OpenSansCondensed-Bold.ttf
  4

  0
STYLE
  5
4C
330
5
100
AcDbSymbolTableRecord
100
AcDbTextStyleTableRecord
  2
OpenSansCondensed-Light
 70
0
 40
0.0
 41
1.0
 50
0.0
 71
0
 42
2.5
  3
OpenSansCondensed-Light.ttf
  4

  0
STYLE
  5
4D
330
5
100
AcDbSymbolTableRecord
100
AcDbTextStyleTableRecord
  2
OpenSansCondensed-Italic
 70
0
 40
0.0
 41
1.0
 50
0.0
 71
0
 42
2.5
  3
OpenSansCondensed-LightItalic.ttf
  4

  0
STYLE
  5
4E
330
5
100
AcDbSymbolTableRecord
100
AcDbTextStyleTableRecord
  2
LiberationSans
 70
0
 40
0.0
 41
1.0
 50
0.0
 71
0
 42
2.5
  3
LiberationSans-Regular.ttf
  4

  0
STYLE
  5
4F
330
5
100
AcDbSymbolTableRecord
100
AcDbTextStyleTableRecord
  2
LiberationSans-Bold
 70
0
 40
0.0
 41
1.0
 50
0.0
 71
0
 42
2.5
  3
LiberationSans-Bold.ttf
  4

  0
STYLE
  5
50
330
5
100
AcDbSymbolTableRecord
100
AcDbTextStyleTableRecord
  2
LiberationSans-BoldItalic
 70
0
 40
0.0
 41
1.0
 50
0.0
 71
0
 42
2.5
  3
LiberationSans-BoldItalic.ttf
  4

  0
STYLE
  5
51
330
5
100
AcDbSymbolTableRecord
100
AcDbTextStyleTableRecord
  2
LiberationSans-Italic
 70
0
 40
0.0
 41
1.0
 50
0.0
 71
0
 42
2.5
  3
LiberationSans-Italic.ttf
  4

  0
STYLE
  5
52
330
5
100
AcDbSymbolTableRecord
100
AcDbTextStyleTableRecord
  2
LiberationSerif
 70
0
 40
0.0
 41
1.0
 50
0.0
 71
0
 42
2.5
  3
LiberationSerif-Regular.ttf
  4

  0
STYLE
  5
53
330
5
100
AcDbSymbolTableRecord
100
AcDbTextStyleTableRecord
  2
LiberationSerif-Bold
 70
0
 40
0.0
 41
1.0
 50
0.0
 71
0
 42
2.5
  3
LiberationSerif-Bold.ttf
  4

  0
STYLE
  5
54
330
5
100
AcDbSymbolTableRecord
100
AcDbTextStyleTableRecord
  2
LiberationSerif-BoldItalic
 70
0
 40
0.0
 41
1.0
 50
0.0
 71
0
 42
2.5
  3
LiberationSerif-BoldItalic.ttf
  4

  0
STYLE
  5
55
330
5
100
AcDbSymbolTableRecord
100
AcDbTextStyleTableRecord
  2
LiberationSerif-Italic
 70
0
 40
0.0
 41
1.0
 50
0.0
 71
0
 42
2.5
  3
LiberationSerif-Italic.ttf
  4

  0
STYLE
  5
56
330
5
100
AcDbSymbolTableRecord
100
AcDbTextStyleTableRecord
  2
LiberationMono
 70
0
 40
0.0
 41
1.0
 50
0.0
 71
0
 42
2.5
  3
LiberationMono-Regular.ttf
  4

  0
STYLE
  5
57
330
5
100
AcDbSymbolTableRecord
100
AcDbTextStyleTableRecord
  2
LiberationMono-Bold
 70
0
 40
0.0
 41
1.0
 50
0.0
 71
0
 42
2.5
  3
LiberationMono-Bold.ttf
  4

  0
STYLE
  5
58
330
5
100
AcDbSymbolTableRecord
100
AcDbTextStyleTableRecord
  2
LiberationMono-BoldItalic
 70
0
 40
0.0
 41
1.0
 50
0.0
 71
0
 42
2.5
  3
LiberationMono-BoldItalic.ttf
  4

  0
STYLE
  5
59
330
5
100
AcDbSymbolTableRecord
100
AcDbTextStyleTableRecord
  2
LiberationMono-Italic
 70
0
 40
0.0
 41
1.0
 50
0.0
 71
0
 42
2.5
  3
LiberationMono-Italic.ttf
  4

  0
ENDTAB
  0
TABLE
  2
VIEW
  5
7
330
0
100
AcDbSymbolTable
 70
0
  0
ENDTAB
  0
TABLE
  2
UCS
  5
6
330
0
100
AcDbSymbolTable
 70
0
  0
ENDTAB
  0
TABLE
  2
APPID
  5
3
330
0
100
AcDbSymbolTable
 70
3
  0
APPID
  5
2A
330
3
100
AcDbSymbolTableRecord
100
AcDbRegAppTableRecord
  2
ACAD
 70
0
  0
APPID
  5
C0
330
3
100
AcDbSymbolTableRecord
100
AcDbRegAppTableRecord
  2
HATCHBACKGROUNDCOLOR
 70
0
  0
APPID
  5
C1
330
3
100
AcDbSymbolTableRecord
100
AcDbRegAppTableRecord
  2
EZDXF
 70
0
  0
ENDTAB
  0
TABLE
  2
DIMSTYLE
  5
4
330
0
100
AcDbSymbolTable
 70
12
100
AcDbDimStyleTable
  0
DIMSTYLE
105
2B
330
4
100
AcDbSymbolTableRecord
100
AcDbDimStyleTableRecord
  2
Standard
 70
0
 40
1.0
 41
2.5
 42
0.625
 43
3.75
 44
1.25
 45
0.0
 46
0.0
 47
0.0
 48
0.0
 49
2.5
140
2.5
141
2.5
142
0.0
143
0.03937007874
144
1.0
145
0.0
146
1.0
147
0.625
148
0.0
 69
0
 70
0
 71
0
 72
0
 73
0
 74
0
 75
0
 76
0
 77
1
 78
8
 79
3
170
0
171
3
172
1
173
0
174
0
175
0
176
0
177
0
178
0
179
2
271
2
272
2
273
2
274
3
275
0
276
0
277
2
278
44
279
0
280
0
281
0
282
0
283
0
284
8
285
0
286
0
288
0
289
3
290
0
371
-2
372
-2
  0
DIMSTYLE
105
73
330
4
100
AcDbSymbolTableRecord
100
AcDbDimStyleTableRecord
  2
EZDXF
 70
0
 40
1.0
 41
0.175
 42
0.125
 43
3.75
 44
0.375
 45
0.0
 46
0.0
 47
0.0
 48
0.0
 49
2.5
140
0.25
141
2.5
142
0.0
143
0.03937007874
144
100.0
145
0.0
146
0.5
147
0.1
148
0.0
 69
0
 70
0
 71
0
 72
0
 73
0
 74
0
 75
0
 76
0
 77
1
 78
12
 79
3
170
0
171
3
172
1
173
0
174
0
175
0
176
0
177
0
178
0
179
2
271
2
272
2
273
2
274
3
275
0
276
0
277
2
278
46
279
2
280
0
281
0
282
0
283
0
284
8
285
0
286
0
288
1
289
3
290
0
340
4C
342
74
371
-2
372
-2
  0
DIMSTYLE
105
7C
330
4
100
AcDbSymbolTableRecord
100
AcDbDimStyleTableRecord
  2
EZ_M_100_H25_CM
 70
0
 40
1.0
 41
0.25
 42
0.125
 43
3.75
 44
0.375
 45
0.0
 46
0.0
 47
0.0
 48
0.0
 49
2.5
140
0.25
141
2.5
142
0.125
143
0.03937007874
144
100.0
145
0.0
146
0.5
147
0.1
148
0.0
 69
0
 70
0
 71
0
 72
0
 73
0
 74
0
 75
0
 76
0
 77
1
 78
12
 79
3
170
0
171
3
172
1
173
0
174
0
175
0
176
0
177
0
178
0
179
2
271
2
272
2
273
2
274
3
275
0
276
0
277
2
278
46
279
2
280
0
281
0
282
0
283
0
284
8
285
0
286
0
288
1
289
3
290
0
340
4C
371
-2
372
-2
  0
DIMSTYLE
105
7D
330
4
100
AcDbSymbolTableRecord
100
AcDbDimStyleTableRecord
  2
EZ_M_50_H25_CM
 70
0
 40
1.0
 41
0.125
 42
0.0625
 43
3.75
 44
0.1875
 45
0.0
 46
0.0
 47
0.0
 48
0.0
 49
2.5
140
0.125
141
2.5
142
0.0625
143
0.03937007874
144
100.0
145
0.0
146
0.5
147
0.05
148
0.0
 69
0
 70
0
 71
0
 72
0
 73
0
 74
0
 75
0
 76
0
 77
1
 78
12
 79
3
170
0
171
3
172
1
173
0
174
0
175
0
176
0
177
0
178
0
179
2
271
2
272
2
273
2
274
3
275
0
276
0
277
2
278
46
279
2
280
0
281
0
282
0
283
0
284
8
285
0
286
0
288
1
289
3
290
0
340
4C
371
-2
372
-2
  0
DIMSTYLE
105
7E
330
4
100
AcDbSymbolTableRecord
100
AcDbDimStyleTableRecord
  2
EZ_M_25_H25_CM
 70
0
 40
1.0
 41
0.0625
 42
0.03125
 43
3.75
 44
0.09375
 45
0.0
 46
0.0
 47
0.0
 48
0.0
 49
2.5
140
0.0625
141
2.5
142
0.03125
143
0.03937007874
144
100.0
145
0.0
146
0.5
147
0.025
148
0.0
 69
0
 70
0
 71
0
 72
0
 73
0
 74
0
 75
0
 76
0
 77
1
 78
12
 79
3
170
0
171
3
172
1
173
0
174
0
175
0
176
0
177
0
178
0
179
2
271
2
272
2
273
2
274
3
275
0
276
0
277
2
278
46
279
2
280
0
281
0
282
0
283
0
284
8
285
0
286
0
288
1
289
3
290
0
340
4C
371
-2
372
-2
  0
DIMSTYLE
105
7F
330
4
100
AcDbSymbolTableRecord
100
AcDbDimStyleTableRecord
  2
EZ_M_20_H25_CM
 70
0
 40
1.0
 41
0.05
 42
0.025
 43
3.75
 44
0.07500000000000001
 45
0.0
 46
0.0
 47
0.0
 48
0.0
 49
2.5
140
0.05
141
2.5
142
0.025
143
0.03937007874
144
100.0
145
0.0
146
0.5
147
0.020000000000000004
148
0.0
 69
0
 70
0
 71
0
 72
0
 73
0
 74
0
 75
0
 76
0
 77
1
 78
12
 79
3
170
0
171
3
172
1
173
0
174
0
175
0
176
0
177
0
178
0
179
2
271
2
272
2
273
2
274
3
275
0
276
0
277
2
278
46
279
2
280
0
281
0
282
0
283
0
284
8
285
0
286
0
288
1
289
3
290
0
340
4C
371
-2
372
-2
  0
DIMSTYLE
105
80
330
4
100
AcDbSymbolTableRecord
100
AcDbDimStyleTableRecord
  2
EZ_M_10_H25_CM
 70
0
 40
1.0
 41
0.025
 42
0.0125
 43
3.75
 44
0.037500000000000006
 45
0.0
 46
0.0
 47
0.0
 48
0.0
 49
2.5
140
0.025
141
2.5
142
0.0125
143
0.03937007874
144
100.0
145
0.0
146
0.5
147
0.010000000000000002
148
0.0
 69
0
 70
0
 71
0
 72
0
 73
0
 74
0
 75
0
 76
0
 77
1
 78
12
 79
3
170
0
171
3
172
1
173
0
174
0
175
0
176
0
177
0
178
0
179
2
271
2
272
2
273
2
274
3
275
0
276
0
277
2
278
46
279
2
280
0
281
0
282
0
283
0
284
8
285
0
286
0
288
1
289
3
290
0
340
4C
371
-2
372
-2
  0
DIMSTYLE
105
81
330
4
100
AcDbSymbolTableRecord
100
AcDbDimStyleTableRecord
  2
EZ_M_5_H25_CM
 70
0
 40
1.0
 41
0.0125
 42
0.00625
 43
3.75
 44
0.018750000000000003
 45
0.0
 46
0.0
 47
0.0
 48
0.0
 49
2.5
140
0.0125
141
2.5
142
0.00625
143
0.03937007874
144
100.0
145
0.0
146
0.5
147
0.005000000000000001
148
0.0
 69
0
 70
0
 71
0
 72
0
 73
0
 74
0
 75
0
 76
0
 77
1
 78
12
 79
3
170
0
171
3
172
1
173
0
174
0
175
0
176
0
177
0
178
0
179
2
271
2
272
2
273
2
274
3
275
0
276
0
277
2
278
46
279
2
280
0
281
0
282
0
283
0
284
8
285
0
286
0
288
1
289
3
290
0
340
4C
371
-2
372
-2
  0
DIMSTYLE
105
82
330
4
100
AcDbSymbolTableRecord
100
AcDbDimStyleTableRecord
  2
EZ_M_1_H25_CM
 70
0
 40
1.0
 41
0.0025
 42
0.00125
 43
3.75
 44
0.00375
 45
0.0
 46
0.0
 47
0.0
 48
0.0
 49
2.5
140
0.0025
141
2.5
142
0.00125
143
0.03937007874
144
100.0
145
0.0
146
0.5
147
0.001
148
0.0
 69
0
 70
0
 71
0
 72
0
 73
0
 74
0
 75
0
 76
0
 77
1
 78
12
 79
3
170
0
171
3
172
1
173
0
174
0
175
0
176
0
177
0
178
0
179
2
271
2
272
2
273
2
274
3
275
0
276
0
277
2
278
46
279
2
280
0
281
0
282
0
283
0
284
8
285
0
286
0
288
1
289
3
290
0
340
4C
371
-2
372
-2
  0
DIMSTYLE
105
83
330
4
100
AcDbSymbolTableRecord
100
AcDbDimStyleTableRecord
  2
EZ_RADIUS
 70
0
 40
1.0
 41
0.25
 42
0.125
 43
3.75
 44
0.375
 45
0.0
 46
0.0
 47
0.0
 48
0.0
 49
2.5
140
0.25
141
0.0
142
0.0
143
0.03937007874
144
100.0
145
0.0
146
0.5
147
0.1
148
0.0
 69
0
 70
0
 71
0
 72
0
 73
0
 74
0
 75
0
 76
0
 77
1
 78
12
 79
3
170
0
171
3
172
0
173
0
174
0
175
0
176
0
177
0
178
0
179
2
271
2
272
2
273
2
274
3
275
0
276
0
277
2
278
46
279
1
280
0
281
0
282
0
283
0
284
8
285
0
286
0
288
1
289
3
290
0
340
4C
342
84
371
-2
372
-2
  0
DIMSTYLE
105
88
330
4
100
AcDbSymbolTableRecord
100
AcDbDimStyleTableRecord
  2
EZ_RADIUS_INSIDE
 70
0
 40
1.0
 41
0.25
 42
0.125
 43
3.75
 44
0.375
 45
0.0
 46
0.0
 47
0.0
 48
0.0
 49
2.5
140
0.25
141
0.0
142
0.0
143
0.03937007874
144
100.0
145
0.0
146
0.5
147
0.1
148
0.0
 69
0
 70
0
 71
0
 72
0
 73
0
 74
0
 75
0
 76
0
 77
0
 78
12
 79
3
170
0
171
3
172
0
173
0
174
1
175
0
176
0
177
0
178
0
179
2
271
2
272
2
273
2
274
3
275
0
276
0
277
2
278
46
279
0
280
0
281
0
282
0
283
0
284
8
285
0
286
0
288
1
289
0
290
0
340
4C
342
84
371
-2
372
-2
  0
DIMSTYLE
105
89
330
4
100
AcDbSymbolTableRecord
100
AcDbDimStyleTableRecord
  2
EZ_CURVED
 70
0
 40
1.0
 41
0.25
 42
0.125
 43
3.75
 44
0.375
 45
0.0
 46
0.0
 47
0.0
 48
0.0
 49
2.5
140
0.25
141
2.5
142
0.0
143
0.03937007874
144
100.0
145
0.0
146
0.5
147
0.1
148
0.0
 69
0
 70
0
 71
0
 72
0
 73
0
 74
0
 75
0
 76
0
 77
1
 78
12
 79
2
 90
2
170
0
171
3
172
1
173
0
174
0
175
0
176
0
177
0
178
0
179
2
271
2
272
2
273
2
274
3
275
0
276
0
277
2
278
46
279
2
280
0
281
0
282
0
283
0
284
8
285
0
286
0
288
1
289
3
290
0
340
4C
371
-2
372
-2
  0
ENDTAB
  0
TABLE
  2
BLOCK_RECORD
  5
9
330
0
100
AcDbSymbolTable
 70
5
  0
BLOCK_RECORD
  5
17
330
9
100
AcDbSymbolTableRecord
100
AcDbBlockTableRecord
  2
*Model_Space
340
1A
 70
0
280
1
281
0
  0
BLOCK_RECORD
  5
1B
330
9
100
AcDbSymbolTableRecord
100
AcDbBlockTableRecord
  2
*Paper_Space
340
1E
 70
0
280
1
281
0
  0
BLOCK_RECORD
  5
74
330
9
100
AcDbSymbolTableRecord
100
AcDbBlockTableRecord
  2
_ARCHTICK
340
0
 70
0
280
1
281
0
  0
BLOCK_RECORD
  5
78
330
9
100
AcDbSymbolTableRecord
100
AcDbBlockTableRecord
  2
_CLOSEDFILLED
340
0
 70
0
280
1
281
0
  0
BLOCK_RECORD
  5
84
330
9
100
AcDbSymbolTableRecord
100
AcDbBlockTableRecord
  2
_CLOSEDBLANK
340
0
 70
0
280
1
281
0
  0
ENDTAB
  0
ENDSEC
  0
SECTION
  2
BLOCKS
  0
BLOCK
  5
18
330
17
100
AcDbEntity
  8
0
100
AcDbBlockBegin
  2
*Model_Space
 70
0
 10
0.0
 20
0.0
 30
0.0
  3
*Model_Space
  1

  0
ENDBLK
  5
19
330
17
100
AcDbEntity
  8
0
100
AcDbBlockEnd
  0
BLOCK
  5
1C
330
1B
100
AcDbEntity
  8
0
100
AcDbBlockBegin
  2
*Paper_Space
 70
0
 10
0.0
 20
0.0
 30
0.0
  3
*Paper_Space
  1

  0
ENDBLK
  5
1D
330
1B
100
AcDbEntity
  8
0
100
AcDbBlockEnd
  0
BLOCK
  5
75
330
74
100
AcDbEntity
  8
0
100
AcDbBlockBegin
  2
_ARCHTICK
 70
0
 10
0.0
 20
0.0
 30
0.0
  3
_ARCHTICK
  1

  0
LWPOLYLINE
  5
77
330
74
100
AcDbEntity
  8
0
  6
BYBLOCK
 62
0
100
AcDbPolyline
 90
2
 70
0
 43
0.15
 10
-0.5
 20
-0.5
 10
0.5
 20
0.5
  0
ENDBLK
  5
76
330
74
100
AcDbEntity
  8
0
100
AcDbBlockEnd
  0
BLOCK
  5
79
330
78
100
AcDbEntity
  8
0
100
AcDbBlockBegin
  2
_CLOSEDFILLED
 70
0
 10
0.0
 20
0.0
 30
0.0
  3
_CLOSEDFILLED
  1

  0
SOLID
  5
7B
330
78
100
AcDbEntity
  8
0
  6
BYBLOCK
 62
0
100
AcDbTrace
 10
-1.0
 20
0.16439898372402537
 30
0.0
 11
0.0
 21
0.0
 31
0.0
 12
-1.0
 22
-0.16439898372402537
 32
0.0
 13
-1.0
 23
-0.16439898372402537
 33
0.0
  0
ENDBLK
  5
7A
330
78
100
AcDbEntity
  8
0
100
AcDbBlockEnd
  0
BLOCK
  5
85
330
84
100
AcDbEntity
  8
0
100
AcDbBlockBegin
  2
_CLOSEDBLANK
 70
0
 10
0.0
 20
0.0
 30
0.0
  3
_CLOSEDBLANK
  1

  0
LWPOLYLINE
  5
87
330
84
100
AcDbEntity
  8
0
  6
BYBLOCK
 62
0
100
AcDbPolyline
 90
3
 70
1
 10
-1.0
 20
0.16439898372402537
 10
0.0
 20
0.0
 10
-1.0
 20
-0.16439898372402537
  0
ENDBLK
  5
86
330
84
100
AcDbEntity
  8
0
100
AcDbBlockEnd
  0
ENDSEC
  0
SECTION
  2
ENTITIES
  0
LWPOLYLINE
  5
8E
330
17
100
AcDbEntity
  8
CORTE
100
AcDbPolyline
 90
21
 70
1
 10
774.0
 20
-56.335397861953915
 10
6.0
 20
-56.335397861953915
 10
6.0
 20
0.0
 10
0.0
 20
0.0
 10
0.0
 20
6.0
 10
-56.335397861953915
 20
6.0
 10
-56.335397861953915
 20
274.0
 10
0.0
 20
274.0
 10
0.0
 20
280.0
 10
6.0
 20
280.0
 10
6.0
 20
336.33539786195394
 10
774.0
 20
336.33539786195394
 10
774.0
 20
280.0
 10
780.0
 20
280.0
 10
780.0
 20
274.0
 10
836.3353978619539
 20
274.0
 10
836.3353978619539
 20
6.0
 10
780.0
 20
6.0
 10
780.0
 20
0.0
 10
774.0
 20
0.0
 10
774.0
 20
-56.335397861953915
  0
LWPOLYLINE
  5
8F
330
17
100
AcDbEntity
  8
CORTE
100
AcDbPolyline
 90
5
 70
1
 10
774.0
 20
278.16769893097694
 10
774.0
 20
278.167698930977
 10
6.0
 20
278.167698930977
 10
6.0
 20
278.16769893097694
 10
774.0
 20
278.16769893097694
  0
LWPOLYLINE
  5
90
330
17
100
AcDbEntity
  8
CORTE
100
AcDbPolyline
 90
65
 70
1
 10
65.0
 20
70.0
 10
65.04815273327803
 20
69.01982859670439
 10
65.19214719596769
 20
68.04909677983872
 10
65.43059664267791
 20
67.09715322745538
 10
65.76120467488713
 20
66.1731656763491
 10
66.18078735651645
 20
65.28603263174003
 10
66.68530387697454
 20
64.44429766980397
 10
67.26989546637263
 20
63.65606715836354
 10
67.92893218813452
 20
62.928932188134524
 10
68.65606715836354
 20
62.26989546637263
 10
69.44429766980397
 20
61.685303876974544
 10
70.28603263174003
 20
61.18078735651645
 10
71.1731656763491
 20
60.76120467488713
 10
72.09715322745538
 20
60.43059664267791
 10
73.04909677983872
 20
60.19214719596769
 10
74.0198285967044
 20
60.04815273327803
 10
75.0
 20
60.0
 10
75.98017140329561
 20
60.04815273327803
 10
76.95090322016128
 20
60.19214719596769
 10
77.90284677254462
 20
60.43059664267791
 10
78.8268343236509
 20
60.76120467488713
 10
79.71396736825997
 20
61.18078735651645
 10
80.55570233019603
 20
61.685303876974544
 10
81.34393284163646
 20
62.26989546637263
 10
82.07106781186548
 20
62.928932188134524
 10
82.73010453362737
 20
63.65606715836354
 10
83.31469612302546
 20
64.44429766980397
 10
83.81921264348355
 20
65.28603263174003
 10
84.23879532511287
 20
66.1731656763491
 10
84.56940335732209
 20
67.09715322745538
 10
84.80785280403231
 20
68.04909677983872
 10
84.95184726672197
 20
69.0198285967044
 10
85.0
 20
70.0
 10
84.95184726672197
 20
70.9801714032956
 10
84.80785280403231
 20
71.9509032201613
 10
84.56940335732209
 20
72.90284677254462
 10
84.23879532511286
 20
73.8268343236509
 10
83.81921264348355
 20
74.71396736825997
 10
83.31469612302546
 20
75.55570233019603
 10
82.73010453362737
 20
76.34393284163646
 10
82.07106781186548
 20
77.07106781186548
 10
81.34393284163646
 20
77.73010453362737
 10
80.55570233019601
 20
78.31469612302546
 10
79.71396736825997
 20
78.81921264348355
 10
78.8268343236509
 20
79.23879532511286
 10
77.90284677254462
 20
79.56940335732209
 10
76.95090322016128
 20
79.80785280403231
 10
75.9801714032956
 20
79.95184726672197
 10
75.0
 20
80.0
 10
74.0198285967044
 20
79.95184726672197
 10
73.04909677983872
 20
79.80785280403231
 10
72.09715322745538
 20
79.56940335732209
 10
71.1731656763491
 20
79.23879532511286
 10
70.28603263174003
 20
78.81921264348355
 10
69.44429766980397
 20
78.31469612302546
 10
68.65606715836354
 20
77.73010453362737
 10
67.92893218813452
 20
77.07106781186548
 10
67.26989546637263
 20
76.34393284163646
 10
66.68530387697454
 20
75.55570233019603
 10
66.18078735651645
 20
74.71396736825997
 10
65.76120467488713
 20
73.8268343236509
 10
65.43059664267791
 20
72.90284677254462
 10
65.19214719596769
 20
71.95090322016128
 10
65.04815273327803
 20
70.9801714032956
 10
65.0
 20
70.0
  0
LWPOLYLINE
  5
91
330
17
100
AcDbEntity
  8
CORTE
100
AcDbPolyline
 90
65
 70
1
 10
65.04815273327803
 20
140.9801714032956
 10
65.0
 20
140.0
 10
65.04815273327803
 20
139.0198285967044
 10
65.19214719596769
 20
138.04909677983872
 10
65.43059664267791
 20
137.09715322745538
 10
65.76120467488713
 20
136.1731656763491
 10
66.18078735651645
 20
135.28603263174003
 10
66.68530387697454
 20
134.44429766980397
 10
67.26989546637263
 20
133.65606715836356
 10
67.92893218813452
 20
132.92893218813452
 10
68.65606715836354
 20
132.26989546637262
 10
69.44429766980397
 20
131.68530387697456
 10
70.28603263174003
 20
131.18078735651645
 10
71.1731656763491
 20
130.76120467488713
 10
72.09715322745538
 20
130.4305966426779
 10
73.04909677983872
 20
130.1921471959677
 10
74.0198285967044
 20
130.04815273327802
 10
75.0
 20
130.0
 10
75.98017140329561
 20
130.04815273327804
 10
76.95090322016128
 20
130.1921471959677
 10
77.90284677254462
 20
130.4305966426779
 10
78.8268343236509
 20
130.76120467488713
 10
79.71396736825997
 20
131.18078735651645
 10
80.55570233019603
 20
131.68530387697456
 10
81.34393284163646
 20
132.26989546637262
 10
82.07106781186548
 20
132.92893218813452
 10
82.73010453362737
 20
133.65606715836356
 10
83.31469612302546
 20
134.44429766980397
 10
83.81921264348355
 20
135.28603263174003
 10
84.23879532511287
 20
136.1731656763491
 10
84.56940335732209
 20
137.09715322745538
 10
84.80785280403231
 20
138.04909677983872
 10
84.95184726672197
 20
139.0198285967044
 10
85.0
 20
140.0
 10
84.95184726672197
 20
140.9801714032956
 10
84.80785280403231
 20
141.95090322016128
 10
84.56940335732209
 20
142.90284677254462
 10
84.23879532511286
 20
143.8268343236509
 10
83.81921264348355
 20
144.71396736825997
 10
83.31469612302546
 20
145.55570233019603
 10
82.73010453362737
 20
146.34393284163644
 10
82.07106781186548
 20
147.07106781186548
 10
81.34393284163646
 20
147.73010453362735
 10
80.55570233019601
 20
148.31469612302544
 10
79.71396736825997
 20
148.81921264348355
 10
78.8268343236509
 20
149.23879532511287
 10
77.90284677254462
 20
149.5694033573221
 10
76.95090322016128
 20
149.8078528040323
 10
75.9801714032956
 20
149.95184726672198
 10
75.0
 20
150.0
 10
74.0198285967044
 20
149.95184726672198
 10
73.04909677983872
 20
149.8078528040323
 10
72.09715322745538
 20
149.56940335732207
 10
71.1731656763491
 20
149.23879532511287
 10
70.28603263174003
 20
148.81921264348355
 10
69.44429766980397
 20
148.31469612302544
 10
68.65606715836354
 20
147.73010453362735
 10
67.92893218813452
 20
147.07106781186548
 10
67.26989546637263
 20
146.34393284163644
 10
66.68530387697454
 20
145.55570233019603
 10
66.18078735651645
 20
144.71396736825997
 10
65.76120467488713
 20
143.8268343236509
 10
65.43059664267791
 20
142.90284677254462
 10
65.19214719596769
 20
141.95090322016128
 10
65.04815273327803
 20
140.9801714032956
  0
LWPOLYLINE
  5
92
330
17
100
AcDbEntity
  8
CORTE
100
AcDbPolyline
 90
65
 70
1
 10
65.19214719596769
 20
211.95090322016128
 10
65.04815273327803
 20
210.9801714032956
 10
65.0
 20
210.0
 10
65.04815273327803
 20
209.0198285967044
 10
65.19214719596769
 20
208.04909677983872
 10
65.43059664267791
 20
207.09715322745538
 10
65.76120467488713
 20
206.1731656763491
 10
66.18078735651645
 20
205.28603263174003
 10
66.68530387697454
 20
204.44429766980397
 10
67.26989546637263
 20
203.65606715836356
 10
67.92893218813452
 20
202.92893218813452
 10
68.65606715836354
 20
202.26989546637262
 10
69.44429766980397
 20
201.68530387697456
 10
70.28603263174003
 20
201.18078735651645
 10
71.1731656763491
 20
200.76120467488713
 10
72.09715322745538
 20
200.4305966426779
 10
73.04909677983872
 20
200.1921471959677
 10
74.0198285967044
 20
200.04815273327802
 10
75.0
 20
200.0
 10
75.98017140329561
 20
200.04815273327804
 10
76.95090322016128
 20
200.1921471959677
 10
77.90284677254462
 20
200.4305966426779
 10
78.8268343236509
 20
200.76120467488713
 10
79.71396736825997
 20
201.18078735651645
 10
80.55570233019603
 20
201.68530387697456
 10
81.34393284163646
 20
202.26989546637262
 10
82.07106781186548
 20
202.92893218813452
 10
82.73010453362737
 20
203.65606715836356
 10
83.31469612302546
 20
204.44429766980397
 10
83.81921264348355
 20
205.28603263174003
 10
84.23879532511287
 20
206.1731656763491
 10
84.56940335732209
 20
207.09715322745538
 10
84.80785280403231
 20
208.04909677983872
 10
84.95184726672197
 20
209.0198285967044
 10
85.0
 20
210.0
 10
84.95184726672197
 20
210.9801714032956
 10
84.80785280403231
 20
211.95090322016128
 10
84.56940335732209
 20
212.90284677254462
 10
84.23879532511286
 20
213.8268343236509
 10
83.81921264348355
 20
214.71396736825997
 10
83.31469612302546
 20
215.55570233019603
 10
82.73010453362737
 20
216.34393284163644
 10
82.07106781186548
 20
217.07106781186548
 10
81.34393284163646
 20
217.73010453362735
 10
80.55570233019601
 20
218.31469612302544
 10
79.71396736825997
 20
218.81921264348355
 10
78.8268343236509
 20
219.23879532511287
 10
77.90284677254462
 20
219.5694033573221
 10
76.95090322016128
 20
219.8078528040323
 10
75.9801714032956
 20
219.95184726672198
 10
75.0
 20
220.0
 10
74.0198285967044
 20
219.95184726672198
 10
73.04909677983872
 20
219.8078528040323
 10
72.09715322745538
 20
219.56940335732207
 10
71.1731656763491
 20
219.23879532511287
 10
70.28603263174003
 20
218.81921264348355
 10
69.44429766980397
 20
218.31469612302544
 10
68.65606715836354
 20
217.73010453362735
 10
67.92893218813452
 20
217.07106781186548
 10
67.26989546637263
 20
216.34393284163644
 10
66.68530387697454
 20
215.55570233019603
 10
66.18078735651645
 20
214.71396736825997
 10
65.76120467488713
 20
213.8268343236509
 10
65.43059664267791
 20
212.90284677254462
 10
65.19214719596769
 20
211.95090322016128
  0
LWPOLYLINE
  5
93
330
17
100
AcDbEntity
  8
CORTE
100
AcDbPolyline
 90
65
 70
1
 10
135.4305966426779
 20
72.90284677254462
 10
135.1921471959677
 20
71.95090322016128
 10
135.04815273327802
 20
70.9801714032956
 10
135.0
 20
70.0
 10
135.04815273327804
 20
69.01982859670439
 10
135.1921471959677
 20
68.04909677983872
 10
135.43059664267793
 20
67.09715322745538
 10
135.76120467488713
 20
66.1731656763491
 10
136.18078735651645
 20
65.28603263174003
 10
136.68530387697456
 20
64.44429766980397
 10
137.26989546637262
 20
63.65606715836354
 10
137.92893218813452
 20
62.928932188134524
 10
138.65606715836356
 20
62.26989546637263
 10
139.44429766980397
 20
61.685303876974544
 10
140.28603263174003
 20
61.18078735651645
 10
141.1731656763491
 20
60.76120467488713
 10
142.09715322745538
 20
60.43059664267791
 10
143.04909677983872
 20
60.19214719596769
 10
144.0198285967044
 20
60.04815273327803
 10
145.0
 20
60.0
 10
145.9801714032956
 20
60.04815273327803
 10
146.95090322016128
 20
60.19214719596769
 10
147.90284677254462
 20
60.43059664267791
 10
148.8268343236509
 20
60.76120467488713
 10
149.71396736825997
 20
61.18078735651645
 10
150.55570233019603
 20
61.685303876974544
 10
151.34393284163644
 20
62.26989546637263
 10
152.07106781186548
 20
62.928932188134524
 10
152.73010453362738
 20
63.65606715836354
 10
153.31469612302544
 20
64.44429766980397
 10
153.81921264348355
 20
65.28603263174003
 10
154.23879532511287
 20
66.1731656763491
 10
154.56940335732207
 20
67.09715322745538
 10
154.8078528040323
 20
68.04909677983872
 10
154.95184726672198
 20
69.0198285967044
 10
155.0
 20
70.0
 10
154.95184726672198
 20
70.9801714032956
 10
154.8078528040323
 20
71.9509032201613
 10
154.56940335732207
 20
72.90284677254462
 10
154.23879532511287
 20
73.8268343236509
 10
153.81921264348355
 20
74.71396736825997
 10
153.31469612302544
 20
75.55570233019603
 10
152.73010453362735
 20
76.34393284163646
 10
152.07106781186548
 20
77.07106781186548
 10
151.34393284163644
 20
77.73010453362737
 10
150.55570233019603
 20
78.31469612302546
 10
149.71396736825997
 20
78.81921264348355
 10
148.8268343236509
 20
79.23879532511286
 10
147.90284677254462
 20
79.56940335732209
 10
146.95090322016128
 20
79.80785280403231
 10
145.9801714032956
 20
79.95184726672197
 10
145.0
 20
80.0
 10
144.0198285967044
 20
79.95184726672197
 10
143.04909677983872
 20
79.80785280403231
 10
142.09715322745538
 20
79.56940335732209
 10
141.1731656763491
 20
79.23879532511286
 10
140.28603263174003
 20
78.81921264348355
 10
139.44429766980397
 20
78.31469612302546
 10
138.65606715836356
 20
77.73010453362737
 10
137.92893218813452
 20
77.07106781186548
 10
137.26989546637262
 20
76.34393284163646
 10
136.68530387697456
 20
75.55570233019603
 10
136.18078735651645
 20
74.71396736825997
 10
135.76120467488713
 20
73.8268343236509
 10
135.4305966426779
 20
72.90284677254462
  0
LWPOLYLINE
  5
94
330
17
100
AcDbEntity
  8
CORTE
100
AcDbPolyline
 90
65
 70
1
 10
135.76120467488713
 20
143.8268343236509
 10
135.4305966426779
 20
142.90284677254462
 10
135.1921471959677
 20
141.95090322016128
 10
135.04815273327802
 20
140.9801714032956
 10
135.0
 20
140.0
 10
135.04815273327804
 20
139.0198285967044
 10
135.1921471959677
 20
138.04909677983872
 10
135.43059664267793
 20
137.09715322745538
 10
135.76120467488713
 20
136.1731656763491
 10
136.18078735651645
 20
135.28603263174003
 10
136.68530387697456
 20
134.44429766980397
 10
137.26989546637262
 20
133.65606715836356
 10
137.92893218813452
 20
132.92893218813452
 10
138.65606715836356
 20
132.26989546637262
 10
139.44429766980397
 20
131.68530387697456
 10
140.28603263174003
 20
131.18078735651645
 10
141.1731656763491
 20
130.76120467488713
 10
142.09715322745538
 20
130.4305966426779
 10
143.04909677983872
 20
130.1921471959677
 10
144.0198285967044
 20
130.04815273327802
 10
145.0
 20
130.0
 10
145.9801714032956
 20
130.04815273327804
 10
146.95090322016128
 20
130.1921471959677
 10
147.90284677254462
 20
130.4305966426779
 10
148.8268343236509
 20
130.76120467488713
 10
149.71396736825997
 20
131.18078735651645
 10
150.55570233019603
 20
131.68530387697456
 10
151.34393284163644
 20
132.26989546637262
 10
152.07106781186548
 20
132.92893218813452
 10
152.73010453362738
 20
133.65606715836356
 10
153.31469612302544
 20
134.44429766980397
 10
153.81921264348355
 20
135.28603263174003
 10
154.23879532511287
 20
136.1731656763491
 10
154.56940335732207
 20
137.09715322745538
 10
154.8078528040323
 20
138.04909677983872
 10
154.95184726672198
 20
139.0198285967044
 10
155.0
 20
140.0
 10
154.95184726672198
 20
140.9801714032956
 10
154.8078528040323
 20
141.95090322016128
 10
154.56940335732207
 20
142.90284677254462
 10
154.23879532511287
 20
143.8268343236509
 10
153.81921264348355
 20
144.71396736825997
 10
153.31469612302544
 20
145.55570233019603
 10
152.73010453362735
 20
146.34393284163644
 10
152.07106781186548
 20
147.07106781186548
 10
151.34393284163644
 20
147.73010453362735
 10
150.55570233019603
 20
148.31469612302544
 10
149.71396736825997
 20
148.81921264348355
 10
148.8268343236509
 20
149.23879532511287
 10
147.90284677254462
 20
149.5694033573221
 10
146.95090322016128
 20
149.8078528040323
 10
145.9801714032956
 20
149.95184726672198
 10
145.0
 20
150.0
 10
144.0198285967044
 20
149.95184726672198
 10
143.04909677983872
 20
149.8078528040323
 10
142.09715322745538
 20
149.56940335732207
 10
141.1731656763491
 20
149.23879532511287
 10
140.28603263174003
 20
148.81921264348355
 10
139.44429766980397
 20
148.31469612302544
 10
138.65606715836356
 20
147.73010453362735
 10
137.92893218813452
 20
147.07106781186548
 10
137.26989546637262
 20
146.34393284163644
 10
136.68530387697456
 20
145.55570233019603
 10
136.18078735651645
 20
144.71396736825997
 10
135.76120467488713
 20
143.8268343236509
  0
LWPOLYLINE
  5
95
330
17
100
AcDbEntity
  8
CORTE
100
AcDbPolyline
 90
65
 70
1
 10
136.18078735651645
 20
214.71396736825997
 10
135.76120467488713
 20
213.8268343236509
 10
135.4305966426779
 20
212.90284677254462
 10
135.1921471959677
 20
211.95090322016128
 10
135.04815273327802
 20
210.9801714032956
 10
135.0
 20
210.0
 10
135.04815273327804
 20
209.0198285967044
 10
135.1921471959677
 20
208.04909677983872
 10
135.43059664267793
 20
207.09715322745538
 10
135.76120467488713
 20
206.1731656763491
 10
136.18078735651645
 20
205.28603263174003
 10
136.68530387697456
 20
204.44429766980397
 10
137.26989546637262
 20
203.65606715836356
 10
137.92893218813452
 20
202.92893218813452
 10
138.65606715836356
 20
202.26989546637262
 10
139.44429766980397
 20
201.68530387697456
 10
140.28603263174003
 20
201.18078735651645
 10
141.1731656763491
 20
200.76120467488713
 10
142.09715322745538
 20
200.4305966426779
 10
143.04909677983872
 20
200.1921471959677
 10
144.0198285967044
 20
200.04815273327802
 10
145.0
 20
200.0
 10
145.9801714032956
 20
200.04815273327804
 10
146.95090322016128
 20
200.1921471959677
 10
147.90284677254462
 20
200.4305966426779
 10
148.8268343236509
 20
200.76120467488713
 10
149.71396736825997
 20
201.18078735651645
 10
150.55570233019603
 20
201.68530387697456
 10
151.34393284163644
 20
202.26989546637262
 10
152.07106781186548
 20
202.92893218813452
 10
152.73010453362738
 20
203.65606715836356
 10
153.31469612302544
 20
204.44429766980397
 10
153.81921264348355
 20
205.28603263174003
 10
154.23879532511287
 20
206.1731656763491
 10
154.56940335732207
 20
207.09715322745538
 10
154.8078528040323
 20
208.04909677983872
 10
154.95184726672198
 20
209.0198285967044
 10
155.0
 20
210.0
 10
154.95184726672198
 20
210.9801714032956
 10
154.8078528040323
 20
211.95090322016128
 10
154.56940335732207
 20
212.90284677254462
 10
154.23879532511287
 20
213.8268343236509
 10
153.81921264348355
 20
214.71396736825997
 10
153.31469612302544
 20
215.55570233019603
 10
152.73010453362735
 20
216.34393284163644
 10
152.07106781186548
 20
217.07106781186548
 10
151.34393284163644
 20
217.73010453362735
 10
150.55570233019603
 20
218.31469612302544
 10
149.71396736825997
 20
218.81921264348355
 10
148.8268343236509
 20
219.23879532511287
 10
147.90284677254462
 20
219.5694033573221
 10
146.95090322016128
 20
219.8078528040323
 10
145.9801714032956
 20
219.95184726672198
 10
145.0
 20
220.0
 10
144.0198285967044
 20
219.95184726672198
 10
143.04909677983872
 20
219.8078528040323
 10
142.09715322745538
 20
219.56940335732207
 10
141.1731656763491
 20
219.23879532511287
 10
140.28603263174003
 20
218.81921264348355
 10
139.44429766980397
 20
218.31469612302544
 10
138.65606715836356
 20
217.73010453362735
 10
137.92893218813452
 20
217.07106781186548
 10
137.26989546637262
 20
216.34393284163644
 10
136.68530387697456
 20
215.55570233019603
 10
136.18078735651645
 20
214.71396736825997
  0
LWPOLYLINE
  5
96
330
17
100
AcDbEntity
  8
CORTE
100
AcDbPolyline
 90
65
 70
1
 10
206.68530387697456
 20
75.55570233019603
 10
206.18078735651645
 20
74.71396736825997
 10
205.76120467488713
 20
73.8268343236509
 10
205.4305966426779
 20
72.90284677254462
 10
205.1921471959677
 20
71.95090322016128
 10
205.04815273327802
 20
70.9801714032956
 10
205.0
 20
70.0
 10
205.04815273327804
 20
69.01982859670439
 10
205.1921471959677
 20
68.04909677983872
 10
205.43059664267793
 20
67.09715322745538
 10
205.76120467488713
 20
66.1731656763491
 10
206.18078735651645
 20
65.28603263174003
 10
206.68530387697456
 20
64.44429766980397
 10
207.26989546637262
 20
63.65606715836354
 10
207.92893218813452
 20
62.928932188134524
 10
208.65606715836356
 20
62.26989546637263
 10
209.44429766980397
 20
61.685303876974544
 10
210.28603263174003
 20
61.18078735651645
 10
211.1731656763491
 20
60.76120467488713
 10
212.09715322745538
 20
60.43059664267791
 10
213.04909677983872
 20
60.19214719596769
 10
214.0198285967044
 20
60.04815273327803
 10
215.0
 20
60.0
 10
215.9801714032956
 20
60.04815273327803
 10
216.95090322016128
 20
60.19214719596769
 10
217.90284677254462
 20
60.43059664267791
 10
218.8268343236509
 20
60.76120467488713
 10
219.71396736825997
 20
61.18078735651645
 10
220.55570233019603
 20
61.685303876974544
 10
221.34393284163644
 20
62.26989546637263
 10
222.07106781186548
 20
62.928932188134524
 10
222.73010453362738
 20
63.65606715836354
 10
223.31469612302544
 20
64.44429766980397
 10
223.81921264348355
 20
65.28603263174003
 10
224.23879532511287
 20
66.1731656763491
 10
224.56940335732207
 20
67.09715322745538
 10
224.8078528040323
 20
68.04909677983872
 10
224.95184726672198
 20
69.0198285967044
 10
225.0
 20
70.0
 10
224.95184726672198
 20
70.9801714032956
 10
224.8078528040323
 20
71.9509032201613
 10
224.56940335732207
 20
72.90284677254462
 10
224.23879532511287
 20
73.8268343236509
 10
223.81921264348355
 20
74.71396736825997
 10
223.31469612302544
 20
75.55570233019603
 10
222.73010453362735
 20
76.34393284163646
 10
222.07106781186548
 20
77.07106781186548
 10
221.34393284163644
 20
77.73010453362737
 10
220.55570233019603
 20
78.31469612302546
 10
219.71396736825997
 20
78.81921264348355
 10
218.8268343236509
 20
79.23879532511286
 10
217.90284677254462
 20
79.56940335732209
 10
216.95090322016128
 20
79.80785280403231
 10
215.9801714032956
 20
79.95184726672197
 10
215.0
 20
80.0
 10
214.0198285967044
 20
79.95184726672197
 10
213.04909677983872
 20
79.80785280403231
 10
212.09715322745538
 20
79.56940335732209
 10
211.1731656763491
 20
79.23879532511286
 10
210.28603263174003
 20
78.81921264348355
 10
209.44429766980397
 20
78.31469612302546
 10
208.65606715836356
 20
77.73010453362737
 10
207.92893218813452
 20
77.07106781186548
 10
207.26989546637262
 20
76.34393284163646
 10
206.68530387697456
 20
75.55570233019603
  0
LWPOLYLINE
  5
97
330
17
100
AcDbEntity
  8
CORTE
100
AcDbPolyline
 90
65
 70
1
 10
207.26989546637262
 20
146.34393284163644
 10
206.68530387697456
 20
145.55570233019603
 10
206.18078735651645
 20
144.71396736825997
 10
205.76120467488713
 20
143.8268343236509
 10
205.4305966426779
 20
142.90284677254462
 10
205.1921471959677
 20
141.95090322016128
 10
205.04815273327802
 20
140.9801714032956
 10
205.0
 20
140.0
 10
205.04815273327804
 20
139.0198285967044
 10
205.1921471959677
 20
138.04909677983872
 10
205.43059664267793
 20
137.09715322745538
 10
205.76120467488713
 20
136.1731656763491
 10
206.18078735651645
 20
135.28603263174003
 10
206.68530387697456
 20
134.44429766980397
 10
207.26989546637262
 20
133.65606715836356
 10
207.92893218813452
 20
132.92893218813452
 10
208.65606715836356
 20
132.26989546637262
 10
209.44429766980397
 20
131.68530387697456
 10
210.28603263174003
 20
131.18078735651645
 10
211.1731656763491
 20
130.76120467488713
 10
212.09715322745538
 20
130.4305966426779
 10
213.04909677983872
 20
130.1921471959677
 10
214.0198285967044
 20
130.04815273327802
 10
215.0
 20
130.0
 10
215.9801714032956
 20
130.04815273327804
 10
216.95090322016128
 20
130.1921471959677
 10
217.90284677254462
 20
130.4305966426779
 10
218.8268343236509
 20
130.76120467488713
 10
219.71396736825997
 20
131.18078735651645
 10
220.55570233019603
 20
131.68530387697456
 10
221.34393284163644
 20
132.26989546637262
 10
222.07106781186548
 20
132.92893218813452
 10
222.73010453362738
 20
133.65606715836356
 10
223.31469612302544
 20
134.44429766980397
 10
223.81921264348355
 20
135.28603263174003
 10
224.23879532511287
 20
136.1731656763491
 10
224.56940335732207
 20
137.09715322745538
 10
224.8078528040323
 20
138.04909677983872
 10
224.95184726672198
 20
139.0198285967044
 10
225.0
 20
140.0
 10
224.95184726672198
 20
140.9801714032956
 10
224.8078528040323
 20
141.95090322016128
 10
224.56940335732207
 20
142.90284677254462
 10
224.23879532511287
 20
143.8268343236509
 10
223.81921264348355
 20
144.71396736825997
 10
223.31469612302544
 20
145.55570233019603
 10
222.73010453362735
 20
146.34393284163644
 10
222.07106781186548
 20
147.07106781186548
 10
221.34393284163644
 20
147.73010453362735
 10
220.55570233019603
 20
148.31469612302544
 10
219.71396736825997
 20
148.81921264348355
 10
218.8268343236509
 20
149.23879532511287
 10
217.90284677254462
 20
149.5694033573221
 10
216.95090322016128
 20
149.8078528040323
 10
215.9801714032956
 20
149.95184726672198
 10
215.0
 20
150.0
 10
214.0198285967044
 20
149.95184726672198
 10
213.04909677983872
 20
149.8078528040323
 10
212.09715322745538
 20
149.56940335732207
 10
211.1731656763491
 20
149.23879532511287
 10
210.28603263174003
 20
148.81921264348355
 10
209.44429766980397
 20
148.31469612302544
 10
208.65606715836356
 20
147.73010453362735
 10
207.92893218813452
 20
147.07106781186548
 10
207.26989546637262
 20
146.34393284163644
  0
LWPOLYLINE
  5
98
330
17
100
AcDbEntity
  8
CORTE
100
AcDbPolyline
 90
65
 70
1
 10
207.92893218813452
 20
217.07106781186548
 10
207.26989546637262
 20
216.34393284163644
 10
206.68530387697456
 20
215.55570233019603
 10
206.18078735651645
 20
214.71396736825997
 10
205.76120467488713
 20
213.8268343236509
 10
205.4305966426779
 20
212.90284677254462
 10
205.1921471959677
 20
211.95090322016128
 10
205.04815273327802
 20
210.9801714032956
 10
205.0
 20
210.0
 10
205.04815273327804
 20
209.0198285967044
 10
205.1921471959677
 20
208.04909677983872
 10
205.43059664267793
 20
207.09715322745538
 10
205.76120467488713
 20
206.1731656763491
 10
206.18078735651645
 20
205.28603263174003
 10
206.68530387697456
 20
204.44429766980397
 10
207.26989546637262
 20
203.65606715836356
 10
207.92893218813452
 20
202.92893218813452
 10
208.65606715836356
 20
202.26989546637262
 10
209.44429766980397
 20
201.68530387697456
 10
210.28603263174003
 20
201.18078735651645
 10
211.1731656763491
 20
200.76120467488713
 10
212.09715322745538
 20
200.4305966426779
 10
213.04909677983872
 20
200.1921471959677
 10
214.0198285967044
 20
200.04815273327802
 10
215.0
 20
200.0
 10
215.9801714032956
 20
200.04815273327804
 10
216.95090322016128
 20
200.1921471959677
 10
217.90284677254462
 20
200.4305966426779
 10
218.8268343236509
 20
200.76120467488713
 10
219.71396736825997
 20
201.18078735651645
 10
220.55570233019603
 20
201.68530387697456
 10
221.34393284163644
 20
202.26989546637262
 10
222.07106781186548
 20
202.92893218813452
 10
222.73010453362738
 20
203.65606715836356
 10
223.31469612302544
 20
204.44429766980397
 10
223.81921264348355
 20
205.28603263174003
 10
224.23879532511287
 20
206.1731656763491
 10
224.56940335732207
 20
207.09715322745538
 10
224.8078528040323
 20
208.04909677983872
 10
224.95184726672198
 20
209.0198285967044
 10
225.0
 20
210.0
 10
224.95184726672198
 20
210.9801714032956
 10
224.8078528040323
 20
211.95090322016128
 10
224.56940335732207
 20
212.90284677254462
 10
224.23879532511287
 20
213.8268343236509
 10
223.81921264348355
 20
214.71396736825997
 10
223.31469612302544
 20
215.55570233019603
 10
222.73010453362735
 20
216.34393284163644
 10
222.07106781186548
 20
217.07106781186548
 10
221.34393284163644
 20
217.73010453362735
 10
220.55570233019603
 20
218.31469612302544
 10
219.71396736825997
 20
218.81921264348355
 10
218.8268343236509
 20
219.23879532511287
 10
217.90284677254462
 20
219.5694033573221
 10
216.95090322016128
 20
219.8078528040323
 10
215.9801714032956
 20
219.95184726672198
 10
215.0
 20
220.0
 10
214.0198285967044
 20
219.95184726672198
 10
213.04909677983872
 20
219.8078528040323
 10
212.09715322745538
 20
219.56940335732207
 10
211.1731656763491
 20
219.23879532511287
 10
210.28603263174003
 20
218.81921264348355
 10
209.44429766980397
 20
218.31469612302544
 10
208.65606715836356
 20
217.73010453362735
 10
207.92893218813452
 20
217.07106781186548
  0
LWPOLYLINE
  5
99
330
17
100
AcDbEntity
  8
CORTE
100
AcDbPolyline
 90
65
 70
1
 10
278.65606715836356
 20
77.73010453362737
 10
277.9289321881345
 20
77.07106781186548
 10
277.26989546637265
 20
76.34393284163646
 10
276.68530387697456
 20
75.55570233019603
 10
276.1807873565165
 20
74.71396736825997
 10
275.76120467488715
 20
73.8268343236509
 10
275.4305966426779
 20
72.90284677254462
 10
275.1921471959677
 20
71.95090322016128
 10
275.048152733278
 20
70.9801714032956
 10
275.0
 20
70.0
 10
275.048152733278
 20
69.01982859670439
 10
275.1921471959677
 20
68.04909677983872
 10
275.4305966426779
 20
67.09715322745538
 10
275.76120467488715
 20
66.1731656763491
 10
276.1807873565165
 20
65.28603263174003
 10
276.68530387697456
 20
64.44429766980397
 10
277.26989546637265
 20
63.65606715836354
 10
277.9289321881345
 20
62.928932188134524
 10
278.65606715836356
 20
62.26989546637263
 10
279.444297669804
 20
61.685303876974544
 10
280.28603263174
 20
61.18078735651645
 10
281.17316567634913
 20
60.76120467488713
 10
282.09715322745535
 20
60.43059664267791
 10
283.0490967798387
 20
60.19214719596769
 10
284.0198285967044
 20
60.04815273327803
 10
285.0
 20
60.0
 10
285.9801714032956
 20
60.04815273327803
 10
286.9509032201613
 20
60.19214719596769
 10
287.90284677254465
 20
60.43059664267791
 10
288.82683432365087
 20
60.76120467488713
 10
289.71396736826
 20
61.18078735651645
 10
290.555702330196
 20
61.685303876974544
 10
291.34393284163644
 20
62.26989546637263
 10
292.0710678118655
 20
62.928932188134524
 10
292.73010453362735
 20
63.65606715836354
 10
293.31469612302544
 20
64.44429766980397
 10
293.8192126434835
 20
65.28603263174003
 10
294.23879532511285
 20
66.1731656763491
 10
294.5694033573221
 20
67.09715322745538
 10
294.8078528040323
 20
68.04909677983872
 10
294.951847266722
 20
69.0198285967044
 10
295.0
 20
70.0
 10
294.951847266722
 20
70.9801714032956
 10
294.8078528040323
 20
71.9509032201613
 10
294.5694033573221
 20
72.90284677254462
 10
294.23879532511285
 20
73.8268343236509
 10
293.8192126434835
 20
74.71396736825997
 10
293.31469612302544
 20
75.55570233019603
 10
292.73010453362735
 20
76.34393284163646
 10
292.0710678118655
 20
77.07106781186548
 10
291.34393284163644
 20
77.73010453362737
 10
290.555702330196
 20
78.31469612302546
 10
289.71396736826
 20
78.81921264348355
 10
288.8268343236509
 20
79.23879532511286
 10
287.90284677254465
 20
79.56940335732209
 10
286.9509032201613
 20
79.80785280403231
 10
285.9801714032956
 20
79.95184726672197
 10
285.0
 20
80.0
 10
284.0198285967044
 20
79.95184726672197
 10
283.0490967798387
 20
79.80785280403231
 10
282.09715322745535
 20
79.56940335732209
 10
281.1731656763491
 20
79.23879532511286
 10
280.28603263174
 20
78.81921264348355
 10
279.444297669804
 20
78.31469612302546
 10
278.65606715836356
 20
77.73010453362737
  0
LWPOLYLINE
  5
9A
330
17
100
AcDbEntity
  8
CORTE
100
AcDbPolyline
 90
65
 70
1
 10
279.444297669804
 20
148.31469612302544
 10
278.65606715836356
 20
147.73010453362735
 10
277.9289321881345
 20
147.07106781186548
 10
277.26989546637265
 20
146.34393284163644
 10
276.68530387697456
 20
145.55570233019603
 10
276.1807873565165
 20
144.71396736825997
 10
275.76120467488715
 20
143.8268343236509
 10
275.4305966426779
 20
142.90284677254462
 10
275.1921471959677
 20
141.95090322016128
 10
275.048152733278
 20
140.9801714032956
 10
275.0
 20
140.0
 10
275.048152733278
 20
139.0198285967044
 10
275.1921471959677
 20
138.04909677983872
 10
275.4305966426779
 20
137.09715322745538
 10
275.76120467488715
 20
136.1731656763491
 10
276.1807873565165
 20
135.28603263174003
 10
276.68530387697456
 20
134.44429766980397
 10
277.26989546637265
 20
133.65606715836356
 10
277.9289321881345
 20
132.92893218813452
 10
278.65606715836356
 20
132.26989546637262
 10
279.444297669804
 20
131.68530387697456
 10
280.28603263174
 20
131.18078735651645
 10
281.17316567634913
 20
130.76120467488713
 10
282.09715322745535
 20
130.4305966426779
 10
283.0490967798387
 20
130.1921471959677
 10
284.0198285967044
 20
130.04815273327802
 10
285.0
 20
130.0
 10
285.9801714032956
 20
130.04815273327804
 10
286.9509032201613
 20
130.1921471959677
 10
287.90284677254465
 20
130.4305966426779
 10
288.82683432365087
 20
130.76120467488713
 10
289.71396736826
 20
131.18078735651645
 10
290.555702330196
 20
131.68530387697456
 10
291.34393284163644
 20
132.26989546637262
 10
292.0710678118655
 20
132.92893218813452
 10
292.73010453362735
 20
133.65606715836356
 10
293.31469612302544
 20
134.44429766980397
 10
293.8192126434835
 20
135.28603263174003
 10
294.23879532511285
 20
136.1731656763491
 10
294.5694033573221
 20
137.09715322745538
 10
294.8078528040323
 20
138.04909677983872
 10
294.951847266722
 20
139.0198285967044
 10
295.0
 20
140.0
 10
294.951847266722
 20
140.9801714032956
 10
294.8078528040323
 20
141.95090322016128
 10
294.5694033573221
 20
142.90284677254462
 10
294.23879532511285
 20
143.8268343236509
 10
293.8192126434835
 20
144.71396736825997
 10
293.31469612302544
 20
145.55570233019603
 10
292.73010453362735
 20
146.34393284163644
 10
292.0710678118655
 20
147.07106781186548
 10
291.34393284163644
 20
147.73010453362735
 10
290.555702330196
 20
148.31469612302544
 10
289.71396736826
 20
148.81921264348355
 10
288.8268343236509
 20
149.23879532511287
 10
287.90284677254465
 20
149.5694033573221
 10
286.9509032201613
 20
149.8078528040323
 10
285.9801714032956
 20
149.95184726672198
 10
285.0
 20
150.0
 10
284.0198285967044
 20
149.95184726672198
 10
283.0490967798387
 20
149.8078528040323
 10
282.09715322745535
 20
149.56940335732207
 10
281.1731656763491
 20
149.23879532511287
 10
280.28603263174
 20
148.81921264348355
 10
279.444297669804
 20
148.31469612302544
  0
LWPOLYLINE
  5
9B
330
17
100
AcDbEntity
  8
CORTE
100
AcDbPolyline
 90
65
 70
1
 10
280.28603263174
 20
218.81921264348355
 10
279.444297669804
 20
218.31469612302544
 10
278.65606715836356
 20
217.73010453362735
 10
277.9289321881345
 20
217.07106781186548
 10
277.26989546637265
 20
216.34393284163644
 10
276.68530387697456
 20
215.55570233019603
 10
276.1807873565165
 20
214.71396736825997
 10
275.76120467488715
 20
213.8268343236509
 10
275.4305966426779
 20
212.90284677254462
 10
275.1921471959677
 20
211.95090322016128
 10
275.048152733278
 20
210.9801714032956
 10
275.0
 20
210.0
 10
275.048152733278
 20
209.0198285967044
 10
275.1921471959677
 20
208.04909677983872
 10
275.4305966426779
 20
207.09715322745538
 10
275.76120467488715
 20
206.1731656763491
 10
276.1807873565165
 20
205.28603263174003
 10
276.68530387697456
 20
204.44429766980397
 10
277.26989546637265
 20
203.65606715836356
 10
277.9289321881345
 20
202.92893218813452
 10
278.65606715836356
 20
202.26989546637262
 10
279.444297669804
 20
201.68530387697456
 10
280.28603263174
 20
201.18078735651645
 10
281.17316567634913
 20
200.76120467488713
 10
282.09715322745535
 20
200.4305966426779
 10
283.0490967798387
 20
200.1921471959677
 10
284.0198285967044
 20
200.04815273327802
 10
285.0
 20
200.0
 10
285.9801714032956
 20
200.04815273327804
 10
286.9509032201613
 20
200.1921471959677
 10
287.90284677254465
 20
200.4305966426779
 10
288.82683432365087
 20
200.76120467488713
 10
289.71396736826
 20
201.18078735651645
 10
290.555702330196
 20
201.68530387697456
 10
291.34393284163644
 20
202.26989546637262
 10
292.0710678118655
 20
202.92893218813452
 10
292.73010453362735
 20
203.65606715836356
 10
293.31469612302544
 20
204.44429766980397
 10
293.8192126434835
 20
205.28603263174003
 10
294.23879532511285
 20
206.1731656763491
 10
294.5694033573221
 20
207.09715322745538
 10
294.8078528040323
 20
208.04909677983872
 10
294.951847266722
 20
209.0198285967044
 10
295.0
 20
210.0
 10
294.951847266722
 20
210.9801714032956
 10
294.8078528040323
 20
211.95090322016128
 10
294.5694033573221
 20
212.90284677254462
 10
294.23879532511285
 20
213.8268343236509
 10
293.8192126434835
 20
214.71396736825997
 10
293.31469612302544
 20
215.55570233019603
 10
292.73010453362735
 20
216.34393284163644
 10
292.0710678118655
 20
217.07106781186548
 10
291.34393284163644
 20
217.73010453362735
 10
290.555702330196
 20
218.31469612302544
 10
289.71396736826
 20
218.81921264348355
 10
288.8268343236509
 20
219.23879532511287
 10
287.90284677254465
 20
219.5694033573221
 10
286.9509032201613
 20
219.8078528040323
 10
285.9801714032956
 20
219.95184726672198
 10
285.0
 20
220.0
 10
284.0198285967044
 20
219.95184726672198
 10
283.0490967798387
 20
219.8078528040323
 10
282.09715322745535
 20
219.56940335732207
 10
281.1731656763491
 20
219.23879532511287
 10
280.28603263174
 20
218.81921264348355
  0
LWPOLYLINE
  5
9C
330
17
100
AcDbEntity
  8
CORTE
100
AcDbPolyline
 90
65
 70
1
 10
351.1731656763491
 20
79.23879532511286
 10
350.28603263174
 20
78.81921264348355
 10
349.444297669804
 20
78.31469612302546
 10
348.65606715836356
 20
77.73010453362737
 10
347.9289321881345
 20
77.07106781186548
 10
347.26989546637265
 20
76.34393284163646
 10
346.68530387697456
 20
75.55570233019603
 10
346.1807873565165
 20
74.71396736825997
 10
345.76120467488715
 20
73.8268343236509
 10
345.4305966426779
 20
72.90284677254462
 10
345.1921471959677
 20
71.95090322016128
 10
345.048152733278
 20
70.9801714032956
 10
345.0
 20
70.0
 10
345.048152733278
 20
69.01982859670439
 10
345.1921471959677
 20
68.04909677983872
 10
345.4305966426779
 20
67.09715322745538
 10
345.76120467488715
 20
66.1731656763491
 10
346.1807873565165
 20
65.28603263174003
 10
346.68530387697456
 20
64.44429766980397
 10
347.26989546637265
 20
63.65606715836354
 10
347.9289321881345
 20
62.928932188134524
 10
348.65606715836356
 20
62.26989546637263
 10
349.444297669804
 20
61.685303876974544
 10
350.28603263174
 20
61.18078735651645
 10
351.17316567634913
 20
60.76120467488713
 10
352.09715322745535
 20
60.43059664267791
 10
353.0490967798387
 20
60.19214719596769
 10
354.0198285967044
 20
60.04815273327803
 10
355.0
 20
60.0
 10
355.9801714032956
 20
60.04815273327803
 10
356.9509032201613
 20
60.19214719596769
 10
357.90284677254465
 20
60.43059664267791
 10
358.82683432365087
 20
60.76120467488713
 10
359.71396736826
 20
61.18078735651645
 10
360.555702330196
 20
61.685303876974544
 10
361.34393284163644
 20
62.26989546637263
 10
362.0710678118655
 20
62.928932188134524
 10
362.73010453362735
 20
63.65606715836354
 10
363.31469612302544
 20
64.44429766980397
 10
363.8192126434835
 20
65.28603263174003
 10
364.23879532511285
 20
66.1731656763491
 10
364.5694033573221
 20
67.09715322745538
 10
364.8078528040323
 20
68.04909677983872
 10
364.951847266722
 20
69.0198285967044
 10
365.0
 20
70.0
 10
364.951847266722
 20
70.9801714032956
 10
364.8078528040323
 20
71.9509032201613
 10
364.5694033573221
 20
72.90284677254462
 10
364.23879532511285
 20
73.8268343236509
 10
363.8192126434835
 20
74.71396736825997
 10
363.31469612302544
 20
75.55570233019603
 10
362.73010453362735
 20
76.34393284163646
 10
362.0710678118655
 20
77.07106781186548
 10
361.34393284163644
 20
77.73010453362737
 10
360.555702330196
 20
78.31469612302546
 10
359.71396736826
 20
78.81921264348355
 10
358.8268343236509
 20
79.23879532511286
 10
357.90284677254465
 20
79.56940335732209
 10
356.9509032201613
 20
79.80785280403231
 10
355.9801714032956
 20
79.95184726672197
 10
355.0
 20
80.0
 10
354.0198285967044
 20
79.95184726672197
 10
353.0490967798387
 20
79.80785280403231
 10
352.09715322745535
 20
79.56940335732209
 10
351.1731656763491
 20
79.23879532511286
  0
LWPOLYLINE
  5
9D
330
17
100
AcDbEntity
  8
CORTE
100
AcDbPolyline
 90
65
 70
1
 10
352.09715322745535
 20
149.56940335732207
 10
351.1731656763491
 20
149.23879532511287
 10
350.28603263174
 20
148.81921264348355
 10
349.444297669804
 20
148.31469612302544
 10
348.65606715836356
 20
147.73010453362735
 10
347.9289321881345
 20
147.07106781186548
 10
347.26989546637265
 20
146.34393284163644
 10
346.68530387697456
 20
145.55570233019603
 10
346.1807873565165
 20
144.71396736825997
 10
345.76120467488715
 20
143.8268343236509
 10
345.4305966426779
 20
142.90284677254462
 10
345.1921471959677
 20
141.95090322016128
 10
345.048152733278
 20
140.9801714032956
 10
345.0
 20
140.0
 10
345.048152733278
 20
139.0198285967044
 10
345.1921471959677
 20
138.04909677983872
 10
345.4305966426779
 20
137.09715322745538
 10
345.76120467488715
 20
136.1731656763491
 10
346.1807873565165
 20
135.28603263174003
 10
346.68530387697456
 20
134.44429766980397
 10
347.26989546637265
 20
133.65606715836356
 10
347.9289321881345
 20
132.92893218813452
 10
348.65606715836356
 20
132.26989546637262
 10
349.444297669804
 20
131.68530387697456
 10
350.28603263174
 20
131.18078735651645
 10
351.17316567634913
 20
130.76120467488713
 10
352.09715322745535
 20
130.4305966426779
 10
353.0490967798387
 20
130.1921471959677
 10
354.0198285967044
 20
130.04815273327802
 10
355.0
 20
130.0
 10
355.9801714032956
 20
130.04815273327804
 10
356.9509032201613
 20
130.1921471959677
 10
357.90284677254465
 20
130.4305966426779
 10
358.82683432365087
 20
130.76120467488713
 10
359.71396736826
 20
131.18078735651645
 10
360.555702330196
 20
131.68530387697456
 10
361.34393284163644
 20
132.26989546637262
 10
362.0710678118655
 20
132.92893218813452
 10
362.73010453362735
 20
133.65606715836356
 10
363.31469612302544
 20
134.44429766980397
 10
363.8192126434835
 20
135.28603263174003
 10
364.23879532511285
 20
136.1731656763491
 10
364.5694033573221
 20
137.09715322745538
 10
364.8078528040323
 20
138.04909677983872
 10
364.951847266722
 20
139.0198285967044
 10
365.0
 20
140.0
 10
364.951847266722
 20
140.9801714032956
 10
364.8078528040323
 20
141.95090322016128
 10
364.5694033573221
 20
142.90284677254462
 10
364.23879532511285
 20
143.8268343236509
 10
363.8192126434835
 20
144.71396736825997
 10
363.31469612302544
 20
145.55570233019603
 10
362.73010453362735
 20
146.34393284163644
 10
362.0710678118655
 20
147.07106781186548
 10
361.34393284163644
 20
147.73010453362735
 10
360.555702330196
 20
148.31469612302544
 10
359.71396736826
 20
148.81921264348355
 10
358.8268343236509
 20
149.23879532511287
 10
357.90284677254465
 20
149.5694033573221
 10
356.9509032201613
 20
149.8078528040323
 10
355.9801714032956
 20
149.95184726672198
 10
355.0
 20
150.0
 10
354.0198285967044
 20
149.95184726672198
 10
353.0490967798387
 20
149.8078528040323
 10
352.09715322745535
 20
149.56940335732207
  0
LWPOLYLINE
  5
9E
330
17
100
AcDbEntity
  8
CORTE
100
AcDbPolyline
 90
65
 70
1
 10
353.0490967798387
 20
219.8078528040323
 10
352.09715322745535
 20
219.56940335732207
 10
351.1731656763491
 20
219.23879532511287
 10
350.28603263174
 20
218.81921264348355
 10
349.444297669804
 20
218.31469612302544
 10
348.65606715836356
 20
217.73010453362735
 10
347.9289321881345
 20
217.07106781186548
 10
347.26989546637265
 20
216.34393284163644
 10
346.68530387697456
 20
215.55570233019603
 10
346.1807873565165
 20
214.71396736825997
 10
345.76120467488715
 20
213.8268343236509
 10
345.4305966426779
 20
212.90284677254462
 10
345.1921471959677
 20
211.95090322016128
 10
345.048152733278
 20
210.9801714032956
 10
345.0
 20
210.0
 10
345.048152733278
 20
209.0198285967044
 10
345.1921471959677
 20
208.04909677983872
 10
345.4305966426779
 20
207.09715322745538
 10
345.76120467488715
 20
206.1731656763491
 10
346.1807873565165
 20
205.28603263174003
 10
346.68530387697456
 20
204.44429766980397
 10
347.26989546637265
 20
203.65606715836356
 10
347.9289321881345
 20
202.92893218813452
 10
348.65606715836356
 20
202.26989546637262
 10
349.444297669804
 20
201.68530387697456
 10
350.28603263174
 20
201.18078735651645
 10
351.17316567634913
 20
200.76120467488713
 10
352.09715322745535
 20
200.4305966426779
 10
353.0490967798387
 20
200.1921471959677
 10
354.0198285967044
 20
200.04815273327802
 10
355.0
 20
200.0
 10
355.9801714032956
 20
200.04815273327804
 10
356.9509032201613
 20
200.1921471959677
 10
357.90284677254465
 20
200.4305966426779
 10
358.82683432365087
 20
200.76120467488713
 10
359.71396736826
 20
201.18078735651645
 10
360.555702330196
 20
201.68530387697456
 10
361.34393284163644
 20
202.26989546637262
 10
362.0710678118655
 20
202.92893218813452
 10
362.73010453362735
 20
203.65606715836356
 10
363.31469612302544
 20
204.44429766980397
 10
363.8192126434835
 20
205.28603263174003
 10
364.23879532511285
 20
206.1731656763491
 10
364.5694033573221
 20
207.09715322745538
 10
364.8078528040323
 20
208.04909677983872
 10
364.951847266722
 20
209.0198285967044
 10
365.0
 20
210.0
 10
364.951847266722
 20
210.9801714032956
 10
364.8078528040323
 20
211.95090322016128
 10
364.5694033573221
 20
212.90284677254462
 10
364.23879532511285
 20
213.8268343236509
 10
363.8192126434835
 20
214.71396736825997
 10
363.31469612302544
 20
215.55570233019603
 10
362.73010453362735
 20
216.34393284163644
 10
362.0710678118655
 20
217.07106781186548
 10
361.34393284163644
 20
217.73010453362735
 10
360.555702330196
 20
218.31469612302544
 10
359.71396736826
 20
218.81921264348355
 10
358.8268343236509
 20
219.23879532511287
 10
357.90284677254465
 20
219.5694033573221
 10
356.9509032201613
 20
219.8078528040323
 10
355.9801714032956
 20
219.95184726672198
 10
355.0
 20
220.0
 10
354.0198285967044
 20
219.95184726672198
 10
353.0490967798387
 20
219.8078528040323
  0
LWPOLYLINE
  5
9F
330
17
100
AcDbEntity
  8
CORTE
100
AcDbPolyline
 90
65
 70
1
 10
424.0198285967044
 20
79.95184726672197
 10
423.0490967798387
 20
79.80785280403231
 10
422.09715322745535
 20
79.56940335732209
 10
421.1731656763491
 20
79.23879532511286
 10
420.28603263174
 20
78.81921264348355
 10
419.444297669804
 20
78.31469612302546
 10
418.65606715836356
 20
77.73010453362737
 10
417.9289321881345
 20
77.07106781186548
 10
417.26989546637265
 20
76.34393284163646
 10
416.68530387697456
 20
75.55570233019603
 10
416.1807873565165
 20
74.71396736825997
 10
415.76120467488715
 20
73.8268343236509
 10
415.4305966426779
 20
72.90284677254462
 10
415.1921471959677
 20
71.95090322016128
 10
415.048152733278
 20
70.9801714032956
 10
415.0
 20
70.0
 10
415.048152733278
 20
69.01982859670439
 10
415.1921471959677
 20
68.04909677983872
 10
415.4305966426779
 20
67.09715322745538
 10
415.76120467488715
 20
66.1731656763491
 10
416.1807873565165
 20
65.28603263174003
 10
416.68530387697456
 20
64.44429766980397
 10
417.26989546637265
 20
63.65606715836354
 10
417.9289321881345
 20
62.928932188134524
 10
418.65606715836356
 20
62.26989546637263
 10
419.444297669804
 20
61.685303876974544
 10
420.28603263174
 20
61.18078735651645
 10
421.17316567634913
 20
60.76120467488713
 10
422.09715322745535
 20
60.43059664267791
 10
423.0490967798387
 20
60.19214719596769
 10
424.0198285967044
 20
60.04815273327803
 10
425.0
 20
60.0
 10
425.9801714032956
 20
60.04815273327803
 10
426.9509032201613
 20
60.19214719596769
 10
427.90284677254465
 20
60.43059664267791
 10
428.82683432365087
 20
60.76120467488713
 10
429.71396736826
 20
61.18078735651645
 10
430.555702330196
 20
61.685303876974544
 10
431.34393284163644
 20
62.26989546637263
 10
432.0710678118655
 20
62.928932188134524
 10
432.73010453362735
 20
63.65606715836354
 10
433.31469612302544
 20
64.44429766980397
 10
433.8192126434835
 20
65.28603263174003
 10
434.23879532511285
 20
66.1731656763491
 10
434.5694033573221
 20
67.09715322745538
 10
434.8078528040323
 20
68.04909677983872
 10
434.951847266722
 20
69.0198285967044
 10
435.0
 20
70.0
 10
434.951847266722
 20
70.9801714032956
 10
434.8078528040323
 20
71.9509032201613
 10
434.5694033573221
 20
72.90284677254462
 10
434.23879532511285
 20
73.8268343236509
 10
433.8192126434835
 20
74.71396736825997
 10
433.31469612302544
 20
75.55570233019603
 10
432.73010453362735
 20
76.34393284163646
 10
432.0710678118655
 20
77.07106781186548
 10
431.34393284163644
 20
77.73010453362737
 10
430.555702330196
 20
78.31469612302546
 10
429.71396736826
 20
78.81921264348355
 10
428.8268343236509
 20
79.23879532511286
 10
427.90284677254465
 20
79.56940335732209
 10
426.9509032201613
 20
79.80785280403231
 10
425.9801714032956
 20
79.95184726672197
 10
425.0
 20
80.0
 10
424.0198285967044
 20
79.95184726672197
  0
LWPOLYLINE
  5
A0
330
17
100
AcDbEntity
  8
CORTE
100
AcDbPolyline
 90
65
 70
1
 10
425.0
 20
150.0
 10
424.0198285967044
 20
149.95184726672198
 10
423.0490967798387
 20
149.8078528040323
 10
422.09715322745535
 20
149.56940335732207
 10
421.1731656763491
 20
149.23879532511287
 10
420.28603263174
 20
148.81921264348355
 10
419.444297669804
 20
148.31469612302544
 10
418.65606715836356
 20
147.73010453362735
 10
417.9289321881345
 20
147.07106781186548
 10
417.26989546637265
 20
146.34393284163644
 10
416.68530387697456
 20
145.55570233019603
 10
416.1807873565165
 20
144.71396736825997
 10
415.76120467488715
 20
143.8268343236509
 10
415.4305966426779
 20
142.90284677254462
 10
415.1921471959677
 20
141.95090322016128
 10
415.048152733278
 20
140.9801714032956
 10
415.0
 20
140.0
 10
415.048152733278
 20
139.0198285967044
 10
415.1921471959677
 20
138.04909677983872
 10
415.4305966426779
 20
137.09715322745538
 10
415.76120467488715
 20
136.1731656763491
 10
416.1807873565165
 20
135.28603263174003
 10
416.68530387697456
 20
134.44429766980397
 10
417.26989546637265
 20
133.65606715836356
 10
417.9289321881345
 20
132.92893218813452
 10
418.65606715836356
 20
132.26989546637262
 10
419.444297669804
 20
131.68530387697456
 10
420.28603263174
 20
131.18078735651645
 10
421.17316567634913
 20
130.76120467488713
 10
422.09715322745535
 20
130.4305966426779
 10
423.0490967798387
 20
130.1921471959677
 10
424.0198285967044
 20
130.04815273327802
 10
425.0
 20
130.0
 10
425.9801714032956
 20
130.04815273327804
 10
426.9509032201613
 20
130.1921471959677
 10
427.90284677254465
 20
130.4305966426779
 10
428.82683432365087
 20
130.76120467488713
 10
429.71396736826
 20
131.18078735651645
 10
430.555702330196
 20
131.68530387697456
 10
431.34393284163644
 20
132.26989546637262
 10
432.0710678118655
 20
132.92893218813452
 10
432.73010453362735
 20
133.65606715836356
 10
433.31469612302544
 20
134.44429766980397
 10
433.8192126434835
 20
135.28603263174003
 10
434.23879532511285
 20
136.1731656763491
 10
434.5694033573221
 20
137.09715322745538
 10
434.8078528040323
 20
138.04909677983872
 10
434.951847266722
 20
139.0198285967044
 10
435.0
 20
140.0
 10
434.951847266722
 20
140.9801714032956
 10
434.8078528040323
 20
141.95090322016128
 10
434.5694033573221
 20
142.90284677254462
 10
434.23879532511285
 20
143.8268343236509
 10
433.8192126434835
 20
144.71396736825997
 10
433.31469612302544
 20
145.55570233019603
 10
432.73010453362735
 20
146.34393284163644
 10
432.0710678118655
 20
147.07106781186548
 10
431.34393284163644
 20
147.73010453362735
 10
430.555702330196
 20
148.31469612302544
 10
429.71396736826
 20
148.81921264348355
 10
428.8268343236509
 20
149.23879532511287
 10
427.90284677254465
 20
149.5694033573221
 10
426.9509032201613
 20
149.8078528040323
 10
425.9801714032956
 20
149.95184726672198
 10
425.0
 20
150.0
  0
LWPOLYLINE
  5
A1
330
17
100
AcDbEntity
  8
CORTE
100
AcDbPolyline
 90
65
 70
1
 10
425.9801714032956
 20
219.95184726672198
 10
425.0
 20
220.0
 10
424.0198285967044
 20
219.95184726672198
 10
423.0490967798387
 20
219.8078528040323
 10
422.09715322745535
 20
219.56940335732207
 10
421.1731656763491
 20
219.23879532511287
 10
420.28603263174
 20
218.81921264348355
 10
419.444297669804
 20
218.31469612302544
 10
418.65606715836356
 20
217.73010453362735
 10
417.9289321881345
 20
217.07106781186548
 10
417.26989546637265
 20
216.34393284163644
 10
416.68530387697456
 20
215.55570233019603
 10
416.1807873565165
 20
214.71396736825997
 10
415.76120467488715
 20
213.8268343236509
 10
415.4305966426779
 20
212.90284677254462
 10
415.1921471959677
 20
211.95090322016128
 10
415.048152733278
 20
210.9801714032956
 10
415.0
 20
210.0
 10
415.048152733278
 20
209.0198285967044
 10
415.1921471959677
 20
208.04909677983872
 10
415.4305966426779
 20
207.09715322745538
 10
415.76120467488715
 20
206.1731656763491
 10
416.1807873565165
 20
205.28603263174003
 10
416.68530387697456
 20
204.44429766980397
 10
417.26989546637265
 20
203.65606715836356
 10
417.9289321881345
 20
202.92893218813452
 10
418.65606715836356
 20
202.26989546637262
 10
419.444297669804
 20
201.68530387697456
 10
420.28603263174
 20
201.18078735651645
 10
421.17316567634913
 20
200.76120467488713
 10
422.09715322745535
 20
200.4305966426779
 10
423.0490967798387
 20
200.1921471959677
 10
424.0198285967044
 20
200.04815273327802
 10
425.0
 20
200.0
 10
425.9801714032956
 20
200.04815273327804
 10
426.9509032201613
 20
200.1921471959677
 10
427.90284677254465
 20
200.4305966426779
 10
428.82683432365087
 20
200.76120467488713
 10
429.71396736826
 20
201.18078735651645
 10
430.555702330196
 20
201.68530387697456
 10
431.34393284163644
 20
202.26989546637262
 10
432.0710678118655
 20
202.92893218813452
 10
432.73010453362735
 20
203.65606715836356
 10
433.31469612302544
 20
204.44429766980397
 10
433.8192126434835
 20
205.28603263174003
 10
434.23879532511285
 20
206.1731656763491
 10
434.5694033573221
 20
207.09715322745538
 10
434.8078528040323
 20
208.04909677983872
 10
434.951847266722
 20
209.0198285967044
 10
435.0
 20
210.0
 10
434.951847266722
 20
210.9801714032956
 10
434.8078528040323
 20
211.95090322016128
 10
434.5694033573221
 20
212.90284677254462
 10
434.23879532511285
 20
213.8268343236509
 10
433.8192126434835
 20
214.71396736825997
 10
433.31469612302544
 20
215.55570233019603
 10
432.73010453362735
 20
216.34393284163644
 10
432.0710678118655
 20
217.07106781186548
 10
431.34393284163644
 20
217.73010453362735
 10
430.555702330196
 20
218.31469612302544
 10
429.71396736826
 20
218.81921264348355
 10
428.8268343236509
 20
219.23879532511287
 10
427.90284677254465
 20
219.5694033573221
 10
426.9509032201613
 20
219.8078528040323
 10
425.9801714032956
 20
219.95184726672198
  0
LWPOLYLINE
  5
A2
330
17
100
AcDbEntity
  8
CORTE
100
AcDbPolyline
 90
65
 70
1
 10
496.9509032201613
 20
79.80785280403231
 10
495.9801714032956
 20
79.95184726672197
 10
495.0
 20
80.0
 10
494.0198285967044
 20
79.95184726672197
 10
493.0490967798387
 20
79.80785280403231
 10
492.09715322745535
 20
79.56940335732209
 10
491.1731656763491
 20
79.23879532511286
 10
490.28603263174
 20
78.81921264348355
 10
489.444297669804
 20
78.31469612302546
 10
488.65606715836356
 20
77.73010453362737
 10
487.9289321881345
 20
77.07106781186548
 10
487.26989546637265
 20
76.34393284163646
 10
486.68530387697456
 20
75.55570233019603
 10
486.1807873565165
 20
74.71396736825997
 10
485.76120467488715
 20
73.8268343236509
 10
485.4305966426779
 20
72.90284677254462
 10
485.1921471959677
 20
71.95090322016128
 10
485.048152733278
 20
70.9801714032956
 10
485.0
 20
70.0
 10
485.048152733278
 20
69.01982859670439
 10
485.1921471959677
 20
68.04909677983872
 10
485.4305966426779
 20
67.09715322745538
 10
485.76120467488715
 20
66.1731656763491
 10
486.1807873565165
 20
65.28603263174003
 10
486.68530387697456
 20
64.44429766980397
 10
487.26989546637265
 20
63.65606715836354
 10
487.9289321881345
 20
62.928932188134524
 10
488.65606715836356
 20
62.26989546637263
 10
489.444297669804
 20
61.685303876974544
 10
490.28603263174
 20
61.18078735651645
 10
491.17316567634913
 20
60.76120467488713
 10
492.09715322745535
 20
60.43059664267791
 10
493.0490967798387
 20
60.19214719596769
 10
494.0198285967044
 20
60.04815273327803
 10
495.0
 20
60.0
 10
495.9801714032956
 20
60.04815273327803
 10
496.9509032201613
 20
60.19214719596769
 10
497.90284677254465
 20
60.43059664267791
 10
498.82683432365087
 20
60.76120467488713
 10
499.71396736826
 20
61.18078735651645
 10
500.555702330196
 20
61.685303876974544
 10
501.34393284163644
 20
62.26989546637263
 10
502.0710678118655
 20
62.928932188134524
 10
502.73010453362735
 20
63.65606715836354
 10
503.31469612302544
 20
64.44429766980397
 10
503.8192126434835
 20
65.28603263174003
 10
504.23879532511285
 20
66.1731656763491
 10
504.5694033573221
 20
67.09715322745538
 10
504.8078528040323
 20
68.04909677983872
 10
504.951847266722
 20
69.0198285967044
 10
505.0
 20
70.0
 10
504.951847266722
 20
70.9801714032956
 10
504.8078528040323
 20
71.9509032201613
 10
504.5694033573221
 20
72.90284677254462
 10
504.23879532511285
 20
73.8268343236509
 10
503.8192126434835
 20
74.71396736825997
 10
503.31469612302544
 20
75.55570233019603
 10
502.73010453362735
 20
76.34393284163646
 10
502.0710678118655
 20
77.07106781186548
 10
501.34393284163644
 20
77.73010453362737
 10
500.555702330196
 20
78.31469612302546
 10
499.71396736826
 20
78.81921264348355
 10
498.8268343236509
 20
79.23879532511286
 10
497.90284677254465
 20
79.56940335732209
 10
496.9509032201613
 20
79.80785280403231
  0
LWPOLYLINE
  5
A3
330
17
100
AcDbEntity
  8
CORTE
100
AcDbPolyline
 90
65
 70
1
 10
497.90284677254465
 20
149.5694033573221
 10
496.9509032201613
 20
149.8078528040323
 10
495.9801714032956
 20
149.95184726672198
 10
495.0
 20
150.0
 10
494.0198285967044
 20
149.95184726672198
 10
493.0490967798387
 20
149.8078528040323
 10
492.09715322745535
 20
149.56940335732207
 10
491.1731656763491
 20
149.23879532511287
 10
490.28603263174
 20
148.81921264348355
 10
489.444297669804
 20
148.31469612302544
 10
488.65606715836356
 20
147.73010453362735
 10
487.9289321881345
 20
147.07106781186548
 10
487.26989546637265
 20
146.34393284163644
 10
486.68530387697456
 20
145.55570233019603
 10
486.1807873565165
 20
144.71396736825997
 10
485.76120467488715
 20
143.8268343236509
 10
485.4305966426779
 20
142.90284677254462
 10
485.1921471959677
 20
141.95090322016128
 10
485.048152733278
 20
140.9801714032956
 10
485.0
 20
140.0
 10
485.048152733278
 20
139.0198285967044
 10
485.1921471959677
 20
138.04909677983872
 10
485.4305966426779
 20
137.09715322745538
 10
485.76120467488715
 20
136.1731656763491
 10
486.1807873565165
 20
135.28603263174003
 10
486.68530387697456
 20
134.44429766980397
 10
487.26989546637265
 20
133.65606715836356
 10
487.9289321881345
 20
132.92893218813452
 10
488.65606715836356
 20
132.26989546637262
 10
489.444297669804
 20
131.68530387697456
 10
490.28603263174
 20
131.18078735651645
 10
491.17316567634913
 20
130.76120467488713
 10
492.09715322745535
 20
130.4305966426779
 10
493.0490967798387
 20
130.1921471959677
 10
494.0198285967044
 20
130.04815273327802
 10
495.0
 20
130.0
 10
495.9801714032956
 20
130.04815273327804
 10
496.9509032201613
 20
130.1921471959677
 10
497.90284677254465
 20
130.4305966426779
 10
498.82683432365087
 20
130.76120467488713
 10
499.71396736826
 20
131.18078735651645
 10
500.555702330196
 20
131.68530387697456
 10
501.34393284163644
 20
132.26989546637262
 10
502.0710678118655
 20
132.92893218813452
 10
502.73010453362735
 20
133.65606715836356
 10
503.31469612302544
 20
134.44429766980397
 10
503.8192126434835
 20
135.28603263174003
 10
504.23879532511285
 20
136.1731656763491
 10
504.5694033573221
 20
137.09715322745538
 10
504.8078528040323
 20
138.04909677983872
 10
504.951847266722
 20
139.0198285967044
 10
505.0
 20
140.0
 10
504.951847266722
 20
140.9801714032956
 10
504.8078528040323
 20
141.95090322016128
 10
504.5694033573221
 20
142.90284677254462
 10
504.23879532511285
 20
143.8268343236509
 10
503.8192126434835
 20
144.71396736825997
 10
503.31469612302544
 20
145.55570233019603
 10
502.73010453362735
 20
146.34393284163644
 10
502.0710678118655
 20
147.07106781186548
 10
501.34393284163644
 20
147.73010453362735
 10
500.555702330196
 20
148.31469612302544
 10
499.71396736826
 20
148.81921264348355
 10
498.8268343236509
 20
149.23879532511287
 10
497.90284677254465
 20
149.5694033573221
  0
LWPOLYLINE
  5
A4
330
17
100
AcDbEntity
  8
CORTE
100
AcDbPolyline
 90
65
 70
1
 10
498.8268343236509
 20
219.23879532511287
 10
497.90284677254465
 20
219.5694033573221
 10
496.9509032201613
 20
219.8078528040323
 10
495.9801714032956
 20
219.95184726672198
 10
495.0
 20
220.0
 10
494.0198285967044
 20
219.95184726672198
 10
493.0490967798387
 20
219.8078528040323
 10
492.09715322745535
 20
219.56940335732207
 10
491.1731656763491
 20
219.23879532511287
 10
490.28603263174
 20
218.81921264348355
 10
489.444297669804
 20
218.31469612302544
 10
488.65606715836356
 20
217.73010453362735
 10
487.9289321881345
 20
217.07106781186548
 10
487.26989546637265
 20
216.34393284163644
 10
486.68530387697456
 20
215.55570233019603
 10
486.1807873565165
 20
214.71396736825997
 10
485.76120467488715
 20
213.8268343236509
 10
485.4305966426779
 20
212.90284677254462
 10
485.1921471959677
 20
211.95090322016128
 10
485.048152733278
 20
210.9801714032956
 10
485.0
 20
210.0
 10
485.048152733278
 20
209.0198285967044
 10
485.1921471959677
 20
208.04909677983872
 10
485.4305966426779
 20
207.09715322745538
 10
485.76120467488715
 20
206.1731656763491
 10
486.1807873565165
 20
205.28603263174003
 10
486.68530387697456
 20
204.44429766980397
 10
487.26989546637265
 20
203.65606715836356
 10
487.9289321881345
 20
202.92893218813452
 10
488.65606715836356
 20
202.26989546637262
 10
489.444297669804
 20
201.68530387697456
 10
490.28603263174
 20
201.18078735651645
 10
491.17316567634913
 20
200.76120467488713
 10
492.09715322745535
 20
200.4305966426779
 10
493.0490967798387
 20
200.1921471959677
 10
494.0198285967044
 20
200.04815273327802
 10
495.0
 20
200.0
 10
495.9801714032956
 20
200.04815273327804
 10
496.9509032201613
 20
200.1921471959677
 10
497.90284677254465
 20
200.4305966426779
 10
498.82683432365087
 20
200.76120467488713
 10
499.71396736826
 20
201.18078735651645
 10
500.555702330196
 20
201.68530387697456
 10
501.34393284163644
 20
202.26989546637262
 10
502.0710678118655
 20
202.92893218813452
 10
502.73010453362735
 20
203.65606715836356
 10
503.31469612302544
 20
204.44429766980397
 10
503.8192126434835
 20
205.28603263174003
 10
504.23879532511285
 20
206.1731656763491
 10
504.5694033573221
 20
207.09715322745538
 10
504.8078528040323
 20
208.04909677983872
 10
504.951847266722
 20
209.0198285967044
 10
505.0
 20
210.0
 10
504.951847266722
 20
210.9801714032956
 10
504.8078528040323
 20
211.95090322016128
 10
504.5694033573221
 20
212.90284677254462
 10
504.23879532511285
 20
213.8268343236509
 10
503.8192126434835
 20
214.71396736825997
 10
503.31469612302544
 20
215.55570233019603
 10
502.73010453362735
 20
216.34393284163644
 10
502.0710678118655
 20
217.07106781186548
 10
501.34393284163644
 20
217.73010453362735
 10
500.555702330196
 20
218.31469612302544
 10
499.71396736826
 20
218.81921264348355
 10
498.8268343236509
 20
219.23879532511287
  0
LWPOLYLINE
  5
A5
330
17
100
AcDbEntity
  8
CORTE
100
AcDbPolyline
 90
65
 70
1
 10
569.71396736826
 20
78.81921264348355
 10
568.8268343236509
 20
79.23879532511286
 10
567.9028467725446
 20
79.56940335732209
 10
566.9509032201613
 20
79.80785280403231
 10
565.9801714032956
 20
79.95184726672197
 10
565.0
 20
80.0
 10
564.0198285967044
 20
79.95184726672197
 10
563.0490967798387
 20
79.80785280403231
 10
562.0971532274554
 20
79.56940335732209
 10
561.1731656763491
 20
79.23879532511286
 10
560.28603263174
 20
78.81921264348355
 10
559.444297669804
 20
78.31469612302546
 10
558.6560671583635
 20
77.73010453362737
 10
557.9289321881345
 20
77.07106781186548
 10
557.2698954663726
 20
76.34393284163646
 10
556.6853038769746
 20
75.55570233019603
 10
556.1807873565165
 20
74.71396736825997
 10
555.7612046748872
 20
73.8268343236509
 10
555.4305966426779
 20
72.90284677254462
 10
555.1921471959677
 20
71.95090322016128
 10
555.048152733278
 20
70.9801714032956
 10
555.0
 20
70.0
 10
555.048152733278
 20
69.01982859670439
 10
555.1921471959677
 20
68.04909677983872
 10
555.4305966426779
 20
67.09715322745538
 10
555.7612046748872
 20
66.1731656763491
 10
556.1807873565165
 20
65.28603263174003
 10
556.6853038769746
 20
64.44429766980397
 10
557.2698954663726
 20
63.65606715836354
 10
557.9289321881346
 20
62.928932188134524
 10
558.6560671583635
 20
62.26989546637263
 10
559.444297669804
 20
61.685303876974544
 10
560.28603263174
 20
61.18078735651645
 10
561.1731656763491
 20
60.76120467488713
 10
562.0971532274554
 20
60.43059664267791
 10
563.0490967798387
 20
60.19214719596769
 10
564.0198285967044
 20
60.04815273327803
 10
565.0
 20
60.0
 10
565.9801714032956
 20
60.04815273327803
 10
566.9509032201613
 20
60.19214719596769
 10
567.9028467725446
 20
60.43059664267791
 10
568.8268343236509
 20
60.76120467488713
 10
569.71396736826
 20
61.18078735651645
 10
570.555702330196
 20
61.685303876974544
 10
571.3439328416365
 20
62.26989546637263
 10
572.0710678118655
 20
62.928932188134524
 10
572.7301045336274
 20
63.65606715836354
 10
573.3146961230254
 20
64.44429766980397
 10
573.8192126434835
 20
65.28603263174003
 10
574.2387953251128
 20
66.1731656763491
 10
574.5694033573221
 20
67.09715322745538
 10
574.8078528040323
 20
68.04909677983872
 10
574.951847266722
 20
69.0198285967044
 10
575.0
 20
70.0
 10
574.951847266722
 20
70.9801714032956
 10
574.8078528040323
 20
71.9509032201613
 10
574.5694033573221
 20
72.90284677254462
 10
574.2387953251128
 20
73.8268343236509
 10
573.8192126434835
 20
74.71396736825997
 10
573.3146961230254
 20
75.55570233019603
 10
572.7301045336274
 20
76.34393284163646
 10
572.0710678118654
 20
77.07106781186548
 10
571.3439328416365
 20
77.73010453362737
 10
570.555702330196
 20
78.31469612302546
 10
569.71396736826
 20
78.81921264348355
  0
LWPOLYLINE
  5
A6
330
17
100
AcDbEntity
  8
CORTE
100
AcDbPolyline
 90
65
 70
1
 10
570.555702330196
 20
148.31469612302544
 10
569.71396736826
 20
148.81921264348355
 10
568.8268343236509
 20
149.23879532511287
 10
567.9028467725446
 20
149.5694033573221
 10
566.9509032201613
 20
149.8078528040323
 10
565.9801714032956
 20
149.95184726672198
 10
565.0
 20
150.0
 10
564.0198285967044
 20
149.95184726672198
 10
563.0490967798387
 20
149.8078528040323
 10
562.0971532274554
 20
149.56940335732207
 10
561.1731656763491
 20
149.23879532511287
 10
560.28603263174
 20
148.81921264348355
 10
559.444297669804
 20
148.31469612302544
 10
558.6560671583635
 20
147.73010453362735
 10
557.9289321881345
 20
147.07106781186548
 10
557.2698954663726
 20
146.34393284163644
 10
556.6853038769746
 20
145.55570233019603
 10
556.1807873565165
 20
144.71396736825997
 10
555.7612046748872
 20
143.8268343236509
 10
555.4305966426779
 20
142.90284677254462
 10
555.1921471959677
 20
141.95090322016128
 10
555.048152733278
 20
140.9801714032956
 10
555.0
 20
140.0
 10
555.048152733278
 20
139.0198285967044
 10
555.1921471959677
 20
138.04909677983872
 10
555.4305966426779
 20
137.09715322745538
 10
555.7612046748872
 20
136.1731656763491
 10
556.1807873565165
 20
135.28603263174003
 10
556.6853038769746
 20
134.44429766980397
 10
557.2698954663726
 20
133.65606715836356
 10
557.9289321881346
 20
132.92893218813452
 10
558.6560671583635
 20
132.26989546637262
 10
559.444297669804
 20
131.68530387697456
 10
560.28603263174
 20
131.18078735651645
 10
561.1731656763491
 20
130.76120467488713
 10
562.0971532274554
 20
130.4305966426779
 10
563.0490967798387
 20
130.1921471959677
 10
564.0198285967044
 20
130.04815273327802
 10
565.0
 20
130.0
 10
565.9801714032956
 20
130.04815273327804
 10
566.9509032201613
 20
130.1921471959677
 10
567.9028467725446
 20
130.4305966426779
 10
568.8268343236509
 20
130.76120467488713
 10
569.71396736826
 20
131.18078735651645
 10
570.555702330196
 20
131.68530387697456
 10
571.3439328416365
 20
132.26989546637262
 10
572.0710678118655
 20
132.92893218813452
 10
572.7301045336274
 20
133.65606715836356
 10
573.3146961230254
 20
134.44429766980397
 10
573.8192126434835
 20
135.28603263174003
 10
574.2387953251128
 20
136.1731656763491
 10
574.5694033573221
 20
137.09715322745538
 10
574.8078528040323
 20
138.04909677983872
 10
574.951847266722
 20
139.0198285967044
 10
575.0
 20
140.0
 10
574.951847266722
 20
140.9801714032956
 10
574.8078528040323
 20
141.95090322016128
 10
574.5694033573221
 20
142.90284677254462
 10
574.2387953251128
 20
143.8268343236509
 10
573.8192126434835
 20
144.71396736825997
 10
573.3146961230254
 20
145.55570233019603
 10
572.7301045336274
 20
146.34393284163644
 10
572.0710678118654
 20
147.07106781186548
 10
571.3439328416365
 20
147.73010453362735
 10
570.555702330196
 20
148.31469612302544
  0
LWPOLYLINE
  5
A7
330
17
100
AcDbEntity
  8
CORTE
100
AcDbPolyline
 90
65
 70
1
 10
571.3439328416365
 20
217.73010453362735
 10
570.555702330196
 20
218.31469612302544
 10
569.71396736826
 20
218.81921264348355
 10
568.8268343236509
 20
219.23879532511287
 10
567.9028467725446
 20
219.5694033573221
 10
566.9509032201613
 20
219.8078528040323
 10
565.9801714032956
 20
219.95184726672198
 10
565.0
 20
220.0
 10
564.0198285967044
 20
219.95184726672198
 10
563.0490967798387
 20
219.8078528040323
 10
562.0971532274554
 20
219.56940335732207
 10
561.1731656763491
 20
219.23879532511287
 10
560.28603263174
 20
218.81921264348355
 10
559.444297669804
 20
218.31469612302544
 10
558.6560671583635
 20
217.73010453362735
 10
557.9289321881345
 20
217.07106781186548
 10
557.2698954663726
 20
216.34393284163644
 10
556.6853038769746
 20
215.55570233019603
 10
556.1807873565165
 20
214.71396736825997
 10
555.7612046748872
 20
213.8268343236509
 10
555.4305966426779
 20
212.90284677254462
 10
555.1921471959677
 20
211.95090322016128
 10
555.048152733278
 20
210.9801714032956
 10
555.0
 20
210.0
 10
555.048152733278
 20
209.0198285967044
 10
555.1921471959677
 20
208.04909677983872
 10
555.4305966426779
 20
207.09715322745538
 10
555.7612046748872
 20
206.1731656763491
 10
556.1807873565165
 20
205.28603263174003
 10
556.6853038769746
 20
204.44429766980397
 10
557.2698954663726
 20
203.65606715836356
 10
557.9289321881346
 20
202.92893218813452
 10
558.6560671583635
 20
202.26989546637262
 10
559.444297669804
 20
201.68530387697456
 10
560.28603263174
 20
201.18078735651645
 10
561.1731656763491
 20
200.76120467488713
 10
562.0971532274554
 20
200.4305966426779
 10
563.0490967798387
 20
200.1921471959677
 10
564.0198285967044
 20
200.04815273327802
 10
565.0
 20
200.0
 10
565.9801714032956
 20
200.04815273327804
 10
566.9509032201613
 20
200.1921471959677
 10
567.9028467725446
 20
200.4305966426779
 10
568.8268343236509
 20
200.76120467488713
 10
569.71396736826
 20
201.18078735651645
 10
570.555702330196
 20
201.68530387697456
 10
571.3439328416365
 20
202.26989546637262
 10
572.0710678118655
 20
202.92893218813452
 10
572.7301045336274
 20
203.65606715836356
 10
573.3146961230254
 20
204.44429766980397
 10
573.8192126434835
 20
205.28603263174003
 10
574.2387953251128
 20
206.1731656763491
 10
574.5694033573221
 20
207.09715322745538
 10
574.8078528040323
 20
208.04909677983872
 10
574.951847266722
 20
209.0198285967044
 10
575.0
 20
210.0
 10
574.951847266722
 20
210.9801714032956
 10
574.8078528040323
 20
211.95090322016128
 10
574.5694033573221
 20
212.90284677254462
 10
574.2387953251128
 20
213.8268343236509
 10
573.8192126434835
 20
214.71396736825997
 10
573.3146961230254
 20
215.55570233019603
 10
572.7301045336274
 20
216.34393284163644
 10
572.0710678118654
 20
217.07106781186548
 10
571.3439328416365
 20
217.73010453362735
  0
LWPOLYLINE
  5
A8
330
17
100
AcDbEntity
  8
CORTE
100
AcDbPolyline
 90
65
 70
1
 10
642.0710678118654
 20
77.07106781186548
 10
641.3439328416365
 20
77.73010453362737
 10
640.555702330196
 20
78.31469612302546
 10
639.71396736826
 20
78.81921264348355
 10
638.8268343236509
 20
79.23879532511286
 10
637.9028467725446
 20
79.56940335732209
 10
636.9509032201613
 20
79.80785280403231
 10
635.9801714032956
 20
79.95184726672197
 10
635.0
 20
80.0
 10
634.0198285967044
 20
79.95184726672197
 10
633.0490967798387
 20
79.80785280403231
 10
632.0971532274554
 20
79.56940335732209
 10
631.1731656763491
 20
79.23879532511286
 10
630.28603263174
 20
78.81921264348355
 10
629.444297669804
 20
78.31469612302546
 10
628.6560671583635
 20
77.73010453362737
 10
627.9289321881345
 20
77.07106781186548
 10
627.2698954663726
 20
76.34393284163646
 10
626.6853038769746
 20
75.55570233019603
 10
626.1807873565165
 20
74.71396736825997
 10
625.7612046748872
 20
73.8268343236509
 10
625.4305966426779
 20
72.90284677254462
 10
625.1921471959677
 20
71.95090322016128
 10
625.048152733278
 20
70.9801714032956
 10
625.0
 20
70.0
 10
625.048152733278
 20
69.01982859670439
 10
625.1921471959677
 20
68.04909677983872
 10
625.4305966426779
 20
67.09715322745538
 10
625.7612046748872
 20
66.1731656763491
 10
626.1807873565165
 20
65.28603263174003
 10
626.6853038769746
 20
64.44429766980397
 10
627.2698954663726
 20
63.65606715836354
 10
627.9289321881346
 20
62.928932188134524
 10
628.6560671583635
 20
62.26989546637263
 10
629.444297669804
 20
61.685303876974544
 10
630.28603263174
 20
61.18078735651645
 10
631.1731656763491
 20
60.76120467488713
 10
632.0971532274554
 20
60.43059664267791
 10
633.0490967798387
 20
60.19214719596769
 10
634.0198285967044
 20
60.04815273327803
 10
635.0
 20
60.0
 10
635.9801714032956
 20
60.04815273327803
 10
636.9509032201613
 20
60.19214719596769
 10
637.9028467725446
 20
60.43059664267791
 10
638.8268343236509
 20
60.76120467488713
 10
639.71396736826
 20
61.18078735651645
 10
640.555702330196
 20
61.685303876974544
 10
641.3439328416365
 20
62.26989546637263
 10
642.0710678118655
 20
62.928932188134524
 10
642.7301045336274
 20
63.65606715836354
 10
643.3146961230254
 20
64.44429766980397
 10
643.8192126434835
 20
65.28603263174003
 10
644.2387953251128
 20
66.1731656763491
 10
644.5694033573221
 20
67.09715322745538
 10
644.8078528040323
 20
68.04909677983872
 10
644.951847266722
 20
69.0198285967044
 10
645.0
 20
70.0
 10
644.951847266722
 20
70.9801714032956
 10
644.8078528040323
 20
71.9509032201613
 10
644.5694033573221
 20
72.90284677254462
 10
644.2387953251128
 20
73.8268343236509
 10
643.8192126434835
 20
74.71396736825997
 10
643.3146961230254
 20
75.55570233019603
 10
642.7301045336274
 20
76.34393284163646
 10
642.0710678118654
 20
77.07106781186548
  0
LWPOLYLINE
  5
A9
330
17
100
AcDbEntity
  8
CORTE
100
AcDbPolyline
 90
65
 70
1
 10
642.7301045336274
 20
146.34393284163644
 10
642.0710678118654
 20
147.07106781186548
 10
641.3439328416365
 20
147.73010453362735
 10
640.555702330196
 20
148.31469612302544
 10
639.71396736826
 20
148.81921264348355
 10
638.8268343236509
 20
149.23879532511287
 10
637.9028467725446
 20
149.5694033573221
 10
636.9509032201613
 20
149.8078528040323
 10
635.9801714032956
 20
149.95184726672198
 10
635.0
 20
150.0
 10
634.0198285967044
 20
149.95184726672198
 10
633.0490967798387
 20
149.8078528040323
 10
632.0971532274554
 20
149.56940335732207
 10
631.1731656763491
 20
149.23879532511287
 10
630.28603263174
 20
148.81921264348355
 10
629.444297669804
 20
148.31469612302544
 10
628.6560671583635
 20
147.73010453362735
 10
627.9289321881345
 20
147.07106781186548
 10
627.2698954663726
 20
146.34393284163644
 10
626.6853038769746
 20
145.55570233019603
 10
626.1807873565165
 20
144.71396736825997
 10
625.7612046748872
 20
143.8268343236509
 10
625.4305966426779
 20
142.90284677254462
 10
625.1921471959677
 20
141.95090322016128
 10
625.048152733278
 20
140.9801714032956
 10
625.0
 20
140.0
 10
625.048152733278
 20
139.0198285967044
 10
625.1921471959677
 20
138.04909677983872
 10
625.4305966426779
 20
137.09715322745538
 10
625.7612046748872
 20
136.1731656763491
 10
626.1807873565165
 20
135.28603263174003
 10
626.6853038769746
 20
134.44429766980397
 10
627.2698954663726
 20
133.65606715836356
 10
627.9289321881346
 20
132.92893218813452
 10
628.6560671583635
 20
132.26989546637262
 10
629.444297669804
 20
131.68530387697456
 10
630.28603263174
 20
131.18078735651645
 10
631.1731656763491
 20
130.76120467488713
 10
632.0971532274554
 20
130.4305966426779
 10
633.0490967798387
 20
130.1921471959677
 10
634.0198285967044
 20
130.04815273327802
 10
635.0
 20
130.0
 10
635.9801714032956
 20
130.04815273327804
 10
636.9509032201613
 20
130.1921471959677
 10
637.9028467725446
 20
130.4305966426779
 10
638.8268343236509
 20
130.76120467488713
 10
639.71396736826
 20
131.18078735651645
 10
640.555702330196
 20
131.68530387697456
 10
641.3439328416365
 20
132.26989546637262
 10
642.0710678118655
 20
132.92893218813452
 10
642.7301045336274
 20
133.65606715836356
 10
643.3146961230254
 20
134.44429766980397
 10
643.8192126434835
 20
135.28603263174003
 10
644.2387953251128
 20
136.1731656763491
 10
644.5694033573221
 20
137.09715322745538
 10
644.8078528040323
 20
138.04909677983872
 10
644.951847266722
 20
139.0198285967044
 10
645.0
 20
140.0
 10
644.951847266722
 20
140.9801714032956
 10
644.8078528040323
 20
141.95090322016128
 10
644.5694033573221
 20
142.90284677254462
 10
644.2387953251128
 20
143.8268343236509
 10
643.8192126434835
 20
144.71396736825997
 10
643.3146961230254
 20
145.55570233019603
 10
642.7301045336274
 20
146.34393284163644
  0
LWPOLYLINE
  5
AA
330
17
100
AcDbEntity
  8
CORTE
100
AcDbPolyline
 90
65
 70
1
 10
643.3146961230254
 20
215.55570233019603
 10
642.7301045336274
 20
216.34393284163644
 10
642.0710678118654
 20
217.07106781186548
 10
641.3439328416365
 20
217.73010453362735
 10
640.555702330196
 20
218.31469612302544
 10
639.71396736826
 20
218.81921264348355
 10
638.8268343236509
 20
219.23879532511287
 10
637.9028467725446
 20
219.5694033573221
 10
636.9509032201613
 20
219.8078528040323
 10
635.9801714032956
 20
219.95184726672198
 10
635.0
 20
220.0
 10
634.0198285967044
 20
219.95184726672198
 10
633.0490967798387
 20
219.8078528040323
 10
632.0971532274554
 20
219.56940335732207
 10
631.1731656763491
 20
219.23879532511287
 10
630.28603263174
 20
218.81921264348355
 10
629.444297669804
 20
218.31469612302544
 10
628.6560671583635
 20
217.73010453362735
 10
627.9289321881345
 20
217.07106781186548
 10
627.2698954663726
 20
216.34393284163644
 10
626.6853038769746
 20
215.55570233019603
 10
626.1807873565165
 20
214.71396736825997
 10
625.7612046748872
 20
213.8268343236509
 10
625.4305966426779
 20
212.90284677254462
 10
625.1921471959677
 20
211.95090322016128
 10
625.048152733278
 20
210.9801714032956
 10
625.0
 20
210.0
 10
625.048152733278
 20
209.0198285967044
 10
625.1921471959677
 20
208.04909677983872
 10
625.4305966426779
 20
207.09715322745538
 10
625.7612046748872
 20
206.1731656763491
 10
626.1807873565165
 20
205.28603263174003
 10
626.6853038769746
 20
204.44429766980397
 10
627.2698954663726
 20
203.65606715836356
 10
627.9289321881346
 20
202.92893218813452
 10
628.6560671583635
 20
202.26989546637262
 10
629.444297669804
 20
201.68530387697456
 10
630.28603263174
 20
201.18078735651645
 10
631.1731656763491
 20
200.76120467488713
 10
632.0971532274554
 20
200.4305966426779
 10
633.0490967798387
 20
200.1921471959677
 10
634.0198285967044
 20
200.04815273327802
 10
635.0
 20
200.0
 10
635.9801714032956
 20
200.04815273327804
 10
636.9509032201613
 20
200.1921471959677
 10
637.9028467725446
 20
200.4305966426779
 10
638.8268343236509
 20
200.76120467488713
 10
639.71396736826
 20
201.18078735651645
 10
640.555702330196
 20
201.68530387697456
 10
641.3439328416365
 20
202.26989546637262
 10
642.0710678118655
 20
202.92893218813452
 10
642.7301045336274
 20
203.65606715836356
 10
643.3146961230254
 20
204.44429766980397
 10
643.8192126434835
 20
205.28603263174003
 10
644.2387953251128
 20
206.1731656763491
 10
644.5694033573221
 20
207.09715322745538
 10
644.8078528040323
 20
208.04909677983872
 10
644.951847266722
 20
209.0198285967044
 10
645.0
 20
210.0
 10
644.951847266722
 20
210.9801714032956
 10
644.8078528040323
 20
211.95090322016128
 10
644.5694033573221
 20
212.90284677254462
 10
644.2387953251128
 20
213.8268343236509
 10
643.8192126434835
 20
214.71396736825997
 10
643.3146961230254
 20
215.55570233019603
  0
LWPOLYLINE
  5
AB
330
17
100
AcDbEntity
  8
CORTE
100
AcDbPolyline
 90
65
 70
1
 10
713.8192126434835
 20
74.71396736825997
 10
713.3146961230254
 20
75.55570233019603
 10
712.7301045336274
 20
76.34393284163646
 10
712.0710678118654
 20
77.07106781186548
 10
711.3439328416365
 20
77.73010453362737
 10
710.555702330196
 20
78.31469612302546
 10
709.71396736826
 20
78.81921264348355
 10
708.8268343236509
 20
79.23879532511286
 10
707.9028467725446
 20
79.56940335732209
 10
706.9509032201613
 20
79.80785280403231
 10
705.9801714032956
 20
79.95184726672197
 10
705.0
 20
80.0
 10
704.0198285967044
 20
79.95184726672197
 10
703.0490967798387
 20
79.80785280403231
 10
702.0971532274554
 20
79.56940335732209
 10
701.1731656763491
 20
79.23879532511286
 10
700.28603263174
 20
78.81921264348355
 10
699.444297669804
 20
78.31469612302546
 10
698.6560671583635
 20
77.73010453362737
 10
697.9289321881345
 20
77.07106781186548
 10
697.2698954663726
 20
76.34393284163646
 10
696.6853038769746
 20
75.55570233019603
 10
696.1807873565165
 20
74.71396736825997
 10
695.7612046748872
 20
73.8268343236509
 10
695.4305966426779
 20
72.90284677254462
 10
695.1921471959677
 20
71.95090322016128
 10
695.048152733278
 20
70.9801714032956
 10
695.0
 20
70.0
 10
695.048152733278
 20
69.01982859670439
 10
695.1921471959677
 20
68.04909677983872
 10
695.4305966426779
 20
67.09715322745538
 10
695.7612046748872
 20
66.1731656763491
 10
696.1807873565165
 20
65.28603263174003
 10
696.6853038769746
 20
64.44429766980397
 10
697.2698954663726
 20
63.65606715836354
 10
697.9289321881346
 20
62.928932188134524
 10
698.6560671583635
 20
62.26989546637263
 10
699.444297669804
 20
61.685303876974544
 10
700.28603263174
 20
61.18078735651645
 10
701.1731656763491
 20
60.76120467488713
 10
702.0971532274554
 20
60.43059664267791
 10
703.0490967798387
 20
60.19214719596769
 10
704.0198285967044
 20
60.04815273327803
 10
705.0
 20
60.0
 10
705.9801714032956
 20
60.04815273327803
 10
706.9509032201613
 20
60.19214719596769
 10
707.9028467725446
 20
60.43059664267791
 10
708.8268343236509
 20
60.76120467488713
 10
709.71396736826
 20
61.18078735651645
 10
710.555702330196
 20
61.685303876974544
 10
711.3439328416365
 20
62.26989546637263
 10
712.0710678118655
 20
62.928932188134524
 10
712.7301045336274
 20
63.65606715836354
 10
713.3146961230254
 20
64.44429766980397
 10
713.8192126434835
 20
65.28603263174003
 10
714.2387953251128
 20
66.1731656763491
 10
714.5694033573221
 20
67.09715322745538
 10
714.8078528040323
 20
68.04909677983872
 10
714.951847266722
 20
69.0198285967044
 10
715.0
 20
70.0
 10
714.951847266722
 20
70.9801714032956
 10
714.8078528040323
 20
71.9509032201613
 10
714.5694033573221
 20
72.90284677254462
 10
714.2387953251128
 20
73.8268343236509
 10
713.8192126434835
 20
74.71396736825997
  0
LWPOLYLINE
  5
AC
330
17
100
AcDbEntity
  8
CORTE
100
AcDbPolyline
 90
65
 70
1
 10
714.2387953251128
 20
143.8268343236509
 10
713.8192126434835
 20
144.71396736825997
 10
713.3146961230254
 20
145.55570233019603
 10
712.7301045336274
 20
146.34393284163644
 10
712.0710678118654
 20
147.07106781186548
 10
711.3439328416365
 20
147.73010453362735
 10
710.555702330196
 20
148.31469612302544
 10
709.71396736826
 20
148.81921264348355
 10
708.8268343236509
 20
149.23879532511287
 10
707.9028467725446
 20
149.5694033573221
 10
706.9509032201613
 20
149.8078528040323
 10
705.9801714032956
 20
149.95184726672198
 10
705.0
 20
150.0
 10
704.0198285967044
 20
149.95184726672198
 10
703.0490967798387
 20
149.8078528040323
 10
702.0971532274554
 20
149.56940335732207
 10
701.1731656763491
 20
149.23879532511287
 10
700.28603263174
 20
148.81921264348355
 10
699.444297669804
 20
148.31469612302544
 10
698.6560671583635
 20
147.73010453362735
 10
697.9289321881345
 20
147.07106781186548
 10
697.2698954663726
 20
146.34393284163644
 10
696.6853038769746
 20
145.55570233019603
 10
696.1807873565165
 20
144.71396736825997
 10
695.7612046748872
 20
143.8268343236509
 10
695.4305966426779
 20
142.90284677254462
 10
695.1921471959677
 20
141.95090322016128
 10
695.048152733278
 20
140.9801714032956
 10
695.0
 20
140.0
 10
695.048152733278
 20
139.0198285967044
 10
695.1921471959677
 20
138.04909677983872
 10
695.4305966426779
 20
137.09715322745538
 10
695.7612046748872
 20
136.1731656763491
 10
696.1807873565165
 20
135.28603263174003
 10
696.6853038769746
 20
134.44429766980397
 10
697.2698954663726
 20
133.65606715836356
 10
697.9289321881346
 20
132.92893218813452
 10
698.6560671583635
 20
132.26989546637262
 10
699.444297669804
 20
131.68530387697456
 10
700.28603263174
 20
131.18078735651645
 10
701.1731656763491
 20
130.76120467488713
 10
702.0971532274554
 20
130.4305966426779
 10
703.0490967798387
 20
130.1921471959677
 10
704.0198285967044
 20
130.04815273327802
 10
705.0
 20
130.0
 10
705.9801714032956
 20
130.04815273327804
 10
706.9509032201613
 20
130.1921471959677
 10
707.9028467725446
 20
130.4305966426779
 10
708.8268343236509
 20
130.76120467488713
 10
709.71396736826
 20
131.18078735651645
 10
710.555702330196
 20
131.68530387697456
 10
711.3439328416365
 20
132.26989546637262
 10
712.0710678118655
 20
132.92893218813452
 10
712.7301045336274
 20
133.65606715836356
 10
713.3146961230254
 20
134.44429766980397
 10
713.8192126434835
 20
135.28603263174003
 10
714.2387953251128
 20
136.1731656763491
 10
714.5694033573221
 20
137.09715322745538
 10
714.8078528040323
 20
138.04909677983872
 10
714.951847266722
 20
139.0198285967044
 10
715.0
 20
140.0
 10
714.951847266722
 20
140.9801714032956
 10
714.8078528040323
 20
141.95090322016128
 10
714.5694033573221
 20
142.90284677254462
 10
714.2387953251128
 20
143.8268343236509
  0
LWPOLYLINE
  5
AD
330
17
100
AcDbEntity
  8
CORTE
100
AcDbPolyline
 90
65
 70
1
 10
714.5694033573221
 20
212.90284677254462
 10
714.2387953251128
 20
213.8268343236509
 10
713.8192126434835
 20
214.71396736825997
 10
713.3146961230254
 20
215.55570233019603
 10
712.7301045336274
 20
216.34393284163644
 10
712.0710678118654
 20
217.07106781186548
 10
711.3439328416365
 20
217.73010453362735
 10
710.555702330196
 20
218.31469612302544
 10
709.71396736826
 20
218.81921264348355
 10
708.8268343236509
 20
219.23879532511287
 10
707.9028467725446
 20
219.5694033573221
 10
706.9509032201613
 20
219.8078528040323
 10
705.9801714032956
 20
219.95184726672198
 10
705.0
 20
220.0
 10
704.0198285967044
 20
219.95184726672198
 10
703.0490967798387
 20
219.8078528040323
 10
702.0971532274554
 20
219.56940335732207
 10
701.1731656763491
 20
219.23879532511287
 10
700.28603263174
 20
218.81921264348355
 10
699.444297669804
 20
218.31469612302544
 10
698.6560671583635
 20
217.73010453362735
 10
697.9289321881345
 20
217.07106781186548
 10
697.2698954663726
 20
216.34393284163644
 10
696.6853038769746
 20
215.55570233019603
 10
696.1807873565165
 20
214.71396736825997
 10
695.7612046748872
 20
213.8268343236509
 10
695.4305966426779
 20
212.90284677254462
 10
695.1921471959677
 20
211.95090322016128
 10
695.048152733278
 20
210.9801714032956
 10
695.0
 20
210.0
 10
695.048152733278
 20
209.0198285967044
 10
695.1921471959677
 20
208.04909677983872
 10
695.4305966426779
 20
207.09715322745538
 10
695.7612046748872
 20
206.1731656763491
 10
696.1807873565165
 20
205.28603263174003
 10
696.6853038769746
 20
204.44429766980397
 10
697.2698954663726
 20
203.65606715836356
 10
697.9289321881346
 20
202.92893218813452
 10
698.6560671583635
 20
202.26989546637262
 10
699.444297669804
 20
201.68530387697456
 10
700.28603263174
 20
201.18078735651645
 10
701.1731656763491
 20
200.76120467488713
 10
702.0971532274554
 20
200.4305966426779
 10
703.0490967798387
 20
200.1921471959677
 10
704.0198285967044
 20
200.04815273327802
 10
705.0
 20
200.0
 10
705.9801714032956
 20
200.04815273327804
 10
706.9509032201613
 20
200.1921471959677
 10
707.9028467725446
 20
200.4305966426779
 10
708.8268343236509
 20
200.76120467488713
 10
709.71396736826
 20
201.18078735651645
 10
710.555702330196
 20
201.68530387697456
 10
711.3439328416365
 20
202.26989546637262
 10
712.0710678118655
 20
202.92893218813452
 10
712.7301045336274
 20
203.65606715836356
 10
713.3146961230254
 20
204.44429766980397
 10
713.8192126434835
 20
205.28603263174003
 10
714.2387953251128
 20
206.1731656763491
 10
714.5694033573221
 20
207.09715322745538
 10
714.8078528040323
 20
208.04909677983872
 10
714.951847266722
 20
209.0198285967044
 10
715.0
 20
210.0
 10
714.951847266722
 20
210.9801714032956
 10
714.8078528040323
 20
211.95090322016128
 10
714.5694033573221
 20
212.90284677254462
  0
LINE
  5
AE
330
17
100
AcDbEntity
  8
PLIEGUE
100
AcDbLine
 10
6.0
 20
1.8323010690230426
 30
0.0
 11
774.0
 21
1.8323010690230426
 31
0.0
  0
LINE
  5
AF
330
17
100
AcDbEntity
  8
TANGENTE
100
AcDbLine
 10
6.0
 20
3.9999999999999996
 30
0.0
 11
774.0
 21
3.9999999999999996
 31
0.0
  0
LINE
  5
B0
330
17
100
AcDbEntity
  8
TANGENTE
100
AcDbLine
 10
6.0
 20
-0.3353978619539144
 30
0.0
 11
774.0
 21
-0.3353978619539144
 31
0.0
  0
TEXT
  5
B1
330
17
100
AcDbEntity
  8
TEXTO
100
AcDbText
 10
390.0
 20
4.832301069023043
 30
0.0
 40
5.0
  1
PLEGAR ARRIBA 90deg R2  (BA 4.34)
 11
390.0
 21
4.832301069023043
 31
0.0
100
AcDbText
  0
LINE
  5
B2
330
17
100
AcDbEntity
  8
PLIEGUE
100
AcDbLine
 10
774.0
 20
278.167698930977
 30
0.0
 11
6.0
 21
278.167698930977
 31
0.0
  0
LINE
  5
B3
330
17
100
AcDbEntity
  8
TANGENTE
100
AcDbLine
 10
774.0
 20
276.0
 30
0.0
 11
6.0
 21
276.0
 31
0.0
  0
LINE
  5
B4
330
17
100
AcDbEntity
  8
TANGENTE
100
AcDbLine
 10
774.0
 20
280.33539786195394
 30
0.0
 11
6.0
 21
280.33539786195394
 31
0.0
  0
TEXT
  5
B5
330
17
100
AcDbEntity
  8
TEXTO
100
AcDbText
 10
390.0
 20
281.167698930977
 30
0.0
 40
5.0
  1
PLEGAR ARRIBA 90deg R2  (BA 4.34)
 11
390.0
 21
281.167698930977
 31
0.0
100
AcDbText
  0
LINE
  5
B6
330
17
100
AcDbEntity
  8
PLIEGUE
100
AcDbLine
 10
778.1676989309769
 20
6.0
 30
0.0
 11
778.1676989309769
 21
274.0
 31
0.0
  0
LINE
  5
B7
330
17
100
AcDbEntity
  8
TANGENTE
100
AcDbLine
 10
776.0
 20
6.0
 30
0.0
 11
776.0
 21
274.0
 31
0.0
  0
LINE
  5
B8
330
17
100
AcDbEntity
  8
TANGENTE
100
AcDbLine
 10
780.3353978619539
 20
6.0
 30
0.0
 11
780.3353978619539
 21
274.0
 31
0.0
  0
TEXT
  5
B9
330
17
100
AcDbEntity
  8
TEXTO
100
AcDbText
 10
778.1676989309769
 20
143.0
 30
0.0
 40
5.0
  1
PLEGAR ARRIBA 90deg R2  (BA 4.34)
 11
778.1676989309769
 21
143.0
 31
0.0
100
AcDbText
  0
LINE
  5
BA
330
17
100
AcDbEntity
  8
PLIEGUE
100
AcDbLine
 10
1.8323010690230426
 20
274.0
 30
0.0
 11
1.8323010690230426
 21
6.0
 31
0.0
  0
LINE
  5
BB
330
17
100
AcDbEntity
  8
TANGENTE
100
AcDbLine
 10
3.9999999999999996
 20
274.0
 30
0.0
 11
3.9999999999999996
 21
6.0
 31
0.0
  0
LINE
  5
BC
330
17
100
AcDbEntity
  8
TANGENTE
100
AcDbLine
 10
-0.3353978619539144
 20
274.0
 30
0.0
 11
-0.3353978619539144
 21
6.0
 31
0.0
  0
TEXT
  5
BD
330
17
100
AcDbEntity
  8
TEXTO
100
AcDbText
 10
1.8323010690230426
 20
143.0
 30
0.0
 40
5.0
  1
PLEGAR ARRIBA 90deg R2  (BA 4.34)
 11
1.8323010690230426
 21
143.0
 31
0.0
100
AcDbText
  0
TEXT
  5
BE
330
17
100
AcDbEntity
  8
TEXTO
100
AcDbText
 10
-56.335397861953915
 20
-74.33539786195391
 30
0.0
 40
7.0
  1
BRA-CUERPO — Brasero perforado (cama de carbón)  |  x1  |  acero e2  |  desarrollo 892.7 x 392.7  |  4 pliegue(s), 30 agujero(s)  |  masa 5.114 kg c/u
 11
-56.335397861953915
 21
-74.33539786195391
 31
0.0
100
AcDbText
  0
TEXT
  5
BF
330
17
100
AcDbEntity
  8
TEXTO
100
AcDbText
 10
-56.335397861953915
 20
-86.33539786195391
 30
0.0
 40
4.5
  1
Escala real 1:1 (1 unidad = 1 mm). Capa CORTE = trayectoria del laser. Capa PLIEGUE/TANGENTE = referencia de plegado, NO se corta. Factor K 0.38, radio interior = espesor. Vista desde la cara EXTERIOR.
 11
-56.335397861953915
 21
-86.33539786195391
 31
0.0
100
AcDbText
  0
ENDSEC
  0
SECTION
  2
OBJECTS
  0
DICTIONARY
  5
A
330
0
100
AcDbDictionary
281
1
  3
ACAD_COLOR
350
B
  3
ACAD_GROUP
350
C
  3
ACAD_LAYOUT
350
D
  3
ACAD_MATERIAL
350
E
  3
ACAD_MLEADERSTYLE
350
F
  3
ACAD_MLINESTYLE
350
10
  3
ACAD_PLOTSETTINGS
350
11
  3
ACAD_PLOTSTYLENAME
350
12
  3
ACAD_SCALELIST
350
14
  3
ACAD_TABLESTYLE
350
15
  3
ACAD_VISUALSTYLE
350
16
  3
EZDXF_META
350
2D
  0
DICTIONARY
  5
B
330
A
100
AcDbDictionary
281
1
  0
DICTIONARY
  5
C
330
A
100
AcDbDictionary
281
1
  0
DICTIONARY
  5
D
330
A
100
AcDbDictionary
281
1
  3
Model
350
1A
  3
Layout1
350
1E
  0
DICTIONARY
  5
E
330
A
100
AcDbDictionary
281
1
  3
ByBlock
350
1F
  3
ByLayer
350
20
  3
Global
350
21
  0
DICTIONARY
  5
F
330
A
100
AcDbDictionary
281
1
  3
Standard
350
2C
  0
DICTIONARY
  5
10
330
A
100
AcDbDictionary
281
1
  3
Standard
350
22
  0
DICTIONARY
  5
11
330
A
100
AcDbDictionary
281
1
  0
ACDBDICTIONARYWDFLT
  5
12
330
A
100
AcDbDictionary
281
1
  3
Normal
350
13
100
AcDbDictionaryWithDefault
340
13
  0
ACDBPLACEHOLDER
  5
13
330
12
  0
DICTIONARY
  5
14
330
A
100
AcDbDictionary
281
1
  0
DICTIONARY
  5
15
330
A
100
AcDbDictionary
281
1
  0
DICTIONARY
  5
16
330
A
100
AcDbDictionary
281
1
  3
2dWireframe
350
5A
  3
Basic
350
5B
  3
Brighten
350
5C
  3
ColorChange
350
5D
  3
Conceptual
350
5E
  3
Dim
350
5F
  3
EdgeColorOff
350
60
  3
Facepattern
350
61
  3
Flat
350
62
  3
FlatWithEdges
350
63
  3
Gouraud
350
64
  3
GouraudWithEdges
350
65
  3
Hidden
350
66
  3
JitterOff
350
67
  3
Linepattern
350
68
  3
Modeling
350
69
  3
OverhangOff
350
6A
  3
Realistic
350
6B
  3
Shaded
350
6C
  3
Shaded with edges
350
6D
  3
Shades of Gray
350
6E
  3
Sketchy
350
6F
  3
Thicken
350
70
  3
Wireframe
350
71
  3
X-Ray
350
72
  0
LAYOUT
  5
1A
330
D
100
AcDbPlotSettings
  1

  4
A3
  6

 40
7.5
 41
20.0
 42
7.5
 43
20.0
 44
420.0
 45
297.0
 46
0.0
 47
0.0
 48
0.0
 49
0.0
140
0.0
141
0.0
142
1.0
143
1.0
 70
1024
 72
1
 73
0
 74
5
  7

 75
16
 76
0
 77
2
 78
300
147
1.0
148
0.0
149
0.0
100
AcDbLayout
  1
Model
 70
1
 71
0
 10
0.0
 20
0.0
 11
420.0
 21
297.0
 12
0.0
 22
0.0
 32
0.0
 14
1e+20
 24
1e+20
 34
1e+20
 15
-1e+20
 25
-1e+20
 35
-1e+20
146
0.0
 13
0.0
 23
0.0
 33
0.0
 16
1.0
 26
0.0
 36
0.0
 17
0.0
 27
1.0
 37
0.0
 76
1
330
17
  0
LAYOUT
  5
1E
330
D
100
AcDbPlotSettings
  1

  4
A3
  6

 40
7.5
 41
20.0
 42
7.5
 43
20.0
 44
420.0
 45
297.0
 46
0.0
 47
0.0
 48
0.0
 49
0.0
140
0.0
141
0.0
142
1.0
143
1.0
 70
0
 72
1
 73
0
 74
5
  7

 75
16
 76
0
 77
2
 78
300
147
1.0
148
0.0
149
0.0
100
AcDbLayout
  1
Layout1
 70
1
 71
1
 10
0.0
 20
0.0
 11
420.0
 21
297.0
 12
0.0
 22
0.0
 32
0.0
 14
1e+20
 24
1e+20
 34
1e+20
 15
-1e+20
 25
-1e+20
 35
-1e+20
146
0.0
 13
0.0
 23
0.0
 33
0.0
 16
1.0
 26
0.0
 36
0.0
 17
0.0
 27
1.0
 37
0.0
 76
1
330
1B
  0
MATERIAL
  5
1F
102
{ACAD_REACTORS
330
E
102
}
330
E
100
AcDbMaterial
  1
ByBlock
  2

 70
0
 40
1.0
 71
1
 41
1.0
 91
-1023410177
 42
1.0
 72
1
  3

 73
1
 74
1
 75
1
 44
0.5
 73
0
 45
1.0
 46
1.0
 77
1
  4

 78
1
 79
1
170
1
 48
1.0
171
1
  6

172
1
173
1
174
1
140
1.0
141
1.0
175
1
  7

176
1
177
1
178
1
143
1.0
179
1
  8

270
1
271
1
272
1
145
1.0
146
1.0
273
1
  9

274
1
275
1
276
1
 42
1.0
 72
1
  3

 73
1
 74
1
 75
1
 94
63
  0
MATERIAL
  5
20
102
{ACAD_REACTORS
330
E
102
}
330
E
100
AcDbMaterial
  1
ByLayer
  2

 70
0
 40
1.0
 71
1
 41
1.0
 91
-1023410177
 42
1.0
 72
1
  3

 73
1
 74
1
 75
1
 44
0.5
 73
0
 45
1.0
 46
1.0
 77
1
  4

 78
1
 79
1
170
1
 48
1.0
171
1
  6

172
1
173
1
174
1
140
1.0
141
1.0
175
1
  7

176
1
177
1
178
1
143
1.0
179
1
  8

270
1
271
1
272
1
145
1.0
146
1.0
273
1
  9

274
1
275
1
276
1
 42
1.0
 72
1
  3

 73
1
 74
1
 75
1
 94
63
  0
MATERIAL
  5
21
102
{ACAD_REACTORS
330
E
102
}
330
E
100
AcDbMaterial
  1
Global
  2

 70
0
 40
1.0
 71
1
 41
1.0
 91
-1023410177
 42
1.0
 72
1
  3

 73
1
 74
1
 75
1
 44
0.5
 73
0
 45
1.0
 46
1.0
 77
1
  4

 78
1
 79
1
170
1
 48
1.0
171
1
  6

172
1
173
1
174
1
140
1.0
141
1.0
175
1
  7

176
1
177
1
178
1
143
1.0
179
1
  8

270
1
271
1
272
1
145
1.0
146
1.0
273
1
  9

274
1
275
1
276
1
 42
1.0
 72
1
  3

 73
1
 74
1
 75
1
 94
63
  0
MLINESTYLE
  5
22
102
{ACAD_REACTORS
330
10
102
}
330
10
100
AcDbMlineStyle
  2
Standard
 70
0
  3

 62
256
 51
90.0
 52
90.0
 71
2
 49
0.5
 62
256
  6
BYLAYER
 49
-0.5
 62
256
  6
BYLAYER
  0
MLEADERSTYLE
  5
2C
102
{ACAD_REACTORS
330
F
102
}
330
F
100
AcDbMLeaderStyle
179
2
170
2
171
1
172
0
 90
2
 40
0.0
 41
0.0
173
1
 91
-1056964608
 92
-2
290
1
 42
2.0
291
1
 43
8.0
  3
Standard
 44
4.0
300

342
29
174
1
175
1
176
0
178
1
 93
-1056964608
 45
4.0
292
0
297
0
 46
4.0
 94
-1056964608
 47
1.0
 49
1.0
140
1.0
294
1
141
0.0
177
0
142
1.0
295
0
296
0
143
3.75
271
0
272
9
273
9
  0
DICTIONARY
  5
2D
330
A
100
AcDbDictionary
280
1
281
1
  3
CREATED_BY_EZDXF
350
2E
  3
WRITTEN_BY_EZDXF
350
C2
  0
DICTIONARYVAR
  5
2E
330
2D
100
DictionaryVariables
280
0
  1
1.4.4 @ 2026-09-07T00:59:24.839320+00:00
  0
VISUALSTYLE
  5
5A
102
{ACAD_REACTORS
330
16
102
}
330
16
100
AcDbVisualStyle
  2
2dWireframe
 70
4
177
3
291
0
 70
58
 90
2
176
1
 90
2
176
1
 90
0
176
1
 90
0
176
1
 40
0.6
176
1
 40
30.0
176
1
 62
7
420
16777215
176
1
 90
1
176
1
 90
4
176
1
 62
7
176
1
 62
257
176
1
 90
1
176
1
 90
1
176
1
 40
1.0
176
1
 90
8
176
1
 62
7
176
1
 40
1.0
176
1
 90
1
176
1
 90
6
176
1
 90
2
176
1
 62
7
176
1
 90
5
176
1
 90
0
176
1
 90
0
176
1
290
0
176
1
 90
1
176
1
 40
0.0
176
1
 90
0
176
1
290
1
176
1
290
1
176
1
290
0
176
1
290
0
176
1
290
0
176
1
290
0
176
1
290
0
176
1
290
0
176
1
290
0
176
1
 90
50
176
1
 40
0.0
176
1
 40
1.0
176
1
 90
0
176
1
 62
18
420
0
176
1
 90
50
176
1
 90
3
176
1
 62
5
420
255
176
1
290
0
176
1
 90
50
176
1
 90
50
176
1
 90
50
176
1
290
0
176
1
 90
50
176
1
 62
256
176
0
 40
1.0
176
0
 90
2
176
1
  1
strokes_ogs.tif
176
1
290
0
176
1
 40
1.0
176
1
 40
1.0
176
1
  0
VISUALSTYLE
  5
5B
102
{ACAD_REACTORS
330
16
102
}
330
16
100
AcDbVisualStyle
  2
Basic
 70
7
177
3
291
1
 70
58
 90
2
176
1
 90
2
176
1
 90
0
176
1
 90
1
176
1
 40
0.6
176
1
 40
30.0
176
1
 62
7
420
16777215
176
1
 90
1
176
1
 90
4
176
1
 62
7
176
1
 62
257
176
1
 90
1
176
1
 90
1
176
1
 40
1.0
176
1
 90
8
176
1
 62
7
176
1
 40
1.0
176
1
 90
1
176
1
 90
6
176
1
 90
2
176
1
 62
7
176
1
 90
5
176
1
 90
0
176
1
 90
0
176
1
290
0
176
1
 90
1
176
1
 40
0.0
176
1
 90
0
176
1
290
0
176
1
290
1
176
1
290
1
176
1
290
0
176
1
290
0
176
1
290
0
176
1
290
0
176
1
290
0
176
1
290
0
176
1
 90
50
176
1
 40
0.0
176
1
 40
1.0
176
1
 90
0
176
1
 62
18
420
0
176
1
 90
50
176
1
 90
3
176
1
 62
5
420
255
176
1
290
0
176
1
 90
50
176
1
 90
50
176
1
 90
50
176
1
290
0
176
1
 90
50
176
1
 62
256
176
0
 40
1.0
176
0
 90
2
176
1
  1
strokes_ogs.tif
176
1
290
0
176
1
 40
1.0
176
1
 40
1.0
176
1
  0
VISUALSTYLE
  5
5C
102
{ACAD_REACTORS
330
16
102
}
330
16
100
AcDbVisualStyle
  2
Brighten
 70
12
177
3
291
1
 70
58
 90
2
176
1
 90
2
176
1
 90
0
176
1
 90
2
176
1
 40
0.6
176
1
 40
30.0
176
1
 62
7
420
16777215
176
1
 90
1
176
1
 90
4
176
1
 62
7
176
1
 62
257
176
1
 90
1
176
1
 90
1
176
1
 40
1.0
176
1
 90
8
176
1
 62
7
176
1
 40
1.0
176
1
 90
1
176
1
 90
6
176
1
 90
2
176
1
 62
7
176
1
 90
5
176
1
 90
0
176
1
 90
0
176
1
290
0
176
1
 90
1
176
1
 40
0.0
176
1
 90
0
176
1
290
0
176
1
290
1
176
1
290
1
176
1
290
0
176
1
290
0
176
1
290
0
176
1
290
0
176
1
290
0
176
1
290
0
176
1
 90
50
176
1
 40
0.0
176
1
 40
1.0
176
1
 90
0
176
1
 62
18
420
0
176
1
 90
50
176
1
 90
3
176
1
 62
5
420
255
176
1
290
0
176
1
 90
50
176
1
 90
50
176
1
 90
50
176
1
290
0
176
1
 90
50
176
1
 62
256
176
0
 40
1.0
176
0
 90
2
176
1
  1
strokes_ogs.tif
176
1
290
0
176
1
 40
1.0
176
1
 40
1.0
176
1
  0
VISUALSTYLE
  5
5D
102
{ACAD_REACTORS
330
16
102
}
330
16
100
AcDbVisualStyle
  2
ColorChange
 70
16
177
3
291
1
 70
58
 90
2
176
1
 90
2
176
1
 90
0
176
1
 90
2
176
1
 40
0.6
176
1
 40
30.0
176
1
 62
7
420
16777215
176
1
 90
1
176
1
 90
4
176
1
 62
7
176
1
 62
257
176
1
 90
1
176
1
 90
1
176
1
 40
1.0
176
1
 90
8
176
1
 62
7
176
1
 40
1.0
176
1
 90
1
176
1
 90
6
176
1
 90
2
176
1
 62
7
176
1
 90
5
176
1
 90
0
176
1
 90
0
176
1
290
0
176
1
 90
1
176
1
 40
0.0
176
1
 90
0
176
1
290
0
176
1
290
1
176
1
290
1
176
1
290
0
176
1
290
0
176
1
290
0
176
1
290
0
176
1
290
0
176
1
290
0
176
1
 90
50
176
1
 40
0.0
176
1
 40
1.0
176
1
 90
0
176
1
 62
18
420
0
176
1
 90
50
176
1
 90
3
176
1
 62
5
420
255
176
1
290
0
176
1
 90
50
176
1
 90
50
176
1
 90
50
176
1
290
0
176
1
 90
50
176
1
 62
256
176
0
 40
1.0
176
0
 90
2
176
1
  1
strokes_ogs.tif
176
1
290
0
176
1
 40
1.0
176
1
 40
1.0
176
1
  0
VISUALSTYLE
  5
5E
102
{ACAD_REACTORS
330
16
102
}
330
16
100
AcDbVisualStyle
  2
Conceptual
 70
9
177
3
291
0
 70
58
 90
2
176
1
 90
2
176
1
 90
0
176
1
 90
3
176
1
 40
0.6
176
1
 40
30.0
176
1
 62
7
420
16777215
176
1
 90
1
176
1
 90
4
176
1
 62
7
176
1
 62
257
176
1
 90
1
176
1
 90
1
176
1
 40
1.0
176
1
 90
8
176
1
 62
7
176
1
 40
1.0
176
1
 90
1
176
1
 90
6
176
1
 90
2
176
1
 62
7
176
1
 90
5
176
1
 90
0
176
1
 90
0
176
1
290
0
176
1
 90
1
176
1
 40
0.0
176
1
 90
0
176
1
290
0
176
1
290
1
176
1
290
1
176
1
290
0
176
1
290
0
176
1
290
0
176
1
290
0
176
1
290
0
176
1
290
0
176
1
 90
50
176
1
 40
0.0
176
1
 40
1.0
176
1
 90
0
176
1
 62
18
420
0
176
1
 90
50
176
1
 90
3
176
1
 62
5
420
255
176
1
290
0
176
1
 90
50
176
1
 90
50
176
1
 90
50
176
1
290
0
176
1
 90
50
176
1
 62
256
176
0
 40
1.0
176
0
 90
2
176
1
  1
strokes_ogs.tif
176
1
290
0
176
1
 40
1.0
176
1
 40
1.0
176
1
  0
VISUALSTYLE
  5
5F
102
{ACAD_REACTORS
330
16
102
}
330
16
100
AcDbVisualStyle
  2
Dim
 70
11
177
3
291
1
 70
58
 90
2
176
1
 90
2
176
1
 90
0
176
1
 90
2
176
1
 40
0.6
176
1
 40
30.0
176
1
 62
7
420
16777215
176
1
 90
1
176
1
 90
4
176
1
 62
7
176
1
 62
257
176
1
 90
1
176
1
 90
1
176
1
 40
1.0
176
1
 90
8
176
1
 62
7
176
1
 40
1.0
176
1
 90
1
176
1
 90
6
176
1
 90
2
176
1
 62
7
176
1
 90
5
176
1
 90
0
176
1
 90
0
176
1
290
0
176
1
 90
1
176
1
 40
0.0
176
1
 90
0
176
1
290
0
176
1
290
1
176
1
290
1
176
1
290
0
176
1
290
0
176
1
290
0
176
1
290
0
176
1
290
0
176
1
290
0
176
1
 90
50
176
1
 40
0.0
176
1
 40
1.0
176
1
 90
0
176
1
 62
18
420
0
176
1
 90
50
176
1
 90
3
176
1
 62
5
420
255
176
1
290
0
176
1
 90
50
176
1
 90
50
176
1
 90
50
176
1
290
0
176
1
 90
50
176
1
 62
256
176
0
 40
1.0
176
0
 90
2
176
1
  1
strokes_ogs.tif
176
1
290
0
176
1
 40
1.0
176
1
 40
1.0
176
1
  0
VISUALSTYLE
  5
60
102
{ACAD_REACTORS
330
16
102
}
330
16
100
AcDbVisualStyle
  2
EdgeColorOff
 70
22
177
3
291
1
 70
58
 90
2
176
1
 90
2
176
1
 90
0
176
1
 90
2
176
1
 40
0.6
176
1
 40
30.0
176
1
 62
7
420
16777215
176
1
 90
1
176
1
 90
4
176
1
 62
7
176
1
 62
257
176
1
 90
1
176
1
 90
1
176
1
 40
1.0
176
1
 90
8
176
1
 62
7
176
1
 40
1.0
176
1
 90
1
176
1
 90
6
176
1
 90
2
176
1
 62
7
176
1
 90
5
176
1
 90
0
176
1
 90
0
176
1
290
0
176
1
 90
1
176
1
 40
0.0
176
1
 90
0
176
1
290
0
176
1
290
1
176
1
290
1
176
1
290
0
176
1
290
0
176
1
290
0
176
1
290
0
176
1
290
0
176
1
290
0
176
1
 90
50
176
1
 40
0.0
176
1
 40
1.0
176
1
 90
0
176
1
 62
18
420
0
176
1
 90
50
176
1
 90
3
176
1
 62
5
420
255
176
1
290
0
176
1
 90
50
176
1
 90
50
176
1
 90
50
176
1
290
0
176
1
 90
50
176
1
 62
256
176
0
 40
1.0
176
0
 90
2
176
1
  1
strokes_ogs.tif
176
1
290
0
176
1
 40
1.0
176
1
 40
1.0
176
1
  0
VISUALSTYLE
  5
61
102
{ACAD_REACTORS
330
16
102
}
330
16
100
AcDbVisualStyle
  2
Facepattern
 70
15
177
3
291
1
 70
58
 90
2
176
1
 90
2
176
1
 90
0
176
1
 90
2
176
1
 40
0.6
176
1
 40
30.0
176
1
 62
7
420
16777215
176
1
 90
1
176
1
 90
4
176
1
 62
7
176
1
 62
257
176
1
 90
1
176
1
 90
1
176
1
 40
1.0
176
1
 90
8
176
1
 62
7
176
1
 40
1.0
176
1
 90
1
176
1
 90
6
176
1
 90
2
176
1
 62
7
176
1
 90
5
176
1
 90
0
176
1
 90
0
176
1
290
0
176
1
 90
1
176
1
 40
0.0
176
1
 90
0
176
1
290
0
176
1
290
1
176
1
290
1
176
1
290
0
176
1
290
0
176
1
290
0
176
1
290
0
176
1
290
0
176
1
290
0
176
1
 90
50
176
1
 40
0.0
176
1
 40
1.0
176
1
 90
0
176
1
 62
18
420
0
176
1
 90
50
176
1
 90
3
176
1
 62
5
420
255
176
1
290
0
176
1
 90
50
176
1
 90
50
176
1
 90
50
176
1
290
0
176
1
 90
50
176
1
 62
256
176
0
 40
1.0
176
0
 90
2
176
1
  1
strokes_ogs.tif
176
1
290
0
176
1
 40
1.0
176
1
 40
1.0
176
1
  0
VISUALSTYLE
  5
62
102
{ACAD_REACTORS
330
16
102
}
330
16
100
AcDbVisualStyle
  2
Flat
 70
0
177
3
291
1
 70
58
 90
2
176
1
 90
2
176
1
 90
0
176
1
 90
2
176
1
 40
0.6
176
1
 40
30.0
176
1
 62
7
420
16777215
176
1
 90
1
176
1
 90
4
176
1
 62
7
176
1
 62
257
176
1
 90
1
176
1
 90
1
176
1
 40
1.0
176
1
 90
8
176
1
 62
7
176
1
 40
1.0
176
1
 90
1
176
1
 90
6
176
1
 90
2
176
1
 62
7
176
1
 90
5
176
1
 90
0
176
1
 90
0
176
1
290
0
176
1
 90
1
176
1
 40
0.0
176
1
 90
0
176
1
290
0
176
1
290
1
176
1
290
1
176
1
290
0
176
1
290
0
176
1
290
0
176
1
290
0
176
1
290
0
176
1
290
0
176
1
 90
50
176
1
 40
0.0
176
1
 40
1.0
176
1
 90
0
176
1
 62
18
420
0
176
1
 90
50
176
1
 90
3
176
1
 62
5
420
255
176
1
290
0
176
1
 90
50
176
1
 90
50
176
1
 90
50
176
1
290
0
176
1
 90
50
176
1
 62
256
176
0
 40
1.0
176
0
 90
2
176
1
  1
strokes_ogs.tif
176
1
290
0
176
1
 40
1.0
176
1
 40
1.0
176
1
  0
VISUALSTYLE
  5
63
102
{ACAD_REACTORS
330
16
102
}
330
16
100
AcDbVisualStyle
  2
FlatWithEdges
 70
1
177
3
291
1
 70
58
 90
2
176
1
 90
2
176
1
 90
0
176
1
 90
2
176
1
 40
0.6
176
1
 40
30.0
176
1
 62
7
420
16777215
176
1
 90
1
176
1
 90
4
176
1
 62
7
176
1
 62
257
176
1
 90
1
176
1
 90
1
176
1
 40
1.0
176
1
 90
8
176
1
 62
7
176
1
 40
1.0
176
1
 90
1
176
1
 90
6
176
1
 90
2
176
1
 62
7
176
1
 90
5
176
1
 90
0
176
1
 90
0
176
1
290
0
176
1
 90
1
176
1
 40
0.0
176
1
 90
0
176
1
290
0
176
1
290
1
176
1
290
1
176
1
290
0
176
1
290
0
176
1
290
0
176
1
290
0
176
1
290
0
176
1
290
0
176
1
 90
50
176
1
 40
0.0
176
1
 40
1.0
176
1
 90
0
176
1
 62
18
420
0
176
1
 90
50
176
1
 90
3
176
1
 62
5
420
255
176
1
290
0
176
1
 90
50
176
1
 90
50
176
1
 90
50
176
1
290
0
176
1
 90
50
176
1
 62
256
176
0
 40
1.0
176
0
 90
2
176
1
  1
strokes_ogs.tif
176
1
290
0
176
1
 40
1.0
176
1
 40
1.0
176
1
  0
VISUALSTYLE
  5
64
102
{ACAD_REACTORS
330
16
102
}
330
16
100
AcDbVisualStyle
  2
Gouraud
 70
2
177
3
291
1
 70
58
 90
2
176
1
 90
2
176
1
 90
0
176
1
 90
2
176
1
 40
0.6
176
1
 40
30.0
176
1
 62
7
420
16777215
176
1
 90
1
176
1
 90
4
176
1
 62
7
176
1
 62
257
176
1
 90
1
176
1
 90
1
176
1
 40
1.0
176
1
 90
8
176
1
 62
7
176
1
 40
1.0
176
1
 90
1
176
1
 90
6
176
1
 90
2
176
1
 62
7
176
1
 90
5
176
1
 90
0
176
1
 90
0
176
1
290
0
176
1
 90
1
176
1
 40
0.0
176
1
 90
0
176
1
290
0
176
1
290
1
176
1
290
1
176
1
290
0
176
1
290
0
176
1
290
0
176
1
290
0
176
1
290
0
176
1
290
0
176
1
 90
50
176
1
 40
0.0
176
1
 40
1.0
176
1
 90
0
176
1
 62
18
420
0
176
1
 90
50
176
1
 90
3
176
1
 62
5
420
255
176
1
290
0
176
1
 90
50
176
1
 90
50
176
1
 90
50
176
1
290
0
176
1
 90
50
176
1
 62
256
176
0
 40
1.0
176
0
 90
2
176
1
  1
strokes_ogs.tif
176
1
290
0
176
1
 40
1.0
176
1
 40
1.0
176
1
  0
VISUALSTYLE
  5
65
102
{ACAD_REACTORS
330
16
102
}
330
16
100
AcDbVisualStyle
  2
GouraudWithEdges
 70
3
177
3
291
1
 70
58
 90
2
176
1
 90
2
176
1
 90
0
176
1
 90
2
176
1
 40
0.6
176
1
 40
30.0
176
1
 62
7
420
16777215
176
1
 90
1
176
1
 90
4
176
1
 62
7
176
1
 62
257
176
1
 90
1
176
1
 90
1
176
1
 40
1.0
176
1
 90
8
176
1
 62
7
176
1
 40
1.0
176
1
 90
1
176
1
 90
6
176
1
 90
2
176
1
 62
7
176
1
 90
5
176
1
 90
0
176
1
 90
0
176
1
290
0
176
1
 90
1
176
1
 40
0.0
176
1
 90
0
176
1
290
0
176
1
290
1
176
1
290
1
176
1
290
0
176
1
290
0
176
1
290
0
176
1
290
0
176
1
290
0
176
1
290
0
176
1
 90
50
176
1
 40
0.0
176
1
 40
1.0
176
1
 90
0
176
1
 62
18
420
0
176
1
 90
50
176
1
 90
3
176
1
 62
5
420
255
176
1
290
0
176
1
 90
50
176
1
 90
50
176
1
 90
50
176
1
290
0
176
1
 90
50
176
1
 62
256
176
0
 40
1.0
176
0
 90
2
176
1
  1
strokes_ogs.tif
176
1
290
0
176
1
 40
1.0
176
1
 40
1.0
176
1
  0
VISUALSTYLE
  5
66
102
{ACAD_REACTORS
330
16
102
}
330
16
100
AcDbVisualStyle
  2
Hidden
 70
6
177
3
291
0
 70
58
 90
2
176
1
 90
2
176
1
 90
0
176
1
 90
1
176
1
 40
0.6
176
1
 40
30.0
176
1
 62
7
420
16777215
176
1
 90
1
176
1
 90
4
176
1
 62
7
176
1
 62
257
176
1
 90
1
176
1
 90
1
176
1
 40
1.0
176
1
 90
8
176
1
 62
7
176
1
 40
1.0
176
1
 90
1
176
1
 90
6
176
1
 90
2
176
1
 62
7
176
1
 90
5
176
1
 90
0
176
1
 90
0
176
1
290
0
176
1
 90
1
176
1
 40
0.0
176
1
 90
0
176
1
290
0
176
1
290
1
176
1
290
1
176
1
290
0
176
1
290
0
176
1
290
0
176
1
290
0
176
1
290
0
176
1
290
0
176
1
 90
50
176
1
 40
0.0
176
1
 40
1.0
176
1
 90
0
176
1
 62
18
420
0
176
1
 90
50
176
1
 90
3
176
1
 62
5
420
255
176
1
290
0
176
1
 90
50
176
1
 90
50
176
1
 90
50
176
1
290
0
176
1
 90
50
176
1
 62
256
176
0
 40
1.0
176
0
 90
2
176
1
  1
strokes_ogs.tif
176
1
290
0
176
1
 40
1.0
176
1
 40
1.0
176
1
  0
VISUALSTYLE
  5
67
102
{ACAD_REACTORS
330
16
102
}
330
16
100
AcDbVisualStyle
  2
JitterOff
 70
20
177
3
291
1
 70
58
 90
2
176
1
 90
2
176
1
 90
0
176
1
 90
2
176
1
 40
0.6
176
1
 40
30.0
176
1
 62
7
420
16777215
176
1
 90
1
176
1
 90
4
176
1
 62
7
176
1
 62
257
176
1
 90
1
176
1
 90
1
176
1
 40
1.0
176
1
 90
8
176
1
 62
7
176
1
 40
1.0
176
1
 90
1
176
1
 90
6
176
1
 90
2
176
1
 62
7
176
1
 90
5
176
1
 90
0
176
1
 90
0
176
1
290
0
176
1
 90
1
176
1
 40
0.0
176
1
 90
0
176
1
290
0
176
1
290
1
176
1
290
1
176
1
290
0
176
1
290
0
176
1
290
0
176
1
290
0
176
1
290
0
176
1
290
0
176
1
 90
50
176
1
 40
0.0
176
1
 40
1.0
176
1
 90
0
176
1
 62
18
420
0
176
1
 90
50
176
1
 90
3
176
1
 62
5
420
255
176
1
290
0
176
1
 90
50
176
1
 90
50
176
1
 90
50
176
1
290
0
176
1
 90
50
176
1
 62
256
176
0
 40
1.0
176
0
 90
2
176
1
  1
strokes_ogs.tif
176
1
290
0
176
1
 40
1.0
176
1
 40
1.0
176
1
  0
VISUALSTYLE
  5
68
102
{ACAD_REACTORS
330
16
102
}
330
16
100
AcDbVisualStyle
  2
Linepattern
 70
14
177
3
291
1
 70
58
 90
2
176
1
 90
2
176
1
 90
0
176
1
 90
2
176
1
 40
0.6
176
1
 40
30.0
176
1
 62
7
420
16777215
176
1
 90
1
176
1
 90
4
176
1
 62
7
176
1
 62
257
176
1
 90
1
176
1
 90
1
176
1
 40
1.0
176
1
 90
8
176
1
 62
7
176
1
 40
1.0
176
1
 90
1
176
1
 90
6
176
1
 90
2
176
1
 62
7
176
1
 90
5
176
1
 90
0
176
1
 90
0
176
1
290
0
176
1
 90
1
176
1
 40
0.0
176
1
 90
0
176
1
290
0
176
1
290
1
176
1
290
1
176
1
290
0
176
1
290
0
176
1
290
0
176
1
290
0
176
1
290
0
176
1
290
0
176
1
 90
50
176
1
 40
0.0
176
1
 40
1.0
176
1
 90
0
176
1
 62
18
420
0
176
1
 90
50
176
1
 90
3
176
1
 62
5
420
255
176
1
290
0
176
1
 90
50
176
1
 90
50
176
1
 90
50
176
1
290
0
176
1
 90
50
176
1
 62
256
176
0
 40
1.0
176
0
 90
2
176
1
  1
strokes_ogs.tif
176
1
290
0
176
1
 40
1.0
176
1
 40
1.0
176
1
  0
VISUALSTYLE
  5
69
102
{ACAD_REACTORS
330
16
102
}
330
16
100
AcDbVisualStyle
  2
Modeling
 70
10
177
3
291
0
 70
58
 90
2
176
1
 90
2
176
1
 90
0
176
1
 90
2
176
1
 40
0.6
176
1
 40
30.0
176
1
 62
7
420
16777215
176
1
 90
1
176
1
 90
4
176
1
 62
7
176
1
 62
257
176
1
 90
1
176
1
 90
1
176
1
 40
1.0
176
1
 90
8
176
1
 62
7
176
1
 40
1.0
176
1
 90
1
176
1
 90
6
176
1
 90
2
176
1
 62
7
176
1
 90
5
176
1
 90
0
176
1
 90
0
176
1
290
0
176
1
 90
1
176
1
 40
0.0
176
1
 90
0
176
1
290
0
176
1
290
1
176
1
290
1
176
1
290
0
176
1
290
0
176
1
290
0
176
1
290
0
176
1
290
0
176
1
290
0
176
1
 90
50
176
1
 40
0.0
176
1
 40
1.0
176
1
 90
0
176
1
 62
18
420
0
176
1
 90
50
176
1
 90
3
176
1
 62
5
420
255
176
1
290
0
176
1
 90
50
176
1
 90
50
176
1
 90
50
176
1
290
0
176
1
 90
50
176
1
 62
256
176
0
 40
1.0
176
0
 90
2
176
1
  1
strokes_ogs.tif
176
1
290
0
176
1
 40
1.0
176
1
 40
1.0
176
1
  0
VISUALSTYLE
  5
6A
102
{ACAD_REACTORS
330
16
102
}
330
16
100
AcDbVisualStyle
  2
OverhangOff
 70
21
177
3
291
1
 70
58
 90
2
176
1
 90
2
176
1
 90
0
176
1
 90
2
176
1
 40
0.6
176
1
 40
30.0
176
1
 62
7
420
16777215
176
1
 90
1
176
1
 90
4
176
1
 62
7
176
1
 62
257
176
1
 90
1
176
1
 90
1
176
1
 40
1.0
176
1
 90
8
176
1
 62
7
176
1
 40
1.0
176
1
 90
1
176
1
 90
6
176
1
 90
2
176
1
 62
7
176
1
 90
5
176
1
 90
0
176
1
 90
0
176
1
290
0
176
1
 90
1
176
1
 40
0.0
176
1
 90
0
176
1
290
0
176
1
290
1
176
1
290
1
176
1
290
0
176
1
290
0
176
1
290
0
176
1
290
0
176
1
290
0
176
1
290
0
176
1
 90
50
176
1
 40
0.0
176
1
 40
1.0
176
1
 90
0
176
1
 62
18
420
0
176
1
 90
50
176
1
 90
3
176
1
 62
5
420
255
176
1
290
0
176
1
 90
50
176
1
 90
50
176
1
 90
50
176
1
290
0
176
1
 90
50
176
1
 62
256
176
0
 40
1.0
176
0
 90
2
176
1
  1
strokes_ogs.tif
176
1
290
0
176
1
 40
1.0
176
1
 40
1.0
176
1
  0
VISUALSTYLE
  5
6B
102
{ACAD_REACTORS
330
16
102
}
330
16
100
AcDbVisualStyle
  2
Realistic
 70
8
177
3
291
0
 70
58
 90
2
176
1
 90
2
176
1
 90
0
176
1
 90
2
176
1
 40
0.6
176
1
 40
30.0
176
1
 62
7
420
16777215
176
1
 90
1
176
1
 90
4
176
1
 62
7
176
1
 62
257
176
1
 90
1
176
1
 90
1
176
1
 40
1.0
176
1
 90
8
176
1
 62
7
176
1
 40
1.0
176
1
 90
1
176
1
 90
6
176
1
 90
2
176
1
 62
7
176
1
 90
5
176
1
 90
0
176
1
 90
0
176
1
290
0
176
1
 90
1
176
1
 40
0.0
176
1
 90
0
176
1
290
0
176
1
290
1
176
1
290
1
176
1
290
0
176
1
290
0
176
1
290
0
176
1
290
0
176
1
290
0
176
1
290
0
176
1
 90
50
176
1
 40
0.0
176
1
 40
1.0
176
1
 90
0
176
1
 62
18
420
0
176
1
 90
50
176
1
 90
3
176
1
 62
5
420
255
176
1
290
0
176
1
 90
50
176
1
 90
50
176
1
 90
50
176
1
290
0
176
1
 90
50
176
1
 62
256
176
0
 40
1.0
176
0
 90
2
176
1
  1
strokes_ogs.tif
176
1
290
0
176
1
 40
1.0
176
1
 40
1.0
176
1
  0
VISUALSTYLE
  5
6C
102
{ACAD_REACTORS
330
16
102
}
330
16
100
AcDbVisualStyle
  2
Shaded
 70
27
177
3
291
0
 70
58
 90
2
176
1
 90
2
176
1
 90
0
176
1
 90
2
176
1
 40
0.6
176
1
 40
30.0
176
1
 62
7
420
16777215
176
1
 90
1
176
1
 90
4
176
1
 62
7
176
1
 62
257
176
1
 90
1
176
1
 90
1
176
1
 40
1.0
176
1
 90
8
176
1
 62
7
176
1
 40
1.0
176
1
 90
1
176
1
 90
6
176
1
 90
2
176
1
 62
7
176
1
 90
5
176
1
 90
0
176
1
 90
0
176
1
290
0
176
1
 90
1
176
1
 40
0.0
176
1
 90
0
176
1
290
0
176
1
290
1
176
1
290
1
176
1
290
0
176
1
290
0
176
1
290
0
176
1
290
0
176
1
290
0
176
1
290
0
176
1
 90
50
176
1
 40
0.0
176
1
 40
1.0
176
1
 90
0
176
1
 62
18
420
0
176
1
 90
50
176
1
 90
3
176
1
 62
5
420
255
176
1
290
0
176
1
 90
50
176
1
 90
50
176
1
 90
50
176
1
290
0
176
1
 90
50
176
1
 62
256
176
0
 40
1.0
176
0
 90
2
176
1
  1
strokes_ogs.tif
176
1
290
0
176
1
 40
1.0
176
1
 40
1.0
176
1
  0
VISUALSTYLE
  5
6D
102
{ACAD_REACTORS
330
16
102
}
330
16
100
AcDbVisualStyle
  2
Shaded with edges
 70
26
177
3
291
0
 70
58
 90
2
176
1
 90
2
176
1
 90
0
176
1
 90
2
176
1
 40
0.6
176
1
 40
30.0
176
1
 62
7
420
16777215
176
1
 90
1
176
1
 90
4
176
1
 62
7
176
1
 62
257
176
1
 90
1
176
1
 90
1
176
1
 40
1.0
176
1
 90
8
176
1
 62
7
176
1
 40
1.0
176
1
 90
1
176
1
 90
6
176
1
 90
2
176
1
 62
7
176
1
 90
5
176
1
 90
0
176
1
 90
0
176
1
290
0
176
1
 90
1
176
1
 40
0.0
176
1
 90
0
176
1
290
0
176
1
290
1
176
1
290
1
176
1
290
0
176
1
290
0
176
1
290
0
176
1
290
0
176
1
290
0
176
1
290
0
176
1
 90
50
176
1
 40
0.0
176
1
 40
1.0
176
1
 90
0
176
1
 62
18
420
0
176
1
 90
50
176
1
 90
3
176
1
 62
5
420
255
176
1
290
0
176
1
 90
50
176
1
 90
50
176
1
 90
50
176
1
290
0
176
1
 90
50
176
1
 62
256
176
0
 40
1.0
176
0
 90
2
176
1
  1
strokes_ogs.tif
176
1
290
0
176
1
 40
1.0
176
1
 40
1.0
176
1
  0
VISUALSTYLE
  5
6E
102
{ACAD_REACTORS
330
16
102
}
330
16
100
AcDbVisualStyle
  2
Shades of Gray
 70
23
177
3
291
0
 70
58
 90
2
176
1
 90
2
176
1
 90
0
176
1
 90
2
176
1
 40
0.6
176
1
 40
30.0
176
1
 62
7
420
16777215
176
1
 90
1
176
1
 90
4
176
1
 62
7
176
1
 62
257
176
1
 90
1
176
1
 90
1
176
1
 40
1.0
176
1
 90
8
176
1
 62
7
176
1
 40
1.0
176
1
 90
1
176
1
 90
6
176
1
 90
2
176
1
 62
7
176
1
 90
5
176
1
 90
0
176
1
 90
0
176
1
290
0
176
1
 90
1
176
1
 40
0.0
176
1
 90
0
176
1
290
0
176
1
290
1
176
1
290
1
176
1
290
0
176
1
290
0
176
1
290
0
176
1
290
0
176
1
290
0
176
1
290
0
176
1
 90
50
176
1
 40
0.0
176
1
 40
1.0
176
1
 90
0
176
1
 62
18
420
0
176
1
 90
50
176
1
 90
3
176
1
 62
5
420
255
176
1
290
0
176
1
 90
50
176
1
 90
50
176
1
 90
50
176
1
290
0
176
1
 90
50
176
1
 62
256
176
0
 40
1.0
176
0
 90
2
176
1
  1
strokes_ogs.tif
176
1
290
0
176
1
 40
1.0
176
1
 40
1.0
176
1
  0
VISUALSTYLE
  5
6F
102
{ACAD_REACTORS
330
16
102
}
330
16
100
AcDbVisualStyle
  2
Sketchy
 70
24
177
3
291
0
 70
58
 90
2
176
1
 90
2
176
1
 90
0
176
1
 90
1
176
1
 40
0.6
176
1
 40
30.0
176
1
 62
7
420
16777215
176
1
 90
1
176
1
 90
4
176
1
 62
7
176
1
 62
257
176
1
 90
1
176
1
 90
1
176
1
 40
1.0
176
1
 90
8
176
1
 62
7
176
1
 40
1.0
176
1
 90
1
176
1
 90
6
176
1
 90
2
176
1
 62
7
176
1
 90
5
176
1
 90
0
176
1
 90
0
176
1
290
0
176
1
 90
1
176
1
 40
0.0
176
1
 90
0
176
1
290
0
176
1
290
1
176
1
290
1
176
1
290
0
176
1
290
0
176
1
290
0
176
1
290
0
176
1
290
0
176
1
290
0
176
1
 90
50
176
1
 40
0.0
176
1
 40
1.0
176
1
 90
0
176
1
 62
18
420
0
176
1
 90
50
176
1
 90
3
176
1
 62
5
420
255
176
1
290
0
176
1
 90
50
176
1
 90
50
176
1
 90
50
176
1
290
0
176
1
 90
50
176
1
 62
256
176
0
 40
1.0
176
0
 90
2
176
1
  1
strokes_ogs.tif
176
1
290
0
176
1
 40
1.0
176
1
 40
1.0
176
1
  0
VISUALSTYLE
  5
70
102
{ACAD_REACTORS
330
16
102
}
330
16
100
AcDbVisualStyle
  2
Thicken
 70
13
177
3
291
1
 70
58
 90
2
176
1
 90
2
176
1
 90
0
176
1
 90
2
176
1
 40
0.6
176
1
 40
30.0
176
1
 62
7
420
16777215
176
1
 90
1
176
1
 90
4
176
1
 62
7
176
1
 62
257
176
1
 90
1
176
1
 90
1
176
1
 40
1.0
176
1
 90
8
176
1
 62
7
176
1
 40
1.0
176
1
 90
1
176
1
 90
6
176
1
 90
2
176
1
 62
7
176
1
 90
5
176
1
 90
0
176
1
 90
0
176
1
290
0
176
1
 90
1
176
1
 40
0.0
176
1
 90
0
176
1
290
0
176
1
290
1
176
1
290
1
176
1
290
0
176
1
290
0
176
1
290
0
176
1
290
0
176
1
290
0
176
1
290
0
176
1
 90
50
176
1
 40
0.0
176
1
 40
1.0
176
1
 90
0
176
1
 62
18
420
0
176
1
 90
50
176
1
 90
3
176
1
 62
5
420
255
176
1
290
0
176
1
 90
50
176
1
 90
50
176
1
 90
50
176
1
290
0
176
1
 90
50
176
1
 62
256
176
0
 40
1.0
176
0
 90
2
176
1
  1
strokes_ogs.tif
176
1
290
0
176
1
 40
1.0
176
1
 40
1.0
176
1
  0
VISUALSTYLE
  5
71
102
{ACAD_REACTORS
330
16
102
}
330
16
100
AcDbVisualStyle
  2
Wireframe
 70
5
177
3
291
0
 70
58
 90
2
176
1
 90
2
176
1
 90
0
176
1
 90
0
176
1
 40
0.6
176
1
 40
30.0
176
1
 62
7
420
16777215
176
1
 90
1
176
1
 90
4
176
1
 62
7
176
1
 62
257
176
1
 90
1
176
1
 90
1
176
1
 40
1.0
176
1
 90
8
176
1
 62
7
176
1
 40
1.0
176
1
 90
1
176
1
 90
6
176
1
 90
2
176
1
 62
7
176
1
 90
5
176
1
 90
0
176
1
 90
0
176
1
290
0
176
1
 90
1
176
1
 40
0.0
176
1
 90
0
176
1
290
0
176
1
290
1
176
1
290
1
176
1
290
0
176
1
290
0
176
1
290
0
176
1
290
0
176
1
290
0
176
1
290
0
176
1
 90
50
176
1
 40
0.0
176
1
 40
1.0
176
1
 90
0
176
1
 62
18
420
0
176
1
 90
50
176
1
 90
3
176
1
 62
5
420
255
176
1
290
0
176
1
 90
50
176
1
 90
50
176
1
 90
50
176
1
290
0
176
1
 90
50
176
1
 62
256
176
0
 40
1.0
176
0
 90
2
176
1
  1
strokes_ogs.tif
176
1
290
0
176
1
 40
1.0
176
1
 40
1.0
176
1
  0
VISUALSTYLE
  5
72
102
{ACAD_REACTORS
330
16
102
}
330
16
100
AcDbVisualStyle
  2
X-Ray
 70
25
177
3
291
0
 70
58
 90
2
176
1
 90
2
176
1
 90
0
176
1
 90
2
176
1
 40
0.5
176
1
 40
30.0
176
1
 62
7
420
16777215
176
1
 90
1
176
1
 90
4
176
1
 62
7
176
1
 62
257
176
1
 90
1
176
1
 90
1
176
1
 40
1.0
176
1
 90
8
176
1
 62
7
176
1
 40
1.0
176
1
 90
1
176
1
 90
6
176
1
 90
2
176
1
 62
7
176
1
 90
5
176
1
 90
0
176
1
 90
0
176
1
290
0
176
1
 90
1
176
1
 40
0.0
176
1
 90
0
176
1
290
0
176
1
290
1
176
1
290
1
176
1
290
0
176
1
290
0
176
1
290
0
176
1
290
0
176
1
290
0
176
1
290
0
176
1
 90
50
176
1
 40
0.0
176
1
 40
1.0
176
1
 90
0
176
1
 62
18
420
0
176
1
 90
50
176
1
 90
3
176
1
 62
5
420
255
176
1
290
0
176
1
 90
50
176
1
 90
50
176
1
 90
50
176
1
290
0
176
1
 90
50
176
1
 62
256
176
0
 40
1.0
176
0
 90
2
176
1
  1
strokes_ogs.tif
176
1
290
0
176
1
 40
1.0
176
1
 40
1.0
176
1
  0
DICTIONARYVAR
  5
C2
330
2D
100
DictionaryVariables
280
0
  1
1.4.4 @ 2026-09-07T00:59:24.883132+00:00
  0
ENDSEC
  0
EOF
