  0
SECTION
  2
HEADER
  9
$ACADVER
  1
AC1032
  9
$ACADMAINTVER
 90
4
  9
$DWGCODEPAGE
  3
ANSI_1252
  9
$LASTSAVEDBY
  1
ezdxf
  9
$REQUIREDVERSIONS
160
0
  9
$INSBASE
 10
0.0
 20
0.0
 30
0.0
  9
$EXTMIN
 10
1e+20
 20
1e+20
 30
1e+20
  9
$EXTMAX
 10
-1e+20
 20
-1e+20
 30
-1e+20
  9
$LIMMIN
 10
0.0
 20
0.0
  9
$LIMMAX
 10
420.0
 20
297.0
  9
$ORTHOMODE
 70
0
  9
$REGENMODE
 70
1
  9
$FILLMODE
 70
1
  9
$QTEXTMODE
 70
0
  9
$MIRRTEXT
 70
1
  9
$LTSCALE
 40
1.0
  9
$ATTMODE
 70
1
  9
$TEXTSIZE
 40
2.5
  9
$TRACEWID
 40
1.0
  9
$TEXTSTYLE
  7
OpenSans
  9
$CLAYER
  8
0
  9
$CELTYPE
  6
ByLayer
  9
$CECOLOR
 62
256
  9
$CELTSCALE
 40
1.0
  9
$DISPSILH
 70
0
  9
$DIMSCALE
 40
1.0
  9
$DIMASZ
 40
0.175
  9
$DIMEXO
 40
0.125
  9
$DIMDLI
 40
3.75
  9
$DIMRND
 40
0.0
  9
$DIMDLE
 40
0.0
  9
$DIMEXE
 40
0.375
  9
$DIMTP
 40
0.0
  9
$DIMTM
 40
0.0
  9
$DIMTXT
 40
0.25
  9
$DIMCEN
 40
2.5
  9
$DIMTSZ
 40
0.0
  9
$DIMTOL
 70
0
  9
$DIMLIM
 70
0
  9
$DIMTIH
 70
0
  9
$DIMTOH
 70
0
  9
$DIMSE1
 70
0
  9
$DIMSE2
 70
0
  9
$DIMTAD
 70
1
  9
$DIMZIN
 70
12
  9
$DIMBLK
  1
ARCHTICK
  9
$DIMASO
 70
1
  9
$DIMSHO
 70
1
  9
$DIMPOST
  1

  9
$DIMAPOST
  1

  9
$DIMALT
 70
0
  9
$DIMALTD
 70
3
  9
$DIMALTF
 40
0.03937007874
  9
$DIMLFAC
 40
100.0
  9
$DIMTOFL
 70
1
  9
$DIMTVP
 40
0.0
  9
$DIMTIX
 70
0
  9
$DIMSOXD
 70
0
  9
$DIMSAH
 70
0
  9
$DIMBLK1
  1

  9
$DIMBLK2
  1

  9
$DIMSTYLE
  2
EZDXF
  9
$DIMCLRD
 70
0
  9
$DIMCLRE
 70
0
  9
$DIMCLRT
 70
0
  9
$DIMTFAC
 40
0.5
  9
$DIMGAP
 40
0.1
  9
$DIMJUST
 70
0
  9
$DIMSD1
 70
0
  9
$DIMSD2
 70
0
  9
$DIMTOLJ
 70
0
  9
$DIMTZIN
 70
8
  9
$DIMALTZ
 70
0
  9
$DIMALTTZ
 70
0
  9
$DIMUPT
 70
1
  9
$DIMDEC
 70
2
  9
$DIMTDEC
 70
2
  9
$DIMALTU
 70
2
  9
$DIMALTTD
 70
3
  9
$DIMTXSTY
  7
OpenSansCondensed-Light
  9
$DIMAUNIT
 70
0
  9
$DIMADEC
 70
2
  9
$DIMALTRND
 40
0.0
  9
$DIMAZIN
 70
3
  9
$DIMDSEP
 70
46
  9
$DIMATFIT
 70
3
  9
$DIMFRAC
 70
0
  9
$DIMLDRBLK
  1

  9
$DIMLUNIT
 70
2
  9
$DIMLWD
 70
-2
  9
$DIMLWE
 70
-2
  9
$DIMTMOVE
 70
2
  9
$DIMFXL
 40
1.0
  9
$DIMFXLON
 70
0
  9
$DIMJOGANG
 40
0.785398163397
  9
$DIMTFILL
 70
0
  9
$DIMTFILLCLR
 70
0
  9
$DIMARCSYM
 70
0
  9
$DIMLTYPE
  6

  9
$DIMLTEX1
  6

  9
$DIMLTEX2
  6

  9
$DIMTXTDIRECTION
 70
0
  9
$LUNITS
 70
2
  9
$LUPREC
 70
4
  9
$SKETCHINC
 40
1.0
  9
$FILLETRAD
 40
10.0
  9
$AUNITS
 70
0
  9
$AUPREC
 70
2
  9
$MENU
  1
.
  9
$ELEVATION
 40
0.0
  9
$PELEVATION
 40
0.0
  9
$THICKNESS
 40
0.0
  9
$LIMCHECK
 70
0
  9
$CHAMFERA
 40
0.0
  9
$CHAMFERB
 40
0.0
  9
$CHAMFERC
 40
0.0
  9
$CHAMFERD
 40
0.0
  9
$SKPOLY
 70
0
  9
$TDCREATE
 40
2461290.875613426
  9
$TDUCREATE
 40
2458532.153996898
  9
$TDUPDATE
 40
2461290.875613426
  9
$TDUUPDATE
 40
2458532.1544311
  9
$TDINDWG
 40
0.0
  9
$TDUSRTIMER
 40
0.0
  9
$USRTIMER
 70
1
  9
$ANGBASE
 50
0.0
  9
$ANGDIR
 70
0
  9
$PDMODE
 70
0
  9
$PDSIZE
 40
0.0
  9
$PLINEWID
 40
0.0
  9
$SPLFRAME
 70
0
  9
$SPLINETYPE
 70
6
  9
$SPLINESEGS
 70
8
  9
$HANDSEED
  5
A1
  9
$SURFTAB1
 70
6
  9
$SURFTAB2
 70
6
  9
$SURFTYPE
 70
6
  9
$SURFU
 70
6
  9
$SURFV
 70
6
  9
$UCSBASE
  2

  9
$UCSNAME
  2

  9
$UCSORG
 10
0.0
 20
0.0
 30
0.0
  9
$UCSXDIR
 10
1.0
 20
0.0
 30
0.0
  9
$UCSYDIR
 10
0.0
 20
1.0
 30
0.0
  9
$UCSORTHOREF
  2

  9
$UCSORTHOVIEW
 70
0
  9
$UCSORGTOP
 10
0.0
 20
0.0
 30
0.0
  9
$UCSORGBOTTOM
 10
0.0
 20
0.0
 30
0.0
  9
$UCSORGLEFT
 10
0.0
 20
0.0
 30
0.0
  9
$UCSORGRIGHT
 10
0.0
 20
0.0
 30
0.0
  9
$UCSORGFRONT
 10
0.0
 20
0.0
 30
0.0
  9
$UCSORGBACK
 10
0.0
 20
0.0
 30
0.0
  9
$PUCSBASE
  2

  9
$PUCSNAME
  2

  9
$PUCSORG
 10
0.0
 20
0.0
 30
0.0
  9
$PUCSXDIR
 10
1.0
 20
0.0
 30
0.0
  9
$PUCSYDIR
 10
0.0
 20
1.0
 30
0.0
  9
$PUCSORTHOREF
  2

  9
$PUCSORTHOVIEW
 70
0
  9
$PUCSORGTOP
 10
0.0
 20
0.0
 30
0.0
  9
$PUCSORGBOTTOM
 10
0.0
 20
0.0
 30
0.0
  9
$PUCSORGLEFT
 10
0.0
 20
0.0
 30
0.0
  9
$PUCSORGRIGHT
 10
0.0
 20
0.0
 30
0.0
  9
$PUCSORGFRONT
 10
0.0
 20
0.0
 30
0.0
  9
$PUCSORGBACK
 10
0.0
 20
0.0
 30
0.0
  9
$USERI1
 70
0
  9
$USERI2
 70
0
  9
$USERI3
 70
0
  9
$USERI4
 70
0
  9
$USERI5
 70
0
  9
$USERR1
 40
0.0
  9
$USERR2
 40
0.0
  9
$USERR3
 40
0.0
  9
$USERR4
 40
0.0
  9
$USERR5
 40
0.0
  9
$WORLDVIEW
 70
1
  9
$SHADEDGE
 70
3
  9
$SHADEDIF
 70
70
  9
$TILEMODE
 70
1
  9
$MAXACTVP
 70
64
  9
$PINSBASE
 10
0.0
 20
0.0
 30
0.0
  9
$PLIMCHECK
 70
0
  9
$PEXTMIN
 10
1e+20
 20
1e+20
 30
1e+20
  9
$PEXTMAX
 10
-1e+20
 20
-1e+20
 30
-1e+20
  9
$PLIMMIN
 10
0.0
 20
0.0
  9
$PLIMMAX
 10
420.0
 20
297.0
  9
$UNITMODE
 70
0
  9
$VISRETAIN
 70
1
  9
$PLINEGEN
 70
0
  9
$PSLTSCALE
 70
1
  9
$TREEDEPTH
 70
3020
  9
$CMLSTYLE
  2
Standard
  9
$CMLJUST
 70
0
  9
$CMLSCALE
 40
20.0
  9
$PROXYGRAPHICS
 70
1
  9
$MEASUREMENT
 70
1
  9
$CELWEIGHT
370
-1
  9
$ENDCAPS
280
0
  9
$JOINSTYLE
280
0
  9
$LWDISPLAY
290
0
  9
$INSUNITS
 70
4
  9
$HYPERLINKBASE
  1

  9
$STYLESHEET
  1

  9
$XEDIT
290
1
  9
$CEPSNTYPE
380
0
  9
$PSTYLEMODE
290
1
  9
$FINGERPRINTGUID
  2
{E19A70F5-8230-4479-AE52-A5270B7F8112}
  9
$VERSIONGUID
  2
{57F9F6A3-1C24-4061-A6C5-BD03E7C07772}
  9
$EXTNAMES
290
1
  9
$PSVPSCALE
 40
0.0
  9
$OLESTARTUP
290
0
  9
$SORTENTS
280
127
  9
$INDEXCTL
280
0
  9
$HIDETEXT
280
1
  9
$XCLIPFRAME
280
1
  9
$HALOGAP
280
0
  9
$OBSCOLOR
 70
257
  9
$OBSLTYPE
280
0
  9
$INTERSECTIONDISPLAY
280
0
  9
$INTERSECTIONCOLOR
 70
257
  9
$DIMASSOC
280
2
  9
$PROJECTNAME
  1

  9
$CAMERADISPLAY
290
0
  9
$LENSLENGTH
 40
50.0
  9
$CAMERAHEIGHT
 40
0.0
  9
$STEPSPERSEC
 40
24.0
  9
$STEPSIZE
 40
100.0
  9
$3DDWFPREC
 40
2.0
  9
$PSOLWIDTH
 40
0.005
  9
$PSOLHEIGHT
 40
0.08
  9
$LOFTANG1
 40
1.570796326795
  9
$LOFTANG2
 40
1.570796326795
  9
$LOFTMAG1
 40
0.0
  9
$LOFTMAG2
 40
0.0
  9
$LOFTPARAM
 70
7
  9
$LOFTNORMALS
280
1
  9
$LATITUDE
 40
37.795
  9
$LONGITUDE
 40
-122.394
  9
$NORTHDIRECTION
 40
0.0
  9
$TIMEZONE
 70
-8000
  9
$LIGHTGLYPHDISPLAY
280
1
  9
$TILEMODELIGHTSYNCH
280
1
  9
$CMATERIAL
347
20
  9
$SOLIDHIST
280
0
  9
$SHOWHIST
280
1
  9
$DWFFRAME
280
2
  9
$DGNFRAME
280
2
  9
$REALWORLDSCALE
290
1
  9
$INTERFERECOLOR
 62
256
  9
$CSHADOW
280
0
  9
$SHADOWPLANELOCATION
 40
0.0
  0
ENDSEC
  0
SECTION
  2
CLASSES
  0
CLASS
  1
ACDBDICTIONARYWDFLT
  2
AcDbDictionaryWithDefault
  3
ObjectDBX Classes
 90
0
 91
0
280
0
281
0
  0
CLASS
  1
SUN
  2
AcDbSun
  3
SCENEOE
 90
1153
 91
0
280
0
281
0
  0
CLASS
  1
VISUALSTYLE
  2
AcDbVisualStyle
  3
ObjectDBX Classes
 90
4095
 91
0
280
0
281
0
  0
CLASS
  1
MATERIAL
  2
AcDbMaterial
  3
ObjectDBX Classes
 90
1153
 91
0
280
0
281
0
  0
CLASS
  1
SCALE
  2
AcDbScale
  3
ObjectDBX Classes
 90
1153
 91
0
280
0
281
0
  0
CLASS
  1
TABLESTYLE
  2
AcDbTableStyle
  3
ObjectDBX Classes
 90
4095
 91
0
280
0
281
0
  0
CLASS
  1
MLEADERSTYLE
  2
AcDbMLeaderStyle
  3
ACDB_MLEADERSTYLE_CLASS
 90
4095
 91
0
280
0
281
0
  0
CLASS
  1
DICTIONARYVAR
  2
AcDbDictionaryVar
  3
ObjectDBX Classes
 90
0
 91
0
280
0
281
0
  0
CLASS
  1
CELLSTYLEMAP
  2
AcDbCellStyleMap
  3
ObjectDBX Classes
 90
1152
 91
0
280
0
281
0
  0
CLASS
  1
MENTALRAYRENDERSETTINGS
  2
AcDbMentalRayRenderSettings
  3
SCENEOE
 90
1024
 91
0
280
0
281
0
  0
CLASS
  1
ACDBDETAILVIEWSTYLE
  2
AcDbDetailViewStyle
  3
ObjectDBX Classes
 90
1025
 91
0
280
0
281
0
  0
CLASS
  1
ACDBSECTIONVIEWSTYLE
  2
AcDbSectionViewStyle
  3
ObjectDBX Classes
 90
1025
 91
0
280
0
281
0
  0
CLASS
  1
RASTERVARIABLES
  2
AcDbRasterVariables
  3
ISM
 90
0
 91
0
280
0
281
0
  0
CLASS
  1
LAYOUT
  2
AcDbLayout
  3
ObjectDBX Classes
 90
0
 91
0
280
0
281
0
  0
CLASS
  1
ACDBPLACEHOLDER
  2
AcDbPlaceHolder
  3
ObjectDBX Classes
 90
0
 91
0
280
0
281
0
  0
ENDSEC
  0
SECTION
  2
TABLES
  0
TABLE
  2
VPORT
  5
8
330
0
100
AcDbSymbolTable
 70
1
  0
VPORT
  5
23
330
8
100
AcDbSymbolTableRecord
100
AcDbViewportTableRecord
  2
*Active
 70
0
 10
0.0
 20
0.0
 11
1.0
 21
1.0
 12
0.0
 22
0.0
 13
0.0
 23
0.0
 14
0.5
 24
0.5
 15
0.5
 25
0.5
 16
0.0
 26
0.0
 36
1.0
 17
0.0
 27
0.0
 37
0.0
 40
1000.0
 41
1.34
 42
50.0
 43
0.0
 44
0.0
 50
0.0
 51
0.0
 71
0
 72
1000
 73
1
 74
3
 75
0
 76
0
 77
0
 78
0
281
0
 65
0
146
0.0
  0
ENDTAB
  0
TABLE
  2
LTYPE
  5
2
330
0
100
AcDbSymbolTable
 70
21
  0
LTYPE
  5
24
330
2
100
AcDbSymbolTableRecord
100
AcDbLinetypeTableRecord
  2
ByBlock
 70
0
  3

 72
65
 73
0
 40
0.0
  0
LTYPE
  5
25
330
2
100
AcDbSymbolTableRecord
100
AcDbLinetypeTableRecord
  2
ByLayer
 70
0
  3

 72
65
 73
0
 40
0.0
  0
LTYPE
  5
26
330
2
100
AcDbSymbolTableRecord
100
AcDbLinetypeTableRecord
  2
Continuous
 70
0
  3

 72
65
 73
0
 40
0.0
  0
LTYPE
  5
2F
330
2
100
AcDbSymbolTableRecord
100
AcDbLinetypeTableRecord
  2
CENTER
 70
0
  3
Center ____ _ ____ _ ____ _ ____ _ ____ _ ____
 72
65
 73
4
 40
5.08
 49
3.175
 74
0
 49
-0.635
 74
0
 49
0.635
 74
0
 49
-0.635
 74
0
  0
LTYPE
  5
30
330
2
100
AcDbSymbolTableRecord
100
AcDbLinetypeTableRecord
  2
CENTERX2
 70
0
  3
Center (2x) ________  __  ________  __  ________
 72
65
 73
4
 40
8.89
 49
6.35
 74
0
 49
-0.635
 74
0
 49
1.27
 74
0
 49
-0.635
 74
0
  0
LTYPE
  5
31
330
2
100
AcDbSymbolTableRecord
100
AcDbLinetypeTableRecord
  2
CENTER2
 70
0
  3
Center (.5x) ____ _ ____ _ ____ _ ____ _ ____
 72
65
 73
4
 40
2.54
 49
1.587
 74
0
 49
-0.318
 74
0
 49
0.318
 74
0
 49
-0.318
 74
0
  0
LTYPE
  5
32
330
2
100
AcDbSymbolTableRecord
100
AcDbLinetypeTableRecord
  2
DASHED
 70
0
  3
Dashed __ __ __ __ __ __ __ __ __ __ __ __ __ _
 72
65
 73
2
 40
1.524
 49
1.27
 74
0
 49
-0.254
 74
0
  0
LTYPE
  5
33
330
2
100
AcDbSymbolTableRecord
100
AcDbLinetypeTableRecord
  2
DASHEDX2
 70
0
  3
Dashed (2x) ____  ____  ____  ____  ____  ____
 72
65
 73
2
 40
3.048
 49
2.54
 74
0
 49
-0.508
 74
0
  0
LTYPE
  5
34
330
2
100
AcDbSymbolTableRecord
100
AcDbLinetypeTableRecord
  2
DASHED2
 70
0
  3
Dashed (.5x) _ _ _ _ _ _ _ _ _ _ _ _ _ _
 72
65
 73
2
 40
0.762
 49
0.635
 74
0
 49
-0.127
 74
0
  0
LTYPE
  5
35
330
2
100
AcDbSymbolTableRecord
100
AcDbLinetypeTableRecord
  2
PHANTOM
 70
0
  3
Phantom ______  __  __  ______  __  __  ______
 72
65
 73
6
 40
6.35
 49
3.175
 74
0
 49
-0.635
 74
0
 49
0.635
 74
0
 49
-0.635
 74
0
 49
0.635
 74
0
 49
-0.635
 74
0
  0
LTYPE
  5
36
330
2
100
AcDbSymbolTableRecord
100
AcDbLinetypeTableRecord
  2
PHANTOMX2
 70
0
  3
Phantom (2x)____________    ____    ____    ____________
 72
65
 73
6
 40
10.795
 49
6.35
 74
0
 49
-0.635
 74
0
 49
1.27
 74
0
 49
-0.635
 74
0
 49
1.27
 74
0
 49
-0.635
 74
0
  0
LTYPE
  5
37
330
2
100
AcDbSymbolTableRecord
100
AcDbLinetypeTableRecord
  2
PHANTOM2
 70
0
  3
Phantom (.5x) ___ _ _ ___ _ _ ___ _ _ ___ _ _ ___
 72
65
 73
6
 40
3.175
 49
1.587
 74
0
 49
-0.318
 74
0
 49
0.318
 74
0
 49
-0.318
 74
0
 49
0.318
 74
0
 49
-0.318
 74
0
  0
LTYPE
  5
38
330
2
100
AcDbSymbolTableRecord
100
AcDbLinetypeTableRecord
  2
DASHDOT
 70
0
  3
Dash dot __ . __ . __ . __ . __ . __ . __ . __
 72
65
 73
4
 40
3.556
 49
2.54
 74
0
 49
-0.508
 74
0
 49
0.0
 74
0
 49
-0.508
 74
0
  0
LTYPE
  5
39
330
2
100
AcDbSymbolTableRecord
100
AcDbLinetypeTableRecord
  2
DASHDOTX2
 70
0
  3
Dash dot (2x) ____  .  ____  .  ____  .  ____
 72
65
 73
4
 40
6.096
 49
5.08
 74
0
 49
-0.508
 74
0
 49
0.0
 74
0
 49
-0.508
 74
0
  0
LTYPE
  5
3A
330
2
100
AcDbSymbolTableRecord
100
AcDbLinetypeTableRecord
  2
DASHDOT2
 70
0
  3
Dash dot (.5x) _ . _ . _ . _ . _ . _ . _ . _
 72
65
 73
4
 40
1.778
 49
1.27
 74
0
 49
-0.254
 74
0
 49
0.0
 74
0
 49
-0.254
 74
0
  0
LTYPE
  5
3B
330
2
100
AcDbSymbolTableRecord
100
AcDbLinetypeTableRecord
  2
DOT
 70
0
  3
Dot .  .  .  .  .  .  .  .  .  .  .  .  .  .  .  .
 72
65
 73
2
 40
0.508
 49
0.0
 74
0
 49
-0.508
 74
0
  0
LTYPE
  5
3C
330
2
100
AcDbSymbolTableRecord
100
AcDbLinetypeTableRecord
  2
DOTX2
 70
0
  3
Dot (2x) .    .    .    .    .    .    .    . 
 72
65
 73
2
 40
1.016
 49
0.0
 74
0
 49
-1.016
 74
0
  0
LTYPE
  5
3D
330
2
100
AcDbSymbolTableRecord
100
AcDbLinetypeTableRecord
  2
DOT2
 70
0
  3
Dot (.5) . . . . . . . . . . . . . . . . . . . 
 72
65
 73
2
 40
0.254
 49
0.0
 74
0
 49
-0.254
 74
0
  0
LTYPE
  5
3E
330
2
100
AcDbSymbolTableRecord
100
AcDbLinetypeTableRecord
  2
DIVIDE
 70
0
  3
Divide __ . . __ . . __ . . __ . . __ . . __
 72
65
 73
6
 40
4.064
 49
2.54
 74
0
 49
-0.508
 74
0
 49
0.0
 74
0
 49
-0.508
 74
0
 49
0.0
 74
0
 49
-0.508
 74
0
  0
LTYPE
  5
3F
330
2
100
AcDbSymbolTableRecord
100
AcDbLinetypeTableRecord
  2
DIVIDEX2
 70
0
  3
Divide (2x) ____  . .  ____  . .  ____  . .  ____
 72
65
 73
6
 40
6.604
 49
5.08
 74
0
 49
-0.508
 74
0
 49
0.0
 74
0
 49
-0.508
 74
0
 49
0.0
 74
0
 49
-0.508
 74
0
  0
LTYPE
  5
40
330
2
100
AcDbSymbolTableRecord
100
AcDbLinetypeTableRecord
  2
DIVIDE2
 70
0
  3
Divide(.5x) _ . _ . _ . _ . _ . _ . _ . _
 72
65
 73
6
 40
2.032
 49
1.27
 74
0
 49
-0.254
 74
0
 49
0.0
 74
0
 49
-0.254
 74
0
 49
0.0
 74
0
 49
-0.254
 74
0
  0
ENDTAB
  0
TABLE
  2
LAYER
  5
1
330
0
100
AcDbSymbolTable
 70
6
  0
LAYER
  5
27
330
1
100
AcDbSymbolTableRecord
100
AcDbLayerTableRecord
  2
0
 70
0
 62
7
  6
Continuous
370
-3
390
13
347
21
  0
LAYER
  5
28
330
1
100
AcDbSymbolTableRecord
100
AcDbLayerTableRecord
  2
Defpoints
 70
0
 62
7
  6
Continuous
290
0
370
-3
390
13
347
21
  0
LAYER
  5
8A
330
1
100
AcDbSymbolTableRecord
100
AcDbLayerTableRecord
  2
CORTE
 70
0
 62
1
  6
CONTINUOUS
370
50
390
13
347
21
  0
LAYER
  5
8B
330
1
100
AcDbSymbolTableRecord
100
AcDbLayerTableRecord
  2
PLIEGUE
 70
0
 62
5
  6
DASHDOT
370
25
390
13
347
21
  0
LAYER
  5
8C
330
1
100
AcDbSymbolTableRecord
100
AcDbLayerTableRecord
  2
TANGENTE
 70
0
 62
8
  6
DASHED
370
13
390
13
347
21
  0
LAYER
  5
8D
330
1
100
AcDbSymbolTableRecord
100
AcDbLayerTableRecord
  2
TEXTO
 70
0
 62
7
  6
CONTINUOUS
370
25
390
13
347
21
  0
ENDTAB
  0
TABLE
  2
STYLE
  5
5
330
0
100
AcDbSymbolTable
 70
26
  0
STYLE
  5
29
330
5
100
AcDbSymbolTableRecord
100
AcDbTextStyleTableRecord
  2
Standard
 70
0
 40
0.0
 41
1.0
 50
0.0
 71
0
 42
2.5
  3
txt
  4

  0
STYLE
  5
41
330
5
100
AcDbSymbolTableRecord
100
AcDbTextStyleTableRecord
  2
OpenSans-Light
 70
0
 40
0.0
 41
1.0
 50
0.0
 71
0
 42
2.5
  3
OpenSans-Light.ttf
  4

  0
STYLE
  5
42
330
5
100
AcDbSymbolTableRecord
100
AcDbTextStyleTableRecord
  2
OpenSans-Light-Italic
 70
0
 40
0.0
 41
1.0
 50
0.0
 71
0
 42
2.5
  3
OpenSans-LightItalic.ttf
  4

  0
STYLE
  5
43
330
5
100
AcDbSymbolTableRecord
100
AcDbTextStyleTableRecord
  2
OpenSans
 70
0
 40
0.0
 41
1.0
 50
0.0
 71
0
 42
2.5
  3
OpenSans-Regular.ttf
  4

  0
STYLE
  5
44
330
5
100
AcDbSymbolTableRecord
100
AcDbTextStyleTableRecord
  2
OpenSans-Italic
 70
0
 40
0.0
 41
1.0
 50
0.0
 71
0
 42
2.5
  3
OpenSans-Italic.ttf
  4

  0
STYLE
  5
45
330
5
100
AcDbSymbolTableRecord
100
AcDbTextStyleTableRecord
  2
OpenSans-SemiBold
 70
0
 40
0.0
 41
1.0
 50
0.0
 71
0
 42
2.5
  3
OpenSans-SemiBold.ttf
  4

  0
STYLE
  5
46
330
5
100
AcDbSymbolTableRecord
100
AcDbTextStyleTableRecord
  2
OpenSans-SemiBoldItalic
 70
0
 40
0.0
 41
1.0
 50
0.0
 71
0
 42
2.5
  3
OpenSans-SemiBoldItalic.ttf
  4

  0
STYLE
  5
47
330
5
100
AcDbSymbolTableRecord
100
AcDbTextStyleTableRecord
  2
OpenSans-Bold
 70
0
 40
0.0
 41
1.0
 50
0.0
 71
0
 42
2.5
  3
OpenSans-Bold.ttf
  4

  0
STYLE
  5
48
330
5
100
AcDbSymbolTableRecord
100
AcDbTextStyleTableRecord
  2
OpenSans-BoldItalic
 70
0
 40
0.0
 41
1.0
 50
0.0
 71
0
 42
2.5
  3
OpenSans-BoldItalic.ttf
  4

  0
STYLE
  5
49
330
5
100
AcDbSymbolTableRecord
100
AcDbTextStyleTableRecord
  2
OpenSans-ExtraBold
 70
0
 40
0.0
 41
1.0
 50
0.0
 71
0
 42
2.5
  3
OpenSans-ExtraBold.ttf
  4

  0
STYLE
  5
4A
330
5
100
AcDbSymbolTableRecord
100
AcDbTextStyleTableRecord
  2
OpenSans-ExtraBoldItalic
 70
0
 40
0.0
 41
1.0
 50
0.0
 71
0
 42
2.5
  3
OpenSans-ExtraBoldItalic.ttf
  4

  0
STYLE
  5
4B
330
5
100
AcDbSymbolTableRecord
100
AcDbTextStyleTableRecord
  2
OpenSansCondensed-Bold
 70
0
 40
0.0
 41
1.0
 50
0.0
 71
0
 42
2.5
  3
OpenSansCondensed-Bold.ttf
  4

  0
STYLE
  5
4C
330
5
100
AcDbSymbolTableRecord
100
AcDbTextStyleTableRecord
  2
OpenSansCondensed-Light
 70
0
 40
0.0
 41
1.0
 50
0.0
 71
0
 42
2.5
  3
OpenSansCondensed-Light.ttf
  4

  0
STYLE
  5
4D
330
5
100
AcDbSymbolTableRecord
100
AcDbTextStyleTableRecord
  2
OpenSansCondensed-Italic
 70
0
 40
0.0
 41
1.0
 50
0.0
 71
0
 42
2.5
  3
OpenSansCondensed-LightItalic.ttf
  4

  0
STYLE
  5
4E
330
5
100
AcDbSymbolTableRecord
100
AcDbTextStyleTableRecord
  2
LiberationSans
 70
0
 40
0.0
 41
1.0
 50
0.0
 71
0
 42
2.5
  3
LiberationSans-Regular.ttf
  4

  0
STYLE
  5
4F
330
5
100
AcDbSymbolTableRecord
100
AcDbTextStyleTableRecord
  2
LiberationSans-Bold
 70
0
 40
0.0
 41
1.0
 50
0.0
 71
0
 42
2.5
  3
LiberationSans-Bold.ttf
  4

  0
STYLE
  5
50
330
5
100
AcDbSymbolTableRecord
100
AcDbTextStyleTableRecord
  2
LiberationSans-BoldItalic
 70
0
 40
0.0
 41
1.0
 50
0.0
 71
0
 42
2.5
  3
LiberationSans-BoldItalic.ttf
  4

  0
STYLE
  5
51
330
5
100
AcDbSymbolTableRecord
100
AcDbTextStyleTableRecord
  2
LiberationSans-Italic
 70
0
 40
0.0
 41
1.0
 50
0.0
 71
0
 42
2.5
  3
LiberationSans-Italic.ttf
  4

  0
STYLE
  5
52
330
5
100
AcDbSymbolTableRecord
100
AcDbTextStyleTableRecord
  2
LiberationSerif
 70
0
 40
0.0
 41
1.0
 50
0.0
 71
0
 42
2.5
  3
LiberationSerif-Regular.ttf
  4

  0
STYLE
  5
53
330
5
100
AcDbSymbolTableRecord
100
AcDbTextStyleTableRecord
  2
LiberationSerif-Bold
 70
0
 40
0.0
 41
1.0
 50
0.0
 71
0
 42
2.5
  3
LiberationSerif-Bold.ttf
  4

  0
STYLE
  5
54
330
5
100
AcDbSymbolTableRecord
100
AcDbTextStyleTableRecord
  2
LiberationSerif-BoldItalic
 70
0
 40
0.0
 41
1.0
 50
0.0
 71
0
 42
2.5
  3
LiberationSerif-BoldItalic.ttf
  4

  0
STYLE
  5
55
330
5
100
AcDbSymbolTableRecord
100
AcDbTextStyleTableRecord
  2
LiberationSerif-Italic
 70
0
 40
0.0
 41
1.0
 50
0.0
 71
0
 42
2.5
  3
LiberationSerif-Italic.ttf
  4

  0
STYLE
  5
56
330
5
100
AcDbSymbolTableRecord
100
AcDbTextStyleTableRecord
  2
LiberationMono
 70
0
 40
0.0
 41
1.0
 50
0.0
 71
0
 42
2.5
  3
LiberationMono-Regular.ttf
  4

  0
STYLE
  5
57
330
5
100
AcDbSymbolTableRecord
100
AcDbTextStyleTableRecord
  2
LiberationMono-Bold
 70
0
 40
0.0
 41
1.0
 50
0.0
 71
0
 42
2.5
  3
LiberationMono-Bold.ttf
  4

  0
STYLE
  5
58
330
5
100
AcDbSymbolTableRecord
100
AcDbTextStyleTableRecord
  2
LiberationMono-BoldItalic
 70
0
 40
0.0
 41
1.0
 50
0.0
 71
0
 42
2.5
  3
LiberationMono-BoldItalic.ttf
  4

  0
STYLE
  5
59
330
5
100
AcDbSymbolTableRecord
100
AcDbTextStyleTableRecord
  2
LiberationMono-Italic
 70
0
 40
0.0
 41
1.0
 50
0.0
 71
0
 42
2.5
  3
LiberationMono-Italic.ttf
  4

  0
ENDTAB
  0
TABLE
  2
VIEW
  5
7
330
0
100
AcDbSymbolTable
 70
0
  0
ENDTAB
  0
TABLE
  2
UCS
  5
6
330
0
100
AcDbSymbolTable
 70
0
  0
ENDTAB
  0
TABLE
  2
APPID
  5
3
330
0
100
AcDbSymbolTable
 70
3
  0
APPID
  5
2A
330
3
100
AcDbSymbolTableRecord
100
AcDbRegAppTableRecord
  2
ACAD
 70
0
  0
APPID
  5
9E
330
3
100
AcDbSymbolTableRecord
100
AcDbRegAppTableRecord
  2
HATCHBACKGROUNDCOLOR
 70
0
  0
APPID
  5
9F
330
3
100
AcDbSymbolTableRecord
100
AcDbRegAppTableRecord
  2
EZDXF
 70
0
  0
ENDTAB
  0
TABLE
  2
DIMSTYLE
  5
4
330
0
100
AcDbSymbolTable
 70
12
100
AcDbDimStyleTable
  0
DIMSTYLE
105
2B
330
4
100
AcDbSymbolTableRecord
100
AcDbDimStyleTableRecord
  2
Standard
 70
0
 40
1.0
 41
2.5
 42
0.625
 43
3.75
 44
1.25
 45
0.0
 46
0.0
 47
0.0
 48
0.0
 49
2.5
140
2.5
141
2.5
142
0.0
143
0.03937007874
144
1.0
145
0.0
146
1.0
147
0.625
148
0.0
 69
0
 70
0
 71
0
 72
0
 73
0
 74
0
 75
0
 76
0
 77
1
 78
8
 79
3
170
0
171
3
172
1
173
0
174
0
175
0
176
0
177
0
178
0
179
2
271
2
272
2
273
2
274
3
275
0
276
0
277
2
278
44
279
0
280
0
281
0
282
0
283
0
284
8
285
0
286
0
288
0
289
3
290
0
371
-2
372
-2
  0
DIMSTYLE
105
73
330
4
100
AcDbSymbolTableRecord
100
AcDbDimStyleTableRecord
  2
EZDXF
 70
0
 40
1.0
 41
0.175
 42
0.125
 43
3.75
 44
0.375
 45
0.0
 46
0.0
 47
0.0
 48
0.0
 49
2.5
140
0.25
141
2.5
142
0.0
143
0.03937007874
144
100.0
145
0.0
146
0.5
147
0.1
148
0.0
 69
0
 70
0
 71
0
 72
0
 73
0
 74
0
 75
0
 76
0
 77
1
 78
12
 79
3
170
0
171
3
172
1
173
0
174
0
175
0
176
0
177
0
178
0
179
2
271
2
272
2
273
2
274
3
275
0
276
0
277
2
278
46
279
2
280
0
281
0
282
0
283
0
284
8
285
0
286
0
288
1
289
3
290
0
340
4C
342
74
371
-2
372
-2
  0
DIMSTYLE
105
7C
330
4
100
AcDbSymbolTableRecord
100
AcDbDimStyleTableRecord
  2
EZ_M_100_H25_CM
 70
0
 40
1.0
 41
0.25
 42
0.125
 43
3.75
 44
0.375
 45
0.0
 46
0.0
 47
0.0
 48
0.0
 49
2.5
140
0.25
141
2.5
142
0.125
143
0.03937007874
144
100.0
145
0.0
146
0.5
147
0.1
148
0.0
 69
0
 70
0
 71
0
 72
0
 73
0
 74
0
 75
0
 76
0
 77
1
 78
12
 79
3
170
0
171
3
172
1
173
0
174
0
175
0
176
0
177
0
178
0
179
2
271
2
272
2
273
2
274
3
275
0
276
0
277
2
278
46
279
2
280
0
281
0
282
0
283
0
284
8
285
0
286
0
288
1
289
3
290
0
340
4C
371
-2
372
-2
  0
DIMSTYLE
105
7D
330
4
100
AcDbSymbolTableRecord
100
AcDbDimStyleTableRecord
  2
EZ_M_50_H25_CM
 70
0
 40
1.0
 41
0.125
 42
0.0625
 43
3.75
 44
0.1875
 45
0.0
 46
0.0
 47
0.0
 48
0.0
 49
2.5
140
0.125
141
2.5
142
0.0625
143
0.03937007874
144
100.0
145
0.0
146
0.5
147
0.05
148
0.0
 69
0
 70
0
 71
0
 72
0
 73
0
 74
0
 75
0
 76
0
 77
1
 78
12
 79
3
170
0
171
3
172
1
173
0
174
0
175
0
176
0
177
0
178
0
179
2
271
2
272
2
273
2
274
3
275
0
276
0
277
2
278
46
279
2
280
0
281
0
282
0
283
0
284
8
285
0
286
0
288
1
289
3
290
0
340
4C
371
-2
372
-2
  0
DIMSTYLE
105
7E
330
4
100
AcDbSymbolTableRecord
100
AcDbDimStyleTableRecord
  2
EZ_M_25_H25_CM
 70
0
 40
1.0
 41
0.0625
 42
0.03125
 43
3.75
 44
0.09375
 45
0.0
 46
0.0
 47
0.0
 48
0.0
 49
2.5
140
0.0625
141
2.5
142
0.03125
143
0.03937007874
144
100.0
145
0.0
146
0.5
147
0.025
148
0.0
 69
0
 70
0
 71
0
 72
0
 73
0
 74
0
 75
0
 76
0
 77
1
 78
12
 79
3
170
0
171
3
172
1
173
0
174
0
175
0
176
0
177
0
178
0
179
2
271
2
272
2
273
2
274
3
275
0
276
0
277
2
278
46
279
2
280
0
281
0
282
0
283
0
284
8
285
0
286
0
288
1
289
3
290
0
340
4C
371
-2
372
-2
  0
DIMSTYLE
105
7F
330
4
100
AcDbSymbolTableRecord
100
AcDbDimStyleTableRecord
  2
EZ_M_20_H25_CM
 70
0
 40
1.0
 41
0.05
 42
0.025
 43
3.75
 44
0.07500000000000001
 45
0.0
 46
0.0
 47
0.0
 48
0.0
 49
2.5
140
0.05
141
2.5
142
0.025
143
0.03937007874
144
100.0
145
0.0
146
0.5
147
0.020000000000000004
148
0.0
 69
0
 70
0
 71
0
 72
0
 73
0
 74
0
 75
0
 76
0
 77
1
 78
12
 79
3
170
0
171
3
172
1
173
0
174
0
175
0
176
0
177
0
178
0
179
2
271
2
272
2
273
2
274
3
275
0
276
0
277
2
278
46
279
2
280
0
281
0
282
0
283
0
284
8
285
0
286
0
288
1
289
3
290
0
340
4C
371
-2
372
-2
  0
DIMSTYLE
105
80
330
4
100
AcDbSymbolTableRecord
100
AcDbDimStyleTableRecord
  2
EZ_M_10_H25_CM
 70
0
 40
1.0
 41
0.025
 42
0.0125
 43
3.75
 44
0.037500000000000006
 45
0.0
 46
0.0
 47
0.0
 48
0.0
 49
2.5
140
0.025
141
2.5
142
0.0125
143
0.03937007874
144
100.0
145
0.0
146
0.5
147
0.010000000000000002
148
0.0
 69
0
 70
0
 71
0
 72
0
 73
0
 74
0
 75
0
 76
0
 77
1
 78
12
 79
3
170
0
171
3
172
1
173
0
174
0
175
0
176
0
177
0
178
0
179
2
271
2
272
2
273
2
274
3
275
0
276
0
277
2
278
46
279
2
280
0
281
0
282
0
283
0
284
8
285
0
286
0
288
1
289
3
290
0
340
4C
371
-2
372
-2
  0
DIMSTYLE
105
81
330
4
100
AcDbSymbolTableRecord
100
AcDbDimStyleTableRecord
  2
EZ_M_5_H25_CM
 70
0
 40
1.0
 41
0.0125
 42
0.00625
 43
3.75
 44
0.018750000000000003
 45
0.0
 46
0.0
 47
0.0
 48
0.0
 49
2.5
140
0.0125
141
2.5
142
0.00625
143
0.03937007874
144
100.0
145
0.0
146
0.5
147
0.005000000000000001
148
0.0
 69
0
 70
0
 71
0
 72
0
 73
0
 74
0
 75
0
 76
0
 77
1
 78
12
 79
3
170
0
171
3
172
1
173
0
174
0
175
0
176
0
177
0
178
0
179
2
271
2
272
2
273
2
274
3
275
0
276
0
277
2
278
46
279
2
280
0
281
0
282
0
283
0
284
8
285
0
286
0
288
1
289
3
290
0
340
4C
371
-2
372
-2
  0
DIMSTYLE
105
82
330
4
100
AcDbSymbolTableRecord
100
AcDbDimStyleTableRecord
  2
EZ_M_1_H25_CM
 70
0
 40
1.0
 41
0.0025
 42
0.00125
 43
3.75
 44
0.00375
 45
0.0
 46
0.0
 47
0.0
 48
0.0
 49
2.5
140
0.0025
141
2.5
142
0.00125
143
0.03937007874
144
100.0
145
0.0
146
0.5
147
0.001
148
0.0
 69
0
 70
0
 71
0
 72
0
 73
0
 74
0
 75
0
 76
0
 77
1
 78
12
 79
3
170
0
171
3
172
1
173
0
174
0
175
0
176
0
177
0
178
0
179
2
271
2
272
2
273
2
274
3
275
0
276
0
277
2
278
46
279
2
280
0
281
0
282
0
283
0
284
8
285
0
286
0
288
1
289
3
290
0
340
4C
371
-2
372
-2
  0
DIMSTYLE
105
83
330
4
100
AcDbSymbolTableRecord
100
AcDbDimStyleTableRecord
  2
EZ_RADIUS
 70
0
 40
1.0
 41
0.25
 42
0.125
 43
3.75
 44
0.375
 45
0.0
 46
0.0
 47
0.0
 48
0.0
 49
2.5
140
0.25
141
0.0
142
0.0
143
0.03937007874
144
100.0
145
0.0
146
0.5
147
0.1
148
0.0
 69
0
 70
0
 71
0
 72
0
 73
0
 74
0
 75
0
 76
0
 77
1
 78
12
 79
3
170
0
171
3
172
0
173
0
174
0
175
0
176
0
177
0
178
0
179
2
271
2
272
2
273
2
274
3
275
0
276
0
277
2
278
46
279
1
280
0
281
0
282
0
283
0
284
8
285
0
286
0
288
1
289
3
290
0
340
4C
342
84
371
-2
372
-2
  0
DIMSTYLE
105
88
330
4
100
AcDbSymbolTableRecord
100
AcDbDimStyleTableRecord
  2
EZ_RADIUS_INSIDE
 70
0
 40
1.0
 41
0.25
 42
0.125
 43
3.75
 44
0.375
 45
0.0
 46
0.0
 47
0.0
 48
0.0
 49
2.5
140
0.25
141
0.0
142
0.0
143
0.03937007874
144
100.0
145
0.0
146
0.5
147
0.1
148
0.0
 69
0
 70
0
 71
0
 72
0
 73
0
 74
0
 75
0
 76
0
 77
0
 78
12
 79
3
170
0
171
3
172
0
173
0
174
1
175
0
176
0
177
0
178
0
179
2
271
2
272
2
273
2
274
3
275
0
276
0
277
2
278
46
279
0
280
0
281
0
282
0
283
0
284
8
285
0
286
0
288
1
289
0
290
0
340
4C
342
84
371
-2
372
-2
  0
DIMSTYLE
105
89
330
4
100
AcDbSymbolTableRecord
100
AcDbDimStyleTableRecord
  2
EZ_CURVED
 70
0
 40
1.0
 41
0.25
 42
0.125
 43
3.75
 44
0.375
 45
0.0
 46
0.0
 47
0.0
 48
0.0
 49
2.5
140
0.25
141
2.5
142
0.0
143
0.03937007874
144
100.0
145
0.0
146
0.5
147
0.1
148
0.0
 69
0
 70
0
 71
0
 72
0
 73
0
 74
0
 75
0
 76
0
 77
1
 78
12
 79
2
 90
2
170
0
171
3
172
1
173
0
174
0
175
0
176
0
177
0
178
0
179
2
271
2
272
2
273
2
274
3
275
0
276
0
277
2
278
46
279
2
280
0
281
0
282
0
283
0
284
8
285
0
286
0
288
1
289
3
290
0
340
4C
371
-2
372
-2
  0
ENDTAB
  0
TABLE
  2
BLOCK_RECORD
  5
9
330
0
100
AcDbSymbolTable
 70
5
  0
BLOCK_RECORD
  5
17
330
9
100
AcDbSymbolTableRecord
100
AcDbBlockTableRecord
  2
*Model_Space
340
1A
 70
0
280
1
281
0
  0
BLOCK_RECORD
  5
1B
330
9
100
AcDbSymbolTableRecord
100
AcDbBlockTableRecord
  2
*Paper_Space
340
1E
 70
0
280
1
281
0
  0
BLOCK_RECORD
  5
74
330
9
100
AcDbSymbolTableRecord
100
AcDbBlockTableRecord
  2
_ARCHTICK
340
0
 70
0
280
1
281
0
  0
BLOCK_RECORD
  5
78
330
9
100
AcDbSymbolTableRecord
100
AcDbBlockTableRecord
  2
_CLOSEDFILLED
340
0
 70
0
280
1
281
0
  0
BLOCK_RECORD
  5
84
330
9
100
AcDbSymbolTableRecord
100
AcDbBlockTableRecord
  2
_CLOSEDBLANK
340
0
 70
0
280
1
281
0
  0
ENDTAB
  0
ENDSEC
  0
SECTION
  2
BLOCKS
  0
BLOCK
  5
18
330
17
100
AcDbEntity
  8
0
100
AcDbBlockBegin
  2
*Model_Space
 70
0
 10
0.0
 20
0.0
 30
0.0
  3
*Model_Space
  1

  0
ENDBLK
  5
19
330
17
100
AcDbEntity
  8
0
100
AcDbBlockEnd
  0
BLOCK
  5
1C
330
1B
100
AcDbEntity
  8
0
100
AcDbBlockBegin
  2
*Paper_Space
 70
0
 10
0.0
 20
0.0
 30
0.0
  3
*Paper_Space
  1

  0
ENDBLK
  5
1D
330
1B
100
AcDbEntity
  8
0
100
AcDbBlockEnd
  0
BLOCK
  5
75
330
74
100
AcDbEntity
  8
0
100
AcDbBlockBegin
  2
_ARCHTICK
 70
0
 10
0.0
 20
0.0
 30
0.0
  3
_ARCHTICK
  1

  0
LWPOLYLINE
  5
77
330
74
100
AcDbEntity
  8
0
  6
BYBLOCK
 62
0
100
AcDbPolyline
 90
2
 70
0
 43
0.15
 10
-0.5
 20
-0.5
 10
0.5
 20
0.5
  0
ENDBLK
  5
76
330
74
100
AcDbEntity
  8
0
100
AcDbBlockEnd
  0
BLOCK
  5
79
330
78
100
AcDbEntity
  8
0
100
AcDbBlockBegin
  2
_CLOSEDFILLED
 70
0
 10
0.0
 20
0.0
 30
0.0
  3
_CLOSEDFILLED
  1

  0
SOLID
  5
7B
330
78
100
AcDbEntity
  8
0
  6
BYBLOCK
 62
0
100
AcDbTrace
 10
-1.0
 20
0.16439898372402537
 30
0.0
 11
0.0
 21
0.0
 31
0.0
 12
-1.0
 22
-0.16439898372402537
 32
0.0
 13
-1.0
 23
-0.16439898372402537
 33
0.0
  0
ENDBLK
  5
7A
330
78
100
AcDbEntity
  8
0
100
AcDbBlockEnd
  0
BLOCK
  5
85
330
84
100
AcDbEntity
  8
0
100
AcDbBlockBegin
  2
_CLOSEDBLANK
 70
0
 10
0.0
 20
0.0
 30
0.0
  3
_CLOSEDBLANK
  1

  0
LWPOLYLINE
  5
87
330
84
100
AcDbEntity
  8
0
  6
BYBLOCK
 62
0
100
AcDbPolyline
 90
3
 70
1
 10
-1.0
 20
0.16439898372402537
 10
0.0
 20
0.0
 10
-1.0
 20
-0.16439898372402537
  0
ENDBLK
  5
86
330
84
100
AcDbEntity
  8
0
100
AcDbBlockEnd
  0
ENDSEC
  0
SECTION
  2
ENTITIES
  0
LWPOLYLINE
  5
8E
330
17
100
AcDbEntity
  8
CORTE
100
AcDbPolyline
 90
5
 70
1
 10
0.0
 20
25.0
 10
520.0
 20
25.0
 10
520.0
 20
0.0
 10
0.0
 20
0.0
 10
0.0
 20
25.0
  0
LWPOLYLINE
  5
8F
330
17
100
AcDbEntity
  8
CORTE
100
AcDbPolyline
 90
65
 70
1
 10
40.809624836366936
 20
16.570258913673406
 10
40.40677113236767
 20
16.63001661568962
 10
40.0
 20
16.65
 10
39.59322886763233
 20
16.63001661568962
 10
39.190375163633064
 20
16.570258913673406
 10
38.79531858939398
 20
16.471302393288667
 10
38.41186375568488
 20
16.334100059921838
 10
38.04370354217211
 20
16.159973247045674
 10
37.69438353296865
 20
15.950598891055563
 10
37.367267870720866
 20
15.707993381455358
 10
37.06550685807583
 20
15.434493141924172
 10
36.79200661854464
 20
15.132732129279129
 10
36.54940110894444
 20
14.80561646703135
 10
36.34002675295433
 20
14.45629645782789
 10
36.16589994007816
 20
14.088136244315123
 10
36.02869760671133
 20
13.704681410606018
 10
35.929741086326594
 20
13.309624836366932
 10
35.86998338431038
 20
12.906771132367677
 10
35.85
 20
12.5
 10
35.86998338431038
 20
12.093228867632323
 10
35.929741086326594
 20
11.690375163633066
 10
36.02869760671133
 20
11.29531858939398
 10
36.16589994007816
 20
10.911863755684877
 10
36.34002675295433
 20
10.543703542172109
 10
36.54940110894444
 20
10.19438353296865
 10
36.79200661854464
 20
9.867267870720871
 10
37.06550685807583
 20
9.565506858075828
 10
37.36726787072087
 20
9.29200661854464
 10
37.69438353296865
 20
9.049401108944437
 10
38.04370354217211
 20
8.840026752954326
 10
38.41186375568488
 20
8.665899940078159
 10
38.79531858939398
 20
8.528697606711333
 10
39.19037516363307
 20
8.429741086326594
 10
39.59322886763233
 20
8.369983384310382
 10
40.0
 20
8.35
 10
40.40677113236768
 20
8.369983384310384
 10
40.809624836366936
 20
8.429741086326594
 10
41.20468141060602
 20
8.528697606711333
 10
41.58813624431512
 20
8.665899940078159
 10
41.95629645782789
 20
8.840026752954326
 10
42.30561646703135
 20
9.049401108944437
 10
42.63273212927913
 20
9.29200661854464
 10
42.93449314192417
 20
9.565506858075828
 10
43.20799338145536
 20
9.867267870720871
 10
43.45059889105556
 20
10.19438353296865
 10
43.65997324704567
 20
10.54370354217211
 10
43.83410005992184
 20
10.911863755684877
 10
43.97130239328867
 20
11.29531858939398
 10
44.070258913673406
 20
11.690375163633068
 10
44.13001661568962
 20
12.093228867632323
 10
44.15
 20
12.5
 10
44.13001661568962
 20
12.906771132367677
 10
44.070258913673406
 20
13.309624836366934
 10
43.97130239328867
 20
13.70468141060602
 10
43.83410005992184
 20
14.088136244315125
 10
43.65997324704567
 20
14.456296457827891
 10
43.45059889105556
 20
14.80561646703135
 10
43.20799338145536
 20
15.13273212927913
 10
42.93449314192417
 20
15.434493141924174
 10
42.63273212927913
 20
15.707993381455358
 10
42.30561646703135
 20
15.950598891055563
 10
41.95629645782789
 20
16.159973247045674
 10
41.58813624431512
 20
16.33410005992184
 10
41.204681410606014
 20
16.471302393288667
 10
40.809624836366936
 20
16.570258913673406
  0
LWPOLYLINE
  5
90
330
17
100
AcDbEntity
  8
CORTE
100
AcDbPolyline
 90
65
 70
1
 10
85.20468141060601
 20
16.471302393288667
 10
84.80962483636694
 20
16.570258913673406
 10
84.40677113236768
 20
16.63001661568962
 10
84.0
 20
16.65
 10
83.59322886763232
 20
16.63001661568962
 10
83.19037516363306
 20
16.570258913673406
 10
82.79531858939399
 20
16.471302393288667
 10
82.41186375568488
 20
16.334100059921838
 10
82.04370354217211
 20
16.159973247045674
 10
81.69438353296866
 20
15.950598891055563
 10
81.36726787072087
 20
15.707993381455358
 10
81.06550685807582
 20
15.434493141924172
 10
80.79200661854465
 20
15.132732129279129
 10
80.54940110894444
 20
14.80561646703135
 10
80.34002675295433
 20
14.45629645782789
 10
80.16589994007816
 20
14.088136244315123
 10
80.02869760671133
 20
13.704681410606018
 10
79.9297410863266
 20
13.309624836366932
 10
79.86998338431039
 20
12.906771132367677
 10
79.85
 20
12.5
 10
79.86998338431039
 20
12.093228867632323
 10
79.9297410863266
 20
11.690375163633066
 10
80.02869760671133
 20
11.29531858939398
 10
80.16589994007816
 20
10.911863755684877
 10
80.34002675295433
 20
10.543703542172109
 10
80.54940110894444
 20
10.19438353296865
 10
80.79200661854465
 20
9.867267870720871
 10
81.06550685807582
 20
9.565506858075828
 10
81.36726787072087
 20
9.29200661854464
 10
81.69438353296866
 20
9.049401108944437
 10
82.04370354217211
 20
8.840026752954326
 10
82.41186375568488
 20
8.665899940078159
 10
82.79531858939399
 20
8.528697606711333
 10
83.19037516363306
 20
8.429741086326594
 10
83.59322886763232
 20
8.369983384310382
 10
84.0
 20
8.35
 10
84.40677113236768
 20
8.369983384310384
 10
84.80962483636694
 20
8.429741086326594
 10
85.20468141060601
 20
8.528697606711333
 10
85.58813624431512
 20
8.665899940078159
 10
85.95629645782789
 20
8.840026752954326
 10
86.30561646703136
 20
9.049401108944437
 10
86.63273212927913
 20
9.29200661854464
 10
86.93449314192418
 20
9.565506858075828
 10
87.20799338145535
 20
9.867267870720871
 10
87.45059889105556
 20
10.19438353296865
 10
87.65997324704567
 20
10.54370354217211
 10
87.83410005992184
 20
10.911863755684877
 10
87.97130239328867
 20
11.29531858939398
 10
88.0702589136734
 20
11.690375163633068
 10
88.13001661568961
 20
12.093228867632323
 10
88.15
 20
12.5
 10
88.13001661568961
 20
12.906771132367677
 10
88.0702589136734
 20
13.309624836366934
 10
87.97130239328867
 20
13.70468141060602
 10
87.83410005992184
 20
14.088136244315125
 10
87.65997324704567
 20
14.456296457827891
 10
87.45059889105556
 20
14.80561646703135
 10
87.20799338145535
 20
15.13273212927913
 10
86.93449314192418
 20
15.434493141924174
 10
86.63273212927913
 20
15.707993381455358
 10
86.30561646703134
 20
15.950598891055563
 10
85.95629645782789
 20
16.159973247045674
 10
85.58813624431512
 20
16.33410005992184
 10
85.20468141060601
 20
16.471302393288667
  0
LWPOLYLINE
  5
91
330
17
100
AcDbEntity
  8
CORTE
100
AcDbPolyline
 90
65
 70
1
 10
129.58813624431514
 20
16.33410005992184
 10
129.204681410606
 20
16.471302393288667
 10
128.80962483636694
 20
16.570258913673406
 10
128.40677113236768
 20
16.63001661568962
 10
128.0
 20
16.65
 10
127.59322886763232
 20
16.63001661568962
 10
127.19037516363306
 20
16.570258913673406
 10
126.79531858939399
 20
16.471302393288667
 10
126.41186375568488
 20
16.334100059921838
 10
126.04370354217211
 20
16.159973247045674
 10
125.69438353296866
 20
15.950598891055563
 10
125.36726787072087
 20
15.707993381455358
 10
125.06550685807582
 20
15.434493141924172
 10
124.79200661854465
 20
15.132732129279129
 10
124.54940110894444
 20
14.80561646703135
 10
124.34002675295433
 20
14.45629645782789
 10
124.16589994007816
 20
14.088136244315123
 10
124.02869760671133
 20
13.704681410606018
 10
123.9297410863266
 20
13.309624836366932
 10
123.86998338431039
 20
12.906771132367677
 10
123.85
 20
12.5
 10
123.86998338431039
 20
12.093228867632323
 10
123.9297410863266
 20
11.690375163633066
 10
124.02869760671133
 20
11.29531858939398
 10
124.16589994007816
 20
10.911863755684877
 10
124.34002675295433
 20
10.543703542172109
 10
124.54940110894444
 20
10.19438353296865
 10
124.79200661854465
 20
9.867267870720871
 10
125.06550685807582
 20
9.565506858075828
 10
125.36726787072087
 20
9.29200661854464
 10
125.69438353296866
 20
9.049401108944437
 10
126.04370354217211
 20
8.840026752954326
 10
126.41186375568488
 20
8.665899940078159
 10
126.79531858939399
 20
8.528697606711333
 10
127.19037516363306
 20
8.429741086326594
 10
127.59322886763232
 20
8.369983384310382
 10
128.0
 20
8.35
 10
128.40677113236768
 20
8.369983384310384
 10
128.80962483636694
 20
8.429741086326594
 10
129.204681410606
 20
8.528697606711333
 10
129.5881362443151
 20
8.665899940078159
 10
129.9562964578279
 20
8.840026752954326
 10
130.30561646703134
 20
9.049401108944437
 10
130.63273212927913
 20
9.29200661854464
 10
130.93449314192418
 20
9.565506858075828
 10
131.20799338145537
 20
9.867267870720871
 10
131.45059889105556
 20
10.19438353296865
 10
131.65997324704568
 20
10.54370354217211
 10
131.83410005992184
 20
10.911863755684877
 10
131.97130239328868
 20
11.29531858939398
 10
132.0702589136734
 20
11.690375163633068
 10
132.1300166156896
 20
12.093228867632323
 10
132.15
 20
12.5
 10
132.1300166156896
 20
12.906771132367677
 10
132.0702589136734
 20
13.309624836366934
 10
131.97130239328868
 20
13.70468141060602
 10
131.83410005992184
 20
14.088136244315125
 10
131.65997324704568
 20
14.456296457827891
 10
131.45059889105556
 20
14.80561646703135
 10
131.20799338145537
 20
15.13273212927913
 10
130.93449314192418
 20
15.434493141924174
 10
130.63273212927913
 20
15.707993381455358
 10
130.30561646703134
 20
15.950598891055563
 10
129.9562964578279
 20
16.159973247045674
 10
129.58813624431514
 20
16.33410005992184
  0
LWPOLYLINE
  5
92
330
17
100
AcDbEntity
  8
CORTE
100
AcDbPolyline
 90
65
 70
1
 10
173.9562964578279
 20
16.159973247045674
 10
173.58813624431514
 20
16.33410005992184
 10
173.204681410606
 20
16.471302393288667
 10
172.80962483636694
 20
16.570258913673406
 10
172.40677113236768
 20
16.63001661568962
 10
172.0
 20
16.65
 10
171.59322886763232
 20
16.63001661568962
 10
171.19037516363306
 20
16.570258913673406
 10
170.795318589394
 20
16.471302393288667
 10
170.41186375568486
 20
16.334100059921838
 10
170.0437035421721
 20
16.159973247045674
 10
169.69438353296866
 20
15.950598891055563
 10
169.36726787072087
 20
15.707993381455358
 10
169.06550685807582
 20
15.434493141924172
 10
168.79200661854463
 20
15.132732129279129
 10
168.54940110894444
 20
14.80561646703135
 10
168.34002675295432
 20
14.45629645782789
 10
168.16589994007816
 20
14.088136244315123
 10
168.02869760671132
 20
13.704681410606018
 10
167.9297410863266
 20
13.309624836366932
 10
167.8699833843104
 20
12.906771132367677
 10
167.85
 20
12.5
 10
167.8699833843104
 20
12.093228867632323
 10
167.9297410863266
 20
11.690375163633066
 10
168.02869760671132
 20
11.29531858939398
 10
168.16589994007816
 20
10.911863755684877
 10
168.34002675295432
 20
10.543703542172109
 10
168.54940110894444
 20
10.19438353296865
 10
168.79200661854463
 20
9.867267870720871
 10
169.06550685807582
 20
9.565506858075828
 10
169.36726787072087
 20
9.29200661854464
 10
169.69438353296866
 20
9.049401108944437
 10
170.0437035421721
 20
8.840026752954326
 10
170.4118637556849
 20
8.665899940078159
 10
170.795318589394
 20
8.528697606711333
 10
171.19037516363306
 20
8.429741086326594
 10
171.59322886763232
 20
8.369983384310382
 10
172.0
 20
8.35
 10
172.40677113236768
 20
8.369983384310384
 10
172.80962483636694
 20
8.429741086326594
 10
173.204681410606
 20
8.528697606711333
 10
173.5881362443151
 20
8.665899940078159
 10
173.9562964578279
 20
8.840026752954326
 10
174.30561646703134
 20
9.049401108944437
 10
174.63273212927913
 20
9.29200661854464
 10
174.93449314192418
 20
9.565506858075828
 10
175.20799338145537
 20
9.867267870720871
 10
175.45059889105556
 20
10.19438353296865
 10
175.65997324704568
 20
10.54370354217211
 10
175.83410005992184
 20
10.911863755684877
 10
175.97130239328868
 20
11.29531858939398
 10
176.0702589136734
 20
11.690375163633068
 10
176.1300166156896
 20
12.093228867632323
 10
176.15
 20
12.5
 10
176.1300166156896
 20
12.906771132367677
 10
176.0702589136734
 20
13.309624836366934
 10
175.97130239328868
 20
13.70468141060602
 10
175.83410005992184
 20
14.088136244315125
 10
175.65997324704568
 20
14.456296457827891
 10
175.45059889105556
 20
14.80561646703135
 10
175.20799338145537
 20
15.13273212927913
 10
174.93449314192418
 20
15.434493141924174
 10
174.63273212927913
 20
15.707993381455358
 10
174.30561646703134
 20
15.950598891055563
 10
173.9562964578279
 20
16.159973247045674
  0
LWPOLYLINE
  5
93
330
17
100
AcDbEntity
  8
CORTE
100
AcDbPolyline
 90
65
 70
1
 10
218.30561646703134
 20
15.950598891055563
 10
217.9562964578279
 20
16.159973247045674
 10
217.58813624431514
 20
16.33410005992184
 10
217.204681410606
 20
16.471302393288667
 10
216.80962483636694
 20
16.570258913673406
 10
216.40677113236768
 20
16.63001661568962
 10
216.0
 20
16.65
 10
215.59322886763232
 20
16.63001661568962
 10
215.19037516363306
 20
16.570258913673406
 10
214.795318589394
 20
16.471302393288667
 10
214.41186375568486
 20
16.334100059921838
 10
214.0437035421721
 20
16.159973247045674
 10
213.69438353296866
 20
15.950598891055563
 10
213.36726787072087
 20
15.707993381455358
 10
213.06550685807582
 20
15.434493141924172
 10
212.79200661854463
 20
15.132732129279129
 10
212.54940110894444
 20
14.80561646703135
 10
212.34002675295432
 20
14.45629645782789
 10
212.16589994007816
 20
14.088136244315123
 10
212.02869760671132
 20
13.704681410606018
 10
211.9297410863266
 20
13.309624836366932
 10
211.8699833843104
 20
12.906771132367677
 10
211.85
 20
12.5
 10
211.8699833843104
 20
12.093228867632323
 10
211.9297410863266
 20
11.690375163633066
 10
212.02869760671132
 20
11.29531858939398
 10
212.16589994007816
 20
10.911863755684877
 10
212.34002675295432
 20
10.543703542172109
 10
212.54940110894444
 20
10.19438353296865
 10
212.79200661854463
 20
9.867267870720871
 10
213.06550685807582
 20
9.565506858075828
 10
213.36726787072087
 20
9.29200661854464
 10
213.69438353296866
 20
9.049401108944437
 10
214.0437035421721
 20
8.840026752954326
 10
214.4118637556849
 20
8.665899940078159
 10
214.795318589394
 20
8.528697606711333
 10
215.19037516363306
 20
8.429741086326594
 10
215.59322886763232
 20
8.369983384310382
 10
216.0
 20
8.35
 10
216.40677113236768
 20
8.369983384310384
 10
216.80962483636694
 20
8.429741086326594
 10
217.204681410606
 20
8.528697606711333
 10
217.5881362443151
 20
8.665899940078159
 10
217.9562964578279
 20
8.840026752954326
 10
218.30561646703134
 20
9.049401108944437
 10
218.63273212927913
 20
9.29200661854464
 10
218.93449314192418
 20
9.565506858075828
 10
219.20799338145537
 20
9.867267870720871
 10
219.45059889105556
 20
10.19438353296865
 10
219.65997324704568
 20
10.54370354217211
 10
219.83410005992184
 20
10.911863755684877
 10
219.97130239328868
 20
11.29531858939398
 10
220.0702589136734
 20
11.690375163633068
 10
220.1300166156896
 20
12.093228867632323
 10
220.15
 20
12.5
 10
220.1300166156896
 20
12.906771132367677
 10
220.0702589136734
 20
13.309624836366934
 10
219.97130239328868
 20
13.70468141060602
 10
219.83410005992184
 20
14.088136244315125
 10
219.65997324704568
 20
14.456296457827891
 10
219.45059889105556
 20
14.80561646703135
 10
219.20799338145537
 20
15.13273212927913
 10
218.93449314192418
 20
15.434493141924174
 10
218.63273212927913
 20
15.707993381455358
 10
218.30561646703134
 20
15.950598891055563
  0
LWPOLYLINE
  5
94
330
17
100
AcDbEntity
  8
CORTE
100
AcDbPolyline
 90
65
 70
1
 10
262.63273212927913
 20
15.707993381455358
 10
262.30561646703137
 20
15.950598891055563
 10
261.9562964578279
 20
16.159973247045674
 10
261.58813624431514
 20
16.33410005992184
 10
261.20468141060604
 20
16.471302393288667
 10
260.80962483636694
 20
16.570258913673406
 10
260.4067711323677
 20
16.63001661568962
 10
260.0
 20
16.65
 10
259.5932288676323
 20
16.63001661568962
 10
259.19037516363306
 20
16.570258913673406
 10
258.79531858939396
 20
16.471302393288667
 10
258.41186375568486
 20
16.334100059921838
 10
258.0437035421721
 20
16.159973247045674
 10
257.69438353296863
 20
15.950598891055563
 10
257.36726787072087
 20
15.707993381455358
 10
257.0655068580758
 20
15.434493141924172
 10
256.79200661854463
 20
15.132732129279129
 10
256.54940110894444
 20
14.80561646703135
 10
256.3400267529543
 20
14.45629645782789
 10
256.16589994007813
 20
14.088136244315123
 10
256.0286976067113
 20
13.704681410606018
 10
255.9297410863266
 20
13.309624836366932
 10
255.8699833843104
 20
12.906771132367677
 10
255.85
 20
12.5
 10
255.8699833843104
 20
12.093228867632323
 10
255.9297410863266
 20
11.690375163633066
 10
256.0286976067113
 20
11.29531858939398
 10
256.16589994007813
 20
10.911863755684877
 10
256.3400267529543
 20
10.543703542172109
 10
256.54940110894444
 20
10.19438353296865
 10
256.79200661854463
 20
9.867267870720871
 10
257.0655068580758
 20
9.565506858075828
 10
257.36726787072087
 20
9.29200661854464
 10
257.69438353296863
 20
9.049401108944437
 10
258.0437035421721
 20
8.840026752954326
 10
258.41186375568486
 20
8.665899940078159
 10
258.79531858939396
 20
8.528697606711333
 10
259.19037516363306
 20
8.429741086326594
 10
259.5932288676323
 20
8.369983384310382
 10
260.0
 20
8.35
 10
260.4067711323677
 20
8.369983384310384
 10
260.80962483636694
 20
8.429741086326594
 10
261.20468141060604
 20
8.528697606711333
 10
261.58813624431514
 20
8.665899940078159
 10
261.9562964578279
 20
8.840026752954326
 10
262.30561646703137
 20
9.049401108944437
 10
262.63273212927913
 20
9.29200661854464
 10
262.9344931419242
 20
9.565506858075828
 10
263.20799338145537
 20
9.867267870720871
 10
263.45059889105556
 20
10.19438353296865
 10
263.6599732470457
 20
10.54370354217211
 10
263.83410005992187
 20
10.911863755684877
 10
263.9713023932887
 20
11.29531858939398
 10
264.0702589136734
 20
11.690375163633068
 10
264.1300166156896
 20
12.093228867632323
 10
264.15
 20
12.5
 10
264.1300166156896
 20
12.906771132367677
 10
264.0702589136734
 20
13.309624836366934
 10
263.9713023932887
 20
13.70468141060602
 10
263.83410005992187
 20
14.088136244315125
 10
263.6599732470457
 20
14.456296457827891
 10
263.45059889105556
 20
14.80561646703135
 10
263.20799338145537
 20
15.13273212927913
 10
262.9344931419242
 20
15.434493141924174
 10
262.63273212927913
 20
15.707993381455358
  0
LWPOLYLINE
  5
95
330
17
100
AcDbEntity
  8
CORTE
100
AcDbPolyline
 90
65
 70
1
 10
306.9344931419242
 20
15.434493141924174
 10
306.63273212927913
 20
15.707993381455358
 10
306.30561646703137
 20
15.950598891055563
 10
305.9562964578279
 20
16.159973247045674
 10
305.58813624431514
 20
16.33410005992184
 10
305.20468141060604
 20
16.471302393288667
 10
304.80962483636694
 20
16.570258913673406
 10
304.4067711323677
 20
16.63001661568962
 10
304.0
 20
16.65
 10
303.5932288676323
 20
16.63001661568962
 10
303.19037516363306
 20
16.570258913673406
 10
302.79531858939396
 20
16.471302393288667
 10
302.41186375568486
 20
16.334100059921838
 10
302.0437035421721
 20
16.159973247045674
 10
301.69438353296863
 20
15.950598891055563
 10
301.36726787072087
 20
15.707993381455358
 10
301.0655068580758
 20
15.434493141924172
 10
300.79200661854463
 20
15.132732129279129
 10
300.54940110894444
 20
14.80561646703135
 10
300.3400267529543
 20
14.45629645782789
 10
300.16589994007813
 20
14.088136244315123
 10
300.0286976067113
 20
13.704681410606018
 10
299.9297410863266
 20
13.309624836366932
 10
299.8699833843104
 20
12.906771132367677
 10
299.85
 20
12.5
 10
299.8699833843104
 20
12.093228867632323
 10
299.9297410863266
 20
11.690375163633066
 10
300.0286976067113
 20
11.29531858939398
 10
300.16589994007813
 20
10.911863755684877
 10
300.3400267529543
 20
10.543703542172109
 10
300.54940110894444
 20
10.19438353296865
 10
300.79200661854463
 20
9.867267870720871
 10
301.0655068580758
 20
9.565506858075828
 10
301.36726787072087
 20
9.29200661854464
 10
301.69438353296863
 20
9.049401108944437
 10
302.0437035421721
 20
8.840026752954326
 10
302.41186375568486
 20
8.665899940078159
 10
302.79531858939396
 20
8.528697606711333
 10
303.19037516363306
 20
8.429741086326594
 10
303.5932288676323
 20
8.369983384310382
 10
304.0
 20
8.35
 10
304.4067711323677
 20
8.369983384310384
 10
304.80962483636694
 20
8.429741086326594
 10
305.20468141060604
 20
8.528697606711333
 10
305.58813624431514
 20
8.665899940078159
 10
305.9562964578279
 20
8.840026752954326
 10
306.30561646703137
 20
9.049401108944437
 10
306.63273212927913
 20
9.29200661854464
 10
306.9344931419242
 20
9.565506858075828
 10
307.20799338145537
 20
9.867267870720871
 10
307.45059889105556
 20
10.19438353296865
 10
307.6599732470457
 20
10.54370354217211
 10
307.83410005992187
 20
10.911863755684877
 10
307.9713023932887
 20
11.29531858939398
 10
308.0702589136734
 20
11.690375163633068
 10
308.1300166156896
 20
12.093228867632323
 10
308.15
 20
12.5
 10
308.1300166156896
 20
12.906771132367677
 10
308.0702589136734
 20
13.309624836366934
 10
307.9713023932887
 20
13.70468141060602
 10
307.83410005992187
 20
14.088136244315125
 10
307.6599732470457
 20
14.456296457827891
 10
307.45059889105556
 20
14.80561646703135
 10
307.20799338145537
 20
15.13273212927913
 10
306.9344931419242
 20
15.434493141924174
  0
LWPOLYLINE
  5
96
330
17
100
AcDbEntity
  8
CORTE
100
AcDbPolyline
 90
65
 70
1
 10
351.20799338145537
 20
15.13273212927913
 10
350.9344931419242
 20
15.434493141924174
 10
350.63273212927913
 20
15.707993381455358
 10
350.30561646703137
 20
15.950598891055563
 10
349.9562964578279
 20
16.159973247045674
 10
349.58813624431514
 20
16.33410005992184
 10
349.20468141060604
 20
16.471302393288667
 10
348.80962483636694
 20
16.570258913673406
 10
348.4067711323677
 20
16.63001661568962
 10
348.0
 20
16.65
 10
347.5932288676323
 20
16.63001661568962
 10
347.19037516363306
 20
16.570258913673406
 10
346.79531858939396
 20
16.471302393288667
 10
346.41186375568486
 20
16.334100059921838
 10
346.0437035421721
 20
16.159973247045674
 10
345.69438353296863
 20
15.950598891055563
 10
345.36726787072087
 20
15.707993381455358
 10
345.0655068580758
 20
15.434493141924172
 10
344.79200661854463
 20
15.132732129279129
 10
344.54940110894444
 20
14.80561646703135
 10
344.3400267529543
 20
14.45629645782789
 10
344.16589994007813
 20
14.088136244315123
 10
344.0286976067113
 20
13.704681410606018
 10
343.9297410863266
 20
13.309624836366932
 10
343.8699833843104
 20
12.906771132367677
 10
343.85
 20
12.5
 10
343.8699833843104
 20
12.093228867632323
 10
343.9297410863266
 20
11.690375163633066
 10
344.0286976067113
 20
11.29531858939398
 10
344.16589994007813
 20
10.911863755684877
 10
344.3400267529543
 20
10.543703542172109
 10
344.54940110894444
 20
10.19438353296865
 10
344.79200661854463
 20
9.867267870720871
 10
345.0655068580758
 20
9.565506858075828
 10
345.36726787072087
 20
9.29200661854464
 10
345.69438353296863
 20
9.049401108944437
 10
346.0437035421721
 20
8.840026752954326
 10
346.41186375568486
 20
8.665899940078159
 10
346.79531858939396
 20
8.528697606711333
 10
347.19037516363306
 20
8.429741086326594
 10
347.5932288676323
 20
8.369983384310382
 10
348.0
 20
8.35
 10
348.4067711323677
 20
8.369983384310384
 10
348.80962483636694
 20
8.429741086326594
 10
349.20468141060604
 20
8.528697606711333
 10
349.58813624431514
 20
8.665899940078159
 10
349.9562964578279
 20
8.840026752954326
 10
350.30561646703137
 20
9.049401108944437
 10
350.63273212927913
 20
9.29200661854464
 10
350.9344931419242
 20
9.565506858075828
 10
351.20799338145537
 20
9.867267870720871
 10
351.45059889105556
 20
10.19438353296865
 10
351.6599732470457
 20
10.54370354217211
 10
351.83410005992187
 20
10.911863755684877
 10
351.9713023932887
 20
11.29531858939398
 10
352.0702589136734
 20
11.690375163633068
 10
352.1300166156896
 20
12.093228867632323
 10
352.15
 20
12.5
 10
352.1300166156896
 20
12.906771132367677
 10
352.0702589136734
 20
13.309624836366934
 10
351.9713023932887
 20
13.70468141060602
 10
351.83410005992187
 20
14.088136244315125
 10
351.6599732470457
 20
14.456296457827891
 10
351.45059889105556
 20
14.80561646703135
 10
351.20799338145537
 20
15.13273212927913
  0
LWPOLYLINE
  5
97
330
17
100
AcDbEntity
  8
CORTE
100
AcDbPolyline
 90
65
 70
1
 10
395.45059889105556
 20
14.80561646703135
 10
395.20799338145537
 20
15.13273212927913
 10
394.9344931419242
 20
15.434493141924174
 10
394.63273212927913
 20
15.707993381455358
 10
394.30561646703137
 20
15.950598891055563
 10
393.9562964578279
 20
16.159973247045674
 10
393.58813624431514
 20
16.33410005992184
 10
393.20468141060604
 20
16.471302393288667
 10
392.80962483636694
 20
16.570258913673406
 10
392.4067711323677
 20
16.63001661568962
 10
392.0
 20
16.65
 10
391.5932288676323
 20
16.63001661568962
 10
391.19037516363306
 20
16.570258913673406
 10
390.79531858939396
 20
16.471302393288667
 10
390.41186375568486
 20
16.334100059921838
 10
390.0437035421721
 20
16.159973247045674
 10
389.69438353296863
 20
15.950598891055563
 10
389.36726787072087
 20
15.707993381455358
 10
389.0655068580758
 20
15.434493141924172
 10
388.79200661854463
 20
15.132732129279129
 10
388.54940110894444
 20
14.80561646703135
 10
388.3400267529543
 20
14.45629645782789
 10
388.16589994007813
 20
14.088136244315123
 10
388.0286976067113
 20
13.704681410606018
 10
387.9297410863266
 20
13.309624836366932
 10
387.8699833843104
 20
12.906771132367677
 10
387.85
 20
12.5
 10
387.8699833843104
 20
12.093228867632323
 10
387.9297410863266
 20
11.690375163633066
 10
388.0286976067113
 20
11.29531858939398
 10
388.16589994007813
 20
10.911863755684877
 10
388.3400267529543
 20
10.543703542172109
 10
388.54940110894444
 20
10.19438353296865
 10
388.79200661854463
 20
9.867267870720871
 10
389.0655068580758
 20
9.565506858075828
 10
389.36726787072087
 20
9.29200661854464
 10
389.69438353296863
 20
9.049401108944437
 10
390.0437035421721
 20
8.840026752954326
 10
390.41186375568486
 20
8.665899940078159
 10
390.79531858939396
 20
8.528697606711333
 10
391.19037516363306
 20
8.429741086326594
 10
391.5932288676323
 20
8.369983384310382
 10
392.0
 20
8.35
 10
392.4067711323677
 20
8.369983384310384
 10
392.80962483636694
 20
8.429741086326594
 10
393.20468141060604
 20
8.528697606711333
 10
393.58813624431514
 20
8.665899940078159
 10
393.9562964578279
 20
8.840026752954326
 10
394.30561646703137
 20
9.049401108944437
 10
394.63273212927913
 20
9.29200661854464
 10
394.9344931419242
 20
9.565506858075828
 10
395.20799338145537
 20
9.867267870720871
 10
395.45059889105556
 20
10.19438353296865
 10
395.6599732470457
 20
10.54370354217211
 10
395.83410005992187
 20
10.911863755684877
 10
395.9713023932887
 20
11.29531858939398
 10
396.0702589136734
 20
11.690375163633068
 10
396.1300166156896
 20
12.093228867632323
 10
396.15
 20
12.5
 10
396.1300166156896
 20
12.906771132367677
 10
396.0702589136734
 20
13.309624836366934
 10
395.9713023932887
 20
13.70468141060602
 10
395.83410005992187
 20
14.088136244315125
 10
395.6599732470457
 20
14.456296457827891
 10
395.45059889105556
 20
14.80561646703135
  0
LWPOLYLINE
  5
98
330
17
100
AcDbEntity
  8
CORTE
100
AcDbPolyline
 90
65
 70
1
 10
439.6599732470457
 20
14.456296457827891
 10
439.45059889105556
 20
14.80561646703135
 10
439.20799338145537
 20
15.13273212927913
 10
438.9344931419242
 20
15.434493141924174
 10
438.63273212927913
 20
15.707993381455358
 10
438.30561646703137
 20
15.950598891055563
 10
437.9562964578279
 20
16.159973247045674
 10
437.58813624431514
 20
16.33410005992184
 10
437.20468141060604
 20
16.471302393288667
 10
436.80962483636694
 20
16.570258913673406
 10
436.4067711323677
 20
16.63001661568962
 10
436.0
 20
16.65
 10
435.5932288676323
 20
16.63001661568962
 10
435.19037516363306
 20
16.570258913673406
 10
434.79531858939396
 20
16.471302393288667
 10
434.41186375568486
 20
16.334100059921838
 10
434.0437035421721
 20
16.159973247045674
 10
433.69438353296863
 20
15.950598891055563
 10
433.36726787072087
 20
15.707993381455358
 10
433.0655068580758
 20
15.434493141924172
 10
432.79200661854463
 20
15.132732129279129
 10
432.54940110894444
 20
14.80561646703135
 10
432.3400267529543
 20
14.45629645782789
 10
432.16589994007813
 20
14.088136244315123
 10
432.0286976067113
 20
13.704681410606018
 10
431.9297410863266
 20
13.309624836366932
 10
431.8699833843104
 20
12.906771132367677
 10
431.85
 20
12.5
 10
431.8699833843104
 20
12.093228867632323
 10
431.9297410863266
 20
11.690375163633066
 10
432.0286976067113
 20
11.29531858939398
 10
432.16589994007813
 20
10.911863755684877
 10
432.3400267529543
 20
10.543703542172109
 10
432.54940110894444
 20
10.19438353296865
 10
432.79200661854463
 20
9.867267870720871
 10
433.0655068580758
 20
9.565506858075828
 10
433.36726787072087
 20
9.29200661854464
 10
433.69438353296863
 20
9.049401108944437
 10
434.0437035421721
 20
8.840026752954326
 10
434.41186375568486
 20
8.665899940078159
 10
434.79531858939396
 20
8.528697606711333
 10
435.19037516363306
 20
8.429741086326594
 10
435.5932288676323
 20
8.369983384310382
 10
436.0
 20
8.35
 10
436.4067711323677
 20
8.369983384310384
 10
436.80962483636694
 20
8.429741086326594
 10
437.20468141060604
 20
8.528697606711333
 10
437.58813624431514
 20
8.665899940078159
 10
437.9562964578279
 20
8.840026752954326
 10
438.30561646703137
 20
9.049401108944437
 10
438.63273212927913
 20
9.29200661854464
 10
438.9344931419242
 20
9.565506858075828
 10
439.20799338145537
 20
9.867267870720871
 10
439.45059889105556
 20
10.19438353296865
 10
439.6599732470457
 20
10.54370354217211
 10
439.83410005992187
 20
10.911863755684877
 10
439.9713023932887
 20
11.29531858939398
 10
440.0702589136734
 20
11.690375163633068
 10
440.1300166156896
 20
12.093228867632323
 10
440.15
 20
12.5
 10
440.1300166156896
 20
12.906771132367677
 10
440.0702589136734
 20
13.309624836366934
 10
439.9713023932887
 20
13.70468141060602
 10
439.83410005992187
 20
14.088136244315125
 10
439.6599732470457
 20
14.456296457827891
  0
LWPOLYLINE
  5
99
330
17
100
AcDbEntity
  8
CORTE
100
AcDbPolyline
 90
65
 70
1
 10
483.83410005992187
 20
14.088136244315125
 10
483.6599732470457
 20
14.456296457827891
 10
483.45059889105556
 20
14.80561646703135
 10
483.20799338145537
 20
15.13273212927913
 10
482.9344931419242
 20
15.434493141924174
 10
482.63273212927913
 20
15.707993381455358
 10
482.30561646703137
 20
15.950598891055563
 10
481.9562964578279
 20
16.159973247045674
 10
481.58813624431514
 20
16.33410005992184
 10
481.20468141060604
 20
16.471302393288667
 10
480.80962483636694
 20
16.570258913673406
 10
480.4067711323677
 20
16.63001661568962
 10
480.0
 20
16.65
 10
479.5932288676323
 20
16.63001661568962
 10
479.19037516363306
 20
16.570258913673406
 10
478.79531858939396
 20
16.471302393288667
 10
478.41186375568486
 20
16.334100059921838
 10
478.0437035421721
 20
16.159973247045674
 10
477.69438353296863
 20
15.950598891055563
 10
477.36726787072087
 20
15.707993381455358
 10
477.0655068580758
 20
15.434493141924172
 10
476.79200661854463
 20
15.132732129279129
 10
476.54940110894444
 20
14.80561646703135
 10
476.3400267529543
 20
14.45629645782789
 10
476.16589994007813
 20
14.088136244315123
 10
476.0286976067113
 20
13.704681410606018
 10
475.9297410863266
 20
13.309624836366932
 10
475.8699833843104
 20
12.906771132367677
 10
475.85
 20
12.5
 10
475.8699833843104
 20
12.093228867632323
 10
475.9297410863266
 20
11.690375163633066
 10
476.0286976067113
 20
11.29531858939398
 10
476.16589994007813
 20
10.911863755684877
 10
476.3400267529543
 20
10.543703542172109
 10
476.54940110894444
 20
10.19438353296865
 10
476.79200661854463
 20
9.867267870720871
 10
477.0655068580758
 20
9.565506858075828
 10
477.36726787072087
 20
9.29200661854464
 10
477.69438353296863
 20
9.049401108944437
 10
478.0437035421721
 20
8.840026752954326
 10
478.41186375568486
 20
8.665899940078159
 10
478.79531858939396
 20
8.528697606711333
 10
479.19037516363306
 20
8.429741086326594
 10
479.5932288676323
 20
8.369983384310382
 10
480.0
 20
8.35
 10
480.4067711323677
 20
8.369983384310384
 10
480.80962483636694
 20
8.429741086326594
 10
481.20468141060604
 20
8.528697606711333
 10
481.58813624431514
 20
8.665899940078159
 10
481.9562964578279
 20
8.840026752954326
 10
482.30561646703137
 20
9.049401108944437
 10
482.63273212927913
 20
9.29200661854464
 10
482.9344931419242
 20
9.565506858075828
 10
483.20799338145537
 20
9.867267870720871
 10
483.45059889105556
 20
10.19438353296865
 10
483.6599732470457
 20
10.54370354217211
 10
483.83410005992187
 20
10.911863755684877
 10
483.9713023932887
 20
11.29531858939398
 10
484.0702589136734
 20
11.690375163633068
 10
484.1300166156896
 20
12.093228867632323
 10
484.15
 20
12.5
 10
484.1300166156896
 20
12.906771132367677
 10
484.0702589136734
 20
13.309624836366934
 10
483.9713023932887
 20
13.70468141060602
 10
483.83410005992187
 20
14.088136244315125
  0
LWPOLYLINE
  5
9A
330
17
100
AcDbEntity
  8
CORTE
100
AcDbPolyline
 90
65
 70
1
 10
22.631585923263575
 20
13.298282862449772
 10
22.54066871440604
 20
13.552379439004
 10
22.425283476957976
 20
13.796341026271495
 10
22.286541433832
 20
14.027818140803905
 10
22.125778746747525
 20
14.244581531450027
 10
21.944543648263004
 20
14.444543648263005
 10
21.744581531450024
 20
14.625778746747526
 10
21.527818140803905
 20
14.786541433832
 10
21.29634102627149
 20
14.925283476957976
 10
21.052379439003996
 20
15.040668714406038
 10
20.79828286244977
 20
15.131585923263575
 10
20.536498385544352
 20
15.197159521108883
 10
20.26954713590629
 20
15.23675799834854
 10
20.0
 20
15.25
 10
19.73045286409371
 20
15.23675799834854
 10
19.463501614455645
 20
15.197159521108883
 10
19.20171713755023
 20
15.131585923263575
 10
18.947620560996
 20
15.040668714406038
 10
18.703658973728505
 20
14.925283476957976
 10
18.472181859196095
 20
14.786541433832
 10
18.255418468549973
 20
14.625778746747526
 10
18.055456351736993
 20
14.444543648263005
 10
17.874221253252472
 20
14.244581531450024
 10
17.713458566168
 20
14.027818140803905
 10
17.574716523042024
 20
13.796341026271493
 10
17.45933128559396
 20
13.552379439003996
 10
17.368414076736425
 20
13.29828286244977
 10
17.302840478891117
 20
13.036498385544354
 10
17.26324200165146
 20
12.769547135906292
 10
17.25
 20
12.5
 10
17.26324200165146
 20
12.230452864093708
 10
17.302840478891117
 20
11.963501614455646
 10
17.368414076736425
 20
11.70171713755023
 10
17.45933128559396
 20
11.447620560996002
 10
17.574716523042024
 20
11.203658973728507
 10
17.713458566168
 20
10.972181859196095
 10
17.874221253252472
 20
10.755418468549975
 10
18.055456351736993
 20
10.555456351736995
 10
18.255418468549976
 20
10.374221253252474
 10
18.472181859196095
 20
10.213458566168
 10
18.703658973728505
 20
10.074716523042024
 10
18.947620560996004
 20
9.959331285593962
 10
19.20171713755023
 20
9.868414076736425
 10
19.463501614455648
 20
9.802840478891117
 10
19.730452864093706
 20
9.76324200165146
 10
20.0
 20
9.75
 10
20.269547135906294
 20
9.76324200165146
 10
20.536498385544352
 20
9.802840478891117
 10
20.79828286244977
 20
9.868414076736425
 10
21.052379439003996
 20
9.959331285593962
 10
21.296341026271495
 20
10.074716523042024
 10
21.527818140803905
 20
10.213458566168
 10
21.744581531450024
 20
10.374221253252474
 10
21.944543648263007
 20
10.555456351736995
 10
22.125778746747528
 20
10.755418468549975
 10
22.286541433832
 20
10.972181859196095
 10
22.425283476957976
 20
11.203658973728507
 10
22.54066871440604
 20
11.447620560996004
 10
22.631585923263575
 20
11.70171713755023
 10
22.697159521108883
 20
11.963501614455648
 10
22.73675799834854
 20
12.230452864093708
 10
22.75
 20
12.5
 10
22.73675799834854
 20
12.769547135906292
 10
22.697159521108883
 20
13.036498385544354
 10
22.631585923263575
 20
13.298282862449772
  0
LWPOLYLINE
  5
9B
330
17
100
AcDbEntity
  8
CORTE
100
AcDbPolyline
 90
65
 70
1
 10
502.73675799834854
 20
12.769547135906292
 10
502.69715952110886
 20
13.036498385544354
 10
502.6315859232636
 20
13.298282862449772
 10
502.540668714406
 20
13.552379439004
 10
502.425283476958
 20
13.796341026271495
 10
502.286541433832
 20
14.027818140803905
 10
502.1257787467475
 20
14.244581531450027
 10
501.944543648263
 20
14.444543648263005
 10
501.74458153145
 20
14.625778746747526
 10
501.5278181408039
 20
14.786541433832
 10
501.2963410262715
 20
14.925283476957976
 10
501.05237943900397
 20
15.040668714406038
 10
500.79828286244975
 20
15.131585923263575
 10
500.53649838554435
 20
15.197159521108883
 10
500.2695471359063
 20
15.23675799834854
 10
500.0
 20
15.25
 10
499.7304528640937
 20
15.23675799834854
 10
499.46350161445565
 20
15.197159521108883
 10
499.20171713755025
 20
15.131585923263575
 10
498.94762056099603
 20
15.040668714406038
 10
498.7036589737285
 20
14.925283476957976
 10
498.4721818591961
 20
14.786541433832
 10
498.25541846855
 20
14.625778746747526
 10
498.055456351737
 20
14.444543648263005
 10
497.8742212532525
 20
14.244581531450024
 10
497.713458566168
 20
14.027818140803905
 10
497.574716523042
 20
13.796341026271493
 10
497.459331285594
 20
13.552379439003996
 10
497.3684140767364
 20
13.29828286244977
 10
497.30284047889114
 20
13.036498385544354
 10
497.26324200165146
 20
12.769547135906292
 10
497.25
 20
12.5
 10
497.26324200165146
 20
12.230452864093708
 10
497.30284047889114
 20
11.963501614455646
 10
497.3684140767364
 20
11.70171713755023
 10
497.459331285594
 20
11.447620560996002
 10
497.574716523042
 20
11.203658973728507
 10
497.713458566168
 20
10.972181859196095
 10
497.8742212532525
 20
10.755418468549975
 10
498.055456351737
 20
10.555456351736995
 10
498.25541846855
 20
10.374221253252474
 10
498.4721818591961
 20
10.213458566168
 10
498.7036589737285
 20
10.074716523042024
 10
498.94762056099603
 20
9.959331285593962
 10
499.20171713755025
 20
9.868414076736425
 10
499.46350161445565
 20
9.802840478891117
 10
499.7304528640937
 20
9.76324200165146
 10
500.0
 20
9.75
 10
500.2695471359063
 20
9.76324200165146
 10
500.53649838554435
 20
9.802840478891117
 10
500.79828286244975
 20
9.868414076736425
 10
501.05237943900397
 20
9.959331285593962
 10
501.2963410262715
 20
10.074716523042024
 10
501.5278181408039
 20
10.213458566168
 10
501.74458153145
 20
10.374221253252474
 10
501.944543648263
 20
10.555456351736995
 10
502.1257787467475
 20
10.755418468549975
 10
502.286541433832
 20
10.972181859196095
 10
502.425283476958
 20
11.203658973728507
 10
502.540668714406
 20
11.447620560996004
 10
502.6315859232636
 20
11.70171713755023
 10
502.69715952110886
 20
11.963501614455648
 10
502.73675799834854
 20
12.230452864093708
 10
502.75
 20
12.5
 10
502.73675799834854
 20
12.769547135906292
  0
TEXT
  5
9C
330
17
100
AcDbEntity
  8
TEXTO
100
AcDbText
 10
0.0
 20
-18.0
 30
0.0
 40
7.0
  1
PAR-RIEL — Riel de la parrilla (aloja las varillas)  |  x4  |  acero e3  |  desarrollo 520 x 25  |  0 pliegue(s), 14 agujero(s)  |  masa 0.291 kg c/u
 11
0.0
 21
-18.0
 31
0.0
100
AcDbText
  0
TEXT
  5
9D
330
17
100
AcDbEntity
  8
TEXTO
100
AcDbText
 10
0.0
 20
-30.0
 30
0.0
 40
4.5
  1
Escala real 1:1 (1 unidad = 1 mm). Capa CORTE = trayectoria del laser. Capa PLIEGUE/TANGENTE = referencia de plegado, NO se corta. Factor K 0.38, radio interior = espesor. Vista desde la cara EXTERIOR.
 11
0.0
 21
-30.0
 31
0.0
100
AcDbText
  0
ENDSEC
  0
SECTION
  2
OBJECTS
  0
DICTIONARY
  5
A
330
0
100
AcDbDictionary
281
1
  3
ACAD_COLOR
350
B
  3
ACAD_GROUP
350
C
  3
ACAD_LAYOUT
350
D
  3
ACAD_MATERIAL
350
E
  3
ACAD_MLEADERSTYLE
350
F
  3
ACAD_MLINESTYLE
350
10
  3
ACAD_PLOTSETTINGS
350
11
  3
ACAD_PLOTSTYLENAME
350
12
  3
ACAD_SCALELIST
350
14
  3
ACAD_TABLESTYLE
350
15
  3
ACAD_VISUALSTYLE
350
16
  3
EZDXF_META
350
2D
  0
DICTIONARY
  5
B
330
A
100
AcDbDictionary
281
1
  0
DICTIONARY
  5
C
330
A
100
AcDbDictionary
281
1
  0
DICTIONARY
  5
D
330
A
100
AcDbDictionary
281
1
  3
Model
350
1A
  3
Layout1
350
1E
  0
DICTIONARY
  5
E
330
A
100
AcDbDictionary
281
1
  3
ByBlock
350
1F
  3
ByLayer
350
20
  3
Global
350
21
  0
DICTIONARY
  5
F
330
A
100
AcDbDictionary
281
1
  3
Standard
350
2C
  0
DICTIONARY
  5
10
330
A
100
AcDbDictionary
281
1
  3
Standard
350
22
  0
DICTIONARY
  5
11
330
A
100
AcDbDictionary
281
1
  0
ACDBDICTIONARYWDFLT
  5
12
330
A
100
AcDbDictionary
281
1
  3
Normal
350
13
100
AcDbDictionaryWithDefault
340
13
  0
ACDBPLACEHOLDER
  5
13
330
12
  0
DICTIONARY
  5
14
330
A
100
AcDbDictionary
281
1
  0
DICTIONARY
  5
15
330
A
100
AcDbDictionary
281
1
  0
DICTIONARY
  5
16
330
A
100
AcDbDictionary
281
1
  3
2dWireframe
350
5A
  3
Basic
350
5B
  3
Brighten
350
5C
  3
ColorChange
350
5D
  3
Conceptual
350
5E
  3
Dim
350
5F
  3
EdgeColorOff
350
60
  3
Facepattern
350
61
  3
Flat
350
62
  3
FlatWithEdges
350
63
  3
Gouraud
350
64
  3
GouraudWithEdges
350
65
  3
Hidden
350
66
  3
JitterOff
350
67
  3
Linepattern
350
68
  3
Modeling
350
69
  3
OverhangOff
350
6A
  3
Realistic
350
6B
  3
Shaded
350
6C
  3
Shaded with edges
350
6D
  3
Shades of Gray
350
6E
  3
Sketchy
350
6F
  3
Thicken
350
70
  3
Wireframe
350
71
  3
X-Ray
350
72
  0
LAYOUT
  5
1A
330
D
100
AcDbPlotSettings
  1

  4
A3
  6

 40
7.5
 41
20.0
 42
7.5
 43
20.0
 44
420.0
 45
297.0
 46
0.0
 47
0.0
 48
0.0
 49
0.0
140
0.0
141
0.0
142
1.0
143
1.0
 70
1024
 72
1
 73
0
 74
5
  7

 75
16
 76
0
 77
2
 78
300
147
1.0
148
0.0
149
0.0
100
AcDbLayout
  1
Model
 70
1
 71
0
 10
0.0
 20
0.0
 11
420.0
 21
297.0
 12
0.0
 22
0.0
 32
0.0
 14
1e+20
 24
1e+20
 34
1e+20
 15
-1e+20
 25
-1e+20
 35
-1e+20
146
0.0
 13
0.0
 23
0.0
 33
0.0
 16
1.0
 26
0.0
 36
0.0
 17
0.0
 27
1.0
 37
0.0
 76
1
330
17
  0
LAYOUT
  5
1E
330
D
100
AcDbPlotSettings
  1

  4
A3
  6

 40
7.5
 41
20.0
 42
7.5
 43
20.0
 44
420.0
 45
297.0
 46
0.0
 47
0.0
 48
0.0
 49
0.0
140
0.0
141
0.0
142
1.0
143
1.0
 70
0
 72
1
 73
0
 74
5
  7

 75
16
 76
0
 77
2
 78
300
147
1.0
148
0.0
149
0.0
100
AcDbLayout
  1
Layout1
 70
1
 71
1
 10
0.0
 20
0.0
 11
420.0
 21
297.0
 12
0.0
 22
0.0
 32
0.0
 14
1e+20
 24
1e+20
 34
1e+20
 15
-1e+20
 25
-1e+20
 35
-1e+20
146
0.0
 13
0.0
 23
0.0
 33
0.0
 16
1.0
 26
0.0
 36
0.0
 17
0.0
 27
1.0
 37
0.0
 76
1
330
1B
  0
MATERIAL
  5
1F
102
{ACAD_REACTORS
330
E
102
}
330
E
100
AcDbMaterial
  1
ByBlock
  2

 70
0
 40
1.0
 71
1
 41
1.0
 91
-1023410177
 42
1.0
 72
1
  3

 73
1
 74
1
 75
1
 44
0.5
 73
0
 45
1.0
 46
1.0
 77
1
  4

 78
1
 79
1
170
1
 48
1.0
171
1
  6

172
1
173
1
174
1
140
1.0
141
1.0
175
1
  7

176
1
177
1
178
1
143
1.0
179
1
  8

270
1
271
1
272
1
145
1.0
146
1.0
273
1
  9

274
1
275
1
276
1
 42
1.0
 72
1
  3

 73
1
 74
1
 75
1
 94
63
  0
MATERIAL
  5
20
102
{ACAD_REACTORS
330
E
102
}
330
E
100
AcDbMaterial
  1
ByLayer
  2

 70
0
 40
1.0
 71
1
 41
1.0
 91
-1023410177
 42
1.0
 72
1
  3

 73
1
 74
1
 75
1
 44
0.5
 73
0
 45
1.0
 46
1.0
 77
1
  4

 78
1
 79
1
170
1
 48
1.0
171
1
  6

172
1
173
1
174
1
140
1.0
141
1.0
175
1
  7

176
1
177
1
178
1
143
1.0
179
1
  8

270
1
271
1
272
1
145
1.0
146
1.0
273
1
  9

274
1
275
1
276
1
 42
1.0
 72
1
  3

 73
1
 74
1
 75
1
 94
63
  0
MATERIAL
  5
21
102
{ACAD_REACTORS
330
E
102
}
330
E
100
AcDbMaterial
  1
Global
  2

 70
0
 40
1.0
 71
1
 41
1.0
 91
-1023410177
 42
1.0
 72
1
  3

 73
1
 74
1
 75
1
 44
0.5
 73
0
 45
1.0
 46
1.0
 77
1
  4

 78
1
 79
1
170
1
 48
1.0
171
1
  6

172
1
173
1
174
1
140
1.0
141
1.0
175
1
  7

176
1
177
1
178
1
143
1.0
179
1
  8

270
1
271
1
272
1
145
1.0
146
1.0
273
1
  9

274
1
275
1
276
1
 42
1.0
 72
1
  3

 73
1
 74
1
 75
1
 94
63
  0
MLINESTYLE
  5
22
102
{ACAD_REACTORS
330
10
102
}
330
10
100
AcDbMlineStyle
  2
Standard
 70
0
  3

 62
256
 51
90.0
 52
90.0
 71
2
 49
0.5
 62
256
  6
BYLAYER
 49
-0.5
 62
256
  6
BYLAYER
  0
MLEADERSTYLE
  5
2C
102
{ACAD_REACTORS
330
F
102
}
330
F
100
AcDbMLeaderStyle
179
2
170
2
171
1
172
0
 90
2
 40
0.0
 41
0.0
173
1
 91
-1056964608
 92
-2
290
1
 42
2.0
291
1
 43
8.0
  3
Standard
 44
4.0
300

342
29
174
1
175
1
176
0
178
1
 93
-1056964608
 45
4.0
292
0
297
0
 46
4.0
 94
-1056964608
 47
1.0
 49
1.0
140
1.0
294
1
141
0.0
177
0
142
1.0
295
0
296
0
143
3.75
271
0
272
9
273
9
  0
DICTIONARY
  5
2D
330
A
100
AcDbDictionary
280
1
281
1
  3
CREATED_BY_EZDXF
350
2E
  3
WRITTEN_BY_EZDXF
350
A0
  0
DICTIONARYVAR
  5
2E
330
2D
100
DictionaryVariables
280
0
  1
1.4.4 @ 2026-09-06T21:00:53.525307+00:00
  0
VISUALSTYLE
  5
5A
102
{ACAD_REACTORS
330
16
102
}
330
16
100
AcDbVisualStyle
  2
2dWireframe
 70
4
177
3
291
0
 70
58
 90
2
176
1
 90
2
176
1
 90
0
176
1
 90
0
176
1
 40
0.6
176
1
 40
30.0
176
1
 62
7
420
16777215
176
1
 90
1
176
1
 90
4
176
1
 62
7
176
1
 62
257
176
1
 90
1
176
1
 90
1
176
1
 40
1.0
176
1
 90
8
176
1
 62
7
176
1
 40
1.0
176
1
 90
1
176
1
 90
6
176
1
 90
2
176
1
 62
7
176
1
 90
5
176
1
 90
0
176
1
 90
0
176
1
290
0
176
1
 90
1
176
1
 40
0.0
176
1
 90
0
176
1
290
1
176
1
290
1
176
1
290
0
176
1
290
0
176
1
290
0
176
1
290
0
176
1
290
0
176
1
290
0
176
1
290
0
176
1
 90
50
176
1
 40
0.0
176
1
 40
1.0
176
1
 90
0
176
1
 62
18
420
0
176
1
 90
50
176
1
 90
3
176
1
 62
5
420
255
176
1
290
0
176
1
 90
50
176
1
 90
50
176
1
 90
50
176
1
290
0
176
1
 90
50
176
1
 62
256
176
0
 40
1.0
176
0
 90
2
176
1
  1
strokes_ogs.tif
176
1
290
0
176
1
 40
1.0
176
1
 40
1.0
176
1
  0
VISUALSTYLE
  5
5B
102
{ACAD_REACTORS
330
16
102
}
330
16
100
AcDbVisualStyle
  2
Basic
 70
7
177
3
291
1
 70
58
 90
2
176
1
 90
2
176
1
 90
0
176
1
 90
1
176
1
 40
0.6
176
1
 40
30.0
176
1
 62
7
420
16777215
176
1
 90
1
176
1
 90
4
176
1
 62
7
176
1
 62
257
176
1
 90
1
176
1
 90
1
176
1
 40
1.0
176
1
 90
8
176
1
 62
7
176
1
 40
1.0
176
1
 90
1
176
1
 90
6
176
1
 90
2
176
1
 62
7
176
1
 90
5
176
1
 90
0
176
1
 90
0
176
1
290
0
176
1
 90
1
176
1
 40
0.0
176
1
 90
0
176
1
290
0
176
1
290
1
176
1
290
1
176
1
290
0
176
1
290
0
176
1
290
0
176
1
290
0
176
1
290
0
176
1
290
0
176
1
 90
50
176
1
 40
0.0
176
1
 40
1.0
176
1
 90
0
176
1
 62
18
420
0
176
1
 90
50
176
1
 90
3
176
1
 62
5
420
255
176
1
290
0
176
1
 90
50
176
1
 90
50
176
1
 90
50
176
1
290
0
176
1
 90
50
176
1
 62
256
176
0
 40
1.0
176
0
 90
2
176
1
  1
strokes_ogs.tif
176
1
290
0
176
1
 40
1.0
176
1
 40
1.0
176
1
  0
VISUALSTYLE
  5
5C
102
{ACAD_REACTORS
330
16
102
}
330
16
100
AcDbVisualStyle
  2
Brighten
 70
12
177
3
291
1
 70
58
 90
2
176
1
 90
2
176
1
 90
0
176
1
 90
2
176
1
 40
0.6
176
1
 40
30.0
176
1
 62
7
420
16777215
176
1
 90
1
176
1
 90
4
176
1
 62
7
176
1
 62
257
176
1
 90
1
176
1
 90
1
176
1
 40
1.0
176
1
 90
8
176
1
 62
7
176
1
 40
1.0
176
1
 90
1
176
1
 90
6
176
1
 90
2
176
1
 62
7
176
1
 90
5
176
1
 90
0
176
1
 90
0
176
1
290
0
176
1
 90
1
176
1
 40
0.0
176
1
 90
0
176
1
290
0
176
1
290
1
176
1
290
1
176
1
290
0
176
1
290
0
176
1
290
0
176
1
290
0
176
1
290
0
176
1
290
0
176
1
 90
50
176
1
 40
0.0
176
1
 40
1.0
176
1
 90
0
176
1
 62
18
420
0
176
1
 90
50
176
1
 90
3
176
1
 62
5
420
255
176
1
290
0
176
1
 90
50
176
1
 90
50
176
1
 90
50
176
1
290
0
176
1
 90
50
176
1
 62
256
176
0
 40
1.0
176
0
 90
2
176
1
  1
strokes_ogs.tif
176
1
290
0
176
1
 40
1.0
176
1
 40
1.0
176
1
  0
VISUALSTYLE
  5
5D
102
{ACAD_REACTORS
330
16
102
}
330
16
100
AcDbVisualStyle
  2
ColorChange
 70
16
177
3
291
1
 70
58
 90
2
176
1
 90
2
176
1
 90
0
176
1
 90
2
176
1
 40
0.6
176
1
 40
30.0
176
1
 62
7
420
16777215
176
1
 90
1
176
1
 90
4
176
1
 62
7
176
1
 62
257
176
1
 90
1
176
1
 90
1
176
1
 40
1.0
176
1
 90
8
176
1
 62
7
176
1
 40
1.0
176
1
 90
1
176
1
 90
6
176
1
 90
2
176
1
 62
7
176
1
 90
5
176
1
 90
0
176
1
 90
0
176
1
290
0
176
1
 90
1
176
1
 40
0.0
176
1
 90
0
176
1
290
0
176
1
290
1
176
1
290
1
176
1
290
0
176
1
290
0
176
1
290
0
176
1
290
0
176
1
290
0
176
1
290
0
176
1
 90
50
176
1
 40
0.0
176
1
 40
1.0
176
1
 90
0
176
1
 62
18
420
0
176
1
 90
50
176
1
 90
3
176
1
 62
5
420
255
176
1
290
0
176
1
 90
50
176
1
 90
50
176
1
 90
50
176
1
290
0
176
1
 90
50
176
1
 62
256
176
0
 40
1.0
176
0
 90
2
176
1
  1
strokes_ogs.tif
176
1
290
0
176
1
 40
1.0
176
1
 40
1.0
176
1
  0
VISUALSTYLE
  5
5E
102
{ACAD_REACTORS
330
16
102
}
330
16
100
AcDbVisualStyle
  2
Conceptual
 70
9
177
3
291
0
 70
58
 90
2
176
1
 90
2
176
1
 90
0
176
1
 90
3
176
1
 40
0.6
176
1
 40
30.0
176
1
 62
7
420
16777215
176
1
 90
1
176
1
 90
4
176
1
 62
7
176
1
 62
257
176
1
 90
1
176
1
 90
1
176
1
 40
1.0
176
1
 90
8
176
1
 62
7
176
1
 40
1.0
176
1
 90
1
176
1
 90
6
176
1
 90
2
176
1
 62
7
176
1
 90
5
176
1
 90
0
176
1
 90
0
176
1
290
0
176
1
 90
1
176
1
 40
0.0
176
1
 90
0
176
1
290
0
176
1
290
1
176
1
290
1
176
1
290
0
176
1
290
0
176
1
290
0
176
1
290
0
176
1
290
0
176
1
290
0
176
1
 90
50
176
1
 40
0.0
176
1
 40
1.0
176
1
 90
0
176
1
 62
18
420
0
176
1
 90
50
176
1
 90
3
176
1
 62
5
420
255
176
1
290
0
176
1
 90
50
176
1
 90
50
176
1
 90
50
176
1
290
0
176
1
 90
50
176
1
 62
256
176
0
 40
1.0
176
0
 90
2
176
1
  1
strokes_ogs.tif
176
1
290
0
176
1
 40
1.0
176
1
 40
1.0
176
1
  0
VISUALSTYLE
  5
5F
102
{ACAD_REACTORS
330
16
102
}
330
16
100
AcDbVisualStyle
  2
Dim
 70
11
177
3
291
1
 70
58
 90
2
176
1
 90
2
176
1
 90
0
176
1
 90
2
176
1
 40
0.6
176
1
 40
30.0
176
1
 62
7
420
16777215
176
1
 90
1
176
1
 90
4
176
1
 62
7
176
1
 62
257
176
1
 90
1
176
1
 90
1
176
1
 40
1.0
176
1
 90
8
176
1
 62
7
176
1
 40
1.0
176
1
 90
1
176
1
 90
6
176
1
 90
2
176
1
 62
7
176
1
 90
5
176
1
 90
0
176
1
 90
0
176
1
290
0
176
1
 90
1
176
1
 40
0.0
176
1
 90
0
176
1
290
0
176
1
290
1
176
1
290
1
176
1
290
0
176
1
290
0
176
1
290
0
176
1
290
0
176
1
290
0
176
1
290
0
176
1
 90
50
176
1
 40
0.0
176
1
 40
1.0
176
1
 90
0
176
1
 62
18
420
0
176
1
 90
50
176
1
 90
3
176
1
 62
5
420
255
176
1
290
0
176
1
 90
50
176
1
 90
50
176
1
 90
50
176
1
290
0
176
1
 90
50
176
1
 62
256
176
0
 40
1.0
176
0
 90
2
176
1
  1
strokes_ogs.tif
176
1
290
0
176
1
 40
1.0
176
1
 40
1.0
176
1
  0
VISUALSTYLE
  5
60
102
{ACAD_REACTORS
330
16
102
}
330
16
100
AcDbVisualStyle
  2
EdgeColorOff
 70
22
177
3
291
1
 70
58
 90
2
176
1
 90
2
176
1
 90
0
176
1
 90
2
176
1
 40
0.6
176
1
 40
30.0
176
1
 62
7
420
16777215
176
1
 90
1
176
1
 90
4
176
1
 62
7
176
1
 62
257
176
1
 90
1
176
1
 90
1
176
1
 40
1.0
176
1
 90
8
176
1
 62
7
176
1
 40
1.0
176
1
 90
1
176
1
 90
6
176
1
 90
2
176
1
 62
7
176
1
 90
5
176
1
 90
0
176
1
 90
0
176
1
290
0
176
1
 90
1
176
1
 40
0.0
176
1
 90
0
176
1
290
0
176
1
290
1
176
1
290
1
176
1
290
0
176
1
290
0
176
1
290
0
176
1
290
0
176
1
290
0
176
1
290
0
176
1
 90
50
176
1
 40
0.0
176
1
 40
1.0
176
1
 90
0
176
1
 62
18
420
0
176
1
 90
50
176
1
 90
3
176
1
 62
5
420
255
176
1
290
0
176
1
 90
50
176
1
 90
50
176
1
 90
50
176
1
290
0
176
1
 90
50
176
1
 62
256
176
0
 40
1.0
176
0
 90
2
176
1
  1
strokes_ogs.tif
176
1
290
0
176
1
 40
1.0
176
1
 40
1.0
176
1
  0
VISUALSTYLE
  5
61
102
{ACAD_REACTORS
330
16
102
}
330
16
100
AcDbVisualStyle
  2
Facepattern
 70
15
177
3
291
1
 70
58
 90
2
176
1
 90
2
176
1
 90
0
176
1
 90
2
176
1
 40
0.6
176
1
 40
30.0
176
1
 62
7
420
16777215
176
1
 90
1
176
1
 90
4
176
1
 62
7
176
1
 62
257
176
1
 90
1
176
1
 90
1
176
1
 40
1.0
176
1
 90
8
176
1
 62
7
176
1
 40
1.0
176
1
 90
1
176
1
 90
6
176
1
 90
2
176
1
 62
7
176
1
 90
5
176
1
 90
0
176
1
 90
0
176
1
290
0
176
1
 90
1
176
1
 40
0.0
176
1
 90
0
176
1
290
0
176
1
290
1
176
1
290
1
176
1
290
0
176
1
290
0
176
1
290
0
176
1
290
0
176
1
290
0
176
1
290
0
176
1
 90
50
176
1
 40
0.0
176
1
 40
1.0
176
1
 90
0
176
1
 62
18
420
0
176
1
 90
50
176
1
 90
3
176
1
 62
5
420
255
176
1
290
0
176
1
 90
50
176
1
 90
50
176
1
 90
50
176
1
290
0
176
1
 90
50
176
1
 62
256
176
0
 40
1.0
176
0
 90
2
176
1
  1
strokes_ogs.tif
176
1
290
0
176
1
 40
1.0
176
1
 40
1.0
176
1
  0
VISUALSTYLE
  5
62
102
{ACAD_REACTORS
330
16
102
}
330
16
100
AcDbVisualStyle
  2
Flat
 70
0
177
3
291
1
 70
58
 90
2
176
1
 90
2
176
1
 90
0
176
1
 90
2
176
1
 40
0.6
176
1
 40
30.0
176
1
 62
7
420
16777215
176
1
 90
1
176
1
 90
4
176
1
 62
7
176
1
 62
257
176
1
 90
1
176
1
 90
1
176
1
 40
1.0
176
1
 90
8
176
1
 62
7
176
1
 40
1.0
176
1
 90
1
176
1
 90
6
176
1
 90
2
176
1
 62
7
176
1
 90
5
176
1
 90
0
176
1
 90
0
176
1
290
0
176
1
 90
1
176
1
 40
0.0
176
1
 90
0
176
1
290
0
176
1
290
1
176
1
290
1
176
1
290
0
176
1
290
0
176
1
290
0
176
1
290
0
176
1
290
0
176
1
290
0
176
1
 90
50
176
1
 40
0.0
176
1
 40
1.0
176
1
 90
0
176
1
 62
18
420
0
176
1
 90
50
176
1
 90
3
176
1
 62
5
420
255
176
1
290
0
176
1
 90
50
176
1
 90
50
176
1
 90
50
176
1
290
0
176
1
 90
50
176
1
 62
256
176
0
 40
1.0
176
0
 90
2
176
1
  1
strokes_ogs.tif
176
1
290
0
176
1
 40
1.0
176
1
 40
1.0
176
1
  0
VISUALSTYLE
  5
63
102
{ACAD_REACTORS
330
16
102
}
330
16
100
AcDbVisualStyle
  2
FlatWithEdges
 70
1
177
3
291
1
 70
58
 90
2
176
1
 90
2
176
1
 90
0
176
1
 90
2
176
1
 40
0.6
176
1
 40
30.0
176
1
 62
7
420
16777215
176
1
 90
1
176
1
 90
4
176
1
 62
7
176
1
 62
257
176
1
 90
1
176
1
 90
1
176
1
 40
1.0
176
1
 90
8
176
1
 62
7
176
1
 40
1.0
176
1
 90
1
176
1
 90
6
176
1
 90
2
176
1
 62
7
176
1
 90
5
176
1
 90
0
176
1
 90
0
176
1
290
0
176
1
 90
1
176
1
 40
0.0
176
1
 90
0
176
1
290
0
176
1
290
1
176
1
290
1
176
1
290
0
176
1
290
0
176
1
290
0
176
1
290
0
176
1
290
0
176
1
290
0
176
1
 90
50
176
1
 40
0.0
176
1
 40
1.0
176
1
 90
0
176
1
 62
18
420
0
176
1
 90
50
176
1
 90
3
176
1
 62
5
420
255
176
1
290
0
176
1
 90
50
176
1
 90
50
176
1
 90
50
176
1
290
0
176
1
 90
50
176
1
 62
256
176
0
 40
1.0
176
0
 90
2
176
1
  1
strokes_ogs.tif
176
1
290
0
176
1
 40
1.0
176
1
 40
1.0
176
1
  0
VISUALSTYLE
  5
64
102
{ACAD_REACTORS
330
16
102
}
330
16
100
AcDbVisualStyle
  2
Gouraud
 70
2
177
3
291
1
 70
58
 90
2
176
1
 90
2
176
1
 90
0
176
1
 90
2
176
1
 40
0.6
176
1
 40
30.0
176
1
 62
7
420
16777215
176
1
 90
1
176
1
 90
4
176
1
 62
7
176
1
 62
257
176
1
 90
1
176
1
 90
1
176
1
 40
1.0
176
1
 90
8
176
1
 62
7
176
1
 40
1.0
176
1
 90
1
176
1
 90
6
176
1
 90
2
176
1
 62
7
176
1
 90
5
176
1
 90
0
176
1
 90
0
176
1
290
0
176
1
 90
1
176
1
 40
0.0
176
1
 90
0
176
1
290
0
176
1
290
1
176
1
290
1
176
1
290
0
176
1
290
0
176
1
290
0
176
1
290
0
176
1
290
0
176
1
290
0
176
1
 90
50
176
1
 40
0.0
176
1
 40
1.0
176
1
 90
0
176
1
 62
18
420
0
176
1
 90
50
176
1
 90
3
176
1
 62
5
420
255
176
1
290
0
176
1
 90
50
176
1
 90
50
176
1
 90
50
176
1
290
0
176
1
 90
50
176
1
 62
256
176
0
 40
1.0
176
0
 90
2
176
1
  1
strokes_ogs.tif
176
1
290
0
176
1
 40
1.0
176
1
 40
1.0
176
1
  0
VISUALSTYLE
  5
65
102
{ACAD_REACTORS
330
16
102
}
330
16
100
AcDbVisualStyle
  2
GouraudWithEdges
 70
3
177
3
291
1
 70
58
 90
2
176
1
 90
2
176
1
 90
0
176
1
 90
2
176
1
 40
0.6
176
1
 40
30.0
176
1
 62
7
420
16777215
176
1
 90
1
176
1
 90
4
176
1
 62
7
176
1
 62
257
176
1
 90
1
176
1
 90
1
176
1
 40
1.0
176
1
 90
8
176
1
 62
7
176
1
 40
1.0
176
1
 90
1
176
1
 90
6
176
1
 90
2
176
1
 62
7
176
1
 90
5
176
1
 90
0
176
1
 90
0
176
1
290
0
176
1
 90
1
176
1
 40
0.0
176
1
 90
0
176
1
290
0
176
1
290
1
176
1
290
1
176
1
290
0
176
1
290
0
176
1
290
0
176
1
290
0
176
1
290
0
176
1
290
0
176
1
 90
50
176
1
 40
0.0
176
1
 40
1.0
176
1
 90
0
176
1
 62
18
420
0
176
1
 90
50
176
1
 90
3
176
1
 62
5
420
255
176
1
290
0
176
1
 90
50
176
1
 90
50
176
1
 90
50
176
1
290
0
176
1
 90
50
176
1
 62
256
176
0
 40
1.0
176
0
 90
2
176
1
  1
strokes_ogs.tif
176
1
290
0
176
1
 40
1.0
176
1
 40
1.0
176
1
  0
VISUALSTYLE
  5
66
102
{ACAD_REACTORS
330
16
102
}
330
16
100
AcDbVisualStyle
  2
Hidden
 70
6
177
3
291
0
 70
58
 90
2
176
1
 90
2
176
1
 90
0
176
1
 90
1
176
1
 40
0.6
176
1
 40
30.0
176
1
 62
7
420
16777215
176
1
 90
1
176
1
 90
4
176
1
 62
7
176
1
 62
257
176
1
 90
1
176
1
 90
1
176
1
 40
1.0
176
1
 90
8
176
1
 62
7
176
1
 40
1.0
176
1
 90
1
176
1
 90
6
176
1
 90
2
176
1
 62
7
176
1
 90
5
176
1
 90
0
176
1
 90
0
176
1
290
0
176
1
 90
1
176
1
 40
0.0
176
1
 90
0
176
1
290
0
176
1
290
1
176
1
290
1
176
1
290
0
176
1
290
0
176
1
290
0
176
1
290
0
176
1
290
0
176
1
290
0
176
1
 90
50
176
1
 40
0.0
176
1
 40
1.0
176
1
 90
0
176
1
 62
18
420
0
176
1
 90
50
176
1
 90
3
176
1
 62
5
420
255
176
1
290
0
176
1
 90
50
176
1
 90
50
176
1
 90
50
176
1
290
0
176
1
 90
50
176
1
 62
256
176
0
 40
1.0
176
0
 90
2
176
1
  1
strokes_ogs.tif
176
1
290
0
176
1
 40
1.0
176
1
 40
1.0
176
1
  0
VISUALSTYLE
  5
67
102
{ACAD_REACTORS
330
16
102
}
330
16
100
AcDbVisualStyle
  2
JitterOff
 70
20
177
3
291
1
 70
58
 90
2
176
1
 90
2
176
1
 90
0
176
1
 90
2
176
1
 40
0.6
176
1
 40
30.0
176
1
 62
7
420
16777215
176
1
 90
1
176
1
 90
4
176
1
 62
7
176
1
 62
257
176
1
 90
1
176
1
 90
1
176
1
 40
1.0
176
1
 90
8
176
1
 62
7
176
1
 40
1.0
176
1
 90
1
176
1
 90
6
176
1
 90
2
176
1
 62
7
176
1
 90
5
176
1
 90
0
176
1
 90
0
176
1
290
0
176
1
 90
1
176
1
 40
0.0
176
1
 90
0
176
1
290
0
176
1
290
1
176
1
290
1
176
1
290
0
176
1
290
0
176
1
290
0
176
1
290
0
176
1
290
0
176
1
290
0
176
1
 90
50
176
1
 40
0.0
176
1
 40
1.0
176
1
 90
0
176
1
 62
18
420
0
176
1
 90
50
176
1
 90
3
176
1
 62
5
420
255
176
1
290
0
176
1
 90
50
176
1
 90
50
176
1
 90
50
176
1
290
0
176
1
 90
50
176
1
 62
256
176
0
 40
1.0
176
0
 90
2
176
1
  1
strokes_ogs.tif
176
1
290
0
176
1
 40
1.0
176
1
 40
1.0
176
1
  0
VISUALSTYLE
  5
68
102
{ACAD_REACTORS
330
16
102
}
330
16
100
AcDbVisualStyle
  2
Linepattern
 70
14
177
3
291
1
 70
58
 90
2
176
1
 90
2
176
1
 90
0
176
1
 90
2
176
1
 40
0.6
176
1
 40
30.0
176
1
 62
7
420
16777215
176
1
 90
1
176
1
 90
4
176
1
 62
7
176
1
 62
257
176
1
 90
1
176
1
 90
1
176
1
 40
1.0
176
1
 90
8
176
1
 62
7
176
1
 40
1.0
176
1
 90
1
176
1
 90
6
176
1
 90
2
176
1
 62
7
176
1
 90
5
176
1
 90
0
176
1
 90
0
176
1
290
0
176
1
 90
1
176
1
 40
0.0
176
1
 90
0
176
1
290
0
176
1
290
1
176
1
290
1
176
1
290
0
176
1
290
0
176
1
290
0
176
1
290
0
176
1
290
0
176
1
290
0
176
1
 90
50
176
1
 40
0.0
176
1
 40
1.0
176
1
 90
0
176
1
 62
18
420
0
176
1
 90
50
176
1
 90
3
176
1
 62
5
420
255
176
1
290
0
176
1
 90
50
176
1
 90
50
176
1
 90
50
176
1
290
0
176
1
 90
50
176
1
 62
256
176
0
 40
1.0
176
0
 90
2
176
1
  1
strokes_ogs.tif
176
1
290
0
176
1
 40
1.0
176
1
 40
1.0
176
1
  0
VISUALSTYLE
  5
69
102
{ACAD_REACTORS
330
16
102
}
330
16
100
AcDbVisualStyle
  2
Modeling
 70
10
177
3
291
0
 70
58
 90
2
176
1
 90
2
176
1
 90
0
176
1
 90
2
176
1
 40
0.6
176
1
 40
30.0
176
1
 62
7
420
16777215
176
1
 90
1
176
1
 90
4
176
1
 62
7
176
1
 62
257
176
1
 90
1
176
1
 90
1
176
1
 40
1.0
176
1
 90
8
176
1
 62
7
176
1
 40
1.0
176
1
 90
1
176
1
 90
6
176
1
 90
2
176
1
 62
7
176
1
 90
5
176
1
 90
0
176
1
 90
0
176
1
290
0
176
1
 90
1
176
1
 40
0.0
176
1
 90
0
176
1
290
0
176
1
290
1
176
1
290
1
176
1
290
0
176
1
290
0
176
1
290
0
176
1
290
0
176
1
290
0
176
1
290
0
176
1
 90
50
176
1
 40
0.0
176
1
 40
1.0
176
1
 90
0
176
1
 62
18
420
0
176
1
 90
50
176
1
 90
3
176
1
 62
5
420
255
176
1
290
0
176
1
 90
50
176
1
 90
50
176
1
 90
50
176
1
290
0
176
1
 90
50
176
1
 62
256
176
0
 40
1.0
176
0
 90
2
176
1
  1
strokes_ogs.tif
176
1
290
0
176
1
 40
1.0
176
1
 40
1.0
176
1
  0
VISUALSTYLE
  5
6A
102
{ACAD_REACTORS
330
16
102
}
330
16
100
AcDbVisualStyle
  2
OverhangOff
 70
21
177
3
291
1
 70
58
 90
2
176
1
 90
2
176
1
 90
0
176
1
 90
2
176
1
 40
0.6
176
1
 40
30.0
176
1
 62
7
420
16777215
176
1
 90
1
176
1
 90
4
176
1
 62
7
176
1
 62
257
176
1
 90
1
176
1
 90
1
176
1
 40
1.0
176
1
 90
8
176
1
 62
7
176
1
 40
1.0
176
1
 90
1
176
1
 90
6
176
1
 90
2
176
1
 62
7
176
1
 90
5
176
1
 90
0
176
1
 90
0
176
1
290
0
176
1
 90
1
176
1
 40
0.0
176
1
 90
0
176
1
290
0
176
1
290
1
176
1
290
1
176
1
290
0
176
1
290
0
176
1
290
0
176
1
290
0
176
1
290
0
176
1
290
0
176
1
 90
50
176
1
 40
0.0
176
1
 40
1.0
176
1
 90
0
176
1
 62
18
420
0
176
1
 90
50
176
1
 90
3
176
1
 62
5
420
255
176
1
290
0
176
1
 90
50
176
1
 90
50
176
1
 90
50
176
1
290
0
176
1
 90
50
176
1
 62
256
176
0
 40
1.0
176
0
 90
2
176
1
  1
strokes_ogs.tif
176
1
290
0
176
1
 40
1.0
176
1
 40
1.0
176
1
  0
VISUALSTYLE
  5
6B
102
{ACAD_REACTORS
330
16
102
}
330
16
100
AcDbVisualStyle
  2
Realistic
 70
8
177
3
291
0
 70
58
 90
2
176
1
 90
2
176
1
 90
0
176
1
 90
2
176
1
 40
0.6
176
1
 40
30.0
176
1
 62
7
420
16777215
176
1
 90
1
176
1
 90
4
176
1
 62
7
176
1
 62
257
176
1
 90
1
176
1
 90
1
176
1
 40
1.0
176
1
 90
8
176
1
 62
7
176
1
 40
1.0
176
1
 90
1
176
1
 90
6
176
1
 90
2
176
1
 62
7
176
1
 90
5
176
1
 90
0
176
1
 90
0
176
1
290
0
176
1
 90
1
176
1
 40
0.0
176
1
 90
0
176
1
290
0
176
1
290
1
176
1
290
1
176
1
290
0
176
1
290
0
176
1
290
0
176
1
290
0
176
1
290
0
176
1
290
0
176
1
 90
50
176
1
 40
0.0
176
1
 40
1.0
176
1
 90
0
176
1
 62
18
420
0
176
1
 90
50
176
1
 90
3
176
1
 62
5
420
255
176
1
290
0
176
1
 90
50
176
1
 90
50
176
1
 90
50
176
1
290
0
176
1
 90
50
176
1
 62
256
176
0
 40
1.0
176
0
 90
2
176
1
  1
strokes_ogs.tif
176
1
290
0
176
1
 40
1.0
176
1
 40
1.0
176
1
  0
VISUALSTYLE
  5
6C
102
{ACAD_REACTORS
330
16
102
}
330
16
100
AcDbVisualStyle
  2
Shaded
 70
27
177
3
291
0
 70
58
 90
2
176
1
 90
2
176
1
 90
0
176
1
 90
2
176
1
 40
0.6
176
1
 40
30.0
176
1
 62
7
420
16777215
176
1
 90
1
176
1
 90
4
176
1
 62
7
176
1
 62
257
176
1
 90
1
176
1
 90
1
176
1
 40
1.0
176
1
 90
8
176
1
 62
7
176
1
 40
1.0
176
1
 90
1
176
1
 90
6
176
1
 90
2
176
1
 62
7
176
1
 90
5
176
1
 90
0
176
1
 90
0
176
1
290
0
176
1
 90
1
176
1
 40
0.0
176
1
 90
0
176
1
290
0
176
1
290
1
176
1
290
1
176
1
290
0
176
1
290
0
176
1
290
0
176
1
290
0
176
1
290
0
176
1
290
0
176
1
 90
50
176
1
 40
0.0
176
1
 40
1.0
176
1
 90
0
176
1
 62
18
420
0
176
1
 90
50
176
1
 90
3
176
1
 62
5
420
255
176
1
290
0
176
1
 90
50
176
1
 90
50
176
1
 90
50
176
1
290
0
176
1
 90
50
176
1
 62
256
176
0
 40
1.0
176
0
 90
2
176
1
  1
strokes_ogs.tif
176
1
290
0
176
1
 40
1.0
176
1
 40
1.0
176
1
  0
VISUALSTYLE
  5
6D
102
{ACAD_REACTORS
330
16
102
}
330
16
100
AcDbVisualStyle
  2
Shaded with edges
 70
26
177
3
291
0
 70
58
 90
2
176
1
 90
2
176
1
 90
0
176
1
 90
2
176
1
 40
0.6
176
1
 40
30.0
176
1
 62
7
420
16777215
176
1
 90
1
176
1
 90
4
176
1
 62
7
176
1
 62
257
176
1
 90
1
176
1
 90
1
176
1
 40
1.0
176
1
 90
8
176
1
 62
7
176
1
 40
1.0
176
1
 90
1
176
1
 90
6
176
1
 90
2
176
1
 62
7
176
1
 90
5
176
1
 90
0
176
1
 90
0
176
1
290
0
176
1
 90
1
176
1
 40
0.0
176
1
 90
0
176
1
290
0
176
1
290
1
176
1
290
1
176
1
290
0
176
1
290
0
176
1
290
0
176
1
290
0
176
1
290
0
176
1
290
0
176
1
 90
50
176
1
 40
0.0
176
1
 40
1.0
176
1
 90
0
176
1
 62
18
420
0
176
1
 90
50
176
1
 90
3
176
1
 62
5
420
255
176
1
290
0
176
1
 90
50
176
1
 90
50
176
1
 90
50
176
1
290
0
176
1
 90
50
176
1
 62
256
176
0
 40
1.0
176
0
 90
2
176
1
  1
strokes_ogs.tif
176
1
290
0
176
1
 40
1.0
176
1
 40
1.0
176
1
  0
VISUALSTYLE
  5
6E
102
{ACAD_REACTORS
330
16
102
}
330
16
100
AcDbVisualStyle
  2
Shades of Gray
 70
23
177
3
291
0
 70
58
 90
2
176
1
 90
2
176
1
 90
0
176
1
 90
2
176
1
 40
0.6
176
1
 40
30.0
176
1
 62
7
420
16777215
176
1
 90
1
176
1
 90
4
176
1
 62
7
176
1
 62
257
176
1
 90
1
176
1
 90
1
176
1
 40
1.0
176
1
 90
8
176
1
 62
7
176
1
 40
1.0
176
1
 90
1
176
1
 90
6
176
1
 90
2
176
1
 62
7
176
1
 90
5
176
1
 90
0
176
1
 90
0
176
1
290
0
176
1
 90
1
176
1
 40
0.0
176
1
 90
0
176
1
290
0
176
1
290
1
176
1
290
1
176
1
290
0
176
1
290
0
176
1
290
0
176
1
290
0
176
1
290
0
176
1
290
0
176
1
 90
50
176
1
 40
0.0
176
1
 40
1.0
176
1
 90
0
176
1
 62
18
420
0
176
1
 90
50
176
1
 90
3
176
1
 62
5
420
255
176
1
290
0
176
1
 90
50
176
1
 90
50
176
1
 90
50
176
1
290
0
176
1
 90
50
176
1
 62
256
176
0
 40
1.0
176
0
 90
2
176
1
  1
strokes_ogs.tif
176
1
290
0
176
1
 40
1.0
176
1
 40
1.0
176
1
  0
VISUALSTYLE
  5
6F
102
{ACAD_REACTORS
330
16
102
}
330
16
100
AcDbVisualStyle
  2
Sketchy
 70
24
177
3
291
0
 70
58
 90
2
176
1
 90
2
176
1
 90
0
176
1
 90
1
176
1
 40
0.6
176
1
 40
30.0
176
1
 62
7
420
16777215
176
1
 90
1
176
1
 90
4
176
1
 62
7
176
1
 62
257
176
1
 90
1
176
1
 90
1
176
1
 40
1.0
176
1
 90
8
176
1
 62
7
176
1
 40
1.0
176
1
 90
1
176
1
 90
6
176
1
 90
2
176
1
 62
7
176
1
 90
5
176
1
 90
0
176
1
 90
0
176
1
290
0
176
1
 90
1
176
1
 40
0.0
176
1
 90
0
176
1
290
0
176
1
290
1
176
1
290
1
176
1
290
0
176
1
290
0
176
1
290
0
176
1
290
0
176
1
290
0
176
1
290
0
176
1
 90
50
176
1
 40
0.0
176
1
 40
1.0
176
1
 90
0
176
1
 62
18
420
0
176
1
 90
50
176
1
 90
3
176
1
 62
5
420
255
176
1
290
0
176
1
 90
50
176
1
 90
50
176
1
 90
50
176
1
290
0
176
1
 90
50
176
1
 62
256
176
0
 40
1.0
176
0
 90
2
176
1
  1
strokes_ogs.tif
176
1
290
0
176
1
 40
1.0
176
1
 40
1.0
176
1
  0
VISUALSTYLE
  5
70
102
{ACAD_REACTORS
330
16
102
}
330
16
100
AcDbVisualStyle
  2
Thicken
 70
13
177
3
291
1
 70
58
 90
2
176
1
 90
2
176
1
 90
0
176
1
 90
2
176
1
 40
0.6
176
1
 40
30.0
176
1
 62
7
420
16777215
176
1
 90
1
176
1
 90
4
176
1
 62
7
176
1
 62
257
176
1
 90
1
176
1
 90
1
176
1
 40
1.0
176
1
 90
8
176
1
 62
7
176
1
 40
1.0
176
1
 90
1
176
1
 90
6
176
1
 90
2
176
1
 62
7
176
1
 90
5
176
1
 90
0
176
1
 90
0
176
1
290
0
176
1
 90
1
176
1
 40
0.0
176
1
 90
0
176
1
290
0
176
1
290
1
176
1
290
1
176
1
290
0
176
1
290
0
176
1
290
0
176
1
290
0
176
1
290
0
176
1
290
0
176
1
 90
50
176
1
 40
0.0
176
1
 40
1.0
176
1
 90
0
176
1
 62
18
420
0
176
1
 90
50
176
1
 90
3
176
1
 62
5
420
255
176
1
290
0
176
1
 90
50
176
1
 90
50
176
1
 90
50
176
1
290
0
176
1
 90
50
176
1
 62
256
176
0
 40
1.0
176
0
 90
2
176
1
  1
strokes_ogs.tif
176
1
290
0
176
1
 40
1.0
176
1
 40
1.0
176
1
  0
VISUALSTYLE
  5
71
102
{ACAD_REACTORS
330
16
102
}
330
16
100
AcDbVisualStyle
  2
Wireframe
 70
5
177
3
291
0
 70
58
 90
2
176
1
 90
2
176
1
 90
0
176
1
 90
0
176
1
 40
0.6
176
1
 40
30.0
176
1
 62
7
420
16777215
176
1
 90
1
176
1
 90
4
176
1
 62
7
176
1
 62
257
176
1
 90
1
176
1
 90
1
176
1
 40
1.0
176
1
 90
8
176
1
 62
7
176
1
 40
1.0
176
1
 90
1
176
1
 90
6
176
1
 90
2
176
1
 62
7
176
1
 90
5
176
1
 90
0
176
1
 90
0
176
1
290
0
176
1
 90
1
176
1
 40
0.0
176
1
 90
0
176
1
290
0
176
1
290
1
176
1
290
1
176
1
290
0
176
1
290
0
176
1
290
0
176
1
290
0
176
1
290
0
176
1
290
0
176
1
 90
50
176
1
 40
0.0
176
1
 40
1.0
176
1
 90
0
176
1
 62
18
420
0
176
1
 90
50
176
1
 90
3
176
1
 62
5
420
255
176
1
290
0
176
1
 90
50
176
1
 90
50
176
1
 90
50
176
1
290
0
176
1
 90
50
176
1
 62
256
176
0
 40
1.0
176
0
 90
2
176
1
  1
strokes_ogs.tif
176
1
290
0
176
1
 40
1.0
176
1
 40
1.0
176
1
  0
VISUALSTYLE
  5
72
102
{ACAD_REACTORS
330
16
102
}
330
16
100
AcDbVisualStyle
  2
X-Ray
 70
25
177
3
291
0
 70
58
 90
2
176
1
 90
2
176
1
 90
0
176
1
 90
2
176
1
 40
0.5
176
1
 40
30.0
176
1
 62
7
420
16777215
176
1
 90
1
176
1
 90
4
176
1
 62
7
176
1
 62
257
176
1
 90
1
176
1
 90
1
176
1
 40
1.0
176
1
 90
8
176
1
 62
7
176
1
 40
1.0
176
1
 90
1
176
1
 90
6
176
1
 90
2
176
1
 62
7
176
1
 90
5
176
1
 90
0
176
1
 90
0
176
1
290
0
176
1
 90
1
176
1
 40
0.0
176
1
 90
0
176
1
290
0
176
1
290
1
176
1
290
1
176
1
290
0
176
1
290
0
176
1
290
0
176
1
290
0
176
1
290
0
176
1
290
0
176
1
 90
50
176
1
 40
0.0
176
1
 40
1.0
176
1
 90
0
176
1
 62
18
420
0
176
1
 90
50
176
1
 90
3
176
1
 62
5
420
255
176
1
290
0
176
1
 90
50
176
1
 90
50
176
1
 90
50
176
1
290
0
176
1
 90
50
176
1
 62
256
176
0
 40
1.0
176
0
 90
2
176
1
  1
strokes_ogs.tif
176
1
290
0
176
1
 40
1.0
176
1
 40
1.0
176
1
  0
DICTIONARYVAR
  5
A0
330
2D
100
DictionaryVariables
280
0
  1
1.4.4 @ 2026-09-06T21:00:53.546543+00:00
  0
ENDSEC
  0
EOF
