ISO-10303-21;
HEADER;
FILE_DESCRIPTION(('CV-LBP18-F30-015 — Travesaño de patas B_002A canal 71×38×3 (L=470)'),'2;1');
FILE_NAME('CV-LBP18-F30-015 — Travesaño de patas B_002A canal 71×38×3 (L=470)','2026-08-19T00:00:00',('ConveyOne SpA'),('ConveyOne SpA'),'ConveyOne CAD','step_export.mjs','');
FILE_SCHEMA(('CONFIG_CONTROL_DESIGN'));
ENDSEC;
DATA;
#2=CARTESIAN_POINT('',(185.5000,235.0000,-569.3000));
#3=VERTEX_POINT('',#2);
#4=CARTESIAN_POINT('',(185.5000,-235.0000,-569.3000));
#5=VERTEX_POINT('',#4);
#1=EDGE_CURVE('',#3,#5,*,.T.);
#6=ORIENTED_EDGE('',*,*,#1,.T.);
#8=CARTESIAN_POINT('',(185.5000,-235.0000,-572.3000));
#9=VERTEX_POINT('',#8);
#7=EDGE_CURVE('',#5,#9,*,.T.);
#10=ORIENTED_EDGE('',*,*,#7,.T.);
#12=CARTESIAN_POINT('',(185.5000,-235.0000,-607.3000));
#13=VERTEX_POINT('',#12);
#11=EDGE_CURVE('',#9,#13,*,.T.);
#14=ORIENTED_EDGE('',*,*,#11,.T.);
#16=CARTESIAN_POINT('',(185.5000,235.0000,-607.3000));
#17=VERTEX_POINT('',#16);
#15=EDGE_CURVE('',#13,#17,*,.T.);
#18=ORIENTED_EDGE('',*,*,#15,.T.);
#20=CARTESIAN_POINT('',(185.5000,235.0000,-572.3000));
#21=VERTEX_POINT('',#20);
#19=EDGE_CURVE('',#17,#21,*,.T.);
#22=ORIENTED_EDGE('',*,*,#19,.T.);
#23=EDGE_CURVE('',#21,#3,*,.T.);
#24=ORIENTED_EDGE('',*,*,#23,.T.);
#25=EDGE_LOOP('',(#6,#10,#14,#18,#22,#24));
#26=FACE_OUTER_BOUND('',#25,.T.);
#27=DIRECTION('',(1.000000,0.000000,0.000000));
#28=DIRECTION('',(0.000000,-1.000000,0.000000));
#29=AXIS2_PLACEMENT_3D('',#2,#27,#28);
#30=PLANE('',#29);
#31=ADVANCED_FACE('',(#26),#30,.T.);
#33=CARTESIAN_POINT('',(114.5000,235.0000,-569.3000));
#34=VERTEX_POINT('',#33);
#35=CARTESIAN_POINT('',(114.5000,235.0000,-572.3000));
#36=VERTEX_POINT('',#35);
#32=EDGE_CURVE('',#34,#36,*,.T.);
#37=ORIENTED_EDGE('',*,*,#32,.T.);
#39=CARTESIAN_POINT('',(114.5000,235.0000,-607.3000));
#40=VERTEX_POINT('',#39);
#38=EDGE_CURVE('',#36,#40,*,.T.);
#41=ORIENTED_EDGE('',*,*,#38,.T.);
#43=CARTESIAN_POINT('',(114.5000,-235.0000,-607.3000));
#44=VERTEX_POINT('',#43);
#42=EDGE_CURVE('',#40,#44,*,.T.);
#45=ORIENTED_EDGE('',*,*,#42,.T.);
#47=CARTESIAN_POINT('',(114.5000,-235.0000,-572.3000));
#48=VERTEX_POINT('',#47);
#46=EDGE_CURVE('',#44,#48,*,.T.);
#49=ORIENTED_EDGE('',*,*,#46,.T.);
#51=CARTESIAN_POINT('',(114.5000,-235.0000,-569.3000));
#52=VERTEX_POINT('',#51);
#50=EDGE_CURVE('',#48,#52,*,.T.);
#53=ORIENTED_EDGE('',*,*,#50,.T.);
#54=EDGE_CURVE('',#52,#34,*,.T.);
#55=ORIENTED_EDGE('',*,*,#54,.T.);
#56=EDGE_LOOP('',(#37,#41,#45,#49,#53,#55));
#57=FACE_OUTER_BOUND('',#56,.T.);
#58=DIRECTION('',(-1.000000,0.000000,0.000000));
#59=DIRECTION('',(0.000000,0.000000,-1.000000));
#60=AXIS2_PLACEMENT_3D('',#33,#58,#59);
#61=PLANE('',#60);
#62=ADVANCED_FACE('',(#57),#61,.T.);
#63=ORIENTED_EDGE('',*,*,#32,.T.);
#64=EDGE_CURVE('',#34,#3,*,.T.);
#65=ORIENTED_EDGE('',*,*,#64,.T.);
#66=ORIENTED_EDGE('',*,*,#23,.T.);
#67=EDGE_CURVE('',#21,#36,*,.T.);
#68=ORIENTED_EDGE('',*,*,#67,.T.);
#69=EDGE_LOOP('',(#63,#65,#66,#68));
#70=FACE_OUTER_BOUND('',#69,.T.);
#71=ORIENTED_EDGE('',*,*,#38,.T.);
#73=CARTESIAN_POINT('',(117.5000,235.0000,-572.3000));
#74=VERTEX_POINT('',#73);
#72=EDGE_CURVE('',#36,#74,*,.T.);
#75=ORIENTED_EDGE('',*,*,#72,.T.);
#77=CARTESIAN_POINT('',(117.5000,235.0000,-607.3000));
#78=VERTEX_POINT('',#77);
#76=EDGE_CURVE('',#74,#78,*,.T.);
#79=ORIENTED_EDGE('',*,*,#76,.T.);
#80=EDGE_CURVE('',#78,#40,*,.T.);
#81=ORIENTED_EDGE('',*,*,#80,.T.);
#82=EDGE_LOOP('',(#71,#75,#79,#81));
#83=FACE_BOUND('',#82,.T.);
#85=CARTESIAN_POINT('',(182.5000,235.0000,-607.3000));
#86=VERTEX_POINT('',#85);
#87=CARTESIAN_POINT('',(182.5000,235.0000,-572.3000));
#88=VERTEX_POINT('',#87);
#84=EDGE_CURVE('',#86,#88,*,.T.);
#89=ORIENTED_EDGE('',*,*,#84,.T.);
#90=EDGE_CURVE('',#88,#21,*,.T.);
#91=ORIENTED_EDGE('',*,*,#90,.T.);
#92=ORIENTED_EDGE('',*,*,#19,.T.);
#93=EDGE_CURVE('',#17,#86,*,.T.);
#94=ORIENTED_EDGE('',*,*,#93,.T.);
#95=EDGE_LOOP('',(#89,#91,#92,#94));
#96=FACE_BOUND('',#95,.T.);
#97=DIRECTION('',(0.000000,1.000000,0.000000));
#98=DIRECTION('',(0.000000,0.000000,1.000000));
#99=AXIS2_PLACEMENT_3D('',#35,#97,#98);
#100=PLANE('',#99);
#101=ADVANCED_FACE('',(#70,#83,#96),#100,.T.);
#102=ORIENTED_EDGE('',*,*,#50,.T.);
#103=EDGE_CURVE('',#48,#9,*,.T.);
#104=ORIENTED_EDGE('',*,*,#103,.T.);
#105=ORIENTED_EDGE('',*,*,#7,.T.);
#106=EDGE_CURVE('',#5,#52,*,.T.);
#107=ORIENTED_EDGE('',*,*,#106,.T.);
#108=EDGE_LOOP('',(#102,#104,#105,#107));
#109=FACE_OUTER_BOUND('',#108,.T.);
#110=ORIENTED_EDGE('',*,*,#46,.T.);
#112=CARTESIAN_POINT('',(117.5000,-235.0000,-607.3000));
#113=VERTEX_POINT('',#112);
#111=EDGE_CURVE('',#44,#113,*,.T.);
#114=ORIENTED_EDGE('',*,*,#111,.T.);
#116=CARTESIAN_POINT('',(117.5000,-235.0000,-572.3000));
#117=VERTEX_POINT('',#116);
#115=EDGE_CURVE('',#113,#117,*,.T.);
#118=ORIENTED_EDGE('',*,*,#115,.T.);
#119=EDGE_CURVE('',#117,#48,*,.T.);
#120=ORIENTED_EDGE('',*,*,#119,.T.);
#121=EDGE_LOOP('',(#110,#114,#118,#120));
#122=FACE_BOUND('',#121,.T.);
#124=CARTESIAN_POINT('',(182.5000,-235.0000,-572.3000));
#125=VERTEX_POINT('',#124);
#126=CARTESIAN_POINT('',(182.5000,-235.0000,-607.3000));
#127=VERTEX_POINT('',#126);
#123=EDGE_CURVE('',#125,#127,*,.T.);
#128=ORIENTED_EDGE('',*,*,#123,.T.);
#129=EDGE_CURVE('',#127,#13,*,.T.);
#130=ORIENTED_EDGE('',*,*,#129,.T.);
#131=ORIENTED_EDGE('',*,*,#11,.T.);
#132=EDGE_CURVE('',#9,#125,*,.T.);
#133=ORIENTED_EDGE('',*,*,#132,.T.);
#134=EDGE_LOOP('',(#128,#130,#131,#133));
#135=FACE_BOUND('',#134,.T.);
#136=DIRECTION('',(0.000000,-1.000000,0.000000));
#137=DIRECTION('',(0.000000,0.000000,-1.000000));
#138=AXIS2_PLACEMENT_3D('',#51,#136,#137);
#139=PLANE('',#138);
#140=ADVANCED_FACE('',(#109,#122,#135),#139,.T.);
#141=ORIENTED_EDGE('',*,*,#54,.T.);
#142=ORIENTED_EDGE('',*,*,#106,.T.);
#143=ORIENTED_EDGE('',*,*,#1,.T.);
#144=ORIENTED_EDGE('',*,*,#64,.T.);
#145=EDGE_LOOP('',(#141,#142,#143,#144));
#146=FACE_OUTER_BOUND('',#145,.T.);
#148=CARTESIAN_POINT('',(144.5000,-235.0000,-569.3000));
#149=VERTEX_POINT('',#148);
#150=CARTESIAN_POINT('',(144.5000,-238.0000,-569.3000));
#151=VERTEX_POINT('',#150);
#147=EDGE_CURVE('',#149,#151,*,.T.);
#152=ORIENTED_EDGE('',*,*,#147,.T.);
#154=CARTESIAN_POINT('',(155.5000,-238.0000,-569.3000));
#155=VERTEX_POINT('',#154);
#153=EDGE_CURVE('',#151,#155,*,.T.);
#156=ORIENTED_EDGE('',*,*,#153,.T.);
#158=CARTESIAN_POINT('',(155.5000,-235.0000,-569.3000));
#159=VERTEX_POINT('',#158);
#157=EDGE_CURVE('',#155,#159,*,.T.);
#160=ORIENTED_EDGE('',*,*,#157,.T.);
#161=EDGE_CURVE('',#159,#149,*,.T.);
#162=ORIENTED_EDGE('',*,*,#161,.T.);
#163=EDGE_LOOP('',(#152,#156,#160,#162));
#164=FACE_BOUND('',#163,.T.);
#166=CARTESIAN_POINT('',(144.5000,238.0000,-569.3000));
#167=VERTEX_POINT('',#166);
#168=CARTESIAN_POINT('',(144.5000,235.0000,-569.3000));
#169=VERTEX_POINT('',#168);
#165=EDGE_CURVE('',#167,#169,*,.T.);
#170=ORIENTED_EDGE('',*,*,#165,.T.);
#172=CARTESIAN_POINT('',(155.5000,235.0000,-569.3000));
#173=VERTEX_POINT('',#172);
#171=EDGE_CURVE('',#169,#173,*,.T.);
#174=ORIENTED_EDGE('',*,*,#171,.T.);
#176=CARTESIAN_POINT('',(155.5000,238.0000,-569.3000));
#177=VERTEX_POINT('',#176);
#175=EDGE_CURVE('',#173,#177,*,.T.);
#178=ORIENTED_EDGE('',*,*,#175,.T.);
#179=EDGE_CURVE('',#177,#167,*,.T.);
#180=ORIENTED_EDGE('',*,*,#179,.T.);
#181=EDGE_LOOP('',(#170,#174,#178,#180));
#182=FACE_BOUND('',#181,.T.);
#183=DIRECTION('',(0.000000,0.000000,1.000000));
#184=DIRECTION('',(0.000000,-1.000000,0.000000));
#185=AXIS2_PLACEMENT_3D('',#33,#183,#184);
#186=PLANE('',#185);
#187=ADVANCED_FACE('',(#146,#164,#182),#186,.T.);
#188=EDGE_CURVE('',#21,#9,*,.T.);
#189=ORIENTED_EDGE('',*,*,#188,.T.);
#190=ORIENTED_EDGE('',*,*,#103,.T.);
#191=EDGE_CURVE('',#48,#36,*,.T.);
#192=ORIENTED_EDGE('',*,*,#191,.T.);
#193=ORIENTED_EDGE('',*,*,#67,.T.);
#194=EDGE_LOOP('',(#189,#190,#192,#193));
#195=FACE_OUTER_BOUND('',#194,.T.);
#197=CARTESIAN_POINT('',(155.5000,-235.0000,-572.3000));
#198=VERTEX_POINT('',#197);
#199=CARTESIAN_POINT('',(155.5000,-238.0000,-572.3000));
#200=VERTEX_POINT('',#199);
#196=EDGE_CURVE('',#198,#200,*,.T.);
#201=ORIENTED_EDGE('',*,*,#196,.T.);
#203=CARTESIAN_POINT('',(144.5000,-238.0000,-572.3000));
#204=VERTEX_POINT('',#203);
#202=EDGE_CURVE('',#200,#204,*,.T.);
#205=ORIENTED_EDGE('',*,*,#202,.T.);
#207=CARTESIAN_POINT('',(144.5000,-235.0000,-572.3000));
#208=VERTEX_POINT('',#207);
#206=EDGE_CURVE('',#204,#208,*,.T.);
#209=ORIENTED_EDGE('',*,*,#206,.T.);
#210=EDGE_CURVE('',#208,#198,*,.T.);
#211=ORIENTED_EDGE('',*,*,#210,.T.);
#212=EDGE_LOOP('',(#201,#205,#209,#211));
#213=FACE_BOUND('',#212,.T.);
#215=CARTESIAN_POINT('',(155.5000,238.0000,-572.3000));
#216=VERTEX_POINT('',#215);
#217=CARTESIAN_POINT('',(155.5000,235.0000,-572.3000));
#218=VERTEX_POINT('',#217);
#214=EDGE_CURVE('',#216,#218,*,.T.);
#219=ORIENTED_EDGE('',*,*,#214,.T.);
#221=CARTESIAN_POINT('',(144.5000,235.0000,-572.3000));
#222=VERTEX_POINT('',#221);
#220=EDGE_CURVE('',#218,#222,*,.T.);
#223=ORIENTED_EDGE('',*,*,#220,.T.);
#225=CARTESIAN_POINT('',(144.5000,238.0000,-572.3000));
#226=VERTEX_POINT('',#225);
#224=EDGE_CURVE('',#222,#226,*,.T.);
#227=ORIENTED_EDGE('',*,*,#224,.T.);
#228=EDGE_CURVE('',#226,#216,*,.T.);
#229=ORIENTED_EDGE('',*,*,#228,.T.);
#230=EDGE_LOOP('',(#219,#223,#227,#229));
#231=FACE_BOUND('',#230,.T.);
#232=DIRECTION('',(0.000000,0.000000,-1.000000));
#233=DIRECTION('',(0.000000,-1.000000,0.000000));
#234=AXIS2_PLACEMENT_3D('',#20,#232,#233);
#235=PLANE('',#234);
#236=ADVANCED_FACE('',(#195,#213,#231),#235,.T.);
#237=EDGE_CURVE('',#74,#117,*,.T.);
#238=ORIENTED_EDGE('',*,*,#237,.T.);
#239=ORIENTED_EDGE('',*,*,#115,.T.);
#240=EDGE_CURVE('',#113,#78,*,.T.);
#241=ORIENTED_EDGE('',*,*,#240,.T.);
#242=ORIENTED_EDGE('',*,*,#76,.T.);
#243=EDGE_LOOP('',(#238,#239,#241,#242));
#244=FACE_OUTER_BOUND('',#243,.T.);
#245=DIRECTION('',(1.000000,0.000000,0.000000));
#246=DIRECTION('',(0.000000,-1.000000,0.000000));
#247=AXIS2_PLACEMENT_3D('',#73,#245,#246);
#248=PLANE('',#247);
#249=ADVANCED_FACE('',(#244),#248,.T.);
#250=ORIENTED_EDGE('',*,*,#191,.T.);
#251=ORIENTED_EDGE('',*,*,#119,.T.);
#252=ORIENTED_EDGE('',*,*,#237,.T.);
#253=ORIENTED_EDGE('',*,*,#72,.T.);
#254=EDGE_LOOP('',(#250,#251,#252,#253));
#255=FACE_OUTER_BOUND('',#254,.T.);
#256=EDGE_CURVE('',#88,#125,*,.T.);
#257=ORIENTED_EDGE('',*,*,#256,.T.);
#258=ORIENTED_EDGE('',*,*,#132,.T.);
#259=ORIENTED_EDGE('',*,*,#188,.T.);
#260=ORIENTED_EDGE('',*,*,#90,.T.);
#261=EDGE_LOOP('',(#257,#258,#259,#260));
#262=FACE_BOUND('',#261,.T.);
#263=DIRECTION('',(0.000000,0.000000,1.000000));
#264=DIRECTION('',(0.000000,-1.000000,0.000000));
#265=AXIS2_PLACEMENT_3D('',#35,#263,#264);
#266=PLANE('',#265);
#267=ADVANCED_FACE('',(#255,#262),#266,.T.);
#268=ORIENTED_EDGE('',*,*,#240,.T.);
#269=ORIENTED_EDGE('',*,*,#111,.T.);
#270=ORIENTED_EDGE('',*,*,#42,.T.);
#271=ORIENTED_EDGE('',*,*,#80,.T.);
#272=EDGE_LOOP('',(#268,#269,#270,#271));
#273=FACE_OUTER_BOUND('',#272,.T.);
#274=ORIENTED_EDGE('',*,*,#15,.T.);
#275=ORIENTED_EDGE('',*,*,#129,.T.);
#276=EDGE_CURVE('',#127,#86,*,.T.);
#277=ORIENTED_EDGE('',*,*,#276,.T.);
#278=ORIENTED_EDGE('',*,*,#93,.T.);
#279=EDGE_LOOP('',(#274,#275,#277,#278));
#280=FACE_BOUND('',#279,.T.);
#281=DIRECTION('',(0.000000,0.000000,-1.000000));
#282=DIRECTION('',(0.000000,-1.000000,0.000000));
#283=AXIS2_PLACEMENT_3D('',#77,#281,#282);
#284=PLANE('',#283);
#285=ADVANCED_FACE('',(#273,#280),#284,.T.);
#286=ORIENTED_EDGE('',*,*,#276,.T.);
#287=ORIENTED_EDGE('',*,*,#123,.T.);
#288=ORIENTED_EDGE('',*,*,#256,.T.);
#289=ORIENTED_EDGE('',*,*,#84,.T.);
#290=EDGE_LOOP('',(#286,#287,#288,#289));
#291=FACE_OUTER_BOUND('',#290,.T.);
#292=DIRECTION('',(-1.000000,0.000000,0.000000));
#293=DIRECTION('',(0.000000,-1.000000,0.000000));
#294=AXIS2_PLACEMENT_3D('',#85,#292,#293);
#295=PLANE('',#294);
#296=ADVANCED_FACE('',(#291),#295,.T.);
#297=ORIENTED_EDGE('',*,*,#157,.T.);
#298=EDGE_CURVE('',#155,#200,*,.T.);
#299=ORIENTED_EDGE('',*,*,#298,.T.);
#300=ORIENTED_EDGE('',*,*,#196,.T.);
#301=EDGE_CURVE('',#198,#159,*,.T.);
#302=ORIENTED_EDGE('',*,*,#301,.T.);
#303=EDGE_LOOP('',(#297,#299,#300,#302));
#304=FACE_OUTER_BOUND('',#303,.T.);
#305=ORIENTED_EDGE('',*,*,#175,.T.);
#306=EDGE_CURVE('',#173,#218,*,.T.);
#307=ORIENTED_EDGE('',*,*,#306,.T.);
#308=ORIENTED_EDGE('',*,*,#214,.T.);
#309=EDGE_CURVE('',#216,#177,*,.T.);
#310=ORIENTED_EDGE('',*,*,#309,.T.);
#311=EDGE_LOOP('',(#305,#307,#308,#310));
#312=FACE_BOUND('',#311,.T.);
#313=DIRECTION('',(1.000000,0.000000,0.000000));
#314=DIRECTION('',(0.000000,-1.000000,0.000000));
#315=AXIS2_PLACEMENT_3D('',#158,#313,#314);
#316=PLANE('',#315);
#317=ADVANCED_FACE('',(#304,#312),#316,.T.);
#318=ORIENTED_EDGE('',*,*,#206,.T.);
#319=EDGE_CURVE('',#204,#151,*,.T.);
#320=ORIENTED_EDGE('',*,*,#319,.T.);
#321=ORIENTED_EDGE('',*,*,#147,.T.);
#322=EDGE_CURVE('',#149,#208,*,.T.);
#323=ORIENTED_EDGE('',*,*,#322,.T.);
#324=EDGE_LOOP('',(#318,#320,#321,#323));
#325=FACE_OUTER_BOUND('',#324,.T.);
#326=ORIENTED_EDGE('',*,*,#224,.T.);
#327=EDGE_CURVE('',#222,#169,*,.T.);
#328=ORIENTED_EDGE('',*,*,#327,.T.);
#329=ORIENTED_EDGE('',*,*,#165,.T.);
#330=EDGE_CURVE('',#167,#226,*,.T.);
#331=ORIENTED_EDGE('',*,*,#330,.T.);
#332=EDGE_LOOP('',(#326,#328,#329,#331));
#333=FACE_BOUND('',#332,.T.);
#334=DIRECTION('',(-1.000000,0.000000,0.000000));
#335=DIRECTION('',(0.000000,-1.000000,0.000000));
#336=AXIS2_PLACEMENT_3D('',#207,#334,#335);
#337=PLANE('',#336);
#338=ADVANCED_FACE('',(#325,#333),#337,.T.);
#339=ORIENTED_EDGE('',*,*,#322,.T.);
#340=ORIENTED_EDGE('',*,*,#161,.T.);
#341=ORIENTED_EDGE('',*,*,#301,.T.);
#342=ORIENTED_EDGE('',*,*,#210,.T.);
#343=EDGE_LOOP('',(#339,#340,#341,#342));
#344=FACE_OUTER_BOUND('',#343,.T.);
#345=DIRECTION('',(0.000000,1.000000,0.000000));
#346=DIRECTION('',(0.000000,0.000000,1.000000));
#347=AXIS2_PLACEMENT_3D('',#207,#345,#346);
#348=PLANE('',#347);
#349=ADVANCED_FACE('',(#344),#348,.T.);
#350=ORIENTED_EDGE('',*,*,#319,.T.);
#351=ORIENTED_EDGE('',*,*,#202,.T.);
#352=ORIENTED_EDGE('',*,*,#298,.T.);
#353=ORIENTED_EDGE('',*,*,#153,.T.);
#354=EDGE_LOOP('',(#350,#351,#352,#353));
#355=FACE_OUTER_BOUND('',#354,.T.);
#356=DIRECTION('',(0.000000,-1.000000,0.000000));
#357=DIRECTION('',(0.000000,0.000000,-1.000000));
#358=AXIS2_PLACEMENT_3D('',#150,#356,#357);
#359=PLANE('',#358);
#360=ADVANCED_FACE('',(#355),#359,.T.);
#361=ORIENTED_EDGE('',*,*,#330,.T.);
#362=ORIENTED_EDGE('',*,*,#179,.T.);
#363=ORIENTED_EDGE('',*,*,#309,.T.);
#364=ORIENTED_EDGE('',*,*,#228,.T.);
#365=EDGE_LOOP('',(#361,#362,#363,#364));
#366=FACE_OUTER_BOUND('',#365,.T.);
#367=DIRECTION('',(0.000000,1.000000,0.000000));
#368=DIRECTION('',(0.000000,0.000000,1.000000));
#369=AXIS2_PLACEMENT_3D('',#225,#367,#368);
#370=PLANE('',#369);
#371=ADVANCED_FACE('',(#366),#370,.T.);
#372=ORIENTED_EDGE('',*,*,#327,.T.);
#373=ORIENTED_EDGE('',*,*,#220,.T.);
#374=ORIENTED_EDGE('',*,*,#306,.T.);
#375=ORIENTED_EDGE('',*,*,#171,.T.);
#376=EDGE_LOOP('',(#372,#373,#374,#375));
#377=FACE_OUTER_BOUND('',#376,.T.);
#378=DIRECTION('',(0.000000,-1.000000,0.000000));
#379=DIRECTION('',(0.000000,0.000000,-1.000000));
#380=AXIS2_PLACEMENT_3D('',#168,#378,#379);
#381=PLANE('',#380);
#382=ADVANCED_FACE('',(#377),#381,.T.);
#383=CLOSED_SHELL('',(#31,#62,#101,#140,#187,#236,#249,#267,#285,#296,#317,#338,#349,#360,#371,#382));
#384=MANIFOLD_SOLID_BREP('CV-LBP18-F30-015 — Travesaño de patas B_002A canal 71×38×3 (L=470)',#383);
#385=DIRECTION('',(0.,0.,1.));
#386=DIRECTION('',(1.,0.,0.));
#388=CARTESIAN_POINT('',(0.0000,0.0000,0.0000));
#387=AXIS2_PLACEMENT_3D('',#388,#385,#386);
#389=( LENGTH_UNIT() NAMED_UNIT(*) SI_UNIT(.MILLI.,.METRE.) );
#390=( NAMED_UNIT(*) PLANE_ANGLE_UNIT() SI_UNIT($,.RADIAN.) );
#391=( NAMED_UNIT(*) SI_UNIT($,.STERADIAN.) SOLID_ANGLE_UNIT() );
#392=UNCERTAINTY_MEASURE_WITH_UNIT(LENGTH_MEASURE(0.01),#389,'distance_accuracy_value','');
#393=( GEOMETRIC_REPRESENTATION_CONTEXT(3) GLOBAL_UNCERTAINTY_ASSIGNED_CONTEXT((#392)) GLOBAL_UNIT_ASSIGNED_CONTEXT((#389,#390,#391)) REPRESENTATION_CONTEXT('','3D') );
#394=ADVANCED_BREP_SHAPE_REPRESENTATION('CV-LBP18-F30-015 — Travesaño de patas B_002A canal 71×38×3 (L=470)',(#387,#384),#393);
ENDSEC;
END-ISO-10303-21;
