ISO-10303-21;
HEADER;
FILE_DESCRIPTION(('CV-LBP18-F60-054 — Tira telescópica BR_3002 84×38×3 (10 ranuras 11×20)'),'2;1');
FILE_NAME('CV-LBP18-F60-054 — Tira telescópica BR_3002 84×38×3 (10 ranuras 11×20)','2026-08-19T00:00:00',('ConveyOne SpA'),('ConveyOne SpA'),'ConveyOne CAD','step_export.mjs','');
FILE_SCHEMA(('CONFIG_CONTROL_DESIGN'));
ENDSEC;
DATA;
#2=DIRECTION('',(0.000000,0.000000,-1.000000));
#1=VECTOR('',#2,369.000000);
#4=CARTESIAN_POINT('',(192.0000,-241.0000,-527.0000));
#3=LINE('',#4,#1);
#6=VERTEX_POINT('',#4);
#7=CARTESIAN_POINT('',(192.0000,-241.0000,-896.0000));
#8=VERTEX_POINT('',#7);
#5=EDGE_CURVE('',#6,#8,#3,.T.);
#10=DIRECTION('',(0.000000,1.000000,0.000000));
#9=VECTOR('',#10,38.000000);
#11=LINE('',#7,#9);
#13=CARTESIAN_POINT('',(192.0000,-203.0000,-896.0000));
#14=VERTEX_POINT('',#13);
#12=EDGE_CURVE('',#8,#14,#11,.T.);
#16=DIRECTION('',(0.000000,0.000000,1.000000));
#15=VECTOR('',#16,369.000000);
#17=LINE('',#13,#15);
#19=CARTESIAN_POINT('',(192.0000,-203.0000,-527.0000));
#20=VERTEX_POINT('',#19);
#18=EDGE_CURVE('',#14,#20,#17,.T.);
#22=DIRECTION('',(0.000000,-1.000000,0.000000));
#21=VECTOR('',#22,38.000000);
#23=LINE('',#19,#21);
#24=EDGE_CURVE('',#20,#6,#23,.T.);
#25=ORIENTED_EDGE('',*,*,#5,.T.);
#26=ORIENTED_EDGE('',*,*,#12,.T.);
#27=ORIENTED_EDGE('',*,*,#18,.T.);
#28=ORIENTED_EDGE('',*,*,#24,.T.);
#29=EDGE_LOOP('',(#25,#26,#27,#28));
#30=FACE_OUTER_BOUND('',#29,.T.);
#33=CARTESIAN_POINT('',(192.0000,-238.0000,-527.0000));
#34=DIRECTION('',(1.000000,0.000000,0.000000));
#35=DIRECTION('',(0.000000,0.000000,-1.000000));
#32=AXIS2_PLACEMENT_3D('',#33,#34,#35);
#31=PLANE('',#32);
#36=ADVANCED_FACE('',(#30),#31,.T.);
#38=DIRECTION('',(0.000000,0.000000,1.000000));
#37=VECTOR('',#38,28.000000);
#40=CARTESIAN_POINT('',(108.0000,-240.5000,-896.0000));
#39=LINE('',#40,#37);
#42=VERTEX_POINT('',#40);
#43=CARTESIAN_POINT('',(108.0000,-240.5000,-868.0000));
#44=VERTEX_POINT('',#43);
#41=EDGE_CURVE('',#42,#44,#39,.T.);
#46=DIRECTION('',(0.000000,-1.000000,0.000000));
#45=VECTOR('',#46,0.500000);
#47=LINE('',#40,#45);
#49=CARTESIAN_POINT('',(108.0000,-241.0000,-896.0000));
#50=VERTEX_POINT('',#49);
#48=EDGE_CURVE('',#42,#50,#47,.T.);
#52=DIRECTION('',(0.000000,0.000000,1.000000));
#51=VECTOR('',#52,369.000000);
#53=LINE('',#49,#51);
#55=CARTESIAN_POINT('',(108.0000,-241.0000,-527.0000));
#56=VERTEX_POINT('',#55);
#54=EDGE_CURVE('',#50,#56,#53,.T.);
#58=DIRECTION('',(0.000000,1.000000,0.000000));
#57=VECTOR('',#58,0.500000);
#59=LINE('',#55,#57);
#61=CARTESIAN_POINT('',(108.0000,-240.5000,-527.0000));
#62=VERTEX_POINT('',#61);
#60=EDGE_CURVE('',#56,#62,#59,.T.);
#64=DIRECTION('',(0.000000,0.000000,-1.000000));
#63=VECTOR('',#64,307.500000);
#65=LINE('',#61,#63);
#67=CARTESIAN_POINT('',(108.0000,-240.5000,-834.5000));
#68=VERTEX_POINT('',#67);
#66=EDGE_CURVE('',#62,#68,#65,.T.);
#70=DIRECTION('',(0.000000,1.000000,0.000000));
#69=VECTOR('',#70,37.500000);
#71=LINE('',#61,#69);
#73=CARTESIAN_POINT('',(108.0000,-203.0000,-527.0000));
#74=VERTEX_POINT('',#73);
#72=EDGE_CURVE('',#62,#74,#71,.T.);
#76=DIRECTION('',(0.000000,0.000000,-1.000000));
#75=VECTOR('',#76,369.000000);
#77=LINE('',#73,#75);
#79=CARTESIAN_POINT('',(108.0000,-203.0000,-896.0000));
#80=VERTEX_POINT('',#79);
#78=EDGE_CURVE('',#74,#80,#77,.T.);
#82=DIRECTION('',(0.000000,-1.000000,0.000000));
#81=VECTOR('',#82,37.500000);
#83=LINE('',#79,#81);
#84=EDGE_CURVE('',#80,#42,#83,.T.);
#85=ORIENTED_EDGE('',*,*,#41,.T.);
#86=ORIENTED_EDGE('',*,*,#41,.F.);
#87=ORIENTED_EDGE('',*,*,#48,.T.);
#88=ORIENTED_EDGE('',*,*,#54,.T.);
#89=ORIENTED_EDGE('',*,*,#60,.T.);
#90=ORIENTED_EDGE('',*,*,#66,.T.);
#91=ORIENTED_EDGE('',*,*,#66,.F.);
#92=ORIENTED_EDGE('',*,*,#72,.T.);
#93=ORIENTED_EDGE('',*,*,#78,.T.);
#94=ORIENTED_EDGE('',*,*,#84,.T.);
#95=EDGE_LOOP('',(#85,#86,#87,#88,#89,#90,#91,#92,#93,#94));
#96=FACE_OUTER_BOUND('',#95,.T.);
#99=CARTESIAN_POINT('',(108.0000,-238.0000,-896.0000));
#100=DIRECTION('',(-1.000000,0.000000,0.000000));
#101=DIRECTION('',(0.000000,0.000000,1.000000));
#98=AXIS2_PLACEMENT_3D('',#99,#100,#101);
#97=PLANE('',#98);
#102=ADVANCED_FACE('',(#96),#97,.T.);
#104=DIRECTION('',(-1.000000,0.000000,0.000000));
#103=VECTOR('',#104,78.000000);
#106=CARTESIAN_POINT('',(189.0000,-238.0000,-896.0000));
#105=LINE('',#106,#103);
#108=VERTEX_POINT('',#106);
#109=CARTESIAN_POINT('',(111.0000,-238.0000,-896.0000));
#110=VERTEX_POINT('',#109);
#107=EDGE_CURVE('',#108,#110,#105,.T.);
#112=DIRECTION('',(0.000000,0.000000,1.000000));
#111=VECTOR('',#112,369.000000);
#113=LINE('',#109,#111);
#115=CARTESIAN_POINT('',(111.0000,-238.0000,-527.0000));
#116=VERTEX_POINT('',#115);
#114=EDGE_CURVE('',#110,#116,#113,.T.);
#118=DIRECTION('',(1.000000,0.000000,0.000000));
#117=VECTOR('',#118,78.000000);
#119=LINE('',#115,#117);
#121=CARTESIAN_POINT('',(189.0000,-238.0000,-527.0000));
#122=VERTEX_POINT('',#121);
#120=EDGE_CURVE('',#116,#122,#119,.T.);
#124=DIRECTION('',(0.000000,0.000000,-1.000000));
#123=VECTOR('',#124,369.000000);
#125=LINE('',#121,#123);
#126=EDGE_CURVE('',#122,#108,#125,.T.);
#127=ORIENTED_EDGE('',*,*,#107,.T.);
#128=ORIENTED_EDGE('',*,*,#114,.T.);
#129=ORIENTED_EDGE('',*,*,#120,.T.);
#130=ORIENTED_EDGE('',*,*,#126,.T.);
#131=EDGE_LOOP('',(#127,#128,#129,#130));
#132=FACE_OUTER_BOUND('',#131,.T.);
#135=CARTESIAN_POINT('',(189.0000,-238.0000,-882.8214));
#136=DIRECTION('',(0.000000,1.000000,0.000000));
#137=DIRECTION('',(-1.000000,0.000000,0.000000));
#134=AXIS2_PLACEMENT_3D('',#135,#136,#137);
#133=PLANE('',#134);
#138=ADVANCED_FACE('',(#132),#133,.T.);
#140=DIRECTION('',(0.000000,-1.000000,0.000000));
#139=VECTOR('',#140,35.000000);
#142=CARTESIAN_POINT('',(111.0000,-203.0000,-527.0000));
#141=LINE('',#142,#139);
#144=VERTEX_POINT('',#142);
#143=EDGE_CURVE('',#144,#116,#141,.T.);
#146=DIRECTION('',(0.000000,1.000000,0.000000));
#145=VECTOR('',#146,35.000000);
#147=LINE('',#109,#145);
#149=CARTESIAN_POINT('',(111.0000,-203.0000,-896.0000));
#150=VERTEX_POINT('',#149);
#148=EDGE_CURVE('',#110,#150,#147,.T.);
#152=DIRECTION('',(0.000000,0.000000,1.000000));
#151=VECTOR('',#152,369.000000);
#153=LINE('',#149,#151);
#154=EDGE_CURVE('',#150,#144,#153,.T.);
#155=ORIENTED_EDGE('',*,*,#143,.T.);
#156=ORIENTED_EDGE('',*,*,#114,.F.);
#157=ORIENTED_EDGE('',*,*,#148,.T.);
#158=ORIENTED_EDGE('',*,*,#154,.T.);
#159=EDGE_LOOP('',(#155,#156,#157,#158));
#160=FACE_OUTER_BOUND('',#159,.T.);
#163=DIRECTION('',(1.000000,0.000000,0.000000));
#164=DIRECTION('',(0.000000,-1.000000,0.000000));
#162=AXIS2_PLACEMENT_3D('',#142,#163,#164);
#161=PLANE('',#162);
#165=ADVANCED_FACE('',(#160),#161,.T.);
#167=DIRECTION('',(0.000000,-1.000000,0.000000));
#166=VECTOR('',#167,35.000000);
#169=CARTESIAN_POINT('',(189.0000,-203.0000,-896.0000));
#168=LINE('',#169,#166);
#171=VERTEX_POINT('',#169);
#170=EDGE_CURVE('',#171,#108,#168,.T.);
#173=DIRECTION('',(0.000000,1.000000,0.000000));
#172=VECTOR('',#173,35.000000);
#174=LINE('',#121,#172);
#176=CARTESIAN_POINT('',(189.0000,-203.0000,-527.0000));
#177=VERTEX_POINT('',#176);
#175=EDGE_CURVE('',#122,#177,#174,.T.);
#179=DIRECTION('',(0.000000,0.000000,-1.000000));
#178=VECTOR('',#179,369.000000);
#180=LINE('',#176,#178);
#181=EDGE_CURVE('',#177,#171,#180,.T.);
#182=ORIENTED_EDGE('',*,*,#170,.T.);
#183=ORIENTED_EDGE('',*,*,#126,.F.);
#184=ORIENTED_EDGE('',*,*,#175,.T.);
#185=ORIENTED_EDGE('',*,*,#181,.T.);
#186=EDGE_LOOP('',(#182,#183,#184,#185));
#187=FACE_OUTER_BOUND('',#186,.T.);
#190=DIRECTION('',(-1.000000,0.000000,0.000000));
#191=DIRECTION('',(0.000000,-1.000000,0.000000));
#189=AXIS2_PLACEMENT_3D('',#169,#190,#191);
#188=PLANE('',#189);
#192=ADVANCED_FACE('',(#187),#188,.T.);
#194=DIRECTION('',(1.000000,0.000000,0.000000));
#193=VECTOR('',#194,3.000000);
#195=LINE('',#176,#193);
#196=EDGE_CURVE('',#177,#20,#195,.T.);
#198=DIRECTION('',(-1.000000,0.000000,0.000000));
#197=VECTOR('',#198,3.000000);
#199=LINE('',#13,#197);
#200=EDGE_CURVE('',#14,#171,#199,.T.);
#201=ORIENTED_EDGE('',*,*,#181,.F.);
#202=ORIENTED_EDGE('',*,*,#196,.T.);
#203=ORIENTED_EDGE('',*,*,#18,.F.);
#204=ORIENTED_EDGE('',*,*,#200,.T.);
#205=EDGE_LOOP('',(#201,#202,#203,#204));
#206=FACE_OUTER_BOUND('',#205,.T.);
#208=DIRECTION('',(1.000000,0.000000,0.000000));
#207=VECTOR('',#208,3.000000);
#209=LINE('',#73,#207);
#210=EDGE_CURVE('',#74,#144,#209,.T.);
#212=DIRECTION('',(-1.000000,0.000000,0.000000));
#211=VECTOR('',#212,3.000000);
#213=LINE('',#149,#211);
#214=EDGE_CURVE('',#150,#80,#213,.T.);
#215=ORIENTED_EDGE('',*,*,#78,.F.);
#216=ORIENTED_EDGE('',*,*,#210,.T.);
#217=ORIENTED_EDGE('',*,*,#154,.F.);
#218=ORIENTED_EDGE('',*,*,#214,.T.);
#219=EDGE_LOOP('',(#215,#216,#217,#218));
#220=FACE_BOUND('',#219,.T.);
#223=DIRECTION('',(0.000000,1.000000,0.000000));
#224=DIRECTION('',(0.000000,0.000000,1.000000));
#222=AXIS2_PLACEMENT_3D('',#169,#223,#224);
#221=PLANE('',#222);
#225=ADVANCED_FACE('',(#206,#220),#221,.T.);
#227=DIRECTION('',(0.000000,-1.000000,0.000000));
#226=VECTOR('',#227,38.000000);
#228=LINE('',#73,#226);
#229=EDGE_CURVE('',#74,#56,#228,.T.);
#231=DIRECTION('',(1.000000,0.000000,0.000000));
#230=VECTOR('',#231,84.000000);
#232=LINE('',#55,#230);
#233=EDGE_CURVE('',#56,#6,#232,.T.);
#234=ORIENTED_EDGE('',*,*,#175,.F.);
#235=ORIENTED_EDGE('',*,*,#120,.F.);
#236=ORIENTED_EDGE('',*,*,#143,.F.);
#237=ORIENTED_EDGE('',*,*,#210,.F.);
#238=ORIENTED_EDGE('',*,*,#229,.T.);
#239=ORIENTED_EDGE('',*,*,#233,.T.);
#240=ORIENTED_EDGE('',*,*,#24,.F.);
#241=ORIENTED_EDGE('',*,*,#196,.F.);
#242=EDGE_LOOP('',(#234,#235,#236,#237,#238,#239,#240,#241));
#243=FACE_OUTER_BOUND('',#242,.T.);
#245=DIRECTION('',(1.000000,0.000000,0.000000));
#244=VECTOR('',#245,67.000000);
#247=CARTESIAN_POINT('',(122.0000,-240.5000,-527.0000));
#246=LINE('',#247,#244);
#249=VERTEX_POINT('',#247);
#250=CARTESIAN_POINT('',(189.0000,-240.5000,-527.0000));
#251=VERTEX_POINT('',#250);
#248=EDGE_CURVE('',#249,#251,#246,.T.);
#253=DIRECTION('',(-1.000000,0.000000,0.000000));
#252=VECTOR('',#253,33.500000);
#254=LINE('',#250,#252);
#256=CARTESIAN_POINT('',(155.5000,-240.5000,-527.0000));
#257=VERTEX_POINT('',#256);
#255=EDGE_CURVE('',#251,#257,#254,.T.);
#259=DIRECTION('',(-1.000000,0.000000,0.000000));
#258=VECTOR('',#259,11.000000);
#260=LINE('',#256,#258);
#262=CARTESIAN_POINT('',(144.5000,-240.5000,-527.0000));
#263=VERTEX_POINT('',#262);
#261=EDGE_CURVE('',#257,#263,#260,.T.);
#265=DIRECTION('',(-1.000000,0.000000,0.000000));
#264=VECTOR('',#265,22.500000);
#266=LINE('',#262,#264);
#267=EDGE_CURVE('',#263,#249,#266,.T.);
#268=ORIENTED_EDGE('',*,*,#248,.T.);
#269=ORIENTED_EDGE('',*,*,#255,.T.);
#270=ORIENTED_EDGE('',*,*,#261,.T.);
#271=ORIENTED_EDGE('',*,*,#267,.T.);
#272=EDGE_LOOP('',(#268,#269,#270,#271));
#273=FACE_BOUND('',#272,.T.);
#276=DIRECTION('',(0.000000,0.000000,1.000000));
#277=DIRECTION('',(0.000000,-1.000000,0.000000));
#275=AXIS2_PLACEMENT_3D('',#176,#276,#277);
#274=PLANE('',#275);
#278=ADVANCED_FACE('',(#243,#273),#274,.T.);
#280=DIRECTION('',(-1.000000,0.000000,0.000000));
#279=VECTOR('',#280,84.000000);
#281=LINE('',#7,#279);
#282=EDGE_CURVE('',#8,#50,#281,.T.);
#284=DIRECTION('',(0.000000,1.000000,0.000000));
#283=VECTOR('',#284,38.000000);
#285=LINE('',#49,#283);
#286=EDGE_CURVE('',#50,#80,#285,.T.);
#287=ORIENTED_EDGE('',*,*,#12,.F.);
#288=ORIENTED_EDGE('',*,*,#282,.T.);
#289=ORIENTED_EDGE('',*,*,#286,.T.);
#290=ORIENTED_EDGE('',*,*,#214,.F.);
#291=ORIENTED_EDGE('',*,*,#148,.F.);
#292=ORIENTED_EDGE('',*,*,#107,.F.);
#293=ORIENTED_EDGE('',*,*,#170,.F.);
#294=ORIENTED_EDGE('',*,*,#200,.F.);
#295=EDGE_LOOP('',(#287,#288,#289,#290,#291,#292,#293,#294));
#296=FACE_OUTER_BOUND('',#295,.T.);
#298=DIRECTION('',(-1.000000,0.000000,0.000000));
#297=VECTOR('',#298,67.000000);
#300=CARTESIAN_POINT('',(178.0000,-240.5000,-896.0000));
#299=LINE('',#300,#297);
#302=VERTEX_POINT('',#300);
#303=CARTESIAN_POINT('',(111.0000,-240.5000,-896.0000));
#304=VERTEX_POINT('',#303);
#301=EDGE_CURVE('',#302,#304,#299,.T.);
#306=DIRECTION('',(1.000000,0.000000,0.000000));
#305=VECTOR('',#306,44.500000);
#307=LINE('',#303,#305);
#309=CARTESIAN_POINT('',(155.5000,-240.5000,-896.0000));
#310=VERTEX_POINT('',#309);
#308=EDGE_CURVE('',#304,#310,#307,.T.);
#312=DIRECTION('',(1.000000,0.000000,0.000000));
#311=VECTOR('',#312,22.500000);
#313=LINE('',#309,#311);
#314=EDGE_CURVE('',#310,#302,#313,.T.);
#315=ORIENTED_EDGE('',*,*,#301,.T.);
#316=ORIENTED_EDGE('',*,*,#308,.T.);
#317=ORIENTED_EDGE('',*,*,#314,.T.);
#318=EDGE_LOOP('',(#315,#316,#317));
#319=FACE_BOUND('',#318,.T.);
#322=DIRECTION('',(0.000000,0.000000,-1.000000));
#323=DIRECTION('',(0.000000,-1.000000,0.000000));
#321=AXIS2_PLACEMENT_3D('',#13,#322,#323);
#320=PLANE('',#321);
#324=ADVANCED_FACE('',(#296,#319),#320,.T.);
#326=DIRECTION('',(0.000000,0.000000,-1.000000));
#325=VECTOR('',#326,341.000000);
#328=CARTESIAN_POINT('',(155.5000,-241.0000,-527.0000));
#327=LINE('',#328,#325);
#330=VERTEX_POINT('',#328);
#331=CARTESIAN_POINT('',(155.5000,-241.0000,-868.0000));
#332=VERTEX_POINT('',#331);
#329=EDGE_CURVE('',#330,#332,#327,.T.);
#334=DIRECTION('',(-1.000000,0.000000,0.000000));
#333=VECTOR('',#334,11.000000);
#335=LINE('',#331,#333);
#337=CARTESIAN_POINT('',(144.5000,-241.0000,-868.0000));
#338=VERTEX_POINT('',#337);
#336=EDGE_CURVE('',#332,#338,#335,.T.);
#340=DIRECTION('',(0.000000,0.000000,1.000000));
#339=VECTOR('',#340,20.000000);
#341=LINE('',#337,#339);
#343=CARTESIAN_POINT('',(144.5000,-241.0000,-848.0000));
#344=VERTEX_POINT('',#343);
#342=EDGE_CURVE('',#338,#344,#341,.T.);
#346=DIRECTION('',(1.000000,0.000000,0.000000));
#345=VECTOR('',#346,11.000000);
#347=LINE('',#343,#345);
#349=CARTESIAN_POINT('',(155.5000,-241.0000,-848.0000));
#350=VERTEX_POINT('',#349);
#348=EDGE_CURVE('',#344,#350,#347,.T.);
#352=DIRECTION('',(0.000000,0.000000,1.000000));
#351=VECTOR('',#352,14.000000);
#353=LINE('',#349,#351);
#355=CARTESIAN_POINT('',(155.5000,-241.0000,-834.0000));
#356=VERTEX_POINT('',#355);
#354=EDGE_CURVE('',#350,#356,#353,.T.);
#358=DIRECTION('',(-1.000000,0.000000,0.000000));
#357=VECTOR('',#358,11.000000);
#359=LINE('',#355,#357);
#361=CARTESIAN_POINT('',(144.5000,-241.0000,-834.0000));
#362=VERTEX_POINT('',#361);
#360=EDGE_CURVE('',#356,#362,#359,.T.);
#364=DIRECTION('',(0.000000,0.000000,1.000000));
#363=VECTOR('',#364,20.000000);
#365=LINE('',#361,#363);
#367=CARTESIAN_POINT('',(144.5000,-241.0000,-814.0000));
#368=VERTEX_POINT('',#367);
#366=EDGE_CURVE('',#362,#368,#365,.T.);
#370=DIRECTION('',(1.000000,0.000000,0.000000));
#369=VECTOR('',#370,11.000000);
#371=LINE('',#367,#369);
#373=CARTESIAN_POINT('',(155.5000,-241.0000,-814.0000));
#374=VERTEX_POINT('',#373);
#372=EDGE_CURVE('',#368,#374,#371,.T.);
#376=DIRECTION('',(0.000000,0.000000,1.000000));
#375=VECTOR('',#376,14.000000);
#377=LINE('',#373,#375);
#379=CARTESIAN_POINT('',(155.5000,-241.0000,-800.0000));
#380=VERTEX_POINT('',#379);
#378=EDGE_CURVE('',#374,#380,#377,.T.);
#382=DIRECTION('',(-1.000000,0.000000,0.000000));
#381=VECTOR('',#382,11.000000);
#383=LINE('',#379,#381);
#385=CARTESIAN_POINT('',(144.5000,-241.0000,-800.0000));
#386=VERTEX_POINT('',#385);
#384=EDGE_CURVE('',#380,#386,#383,.T.);
#388=DIRECTION('',(0.000000,0.000000,1.000000));
#387=VECTOR('',#388,20.000000);
#389=LINE('',#385,#387);
#391=CARTESIAN_POINT('',(144.5000,-241.0000,-780.0000));
#392=VERTEX_POINT('',#391);
#390=EDGE_CURVE('',#386,#392,#389,.T.);
#394=DIRECTION('',(1.000000,0.000000,0.000000));
#393=VECTOR('',#394,11.000000);
#395=LINE('',#391,#393);
#397=CARTESIAN_POINT('',(155.5000,-241.0000,-780.0000));
#398=VERTEX_POINT('',#397);
#396=EDGE_CURVE('',#392,#398,#395,.T.);
#400=DIRECTION('',(0.000000,0.000000,1.000000));
#399=VECTOR('',#400,14.000000);
#401=LINE('',#397,#399);
#403=CARTESIAN_POINT('',(155.5000,-241.0000,-766.0000));
#404=VERTEX_POINT('',#403);
#402=EDGE_CURVE('',#398,#404,#401,.T.);
#406=DIRECTION('',(-1.000000,0.000000,0.000000));
#405=VECTOR('',#406,11.000000);
#407=LINE('',#403,#405);
#409=CARTESIAN_POINT('',(144.5000,-241.0000,-766.0000));
#410=VERTEX_POINT('',#409);
#408=EDGE_CURVE('',#404,#410,#407,.T.);
#412=DIRECTION('',(0.000000,0.000000,1.000000));
#411=VECTOR('',#412,20.000000);
#413=LINE('',#409,#411);
#415=CARTESIAN_POINT('',(144.5000,-241.0000,-746.0000));
#416=VERTEX_POINT('',#415);
#414=EDGE_CURVE('',#410,#416,#413,.T.);
#418=DIRECTION('',(1.000000,0.000000,0.000000));
#417=VECTOR('',#418,11.000000);
#419=LINE('',#415,#417);
#421=CARTESIAN_POINT('',(155.5000,-241.0000,-746.0000));
#422=VERTEX_POINT('',#421);
#420=EDGE_CURVE('',#416,#422,#419,.T.);
#424=DIRECTION('',(0.000000,0.000000,1.000000));
#423=VECTOR('',#424,14.000000);
#425=LINE('',#421,#423);
#427=CARTESIAN_POINT('',(155.5000,-241.0000,-732.0000));
#428=VERTEX_POINT('',#427);
#426=EDGE_CURVE('',#422,#428,#425,.T.);
#430=DIRECTION('',(-1.000000,0.000000,0.000000));
#429=VECTOR('',#430,11.000000);
#431=LINE('',#427,#429);
#433=CARTESIAN_POINT('',(144.5000,-241.0000,-732.0000));
#434=VERTEX_POINT('',#433);
#432=EDGE_CURVE('',#428,#434,#431,.T.);
#436=DIRECTION('',(0.000000,0.000000,1.000000));
#435=VECTOR('',#436,20.000000);
#437=LINE('',#433,#435);
#439=CARTESIAN_POINT('',(144.5000,-241.0000,-712.0000));
#440=VERTEX_POINT('',#439);
#438=EDGE_CURVE('',#434,#440,#437,.T.);
#442=DIRECTION('',(1.000000,0.000000,0.000000));
#441=VECTOR('',#442,11.000000);
#443=LINE('',#439,#441);
#445=CARTESIAN_POINT('',(155.5000,-241.0000,-712.0000));
#446=VERTEX_POINT('',#445);
#444=EDGE_CURVE('',#440,#446,#443,.T.);
#448=DIRECTION('',(0.000000,0.000000,1.000000));
#447=VECTOR('',#448,14.000000);
#449=LINE('',#445,#447);
#451=CARTESIAN_POINT('',(155.5000,-241.0000,-698.0000));
#452=VERTEX_POINT('',#451);
#450=EDGE_CURVE('',#446,#452,#449,.T.);
#454=DIRECTION('',(-1.000000,0.000000,0.000000));
#453=VECTOR('',#454,11.000000);
#455=LINE('',#451,#453);
#457=CARTESIAN_POINT('',(144.5000,-241.0000,-698.0000));
#458=VERTEX_POINT('',#457);
#456=EDGE_CURVE('',#452,#458,#455,.T.);
#460=DIRECTION('',(0.000000,0.000000,1.000000));
#459=VECTOR('',#460,20.000000);
#461=LINE('',#457,#459);
#463=CARTESIAN_POINT('',(144.5000,-241.0000,-678.0000));
#464=VERTEX_POINT('',#463);
#462=EDGE_CURVE('',#458,#464,#461,.T.);
#466=DIRECTION('',(1.000000,0.000000,0.000000));
#465=VECTOR('',#466,11.000000);
#467=LINE('',#463,#465);
#469=CARTESIAN_POINT('',(155.5000,-241.0000,-678.0000));
#470=VERTEX_POINT('',#469);
#468=EDGE_CURVE('',#464,#470,#467,.T.);
#472=DIRECTION('',(0.000000,0.000000,1.000000));
#471=VECTOR('',#472,14.000000);
#473=LINE('',#469,#471);
#475=CARTESIAN_POINT('',(155.5000,-241.0000,-664.0000));
#476=VERTEX_POINT('',#475);
#474=EDGE_CURVE('',#470,#476,#473,.T.);
#478=DIRECTION('',(-1.000000,0.000000,0.000000));
#477=VECTOR('',#478,11.000000);
#479=LINE('',#475,#477);
#481=CARTESIAN_POINT('',(144.5000,-241.0000,-664.0000));
#482=VERTEX_POINT('',#481);
#480=EDGE_CURVE('',#476,#482,#479,.T.);
#484=DIRECTION('',(0.000000,0.000000,1.000000));
#483=VECTOR('',#484,20.000000);
#485=LINE('',#481,#483);
#487=CARTESIAN_POINT('',(144.5000,-241.0000,-644.0000));
#488=VERTEX_POINT('',#487);
#486=EDGE_CURVE('',#482,#488,#485,.T.);
#490=DIRECTION('',(1.000000,0.000000,0.000000));
#489=VECTOR('',#490,11.000000);
#491=LINE('',#487,#489);
#493=CARTESIAN_POINT('',(155.5000,-241.0000,-644.0000));
#494=VERTEX_POINT('',#493);
#492=EDGE_CURVE('',#488,#494,#491,.T.);
#496=DIRECTION('',(0.000000,0.000000,1.000000));
#495=VECTOR('',#496,14.000000);
#497=LINE('',#493,#495);
#499=CARTESIAN_POINT('',(155.5000,-241.0000,-630.0000));
#500=VERTEX_POINT('',#499);
#498=EDGE_CURVE('',#494,#500,#497,.T.);
#502=DIRECTION('',(-1.000000,0.000000,0.000000));
#501=VECTOR('',#502,11.000000);
#503=LINE('',#499,#501);
#505=CARTESIAN_POINT('',(144.5000,-241.0000,-630.0000));
#506=VERTEX_POINT('',#505);
#504=EDGE_CURVE('',#500,#506,#503,.T.);
#508=DIRECTION('',(0.000000,0.000000,1.000000));
#507=VECTOR('',#508,20.000000);
#509=LINE('',#505,#507);
#511=CARTESIAN_POINT('',(144.5000,-241.0000,-610.0000));
#512=VERTEX_POINT('',#511);
#510=EDGE_CURVE('',#506,#512,#509,.T.);
#514=DIRECTION('',(1.000000,0.000000,0.000000));
#513=VECTOR('',#514,11.000000);
#515=LINE('',#511,#513);
#517=CARTESIAN_POINT('',(155.5000,-241.0000,-610.0000));
#518=VERTEX_POINT('',#517);
#516=EDGE_CURVE('',#512,#518,#515,.T.);
#520=DIRECTION('',(0.000000,0.000000,1.000000));
#519=VECTOR('',#520,14.000000);
#521=LINE('',#517,#519);
#523=CARTESIAN_POINT('',(155.5000,-241.0000,-596.0000));
#524=VERTEX_POINT('',#523);
#522=EDGE_CURVE('',#518,#524,#521,.T.);
#526=DIRECTION('',(-1.000000,0.000000,0.000000));
#525=VECTOR('',#526,11.000000);
#527=LINE('',#523,#525);
#529=CARTESIAN_POINT('',(144.5000,-241.0000,-596.0000));
#530=VERTEX_POINT('',#529);
#528=EDGE_CURVE('',#524,#530,#527,.T.);
#532=DIRECTION('',(0.000000,0.000000,1.000000));
#531=VECTOR('',#532,20.000000);
#533=LINE('',#529,#531);
#535=CARTESIAN_POINT('',(144.5000,-241.0000,-576.0000));
#536=VERTEX_POINT('',#535);
#534=EDGE_CURVE('',#530,#536,#533,.T.);
#538=DIRECTION('',(1.000000,0.000000,0.000000));
#537=VECTOR('',#538,11.000000);
#539=LINE('',#535,#537);
#541=CARTESIAN_POINT('',(155.5000,-241.0000,-576.0000));
#542=VERTEX_POINT('',#541);
#540=EDGE_CURVE('',#536,#542,#539,.T.);
#544=DIRECTION('',(0.000000,0.000000,1.000000));
#543=VECTOR('',#544,14.000000);
#545=LINE('',#541,#543);
#547=CARTESIAN_POINT('',(155.5000,-241.0000,-562.0000));
#548=VERTEX_POINT('',#547);
#546=EDGE_CURVE('',#542,#548,#545,.T.);
#550=DIRECTION('',(-1.000000,0.000000,0.000000));
#549=VECTOR('',#550,11.000000);
#551=LINE('',#547,#549);
#553=CARTESIAN_POINT('',(144.5000,-241.0000,-562.0000));
#554=VERTEX_POINT('',#553);
#552=EDGE_CURVE('',#548,#554,#551,.T.);
#556=DIRECTION('',(0.000000,0.000000,1.000000));
#555=VECTOR('',#556,20.000000);
#557=LINE('',#553,#555);
#559=CARTESIAN_POINT('',(144.5000,-241.0000,-542.0000));
#560=VERTEX_POINT('',#559);
#558=EDGE_CURVE('',#554,#560,#557,.T.);
#562=DIRECTION('',(1.000000,0.000000,0.000000));
#561=VECTOR('',#562,11.000000);
#563=LINE('',#559,#561);
#565=CARTESIAN_POINT('',(155.5000,-241.0000,-542.0000));
#566=VERTEX_POINT('',#565);
#564=EDGE_CURVE('',#560,#566,#563,.T.);
#568=DIRECTION('',(0.000000,0.000000,1.000000));
#567=VECTOR('',#568,15.000000);
#569=LINE('',#565,#567);
#570=EDGE_CURVE('',#566,#330,#569,.T.);
#572=DIRECTION('',(-1.000000,0.000000,0.000000));
#571=VECTOR('',#572,47.500000);
#573=LINE('',#328,#571);
#574=EDGE_CURVE('',#330,#56,#573,.T.);
#576=DIRECTION('',(-1.000000,0.000000,0.000000));
#575=VECTOR('',#576,36.500000);
#577=LINE('',#4,#575);
#578=EDGE_CURVE('',#6,#330,#577,.T.);
#579=ORIENTED_EDGE('',*,*,#329,.T.);
#580=ORIENTED_EDGE('',*,*,#336,.T.);
#581=ORIENTED_EDGE('',*,*,#342,.T.);
#582=ORIENTED_EDGE('',*,*,#348,.T.);
#583=ORIENTED_EDGE('',*,*,#354,.T.);
#584=ORIENTED_EDGE('',*,*,#360,.T.);
#585=ORIENTED_EDGE('',*,*,#366,.T.);
#586=ORIENTED_EDGE('',*,*,#372,.T.);
#587=ORIENTED_EDGE('',*,*,#378,.T.);
#588=ORIENTED_EDGE('',*,*,#384,.T.);
#589=ORIENTED_EDGE('',*,*,#390,.T.);
#590=ORIENTED_EDGE('',*,*,#396,.T.);
#591=ORIENTED_EDGE('',*,*,#402,.T.);
#592=ORIENTED_EDGE('',*,*,#408,.T.);
#593=ORIENTED_EDGE('',*,*,#414,.T.);
#594=ORIENTED_EDGE('',*,*,#420,.T.);
#595=ORIENTED_EDGE('',*,*,#426,.T.);
#596=ORIENTED_EDGE('',*,*,#432,.T.);
#597=ORIENTED_EDGE('',*,*,#438,.T.);
#598=ORIENTED_EDGE('',*,*,#444,.T.);
#599=ORIENTED_EDGE('',*,*,#450,.T.);
#600=ORIENTED_EDGE('',*,*,#456,.T.);
#601=ORIENTED_EDGE('',*,*,#462,.T.);
#602=ORIENTED_EDGE('',*,*,#468,.T.);
#603=ORIENTED_EDGE('',*,*,#474,.T.);
#604=ORIENTED_EDGE('',*,*,#480,.T.);
#605=ORIENTED_EDGE('',*,*,#486,.T.);
#606=ORIENTED_EDGE('',*,*,#492,.T.);
#607=ORIENTED_EDGE('',*,*,#498,.T.);
#608=ORIENTED_EDGE('',*,*,#504,.T.);
#609=ORIENTED_EDGE('',*,*,#510,.T.);
#610=ORIENTED_EDGE('',*,*,#516,.T.);
#611=ORIENTED_EDGE('',*,*,#522,.T.);
#612=ORIENTED_EDGE('',*,*,#528,.T.);
#613=ORIENTED_EDGE('',*,*,#534,.T.);
#614=ORIENTED_EDGE('',*,*,#540,.T.);
#615=ORIENTED_EDGE('',*,*,#546,.T.);
#616=ORIENTED_EDGE('',*,*,#552,.T.);
#617=ORIENTED_EDGE('',*,*,#558,.T.);
#618=ORIENTED_EDGE('',*,*,#564,.T.);
#619=ORIENTED_EDGE('',*,*,#570,.T.);
#620=ORIENTED_EDGE('',*,*,#574,.T.);
#621=ORIENTED_EDGE('',*,*,#54,.F.);
#622=ORIENTED_EDGE('',*,*,#282,.F.);
#623=ORIENTED_EDGE('',*,*,#5,.F.);
#624=ORIENTED_EDGE('',*,*,#578,.T.);
#625=EDGE_LOOP('',(#579,#580,#581,#582,#583,#584,#585,#586,#587,#588,#589,#590,#591,#592,#593,#594,#595,#596,#597,#598,#599,#600,#601,#602,#603,#604,#605,#606,#607,#608,#609,#610,#611,#612,#613,#614,#615,#616,#617,#618,#619,#620,#621,#622,#623,#624));
#626=FACE_OUTER_BOUND('',#625,.T.);
#629=CARTESIAN_POINT('',(189.0000,-241.0000,-527.0000));
#630=DIRECTION('',(0.000000,-1.000000,0.000000));
#631=DIRECTION('',(0.000000,0.000000,-1.000000));
#628=AXIS2_PLACEMENT_3D('',#629,#630,#631);
#627=PLANE('',#628);
#632=ADVANCED_FACE('',(#626),#627,.T.);
#634=DIRECTION('',(-1.000000,0.000000,0.000000));
#633=VECTOR('',#634,11.000000);
#636=CARTESIAN_POINT('',(155.5000,-240.5000,-848.0000));
#635=LINE('',#636,#633);
#638=VERTEX_POINT('',#636);
#639=CARTESIAN_POINT('',(144.5000,-240.5000,-848.0000));
#640=VERTEX_POINT('',#639);
#637=EDGE_CURVE('',#638,#640,#635,.T.);
#642=DIRECTION('',(0.000000,0.000000,-1.000000));
#641=VECTOR('',#642,20.000000);
#643=LINE('',#639,#641);
#645=CARTESIAN_POINT('',(144.5000,-240.5000,-868.0000));
#646=VERTEX_POINT('',#645);
#644=EDGE_CURVE('',#640,#646,#643,.T.);
#648=DIRECTION('',(1.000000,0.000000,0.000000));
#647=VECTOR('',#648,11.000000);
#649=LINE('',#645,#647);
#651=CARTESIAN_POINT('',(155.5000,-240.5000,-868.0000));
#652=VERTEX_POINT('',#651);
#650=EDGE_CURVE('',#646,#652,#649,.T.);
#654=DIRECTION('',(0.000000,0.000000,1.000000));
#653=VECTOR('',#654,20.000000);
#655=LINE('',#651,#653);
#656=EDGE_CURVE('',#652,#638,#655,.T.);
#657=ORIENTED_EDGE('',*,*,#637,.T.);
#658=ORIENTED_EDGE('',*,*,#644,.T.);
#659=ORIENTED_EDGE('',*,*,#650,.T.);
#660=ORIENTED_EDGE('',*,*,#656,.T.);
#661=EDGE_LOOP('',(#657,#658,#659,#660));
#662=FACE_OUTER_BOUND('',#661,.T.);
#664=DIRECTION('',(-1.000000,0.000000,0.000000));
#663=VECTOR('',#664,11.000000);
#666=CARTESIAN_POINT('',(155.5000,-240.5000,-814.0000));
#665=LINE('',#666,#663);
#668=VERTEX_POINT('',#666);
#669=CARTESIAN_POINT('',(144.5000,-240.5000,-814.0000));
#670=VERTEX_POINT('',#669);
#667=EDGE_CURVE('',#668,#670,#665,.T.);
#672=DIRECTION('',(0.000000,0.000000,-1.000000));
#671=VECTOR('',#672,20.000000);
#673=LINE('',#669,#671);
#675=CARTESIAN_POINT('',(144.5000,-240.5000,-834.0000));
#676=VERTEX_POINT('',#675);
#674=EDGE_CURVE('',#670,#676,#673,.T.);
#678=DIRECTION('',(1.000000,0.000000,0.000000));
#677=VECTOR('',#678,11.000000);
#679=LINE('',#675,#677);
#681=CARTESIAN_POINT('',(155.5000,-240.5000,-834.0000));
#682=VERTEX_POINT('',#681);
#680=EDGE_CURVE('',#676,#682,#679,.T.);
#684=DIRECTION('',(0.000000,0.000000,1.000000));
#683=VECTOR('',#684,20.000000);
#685=LINE('',#681,#683);
#686=EDGE_CURVE('',#682,#668,#685,.T.);
#687=ORIENTED_EDGE('',*,*,#667,.T.);
#688=ORIENTED_EDGE('',*,*,#674,.T.);
#689=ORIENTED_EDGE('',*,*,#680,.T.);
#690=ORIENTED_EDGE('',*,*,#686,.T.);
#691=EDGE_LOOP('',(#687,#688,#689,#690));
#692=FACE_BOUND('',#691,.T.);
#694=DIRECTION('',(-1.000000,0.000000,0.000000));
#693=VECTOR('',#694,11.000000);
#696=CARTESIAN_POINT('',(155.5000,-240.5000,-780.0000));
#695=LINE('',#696,#693);
#698=VERTEX_POINT('',#696);
#699=CARTESIAN_POINT('',(144.5000,-240.5000,-780.0000));
#700=VERTEX_POINT('',#699);
#697=EDGE_CURVE('',#698,#700,#695,.T.);
#702=DIRECTION('',(0.000000,0.000000,-1.000000));
#701=VECTOR('',#702,20.000000);
#703=LINE('',#699,#701);
#705=CARTESIAN_POINT('',(144.5000,-240.5000,-800.0000));
#706=VERTEX_POINT('',#705);
#704=EDGE_CURVE('',#700,#706,#703,.T.);
#708=DIRECTION('',(1.000000,0.000000,0.000000));
#707=VECTOR('',#708,11.000000);
#709=LINE('',#705,#707);
#711=CARTESIAN_POINT('',(155.5000,-240.5000,-800.0000));
#712=VERTEX_POINT('',#711);
#710=EDGE_CURVE('',#706,#712,#709,.T.);
#714=DIRECTION('',(0.000000,0.000000,1.000000));
#713=VECTOR('',#714,20.000000);
#715=LINE('',#711,#713);
#716=EDGE_CURVE('',#712,#698,#715,.T.);
#717=ORIENTED_EDGE('',*,*,#697,.T.);
#718=ORIENTED_EDGE('',*,*,#704,.T.);
#719=ORIENTED_EDGE('',*,*,#710,.T.);
#720=ORIENTED_EDGE('',*,*,#716,.T.);
#721=EDGE_LOOP('',(#717,#718,#719,#720));
#722=FACE_BOUND('',#721,.T.);
#724=DIRECTION('',(-1.000000,0.000000,0.000000));
#723=VECTOR('',#724,11.000000);
#726=CARTESIAN_POINT('',(155.5000,-240.5000,-746.0000));
#725=LINE('',#726,#723);
#728=VERTEX_POINT('',#726);
#729=CARTESIAN_POINT('',(144.5000,-240.5000,-746.0000));
#730=VERTEX_POINT('',#729);
#727=EDGE_CURVE('',#728,#730,#725,.T.);
#732=DIRECTION('',(0.000000,0.000000,-1.000000));
#731=VECTOR('',#732,20.000000);
#733=LINE('',#729,#731);
#735=CARTESIAN_POINT('',(144.5000,-240.5000,-766.0000));
#736=VERTEX_POINT('',#735);
#734=EDGE_CURVE('',#730,#736,#733,.T.);
#738=DIRECTION('',(1.000000,0.000000,0.000000));
#737=VECTOR('',#738,11.000000);
#739=LINE('',#735,#737);
#741=CARTESIAN_POINT('',(155.5000,-240.5000,-766.0000));
#742=VERTEX_POINT('',#741);
#740=EDGE_CURVE('',#736,#742,#739,.T.);
#744=DIRECTION('',(0.000000,0.000000,1.000000));
#743=VECTOR('',#744,20.000000);
#745=LINE('',#741,#743);
#746=EDGE_CURVE('',#742,#728,#745,.T.);
#747=ORIENTED_EDGE('',*,*,#727,.T.);
#748=ORIENTED_EDGE('',*,*,#734,.T.);
#749=ORIENTED_EDGE('',*,*,#740,.T.);
#750=ORIENTED_EDGE('',*,*,#746,.T.);
#751=EDGE_LOOP('',(#747,#748,#749,#750));
#752=FACE_BOUND('',#751,.T.);
#754=DIRECTION('',(-1.000000,0.000000,0.000000));
#753=VECTOR('',#754,11.000000);
#756=CARTESIAN_POINT('',(155.5000,-240.5000,-712.0000));
#755=LINE('',#756,#753);
#758=VERTEX_POINT('',#756);
#759=CARTESIAN_POINT('',(144.5000,-240.5000,-712.0000));
#760=VERTEX_POINT('',#759);
#757=EDGE_CURVE('',#758,#760,#755,.T.);
#762=DIRECTION('',(0.000000,0.000000,-1.000000));
#761=VECTOR('',#762,20.000000);
#763=LINE('',#759,#761);
#765=CARTESIAN_POINT('',(144.5000,-240.5000,-732.0000));
#766=VERTEX_POINT('',#765);
#764=EDGE_CURVE('',#760,#766,#763,.T.);
#768=DIRECTION('',(1.000000,0.000000,0.000000));
#767=VECTOR('',#768,11.000000);
#769=LINE('',#765,#767);
#771=CARTESIAN_POINT('',(155.5000,-240.5000,-732.0000));
#772=VERTEX_POINT('',#771);
#770=EDGE_CURVE('',#766,#772,#769,.T.);
#774=DIRECTION('',(0.000000,0.000000,1.000000));
#773=VECTOR('',#774,20.000000);
#775=LINE('',#771,#773);
#776=EDGE_CURVE('',#772,#758,#775,.T.);
#777=ORIENTED_EDGE('',*,*,#757,.T.);
#778=ORIENTED_EDGE('',*,*,#764,.T.);
#779=ORIENTED_EDGE('',*,*,#770,.T.);
#780=ORIENTED_EDGE('',*,*,#776,.T.);
#781=EDGE_LOOP('',(#777,#778,#779,#780));
#782=FACE_BOUND('',#781,.T.);
#784=DIRECTION('',(-1.000000,0.000000,0.000000));
#783=VECTOR('',#784,11.000000);
#786=CARTESIAN_POINT('',(155.5000,-240.5000,-678.0000));
#785=LINE('',#786,#783);
#788=VERTEX_POINT('',#786);
#789=CARTESIAN_POINT('',(144.5000,-240.5000,-678.0000));
#790=VERTEX_POINT('',#789);
#787=EDGE_CURVE('',#788,#790,#785,.T.);
#792=DIRECTION('',(0.000000,0.000000,-1.000000));
#791=VECTOR('',#792,20.000000);
#793=LINE('',#789,#791);
#795=CARTESIAN_POINT('',(144.5000,-240.5000,-698.0000));
#796=VERTEX_POINT('',#795);
#794=EDGE_CURVE('',#790,#796,#793,.T.);
#798=DIRECTION('',(1.000000,0.000000,0.000000));
#797=VECTOR('',#798,11.000000);
#799=LINE('',#795,#797);
#801=CARTESIAN_POINT('',(155.5000,-240.5000,-698.0000));
#802=VERTEX_POINT('',#801);
#800=EDGE_CURVE('',#796,#802,#799,.T.);
#804=DIRECTION('',(0.000000,0.000000,1.000000));
#803=VECTOR('',#804,20.000000);
#805=LINE('',#801,#803);
#806=EDGE_CURVE('',#802,#788,#805,.T.);
#807=ORIENTED_EDGE('',*,*,#787,.T.);
#808=ORIENTED_EDGE('',*,*,#794,.T.);
#809=ORIENTED_EDGE('',*,*,#800,.T.);
#810=ORIENTED_EDGE('',*,*,#806,.T.);
#811=EDGE_LOOP('',(#807,#808,#809,#810));
#812=FACE_BOUND('',#811,.T.);
#814=DIRECTION('',(-1.000000,0.000000,0.000000));
#813=VECTOR('',#814,11.000000);
#816=CARTESIAN_POINT('',(155.5000,-240.5000,-644.0000));
#815=LINE('',#816,#813);
#818=VERTEX_POINT('',#816);
#819=CARTESIAN_POINT('',(144.5000,-240.5000,-644.0000));
#820=VERTEX_POINT('',#819);
#817=EDGE_CURVE('',#818,#820,#815,.T.);
#822=DIRECTION('',(0.000000,0.000000,-1.000000));
#821=VECTOR('',#822,20.000000);
#823=LINE('',#819,#821);
#825=CARTESIAN_POINT('',(144.5000,-240.5000,-664.0000));
#826=VERTEX_POINT('',#825);
#824=EDGE_CURVE('',#820,#826,#823,.T.);
#828=DIRECTION('',(1.000000,0.000000,0.000000));
#827=VECTOR('',#828,11.000000);
#829=LINE('',#825,#827);
#831=CARTESIAN_POINT('',(155.5000,-240.5000,-664.0000));
#832=VERTEX_POINT('',#831);
#830=EDGE_CURVE('',#826,#832,#829,.T.);
#834=DIRECTION('',(0.000000,0.000000,1.000000));
#833=VECTOR('',#834,20.000000);
#835=LINE('',#831,#833);
#836=EDGE_CURVE('',#832,#818,#835,.T.);
#837=ORIENTED_EDGE('',*,*,#817,.T.);
#838=ORIENTED_EDGE('',*,*,#824,.T.);
#839=ORIENTED_EDGE('',*,*,#830,.T.);
#840=ORIENTED_EDGE('',*,*,#836,.T.);
#841=EDGE_LOOP('',(#837,#838,#839,#840));
#842=FACE_BOUND('',#841,.T.);
#844=DIRECTION('',(-1.000000,0.000000,0.000000));
#843=VECTOR('',#844,11.000000);
#846=CARTESIAN_POINT('',(155.5000,-240.5000,-610.0000));
#845=LINE('',#846,#843);
#848=VERTEX_POINT('',#846);
#849=CARTESIAN_POINT('',(144.5000,-240.5000,-610.0000));
#850=VERTEX_POINT('',#849);
#847=EDGE_CURVE('',#848,#850,#845,.T.);
#852=DIRECTION('',(0.000000,0.000000,-1.000000));
#851=VECTOR('',#852,20.000000);
#853=LINE('',#849,#851);
#855=CARTESIAN_POINT('',(144.5000,-240.5000,-630.0000));
#856=VERTEX_POINT('',#855);
#854=EDGE_CURVE('',#850,#856,#853,.T.);
#858=DIRECTION('',(1.000000,0.000000,0.000000));
#857=VECTOR('',#858,11.000000);
#859=LINE('',#855,#857);
#861=CARTESIAN_POINT('',(155.5000,-240.5000,-630.0000));
#862=VERTEX_POINT('',#861);
#860=EDGE_CURVE('',#856,#862,#859,.T.);
#864=DIRECTION('',(0.000000,0.000000,1.000000));
#863=VECTOR('',#864,20.000000);
#865=LINE('',#861,#863);
#866=EDGE_CURVE('',#862,#848,#865,.T.);
#867=ORIENTED_EDGE('',*,*,#847,.T.);
#868=ORIENTED_EDGE('',*,*,#854,.T.);
#869=ORIENTED_EDGE('',*,*,#860,.T.);
#870=ORIENTED_EDGE('',*,*,#866,.T.);
#871=EDGE_LOOP('',(#867,#868,#869,#870));
#872=FACE_BOUND('',#871,.T.);
#874=DIRECTION('',(-1.000000,0.000000,0.000000));
#873=VECTOR('',#874,11.000000);
#876=CARTESIAN_POINT('',(155.5000,-240.5000,-576.0000));
#875=LINE('',#876,#873);
#878=VERTEX_POINT('',#876);
#879=CARTESIAN_POINT('',(144.5000,-240.5000,-576.0000));
#880=VERTEX_POINT('',#879);
#877=EDGE_CURVE('',#878,#880,#875,.T.);
#882=DIRECTION('',(0.000000,0.000000,-1.000000));
#881=VECTOR('',#882,20.000000);
#883=LINE('',#879,#881);
#885=CARTESIAN_POINT('',(144.5000,-240.5000,-596.0000));
#886=VERTEX_POINT('',#885);
#884=EDGE_CURVE('',#880,#886,#883,.T.);
#888=DIRECTION('',(1.000000,0.000000,0.000000));
#887=VECTOR('',#888,11.000000);
#889=LINE('',#885,#887);
#891=CARTESIAN_POINT('',(155.5000,-240.5000,-596.0000));
#892=VERTEX_POINT('',#891);
#890=EDGE_CURVE('',#886,#892,#889,.T.);
#894=DIRECTION('',(0.000000,0.000000,1.000000));
#893=VECTOR('',#894,20.000000);
#895=LINE('',#891,#893);
#896=EDGE_CURVE('',#892,#878,#895,.T.);
#897=ORIENTED_EDGE('',*,*,#877,.T.);
#898=ORIENTED_EDGE('',*,*,#884,.T.);
#899=ORIENTED_EDGE('',*,*,#890,.T.);
#900=ORIENTED_EDGE('',*,*,#896,.T.);
#901=EDGE_LOOP('',(#897,#898,#899,#900));
#902=FACE_BOUND('',#901,.T.);
#904=DIRECTION('',(-1.000000,0.000000,0.000000));
#903=VECTOR('',#904,11.000000);
#906=CARTESIAN_POINT('',(155.5000,-240.5000,-542.0000));
#905=LINE('',#906,#903);
#908=VERTEX_POINT('',#906);
#909=CARTESIAN_POINT('',(144.5000,-240.5000,-542.0000));
#910=VERTEX_POINT('',#909);
#907=EDGE_CURVE('',#908,#910,#905,.T.);
#912=DIRECTION('',(0.000000,0.000000,-1.000000));
#911=VECTOR('',#912,20.000000);
#913=LINE('',#909,#911);
#915=CARTESIAN_POINT('',(144.5000,-240.5000,-562.0000));
#916=VERTEX_POINT('',#915);
#914=EDGE_CURVE('',#910,#916,#913,.T.);
#918=DIRECTION('',(1.000000,0.000000,0.000000));
#917=VECTOR('',#918,11.000000);
#919=LINE('',#915,#917);
#921=CARTESIAN_POINT('',(155.5000,-240.5000,-562.0000));
#922=VERTEX_POINT('',#921);
#920=EDGE_CURVE('',#916,#922,#919,.T.);
#924=DIRECTION('',(0.000000,0.000000,1.000000));
#923=VECTOR('',#924,20.000000);
#925=LINE('',#921,#923);
#926=EDGE_CURVE('',#922,#908,#925,.T.);
#927=ORIENTED_EDGE('',*,*,#907,.T.);
#928=ORIENTED_EDGE('',*,*,#914,.T.);
#929=ORIENTED_EDGE('',*,*,#920,.T.);
#930=ORIENTED_EDGE('',*,*,#926,.T.);
#931=EDGE_LOOP('',(#927,#928,#929,#930));
#932=FACE_BOUND('',#931,.T.);
#935=DIRECTION('',(0.000000,1.000000,0.000000));
#936=DIRECTION('',(-1.000000,0.000000,0.000000));
#934=AXIS2_PLACEMENT_3D('',#636,#935,#936);
#933=PLANE('',#934);
#937=ADVANCED_FACE('',(#662,#692,#722,#752,#782,#812,#842,#872,#902,#932),#933,.T.);
#939=DIRECTION('',(0.000000,1.000000,0.000000));
#938=VECTOR('',#939,0.500000);
#940=LINE('',#349,#938);
#941=EDGE_CURVE('',#350,#638,#940,.T.);
#943=DIRECTION('',(0.000000,-1.000000,0.000000));
#942=VECTOR('',#943,0.500000);
#944=LINE('',#651,#942);
#945=EDGE_CURVE('',#652,#332,#944,.T.);
#947=DIRECTION('',(0.000000,0.000000,1.000000));
#946=VECTOR('',#947,20.000000);
#948=LINE('',#331,#946);
#949=EDGE_CURVE('',#332,#350,#948,.T.);
#950=ORIENTED_EDGE('',*,*,#941,.T.);
#951=ORIENTED_EDGE('',*,*,#656,.F.);
#952=ORIENTED_EDGE('',*,*,#945,.T.);
#953=ORIENTED_EDGE('',*,*,#949,.T.);
#954=EDGE_LOOP('',(#950,#951,#952,#953));
#955=FACE_OUTER_BOUND('',#954,.T.);
#957=DIRECTION('',(0.000000,1.000000,0.000000));
#956=VECTOR('',#957,0.500000);
#958=LINE('',#373,#956);
#959=EDGE_CURVE('',#374,#668,#958,.T.);
#961=DIRECTION('',(0.000000,-1.000000,0.000000));
#960=VECTOR('',#961,0.500000);
#962=LINE('',#681,#960);
#963=EDGE_CURVE('',#682,#356,#962,.T.);
#965=DIRECTION('',(0.000000,0.000000,1.000000));
#964=VECTOR('',#965,20.000000);
#966=LINE('',#355,#964);
#967=EDGE_CURVE('',#356,#374,#966,.T.);
#968=ORIENTED_EDGE('',*,*,#959,.T.);
#969=ORIENTED_EDGE('',*,*,#686,.F.);
#970=ORIENTED_EDGE('',*,*,#963,.T.);
#971=ORIENTED_EDGE('',*,*,#967,.T.);
#972=EDGE_LOOP('',(#968,#969,#970,#971));
#973=FACE_BOUND('',#972,.T.);
#975=DIRECTION('',(0.000000,1.000000,0.000000));
#974=VECTOR('',#975,0.500000);
#976=LINE('',#397,#974);
#977=EDGE_CURVE('',#398,#698,#976,.T.);
#979=DIRECTION('',(0.000000,-1.000000,0.000000));
#978=VECTOR('',#979,0.500000);
#980=LINE('',#711,#978);
#981=EDGE_CURVE('',#712,#380,#980,.T.);
#983=DIRECTION('',(0.000000,0.000000,1.000000));
#982=VECTOR('',#983,20.000000);
#984=LINE('',#379,#982);
#985=EDGE_CURVE('',#380,#398,#984,.T.);
#986=ORIENTED_EDGE('',*,*,#977,.T.);
#987=ORIENTED_EDGE('',*,*,#716,.F.);
#988=ORIENTED_EDGE('',*,*,#981,.T.);
#989=ORIENTED_EDGE('',*,*,#985,.T.);
#990=EDGE_LOOP('',(#986,#987,#988,#989));
#991=FACE_BOUND('',#990,.T.);
#993=DIRECTION('',(0.000000,1.000000,0.000000));
#992=VECTOR('',#993,0.500000);
#994=LINE('',#421,#992);
#995=EDGE_CURVE('',#422,#728,#994,.T.);
#997=DIRECTION('',(0.000000,-1.000000,0.000000));
#996=VECTOR('',#997,0.500000);
#998=LINE('',#741,#996);
#999=EDGE_CURVE('',#742,#404,#998,.T.);
#1001=DIRECTION('',(0.000000,0.000000,1.000000));
#1000=VECTOR('',#1001,20.000000);
#1002=LINE('',#403,#1000);
#1003=EDGE_CURVE('',#404,#422,#1002,.T.);
#1004=ORIENTED_EDGE('',*,*,#995,.T.);
#1005=ORIENTED_EDGE('',*,*,#746,.F.);
#1006=ORIENTED_EDGE('',*,*,#999,.T.);
#1007=ORIENTED_EDGE('',*,*,#1003,.T.);
#1008=EDGE_LOOP('',(#1004,#1005,#1006,#1007));
#1009=FACE_BOUND('',#1008,.T.);
#1011=DIRECTION('',(0.000000,1.000000,0.000000));
#1010=VECTOR('',#1011,0.500000);
#1012=LINE('',#445,#1010);
#1013=EDGE_CURVE('',#446,#758,#1012,.T.);
#1015=DIRECTION('',(0.000000,-1.000000,0.000000));
#1014=VECTOR('',#1015,0.500000);
#1016=LINE('',#771,#1014);
#1017=EDGE_CURVE('',#772,#428,#1016,.T.);
#1019=DIRECTION('',(0.000000,0.000000,1.000000));
#1018=VECTOR('',#1019,20.000000);
#1020=LINE('',#427,#1018);
#1021=EDGE_CURVE('',#428,#446,#1020,.T.);
#1022=ORIENTED_EDGE('',*,*,#1013,.T.);
#1023=ORIENTED_EDGE('',*,*,#776,.F.);
#1024=ORIENTED_EDGE('',*,*,#1017,.T.);
#1025=ORIENTED_EDGE('',*,*,#1021,.T.);
#1026=EDGE_LOOP('',(#1022,#1023,#1024,#1025));
#1027=FACE_BOUND('',#1026,.T.);
#1029=DIRECTION('',(0.000000,1.000000,0.000000));
#1028=VECTOR('',#1029,0.500000);
#1030=LINE('',#469,#1028);
#1031=EDGE_CURVE('',#470,#788,#1030,.T.);
#1033=DIRECTION('',(0.000000,-1.000000,0.000000));
#1032=VECTOR('',#1033,0.500000);
#1034=LINE('',#801,#1032);
#1035=EDGE_CURVE('',#802,#452,#1034,.T.);
#1037=DIRECTION('',(0.000000,0.000000,1.000000));
#1036=VECTOR('',#1037,20.000000);
#1038=LINE('',#451,#1036);
#1039=EDGE_CURVE('',#452,#470,#1038,.T.);
#1040=ORIENTED_EDGE('',*,*,#1031,.T.);
#1041=ORIENTED_EDGE('',*,*,#806,.F.);
#1042=ORIENTED_EDGE('',*,*,#1035,.T.);
#1043=ORIENTED_EDGE('',*,*,#1039,.T.);
#1044=EDGE_LOOP('',(#1040,#1041,#1042,#1043));
#1045=FACE_BOUND('',#1044,.T.);
#1047=DIRECTION('',(0.000000,1.000000,0.000000));
#1046=VECTOR('',#1047,0.500000);
#1048=LINE('',#493,#1046);
#1049=EDGE_CURVE('',#494,#818,#1048,.T.);
#1051=DIRECTION('',(0.000000,-1.000000,0.000000));
#1050=VECTOR('',#1051,0.500000);
#1052=LINE('',#831,#1050);
#1053=EDGE_CURVE('',#832,#476,#1052,.T.);
#1055=DIRECTION('',(0.000000,0.000000,1.000000));
#1054=VECTOR('',#1055,20.000000);
#1056=LINE('',#475,#1054);
#1057=EDGE_CURVE('',#476,#494,#1056,.T.);
#1058=ORIENTED_EDGE('',*,*,#1049,.T.);
#1059=ORIENTED_EDGE('',*,*,#836,.F.);
#1060=ORIENTED_EDGE('',*,*,#1053,.T.);
#1061=ORIENTED_EDGE('',*,*,#1057,.T.);
#1062=EDGE_LOOP('',(#1058,#1059,#1060,#1061));
#1063=FACE_BOUND('',#1062,.T.);
#1065=DIRECTION('',(0.000000,1.000000,0.000000));
#1064=VECTOR('',#1065,0.500000);
#1066=LINE('',#517,#1064);
#1067=EDGE_CURVE('',#518,#848,#1066,.T.);
#1069=DIRECTION('',(0.000000,-1.000000,0.000000));
#1068=VECTOR('',#1069,0.500000);
#1070=LINE('',#861,#1068);
#1071=EDGE_CURVE('',#862,#500,#1070,.T.);
#1073=DIRECTION('',(0.000000,0.000000,1.000000));
#1072=VECTOR('',#1073,20.000000);
#1074=LINE('',#499,#1072);
#1075=EDGE_CURVE('',#500,#518,#1074,.T.);
#1076=ORIENTED_EDGE('',*,*,#1067,.T.);
#1077=ORIENTED_EDGE('',*,*,#866,.F.);
#1078=ORIENTED_EDGE('',*,*,#1071,.T.);
#1079=ORIENTED_EDGE('',*,*,#1075,.T.);
#1080=EDGE_LOOP('',(#1076,#1077,#1078,#1079));
#1081=FACE_BOUND('',#1080,.T.);
#1083=DIRECTION('',(0.000000,1.000000,0.000000));
#1082=VECTOR('',#1083,0.500000);
#1084=LINE('',#541,#1082);
#1085=EDGE_CURVE('',#542,#878,#1084,.T.);
#1087=DIRECTION('',(0.000000,-1.000000,0.000000));
#1086=VECTOR('',#1087,0.500000);
#1088=LINE('',#891,#1086);
#1089=EDGE_CURVE('',#892,#524,#1088,.T.);
#1091=DIRECTION('',(0.000000,0.000000,1.000000));
#1090=VECTOR('',#1091,20.000000);
#1092=LINE('',#523,#1090);
#1093=EDGE_CURVE('',#524,#542,#1092,.T.);
#1094=ORIENTED_EDGE('',*,*,#1085,.T.);
#1095=ORIENTED_EDGE('',*,*,#896,.F.);
#1096=ORIENTED_EDGE('',*,*,#1089,.T.);
#1097=ORIENTED_EDGE('',*,*,#1093,.T.);
#1098=EDGE_LOOP('',(#1094,#1095,#1096,#1097));
#1099=FACE_BOUND('',#1098,.T.);
#1101=DIRECTION('',(0.000000,1.000000,0.000000));
#1100=VECTOR('',#1101,0.500000);
#1102=LINE('',#565,#1100);
#1103=EDGE_CURVE('',#566,#908,#1102,.T.);
#1105=DIRECTION('',(0.000000,-1.000000,0.000000));
#1104=VECTOR('',#1105,0.500000);
#1106=LINE('',#921,#1104);
#1107=EDGE_CURVE('',#922,#548,#1106,.T.);
#1109=DIRECTION('',(0.000000,0.000000,1.000000));
#1108=VECTOR('',#1109,20.000000);
#1110=LINE('',#547,#1108);
#1111=EDGE_CURVE('',#548,#566,#1110,.T.);
#1112=ORIENTED_EDGE('',*,*,#1103,.T.);
#1113=ORIENTED_EDGE('',*,*,#926,.F.);
#1114=ORIENTED_EDGE('',*,*,#1107,.T.);
#1115=ORIENTED_EDGE('',*,*,#1111,.T.);
#1116=EDGE_LOOP('',(#1112,#1113,#1114,#1115));
#1117=FACE_BOUND('',#1116,.T.);
#1120=DIRECTION('',(1.000000,0.000000,0.000000));
#1121=DIRECTION('',(0.000000,1.000000,0.000000));
#1119=AXIS2_PLACEMENT_3D('',#349,#1120,#1121);
#1118=PLANE('',#1119);
#1122=ADVANCED_FACE('',(#955,#973,#991,#1009,#1027,#1045,#1063,#1081,#1099,#1117),#1118,.T.);
#1124=DIRECTION('',(0.000000,-1.000000,0.000000));
#1123=VECTOR('',#1124,0.500000);
#1125=LINE('',#645,#1123);
#1126=EDGE_CURVE('',#646,#338,#1125,.T.);
#1127=ORIENTED_EDGE('',*,*,#945,.F.);
#1128=ORIENTED_EDGE('',*,*,#650,.F.);
#1129=ORIENTED_EDGE('',*,*,#1126,.T.);
#1130=ORIENTED_EDGE('',*,*,#336,.F.);
#1131=EDGE_LOOP('',(#1127,#1128,#1129,#1130));
#1132=FACE_OUTER_BOUND('',#1131,.T.);
#1135=DIRECTION('',(0.000000,0.000000,-1.000000));
#1136=DIRECTION('',(0.000000,1.000000,0.000000));
#1134=AXIS2_PLACEMENT_3D('',#331,#1135,#1136);
#1133=PLANE('',#1134);
#1137=ADVANCED_FACE('',(#1132),#1133,.T.);
#1139=DIRECTION('',(0.000000,-1.000000,0.000000));
#1138=VECTOR('',#1139,0.500000);
#1140=LINE('',#639,#1138);
#1141=EDGE_CURVE('',#640,#344,#1140,.T.);
#1142=ORIENTED_EDGE('',*,*,#1126,.F.);
#1143=ORIENTED_EDGE('',*,*,#644,.F.);
#1144=ORIENTED_EDGE('',*,*,#1141,.T.);
#1145=ORIENTED_EDGE('',*,*,#342,.F.);
#1146=EDGE_LOOP('',(#1142,#1143,#1144,#1145));
#1147=FACE_OUTER_BOUND('',#1146,.T.);
#1149=DIRECTION('',(0.000000,1.000000,0.000000));
#1148=VECTOR('',#1149,0.500000);
#1150=LINE('',#361,#1148);
#1151=EDGE_CURVE('',#362,#676,#1150,.T.);
#1153=DIRECTION('',(0.000000,-1.000000,0.000000));
#1152=VECTOR('',#1153,0.500000);
#1154=LINE('',#669,#1152);
#1155=EDGE_CURVE('',#670,#368,#1154,.T.);
#1156=ORIENTED_EDGE('',*,*,#1151,.T.);
#1157=ORIENTED_EDGE('',*,*,#674,.F.);
#1158=ORIENTED_EDGE('',*,*,#1155,.T.);
#1159=ORIENTED_EDGE('',*,*,#366,.F.);
#1160=EDGE_LOOP('',(#1156,#1157,#1158,#1159));
#1161=FACE_BOUND('',#1160,.T.);
#1163=DIRECTION('',(0.000000,1.000000,0.000000));
#1162=VECTOR('',#1163,0.500000);
#1164=LINE('',#385,#1162);
#1165=EDGE_CURVE('',#386,#706,#1164,.T.);
#1167=DIRECTION('',(0.000000,-1.000000,0.000000));
#1166=VECTOR('',#1167,0.500000);
#1168=LINE('',#699,#1166);
#1169=EDGE_CURVE('',#700,#392,#1168,.T.);
#1170=ORIENTED_EDGE('',*,*,#1165,.T.);
#1171=ORIENTED_EDGE('',*,*,#704,.F.);
#1172=ORIENTED_EDGE('',*,*,#1169,.T.);
#1173=ORIENTED_EDGE('',*,*,#390,.F.);
#1174=EDGE_LOOP('',(#1170,#1171,#1172,#1173));
#1175=FACE_BOUND('',#1174,.T.);
#1177=DIRECTION('',(0.000000,1.000000,0.000000));
#1176=VECTOR('',#1177,0.500000);
#1178=LINE('',#409,#1176);
#1179=EDGE_CURVE('',#410,#736,#1178,.T.);
#1181=DIRECTION('',(0.000000,-1.000000,0.000000));
#1180=VECTOR('',#1181,0.500000);
#1182=LINE('',#729,#1180);
#1183=EDGE_CURVE('',#730,#416,#1182,.T.);
#1184=ORIENTED_EDGE('',*,*,#1179,.T.);
#1185=ORIENTED_EDGE('',*,*,#734,.F.);
#1186=ORIENTED_EDGE('',*,*,#1183,.T.);
#1187=ORIENTED_EDGE('',*,*,#414,.F.);
#1188=EDGE_LOOP('',(#1184,#1185,#1186,#1187));
#1189=FACE_BOUND('',#1188,.T.);
#1191=DIRECTION('',(0.000000,1.000000,0.000000));
#1190=VECTOR('',#1191,0.500000);
#1192=LINE('',#433,#1190);
#1193=EDGE_CURVE('',#434,#766,#1192,.T.);
#1195=DIRECTION('',(0.000000,-1.000000,0.000000));
#1194=VECTOR('',#1195,0.500000);
#1196=LINE('',#759,#1194);
#1197=EDGE_CURVE('',#760,#440,#1196,.T.);
#1198=ORIENTED_EDGE('',*,*,#1193,.T.);
#1199=ORIENTED_EDGE('',*,*,#764,.F.);
#1200=ORIENTED_EDGE('',*,*,#1197,.T.);
#1201=ORIENTED_EDGE('',*,*,#438,.F.);
#1202=EDGE_LOOP('',(#1198,#1199,#1200,#1201));
#1203=FACE_BOUND('',#1202,.T.);
#1205=DIRECTION('',(0.000000,1.000000,0.000000));
#1204=VECTOR('',#1205,0.500000);
#1206=LINE('',#457,#1204);
#1207=EDGE_CURVE('',#458,#796,#1206,.T.);
#1209=DIRECTION('',(0.000000,-1.000000,0.000000));
#1208=VECTOR('',#1209,0.500000);
#1210=LINE('',#789,#1208);
#1211=EDGE_CURVE('',#790,#464,#1210,.T.);
#1212=ORIENTED_EDGE('',*,*,#1207,.T.);
#1213=ORIENTED_EDGE('',*,*,#794,.F.);
#1214=ORIENTED_EDGE('',*,*,#1211,.T.);
#1215=ORIENTED_EDGE('',*,*,#462,.F.);
#1216=EDGE_LOOP('',(#1212,#1213,#1214,#1215));
#1217=FACE_BOUND('',#1216,.T.);
#1219=DIRECTION('',(0.000000,1.000000,0.000000));
#1218=VECTOR('',#1219,0.500000);
#1220=LINE('',#481,#1218);
#1221=EDGE_CURVE('',#482,#826,#1220,.T.);
#1223=DIRECTION('',(0.000000,-1.000000,0.000000));
#1222=VECTOR('',#1223,0.500000);
#1224=LINE('',#819,#1222);
#1225=EDGE_CURVE('',#820,#488,#1224,.T.);
#1226=ORIENTED_EDGE('',*,*,#1221,.T.);
#1227=ORIENTED_EDGE('',*,*,#824,.F.);
#1228=ORIENTED_EDGE('',*,*,#1225,.T.);
#1229=ORIENTED_EDGE('',*,*,#486,.F.);
#1230=EDGE_LOOP('',(#1226,#1227,#1228,#1229));
#1231=FACE_BOUND('',#1230,.T.);
#1233=DIRECTION('',(0.000000,1.000000,0.000000));
#1232=VECTOR('',#1233,0.500000);
#1234=LINE('',#505,#1232);
#1235=EDGE_CURVE('',#506,#856,#1234,.T.);
#1237=DIRECTION('',(0.000000,-1.000000,0.000000));
#1236=VECTOR('',#1237,0.500000);
#1238=LINE('',#849,#1236);
#1239=EDGE_CURVE('',#850,#512,#1238,.T.);
#1240=ORIENTED_EDGE('',*,*,#1235,.T.);
#1241=ORIENTED_EDGE('',*,*,#854,.F.);
#1242=ORIENTED_EDGE('',*,*,#1239,.T.);
#1243=ORIENTED_EDGE('',*,*,#510,.F.);
#1244=EDGE_LOOP('',(#1240,#1241,#1242,#1243));
#1245=FACE_BOUND('',#1244,.T.);
#1247=DIRECTION('',(0.000000,1.000000,0.000000));
#1246=VECTOR('',#1247,0.500000);
#1248=LINE('',#529,#1246);
#1249=EDGE_CURVE('',#530,#886,#1248,.T.);
#1251=DIRECTION('',(0.000000,-1.000000,0.000000));
#1250=VECTOR('',#1251,0.500000);
#1252=LINE('',#879,#1250);
#1253=EDGE_CURVE('',#880,#536,#1252,.T.);
#1254=ORIENTED_EDGE('',*,*,#1249,.T.);
#1255=ORIENTED_EDGE('',*,*,#884,.F.);
#1256=ORIENTED_EDGE('',*,*,#1253,.T.);
#1257=ORIENTED_EDGE('',*,*,#534,.F.);
#1258=EDGE_LOOP('',(#1254,#1255,#1256,#1257));
#1259=FACE_BOUND('',#1258,.T.);
#1261=DIRECTION('',(0.000000,1.000000,0.000000));
#1260=VECTOR('',#1261,0.500000);
#1262=LINE('',#553,#1260);
#1263=EDGE_CURVE('',#554,#916,#1262,.T.);
#1265=DIRECTION('',(0.000000,-1.000000,0.000000));
#1264=VECTOR('',#1265,0.500000);
#1266=LINE('',#909,#1264);
#1267=EDGE_CURVE('',#910,#560,#1266,.T.);
#1268=ORIENTED_EDGE('',*,*,#1263,.T.);
#1269=ORIENTED_EDGE('',*,*,#914,.F.);
#1270=ORIENTED_EDGE('',*,*,#1267,.T.);
#1271=ORIENTED_EDGE('',*,*,#558,.F.);
#1272=EDGE_LOOP('',(#1268,#1269,#1270,#1271));
#1273=FACE_BOUND('',#1272,.T.);
#1276=DIRECTION('',(-1.000000,0.000000,0.000000));
#1277=DIRECTION('',(0.000000,1.000000,0.000000));
#1275=AXIS2_PLACEMENT_3D('',#337,#1276,#1277);
#1274=PLANE('',#1275);
#1278=ADVANCED_FACE('',(#1147,#1161,#1175,#1189,#1203,#1217,#1231,#1245,#1259,#1273),#1274,.T.);
#1279=ORIENTED_EDGE('',*,*,#1141,.F.);
#1280=ORIENTED_EDGE('',*,*,#637,.F.);
#1281=ORIENTED_EDGE('',*,*,#941,.F.);
#1282=ORIENTED_EDGE('',*,*,#348,.F.);
#1283=EDGE_LOOP('',(#1279,#1280,#1281,#1282));
#1284=FACE_OUTER_BOUND('',#1283,.T.);
#1287=DIRECTION('',(0.000000,0.000000,1.000000));
#1288=DIRECTION('',(0.000000,1.000000,0.000000));
#1286=AXIS2_PLACEMENT_3D('',#343,#1287,#1288);
#1285=PLANE('',#1286);
#1289=ADVANCED_FACE('',(#1284),#1285,.T.);
#1290=ORIENTED_EDGE('',*,*,#963,.F.);
#1291=ORIENTED_EDGE('',*,*,#680,.F.);
#1292=ORIENTED_EDGE('',*,*,#1151,.F.);
#1293=ORIENTED_EDGE('',*,*,#360,.F.);
#1294=EDGE_LOOP('',(#1290,#1291,#1292,#1293));
#1295=FACE_OUTER_BOUND('',#1294,.T.);
#1298=DIRECTION('',(0.000000,0.000000,-1.000000));
#1299=DIRECTION('',(0.000000,1.000000,0.000000));
#1297=AXIS2_PLACEMENT_3D('',#355,#1298,#1299);
#1296=PLANE('',#1297);
#1300=ADVANCED_FACE('',(#1295),#1296,.T.);
#1301=ORIENTED_EDGE('',*,*,#1155,.F.);
#1302=ORIENTED_EDGE('',*,*,#667,.F.);
#1303=ORIENTED_EDGE('',*,*,#959,.F.);
#1304=ORIENTED_EDGE('',*,*,#372,.F.);
#1305=EDGE_LOOP('',(#1301,#1302,#1303,#1304));
#1306=FACE_OUTER_BOUND('',#1305,.T.);
#1309=DIRECTION('',(0.000000,0.000000,1.000000));
#1310=DIRECTION('',(0.000000,1.000000,0.000000));
#1308=AXIS2_PLACEMENT_3D('',#367,#1309,#1310);
#1307=PLANE('',#1308);
#1311=ADVANCED_FACE('',(#1306),#1307,.T.);
#1312=ORIENTED_EDGE('',*,*,#981,.F.);
#1313=ORIENTED_EDGE('',*,*,#710,.F.);
#1314=ORIENTED_EDGE('',*,*,#1165,.F.);
#1315=ORIENTED_EDGE('',*,*,#384,.F.);
#1316=EDGE_LOOP('',(#1312,#1313,#1314,#1315));
#1317=FACE_OUTER_BOUND('',#1316,.T.);
#1320=DIRECTION('',(0.000000,0.000000,-1.000000));
#1321=DIRECTION('',(0.000000,1.000000,0.000000));
#1319=AXIS2_PLACEMENT_3D('',#379,#1320,#1321);
#1318=PLANE('',#1319);
#1322=ADVANCED_FACE('',(#1317),#1318,.T.);
#1323=ORIENTED_EDGE('',*,*,#1169,.F.);
#1324=ORIENTED_EDGE('',*,*,#697,.F.);
#1325=ORIENTED_EDGE('',*,*,#977,.F.);
#1326=ORIENTED_EDGE('',*,*,#396,.F.);
#1327=EDGE_LOOP('',(#1323,#1324,#1325,#1326));
#1328=FACE_OUTER_BOUND('',#1327,.T.);
#1331=DIRECTION('',(0.000000,0.000000,1.000000));
#1332=DIRECTION('',(0.000000,1.000000,0.000000));
#1330=AXIS2_PLACEMENT_3D('',#391,#1331,#1332);
#1329=PLANE('',#1330);
#1333=ADVANCED_FACE('',(#1328),#1329,.T.);
#1334=ORIENTED_EDGE('',*,*,#999,.F.);
#1335=ORIENTED_EDGE('',*,*,#740,.F.);
#1336=ORIENTED_EDGE('',*,*,#1179,.F.);
#1337=ORIENTED_EDGE('',*,*,#408,.F.);
#1338=EDGE_LOOP('',(#1334,#1335,#1336,#1337));
#1339=FACE_OUTER_BOUND('',#1338,.T.);
#1342=DIRECTION('',(0.000000,0.000000,-1.000000));
#1343=DIRECTION('',(0.000000,1.000000,0.000000));
#1341=AXIS2_PLACEMENT_3D('',#403,#1342,#1343);
#1340=PLANE('',#1341);
#1344=ADVANCED_FACE('',(#1339),#1340,.T.);
#1345=ORIENTED_EDGE('',*,*,#1183,.F.);
#1346=ORIENTED_EDGE('',*,*,#727,.F.);
#1347=ORIENTED_EDGE('',*,*,#995,.F.);
#1348=ORIENTED_EDGE('',*,*,#420,.F.);
#1349=EDGE_LOOP('',(#1345,#1346,#1347,#1348));
#1350=FACE_OUTER_BOUND('',#1349,.T.);
#1353=DIRECTION('',(0.000000,0.000000,1.000000));
#1354=DIRECTION('',(0.000000,1.000000,0.000000));
#1352=AXIS2_PLACEMENT_3D('',#415,#1353,#1354);
#1351=PLANE('',#1352);
#1355=ADVANCED_FACE('',(#1350),#1351,.T.);
#1356=ORIENTED_EDGE('',*,*,#1017,.F.);
#1357=ORIENTED_EDGE('',*,*,#770,.F.);
#1358=ORIENTED_EDGE('',*,*,#1193,.F.);
#1359=ORIENTED_EDGE('',*,*,#432,.F.);
#1360=EDGE_LOOP('',(#1356,#1357,#1358,#1359));
#1361=FACE_OUTER_BOUND('',#1360,.T.);
#1364=DIRECTION('',(0.000000,0.000000,-1.000000));
#1365=DIRECTION('',(0.000000,1.000000,0.000000));
#1363=AXIS2_PLACEMENT_3D('',#427,#1364,#1365);
#1362=PLANE('',#1363);
#1366=ADVANCED_FACE('',(#1361),#1362,.T.);
#1367=ORIENTED_EDGE('',*,*,#1197,.F.);
#1368=ORIENTED_EDGE('',*,*,#757,.F.);
#1369=ORIENTED_EDGE('',*,*,#1013,.F.);
#1370=ORIENTED_EDGE('',*,*,#444,.F.);
#1371=EDGE_LOOP('',(#1367,#1368,#1369,#1370));
#1372=FACE_OUTER_BOUND('',#1371,.T.);
#1375=DIRECTION('',(0.000000,0.000000,1.000000));
#1376=DIRECTION('',(0.000000,1.000000,0.000000));
#1374=AXIS2_PLACEMENT_3D('',#439,#1375,#1376);
#1373=PLANE('',#1374);
#1377=ADVANCED_FACE('',(#1372),#1373,.T.);
#1378=ORIENTED_EDGE('',*,*,#1035,.F.);
#1379=ORIENTED_EDGE('',*,*,#800,.F.);
#1380=ORIENTED_EDGE('',*,*,#1207,.F.);
#1381=ORIENTED_EDGE('',*,*,#456,.F.);
#1382=EDGE_LOOP('',(#1378,#1379,#1380,#1381));
#1383=FACE_OUTER_BOUND('',#1382,.T.);
#1386=DIRECTION('',(0.000000,0.000000,-1.000000));
#1387=DIRECTION('',(0.000000,1.000000,0.000000));
#1385=AXIS2_PLACEMENT_3D('',#451,#1386,#1387);
#1384=PLANE('',#1385);
#1388=ADVANCED_FACE('',(#1383),#1384,.T.);
#1389=ORIENTED_EDGE('',*,*,#1211,.F.);
#1390=ORIENTED_EDGE('',*,*,#787,.F.);
#1391=ORIENTED_EDGE('',*,*,#1031,.F.);
#1392=ORIENTED_EDGE('',*,*,#468,.F.);
#1393=EDGE_LOOP('',(#1389,#1390,#1391,#1392));
#1394=FACE_OUTER_BOUND('',#1393,.T.);
#1397=DIRECTION('',(0.000000,0.000000,1.000000));
#1398=DIRECTION('',(0.000000,1.000000,0.000000));
#1396=AXIS2_PLACEMENT_3D('',#463,#1397,#1398);
#1395=PLANE('',#1396);
#1399=ADVANCED_FACE('',(#1394),#1395,.T.);
#1400=ORIENTED_EDGE('',*,*,#1053,.F.);
#1401=ORIENTED_EDGE('',*,*,#830,.F.);
#1402=ORIENTED_EDGE('',*,*,#1221,.F.);
#1403=ORIENTED_EDGE('',*,*,#480,.F.);
#1404=EDGE_LOOP('',(#1400,#1401,#1402,#1403));
#1405=FACE_OUTER_BOUND('',#1404,.T.);
#1408=DIRECTION('',(0.000000,0.000000,-1.000000));
#1409=DIRECTION('',(0.000000,1.000000,0.000000));
#1407=AXIS2_PLACEMENT_3D('',#475,#1408,#1409);
#1406=PLANE('',#1407);
#1410=ADVANCED_FACE('',(#1405),#1406,.T.);
#1411=ORIENTED_EDGE('',*,*,#1225,.F.);
#1412=ORIENTED_EDGE('',*,*,#817,.F.);
#1413=ORIENTED_EDGE('',*,*,#1049,.F.);
#1414=ORIENTED_EDGE('',*,*,#492,.F.);
#1415=EDGE_LOOP('',(#1411,#1412,#1413,#1414));
#1416=FACE_OUTER_BOUND('',#1415,.T.);
#1419=DIRECTION('',(0.000000,0.000000,1.000000));
#1420=DIRECTION('',(0.000000,1.000000,0.000000));
#1418=AXIS2_PLACEMENT_3D('',#487,#1419,#1420);
#1417=PLANE('',#1418);
#1421=ADVANCED_FACE('',(#1416),#1417,.T.);
#1422=ORIENTED_EDGE('',*,*,#1071,.F.);
#1423=ORIENTED_EDGE('',*,*,#860,.F.);
#1424=ORIENTED_EDGE('',*,*,#1235,.F.);
#1425=ORIENTED_EDGE('',*,*,#504,.F.);
#1426=EDGE_LOOP('',(#1422,#1423,#1424,#1425));
#1427=FACE_OUTER_BOUND('',#1426,.T.);
#1430=DIRECTION('',(0.000000,0.000000,-1.000000));
#1431=DIRECTION('',(0.000000,1.000000,0.000000));
#1429=AXIS2_PLACEMENT_3D('',#499,#1430,#1431);
#1428=PLANE('',#1429);
#1432=ADVANCED_FACE('',(#1427),#1428,.T.);
#1433=ORIENTED_EDGE('',*,*,#1239,.F.);
#1434=ORIENTED_EDGE('',*,*,#847,.F.);
#1435=ORIENTED_EDGE('',*,*,#1067,.F.);
#1436=ORIENTED_EDGE('',*,*,#516,.F.);
#1437=EDGE_LOOP('',(#1433,#1434,#1435,#1436));
#1438=FACE_OUTER_BOUND('',#1437,.T.);
#1441=DIRECTION('',(0.000000,0.000000,1.000000));
#1442=DIRECTION('',(0.000000,1.000000,0.000000));
#1440=AXIS2_PLACEMENT_3D('',#511,#1441,#1442);
#1439=PLANE('',#1440);
#1443=ADVANCED_FACE('',(#1438),#1439,.T.);
#1444=ORIENTED_EDGE('',*,*,#1089,.F.);
#1445=ORIENTED_EDGE('',*,*,#890,.F.);
#1446=ORIENTED_EDGE('',*,*,#1249,.F.);
#1447=ORIENTED_EDGE('',*,*,#528,.F.);
#1448=EDGE_LOOP('',(#1444,#1445,#1446,#1447));
#1449=FACE_OUTER_BOUND('',#1448,.T.);
#1452=DIRECTION('',(0.000000,0.000000,-1.000000));
#1453=DIRECTION('',(0.000000,1.000000,0.000000));
#1451=AXIS2_PLACEMENT_3D('',#523,#1452,#1453);
#1450=PLANE('',#1451);
#1454=ADVANCED_FACE('',(#1449),#1450,.T.);
#1455=ORIENTED_EDGE('',*,*,#1253,.F.);
#1456=ORIENTED_EDGE('',*,*,#877,.F.);
#1457=ORIENTED_EDGE('',*,*,#1085,.F.);
#1458=ORIENTED_EDGE('',*,*,#540,.F.);
#1459=EDGE_LOOP('',(#1455,#1456,#1457,#1458));
#1460=FACE_OUTER_BOUND('',#1459,.T.);
#1463=DIRECTION('',(0.000000,0.000000,1.000000));
#1464=DIRECTION('',(0.000000,1.000000,0.000000));
#1462=AXIS2_PLACEMENT_3D('',#535,#1463,#1464);
#1461=PLANE('',#1462);
#1465=ADVANCED_FACE('',(#1460),#1461,.T.);
#1466=ORIENTED_EDGE('',*,*,#1107,.F.);
#1467=ORIENTED_EDGE('',*,*,#920,.F.);
#1468=ORIENTED_EDGE('',*,*,#1263,.F.);
#1469=ORIENTED_EDGE('',*,*,#552,.F.);
#1470=EDGE_LOOP('',(#1466,#1467,#1468,#1469));
#1471=FACE_OUTER_BOUND('',#1470,.T.);
#1474=DIRECTION('',(0.000000,0.000000,-1.000000));
#1475=DIRECTION('',(0.000000,1.000000,0.000000));
#1473=AXIS2_PLACEMENT_3D('',#547,#1474,#1475);
#1472=PLANE('',#1473);
#1476=ADVANCED_FACE('',(#1471),#1472,.T.);
#1477=ORIENTED_EDGE('',*,*,#1267,.F.);
#1478=ORIENTED_EDGE('',*,*,#907,.F.);
#1479=ORIENTED_EDGE('',*,*,#1103,.F.);
#1480=ORIENTED_EDGE('',*,*,#564,.F.);
#1481=EDGE_LOOP('',(#1477,#1478,#1479,#1480));
#1482=FACE_OUTER_BOUND('',#1481,.T.);
#1485=DIRECTION('',(0.000000,0.000000,1.000000));
#1486=DIRECTION('',(0.000000,1.000000,0.000000));
#1484=AXIS2_PLACEMENT_3D('',#559,#1485,#1486);
#1483=PLANE('',#1484);
#1487=ADVANCED_FACE('',(#1482),#1483,.T.);
#1488=CLOSED_SHELL('',(#36,#102,#138,#165,#192,#225,#278,#324,#632,#937,#1122,#1137,#1278,#1289,#1300,#1311,#1322,#1333,#1344,#1355,#1366,#1377,#1388,#1399,#1410,#1421,#1432,#1443,#1454,#1465,#1476,#1487));
#1489=MANIFOLD_SOLID_BREP('CV-LBP18-F60-054 — Tira telescópica BR_3002 84×38×3 (10 ranuras 11×20)',#1488);
#1491=CARTESIAN_POINT('',(0.0000,0.0000,0.0000));
#1492=DIRECTION('',(0.000000,0.000000,1.000000));
#1493=DIRECTION('',(1.000000,0.000000,0.000000));
#1490=AXIS2_PLACEMENT_3D('',#1491,#1492,#1493);
#1494=( LENGTH_UNIT() NAMED_UNIT(*) SI_UNIT(.MILLI.,.METRE.) );
#1495=( NAMED_UNIT(*) PLANE_ANGLE_UNIT() SI_UNIT($,.RADIAN.) );
#1496=( NAMED_UNIT(*) SI_UNIT($,.STERADIAN.) SOLID_ANGLE_UNIT() );
#1497=UNCERTAINTY_MEASURE_WITH_UNIT(LENGTH_MEASURE(0.01),#1494,'distance_accuracy_value','');
#1498=( GEOMETRIC_REPRESENTATION_CONTEXT(3) GLOBAL_UNCERTAINTY_ASSIGNED_CONTEXT((#1497)) GLOBAL_UNIT_ASSIGNED_CONTEXT((#1494,#1495,#1496)) REPRESENTATION_CONTEXT('','3D') );
#1499=ADVANCED_BREP_SHAPE_REPRESENTATION('CV-LBP18-F60-054 — Tira telescópica BR_3002 84×38×3 (10 ranuras 11×20)',(#1490,#1489),#1498);
ENDSEC;
END-ISO-10303-21;
