ISO-10303-21;
HEADER;
FILE_DESCRIPTION(('CV-LBP18-F30-019 — Travesaño de patas B_002A canal 71×38×3 (L=470)'),'2;1');
FILE_NAME('CV-LBP18-F30-019 — Travesaño de patas B_002A canal 71×38×3 (L=470)','2026-08-19T00:00:00',('ConveyOne SpA'),('ConveyOne SpA'),'ConveyOne CAD','step_export.mjs','');
FILE_SCHEMA(('CONFIG_CONTROL_DESIGN'));
ENDSEC;
DATA;
#2=DIRECTION('',(0.000000,-1.000000,0.000000));
#1=VECTOR('',#2,470.000000);
#4=CARTESIAN_POINT('',(737.1700,235.0000,-569.3000));
#3=LINE('',#4,#1);
#6=VERTEX_POINT('',#4);
#7=CARTESIAN_POINT('',(737.1700,-235.0000,-569.3000));
#8=VERTEX_POINT('',#7);
#5=EDGE_CURVE('',#6,#8,#3,.T.);
#10=DIRECTION('',(0.000000,0.000000,-1.000000));
#9=VECTOR('',#10,38.000000);
#11=LINE('',#7,#9);
#13=CARTESIAN_POINT('',(737.1700,-235.0000,-607.3000));
#14=VERTEX_POINT('',#13);
#12=EDGE_CURVE('',#8,#14,#11,.T.);
#16=DIRECTION('',(0.000000,1.000000,0.000000));
#15=VECTOR('',#16,470.000000);
#17=LINE('',#13,#15);
#19=CARTESIAN_POINT('',(737.1700,235.0000,-607.3000));
#20=VERTEX_POINT('',#19);
#18=EDGE_CURVE('',#14,#20,#17,.T.);
#22=DIRECTION('',(0.000000,0.000000,1.000000));
#21=VECTOR('',#22,38.000000);
#23=LINE('',#19,#21);
#24=EDGE_CURVE('',#20,#6,#23,.T.);
#25=ORIENTED_EDGE('',*,*,#5,.T.);
#26=ORIENTED_EDGE('',*,*,#12,.T.);
#27=ORIENTED_EDGE('',*,*,#18,.T.);
#28=ORIENTED_EDGE('',*,*,#24,.T.);
#29=EDGE_LOOP('',(#25,#26,#27,#28));
#30=FACE_OUTER_BOUND('',#29,.T.);
#33=DIRECTION('',(1.000000,0.000000,0.000000));
#34=DIRECTION('',(0.000000,-1.000000,0.000000));
#32=AXIS2_PLACEMENT_3D('',#4,#33,#34);
#31=PLANE('',#32);
#35=ADVANCED_FACE('',(#30),#31,.T.);
#37=DIRECTION('',(0.000000,0.000000,-1.000000));
#36=VECTOR('',#37,38.000000);
#39=CARTESIAN_POINT('',(666.1700,235.0000,-569.3000));
#38=LINE('',#39,#36);
#41=VERTEX_POINT('',#39);
#42=CARTESIAN_POINT('',(666.1700,235.0000,-607.3000));
#43=VERTEX_POINT('',#42);
#40=EDGE_CURVE('',#41,#43,#38,.T.);
#45=DIRECTION('',(0.000000,-1.000000,0.000000));
#44=VECTOR('',#45,470.000000);
#46=LINE('',#42,#44);
#48=CARTESIAN_POINT('',(666.1700,-235.0000,-607.3000));
#49=VERTEX_POINT('',#48);
#47=EDGE_CURVE('',#43,#49,#46,.T.);
#51=DIRECTION('',(0.000000,0.000000,1.000000));
#50=VECTOR('',#51,38.000000);
#52=LINE('',#48,#50);
#54=CARTESIAN_POINT('',(666.1700,-235.0000,-569.3000));
#55=VERTEX_POINT('',#54);
#53=EDGE_CURVE('',#49,#55,#52,.T.);
#57=DIRECTION('',(0.000000,1.000000,0.000000));
#56=VECTOR('',#57,470.000000);
#58=LINE('',#54,#56);
#59=EDGE_CURVE('',#55,#41,#58,.T.);
#60=ORIENTED_EDGE('',*,*,#40,.T.);
#61=ORIENTED_EDGE('',*,*,#47,.T.);
#62=ORIENTED_EDGE('',*,*,#53,.T.);
#63=ORIENTED_EDGE('',*,*,#59,.T.);
#64=EDGE_LOOP('',(#60,#61,#62,#63));
#65=FACE_OUTER_BOUND('',#64,.T.);
#68=DIRECTION('',(-1.000000,0.000000,0.000000));
#69=DIRECTION('',(0.000000,0.000000,-1.000000));
#67=AXIS2_PLACEMENT_3D('',#39,#68,#69);
#66=PLANE('',#67);
#70=ADVANCED_FACE('',(#65),#66,.T.);
#72=DIRECTION('',(0.000000,0.000000,1.000000));
#71=VECTOR('',#72,3.000000);
#74=CARTESIAN_POINT('',(666.1700,235.0000,-572.3000));
#73=LINE('',#74,#71);
#76=VERTEX_POINT('',#74);
#75=EDGE_CURVE('',#76,#41,#73,.T.);
#78=DIRECTION('',(1.000000,0.000000,0.000000));
#77=VECTOR('',#78,71.000000);
#79=LINE('',#39,#77);
#80=EDGE_CURVE('',#41,#6,#79,.T.);
#82=DIRECTION('',(0.000000,0.000000,-1.000000));
#81=VECTOR('',#82,3.000000);
#83=LINE('',#4,#81);
#85=CARTESIAN_POINT('',(737.1700,235.0000,-572.3000));
#86=VERTEX_POINT('',#85);
#84=EDGE_CURVE('',#6,#86,#83,.T.);
#88=DIRECTION('',(-1.000000,0.000000,0.000000));
#87=VECTOR('',#88,71.000000);
#89=LINE('',#85,#87);
#90=EDGE_CURVE('',#86,#76,#89,.T.);
#91=ORIENTED_EDGE('',*,*,#75,.T.);
#92=ORIENTED_EDGE('',*,*,#80,.T.);
#93=ORIENTED_EDGE('',*,*,#84,.T.);
#94=ORIENTED_EDGE('',*,*,#90,.T.);
#95=EDGE_LOOP('',(#91,#92,#93,#94));
#96=FACE_OUTER_BOUND('',#95,.T.);
#98=DIRECTION('',(0.000000,0.000000,1.000000));
#97=VECTOR('',#98,35.000000);
#99=LINE('',#42,#97);
#100=EDGE_CURVE('',#43,#76,#99,.T.);
#102=DIRECTION('',(1.000000,0.000000,0.000000));
#101=VECTOR('',#102,3.000000);
#103=LINE('',#74,#101);
#105=CARTESIAN_POINT('',(669.1700,235.0000,-572.3000));
#106=VERTEX_POINT('',#105);
#104=EDGE_CURVE('',#76,#106,#103,.T.);
#108=DIRECTION('',(0.000000,0.000000,-1.000000));
#107=VECTOR('',#108,35.000000);
#109=LINE('',#105,#107);
#111=CARTESIAN_POINT('',(669.1700,235.0000,-607.3000));
#112=VERTEX_POINT('',#111);
#110=EDGE_CURVE('',#106,#112,#109,.T.);
#114=DIRECTION('',(-1.000000,0.000000,0.000000));
#113=VECTOR('',#114,3.000000);
#115=LINE('',#111,#113);
#116=EDGE_CURVE('',#112,#43,#115,.T.);
#117=ORIENTED_EDGE('',*,*,#100,.T.);
#118=ORIENTED_EDGE('',*,*,#104,.T.);
#119=ORIENTED_EDGE('',*,*,#110,.T.);
#120=ORIENTED_EDGE('',*,*,#116,.T.);
#121=EDGE_LOOP('',(#117,#118,#119,#120));
#122=FACE_BOUND('',#121,.T.);
#124=DIRECTION('',(0.000000,0.000000,1.000000));
#123=VECTOR('',#124,35.000000);
#126=CARTESIAN_POINT('',(734.1700,235.0000,-607.3000));
#125=LINE('',#126,#123);
#128=VERTEX_POINT('',#126);
#129=CARTESIAN_POINT('',(734.1700,235.0000,-572.3000));
#130=VERTEX_POINT('',#129);
#127=EDGE_CURVE('',#128,#130,#125,.T.);
#132=DIRECTION('',(1.000000,0.000000,0.000000));
#131=VECTOR('',#132,3.000000);
#133=LINE('',#129,#131);
#134=EDGE_CURVE('',#130,#86,#133,.T.);
#136=DIRECTION('',(0.000000,0.000000,-1.000000));
#135=VECTOR('',#136,35.000000);
#137=LINE('',#85,#135);
#138=EDGE_CURVE('',#86,#20,#137,.T.);
#140=DIRECTION('',(-1.000000,0.000000,0.000000));
#139=VECTOR('',#140,3.000000);
#141=LINE('',#19,#139);
#142=EDGE_CURVE('',#20,#128,#141,.T.);
#143=ORIENTED_EDGE('',*,*,#127,.T.);
#144=ORIENTED_EDGE('',*,*,#134,.T.);
#145=ORIENTED_EDGE('',*,*,#138,.T.);
#146=ORIENTED_EDGE('',*,*,#142,.T.);
#147=EDGE_LOOP('',(#143,#144,#145,#146));
#148=FACE_BOUND('',#147,.T.);
#151=DIRECTION('',(0.000000,1.000000,0.000000));
#152=DIRECTION('',(0.000000,0.000000,1.000000));
#150=AXIS2_PLACEMENT_3D('',#74,#151,#152);
#149=PLANE('',#150);
#153=ADVANCED_FACE('',(#96,#122,#148),#149,.T.);
#155=DIRECTION('',(0.000000,0.000000,-1.000000));
#154=VECTOR('',#155,3.000000);
#156=LINE('',#54,#154);
#158=CARTESIAN_POINT('',(666.1700,-235.0000,-572.3000));
#159=VERTEX_POINT('',#158);
#157=EDGE_CURVE('',#55,#159,#156,.T.);
#161=DIRECTION('',(1.000000,0.000000,0.000000));
#160=VECTOR('',#161,68.000000);
#162=LINE('',#158,#160);
#164=CARTESIAN_POINT('',(734.1700,-235.0000,-572.3000));
#165=VERTEX_POINT('',#164);
#163=EDGE_CURVE('',#159,#165,#162,.T.);
#167=DIRECTION('',(0.000000,0.000000,-1.000000));
#166=VECTOR('',#167,35.000000);
#168=LINE('',#164,#166);
#170=CARTESIAN_POINT('',(734.1700,-235.0000,-607.3000));
#171=VERTEX_POINT('',#170);
#169=EDGE_CURVE('',#165,#171,#168,.T.);
#173=DIRECTION('',(1.000000,0.000000,0.000000));
#172=VECTOR('',#173,3.000000);
#174=LINE('',#170,#172);
#175=EDGE_CURVE('',#171,#14,#174,.T.);
#177=DIRECTION('',(-1.000000,0.000000,0.000000));
#176=VECTOR('',#177,71.000000);
#178=LINE('',#7,#176);
#179=EDGE_CURVE('',#8,#55,#178,.T.);
#180=ORIENTED_EDGE('',*,*,#157,.T.);
#181=ORIENTED_EDGE('',*,*,#163,.T.);
#182=ORIENTED_EDGE('',*,*,#169,.T.);
#183=ORIENTED_EDGE('',*,*,#175,.T.);
#184=ORIENTED_EDGE('',*,*,#12,.F.);
#185=ORIENTED_EDGE('',*,*,#179,.T.);
#186=EDGE_LOOP('',(#180,#181,#182,#183,#184,#185));
#187=FACE_OUTER_BOUND('',#186,.T.);
#189=DIRECTION('',(0.000000,0.000000,-1.000000));
#188=VECTOR('',#189,35.000000);
#190=LINE('',#158,#188);
#191=EDGE_CURVE('',#159,#49,#190,.T.);
#193=DIRECTION('',(1.000000,0.000000,0.000000));
#192=VECTOR('',#193,3.000000);
#194=LINE('',#48,#192);
#196=CARTESIAN_POINT('',(669.1700,-235.0000,-607.3000));
#197=VERTEX_POINT('',#196);
#195=EDGE_CURVE('',#49,#197,#194,.T.);
#199=DIRECTION('',(0.000000,0.000000,1.000000));
#198=VECTOR('',#199,35.000000);
#200=LINE('',#196,#198);
#202=CARTESIAN_POINT('',(669.1700,-235.0000,-572.3000));
#203=VERTEX_POINT('',#202);
#201=EDGE_CURVE('',#197,#203,#200,.T.);
#205=DIRECTION('',(-1.000000,0.000000,0.000000));
#204=VECTOR('',#205,3.000000);
#206=LINE('',#202,#204);
#207=EDGE_CURVE('',#203,#159,#206,.T.);
#208=ORIENTED_EDGE('',*,*,#191,.T.);
#209=ORIENTED_EDGE('',*,*,#195,.T.);
#210=ORIENTED_EDGE('',*,*,#201,.T.);
#211=ORIENTED_EDGE('',*,*,#207,.T.);
#212=EDGE_LOOP('',(#208,#209,#210,#211));
#213=FACE_BOUND('',#212,.T.);
#216=DIRECTION('',(0.000000,-1.000000,0.000000));
#217=DIRECTION('',(0.000000,0.000000,-1.000000));
#215=AXIS2_PLACEMENT_3D('',#54,#216,#217);
#214=PLANE('',#215);
#218=ADVANCED_FACE('',(#187,#213),#214,.T.);
#219=ORIENTED_EDGE('',*,*,#59,.F.);
#220=ORIENTED_EDGE('',*,*,#179,.F.);
#221=ORIENTED_EDGE('',*,*,#5,.F.);
#222=ORIENTED_EDGE('',*,*,#80,.F.);
#223=EDGE_LOOP('',(#219,#220,#221,#222));
#224=FACE_OUTER_BOUND('',#223,.T.);
#226=DIRECTION('',(0.000000,-1.000000,0.000000));
#225=VECTOR('',#226,3.000000);
#228=CARTESIAN_POINT('',(696.1700,-235.0000,-569.3000));
#227=LINE('',#228,#225);
#230=VERTEX_POINT('',#228);
#231=CARTESIAN_POINT('',(696.1700,-238.0000,-569.3000));
#232=VERTEX_POINT('',#231);
#229=EDGE_CURVE('',#230,#232,#227,.T.);
#234=DIRECTION('',(1.000000,0.000000,0.000000));
#233=VECTOR('',#234,11.000000);
#235=LINE('',#231,#233);
#237=CARTESIAN_POINT('',(707.1700,-238.0000,-569.3000));
#238=VERTEX_POINT('',#237);
#236=EDGE_CURVE('',#232,#238,#235,.T.);
#240=DIRECTION('',(0.000000,1.000000,0.000000));
#239=VECTOR('',#240,3.000000);
#241=LINE('',#237,#239);
#243=CARTESIAN_POINT('',(707.1700,-235.0000,-569.3000));
#244=VERTEX_POINT('',#243);
#242=EDGE_CURVE('',#238,#244,#241,.T.);
#246=DIRECTION('',(-1.000000,0.000000,0.000000));
#245=VECTOR('',#246,11.000000);
#247=LINE('',#243,#245);
#248=EDGE_CURVE('',#244,#230,#247,.T.);
#249=ORIENTED_EDGE('',*,*,#229,.T.);
#250=ORIENTED_EDGE('',*,*,#236,.T.);
#251=ORIENTED_EDGE('',*,*,#242,.T.);
#252=ORIENTED_EDGE('',*,*,#248,.T.);
#253=EDGE_LOOP('',(#249,#250,#251,#252));
#254=FACE_BOUND('',#253,.T.);
#256=DIRECTION('',(0.000000,-1.000000,0.000000));
#255=VECTOR('',#256,3.000000);
#258=CARTESIAN_POINT('',(696.1700,238.0000,-569.3000));
#257=LINE('',#258,#255);
#260=VERTEX_POINT('',#258);
#261=CARTESIAN_POINT('',(696.1700,235.0000,-569.3000));
#262=VERTEX_POINT('',#261);
#259=EDGE_CURVE('',#260,#262,#257,.T.);
#264=DIRECTION('',(1.000000,0.000000,0.000000));
#263=VECTOR('',#264,11.000000);
#265=LINE('',#261,#263);
#267=CARTESIAN_POINT('',(707.1700,235.0000,-569.3000));
#268=VERTEX_POINT('',#267);
#266=EDGE_CURVE('',#262,#268,#265,.T.);
#270=DIRECTION('',(0.000000,1.000000,0.000000));
#269=VECTOR('',#270,3.000000);
#271=LINE('',#267,#269);
#273=CARTESIAN_POINT('',(707.1700,238.0000,-569.3000));
#274=VERTEX_POINT('',#273);
#272=EDGE_CURVE('',#268,#274,#271,.T.);
#276=DIRECTION('',(-1.000000,0.000000,0.000000));
#275=VECTOR('',#276,11.000000);
#277=LINE('',#273,#275);
#278=EDGE_CURVE('',#274,#260,#277,.T.);
#279=ORIENTED_EDGE('',*,*,#259,.T.);
#280=ORIENTED_EDGE('',*,*,#266,.T.);
#281=ORIENTED_EDGE('',*,*,#272,.T.);
#282=ORIENTED_EDGE('',*,*,#278,.T.);
#283=EDGE_LOOP('',(#279,#280,#281,#282));
#284=FACE_BOUND('',#283,.T.);
#287=DIRECTION('',(0.000000,0.000000,1.000000));
#288=DIRECTION('',(0.000000,-1.000000,0.000000));
#286=AXIS2_PLACEMENT_3D('',#39,#287,#288);
#285=PLANE('',#286);
#289=ADVANCED_FACE('',(#224,#254,#284),#285,.T.);
#291=DIRECTION('',(0.000000,-1.000000,0.000000));
#290=VECTOR('',#291,470.000000);
#292=LINE('',#85,#290);
#294=CARTESIAN_POINT('',(737.1700,-235.0000,-572.3000));
#295=VERTEX_POINT('',#294);
#293=EDGE_CURVE('',#86,#295,#292,.T.);
#297=DIRECTION('',(-1.000000,0.000000,0.000000));
#296=VECTOR('',#297,71.000000);
#298=LINE('',#294,#296);
#299=EDGE_CURVE('',#295,#159,#298,.T.);
#301=DIRECTION('',(0.000000,1.000000,0.000000));
#300=VECTOR('',#301,470.000000);
#302=LINE('',#158,#300);
#303=EDGE_CURVE('',#159,#76,#302,.T.);
#304=ORIENTED_EDGE('',*,*,#293,.T.);
#305=ORIENTED_EDGE('',*,*,#299,.T.);
#306=ORIENTED_EDGE('',*,*,#303,.T.);
#307=ORIENTED_EDGE('',*,*,#90,.F.);
#308=EDGE_LOOP('',(#304,#305,#306,#307));
#309=FACE_OUTER_BOUND('',#308,.T.);
#311=DIRECTION('',(0.000000,-1.000000,0.000000));
#310=VECTOR('',#311,3.000000);
#313=CARTESIAN_POINT('',(707.1700,-235.0000,-572.3000));
#312=LINE('',#313,#310);
#315=VERTEX_POINT('',#313);
#316=CARTESIAN_POINT('',(707.1700,-238.0000,-572.3000));
#317=VERTEX_POINT('',#316);
#314=EDGE_CURVE('',#315,#317,#312,.T.);
#319=DIRECTION('',(-1.000000,0.000000,0.000000));
#318=VECTOR('',#319,11.000000);
#320=LINE('',#316,#318);
#322=CARTESIAN_POINT('',(696.1700,-238.0000,-572.3000));
#323=VERTEX_POINT('',#322);
#321=EDGE_CURVE('',#317,#323,#320,.T.);
#325=DIRECTION('',(0.000000,1.000000,0.000000));
#324=VECTOR('',#325,3.000000);
#326=LINE('',#322,#324);
#328=CARTESIAN_POINT('',(696.1700,-235.0000,-572.3000));
#329=VERTEX_POINT('',#328);
#327=EDGE_CURVE('',#323,#329,#326,.T.);
#331=DIRECTION('',(1.000000,0.000000,0.000000));
#330=VECTOR('',#331,11.000000);
#332=LINE('',#328,#330);
#333=EDGE_CURVE('',#329,#315,#332,.T.);
#334=ORIENTED_EDGE('',*,*,#314,.T.);
#335=ORIENTED_EDGE('',*,*,#321,.T.);
#336=ORIENTED_EDGE('',*,*,#327,.T.);
#337=ORIENTED_EDGE('',*,*,#333,.T.);
#338=EDGE_LOOP('',(#334,#335,#336,#337));
#339=FACE_BOUND('',#338,.T.);
#341=DIRECTION('',(0.000000,-1.000000,0.000000));
#340=VECTOR('',#341,3.000000);
#343=CARTESIAN_POINT('',(707.1700,238.0000,-572.3000));
#342=LINE('',#343,#340);
#345=VERTEX_POINT('',#343);
#346=CARTESIAN_POINT('',(707.1700,235.0000,-572.3000));
#347=VERTEX_POINT('',#346);
#344=EDGE_CURVE('',#345,#347,#342,.T.);
#349=DIRECTION('',(-1.000000,0.000000,0.000000));
#348=VECTOR('',#349,11.000000);
#350=LINE('',#346,#348);
#352=CARTESIAN_POINT('',(696.1700,235.0000,-572.3000));
#353=VERTEX_POINT('',#352);
#351=EDGE_CURVE('',#347,#353,#350,.T.);
#355=DIRECTION('',(0.000000,1.000000,0.000000));
#354=VECTOR('',#355,3.000000);
#356=LINE('',#352,#354);
#358=CARTESIAN_POINT('',(696.1700,238.0000,-572.3000));
#359=VERTEX_POINT('',#358);
#357=EDGE_CURVE('',#353,#359,#356,.T.);
#361=DIRECTION('',(1.000000,0.000000,0.000000));
#360=VECTOR('',#361,11.000000);
#362=LINE('',#358,#360);
#363=EDGE_CURVE('',#359,#345,#362,.T.);
#364=ORIENTED_EDGE('',*,*,#344,.T.);
#365=ORIENTED_EDGE('',*,*,#351,.T.);
#366=ORIENTED_EDGE('',*,*,#357,.T.);
#367=ORIENTED_EDGE('',*,*,#363,.T.);
#368=EDGE_LOOP('',(#364,#365,#366,#367));
#369=FACE_BOUND('',#368,.T.);
#372=DIRECTION('',(0.000000,0.000000,-1.000000));
#373=DIRECTION('',(0.000000,-1.000000,0.000000));
#371=AXIS2_PLACEMENT_3D('',#85,#372,#373);
#370=PLANE('',#371);
#374=ADVANCED_FACE('',(#309,#339,#369),#370,.T.);
#376=DIRECTION('',(0.000000,-1.000000,0.000000));
#375=VECTOR('',#376,470.000000);
#377=LINE('',#105,#375);
#378=EDGE_CURVE('',#106,#203,#377,.T.);
#380=DIRECTION('',(0.000000,1.000000,0.000000));
#379=VECTOR('',#380,470.000000);
#381=LINE('',#196,#379);
#382=EDGE_CURVE('',#197,#112,#381,.T.);
#383=ORIENTED_EDGE('',*,*,#378,.T.);
#384=ORIENTED_EDGE('',*,*,#201,.F.);
#385=ORIENTED_EDGE('',*,*,#382,.T.);
#386=ORIENTED_EDGE('',*,*,#110,.F.);
#387=EDGE_LOOP('',(#383,#384,#385,#386));
#388=FACE_OUTER_BOUND('',#387,.T.);
#391=DIRECTION('',(1.000000,0.000000,0.000000));
#392=DIRECTION('',(0.000000,-1.000000,0.000000));
#390=AXIS2_PLACEMENT_3D('',#105,#391,#392);
#389=PLANE('',#390);
#393=ADVANCED_FACE('',(#388),#389,.T.);
#394=ORIENTED_EDGE('',*,*,#303,.F.);
#395=ORIENTED_EDGE('',*,*,#207,.F.);
#396=ORIENTED_EDGE('',*,*,#378,.F.);
#397=ORIENTED_EDGE('',*,*,#104,.F.);
#398=EDGE_LOOP('',(#394,#395,#396,#397));
#399=FACE_OUTER_BOUND('',#398,.T.);
#401=DIRECTION('',(0.000000,-1.000000,0.000000));
#400=VECTOR('',#401,470.000000);
#402=LINE('',#129,#400);
#403=EDGE_CURVE('',#130,#165,#402,.T.);
#405=DIRECTION('',(1.000000,0.000000,0.000000));
#404=VECTOR('',#405,3.000000);
#406=LINE('',#164,#404);
#407=EDGE_CURVE('',#165,#295,#406,.T.);
#408=ORIENTED_EDGE('',*,*,#403,.T.);
#409=ORIENTED_EDGE('',*,*,#407,.T.);
#410=ORIENTED_EDGE('',*,*,#293,.F.);
#411=ORIENTED_EDGE('',*,*,#134,.F.);
#412=EDGE_LOOP('',(#408,#409,#410,#411));
#413=FACE_BOUND('',#412,.T.);
#416=DIRECTION('',(0.000000,0.000000,1.000000));
#417=DIRECTION('',(0.000000,-1.000000,0.000000));
#415=AXIS2_PLACEMENT_3D('',#74,#416,#417);
#414=PLANE('',#415);
#418=ADVANCED_FACE('',(#399,#413),#414,.T.);
#419=ORIENTED_EDGE('',*,*,#382,.F.);
#420=ORIENTED_EDGE('',*,*,#195,.F.);
#421=ORIENTED_EDGE('',*,*,#47,.F.);
#422=ORIENTED_EDGE('',*,*,#116,.F.);
#423=EDGE_LOOP('',(#419,#420,#421,#422));
#424=FACE_OUTER_BOUND('',#423,.T.);
#426=DIRECTION('',(0.000000,1.000000,0.000000));
#425=VECTOR('',#426,470.000000);
#427=LINE('',#170,#425);
#428=EDGE_CURVE('',#171,#128,#427,.T.);
#429=ORIENTED_EDGE('',*,*,#18,.F.);
#430=ORIENTED_EDGE('',*,*,#175,.F.);
#431=ORIENTED_EDGE('',*,*,#428,.T.);
#432=ORIENTED_EDGE('',*,*,#142,.F.);
#433=EDGE_LOOP('',(#429,#430,#431,#432));
#434=FACE_BOUND('',#433,.T.);
#437=DIRECTION('',(0.000000,0.000000,-1.000000));
#438=DIRECTION('',(0.000000,-1.000000,0.000000));
#436=AXIS2_PLACEMENT_3D('',#111,#437,#438);
#435=PLANE('',#436);
#439=ADVANCED_FACE('',(#424,#434),#435,.T.);
#440=ORIENTED_EDGE('',*,*,#428,.F.);
#441=ORIENTED_EDGE('',*,*,#169,.F.);
#442=ORIENTED_EDGE('',*,*,#403,.F.);
#443=ORIENTED_EDGE('',*,*,#127,.F.);
#444=EDGE_LOOP('',(#440,#441,#442,#443));
#445=FACE_OUTER_BOUND('',#444,.T.);
#448=DIRECTION('',(-1.000000,0.000000,0.000000));
#449=DIRECTION('',(0.000000,-1.000000,0.000000));
#447=AXIS2_PLACEMENT_3D('',#126,#448,#449);
#446=PLANE('',#447);
#450=ADVANCED_FACE('',(#445),#446,.T.);
#452=DIRECTION('',(0.000000,0.000000,-1.000000));
#451=VECTOR('',#452,3.000000);
#453=LINE('',#237,#451);
#454=EDGE_CURVE('',#238,#317,#453,.T.);
#456=DIRECTION('',(0.000000,0.000000,1.000000));
#455=VECTOR('',#456,3.000000);
#457=LINE('',#313,#455);
#458=EDGE_CURVE('',#315,#244,#457,.T.);
#459=ORIENTED_EDGE('',*,*,#242,.F.);
#460=ORIENTED_EDGE('',*,*,#454,.T.);
#461=ORIENTED_EDGE('',*,*,#314,.F.);
#462=ORIENTED_EDGE('',*,*,#458,.T.);
#463=EDGE_LOOP('',(#459,#460,#461,#462));
#464=FACE_OUTER_BOUND('',#463,.T.);
#466=DIRECTION('',(0.000000,0.000000,-1.000000));
#465=VECTOR('',#466,3.000000);
#467=LINE('',#267,#465);
#468=EDGE_CURVE('',#268,#347,#467,.T.);
#470=DIRECTION('',(0.000000,0.000000,1.000000));
#469=VECTOR('',#470,3.000000);
#471=LINE('',#343,#469);
#472=EDGE_CURVE('',#345,#274,#471,.T.);
#473=ORIENTED_EDGE('',*,*,#272,.F.);
#474=ORIENTED_EDGE('',*,*,#468,.T.);
#475=ORIENTED_EDGE('',*,*,#344,.F.);
#476=ORIENTED_EDGE('',*,*,#472,.T.);
#477=EDGE_LOOP('',(#473,#474,#475,#476));
#478=FACE_BOUND('',#477,.T.);
#481=DIRECTION('',(1.000000,0.000000,0.000000));
#482=DIRECTION('',(0.000000,-1.000000,0.000000));
#480=AXIS2_PLACEMENT_3D('',#243,#481,#482);
#479=PLANE('',#480);
#483=ADVANCED_FACE('',(#464,#478),#479,.T.);
#485=DIRECTION('',(0.000000,0.000000,1.000000));
#484=VECTOR('',#485,3.000000);
#486=LINE('',#322,#484);
#487=EDGE_CURVE('',#323,#232,#486,.T.);
#489=DIRECTION('',(0.000000,0.000000,-1.000000));
#488=VECTOR('',#489,3.000000);
#490=LINE('',#228,#488);
#491=EDGE_CURVE('',#230,#329,#490,.T.);
#492=ORIENTED_EDGE('',*,*,#327,.F.);
#493=ORIENTED_EDGE('',*,*,#487,.T.);
#494=ORIENTED_EDGE('',*,*,#229,.F.);
#495=ORIENTED_EDGE('',*,*,#491,.T.);
#496=EDGE_LOOP('',(#492,#493,#494,#495));
#497=FACE_OUTER_BOUND('',#496,.T.);
#499=DIRECTION('',(0.000000,0.000000,1.000000));
#498=VECTOR('',#499,3.000000);
#500=LINE('',#352,#498);
#501=EDGE_CURVE('',#353,#262,#500,.T.);
#503=DIRECTION('',(0.000000,0.000000,-1.000000));
#502=VECTOR('',#503,3.000000);
#504=LINE('',#258,#502);
#505=EDGE_CURVE('',#260,#359,#504,.T.);
#506=ORIENTED_EDGE('',*,*,#357,.F.);
#507=ORIENTED_EDGE('',*,*,#501,.T.);
#508=ORIENTED_EDGE('',*,*,#259,.F.);
#509=ORIENTED_EDGE('',*,*,#505,.T.);
#510=EDGE_LOOP('',(#506,#507,#508,#509));
#511=FACE_BOUND('',#510,.T.);
#514=DIRECTION('',(-1.000000,0.000000,0.000000));
#515=DIRECTION('',(0.000000,-1.000000,0.000000));
#513=AXIS2_PLACEMENT_3D('',#328,#514,#515);
#512=PLANE('',#513);
#516=ADVANCED_FACE('',(#497,#511),#512,.T.);
#517=ORIENTED_EDGE('',*,*,#491,.F.);
#518=ORIENTED_EDGE('',*,*,#248,.F.);
#519=ORIENTED_EDGE('',*,*,#458,.F.);
#520=ORIENTED_EDGE('',*,*,#333,.F.);
#521=EDGE_LOOP('',(#517,#518,#519,#520));
#522=FACE_OUTER_BOUND('',#521,.T.);
#525=DIRECTION('',(0.000000,1.000000,0.000000));
#526=DIRECTION('',(0.000000,0.000000,1.000000));
#524=AXIS2_PLACEMENT_3D('',#328,#525,#526);
#523=PLANE('',#524);
#527=ADVANCED_FACE('',(#522),#523,.T.);
#528=ORIENTED_EDGE('',*,*,#487,.F.);
#529=ORIENTED_EDGE('',*,*,#321,.F.);
#530=ORIENTED_EDGE('',*,*,#454,.F.);
#531=ORIENTED_EDGE('',*,*,#236,.F.);
#532=EDGE_LOOP('',(#528,#529,#530,#531));
#533=FACE_OUTER_BOUND('',#532,.T.);
#536=DIRECTION('',(0.000000,-1.000000,0.000000));
#537=DIRECTION('',(0.000000,0.000000,-1.000000));
#535=AXIS2_PLACEMENT_3D('',#231,#536,#537);
#534=PLANE('',#535);
#538=ADVANCED_FACE('',(#533),#534,.T.);
#539=ORIENTED_EDGE('',*,*,#505,.F.);
#540=ORIENTED_EDGE('',*,*,#278,.F.);
#541=ORIENTED_EDGE('',*,*,#472,.F.);
#542=ORIENTED_EDGE('',*,*,#363,.F.);
#543=EDGE_LOOP('',(#539,#540,#541,#542));
#544=FACE_OUTER_BOUND('',#543,.T.);
#547=DIRECTION('',(0.000000,1.000000,0.000000));
#548=DIRECTION('',(0.000000,0.000000,1.000000));
#546=AXIS2_PLACEMENT_3D('',#358,#547,#548);
#545=PLANE('',#546);
#549=ADVANCED_FACE('',(#544),#545,.T.);
#550=ORIENTED_EDGE('',*,*,#501,.F.);
#551=ORIENTED_EDGE('',*,*,#351,.F.);
#552=ORIENTED_EDGE('',*,*,#468,.F.);
#553=ORIENTED_EDGE('',*,*,#266,.F.);
#554=EDGE_LOOP('',(#550,#551,#552,#553));
#555=FACE_OUTER_BOUND('',#554,.T.);
#558=DIRECTION('',(0.000000,-1.000000,0.000000));
#559=DIRECTION('',(0.000000,0.000000,-1.000000));
#557=AXIS2_PLACEMENT_3D('',#261,#558,#559);
#556=PLANE('',#557);
#560=ADVANCED_FACE('',(#555),#556,.T.);
#561=CLOSED_SHELL('',(#35,#70,#153,#218,#289,#374,#393,#418,#439,#450,#483,#516,#527,#538,#549,#560));
#562=MANIFOLD_SOLID_BREP('CV-LBP18-F30-019 — Travesaño de patas B_002A canal 71×38×3 (L=470)',#561);
#564=CARTESIAN_POINT('',(0.0000,0.0000,0.0000));
#565=DIRECTION('',(0.000000,0.000000,1.000000));
#566=DIRECTION('',(1.000000,0.000000,0.000000));
#563=AXIS2_PLACEMENT_3D('',#564,#565,#566);
#567=( LENGTH_UNIT() NAMED_UNIT(*) SI_UNIT(.MILLI.,.METRE.) );
#568=( NAMED_UNIT(*) PLANE_ANGLE_UNIT() SI_UNIT($,.RADIAN.) );
#569=( NAMED_UNIT(*) SI_UNIT($,.STERADIAN.) SOLID_ANGLE_UNIT() );
#570=UNCERTAINTY_MEASURE_WITH_UNIT(LENGTH_MEASURE(0.01),#567,'distance_accuracy_value','');
#571=( GEOMETRIC_REPRESENTATION_CONTEXT(3) GLOBAL_UNCERTAINTY_ASSIGNED_CONTEXT((#570)) GLOBAL_UNIT_ASSIGNED_CONTEXT((#567,#568,#569)) REPRESENTATION_CONTEXT('','3D') );
#572=ADVANCED_BREP_SHAPE_REPRESENTATION('CV-LBP18-F30-019 — Travesaño de patas B_002A canal 71×38×3 (L=470)',(#563,#562),#571);
ENDSEC;
END-ISO-10303-21;
