ISO-10303-21;
HEADER;
FILE_DESCRIPTION(('CV-LBP18-F60-063 — Tira telescópica BR_3002 84×38×3 (10 ranuras 11×20)'),'2;1');
FILE_NAME('CV-LBP18-F60-063 — Tira telescópica BR_3002 84×38×3 (10 ranuras 11×20)','2026-08-19T00:00:00',('ConveyOne SpA'),('ConveyOne SpA'),'ConveyOne CAD','step_export.mjs','');
FILE_SCHEMA(('CONFIG_CONTROL_DESIGN'));
ENDSEC;
DATA;
#2=CARTESIAN_POINT('',(743.6700,-238.0000,-527.0000));
#3=VERTEX_POINT('',#2);
#4=CARTESIAN_POINT('',(743.6700,-240.5000,-527.0000));
#5=VERTEX_POINT('',#4);
#1=EDGE_CURVE('',#3,#5,*,.T.);
#6=ORIENTED_EDGE('',*,*,#1,.T.);
#8=CARTESIAN_POINT('',(743.6700,-241.0000,-527.0000));
#9=VERTEX_POINT('',#8);
#7=EDGE_CURVE('',#5,#9,*,.T.);
#10=ORIENTED_EDGE('',*,*,#7,.T.);
#12=CARTESIAN_POINT('',(743.6700,-241.0000,-896.0000));
#13=VERTEX_POINT('',#12);
#11=EDGE_CURVE('',#9,#13,*,.T.);
#14=ORIENTED_EDGE('',*,*,#11,.T.);
#16=CARTESIAN_POINT('',(743.6700,-240.5000,-896.0000));
#17=VERTEX_POINT('',#16);
#15=EDGE_CURVE('',#13,#17,*,.T.);
#18=ORIENTED_EDGE('',*,*,#15,.T.);
#20=CARTESIAN_POINT('',(743.6700,-238.0000,-896.0000));
#21=VERTEX_POINT('',#20);
#19=EDGE_CURVE('',#17,#21,*,.T.);
#22=ORIENTED_EDGE('',*,*,#19,.T.);
#24=CARTESIAN_POINT('',(743.6700,-203.0000,-896.0000));
#25=VERTEX_POINT('',#24);
#23=EDGE_CURVE('',#21,#25,*,.T.);
#26=ORIENTED_EDGE('',*,*,#23,.T.);
#28=CARTESIAN_POINT('',(743.6700,-203.0000,-527.0000));
#29=VERTEX_POINT('',#28);
#27=EDGE_CURVE('',#25,#29,*,.T.);
#30=ORIENTED_EDGE('',*,*,#27,.T.);
#31=EDGE_CURVE('',#29,#3,*,.T.);
#32=ORIENTED_EDGE('',*,*,#31,.T.);
#33=EDGE_LOOP('',(#6,#10,#14,#18,#22,#26,#30,#32));
#34=FACE_OUTER_BOUND('',#33,.T.);
#35=DIRECTION('',(1.000000,0.000000,0.000000));
#36=DIRECTION('',(0.000000,-1.000000,0.000000));
#37=AXIS2_PLACEMENT_3D('',#2,#35,#36);
#38=PLANE('',#37);
#39=ADVANCED_FACE('',(#34),#38,.T.);
#41=CARTESIAN_POINT('',(659.6700,-238.0000,-896.0000));
#42=VERTEX_POINT('',#41);
#43=CARTESIAN_POINT('',(659.6700,-240.5000,-896.0000));
#44=VERTEX_POINT('',#43);
#40=EDGE_CURVE('',#42,#44,*,.T.);
#45=ORIENTED_EDGE('',*,*,#40,.T.);
#47=CARTESIAN_POINT('',(659.6700,-240.5000,-834.5000));
#48=VERTEX_POINT('',#47);
#46=EDGE_CURVE('',#44,#48,*,.T.);
#49=ORIENTED_EDGE('',*,*,#46,.T.);
#51=CARTESIAN_POINT('',(659.6700,-240.5000,-527.0000));
#52=VERTEX_POINT('',#51);
#50=EDGE_CURVE('',#48,#52,*,.T.);
#53=ORIENTED_EDGE('',*,*,#50,.T.);
#55=CARTESIAN_POINT('',(659.6700,-238.0000,-527.0000));
#56=VERTEX_POINT('',#55);
#54=EDGE_CURVE('',#52,#56,*,.T.);
#57=ORIENTED_EDGE('',*,*,#54,.T.);
#59=CARTESIAN_POINT('',(659.6700,-203.0000,-527.0000));
#60=VERTEX_POINT('',#59);
#58=EDGE_CURVE('',#56,#60,*,.T.);
#61=ORIENTED_EDGE('',*,*,#58,.T.);
#63=CARTESIAN_POINT('',(659.6700,-203.0000,-896.0000));
#64=VERTEX_POINT('',#63);
#62=EDGE_CURVE('',#60,#64,*,.T.);
#65=ORIENTED_EDGE('',*,*,#62,.T.);
#66=EDGE_CURVE('',#64,#42,*,.T.);
#67=ORIENTED_EDGE('',*,*,#66,.T.);
#68=EDGE_LOOP('',(#45,#49,#53,#57,#61,#65,#67));
#69=FACE_OUTER_BOUND('',#68,.T.);
#71=CARTESIAN_POINT('',(659.6700,-240.5000,-868.0000));
#72=VERTEX_POINT('',#71);
#70=EDGE_CURVE('',#72,#44,*,.T.);
#73=ORIENTED_EDGE('',*,*,#70,.T.);
#75=CARTESIAN_POINT('',(659.6700,-241.0000,-896.0000));
#76=VERTEX_POINT('',#75);
#74=EDGE_CURVE('',#44,#76,*,.T.);
#77=ORIENTED_EDGE('',*,*,#74,.T.);
#79=CARTESIAN_POINT('',(659.6700,-241.0000,-868.0000));
#80=VERTEX_POINT('',#79);
#78=EDGE_CURVE('',#76,#80,*,.T.);
#81=ORIENTED_EDGE('',*,*,#78,.T.);
#83=CARTESIAN_POINT('',(659.6700,-241.0000,-834.0000));
#84=VERTEX_POINT('',#83);
#82=EDGE_CURVE('',#80,#84,*,.T.);
#85=ORIENTED_EDGE('',*,*,#82,.T.);
#87=CARTESIAN_POINT('',(659.6700,-241.0000,-800.0000));
#88=VERTEX_POINT('',#87);
#86=EDGE_CURVE('',#84,#88,*,.T.);
#89=ORIENTED_EDGE('',*,*,#86,.T.);
#91=CARTESIAN_POINT('',(659.6700,-241.0000,-766.0000));
#92=VERTEX_POINT('',#91);
#90=EDGE_CURVE('',#88,#92,*,.T.);
#93=ORIENTED_EDGE('',*,*,#90,.T.);
#95=CARTESIAN_POINT('',(659.6700,-241.0000,-732.0000));
#96=VERTEX_POINT('',#95);
#94=EDGE_CURVE('',#92,#96,*,.T.);
#97=ORIENTED_EDGE('',*,*,#94,.T.);
#99=CARTESIAN_POINT('',(659.6700,-241.0000,-698.0000));
#100=VERTEX_POINT('',#99);
#98=EDGE_CURVE('',#96,#100,*,.T.);
#101=ORIENTED_EDGE('',*,*,#98,.T.);
#103=CARTESIAN_POINT('',(659.6700,-241.0000,-664.0000));
#104=VERTEX_POINT('',#103);
#102=EDGE_CURVE('',#100,#104,*,.T.);
#105=ORIENTED_EDGE('',*,*,#102,.T.);
#107=CARTESIAN_POINT('',(659.6700,-241.0000,-630.0000));
#108=VERTEX_POINT('',#107);
#106=EDGE_CURVE('',#104,#108,*,.T.);
#109=ORIENTED_EDGE('',*,*,#106,.T.);
#111=CARTESIAN_POINT('',(659.6700,-241.0000,-596.0000));
#112=VERTEX_POINT('',#111);
#110=EDGE_CURVE('',#108,#112,*,.T.);
#113=ORIENTED_EDGE('',*,*,#110,.T.);
#115=CARTESIAN_POINT('',(659.6700,-241.0000,-562.0000));
#116=VERTEX_POINT('',#115);
#114=EDGE_CURVE('',#112,#116,*,.T.);
#117=ORIENTED_EDGE('',*,*,#114,.T.);
#119=CARTESIAN_POINT('',(659.6700,-241.0000,-527.0000));
#120=VERTEX_POINT('',#119);
#118=EDGE_CURVE('',#116,#120,*,.T.);
#121=ORIENTED_EDGE('',*,*,#118,.T.);
#122=EDGE_CURVE('',#120,#52,*,.T.);
#123=ORIENTED_EDGE('',*,*,#122,.T.);
#125=CARTESIAN_POINT('',(659.6700,-240.5000,-562.0000));
#126=VERTEX_POINT('',#125);
#124=EDGE_CURVE('',#52,#126,*,.T.);
#127=ORIENTED_EDGE('',*,*,#124,.T.);
#129=CARTESIAN_POINT('',(659.6700,-240.5000,-596.0000));
#130=VERTEX_POINT('',#129);
#128=EDGE_CURVE('',#126,#130,*,.T.);
#131=ORIENTED_EDGE('',*,*,#128,.T.);
#133=CARTESIAN_POINT('',(659.6700,-240.5000,-630.0000));
#134=VERTEX_POINT('',#133);
#132=EDGE_CURVE('',#130,#134,*,.T.);
#135=ORIENTED_EDGE('',*,*,#132,.T.);
#137=CARTESIAN_POINT('',(659.6700,-240.5000,-664.0000));
#138=VERTEX_POINT('',#137);
#136=EDGE_CURVE('',#134,#138,*,.T.);
#139=ORIENTED_EDGE('',*,*,#136,.T.);
#141=CARTESIAN_POINT('',(659.6700,-240.5000,-698.0000));
#142=VERTEX_POINT('',#141);
#140=EDGE_CURVE('',#138,#142,*,.T.);
#143=ORIENTED_EDGE('',*,*,#140,.T.);
#145=CARTESIAN_POINT('',(659.6700,-240.5000,-732.0000));
#146=VERTEX_POINT('',#145);
#144=EDGE_CURVE('',#142,#146,*,.T.);
#147=ORIENTED_EDGE('',*,*,#144,.T.);
#149=CARTESIAN_POINT('',(659.6700,-240.5000,-766.0000));
#150=VERTEX_POINT('',#149);
#148=EDGE_CURVE('',#146,#150,*,.T.);
#151=ORIENTED_EDGE('',*,*,#148,.T.);
#153=CARTESIAN_POINT('',(659.6700,-240.5000,-800.0000));
#154=VERTEX_POINT('',#153);
#152=EDGE_CURVE('',#150,#154,*,.T.);
#155=ORIENTED_EDGE('',*,*,#152,.T.);
#157=CARTESIAN_POINT('',(659.6700,-240.5000,-834.0000));
#158=VERTEX_POINT('',#157);
#156=EDGE_CURVE('',#154,#158,*,.T.);
#159=ORIENTED_EDGE('',*,*,#156,.T.);
#160=EDGE_CURVE('',#158,#48,*,.T.);
#161=ORIENTED_EDGE('',*,*,#160,.T.);
#162=EDGE_CURVE('',#48,#72,*,.T.);
#163=ORIENTED_EDGE('',*,*,#162,.T.);
#164=EDGE_LOOP('',(#73,#77,#81,#85,#89,#93,#97,#101,#105,#109,#113,#117,#121,#123,#127,#131,#135,#139,#143,#147,#151,#155,#159,#161,#163));
#165=FACE_BOUND('',#164,.T.);
#166=DIRECTION('',(-1.000000,0.000000,0.000000));
#167=DIRECTION('',(0.000000,-1.000000,0.000000));
#168=AXIS2_PLACEMENT_3D('',#41,#166,#167);
#169=PLANE('',#168);
#170=ADVANCED_FACE('',(#69,#165),#169,.T.);
#172=CARTESIAN_POINT('',(740.6700,-238.0000,-882.8214));
#173=VERTEX_POINT('',#172);
#174=CARTESIAN_POINT('',(740.6700,-238.0000,-896.0000));
#175=VERTEX_POINT('',#174);
#171=EDGE_CURVE('',#173,#175,*,.T.);
#176=ORIENTED_EDGE('',*,*,#171,.T.);
#178=CARTESIAN_POINT('',(662.6700,-238.0000,-896.0000));
#179=VERTEX_POINT('',#178);
#177=EDGE_CURVE('',#175,#179,*,.T.);
#180=ORIENTED_EDGE('',*,*,#177,.T.);
#182=CARTESIAN_POINT('',(662.6700,-238.0000,-540.1786));
#183=VERTEX_POINT('',#182);
#181=EDGE_CURVE('',#179,#183,*,.T.);
#184=ORIENTED_EDGE('',*,*,#181,.T.);
#186=CARTESIAN_POINT('',(662.6700,-238.0000,-527.0000));
#187=VERTEX_POINT('',#186);
#185=EDGE_CURVE('',#183,#187,*,.T.);
#188=ORIENTED_EDGE('',*,*,#185,.T.);
#190=CARTESIAN_POINT('',(740.6700,-238.0000,-527.0000));
#191=VERTEX_POINT('',#190);
#189=EDGE_CURVE('',#187,#191,*,.T.);
#192=ORIENTED_EDGE('',*,*,#189,.T.);
#193=EDGE_CURVE('',#191,#173,*,.T.);
#194=ORIENTED_EDGE('',*,*,#193,.T.);
#195=EDGE_LOOP('',(#176,#180,#184,#188,#192,#194));
#196=FACE_OUTER_BOUND('',#195,.T.);
#197=DIRECTION('',(0.000000,1.000000,0.000000));
#198=DIRECTION('',(0.000000,0.000000,-1.000000));
#199=AXIS2_PLACEMENT_3D('',#172,#197,#198);
#200=PLANE('',#199);
#201=ADVANCED_FACE('',(#196),#200,.T.);
#203=CARTESIAN_POINT('',(662.6700,-203.0000,-527.0000));
#204=VERTEX_POINT('',#203);
#202=EDGE_CURVE('',#204,#187,*,.T.);
#205=ORIENTED_EDGE('',*,*,#202,.T.);
#206=EDGE_CURVE('',#187,#179,*,.T.);
#207=ORIENTED_EDGE('',*,*,#206,.T.);
#209=CARTESIAN_POINT('',(662.6700,-203.0000,-896.0000));
#210=VERTEX_POINT('',#209);
#208=EDGE_CURVE('',#179,#210,*,.T.);
#211=ORIENTED_EDGE('',*,*,#208,.T.);
#212=EDGE_CURVE('',#210,#204,*,.T.);
#213=ORIENTED_EDGE('',*,*,#212,.T.);
#214=EDGE_LOOP('',(#205,#207,#211,#213));
#215=FACE_OUTER_BOUND('',#214,.T.);
#216=DIRECTION('',(1.000000,0.000000,0.000000));
#217=DIRECTION('',(0.000000,-1.000000,0.000000));
#218=AXIS2_PLACEMENT_3D('',#203,#216,#217);
#219=PLANE('',#218);
#220=ADVANCED_FACE('',(#215),#219,.T.);
#222=CARTESIAN_POINT('',(740.6700,-203.0000,-896.0000));
#223=VERTEX_POINT('',#222);
#221=EDGE_CURVE('',#223,#175,*,.T.);
#224=ORIENTED_EDGE('',*,*,#221,.T.);
#225=EDGE_CURVE('',#175,#191,*,.T.);
#226=ORIENTED_EDGE('',*,*,#225,.T.);
#228=CARTESIAN_POINT('',(740.6700,-203.0000,-527.0000));
#229=VERTEX_POINT('',#228);
#227=EDGE_CURVE('',#191,#229,*,.T.);
#230=ORIENTED_EDGE('',*,*,#227,.T.);
#231=EDGE_CURVE('',#229,#223,*,.T.);
#232=ORIENTED_EDGE('',*,*,#231,.T.);
#233=EDGE_LOOP('',(#224,#226,#230,#232));
#234=FACE_OUTER_BOUND('',#233,.T.);
#235=DIRECTION('',(-1.000000,0.000000,0.000000));
#236=DIRECTION('',(0.000000,-1.000000,0.000000));
#237=AXIS2_PLACEMENT_3D('',#222,#235,#236);
#238=PLANE('',#237);
#239=ADVANCED_FACE('',(#234),#238,.T.);
#240=ORIENTED_EDGE('',*,*,#231,.T.);
#241=EDGE_CURVE('',#229,#29,*,.T.);
#242=ORIENTED_EDGE('',*,*,#241,.T.);
#243=ORIENTED_EDGE('',*,*,#27,.T.);
#244=EDGE_CURVE('',#25,#223,*,.T.);
#245=ORIENTED_EDGE('',*,*,#244,.T.);
#246=EDGE_LOOP('',(#240,#242,#243,#245));
#247=FACE_OUTER_BOUND('',#246,.T.);
#248=ORIENTED_EDGE('',*,*,#62,.T.);
#249=EDGE_CURVE('',#60,#204,*,.T.);
#250=ORIENTED_EDGE('',*,*,#249,.T.);
#251=ORIENTED_EDGE('',*,*,#212,.T.);
#252=EDGE_CURVE('',#210,#64,*,.T.);
#253=ORIENTED_EDGE('',*,*,#252,.T.);
#254=EDGE_LOOP('',(#248,#250,#251,#253));
#255=FACE_BOUND('',#254,.T.);
#256=DIRECTION('',(0.000000,1.000000,0.000000));
#257=DIRECTION('',(0.000000,0.000000,1.000000));
#258=AXIS2_PLACEMENT_3D('',#222,#256,#257);
#259=PLANE('',#258);
#260=ADVANCED_FACE('',(#247,#255),#259,.T.);
#261=ORIENTED_EDGE('',*,*,#227,.T.);
#262=ORIENTED_EDGE('',*,*,#189,.T.);
#263=ORIENTED_EDGE('',*,*,#202,.T.);
#264=ORIENTED_EDGE('',*,*,#249,.T.);
#265=ORIENTED_EDGE('',*,*,#58,.T.);
#266=ORIENTED_EDGE('',*,*,#54,.T.);
#267=ORIENTED_EDGE('',*,*,#122,.T.);
#269=CARTESIAN_POINT('',(662.6700,-241.0000,-527.0000));
#270=VERTEX_POINT('',#269);
#268=EDGE_CURVE('',#120,#270,*,.T.);
#271=ORIENTED_EDGE('',*,*,#268,.T.);
#273=CARTESIAN_POINT('',(696.1700,-241.0000,-527.0000));
#274=VERTEX_POINT('',#273);
#272=EDGE_CURVE('',#270,#274,*,.T.);
#275=ORIENTED_EDGE('',*,*,#272,.T.);
#277=CARTESIAN_POINT('',(707.1700,-241.0000,-527.0000));
#278=VERTEX_POINT('',#277);
#276=EDGE_CURVE('',#274,#278,*,.T.);
#279=ORIENTED_EDGE('',*,*,#276,.T.);
#281=CARTESIAN_POINT('',(740.6700,-241.0000,-527.0000));
#282=VERTEX_POINT('',#281);
#280=EDGE_CURVE('',#278,#282,*,.T.);
#283=ORIENTED_EDGE('',*,*,#280,.T.);
#284=EDGE_CURVE('',#282,#9,*,.T.);
#285=ORIENTED_EDGE('',*,*,#284,.T.);
#286=ORIENTED_EDGE('',*,*,#7,.T.);
#287=ORIENTED_EDGE('',*,*,#1,.T.);
#288=ORIENTED_EDGE('',*,*,#31,.T.);
#289=ORIENTED_EDGE('',*,*,#241,.T.);
#290=EDGE_LOOP('',(#261,#262,#263,#264,#265,#266,#267,#271,#275,#279,#283,#285,#286,#287,#288,#289));
#291=FACE_OUTER_BOUND('',#290,.T.);
#293=CARTESIAN_POINT('',(673.6700,-240.5000,-527.0000));
#294=VERTEX_POINT('',#293);
#295=CARTESIAN_POINT('',(740.6700,-240.5000,-527.0000));
#296=VERTEX_POINT('',#295);
#292=EDGE_CURVE('',#294,#296,*,.T.);
#297=ORIENTED_EDGE('',*,*,#292,.T.);
#299=CARTESIAN_POINT('',(707.1700,-240.5000,-527.0000));
#300=VERTEX_POINT('',#299);
#298=EDGE_CURVE('',#296,#300,*,.T.);
#301=ORIENTED_EDGE('',*,*,#298,.T.);
#303=CARTESIAN_POINT('',(696.1700,-240.5000,-527.0000));
#304=VERTEX_POINT('',#303);
#302=EDGE_CURVE('',#300,#304,*,.T.);
#305=ORIENTED_EDGE('',*,*,#302,.T.);
#306=EDGE_CURVE('',#304,#294,*,.T.);
#307=ORIENTED_EDGE('',*,*,#306,.T.);
#308=EDGE_LOOP('',(#297,#301,#305,#307));
#309=FACE_BOUND('',#308,.T.);
#310=DIRECTION('',(0.000000,0.000000,1.000000));
#311=DIRECTION('',(0.000000,-1.000000,0.000000));
#312=AXIS2_PLACEMENT_3D('',#228,#310,#311);
#313=PLANE('',#312);
#314=ADVANCED_FACE('',(#291,#309),#313,.T.);
#315=ORIENTED_EDGE('',*,*,#23,.T.);
#316=ORIENTED_EDGE('',*,*,#19,.T.);
#317=ORIENTED_EDGE('',*,*,#15,.T.);
#319=CARTESIAN_POINT('',(740.6700,-241.0000,-896.0000));
#320=VERTEX_POINT('',#319);
#318=EDGE_CURVE('',#13,#320,*,.T.);
#321=ORIENTED_EDGE('',*,*,#318,.T.);
#323=CARTESIAN_POINT('',(707.1700,-241.0000,-896.0000));
#324=VERTEX_POINT('',#323);
#322=EDGE_CURVE('',#320,#324,*,.T.);
#325=ORIENTED_EDGE('',*,*,#322,.T.);
#327=CARTESIAN_POINT('',(662.6700,-241.0000,-896.0000));
#328=VERTEX_POINT('',#327);
#326=EDGE_CURVE('',#324,#328,*,.T.);
#329=ORIENTED_EDGE('',*,*,#326,.T.);
#330=EDGE_CURVE('',#328,#76,*,.T.);
#331=ORIENTED_EDGE('',*,*,#330,.T.);
#332=ORIENTED_EDGE('',*,*,#74,.T.);
#333=ORIENTED_EDGE('',*,*,#40,.T.);
#334=ORIENTED_EDGE('',*,*,#66,.T.);
#335=ORIENTED_EDGE('',*,*,#252,.T.);
#336=ORIENTED_EDGE('',*,*,#208,.T.);
#337=ORIENTED_EDGE('',*,*,#177,.T.);
#338=ORIENTED_EDGE('',*,*,#221,.T.);
#339=ORIENTED_EDGE('',*,*,#244,.T.);
#340=EDGE_LOOP('',(#315,#316,#317,#321,#325,#329,#331,#332,#333,#334,#335,#336,#337,#338,#339));
#341=FACE_OUTER_BOUND('',#340,.T.);
#343=CARTESIAN_POINT('',(729.6700,-240.5000,-896.0000));
#344=VERTEX_POINT('',#343);
#345=CARTESIAN_POINT('',(662.6700,-240.5000,-896.0000));
#346=VERTEX_POINT('',#345);
#342=EDGE_CURVE('',#344,#346,*,.T.);
#347=ORIENTED_EDGE('',*,*,#342,.T.);
#349=CARTESIAN_POINT('',(707.1700,-240.5000,-896.0000));
#350=VERTEX_POINT('',#349);
#348=EDGE_CURVE('',#346,#350,*,.T.);
#351=ORIENTED_EDGE('',*,*,#348,.T.);
#352=EDGE_CURVE('',#350,#344,*,.T.);
#353=ORIENTED_EDGE('',*,*,#352,.T.);
#354=EDGE_LOOP('',(#347,#351,#353));
#355=FACE_BOUND('',#354,.T.);
#356=DIRECTION('',(0.000000,0.000000,-1.000000));
#357=DIRECTION('',(0.000000,-1.000000,0.000000));
#358=AXIS2_PLACEMENT_3D('',#24,#356,#357);
#359=PLANE('',#358);
#360=ADVANCED_FACE('',(#341,#355),#359,.T.);
#361=ORIENTED_EDGE('',*,*,#326,.T.);
#363=CARTESIAN_POINT('',(707.1700,-241.0000,-868.0000));
#364=VERTEX_POINT('',#363);
#362=EDGE_CURVE('',#324,#364,*,.T.);
#365=ORIENTED_EDGE('',*,*,#362,.T.);
#367=CARTESIAN_POINT('',(666.0440,-241.0000,-868.0000));
#368=VERTEX_POINT('',#367);
#366=EDGE_CURVE('',#364,#368,*,.T.);
#369=ORIENTED_EDGE('',*,*,#366,.T.);
#371=CARTESIAN_POINT('',(696.1700,-241.0000,-868.0000));
#372=VERTEX_POINT('',#371);
#370=EDGE_CURVE('',#368,#372,*,.T.);
#373=ORIENTED_EDGE('',*,*,#370,.T.);
#375=CARTESIAN_POINT('',(696.1700,-241.0000,-834.0000));
#376=VERTEX_POINT('',#375);
#374=EDGE_CURVE('',#372,#376,*,.T.);
#377=ORIENTED_EDGE('',*,*,#374,.T.);
#379=CARTESIAN_POINT('',(696.1700,-241.0000,-848.0000));
#380=VERTEX_POINT('',#379);
#378=EDGE_CURVE('',#376,#380,*,.T.);
#381=ORIENTED_EDGE('',*,*,#378,.T.);
#383=CARTESIAN_POINT('',(707.1700,-241.0000,-848.0000));
#384=VERTEX_POINT('',#383);
#382=EDGE_CURVE('',#380,#384,*,.T.);
#385=ORIENTED_EDGE('',*,*,#382,.T.);
#387=CARTESIAN_POINT('',(707.1700,-241.0000,-834.0000));
#388=VERTEX_POINT('',#387);
#386=EDGE_CURVE('',#384,#388,*,.T.);
#389=ORIENTED_EDGE('',*,*,#386,.T.);
#390=EDGE_CURVE('',#388,#376,*,.T.);
#391=ORIENTED_EDGE('',*,*,#390,.T.);
#393=CARTESIAN_POINT('',(696.1700,-241.0000,-800.0000));
#394=VERTEX_POINT('',#393);
#392=EDGE_CURVE('',#376,#394,*,.T.);
#395=ORIENTED_EDGE('',*,*,#392,.T.);
#397=CARTESIAN_POINT('',(696.1700,-241.0000,-814.0000));
#398=VERTEX_POINT('',#397);
#396=EDGE_CURVE('',#394,#398,*,.T.);
#399=ORIENTED_EDGE('',*,*,#396,.T.);
#401=CARTESIAN_POINT('',(707.1700,-241.0000,-814.0000));
#402=VERTEX_POINT('',#401);
#400=EDGE_CURVE('',#398,#402,*,.T.);
#403=ORIENTED_EDGE('',*,*,#400,.T.);
#405=CARTESIAN_POINT('',(707.1700,-241.0000,-800.0000));
#406=VERTEX_POINT('',#405);
#404=EDGE_CURVE('',#402,#406,*,.T.);
#407=ORIENTED_EDGE('',*,*,#404,.T.);
#408=EDGE_CURVE('',#406,#394,*,.T.);
#409=ORIENTED_EDGE('',*,*,#408,.T.);
#411=CARTESIAN_POINT('',(696.1700,-241.0000,-766.0000));
#412=VERTEX_POINT('',#411);
#410=EDGE_CURVE('',#394,#412,*,.T.);
#413=ORIENTED_EDGE('',*,*,#410,.T.);
#415=CARTESIAN_POINT('',(696.1700,-241.0000,-780.0000));
#416=VERTEX_POINT('',#415);
#414=EDGE_CURVE('',#412,#416,*,.T.);
#417=ORIENTED_EDGE('',*,*,#414,.T.);
#419=CARTESIAN_POINT('',(707.1700,-241.0000,-780.0000));
#420=VERTEX_POINT('',#419);
#418=EDGE_CURVE('',#416,#420,*,.T.);
#421=ORIENTED_EDGE('',*,*,#418,.T.);
#423=CARTESIAN_POINT('',(707.1700,-241.0000,-766.0000));
#424=VERTEX_POINT('',#423);
#422=EDGE_CURVE('',#420,#424,*,.T.);
#425=ORIENTED_EDGE('',*,*,#422,.T.);
#426=EDGE_CURVE('',#424,#412,*,.T.);
#427=ORIENTED_EDGE('',*,*,#426,.T.);
#429=CARTESIAN_POINT('',(696.1700,-241.0000,-735.6607));
#430=VERTEX_POINT('',#429);
#428=EDGE_CURVE('',#412,#430,*,.T.);
#431=ORIENTED_EDGE('',*,*,#428,.T.);
#433=CARTESIAN_POINT('',(696.1700,-241.0000,-746.0000));
#434=VERTEX_POINT('',#433);
#432=EDGE_CURVE('',#430,#434,*,.T.);
#435=ORIENTED_EDGE('',*,*,#432,.T.);
#437=CARTESIAN_POINT('',(707.1700,-241.0000,-746.0000));
#438=VERTEX_POINT('',#437);
#436=EDGE_CURVE('',#434,#438,*,.T.);
#439=ORIENTED_EDGE('',*,*,#436,.T.);
#441=CARTESIAN_POINT('',(707.1700,-241.0000,-732.0000));
#442=VERTEX_POINT('',#441);
#440=EDGE_CURVE('',#438,#442,*,.T.);
#443=ORIENTED_EDGE('',*,*,#440,.T.);
#445=CARTESIAN_POINT('',(697.0034,-241.0000,-732.0000));
#446=VERTEX_POINT('',#445);
#444=EDGE_CURVE('',#442,#446,*,.T.);
#447=ORIENTED_EDGE('',*,*,#444,.T.);
#449=CARTESIAN_POINT('',(696.1700,-241.0000,-732.0000));
#450=VERTEX_POINT('',#449);
#448=EDGE_CURVE('',#446,#450,*,.T.);
#451=ORIENTED_EDGE('',*,*,#448,.T.);
#453=CARTESIAN_POINT('',(696.1700,-241.0000,-698.0000));
#454=VERTEX_POINT('',#453);
#452=EDGE_CURVE('',#450,#454,*,.T.);
#455=ORIENTED_EDGE('',*,*,#452,.T.);
#457=CARTESIAN_POINT('',(696.1700,-241.0000,-712.0000));
#458=VERTEX_POINT('',#457);
#456=EDGE_CURVE('',#454,#458,*,.T.);
#459=ORIENTED_EDGE('',*,*,#456,.T.);
#461=CARTESIAN_POINT('',(701.5562,-241.0000,-712.0000));
#462=VERTEX_POINT('',#461);
#460=EDGE_CURVE('',#458,#462,*,.T.);
#463=ORIENTED_EDGE('',*,*,#460,.T.);
#465=CARTESIAN_POINT('',(707.1700,-241.0000,-712.0000));
#466=VERTEX_POINT('',#465);
#464=EDGE_CURVE('',#462,#466,*,.T.);
#467=ORIENTED_EDGE('',*,*,#464,.T.);
#469=CARTESIAN_POINT('',(707.1700,-241.0000,-698.0000));
#470=VERTEX_POINT('',#469);
#468=EDGE_CURVE('',#466,#470,*,.T.);
#471=ORIENTED_EDGE('',*,*,#468,.T.);
#473=CARTESIAN_POINT('',(704.7432,-241.0000,-698.0000));
#474=VERTEX_POINT('',#473);
#472=EDGE_CURVE('',#470,#474,*,.T.);
#475=ORIENTED_EDGE('',*,*,#472,.T.);
#476=EDGE_CURVE('',#474,#454,*,.T.);
#477=ORIENTED_EDGE('',*,*,#476,.T.);
#479=CARTESIAN_POINT('',(696.1700,-241.0000,-664.0000));
#480=VERTEX_POINT('',#479);
#478=EDGE_CURVE('',#454,#480,*,.T.);
#481=ORIENTED_EDGE('',*,*,#478,.T.);
#483=CARTESIAN_POINT('',(696.1700,-241.0000,-678.0000));
#484=VERTEX_POINT('',#483);
#482=EDGE_CURVE('',#480,#484,*,.T.);
#485=ORIENTED_EDGE('',*,*,#482,.T.);
#487=CARTESIAN_POINT('',(707.1700,-241.0000,-678.0000));
#488=VERTEX_POINT('',#487);
#486=EDGE_CURVE('',#484,#488,*,.T.);
#489=ORIENTED_EDGE('',*,*,#486,.T.);
#491=CARTESIAN_POINT('',(707.1700,-241.0000,-664.0000));
#492=VERTEX_POINT('',#491);
#490=EDGE_CURVE('',#488,#492,*,.T.);
#493=ORIENTED_EDGE('',*,*,#490,.T.);
#494=EDGE_CURVE('',#492,#480,*,.T.);
#495=ORIENTED_EDGE('',*,*,#494,.T.);
#497=CARTESIAN_POINT('',(696.1700,-241.0000,-630.0000));
#498=VERTEX_POINT('',#497);
#496=EDGE_CURVE('',#480,#498,*,.T.);
#499=ORIENTED_EDGE('',*,*,#496,.T.);
#501=CARTESIAN_POINT('',(696.1700,-241.0000,-644.0000));
#502=VERTEX_POINT('',#501);
#500=EDGE_CURVE('',#498,#502,*,.T.);
#503=ORIENTED_EDGE('',*,*,#500,.T.);
#505=CARTESIAN_POINT('',(707.1700,-241.0000,-644.0000));
#506=VERTEX_POINT('',#505);
#504=EDGE_CURVE('',#502,#506,*,.T.);
#507=ORIENTED_EDGE('',*,*,#504,.T.);
#509=CARTESIAN_POINT('',(707.1700,-241.0000,-630.0000));
#510=VERTEX_POINT('',#509);
#508=EDGE_CURVE('',#506,#510,*,.T.);
#511=ORIENTED_EDGE('',*,*,#508,.T.);
#512=EDGE_CURVE('',#510,#498,*,.T.);
#513=ORIENTED_EDGE('',*,*,#512,.T.);
#515=CARTESIAN_POINT('',(696.1700,-241.0000,-596.0000));
#516=VERTEX_POINT('',#515);
#514=EDGE_CURVE('',#498,#516,*,.T.);
#517=ORIENTED_EDGE('',*,*,#514,.T.);
#519=CARTESIAN_POINT('',(696.1700,-241.0000,-610.0000));
#520=VERTEX_POINT('',#519);
#518=EDGE_CURVE('',#516,#520,*,.T.);
#521=ORIENTED_EDGE('',*,*,#518,.T.);
#523=CARTESIAN_POINT('',(707.1700,-241.0000,-610.0000));
#524=VERTEX_POINT('',#523);
#522=EDGE_CURVE('',#520,#524,*,.T.);
#525=ORIENTED_EDGE('',*,*,#522,.T.);
#527=CARTESIAN_POINT('',(707.1700,-241.0000,-596.0000));
#528=VERTEX_POINT('',#527);
#526=EDGE_CURVE('',#524,#528,*,.T.);
#529=ORIENTED_EDGE('',*,*,#526,.T.);
#530=EDGE_CURVE('',#528,#516,*,.T.);
#531=ORIENTED_EDGE('',*,*,#530,.T.);
#533=CARTESIAN_POINT('',(696.1700,-241.0000,-562.0000));
#534=VERTEX_POINT('',#533);
#532=EDGE_CURVE('',#516,#534,*,.T.);
#535=ORIENTED_EDGE('',*,*,#532,.T.);
#537=CARTESIAN_POINT('',(696.1700,-241.0000,-576.0000));
#538=VERTEX_POINT('',#537);
#536=EDGE_CURVE('',#534,#538,*,.T.);
#539=ORIENTED_EDGE('',*,*,#536,.T.);
#541=CARTESIAN_POINT('',(707.1700,-241.0000,-576.0000));
#542=VERTEX_POINT('',#541);
#540=EDGE_CURVE('',#538,#542,*,.T.);
#543=ORIENTED_EDGE('',*,*,#540,.T.);
#545=CARTESIAN_POINT('',(707.1700,-241.0000,-562.0000));
#546=VERTEX_POINT('',#545);
#544=EDGE_CURVE('',#542,#546,*,.T.);
#547=ORIENTED_EDGE('',*,*,#544,.T.);
#548=EDGE_CURVE('',#546,#534,*,.T.);
#549=ORIENTED_EDGE('',*,*,#548,.T.);
#550=EDGE_CURVE('',#534,#274,*,.T.);
#551=ORIENTED_EDGE('',*,*,#550,.T.);
#552=ORIENTED_EDGE('',*,*,#272,.T.);
#553=ORIENTED_EDGE('',*,*,#268,.T.);
#554=ORIENTED_EDGE('',*,*,#118,.T.);
#555=ORIENTED_EDGE('',*,*,#114,.T.);
#556=ORIENTED_EDGE('',*,*,#110,.T.);
#557=ORIENTED_EDGE('',*,*,#106,.T.);
#558=ORIENTED_EDGE('',*,*,#102,.T.);
#559=ORIENTED_EDGE('',*,*,#98,.T.);
#560=ORIENTED_EDGE('',*,*,#94,.T.);
#561=ORIENTED_EDGE('',*,*,#90,.T.);
#562=ORIENTED_EDGE('',*,*,#86,.T.);
#563=ORIENTED_EDGE('',*,*,#82,.T.);
#564=ORIENTED_EDGE('',*,*,#78,.T.);
#565=ORIENTED_EDGE('',*,*,#330,.T.);
#566=EDGE_LOOP('',(#361,#365,#369,#373,#377,#381,#385,#389,#391,#395,#399,#403,#407,#409,#413,#417,#421,#425,#427,#431,#435,#439,#443,#447,#451,#455,#459,#463,#467,#471,#475,#477,#481,#485,#489,#493,#495,#499,#503,#507,#511,#513,#517,#521,#525,#529,#531,#535,#539,#543,#547,#549,#551,#552,#553,#554,#555,#556,#557,#558,#559,#560,#561,#562,#563,#564,#565));
#567=FACE_OUTER_BOUND('',#566,.T.);
#568=ORIENTED_EDGE('',*,*,#280,.T.);
#570=CARTESIAN_POINT('',(707.1700,-241.0000,-687.3393));
#571=VERTEX_POINT('',#570);
#569=EDGE_CURVE('',#278,#571,*,.T.);
#572=ORIENTED_EDGE('',*,*,#569,.T.);
#573=EDGE_CURVE('',#571,#324,*,.T.);
#574=ORIENTED_EDGE('',*,*,#573,.T.);
#575=ORIENTED_EDGE('',*,*,#322,.T.);
#576=ORIENTED_EDGE('',*,*,#318,.T.);
#577=ORIENTED_EDGE('',*,*,#11,.T.);
#578=ORIENTED_EDGE('',*,*,#284,.T.);
#579=EDGE_LOOP('',(#568,#572,#574,#575,#576,#577,#578));
#580=FACE_BOUND('',#579,.T.);
#582=CARTESIAN_POINT('',(696.1700,-241.0000,-542.0000));
#583=VERTEX_POINT('',#582);
#584=CARTESIAN_POINT('',(707.1700,-241.0000,-542.0000));
#585=VERTEX_POINT('',#584);
#581=EDGE_CURVE('',#583,#585,*,.T.);
#586=ORIENTED_EDGE('',*,*,#581,.T.);
#587=EDGE_CURVE('',#585,#278,*,.T.);
#588=ORIENTED_EDGE('',*,*,#587,.T.);
#589=ORIENTED_EDGE('',*,*,#276,.T.);
#590=EDGE_CURVE('',#274,#583,*,.T.);
#591=ORIENTED_EDGE('',*,*,#590,.T.);
#592=EDGE_LOOP('',(#586,#588,#589,#591));
#593=FACE_BOUND('',#592,.T.);
#594=DIRECTION('',(0.000000,-1.000000,0.000000));
#595=DIRECTION('',(1.000000,0.000000,0.000000));
#596=AXIS2_PLACEMENT_3D('',#327,#594,#595);
#597=PLANE('',#596);
#598=ADVANCED_FACE('',(#567,#580,#593),#597,.T.);
#600=CARTESIAN_POINT('',(707.1700,-240.5000,-848.0000));
#601=VERTEX_POINT('',#600);
#602=CARTESIAN_POINT('',(696.1700,-240.5000,-848.0000));
#603=VERTEX_POINT('',#602);
#599=EDGE_CURVE('',#601,#603,*,.T.);
#604=ORIENTED_EDGE('',*,*,#599,.T.);
#606=CARTESIAN_POINT('',(696.1700,-240.5000,-868.0000));
#607=VERTEX_POINT('',#606);
#605=EDGE_CURVE('',#603,#607,*,.T.);
#608=ORIENTED_EDGE('',*,*,#605,.T.);
#610=CARTESIAN_POINT('',(707.1700,-240.5000,-868.0000));
#611=VERTEX_POINT('',#610);
#609=EDGE_CURVE('',#607,#611,*,.T.);
#612=ORIENTED_EDGE('',*,*,#609,.T.);
#613=EDGE_CURVE('',#611,#601,*,.T.);
#614=ORIENTED_EDGE('',*,*,#613,.T.);
#615=EDGE_LOOP('',(#604,#608,#612,#614));
#616=FACE_OUTER_BOUND('',#615,.T.);
#618=CARTESIAN_POINT('',(707.1700,-240.5000,-814.0000));
#619=VERTEX_POINT('',#618);
#620=CARTESIAN_POINT('',(696.1700,-240.5000,-814.0000));
#621=VERTEX_POINT('',#620);
#617=EDGE_CURVE('',#619,#621,*,.T.);
#622=ORIENTED_EDGE('',*,*,#617,.T.);
#624=CARTESIAN_POINT('',(696.1700,-240.5000,-834.0000));
#625=VERTEX_POINT('',#624);
#623=EDGE_CURVE('',#621,#625,*,.T.);
#626=ORIENTED_EDGE('',*,*,#623,.T.);
#628=CARTESIAN_POINT('',(707.1700,-240.5000,-834.0000));
#629=VERTEX_POINT('',#628);
#627=EDGE_CURVE('',#625,#629,*,.T.);
#630=ORIENTED_EDGE('',*,*,#627,.T.);
#631=EDGE_CURVE('',#629,#619,*,.T.);
#632=ORIENTED_EDGE('',*,*,#631,.T.);
#633=EDGE_LOOP('',(#622,#626,#630,#632));
#634=FACE_BOUND('',#633,.T.);
#636=CARTESIAN_POINT('',(707.1700,-240.5000,-780.0000));
#637=VERTEX_POINT('',#636);
#638=CARTESIAN_POINT('',(696.1700,-240.5000,-780.0000));
#639=VERTEX_POINT('',#638);
#635=EDGE_CURVE('',#637,#639,*,.T.);
#640=ORIENTED_EDGE('',*,*,#635,.T.);
#642=CARTESIAN_POINT('',(696.1700,-240.5000,-800.0000));
#643=VERTEX_POINT('',#642);
#641=EDGE_CURVE('',#639,#643,*,.T.);
#644=ORIENTED_EDGE('',*,*,#641,.T.);
#646=CARTESIAN_POINT('',(707.1700,-240.5000,-800.0000));
#647=VERTEX_POINT('',#646);
#645=EDGE_CURVE('',#643,#647,*,.T.);
#648=ORIENTED_EDGE('',*,*,#645,.T.);
#649=EDGE_CURVE('',#647,#637,*,.T.);
#650=ORIENTED_EDGE('',*,*,#649,.T.);
#651=EDGE_LOOP('',(#640,#644,#648,#650));
#652=FACE_BOUND('',#651,.T.);
#654=CARTESIAN_POINT('',(707.1700,-240.5000,-746.0000));
#655=VERTEX_POINT('',#654);
#656=CARTESIAN_POINT('',(696.1700,-240.5000,-746.0000));
#657=VERTEX_POINT('',#656);
#653=EDGE_CURVE('',#655,#657,*,.T.);
#658=ORIENTED_EDGE('',*,*,#653,.T.);
#660=CARTESIAN_POINT('',(696.1700,-240.5000,-766.0000));
#661=VERTEX_POINT('',#660);
#659=EDGE_CURVE('',#657,#661,*,.T.);
#662=ORIENTED_EDGE('',*,*,#659,.T.);
#664=CARTESIAN_POINT('',(707.1700,-240.5000,-766.0000));
#665=VERTEX_POINT('',#664);
#663=EDGE_CURVE('',#661,#665,*,.T.);
#666=ORIENTED_EDGE('',*,*,#663,.T.);
#667=EDGE_CURVE('',#665,#655,*,.T.);
#668=ORIENTED_EDGE('',*,*,#667,.T.);
#669=EDGE_LOOP('',(#658,#662,#666,#668));
#670=FACE_BOUND('',#669,.T.);
#672=CARTESIAN_POINT('',(707.1700,-240.5000,-712.0000));
#673=VERTEX_POINT('',#672);
#674=CARTESIAN_POINT('',(696.1700,-240.5000,-712.0000));
#675=VERTEX_POINT('',#674);
#671=EDGE_CURVE('',#673,#675,*,.T.);
#676=ORIENTED_EDGE('',*,*,#671,.T.);
#678=CARTESIAN_POINT('',(696.1700,-240.5000,-732.0000));
#679=VERTEX_POINT('',#678);
#677=EDGE_CURVE('',#675,#679,*,.T.);
#680=ORIENTED_EDGE('',*,*,#677,.T.);
#682=CARTESIAN_POINT('',(707.1700,-240.5000,-732.0000));
#683=VERTEX_POINT('',#682);
#681=EDGE_CURVE('',#679,#683,*,.T.);
#684=ORIENTED_EDGE('',*,*,#681,.T.);
#685=EDGE_CURVE('',#683,#673,*,.T.);
#686=ORIENTED_EDGE('',*,*,#685,.T.);
#687=EDGE_LOOP('',(#676,#680,#684,#686));
#688=FACE_BOUND('',#687,.T.);
#690=CARTESIAN_POINT('',(707.1700,-240.5000,-678.0000));
#691=VERTEX_POINT('',#690);
#692=CARTESIAN_POINT('',(696.1700,-240.5000,-678.0000));
#693=VERTEX_POINT('',#692);
#689=EDGE_CURVE('',#691,#693,*,.T.);
#694=ORIENTED_EDGE('',*,*,#689,.T.);
#696=CARTESIAN_POINT('',(696.1700,-240.5000,-698.0000));
#697=VERTEX_POINT('',#696);
#695=EDGE_CURVE('',#693,#697,*,.T.);
#698=ORIENTED_EDGE('',*,*,#695,.T.);
#700=CARTESIAN_POINT('',(707.1700,-240.5000,-698.0000));
#701=VERTEX_POINT('',#700);
#699=EDGE_CURVE('',#697,#701,*,.T.);
#702=ORIENTED_EDGE('',*,*,#699,.T.);
#703=EDGE_CURVE('',#701,#691,*,.T.);
#704=ORIENTED_EDGE('',*,*,#703,.T.);
#705=EDGE_LOOP('',(#694,#698,#702,#704));
#706=FACE_BOUND('',#705,.T.);
#708=CARTESIAN_POINT('',(707.1700,-240.5000,-644.0000));
#709=VERTEX_POINT('',#708);
#710=CARTESIAN_POINT('',(696.1700,-240.5000,-644.0000));
#711=VERTEX_POINT('',#710);
#707=EDGE_CURVE('',#709,#711,*,.T.);
#712=ORIENTED_EDGE('',*,*,#707,.T.);
#714=CARTESIAN_POINT('',(696.1700,-240.5000,-664.0000));
#715=VERTEX_POINT('',#714);
#713=EDGE_CURVE('',#711,#715,*,.T.);
#716=ORIENTED_EDGE('',*,*,#713,.T.);
#718=CARTESIAN_POINT('',(707.1700,-240.5000,-664.0000));
#719=VERTEX_POINT('',#718);
#717=EDGE_CURVE('',#715,#719,*,.T.);
#720=ORIENTED_EDGE('',*,*,#717,.T.);
#721=EDGE_CURVE('',#719,#709,*,.T.);
#722=ORIENTED_EDGE('',*,*,#721,.T.);
#723=EDGE_LOOP('',(#712,#716,#720,#722));
#724=FACE_BOUND('',#723,.T.);
#726=CARTESIAN_POINT('',(707.1700,-240.5000,-610.0000));
#727=VERTEX_POINT('',#726);
#728=CARTESIAN_POINT('',(696.1700,-240.5000,-610.0000));
#729=VERTEX_POINT('',#728);
#725=EDGE_CURVE('',#727,#729,*,.T.);
#730=ORIENTED_EDGE('',*,*,#725,.T.);
#732=CARTESIAN_POINT('',(696.1700,-240.5000,-630.0000));
#733=VERTEX_POINT('',#732);
#731=EDGE_CURVE('',#729,#733,*,.T.);
#734=ORIENTED_EDGE('',*,*,#731,.T.);
#736=CARTESIAN_POINT('',(707.1700,-240.5000,-630.0000));
#737=VERTEX_POINT('',#736);
#735=EDGE_CURVE('',#733,#737,*,.T.);
#738=ORIENTED_EDGE('',*,*,#735,.T.);
#739=EDGE_CURVE('',#737,#727,*,.T.);
#740=ORIENTED_EDGE('',*,*,#739,.T.);
#741=EDGE_LOOP('',(#730,#734,#738,#740));
#742=FACE_BOUND('',#741,.T.);
#744=CARTESIAN_POINT('',(707.1700,-240.5000,-576.0000));
#745=VERTEX_POINT('',#744);
#746=CARTESIAN_POINT('',(696.1700,-240.5000,-576.0000));
#747=VERTEX_POINT('',#746);
#743=EDGE_CURVE('',#745,#747,*,.T.);
#748=ORIENTED_EDGE('',*,*,#743,.T.);
#750=CARTESIAN_POINT('',(696.1700,-240.5000,-596.0000));
#751=VERTEX_POINT('',#750);
#749=EDGE_CURVE('',#747,#751,*,.T.);
#752=ORIENTED_EDGE('',*,*,#749,.T.);
#754=CARTESIAN_POINT('',(707.1700,-240.5000,-596.0000));
#755=VERTEX_POINT('',#754);
#753=EDGE_CURVE('',#751,#755,*,.T.);
#756=ORIENTED_EDGE('',*,*,#753,.T.);
#757=EDGE_CURVE('',#755,#745,*,.T.);
#758=ORIENTED_EDGE('',*,*,#757,.T.);
#759=EDGE_LOOP('',(#748,#752,#756,#758));
#760=FACE_BOUND('',#759,.T.);
#762=CARTESIAN_POINT('',(707.1700,-240.5000,-542.0000));
#763=VERTEX_POINT('',#762);
#764=CARTESIAN_POINT('',(696.1700,-240.5000,-542.0000));
#765=VERTEX_POINT('',#764);
#761=EDGE_CURVE('',#763,#765,*,.T.);
#766=ORIENTED_EDGE('',*,*,#761,.T.);
#768=CARTESIAN_POINT('',(696.1700,-240.5000,-562.0000));
#769=VERTEX_POINT('',#768);
#767=EDGE_CURVE('',#765,#769,*,.T.);
#770=ORIENTED_EDGE('',*,*,#767,.T.);
#772=CARTESIAN_POINT('',(707.1700,-240.5000,-562.0000));
#773=VERTEX_POINT('',#772);
#771=EDGE_CURVE('',#769,#773,*,.T.);
#774=ORIENTED_EDGE('',*,*,#771,.T.);
#775=EDGE_CURVE('',#773,#763,*,.T.);
#776=ORIENTED_EDGE('',*,*,#775,.T.);
#777=EDGE_LOOP('',(#766,#770,#774,#776));
#778=FACE_BOUND('',#777,.T.);
#779=DIRECTION('',(0.000000,-1.000000,0.000000));
#780=DIRECTION('',(-1.000000,0.000000,0.000000));
#781=AXIS2_PLACEMENT_3D('',#600,#779,#780);
#782=PLANE('',#781);
#783=ADVANCED_FACE('',(#616,#634,#652,#670,#688,#706,#724,#742,#760,#778),#782,.T.);
#784=EDGE_CURVE('',#384,#601,*,.T.);
#785=ORIENTED_EDGE('',*,*,#784,.T.);
#786=ORIENTED_EDGE('',*,*,#613,.T.);
#787=EDGE_CURVE('',#611,#364,*,.T.);
#788=ORIENTED_EDGE('',*,*,#787,.T.);
#790=CARTESIAN_POINT('',(707.1700,-241.0000,-850.8572));
#791=VERTEX_POINT('',#790);
#789=EDGE_CURVE('',#364,#791,*,.T.);
#792=ORIENTED_EDGE('',*,*,#789,.T.);
#793=EDGE_CURVE('',#791,#384,*,.T.);
#794=ORIENTED_EDGE('',*,*,#793,.T.);
#795=EDGE_LOOP('',(#785,#786,#788,#792,#794));
#796=FACE_OUTER_BOUND('',#795,.T.);
#797=EDGE_CURVE('',#402,#619,*,.T.);
#798=ORIENTED_EDGE('',*,*,#797,.T.);
#799=ORIENTED_EDGE('',*,*,#631,.T.);
#800=EDGE_CURVE('',#629,#388,*,.T.);
#801=ORIENTED_EDGE('',*,*,#800,.T.);
#803=CARTESIAN_POINT('',(707.1700,-241.0000,-816.8571));
#804=VERTEX_POINT('',#803);
#802=EDGE_CURVE('',#388,#804,*,.T.);
#805=ORIENTED_EDGE('',*,*,#802,.T.);
#806=EDGE_CURVE('',#804,#402,*,.T.);
#807=ORIENTED_EDGE('',*,*,#806,.T.);
#808=EDGE_LOOP('',(#798,#799,#801,#805,#807));
#809=FACE_BOUND('',#808,.T.);
#810=EDGE_CURVE('',#420,#637,*,.T.);
#811=ORIENTED_EDGE('',*,*,#810,.T.);
#812=ORIENTED_EDGE('',*,*,#649,.T.);
#813=EDGE_CURVE('',#647,#406,*,.T.);
#814=ORIENTED_EDGE('',*,*,#813,.T.);
#816=CARTESIAN_POINT('',(707.1700,-241.0000,-782.8571));
#817=VERTEX_POINT('',#816);
#815=EDGE_CURVE('',#406,#817,*,.T.);
#818=ORIENTED_EDGE('',*,*,#815,.T.);
#819=EDGE_CURVE('',#817,#420,*,.T.);
#820=ORIENTED_EDGE('',*,*,#819,.T.);
#821=EDGE_LOOP('',(#811,#812,#814,#818,#820));
#822=FACE_BOUND('',#821,.T.);
#823=EDGE_CURVE('',#438,#655,*,.T.);
#824=ORIENTED_EDGE('',*,*,#823,.T.);
#825=ORIENTED_EDGE('',*,*,#667,.T.);
#826=EDGE_CURVE('',#665,#424,*,.T.);
#827=ORIENTED_EDGE('',*,*,#826,.T.);
#829=CARTESIAN_POINT('',(707.1700,-241.0000,-748.8571));
#830=VERTEX_POINT('',#829);
#828=EDGE_CURVE('',#424,#830,*,.T.);
#831=ORIENTED_EDGE('',*,*,#828,.T.);
#832=EDGE_CURVE('',#830,#438,*,.T.);
#833=ORIENTED_EDGE('',*,*,#832,.T.);
#834=EDGE_LOOP('',(#824,#825,#827,#831,#833));
#835=FACE_BOUND('',#834,.T.);
#836=EDGE_CURVE('',#466,#673,*,.T.);
#837=ORIENTED_EDGE('',*,*,#836,.T.);
#838=ORIENTED_EDGE('',*,*,#685,.T.);
#839=EDGE_CURVE('',#683,#442,*,.T.);
#840=ORIENTED_EDGE('',*,*,#839,.T.);
#842=CARTESIAN_POINT('',(707.1700,-241.0000,-714.8571));
#843=VERTEX_POINT('',#842);
#841=EDGE_CURVE('',#442,#843,*,.T.);
#844=ORIENTED_EDGE('',*,*,#841,.T.);
#845=EDGE_CURVE('',#843,#466,*,.T.);
#846=ORIENTED_EDGE('',*,*,#845,.T.);
#847=EDGE_LOOP('',(#837,#838,#840,#844,#846));
#848=FACE_BOUND('',#847,.T.);
#849=EDGE_CURVE('',#488,#691,*,.T.);
#850=ORIENTED_EDGE('',*,*,#849,.T.);
#851=ORIENTED_EDGE('',*,*,#703,.T.);
#852=EDGE_CURVE('',#701,#470,*,.T.);
#853=ORIENTED_EDGE('',*,*,#852,.T.);
#855=CARTESIAN_POINT('',(707.1700,-241.0000,-680.8571));
#856=VERTEX_POINT('',#855);
#854=EDGE_CURVE('',#470,#856,*,.T.);
#857=ORIENTED_EDGE('',*,*,#854,.T.);
#858=EDGE_CURVE('',#856,#488,*,.T.);
#859=ORIENTED_EDGE('',*,*,#858,.T.);
#860=EDGE_LOOP('',(#850,#851,#853,#857,#859));
#861=FACE_BOUND('',#860,.T.);
#862=EDGE_CURVE('',#506,#709,*,.T.);
#863=ORIENTED_EDGE('',*,*,#862,.T.);
#864=ORIENTED_EDGE('',*,*,#721,.T.);
#865=EDGE_CURVE('',#719,#492,*,.T.);
#866=ORIENTED_EDGE('',*,*,#865,.T.);
#868=CARTESIAN_POINT('',(707.1700,-241.0000,-646.8571));
#869=VERTEX_POINT('',#868);
#867=EDGE_CURVE('',#492,#869,*,.T.);
#870=ORIENTED_EDGE('',*,*,#867,.T.);
#871=EDGE_CURVE('',#869,#506,*,.T.);
#872=ORIENTED_EDGE('',*,*,#871,.T.);
#873=EDGE_LOOP('',(#863,#864,#866,#870,#872));
#874=FACE_BOUND('',#873,.T.);
#875=EDGE_CURVE('',#524,#727,*,.T.);
#876=ORIENTED_EDGE('',*,*,#875,.T.);
#877=ORIENTED_EDGE('',*,*,#739,.T.);
#878=EDGE_CURVE('',#737,#510,*,.T.);
#879=ORIENTED_EDGE('',*,*,#878,.T.);
#881=CARTESIAN_POINT('',(707.1700,-241.0000,-612.8571));
#882=VERTEX_POINT('',#881);
#880=EDGE_CURVE('',#510,#882,*,.T.);
#883=ORIENTED_EDGE('',*,*,#880,.T.);
#884=EDGE_CURVE('',#882,#524,*,.T.);
#885=ORIENTED_EDGE('',*,*,#884,.T.);
#886=EDGE_LOOP('',(#876,#877,#879,#883,#885));
#887=FACE_BOUND('',#886,.T.);
#888=EDGE_CURVE('',#542,#745,*,.T.);
#889=ORIENTED_EDGE('',*,*,#888,.T.);
#890=ORIENTED_EDGE('',*,*,#757,.T.);
#891=EDGE_CURVE('',#755,#528,*,.T.);
#892=ORIENTED_EDGE('',*,*,#891,.T.);
#894=CARTESIAN_POINT('',(707.1700,-241.0000,-578.8572));
#895=VERTEX_POINT('',#894);
#893=EDGE_CURVE('',#528,#895,*,.T.);
#896=ORIENTED_EDGE('',*,*,#893,.T.);
#897=EDGE_CURVE('',#895,#542,*,.T.);
#898=ORIENTED_EDGE('',*,*,#897,.T.);
#899=EDGE_LOOP('',(#889,#890,#892,#896,#898));
#900=FACE_BOUND('',#899,.T.);
#901=EDGE_CURVE('',#585,#763,*,.T.);
#902=ORIENTED_EDGE('',*,*,#901,.T.);
#903=ORIENTED_EDGE('',*,*,#775,.T.);
#904=EDGE_CURVE('',#773,#546,*,.T.);
#905=ORIENTED_EDGE('',*,*,#904,.T.);
#907=CARTESIAN_POINT('',(707.1700,-241.0000,-544.8572));
#908=VERTEX_POINT('',#907);
#906=EDGE_CURVE('',#546,#908,*,.T.);
#909=ORIENTED_EDGE('',*,*,#906,.T.);
#910=EDGE_CURVE('',#908,#585,*,.T.);
#911=ORIENTED_EDGE('',*,*,#910,.T.);
#912=EDGE_LOOP('',(#902,#903,#905,#909,#911));
#913=FACE_BOUND('',#912,.T.);
#914=DIRECTION('',(-1.000000,0.000000,0.000000));
#915=DIRECTION('',(0.000000,1.000000,0.000000));
#916=AXIS2_PLACEMENT_3D('',#383,#914,#915);
#917=PLANE('',#916);
#918=ADVANCED_FACE('',(#796,#809,#822,#835,#848,#861,#874,#887,#900,#913),#917,.T.);
#919=ORIENTED_EDGE('',*,*,#787,.T.);
#920=ORIENTED_EDGE('',*,*,#609,.T.);
#921=EDGE_CURVE('',#607,#372,*,.T.);
#922=ORIENTED_EDGE('',*,*,#921,.T.);
#924=CARTESIAN_POINT('',(705.5986,-241.0000,-868.0000));
#925=VERTEX_POINT('',#924);
#923=EDGE_CURVE('',#372,#925,*,.T.);
#926=ORIENTED_EDGE('',*,*,#923,.T.);
#927=EDGE_CURVE('',#925,#364,*,.T.);
#928=ORIENTED_EDGE('',*,*,#927,.T.);
#929=EDGE_LOOP('',(#919,#920,#922,#926,#928));
#930=FACE_OUTER_BOUND('',#929,.T.);
#931=DIRECTION('',(0.000000,0.000000,1.000000));
#932=DIRECTION('',(0.000000,1.000000,0.000000));
#933=AXIS2_PLACEMENT_3D('',#363,#931,#932);
#934=PLANE('',#933);
#935=ADVANCED_FACE('',(#930),#934,.T.);
#936=ORIENTED_EDGE('',*,*,#921,.T.);
#937=ORIENTED_EDGE('',*,*,#605,.T.);
#938=EDGE_CURVE('',#603,#380,*,.T.);
#939=ORIENTED_EDGE('',*,*,#938,.T.);
#941=CARTESIAN_POINT('',(696.1700,-241.0000,-865.1428));
#942=VERTEX_POINT('',#941);
#940=EDGE_CURVE('',#380,#942,*,.T.);
#943=ORIENTED_EDGE('',*,*,#940,.T.);
#944=EDGE_CURVE('',#942,#372,*,.T.);
#945=ORIENTED_EDGE('',*,*,#944,.T.);
#946=EDGE_LOOP('',(#936,#937,#939,#943,#945));
#947=FACE_OUTER_BOUND('',#946,.T.);
#948=EDGE_CURVE('',#376,#625,*,.T.);
#949=ORIENTED_EDGE('',*,*,#948,.T.);
#950=ORIENTED_EDGE('',*,*,#623,.T.);
#951=EDGE_CURVE('',#621,#398,*,.T.);
#952=ORIENTED_EDGE('',*,*,#951,.T.);
#954=CARTESIAN_POINT('',(696.1700,-241.0000,-831.1429));
#955=VERTEX_POINT('',#954);
#953=EDGE_CURVE('',#398,#955,*,.T.);
#956=ORIENTED_EDGE('',*,*,#953,.T.);
#957=EDGE_CURVE('',#955,#376,*,.T.);
#958=ORIENTED_EDGE('',*,*,#957,.T.);
#959=EDGE_LOOP('',(#949,#950,#952,#956,#958));
#960=FACE_BOUND('',#959,.T.);
#961=EDGE_CURVE('',#394,#643,*,.T.);
#962=ORIENTED_EDGE('',*,*,#961,.T.);
#963=ORIENTED_EDGE('',*,*,#641,.T.);
#964=EDGE_CURVE('',#639,#416,*,.T.);
#965=ORIENTED_EDGE('',*,*,#964,.T.);
#967=CARTESIAN_POINT('',(696.1700,-241.0000,-797.1429));
#968=VERTEX_POINT('',#967);
#966=EDGE_CURVE('',#416,#968,*,.T.);
#969=ORIENTED_EDGE('',*,*,#966,.T.);
#970=EDGE_CURVE('',#968,#394,*,.T.);
#971=ORIENTED_EDGE('',*,*,#970,.T.);
#972=EDGE_LOOP('',(#962,#963,#965,#969,#971));
#973=FACE_BOUND('',#972,.T.);
#974=EDGE_CURVE('',#412,#661,*,.T.);
#975=ORIENTED_EDGE('',*,*,#974,.T.);
#976=ORIENTED_EDGE('',*,*,#659,.T.);
#977=EDGE_CURVE('',#657,#434,*,.T.);
#978=ORIENTED_EDGE('',*,*,#977,.T.);
#980=CARTESIAN_POINT('',(696.1700,-241.0000,-763.1429));
#981=VERTEX_POINT('',#980);
#979=EDGE_CURVE('',#434,#981,*,.T.);
#982=ORIENTED_EDGE('',*,*,#979,.T.);
#983=EDGE_CURVE('',#981,#412,*,.T.);
#984=ORIENTED_EDGE('',*,*,#983,.T.);
#985=EDGE_LOOP('',(#975,#976,#978,#982,#984));
#986=FACE_BOUND('',#985,.T.);
#987=EDGE_CURVE('',#450,#679,*,.T.);
#988=ORIENTED_EDGE('',*,*,#987,.T.);
#989=ORIENTED_EDGE('',*,*,#677,.T.);
#990=EDGE_CURVE('',#675,#458,*,.T.);
#991=ORIENTED_EDGE('',*,*,#990,.T.);
#993=CARTESIAN_POINT('',(696.1700,-241.0000,-729.1429));
#994=VERTEX_POINT('',#993);
#992=EDGE_CURVE('',#458,#994,*,.T.);
#995=ORIENTED_EDGE('',*,*,#992,.T.);
#996=EDGE_CURVE('',#994,#450,*,.T.);
#997=ORIENTED_EDGE('',*,*,#996,.T.);
#998=EDGE_LOOP('',(#988,#989,#991,#995,#997));
#999=FACE_BOUND('',#998,.T.);
#1000=EDGE_CURVE('',#454,#697,*,.T.);
#1001=ORIENTED_EDGE('',*,*,#1000,.T.);
#1002=ORIENTED_EDGE('',*,*,#695,.T.);
#1003=EDGE_CURVE('',#693,#484,*,.T.);
#1004=ORIENTED_EDGE('',*,*,#1003,.T.);
#1006=CARTESIAN_POINT('',(696.1700,-241.0000,-695.1429));
#1007=VERTEX_POINT('',#1006);
#1005=EDGE_CURVE('',#484,#1007,*,.T.);
#1008=ORIENTED_EDGE('',*,*,#1005,.T.);
#1009=EDGE_CURVE('',#1007,#454,*,.T.);
#1010=ORIENTED_EDGE('',*,*,#1009,.T.);
#1011=EDGE_LOOP('',(#1001,#1002,#1004,#1008,#1010));
#1012=FACE_BOUND('',#1011,.T.);
#1013=EDGE_CURVE('',#480,#715,*,.T.);
#1014=ORIENTED_EDGE('',*,*,#1013,.T.);
#1015=ORIENTED_EDGE('',*,*,#713,.T.);
#1016=EDGE_CURVE('',#711,#502,*,.T.);
#1017=ORIENTED_EDGE('',*,*,#1016,.T.);
#1019=CARTESIAN_POINT('',(696.1700,-241.0000,-661.1429));
#1020=VERTEX_POINT('',#1019);
#1018=EDGE_CURVE('',#502,#1020,*,.T.);
#1021=ORIENTED_EDGE('',*,*,#1018,.T.);
#1022=EDGE_CURVE('',#1020,#480,*,.T.);
#1023=ORIENTED_EDGE('',*,*,#1022,.T.);
#1024=EDGE_LOOP('',(#1014,#1015,#1017,#1021,#1023));
#1025=FACE_BOUND('',#1024,.T.);
#1026=EDGE_CURVE('',#498,#733,*,.T.);
#1027=ORIENTED_EDGE('',*,*,#1026,.T.);
#1028=ORIENTED_EDGE('',*,*,#731,.T.);
#1029=EDGE_CURVE('',#729,#520,*,.T.);
#1030=ORIENTED_EDGE('',*,*,#1029,.T.);
#1032=CARTESIAN_POINT('',(696.1700,-241.0000,-627.1429));
#1033=VERTEX_POINT('',#1032);
#1031=EDGE_CURVE('',#520,#1033,*,.T.);
#1034=ORIENTED_EDGE('',*,*,#1031,.T.);
#1035=EDGE_CURVE('',#1033,#498,*,.T.);
#1036=ORIENTED_EDGE('',*,*,#1035,.T.);
#1037=EDGE_LOOP('',(#1027,#1028,#1030,#1034,#1036));
#1038=FACE_BOUND('',#1037,.T.);
#1039=EDGE_CURVE('',#516,#751,*,.T.);
#1040=ORIENTED_EDGE('',*,*,#1039,.T.);
#1041=ORIENTED_EDGE('',*,*,#749,.T.);
#1042=EDGE_CURVE('',#747,#538,*,.T.);
#1043=ORIENTED_EDGE('',*,*,#1042,.T.);
#1045=CARTESIAN_POINT('',(696.1700,-241.0000,-593.1429));
#1046=VERTEX_POINT('',#1045);
#1044=EDGE_CURVE('',#538,#1046,*,.T.);
#1047=ORIENTED_EDGE('',*,*,#1044,.T.);
#1048=EDGE_CURVE('',#1046,#516,*,.T.);
#1049=ORIENTED_EDGE('',*,*,#1048,.T.);
#1050=EDGE_LOOP('',(#1040,#1041,#1043,#1047,#1049));
#1051=FACE_BOUND('',#1050,.T.);
#1052=EDGE_CURVE('',#534,#769,*,.T.);
#1053=ORIENTED_EDGE('',*,*,#1052,.T.);
#1054=ORIENTED_EDGE('',*,*,#767,.T.);
#1055=EDGE_CURVE('',#765,#583,*,.T.);
#1056=ORIENTED_EDGE('',*,*,#1055,.T.);
#1058=CARTESIAN_POINT('',(696.1700,-241.0000,-559.1428));
#1059=VERTEX_POINT('',#1058);
#1057=EDGE_CURVE('',#583,#1059,*,.T.);
#1060=ORIENTED_EDGE('',*,*,#1057,.T.);
#1061=EDGE_CURVE('',#1059,#534,*,.T.);
#1062=ORIENTED_EDGE('',*,*,#1061,.T.);
#1063=EDGE_LOOP('',(#1053,#1054,#1056,#1060,#1062));
#1064=FACE_BOUND('',#1063,.T.);
#1065=DIRECTION('',(1.000000,0.000000,0.000000));
#1066=DIRECTION('',(0.000000,1.000000,0.000000));
#1067=AXIS2_PLACEMENT_3D('',#371,#1065,#1066);
#1068=PLANE('',#1067);
#1069=ADVANCED_FACE('',(#947,#960,#973,#986,#999,#1012,#1025,#1038,#1051,#1064),#1068,.T.);
#1070=ORIENTED_EDGE('',*,*,#938,.T.);
#1071=ORIENTED_EDGE('',*,*,#599,.T.);
#1072=ORIENTED_EDGE('',*,*,#784,.T.);
#1074=CARTESIAN_POINT('',(697.7415,-241.0000,-848.0000));
#1075=VERTEX_POINT('',#1074);
#1073=EDGE_CURVE('',#384,#1075,*,.T.);
#1076=ORIENTED_EDGE('',*,*,#1073,.T.);
#1077=EDGE_CURVE('',#1075,#380,*,.T.);
#1078=ORIENTED_EDGE('',*,*,#1077,.T.);
#1079=EDGE_LOOP('',(#1070,#1071,#1072,#1076,#1078));
#1080=FACE_OUTER_BOUND('',#1079,.T.);
#1081=DIRECTION('',(0.000000,0.000000,-1.000000));
#1082=DIRECTION('',(0.000000,1.000000,0.000000));
#1083=AXIS2_PLACEMENT_3D('',#379,#1081,#1082);
#1084=PLANE('',#1083);
#1085=ADVANCED_FACE('',(#1080),#1084,.T.);
#1086=ORIENTED_EDGE('',*,*,#800,.T.);
#1087=ORIENTED_EDGE('',*,*,#627,.T.);
#1088=ORIENTED_EDGE('',*,*,#948,.T.);
#1090=CARTESIAN_POINT('',(705.5986,-241.0000,-834.0000));
#1091=VERTEX_POINT('',#1090);
#1089=EDGE_CURVE('',#376,#1091,*,.T.);
#1092=ORIENTED_EDGE('',*,*,#1089,.T.);
#1093=EDGE_CURVE('',#1091,#388,*,.T.);
#1094=ORIENTED_EDGE('',*,*,#1093,.T.);
#1095=EDGE_LOOP('',(#1086,#1087,#1088,#1092,#1094));
#1096=FACE_OUTER_BOUND('',#1095,.T.);
#1097=DIRECTION('',(0.000000,0.000000,1.000000));
#1098=DIRECTION('',(0.000000,1.000000,0.000000));
#1099=AXIS2_PLACEMENT_3D('',#387,#1097,#1098);
#1100=PLANE('',#1099);
#1101=ADVANCED_FACE('',(#1096),#1100,.T.);
#1102=ORIENTED_EDGE('',*,*,#951,.T.);
#1103=ORIENTED_EDGE('',*,*,#617,.T.);
#1104=ORIENTED_EDGE('',*,*,#797,.T.);
#1106=CARTESIAN_POINT('',(697.7415,-241.0000,-814.0000));
#1107=VERTEX_POINT('',#1106);
#1105=EDGE_CURVE('',#402,#1107,*,.T.);
#1108=ORIENTED_EDGE('',*,*,#1105,.T.);
#1109=EDGE_CURVE('',#1107,#398,*,.T.);
#1110=ORIENTED_EDGE('',*,*,#1109,.T.);
#1111=EDGE_LOOP('',(#1102,#1103,#1104,#1108,#1110));
#1112=FACE_OUTER_BOUND('',#1111,.T.);
#1113=DIRECTION('',(0.000000,0.000000,-1.000000));
#1114=DIRECTION('',(0.000000,1.000000,0.000000));
#1115=AXIS2_PLACEMENT_3D('',#397,#1113,#1114);
#1116=PLANE('',#1115);
#1117=ADVANCED_FACE('',(#1112),#1116,.T.);
#1118=ORIENTED_EDGE('',*,*,#813,.T.);
#1119=ORIENTED_EDGE('',*,*,#645,.T.);
#1120=ORIENTED_EDGE('',*,*,#961,.T.);
#1122=CARTESIAN_POINT('',(705.5986,-241.0000,-800.0000));
#1123=VERTEX_POINT('',#1122);
#1121=EDGE_CURVE('',#394,#1123,*,.T.);
#1124=ORIENTED_EDGE('',*,*,#1121,.T.);
#1125=EDGE_CURVE('',#1123,#406,*,.T.);
#1126=ORIENTED_EDGE('',*,*,#1125,.T.);
#1127=EDGE_LOOP('',(#1118,#1119,#1120,#1124,#1126));
#1128=FACE_OUTER_BOUND('',#1127,.T.);
#1129=DIRECTION('',(0.000000,0.000000,1.000000));
#1130=DIRECTION('',(0.000000,1.000000,0.000000));
#1131=AXIS2_PLACEMENT_3D('',#405,#1129,#1130);
#1132=PLANE('',#1131);
#1133=ADVANCED_FACE('',(#1128),#1132,.T.);
#1134=ORIENTED_EDGE('',*,*,#964,.T.);
#1135=ORIENTED_EDGE('',*,*,#635,.T.);
#1136=ORIENTED_EDGE('',*,*,#810,.T.);
#1138=CARTESIAN_POINT('',(697.7415,-241.0000,-780.0000));
#1139=VERTEX_POINT('',#1138);
#1137=EDGE_CURVE('',#420,#1139,*,.T.);
#1140=ORIENTED_EDGE('',*,*,#1137,.T.);
#1141=EDGE_CURVE('',#1139,#416,*,.T.);
#1142=ORIENTED_EDGE('',*,*,#1141,.T.);
#1143=EDGE_LOOP('',(#1134,#1135,#1136,#1140,#1142));
#1144=FACE_OUTER_BOUND('',#1143,.T.);
#1145=DIRECTION('',(0.000000,0.000000,-1.000000));
#1146=DIRECTION('',(0.000000,1.000000,0.000000));
#1147=AXIS2_PLACEMENT_3D('',#415,#1145,#1146);
#1148=PLANE('',#1147);
#1149=ADVANCED_FACE('',(#1144),#1148,.T.);
#1150=ORIENTED_EDGE('',*,*,#826,.T.);
#1151=ORIENTED_EDGE('',*,*,#663,.T.);
#1152=ORIENTED_EDGE('',*,*,#974,.T.);
#1154=CARTESIAN_POINT('',(705.5986,-241.0000,-766.0000));
#1155=VERTEX_POINT('',#1154);
#1153=EDGE_CURVE('',#412,#1155,*,.T.);
#1156=ORIENTED_EDGE('',*,*,#1153,.T.);
#1157=EDGE_CURVE('',#1155,#424,*,.T.);
#1158=ORIENTED_EDGE('',*,*,#1157,.T.);
#1159=EDGE_LOOP('',(#1150,#1151,#1152,#1156,#1158));
#1160=FACE_OUTER_BOUND('',#1159,.T.);
#1161=DIRECTION('',(0.000000,0.000000,1.000000));
#1162=DIRECTION('',(0.000000,1.000000,0.000000));
#1163=AXIS2_PLACEMENT_3D('',#423,#1161,#1162);
#1164=PLANE('',#1163);
#1165=ADVANCED_FACE('',(#1160),#1164,.T.);
#1166=ORIENTED_EDGE('',*,*,#977,.T.);
#1167=ORIENTED_EDGE('',*,*,#653,.T.);
#1168=ORIENTED_EDGE('',*,*,#823,.T.);
#1170=CARTESIAN_POINT('',(697.7415,-241.0000,-746.0000));
#1171=VERTEX_POINT('',#1170);
#1169=EDGE_CURVE('',#438,#1171,*,.T.);
#1172=ORIENTED_EDGE('',*,*,#1169,.T.);
#1173=EDGE_CURVE('',#1171,#434,*,.T.);
#1174=ORIENTED_EDGE('',*,*,#1173,.T.);
#1175=EDGE_LOOP('',(#1166,#1167,#1168,#1172,#1174));
#1176=FACE_OUTER_BOUND('',#1175,.T.);
#1177=DIRECTION('',(0.000000,0.000000,-1.000000));
#1178=DIRECTION('',(0.000000,1.000000,0.000000));
#1179=AXIS2_PLACEMENT_3D('',#433,#1177,#1178);
#1180=PLANE('',#1179);
#1181=ADVANCED_FACE('',(#1176),#1180,.T.);
#1182=ORIENTED_EDGE('',*,*,#839,.T.);
#1183=ORIENTED_EDGE('',*,*,#681,.T.);
#1184=ORIENTED_EDGE('',*,*,#987,.T.);
#1186=CARTESIAN_POINT('',(705.5986,-241.0000,-732.0000));
#1187=VERTEX_POINT('',#1186);
#1185=EDGE_CURVE('',#450,#1187,*,.T.);
#1188=ORIENTED_EDGE('',*,*,#1185,.T.);
#1189=EDGE_CURVE('',#1187,#442,*,.T.);
#1190=ORIENTED_EDGE('',*,*,#1189,.T.);
#1191=EDGE_LOOP('',(#1182,#1183,#1184,#1188,#1190));
#1192=FACE_OUTER_BOUND('',#1191,.T.);
#1193=DIRECTION('',(0.000000,0.000000,1.000000));
#1194=DIRECTION('',(0.000000,1.000000,0.000000));
#1195=AXIS2_PLACEMENT_3D('',#441,#1193,#1194);
#1196=PLANE('',#1195);
#1197=ADVANCED_FACE('',(#1192),#1196,.T.);
#1198=ORIENTED_EDGE('',*,*,#990,.T.);
#1199=ORIENTED_EDGE('',*,*,#671,.T.);
#1200=ORIENTED_EDGE('',*,*,#836,.T.);
#1202=CARTESIAN_POINT('',(697.7415,-241.0000,-712.0000));
#1203=VERTEX_POINT('',#1202);
#1201=EDGE_CURVE('',#466,#1203,*,.T.);
#1204=ORIENTED_EDGE('',*,*,#1201,.T.);
#1205=EDGE_CURVE('',#1203,#458,*,.T.);
#1206=ORIENTED_EDGE('',*,*,#1205,.T.);
#1207=EDGE_LOOP('',(#1198,#1199,#1200,#1204,#1206));
#1208=FACE_OUTER_BOUND('',#1207,.T.);
#1209=DIRECTION('',(0.000000,0.000000,-1.000000));
#1210=DIRECTION('',(0.000000,1.000000,0.000000));
#1211=AXIS2_PLACEMENT_3D('',#457,#1209,#1210);
#1212=PLANE('',#1211);
#1213=ADVANCED_FACE('',(#1208),#1212,.T.);
#1214=ORIENTED_EDGE('',*,*,#852,.T.);
#1215=ORIENTED_EDGE('',*,*,#699,.T.);
#1216=ORIENTED_EDGE('',*,*,#1000,.T.);
#1218=CARTESIAN_POINT('',(705.5986,-241.0000,-698.0000));
#1219=VERTEX_POINT('',#1218);
#1217=EDGE_CURVE('',#454,#1219,*,.T.);
#1220=ORIENTED_EDGE('',*,*,#1217,.T.);
#1221=EDGE_CURVE('',#1219,#470,*,.T.);
#1222=ORIENTED_EDGE('',*,*,#1221,.T.);
#1223=EDGE_LOOP('',(#1214,#1215,#1216,#1220,#1222));
#1224=FACE_OUTER_BOUND('',#1223,.T.);
#1225=DIRECTION('',(0.000000,0.000000,1.000000));
#1226=DIRECTION('',(0.000000,1.000000,0.000000));
#1227=AXIS2_PLACEMENT_3D('',#469,#1225,#1226);
#1228=PLANE('',#1227);
#1229=ADVANCED_FACE('',(#1224),#1228,.T.);
#1230=ORIENTED_EDGE('',*,*,#1003,.T.);
#1231=ORIENTED_EDGE('',*,*,#689,.T.);
#1232=ORIENTED_EDGE('',*,*,#849,.T.);
#1234=CARTESIAN_POINT('',(697.7415,-241.0000,-678.0000));
#1235=VERTEX_POINT('',#1234);
#1233=EDGE_CURVE('',#488,#1235,*,.T.);
#1236=ORIENTED_EDGE('',*,*,#1233,.T.);
#1237=EDGE_CURVE('',#1235,#484,*,.T.);
#1238=ORIENTED_EDGE('',*,*,#1237,.T.);
#1239=EDGE_LOOP('',(#1230,#1231,#1232,#1236,#1238));
#1240=FACE_OUTER_BOUND('',#1239,.T.);
#1241=DIRECTION('',(0.000000,0.000000,-1.000000));
#1242=DIRECTION('',(0.000000,1.000000,0.000000));
#1243=AXIS2_PLACEMENT_3D('',#483,#1241,#1242);
#1244=PLANE('',#1243);
#1245=ADVANCED_FACE('',(#1240),#1244,.T.);
#1246=ORIENTED_EDGE('',*,*,#865,.T.);
#1247=ORIENTED_EDGE('',*,*,#717,.T.);
#1248=ORIENTED_EDGE('',*,*,#1013,.T.);
#1250=CARTESIAN_POINT('',(705.5986,-241.0000,-664.0000));
#1251=VERTEX_POINT('',#1250);
#1249=EDGE_CURVE('',#480,#1251,*,.T.);
#1252=ORIENTED_EDGE('',*,*,#1249,.T.);
#1253=EDGE_CURVE('',#1251,#492,*,.T.);
#1254=ORIENTED_EDGE('',*,*,#1253,.T.);
#1255=EDGE_LOOP('',(#1246,#1247,#1248,#1252,#1254));
#1256=FACE_OUTER_BOUND('',#1255,.T.);
#1257=DIRECTION('',(0.000000,0.000000,1.000000));
#1258=DIRECTION('',(0.000000,1.000000,0.000000));
#1259=AXIS2_PLACEMENT_3D('',#491,#1257,#1258);
#1260=PLANE('',#1259);
#1261=ADVANCED_FACE('',(#1256),#1260,.T.);
#1262=ORIENTED_EDGE('',*,*,#1016,.T.);
#1263=ORIENTED_EDGE('',*,*,#707,.T.);
#1264=ORIENTED_EDGE('',*,*,#862,.T.);
#1266=CARTESIAN_POINT('',(697.7415,-241.0000,-644.0000));
#1267=VERTEX_POINT('',#1266);
#1265=EDGE_CURVE('',#506,#1267,*,.T.);
#1268=ORIENTED_EDGE('',*,*,#1265,.T.);
#1269=EDGE_CURVE('',#1267,#502,*,.T.);
#1270=ORIENTED_EDGE('',*,*,#1269,.T.);
#1271=EDGE_LOOP('',(#1262,#1263,#1264,#1268,#1270));
#1272=FACE_OUTER_BOUND('',#1271,.T.);
#1273=DIRECTION('',(0.000000,0.000000,-1.000000));
#1274=DIRECTION('',(0.000000,1.000000,0.000000));
#1275=AXIS2_PLACEMENT_3D('',#501,#1273,#1274);
#1276=PLANE('',#1275);
#1277=ADVANCED_FACE('',(#1272),#1276,.T.);
#1278=ORIENTED_EDGE('',*,*,#878,.T.);
#1279=ORIENTED_EDGE('',*,*,#735,.T.);
#1280=ORIENTED_EDGE('',*,*,#1026,.T.);
#1282=CARTESIAN_POINT('',(705.5986,-241.0000,-630.0000));
#1283=VERTEX_POINT('',#1282);
#1281=EDGE_CURVE('',#498,#1283,*,.T.);
#1284=ORIENTED_EDGE('',*,*,#1281,.T.);
#1285=EDGE_CURVE('',#1283,#510,*,.T.);
#1286=ORIENTED_EDGE('',*,*,#1285,.T.);
#1287=EDGE_LOOP('',(#1278,#1279,#1280,#1284,#1286));
#1288=FACE_OUTER_BOUND('',#1287,.T.);
#1289=DIRECTION('',(0.000000,0.000000,1.000000));
#1290=DIRECTION('',(0.000000,1.000000,0.000000));
#1291=AXIS2_PLACEMENT_3D('',#509,#1289,#1290);
#1292=PLANE('',#1291);
#1293=ADVANCED_FACE('',(#1288),#1292,.T.);
#1294=ORIENTED_EDGE('',*,*,#1029,.T.);
#1295=ORIENTED_EDGE('',*,*,#725,.T.);
#1296=ORIENTED_EDGE('',*,*,#875,.T.);
#1298=CARTESIAN_POINT('',(697.7415,-241.0000,-610.0000));
#1299=VERTEX_POINT('',#1298);
#1297=EDGE_CURVE('',#524,#1299,*,.T.);
#1300=ORIENTED_EDGE('',*,*,#1297,.T.);
#1301=EDGE_CURVE('',#1299,#520,*,.T.);
#1302=ORIENTED_EDGE('',*,*,#1301,.T.);
#1303=EDGE_LOOP('',(#1294,#1295,#1296,#1300,#1302));
#1304=FACE_OUTER_BOUND('',#1303,.T.);
#1305=DIRECTION('',(0.000000,0.000000,-1.000000));
#1306=DIRECTION('',(0.000000,1.000000,0.000000));
#1307=AXIS2_PLACEMENT_3D('',#519,#1305,#1306);
#1308=PLANE('',#1307);
#1309=ADVANCED_FACE('',(#1304),#1308,.T.);
#1310=ORIENTED_EDGE('',*,*,#891,.T.);
#1311=ORIENTED_EDGE('',*,*,#753,.T.);
#1312=ORIENTED_EDGE('',*,*,#1039,.T.);
#1314=CARTESIAN_POINT('',(705.5986,-241.0000,-596.0000));
#1315=VERTEX_POINT('',#1314);
#1313=EDGE_CURVE('',#516,#1315,*,.T.);
#1316=ORIENTED_EDGE('',*,*,#1313,.T.);
#1317=EDGE_CURVE('',#1315,#528,*,.T.);
#1318=ORIENTED_EDGE('',*,*,#1317,.T.);
#1319=EDGE_LOOP('',(#1310,#1311,#1312,#1316,#1318));
#1320=FACE_OUTER_BOUND('',#1319,.T.);
#1321=DIRECTION('',(0.000000,0.000000,1.000000));
#1322=DIRECTION('',(0.000000,1.000000,0.000000));
#1323=AXIS2_PLACEMENT_3D('',#527,#1321,#1322);
#1324=PLANE('',#1323);
#1325=ADVANCED_FACE('',(#1320),#1324,.T.);
#1326=ORIENTED_EDGE('',*,*,#1042,.T.);
#1327=ORIENTED_EDGE('',*,*,#743,.T.);
#1328=ORIENTED_EDGE('',*,*,#888,.T.);
#1330=CARTESIAN_POINT('',(697.7415,-241.0000,-576.0000));
#1331=VERTEX_POINT('',#1330);
#1329=EDGE_CURVE('',#542,#1331,*,.T.);
#1332=ORIENTED_EDGE('',*,*,#1329,.T.);
#1333=EDGE_CURVE('',#1331,#538,*,.T.);
#1334=ORIENTED_EDGE('',*,*,#1333,.T.);
#1335=EDGE_LOOP('',(#1326,#1327,#1328,#1332,#1334));
#1336=FACE_OUTER_BOUND('',#1335,.T.);
#1337=DIRECTION('',(0.000000,0.000000,-1.000000));
#1338=DIRECTION('',(0.000000,1.000000,0.000000));
#1339=AXIS2_PLACEMENT_3D('',#537,#1337,#1338);
#1340=PLANE('',#1339);
#1341=ADVANCED_FACE('',(#1336),#1340,.T.);
#1342=ORIENTED_EDGE('',*,*,#904,.T.);
#1343=ORIENTED_EDGE('',*,*,#771,.T.);
#1344=ORIENTED_EDGE('',*,*,#1052,.T.);
#1346=CARTESIAN_POINT('',(705.5986,-241.0000,-562.0000));
#1347=VERTEX_POINT('',#1346);
#1345=EDGE_CURVE('',#534,#1347,*,.T.);
#1348=ORIENTED_EDGE('',*,*,#1345,.T.);
#1349=EDGE_CURVE('',#1347,#546,*,.T.);
#1350=ORIENTED_EDGE('',*,*,#1349,.T.);
#1351=EDGE_LOOP('',(#1342,#1343,#1344,#1348,#1350));
#1352=FACE_OUTER_BOUND('',#1351,.T.);
#1353=DIRECTION('',(0.000000,0.000000,1.000000));
#1354=DIRECTION('',(0.000000,1.000000,0.000000));
#1355=AXIS2_PLACEMENT_3D('',#545,#1353,#1354);
#1356=PLANE('',#1355);
#1357=ADVANCED_FACE('',(#1352),#1356,.T.);
#1358=ORIENTED_EDGE('',*,*,#1055,.T.);
#1359=ORIENTED_EDGE('',*,*,#761,.T.);
#1360=ORIENTED_EDGE('',*,*,#901,.T.);
#1362=CARTESIAN_POINT('',(697.7415,-241.0000,-542.0000));
#1363=VERTEX_POINT('',#1362);
#1361=EDGE_CURVE('',#585,#1363,*,.T.);
#1364=ORIENTED_EDGE('',*,*,#1361,.T.);
#1365=EDGE_CURVE('',#1363,#583,*,.T.);
#1366=ORIENTED_EDGE('',*,*,#1365,.T.);
#1367=EDGE_LOOP('',(#1358,#1359,#1360,#1364,#1366));
#1368=FACE_OUTER_BOUND('',#1367,.T.);
#1369=DIRECTION('',(0.000000,0.000000,-1.000000));
#1370=DIRECTION('',(0.000000,1.000000,0.000000));
#1371=AXIS2_PLACEMENT_3D('',#582,#1369,#1370);
#1372=PLANE('',#1371);
#1373=ADVANCED_FACE('',(#1368),#1372,.T.);
#1374=CLOSED_SHELL('',(#39,#170,#201,#220,#239,#260,#314,#360,#598,#783,#918,#935,#1069,#1085,#1101,#1117,#1133,#1149,#1165,#1181,#1197,#1213,#1229,#1245,#1261,#1277,#1293,#1309,#1325,#1341,#1357,#1373));
#1375=MANIFOLD_SOLID_BREP('CV-LBP18-F60-063 — Tira telescópica BR_3002 84×38×3 (10 ranuras 11×20)',#1374);
#1376=DIRECTION('',(0.,0.,1.));
#1377=DIRECTION('',(1.,0.,0.));
#1379=CARTESIAN_POINT('',(0.0000,0.0000,0.0000));
#1378=AXIS2_PLACEMENT_3D('',#1379,#1376,#1377);
#1380=( LENGTH_UNIT() NAMED_UNIT(*) SI_UNIT(.MILLI.,.METRE.) );
#1381=( NAMED_UNIT(*) PLANE_ANGLE_UNIT() SI_UNIT($,.RADIAN.) );
#1382=( NAMED_UNIT(*) SI_UNIT($,.STERADIAN.) SOLID_ANGLE_UNIT() );
#1383=UNCERTAINTY_MEASURE_WITH_UNIT(LENGTH_MEASURE(0.01),#1380,'distance_accuracy_value','');
#1384=( GEOMETRIC_REPRESENTATION_CONTEXT(3) GLOBAL_UNCERTAINTY_ASSIGNED_CONTEXT((#1383)) GLOBAL_UNIT_ASSIGNED_CONTEXT((#1380,#1381,#1382)) REPRESENTATION_CONTEXT('','3D') );
#1385=ADVANCED_BREP_SHAPE_REPRESENTATION('CV-LBP18-F60-063 — Tira telescópica BR_3002 84×38×3 (10 ranuras 11×20)',(#1378,#1375),#1384);
ENDSEC;
END-ISO-10303-21;
