ISO-10303-21;
HEADER;
FILE_DESCRIPTION(('CV-LBP18-F60-062 — Pata B_004A 158×40×4 — pie de anclaje (SOLDADA a tira BR_300'),'2;1');
FILE_NAME('CV-LBP18-F60-062 — Pata B_004A 158×40×4 — pie de anclaje (SOLDADA a tira BR_300','2026-08-19T00:00:00',('ConveyOne SpA'),('ConveyOne SpA'),'ConveyOne CAD','step_export.mjs','');
FILE_SCHEMA(('CONFIG_CONTROL_DESIGN'));
ENDSEC;
DATA;
#2=CARTESIAN_POINT('',(780.6700,-201.0000,-899.5000));
#3=VERTEX_POINT('',#2);
#4=CARTESIAN_POINT('',(780.6700,-201.0000,-896.0000));
#5=VERTEX_POINT('',#4);
#1=EDGE_CURVE('',#3,#5,*,.T.);
#6=ORIENTED_EDGE('',*,*,#1,.T.);
#8=CARTESIAN_POINT('',(780.6700,-241.0000,-896.0000));
#9=VERTEX_POINT('',#8);
#7=EDGE_CURVE('',#5,#9,*,.T.);
#10=ORIENTED_EDGE('',*,*,#7,.T.);
#12=CARTESIAN_POINT('',(780.6700,-241.0000,-899.5000));
#13=VERTEX_POINT('',#12);
#11=EDGE_CURVE('',#9,#13,*,.T.);
#14=ORIENTED_EDGE('',*,*,#11,.T.);
#16=CARTESIAN_POINT('',(780.6700,-241.0000,-900.0000));
#17=VERTEX_POINT('',#16);
#15=EDGE_CURVE('',#13,#17,*,.T.);
#18=ORIENTED_EDGE('',*,*,#15,.T.);
#20=CARTESIAN_POINT('',(780.6700,-201.0000,-900.0000));
#21=VERTEX_POINT('',#20);
#19=EDGE_CURVE('',#17,#21,*,.T.);
#22=ORIENTED_EDGE('',*,*,#19,.T.);
#23=EDGE_CURVE('',#21,#3,*,.T.);
#24=ORIENTED_EDGE('',*,*,#23,.T.);
#25=EDGE_LOOP('',(#6,#10,#14,#18,#22,#24));
#26=FACE_OUTER_BOUND('',#25,.T.);
#27=DIRECTION('',(1.000000,0.000000,0.000000));
#28=DIRECTION('',(0.000000,0.000000,1.000000));
#29=AXIS2_PLACEMENT_3D('',#2,#27,#28);
#30=PLANE('',#29);
#31=ADVANCED_FACE('',(#26),#30,.T.);
#33=CARTESIAN_POINT('',(622.6700,-201.0000,-896.0000));
#34=VERTEX_POINT('',#33);
#35=CARTESIAN_POINT('',(622.6700,-201.0000,-899.5000));
#36=VERTEX_POINT('',#35);
#32=EDGE_CURVE('',#34,#36,*,.T.);
#37=ORIENTED_EDGE('',*,*,#32,.T.);
#39=CARTESIAN_POINT('',(622.6700,-201.0000,-900.0000));
#40=VERTEX_POINT('',#39);
#38=EDGE_CURVE('',#36,#40,*,.T.);
#41=ORIENTED_EDGE('',*,*,#38,.T.);
#43=CARTESIAN_POINT('',(622.6700,-210.0000,-900.0000));
#44=VERTEX_POINT('',#43);
#42=EDGE_CURVE('',#40,#44,*,.T.);
#45=ORIENTED_EDGE('',*,*,#42,.T.);
#47=CARTESIAN_POINT('',(622.6700,-241.0000,-900.0000));
#48=VERTEX_POINT('',#47);
#46=EDGE_CURVE('',#44,#48,*,.T.);
#49=ORIENTED_EDGE('',*,*,#46,.T.);
#51=CARTESIAN_POINT('',(622.6700,-241.0000,-899.5000));
#52=VERTEX_POINT('',#51);
#50=EDGE_CURVE('',#48,#52,*,.T.);
#53=ORIENTED_EDGE('',*,*,#50,.T.);
#55=CARTESIAN_POINT('',(622.6700,-241.0000,-896.0000));
#56=VERTEX_POINT('',#55);
#54=EDGE_CURVE('',#52,#56,*,.T.);
#57=ORIENTED_EDGE('',*,*,#54,.T.);
#58=EDGE_CURVE('',#56,#34,*,.T.);
#59=ORIENTED_EDGE('',*,*,#58,.T.);
#60=EDGE_LOOP('',(#37,#41,#45,#49,#53,#57,#59));
#61=FACE_OUTER_BOUND('',#60,.T.);
#63=CARTESIAN_POINT('',(622.6700,-236.0000,-899.5000));
#64=VERTEX_POINT('',#63);
#62=EDGE_CURVE('',#36,#64,*,.T.);
#65=ORIENTED_EDGE('',*,*,#62,.T.);
#67=CARTESIAN_POINT('',(622.6700,-210.0000,-899.5000));
#68=VERTEX_POINT('',#67);
#66=EDGE_CURVE('',#64,#68,*,.T.);
#69=ORIENTED_EDGE('',*,*,#66,.T.);
#70=EDGE_CURVE('',#68,#36,*,.T.);
#71=ORIENTED_EDGE('',*,*,#70,.T.);
#72=EDGE_LOOP('',(#65,#69,#71));
#73=FACE_BOUND('',#72,.T.);
#74=DIRECTION('',(-1.000000,0.000000,0.000000));
#75=DIRECTION('',(0.000000,0.000000,-1.000000));
#76=AXIS2_PLACEMENT_3D('',#33,#74,#75);
#77=PLANE('',#76);
#78=ADVANCED_FACE('',(#61,#73),#77,.T.);
#79=ORIENTED_EDGE('',*,*,#32,.T.);
#80=EDGE_CURVE('',#34,#5,*,.T.);
#81=ORIENTED_EDGE('',*,*,#80,.T.);
#82=ORIENTED_EDGE('',*,*,#1,.T.);
#84=CARTESIAN_POINT('',(760.9200,-201.0000,-899.5000));
#85=VERTEX_POINT('',#84);
#83=EDGE_CURVE('',#3,#85,*,.T.);
#86=ORIENTED_EDGE('',*,*,#83,.T.);
#87=EDGE_CURVE('',#85,#36,*,.T.);
#88=ORIENTED_EDGE('',*,*,#87,.T.);
#89=EDGE_LOOP('',(#79,#81,#82,#86,#88));
#90=FACE_OUTER_BOUND('',#89,.T.);
#92=CARTESIAN_POINT('',(770.7700,-201.0000,-900.0000));
#93=VERTEX_POINT('',#92);
#91=EDGE_CURVE('',#21,#93,*,.T.);
#94=ORIENTED_EDGE('',*,*,#91,.T.);
#96=CARTESIAN_POINT('',(643.5700,-201.0000,-900.0000));
#97=VERTEX_POINT('',#96);
#95=EDGE_CURVE('',#93,#97,*,.T.);
#98=ORIENTED_EDGE('',*,*,#95,.T.);
#99=EDGE_CURVE('',#97,#40,*,.T.);
#100=ORIENTED_EDGE('',*,*,#99,.T.);
#101=ORIENTED_EDGE('',*,*,#38,.T.);
#103=CARTESIAN_POINT('',(643.5700,-201.0000,-899.5000));
#104=VERTEX_POINT('',#103);
#102=EDGE_CURVE('',#36,#104,*,.T.);
#105=ORIENTED_EDGE('',*,*,#102,.T.);
#106=EDGE_CURVE('',#104,#85,*,.T.);
#107=ORIENTED_EDGE('',*,*,#106,.T.);
#109=CARTESIAN_POINT('',(770.7700,-201.0000,-899.5000));
#110=VERTEX_POINT('',#109);
#108=EDGE_CURVE('',#85,#110,*,.T.);
#111=ORIENTED_EDGE('',*,*,#108,.T.);
#112=EDGE_CURVE('',#110,#3,*,.T.);
#113=ORIENTED_EDGE('',*,*,#112,.T.);
#114=ORIENTED_EDGE('',*,*,#23,.T.);
#115=EDGE_LOOP('',(#94,#98,#100,#101,#105,#107,#111,#113,#114));
#116=FACE_BOUND('',#115,.T.);
#117=DIRECTION('',(0.000000,1.000000,0.000000));
#118=DIRECTION('',(0.000000,0.000000,1.000000));
#119=AXIS2_PLACEMENT_3D('',#35,#117,#118);
#120=PLANE('',#119);
#121=ADVANCED_FACE('',(#90,#116),#120,.T.);
#122=ORIENTED_EDGE('',*,*,#54,.T.);
#124=CARTESIAN_POINT('',(642.4200,-241.0000,-899.5000));
#125=VERTEX_POINT('',#124);
#123=EDGE_CURVE('',#52,#125,*,.T.);
#126=ORIENTED_EDGE('',*,*,#123,.T.);
#127=EDGE_CURVE('',#125,#13,*,.T.);
#128=ORIENTED_EDGE('',*,*,#127,.T.);
#129=ORIENTED_EDGE('',*,*,#11,.T.);
#130=EDGE_CURVE('',#9,#56,*,.T.);
#131=ORIENTED_EDGE('',*,*,#130,.T.);
#132=EDGE_LOOP('',(#122,#126,#128,#129,#131));
#133=FACE_OUTER_BOUND('',#132,.T.);
#135=CARTESIAN_POINT('',(770.7700,-241.0000,-900.0000));
#136=VERTEX_POINT('',#135);
#134=EDGE_CURVE('',#136,#17,*,.T.);
#137=ORIENTED_EDGE('',*,*,#134,.T.);
#138=ORIENTED_EDGE('',*,*,#15,.T.);
#140=CARTESIAN_POINT('',(770.7700,-241.0000,-899.5000));
#141=VERTEX_POINT('',#140);
#139=EDGE_CURVE('',#13,#141,*,.T.);
#142=ORIENTED_EDGE('',*,*,#139,.T.);
#144=CARTESIAN_POINT('',(759.7700,-241.0000,-899.5000));
#145=VERTEX_POINT('',#144);
#143=EDGE_CURVE('',#141,#145,*,.T.);
#146=ORIENTED_EDGE('',*,*,#143,.T.);
#148=CARTESIAN_POINT('',(643.5700,-241.0000,-899.5000));
#149=VERTEX_POINT('',#148);
#147=EDGE_CURVE('',#145,#149,*,.T.);
#150=ORIENTED_EDGE('',*,*,#147,.T.);
#151=EDGE_CURVE('',#149,#125,*,.T.);
#152=ORIENTED_EDGE('',*,*,#151,.T.);
#154=CARTESIAN_POINT('',(632.5700,-241.0000,-899.5000));
#155=VERTEX_POINT('',#154);
#153=EDGE_CURVE('',#125,#155,*,.T.);
#156=ORIENTED_EDGE('',*,*,#153,.T.);
#157=EDGE_CURVE('',#155,#52,*,.T.);
#158=ORIENTED_EDGE('',*,*,#157,.T.);
#159=ORIENTED_EDGE('',*,*,#50,.T.);
#161=CARTESIAN_POINT('',(632.5700,-241.0000,-900.0000));
#162=VERTEX_POINT('',#161);
#160=EDGE_CURVE('',#48,#162,*,.T.);
#163=ORIENTED_EDGE('',*,*,#160,.T.);
#165=CARTESIAN_POINT('',(643.5700,-241.0000,-900.0000));
#166=VERTEX_POINT('',#165);
#164=EDGE_CURVE('',#162,#166,*,.T.);
#167=ORIENTED_EDGE('',*,*,#164,.T.);
#169=CARTESIAN_POINT('',(759.7700,-241.0000,-900.0000));
#170=VERTEX_POINT('',#169);
#168=EDGE_CURVE('',#166,#170,*,.T.);
#171=ORIENTED_EDGE('',*,*,#168,.T.);
#172=EDGE_CURVE('',#170,#136,*,.T.);
#173=ORIENTED_EDGE('',*,*,#172,.T.);
#174=EDGE_LOOP('',(#137,#138,#142,#146,#150,#152,#156,#158,#159,#163,#167,#171,#173));
#175=FACE_BOUND('',#174,.T.);
#176=DIRECTION('',(0.000000,-1.000000,0.000000));
#177=DIRECTION('',(0.000000,0.000000,-1.000000));
#178=AXIS2_PLACEMENT_3D('',#55,#176,#177);
#179=PLANE('',#178);
#180=ADVANCED_FACE('',(#133,#175),#179,.T.);
#181=ORIENTED_EDGE('',*,*,#58,.T.);
#182=ORIENTED_EDGE('',*,*,#130,.T.);
#183=ORIENTED_EDGE('',*,*,#7,.T.);
#184=ORIENTED_EDGE('',*,*,#80,.T.);
#185=EDGE_LOOP('',(#181,#182,#183,#184));
#186=FACE_OUTER_BOUND('',#185,.T.);
#187=DIRECTION('',(0.000000,0.000000,1.000000));
#188=DIRECTION('',(0.000000,-1.000000,0.000000));
#189=AXIS2_PLACEMENT_3D('',#33,#187,#188);
#190=PLANE('',#189);
#191=ADVANCED_FACE('',(#186),#190,.T.);
#192=ORIENTED_EDGE('',*,*,#91,.T.);
#193=ORIENTED_EDGE('',*,*,#19,.T.);
#194=ORIENTED_EDGE('',*,*,#134,.T.);
#195=ORIENTED_EDGE('',*,*,#172,.T.);
#196=ORIENTED_EDGE('',*,*,#168,.T.);
#198=CARTESIAN_POINT('',(643.5700,-210.0000,-900.0000));
#199=VERTEX_POINT('',#198);
#197=EDGE_CURVE('',#166,#199,*,.T.);
#200=ORIENTED_EDGE('',*,*,#197,.T.);
#201=EDGE_CURVE('',#199,#44,*,.T.);
#202=ORIENTED_EDGE('',*,*,#201,.T.);
#203=ORIENTED_EDGE('',*,*,#42,.T.);
#204=ORIENTED_EDGE('',*,*,#99,.T.);
#205=ORIENTED_EDGE('',*,*,#95,.T.);
#206=EDGE_LOOP('',(#192,#193,#194,#195,#196,#200,#202,#203,#204,#205));
#207=FACE_OUTER_BOUND('',#206,.T.);
#209=CARTESIAN_POINT('',(632.5700,-210.0000,-900.0000));
#210=VERTEX_POINT('',#209);
#208=EDGE_CURVE('',#210,#162,*,.T.);
#211=ORIENTED_EDGE('',*,*,#208,.T.);
#212=ORIENTED_EDGE('',*,*,#160,.T.);
#213=ORIENTED_EDGE('',*,*,#46,.T.);
#214=EDGE_CURVE('',#44,#210,*,.T.);
#215=ORIENTED_EDGE('',*,*,#214,.T.);
#216=EDGE_LOOP('',(#211,#212,#213,#215));
#217=FACE_BOUND('',#216,.T.);
#219=CARTESIAN_POINT('',(770.7700,-238.4937,-900.0000));
#220=VERTEX_POINT('',#219);
#218=EDGE_CURVE('',#220,#93,*,.T.);
#221=ORIENTED_EDGE('',*,*,#218,.T.);
#223=CARTESIAN_POINT('',(770.7700,-210.0000,-900.0000));
#224=VERTEX_POINT('',#223);
#222=EDGE_CURVE('',#93,#224,*,.T.);
#225=ORIENTED_EDGE('',*,*,#222,.T.);
#227=CARTESIAN_POINT('',(658.2200,-210.0000,-900.0000));
#228=VERTEX_POINT('',#227);
#226=EDGE_CURVE('',#224,#228,*,.T.);
#229=ORIENTED_EDGE('',*,*,#226,.T.);
#231=CARTESIAN_POINT('',(759.7700,-210.0000,-900.0000));
#232=VERTEX_POINT('',#231);
#230=EDGE_CURVE('',#228,#232,*,.T.);
#233=ORIENTED_EDGE('',*,*,#230,.T.);
#235=CARTESIAN_POINT('',(759.7700,-235.7089,-900.0000));
#236=VERTEX_POINT('',#235);
#234=EDGE_CURVE('',#232,#236,*,.T.);
#237=ORIENTED_EDGE('',*,*,#234,.T.);
#239=CARTESIAN_POINT('',(759.7700,-232.0000,-900.0000));
#240=VERTEX_POINT('',#239);
#238=EDGE_CURVE('',#236,#240,*,.T.);
#241=ORIENTED_EDGE('',*,*,#238,.T.);
#243=CARTESIAN_POINT('',(770.7700,-232.0000,-900.0000));
#244=VERTEX_POINT('',#243);
#242=EDGE_CURVE('',#240,#244,*,.T.);
#245=ORIENTED_EDGE('',*,*,#242,.T.);
#246=EDGE_CURVE('',#244,#220,*,.T.);
#247=ORIENTED_EDGE('',*,*,#246,.T.);
#248=EDGE_LOOP('',(#221,#225,#229,#233,#237,#241,#245,#247));
#249=FACE_BOUND('',#248,.T.);
#251=CARTESIAN_POINT('',(632.5700,-232.0000,-900.0000));
#252=VERTEX_POINT('',#251);
#253=CARTESIAN_POINT('',(643.5700,-232.0000,-900.0000));
#254=VERTEX_POINT('',#253);
#250=EDGE_CURVE('',#252,#254,*,.T.);
#255=ORIENTED_EDGE('',*,*,#250,.T.);
#256=EDGE_CURVE('',#254,#166,*,.T.);
#257=ORIENTED_EDGE('',*,*,#256,.T.);
#258=ORIENTED_EDGE('',*,*,#164,.T.);
#259=EDGE_CURVE('',#162,#252,*,.T.);
#260=ORIENTED_EDGE('',*,*,#259,.T.);
#261=EDGE_LOOP('',(#255,#257,#258,#260));
#262=FACE_BOUND('',#261,.T.);
#263=DIRECTION('',(0.000000,0.000000,-1.000000));
#264=DIRECTION('',(1.000000,0.000000,0.000000));
#265=AXIS2_PLACEMENT_3D('',#92,#263,#264);
#266=PLANE('',#265);
#267=ADVANCED_FACE('',(#207,#217,#249,#262),#266,.T.);
#269=CARTESIAN_POINT('',(643.5700,-232.0000,-899.5000));
#270=VERTEX_POINT('',#269);
#271=CARTESIAN_POINT('',(632.5700,-232.0000,-899.5000));
#272=VERTEX_POINT('',#271);
#268=EDGE_CURVE('',#270,#272,*,.T.);
#273=ORIENTED_EDGE('',*,*,#268,.T.);
#275=CARTESIAN_POINT('',(632.5700,-210.0000,-899.5000));
#276=VERTEX_POINT('',#275);
#274=EDGE_CURVE('',#272,#276,*,.T.);
#277=ORIENTED_EDGE('',*,*,#274,.T.);
#279=CARTESIAN_POINT('',(643.5700,-210.0000,-899.5000));
#280=VERTEX_POINT('',#279);
#278=EDGE_CURVE('',#276,#280,*,.T.);
#281=ORIENTED_EDGE('',*,*,#278,.T.);
#282=EDGE_CURVE('',#280,#270,*,.T.);
#283=ORIENTED_EDGE('',*,*,#282,.T.);
#284=EDGE_LOOP('',(#273,#277,#281,#283));
#285=FACE_OUTER_BOUND('',#284,.T.);
#287=CARTESIAN_POINT('',(770.7700,-232.0000,-899.5000));
#288=VERTEX_POINT('',#287);
#289=CARTESIAN_POINT('',(759.7700,-232.0000,-899.5000));
#290=VERTEX_POINT('',#289);
#286=EDGE_CURVE('',#288,#290,*,.T.);
#291=ORIENTED_EDGE('',*,*,#286,.T.);
#293=CARTESIAN_POINT('',(759.7700,-210.0000,-899.5000));
#294=VERTEX_POINT('',#293);
#292=EDGE_CURVE('',#290,#294,*,.T.);
#295=ORIENTED_EDGE('',*,*,#292,.T.);
#297=CARTESIAN_POINT('',(770.7700,-210.0000,-899.5000));
#298=VERTEX_POINT('',#297);
#296=EDGE_CURVE('',#294,#298,*,.T.);
#299=ORIENTED_EDGE('',*,*,#296,.T.);
#300=EDGE_CURVE('',#298,#288,*,.T.);
#301=ORIENTED_EDGE('',*,*,#300,.T.);
#302=EDGE_LOOP('',(#291,#295,#299,#301));
#303=FACE_BOUND('',#302,.T.);
#304=DIRECTION('',(0.000000,0.000000,-1.000000));
#305=DIRECTION('',(-1.000000,0.000000,0.000000));
#306=AXIS2_PLACEMENT_3D('',#269,#304,#305);
#307=PLANE('',#306);
#308=ADVANCED_FACE('',(#285,#303),#307,.T.);
#309=EDGE_CURVE('',#254,#270,*,.T.);
#310=ORIENTED_EDGE('',*,*,#309,.T.);
#311=ORIENTED_EDGE('',*,*,#282,.T.);
#312=EDGE_CURVE('',#280,#199,*,.T.);
#313=ORIENTED_EDGE('',*,*,#312,.T.);
#315=CARTESIAN_POINT('',(643.5700,-229.5556,-900.0000));
#316=VERTEX_POINT('',#315);
#314=EDGE_CURVE('',#199,#316,*,.T.);
#317=ORIENTED_EDGE('',*,*,#314,.T.);
#318=EDGE_CURVE('',#316,#254,*,.T.);
#319=ORIENTED_EDGE('',*,*,#318,.T.);
#320=EDGE_LOOP('',(#310,#311,#313,#317,#319));
#321=FACE_OUTER_BOUND('',#320,.T.);
#322=DIRECTION('',(-1.000000,0.000000,0.000000));
#323=DIRECTION('',(0.000000,0.000000,1.000000));
#324=AXIS2_PLACEMENT_3D('',#253,#322,#323);
#325=PLANE('',#324);
#326=ADVANCED_FACE('',(#321),#325,.T.);
#327=ORIENTED_EDGE('',*,*,#312,.T.);
#328=ORIENTED_EDGE('',*,*,#278,.T.);
#329=EDGE_CURVE('',#276,#210,*,.T.);
#330=ORIENTED_EDGE('',*,*,#329,.T.);
#332=CARTESIAN_POINT('',(642.3478,-210.0000,-900.0000));
#333=VERTEX_POINT('',#332);
#331=EDGE_CURVE('',#210,#333,*,.T.);
#334=ORIENTED_EDGE('',*,*,#331,.T.);
#335=EDGE_CURVE('',#333,#199,*,.T.);
#336=ORIENTED_EDGE('',*,*,#335,.T.);
#337=EDGE_LOOP('',(#327,#328,#330,#334,#336));
#338=FACE_OUTER_BOUND('',#337,.T.);
#339=EDGE_CURVE('',#224,#298,*,.T.);
#340=ORIENTED_EDGE('',*,*,#339,.T.);
#341=ORIENTED_EDGE('',*,*,#296,.T.);
#342=EDGE_CURVE('',#294,#232,*,.T.);
#343=ORIENTED_EDGE('',*,*,#342,.T.);
#345=CARTESIAN_POINT('',(769.5478,-210.0000,-900.0000));
#346=VERTEX_POINT('',#345);
#344=EDGE_CURVE('',#232,#346,*,.T.);
#347=ORIENTED_EDGE('',*,*,#344,.T.);
#348=EDGE_CURVE('',#346,#224,*,.T.);
#349=ORIENTED_EDGE('',*,*,#348,.T.);
#350=EDGE_LOOP('',(#340,#341,#343,#347,#349));
#351=FACE_BOUND('',#350,.T.);
#352=DIRECTION('',(0.000000,-1.000000,0.000000));
#353=DIRECTION('',(0.000000,0.000000,1.000000));
#354=AXIS2_PLACEMENT_3D('',#198,#352,#353);
#355=PLANE('',#354);
#356=ADVANCED_FACE('',(#338,#351),#355,.T.);
#357=ORIENTED_EDGE('',*,*,#329,.T.);
#358=ORIENTED_EDGE('',*,*,#274,.T.);
#359=EDGE_CURVE('',#272,#252,*,.T.);
#360=ORIENTED_EDGE('',*,*,#359,.T.);
#362=CARTESIAN_POINT('',(632.5700,-212.4444,-900.0000));
#363=VERTEX_POINT('',#362);
#361=EDGE_CURVE('',#252,#363,*,.T.);
#364=ORIENTED_EDGE('',*,*,#361,.T.);
#365=EDGE_CURVE('',#363,#210,*,.T.);
#366=ORIENTED_EDGE('',*,*,#365,.T.);
#367=EDGE_LOOP('',(#357,#358,#360,#364,#366));
#368=FACE_OUTER_BOUND('',#367,.T.);
#369=DIRECTION('',(1.000000,0.000000,0.000000));
#370=DIRECTION('',(0.000000,0.000000,1.000000));
#371=AXIS2_PLACEMENT_3D('',#209,#369,#370);
#372=PLANE('',#371);
#373=ADVANCED_FACE('',(#368),#372,.T.);
#374=ORIENTED_EDGE('',*,*,#359,.T.);
#375=ORIENTED_EDGE('',*,*,#268,.T.);
#376=ORIENTED_EDGE('',*,*,#309,.T.);
#378=CARTESIAN_POINT('',(633.7922,-232.0000,-900.0000));
#379=VERTEX_POINT('',#378);
#377=EDGE_CURVE('',#254,#379,*,.T.);
#380=ORIENTED_EDGE('',*,*,#377,.T.);
#381=EDGE_CURVE('',#379,#252,*,.T.);
#382=ORIENTED_EDGE('',*,*,#381,.T.);
#383=EDGE_LOOP('',(#374,#375,#376,#380,#382));
#384=FACE_OUTER_BOUND('',#383,.T.);
#385=EDGE_CURVE('',#240,#290,*,.T.);
#386=ORIENTED_EDGE('',*,*,#385,.T.);
#387=ORIENTED_EDGE('',*,*,#286,.T.);
#388=EDGE_CURVE('',#288,#244,*,.T.);
#389=ORIENTED_EDGE('',*,*,#388,.T.);
#391=CARTESIAN_POINT('',(760.9922,-232.0000,-900.0000));
#392=VERTEX_POINT('',#391);
#390=EDGE_CURVE('',#244,#392,*,.T.);
#393=ORIENTED_EDGE('',*,*,#390,.T.);
#394=EDGE_CURVE('',#392,#240,*,.T.);
#395=ORIENTED_EDGE('',*,*,#394,.T.);
#396=EDGE_LOOP('',(#386,#387,#389,#393,#395));
#397=FACE_BOUND('',#396,.T.);
#398=DIRECTION('',(0.000000,1.000000,0.000000));
#399=DIRECTION('',(0.000000,0.000000,1.000000));
#400=AXIS2_PLACEMENT_3D('',#251,#398,#399);
#401=PLANE('',#400);
#402=ADVANCED_FACE('',(#384,#397),#401,.T.);
#403=ORIENTED_EDGE('',*,*,#388,.T.);
#404=ORIENTED_EDGE('',*,*,#300,.T.);
#405=ORIENTED_EDGE('',*,*,#339,.T.);
#407=CARTESIAN_POINT('',(770.7700,-229.5556,-900.0000));
#408=VERTEX_POINT('',#407);
#406=EDGE_CURVE('',#224,#408,*,.T.);
#409=ORIENTED_EDGE('',*,*,#406,.T.);
#410=EDGE_CURVE('',#408,#244,*,.T.);
#411=ORIENTED_EDGE('',*,*,#410,.T.);
#412=EDGE_LOOP('',(#403,#404,#405,#409,#411));
#413=FACE_OUTER_BOUND('',#412,.T.);
#414=DIRECTION('',(-1.000000,0.000000,0.000000));
#415=DIRECTION('',(0.000000,0.000000,1.000000));
#416=AXIS2_PLACEMENT_3D('',#243,#414,#415);
#417=PLANE('',#416);
#418=ADVANCED_FACE('',(#413),#417,.T.);
#419=ORIENTED_EDGE('',*,*,#342,.T.);
#420=ORIENTED_EDGE('',*,*,#292,.T.);
#421=ORIENTED_EDGE('',*,*,#385,.T.);
#423=CARTESIAN_POINT('',(759.7700,-212.4444,-900.0000));
#424=VERTEX_POINT('',#423);
#422=EDGE_CURVE('',#240,#424,*,.T.);
#425=ORIENTED_EDGE('',*,*,#422,.T.);
#426=EDGE_CURVE('',#424,#232,*,.T.);
#427=ORIENTED_EDGE('',*,*,#426,.T.);
#428=EDGE_LOOP('',(#419,#420,#421,#425,#427));
#429=FACE_OUTER_BOUND('',#428,.T.);
#430=DIRECTION('',(1.000000,0.000000,0.000000));
#431=DIRECTION('',(0.000000,0.000000,1.000000));
#432=AXIS2_PLACEMENT_3D('',#231,#430,#431);
#433=PLANE('',#432);
#434=ADVANCED_FACE('',(#429),#433,.T.);
#435=CLOSED_SHELL('',(#31,#78,#121,#180,#191,#267,#308,#326,#356,#373,#402,#418,#434));
#436=MANIFOLD_SOLID_BREP('CV-LBP18-F60-062 — Pata B_004A 158×40×4 — pie de anclaje (SOLDADA a tira BR_300',#435);
#437=DIRECTION('',(0.,0.,1.));
#438=DIRECTION('',(1.,0.,0.));
#440=CARTESIAN_POINT('',(0.0000,0.0000,0.0000));
#439=AXIS2_PLACEMENT_3D('',#440,#437,#438);
#441=( LENGTH_UNIT() NAMED_UNIT(*) SI_UNIT(.MILLI.,.METRE.) );
#442=( NAMED_UNIT(*) PLANE_ANGLE_UNIT() SI_UNIT($,.RADIAN.) );
#443=( NAMED_UNIT(*) SI_UNIT($,.STERADIAN.) SOLID_ANGLE_UNIT() );
#444=UNCERTAINTY_MEASURE_WITH_UNIT(LENGTH_MEASURE(0.01),#441,'distance_accuracy_value','');
#445=( GEOMETRIC_REPRESENTATION_CONTEXT(3) GLOBAL_UNCERTAINTY_ASSIGNED_CONTEXT((#444)) GLOBAL_UNIT_ASSIGNED_CONTEXT((#441,#442,#443)) REPRESENTATION_CONTEXT('','3D') );
#446=ADVANCED_BREP_SHAPE_REPRESENTATION('CV-LBP18-F60-062 — Pata B_004A 158×40×4 — pie de anclaje (SOLDADA a tira BR_300',(#439,#436),#445);
ENDSEC;
END-ISO-10303-21;
