ISO-10303-21;
HEADER;
FILE_DESCRIPTION(('CV-LBP18-F60-053 — Pata B_004A 158×40×4 — pie de anclaje (SOLDADA a tira BR_300'),'2;1');
FILE_NAME('CV-LBP18-F60-053 — Pata B_004A 158×40×4 — pie de anclaje (SOLDADA a tira BR_300','2026-08-19T00:00:00',('ConveyOne SpA'),('ConveyOne SpA'),'ConveyOne CAD','step_export.mjs','');
FILE_SCHEMA(('CONFIG_CONTROL_DESIGN'));
ENDSEC;
DATA;
#2=DIRECTION('',(0.000000,-1.000000,0.000000));
#1=VECTOR('',#2,40.000000);
#4=CARTESIAN_POINT('',(229.0000,-201.0000,-896.0000));
#3=LINE('',#4,#1);
#6=VERTEX_POINT('',#4);
#7=CARTESIAN_POINT('',(229.0000,-241.0000,-896.0000));
#8=VERTEX_POINT('',#7);
#5=EDGE_CURVE('',#6,#8,#3,.T.);
#10=DIRECTION('',(0.000000,0.000000,-1.000000));
#9=VECTOR('',#10,4.000000);
#11=LINE('',#7,#9);
#13=CARTESIAN_POINT('',(229.0000,-241.0000,-900.0000));
#14=VERTEX_POINT('',#13);
#12=EDGE_CURVE('',#8,#14,#11,.T.);
#16=DIRECTION('',(0.000000,1.000000,0.000000));
#15=VECTOR('',#16,40.000000);
#17=LINE('',#13,#15);
#19=CARTESIAN_POINT('',(229.0000,-201.0000,-900.0000));
#20=VERTEX_POINT('',#19);
#18=EDGE_CURVE('',#14,#20,#17,.T.);
#22=DIRECTION('',(0.000000,0.000000,1.000000));
#21=VECTOR('',#22,4.000000);
#23=LINE('',#19,#21);
#24=EDGE_CURVE('',#20,#6,#23,.T.);
#25=ORIENTED_EDGE('',*,*,#5,.T.);
#26=ORIENTED_EDGE('',*,*,#12,.T.);
#27=ORIENTED_EDGE('',*,*,#18,.T.);
#28=ORIENTED_EDGE('',*,*,#24,.T.);
#29=EDGE_LOOP('',(#25,#26,#27,#28));
#30=FACE_OUTER_BOUND('',#29,.T.);
#33=CARTESIAN_POINT('',(229.0000,-201.0000,-899.5000));
#34=DIRECTION('',(1.000000,0.000000,0.000000));
#35=DIRECTION('',(0.000000,-1.000000,0.000000));
#32=AXIS2_PLACEMENT_3D('',#33,#34,#35);
#31=PLANE('',#32);
#36=ADVANCED_FACE('',(#30),#31,.T.);
#38=DIRECTION('',(0.000000,0.000000,-1.000000));
#37=VECTOR('',#38,4.000000);
#40=CARTESIAN_POINT('',(71.0000,-201.0000,-896.0000));
#39=LINE('',#40,#37);
#42=VERTEX_POINT('',#40);
#43=CARTESIAN_POINT('',(71.0000,-201.0000,-900.0000));
#44=VERTEX_POINT('',#43);
#41=EDGE_CURVE('',#42,#44,#39,.T.);
#46=DIRECTION('',(0.000000,-1.000000,0.000000));
#45=VECTOR('',#46,40.000000);
#47=LINE('',#43,#45);
#49=CARTESIAN_POINT('',(71.0000,-241.0000,-900.0000));
#50=VERTEX_POINT('',#49);
#48=EDGE_CURVE('',#44,#50,#47,.T.);
#52=DIRECTION('',(0.000000,0.000000,1.000000));
#51=VECTOR('',#52,4.000000);
#53=LINE('',#49,#51);
#55=CARTESIAN_POINT('',(71.0000,-241.0000,-896.0000));
#56=VERTEX_POINT('',#55);
#54=EDGE_CURVE('',#50,#56,#53,.T.);
#58=DIRECTION('',(0.000000,1.000000,0.000000));
#57=VECTOR('',#58,40.000000);
#59=LINE('',#55,#57);
#60=EDGE_CURVE('',#56,#42,#59,.T.);
#61=ORIENTED_EDGE('',*,*,#41,.T.);
#62=ORIENTED_EDGE('',*,*,#48,.T.);
#63=ORIENTED_EDGE('',*,*,#54,.T.);
#64=ORIENTED_EDGE('',*,*,#60,.T.);
#65=EDGE_LOOP('',(#61,#62,#63,#64));
#66=FACE_OUTER_BOUND('',#65,.T.);
#68=DIRECTION('',(0.000000,-1.000000,0.000000));
#67=VECTOR('',#68,35.000000);
#70=CARTESIAN_POINT('',(71.0000,-201.0000,-899.5000));
#69=LINE('',#70,#67);
#72=VERTEX_POINT('',#70);
#73=CARTESIAN_POINT('',(71.0000,-236.0000,-899.5000));
#74=VERTEX_POINT('',#73);
#71=EDGE_CURVE('',#72,#74,#69,.T.);
#76=DIRECTION('',(0.000000,1.000000,0.000000));
#75=VECTOR('',#76,26.000000);
#77=LINE('',#73,#75);
#79=CARTESIAN_POINT('',(71.0000,-210.0000,-899.5000));
#80=VERTEX_POINT('',#79);
#78=EDGE_CURVE('',#74,#80,#77,.T.);
#82=DIRECTION('',(0.000000,1.000000,0.000000));
#81=VECTOR('',#82,9.000000);
#83=LINE('',#79,#81);
#84=EDGE_CURVE('',#80,#72,#83,.T.);
#85=ORIENTED_EDGE('',*,*,#71,.T.);
#86=ORIENTED_EDGE('',*,*,#78,.T.);
#87=ORIENTED_EDGE('',*,*,#84,.T.);
#88=EDGE_LOOP('',(#85,#86,#87));
#89=FACE_BOUND('',#88,.T.);
#92=DIRECTION('',(-1.000000,0.000000,0.000000));
#93=DIRECTION('',(0.000000,0.000000,-1.000000));
#91=AXIS2_PLACEMENT_3D('',#40,#92,#93);
#90=PLANE('',#91);
#94=ADVANCED_FACE('',(#66,#89),#90,.T.);
#96=DIRECTION('',(1.000000,0.000000,0.000000));
#95=VECTOR('',#96,158.000000);
#97=LINE('',#40,#95);
#98=EDGE_CURVE('',#42,#6,#97,.T.);
#100=DIRECTION('',(0.000000,0.000000,-1.000000));
#99=VECTOR('',#100,3.500000);
#101=LINE('',#4,#99);
#103=VERTEX_POINT('',#33);
#102=EDGE_CURVE('',#6,#103,#101,.T.);
#105=DIRECTION('',(-1.000000,0.000000,0.000000));
#104=VECTOR('',#105,9.899994);
#106=LINE('',#33,#104);
#108=CARTESIAN_POINT('',(219.1000,-201.0000,-899.5000));
#109=VERTEX_POINT('',#108);
#107=EDGE_CURVE('',#103,#109,#106,.T.);
#111=DIRECTION('',(0.000000,0.000000,-1.000000));
#110=VECTOR('',#111,0.500000);
#112=LINE('',#33,#110);
#113=EDGE_CURVE('',#103,#20,#112,.T.);
#115=DIRECTION('',(-1.000000,0.000000,0.000000));
#114=VECTOR('',#115,158.000000);
#116=LINE('',#19,#114);
#117=EDGE_CURVE('',#20,#44,#116,.T.);
#118=ORIENTED_EDGE('',*,*,#98,.T.);
#119=ORIENTED_EDGE('',*,*,#102,.T.);
#120=ORIENTED_EDGE('',*,*,#107,.T.);
#121=ORIENTED_EDGE('',*,*,#107,.F.);
#122=ORIENTED_EDGE('',*,*,#113,.T.);
#123=ORIENTED_EDGE('',*,*,#117,.T.);
#124=ORIENTED_EDGE('',*,*,#41,.F.);
#125=EDGE_LOOP('',(#118,#119,#120,#121,#122,#123,#124));
#126=FACE_OUTER_BOUND('',#125,.T.);
#128=DIRECTION('',(-1.000000,0.000000,0.000000));
#127=VECTOR('',#128,138.250000);
#130=CARTESIAN_POINT('',(209.2500,-201.0000,-899.5000));
#129=LINE('',#130,#127);
#132=VERTEX_POINT('',#130);
#131=EDGE_CURVE('',#132,#72,#129,.T.);
#134=DIRECTION('',(1.000000,0.000000,0.000000));
#133=VECTOR('',#134,20.900002);
#135=LINE('',#70,#133);
#137=CARTESIAN_POINT('',(91.9000,-201.0000,-899.5000));
#138=VERTEX_POINT('',#137);
#136=EDGE_CURVE('',#72,#138,#135,.T.);
#140=DIRECTION('',(1.000000,0.000000,0.000000));
#139=VECTOR('',#140,117.349998);
#141=LINE('',#137,#139);
#142=EDGE_CURVE('',#138,#132,#141,.T.);
#143=ORIENTED_EDGE('',*,*,#131,.T.);
#144=ORIENTED_EDGE('',*,*,#136,.T.);
#145=ORIENTED_EDGE('',*,*,#142,.T.);
#146=EDGE_LOOP('',(#143,#144,#145));
#147=FACE_BOUND('',#146,.T.);
#150=DIRECTION('',(0.000000,1.000000,0.000000));
#151=DIRECTION('',(1.000000,0.000000,0.000000));
#149=AXIS2_PLACEMENT_3D('',#70,#150,#151);
#148=PLANE('',#149);
#152=ADVANCED_FACE('',(#126,#147),#148,.T.);
#154=DIRECTION('',(0.000000,0.000000,-1.000000));
#153=VECTOR('',#154,3.500000);
#155=LINE('',#55,#153);
#157=CARTESIAN_POINT('',(71.0000,-241.0000,-899.5000));
#158=VERTEX_POINT('',#157);
#156=EDGE_CURVE('',#56,#158,#155,.T.);
#160=DIRECTION('',(1.000000,0.000000,0.000000));
#159=VECTOR('',#160,9.900002);
#161=LINE('',#157,#159);
#163=CARTESIAN_POINT('',(80.9000,-241.0000,-899.5000));
#164=VERTEX_POINT('',#163);
#162=EDGE_CURVE('',#158,#164,#161,.T.);
#166=DIRECTION('',(0.000000,0.000000,-1.000000));
#165=VECTOR('',#166,0.500000);
#167=LINE('',#157,#165);
#168=EDGE_CURVE('',#158,#50,#167,.T.);
#170=DIRECTION('',(1.000000,0.000000,0.000000));
#169=VECTOR('',#170,158.000000);
#171=LINE('',#49,#169);
#172=EDGE_CURVE('',#50,#14,#171,.T.);
#174=DIRECTION('',(0.000000,0.000000,1.000000));
#173=VECTOR('',#174,0.500000);
#175=LINE('',#13,#173);
#177=CARTESIAN_POINT('',(229.0000,-241.0000,-899.5000));
#178=VERTEX_POINT('',#177);
#176=EDGE_CURVE('',#14,#178,#175,.T.);
#180=DIRECTION('',(-1.000000,0.000000,0.000000));
#179=VECTOR('',#180,138.250000);
#181=LINE('',#177,#179);
#183=CARTESIAN_POINT('',(90.7500,-241.0000,-899.5000));
#184=VERTEX_POINT('',#183);
#182=EDGE_CURVE('',#178,#184,#181,.T.);
#186=DIRECTION('',(0.000000,0.000000,1.000000));
#185=VECTOR('',#186,3.500000);
#187=LINE('',#177,#185);
#188=EDGE_CURVE('',#178,#8,#187,.T.);
#190=DIRECTION('',(-1.000000,0.000000,0.000000));
#189=VECTOR('',#190,158.000000);
#191=LINE('',#7,#189);
#192=EDGE_CURVE('',#8,#56,#191,.T.);
#193=ORIENTED_EDGE('',*,*,#156,.T.);
#194=ORIENTED_EDGE('',*,*,#162,.T.);
#195=ORIENTED_EDGE('',*,*,#162,.F.);
#196=ORIENTED_EDGE('',*,*,#168,.T.);
#197=ORIENTED_EDGE('',*,*,#172,.T.);
#198=ORIENTED_EDGE('',*,*,#176,.T.);
#199=ORIENTED_EDGE('',*,*,#182,.T.);
#200=ORIENTED_EDGE('',*,*,#182,.F.);
#201=ORIENTED_EDGE('',*,*,#188,.T.);
#202=ORIENTED_EDGE('',*,*,#192,.T.);
#203=EDGE_LOOP('',(#193,#194,#195,#196,#197,#198,#199,#200,#201,#202));
#204=FACE_OUTER_BOUND('',#203,.T.);
#207=DIRECTION('',(0.000000,-1.000000,0.000000));
#208=DIRECTION('',(0.000000,0.000000,-1.000000));
#206=AXIS2_PLACEMENT_3D('',#55,#207,#208);
#205=PLANE('',#206);
#209=ADVANCED_FACE('',(#204),#205,.T.);
#210=ORIENTED_EDGE('',*,*,#60,.F.);
#211=ORIENTED_EDGE('',*,*,#192,.F.);
#212=ORIENTED_EDGE('',*,*,#5,.F.);
#213=ORIENTED_EDGE('',*,*,#98,.F.);
#214=EDGE_LOOP('',(#210,#211,#212,#213));
#215=FACE_OUTER_BOUND('',#214,.T.);
#218=DIRECTION('',(0.000000,0.000000,1.000000));
#219=DIRECTION('',(0.000000,-1.000000,0.000000));
#217=AXIS2_PLACEMENT_3D('',#40,#218,#219);
#216=PLANE('',#217);
#220=ADVANCED_FACE('',(#215),#216,.T.);
#222=DIRECTION('',(-1.000000,0.000000,0.000000));
#221=VECTOR('',#222,137.099998);
#223=LINE('',#13,#221);
#225=CARTESIAN_POINT('',(91.9000,-241.0000,-900.0000));
#226=VERTEX_POINT('',#225);
#224=EDGE_CURVE('',#14,#226,#223,.T.);
#228=DIRECTION('',(0.000000,1.000000,0.000000));
#227=VECTOR('',#228,31.000000);
#229=LINE('',#225,#227);
#231=CARTESIAN_POINT('',(91.9000,-210.0000,-900.0000));
#232=VERTEX_POINT('',#231);
#230=EDGE_CURVE('',#226,#232,#229,.T.);
#234=DIRECTION('',(-1.000000,0.000000,0.000000));
#233=VECTOR('',#234,11.000000);
#235=LINE('',#231,#233);
#237=CARTESIAN_POINT('',(80.9000,-210.0000,-900.0000));
#238=VERTEX_POINT('',#237);
#236=EDGE_CURVE('',#232,#238,#235,.T.);
#240=DIRECTION('',(0.000000,-1.000000,0.000000));
#239=VECTOR('',#240,22.000000);
#241=LINE('',#237,#239);
#243=CARTESIAN_POINT('',(80.9000,-232.0000,-900.0000));
#244=VERTEX_POINT('',#243);
#242=EDGE_CURVE('',#238,#244,#241,.T.);
#246=DIRECTION('',(1.000000,0.000000,0.000000));
#245=VECTOR('',#246,11.000000);
#247=LINE('',#243,#245);
#249=CARTESIAN_POINT('',(91.9000,-232.0000,-900.0000));
#250=VERTEX_POINT('',#249);
#248=EDGE_CURVE('',#244,#250,#247,.T.);
#252=DIRECTION('',(0.000000,-1.000000,0.000000));
#251=VECTOR('',#252,9.000000);
#253=LINE('',#249,#251);
#254=EDGE_CURVE('',#250,#226,#253,.T.);
#256=DIRECTION('',(-1.000000,0.000000,0.000000));
#255=VECTOR('',#256,20.900002);
#257=LINE('',#225,#255);
#258=EDGE_CURVE('',#226,#50,#257,.T.);
#259=ORIENTED_EDGE('',*,*,#18,.F.);
#260=ORIENTED_EDGE('',*,*,#224,.T.);
#261=ORIENTED_EDGE('',*,*,#230,.T.);
#262=ORIENTED_EDGE('',*,*,#236,.T.);
#263=ORIENTED_EDGE('',*,*,#242,.T.);
#264=ORIENTED_EDGE('',*,*,#248,.T.);
#265=ORIENTED_EDGE('',*,*,#254,.T.);
#266=ORIENTED_EDGE('',*,*,#258,.T.);
#267=ORIENTED_EDGE('',*,*,#48,.F.);
#268=ORIENTED_EDGE('',*,*,#117,.F.);
#269=EDGE_LOOP('',(#259,#260,#261,#262,#263,#264,#265,#266,#267,#268));
#270=FACE_OUTER_BOUND('',#269,.T.);
#272=DIRECTION('',(-1.000000,0.000000,0.000000));
#271=VECTOR('',#272,11.000000);
#274=CARTESIAN_POINT('',(219.1000,-210.0000,-900.0000));
#273=LINE('',#274,#271);
#276=VERTEX_POINT('',#274);
#277=CARTESIAN_POINT('',(208.1000,-210.0000,-900.0000));
#278=VERTEX_POINT('',#277);
#275=EDGE_CURVE('',#276,#278,#273,.T.);
#280=DIRECTION('',(0.000000,-1.000000,0.000000));
#279=VECTOR('',#280,22.000000);
#281=LINE('',#277,#279);
#283=CARTESIAN_POINT('',(208.1000,-232.0000,-900.0000));
#284=VERTEX_POINT('',#283);
#282=EDGE_CURVE('',#278,#284,#281,.T.);
#286=DIRECTION('',(1.000000,0.000000,0.000000));
#285=VECTOR('',#286,11.000000);
#287=LINE('',#283,#285);
#289=CARTESIAN_POINT('',(219.1000,-232.0000,-900.0000));
#290=VERTEX_POINT('',#289);
#288=EDGE_CURVE('',#284,#290,#287,.T.);
#292=DIRECTION('',(0.000000,1.000000,0.000000));
#291=VECTOR('',#292,22.000000);
#293=LINE('',#289,#291);
#294=EDGE_CURVE('',#290,#276,#293,.T.);
#295=ORIENTED_EDGE('',*,*,#275,.T.);
#296=ORIENTED_EDGE('',*,*,#282,.T.);
#297=ORIENTED_EDGE('',*,*,#288,.T.);
#298=ORIENTED_EDGE('',*,*,#294,.T.);
#299=EDGE_LOOP('',(#295,#296,#297,#298));
#300=FACE_BOUND('',#299,.T.);
#303=CARTESIAN_POINT('',(219.1000,-201.0000,-900.0000));
#304=DIRECTION('',(0.000000,0.000000,-1.000000));
#305=DIRECTION('',(0.000000,-1.000000,0.000000));
#302=AXIS2_PLACEMENT_3D('',#303,#304,#305);
#301=PLANE('',#302);
#306=ADVANCED_FACE('',(#270,#300),#301,.T.);
#308=DIRECTION('',(-1.000000,0.000000,0.000000));
#307=VECTOR('',#308,11.000000);
#310=CARTESIAN_POINT('',(91.9000,-232.0000,-899.5000));
#309=LINE('',#310,#307);
#312=VERTEX_POINT('',#310);
#313=CARTESIAN_POINT('',(80.9000,-232.0000,-899.5000));
#314=VERTEX_POINT('',#313);
#311=EDGE_CURVE('',#312,#314,#309,.T.);
#316=DIRECTION('',(0.000000,1.000000,0.000000));
#315=VECTOR('',#316,22.000000);
#317=LINE('',#313,#315);
#319=CARTESIAN_POINT('',(80.9000,-210.0000,-899.5000));
#320=VERTEX_POINT('',#319);
#318=EDGE_CURVE('',#314,#320,#317,.T.);
#322=DIRECTION('',(1.000000,0.000000,0.000000));
#321=VECTOR('',#322,11.000000);
#323=LINE('',#319,#321);
#325=CARTESIAN_POINT('',(91.9000,-210.0000,-899.5000));
#326=VERTEX_POINT('',#325);
#324=EDGE_CURVE('',#320,#326,#323,.T.);
#328=DIRECTION('',(0.000000,-1.000000,0.000000));
#327=VECTOR('',#328,22.000000);
#329=LINE('',#325,#327);
#330=EDGE_CURVE('',#326,#312,#329,.T.);
#331=ORIENTED_EDGE('',*,*,#311,.T.);
#332=ORIENTED_EDGE('',*,*,#318,.T.);
#333=ORIENTED_EDGE('',*,*,#324,.T.);
#334=ORIENTED_EDGE('',*,*,#330,.T.);
#335=EDGE_LOOP('',(#331,#332,#333,#334));
#336=FACE_OUTER_BOUND('',#335,.T.);
#338=DIRECTION('',(-1.000000,0.000000,0.000000));
#337=VECTOR('',#338,11.000000);
#340=CARTESIAN_POINT('',(219.1000,-232.0000,-899.5000));
#339=LINE('',#340,#337);
#342=VERTEX_POINT('',#340);
#343=CARTESIAN_POINT('',(208.1000,-232.0000,-899.5000));
#344=VERTEX_POINT('',#343);
#341=EDGE_CURVE('',#342,#344,#339,.T.);
#346=DIRECTION('',(0.000000,1.000000,0.000000));
#345=VECTOR('',#346,22.000000);
#347=LINE('',#343,#345);
#349=CARTESIAN_POINT('',(208.1000,-210.0000,-899.5000));
#350=VERTEX_POINT('',#349);
#348=EDGE_CURVE('',#344,#350,#347,.T.);
#352=DIRECTION('',(1.000000,0.000000,0.000000));
#351=VECTOR('',#352,11.000000);
#353=LINE('',#349,#351);
#355=CARTESIAN_POINT('',(219.1000,-210.0000,-899.5000));
#356=VERTEX_POINT('',#355);
#354=EDGE_CURVE('',#350,#356,#353,.T.);
#358=DIRECTION('',(0.000000,-1.000000,0.000000));
#357=VECTOR('',#358,22.000000);
#359=LINE('',#355,#357);
#360=EDGE_CURVE('',#356,#342,#359,.T.);
#361=ORIENTED_EDGE('',*,*,#341,.T.);
#362=ORIENTED_EDGE('',*,*,#348,.T.);
#363=ORIENTED_EDGE('',*,*,#354,.T.);
#364=ORIENTED_EDGE('',*,*,#360,.T.);
#365=EDGE_LOOP('',(#361,#362,#363,#364));
#366=FACE_BOUND('',#365,.T.);
#369=DIRECTION('',(0.000000,0.000000,1.000000));
#370=DIRECTION('',(-1.000000,0.000000,0.000000));
#368=AXIS2_PLACEMENT_3D('',#310,#369,#370);
#367=PLANE('',#368);
#371=ADVANCED_FACE('',(#336,#366),#367,.T.);
#373=DIRECTION('',(0.000000,0.000000,1.000000));
#372=VECTOR('',#373,0.500000);
#374=LINE('',#249,#372);
#375=EDGE_CURVE('',#250,#312,#374,.T.);
#377=DIRECTION('',(0.000000,0.000000,-1.000000));
#376=VECTOR('',#377,0.500000);
#378=LINE('',#325,#376);
#379=EDGE_CURVE('',#326,#232,#378,.T.);
#381=DIRECTION('',(0.000000,-1.000000,0.000000));
#380=VECTOR('',#381,22.000000);
#382=LINE('',#231,#380);
#383=EDGE_CURVE('',#232,#250,#382,.T.);
#384=ORIENTED_EDGE('',*,*,#375,.T.);
#385=ORIENTED_EDGE('',*,*,#330,.F.);
#386=ORIENTED_EDGE('',*,*,#379,.T.);
#387=ORIENTED_EDGE('',*,*,#383,.T.);
#388=EDGE_LOOP('',(#384,#385,#386,#387));
#389=FACE_OUTER_BOUND('',#388,.T.);
#392=DIRECTION('',(1.000000,0.000000,0.000000));
#393=DIRECTION('',(0.000000,0.000000,1.000000));
#391=AXIS2_PLACEMENT_3D('',#249,#392,#393);
#390=PLANE('',#391);
#394=ADVANCED_FACE('',(#389),#390,.T.);
#396=DIRECTION('',(0.000000,0.000000,-1.000000));
#395=VECTOR('',#396,0.500000);
#397=LINE('',#319,#395);
#398=EDGE_CURVE('',#320,#238,#397,.T.);
#399=ORIENTED_EDGE('',*,*,#379,.F.);
#400=ORIENTED_EDGE('',*,*,#324,.F.);
#401=ORIENTED_EDGE('',*,*,#398,.T.);
#402=ORIENTED_EDGE('',*,*,#236,.F.);
#403=EDGE_LOOP('',(#399,#400,#401,#402));
#404=FACE_OUTER_BOUND('',#403,.T.);
#406=DIRECTION('',(0.000000,0.000000,1.000000));
#405=VECTOR('',#406,0.500000);
#407=LINE('',#274,#405);
#408=EDGE_CURVE('',#276,#356,#407,.T.);
#410=DIRECTION('',(0.000000,0.000000,-1.000000));
#409=VECTOR('',#410,0.500000);
#411=LINE('',#349,#409);
#412=EDGE_CURVE('',#350,#278,#411,.T.);
#413=ORIENTED_EDGE('',*,*,#408,.T.);
#414=ORIENTED_EDGE('',*,*,#354,.F.);
#415=ORIENTED_EDGE('',*,*,#412,.T.);
#416=ORIENTED_EDGE('',*,*,#275,.F.);
#417=EDGE_LOOP('',(#413,#414,#415,#416));
#418=FACE_BOUND('',#417,.T.);
#421=DIRECTION('',(0.000000,1.000000,0.000000));
#422=DIRECTION('',(0.000000,0.000000,1.000000));
#420=AXIS2_PLACEMENT_3D('',#231,#421,#422);
#419=PLANE('',#420);
#423=ADVANCED_FACE('',(#404,#418),#419,.T.);
#425=DIRECTION('',(0.000000,0.000000,-1.000000));
#424=VECTOR('',#425,0.500000);
#426=LINE('',#313,#424);
#427=EDGE_CURVE('',#314,#244,#426,.T.);
#428=ORIENTED_EDGE('',*,*,#398,.F.);
#429=ORIENTED_EDGE('',*,*,#318,.F.);
#430=ORIENTED_EDGE('',*,*,#427,.T.);
#431=ORIENTED_EDGE('',*,*,#242,.F.);
#432=EDGE_LOOP('',(#428,#429,#430,#431));
#433=FACE_OUTER_BOUND('',#432,.T.);
#436=DIRECTION('',(-1.000000,0.000000,0.000000));
#437=DIRECTION('',(0.000000,0.000000,1.000000));
#435=AXIS2_PLACEMENT_3D('',#237,#436,#437);
#434=PLANE('',#435);
#438=ADVANCED_FACE('',(#433),#434,.T.);
#439=ORIENTED_EDGE('',*,*,#427,.F.);
#440=ORIENTED_EDGE('',*,*,#311,.F.);
#441=ORIENTED_EDGE('',*,*,#375,.F.);
#442=ORIENTED_EDGE('',*,*,#248,.F.);
#443=EDGE_LOOP('',(#439,#440,#441,#442));
#444=FACE_OUTER_BOUND('',#443,.T.);
#446=DIRECTION('',(0.000000,0.000000,1.000000));
#445=VECTOR('',#446,0.500000);
#447=LINE('',#283,#445);
#448=EDGE_CURVE('',#284,#344,#447,.T.);
#450=DIRECTION('',(0.000000,0.000000,-1.000000));
#449=VECTOR('',#450,0.500000);
#451=LINE('',#340,#449);
#452=EDGE_CURVE('',#342,#290,#451,.T.);
#453=ORIENTED_EDGE('',*,*,#448,.T.);
#454=ORIENTED_EDGE('',*,*,#341,.F.);
#455=ORIENTED_EDGE('',*,*,#452,.T.);
#456=ORIENTED_EDGE('',*,*,#288,.F.);
#457=EDGE_LOOP('',(#453,#454,#455,#456));
#458=FACE_BOUND('',#457,.T.);
#461=DIRECTION('',(0.000000,-1.000000,0.000000));
#462=DIRECTION('',(0.000000,0.000000,1.000000));
#460=AXIS2_PLACEMENT_3D('',#243,#461,#462);
#459=PLANE('',#460);
#463=ADVANCED_FACE('',(#444,#458),#459,.T.);
#464=ORIENTED_EDGE('',*,*,#452,.F.);
#465=ORIENTED_EDGE('',*,*,#360,.F.);
#466=ORIENTED_EDGE('',*,*,#408,.F.);
#467=ORIENTED_EDGE('',*,*,#294,.F.);
#468=EDGE_LOOP('',(#464,#465,#466,#467));
#469=FACE_OUTER_BOUND('',#468,.T.);
#472=DIRECTION('',(1.000000,0.000000,0.000000));
#473=DIRECTION('',(0.000000,0.000000,1.000000));
#471=AXIS2_PLACEMENT_3D('',#289,#472,#473);
#470=PLANE('',#471);
#474=ADVANCED_FACE('',(#469),#470,.T.);
#475=ORIENTED_EDGE('',*,*,#412,.F.);
#476=ORIENTED_EDGE('',*,*,#348,.F.);
#477=ORIENTED_EDGE('',*,*,#448,.F.);
#478=ORIENTED_EDGE('',*,*,#282,.F.);
#479=EDGE_LOOP('',(#475,#476,#477,#478));
#480=FACE_OUTER_BOUND('',#479,.T.);
#483=DIRECTION('',(-1.000000,0.000000,0.000000));
#484=DIRECTION('',(0.000000,0.000000,1.000000));
#482=AXIS2_PLACEMENT_3D('',#277,#483,#484);
#481=PLANE('',#482);
#485=ADVANCED_FACE('',(#480),#481,.T.);
#486=CLOSED_SHELL('',(#36,#94,#152,#209,#220,#306,#371,#394,#423,#438,#463,#474,#485));
#487=MANIFOLD_SOLID_BREP('CV-LBP18-F60-053 — Pata B_004A 158×40×4 — pie de anclaje (SOLDADA a tira BR_300',#486);
#489=CARTESIAN_POINT('',(0.0000,0.0000,0.0000));
#490=DIRECTION('',(0.000000,0.000000,1.000000));
#491=DIRECTION('',(1.000000,0.000000,0.000000));
#488=AXIS2_PLACEMENT_3D('',#489,#490,#491);
#492=( LENGTH_UNIT() NAMED_UNIT(*) SI_UNIT(.MILLI.,.METRE.) );
#493=( NAMED_UNIT(*) PLANE_ANGLE_UNIT() SI_UNIT($,.RADIAN.) );
#494=( NAMED_UNIT(*) SI_UNIT($,.STERADIAN.) SOLID_ANGLE_UNIT() );
#495=UNCERTAINTY_MEASURE_WITH_UNIT(LENGTH_MEASURE(0.01),#492,'distance_accuracy_value','');
#496=( GEOMETRIC_REPRESENTATION_CONTEXT(3) GLOBAL_UNCERTAINTY_ASSIGNED_CONTEXT((#495)) GLOBAL_UNIT_ASSIGNED_CONTEXT((#492,#493,#494)) REPRESENTATION_CONTEXT('','3D') );
#497=ADVANCED_BREP_SHAPE_REPRESENTATION('CV-LBP18-F60-053 — Pata B_004A 158×40×4 — pie de anclaje (SOLDADA a tira BR_300',(#488,#487),#496);
ENDSEC;
END-ISO-10303-21;
