  0
SECTION
  2
HEADER
  9
$ACADVER
  1
AC1032
  9
$ACADMAINTVER
 90
4
  9
$DWGCODEPAGE
  3
ANSI_1252
  9
$LASTSAVEDBY
  1
ezdxf
  9
$REQUIREDVERSIONS
160
0
  9
$INSBASE
 10
0.0
 20
0.0
 30
0.0
  9
$EXTMIN
 10
1e+20
 20
1e+20
 30
1e+20
  9
$EXTMAX
 10
-1e+20
 20
-1e+20
 30
-1e+20
  9
$LIMMIN
 10
0.0
 20
0.0
  9
$LIMMAX
 10
420.0
 20
297.0
  9
$ORTHOMODE
 70
0
  9
$REGENMODE
 70
1
  9
$FILLMODE
 70
1
  9
$QTEXTMODE
 70
0
  9
$MIRRTEXT
 70
1
  9
$LTSCALE
 40
1.0
  9
$ATTMODE
 70
1
  9
$TEXTSIZE
 40
2.5
  9
$TRACEWID
 40
1.0
  9
$TEXTSTYLE
  7
OpenSans
  9
$CLAYER
  8
0
  9
$CELTYPE
  6
ByLayer
  9
$CECOLOR
 62
256
  9
$CELTSCALE
 40
1.0
  9
$DISPSILH
 70
0
  9
$DIMSCALE
 40
1.0
  9
$DIMASZ
 40
0.175
  9
$DIMEXO
 40
0.125
  9
$DIMDLI
 40
3.75
  9
$DIMRND
 40
0.0
  9
$DIMDLE
 40
0.0
  9
$DIMEXE
 40
0.375
  9
$DIMTP
 40
0.0
  9
$DIMTM
 40
0.0
  9
$DIMTXT
 40
0.25
  9
$DIMCEN
 40
2.5
  9
$DIMTSZ
 40
0.0
  9
$DIMTOL
 70
0
  9
$DIMLIM
 70
0
  9
$DIMTIH
 70
0
  9
$DIMTOH
 70
0
  9
$DIMSE1
 70
0
  9
$DIMSE2
 70
0
  9
$DIMTAD
 70
1
  9
$DIMZIN
 70
12
  9
$DIMBLK
  1
ARCHTICK
  9
$DIMASO
 70
1
  9
$DIMSHO
 70
1
  9
$DIMPOST
  1

  9
$DIMAPOST
  1

  9
$DIMALT
 70
0
  9
$DIMALTD
 70
3
  9
$DIMALTF
 40
0.03937007874
  9
$DIMLFAC
 40
100.0
  9
$DIMTOFL
 70
1
  9
$DIMTVP
 40
0.0
  9
$DIMTIX
 70
0
  9
$DIMSOXD
 70
0
  9
$DIMSAH
 70
0
  9
$DIMBLK1
  1

  9
$DIMBLK2
  1

  9
$DIMSTYLE
  2
EZDXF
  9
$DIMCLRD
 70
0
  9
$DIMCLRE
 70
0
  9
$DIMCLRT
 70
0
  9
$DIMTFAC
 40
0.5
  9
$DIMGAP
 40
0.1
  9
$DIMJUST
 70
0
  9
$DIMSD1
 70
0
  9
$DIMSD2
 70
0
  9
$DIMTOLJ
 70
0
  9
$DIMTZIN
 70
8
  9
$DIMALTZ
 70
0
  9
$DIMALTTZ
 70
0
  9
$DIMUPT
 70
1
  9
$DIMDEC
 70
2
  9
$DIMTDEC
 70
2
  9
$DIMALTU
 70
2
  9
$DIMALTTD
 70
3
  9
$DIMTXSTY
  7
OpenSansCondensed-Light
  9
$DIMAUNIT
 70
0
  9
$DIMADEC
 70
2
  9
$DIMALTRND
 40
0.0
  9
$DIMAZIN
 70
3
  9
$DIMDSEP
 70
46
  9
$DIMATFIT
 70
3
  9
$DIMFRAC
 70
0
  9
$DIMLDRBLK
  1

  9
$DIMLUNIT
 70
2
  9
$DIMLWD
 70
-2
  9
$DIMLWE
 70
-2
  9
$DIMTMOVE
 70
2
  9
$DIMFXL
 40
1.0
  9
$DIMFXLON
 70
0
  9
$DIMJOGANG
 40
0.785398163397
  9
$DIMTFILL
 70
0
  9
$DIMTFILLCLR
 70
0
  9
$DIMARCSYM
 70
0
  9
$DIMLTYPE
  6

  9
$DIMLTEX1
  6

  9
$DIMLTEX2
  6

  9
$DIMTXTDIRECTION
 70
0
  9
$LUNITS
 70
2
  9
$LUPREC
 70
4
  9
$SKETCHINC
 40
1.0
  9
$FILLETRAD
 40
10.0
  9
$AUNITS
 70
0
  9
$AUPREC
 70
2
  9
$MENU
  1
.
  9
$ELEVATION
 40
0.0
  9
$PELEVATION
 40
0.0
  9
$THICKNESS
 40
0.0
  9
$LIMCHECK
 70
0
  9
$CHAMFERA
 40
0.0
  9
$CHAMFERB
 40
0.0
  9
$CHAMFERC
 40
0.0
  9
$CHAMFERD
 40
0.0
  9
$SKPOLY
 70
0
  9
$TDCREATE
 40
2461251.578738426
  9
$TDUCREATE
 40
2458532.153996898
  9
$TDUPDATE
 40
2461251.578738426
  9
$TDUUPDATE
 40
2458532.1544311
  9
$TDINDWG
 40
0.0
  9
$TDUSRTIMER
 40
0.0
  9
$USRTIMER
 70
1
  9
$ANGBASE
 50
0.0
  9
$ANGDIR
 70
0
  9
$PDMODE
 70
0
  9
$PDSIZE
 40
0.0
  9
$PLINEWID
 40
0.0
  9
$SPLFRAME
 70
0
  9
$SPLINETYPE
 70
6
  9
$SPLINESEGS
 70
8
  9
$HANDSEED
  5
1B1
  9
$SURFTAB1
 70
6
  9
$SURFTAB2
 70
6
  9
$SURFTYPE
 70
6
  9
$SURFU
 70
6
  9
$SURFV
 70
6
  9
$UCSBASE
  2

  9
$UCSNAME
  2

  9
$UCSORG
 10
0.0
 20
0.0
 30
0.0
  9
$UCSXDIR
 10
1.0
 20
0.0
 30
0.0
  9
$UCSYDIR
 10
0.0
 20
1.0
 30
0.0
  9
$UCSORTHOREF
  2

  9
$UCSORTHOVIEW
 70
0
  9
$UCSORGTOP
 10
0.0
 20
0.0
 30
0.0
  9
$UCSORGBOTTOM
 10
0.0
 20
0.0
 30
0.0
  9
$UCSORGLEFT
 10
0.0
 20
0.0
 30
0.0
  9
$UCSORGRIGHT
 10
0.0
 20
0.0
 30
0.0
  9
$UCSORGFRONT
 10
0.0
 20
0.0
 30
0.0
  9
$UCSORGBACK
 10
0.0
 20
0.0
 30
0.0
  9
$PUCSBASE
  2

  9
$PUCSNAME
  2

  9
$PUCSORG
 10
0.0
 20
0.0
 30
0.0
  9
$PUCSXDIR
 10
1.0
 20
0.0
 30
0.0
  9
$PUCSYDIR
 10
0.0
 20
1.0
 30
0.0
  9
$PUCSORTHOREF
  2

  9
$PUCSORTHOVIEW
 70
0
  9
$PUCSORGTOP
 10
0.0
 20
0.0
 30
0.0
  9
$PUCSORGBOTTOM
 10
0.0
 20
0.0
 30
0.0
  9
$PUCSORGLEFT
 10
0.0
 20
0.0
 30
0.0
  9
$PUCSORGRIGHT
 10
0.0
 20
0.0
 30
0.0
  9
$PUCSORGFRONT
 10
0.0
 20
0.0
 30
0.0
  9
$PUCSORGBACK
 10
0.0
 20
0.0
 30
0.0
  9
$USERI1
 70
0
  9
$USERI2
 70
0
  9
$USERI3
 70
0
  9
$USERI4
 70
0
  9
$USERI5
 70
0
  9
$USERR1
 40
0.0
  9
$USERR2
 40
0.0
  9
$USERR3
 40
0.0
  9
$USERR4
 40
0.0
  9
$USERR5
 40
0.0
  9
$WORLDVIEW
 70
1
  9
$SHADEDGE
 70
3
  9
$SHADEDIF
 70
70
  9
$TILEMODE
 70
1
  9
$MAXACTVP
 70
64
  9
$PINSBASE
 10
0.0
 20
0.0
 30
0.0
  9
$PLIMCHECK
 70
0
  9
$PEXTMIN
 10
1e+20
 20
1e+20
 30
1e+20
  9
$PEXTMAX
 10
-1e+20
 20
-1e+20
 30
-1e+20
  9
$PLIMMIN
 10
0.0
 20
0.0
  9
$PLIMMAX
 10
420.0
 20
297.0
  9
$UNITMODE
 70
0
  9
$VISRETAIN
 70
1
  9
$PLINEGEN
 70
0
  9
$PSLTSCALE
 70
1
  9
$TREEDEPTH
 70
3020
  9
$CMLSTYLE
  2
Standard
  9
$CMLJUST
 70
0
  9
$CMLSCALE
 40
20.0
  9
$PROXYGRAPHICS
 70
1
  9
$MEASUREMENT
 70
1
  9
$CELWEIGHT
370
-1
  9
$ENDCAPS
280
0
  9
$JOINSTYLE
280
0
  9
$LWDISPLAY
290
0
  9
$INSUNITS
 70
4
  9
$HYPERLINKBASE
  1

  9
$STYLESHEET
  1

  9
$XEDIT
290
1
  9
$CEPSNTYPE
380
0
  9
$PSTYLEMODE
290
1
  9
$FINGERPRINTGUID
  2
{03054689-DE2C-467C-8D25-F6BF711DAFBA}
  9
$VERSIONGUID
  2
{2FC31322-0FE6-4FEC-81CE-C475EA81AC5D}
  9
$EXTNAMES
290
1
  9
$PSVPSCALE
 40
0.0
  9
$OLESTARTUP
290
0
  9
$SORTENTS
280
127
  9
$INDEXCTL
280
0
  9
$HIDETEXT
280
1
  9
$XCLIPFRAME
280
1
  9
$HALOGAP
280
0
  9
$OBSCOLOR
 70
257
  9
$OBSLTYPE
280
0
  9
$INTERSECTIONDISPLAY
280
0
  9
$INTERSECTIONCOLOR
 70
257
  9
$DIMASSOC
280
2
  9
$PROJECTNAME
  1

  9
$CAMERADISPLAY
290
0
  9
$LENSLENGTH
 40
50.0
  9
$CAMERAHEIGHT
 40
0.0
  9
$STEPSPERSEC
 40
24.0
  9
$STEPSIZE
 40
100.0
  9
$3DDWFPREC
 40
2.0
  9
$PSOLWIDTH
 40
0.005
  9
$PSOLHEIGHT
 40
0.08
  9
$LOFTANG1
 40
1.570796326795
  9
$LOFTANG2
 40
1.570796326795
  9
$LOFTMAG1
 40
0.0
  9
$LOFTMAG2
 40
0.0
  9
$LOFTPARAM
 70
7
  9
$LOFTNORMALS
280
1
  9
$LATITUDE
 40
37.795
  9
$LONGITUDE
 40
-122.394
  9
$NORTHDIRECTION
 40
0.0
  9
$TIMEZONE
 70
-8000
  9
$LIGHTGLYPHDISPLAY
280
1
  9
$TILEMODELIGHTSYNCH
280
1
  9
$CMATERIAL
347
20
  9
$SOLIDHIST
280
0
  9
$SHOWHIST
280
1
  9
$DWFFRAME
280
2
  9
$DGNFRAME
280
2
  9
$REALWORLDSCALE
290
1
  9
$INTERFERECOLOR
 62
256
  9
$CSHADOW
280
0
  9
$SHADOWPLANELOCATION
 40
0.0
  0
ENDSEC
  0
SECTION
  2
CLASSES
  0
CLASS
  1
ACDBDICTIONARYWDFLT
  2
AcDbDictionaryWithDefault
  3
ObjectDBX Classes
 90
0
 91
0
280
0
281
0
  0
CLASS
  1
SUN
  2
AcDbSun
  3
SCENEOE
 90
1153
 91
0
280
0
281
0
  0
CLASS
  1
VISUALSTYLE
  2
AcDbVisualStyle
  3
ObjectDBX Classes
 90
4095
 91
0
280
0
281
0
  0
CLASS
  1
MATERIAL
  2
AcDbMaterial
  3
ObjectDBX Classes
 90
1153
 91
0
280
0
281
0
  0
CLASS
  1
SCALE
  2
AcDbScale
  3
ObjectDBX Classes
 90
1153
 91
0
280
0
281
0
  0
CLASS
  1
TABLESTYLE
  2
AcDbTableStyle
  3
ObjectDBX Classes
 90
4095
 91
0
280
0
281
0
  0
CLASS
  1
MLEADERSTYLE
  2
AcDbMLeaderStyle
  3
ACDB_MLEADERSTYLE_CLASS
 90
4095
 91
0
280
0
281
0
  0
CLASS
  1
DICTIONARYVAR
  2
AcDbDictionaryVar
  3
ObjectDBX Classes
 90
0
 91
0
280
0
281
0
  0
CLASS
  1
CELLSTYLEMAP
  2
AcDbCellStyleMap
  3
ObjectDBX Classes
 90
1152
 91
0
280
0
281
0
  0
CLASS
  1
MENTALRAYRENDERSETTINGS
  2
AcDbMentalRayRenderSettings
  3
SCENEOE
 90
1024
 91
0
280
0
281
0
  0
CLASS
  1
ACDBDETAILVIEWSTYLE
  2
AcDbDetailViewStyle
  3
ObjectDBX Classes
 90
1025
 91
0
280
0
281
0
  0
CLASS
  1
ACDBSECTIONVIEWSTYLE
  2
AcDbSectionViewStyle
  3
ObjectDBX Classes
 90
1025
 91
0
280
0
281
0
  0
CLASS
  1
RASTERVARIABLES
  2
AcDbRasterVariables
  3
ISM
 90
0
 91
0
280
0
281
0
  0
CLASS
  1
LAYOUT
  2
AcDbLayout
  3
ObjectDBX Classes
 90
0
 91
0
280
0
281
0
  0
CLASS
  1
ACDBPLACEHOLDER
  2
AcDbPlaceHolder
  3
ObjectDBX Classes
 90
0
 91
0
280
0
281
0
  0
ENDSEC
  0
SECTION
  2
TABLES
  0
TABLE
  2
VPORT
  5
8
330
0
100
AcDbSymbolTable
 70
1
  0
VPORT
  5
23
330
8
100
AcDbSymbolTableRecord
100
AcDbViewportTableRecord
  2
*Active
 70
0
 10
0.0
 20
0.0
 11
1.0
 21
1.0
 12
0.0
 22
0.0
 13
0.0
 23
0.0
 14
0.5
 24
0.5
 15
0.5
 25
0.5
 16
0.0
 26
0.0
 36
1.0
 17
0.0
 27
0.0
 37
0.0
 40
1000.0
 41
1.34
 42
50.0
 43
0.0
 44
0.0
 50
0.0
 51
0.0
 71
0
 72
1000
 73
1
 74
3
 75
0
 76
0
 77
0
 78
0
281
0
 65
0
146
0.0
  0
ENDTAB
  0
TABLE
  2
LTYPE
  5
2
330
0
100
AcDbSymbolTable
 70
21
  0
LTYPE
  5
24
330
2
100
AcDbSymbolTableRecord
100
AcDbLinetypeTableRecord
  2
ByBlock
 70
0
  3

 72
65
 73
0
 40
0.0
  0
LTYPE
  5
25
330
2
100
AcDbSymbolTableRecord
100
AcDbLinetypeTableRecord
  2
ByLayer
 70
0
  3

 72
65
 73
0
 40
0.0
  0
LTYPE
  5
26
330
2
100
AcDbSymbolTableRecord
100
AcDbLinetypeTableRecord
  2
Continuous
 70
0
  3

 72
65
 73
0
 40
0.0
  0
LTYPE
  5
2F
330
2
100
AcDbSymbolTableRecord
100
AcDbLinetypeTableRecord
  2
CENTER
 70
0
  3
Center ____ _ ____ _ ____ _ ____ _ ____ _ ____
 72
65
 73
4
 40
5.08
 49
3.175
 74
0
 49
-0.635
 74
0
 49
0.635
 74
0
 49
-0.635
 74
0
  0
LTYPE
  5
30
330
2
100
AcDbSymbolTableRecord
100
AcDbLinetypeTableRecord
  2
CENTERX2
 70
0
  3
Center (2x) ________  __  ________  __  ________
 72
65
 73
4
 40
8.89
 49
6.35
 74
0
 49
-0.635
 74
0
 49
1.27
 74
0
 49
-0.635
 74
0
  0
LTYPE
  5
31
330
2
100
AcDbSymbolTableRecord
100
AcDbLinetypeTableRecord
  2
CENTER2
 70
0
  3
Center (.5x) ____ _ ____ _ ____ _ ____ _ ____
 72
65
 73
4
 40
2.54
 49
1.587
 74
0
 49
-0.318
 74
0
 49
0.318
 74
0
 49
-0.318
 74
0
  0
LTYPE
  5
32
330
2
100
AcDbSymbolTableRecord
100
AcDbLinetypeTableRecord
  2
DASHED
 70
0
  3
Dashed __ __ __ __ __ __ __ __ __ __ __ __ __ _
 72
65
 73
2
 40
1.524
 49
1.27
 74
0
 49
-0.254
 74
0
  0
LTYPE
  5
33
330
2
100
AcDbSymbolTableRecord
100
AcDbLinetypeTableRecord
  2
DASHEDX2
 70
0
  3
Dashed (2x) ____  ____  ____  ____  ____  ____
 72
65
 73
2
 40
3.048
 49
2.54
 74
0
 49
-0.508
 74
0
  0
LTYPE
  5
34
330
2
100
AcDbSymbolTableRecord
100
AcDbLinetypeTableRecord
  2
DASHED2
 70
0
  3
Dashed (.5x) _ _ _ _ _ _ _ _ _ _ _ _ _ _
 72
65
 73
2
 40
0.762
 49
0.635
 74
0
 49
-0.127
 74
0
  0
LTYPE
  5
35
330
2
100
AcDbSymbolTableRecord
100
AcDbLinetypeTableRecord
  2
PHANTOM
 70
0
  3
Phantom ______  __  __  ______  __  __  ______
 72
65
 73
6
 40
6.35
 49
3.175
 74
0
 49
-0.635
 74
0
 49
0.635
 74
0
 49
-0.635
 74
0
 49
0.635
 74
0
 49
-0.635
 74
0
  0
LTYPE
  5
36
330
2
100
AcDbSymbolTableRecord
100
AcDbLinetypeTableRecord
  2
PHANTOMX2
 70
0
  3
Phantom (2x)____________    ____    ____    ____________
 72
65
 73
6
 40
10.795
 49
6.35
 74
0
 49
-0.635
 74
0
 49
1.27
 74
0
 49
-0.635
 74
0
 49
1.27
 74
0
 49
-0.635
 74
0
  0
LTYPE
  5
37
330
2
100
AcDbSymbolTableRecord
100
AcDbLinetypeTableRecord
  2
PHANTOM2
 70
0
  3
Phantom (.5x) ___ _ _ ___ _ _ ___ _ _ ___ _ _ ___
 72
65
 73
6
 40
3.175
 49
1.587
 74
0
 49
-0.318
 74
0
 49
0.318
 74
0
 49
-0.318
 74
0
 49
0.318
 74
0
 49
-0.318
 74
0
  0
LTYPE
  5
38
330
2
100
AcDbSymbolTableRecord
100
AcDbLinetypeTableRecord
  2
DASHDOT
 70
0
  3
Dash dot __ . __ . __ . __ . __ . __ . __ . __
 72
65
 73
4
 40
3.556
 49
2.54
 74
0
 49
-0.508
 74
0
 49
0.0
 74
0
 49
-0.508
 74
0
  0
LTYPE
  5
39
330
2
100
AcDbSymbolTableRecord
100
AcDbLinetypeTableRecord
  2
DASHDOTX2
 70
0
  3
Dash dot (2x) ____  .  ____  .  ____  .  ____
 72
65
 73
4
 40
6.096
 49
5.08
 74
0
 49
-0.508
 74
0
 49
0.0
 74
0
 49
-0.508
 74
0
  0
LTYPE
  5
3A
330
2
100
AcDbSymbolTableRecord
100
AcDbLinetypeTableRecord
  2
DASHDOT2
 70
0
  3
Dash dot (.5x) _ . _ . _ . _ . _ . _ . _ . _
 72
65
 73
4
 40
1.778
 49
1.27
 74
0
 49
-0.254
 74
0
 49
0.0
 74
0
 49
-0.254
 74
0
  0
LTYPE
  5
3B
330
2
100
AcDbSymbolTableRecord
100
AcDbLinetypeTableRecord
  2
DOT
 70
0
  3
Dot .  .  .  .  .  .  .  .  .  .  .  .  .  .  .  .
 72
65
 73
2
 40
0.508
 49
0.0
 74
0
 49
-0.508
 74
0
  0
LTYPE
  5
3C
330
2
100
AcDbSymbolTableRecord
100
AcDbLinetypeTableRecord
  2
DOTX2
 70
0
  3
Dot (2x) .    .    .    .    .    .    .    . 
 72
65
 73
2
 40
1.016
 49
0.0
 74
0
 49
-1.016
 74
0
  0
LTYPE
  5
3D
330
2
100
AcDbSymbolTableRecord
100
AcDbLinetypeTableRecord
  2
DOT2
 70
0
  3
Dot (.5) . . . . . . . . . . . . . . . . . . . 
 72
65
 73
2
 40
0.254
 49
0.0
 74
0
 49
-0.254
 74
0
  0
LTYPE
  5
3E
330
2
100
AcDbSymbolTableRecord
100
AcDbLinetypeTableRecord
  2
DIVIDE
 70
0
  3
Divide __ . . __ . . __ . . __ . . __ . . __
 72
65
 73
6
 40
4.064
 49
2.54
 74
0
 49
-0.508
 74
0
 49
0.0
 74
0
 49
-0.508
 74
0
 49
0.0
 74
0
 49
-0.508
 74
0
  0
LTYPE
  5
3F
330
2
100
AcDbSymbolTableRecord
100
AcDbLinetypeTableRecord
  2
DIVIDEX2
 70
0
  3
Divide (2x) ____  . .  ____  . .  ____  . .  ____
 72
65
 73
6
 40
6.604
 49
5.08
 74
0
 49
-0.508
 74
0
 49
0.0
 74
0
 49
-0.508
 74
0
 49
0.0
 74
0
 49
-0.508
 74
0
  0
LTYPE
  5
40
330
2
100
AcDbSymbolTableRecord
100
AcDbLinetypeTableRecord
  2
DIVIDE2
 70
0
  3
Divide(.5x) _ . _ . _ . _ . _ . _ . _ . _
 72
65
 73
6
 40
2.032
 49
1.27
 74
0
 49
-0.254
 74
0
 49
0.0
 74
0
 49
-0.254
 74
0
 49
0.0
 74
0
 49
-0.254
 74
0
  0
ENDTAB
  0
TABLE
  2
LAYER
  5
1
330
0
100
AcDbSymbolTable
 70
11
  0
LAYER
  5
27
330
1
100
AcDbSymbolTableRecord
100
AcDbLayerTableRecord
  2
0
 70
0
 62
7
  6
Continuous
370
-3
390
13
347
21
  0
LAYER
  5
28
330
1
100
AcDbSymbolTableRecord
100
AcDbLayerTableRecord
  2
Defpoints
 70
0
 62
7
  6
Continuous
290
0
370
-3
390
13
347
21
  0
LAYER
  5
8A
330
1
100
AcDbSymbolTableRecord
100
AcDbLayerTableRecord
  2
EJES
 70
0
 62
4
  6
CENTER
370
18
390
13
347
21
  0
LAYER
  5
8B
330
1
100
AcDbSymbolTableRecord
100
AcDbLayerTableRecord
  2
RAYADO
 70
0
 62
8
  6
CONTINUOUS
370
13
390
13
347
21
  0
LAYER
  5
8C
330
1
100
AcDbSymbolTableRecord
100
AcDbLayerTableRecord
  2
NORMA
 70
0
 62
7
  6
CONTINUOUS
370
70
390
13
347
21
  0
LAYER
  5
8D
330
1
100
AcDbSymbolTableRecord
100
AcDbLayerTableRecord
  2
FINA
 70
0
 62
7
  6
CONTINUOUS
370
18
390
13
347
21
  0
LAYER
  5
8E
330
1
100
AcDbSymbolTableRecord
100
AcDbLayerTableRecord
  2
VISIBLE
 70
0
 62
7
  6
CONTINUOUS
370
50
390
13
347
21
  0
LAYER
  5
8F
330
1
100
AcDbSymbolTableRecord
100
AcDbLayerTableRecord
  2
OCULTA
 70
0
 62
8
  6
DASHED
370
25
390
13
347
21
  0
LAYER
  5
90
330
1
100
AcDbSymbolTableRecord
100
AcDbLayerTableRecord
  2
COTAS
 70
0
 62
7
  6
CONTINUOUS
370
25
390
13
347
21
  0
LAYER
  5
91
330
1
100
AcDbSymbolTableRecord
100
AcDbLayerTableRecord
  2
PLIEGUE
 70
0
 62
1
  6
DASHDOT
370
25
390
13
347
21
  0
LAYER
  5
92
330
1
100
AcDbSymbolTableRecord
100
AcDbLayerTableRecord
  2
TEXTO
 70
0
 62
7
  6
CONTINUOUS
370
25
390
13
347
21
  0
ENDTAB
  0
TABLE
  2
STYLE
  5
5
330
0
100
AcDbSymbolTable
 70
26
  0
STYLE
  5
29
330
5
100
AcDbSymbolTableRecord
100
AcDbTextStyleTableRecord
  2
Standard
 70
0
 40
0.0
 41
1.0
 50
0.0
 71
0
 42
2.5
  3
txt
  4

  0
STYLE
  5
41
330
5
100
AcDbSymbolTableRecord
100
AcDbTextStyleTableRecord
  2
OpenSans-Light
 70
0
 40
0.0
 41
1.0
 50
0.0
 71
0
 42
2.5
  3
OpenSans-Light.ttf
  4

  0
STYLE
  5
42
330
5
100
AcDbSymbolTableRecord
100
AcDbTextStyleTableRecord
  2
OpenSans-Light-Italic
 70
0
 40
0.0
 41
1.0
 50
0.0
 71
0
 42
2.5
  3
OpenSans-LightItalic.ttf
  4

  0
STYLE
  5
43
330
5
100
AcDbSymbolTableRecord
100
AcDbTextStyleTableRecord
  2
OpenSans
 70
0
 40
0.0
 41
1.0
 50
0.0
 71
0
 42
2.5
  3
OpenSans-Regular.ttf
  4

  0
STYLE
  5
44
330
5
100
AcDbSymbolTableRecord
100
AcDbTextStyleTableRecord
  2
OpenSans-Italic
 70
0
 40
0.0
 41
1.0
 50
0.0
 71
0
 42
2.5
  3
OpenSans-Italic.ttf
  4

  0
STYLE
  5
45
330
5
100
AcDbSymbolTableRecord
100
AcDbTextStyleTableRecord
  2
OpenSans-SemiBold
 70
0
 40
0.0
 41
1.0
 50
0.0
 71
0
 42
2.5
  3
OpenSans-SemiBold.ttf
  4

  0
STYLE
  5
46
330
5
100
AcDbSymbolTableRecord
100
AcDbTextStyleTableRecord
  2
OpenSans-SemiBoldItalic
 70
0
 40
0.0
 41
1.0
 50
0.0
 71
0
 42
2.5
  3
OpenSans-SemiBoldItalic.ttf
  4

  0
STYLE
  5
47
330
5
100
AcDbSymbolTableRecord
100
AcDbTextStyleTableRecord
  2
OpenSans-Bold
 70
0
 40
0.0
 41
1.0
 50
0.0
 71
0
 42
2.5
  3
OpenSans-Bold.ttf
  4

  0
STYLE
  5
48
330
5
100
AcDbSymbolTableRecord
100
AcDbTextStyleTableRecord
  2
OpenSans-BoldItalic
 70
0
 40
0.0
 41
1.0
 50
0.0
 71
0
 42
2.5
  3
OpenSans-BoldItalic.ttf
  4

  0
STYLE
  5
49
330
5
100
AcDbSymbolTableRecord
100
AcDbTextStyleTableRecord
  2
OpenSans-ExtraBold
 70
0
 40
0.0
 41
1.0
 50
0.0
 71
0
 42
2.5
  3
OpenSans-ExtraBold.ttf
  4

  0
STYLE
  5
4A
330
5
100
AcDbSymbolTableRecord
100
AcDbTextStyleTableRecord
  2
OpenSans-ExtraBoldItalic
 70
0
 40
0.0
 41
1.0
 50
0.0
 71
0
 42
2.5
  3
OpenSans-ExtraBoldItalic.ttf
  4

  0
STYLE
  5
4B
330
5
100
AcDbSymbolTableRecord
100
AcDbTextStyleTableRecord
  2
OpenSansCondensed-Bold
 70
0
 40
0.0
 41
1.0
 50
0.0
 71
0
 42
2.5
  3
OpenSansCondensed-Bold.ttf
  4

  0
STYLE
  5
4C
330
5
100
AcDbSymbolTableRecord
100
AcDbTextStyleTableRecord
  2
OpenSansCondensed-Light
 70
0
 40
0.0
 41
1.0
 50
0.0
 71
0
 42
2.5
  3
OpenSansCondensed-Light.ttf
  4

  0
STYLE
  5
4D
330
5
100
AcDbSymbolTableRecord
100
AcDbTextStyleTableRecord
  2
OpenSansCondensed-Italic
 70
0
 40
0.0
 41
1.0
 50
0.0
 71
0
 42
2.5
  3
OpenSansCondensed-LightItalic.ttf
  4

  0
STYLE
  5
4E
330
5
100
AcDbSymbolTableRecord
100
AcDbTextStyleTableRecord
  2
LiberationSans
 70
0
 40
0.0
 41
1.0
 50
0.0
 71
0
 42
2.5
  3
LiberationSans-Regular.ttf
  4

  0
STYLE
  5
4F
330
5
100
AcDbSymbolTableRecord
100
AcDbTextStyleTableRecord
  2
LiberationSans-Bold
 70
0
 40
0.0
 41
1.0
 50
0.0
 71
0
 42
2.5
  3
LiberationSans-Bold.ttf
  4

  0
STYLE
  5
50
330
5
100
AcDbSymbolTableRecord
100
AcDbTextStyleTableRecord
  2
LiberationSans-BoldItalic
 70
0
 40
0.0
 41
1.0
 50
0.0
 71
0
 42
2.5
  3
LiberationSans-BoldItalic.ttf
  4

  0
STYLE
  5
51
330
5
100
AcDbSymbolTableRecord
100
AcDbTextStyleTableRecord
  2
LiberationSans-Italic
 70
0
 40
0.0
 41
1.0
 50
0.0
 71
0
 42
2.5
  3
LiberationSans-Italic.ttf
  4

  0
STYLE
  5
52
330
5
100
AcDbSymbolTableRecord
100
AcDbTextStyleTableRecord
  2
LiberationSerif
 70
0
 40
0.0
 41
1.0
 50
0.0
 71
0
 42
2.5
  3
LiberationSerif-Regular.ttf
  4

  0
STYLE
  5
53
330
5
100
AcDbSymbolTableRecord
100
AcDbTextStyleTableRecord
  2
LiberationSerif-Bold
 70
0
 40
0.0
 41
1.0
 50
0.0
 71
0
 42
2.5
  3
LiberationSerif-Bold.ttf
  4

  0
STYLE
  5
54
330
5
100
AcDbSymbolTableRecord
100
AcDbTextStyleTableRecord
  2
LiberationSerif-BoldItalic
 70
0
 40
0.0
 41
1.0
 50
0.0
 71
0
 42
2.5
  3
LiberationSerif-BoldItalic.ttf
  4

  0
STYLE
  5
55
330
5
100
AcDbSymbolTableRecord
100
AcDbTextStyleTableRecord
  2
LiberationSerif-Italic
 70
0
 40
0.0
 41
1.0
 50
0.0
 71
0
 42
2.5
  3
LiberationSerif-Italic.ttf
  4

  0
STYLE
  5
56
330
5
100
AcDbSymbolTableRecord
100
AcDbTextStyleTableRecord
  2
LiberationMono
 70
0
 40
0.0
 41
1.0
 50
0.0
 71
0
 42
2.5
  3
LiberationMono-Regular.ttf
  4

  0
STYLE
  5
57
330
5
100
AcDbSymbolTableRecord
100
AcDbTextStyleTableRecord
  2
LiberationMono-Bold
 70
0
 40
0.0
 41
1.0
 50
0.0
 71
0
 42
2.5
  3
LiberationMono-Bold.ttf
  4

  0
STYLE
  5
58
330
5
100
AcDbSymbolTableRecord
100
AcDbTextStyleTableRecord
  2
LiberationMono-BoldItalic
 70
0
 40
0.0
 41
1.0
 50
0.0
 71
0
 42
2.5
  3
LiberationMono-BoldItalic.ttf
  4

  0
STYLE
  5
59
330
5
100
AcDbSymbolTableRecord
100
AcDbTextStyleTableRecord
  2
LiberationMono-Italic
 70
0
 40
0.0
 41
1.0
 50
0.0
 71
0
 42
2.5
  3
LiberationMono-Italic.ttf
  4

  0
ENDTAB
  0
TABLE
  2
VIEW
  5
7
330
0
100
AcDbSymbolTable
 70
0
  0
ENDTAB
  0
TABLE
  2
UCS
  5
6
330
0
100
AcDbSymbolTable
 70
0
  0
ENDTAB
  0
TABLE
  2
APPID
  5
3
330
0
100
AcDbSymbolTable
 70
3
  0
APPID
  5
2A
330
3
100
AcDbSymbolTableRecord
100
AcDbRegAppTableRecord
  2
ACAD
 70
0
  0
APPID
  5
1AE
330
3
100
AcDbSymbolTableRecord
100
AcDbRegAppTableRecord
  2
HATCHBACKGROUNDCOLOR
 70
0
  0
APPID
  5
1AF
330
3
100
AcDbSymbolTableRecord
100
AcDbRegAppTableRecord
  2
EZDXF
 70
0
  0
ENDTAB
  0
TABLE
  2
DIMSTYLE
  5
4
330
0
100
AcDbSymbolTable
 70
13
100
AcDbDimStyleTable
  0
DIMSTYLE
105
2B
330
4
100
AcDbSymbolTableRecord
100
AcDbDimStyleTableRecord
  2
Standard
 70
0
 40
1.0
 41
2.5
 42
0.625
 43
3.75
 44
1.25
 45
0.0
 46
0.0
 47
0.0
 48
0.0
 49
2.5
140
2.5
141
2.5
142
0.0
143
0.03937007874
144
1.0
145
0.0
146
1.0
147
0.625
148
0.0
 69
0
 70
0
 71
0
 72
0
 73
0
 74
0
 75
0
 76
0
 77
1
 78
8
 79
3
170
0
171
3
172
1
173
0
174
0
175
0
176
0
177
0
178
0
179
2
271
2
272
2
273
2
274
3
275
0
276
0
277
2
278
44
279
0
280
0
281
0
282
0
283
0
284
8
285
0
286
0
288
0
289
3
290
0
371
-2
372
-2
  0
DIMSTYLE
105
73
330
4
100
AcDbSymbolTableRecord
100
AcDbDimStyleTableRecord
  2
EZDXF
 70
0
 40
1.0
 41
0.175
 42
0.125
 43
3.75
 44
0.375
 45
0.0
 46
0.0
 47
0.0
 48
0.0
 49
2.5
140
0.25
141
2.5
142
0.0
143
0.03937007874
144
100.0
145
0.0
146
0.5
147
0.1
148
0.0
 69
0
 70
0
 71
0
 72
0
 73
0
 74
0
 75
0
 76
0
 77
1
 78
12
 79
3
170
0
171
3
172
1
173
0
174
0
175
0
176
0
177
0
178
0
179
2
271
2
272
2
273
2
274
3
275
0
276
0
277
2
278
46
279
2
280
0
281
0
282
0
283
0
284
8
285
0
286
0
288
1
289
3
290
0
340
4C
342
74
371
-2
372
-2
  0
DIMSTYLE
105
7C
330
4
100
AcDbSymbolTableRecord
100
AcDbDimStyleTableRecord
  2
EZ_M_100_H25_CM
 70
0
 40
1.0
 41
0.25
 42
0.125
 43
3.75
 44
0.375
 45
0.0
 46
0.0
 47
0.0
 48
0.0
 49
2.5
140
0.25
141
2.5
142
0.125
143
0.03937007874
144
100.0
145
0.0
146
0.5
147
0.1
148
0.0
 69
0
 70
0
 71
0
 72
0
 73
0
 74
0
 75
0
 76
0
 77
1
 78
12
 79
3
170
0
171
3
172
1
173
0
174
0
175
0
176
0
177
0
178
0
179
2
271
2
272
2
273
2
274
3
275
0
276
0
277
2
278
46
279
2
280
0
281
0
282
0
283
0
284
8
285
0
286
0
288
1
289
3
290
0
340
4C
371
-2
372
-2
  0
DIMSTYLE
105
7D
330
4
100
AcDbSymbolTableRecord
100
AcDbDimStyleTableRecord
  2
EZ_M_50_H25_CM
 70
0
 40
1.0
 41
0.125
 42
0.0625
 43
3.75
 44
0.1875
 45
0.0
 46
0.0
 47
0.0
 48
0.0
 49
2.5
140
0.125
141
2.5
142
0.0625
143
0.03937007874
144
100.0
145
0.0
146
0.5
147
0.05
148
0.0
 69
0
 70
0
 71
0
 72
0
 73
0
 74
0
 75
0
 76
0
 77
1
 78
12
 79
3
170
0
171
3
172
1
173
0
174
0
175
0
176
0
177
0
178
0
179
2
271
2
272
2
273
2
274
3
275
0
276
0
277
2
278
46
279
2
280
0
281
0
282
0
283
0
284
8
285
0
286
0
288
1
289
3
290
0
340
4C
371
-2
372
-2
  0
DIMSTYLE
105
7E
330
4
100
AcDbSymbolTableRecord
100
AcDbDimStyleTableRecord
  2
EZ_M_25_H25_CM
 70
0
 40
1.0
 41
0.0625
 42
0.03125
 43
3.75
 44
0.09375
 45
0.0
 46
0.0
 47
0.0
 48
0.0
 49
2.5
140
0.0625
141
2.5
142
0.03125
143
0.03937007874
144
100.0
145
0.0
146
0.5
147
0.025
148
0.0
 69
0
 70
0
 71
0
 72
0
 73
0
 74
0
 75
0
 76
0
 77
1
 78
12
 79
3
170
0
171
3
172
1
173
0
174
0
175
0
176
0
177
0
178
0
179
2
271
2
272
2
273
2
274
3
275
0
276
0
277
2
278
46
279
2
280
0
281
0
282
0
283
0
284
8
285
0
286
0
288
1
289
3
290
0
340
4C
371
-2
372
-2
  0
DIMSTYLE
105
7F
330
4
100
AcDbSymbolTableRecord
100
AcDbDimStyleTableRecord
  2
EZ_M_20_H25_CM
 70
0
 40
1.0
 41
0.05
 42
0.025
 43
3.75
 44
0.07500000000000001
 45
0.0
 46
0.0
 47
0.0
 48
0.0
 49
2.5
140
0.05
141
2.5
142
0.025
143
0.03937007874
144
100.0
145
0.0
146
0.5
147
0.020000000000000004
148
0.0
 69
0
 70
0
 71
0
 72
0
 73
0
 74
0
 75
0
 76
0
 77
1
 78
12
 79
3
170
0
171
3
172
1
173
0
174
0
175
0
176
0
177
0
178
0
179
2
271
2
272
2
273
2
274
3
275
0
276
0
277
2
278
46
279
2
280
0
281
0
282
0
283
0
284
8
285
0
286
0
288
1
289
3
290
0
340
4C
371
-2
372
-2
  0
DIMSTYLE
105
80
330
4
100
AcDbSymbolTableRecord
100
AcDbDimStyleTableRecord
  2
EZ_M_10_H25_CM
 70
0
 40
1.0
 41
0.025
 42
0.0125
 43
3.75
 44
0.037500000000000006
 45
0.0
 46
0.0
 47
0.0
 48
0.0
 49
2.5
140
0.025
141
2.5
142
0.0125
143
0.03937007874
144
100.0
145
0.0
146
0.5
147
0.010000000000000002
148
0.0
 69
0
 70
0
 71
0
 72
0
 73
0
 74
0
 75
0
 76
0
 77
1
 78
12
 79
3
170
0
171
3
172
1
173
0
174
0
175
0
176
0
177
0
178
0
179
2
271
2
272
2
273
2
274
3
275
0
276
0
277
2
278
46
279
2
280
0
281
0
282
0
283
0
284
8
285
0
286
0
288
1
289
3
290
0
340
4C
371
-2
372
-2
  0
DIMSTYLE
105
81
330
4
100
AcDbSymbolTableRecord
100
AcDbDimStyleTableRecord
  2
EZ_M_5_H25_CM
 70
0
 40
1.0
 41
0.0125
 42
0.00625
 43
3.75
 44
0.018750000000000003
 45
0.0
 46
0.0
 47
0.0
 48
0.0
 49
2.5
140
0.0125
141
2.5
142
0.00625
143
0.03937007874
144
100.0
145
0.0
146
0.5
147
0.005000000000000001
148
0.0
 69
0
 70
0
 71
0
 72
0
 73
0
 74
0
 75
0
 76
0
 77
1
 78
12
 79
3
170
0
171
3
172
1
173
0
174
0
175
0
176
0
177
0
178
0
179
2
271
2
272
2
273
2
274
3
275
0
276
0
277
2
278
46
279
2
280
0
281
0
282
0
283
0
284
8
285
0
286
0
288
1
289
3
290
0
340
4C
371
-2
372
-2
  0
DIMSTYLE
105
82
330
4
100
AcDbSymbolTableRecord
100
AcDbDimStyleTableRecord
  2
EZ_M_1_H25_CM
 70
0
 40
1.0
 41
0.0025
 42
0.00125
 43
3.75
 44
0.00375
 45
0.0
 46
0.0
 47
0.0
 48
0.0
 49
2.5
140
0.0025
141
2.5
142
0.00125
143
0.03937007874
144
100.0
145
0.0
146
0.5
147
0.001
148
0.0
 69
0
 70
0
 71
0
 72
0
 73
0
 74
0
 75
0
 76
0
 77
1
 78
12
 79
3
170
0
171
3
172
1
173
0
174
0
175
0
176
0
177
0
178
0
179
2
271
2
272
2
273
2
274
3
275
0
276
0
277
2
278
46
279
2
280
0
281
0
282
0
283
0
284
8
285
0
286
0
288
1
289
3
290
0
340
4C
371
-2
372
-2
  0
DIMSTYLE
105
83
330
4
100
AcDbSymbolTableRecord
100
AcDbDimStyleTableRecord
  2
EZ_RADIUS
 70
0
 40
1.0
 41
0.25
 42
0.125
 43
3.75
 44
0.375
 45
0.0
 46
0.0
 47
0.0
 48
0.0
 49
2.5
140
0.25
141
0.0
142
0.0
143
0.03937007874
144
100.0
145
0.0
146
0.5
147
0.1
148
0.0
 69
0
 70
0
 71
0
 72
0
 73
0
 74
0
 75
0
 76
0
 77
1
 78
12
 79
3
170
0
171
3
172
0
173
0
174
0
175
0
176
0
177
0
178
0
179
2
271
2
272
2
273
2
274
3
275
0
276
0
277
2
278
46
279
1
280
0
281
0
282
0
283
0
284
8
285
0
286
0
288
1
289
3
290
0
340
4C
342
84
371
-2
372
-2
  0
DIMSTYLE
105
88
330
4
100
AcDbSymbolTableRecord
100
AcDbDimStyleTableRecord
  2
EZ_RADIUS_INSIDE
 70
0
 40
1.0
 41
0.25
 42
0.125
 43
3.75
 44
0.375
 45
0.0
 46
0.0
 47
0.0
 48
0.0
 49
2.5
140
0.25
141
0.0
142
0.0
143
0.03937007874
144
100.0
145
0.0
146
0.5
147
0.1
148
0.0
 69
0
 70
0
 71
0
 72
0
 73
0
 74
0
 75
0
 76
0
 77
0
 78
12
 79
3
170
0
171
3
172
0
173
0
174
1
175
0
176
0
177
0
178
0
179
2
271
2
272
2
273
2
274
3
275
0
276
0
277
2
278
46
279
0
280
0
281
0
282
0
283
0
284
8
285
0
286
0
288
1
289
0
290
0
340
4C
342
84
371
-2
372
-2
  0
DIMSTYLE
105
89
330
4
100
AcDbSymbolTableRecord
100
AcDbDimStyleTableRecord
  2
EZ_CURVED
 70
0
 40
1.0
 41
0.25
 42
0.125
 43
3.75
 44
0.375
 45
0.0
 46
0.0
 47
0.0
 48
0.0
 49
2.5
140
0.25
141
2.5
142
0.0
143
0.03937007874
144
100.0
145
0.0
146
0.5
147
0.1
148
0.0
 69
0
 70
0
 71
0
 72
0
 73
0
 74
0
 75
0
 76
0
 77
1
 78
12
 79
2
 90
2
170
0
171
3
172
1
173
0
174
0
175
0
176
0
177
0
178
0
179
2
271
2
272
2
273
2
274
3
275
0
276
0
277
2
278
46
279
2
280
0
281
0
282
0
283
0
284
8
285
0
286
0
288
1
289
3
290
0
340
4C
371
-2
372
-2
  0
DIMSTYLE
105
93
330
4
100
AcDbSymbolTableRecord
100
AcDbDimStyleTableRecord
  2
F3D_500
 70
0
 40
1.0
 41
1.25
 42
0.5
 43
3.75
 44
0.75
 45
0.0
 46
0.0
 47
0.0
 48
0.0
 49
2.5
140
1.75
141
2.5
142
0.0
143
0.03937007874
144
1.0
145
0.0
146
1.0
147
0.45
148
0.0
 69
0
 70
0
 71
0
 72
0
 73
0
 74
0
 75
0
 76
0
 77
1
 78
8
 79
3
170
0
171
3
172
1
173
0
174
0
175
0
176
0
177
0
178
0
179
2
271
1
272
2
273
2
274
3
275
0
276
0
277
2
278
46
279
0
280
0
281
0
282
0
283
0
284
8
285
0
286
0
288
0
289
3
290
0
371
-2
372
-2
  0
ENDTAB
  0
TABLE
  2
BLOCK_RECORD
  5
9
330
0
100
AcDbSymbolTable
 70
9
  0
BLOCK_RECORD
  5
17
330
9
100
AcDbSymbolTableRecord
100
AcDbBlockTableRecord
  2
*Model_Space
340
1A
 70
0
280
1
281
0
  0
BLOCK_RECORD
  5
1B
330
9
100
AcDbSymbolTableRecord
100
AcDbBlockTableRecord
  2
*Paper_Space
340
1E
 70
0
280
1
281
0
  0
BLOCK_RECORD
  5
74
330
9
100
AcDbSymbolTableRecord
100
AcDbBlockTableRecord
  2
_ARCHTICK
340
0
 70
0
280
1
281
0
  0
BLOCK_RECORD
  5
78
330
9
100
AcDbSymbolTableRecord
100
AcDbBlockTableRecord
  2
_CLOSEDFILLED
340
0
 70
0
280
1
281
0
  0
BLOCK_RECORD
  5
84
330
9
100
AcDbSymbolTableRecord
100
AcDbBlockTableRecord
  2
_CLOSEDBLANK
340
0
 70
0
280
1
281
0
  0
BLOCK_RECORD
  5
10F
330
9
100
AcDbSymbolTableRecord
100
AcDbBlockTableRecord
  2
*D1
340
0
 70
0
280
1
281
0
  0
BLOCK_RECORD
  5
11E
330
9
100
AcDbSymbolTableRecord
100
AcDbBlockTableRecord
  2
*D2
340
0
 70
0
280
1
281
0
  0
BLOCK_RECORD
  5
12D
330
9
100
AcDbSymbolTableRecord
100
AcDbBlockTableRecord
  2
*D3
340
0
 70
0
280
1
281
0
  0
BLOCK_RECORD
  5
13C
330
9
100
AcDbSymbolTableRecord
100
AcDbBlockTableRecord
  2
*D4
340
0
 70
0
280
1
281
0
  0
ENDTAB
  0
ENDSEC
  0
SECTION
  2
BLOCKS
  0
BLOCK
  5
18
330
17
100
AcDbEntity
  8
0
100
AcDbBlockBegin
  2
*Model_Space
 70
0
 10
0.0
 20
0.0
 30
0.0
  3
*Model_Space
  1

  0
ENDBLK
  5
19
330
17
100
AcDbEntity
  8
0
100
AcDbBlockEnd
  0
BLOCK
  5
1C
330
1B
100
AcDbEntity
  8
0
100
AcDbBlockBegin
  2
*Paper_Space
 70
0
 10
0.0
 20
0.0
 30
0.0
  3
*Paper_Space
  1

  0
ENDBLK
  5
1D
330
1B
100
AcDbEntity
  8
0
100
AcDbBlockEnd
  0
BLOCK
  5
75
330
74
100
AcDbEntity
  8
0
100
AcDbBlockBegin
  2
_ARCHTICK
 70
0
 10
0.0
 20
0.0
 30
0.0
  3
_ARCHTICK
  1

  0
LWPOLYLINE
  5
77
330
74
100
AcDbEntity
  8
0
  6
BYBLOCK
 62
0
100
AcDbPolyline
 90
2
 70
0
 43
0.15
 10
-0.5
 20
-0.5
 10
0.5
 20
0.5
  0
ENDBLK
  5
76
330
74
100
AcDbEntity
  8
0
100
AcDbBlockEnd
  0
BLOCK
  5
79
330
78
100
AcDbEntity
  8
0
100
AcDbBlockBegin
  2
_CLOSEDFILLED
 70
0
 10
0.0
 20
0.0
 30
0.0
  3
_CLOSEDFILLED
  1

  0
SOLID
  5
7B
330
78
100
AcDbEntity
  8
0
  6
BYBLOCK
 62
0
100
AcDbTrace
 10
-1.0
 20
0.16439898372402537
 30
0.0
 11
0.0
 21
0.0
 31
0.0
 12
-1.0
 22
-0.16439898372402537
 32
0.0
 13
-1.0
 23
-0.16439898372402537
 33
0.0
  0
ENDBLK
  5
7A
330
78
100
AcDbEntity
  8
0
100
AcDbBlockEnd
  0
BLOCK
  5
85
330
84
100
AcDbEntity
  8
0
100
AcDbBlockBegin
  2
_CLOSEDBLANK
 70
0
 10
0.0
 20
0.0
 30
0.0
  3
_CLOSEDBLANK
  1

  0
LWPOLYLINE
  5
87
330
84
100
AcDbEntity
  8
0
  6
BYBLOCK
 62
0
100
AcDbPolyline
 90
3
 70
1
 10
-1.0
 20
0.16439898372402537
 10
0.0
 20
0.0
 10
-1.0
 20
-0.16439898372402537
  0
ENDBLK
  5
86
330
84
100
AcDbEntity
  8
0
100
AcDbBlockEnd
  0
BLOCK
  5
110
330
10F
100
AcDbEntity
  8
0
100
AcDbBlockBegin
  2
*D1
 70
1
 10
0.0
 20
0.0
 30
0.0
  3
*D1
  1

  0
LINE
  5
112
330
10F
100
AcDbEntity
  8
0
100
AcDbLine
 10
35.0
 20
58.5
 30
0.0
 11
35.0
 21
54.25
 31
0.0
  0
LINE
  5
113
330
10F
100
AcDbEntity
  8
0
100
AcDbLine
 10
93.0
 20
58.5
 30
0.0
 11
93.0
 21
54.25
 31
0.0
  0
INSERT
  5
114
330
10F
100
AcDbEntity
  8
COTAS
100
AcDbBlockReference
  2
_CLOSEDFILLED
 10
35.0
 20
55.0
 30
0.0
 41
1.25
 42
1.25
 50
180.0
  0
INSERT
  5
116
330
10F
100
AcDbEntity
  8
COTAS
100
AcDbBlockReference
  2
_CLOSEDFILLED
 10
93.0
 20
55.0
 30
0.0
 41
1.25
 42
1.25
  0
LINE
  5
118
330
10F
100
AcDbEntity
  8
0
100
AcDbLine
 10
36.25
 20
55.0
 30
0.0
 11
91.75
 21
55.0
 31
0.0
  0
MTEXT
  5
119
330
10F
100
AcDbEntity
  8
COTAS
100
AcDbMText
 10
64.0
 20
56.325
 30
0.0
 40
1.75
 71
5
  1
58
  7
OpenSansCondensed-Light
  0
POINT
  5
11A
330
10F
100
AcDbEntity
  8
Defpoints
100
AcDbPoint
 10
35.0
 20
55.0
 30
0.0
  0
POINT
  5
11B
330
10F
100
AcDbEntity
  8
Defpoints
100
AcDbPoint
 10
35.0
 20
59.0
 30
0.0
  0
POINT
  5
11C
330
10F
100
AcDbEntity
  8
Defpoints
100
AcDbPoint
 10
93.0
 20
59.0
 30
0.0
  0
ENDBLK
  5
111
330
10F
100
AcDbEntity
  8
0
100
AcDbBlockEnd
  0
BLOCK
  5
11F
330
11E
100
AcDbEntity
  8
0
100
AcDbBlockBegin
  2
*D2
 70
1
 10
0.0
 20
0.0
 30
0.0
  3
*D2
  1

  0
LINE
  5
121
330
11E
100
AcDbEntity
  8
0
100
AcDbLine
 10
94.0
 20
63.0
 30
0.0
 11
99.25
 21
63.0
 31
0.0
  0
LINE
  5
122
330
11E
100
AcDbEntity
  8
0
100
AcDbLine
 10
94.0
 20
81.0
 30
0.0
 11
99.25
 21
81.0
 31
0.0
  0
INSERT
  5
123
330
11E
100
AcDbEntity
  8
COTAS
100
AcDbBlockReference
  2
_CLOSEDFILLED
 10
98.5
 20
63.0
 30
0.0
 41
1.25
 42
1.25
 50
270.0
  0
INSERT
  5
125
330
11E
100
AcDbEntity
  8
COTAS
100
AcDbBlockReference
  2
_CLOSEDFILLED
 10
98.5
 20
81.0
 30
0.0
 41
1.25
 42
1.25
 50
90.0
  0
LINE
  5
127
330
11E
100
AcDbEntity
  8
0
100
AcDbLine
 10
98.5
 20
64.25
 30
0.0
 11
98.5
 21
79.75
 31
0.0
  0
MTEXT
  5
128
330
11E
100
AcDbEntity
  8
COTAS
100
AcDbMText
 10
97.175
 20
72.0
 30
0.0
 40
1.75
 71
5
  1
18
  7
OpenSansCondensed-Light
 50
90.0
  0
POINT
  5
129
330
11E
100
AcDbEntity
  8
Defpoints
100
AcDbPoint
 10
98.5
 20
63.0
 30
0.0
  0
POINT
  5
12A
330
11E
100
AcDbEntity
  8
Defpoints
100
AcDbPoint
 10
93.5
 20
63.0
 30
0.0
  0
POINT
  5
12B
330
11E
100
AcDbEntity
  8
Defpoints
100
AcDbPoint
 10
93.5
 20
81.0
 30
0.0
  0
ENDBLK
  5
120
330
11E
100
AcDbEntity
  8
0
100
AcDbBlockEnd
  0
BLOCK
  5
12E
330
12D
100
AcDbEntity
  8
0
100
AcDbBlockBegin
  2
*D3
 70
1
 10
0.0
 20
0.0
 30
0.0
  3
*D3
  1

  0
LINE
  5
130
330
12D
100
AcDbEntity
  8
0
100
AcDbLine
 10
34.0
 20
59.96
 30
0.0
 11
28.75
 21
59.96
 31
0.0
  0
LINE
  5
131
330
12D
100
AcDbEntity
  8
0
100
AcDbLine
 10
34.0
 20
84.03999999999999
 30
0.0
 11
28.75
 21
84.03999999999999
 31
0.0
  0
INSERT
  5
132
330
12D
100
AcDbEntity
  8
COTAS
100
AcDbBlockReference
  2
_CLOSEDFILLED
 10
29.5
 20
59.96
 30
0.0
 41
1.25
 42
1.25
 50
270.0
  0
INSERT
  5
134
330
12D
100
AcDbEntity
  8
COTAS
100
AcDbBlockReference
  2
_CLOSEDFILLED
 10
29.5
 20
84.03999999999999
 30
0.0
 41
1.25
 42
1.25
 50
90.0
  0
LINE
  5
136
330
12D
100
AcDbEntity
  8
0
100
AcDbLine
 10
29.5
 20
61.21
 30
0.0
 11
29.5
 21
82.78999999999999
 31
0.0
  0
MTEXT
  5
137
330
12D
100
AcDbEntity
  8
COTAS
100
AcDbMText
 10
28.175
 20
72.0
 30
0.0
 40
1.75
 71
5
  1
24.1
  7
OpenSansCondensed-Light
 50
90.0
  0
POINT
  5
138
330
12D
100
AcDbEntity
  8
Defpoints
100
AcDbPoint
 10
29.5
 20
59.96
 30
0.0
  0
POINT
  5
139
330
12D
100
AcDbEntity
  8
Defpoints
100
AcDbPoint
 10
34.5
 20
59.96
 30
0.0
  0
POINT
  5
13A
330
12D
100
AcDbEntity
  8
Defpoints
100
AcDbPoint
 10
34.5
 20
84.03999999999999
 30
0.0
  0
ENDBLK
  5
12F
330
12D
100
AcDbEntity
  8
0
100
AcDbBlockEnd
  0
BLOCK
  5
13D
330
13C
100
AcDbEntity
  8
0
100
AcDbBlockBegin
  2
*D4
 70
1
 10
0.0
 20
0.0
 30
0.0
  3
*D4
  1

  0
LINE
  5
13F
330
13C
100
AcDbEntity
  8
0
100
AcDbLine
 10
57.575
 20
83.5
 30
0.0
 11
57.575
 21
96.75
 31
0.0
  0
LINE
  5
140
330
13C
100
AcDbEntity
  8
0
100
AcDbLine
 10
70.425
 20
83.5
 30
0.0
 11
70.425
 21
96.75
 31
0.0
  0
INSERT
  5
141
330
13C
100
AcDbEntity
  8
COTAS
100
AcDbBlockReference
  2
_CLOSEDFILLED
 10
57.575
 20
96.0
 30
0.0
 41
1.25
 42
1.25
 50
180.0
  0
INSERT
  5
143
330
13C
100
AcDbEntity
  8
COTAS
100
AcDbBlockReference
  2
_CLOSEDFILLED
 10
70.425
 20
96.0
 30
0.0
 41
1.25
 42
1.25
  0
LINE
  5
145
330
13C
100
AcDbEntity
  8
0
100
AcDbLine
 10
58.825
 20
96.0
 30
0.0
 11
69.175
 21
96.0
 31
0.0
  0
MTEXT
  5
146
330
13C
100
AcDbEntity
  8
COTAS
100
AcDbMText
 10
64.0
 20
97.325
 30
0.0
 40
1.75
 71
5
  1
12.8
  7
OpenSansCondensed-Light
  0
POINT
  5
147
330
13C
100
AcDbEntity
  8
Defpoints
100
AcDbPoint
 10
57.575
 20
96.0
 30
0.0
  0
POINT
  5
148
330
13C
100
AcDbEntity
  8
Defpoints
100
AcDbPoint
 10
57.575
 20
83.0
 30
0.0
  0
POINT
  5
149
330
13C
100
AcDbEntity
  8
Defpoints
100
AcDbPoint
 10
70.425
 20
83.0
 30
0.0
  0
ENDBLK
  5
13E
330
13C
100
AcDbEntity
  8
0
100
AcDbBlockEnd
  0
ENDSEC
  0
SECTION
  2
ENTITIES
  0
LWPOLYLINE
  5
94
330
17
100
AcDbEntity
  8
VISIBLE
100
AcDbPolyline
 90
10
 70
1
 10
47.97999954223633
 20
66.0
 10
47.97999954223633
 20
64.20000004768372
 10
46.78000068664551
 20
63.0
 10
46.33928070396588
 20
63.0
 10
43.23304748535156
 20
63.0
 10
36.5
 20
63.0
 10
36.5
 20
66.0
 10
43.23304748535156
 20
66.0
 10
47.61878526813897
 20
66.0
 10
47.97999954223633
 20
66.0
  0
LINE
  5
95
330
17
100
AcDbEntity
  8
RAYADO
100
AcDbLine
 10
43.91816741430182
 20
63.0
 30
0.0
 11
46.91816741430182
 21
66.0
 31
0.0
  0
LINE
  5
96
330
17
100
AcDbEntity
  8
RAYADO
100
AcDbLine
 10
40.806897577081
 20
63.0
 30
0.0
 11
43.806897577081
 21
66.0
 31
0.0
  0
LINE
  5
97
330
17
100
AcDbEntity
  8
RAYADO
100
AcDbLine
 10
37.69562773986016
 20
63.0
 30
0.0
 11
40.69562773986016
 21
66.0
 31
0.0
  0
LINE
  5
98
330
17
100
AcDbEntity
  8
RAYADO
100
AcDbLine
 10
36.5
 20
64.91564209736063
 30
0.0
 11
37.58435790263937
 21
66.0
 31
0.0
  0
LWPOLYLINE
  5
99
330
17
100
AcDbEntity
  8
VISIBLE
100
AcDbPolyline
 90
15
 70
1
 10
80.09706334170305
 20
63.0
 10
79.3517906207637
 20
63.0
 10
78.71656656513578
 20
63.0
 10
78.16926672221106
 20
63.0
 10
70.42500019073486
 20
63.0
 10
70.42500019073486
 20
64.5
 10
70.42500019073486
 20
66.0
 10
78.16926672221106
 20
66.0
 10
78.71656656513578
 20
66.0
 10
79.3517906207637
 20
66.0
 10
80.09706334170305
 20
66.0
 10
80.52045440673828
 20
66.0
 10
80.52045440673828
 20
64.5
 10
80.52045440673828
 20
63.0
 10
80.09706334170305
 20
63.0
  0
LINE
  5
9A
330
17
100
AcDbEntity
  8
RAYADO
100
AcDbLine
 10
78.14213562373075
 20
63.0
 30
0.0
 11
80.52045440673828
 21
65.37831878300753
 31
0.0
  0
LINE
  5
9B
330
17
100
AcDbEntity
  8
RAYADO
100
AcDbLine
 10
75.03086578650993
 20
63.0
 30
0.0
 11
78.03086578650993
 21
66.0
 31
0.0
  0
LINE
  5
9C
330
17
100
AcDbEntity
  8
RAYADO
100
AcDbLine
 10
71.91959594928912
 20
63.0
 30
0.0
 11
74.91959594928912
 21
66.0
 31
0.0
  0
LINE
  5
9D
330
17
100
AcDbEntity
  8
RAYADO
100
AcDbLine
 10
70.42500019073486
 20
64.61667407866656
 30
0.0
 11
71.8083261120683
 21
66.0
 31
0.0
  0
LWPOLYLINE
  5
9E
330
17
100
AcDbEntity
  8
VISIBLE
100
AcDbPolyline
 90
36
 70
1
 10
54.291219841060965
 20
63.0
 10
54.13417903638768
 20
63.0
 10
53.96942020353086
 20
63.0
 10
53.796499742592395
 20
63.0
 10
53.65315072556942
 20
63.0
 10
53.61913805769627
 20
63.0
 10
53.53109058492526
 20
63.0
 10
53.37893236915866
 20
63.0
 10
53.14922426268864
 20
63.0
 10
52.82412240333848
 20
63.0
 10
52.38000011444092
 20
63.0
 10
51.18000030517578
 20
64.20000004768372
 10
51.18000030517578
 20
66.0
 10
51.50788804756954
 20
66.0
 10
51.77317346668498
 20
66.0
 10
51.9814844031299
 20
66.0
 10
52.138169195922686
 20
66.0
 10
52.24808407150741
 20
66.0
 10
52.31549293896828
 20
66.0
 10
52.34403120589093
 20
66.0
 10
52.55850524349398
 20
66.0
 10
52.7916368514745
 20
66.0
 10
53.01319605730039
 20
66.0
 10
53.22385609965443
 20
66.0
 10
53.42424384418633
 20
66.0
 10
53.61494355776821
 20
66.0
 10
53.796499742592395
 20
66.0
 10
53.96942020353086
 20
66.0
 10
54.13417903638768
 20
66.0
 10
54.291219841060965
 20
66.0
 10
54.440957285398156
 20
66.0
 10
57.57499980926514
 20
66.0
 10
57.57499980926514
 20
64.5
 10
57.57499980926514
 20
63.0
 10
54.440957285398156
 20
63.0
 10
54.291219841060965
 20
63.0
  0
LINE
  5
9F
330
17
100
AcDbEntity
  8
RAYADO
100
AcDbLine
 10
56.36324676318506
 20
63.0
 30
0.0
 11
57.57499980926514
 21
64.21175304608008
 31
0.0
  0
LINE
  5
A0
330
17
100
AcDbEntity
  8
RAYADO
100
AcDbLine
 10
53.25197692596424
 20
63.0
 30
0.0
 11
56.25197692596424
 21
66.0
 31
0.0
  0
LINE
  5
A1
330
17
100
AcDbEntity
  8
RAYADO
100
AcDbLine
 10
51.260353712819054
 20
64.11964662407566
 30
0.0
 11
53.1407070887434
 21
66.0
 31
0.0
  0
LWPOLYLINE
  5
A2
330
17
100
AcDbEntity
  8
VISIBLE
100
AcDbPolyline
 90
10
 70
1
 10
47.97999954223633
 20
69.0
 10
47.97999954223633
 20
66.0
 10
47.61878526813897
 20
66.0
 10
47.338615637814094
 20
66.0
 10
43.23304748535156
 20
66.0
 10
36.5
 20
66.0
 10
36.5
 20
69.0
 10
43.23304748535156
 20
69.0
 10
47.61878526813897
 20
69.0
 10
47.97999954223633
 20
69.0
  0
LINE
  5
A3
330
17
100
AcDbEntity
  8
RAYADO
100
AcDbLine
 10
47.97999954223633
 20
68.27197738372791
 30
0.0
 11
47.25197692596424
 21
69.0
 31
0.0
  0
LINE
  5
A4
330
17
100
AcDbEntity
  8
RAYADO
100
AcDbLine
 10
47.1407070887434
 20
66.0
 30
0.0
 11
44.1407070887434
 21
69.0
 31
0.0
  0
LINE
  5
A5
330
17
100
AcDbEntity
  8
RAYADO
100
AcDbLine
 10
44.02943725152261
 20
66.0
 30
0.0
 11
41.02943725152261
 21
69.0
 31
0.0
  0
LINE
  5
A6
330
17
100
AcDbEntity
  8
RAYADO
100
AcDbLine
 10
40.91816741430182
 20
66.0
 30
0.0
 11
37.91816741430182
 21
69.0
 31
0.0
  0
LINE
  5
A7
330
17
100
AcDbEntity
  8
RAYADO
100
AcDbLine
 10
37.806897577081
 20
66.0
 30
0.0
 11
36.5
 21
67.306897577081
 31
0.0
  0
LWPOLYLINE
  5
A8
330
17
100
AcDbEntity
  8
VISIBLE
100
AcDbPolyline
 90
15
 70
1
 10
80.52045440673828
 20
67.5
 10
80.52045440673828
 20
66.0
 10
80.09706334170305
 20
66.0
 10
79.3517906207637
 20
66.0
 10
78.71656656513578
 20
66.0
 10
78.16926672221106
 20
66.0
 10
70.42500019073486
 20
66.0
 10
70.42500019073486
 20
67.5
 10
70.42500019073486
 20
69.0
 10
78.16926672221106
 20
69.0
 10
78.71656656513578
 20
69.0
 10
79.3517906207637
 20
69.0
 10
80.09706334170305
 20
69.0
 10
80.52045440673828
 20
69.0
 10
80.52045440673828
 20
67.5
  0
LINE
  5
A9
330
17
100
AcDbEntity
  8
RAYADO
100
AcDbLine
 10
80.52045440673828
 20
66.84422089143409
 30
0.0
 11
78.36467529817237
 21
69.0
 31
0.0
  0
LINE
  5
AA
330
17
100
AcDbEntity
  8
RAYADO
100
AcDbLine
 10
78.25340546095157
 20
66.0
 30
0.0
 11
75.25340546095157
 21
69.0
 31
0.0
  0
LINE
  5
AB
330
17
100
AcDbEntity
  8
RAYADO
100
AcDbLine
 10
75.14213562373075
 20
66.0
 30
0.0
 11
72.14213562373075
 21
69.0
 31
0.0
  0
LINE
  5
AC
330
17
100
AcDbEntity
  8
RAYADO
100
AcDbLine
 10
72.03086578650993
 20
66.0
 30
0.0
 11
70.42500019073486
 21
67.60586559577507
 31
0.0
  0
LWPOLYLINE
  5
AD
330
17
100
AcDbEntity
  8
VISIBLE
100
AcDbPolyline
 90
42
 70
1
 10
57.57499980926514
 20
69.0
 10
57.57499980926514
 20
67.5
 10
57.57499980926514
 20
66.0
 10
54.440957285398156
 20
66.0
 10
54.291219841060965
 20
66.0
 10
54.13417903638768
 20
66.0
 10
53.96942020353086
 20
66.0
 10
53.796499742592395
 20
66.0
 10
53.61494355776821
 20
66.0
 10
53.42424384418633
 20
66.0
 10
53.22385609965443
 20
66.0
 10
53.01319605730039
 20
66.0
 10
52.7916368514745
 20
66.0
 10
52.55850524349398
 20
66.0
 10
52.34403120589093
 20
66.0
 10
52.31549293896828
 20
66.0
 10
52.24808407150741
 20
66.0
 10
52.138169195922686
 20
66.0
 10
51.9814844031299
 20
66.0
 10
51.77317346668498
 20
66.0
 10
51.50788804756954
 20
66.0
 10
51.18000030517578
 20
66.0
 10
51.18000030517578
 20
69.0
 10
51.50788804756954
 20
69.0
 10
51.77317346668498
 20
69.0
 10
51.9814844031299
 20
69.0
 10
52.138169195922686
 20
69.0
 10
52.24808407150741
 20
69.0
 10
52.31549293896828
 20
69.0
 10
52.34403120589093
 20
69.0
 10
52.55850524349398
 20
69.0
 10
52.7916368514745
 20
69.0
 10
53.01319605730039
 20
69.0
 10
53.22385609965443
 20
69.0
 10
53.42424384418633
 20
69.0
 10
53.61494355776821
 20
69.0
 10
53.796499742592395
 20
69.0
 10
53.96942020353086
 20
69.0
 10
54.13417903638768
 20
69.0
 10
54.291219841060965
 20
69.0
 10
54.440957285398156
 20
69.0
 10
57.57499980926514
 20
69.0
  0
LINE
  5
AE
330
17
100
AcDbEntity
  8
RAYADO
100
AcDbLine
 10
57.57499980926514
 20
68.01078662836156
 30
0.0
 11
56.585786437626695
 21
69.0
 31
0.0
  0
LINE
  5
AF
330
17
100
AcDbEntity
  8
RAYADO
100
AcDbLine
 10
56.47451660040588
 20
66.0
 30
0.0
 11
53.47451660040588
 21
69.0
 31
0.0
  0
LINE
  5
B0
330
17
100
AcDbEntity
  8
RAYADO
100
AcDbLine
 10
53.36324676318506
 20
66.0
 30
0.0
 11
51.18000030517578
 21
68.18324645800928
 31
0.0
  0
LWPOLYLINE
  5
B1
330
17
100
AcDbEntity
  8
VISIBLE
100
AcDbPolyline
 90
15
 70
1
 10
80.80746472530598
 20
72.0
 10
81.26195335388184
 20
72.0
 10
81.26195335388184
 20
70.5
 10
81.26195335388184
 20
69.0
 10
80.80746472530598
 20
69.0
 10
80.00763459029704
 20
69.0
 10
79.32608027011325
 20
69.0
 10
78.73902914566446
 20
69.0
 10
70.42500019073486
 20
69.0
 10
70.42500019073486
 20
70.5
 10
70.42500019073486
 20
72.0
 10
78.73902914566446
 20
72.0
 10
79.32608027011325
 20
72.0
 10
80.00763459029704
 20
72.0
 10
80.80746472530598
 20
72.0
  0
LINE
  5
B2
330
17
100
AcDbEntity
  8
RAYADO
100
AcDbLine
 10
81.03086578650993
 20
69.0
 30
0.0
 11
81.26195335388184
 21
69.2310875673719
 31
0.0
  0
LINE
  5
B3
330
17
100
AcDbEntity
  8
RAYADO
100
AcDbLine
 10
77.91959594928912
 20
69.0
 30
0.0
 11
80.91959594928912
 21
72.0
 31
0.0
  0
LINE
  5
B4
330
17
100
AcDbEntity
  8
RAYADO
100
AcDbLine
 10
74.8083261120683
 20
69.0
 30
0.0
 11
77.8083261120683
 21
72.0
 31
0.0
  0
LINE
  5
B5
330
17
100
AcDbEntity
  8
RAYADO
100
AcDbLine
 10
71.69705627484748
 20
69.0
 30
0.0
 11
74.69705627484748
 21
72.0
 31
0.0
  0
LINE
  5
B6
330
17
100
AcDbEntity
  8
RAYADO
100
AcDbLine
 10
70.42500019073486
 20
70.83921375310817
 30
0.0
 11
71.5857864376267
 21
72.0
 31
0.0
  0
LWPOLYLINE
  5
B7
330
17
100
AcDbEntity
  8
VISIBLE
100
AcDbPolyline
 90
42
 70
1
 10
54.36164390242485
 20
72.0
 10
57.57499980926514
 20
72.0
 10
57.57499980926514
 20
70.5
 10
57.57499980926514
 20
69.0
 10
54.36164390242485
 20
69.0
 10
54.21580360072398
 20
69.0
 10
54.06319380161416
 20
69.0
 10
53.90347279269795
 20
69.0
 10
53.73627952566771
 20
69.0
 10
53.561234656131816
 20
69.0
 10
53.377936840913
 20
69.0
 10
53.18596656792724
 20
69.0
 10
52.98488152524352
 20
69.0
 10
52.774219161745656
 20
69.0
 10
52.55349719941327
 20
69.0
 10
52.34403120589093
 20
69.0
 10
52.31549293896828
 20
69.0
 10
52.24808407150741
 20
69.0
 10
52.138169195922686
 20
69.0
 10
51.9814844031299
 20
69.0
 10
51.77317346668498
 20
69.0
 10
51.50788804756954
 20
69.0
 10
51.18000030517578
 20
69.0
 10
51.18000030517578
 20
72.0
 10
51.50788804756954
 20
72.0
 10
51.77317346668498
 20
72.0
 10
51.9814844031299
 20
72.0
 10
52.138169195922686
 20
72.0
 10
52.24808407150741
 20
72.0
 10
52.31549293896828
 20
72.0
 10
52.34403120589093
 20
72.0
 10
52.55349719941327
 20
72.0
 10
52.774219161745656
 20
72.0
 10
52.98488152524352
 20
72.0
 10
53.18596656792724
 20
72.0
 10
53.377936840913
 20
72.0
 10
53.561234656131816
 20
72.0
 10
53.73627952566771
 20
72.0
 10
53.90347279269795
 20
72.0
 10
54.06319380161416
 20
72.0
 10
54.21580360072398
 20
72.0
 10
54.36164390242485
 20
72.0
  0
LINE
  5
B8
330
17
100
AcDbEntity
  8
RAYADO
100
AcDbLine
 10
56.1407070887434
 20
69.0
 30
0.0
 11
57.57499980926514
 21
70.43429272052174
 31
0.0
  0
LINE
  5
B9
330
17
100
AcDbEntity
  8
RAYADO
100
AcDbLine
 10
53.02943725152261
 20
69.0
 30
0.0
 11
56.02943725152261
 21
72.0
 31
0.0
  0
LINE
  5
BA
330
17
100
AcDbEntity
  8
RAYADO
100
AcDbLine
 10
51.18000030517578
 20
70.26183289087396
 30
0.0
 11
52.91816741430182
 21
72.0
 31
0.0
  0
LWPOLYLINE
  5
BB
330
17
100
AcDbEntity
  8
VISIBLE
100
AcDbPolyline
 90
28
 70
1
 10
45.46562789243019
 20
69.0
 10
45.19480234379696
 20
69.0
 10
44.190923007930664
 20
69.0
 10
44.083102777663235
 20
69.0
 10
44.01470357826983
 20
69.0
 10
43.37832069396973
 20
69.0
 10
43.37832069396973
 20
70.5
 10
43.37832069396973
 20
72.0
 10
43.97121386096829
 20
72.0
 10
44.01470357826983
 20
72.0
 10
44.083102777663235
 20
72.0
 10
45.01603716985876
 20
72.0
 10
45.19480234379696
 20
72.0
 10
45.7891244308562
 20
72.0
 10
46.058076356136226
 20
72.0
 10
46.42686440513644
 20
72.0
 10
46.77491705337413
 20
72.0
 10
46.98389212132683
 20
72.0
 10
47.40383212638251
 20
72.0
 10
47.49433540653203
 20
72.0
 10
47.97999954223633
 20
72.0
 10
47.97999954223633
 20
69.0
 10
47.40383212638251
 20
69.0
 10
47.267880402649595
 20
69.0
 10
46.77491705337413
 20
69.0
 10
46.4515883476801
 20
69.0
 10
46.058076356136226
 20
69.0
 10
45.46562789243019
 20
69.0
  0
LINE
  5
BC
330
17
100
AcDbEntity
  8
RAYADO
100
AcDbLine
 10
46.806897577081
 20
69.0
 30
0.0
 11
47.97999954223633
 21
70.17310196515533
 31
0.0
  0
LINE
  5
BD
330
17
100
AcDbEntity
  8
RAYADO
100
AcDbLine
 10
43.69562773986016
 20
69.0
 30
0.0
 11
46.69562773986016
 21
72.0
 31
0.0
  0
LINE
  5
BE
330
17
100
AcDbEntity
  8
RAYADO
100
AcDbLine
 10
43.37832069396973
 20
71.79396279133036
 30
0.0
 11
43.58435790263937
 21
72.0
 31
0.0
  0
LWPOLYLINE
  5
BF
330
17
100
AcDbEntity
  8
VISIBLE
100
AcDbPolyline
 90
33
 70
1
 10
82.98260057630623
 20
75.0
 10
84.02628785934726
 20
75.0
 10
84.62167930603027
 20
75.0
 10
84.62167930603027
 20
73.5
 10
84.62167930603027
 20
72.0
 10
84.02628785934726
 20
72.0
 10
82.98260057630623
 20
72.0
 10
82.09717653064827
 20
72.0
 10
81.33838058797159
 20
72.0
 10
80.6826328613759
 20
72.0
 10
80.11203784493972
 20
72.0
 10
79.6128357023179
 20
72.0
 10
79.17434629124747
 20
72.0
 10
78.78827133683598
 20
72.0
 10
78.44822499366236
 20
72.0
 10
78.14949218317571
 20
72.0
 10
77.97290182957515
 20
72.0
 10
77.63771267184654
 20
72.0
 10
70.42500019073486
 20
72.0
 10
70.42500019073486
 20
73.5
 10
70.42500019073486
 20
75.0
 10
77.63771267184654
 20
75.0
 10
77.97290182957515
 20
75.0
 10
78.14949218317571
 20
75.0
 10
78.44822499366236
 20
75.0
 10
78.78827133683598
 20
75.0
 10
79.17434629124747
 20
75.0
 10
79.6128357023179
 20
75.0
 10
80.11203784493972
 20
75.0
 10
80.6826328613759
 20
75.0
 10
81.33838058797159
 20
75.0
 10
82.09717653064827
 20
75.0
 10
82.98260057630623
 20
75.0
  0
LINE
  5
C0
330
17
100
AcDbEntity
  8
RAYADO
100
AcDbLine
 10
84.62167930603027
 20
72.07680550380454
 30
0.0
 11
81.69848480983481
 21
75.0
 31
0.0
  0
LINE
  5
C1
330
17
100
AcDbEntity
  8
RAYADO
100
AcDbLine
 10
81.58721497261399
 20
72.0
 30
0.0
 11
78.58721497261399
 21
75.0
 31
0.0
  0
LINE
  5
C2
330
17
100
AcDbEntity
  8
RAYADO
100
AcDbLine
 10
78.47594513539318
 20
72.0
 30
0.0
 11
75.47594513539318
 21
75.0
 31
0.0
  0
LINE
  5
C3
330
17
100
AcDbEntity
  8
RAYADO
100
AcDbLine
 10
75.36467529817237
 20
72.0
 30
0.0
 11
72.36467529817237
 21
75.0
 31
0.0
  0
LINE
  5
C4
330
17
100
AcDbEntity
  8
RAYADO
100
AcDbLine
 10
72.25340546095157
 20
72.0
 30
0.0
 11
70.42500019073486
 21
73.8284052702167
 31
0.0
  0
LWPOLYLINE
  5
C5
330
17
100
AcDbEntity
  8
VISIBLE
100
AcDbPolyline
 90
10
 70
1
 10
51.18000030517578
 20
75.0
 10
51.50788804756954
 20
75.0
 10
51.77317346668498
 20
75.0
 10
57.57499980926514
 20
75.0
 10
57.57499980926514
 20
73.5
 10
57.57499980926514
 20
72.0
 10
51.77317346668498
 20
72.0
 10
51.50788804756954
 20
72.0
 10
51.18000030517578
 20
72.0
 10
51.18000030517578
 20
75.0
  0
LINE
  5
C6
330
17
100
AcDbEntity
  8
RAYADO
100
AcDbLine
 10
57.57499980926514
 20
74.23332630280316
 30
0.0
 11
56.8083261120683
 21
75.0
 31
0.0
  0
LINE
  5
C7
330
17
100
AcDbEntity
  8
RAYADO
100
AcDbLine
 10
56.69705627484748
 20
72.0
 30
0.0
 11
53.69705627484748
 21
75.0
 31
0.0
  0
LINE
  5
C8
330
17
100
AcDbEntity
  8
RAYADO
100
AcDbLine
 10
53.585786437626695
 20
72.0
 30
0.0
 11
51.18000030517578
 21
74.40578613245091
 31
0.0
  0
LWPOLYLINE
  5
C9
330
17
100
AcDbEntity
  8
VISIBLE
100
AcDbPolyline
 90
9
 70
1
 10
46.738046646118164
 20
75.0
 10
47.1032251666172
 20
75.0
 10
47.28729173418802
 20
75.0
 10
47.97999954223633
 20
75.0
 10
47.97999954223633
 20
72.0
 10
47.28729173418802
 20
72.0
 10
46.738046646118164
 20
72.0
 10
46.738046646118164
 20
73.5
 10
46.738046646118164
 20
75.0
  0
LINE
  5
CA
330
17
100
AcDbEntity
  8
RAYADO
100
AcDbLine
 10
47.97999954223633
 20
74.49451705816955
 30
0.0
 11
47.47451660040588
 21
75.0
 31
0.0
  0
LINE
  5
CB
330
17
100
AcDbEntity
  8
RAYADO
100
AcDbLine
 10
47.36324676318506
 20
72.0
 30
0.0
 11
46.738046646118164
 21
72.6252001170669
 31
0.0
  0
LWPOLYLINE
  5
CC
330
17
100
AcDbEntity
  8
VISIBLE
100
AcDbPolyline
 90
22
 70
1
 10
78.20031945774511
 20
78.0
 10
78.60745711794581
 20
78.0
 10
79.07196947785583
 20
78.0
 10
84.76695251464844
 20
78.0
 10
91.5
 20
78.0
 10
91.5
 20
75.0
 10
84.76695251464844
 20
75.0
 10
79.07196947785583
 20
75.0
 10
78.60745711794581
 20
75.0
 10
78.20031945774511
 20
75.0
 10
77.82278423682472
 20
75.0
 10
77.46576482713549
 20
75.0
 10
77.12794001781558
 20
75.0
 10
76.80808496514632
 20
75.0
 10
70.42500019073486
 20
75.0
 10
70.42500019073486
 20
76.5
 10
70.42500019073486
 20
78.0
 10
76.80808496514632
 20
78.0
 10
77.12794001781558
 20
78.0
 10
77.46576482713549
 20
78.0
 10
77.82278423682472
 20
78.0
 10
78.20031945774511
 20
78.0
  0
LINE
  5
CD
330
17
100
AcDbEntity
  8
RAYADO
100
AcDbLine
 10
90.14213562373075
 20
75.0
 30
0.0
 11
91.5
 21
76.35786437626925
 31
0.0
  0
LINE
  5
CE
330
17
100
AcDbEntity
  8
RAYADO
100
AcDbLine
 10
87.03086578650993
 20
75.0
 30
0.0
 11
90.03086578650993
 21
78.0
 31
0.0
  0
LINE
  5
CF
330
17
100
AcDbEntity
  8
RAYADO
100
AcDbLine
 10
83.91959594928912
 20
75.0
 30
0.0
 11
86.91959594928912
 21
78.0
 31
0.0
  0
LINE
  5
D0
330
17
100
AcDbEntity
  8
RAYADO
100
AcDbLine
 10
80.8083261120683
 20
75.0
 30
0.0
 11
83.8083261120683
 21
78.0
 31
0.0
  0
LINE
  5
D1
330
17
100
AcDbEntity
  8
RAYADO
100
AcDbLine
 10
77.69705627484748
 20
75.0
 30
0.0
 11
80.69705627484748
 21
78.0
 31
0.0
  0
LINE
  5
D2
330
17
100
AcDbEntity
  8
RAYADO
100
AcDbLine
 10
74.5857864376267
 20
75.0
 30
0.0
 11
77.5857864376267
 21
78.0
 31
0.0
  0
LINE
  5
D3
330
17
100
AcDbEntity
  8
RAYADO
100
AcDbLine
 10
71.47451660040588
 20
75.0
 30
0.0
 11
74.47451660040588
 21
78.0
 31
0.0
  0
LINE
  5
D4
330
17
100
AcDbEntity
  8
RAYADO
100
AcDbLine
 10
70.42500019073486
 20
77.0617534275498
 30
0.0
 11
71.36324676318506
 21
78.0
 31
0.0
  0
LWPOLYLINE
  5
D5
330
17
100
AcDbEntity
  8
VISIBLE
100
AcDbPolyline
 90
10
 70
1
 10
51.18000030517578
 20
78.0
 10
51.50788804756954
 20
78.0
 10
51.77317346668498
 20
78.0
 10
57.57499980926514
 20
78.0
 10
57.57499980926514
 20
76.5
 10
57.57499980926514
 20
75.0
 10
51.77317346668498
 20
75.0
 10
51.50788804756954
 20
75.0
 10
51.18000030517578
 20
75.0
 10
51.18000030517578
 20
78.0
  0
LINE
  5
D6
330
17
100
AcDbEntity
  8
RAYADO
100
AcDbLine
 10
55.91816741430182
 20
75.0
 30
0.0
 11
57.57499980926514
 21
76.65683239496332
 31
0.0
  0
LINE
  5
D7
330
17
100
AcDbEntity
  8
RAYADO
100
AcDbLine
 10
52.806897577081
 20
75.0
 30
0.0
 11
55.806897577081
 21
78.0
 31
0.0
  0
LINE
  5
D8
330
17
100
AcDbEntity
  8
RAYADO
100
AcDbLine
 10
51.18000030517578
 20
76.48437256531562
 30
0.0
 11
52.69562773986016
 21
78.0
 31
0.0
  0
LWPOLYLINE
  5
D9
330
17
100
AcDbEntity
  8
VISIBLE
100
AcDbPolyline
 90
7
 70
1
 10
47.97999954223633
 20
78.0
 10
47.97999954223633
 20
75.0
 10
47.70444291749563
 20
75.0
 10
47.47954559326172
 20
75.0
 10
47.47954559326172
 20
76.5
 10
47.47954559326172
 20
78.0
 10
47.97999954223633
 20
78.0
  0
LINE
  5
DA
330
17
100
AcDbEntity
  8
RAYADO
100
AcDbLine
 10
47.47954559326172
 20
75.89518769062235
 30
0.0
 11
47.97999954223633
 21
76.39564163959696
 31
0.0
  0
LWPOLYLINE
  5
DB
330
17
100
AcDbEntity
  8
VISIBLE
100
AcDbPolyline
 90
22
 70
1
 10
78.20031945774511
 20
81.0
 10
78.60745711794581
 20
81.0
 10
79.07196947785583
 20
81.0
 10
84.76695251464844
 20
81.0
 10
91.5
 20
81.0
 10
91.5
 20
78.0
 10
84.76695251464844
 20
78.0
 10
79.07196947785583
 20
78.0
 10
78.60745711794581
 20
78.0
 10
78.20031945774511
 20
78.0
 10
77.82278423682472
 20
78.0
 10
77.46576482713549
 20
78.0
 10
77.12794001781558
 20
78.0
 10
76.80808496514632
 20
78.0
 10
70.42500019073486
 20
78.0
 10
70.42500019073486
 20
79.5
 10
70.42500019073486
 20
81.0
 10
76.80808496514632
 20
81.0
 10
77.12794001781558
 20
81.0
 10
77.46576482713549
 20
81.0
 10
77.82278423682472
 20
81.0
 10
78.20031945774511
 20
81.0
  0
LINE
  5
DC
330
17
100
AcDbEntity
  8
RAYADO
100
AcDbLine
 10
91.5
 20
80.75483399593887
 30
0.0
 11
91.25483399593887
 21
81.0
 31
0.0
  0
LINE
  5
DD
330
17
100
AcDbEntity
  8
RAYADO
100
AcDbLine
 10
91.14356415871806
 20
78.0
 30
0.0
 11
88.14356415871806
 21
81.0
 31
0.0
  0
LINE
  5
DE
330
17
100
AcDbEntity
  8
RAYADO
100
AcDbLine
 10
88.03229432149726
 20
78.0
 30
0.0
 11
85.03229432149726
 21
81.0
 31
0.0
  0
LINE
  5
DF
330
17
100
AcDbEntity
  8
RAYADO
100
AcDbLine
 10
84.92102448427644
 20
78.0
 30
0.0
 11
81.92102448427644
 21
81.0
 31
0.0
  0
LINE
  5
E0
330
17
100
AcDbEntity
  8
RAYADO
100
AcDbLine
 10
81.80975464705563
 20
78.0
 30
0.0
 11
78.80975464705563
 21
81.0
 31
0.0
  0
LINE
  5
E1
330
17
100
AcDbEntity
  8
RAYADO
100
AcDbLine
 10
78.69848480983481
 20
78.0
 30
0.0
 11
75.69848480983481
 21
81.0
 31
0.0
  0
LINE
  5
E2
330
17
100
AcDbEntity
  8
RAYADO
100
AcDbLine
 10
75.58721497261399
 20
78.0
 30
0.0
 11
72.58721497261399
 21
81.0
 31
0.0
  0
LINE
  5
E3
330
17
100
AcDbEntity
  8
RAYADO
100
AcDbLine
 10
72.47594513539318
 20
78.0
 30
0.0
 11
70.42500019073486
 21
80.05094494465831
 31
0.0
  0
LWPOLYLINE
  5
E4
330
17
100
AcDbEntity
  8
VISIBLE
100
AcDbPolyline
 90
10
 70
1
 10
57.57499980926514
 20
81.0
 10
57.57499980926514
 20
79.5
 10
57.57499980926514
 20
78.0
 10
51.33190192190436
 20
78.0
 10
51.103930204453384
 20
78.0
 10
50.829999923706055
 20
78.0
 10
50.829999923706055
 20
81.0
 10
51.103930204453384
 20
81.0
 10
51.33190192190436
 20
81.0
 10
57.57499980926514
 20
81.0
  0
LINE
  5
E5
330
17
100
AcDbEntity
  8
RAYADO
100
AcDbLine
 10
57.57499980926514
 20
80.4558659772448
 30
0.0
 11
57.030865786509935
 21
81.0
 31
0.0
  0
LINE
  5
E6
330
17
100
AcDbEntity
  8
RAYADO
100
AcDbLine
 10
56.91959594928912
 20
78.0
 30
0.0
 11
53.91959594928912
 21
81.0
 31
0.0
  0
LINE
  5
E7
330
17
100
AcDbEntity
  8
RAYADO
100
AcDbLine
 10
53.8083261120683
 20
78.0
 30
0.0
 11
50.829999923706055
 21
80.97832618836225
 31
0.0
  0
LWPOLYLINE
  5
E8
330
17
100
AcDbEntity
  8
VISIBLE
100
AcDbPolyline
 90
9
 70
1
 10
47.777986527807734
 20
78.0
 10
47.47954559326172
 20
78.0
 10
47.47954559326172
 20
79.5
 10
47.47954559326172
 20
81.0
 10
47.90909210183906
 20
81.0
 10
48.329999923706055
 20
81.0
 10
48.329999923706055
 20
78.0
 10
47.90909210183906
 20
78.0
 10
47.777986527807734
 20
78.0
  0
LINE
  5
E9
330
17
100
AcDbEntity
  8
RAYADO
100
AcDbLine
 10
48.329999923706055
 20
80.36705635114143
 30
0.0
 11
47.69705627484748
 21
81.0
 31
0.0
  0
LINE
  5
EA
330
17
100
AcDbEntity
  8
RAYADO
100
AcDbLine
 10
47.585786437626695
 20
78.0
 30
0.0
 11
47.47954559326172
 21
78.10624084436498
 31
0.0
  0
LWPOLYLINE
  5
EB
330
17
100
AcDbEntity
  8
VISIBLE
100
AcDbPolyline
 90
129
 70
1
 10
81.10879941940308
 20
67.46564948558807
 10
81.18080230712891
 20
67.75310051441193
 10
81.28063341140748
 20
68.03210991621017
 10
81.38046451568604
 20
68.31111931800842
 10
81.5071625328064
 20
68.5789999961853
 10
81.63386054992677
 20
68.84688067436218
 10
81.78620549201966
 20
69.10105288028717
 10
81.93855043411256
 20
69.35522508621216
 10
82.1150750732422
 20
69.59324097633362
 10
82.29159971237183
 20
69.83125686645508
 10
82.49060412406922
 20
70.05082416534424
 10
82.68960853576661
 20
70.2703914642334
 10
82.90917583465577
 20
70.46939587593079
 10
83.12874313354493
 20
70.66840028762817
 10
83.36675902366639
 20
70.84492492675781
 10
83.60477491378785
 20
71.02144956588745
 10
83.85894711971284
 20
71.17379450798035
 10
84.11311932563783
 20
71.32613945007324
 10
84.3810000038147
 20
71.4528374671936
 10
84.64888068199159
 20
71.57953548431396
 10
84.92789008378983
 20
71.67936658859253
 10
85.20689948558808
 20
71.7791976928711
 10
85.49435051441193
 20
71.85120058059692
 10
85.78180154323579
 20
71.92320346832275
 10
86.07492598056794
 20
71.96668434143066
 10
86.3680504179001
 20
72.01016521453857
 10
86.66402520895005
 20
72.02470541000366
 10
86.96000000000001
 20
72.03924560546875
 10
87.25597479104997
 20
72.02470541000366
 10
87.55194958209992
 20
72.01016521453857
 10
87.84507401943208
 20
71.96668434143066
 10
88.13819845676423
 20
71.92320346832275
 10
88.42564948558808
 20
71.85120058059692
 10
88.71310051441193
 20
71.7791976928711
 10
88.99210991621018
 20
71.67936658859253
 10
89.27111931800843
 20
71.57953548431396
 10
89.53899999618531
 20
71.4528374671936
 10
89.80688067436219
 20
71.32613945007324
 10
90.06105288028718
 20
71.17379450798035
 10
90.31522508621217
 20
71.02144956588745
 10
90.55324097633363
 20
70.84492492675781
 10
90.79125686645509
 20
70.66840028762817
 10
91.01082416534425
 20
70.46939587593079
 10
91.2303914642334
 20
70.2703914642334
 10
91.4293958759308
 20
70.05082416534424
 10
91.62840028762818
 20
69.83125686645508
 10
91.80492492675782
 20
69.59324097633362
 10
91.98144956588746
 20
69.35522508621216
 10
92.13379450798035
 20
69.10105288028717
 10
92.28613945007325
 20
68.84688067436218
 10
92.41283746719361
 20
68.5789999961853
 10
92.53953548431397
 20
68.31111931800842
 10
92.63936658859254
 20
68.03210991621017
 10
92.7391976928711
 20
67.75310051441193
 10
92.81120058059693
 20
67.46564948558807
 10
92.88320346832276
 20
67.17819845676422
 10
92.92668434143067
 20
66.88507401943207
 10
92.97016521453858
 20
66.59194958209991
 10
92.98470541000367
 20
66.29597479104996
 10
92.99924560546876
 20
66.0
 10
92.98470541000367
 20
65.70402520895004
 10
92.97016521453858
 20
65.40805041790009
 10
92.92668434143067
 20
65.11492598056793
 10
92.88320346832276
 20
64.82180154323578
 10
92.81120058059693
 20
64.53435051441193
 10
92.7391976928711
 20
64.24689948558807
 10
92.63936658859254
 20
63.967890083789825
 10
92.53953548431397
 20
63.68888068199158
 10
92.41283746719361
 20
63.4210000038147
 10
92.28613945007325
 20
63.15311932563782
 10
92.13379450798035
 20
62.89894711971283
 10
91.98144956588746
 20
62.64477491378784
 10
91.80492492675782
 20
62.40675902366638
 10
91.62840028762818
 20
62.16874313354492
 10
91.4293958759308
 20
61.94917583465576
 10
91.2303914642334
 20
61.7296085357666
 10
91.01082416534425
 20
61.530604124069214
 10
90.79125686645509
 20
61.331599712371826
 10
90.55324097633363
 20
61.15507507324219
 10
90.31522508621217
 20
60.97855043411255
 10
90.06105288028718
 20
60.82620549201965
 10
89.80688067436219
 20
60.67386054992676
 10
89.53899999618531
 20
60.5471625328064
 10
89.27111931800843
 20
60.420464515686035
 10
88.99210991621018
 20
60.32063341140747
 10
88.71310051441193
 20
60.220802307128906
 10
88.42564948558808
 20
60.148799419403076
 10
88.13819845676423
 20
60.076796531677246
 10
87.84507401943208
 20
60.033315658569336
 10
87.55194958209992
 20
59.989834785461426
 10
87.25597479104997
 20
59.97529458999634
 10
86.96000000000001
 20
59.96075439453125
 10
86.66402520895005
 20
59.97529458999634
 10
86.3680504179001
 20
59.989834785461426
 10
86.07492598056794
 20
60.033315658569336
 10
85.78180154323579
 20
60.076796531677246
 10
85.49435051441193
 20
60.148799419403076
 10
85.20689948558808
 20
60.220802307128906
 10
84.92789008378983
 20
60.32063341140747
 10
84.64888068199159
 20
60.420464515686035
 10
84.3810000038147
 20
60.5471625328064
 10
84.11311932563783
 20
60.67386054992676
 10
83.85894711971284
 20
60.82620549201965
 10
83.60477491378785
 20
60.97855043411255
 10
83.36675902366639
 20
61.15507507324219
 10
83.12874313354493
 20
61.331599712371826
 10
82.90917583465577
 20
61.530604124069214
 10
82.68960853576661
 20
61.7296085357666
 10
82.49060412406922
 20
61.94917583465576
 10
82.29159971237183
 20
62.16874313354492
 10
82.1150750732422
 20
62.40675902366638
 10
81.93855043411256
 20
62.64477491378784
 10
81.78620549201966
 20
62.89894711971283
 10
81.63386054992677
 20
63.15311932563782
 10
81.5071625328064
 20
63.4210000038147
 10
81.38046451568604
 20
63.68888068199158
 10
81.28063341140748
 20
63.967890083789825
 10
81.18080230712891
 20
64.24689948558807
 10
81.10879941940308
 20
64.53435051441193
 10
81.03679653167725
 20
64.82180154323578
 10
80.99331565856934
 20
65.11492598056793
 10
80.94983478546143
 20
65.40805041790009
 10
80.93529458999635
 20
65.70402520895004
 10
80.92075439453126
 20
66.0
 10
80.93529458999635
 20
66.29597479104996
 10
80.94983478546143
 20
66.59194958209991
 10
80.99331565856934
 20
66.88507401943207
 10
81.03679653167725
 20
67.17819845676422
 10
81.10879941940308
 20
67.46564948558807
  0
LWPOLYLINE
  5
EC
330
17
100
AcDbEntity
  8
VISIBLE
100
AcDbPolyline
 90
97
 70
1
 10
88.39192392587663
 20
65.29385325312614
 10
88.43820723056794
 20
65.38770651817322
 10
88.4718442773819
 20
65.48679801821709
 10
88.50548132419587
 20
65.58588951826096
 10
88.52589657068253
 20
65.68852380663157
 10
88.5463118171692
 20
65.79115809500217
 10
88.55315592050553
 20
65.89557904750109
 10
88.56000002384187
 20
66.0
 10
88.55315592050553
 20
66.10442095249891
 10
88.5463118171692
 20
66.20884190499783
 10
88.52589657068253
 20
66.31147619336843
 10
88.50548132419587
 20
66.41411048173904
 10
88.4718442773819
 20
66.51320198178291
 10
88.43820723056794
 20
66.61229348182678
 10
88.39192392587663
 20
66.70614674687386
 10
88.34564062118531
 20
66.80000001192093
 10
88.28750296592713
 20
66.88700914382935
 10
88.22936531066895
 20
66.97401827573776
 10
88.16036810636521
 20
67.05269458889961
 10
88.09137090206147
 20
67.13137090206146
 10
88.01269458889962
 20
67.2003681063652
 10
87.93401827573777
 20
67.26936531066895
 10
87.84700914382935
 20
67.32750296592712
 10
87.76000001192094
 20
67.3856406211853
 10
87.66614674687386
 20
67.43192392587662
 10
87.57229348182679
 20
67.47820723056793
 10
87.47320198178292
 20
67.5118442773819
 10
87.37411048173905
 20
67.54548132419586
 10
87.27147619336844
 20
67.56589657068253
 10
87.16884190499783
 20
67.58631181716919
 10
87.06442095249892
 20
67.59315592050552
 10
86.96000000000001
 20
67.60000002384186
 10
86.8555790475011
 20
67.59315592050552
 10
86.75115809500218
 20
67.58631181716919
 10
86.64852380663157
 20
67.56589657068253
 10
86.54588951826096
 20
67.54548132419586
 10
86.4467980182171
 20
67.5118442773819
 10
86.34770651817323
 20
67.47820723056793
 10
86.25385325312615
 20
67.43192392587662
 10
86.15999998807908
 20
67.3856406211853
 10
86.07299085617066
 20
67.32750296592712
 10
85.98598172426225
 20
67.26936531066895
 10
85.9073054111004
 20
67.2003681063652
 10
85.82862909793855
 20
67.13137090206146
 10
85.7596318936348
 20
67.05269458889961
 10
85.69063468933106
 20
66.97401827573776
 10
85.63249703407288
 20
66.88700914382935
 10
85.5743593788147
 20
66.80000001192093
 10
85.52807607412339
 20
66.70614674687386
 10
85.48179276943208
 20
66.61229348182678
 10
85.44815572261811
 20
66.51320198178291
 10
85.41451867580415
 20
66.41411048173904
 10
85.39410342931748
 20
66.31147619336843
 10
85.37368818283082
 20
66.20884190499783
 10
85.36684407949448
 20
66.10442095249891
 10
85.35999997615815
 20
66.0
 10
85.36684407949448
 20
65.89557904750109
 10
85.37368818283082
 20
65.79115809500217
 10
85.39410342931748
 20
65.68852380663157
 10
85.41451867580415
 20
65.58588951826096
 10
85.44815572261811
 20
65.48679801821709
 10
85.48179276943208
 20
65.38770651817322
 10
85.52807607412339
 20
65.29385325312614
 10
85.5743593788147
 20
65.19999998807907
 10
85.63249703407288
 20
65.11299085617065
 10
85.69063468933106
 20
65.02598172426224
 10
85.7596318936348
 20
64.94730541110039
 10
85.82862909793855
 20
64.86862909793854
 10
85.9073054111004
 20
64.7996318936348
 10
85.98598172426225
 20
64.73063468933105
 10
86.07299085617066
 20
64.67249703407288
 10
86.15999998807908
 20
64.6143593788147
 10
86.25385325312615
 20
64.56807607412338
 10
86.34770651817323
 20
64.52179276943207
 10
86.4467980182171
 20
64.4881557226181
 10
86.54588951826096
 20
64.45451867580414
 10
86.64852380663157
 20
64.43410342931747
 10
86.75115809500218
 20
64.41368818283081
 10
86.8555790475011
 20
64.40684407949448
 10
86.96000000000001
 20
64.39999997615814
 10
87.06442095249892
 20
64.40684407949448
 10
87.16884190499783
 20
64.41368818283081
 10
87.27147619336844
 20
64.43410342931747
 10
87.37411048173905
 20
64.45451867580414
 10
87.47320198178292
 20
64.4881557226181
 10
87.57229348182679
 20
64.52179276943207
 10
87.66614674687386
 20
64.56807607412338
 10
87.76000001192094
 20
64.6143593788147
 10
87.84700914382935
 20
64.67249703407288
 10
87.93401827573777
 20
64.73063468933105
 10
88.01269458889962
 20
64.7996318936348
 10
88.09137090206147
 20
64.86862909793854
 10
88.16036810636521
 20
64.94730541110039
 10
88.22936531066895
 20
65.02598172426224
 10
88.28750296592713
 20
65.11299085617065
 10
88.34564062118531
 20
65.19999998807907
 10
88.39192392587663
 20
65.29385325312614
  0
LINE
  5
ED
330
17
100
AcDbEntity
  8
RAYADO
100
AcDbLine
 10
89.83141686844904
 20
60.68856697722371
 30
0.0
 11
92.27143302277629
 21
63.12858313155096
 31
0.0
  0
LINE
  5
EE
330
17
100
AcDbEntity
  8
RAYADO
100
AcDbLine
 10
87.58142150132562
 20
59.994206528710684
 30
0.0
 11
92.96579347128932
 21
65.37857849867439
 31
0.0
  0
LINE
  5
EF
330
17
100
AcDbEntity
  8
RAYADO
100
AcDbLine
 10
86.06619136892974
 20
60.03461131492519
 30
0.0
 11
92.92538868507481
 21
66.89380863107027
 31
0.0
  0
LINE
  5
F0
330
17
100
AcDbEntity
  8
RAYADO
100
AcDbLine
 10
84.83118143517224
 20
60.3552362997781
 30
0.0
 11
92.6047637002219
 21
68.12881856482775
 31
0.0
  0
LINE
  5
F1
330
17
100
AcDbEntity
  8
RAYADO
100
AcDbLine
 10
83.78865011043428
 20
60.86833989365052
 30
0.0
 11
87.37519808395932
 21
64.45488786717557
 31
0.0
  0
LINE
  5
F2
330
17
100
AcDbEntity
  8
RAYADO
100
AcDbLine
 10
88.50511213282444
 20
65.58480191604069
 30
0.0
 11
92.09166010634948
 21
69.17134988956573
 31
0.0
  0
LINE
  5
F3
330
17
100
AcDbEntity
  8
RAYADO
100
AcDbLine
 10
82.90188628865768
 20
61.53721099048434
 30
0.0
 11
86.05151922229061
 21
64.68684392411727
 31
0.0
  0
LINE
  5
F4
330
17
100
AcDbEntity
  8
RAYADO
100
AcDbLine
 10
88.27315607588274
 20
66.9084807777094
 30
0.0
 11
91.42278900951567
 21
70.05811371134233
 31
0.0
  0
LINE
  5
F5
330
17
100
AcDbEntity
  8
RAYADO
100
AcDbLine
 10
82.15796672013296
 20
62.34892634057002
 30
0.0
 11
85.41126868602316
 21
65.60222830646022
 31
0.0
  0
LINE
  5
F6
330
17
100
AcDbEntity
  8
RAYADO
100
AcDbLine
 10
87.35777169353977
 20
67.54873131397683
 30
0.0
 11
90.61107365942998
 21
70.80203327986703
 31
0.0
  0
LINE
  5
F7
330
17
100
AcDbEntity
  8
RAYADO
100
AcDbLine
 10
81.56086372881464
 20
63.307458267862096
 30
0.0
 11
89.6525417321379
 21
71.39913627118536
 31
0.0
  0
LINE
  5
F8
330
17
100
AcDbEntity
  8
RAYADO
100
AcDbLine
 10
81.1335022077148
 20
64.43573166537266
 30
0.0
 11
88.52426833462734
 21
71.8264977922852
 31
0.0
  0
LINE
  5
F9
330
17
100
AcDbEntity
  8
RAYADO
100
AcDbLine
 10
80.93112080673248
 20
65.78898518300073
 30
0.0
 11
87.17101481699926
 21
72.02887919326751
 31
0.0
  0
LINE
  5
FA
330
17
100
AcDbEntity
  8
RAYADO
100
AcDbLine
 10
81.12773162291431
 20
67.54123091779294
 30
0.0
 11
85.41876908220705
 21
71.8322683770857
 31
0.0
  0
LWPOLYLINE
  5
FB
330
17
100
AcDbEntity
  8
VISIBLE
100
AcDbPolyline
 90
65
 70
1
 10
88.27651185861038
 20
66.70369024903852
 10
88.34581929876693
 20
66.57402514854763
 10
88.38849860968588
 20
66.43333031578591
 10
88.43117792060485
 20
66.2926354830242
 10
88.44558896030242
 20
66.14631774151209
 10
88.46000000000001
 20
66.0
 10
88.44558896030242
 20
65.85368225848791
 10
88.43117792060485
 20
65.7073645169758
 10
88.38849860968588
 20
65.56666968421409
 10
88.34581929876693
 20
65.42597485145237
 10
88.27651185861038
 20
65.29630975096148
 10
88.20720441845381
 20
65.1666446504706
 10
88.11393229511683
 20
65.05299223934539
 10
88.02066017177982
 20
64.93933982822018
 10
87.90700776065461
 20
64.84606770488318
 10
87.7933553495294
 20
64.75279558154618
 10
87.66369024903852
 20
64.68348814138963
 10
87.53402514854764
 20
64.61418070123307
 10
87.39333031578592
 20
64.57150139031411
 10
87.25263548302419
 20
64.52882207939516
 10
87.1063177415121
 20
64.51441103969758
 10
86.96000000000001
 20
64.5
 10
86.8136822584879
 20
64.51441103969758
 10
86.66736451697581
 20
64.52882207939516
 10
86.52666968421408
 20
64.57150139031411
 10
86.38597485145236
 20
64.61418070123307
 10
86.25630975096148
 20
64.68348814138963
 10
86.1266446504706
 20
64.75279558154618
 10
86.01299223934538
 20
64.84606770488318
 10
85.89933982822018
 20
64.93933982822018
 10
85.80606770488318
 20
65.05299223934539
 10
85.71279558154617
 20
65.1666446504706
 10
85.64348814138962
 20
65.29630975096148
 10
85.57418070123308
 20
65.42597485145237
 10
85.5315013903141
 20
65.56666968421409
 10
85.48882207939516
 20
65.7073645169758
 10
85.47441103969757
 20
65.85368225848791
 10
85.46000000000001
 20
66.0
 10
85.47441103969757
 20
66.14631774151209
 10
85.48882207939516
 20
66.2926354830242
 10
85.5315013903141
 20
66.43333031578591
 10
85.57418070123308
 20
66.57402514854763
 10
85.64348814138962
 20
66.70369024903852
 10
85.71279558154617
 20
66.8333553495294
 10
85.80606770488318
 20
66.94700776065461
 10
85.89933982822018
 20
67.06066017177982
 10
86.01299223934538
 20
67.15393229511682
 10
86.1266446504706
 20
67.24720441845382
 10
86.25630975096149
 20
67.31651185861037
 10
86.38597485145237
 20
67.38581929876693
 10
86.52666968421408
 20
67.42849860968589
 10
86.66736451697581
 20
67.47117792060484
 10
86.8136822584879
 20
67.48558896030242
 10
86.96000000000001
 20
67.5
 10
87.1063177415121
 20
67.48558896030242
 10
87.25263548302419
 20
67.47117792060484
 10
87.39333031578592
 20
67.42849860968589
 10
87.53402514854764
 20
67.38581929876693
 10
87.66369024903852
 20
67.31651185861037
 10
87.7933553495294
 20
67.24720441845382
 10
87.90700776065461
 20
67.15393229511682
 10
88.02066017177982
 20
67.06066017177982
 10
88.11393229511683
 20
66.94700776065461
 10
88.20720441845381
 20
66.8333553495294
 10
88.27651185861038
 20
66.70369024903852
  0
LWPOLYLINE
  5
FC
330
17
100
AcDbEntity
  8
VISIBLE
100
AcDbPolyline
 90
129
 70
1
 10
46.89120058059692
 20
76.53435051441193
 10
46.81919769287109
 20
76.24689948558807
 10
46.71936658859253
 20
75.96789008378983
 10
46.619535484313964
 20
75.68888068199158
 10
46.4928374671936
 20
75.4210000038147
 10
46.36613945007324
 20
75.15311932563782
 10
46.213794507980346
 20
74.89894711971283
 10
46.06144956588745
 20
74.64477491378784
 10
45.884924926757805
 20
74.40675902366638
 10
45.70840028762817
 20
74.16874313354492
 10
45.50939587593078
 20
73.94917583465576
 10
45.3103914642334
 20
73.7296085357666
 10
45.09082416534423
 20
73.53060412406921
 10
44.87125686645508
 20
73.33159971237183
 10
44.63324097633361
 20
73.15507507324219
 10
44.39522508621216
 20
72.97855043411255
 10
44.14105288028716
 20
72.82620549201965
 10
43.88688067436218
 20
72.67386054992676
 10
43.618999996185295
 20
72.5471625328064
 10
43.35111931800842
 20
72.42046451568604
 10
43.07210991621017
 20
72.32063341140747
 10
42.793100514411925
 20
72.2208023071289
 10
42.505649485588066
 20
72.14879941940308
 10
42.21819845676422
 20
72.07679653167725
 10
41.92507401943206
 20
72.03331565856934
 10
41.631949582099914
 20
71.98983478546143
 10
41.33597479104995
 20
71.97529458999634
 10
41.04
 20
71.96075439453125
 10
40.744025208950035
 20
71.97529458999634
 10
40.448050417900085
 20
71.98983478546143
 10
40.154925980567924
 20
72.03331565856934
 10
39.86180154323578
 20
72.07679653167725
 10
39.57435051441192
 20
72.14879941940308
 10
39.28689948558807
 20
72.2208023071289
 10
39.00789008378982
 20
72.32063341140747
 10
38.728880681991576
 20
72.42046451568604
 10
38.46100000381469
 20
72.5471625328064
 10
38.19311932563782
 20
72.67386054992676
 10
37.93894711971282
 20
72.82620549201965
 10
37.68477491378784
 20
72.97855043411255
 10
37.446759023666374
 20
73.15507507324219
 10
37.20874313354492
 20
73.33159971237183
 10
36.989175834655754
 20
73.53060412406921
 10
36.7696085357666
 20
73.7296085357666
 10
36.570604124069206
 20
73.94917583465576
 10
36.371599712371825
 20
74.16874313354492
 10
36.19507507324218
 20
74.40675902366638
 10
36.01855043411255
 20
74.64477491378784
 10
35.866205492019645
 20
74.89894711971283
 10
35.71386054992676
 20
75.15311932563782
 10
35.58716253280639
 20
75.4210000038147
 10
35.460464515686034
 20
75.68888068199158
 10
35.36063341140747
 20
75.96789008378983
 10
35.260802307128905
 20
76.24689948558807
 10
35.188799419403075
 20
76.53435051441193
 10
35.116796531677245
 20
76.82180154323578
 10
35.073315658569335
 20
77.11492598056793
 10
35.029834785461425
 20
77.40805041790009
 10
35.01529458999634
 20
77.70402520895004
 10
35.00075439453125
 20
78.0
 10
35.01529458999634
 20
78.29597479104996
 10
35.029834785461425
 20
78.59194958209991
 10
35.073315658569335
 20
78.88507401943207
 10
35.116796531677245
 20
79.17819845676422
 10
35.188799419403075
 20
79.46564948558807
 10
35.260802307128905
 20
79.75310051441193
 10
35.36063341140747
 20
80.03210991621017
 10
35.460464515686034
 20
80.31111931800842
 10
35.5871625328064
 20
80.5789999961853
 10
35.71386054992676
 20
80.84688067436218
 10
35.86620549201966
 20
81.10105288028717
 10
36.01855043411255
 20
81.35522508621216
 10
36.195075073242194
 20
81.59324097633362
 10
36.371599712371825
 20
81.83125686645508
 10
36.57060412406922
 20
82.05082416534424
 10
36.7696085357666
 20
82.2703914642334
 10
36.98917583465577
 20
82.46939587593079
 10
37.20874313354492
 20
82.66840028762817
 10
37.44675902366639
 20
82.84492492675781
 10
37.68477491378784
 20
83.02144956588745
 10
37.938947119712836
 20
83.17379450798035
 10
38.19311932563782
 20
83.32613945007324
 10
38.4610000038147
 20
83.4528374671936
 10
38.728880681991576
 20
83.57953548431396
 10
39.00789008378983
 20
83.67936658859253
 10
39.28689948558807
 20
83.7791976928711
 10
39.57435051441193
 20
83.85120058059692
 10
39.86180154323578
 20
83.92320346832275
 10
40.15492598056794
 20
83.96668434143066
 10
40.448050417900085
 20
84.01016521453857
 10
40.74402520895005
 20
84.02470541000366
 10
41.04
 20
84.03924560546875
 10
41.33597479104996
 20
84.02470541000366
 10
41.631949582099914
 20
84.01016521453857
 10
41.925074019432074
 20
83.96668434143066
 10
42.21819845676422
 20
83.92320346832275
 10
42.50564948558808
 20
83.85120058059692
 10
42.793100514411925
 20
83.7791976928711
 10
43.07210991621018
 20
83.67936658859253
 10
43.35111931800842
 20
83.57953548431396
 10
43.61899999618531
 20
83.4528374671936
 10
43.88688067436218
 20
83.32613945007324
 10
44.14105288028718
 20
83.17379450798035
 10
44.39522508621216
 20
83.02144956588745
 10
44.633240976333624
 20
82.84492492675781
 10
44.87125686645508
 20
82.66840028762817
 10
45.090824165344245
 20
82.46939587593079
 10
45.3103914642334
 20
82.2703914642334
 10
45.50939587593079
 20
82.05082416534424
 10
45.70840028762817
 20
81.83125686645508
 10
45.88492492675781
 20
81.59324097633362
 10
46.06144956588745
 20
81.35522508621216
 10
46.213794507980346
 20
81.10105288028717
 10
46.36613945007324
 20
80.84688067436218
 10
46.4928374671936
 20
80.5789999961853
 10
46.619535484313964
 20
80.31111931800842
 10
46.71936658859253
 20
80.03210991621017
 10
46.81919769287109
 20
79.75310051441193
 10
46.89120058059692
 20
79.46564948558807
 10
46.96320346832275
 20
79.17819845676422
 10
47.00668434143066
 20
78.88507401943207
 10
47.05016521453857
 20
78.59194958209991
 10
47.06470541000366
 20
78.29597479104996
 10
47.07924560546875
 20
78.0
 10
47.06470541000366
 20
77.70402520895004
 10
47.05016521453857
 20
77.40805041790009
 10
47.00668434143066
 20
77.11492598056793
 10
46.96320346832275
 20
76.82180154323578
 10
46.89120058059692
 20
76.53435051441193
  0
LWPOLYLINE
  5
FD
330
17
100
AcDbEntity
  8
VISIBLE
100
AcDbPolyline
 90
97
 70
1
 10
41.351476193368434
 20
79.56589657068253
 10
41.248841904997825
 20
79.58631181716919
 10
41.14442095249891
 20
79.59315592050552
 10
41.04
 20
79.60000002384186
 10
40.935579047501086
 20
79.59315592050552
 10
40.83115809500217
 20
79.58631181716919
 10
40.728523806631564
 20
79.56589657068253
 10
40.625889518260955
 20
79.54548132419586
 10
40.526798018217086
 20
79.5118442773819
 10
40.42770651817322
 20
79.47820723056793
 10
40.333853253126144
 20
79.43192392587662
 10
40.23999998807907
 20
79.3856406211853
 10
40.15299085617065
 20
79.32750296592712
 10
40.06598172426224
 20
79.26936531066895
 10
39.98730541110039
 20
79.2003681063652
 10
39.90862909793854
 20
79.13137090206146
 10
39.839631893634795
 20
79.05269458889961
 10
39.770634689331054
 20
78.97401827573776
 10
39.712497034072875
 20
78.88700914382935
 10
39.654359378814696
 20
78.80000001192093
 10
39.60807607412338
 20
78.70614674687386
 10
39.56179276943207
 20
78.61229348182678
 10
39.5281557226181
 20
78.51320198178291
 10
39.49451867580414
 20
78.41411048173904
 10
39.47410342931747
 20
78.31147619336843
 10
39.45368818283081
 20
78.20884190499783
 10
39.446844079494475
 20
78.10442095249891
 10
39.43999997615814
 20
78.0
 10
39.446844079494475
 20
77.89557904750109
 10
39.45368818283081
 20
77.79115809500217
 10
39.47410342931747
 20
77.68852380663157
 10
39.49451867580414
 20
77.58588951826096
 10
39.5281557226181
 20
77.48679801821709
 10
39.56179276943207
 20
77.38770651817322
 10
39.60807607412338
 20
77.29385325312614
 10
39.654359378814696
 20
77.19999998807907
 10
39.712497034072875
 20
77.11299085617065
 10
39.770634689331054
 20
77.02598172426224
 10
39.839631893634795
 20
76.94730541110039
 10
39.90862909793854
 20
76.86862909793854
 10
39.98730541110039
 20
76.7996318936348
 10
40.06598172426224
 20
76.73063468933105
 10
40.15299085617065
 20
76.67249703407288
 10
40.23999998807907
 20
76.6143593788147
 10
40.333853253126144
 20
76.56807607412338
 10
40.42770651817322
 20
76.52179276943207
 10
40.526798018217086
 20
76.4881557226181
 10
40.625889518260955
 20
76.45451867580414
 10
40.728523806631564
 20
76.43410342931747
 10
40.83115809500217
 20
76.41368818283081
 10
40.935579047501086
 20
76.40684407949448
 10
41.04
 20
76.39999997615814
 10
41.14442095249891
 20
76.40684407949448
 10
41.248841904997825
 20
76.41368818283081
 10
41.351476193368434
 20
76.43410342931747
 10
41.45411048173904
 20
76.45451867580414
 10
41.55320198178291
 20
76.4881557226181
 10
41.65229348182678
 20
76.52179276943207
 10
41.746146746873855
 20
76.56807607412338
 10
41.84000001192093
 20
76.6143593788147
 10
41.927009143829345
 20
76.67249703407288
 10
42.01401827573776
 20
76.73063468933105
 10
42.09269458889961
 20
76.7996318936348
 10
42.17137090206146
 20
76.86862909793854
 10
42.2403681063652
 20
76.94730541110039
 10
42.309365310668944
 20
77.02598172426224
 10
42.36750296592712
 20
77.11299085617065
 10
42.4256406211853
 20
77.19999998807907
 10
42.47192392587662
 20
77.29385325312614
 10
42.51820723056793
 20
77.38770651817322
 10
42.551844277381896
 20
77.48679801821709
 10
42.58548132419586
 20
77.58588951826096
 10
42.605896570682525
 20
77.68852380663157
 10
42.62631181716919
 20
77.79115809500217
 10
42.63315592050552
 20
77.89557904750109
 10
42.64000002384186
 20
78.0
 10
42.63315592050552
 20
78.10442095249891
 10
42.62631181716919
 20
78.20884190499783
 10
42.605896570682525
 20
78.31147619336843
 10
42.58548132419586
 20
78.41411048173904
 10
42.551844277381896
 20
78.51320198178291
 10
42.51820723056793
 20
78.61229348182678
 10
42.47192392587662
 20
78.70614674687386
 10
42.4256406211853
 20
78.80000001192093
 10
42.36750296592712
 20
78.88700914382935
 10
42.309365310668944
 20
78.97401827573776
 10
42.2403681063652
 20
79.05269458889961
 10
42.17137090206146
 20
79.13137090206146
 10
42.09269458889961
 20
79.2003681063652
 10
42.01401827573776
 20
79.26936531066895
 10
41.927009143829345
 20
79.32750296592712
 10
41.84000001192093
 20
79.3856406211853
 10
41.746146746873855
 20
79.43192392587662
 10
41.65229348182678
 20
79.47820723056793
 10
41.55320198178291
 20
79.5118442773819
 10
41.45411048173904
 20
79.54548132419586
 10
41.351476193368434
 20
79.56589657068253
  0
LINE
  5
FE
330
17
100
AcDbEntity
  8
RAYADO
100
AcDbLine
 10
42.08589401984004
 20
72.05717103580979
 30
0.0
 11
46.98282896419022
 21
76.95410598015997
 31
0.0
  0
LINE
  5
FF
330
17
100
AcDbEntity
  8
RAYADO
100
AcDbLine
 10
40.46222643334275
 20
71.98913836792289
 30
0.0
 11
47.050861632077115
 21
78.57777356665726
 31
0.0
  0
LINE
  5
100
330
17
100
AcDbEntity
  8
RAYADO
100
AcDbLine
 10
39.1774257580267
 20
72.25997261121724
 30
0.0
 11
46.780027388782756
 21
79.86257424197329
 31
0.0
  0
LINE
  5
101
330
17
100
AcDbEntity
  8
RAYADO
100
AcDbLine
 10
38.09468064609311
 20
72.73286241789404
 30
0.0
 11
46.30713758210596
 21
80.94531935390688
 31
0.0
  0
LINE
  5
102
330
17
100
AcDbEntity
  8
RAYADO
100
AcDbLine
 10
37.171520073229566
 20
73.3653367636409
 30
0.0
 11
40.36091433568643
 21
76.55473102609776
 31
0.0
  0
LINE
  5
103
330
17
100
AcDbEntity
  8
RAYADO
100
AcDbLine
 10
42.48526897390224
 20
78.67908566431356
 30
0.0
 11
45.67466323635911
 21
81.86847992677043
 31
0.0
  0
LINE
  5
104
330
17
100
AcDbEntity
  8
RAYADO
100
AcDbLine
 10
36.394274156869436
 20
74.14372576589116
 30
0.0
 11
39.58704613846051
 21
77.33649774748224
 31
0.0
  0
LINE
  5
105
330
17
100
AcDbEntity
  8
RAYADO
100
AcDbLine
 10
41.70350225251775
 20
79.45295386153948
 30
0.0
 11
44.89627423410883
 21
82.64572584313056
 31
0.0
  0
LINE
  5
106
330
17
100
AcDbEntity
  8
RAYADO
100
AcDbLine
 10
35.764142471522746
 20
75.06922899915487
 30
0.0
 11
43.97077100084513
 21
83.27585752847726
 31
0.0
  0
LINE
  5
107
330
17
100
AcDbEntity
  8
RAYADO
100
AcDbLine
 10
35.29384100704655
 20
76.15456245328907
 30
0.0
 11
42.88543754671093
 21
83.74615899295344
 31
0.0
  0
LINE
  5
108
330
17
100
AcDbEntity
  8
RAYADO
100
AcDbLine
 10
35.028048804982
 20
77.44440516983491
 30
0.0
 11
41.59559483016508
 21
84.011951195018
 31
0.0
  0
LINE
  5
109
330
17
100
AcDbEntity
  8
RAYADO
100
AcDbLine
 10
35.101223717793516
 20
79.07321500125683
 30
0.0
 11
39.966784998743165
 21
83.93877628220648
 31
0.0
  0
LWPOLYLINE
  5
10A
330
17
100
AcDbEntity
  8
VISIBLE
100
AcDbPolyline
 90
65
 70
1
 10
42.193932295116824
 20
78.94700776065461
 10
42.28720441845382
 20
78.8333553495294
 10
42.356511858610375
 20
78.70369024903852
 10
42.425819298766925
 20
78.57402514854763
 10
42.46849860968589
 20
78.43333031578591
 10
42.511177920604844
 20
78.29263548302418
 10
42.52558896030242
 20
78.14631774151209
 10
42.54
 20
78.0
 10
42.52558896030242
 20
77.85368225848791
 10
42.511177920604844
 20
77.7073645169758
 10
42.46849860968588
 20
77.56666968421409
 10
42.425819298766925
 20
77.42597485145237
 10
42.356511858610375
 20
77.29630975096148
 10
42.28720441845382
 20
77.1666446504706
 10
42.193932295116824
 20
77.05299223934539
 10
42.10066017177982
 20
76.93933982822017
 10
41.987007760654606
 20
76.84606770488318
 10
41.873355349529405
 20
76.75279558154618
 10
41.74369024903852
 20
76.68348814138963
 10
41.61402514854764
 20
76.61418070123307
 10
41.473330315785915
 20
76.57150139031411
 10
41.33263548302419
 20
76.52882207939516
 10
41.1863177415121
 20
76.51441103969758
 10
41.04
 20
76.5
 10
40.8936822584879
 20
76.51441103969758
 10
40.74736451697581
 20
76.52882207939516
 10
40.60666968421408
 20
76.57150139031411
 10
40.465974851452366
 20
76.61418070123307
 10
40.336309750961476
 20
76.68348814138963
 10
40.206644650470594
 20
76.75279558154618
 10
40.092992239345385
 20
76.84606770488318
 10
39.979339828220176
 20
76.93933982822017
 10
39.886067704883175
 20
77.05299223934539
 10
39.79279558154618
 20
77.1666446504706
 10
39.72348814138962
 20
77.29630975096148
 10
39.654180701233074
 20
77.42597485145237
 10
39.61150139031411
 20
77.56666968421409
 10
39.568822079395154
 20
77.7073645169758
 10
39.55441103969758
 20
77.85368225848791
 10
39.54
 20
78.0
 10
39.55441103969758
 20
78.14631774151209
 10
39.568822079395154
 20
78.29263548302418
 10
39.61150139031412
 20
78.43333031578591
 10
39.654180701233074
 20
78.57402514854763
 10
39.72348814138962
 20
78.70369024903852
 10
39.79279558154618
 20
78.8333553495294
 10
39.886067704883175
 20
78.94700776065461
 10
39.979339828220176
 20
79.06066017177982
 10
40.09299223934539
 20
79.15393229511682
 10
40.206644650470594
 20
79.24720441845382
 10
40.33630975096148
 20
79.31651185861037
 10
40.465974851452366
 20
79.38581929876693
 10
40.60666968421408
 20
79.42849860968589
 10
40.74736451697581
 20
79.47117792060484
 10
40.8936822584879
 20
79.48558896030242
 10
41.04
 20
79.5
 10
41.1863177415121
 20
79.48558896030242
 10
41.33263548302419
 20
79.47117792060484
 10
41.473330315785915
 20
79.42849860968589
 10
41.61402514854763
 20
79.38581929876693
 10
41.74369024903852
 20
79.31651185861037
 10
41.873355349529405
 20
79.24720441845382
 10
41.98700776065461
 20
79.15393229511682
 10
42.10066017177982
 20
79.06066017177982
 10
42.193932295116824
 20
78.94700776065461
  0
LINE
  5
10B
330
17
100
AcDbEntity
  8
EJES
100
AcDbLine
 10
64.0
 20
55.0
 30
0.0
 11
64.0
 21
89.0
 31
0.0
  0
LINE
  5
10C
330
17
100
AcDbEntity
  8
EJES
100
AcDbLine
 10
31.0
 20
66.0
 30
0.0
 11
97.0
 21
66.0
 31
0.0
  0
LINE
  5
10D
330
17
100
AcDbEntity
  8
EJES
100
AcDbLine
 10
31.0
 20
78.0
 30
0.0
 11
97.0
 21
78.0
 31
0.0
  0
DIMENSION
  5
10E
330
17
100
AcDbEntity
  8
COTAS
100
AcDbDimension
280
0
  2
*D1
  3
F3D_500
 10
35.0
 20
55.0
 30
0.0
 11
64.0
 21
56.325
 31
0.0
 70
32
 71
5
  1
<>
100
AcDbAlignedDimension
 13
35.0
 23
59.0
 33
0.0
 14
93.0
 24
59.0
 34
0.0
 50
0.0
100
AcDbRotatedDimension
  0
DIMENSION
  5
11D
330
17
100
AcDbEntity
  8
COTAS
100
AcDbDimension
280
0
  2
*D2
  3
F3D_500
 10
98.5
 20
63.0
 30
0.0
 11
97.175
 21
72.0
 31
0.0
 70
32
 71
5
  1
<>
100
AcDbAlignedDimension
 13
93.5
 23
63.0
 33
0.0
 14
93.5
 24
81.0
 34
0.0
 50
90.0
100
AcDbRotatedDimension
  0
DIMENSION
  5
12C
330
17
100
AcDbEntity
  8
COTAS
100
AcDbDimension
280
0
  2
*D3
  3
F3D_500
 10
29.5
 20
59.96
 30
0.0
 11
28.175
 21
72.0
 31
0.0
 70
32
 71
5
  1
<>
100
AcDbAlignedDimension
 13
34.5
 23
59.96
 33
0.0
 14
34.5
 24
84.03999999999999
 34
0.0
 50
90.0
100
AcDbRotatedDimension
  0
DIMENSION
  5
13B
330
17
100
AcDbEntity
  8
COTAS
100
AcDbDimension
280
0
  2
*D4
  3
F3D_500
 10
57.575
 20
96.0
 30
0.0
 11
64.0
 21
97.325
 31
0.0
 70
32
 71
5
  1
<>
100
AcDbAlignedDimension
 13
57.575
 23
83.0
 33
0.0
 14
70.425
 24
83.0
 34
0.0
 50
0.0
100
AcDbRotatedDimension
  0
TEXT
  5
14A
330
17
100
AcDbEntity
  8
TEXTO
100
AcDbText
 10
80.0
 20
85.0
 30
0.0
 40
1.3
  1
%%c12.08 RODILLO — BARRENO %%c3.2
 11
80.0
 21
85.0
 31
0.0
100
AcDbText
  0
TEXT
  5
14B
330
17
100
AcDbEntity
  8
TEXTO
100
AcDbText
 10
60.0
 20
89.0
 30
0.0
 40
1.3
  1
HEX 12.85 ENTRECARAS
 11
60.0
 21
89.0
 31
0.0
100
AcDbText
  0
TEXT
  5
14C
330
17
100
AcDbEntity
  8
TEXTO
100
AcDbText
 10
25.0
 20
83.0
 30
0.0
 40
1.3
  1
5x M3 DIN 965 EN %%c28.84
 11
25.0
 21
83.0
 31
0.0
100
AcDbText
  0
TEXT
  5
14D
330
17
100
AcDbEntity
  8
TEXTO
100
AcDbText
 10
64.0
 20
52.0
 30
0.0
 40
2.0
  1
CORTE A-A  (escala 2:1)
 72
1
 11
64.0
 21
52.0
 31
0.0
100
AcDbText
 73
2
  0
TEXT
  5
14E
330
17
100
AcDbEntity
  8
TEXTO
100
AcDbText
 10
64.0
 20
49.0
 30
0.0
 40
1.1
  1
ejes y tornillería sin rayar (ISO 128-50); separación de hileras y planos de eje: ver piezas.json
 72
1
 11
64.0
 21
49.0
 31
0.0
100
AcDbText
 73
2
  0
CIRCLE
  5
14F
330
17
100
AcDbEntity
  8
FINA
100
AcDbCircle
 10
120.5
 20
80.0
 30
0.0
 40
11.0
  0
LWPOLYLINE
  5
150
330
17
100
AcDbEntity
  8
FINA
100
AcDbPolyline
 90
6
 70
1
 10
122.93706896551724
 20
81.40704242327506
 10
120.5
 20
82.81408484655013
 10
118.06293103448276
 20
81.40704242327506
 10
118.06293103448276
 20
78.59295757672494
 10
120.5
 20
77.18591515344987
 10
122.93706896551724
 20
78.59295757672494
  0
LINE
  5
151
330
17
100
AcDbEntity
  8
EJES
100
AcDbLine
 10
106.5
 20
80.0
 30
0.0
 11
134.5
 21
80.0
 31
0.0
  0
TEXT
  5
152
330
17
100
AcDbEntity
  8
TEXTO
100
AcDbText
 10
105.0
 20
81.5
 30
0.0
 40
1.75
  1
A
 72
1
 11
105.0
 21
81.5
 31
0.0
100
AcDbText
 73
2
  0
TEXT
  5
153
330
17
100
AcDbEntity
  8
TEXTO
100
AcDbText
 10
136.0
 20
81.5
 30
0.0
 40
1.75
  1
A
 72
1
 11
136.0
 21
81.5
 31
0.0
100
AcDbText
 73
2
  0
TEXT
  5
154
330
17
100
AcDbEntity
  8
TEXTO
100
AcDbText
 10
120.5
 20
66.0
 30
0.0
 40
1.1
  1
VISTA DE FRENTE
 72
1
 11
120.5
 21
66.0
 31
0.0
100
AcDbText
 73
2
  0
LWPOLYLINE
  5
155
330
17
100
AcDbEntity
  8
FINA
100
AcDbPolyline
 90
4
 70
1
 10
0.0
 20
0.0
 10
148.5
 20
0.0
 10
148.5
 20
105.0
 10
0.0
 20
105.0
  0
LWPOLYLINE
  5
156
330
17
100
AcDbEntity
  8
NORMA
100
AcDbPolyline
 90
4
 70
1
 10
10.0
 20
5.0
 10
143.5
 20
5.0
 10
143.5
 20
100.0
 10
10.0
 20
100.0
  0
LINE
  5
157
330
17
100
AcDbEntity
  8
NORMA
100
AcDbLine
 10
0.0
 20
52.5
 30
0.0
 11
12.5
 21
52.5
 31
0.0
  0
LINE
  5
158
330
17
100
AcDbEntity
  8
NORMA
100
AcDbLine
 10
148.5
 20
52.5
 30
0.0
 11
141.0
 21
52.5
 31
0.0
  0
LINE
  5
159
330
17
100
AcDbEntity
  8
NORMA
100
AcDbLine
 10
74.25
 20
0.0
 30
0.0
 11
74.25
 21
7.5
 31
0.0
  0
LINE
  5
15A
330
17
100
AcDbEntity
  8
NORMA
100
AcDbLine
 10
74.25
 20
105.0
 30
0.0
 11
74.25
 21
97.5
 31
0.0
  0
LINE
  5
15B
330
17
100
AcDbEntity
  8
FINA
100
AcDbLine
 10
24.75
 20
0.0
 30
0.0
 11
24.75
 21
5.0
 31
0.0
  0
LINE
  5
15C
330
17
100
AcDbEntity
  8
FINA
100
AcDbLine
 10
24.75
 20
100.0
 30
0.0
 11
24.75
 21
105.0
 31
0.0
  0
LINE
  5
15D
330
17
100
AcDbEntity
  8
FINA
100
AcDbLine
 10
49.5
 20
0.0
 30
0.0
 11
49.5
 21
5.0
 31
0.0
  0
LINE
  5
15E
330
17
100
AcDbEntity
  8
FINA
100
AcDbLine
 10
49.5
 20
100.0
 30
0.0
 11
49.5
 21
105.0
 31
0.0
  0
LINE
  5
15F
330
17
100
AcDbEntity
  8
FINA
100
AcDbLine
 10
74.25
 20
0.0
 30
0.0
 11
74.25
 21
5.0
 31
0.0
  0
LINE
  5
160
330
17
100
AcDbEntity
  8
FINA
100
AcDbLine
 10
74.25
 20
100.0
 30
0.0
 11
74.25
 21
105.0
 31
0.0
  0
LINE
  5
161
330
17
100
AcDbEntity
  8
FINA
100
AcDbLine
 10
99.0
 20
0.0
 30
0.0
 11
99.0
 21
5.0
 31
0.0
  0
LINE
  5
162
330
17
100
AcDbEntity
  8
FINA
100
AcDbLine
 10
99.0
 20
100.0
 30
0.0
 11
99.0
 21
105.0
 31
0.0
  0
LINE
  5
163
330
17
100
AcDbEntity
  8
FINA
100
AcDbLine
 10
123.75
 20
0.0
 30
0.0
 11
123.75
 21
5.0
 31
0.0
  0
LINE
  5
164
330
17
100
AcDbEntity
  8
FINA
100
AcDbLine
 10
123.75
 20
100.0
 30
0.0
 11
123.75
 21
105.0
 31
0.0
  0
LINE
  5
165
330
17
100
AcDbEntity
  8
FINA
100
AcDbLine
 10
0.0
 20
26.25
 30
0.0
 11
5.0
 21
26.25
 31
0.0
  0
LINE
  5
166
330
17
100
AcDbEntity
  8
FINA
100
AcDbLine
 10
143.5
 20
26.25
 30
0.0
 11
148.5
 21
26.25
 31
0.0
  0
LINE
  5
167
330
17
100
AcDbEntity
  8
FINA
100
AcDbLine
 10
0.0
 20
52.5
 30
0.0
 11
5.0
 21
52.5
 31
0.0
  0
LINE
  5
168
330
17
100
AcDbEntity
  8
FINA
100
AcDbLine
 10
143.5
 20
52.5
 30
0.0
 11
148.5
 21
52.5
 31
0.0
  0
LINE
  5
169
330
17
100
AcDbEntity
  8
FINA
100
AcDbLine
 10
0.0
 20
78.75
 30
0.0
 11
5.0
 21
78.75
 31
0.0
  0
LINE
  5
16A
330
17
100
AcDbEntity
  8
FINA
100
AcDbLine
 10
143.5
 20
78.75
 30
0.0
 11
148.5
 21
78.75
 31
0.0
  0
TEXT
  5
16B
330
17
100
AcDbEntity
  8
TEXTO
100
AcDbText
 10
12.375
 20
2.5
 30
0.0
 40
1.25
  1
1
 72
1
 11
12.375
 21
2.5
 31
0.0
100
AcDbText
 73
2
  0
TEXT
  5
16C
330
17
100
AcDbEntity
  8
TEXTO
100
AcDbText
 10
12.375
 20
102.5
 30
0.0
 40
1.25
  1
1
 72
1
 11
12.375
 21
102.5
 31
0.0
100
AcDbText
 73
2
  0
TEXT
  5
16D
330
17
100
AcDbEntity
  8
TEXTO
100
AcDbText
 10
37.125
 20
2.5
 30
0.0
 40
1.25
  1
2
 72
1
 11
37.125
 21
2.5
 31
0.0
100
AcDbText
 73
2
  0
TEXT
  5
16E
330
17
100
AcDbEntity
  8
TEXTO
100
AcDbText
 10
37.125
 20
102.5
 30
0.0
 40
1.25
  1
2
 72
1
 11
37.125
 21
102.5
 31
0.0
100
AcDbText
 73
2
  0
TEXT
  5
16F
330
17
100
AcDbEntity
  8
TEXTO
100
AcDbText
 10
61.875
 20
2.5
 30
0.0
 40
1.25
  1
3
 72
1
 11
61.875
 21
2.5
 31
0.0
100
AcDbText
 73
2
  0
TEXT
  5
170
330
17
100
AcDbEntity
  8
TEXTO
100
AcDbText
 10
61.875
 20
102.5
 30
0.0
 40
1.25
  1
3
 72
1
 11
61.875
 21
102.5
 31
0.0
100
AcDbText
 73
2
  0
TEXT
  5
171
330
17
100
AcDbEntity
  8
TEXTO
100
AcDbText
 10
86.625
 20
2.5
 30
0.0
 40
1.25
  1
4
 72
1
 11
86.625
 21
2.5
 31
0.0
100
AcDbText
 73
2
  0
TEXT
  5
172
330
17
100
AcDbEntity
  8
TEXTO
100
AcDbText
 10
86.625
 20
102.5
 30
0.0
 40
1.25
  1
4
 72
1
 11
86.625
 21
102.5
 31
0.0
100
AcDbText
 73
2
  0
TEXT
  5
173
330
17
100
AcDbEntity
  8
TEXTO
100
AcDbText
 10
111.375
 20
2.5
 30
0.0
 40
1.25
  1
5
 72
1
 11
111.375
 21
2.5
 31
0.0
100
AcDbText
 73
2
  0
TEXT
  5
174
330
17
100
AcDbEntity
  8
TEXTO
100
AcDbText
 10
111.375
 20
102.5
 30
0.0
 40
1.25
  1
5
 72
1
 11
111.375
 21
102.5
 31
0.0
100
AcDbText
 73
2
  0
TEXT
  5
175
330
17
100
AcDbEntity
  8
TEXTO
100
AcDbText
 10
136.125
 20
2.5
 30
0.0
 40
1.25
  1
6
 72
1
 11
136.125
 21
2.5
 31
0.0
100
AcDbText
 73
2
  0
TEXT
  5
176
330
17
100
AcDbEntity
  8
TEXTO
100
AcDbText
 10
136.125
 20
102.5
 30
0.0
 40
1.25
  1
6
 72
1
 11
136.125
 21
102.5
 31
0.0
100
AcDbText
 73
2
  0
TEXT
  5
177
330
17
100
AcDbEntity
  8
TEXTO
100
AcDbText
 10
2.5
 20
91.875
 30
0.0
 40
1.25
  1
A
 72
1
 11
2.5
 21
91.875
 31
0.0
100
AcDbText
 73
2
  0
TEXT
  5
178
330
17
100
AcDbEntity
  8
TEXTO
100
AcDbText
 10
146.0
 20
91.875
 30
0.0
 40
1.25
  1
A
 72
1
 11
146.0
 21
91.875
 31
0.0
100
AcDbText
 73
2
  0
TEXT
  5
179
330
17
100
AcDbEntity
  8
TEXTO
100
AcDbText
 10
2.5
 20
65.625
 30
0.0
 40
1.25
  1
B
 72
1
 11
2.5
 21
65.625
 31
0.0
100
AcDbText
 73
2
  0
TEXT
  5
17A
330
17
100
AcDbEntity
  8
TEXTO
100
AcDbText
 10
146.0
 20
65.625
 30
0.0
 40
1.25
  1
B
 72
1
 11
146.0
 21
65.625
 31
0.0
100
AcDbText
 73
2
  0
TEXT
  5
17B
330
17
100
AcDbEntity
  8
TEXTO
100
AcDbText
 10
2.5
 20
39.375
 30
0.0
 40
1.25
  1
C
 72
1
 11
2.5
 21
39.375
 31
0.0
100
AcDbText
 73
2
  0
TEXT
  5
17C
330
17
100
AcDbEntity
  8
TEXTO
100
AcDbText
 10
146.0
 20
39.375
 30
0.0
 40
1.25
  1
C
 72
1
 11
146.0
 21
39.375
 31
0.0
100
AcDbText
 73
2
  0
TEXT
  5
17D
330
17
100
AcDbEntity
  8
TEXTO
100
AcDbText
 10
2.5
 20
13.125
 30
0.0
 40
1.25
  1
D
 72
1
 11
2.5
 21
13.125
 31
0.0
100
AcDbText
 73
2
  0
TEXT
  5
17E
330
17
100
AcDbEntity
  8
TEXTO
100
AcDbText
 10
146.0
 20
13.125
 30
0.0
 40
1.25
  1
D
 72
1
 11
146.0
 21
13.125
 31
0.0
100
AcDbText
 73
2
  0
LWPOLYLINE
  5
17F
330
17
100
AcDbEntity
  8
NORMA
100
AcDbPolyline
 90
4
 70
1
 10
53.5
 20
5.0
 10
143.5
 20
5.0
 10
143.5
 20
26.0
 10
53.5
 20
26.0
  0
LINE
  5
180
330
17
100
AcDbEntity
  8
NORMA
100
AcDbLine
 10
73.5
 20
5.0
 30
0.0
 11
73.5
 21
26.0
 31
0.0
  0
LINE
  5
181
330
17
100
AcDbEntity
  8
NORMA
100
AcDbLine
 10
120.5
 20
5.0
 30
0.0
 11
120.5
 21
26.0
 31
0.0
  0
LINE
  5
182
330
17
100
AcDbEntity
  8
FINA
100
AcDbLine
 10
53.5
 20
14.5
 30
0.0
 11
73.5
 21
14.5
 31
0.0
  0
TEXT
  5
183
330
17
100
AcDbEntity
  8
TEXTO
100
AcDbText
 10
63.5
 20
21.9
 30
0.0
 40
3.0
  1
foto3d
 72
1
 11
63.5
 21
21.9
 31
0.0
100
AcDbText
 73
2
  0
LINE
  5
184
330
17
100
AcDbEntity
  8
FINA
100
AcDbLine
 10
56.75
 20
19.3
 30
0.0
 11
70.25
 21
19.3
 31
0.0
  0
TEXT
  5
185
330
17
100
AcDbEntity
  8
TEXTO
100
AcDbText
 10
63.5
 20
17.9
 30
0.0
 40
0.65
  1
FOTOGRAMETRÍA · 3D AUDITABLE
 72
1
 11
63.5
 21
17.9
 31
0.0
100
AcDbText
 73
2
  0
TEXT
  5
186
330
17
100
AcDbEntity
  8
TEXTO
100
AcDbText
 10
63.5
 20
16.3
 30
0.0
 40
0.65
  1
ISO 5457 · 7200 · 129 · 5456-2
 72
1
 11
63.5
 21
16.3
 31
0.0
100
AcDbText
 73
2
  0
TEXT
  5
187
330
17
100
AcDbEntity
  8
TEXTO
100
AcDbText
 10
63.5
 20
13.3
 30
0.0
 40
0.7
  1
PROYECCIÓN — PRIMER DIEDRO
 72
1
 11
63.5
 21
13.3
 31
0.0
100
AcDbText
 73
2
  0
CIRCLE
  5
188
330
17
100
AcDbEntity
  8
TEXTO
100
AcDbCircle
 10
61.199999999999996
 20
8.75
 30
0.0
 40
1.4949999999999999
  0
CIRCLE
  5
189
330
17
100
AcDbEntity
  8
TEXTO
100
AcDbCircle
 10
61.199999999999996
 20
8.75
 30
0.0
 40
0.8049999999999999
  0
LWPOLYLINE
  5
18A
330
17
100
AcDbEntity
  8
TEXTO
100
AcDbPolyline
 90
4
 70
1
 10
63.72999999999999
 20
7.255
 10
67.29499999999999
 20
7.945
 10
67.29499999999999
 20
9.555
 10
63.72999999999999
 20
10.245
  0
LINE
  5
18B
330
17
100
AcDbEntity
  8
FINA
100
AcDbLine
 10
59.015
 20
8.75
 30
0.0
 11
67.98499999999999
 21
8.75
 31
0.0
  0
LINE
  5
18C
330
17
100
AcDbEntity
  8
FINA
100
AcDbLine
 10
73.5
 20
19.5
 30
0.0
 11
120.5
 21
19.5
 31
0.0
  0
LINE
  5
18D
330
17
100
AcDbEntity
  8
FINA
100
AcDbLine
 10
73.5
 20
14.5
 30
0.0
 11
120.5
 21
14.5
 31
0.0
  0
LINE
  5
18E
330
17
100
AcDbEntity
  8
FINA
100
AcDbLine
 10
73.5
 20
9.5
 30
0.0
 11
120.5
 21
9.5
 31
0.0
  0
LINE
  5
18F
330
17
100
AcDbEntity
  8
FINA
100
AcDbLine
 10
97.0
 20
14.5
 30
0.0
 11
97.0
 21
19.5
 31
0.0
  0
LINE
  5
190
330
17
100
AcDbEntity
  8
FINA
100
AcDbLine
 10
101.5
 20
9.5
 30
0.0
 11
101.5
 21
14.5
 31
0.0
  0
TEXT
  5
191
330
17
100
AcDbEntity
  8
TEXTO
100
AcDbText
 10
74.15
 20
24.8
 30
0.0
 40
0.7
  1
DESIGNACIÓN
 11
74.15
 21
24.8
 31
0.0
100
AcDbText
  0
TEXT
  5
192
330
17
100
AcDbEntity
  8
TEXTO
100
AcDbText
 10
74.3
 20
22.05
 30
0.0
 40
2.026785714285714
  1
RUEDA OMNI %%c58 — CORTE A-A
 11
74.3
 21
22.05
 31
0.0
100
AcDbText
 73
2
  0
TEXT
  5
193
330
17
100
AcDbEntity
  8
TEXTO
100
AcDbText
 10
74.15
 20
18.3
 30
0.0
 40
0.7
  1
PROYECTO
 11
74.15
 21
18.3
 31
0.0
100
AcDbText
  0
TEXT
  5
194
330
17
100
AcDbEntity
  8
TEXTO
100
AcDbText
 10
74.3
 20
16.3
 30
0.0
 40
1.4
  1
RUEDA-OMNI-58
 11
74.3
 21
16.3
 31
0.0
100
AcDbText
 73
2
  0
TEXT
  5
195
330
17
100
AcDbEntity
  8
TEXTO
100
AcDbText
 10
97.65
 20
18.3
 30
0.0
 40
0.7
  1
FUENTE
 11
97.65
 21
18.3
 31
0.0
100
AcDbText
  0
TEXT
  5
196
330
17
100
AcDbEntity
  8
TEXTO
100
AcDbText
 10
97.8
 20
16.3
 30
0.0
 40
1.0
  1
diseño del sándwich (capa …
 11
97.8
 21
16.3
 31
0.0
100
AcDbText
 73
2
  0
TEXT
  5
197
330
17
100
AcDbEntity
  8
TEXTO
100
AcDbText
 10
74.15
 20
13.3
 30
0.0
 40
0.7
  1
VERIFICACIÓN DE ESCALA
 11
74.15
 21
13.3
 31
0.0
100
AcDbText
  0
TEXT
  5
198
330
17
100
AcDbEntity
  8
TEXTO
100
AcDbText
 10
74.3
 20
11.3
 30
0.0
 40
1.0
  1
COTAS DE DISEÑO (ver piezas.jso…
 11
74.3
 21
11.3
 31
0.0
100
AcDbText
 73
2
  0
TEXT
  5
199
330
17
100
AcDbEntity
  8
TEXTO
100
AcDbText
 10
102.15
 20
13.3
 30
0.0
 40
0.7
  1
SHA-256
 11
102.15
 21
13.3
 31
0.0
100
AcDbText
  0
TEXT
  5
19A
330
17
100
AcDbEntity
  8
TEXTO
100
AcDbText
 10
102.3
 20
11.3
 30
0.0
 40
1.1
  1
—
 11
102.3
 21
11.3
 31
0.0
100
AcDbText
 73
2
  0
TEXT
  5
19B
330
17
100
AcDbEntity
  8
TEXTO
100
AcDbText
 10
74.15
 20
8.3
 30
0.0
 40
0.7
  1
NOTA
 11
74.15
 21
8.3
 31
0.0
100
AcDbText
  0
TEXT
  5
19C
330
17
100
AcDbEntity
  8
TEXTO
100
AcDbText
 10
74.3
 20
6.55
 30
0.0
 40
1.0
  1
El plano A-A pasa por el eje, un rodillo por hilera y u…
 11
74.3
 21
6.55
 31
0.0
100
AcDbText
 73
2
  0
LINE
  5
19D
330
17
100
AcDbEntity
  8
FINA
100
AcDbLine
 10
120.5
 20
19.5
 30
0.0
 11
143.5
 21
19.5
 31
0.0
  0
LINE
  5
19E
330
17
100
AcDbEntity
  8
FINA
100
AcDbLine
 10
120.5
 20
14.5
 30
0.0
 11
143.5
 21
14.5
 31
0.0
  0
LINE
  5
19F
330
17
100
AcDbEntity
  8
FINA
100
AcDbLine
 10
120.5
 20
9.5
 30
0.0
 11
143.5
 21
9.5
 31
0.0
  0
LINE
  5
1A0
330
17
100
AcDbEntity
  8
FINA
100
AcDbLine
 10
132.0
 20
14.5
 30
0.0
 11
132.0
 21
19.5
 31
0.0
  0
LINE
  5
1A1
330
17
100
AcDbEntity
  8
FINA
100
AcDbLine
 10
133.5
 20
9.5
 30
0.0
 11
133.5
 21
14.5
 31
0.0
  0
TEXT
  5
1A2
330
17
100
AcDbEntity
  8
TEXTO
100
AcDbText
 10
121.15
 20
24.8
 30
0.0
 40
0.7
  1
ESCALA
 11
121.15
 21
24.8
 31
0.0
100
AcDbText
  0
TEXT
  5
1A3
330
17
100
AcDbEntity
  8
TEXTO
100
AcDbText
 10
132.0
 20
22.05
 30
0.0
 40
2.5
  1
2:1
 72
1
 11
132.0
 21
22.05
 31
0.0
100
AcDbText
 73
2
  0
TEXT
  5
1A4
330
17
100
AcDbEntity
  8
TEXTO
100
AcDbText
 10
121.15
 20
18.3
 30
0.0
 40
0.7
  1
FORMATO
 11
121.15
 21
18.3
 31
0.0
100
AcDbText
  0
TEXT
  5
1A5
330
17
100
AcDbEntity
  8
TEXTO
100
AcDbText
 10
126.25
 20
16.3
 30
0.0
 40
1.5
  1
A4
 72
1
 11
126.25
 21
16.3
 31
0.0
100
AcDbText
 73
2
  0
TEXT
  5
1A6
330
17
100
AcDbEntity
  8
TEXTO
100
AcDbText
 10
132.65
 20
18.3
 30
0.0
 40
0.7
  1
LÁMINA
 11
132.65
 21
18.3
 31
0.0
100
AcDbText
  0
TEXT
  5
1A7
330
17
100
AcDbEntity
  8
TEXTO
100
AcDbText
 10
137.75
 20
16.3
 30
0.0
 40
1.5
  1
1 / 1
 72
1
 11
137.75
 21
16.3
 31
0.0
100
AcDbText
 73
2
  0
TEXT
  5
1A8
330
17
100
AcDbEntity
  8
TEXTO
100
AcDbText
 10
121.15
 20
13.3
 30
0.0
 40
0.7
  1
FECHA
 11
121.15
 21
13.3
 31
0.0
100
AcDbText
  0
TEXT
  5
1A9
330
17
100
AcDbEntity
  8
TEXTO
100
AcDbText
 10
127.0
 20
11.3
 30
0.0
 40
1.3
  1
2026-07-29
 72
1
 11
127.0
 21
11.3
 31
0.0
100
AcDbText
 73
2
  0
TEXT
  5
1AA
330
17
100
AcDbEntity
  8
TEXTO
100
AcDbText
 10
134.15
 20
13.3
 30
0.0
 40
0.7
  1
UNIDADES
 11
134.15
 21
13.3
 31
0.0
100
AcDbText
  0
TEXT
  5
1AB
330
17
100
AcDbEntity
  8
TEXTO
100
AcDbText
 10
138.5
 20
11.3
 30
0.0
 40
1.5
  1
mm
 72
1
 11
138.5
 21
11.3
 31
0.0
100
AcDbText
 73
2
  0
TEXT
  5
1AC
330
17
100
AcDbEntity
  8
TEXTO
100
AcDbText
 10
121.15
 20
8.3
 30
0.0
 40
0.7
  1
Nº DE PLANO
 11
121.15
 21
8.3
 31
0.0
100
AcDbText
  0
TEXT
  5
1AD
330
17
100
AcDbEntity
  8
TEXTO
100
AcDbText
 10
132.0
 20
6.55
 30
0.0
 40
1.3
  1
RUEDA-OMNI-CORTE-01
 72
1
 11
132.0
 21
6.55
 31
0.0
100
AcDbText
 73
2
  0
ENDSEC
  0
SECTION
  2
OBJECTS
  0
DICTIONARY
  5
A
330
0
100
AcDbDictionary
281
1
  3
ACAD_COLOR
350
B
  3
ACAD_GROUP
350
C
  3
ACAD_LAYOUT
350
D
  3
ACAD_MATERIAL
350
E
  3
ACAD_MLEADERSTYLE
350
F
  3
ACAD_MLINESTYLE
350
10
  3
ACAD_PLOTSETTINGS
350
11
  3
ACAD_PLOTSTYLENAME
350
12
  3
ACAD_SCALELIST
350
14
  3
ACAD_TABLESTYLE
350
15
  3
ACAD_VISUALSTYLE
350
16
  3
EZDXF_META
350
2D
  0
DICTIONARY
  5
B
330
A
100
AcDbDictionary
281
1
  0
DICTIONARY
  5
C
330
A
100
AcDbDictionary
281
1
  0
DICTIONARY
  5
D
330
A
100
AcDbDictionary
281
1
  3
Model
350
1A
  3
Layout1
350
1E
  0
DICTIONARY
  5
E
330
A
100
AcDbDictionary
281
1
  3
ByBlock
350
1F
  3
ByLayer
350
20
  3
Global
350
21
  0
DICTIONARY
  5
F
330
A
100
AcDbDictionary
281
1
  3
Standard
350
2C
  0
DICTIONARY
  5
10
330
A
100
AcDbDictionary
281
1
  3
Standard
350
22
  0
DICTIONARY
  5
11
330
A
100
AcDbDictionary
281
1
  0
ACDBDICTIONARYWDFLT
  5
12
330
A
100
AcDbDictionary
281
1
  3
Normal
350
13
100
AcDbDictionaryWithDefault
340
13
  0
ACDBPLACEHOLDER
  5
13
330
12
  0
DICTIONARY
  5
14
330
A
100
AcDbDictionary
281
1
  0
DICTIONARY
  5
15
330
A
100
AcDbDictionary
281
1
  0
DICTIONARY
  5
16
330
A
100
AcDbDictionary
281
1
  3
2dWireframe
350
5A
  3
Basic
350
5B
  3
Brighten
350
5C
  3
ColorChange
350
5D
  3
Conceptual
350
5E
  3
Dim
350
5F
  3
EdgeColorOff
350
60
  3
Facepattern
350
61
  3
Flat
350
62
  3
FlatWithEdges
350
63
  3
Gouraud
350
64
  3
GouraudWithEdges
350
65
  3
Hidden
350
66
  3
JitterOff
350
67
  3
Linepattern
350
68
  3
Modeling
350
69
  3
OverhangOff
350
6A
  3
Realistic
350
6B
  3
Shaded
350
6C
  3
Shaded with edges
350
6D
  3
Shades of Gray
350
6E
  3
Sketchy
350
6F
  3
Thicken
350
70
  3
Wireframe
350
71
  3
X-Ray
350
72
  0
LAYOUT
  5
1A
330
D
100
AcDbPlotSettings
  1

  4
A3
  6

 40
7.5
 41
20.0
 42
7.5
 43
20.0
 44
420.0
 45
297.0
 46
0.0
 47
0.0
 48
0.0
 49
0.0
140
0.0
141
0.0
142
1.0
143
1.0
 70
1024
 72
1
 73
0
 74
5
  7

 75
16
 76
0
 77
2
 78
300
147
1.0
148
0.0
149
0.0
100
AcDbLayout
  1
Model
 70
1
 71
0
 10
0.0
 20
0.0
 11
420.0
 21
297.0
 12
0.0
 22
0.0
 32
0.0
 14
1e+20
 24
1e+20
 34
1e+20
 15
-1e+20
 25
-1e+20
 35
-1e+20
146
0.0
 13
0.0
 23
0.0
 33
0.0
 16
1.0
 26
0.0
 36
0.0
 17
0.0
 27
1.0
 37
0.0
 76
1
330
17
  0
LAYOUT
  5
1E
330
D
100
AcDbPlotSettings
  1

  4
A3
  6

 40
7.5
 41
20.0
 42
7.5
 43
20.0
 44
420.0
 45
297.0
 46
0.0
 47
0.0
 48
0.0
 49
0.0
140
0.0
141
0.0
142
1.0
143
1.0
 70
0
 72
1
 73
0
 74
5
  7

 75
16
 76
0
 77
2
 78
300
147
1.0
148
0.0
149
0.0
100
AcDbLayout
  1
Layout1
 70
1
 71
1
 10
0.0
 20
0.0
 11
420.0
 21
297.0
 12
0.0
 22
0.0
 32
0.0
 14
1e+20
 24
1e+20
 34
1e+20
 15
-1e+20
 25
-1e+20
 35
-1e+20
146
0.0
 13
0.0
 23
0.0
 33
0.0
 16
1.0
 26
0.0
 36
0.0
 17
0.0
 27
1.0
 37
0.0
 76
1
330
1B
  0
MATERIAL
  5
1F
102
{ACAD_REACTORS
330
E
102
}
330
E
100
AcDbMaterial
  1
ByBlock
  2

 70
0
 40
1.0
 71
1
 41
1.0
 91
-1023410177
 42
1.0
 72
1
  3

 73
1
 74
1
 75
1
 44
0.5
 73
0
 45
1.0
 46
1.0
 77
1
  4

 78
1
 79
1
170
1
 48
1.0
171
1
  6

172
1
173
1
174
1
140
1.0
141
1.0
175
1
  7

176
1
177
1
178
1
143
1.0
179
1
  8

270
1
271
1
272
1
145
1.0
146
1.0
273
1
  9

274
1
275
1
276
1
 42
1.0
 72
1
  3

 73
1
 74
1
 75
1
 94
63
  0
MATERIAL
  5
20
102
{ACAD_REACTORS
330
E
102
}
330
E
100
AcDbMaterial
  1
ByLayer
  2

 70
0
 40
1.0
 71
1
 41
1.0
 91
-1023410177
 42
1.0
 72
1
  3

 73
1
 74
1
 75
1
 44
0.5
 73
0
 45
1.0
 46
1.0
 77
1
  4

 78
1
 79
1
170
1
 48
1.0
171
1
  6

172
1
173
1
174
1
140
1.0
141
1.0
175
1
  7

176
1
177
1
178
1
143
1.0
179
1
  8

270
1
271
1
272
1
145
1.0
146
1.0
273
1
  9

274
1
275
1
276
1
 42
1.0
 72
1
  3

 73
1
 74
1
 75
1
 94
63
  0
MATERIAL
  5
21
102
{ACAD_REACTORS
330
E
102
}
330
E
100
AcDbMaterial
  1
Global
  2

 70
0
 40
1.0
 71
1
 41
1.0
 91
-1023410177
 42
1.0
 72
1
  3

 73
1
 74
1
 75
1
 44
0.5
 73
0
 45
1.0
 46
1.0
 77
1
  4

 78
1
 79
1
170
1
 48
1.0
171
1
  6

172
1
173
1
174
1
140
1.0
141
1.0
175
1
  7

176
1
177
1
178
1
143
1.0
179
1
  8

270
1
271
1
272
1
145
1.0
146
1.0
273
1
  9

274
1
275
1
276
1
 42
1.0
 72
1
  3

 73
1
 74
1
 75
1
 94
63
  0
MLINESTYLE
  5
22
102
{ACAD_REACTORS
330
10
102
}
330
10
100
AcDbMlineStyle
  2
Standard
 70
0
  3

 62
256
 51
90.0
 52
90.0
 71
2
 49
0.5
 62
256
  6
BYLAYER
 49
-0.5
 62
256
  6
BYLAYER
  0
MLEADERSTYLE
  5
2C
102
{ACAD_REACTORS
330
F
102
}
330
F
100
AcDbMLeaderStyle
179
2
170
2
171
1
172
0
 90
2
 40
0.0
 41
0.0
173
1
 91
-1056964608
 92
-2
290
1
 42
2.0
291
1
 43
8.0
  3
Standard
 44
4.0
300

342
29
174
1
175
1
176
0
178
1
 93
-1056964608
 45
4.0
292
0
297
0
 46
4.0
 94
-1056964608
 47
1.0
 49
1.0
140
1.0
294
1
141
0.0
177
0
142
1.0
295
0
296
0
143
3.75
271
0
272
9
273
9
  0
DICTIONARY
  5
2D
330
A
100
AcDbDictionary
280
1
281
1
  3
CREATED_BY_EZDXF
350
2E
  3
WRITTEN_BY_EZDXF
350
1B0
  0
DICTIONARYVAR
  5
2E
330
2D
100
DictionaryVariables
280
0
  1
1.4.4 @ 2026-07-29T13:53:23.041809+00:00
  0
VISUALSTYLE
  5
5A
102
{ACAD_REACTORS
330
16
102
}
330
16
100
AcDbVisualStyle
  2
2dWireframe
 70
4
177
3
291
0
 70
58
 90
2
176
1
 90
2
176
1
 90
0
176
1
 90
0
176
1
 40
0.6
176
1
 40
30.0
176
1
 62
7
420
16777215
176
1
 90
1
176
1
 90
4
176
1
 62
7
176
1
 62
257
176
1
 90
1
176
1
 90
1
176
1
 40
1.0
176
1
 90
8
176
1
 62
7
176
1
 40
1.0
176
1
 90
1
176
1
 90
6
176
1
 90
2
176
1
 62
7
176
1
 90
5
176
1
 90
0
176
1
 90
0
176
1
290
0
176
1
 90
1
176
1
 40
0.0
176
1
 90
0
176
1
290
1
176
1
290
1
176
1
290
0
176
1
290
0
176
1
290
0
176
1
290
0
176
1
290
0
176
1
290
0
176
1
290
0
176
1
 90
50
176
1
 40
0.0
176
1
 40
1.0
176
1
 90
0
176
1
 62
18
420
0
176
1
 90
50
176
1
 90
3
176
1
 62
5
420
255
176
1
290
0
176
1
 90
50
176
1
 90
50
176
1
 90
50
176
1
290
0
176
1
 90
50
176
1
 62
256
176
0
 40
1.0
176
0
 90
2
176
1
  1
strokes_ogs.tif
176
1
290
0
176
1
 40
1.0
176
1
 40
1.0
176
1
  0
VISUALSTYLE
  5
5B
102
{ACAD_REACTORS
330
16
102
}
330
16
100
AcDbVisualStyle
  2
Basic
 70
7
177
3
291
1
 70
58
 90
2
176
1
 90
2
176
1
 90
0
176
1
 90
1
176
1
 40
0.6
176
1
 40
30.0
176
1
 62
7
420
16777215
176
1
 90
1
176
1
 90
4
176
1
 62
7
176
1
 62
257
176
1
 90
1
176
1
 90
1
176
1
 40
1.0
176
1
 90
8
176
1
 62
7
176
1
 40
1.0
176
1
 90
1
176
1
 90
6
176
1
 90
2
176
1
 62
7
176
1
 90
5
176
1
 90
0
176
1
 90
0
176
1
290
0
176
1
 90
1
176
1
 40
0.0
176
1
 90
0
176
1
290
0
176
1
290
1
176
1
290
1
176
1
290
0
176
1
290
0
176
1
290
0
176
1
290
0
176
1
290
0
176
1
290
0
176
1
 90
50
176
1
 40
0.0
176
1
 40
1.0
176
1
 90
0
176
1
 62
18
420
0
176
1
 90
50
176
1
 90
3
176
1
 62
5
420
255
176
1
290
0
176
1
 90
50
176
1
 90
50
176
1
 90
50
176
1
290
0
176
1
 90
50
176
1
 62
256
176
0
 40
1.0
176
0
 90
2
176
1
  1
strokes_ogs.tif
176
1
290
0
176
1
 40
1.0
176
1
 40
1.0
176
1
  0
VISUALSTYLE
  5
5C
102
{ACAD_REACTORS
330
16
102
}
330
16
100
AcDbVisualStyle
  2
Brighten
 70
12
177
3
291
1
 70
58
 90
2
176
1
 90
2
176
1
 90
0
176
1
 90
2
176
1
 40
0.6
176
1
 40
30.0
176
1
 62
7
420
16777215
176
1
 90
1
176
1
 90
4
176
1
 62
7
176
1
 62
257
176
1
 90
1
176
1
 90
1
176
1
 40
1.0
176
1
 90
8
176
1
 62
7
176
1
 40
1.0
176
1
 90
1
176
1
 90
6
176
1
 90
2
176
1
 62
7
176
1
 90
5
176
1
 90
0
176
1
 90
0
176
1
290
0
176
1
 90
1
176
1
 40
0.0
176
1
 90
0
176
1
290
0
176
1
290
1
176
1
290
1
176
1
290
0
176
1
290
0
176
1
290
0
176
1
290
0
176
1
290
0
176
1
290
0
176
1
 90
50
176
1
 40
0.0
176
1
 40
1.0
176
1
 90
0
176
1
 62
18
420
0
176
1
 90
50
176
1
 90
3
176
1
 62
5
420
255
176
1
290
0
176
1
 90
50
176
1
 90
50
176
1
 90
50
176
1
290
0
176
1
 90
50
176
1
 62
256
176
0
 40
1.0
176
0
 90
2
176
1
  1
strokes_ogs.tif
176
1
290
0
176
1
 40
1.0
176
1
 40
1.0
176
1
  0
VISUALSTYLE
  5
5D
102
{ACAD_REACTORS
330
16
102
}
330
16
100
AcDbVisualStyle
  2
ColorChange
 70
16
177
3
291
1
 70
58
 90
2
176
1
 90
2
176
1
 90
0
176
1
 90
2
176
1
 40
0.6
176
1
 40
30.0
176
1
 62
7
420
16777215
176
1
 90
1
176
1
 90
4
176
1
 62
7
176
1
 62
257
176
1
 90
1
176
1
 90
1
176
1
 40
1.0
176
1
 90
8
176
1
 62
7
176
1
 40
1.0
176
1
 90
1
176
1
 90
6
176
1
 90
2
176
1
 62
7
176
1
 90
5
176
1
 90
0
176
1
 90
0
176
1
290
0
176
1
 90
1
176
1
 40
0.0
176
1
 90
0
176
1
290
0
176
1
290
1
176
1
290
1
176
1
290
0
176
1
290
0
176
1
290
0
176
1
290
0
176
1
290
0
176
1
290
0
176
1
 90
50
176
1
 40
0.0
176
1
 40
1.0
176
1
 90
0
176
1
 62
18
420
0
176
1
 90
50
176
1
 90
3
176
1
 62
5
420
255
176
1
290
0
176
1
 90
50
176
1
 90
50
176
1
 90
50
176
1
290
0
176
1
 90
50
176
1
 62
256
176
0
 40
1.0
176
0
 90
2
176
1
  1
strokes_ogs.tif
176
1
290
0
176
1
 40
1.0
176
1
 40
1.0
176
1
  0
VISUALSTYLE
  5
5E
102
{ACAD_REACTORS
330
16
102
}
330
16
100
AcDbVisualStyle
  2
Conceptual
 70
9
177
3
291
0
 70
58
 90
2
176
1
 90
2
176
1
 90
0
176
1
 90
3
176
1
 40
0.6
176
1
 40
30.0
176
1
 62
7
420
16777215
176
1
 90
1
176
1
 90
4
176
1
 62
7
176
1
 62
257
176
1
 90
1
176
1
 90
1
176
1
 40
1.0
176
1
 90
8
176
1
 62
7
176
1
 40
1.0
176
1
 90
1
176
1
 90
6
176
1
 90
2
176
1
 62
7
176
1
 90
5
176
1
 90
0
176
1
 90
0
176
1
290
0
176
1
 90
1
176
1
 40
0.0
176
1
 90
0
176
1
290
0
176
1
290
1
176
1
290
1
176
1
290
0
176
1
290
0
176
1
290
0
176
1
290
0
176
1
290
0
176
1
290
0
176
1
 90
50
176
1
 40
0.0
176
1
 40
1.0
176
1
 90
0
176
1
 62
18
420
0
176
1
 90
50
176
1
 90
3
176
1
 62
5
420
255
176
1
290
0
176
1
 90
50
176
1
 90
50
176
1
 90
50
176
1
290
0
176
1
 90
50
176
1
 62
256
176
0
 40
1.0
176
0
 90
2
176
1
  1
strokes_ogs.tif
176
1
290
0
176
1
 40
1.0
176
1
 40
1.0
176
1
  0
VISUALSTYLE
  5
5F
102
{ACAD_REACTORS
330
16
102
}
330
16
100
AcDbVisualStyle
  2
Dim
 70
11
177
3
291
1
 70
58
 90
2
176
1
 90
2
176
1
 90
0
176
1
 90
2
176
1
 40
0.6
176
1
 40
30.0
176
1
 62
7
420
16777215
176
1
 90
1
176
1
 90
4
176
1
 62
7
176
1
 62
257
176
1
 90
1
176
1
 90
1
176
1
 40
1.0
176
1
 90
8
176
1
 62
7
176
1
 40
1.0
176
1
 90
1
176
1
 90
6
176
1
 90
2
176
1
 62
7
176
1
 90
5
176
1
 90
0
176
1
 90
0
176
1
290
0
176
1
 90
1
176
1
 40
0.0
176
1
 90
0
176
1
290
0
176
1
290
1
176
1
290
1
176
1
290
0
176
1
290
0
176
1
290
0
176
1
290
0
176
1
290
0
176
1
290
0
176
1
 90
50
176
1
 40
0.0
176
1
 40
1.0
176
1
 90
0
176
1
 62
18
420
0
176
1
 90
50
176
1
 90
3
176
1
 62
5
420
255
176
1
290
0
176
1
 90
50
176
1
 90
50
176
1
 90
50
176
1
290
0
176
1
 90
50
176
1
 62
256
176
0
 40
1.0
176
0
 90
2
176
1
  1
strokes_ogs.tif
176
1
290
0
176
1
 40
1.0
176
1
 40
1.0
176
1
  0
VISUALSTYLE
  5
60
102
{ACAD_REACTORS
330
16
102
}
330
16
100
AcDbVisualStyle
  2
EdgeColorOff
 70
22
177
3
291
1
 70
58
 90
2
176
1
 90
2
176
1
 90
0
176
1
 90
2
176
1
 40
0.6
176
1
 40
30.0
176
1
 62
7
420
16777215
176
1
 90
1
176
1
 90
4
176
1
 62
7
176
1
 62
257
176
1
 90
1
176
1
 90
1
176
1
 40
1.0
176
1
 90
8
176
1
 62
7
176
1
 40
1.0
176
1
 90
1
176
1
 90
6
176
1
 90
2
176
1
 62
7
176
1
 90
5
176
1
 90
0
176
1
 90
0
176
1
290
0
176
1
 90
1
176
1
 40
0.0
176
1
 90
0
176
1
290
0
176
1
290
1
176
1
290
1
176
1
290
0
176
1
290
0
176
1
290
0
176
1
290
0
176
1
290
0
176
1
290
0
176
1
 90
50
176
1
 40
0.0
176
1
 40
1.0
176
1
 90
0
176
1
 62
18
420
0
176
1
 90
50
176
1
 90
3
176
1
 62
5
420
255
176
1
290
0
176
1
 90
50
176
1
 90
50
176
1
 90
50
176
1
290
0
176
1
 90
50
176
1
 62
256
176
0
 40
1.0
176
0
 90
2
176
1
  1
strokes_ogs.tif
176
1
290
0
176
1
 40
1.0
176
1
 40
1.0
176
1
  0
VISUALSTYLE
  5
61
102
{ACAD_REACTORS
330
16
102
}
330
16
100
AcDbVisualStyle
  2
Facepattern
 70
15
177
3
291
1
 70
58
 90
2
176
1
 90
2
176
1
 90
0
176
1
 90
2
176
1
 40
0.6
176
1
 40
30.0
176
1
 62
7
420
16777215
176
1
 90
1
176
1
 90
4
176
1
 62
7
176
1
 62
257
176
1
 90
1
176
1
 90
1
176
1
 40
1.0
176
1
 90
8
176
1
 62
7
176
1
 40
1.0
176
1
 90
1
176
1
 90
6
176
1
 90
2
176
1
 62
7
176
1
 90
5
176
1
 90
0
176
1
 90
0
176
1
290
0
176
1
 90
1
176
1
 40
0.0
176
1
 90
0
176
1
290
0
176
1
290
1
176
1
290
1
176
1
290
0
176
1
290
0
176
1
290
0
176
1
290
0
176
1
290
0
176
1
290
0
176
1
 90
50
176
1
 40
0.0
176
1
 40
1.0
176
1
 90
0
176
1
 62
18
420
0
176
1
 90
50
176
1
 90
3
176
1
 62
5
420
255
176
1
290
0
176
1
 90
50
176
1
 90
50
176
1
 90
50
176
1
290
0
176
1
 90
50
176
1
 62
256
176
0
 40
1.0
176
0
 90
2
176
1
  1
strokes_ogs.tif
176
1
290
0
176
1
 40
1.0
176
1
 40
1.0
176
1
  0
VISUALSTYLE
  5
62
102
{ACAD_REACTORS
330
16
102
}
330
16
100
AcDbVisualStyle
  2
Flat
 70
0
177
3
291
1
 70
58
 90
2
176
1
 90
2
176
1
 90
0
176
1
 90
2
176
1
 40
0.6
176
1
 40
30.0
176
1
 62
7
420
16777215
176
1
 90
1
176
1
 90
4
176
1
 62
7
176
1
 62
257
176
1
 90
1
176
1
 90
1
176
1
 40
1.0
176
1
 90
8
176
1
 62
7
176
1
 40
1.0
176
1
 90
1
176
1
 90
6
176
1
 90
2
176
1
 62
7
176
1
 90
5
176
1
 90
0
176
1
 90
0
176
1
290
0
176
1
 90
1
176
1
 40
0.0
176
1
 90
0
176
1
290
0
176
1
290
1
176
1
290
1
176
1
290
0
176
1
290
0
176
1
290
0
176
1
290
0
176
1
290
0
176
1
290
0
176
1
 90
50
176
1
 40
0.0
176
1
 40
1.0
176
1
 90
0
176
1
 62
18
420
0
176
1
 90
50
176
1
 90
3
176
1
 62
5
420
255
176
1
290
0
176
1
 90
50
176
1
 90
50
176
1
 90
50
176
1
290
0
176
1
 90
50
176
1
 62
256
176
0
 40
1.0
176
0
 90
2
176
1
  1
strokes_ogs.tif
176
1
290
0
176
1
 40
1.0
176
1
 40
1.0
176
1
  0
VISUALSTYLE
  5
63
102
{ACAD_REACTORS
330
16
102
}
330
16
100
AcDbVisualStyle
  2
FlatWithEdges
 70
1
177
3
291
1
 70
58
 90
2
176
1
 90
2
176
1
 90
0
176
1
 90
2
176
1
 40
0.6
176
1
 40
30.0
176
1
 62
7
420
16777215
176
1
 90
1
176
1
 90
4
176
1
 62
7
176
1
 62
257
176
1
 90
1
176
1
 90
1
176
1
 40
1.0
176
1
 90
8
176
1
 62
7
176
1
 40
1.0
176
1
 90
1
176
1
 90
6
176
1
 90
2
176
1
 62
7
176
1
 90
5
176
1
 90
0
176
1
 90
0
176
1
290
0
176
1
 90
1
176
1
 40
0.0
176
1
 90
0
176
1
290
0
176
1
290
1
176
1
290
1
176
1
290
0
176
1
290
0
176
1
290
0
176
1
290
0
176
1
290
0
176
1
290
0
176
1
 90
50
176
1
 40
0.0
176
1
 40
1.0
176
1
 90
0
176
1
 62
18
420
0
176
1
 90
50
176
1
 90
3
176
1
 62
5
420
255
176
1
290
0
176
1
 90
50
176
1
 90
50
176
1
 90
50
176
1
290
0
176
1
 90
50
176
1
 62
256
176
0
 40
1.0
176
0
 90
2
176
1
  1
strokes_ogs.tif
176
1
290
0
176
1
 40
1.0
176
1
 40
1.0
176
1
  0
VISUALSTYLE
  5
64
102
{ACAD_REACTORS
330
16
102
}
330
16
100
AcDbVisualStyle
  2
Gouraud
 70
2
177
3
291
1
 70
58
 90
2
176
1
 90
2
176
1
 90
0
176
1
 90
2
176
1
 40
0.6
176
1
 40
30.0
176
1
 62
7
420
16777215
176
1
 90
1
176
1
 90
4
176
1
 62
7
176
1
 62
257
176
1
 90
1
176
1
 90
1
176
1
 40
1.0
176
1
 90
8
176
1
 62
7
176
1
 40
1.0
176
1
 90
1
176
1
 90
6
176
1
 90
2
176
1
 62
7
176
1
 90
5
176
1
 90
0
176
1
 90
0
176
1
290
0
176
1
 90
1
176
1
 40
0.0
176
1
 90
0
176
1
290
0
176
1
290
1
176
1
290
1
176
1
290
0
176
1
290
0
176
1
290
0
176
1
290
0
176
1
290
0
176
1
290
0
176
1
 90
50
176
1
 40
0.0
176
1
 40
1.0
176
1
 90
0
176
1
 62
18
420
0
176
1
 90
50
176
1
 90
3
176
1
 62
5
420
255
176
1
290
0
176
1
 90
50
176
1
 90
50
176
1
 90
50
176
1
290
0
176
1
 90
50
176
1
 62
256
176
0
 40
1.0
176
0
 90
2
176
1
  1
strokes_ogs.tif
176
1
290
0
176
1
 40
1.0
176
1
 40
1.0
176
1
  0
VISUALSTYLE
  5
65
102
{ACAD_REACTORS
330
16
102
}
330
16
100
AcDbVisualStyle
  2
GouraudWithEdges
 70
3
177
3
291
1
 70
58
 90
2
176
1
 90
2
176
1
 90
0
176
1
 90
2
176
1
 40
0.6
176
1
 40
30.0
176
1
 62
7
420
16777215
176
1
 90
1
176
1
 90
4
176
1
 62
7
176
1
 62
257
176
1
 90
1
176
1
 90
1
176
1
 40
1.0
176
1
 90
8
176
1
 62
7
176
1
 40
1.0
176
1
 90
1
176
1
 90
6
176
1
 90
2
176
1
 62
7
176
1
 90
5
176
1
 90
0
176
1
 90
0
176
1
290
0
176
1
 90
1
176
1
 40
0.0
176
1
 90
0
176
1
290
0
176
1
290
1
176
1
290
1
176
1
290
0
176
1
290
0
176
1
290
0
176
1
290
0
176
1
290
0
176
1
290
0
176
1
 90
50
176
1
 40
0.0
176
1
 40
1.0
176
1
 90
0
176
1
 62
18
420
0
176
1
 90
50
176
1
 90
3
176
1
 62
5
420
255
176
1
290
0
176
1
 90
50
176
1
 90
50
176
1
 90
50
176
1
290
0
176
1
 90
50
176
1
 62
256
176
0
 40
1.0
176
0
 90
2
176
1
  1
strokes_ogs.tif
176
1
290
0
176
1
 40
1.0
176
1
 40
1.0
176
1
  0
VISUALSTYLE
  5
66
102
{ACAD_REACTORS
330
16
102
}
330
16
100
AcDbVisualStyle
  2
Hidden
 70
6
177
3
291
0
 70
58
 90
2
176
1
 90
2
176
1
 90
0
176
1
 90
1
176
1
 40
0.6
176
1
 40
30.0
176
1
 62
7
420
16777215
176
1
 90
1
176
1
 90
4
176
1
 62
7
176
1
 62
257
176
1
 90
1
176
1
 90
1
176
1
 40
1.0
176
1
 90
8
176
1
 62
7
176
1
 40
1.0
176
1
 90
1
176
1
 90
6
176
1
 90
2
176
1
 62
7
176
1
 90
5
176
1
 90
0
176
1
 90
0
176
1
290
0
176
1
 90
1
176
1
 40
0.0
176
1
 90
0
176
1
290
0
176
1
290
1
176
1
290
1
176
1
290
0
176
1
290
0
176
1
290
0
176
1
290
0
176
1
290
0
176
1
290
0
176
1
 90
50
176
1
 40
0.0
176
1
 40
1.0
176
1
 90
0
176
1
 62
18
420
0
176
1
 90
50
176
1
 90
3
176
1
 62
5
420
255
176
1
290
0
176
1
 90
50
176
1
 90
50
176
1
 90
50
176
1
290
0
176
1
 90
50
176
1
 62
256
176
0
 40
1.0
176
0
 90
2
176
1
  1
strokes_ogs.tif
176
1
290
0
176
1
 40
1.0
176
1
 40
1.0
176
1
  0
VISUALSTYLE
  5
67
102
{ACAD_REACTORS
330
16
102
}
330
16
100
AcDbVisualStyle
  2
JitterOff
 70
20
177
3
291
1
 70
58
 90
2
176
1
 90
2
176
1
 90
0
176
1
 90
2
176
1
 40
0.6
176
1
 40
30.0
176
1
 62
7
420
16777215
176
1
 90
1
176
1
 90
4
176
1
 62
7
176
1
 62
257
176
1
 90
1
176
1
 90
1
176
1
 40
1.0
176
1
 90
8
176
1
 62
7
176
1
 40
1.0
176
1
 90
1
176
1
 90
6
176
1
 90
2
176
1
 62
7
176
1
 90
5
176
1
 90
0
176
1
 90
0
176
1
290
0
176
1
 90
1
176
1
 40
0.0
176
1
 90
0
176
1
290
0
176
1
290
1
176
1
290
1
176
1
290
0
176
1
290
0
176
1
290
0
176
1
290
0
176
1
290
0
176
1
290
0
176
1
 90
50
176
1
 40
0.0
176
1
 40
1.0
176
1
 90
0
176
1
 62
18
420
0
176
1
 90
50
176
1
 90
3
176
1
 62
5
420
255
176
1
290
0
176
1
 90
50
176
1
 90
50
176
1
 90
50
176
1
290
0
176
1
 90
50
176
1
 62
256
176
0
 40
1.0
176
0
 90
2
176
1
  1
strokes_ogs.tif
176
1
290
0
176
1
 40
1.0
176
1
 40
1.0
176
1
  0
VISUALSTYLE
  5
68
102
{ACAD_REACTORS
330
16
102
}
330
16
100
AcDbVisualStyle
  2
Linepattern
 70
14
177
3
291
1
 70
58
 90
2
176
1
 90
2
176
1
 90
0
176
1
 90
2
176
1
 40
0.6
176
1
 40
30.0
176
1
 62
7
420
16777215
176
1
 90
1
176
1
 90
4
176
1
 62
7
176
1
 62
257
176
1
 90
1
176
1
 90
1
176
1
 40
1.0
176
1
 90
8
176
1
 62
7
176
1
 40
1.0
176
1
 90
1
176
1
 90
6
176
1
 90
2
176
1
 62
7
176
1
 90
5
176
1
 90
0
176
1
 90
0
176
1
290
0
176
1
 90
1
176
1
 40
0.0
176
1
 90
0
176
1
290
0
176
1
290
1
176
1
290
1
176
1
290
0
176
1
290
0
176
1
290
0
176
1
290
0
176
1
290
0
176
1
290
0
176
1
 90
50
176
1
 40
0.0
176
1
 40
1.0
176
1
 90
0
176
1
 62
18
420
0
176
1
 90
50
176
1
 90
3
176
1
 62
5
420
255
176
1
290
0
176
1
 90
50
176
1
 90
50
176
1
 90
50
176
1
290
0
176
1
 90
50
176
1
 62
256
176
0
 40
1.0
176
0
 90
2
176
1
  1
strokes_ogs.tif
176
1
290
0
176
1
 40
1.0
176
1
 40
1.0
176
1
  0
VISUALSTYLE
  5
69
102
{ACAD_REACTORS
330
16
102
}
330
16
100
AcDbVisualStyle
  2
Modeling
 70
10
177
3
291
0
 70
58
 90
2
176
1
 90
2
176
1
 90
0
176
1
 90
2
176
1
 40
0.6
176
1
 40
30.0
176
1
 62
7
420
16777215
176
1
 90
1
176
1
 90
4
176
1
 62
7
176
1
 62
257
176
1
 90
1
176
1
 90
1
176
1
 40
1.0
176
1
 90
8
176
1
 62
7
176
1
 40
1.0
176
1
 90
1
176
1
 90
6
176
1
 90
2
176
1
 62
7
176
1
 90
5
176
1
 90
0
176
1
 90
0
176
1
290
0
176
1
 90
1
176
1
 40
0.0
176
1
 90
0
176
1
290
0
176
1
290
1
176
1
290
1
176
1
290
0
176
1
290
0
176
1
290
0
176
1
290
0
176
1
290
0
176
1
290
0
176
1
 90
50
176
1
 40
0.0
176
1
 40
1.0
176
1
 90
0
176
1
 62
18
420
0
176
1
 90
50
176
1
 90
3
176
1
 62
5
420
255
176
1
290
0
176
1
 90
50
176
1
 90
50
176
1
 90
50
176
1
290
0
176
1
 90
50
176
1
 62
256
176
0
 40
1.0
176
0
 90
2
176
1
  1
strokes_ogs.tif
176
1
290
0
176
1
 40
1.0
176
1
 40
1.0
176
1
  0
VISUALSTYLE
  5
6A
102
{ACAD_REACTORS
330
16
102
}
330
16
100
AcDbVisualStyle
  2
OverhangOff
 70
21
177
3
291
1
 70
58
 90
2
176
1
 90
2
176
1
 90
0
176
1
 90
2
176
1
 40
0.6
176
1
 40
30.0
176
1
 62
7
420
16777215
176
1
 90
1
176
1
 90
4
176
1
 62
7
176
1
 62
257
176
1
 90
1
176
1
 90
1
176
1
 40
1.0
176
1
 90
8
176
1
 62
7
176
1
 40
1.0
176
1
 90
1
176
1
 90
6
176
1
 90
2
176
1
 62
7
176
1
 90
5
176
1
 90
0
176
1
 90
0
176
1
290
0
176
1
 90
1
176
1
 40
0.0
176
1
 90
0
176
1
290
0
176
1
290
1
176
1
290
1
176
1
290
0
176
1
290
0
176
1
290
0
176
1
290
0
176
1
290
0
176
1
290
0
176
1
 90
50
176
1
 40
0.0
176
1
 40
1.0
176
1
 90
0
176
1
 62
18
420
0
176
1
 90
50
176
1
 90
3
176
1
 62
5
420
255
176
1
290
0
176
1
 90
50
176
1
 90
50
176
1
 90
50
176
1
290
0
176
1
 90
50
176
1
 62
256
176
0
 40
1.0
176
0
 90
2
176
1
  1
strokes_ogs.tif
176
1
290
0
176
1
 40
1.0
176
1
 40
1.0
176
1
  0
VISUALSTYLE
  5
6B
102
{ACAD_REACTORS
330
16
102
}
330
16
100
AcDbVisualStyle
  2
Realistic
 70
8
177
3
291
0
 70
58
 90
2
176
1
 90
2
176
1
 90
0
176
1
 90
2
176
1
 40
0.6
176
1
 40
30.0
176
1
 62
7
420
16777215
176
1
 90
1
176
1
 90
4
176
1
 62
7
176
1
 62
257
176
1
 90
1
176
1
 90
1
176
1
 40
1.0
176
1
 90
8
176
1
 62
7
176
1
 40
1.0
176
1
 90
1
176
1
 90
6
176
1
 90
2
176
1
 62
7
176
1
 90
5
176
1
 90
0
176
1
 90
0
176
1
290
0
176
1
 90
1
176
1
 40
0.0
176
1
 90
0
176
1
290
0
176
1
290
1
176
1
290
1
176
1
290
0
176
1
290
0
176
1
290
0
176
1
290
0
176
1
290
0
176
1
290
0
176
1
 90
50
176
1
 40
0.0
176
1
 40
1.0
176
1
 90
0
176
1
 62
18
420
0
176
1
 90
50
176
1
 90
3
176
1
 62
5
420
255
176
1
290
0
176
1
 90
50
176
1
 90
50
176
1
 90
50
176
1
290
0
176
1
 90
50
176
1
 62
256
176
0
 40
1.0
176
0
 90
2
176
1
  1
strokes_ogs.tif
176
1
290
0
176
1
 40
1.0
176
1
 40
1.0
176
1
  0
VISUALSTYLE
  5
6C
102
{ACAD_REACTORS
330
16
102
}
330
16
100
AcDbVisualStyle
  2
Shaded
 70
27
177
3
291
0
 70
58
 90
2
176
1
 90
2
176
1
 90
0
176
1
 90
2
176
1
 40
0.6
176
1
 40
30.0
176
1
 62
7
420
16777215
176
1
 90
1
176
1
 90
4
176
1
 62
7
176
1
 62
257
176
1
 90
1
176
1
 90
1
176
1
 40
1.0
176
1
 90
8
176
1
 62
7
176
1
 40
1.0
176
1
 90
1
176
1
 90
6
176
1
 90
2
176
1
 62
7
176
1
 90
5
176
1
 90
0
176
1
 90
0
176
1
290
0
176
1
 90
1
176
1
 40
0.0
176
1
 90
0
176
1
290
0
176
1
290
1
176
1
290
1
176
1
290
0
176
1
290
0
176
1
290
0
176
1
290
0
176
1
290
0
176
1
290
0
176
1
 90
50
176
1
 40
0.0
176
1
 40
1.0
176
1
 90
0
176
1
 62
18
420
0
176
1
 90
50
176
1
 90
3
176
1
 62
5
420
255
176
1
290
0
176
1
 90
50
176
1
 90
50
176
1
 90
50
176
1
290
0
176
1
 90
50
176
1
 62
256
176
0
 40
1.0
176
0
 90
2
176
1
  1
strokes_ogs.tif
176
1
290
0
176
1
 40
1.0
176
1
 40
1.0
176
1
  0
VISUALSTYLE
  5
6D
102
{ACAD_REACTORS
330
16
102
}
330
16
100
AcDbVisualStyle
  2
Shaded with edges
 70
26
177
3
291
0
 70
58
 90
2
176
1
 90
2
176
1
 90
0
176
1
 90
2
176
1
 40
0.6
176
1
 40
30.0
176
1
 62
7
420
16777215
176
1
 90
1
176
1
 90
4
176
1
 62
7
176
1
 62
257
176
1
 90
1
176
1
 90
1
176
1
 40
1.0
176
1
 90
8
176
1
 62
7
176
1
 40
1.0
176
1
 90
1
176
1
 90
6
176
1
 90
2
176
1
 62
7
176
1
 90
5
176
1
 90
0
176
1
 90
0
176
1
290
0
176
1
 90
1
176
1
 40
0.0
176
1
 90
0
176
1
290
0
176
1
290
1
176
1
290
1
176
1
290
0
176
1
290
0
176
1
290
0
176
1
290
0
176
1
290
0
176
1
290
0
176
1
 90
50
176
1
 40
0.0
176
1
 40
1.0
176
1
 90
0
176
1
 62
18
420
0
176
1
 90
50
176
1
 90
3
176
1
 62
5
420
255
176
1
290
0
176
1
 90
50
176
1
 90
50
176
1
 90
50
176
1
290
0
176
1
 90
50
176
1
 62
256
176
0
 40
1.0
176
0
 90
2
176
1
  1
strokes_ogs.tif
176
1
290
0
176
1
 40
1.0
176
1
 40
1.0
176
1
  0
VISUALSTYLE
  5
6E
102
{ACAD_REACTORS
330
16
102
}
330
16
100
AcDbVisualStyle
  2
Shades of Gray
 70
23
177
3
291
0
 70
58
 90
2
176
1
 90
2
176
1
 90
0
176
1
 90
2
176
1
 40
0.6
176
1
 40
30.0
176
1
 62
7
420
16777215
176
1
 90
1
176
1
 90
4
176
1
 62
7
176
1
 62
257
176
1
 90
1
176
1
 90
1
176
1
 40
1.0
176
1
 90
8
176
1
 62
7
176
1
 40
1.0
176
1
 90
1
176
1
 90
6
176
1
 90
2
176
1
 62
7
176
1
 90
5
176
1
 90
0
176
1
 90
0
176
1
290
0
176
1
 90
1
176
1
 40
0.0
176
1
 90
0
176
1
290
0
176
1
290
1
176
1
290
1
176
1
290
0
176
1
290
0
176
1
290
0
176
1
290
0
176
1
290
0
176
1
290
0
176
1
 90
50
176
1
 40
0.0
176
1
 40
1.0
176
1
 90
0
176
1
 62
18
420
0
176
1
 90
50
176
1
 90
3
176
1
 62
5
420
255
176
1
290
0
176
1
 90
50
176
1
 90
50
176
1
 90
50
176
1
290
0
176
1
 90
50
176
1
 62
256
176
0
 40
1.0
176
0
 90
2
176
1
  1
strokes_ogs.tif
176
1
290
0
176
1
 40
1.0
176
1
 40
1.0
176
1
  0
VISUALSTYLE
  5
6F
102
{ACAD_REACTORS
330
16
102
}
330
16
100
AcDbVisualStyle
  2
Sketchy
 70
24
177
3
291
0
 70
58
 90
2
176
1
 90
2
176
1
 90
0
176
1
 90
1
176
1
 40
0.6
176
1
 40
30.0
176
1
 62
7
420
16777215
176
1
 90
1
176
1
 90
4
176
1
 62
7
176
1
 62
257
176
1
 90
1
176
1
 90
1
176
1
 40
1.0
176
1
 90
8
176
1
 62
7
176
1
 40
1.0
176
1
 90
1
176
1
 90
6
176
1
 90
2
176
1
 62
7
176
1
 90
5
176
1
 90
0
176
1
 90
0
176
1
290
0
176
1
 90
1
176
1
 40
0.0
176
1
 90
0
176
1
290
0
176
1
290
1
176
1
290
1
176
1
290
0
176
1
290
0
176
1
290
0
176
1
290
0
176
1
290
0
176
1
290
0
176
1
 90
50
176
1
 40
0.0
176
1
 40
1.0
176
1
 90
0
176
1
 62
18
420
0
176
1
 90
50
176
1
 90
3
176
1
 62
5
420
255
176
1
290
0
176
1
 90
50
176
1
 90
50
176
1
 90
50
176
1
290
0
176
1
 90
50
176
1
 62
256
176
0
 40
1.0
176
0
 90
2
176
1
  1
strokes_ogs.tif
176
1
290
0
176
1
 40
1.0
176
1
 40
1.0
176
1
  0
VISUALSTYLE
  5
70
102
{ACAD_REACTORS
330
16
102
}
330
16
100
AcDbVisualStyle
  2
Thicken
 70
13
177
3
291
1
 70
58
 90
2
176
1
 90
2
176
1
 90
0
176
1
 90
2
176
1
 40
0.6
176
1
 40
30.0
176
1
 62
7
420
16777215
176
1
 90
1
176
1
 90
4
176
1
 62
7
176
1
 62
257
176
1
 90
1
176
1
 90
1
176
1
 40
1.0
176
1
 90
8
176
1
 62
7
176
1
 40
1.0
176
1
 90
1
176
1
 90
6
176
1
 90
2
176
1
 62
7
176
1
 90
5
176
1
 90
0
176
1
 90
0
176
1
290
0
176
1
 90
1
176
1
 40
0.0
176
1
 90
0
176
1
290
0
176
1
290
1
176
1
290
1
176
1
290
0
176
1
290
0
176
1
290
0
176
1
290
0
176
1
290
0
176
1
290
0
176
1
 90
50
176
1
 40
0.0
176
1
 40
1.0
176
1
 90
0
176
1
 62
18
420
0
176
1
 90
50
176
1
 90
3
176
1
 62
5
420
255
176
1
290
0
176
1
 90
50
176
1
 90
50
176
1
 90
50
176
1
290
0
176
1
 90
50
176
1
 62
256
176
0
 40
1.0
176
0
 90
2
176
1
  1
strokes_ogs.tif
176
1
290
0
176
1
 40
1.0
176
1
 40
1.0
176
1
  0
VISUALSTYLE
  5
71
102
{ACAD_REACTORS
330
16
102
}
330
16
100
AcDbVisualStyle
  2
Wireframe
 70
5
177
3
291
0
 70
58
 90
2
176
1
 90
2
176
1
 90
0
176
1
 90
0
176
1
 40
0.6
176
1
 40
30.0
176
1
 62
7
420
16777215
176
1
 90
1
176
1
 90
4
176
1
 62
7
176
1
 62
257
176
1
 90
1
176
1
 90
1
176
1
 40
1.0
176
1
 90
8
176
1
 62
7
176
1
 40
1.0
176
1
 90
1
176
1
 90
6
176
1
 90
2
176
1
 62
7
176
1
 90
5
176
1
 90
0
176
1
 90
0
176
1
290
0
176
1
 90
1
176
1
 40
0.0
176
1
 90
0
176
1
290
0
176
1
290
1
176
1
290
1
176
1
290
0
176
1
290
0
176
1
290
0
176
1
290
0
176
1
290
0
176
1
290
0
176
1
 90
50
176
1
 40
0.0
176
1
 40
1.0
176
1
 90
0
176
1
 62
18
420
0
176
1
 90
50
176
1
 90
3
176
1
 62
5
420
255
176
1
290
0
176
1
 90
50
176
1
 90
50
176
1
 90
50
176
1
290
0
176
1
 90
50
176
1
 62
256
176
0
 40
1.0
176
0
 90
2
176
1
  1
strokes_ogs.tif
176
1
290
0
176
1
 40
1.0
176
1
 40
1.0
176
1
  0
VISUALSTYLE
  5
72
102
{ACAD_REACTORS
330
16
102
}
330
16
100
AcDbVisualStyle
  2
X-Ray
 70
25
177
3
291
0
 70
58
 90
2
176
1
 90
2
176
1
 90
0
176
1
 90
2
176
1
 40
0.5
176
1
 40
30.0
176
1
 62
7
420
16777215
176
1
 90
1
176
1
 90
4
176
1
 62
7
176
1
 62
257
176
1
 90
1
176
1
 90
1
176
1
 40
1.0
176
1
 90
8
176
1
 62
7
176
1
 40
1.0
176
1
 90
1
176
1
 90
6
176
1
 90
2
176
1
 62
7
176
1
 90
5
176
1
 90
0
176
1
 90
0
176
1
290
0
176
1
 90
1
176
1
 40
0.0
176
1
 90
0
176
1
290
0
176
1
290
1
176
1
290
1
176
1
290
0
176
1
290
0
176
1
290
0
176
1
290
0
176
1
290
0
176
1
290
0
176
1
 90
50
176
1
 40
0.0
176
1
 40
1.0
176
1
 90
0
176
1
 62
18
420
0
176
1
 90
50
176
1
 90
3
176
1
 62
5
420
255
176
1
290
0
176
1
 90
50
176
1
 90
50
176
1
 90
50
176
1
290
0
176
1
 90
50
176
1
 62
256
176
0
 40
1.0
176
0
 90
2
176
1
  1
strokes_ogs.tif
176
1
290
0
176
1
 40
1.0
176
1
 40
1.0
176
1
  0
DICTIONARYVAR
  5
1B0
330
2D
100
DictionaryVariables
280
0
  1
1.4.4 @ 2026-07-29T13:53:23.370067+00:00
  0
ENDSEC
  0
EOF
