  0
SECTION
  2
HEADER
  9
$ACADVER
  1
AC1032
  9
$ACADMAINTVER
 90
4
  9
$DWGCODEPAGE
  3
ANSI_1252
  9
$LASTSAVEDBY
  1
ezdxf
  9
$REQUIREDVERSIONS
160
0
  9
$INSBASE
 10
0.0
 20
0.0
 30
0.0
  9
$EXTMIN
 10
1e+20
 20
1e+20
 30
1e+20
  9
$EXTMAX
 10
-1e+20
 20
-1e+20
 30
-1e+20
  9
$LIMMIN
 10
0.0
 20
0.0
  9
$LIMMAX
 10
420.0
 20
297.0
  9
$ORTHOMODE
 70
0
  9
$REGENMODE
 70
1
  9
$FILLMODE
 70
1
  9
$QTEXTMODE
 70
0
  9
$MIRRTEXT
 70
1
  9
$LTSCALE
 40
1.0
  9
$ATTMODE
 70
1
  9
$TEXTSIZE
 40
2.5
  9
$TRACEWID
 40
1.0
  9
$TEXTSTYLE
  7
OpenSans
  9
$CLAYER
  8
0
  9
$CELTYPE
  6
ByLayer
  9
$CECOLOR
 62
256
  9
$CELTSCALE
 40
1.0
  9
$DISPSILH
 70
0
  9
$DIMSCALE
 40
1.0
  9
$DIMASZ
 40
0.175
  9
$DIMEXO
 40
0.125
  9
$DIMDLI
 40
3.75
  9
$DIMRND
 40
0.0
  9
$DIMDLE
 40
0.0
  9
$DIMEXE
 40
0.375
  9
$DIMTP
 40
0.0
  9
$DIMTM
 40
0.0
  9
$DIMTXT
 40
0.25
  9
$DIMCEN
 40
2.5
  9
$DIMTSZ
 40
0.0
  9
$DIMTOL
 70
0
  9
$DIMLIM
 70
0
  9
$DIMTIH
 70
0
  9
$DIMTOH
 70
0
  9
$DIMSE1
 70
0
  9
$DIMSE2
 70
0
  9
$DIMTAD
 70
1
  9
$DIMZIN
 70
12
  9
$DIMBLK
  1
ARCHTICK
  9
$DIMASO
 70
1
  9
$DIMSHO
 70
1
  9
$DIMPOST
  1

  9
$DIMAPOST
  1

  9
$DIMALT
 70
0
  9
$DIMALTD
 70
3
  9
$DIMALTF
 40
0.03937007874
  9
$DIMLFAC
 40
100.0
  9
$DIMTOFL
 70
1
  9
$DIMTVP
 40
0.0
  9
$DIMTIX
 70
0
  9
$DIMSOXD
 70
0
  9
$DIMSAH
 70
0
  9
$DIMBLK1
  1

  9
$DIMBLK2
  1

  9
$DIMSTYLE
  2
EZDXF
  9
$DIMCLRD
 70
0
  9
$DIMCLRE
 70
0
  9
$DIMCLRT
 70
0
  9
$DIMTFAC
 40
0.5
  9
$DIMGAP
 40
0.1
  9
$DIMJUST
 70
0
  9
$DIMSD1
 70
0
  9
$DIMSD2
 70
0
  9
$DIMTOLJ
 70
0
  9
$DIMTZIN
 70
8
  9
$DIMALTZ
 70
0
  9
$DIMALTTZ
 70
0
  9
$DIMUPT
 70
1
  9
$DIMDEC
 70
2
  9
$DIMTDEC
 70
2
  9
$DIMALTU
 70
2
  9
$DIMALTTD
 70
3
  9
$DIMTXSTY
  7
OpenSansCondensed-Light
  9
$DIMAUNIT
 70
0
  9
$DIMADEC
 70
2
  9
$DIMALTRND
 40
0.0
  9
$DIMAZIN
 70
3
  9
$DIMDSEP
 70
46
  9
$DIMATFIT
 70
3
  9
$DIMFRAC
 70
0
  9
$DIMLDRBLK
  1

  9
$DIMLUNIT
 70
2
  9
$DIMLWD
 70
-2
  9
$DIMLWE
 70
-2
  9
$DIMTMOVE
 70
2
  9
$DIMFXL
 40
1.0
  9
$DIMFXLON
 70
0
  9
$DIMJOGANG
 40
0.785398163397
  9
$DIMTFILL
 70
0
  9
$DIMTFILLCLR
 70
0
  9
$DIMARCSYM
 70
0
  9
$DIMLTYPE
  6

  9
$DIMLTEX1
  6

  9
$DIMLTEX2
  6

  9
$DIMTXTDIRECTION
 70
0
  9
$LUNITS
 70
2
  9
$LUPREC
 70
4
  9
$SKETCHINC
 40
1.0
  9
$FILLETRAD
 40
10.0
  9
$AUNITS
 70
0
  9
$AUPREC
 70
2
  9
$MENU
  1
.
  9
$ELEVATION
 40
0.0
  9
$PELEVATION
 40
0.0
  9
$THICKNESS
 40
0.0
  9
$LIMCHECK
 70
0
  9
$CHAMFERA
 40
0.0
  9
$CHAMFERB
 40
0.0
  9
$CHAMFERC
 40
0.0
  9
$CHAMFERD
 40
0.0
  9
$SKPOLY
 70
0
  9
$TDCREATE
 40
2461249.737986111
  9
$TDUCREATE
 40
2458532.153996898
  9
$TDUPDATE
 40
2461249.737986111
  9
$TDUUPDATE
 40
2458532.1544311
  9
$TDINDWG
 40
0.0
  9
$TDUSRTIMER
 40
0.0
  9
$USRTIMER
 70
1
  9
$ANGBASE
 50
0.0
  9
$ANGDIR
 70
0
  9
$PDMODE
 70
0
  9
$PDSIZE
 40
0.0
  9
$PLINEWID
 40
0.0
  9
$SPLFRAME
 70
0
  9
$SPLINETYPE
 70
6
  9
$SPLINESEGS
 70
8
  9
$HANDSEED
  5
D0
  9
$SURFTAB1
 70
6
  9
$SURFTAB2
 70
6
  9
$SURFTYPE
 70
6
  9
$SURFU
 70
6
  9
$SURFV
 70
6
  9
$UCSBASE
  2

  9
$UCSNAME
  2

  9
$UCSORG
 10
0.0
 20
0.0
 30
0.0
  9
$UCSXDIR
 10
1.0
 20
0.0
 30
0.0
  9
$UCSYDIR
 10
0.0
 20
1.0
 30
0.0
  9
$UCSORTHOREF
  2

  9
$UCSORTHOVIEW
 70
0
  9
$UCSORGTOP
 10
0.0
 20
0.0
 30
0.0
  9
$UCSORGBOTTOM
 10
0.0
 20
0.0
 30
0.0
  9
$UCSORGLEFT
 10
0.0
 20
0.0
 30
0.0
  9
$UCSORGRIGHT
 10
0.0
 20
0.0
 30
0.0
  9
$UCSORGFRONT
 10
0.0
 20
0.0
 30
0.0
  9
$UCSORGBACK
 10
0.0
 20
0.0
 30
0.0
  9
$PUCSBASE
  2

  9
$PUCSNAME
  2

  9
$PUCSORG
 10
0.0
 20
0.0
 30
0.0
  9
$PUCSXDIR
 10
1.0
 20
0.0
 30
0.0
  9
$PUCSYDIR
 10
0.0
 20
1.0
 30
0.0
  9
$PUCSORTHOREF
  2

  9
$PUCSORTHOVIEW
 70
0
  9
$PUCSORGTOP
 10
0.0
 20
0.0
 30
0.0
  9
$PUCSORGBOTTOM
 10
0.0
 20
0.0
 30
0.0
  9
$PUCSORGLEFT
 10
0.0
 20
0.0
 30
0.0
  9
$PUCSORGRIGHT
 10
0.0
 20
0.0
 30
0.0
  9
$PUCSORGFRONT
 10
0.0
 20
0.0
 30
0.0
  9
$PUCSORGBACK
 10
0.0
 20
0.0
 30
0.0
  9
$USERI1
 70
0
  9
$USERI2
 70
0
  9
$USERI3
 70
0
  9
$USERI4
 70
0
  9
$USERI5
 70
0
  9
$USERR1
 40
0.0
  9
$USERR2
 40
0.0
  9
$USERR3
 40
0.0
  9
$USERR4
 40
0.0
  9
$USERR5
 40
0.0
  9
$WORLDVIEW
 70
1
  9
$SHADEDGE
 70
3
  9
$SHADEDIF
 70
70
  9
$TILEMODE
 70
1
  9
$MAXACTVP
 70
64
  9
$PINSBASE
 10
0.0
 20
0.0
 30
0.0
  9
$PLIMCHECK
 70
0
  9
$PEXTMIN
 10
1e+20
 20
1e+20
 30
1e+20
  9
$PEXTMAX
 10
-1e+20
 20
-1e+20
 30
-1e+20
  9
$PLIMMIN
 10
0.0
 20
0.0
  9
$PLIMMAX
 10
420.0
 20
297.0
  9
$UNITMODE
 70
0
  9
$VISRETAIN
 70
1
  9
$PLINEGEN
 70
0
  9
$PSLTSCALE
 70
1
  9
$TREEDEPTH
 70
3020
  9
$CMLSTYLE
  2
Standard
  9
$CMLJUST
 70
0
  9
$CMLSCALE
 40
20.0
  9
$PROXYGRAPHICS
 70
1
  9
$MEASUREMENT
 70
1
  9
$CELWEIGHT
370
-1
  9
$ENDCAPS
280
0
  9
$JOINSTYLE
280
0
  9
$LWDISPLAY
290
0
  9
$INSUNITS
 70
4
  9
$HYPERLINKBASE
  1

  9
$STYLESHEET
  1

  9
$XEDIT
290
1
  9
$CEPSNTYPE
380
0
  9
$PSTYLEMODE
290
1
  9
$FINGERPRINTGUID
  2
{18CC03E8-8DE3-4386-9F25-9F004AAAD232}
  9
$VERSIONGUID
  2
{9FA994A0-D6CA-467D-8170-2456B83035C1}
  9
$EXTNAMES
290
1
  9
$PSVPSCALE
 40
0.0
  9
$OLESTARTUP
290
0
  9
$SORTENTS
280
127
  9
$INDEXCTL
280
0
  9
$HIDETEXT
280
1
  9
$XCLIPFRAME
280
1
  9
$HALOGAP
280
0
  9
$OBSCOLOR
 70
257
  9
$OBSLTYPE
280
0
  9
$INTERSECTIONDISPLAY
280
0
  9
$INTERSECTIONCOLOR
 70
257
  9
$DIMASSOC
280
2
  9
$PROJECTNAME
  1

  9
$CAMERADISPLAY
290
0
  9
$LENSLENGTH
 40
50.0
  9
$CAMERAHEIGHT
 40
0.0
  9
$STEPSPERSEC
 40
24.0
  9
$STEPSIZE
 40
100.0
  9
$3DDWFPREC
 40
2.0
  9
$PSOLWIDTH
 40
0.005
  9
$PSOLHEIGHT
 40
0.08
  9
$LOFTANG1
 40
1.570796326795
  9
$LOFTANG2
 40
1.570796326795
  9
$LOFTMAG1
 40
0.0
  9
$LOFTMAG2
 40
0.0
  9
$LOFTPARAM
 70
7
  9
$LOFTNORMALS
280
1
  9
$LATITUDE
 40
37.795
  9
$LONGITUDE
 40
-122.394
  9
$NORTHDIRECTION
 40
0.0
  9
$TIMEZONE
 70
-8000
  9
$LIGHTGLYPHDISPLAY
280
1
  9
$TILEMODELIGHTSYNCH
280
1
  9
$CMATERIAL
347
20
  9
$SOLIDHIST
280
0
  9
$SHOWHIST
280
1
  9
$DWFFRAME
280
2
  9
$DGNFRAME
280
2
  9
$REALWORLDSCALE
290
1
  9
$INTERFERECOLOR
 62
256
  9
$CSHADOW
280
0
  9
$SHADOWPLANELOCATION
 40
0.0
  0
ENDSEC
  0
SECTION
  2
CLASSES
  0
CLASS
  1
ACDBDICTIONARYWDFLT
  2
AcDbDictionaryWithDefault
  3
ObjectDBX Classes
 90
0
 91
0
280
0
281
0
  0
CLASS
  1
SUN
  2
AcDbSun
  3
SCENEOE
 90
1153
 91
0
280
0
281
0
  0
CLASS
  1
VISUALSTYLE
  2
AcDbVisualStyle
  3
ObjectDBX Classes
 90
4095
 91
0
280
0
281
0
  0
CLASS
  1
MATERIAL
  2
AcDbMaterial
  3
ObjectDBX Classes
 90
1153
 91
0
280
0
281
0
  0
CLASS
  1
SCALE
  2
AcDbScale
  3
ObjectDBX Classes
 90
1153
 91
0
280
0
281
0
  0
CLASS
  1
TABLESTYLE
  2
AcDbTableStyle
  3
ObjectDBX Classes
 90
4095
 91
0
280
0
281
0
  0
CLASS
  1
MLEADERSTYLE
  2
AcDbMLeaderStyle
  3
ACDB_MLEADERSTYLE_CLASS
 90
4095
 91
0
280
0
281
0
  0
CLASS
  1
DICTIONARYVAR
  2
AcDbDictionaryVar
  3
ObjectDBX Classes
 90
0
 91
0
280
0
281
0
  0
CLASS
  1
CELLSTYLEMAP
  2
AcDbCellStyleMap
  3
ObjectDBX Classes
 90
1152
 91
0
280
0
281
0
  0
CLASS
  1
MENTALRAYRENDERSETTINGS
  2
AcDbMentalRayRenderSettings
  3
SCENEOE
 90
1024
 91
0
280
0
281
0
  0
CLASS
  1
ACDBDETAILVIEWSTYLE
  2
AcDbDetailViewStyle
  3
ObjectDBX Classes
 90
1025
 91
0
280
0
281
0
  0
CLASS
  1
ACDBSECTIONVIEWSTYLE
  2
AcDbSectionViewStyle
  3
ObjectDBX Classes
 90
1025
 91
0
280
0
281
0
  0
CLASS
  1
RASTERVARIABLES
  2
AcDbRasterVariables
  3
ISM
 90
0
 91
0
280
0
281
0
  0
CLASS
  1
LAYOUT
  2
AcDbLayout
  3
ObjectDBX Classes
 90
0
 91
0
280
0
281
0
  0
CLASS
  1
ACDBPLACEHOLDER
  2
AcDbPlaceHolder
  3
ObjectDBX Classes
 90
0
 91
0
280
0
281
0
  0
ENDSEC
  0
SECTION
  2
TABLES
  0
TABLE
  2
VPORT
  5
8
330
0
100
AcDbSymbolTable
 70
1
  0
VPORT
  5
23
330
8
100
AcDbSymbolTableRecord
100
AcDbViewportTableRecord
  2
*Active
 70
0
 10
0.0
 20
0.0
 11
1.0
 21
1.0
 12
0.0
 22
0.0
 13
0.0
 23
0.0
 14
0.5
 24
0.5
 15
0.5
 25
0.5
 16
0.0
 26
0.0
 36
1.0
 17
0.0
 27
0.0
 37
0.0
 40
1000.0
 41
1.34
 42
50.0
 43
0.0
 44
0.0
 50
0.0
 51
0.0
 71
0
 72
1000
 73
1
 74
3
 75
0
 76
0
 77
0
 78
0
281
0
 65
0
146
0.0
  0
ENDTAB
  0
TABLE
  2
LTYPE
  5
2
330
0
100
AcDbSymbolTable
 70
21
  0
LTYPE
  5
24
330
2
100
AcDbSymbolTableRecord
100
AcDbLinetypeTableRecord
  2
ByBlock
 70
0
  3

 72
65
 73
0
 40
0.0
  0
LTYPE
  5
25
330
2
100
AcDbSymbolTableRecord
100
AcDbLinetypeTableRecord
  2
ByLayer
 70
0
  3

 72
65
 73
0
 40
0.0
  0
LTYPE
  5
26
330
2
100
AcDbSymbolTableRecord
100
AcDbLinetypeTableRecord
  2
Continuous
 70
0
  3

 72
65
 73
0
 40
0.0
  0
LTYPE
  5
2F
330
2
100
AcDbSymbolTableRecord
100
AcDbLinetypeTableRecord
  2
CENTER
 70
0
  3
Center ____ _ ____ _ ____ _ ____ _ ____ _ ____
 72
65
 73
4
 40
5.08
 49
3.175
 74
0
 49
-0.635
 74
0
 49
0.635
 74
0
 49
-0.635
 74
0
  0
LTYPE
  5
30
330
2
100
AcDbSymbolTableRecord
100
AcDbLinetypeTableRecord
  2
CENTERX2
 70
0
  3
Center (2x) ________  __  ________  __  ________
 72
65
 73
4
 40
8.89
 49
6.35
 74
0
 49
-0.635
 74
0
 49
1.27
 74
0
 49
-0.635
 74
0
  0
LTYPE
  5
31
330
2
100
AcDbSymbolTableRecord
100
AcDbLinetypeTableRecord
  2
CENTER2
 70
0
  3
Center (.5x) ____ _ ____ _ ____ _ ____ _ ____
 72
65
 73
4
 40
2.54
 49
1.587
 74
0
 49
-0.318
 74
0
 49
0.318
 74
0
 49
-0.318
 74
0
  0
LTYPE
  5
32
330
2
100
AcDbSymbolTableRecord
100
AcDbLinetypeTableRecord
  2
DASHED
 70
0
  3
Dashed __ __ __ __ __ __ __ __ __ __ __ __ __ _
 72
65
 73
2
 40
1.524
 49
1.27
 74
0
 49
-0.254
 74
0
  0
LTYPE
  5
33
330
2
100
AcDbSymbolTableRecord
100
AcDbLinetypeTableRecord
  2
DASHEDX2
 70
0
  3
Dashed (2x) ____  ____  ____  ____  ____  ____
 72
65
 73
2
 40
3.048
 49
2.54
 74
0
 49
-0.508
 74
0
  0
LTYPE
  5
34
330
2
100
AcDbSymbolTableRecord
100
AcDbLinetypeTableRecord
  2
DASHED2
 70
0
  3
Dashed (.5x) _ _ _ _ _ _ _ _ _ _ _ _ _ _
 72
65
 73
2
 40
0.762
 49
0.635
 74
0
 49
-0.127
 74
0
  0
LTYPE
  5
35
330
2
100
AcDbSymbolTableRecord
100
AcDbLinetypeTableRecord
  2
PHANTOM
 70
0
  3
Phantom ______  __  __  ______  __  __  ______
 72
65
 73
6
 40
6.35
 49
3.175
 74
0
 49
-0.635
 74
0
 49
0.635
 74
0
 49
-0.635
 74
0
 49
0.635
 74
0
 49
-0.635
 74
0
  0
LTYPE
  5
36
330
2
100
AcDbSymbolTableRecord
100
AcDbLinetypeTableRecord
  2
PHANTOMX2
 70
0
  3
Phantom (2x)____________    ____    ____    ____________
 72
65
 73
6
 40
10.795
 49
6.35
 74
0
 49
-0.635
 74
0
 49
1.27
 74
0
 49
-0.635
 74
0
 49
1.27
 74
0
 49
-0.635
 74
0
  0
LTYPE
  5
37
330
2
100
AcDbSymbolTableRecord
100
AcDbLinetypeTableRecord
  2
PHANTOM2
 70
0
  3
Phantom (.5x) ___ _ _ ___ _ _ ___ _ _ ___ _ _ ___
 72
65
 73
6
 40
3.175
 49
1.587
 74
0
 49
-0.318
 74
0
 49
0.318
 74
0
 49
-0.318
 74
0
 49
0.318
 74
0
 49
-0.318
 74
0
  0
LTYPE
  5
38
330
2
100
AcDbSymbolTableRecord
100
AcDbLinetypeTableRecord
  2
DASHDOT
 70
0
  3
Dash dot __ . __ . __ . __ . __ . __ . __ . __
 72
65
 73
4
 40
3.556
 49
2.54
 74
0
 49
-0.508
 74
0
 49
0.0
 74
0
 49
-0.508
 74
0
  0
LTYPE
  5
39
330
2
100
AcDbSymbolTableRecord
100
AcDbLinetypeTableRecord
  2
DASHDOTX2
 70
0
  3
Dash dot (2x) ____  .  ____  .  ____  .  ____
 72
65
 73
4
 40
6.096
 49
5.08
 74
0
 49
-0.508
 74
0
 49
0.0
 74
0
 49
-0.508
 74
0
  0
LTYPE
  5
3A
330
2
100
AcDbSymbolTableRecord
100
AcDbLinetypeTableRecord
  2
DASHDOT2
 70
0
  3
Dash dot (.5x) _ . _ . _ . _ . _ . _ . _ . _
 72
65
 73
4
 40
1.778
 49
1.27
 74
0
 49
-0.254
 74
0
 49
0.0
 74
0
 49
-0.254
 74
0
  0
LTYPE
  5
3B
330
2
100
AcDbSymbolTableRecord
100
AcDbLinetypeTableRecord
  2
DOT
 70
0
  3
Dot .  .  .  .  .  .  .  .  .  .  .  .  .  .  .  .
 72
65
 73
2
 40
0.508
 49
0.0
 74
0
 49
-0.508
 74
0
  0
LTYPE
  5
3C
330
2
100
AcDbSymbolTableRecord
100
AcDbLinetypeTableRecord
  2
DOTX2
 70
0
  3
Dot (2x) .    .    .    .    .    .    .    . 
 72
65
 73
2
 40
1.016
 49
0.0
 74
0
 49
-1.016
 74
0
  0
LTYPE
  5
3D
330
2
100
AcDbSymbolTableRecord
100
AcDbLinetypeTableRecord
  2
DOT2
 70
0
  3
Dot (.5) . . . . . . . . . . . . . . . . . . . 
 72
65
 73
2
 40
0.254
 49
0.0
 74
0
 49
-0.254
 74
0
  0
LTYPE
  5
3E
330
2
100
AcDbSymbolTableRecord
100
AcDbLinetypeTableRecord
  2
DIVIDE
 70
0
  3
Divide __ . . __ . . __ . . __ . . __ . . __
 72
65
 73
6
 40
4.064
 49
2.54
 74
0
 49
-0.508
 74
0
 49
0.0
 74
0
 49
-0.508
 74
0
 49
0.0
 74
0
 49
-0.508
 74
0
  0
LTYPE
  5
3F
330
2
100
AcDbSymbolTableRecord
100
AcDbLinetypeTableRecord
  2
DIVIDEX2
 70
0
  3
Divide (2x) ____  . .  ____  . .  ____  . .  ____
 72
65
 73
6
 40
6.604
 49
5.08
 74
0
 49
-0.508
 74
0
 49
0.0
 74
0
 49
-0.508
 74
0
 49
0.0
 74
0
 49
-0.508
 74
0
  0
LTYPE
  5
40
330
2
100
AcDbSymbolTableRecord
100
AcDbLinetypeTableRecord
  2
DIVIDE2
 70
0
  3
Divide(.5x) _ . _ . _ . _ . _ . _ . _ . _
 72
65
 73
6
 40
2.032
 49
1.27
 74
0
 49
-0.254
 74
0
 49
0.0
 74
0
 49
-0.254
 74
0
 49
0.0
 74
0
 49
-0.254
 74
0
  0
ENDTAB
  0
TABLE
  2
LAYER
  5
1
330
0
100
AcDbSymbolTable
 70
6
  0
LAYER
  5
27
330
1
100
AcDbSymbolTableRecord
100
AcDbLayerTableRecord
  2
0
 70
0
 62
7
  6
Continuous
370
-3
390
13
347
21
  0
LAYER
  5
28
330
1
100
AcDbSymbolTableRecord
100
AcDbLayerTableRecord
  2
Defpoints
 70
0
 62
7
  6
Continuous
290
0
370
-3
390
13
347
21
  0
LAYER
  5
8A
330
1
100
AcDbSymbolTableRecord
100
AcDbLayerTableRecord
  2
CORTE
 70
0
 62
7
  6
CONTINUOUS
370
-3
390
13
347
21
  0
LAYER
  5
8B
330
1
100
AcDbSymbolTableRecord
100
AcDbLayerTableRecord
  2
RANURA
 70
0
 62
1
  6
DASHED
370
-3
390
13
347
21
  0
LAYER
  5
8C
330
1
100
AcDbSymbolTableRecord
100
AcDbLayerTableRecord
  2
AVELLANADO
 70
0
 62
3
  6
DASHED
370
-3
390
13
347
21
  0
LAYER
  5
8D
330
1
100
AcDbSymbolTableRecord
100
AcDbLayerTableRecord
  2
TEXTO
 70
0
 62
7
  6
CONTINUOUS
370
-3
390
13
347
21
  0
ENDTAB
  0
TABLE
  2
STYLE
  5
5
330
0
100
AcDbSymbolTable
 70
26
  0
STYLE
  5
29
330
5
100
AcDbSymbolTableRecord
100
AcDbTextStyleTableRecord
  2
Standard
 70
0
 40
0.0
 41
1.0
 50
0.0
 71
0
 42
2.5
  3
txt
  4

  0
STYLE
  5
41
330
5
100
AcDbSymbolTableRecord
100
AcDbTextStyleTableRecord
  2
OpenSans-Light
 70
0
 40
0.0
 41
1.0
 50
0.0
 71
0
 42
2.5
  3
OpenSans-Light.ttf
  4

  0
STYLE
  5
42
330
5
100
AcDbSymbolTableRecord
100
AcDbTextStyleTableRecord
  2
OpenSans-Light-Italic
 70
0
 40
0.0
 41
1.0
 50
0.0
 71
0
 42
2.5
  3
OpenSans-LightItalic.ttf
  4

  0
STYLE
  5
43
330
5
100
AcDbSymbolTableRecord
100
AcDbTextStyleTableRecord
  2
OpenSans
 70
0
 40
0.0
 41
1.0
 50
0.0
 71
0
 42
2.5
  3
OpenSans-Regular.ttf
  4

  0
STYLE
  5
44
330
5
100
AcDbSymbolTableRecord
100
AcDbTextStyleTableRecord
  2
OpenSans-Italic
 70
0
 40
0.0
 41
1.0
 50
0.0
 71
0
 42
2.5
  3
OpenSans-Italic.ttf
  4

  0
STYLE
  5
45
330
5
100
AcDbSymbolTableRecord
100
AcDbTextStyleTableRecord
  2
OpenSans-SemiBold
 70
0
 40
0.0
 41
1.0
 50
0.0
 71
0
 42
2.5
  3
OpenSans-SemiBold.ttf
  4

  0
STYLE
  5
46
330
5
100
AcDbSymbolTableRecord
100
AcDbTextStyleTableRecord
  2
OpenSans-SemiBoldItalic
 70
0
 40
0.0
 41
1.0
 50
0.0
 71
0
 42
2.5
  3
OpenSans-SemiBoldItalic.ttf
  4

  0
STYLE
  5
47
330
5
100
AcDbSymbolTableRecord
100
AcDbTextStyleTableRecord
  2
OpenSans-Bold
 70
0
 40
0.0
 41
1.0
 50
0.0
 71
0
 42
2.5
  3
OpenSans-Bold.ttf
  4

  0
STYLE
  5
48
330
5
100
AcDbSymbolTableRecord
100
AcDbTextStyleTableRecord
  2
OpenSans-BoldItalic
 70
0
 40
0.0
 41
1.0
 50
0.0
 71
0
 42
2.5
  3
OpenSans-BoldItalic.ttf
  4

  0
STYLE
  5
49
330
5
100
AcDbSymbolTableRecord
100
AcDbTextStyleTableRecord
  2
OpenSans-ExtraBold
 70
0
 40
0.0
 41
1.0
 50
0.0
 71
0
 42
2.5
  3
OpenSans-ExtraBold.ttf
  4

  0
STYLE
  5
4A
330
5
100
AcDbSymbolTableRecord
100
AcDbTextStyleTableRecord
  2
OpenSans-ExtraBoldItalic
 70
0
 40
0.0
 41
1.0
 50
0.0
 71
0
 42
2.5
  3
OpenSans-ExtraBoldItalic.ttf
  4

  0
STYLE
  5
4B
330
5
100
AcDbSymbolTableRecord
100
AcDbTextStyleTableRecord
  2
OpenSansCondensed-Bold
 70
0
 40
0.0
 41
1.0
 50
0.0
 71
0
 42
2.5
  3
OpenSansCondensed-Bold.ttf
  4

  0
STYLE
  5
4C
330
5
100
AcDbSymbolTableRecord
100
AcDbTextStyleTableRecord
  2
OpenSansCondensed-Light
 70
0
 40
0.0
 41
1.0
 50
0.0
 71
0
 42
2.5
  3
OpenSansCondensed-Light.ttf
  4

  0
STYLE
  5
4D
330
5
100
AcDbSymbolTableRecord
100
AcDbTextStyleTableRecord
  2
OpenSansCondensed-Italic
 70
0
 40
0.0
 41
1.0
 50
0.0
 71
0
 42
2.5
  3
OpenSansCondensed-LightItalic.ttf
  4

  0
STYLE
  5
4E
330
5
100
AcDbSymbolTableRecord
100
AcDbTextStyleTableRecord
  2
LiberationSans
 70
0
 40
0.0
 41
1.0
 50
0.0
 71
0
 42
2.5
  3
LiberationSans-Regular.ttf
  4

  0
STYLE
  5
4F
330
5
100
AcDbSymbolTableRecord
100
AcDbTextStyleTableRecord
  2
LiberationSans-Bold
 70
0
 40
0.0
 41
1.0
 50
0.0
 71
0
 42
2.5
  3
LiberationSans-Bold.ttf
  4

  0
STYLE
  5
50
330
5
100
AcDbSymbolTableRecord
100
AcDbTextStyleTableRecord
  2
LiberationSans-BoldItalic
 70
0
 40
0.0
 41
1.0
 50
0.0
 71
0
 42
2.5
  3
LiberationSans-BoldItalic.ttf
  4

  0
STYLE
  5
51
330
5
100
AcDbSymbolTableRecord
100
AcDbTextStyleTableRecord
  2
LiberationSans-Italic
 70
0
 40
0.0
 41
1.0
 50
0.0
 71
0
 42
2.5
  3
LiberationSans-Italic.ttf
  4

  0
STYLE
  5
52
330
5
100
AcDbSymbolTableRecord
100
AcDbTextStyleTableRecord
  2
LiberationSerif
 70
0
 40
0.0
 41
1.0
 50
0.0
 71
0
 42
2.5
  3
LiberationSerif-Regular.ttf
  4

  0
STYLE
  5
53
330
5
100
AcDbSymbolTableRecord
100
AcDbTextStyleTableRecord
  2
LiberationSerif-Bold
 70
0
 40
0.0
 41
1.0
 50
0.0
 71
0
 42
2.5
  3
LiberationSerif-Bold.ttf
  4

  0
STYLE
  5
54
330
5
100
AcDbSymbolTableRecord
100
AcDbTextStyleTableRecord
  2
LiberationSerif-BoldItalic
 70
0
 40
0.0
 41
1.0
 50
0.0
 71
0
 42
2.5
  3
LiberationSerif-BoldItalic.ttf
  4

  0
STYLE
  5
55
330
5
100
AcDbSymbolTableRecord
100
AcDbTextStyleTableRecord
  2
LiberationSerif-Italic
 70
0
 40
0.0
 41
1.0
 50
0.0
 71
0
 42
2.5
  3
LiberationSerif-Italic.ttf
  4

  0
STYLE
  5
56
330
5
100
AcDbSymbolTableRecord
100
AcDbTextStyleTableRecord
  2
LiberationMono
 70
0
 40
0.0
 41
1.0
 50
0.0
 71
0
 42
2.5
  3
LiberationMono-Regular.ttf
  4

  0
STYLE
  5
57
330
5
100
AcDbSymbolTableRecord
100
AcDbTextStyleTableRecord
  2
LiberationMono-Bold
 70
0
 40
0.0
 41
1.0
 50
0.0
 71
0
 42
2.5
  3
LiberationMono-Bold.ttf
  4

  0
STYLE
  5
58
330
5
100
AcDbSymbolTableRecord
100
AcDbTextStyleTableRecord
  2
LiberationMono-BoldItalic
 70
0
 40
0.0
 41
1.0
 50
0.0
 71
0
 42
2.5
  3
LiberationMono-BoldItalic.ttf
  4

  0
STYLE
  5
59
330
5
100
AcDbSymbolTableRecord
100
AcDbTextStyleTableRecord
  2
LiberationMono-Italic
 70
0
 40
0.0
 41
1.0
 50
0.0
 71
0
 42
2.5
  3
LiberationMono-Italic.ttf
  4

  0
ENDTAB
  0
TABLE
  2
VIEW
  5
7
330
0
100
AcDbSymbolTable
 70
0
  0
ENDTAB
  0
TABLE
  2
UCS
  5
6
330
0
100
AcDbSymbolTable
 70
0
  0
ENDTAB
  0
TABLE
  2
APPID
  5
3
330
0
100
AcDbSymbolTable
 70
3
  0
APPID
  5
2A
330
3
100
AcDbSymbolTableRecord
100
AcDbRegAppTableRecord
  2
ACAD
 70
0
  0
APPID
  5
CD
330
3
100
AcDbSymbolTableRecord
100
AcDbRegAppTableRecord
  2
HATCHBACKGROUNDCOLOR
 70
0
  0
APPID
  5
CE
330
3
100
AcDbSymbolTableRecord
100
AcDbRegAppTableRecord
  2
EZDXF
 70
0
  0
ENDTAB
  0
TABLE
  2
DIMSTYLE
  5
4
330
0
100
AcDbSymbolTable
 70
12
100
AcDbDimStyleTable
  0
DIMSTYLE
105
2B
330
4
100
AcDbSymbolTableRecord
100
AcDbDimStyleTableRecord
  2
Standard
 70
0
 40
1.0
 41
2.5
 42
0.625
 43
3.75
 44
1.25
 45
0.0
 46
0.0
 47
0.0
 48
0.0
 49
2.5
140
2.5
141
2.5
142
0.0
143
0.03937007874
144
1.0
145
0.0
146
1.0
147
0.625
148
0.0
 69
0
 70
0
 71
0
 72
0
 73
0
 74
0
 75
0
 76
0
 77
1
 78
8
 79
3
170
0
171
3
172
1
173
0
174
0
175
0
176
0
177
0
178
0
179
2
271
2
272
2
273
2
274
3
275
0
276
0
277
2
278
44
279
0
280
0
281
0
282
0
283
0
284
8
285
0
286
0
288
0
289
3
290
0
371
-2
372
-2
  0
DIMSTYLE
105
73
330
4
100
AcDbSymbolTableRecord
100
AcDbDimStyleTableRecord
  2
EZDXF
 70
0
 40
1.0
 41
0.175
 42
0.125
 43
3.75
 44
0.375
 45
0.0
 46
0.0
 47
0.0
 48
0.0
 49
2.5
140
0.25
141
2.5
142
0.0
143
0.03937007874
144
100.0
145
0.0
146
0.5
147
0.1
148
0.0
 69
0
 70
0
 71
0
 72
0
 73
0
 74
0
 75
0
 76
0
 77
1
 78
12
 79
3
170
0
171
3
172
1
173
0
174
0
175
0
176
0
177
0
178
0
179
2
271
2
272
2
273
2
274
3
275
0
276
0
277
2
278
46
279
2
280
0
281
0
282
0
283
0
284
8
285
0
286
0
288
1
289
3
290
0
340
4C
342
74
371
-2
372
-2
  0
DIMSTYLE
105
7C
330
4
100
AcDbSymbolTableRecord
100
AcDbDimStyleTableRecord
  2
EZ_M_100_H25_CM
 70
0
 40
1.0
 41
0.25
 42
0.125
 43
3.75
 44
0.375
 45
0.0
 46
0.0
 47
0.0
 48
0.0
 49
2.5
140
0.25
141
2.5
142
0.125
143
0.03937007874
144
100.0
145
0.0
146
0.5
147
0.1
148
0.0
 69
0
 70
0
 71
0
 72
0
 73
0
 74
0
 75
0
 76
0
 77
1
 78
12
 79
3
170
0
171
3
172
1
173
0
174
0
175
0
176
0
177
0
178
0
179
2
271
2
272
2
273
2
274
3
275
0
276
0
277
2
278
46
279
2
280
0
281
0
282
0
283
0
284
8
285
0
286
0
288
1
289
3
290
0
340
4C
371
-2
372
-2
  0
DIMSTYLE
105
7D
330
4
100
AcDbSymbolTableRecord
100
AcDbDimStyleTableRecord
  2
EZ_M_50_H25_CM
 70
0
 40
1.0
 41
0.125
 42
0.0625
 43
3.75
 44
0.1875
 45
0.0
 46
0.0
 47
0.0
 48
0.0
 49
2.5
140
0.125
141
2.5
142
0.0625
143
0.03937007874
144
100.0
145
0.0
146
0.5
147
0.05
148
0.0
 69
0
 70
0
 71
0
 72
0
 73
0
 74
0
 75
0
 76
0
 77
1
 78
12
 79
3
170
0
171
3
172
1
173
0
174
0
175
0
176
0
177
0
178
0
179
2
271
2
272
2
273
2
274
3
275
0
276
0
277
2
278
46
279
2
280
0
281
0
282
0
283
0
284
8
285
0
286
0
288
1
289
3
290
0
340
4C
371
-2
372
-2
  0
DIMSTYLE
105
7E
330
4
100
AcDbSymbolTableRecord
100
AcDbDimStyleTableRecord
  2
EZ_M_25_H25_CM
 70
0
 40
1.0
 41
0.0625
 42
0.03125
 43
3.75
 44
0.09375
 45
0.0
 46
0.0
 47
0.0
 48
0.0
 49
2.5
140
0.0625
141
2.5
142
0.03125
143
0.03937007874
144
100.0
145
0.0
146
0.5
147
0.025
148
0.0
 69
0
 70
0
 71
0
 72
0
 73
0
 74
0
 75
0
 76
0
 77
1
 78
12
 79
3
170
0
171
3
172
1
173
0
174
0
175
0
176
0
177
0
178
0
179
2
271
2
272
2
273
2
274
3
275
0
276
0
277
2
278
46
279
2
280
0
281
0
282
0
283
0
284
8
285
0
286
0
288
1
289
3
290
0
340
4C
371
-2
372
-2
  0
DIMSTYLE
105
7F
330
4
100
AcDbSymbolTableRecord
100
AcDbDimStyleTableRecord
  2
EZ_M_20_H25_CM
 70
0
 40
1.0
 41
0.05
 42
0.025
 43
3.75
 44
0.07500000000000001
 45
0.0
 46
0.0
 47
0.0
 48
0.0
 49
2.5
140
0.05
141
2.5
142
0.025
143
0.03937007874
144
100.0
145
0.0
146
0.5
147
0.020000000000000004
148
0.0
 69
0
 70
0
 71
0
 72
0
 73
0
 74
0
 75
0
 76
0
 77
1
 78
12
 79
3
170
0
171
3
172
1
173
0
174
0
175
0
176
0
177
0
178
0
179
2
271
2
272
2
273
2
274
3
275
0
276
0
277
2
278
46
279
2
280
0
281
0
282
0
283
0
284
8
285
0
286
0
288
1
289
3
290
0
340
4C
371
-2
372
-2
  0
DIMSTYLE
105
80
330
4
100
AcDbSymbolTableRecord
100
AcDbDimStyleTableRecord
  2
EZ_M_10_H25_CM
 70
0
 40
1.0
 41
0.025
 42
0.0125
 43
3.75
 44
0.037500000000000006
 45
0.0
 46
0.0
 47
0.0
 48
0.0
 49
2.5
140
0.025
141
2.5
142
0.0125
143
0.03937007874
144
100.0
145
0.0
146
0.5
147
0.010000000000000002
148
0.0
 69
0
 70
0
 71
0
 72
0
 73
0
 74
0
 75
0
 76
0
 77
1
 78
12
 79
3
170
0
171
3
172
1
173
0
174
0
175
0
176
0
177
0
178
0
179
2
271
2
272
2
273
2
274
3
275
0
276
0
277
2
278
46
279
2
280
0
281
0
282
0
283
0
284
8
285
0
286
0
288
1
289
3
290
0
340
4C
371
-2
372
-2
  0
DIMSTYLE
105
81
330
4
100
AcDbSymbolTableRecord
100
AcDbDimStyleTableRecord
  2
EZ_M_5_H25_CM
 70
0
 40
1.0
 41
0.0125
 42
0.00625
 43
3.75
 44
0.018750000000000003
 45
0.0
 46
0.0
 47
0.0
 48
0.0
 49
2.5
140
0.0125
141
2.5
142
0.00625
143
0.03937007874
144
100.0
145
0.0
146
0.5
147
0.005000000000000001
148
0.0
 69
0
 70
0
 71
0
 72
0
 73
0
 74
0
 75
0
 76
0
 77
1
 78
12
 79
3
170
0
171
3
172
1
173
0
174
0
175
0
176
0
177
0
178
0
179
2
271
2
272
2
273
2
274
3
275
0
276
0
277
2
278
46
279
2
280
0
281
0
282
0
283
0
284
8
285
0
286
0
288
1
289
3
290
0
340
4C
371
-2
372
-2
  0
DIMSTYLE
105
82
330
4
100
AcDbSymbolTableRecord
100
AcDbDimStyleTableRecord
  2
EZ_M_1_H25_CM
 70
0
 40
1.0
 41
0.0025
 42
0.00125
 43
3.75
 44
0.00375
 45
0.0
 46
0.0
 47
0.0
 48
0.0
 49
2.5
140
0.0025
141
2.5
142
0.00125
143
0.03937007874
144
100.0
145
0.0
146
0.5
147
0.001
148
0.0
 69
0
 70
0
 71
0
 72
0
 73
0
 74
0
 75
0
 76
0
 77
1
 78
12
 79
3
170
0
171
3
172
1
173
0
174
0
175
0
176
0
177
0
178
0
179
2
271
2
272
2
273
2
274
3
275
0
276
0
277
2
278
46
279
2
280
0
281
0
282
0
283
0
284
8
285
0
286
0
288
1
289
3
290
0
340
4C
371
-2
372
-2
  0
DIMSTYLE
105
83
330
4
100
AcDbSymbolTableRecord
100
AcDbDimStyleTableRecord
  2
EZ_RADIUS
 70
0
 40
1.0
 41
0.25
 42
0.125
 43
3.75
 44
0.375
 45
0.0
 46
0.0
 47
0.0
 48
0.0
 49
2.5
140
0.25
141
0.0
142
0.0
143
0.03937007874
144
100.0
145
0.0
146
0.5
147
0.1
148
0.0
 69
0
 70
0
 71
0
 72
0
 73
0
 74
0
 75
0
 76
0
 77
1
 78
12
 79
3
170
0
171
3
172
0
173
0
174
0
175
0
176
0
177
0
178
0
179
2
271
2
272
2
273
2
274
3
275
0
276
0
277
2
278
46
279
1
280
0
281
0
282
0
283
0
284
8
285
0
286
0
288
1
289
3
290
0
340
4C
342
84
371
-2
372
-2
  0
DIMSTYLE
105
88
330
4
100
AcDbSymbolTableRecord
100
AcDbDimStyleTableRecord
  2
EZ_RADIUS_INSIDE
 70
0
 40
1.0
 41
0.25
 42
0.125
 43
3.75
 44
0.375
 45
0.0
 46
0.0
 47
0.0
 48
0.0
 49
2.5
140
0.25
141
0.0
142
0.0
143
0.03937007874
144
100.0
145
0.0
146
0.5
147
0.1
148
0.0
 69
0
 70
0
 71
0
 72
0
 73
0
 74
0
 75
0
 76
0
 77
0
 78
12
 79
3
170
0
171
3
172
0
173
0
174
1
175
0
176
0
177
0
178
0
179
2
271
2
272
2
273
2
274
3
275
0
276
0
277
2
278
46
279
0
280
0
281
0
282
0
283
0
284
8
285
0
286
0
288
1
289
0
290
0
340
4C
342
84
371
-2
372
-2
  0
DIMSTYLE
105
89
330
4
100
AcDbSymbolTableRecord
100
AcDbDimStyleTableRecord
  2
EZ_CURVED
 70
0
 40
1.0
 41
0.25
 42
0.125
 43
3.75
 44
0.375
 45
0.0
 46
0.0
 47
0.0
 48
0.0
 49
2.5
140
0.25
141
2.5
142
0.0
143
0.03937007874
144
100.0
145
0.0
146
0.5
147
0.1
148
0.0
 69
0
 70
0
 71
0
 72
0
 73
0
 74
0
 75
0
 76
0
 77
1
 78
12
 79
2
 90
2
170
0
171
3
172
1
173
0
174
0
175
0
176
0
177
0
178
0
179
2
271
2
272
2
273
2
274
3
275
0
276
0
277
2
278
46
279
2
280
0
281
0
282
0
283
0
284
8
285
0
286
0
288
1
289
3
290
0
340
4C
371
-2
372
-2
  0
ENDTAB
  0
TABLE
  2
BLOCK_RECORD
  5
9
330
0
100
AcDbSymbolTable
 70
5
  0
BLOCK_RECORD
  5
17
330
9
100
AcDbSymbolTableRecord
100
AcDbBlockTableRecord
  2
*Model_Space
340
1A
 70
0
280
1
281
0
  0
BLOCK_RECORD
  5
1B
330
9
100
AcDbSymbolTableRecord
100
AcDbBlockTableRecord
  2
*Paper_Space
340
1E
 70
0
280
1
281
0
  0
BLOCK_RECORD
  5
74
330
9
100
AcDbSymbolTableRecord
100
AcDbBlockTableRecord
  2
_ARCHTICK
340
0
 70
0
280
1
281
0
  0
BLOCK_RECORD
  5
78
330
9
100
AcDbSymbolTableRecord
100
AcDbBlockTableRecord
  2
_CLOSEDFILLED
340
0
 70
0
280
1
281
0
  0
BLOCK_RECORD
  5
84
330
9
100
AcDbSymbolTableRecord
100
AcDbBlockTableRecord
  2
_CLOSEDBLANK
340
0
 70
0
280
1
281
0
  0
ENDTAB
  0
ENDSEC
  0
SECTION
  2
BLOCKS
  0
BLOCK
  5
18
330
17
100
AcDbEntity
  8
0
100
AcDbBlockBegin
  2
*Model_Space
 70
0
 10
0.0
 20
0.0
 30
0.0
  3
*Model_Space
  1

  0
ENDBLK
  5
19
330
17
100
AcDbEntity
  8
0
100
AcDbBlockEnd
  0
BLOCK
  5
1C
330
1B
100
AcDbEntity
  8
0
100
AcDbBlockBegin
  2
*Paper_Space
 70
0
 10
0.0
 20
0.0
 30
0.0
  3
*Paper_Space
  1

  0
ENDBLK
  5
1D
330
1B
100
AcDbEntity
  8
0
100
AcDbBlockEnd
  0
BLOCK
  5
75
330
74
100
AcDbEntity
  8
0
100
AcDbBlockBegin
  2
_ARCHTICK
 70
0
 10
0.0
 20
0.0
 30
0.0
  3
_ARCHTICK
  1

  0
LWPOLYLINE
  5
77
330
74
100
AcDbEntity
  8
0
  6
BYBLOCK
 62
0
100
AcDbPolyline
 90
2
 70
0
 43
0.15
 10
-0.5
 20
-0.5
 10
0.5
 20
0.5
  0
ENDBLK
  5
76
330
74
100
AcDbEntity
  8
0
100
AcDbBlockEnd
  0
BLOCK
  5
79
330
78
100
AcDbEntity
  8
0
100
AcDbBlockBegin
  2
_CLOSEDFILLED
 70
0
 10
0.0
 20
0.0
 30
0.0
  3
_CLOSEDFILLED
  1

  0
SOLID
  5
7B
330
78
100
AcDbEntity
  8
0
  6
BYBLOCK
 62
0
100
AcDbTrace
 10
-1.0
 20
0.16439898372402537
 30
0.0
 11
0.0
 21
0.0
 31
0.0
 12
-1.0
 22
-0.16439898372402537
 32
0.0
 13
-1.0
 23
-0.16439898372402537
 33
0.0
  0
ENDBLK
  5
7A
330
78
100
AcDbEntity
  8
0
100
AcDbBlockEnd
  0
BLOCK
  5
85
330
84
100
AcDbEntity
  8
0
100
AcDbBlockBegin
  2
_CLOSEDBLANK
 70
0
 10
0.0
 20
0.0
 30
0.0
  3
_CLOSEDBLANK
  1

  0
LWPOLYLINE
  5
87
330
84
100
AcDbEntity
  8
0
  6
BYBLOCK
 62
0
100
AcDbPolyline
 90
3
 70
1
 10
-1.0
 20
0.16439898372402537
 10
0.0
 20
0.0
 10
-1.0
 20
-0.16439898372402537
  0
ENDBLK
  5
86
330
84
100
AcDbEntity
  8
0
100
AcDbBlockEnd
  0
ENDSEC
  0
SECTION
  2
ENTITIES
  0
LWPOLYLINE
  5
8E
330
17
100
AcDbEntity
  8
CORTE
100
AcDbPolyline
 90
482
 70
1
 10
25.406687144060385
 20
-10.523794390039969
 10
25.231098652306013
 20
-10.938083049492803
 10
25.048755185332332
 20
-11.349443319620853
 10
24.859705560894692
 20
-11.757765069332756
 10
24.66400039214893
 20
-12.162938981022535
 10
24.46169207410104
 20
-12.564856579836567
 10
24.252834769579763
 20
-12.963410262714934
 10
24.03748439473587
 20
-13.358493327199351
 10
23.815698604072065
 20
-13.749999999999998
 10
23.587536775007482
 20
-14.137825465313595
 10
23.35305999198092
 20
-14.521865892885117
 10
23.112331030097046
 20
-14.90201846580567
 10
22.865414338319994
 20
-15.27818140803906
 10
22.612376022218815
 20
-15.650254011669702
 10
22.35328382626942
 20
-16.01813666386456
 10
22.088207115717736
 20
-16.381730873541915
 10
21.81721685800897
 20
-16.740939297739814
 10
21.54038560378789
 20
-17.095665767677126
 10
21.257787467475268
 20
-17.44581531450025
 10
20.969498107425675
 20
-17.791294194708573
 10
20.675594705671877
 20
-18.132009915251892
 10
20.376155947261374
 20
-18.467871258293005
 10
20.071261999190483
 20
-18.79878830562896
 10
19.760994488941698
 20
-19.12467246276432
 10
19.445436482630058
 20
-19.445436482630054
 10
19.12467246276432
 20
-19.760994488941694
 10
18.798788305628964
 20
-20.07126199919048
 10
18.46787125829301
 20
-20.376155947261374
 10
18.132009915251896
 20
-20.675594705671877
 10
17.79129419470858
 20
-20.96949810742567
 10
17.61709322455531
 20
-21.114862380272747
 10
15.364800057368916
 20
-14.183016778730865
 10
15.055933131600678
 20
-14.283373726427872
 10
14.719681942408481
 20
-14.299450577407276
 10
14.376354352044245
 20
-14.293748504997055
 10
14.03434722294779
 20
-14.29211039449216
 10
13.69364521455729
 20
-14.294489032498014
 10
13.354233813453442
 20
-14.30083975130295
 10
13.01609929621624
 20
-14.311120314563137
 10
12.679228695086273
 20
-14.325290811618958
 10
12.343609766211731
 20
-14.343313559769218
 10
12.009230960284015
 20
-14.365153013897002
 10
11.67608139538448
 20
-14.390775682900443
 10
11.344150831882093
 20
-14.420150052435673
 10
11.013429649237423
 20
-14.453246513526885
 10
10.683908824582552
 20
-14.490037296642013
 10
10.355579912958861
 20
-14.53049641087095
 10
10.028435029106316
 20
-14.574599587878684
 10
9.70246683070802
 20
-14.622324230337417
 10
9.377668503003322
 20
-14.673649364570451
 10
9.0540337446911
 20
-14.728555597167071
 10
8.731556755052871
 20
-14.78702507535149
 10
8.410232222232306
 20
-14.849041450910947
 10
8.090055312614439
 20
-14.91458984750822
 10
7.771021661253773
 20
-14.983656831222431
 10
7.453127363306242
 20
-15.056230384179266
 10
7.136368966425033
 20
-15.132299881147782
 10
6.820743464085313
 20
-15.21185606899599
 10
6.506248289807351
 20
-15.294891048911483
 10
6.19288131225194
 20
-15.381398261306657
 10
5.8806408311660725
 20
-15.47137247334084
 10
5.569525574160846
 20
-15.564809769003642
 10
5.259534694307196
 20
-15.661707541715433
 10
4.950667768538961
 20
-15.76206448941244
 10
4.642924796856137
 20
-15.865880612094662
 10
4.336306202324893
 20
-15.973157211825875
 10
4.0308128318742895
 20
-16.083896895185703
 10
3.7264459578932314
 20
-16.198103578184543
 10
3.423207280634721
 20
-16.315782493663065
 10
3.1210989314379702
 20
-16.43694020120887
 10
2.820123476782708
 20
-16.561584599634365
 10
2.520283923193768
 20
-16.689724942071546
 10
2.221583723017961
 20
-16.821371853751348
 10
1.9240267810993585
 20
-16.95653735254809
 10
1.6276174623834523
 20
-17.095234872382644
 10
1.3323606004852109
 20
-17.237479289592237
 10
1.0382615072609607
 20
-17.383286952389632
 10
0.745325983429189
 20
-17.53267571355061
 10
0.45356033029101006
 20
-17.68566496648589
 10
0.16297136260708722
 20
-17.842275684872167
 10
-0.1264335773056926
 20
-18.002530466037246
 10
-0.41464660418729427
 20
-18.16645357831613
 10
-0.7016592730790974
 20
-18.334071012618935
 10
-0.9874625611131798
 20
-18.505410538477715
 10
-1.272046847750115
 20
-18.68050176486829
 10
-1.555401893358872
 20
-18.859376206134517
 10
-1.8375168160207975
 20
-19.042067353378272
 10
-2.1183800664273065
 20
-19.228610751716463
 10
-2.397979400726573
 20
-19.41904408385029
 10
-2.676301851159196
 20
-19.613407260439367
 10
-2.953333694305168
 20
-19.81174251782753
 10
-3.2290604167451855
 20
-20.014094523726435
 10
-3.5034666779174204
 20
-20.220510491530668
 10
-3.784949340261692
 20
-20.40514753594528
 10
-4.093816266029927
 20
-20.505504483642284
 10
-1.8413223353943655
 20
-27.437967971546538
 10
-2.247329538675869
 20
-27.408019081002458
 10
-2.695471359062912
 20
-27.367579983485417
 10
-3.142891536588274
 20
-27.31981392303472
 10
-3.5894702860514127
 20
-27.26473368777979
 10
-4.035088047522445
 20
-27.20235402403148
 10
-4.479625518351184
 20
-27.132691632334176
 10
-4.922963685107394
 20
-27.055765162994632
 10
-5.364983855443519
 20
-26.97159521108884
 10
-5.805567689871537
 20
-26.880204310948226
 10
-6.244597233445261
 20
-26.781616930126674
 10
-6.68195494733975
 20
-26.675859462849964
 10
-7.117523740319317
 20
-26.56296022294938
 10
-7.5511870000856325
 20
-26.442949436281456
 10
-7.982828624497709
 20
-26.315859232635745
 10
-8.412333052655212
 20
-26.181723637132922
 10
-8.839585295836937
 20
-26.040578561115407
 10
-9.264470968286048
 20
-25.892461792533073
 10
-9.686876317833915
 20
-25.73741298582646
 10
-10.106688256354342
 20
-25.575473651310336
 10
-10.523794390039962
 20
-25.40668714406039
 10
-10.938083049492798
 20
-25.231098652306013
 10
-11.349443319620852
 20
-25.048755185332336
 10
-11.757765069332752
 20
-24.859705560894696
 10
-12.162938981022531
 20
-24.66400039214893
 10
-12.564856579836567
 20
-24.46169207410104
 10
-12.963410262714927
 20
-24.25283476957977
 10
-13.358493327199342
 20
-24.037484394735873
 10
-13.749999999999995
 20
-23.815698604072065
 10
-14.137825465313595
 20
-23.587536775007482
 10
-14.52186589288512
 20
-23.35305999198092
 10
-14.637569009203386
 20
-23.279791801622398
 10
-8.740866195235323
 20
-18.995586432265718
 10
-8.931756453360784
 20
-18.73284853218776
 10
-9.050953779085429
 20
-18.418022667763193
 10
-9.151624846023653
 20
-18.08973668844546
 10
-9.255752925441751
 20
-17.7639623757142
 10
-9.363297855227465
 20
-17.440670550086843
 10
-9.474221638755758
 20
-17.119833605399386
 10
-9.58848834764661
 20
-16.80142543815577
 10
-9.70606403186515
 20
-16.48542138221184
 10
-9.826916636591152
 20
-16.171798148377476
 10
-9.95101592534218
 20
-15.860533768562288
 10
-10.07833340888535
 20
-15.551607544126998
 10
-10.208842279518583
 20
-15.244999998135965
 10
-10.342517350342671
 20
-14.940692831235765
 10
-10.47933499918272
 20
-14.638668880911737
 10
-10.619273116850028
 20
-14.338912083898027
 10
-10.762311059465812
 20
-14.041407441538759
 10
-10.908429604594904
 20
-13.746140987917286
 10
-11.057610910962268
 20
-13.453099760588547
 10
-11.209838481547406
 20
-13.16227177376556
 10
-11.365097129872161
 20
-12.873645993826099
 10
-11.523372949316137
 20
-12.587212317019015
 10
-11.684653285311043
 20
-12.302961549262283
 10
-11.848926710281232
 20
-12.020885387936197
 10
-12.016183001212202
 20
-11.740976405585956
 10
-12.186413119742662
 20
-11.4632280354577
 10
-12.359609194688405
 20
-11.18763455880136
 10
-12.535764506918273
 20
-10.914191093882394
 10
-12.714873476513768
 20
-10.642893586652715
 10
-12.896931652154741
 20
-10.373738803038925
 10
-13.08193570268379
 20
-10.106724322813504
 10
-13.269883410811845
 20
-9.841848535021649
 10
-13.460773668937305
 20
-9.579110634943689
 10
-13.654606477060172
 20
-9.318510622579627
 10
-13.851382942782044
 20
-9.060049302649128
 10
-14.051105283391989
 20
-8.803728286106999
 10
-14.253776830047414
 20
-8.549549993180763
 10
-14.459402034068468
 20
-8.297517657943809
 10
-14.667986475373645
 20
-8.047635334444232
 10
-14.879536873094107
 20
-7.799907904416568
 10
-15.094061098414057
 20
-7.55434108661089
 10
-15.311568189694789
 20
-7.310941447781059
 10
-15.532068369950801
 20
-7.069716415381873
 10
-15.755573066757748
 20
-6.830674292033038
 10
-15.982094934683914
 20
-6.593824271816581
 10
-16.211647880349695
 20
-6.359176458483649
 10
-16.44424709023325
 20
-6.126741885656471
 10
-16.67990906135508
 20
-5.896532539122024
 10
-16.918651634990216
 20
-5.668561381325376
 10
-17.16049403357383
 20
-5.442842378183168
 10
-17.405456900984703
 20
-5.219390528351275
 10
-17.653562346411533
 20
-4.998221895095556
 10
-17.90483399202922
 20
-4.779353640930672
 10
-18.159297024736972
 20
-4.562804065210044
 10
-18.416978252236866
 20
-4.3485926448693135
 10
-18.677906163761783
 20
-4.136740078547761
 10
-18.942110995794163
 20
-3.9272683343357713
 10
-19.20962480315423
 20
-3.720200701423468
 10
-19.480481535876862
 20
-3.515561845955009
 10
-19.75471712234207
 20
-3.3133778714264475
 10
-20.03236955917489
 20
-3.1136763840017867
 10
-20.313479008487583
 20
-2.916486563163602
 10
-20.57606219901386
 20
-2.7058366274322516
 10
-20.766952457139322
 20
-2.4430987273542915
 10
-26.664033714896977
 20
-6.727579052218568
 10
-26.67585946284996
 20
-6.6819549473397615
 10
-26.78161693012667
 20
-6.244597233445277
 10
-26.880204310948223
 20
-5.805567689871554
 10
-26.971595211088836
 20
-5.364983855443537
 10
-27.05576516299463
 20
-4.922963685107405
 10
-27.132691632334172
 20
-4.479625518351194
 10
-27.202354024031475
 20
-4.0350880475224615
 10
-27.264733687779785
 20
-3.5894702860514296
 10
-27.31981392303472
 20
-3.1428915365882846
 10
-27.367579983485413
 20
-2.695471359062923
 10
-27.408019081002458
 20
-2.24732953867588
 10
-27.441120389061595
 20
-1.798586053828948
 10
-27.46687504564224
 20
-1.3493610440040062
 10
-27.485276155600058
 20
-0.8997747775988524
 10
-27.496318792512948
 20
-0.44994761972839237
 10
-27.5
 20
0.0
 10
-27.496318792512948
 20
0.4499476197283735
 10
-27.485276155600058
 20
0.8997747775988335
 10
-27.46687504564224
 20
1.3493610440039874
 10
-27.441120389061595
 20
1.7985860538289289
 10
-27.408019081002458
 20
2.2473295386758614
 10
-27.367579983485417
 20
2.695471359062904
 10
-27.319813923034722
 20
3.142891536588266
 10
-27.26473368777979
 20
3.5894702860514114
 10
-27.20235402403148
 20
4.035088047522444
 10
-27.132691632334176
 20
4.479625518351176
 10
-27.055765162994632
 20
4.922963685107387
 10
-26.97159521108884
 20
5.364983855443517
 10
-26.880204310948226
 20
5.805567689871535
 10
-26.781616930126674
 20
6.244597233445258
 10
-26.675859462849964
 20
6.681954947339743
 10
-26.664033714896973
 20
6.727579052218576
 10
-20.766952457139322
 20
2.443098727354297
 10
-20.576062199013858
 20
2.7058366274322587
 10
-20.313479008487583
 20
2.916486563163608
 10
-20.03236955917488
 20
3.1136763840017947
 10
-19.754717122342065
 20
3.3133778714264546
 10
-19.480481535876855
 20
3.515561845955019
 10
-19.209624803154227
 20
3.720200701423475
 10
-18.942110995794163
 20
3.9272683343357766
 10
-18.67790616376178
 20
4.136740078547768
 10
-18.416978252236863
 20
4.348592644869321
 10
-18.159297024736965
 20
4.562804065210051
 10
-17.904833992029218
 20
4.779353640930678
 10
-17.653562346411533
 20
4.998221895095561
 10
-17.405456900984696
 20
5.219390528351284
 10
-17.160494033573826
 20
5.442842378183174
 10
-16.918651634990212
 20
5.668561381325383
 10
-16.679909061355076
 20
5.896532539122029
 10
-16.444247090233247
 20
6.126741885656478
 10
-16.21164788034969
 20
6.359176458483656
 10
-15.982094934683909
 20
6.593824271816589
 10
-15.755573066757744
 20
6.830674292033043
 10
-15.532068369950798
 20
7.069716415381879
 10
-15.311568189694786
 20
7.3109414477810635
 10
-15.094061098414054
 20
7.554341086610895
 10
-14.879536873094104
 20
7.799907904416574
 10
-14.667986475373642
 20
8.047635334444237
 10
-14.459402034068463
 20
8.297517657943814
 10
-14.25377683004741
 20
8.549549993180769
 10
-14.051105283391983
 20
8.803728286107004
 10
-13.851382942782038
 20
9.060049302649134
 10
-13.654606477060167
 20
9.318510622579632
 10
-13.460773668937302
 20
9.579110634943694
 10
-13.269883410811842
 20
9.841848535021654
 10
-13.081935702683785
 20
10.106724322813509
 10
-12.896931652154736
 20
10.37373880303893
 10
-12.714873476513763
 20
10.642893586652717
 10
-12.535764506918268
 20
10.9141910938824
 10
-12.3596091946884
 20
11.187634558801363
 10
-12.186413119742657
 20
11.463228035457705
 10
-12.016183001212198
 20
11.740976405585961
 10
-11.848926710281228
 20
12.0208853879362
 10
-11.68465328531104
 20
12.302961549262287
 10
-11.52337294931613
 20
12.58721231701902
 10
-11.365097129872156
 20
12.873645993826102
 10
-11.2098384815474
 20
13.162271773765566
 10
-11.057610910962262
 20
13.453099760588552
 10
-10.908429604594899
 20
13.746140987917292
 10
-10.762311059465807
 20
14.041407441538762
 10
-10.619273116850021
 20
14.338912083898032
 10
-10.479334999182715
 20
14.638668880911741
 10
-10.342517350342664
 20
14.940692831235769
 10
-10.208842279518578
 20
15.244999998135967
 10
-10.078333408885344
 20
15.551607544127002
 10
-9.951015925342173
 20
15.860533768562291
 10
-9.826916636591147
 20
16.17179814837748
 10
-9.706064031865145
 20
16.485421382211843
 10
-9.588488347646603
 20
16.801425438155775
 10
-9.47422163875575
 20
17.11983360539939
 10
-9.363297855227458
 20
17.44067055008685
 10
-9.255752925441746
 20
17.763962375714204
 10
-9.151624846023644
 20
18.089736688445463
 10
-9.050953779085422
 20
18.418022667763193
 10
-8.931756453360778
 20
18.73284853218776
 10
-8.740866195235316
 20
18.99558643226572
 10
-14.637569009203375
 20
23.2797918016224
 10
-14.521865892885135
 20
23.35305999198091
 10
-14.137825465313599
 20
23.58753677500748
 10
-13.750000000000012
 20
23.815698604072054
 10
-13.35849332719937
 20
24.03748439473586
 10
-12.963410262714941
 20
24.25283476957976
 10
-12.564856579836583
 20
24.461692074101034
 10
-12.162938981022537
 20
24.664000392148928
 10
-11.757765069332768
 20
24.859705560894685
 10
-11.349443319620875
 20
25.048755185332325
 10
-10.93808304949281
 20
25.23109865230601
 10
-10.523794390039985
 20
25.406687144060378
 10
-10.106688256354351
 20
25.575473651310332
 10
-9.686876317833933
 20
25.737412985826452
 10
-9.264470968286071
 20
25.892461792533062
 10
-8.83958529583695
 20
26.040578561115403
 10
-8.412333052655235
 20
26.18172363713291
 10
-7.982828624497717
 20
26.31585923263574
 10
-7.55118700008565
 20
26.44294943628145
 10
-7.117523740319342
 20
26.56296022294937
 10
-6.681954947339763
 20
26.67585946284996
 10
-6.244597233445279
 20
26.78161693012667
 10
-5.805567689871568
 20
26.880204310948223
 10
-5.364983855443538
 20
26.971595211088832
 10
-4.922963685107419
 20
27.055765162994625
 10
-4.479625518351196
 20
27.132691632334172
 10
-4.035088047522463
 20
27.202354024031475
 10
-3.5894702860514434
 20
27.26473368777978
 10
-3.1428915365882863
 20
27.31981392303472
 10
-2.6954713590629367
 20
27.367579983485413
 10
-2.247329538675882
 20
27.408019081002458
 10
-1.8413223353943575
 20
27.437967971546538
 10
-4.093816266029924
 20
20.505504483642284
 10
-3.7849493402616865
 20
20.405147535945275
 10
-3.503466677917414
 20
20.220510491530668
 10
-3.2290604167451766
 20
20.014094523726435
 10
-2.9533336943051616
 20
19.81174251782753
 10
-2.676301851159188
 20
19.613407260439363
 10
-2.397979400726566
 20
19.419044083850288
 10
-2.118380066427302
 20
19.228610751716467
 10
-1.8375168160207913
 20
19.04206735337827
 10
-1.5554018933588658
 20
18.859376206134517
 10
-1.2720468477501088
 20
18.68050176486829
 10
-0.9874625611131735
 20
18.505410538477715
 10
-0.7016592730790929
 20
18.33407101261893
 10
-0.41464660418728716
 20
18.16645357831613
 10
-0.1264335773056855
 20
18.002530466037246
 10
0.16297136260709433
 20
17.842275684872163
 10
0.4535603302910154
 20
17.68566496648589
 10
0.7453259834291943
 20
17.532675713550613
 10
1.0382615072609669
 20
17.38328695238963
 10
1.3323606004852175
 20
17.237479289592237
 10
1.627617462383458
 20
17.095234872382644
 10
1.9240267810993648
 20
16.956537352548086
 10
2.2215837230179654
 20
16.821371853751344
 10
2.5202839231937726
 20
16.689724942071543
 10
2.8201234767827135
 20
16.561584599634365
 10
3.121098931437977
 20
16.436940201208866
 10
3.4232072806347276
 20
16.31578249366306
 10
3.7264459578932367
 20
16.19810357818454
 10
4.030812831874293
 20
16.083896895185703
 10
4.336306202324899
 20
15.973157211825871
 10
4.642924796856143
 20
15.865880612094658
 10
4.950667768538966
 20
15.762064489412436
 10
5.259534694307201
 20
15.66170754171543
 10
5.569525574160851
 20
15.564809769003638
 10
5.880640831166078
 20
15.471372473340837
 10
6.192881312251943
 20
15.381398261306655
 10
6.506248289807356
 20
15.29489104891148
 10
6.820743464085318
 20
15.211856068995987
 10
7.136368966425039
 20
15.132299881147778
 10
7.453127363306248
 20
15.056230384179262
 10
7.771021661253778
 20
14.98365683122243
 10
8.090055312614442
 20
14.914589847508216
 10
8.410232222232311
 20
14.849041450910942
 10
8.731556755052875
 20
14.787025075351487
 10
9.054033744691107
 20
14.72855559716707
 10
9.377668503003328
 20
14.673649364570448
 10
9.702466830708026
 20
14.622324230337417
 10
10.02843502910632
 20
14.574599587878684
 10
10.355579912958868
 20
14.530496410870942
 10
10.68390882458256
 20
14.490037296642011
 10
11.013429649237427
 20
14.45324651352688
 10
11.344150831882096
 20
14.42015005243567
 10
11.676081395384486
 20
14.390775682900436
 10
12.00923096028402
 20
14.365153013897
 10
12.343609766211735
 20
14.34331355976921
 10
12.679228695086278
 20
14.325290811618952
 10
13.016099296216243
 20
14.311120314563135
 10
13.354233813453448
 20
14.300839751302945
 10
13.693645214557296
 20
14.294489032498007
 10
14.034347222947796
 20
14.292110394492159
 10
14.376354352044249
 20
14.293748504997051
 10
14.719681942408483
 20
14.29945057740727
 10
15.055933131600684
 20
14.283373726427866
 10
15.36480005736892
 20
14.18301677873086
 10
17.617093224555315
 20
21.11486238027274
 10
17.791294194708573
 20
20.96949810742568
 10
18.13200991525188
 20
20.67559470567189
 10
18.467871258292984
 20
20.376155947261395
 10
18.798788305628953
 20
20.071261999190487
 10
19.124672462764305
 20
19.76099448894171
 10
19.44543648263005
 20
19.44543648263006
 10
19.760994488941684
 20
19.12467246276433
 10
20.071261999190465
 20
18.798788305628978
 10
20.37615594726137
 20
18.467871258293012
 10
20.675594705671866
 20
18.13200991525191
 10
20.969498107425668
 20
17.79129419470858
 10
21.257787467475257
 20
17.445815314500262
 10
21.540385603787872
 20
17.095665767677147
 10
21.817216858008962
 20
16.740939297739825
 10
22.088207115717722
 20
16.381730873541933
 10
22.353283826269415
 20
16.018136663864563
 10
22.612376022218807
 20
15.650254011669714
 10
22.865414338319983
 20
15.278181408039082
 10
23.112331030097042
 20
14.902018465805682
 10
23.35305999198091
 20
14.521865892885135
 10
23.587536775007468
 20
14.137825465313623
 10
23.815698604072054
 20
13.750000000000012
 10
24.03748439473586
 20
13.358493327199373
 10
24.252834769579756
 20
12.963410262714943
 10
24.461692074101034
 20
12.564856579836585
 10
24.664000392148914
 20
12.16293898102256
 10
24.859705560894685
 20
11.75776506933277
 10
25.048755185332325
 20
11.349443319620876
 10
25.231098652306006
 20
10.938083049492812
 10
25.406687144060378
 20
10.523794390039987
 10
25.525574220848977
 20
10.23
 10
18.236834861035646
 20
10.23
 10
18.236834861035646
 20
9.905238095238094
 10
18.14821752308194
 20
9.58047619047619
 10
18.036700469899465
 20
9.255714285714284
 10
17.929456519141183
 20
8.93095238095238
 10
17.826436027706215
 20
8.606190476190474
 10
17.727592029183107
 20
8.28142857142857
 10
17.63288011365183
 20
7.956666666666667
 10
17.542258316561444
 20
7.63190476190476
 10
17.455687015975144
 20
7.307142857142857
 10
17.373128837545238
 20
6.98238095238095
 10
17.294548566643257
 20
6.657619047619047
 10
17.21991306712711
 20
6.332857142857144
 10
17.14919120627723
 20
6.008095238095237
 10
17.082353785479675
 20
5.683333333333332
 10
17.019373476274282
 20
5.358571428571427
 10
16.960224761423554
 20
5.0338095238095235
 10
16.90488388069093
 20
4.7090476190476185
 10
16.853328781047665
 20
4.3842857142857135
 10
16.805539071054994
 20
4.059523809523808
 10
16.761495979193576
 20
3.7347619047619034
 10
16.72118231593526
 20
3.4099999999999984
 10
16.684582439373422
 20
3.085238095238095
 10
16.651682224247736
 20
2.76047619047619
 10
16.622469034217346
 20
2.435714285714285
 10
16.59693169725329
 20
2.11095238095238
 10
16.575060484036825
 20
1.786190476190475
 10
16.55684708926509
 20
1.46142857142857
 10
16.542284615779515
 20
1.1366666666666667
 10
16.531367561445805
 20
0.8119047619047617
 10
16.524091808726965
 20
0.48714285714285666
 10
16.52045461690298
 20
0.16238095238095163
 10
16.52045461690298
 20
-0.1623809523809534
 10
16.524091808726965
 20
-0.48714285714285843
 10
16.531367561445805
 20
-0.8119047619047635
 10
16.542284615779515
 20
-1.1366666666666667
 10
16.55684708926509
 20
-1.4614285714285717
 10
16.575060484036825
 20
-1.7861904761904768
 10
16.59693169725329
 20
-2.110952380952382
 10
16.622469034217346
 20
-2.435714285714287
 10
16.651682224247736
 20
-2.760476190476191
 10
16.684582439373422
 20
-3.085238095238096
 10
16.72118231593526
 20
-3.410000000000001
 10
16.761495979193576
 20
-3.734761904761905
 10
16.805539071054994
 20
-4.05952380952381
 10
16.853328781047665
 20
-4.384285714285715
 10
16.90488388069093
 20
-4.709047619047619
 10
16.960224761423554
 20
-5.033809523809524
 10
17.019373476274282
 20
-5.358571428571429
 10
17.082353785479675
 20
-5.683333333333334
 10
17.14919120627723
 20
-6.008095238095239
 10
17.21991306712711
 20
-6.332857142857144
 10
17.294548566643257
 20
-6.657619047619049
 10
17.373128837545238
 20
-6.982380952380953
 10
17.455687015975144
 20
-7.307142857142858
 10
17.542258316561444
 20
-7.631904761904762
 10
17.63288011365183
 20
-7.956666666666667
 10
17.727592029183107
 20
-8.281428571428572
 10
17.826436027706215
 20
-8.606190476190477
 10
17.929456519141183
 20
-8.930952380952382
 10
18.036700469899465
 20
-9.255714285714287
 10
18.14821752308194
 20
-9.58047619047619
 10
18.236834861035646
 20
-9.905238095238095
 10
18.236834861035646
 20
-10.23
 10
25.525574220848977
 20
-10.23
 10
25.406687144060385
 20
-10.523794390039969
  0
LWPOLYLINE
  5
8F
330
17
100
AcDbEntity
  8
CORTE
100
AcDbPolyline
 90
7
 70
1
 10
-6.425000000000001
 20
3.7094754795433453
 10
-6.425
 20
-3.7094754795433467
 10
-1.3628391817615053e-15
 20
-7.4189509590866916
 10
6.424999999999998
 20
-3.709475479543349
 10
6.425000000000001
 20
3.7094754795433453
 10
4.542797272538352e-16
 20
7.4189509590866916
 10
-6.425000000000001
 20
3.7094754795433453
  0
CIRCLE
  5
90
330
17
100
AcDbEntity
  8
CORTE
100
AcDbCircle
 10
11.666025058886742
 20
8.475863338057463
 30
0.0
 40
1.6
  0
CIRCLE
  5
91
330
17
100
AcDbEntity
  8
AVELLANADO
100
AcDbCircle
 10
11.666025058886742
 20
8.475863338057463
 30
0.0
 40
2.8
  0
CIRCLE
  5
92
330
17
100
AcDbEntity
  8
CORTE
100
AcDbCircle
 10
-4.45602505888674
 20
13.714234964976116
 30
0.0
 40
1.6
  0
CIRCLE
  5
93
330
17
100
AcDbEntity
  8
AVELLANADO
100
AcDbCircle
 10
-4.45602505888674
 20
13.714234964976116
 30
0.0
 40
2.8
  0
CIRCLE
  5
94
330
17
100
AcDbEntity
  8
CORTE
100
AcDbCircle
 10
-14.42
 20
1.7659406843704834e-15
 30
0.0
 40
1.6
  0
CIRCLE
  5
95
330
17
100
AcDbEntity
  8
AVELLANADO
100
AcDbCircle
 10
-14.42
 20
1.7659406843704834e-15
 30
0.0
 40
2.8
  0
CIRCLE
  5
96
330
17
100
AcDbEntity
  8
CORTE
100
AcDbCircle
 10
-4.456025058886744
 20
-13.714234964976114
 30
0.0
 40
1.6
  0
CIRCLE
  5
97
330
17
100
AcDbEntity
  8
AVELLANADO
100
AcDbCircle
 10
-4.456025058886744
 20
-13.714234964976114
 30
0.0
 40
2.8
  0
CIRCLE
  5
98
330
17
100
AcDbEntity
  8
CORTE
100
AcDbCircle
 10
11.66602505888674
 20
-8.475863338057465
 30
0.0
 40
1.6
  0
CIRCLE
  5
99
330
17
100
AcDbEntity
  8
AVELLANADO
100
AcDbCircle
 10
11.66602505888674
 20
-8.475863338057465
 30
0.0
 40
2.8
  0
TEXT
  5
9A
330
17
100
AcDbEntity
  8
TEXTO
100
AcDbText
 10
0.0
 20
-33.5
 30
0.0
 40
2.5
  1
placa_ext_avellanada
 11
0.0
 21
-33.5
 31
0.0
100
AcDbText
  0
LWPOLYLINE
  5
9B
330
17
100
AcDbEntity
  8
CORTE
100
AcDbPolyline
 90
482
 70
1
 10
88.40668714406038
 20
-10.523794390039969
 10
88.23109865230602
 20
-10.938083049492803
 10
88.04875518533234
 20
-11.349443319620853
 10
87.8597055608947
 20
-11.757765069332756
 10
87.66400039214894
 20
-12.162938981022535
 10
87.46169207410104
 20
-12.564856579836567
 10
87.25283476957976
 20
-12.963410262714934
 10
87.03748439473587
 20
-13.358493327199351
 10
86.81569860407207
 20
-13.749999999999998
 10
86.58753677500748
 20
-14.137825465313595
 10
86.35305999198093
 20
-14.521865892885117
 10
86.11233103009704
 20
-14.90201846580567
 10
85.86541433832
 20
-15.27818140803906
 10
85.61237602221881
 20
-15.650254011669702
 10
85.35328382626942
 20
-16.01813666386456
 10
85.08820711571774
 20
-16.381730873541915
 10
84.81721685800898
 20
-16.740939297739814
 10
84.54038560378788
 20
-17.095665767677126
 10
84.25778746747527
 20
-17.44581531450025
 10
83.96949810742568
 20
-17.791294194708573
 10
83.67559470567187
 20
-18.132009915251892
 10
83.37615594726137
 20
-18.467871258293005
 10
83.07126199919048
 20
-18.79878830562896
 10
82.76099448894169
 20
-19.12467246276432
 10
82.44543648263006
 20
-19.445436482630054
 10
82.12467246276432
 20
-19.760994488941694
 10
81.79878830562896
 20
-20.07126199919048
 10
81.467871258293
 20
-20.376155947261374
 10
81.1320099152519
 20
-20.675594705671877
 10
80.79129419470858
 20
-20.96949810742567
 10
80.6170932245553
 20
-21.114862380272747
 10
78.36480005736891
 20
-14.183016778730865
 10
78.05593313160068
 20
-14.283373726427872
 10
77.71968194240849
 20
-14.299450577407276
 10
77.37635435204425
 20
-14.293748504997055
 10
77.03434722294779
 20
-14.29211039449216
 10
76.69364521455729
 20
-14.294489032498014
 10
76.35423381345345
 20
-14.30083975130295
 10
76.01609929621624
 20
-14.311120314563137
 10
75.67922869508627
 20
-14.325290811618958
 10
75.34360976621173
 20
-14.343313559769218
 10
75.00923096028401
 20
-14.365153013897002
 10
74.67608139538449
 20
-14.390775682900443
 10
74.34415083188209
 20
-14.420150052435673
 10
74.01342964923742
 20
-14.453246513526885
 10
73.68390882458255
 20
-14.490037296642013
 10
73.35557991295886
 20
-14.53049641087095
 10
73.02843502910632
 20
-14.574599587878684
 10
72.70246683070802
 20
-14.622324230337417
 10
72.37766850300332
 20
-14.673649364570451
 10
72.0540337446911
 20
-14.728555597167071
 10
71.73155675505288
 20
-14.78702507535149
 10
71.41023222223231
 20
-14.849041450910947
 10
71.09005531261444
 20
-14.91458984750822
 10
70.77102166125377
 20
-14.983656831222431
 10
70.45312736330624
 20
-15.056230384179266
 10
70.13636896642504
 20
-15.132299881147782
 10
69.82074346408531
 20
-15.21185606899599
 10
69.50624828980735
 20
-15.294891048911483
 10
69.19288131225194
 20
-15.381398261306657
 10
68.88064083116608
 20
-15.47137247334084
 10
68.56952557416085
 20
-15.564809769003642
 10
68.25953469430719
 20
-15.661707541715433
 10
67.95066776853896
 20
-15.76206448941244
 10
67.64292479685614
 20
-15.865880612094662
 10
67.33630620232489
 20
-15.973157211825875
 10
67.03081283187429
 20
-16.083896895185703
 10
66.72644595789323
 20
-16.198103578184543
 10
66.42320728063473
 20
-16.315782493663065
 10
66.12109893143797
 20
-16.43694020120887
 10
65.82012347678271
 20
-16.561584599634365
 10
65.52028392319377
 20
-16.689724942071546
 10
65.22158372301796
 20
-16.821371853751348
 10
64.92402678109936
 20
-16.95653735254809
 10
64.62761746238345
 20
-17.095234872382644
 10
64.33236060048522
 20
-17.237479289592237
 10
64.03826150726096
 20
-17.383286952389632
 10
63.74532598342919
 20
-17.53267571355061
 10
63.45356033029101
 20
-17.68566496648589
 10
63.16297136260709
 20
-17.842275684872167
 10
62.87356642269431
 20
-18.002530466037246
 10
62.5853533958127
 20
-18.16645357831613
 10
62.298340726920905
 20
-18.334071012618935
 10
62.012537438886824
 20
-18.505410538477715
 10
61.72795315224988
 20
-18.68050176486829
 10
61.44459810664113
 20
-18.859376206134517
 10
61.162483183979205
 20
-19.042067353378272
 10
60.88161993357269
 20
-19.228610751716463
 10
60.60202059927343
 20
-19.41904408385029
 10
60.323698148840805
 20
-19.613407260439367
 10
60.046666305694835
 20
-19.81174251782753
 10
59.770939583254815
 20
-20.014094523726435
 10
59.49653332208258
 20
-20.220510491530668
 10
59.21505065973831
 20
-20.40514753594528
 10
58.906183733970074
 20
-20.505504483642284
 10
61.158677664605634
 20
-27.437967971546538
 10
60.75267046132413
 20
-27.408019081002458
 10
60.304528640937086
 20
-27.367579983485417
 10
59.85710846341173
 20
-27.31981392303472
 10
59.410529713948584
 20
-27.26473368777979
 10
58.96491195247756
 20
-27.20235402403148
 10
58.520374481648815
 20
-27.132691632334176
 10
58.07703631489261
 20
-27.055765162994632
 10
57.63501614455648
 20
-26.97159521108884
 10
57.19443231012846
 20
-26.880204310948226
 10
56.75540276655474
 20
-26.781616930126674
 10
56.31804505266025
 20
-26.675859462849964
 10
55.882476259680686
 20
-26.56296022294938
 10
55.44881299991437
 20
-26.442949436281456
 10
55.01717137550229
 20
-26.315859232635745
 10
54.587666947344786
 20
-26.181723637132922
 10
54.16041470416306
 20
-26.040578561115407
 10
53.73552903171395
 20
-25.892461792533073
 10
53.313123682166086
 20
-25.73741298582646
 10
52.893311743645654
 20
-25.575473651310336
 10
52.47620560996004
 20
-25.40668714406039
 10
52.061916950507204
 20
-25.231098652306013
 10
51.65055668037915
 20
-25.048755185332336
 10
51.24223493066725
 20
-24.859705560894696
 10
50.837061018977465
 20
-24.66400039214893
 10
50.435143420163435
 20
-24.46169207410104
 10
50.03658973728507
 20
-24.25283476957977
 10
49.64150667280066
 20
-24.037484394735873
 10
49.25000000000001
 20
-23.815698604072065
 10
48.8621745346864
 20
-23.587536775007482
 10
48.47813410711488
 20
-23.35305999198092
 10
48.36243099079661
 20
-23.279791801622398
 10
54.25913380476467
 20
-18.995586432265718
 10
54.068243546639216
 20
-18.73284853218776
 10
53.94904622091457
 20
-18.418022667763193
 10
53.84837515397635
 20
-18.08973668844546
 10
53.744247074558245
 20
-17.7639623757142
 10
53.636702144772535
 20
-17.440670550086843
 10
53.52577836124424
 20
-17.119833605399386
 10
53.41151165235339
 20
-16.80142543815577
 10
53.293935968134846
 20
-16.48542138221184
 10
53.17308336340885
 20
-16.171798148377476
 10
53.048984074657824
 20
-15.860533768562288
 10
52.92166659111465
 20
-15.551607544126998
 10
52.791157720481415
 20
-15.244999998135965
 10
52.657482649657325
 20
-14.940692831235765
 10
52.52066500081728
 20
-14.638668880911737
 10
52.380726883149975
 20
-14.338912083898027
 10
52.237688940534184
 20
-14.041407441538759
 10
52.0915703954051
 20
-13.746140987917286
 10
51.94238908903773
 20
-13.453099760588547
 10
51.79016151845259
 20
-13.16227177376556
 10
51.63490287012784
 20
-12.873645993826099
 10
51.47662705068386
 20
-12.587212317019015
 10
51.31534671468896
 20
-12.302961549262283
 10
51.15107328971877
 20
-12.020885387936197
 10
50.9838169987878
 20
-11.740976405585956
 10
50.81358688025734
 20
-11.4632280354577
 10
50.6403908053116
 20
-11.18763455880136
 10
50.46423549308173
 20
-10.914191093882394
 10
50.285126523486234
 20
-10.642893586652715
 10
50.10306834784526
 20
-10.373738803038925
 10
49.91806429731621
 20
-10.106724322813504
 10
49.73011658918816
 20
-9.841848535021649
 10
49.53922633106269
 20
-9.579110634943689
 10
49.34539352293983
 20
-9.318510622579627
 10
49.148617057217955
 20
-9.060049302649128
 10
48.94889471660801
 20
-8.803728286106999
 10
48.746223169952586
 20
-8.549549993180763
 10
48.54059796593153
 20
-8.297517657943809
 10
48.332013524626355
 20
-8.047635334444232
 10
48.12046312690589
 20
-7.799907904416568
 10
47.90593890158594
 20
-7.55434108661089
 10
47.68843181030521
 20
-7.310941447781059
 10
47.4679316300492
 20
-7.069716415381873
 10
47.24442693324225
 20
-6.830674292033038
 10
47.017905065316086
 20
-6.593824271816581
 10
46.788352119650305
 20
-6.359176458483649
 10
46.55575290976675
 20
-6.126741885656471
 10
46.320090938644924
 20
-5.896532539122024
 10
46.08134836500979
 20
-5.668561381325376
 10
45.839505966426174
 20
-5.442842378183168
 10
45.5945430990153
 20
-5.219390528351275
 10
45.34643765358847
 20
-4.998221895095556
 10
45.095166007970775
 20
-4.779353640930672
 10
44.84070297526303
 20
-4.562804065210044
 10
44.583021747763134
 20
-4.3485926448693135
 10
44.32209383623822
 20
-4.136740078547761
 10
44.05788900420583
 20
-3.9272683343357713
 10
43.79037519684577
 20
-3.720200701423468
 10
43.51951846412314
 20
-3.515561845955009
 10
43.24528287765793
 20
-3.3133778714264475
 10
42.96763044082511
 20
-3.1136763840017867
 10
42.68652099151242
 20
-2.916486563163602
 10
42.42393780098614
 20
-2.7058366274322516
 10
42.233047542860675
 20
-2.4430987273542915
 10
36.33596628510303
 20
-6.727579052218568
 10
36.32414053715004
 20
-6.6819549473397615
 10
36.218383069873326
 20
-6.244597233445277
 10
36.11979568905178
 20
-5.805567689871554
 10
36.02840478891116
 20
-5.364983855443537
 10
35.94423483700537
 20
-4.922963685107405
 10
35.86730836766583
 20
-4.479625518351194
 10
35.79764597596852
 20
-4.0350880475224615
 10
35.73526631222022
 20
-3.5894702860514296
 10
35.680186076965285
 20
-3.1428915365882846
 10
35.63242001651459
 20
-2.695471359062923
 10
35.59198091899754
 20
-2.24732953867588
 10
35.558879610938405
 20
-1.798586053828948
 10
35.53312495435776
 20
-1.3493610440040062
 10
35.51472384439994
 20
-0.8997747775988524
 10
35.50368120748705
 20
-0.44994761972839237
 10
35.5
 20
0.0
 10
35.50368120748705
 20
0.4499476197283735
 10
35.51472384439994
 20
0.8997747775988335
 10
35.53312495435776
 20
1.3493610440039874
 10
35.558879610938405
 20
1.7985860538289289
 10
35.59198091899754
 20
2.2473295386758614
 10
35.63242001651459
 20
2.695471359062904
 10
35.68018607696528
 20
3.142891536588266
 10
35.73526631222021
 20
3.5894702860514114
 10
35.79764597596852
 20
4.035088047522444
 10
35.86730836766583
 20
4.479625518351176
 10
35.94423483700537
 20
4.922963685107387
 10
36.02840478891116
 20
5.364983855443517
 10
36.11979568905177
 20
5.805567689871535
 10
36.218383069873326
 20
6.244597233445258
 10
36.324140537150036
 20
6.681954947339743
 10
36.33596628510303
 20
6.727579052218576
 10
42.233047542860675
 20
2.443098727354297
 10
42.42393780098614
 20
2.7058366274322587
 10
42.68652099151242
 20
2.916486563163608
 10
42.96763044082512
 20
3.1136763840017947
 10
43.245282877657935
 20
3.3133778714264546
 10
43.519518464123145
 20
3.515561845955019
 10
43.79037519684577
 20
3.720200701423475
 10
44.05788900420583
 20
3.9272683343357766
 10
44.322093836238224
 20
4.136740078547768
 10
44.58302174776314
 20
4.348592644869321
 10
44.840702975263035
 20
4.562804065210051
 10
45.09516600797078
 20
4.779353640930678
 10
45.34643765358847
 20
4.998221895095561
 10
45.594543099015304
 20
5.219390528351284
 10
45.839505966426174
 20
5.442842378183174
 10
46.08134836500979
 20
5.668561381325383
 10
46.320090938644924
 20
5.896532539122029
 10
46.55575290976675
 20
6.126741885656478
 10
46.78835211965031
 20
6.359176458483656
 10
47.01790506531609
 20
6.593824271816589
 10
47.24442693324225
 20
6.830674292033043
 10
47.4679316300492
 20
7.069716415381879
 10
47.68843181030522
 20
7.3109414477810635
 10
47.90593890158595
 20
7.554341086610895
 10
48.120463126905896
 20
7.799907904416574
 10
48.33201352462636
 20
8.047635334444237
 10
48.54059796593154
 20
8.297517657943814
 10
48.746223169952586
 20
8.549549993180769
 10
48.94889471660802
 20
8.803728286107004
 10
49.14861705721796
 20
9.060049302649134
 10
49.34539352293983
 20
9.318510622579632
 10
49.5392263310627
 20
9.579110634943694
 10
49.73011658918816
 20
9.841848535021654
 10
49.918064297316214
 20
10.106724322813509
 10
50.103068347845266
 20
10.37373880303893
 10
50.28512652348624
 20
10.642893586652717
 10
50.46423549308173
 20
10.9141910938824
 10
50.6403908053116
 20
11.187634558801363
 10
50.81358688025735
 20
11.463228035457705
 10
50.9838169987878
 20
11.740976405585961
 10
51.151073289718774
 20
12.0208853879362
 10
51.31534671468896
 20
12.302961549262287
 10
51.476627050683874
 20
12.58721231701902
 10
51.634902870127846
 20
12.873645993826102
 10
51.7901615184526
 20
13.162271773765566
 10
51.94238908903774
 20
13.453099760588552
 10
52.0915703954051
 20
13.746140987917292
 10
52.23768894053419
 20
14.041407441538762
 10
52.380726883149975
 20
14.338912083898032
 10
52.52066500081729
 20
14.638668880911741
 10
52.65748264965734
 20
14.940692831235769
 10
52.79115772048142
 20
15.244999998135967
 10
52.92166659111466
 20
15.551607544127002
 10
53.048984074657824
 20
15.860533768562291
 10
53.17308336340885
 20
16.17179814837748
 10
53.29393596813485
 20
16.485421382211843
 10
53.4115116523534
 20
16.801425438155775
 10
53.52577836124425
 20
17.11983360539939
 10
53.63670214477254
 20
17.44067055008685
 10
53.74424707455825
 20
17.763962375714204
 10
53.848375153976356
 20
18.089736688445463
 10
53.94904622091458
 20
18.418022667763193
 10
54.06824354663922
 20
18.73284853218776
 10
54.25913380476469
 20
18.99558643226572
 10
48.362430990796625
 20
23.2797918016224
 10
48.47813410711487
 20
23.35305999198091
 10
48.8621745346864
 20
23.58753677500748
 10
49.249999999999986
 20
23.815698604072054
 10
49.64150667280063
 20
24.03748439473586
 10
50.036589737285055
 20
24.25283476957976
 10
50.43514342016341
 20
24.461692074101034
 10
50.837061018977465
 20
24.664000392148928
 10
51.24223493066723
 20
24.859705560894685
 10
51.650556680379125
 20
25.048755185332325
 10
52.06191695050719
 20
25.23109865230601
 10
52.47620560996002
 20
25.406687144060378
 10
52.89331174364565
 20
25.575473651310332
 10
53.313123682166065
 20
25.737412985826452
 10
53.73552903171393
 20
25.892461792533062
 10
54.16041470416305
 20
26.040578561115403
 10
54.587666947344765
 20
26.18172363713291
 10
55.017171375502286
 20
26.31585923263574
 10
55.44881299991435
 20
26.44294943628145
 10
55.88247625968066
 20
26.56296022294937
 10
56.31804505266024
 20
26.67585946284996
 10
56.755402766554724
 20
26.78161693012667
 10
57.194432310128434
 20
26.880204310948223
 10
57.63501614455646
 20
26.971595211088832
 10
58.07703631489258
 20
27.055765162994625
 10
58.5203744816488
 20
27.132691632334172
 10
58.964911952477536
 20
27.202354024031475
 10
59.410529713948556
 20
27.26473368777978
 10
59.85710846341171
 20
27.31981392303472
 10
60.304528640937065
 20
27.367579983485413
 10
60.752670461324115
 20
27.408019081002458
 10
61.15867766460564
 20
27.437967971546538
 10
58.906183733970074
 20
20.505504483642284
 10
59.21505065973831
 20
20.405147535945275
 10
59.496533322082584
 20
20.220510491530668
 10
59.77093958325482
 20
20.014094523726435
 10
60.04666630569484
 20
19.81174251782753
 10
60.32369814884081
 20
19.613407260439363
 10
60.60202059927343
 20
19.419044083850288
 10
60.8816199335727
 20
19.228610751716467
 10
61.162483183979205
 20
19.04206735337827
 10
61.44459810664114
 20
18.859376206134517
 10
61.72795315224989
 20
18.68050176486829
 10
62.012537438886824
 20
18.505410538477715
 10
62.298340726920905
 20
18.33407101261893
 10
62.58535339581271
 20
18.16645357831613
 10
62.87356642269432
 20
18.002530466037246
 10
63.162971362607095
 20
17.842275684872163
 10
63.45356033029101
 20
17.68566496648589
 10
63.7453259834292
 20
17.532675713550613
 10
64.03826150726097
 20
17.38328695238963
 10
64.33236060048522
 20
17.237479289592237
 10
64.62761746238345
 20
17.095234872382644
 10
64.92402678109937
 20
16.956537352548086
 10
65.22158372301797
 20
16.821371853751344
 10
65.52028392319377
 20
16.689724942071543
 10
65.82012347678271
 20
16.561584599634365
 10
66.12109893143797
 20
16.436940201208866
 10
66.42320728063473
 20
16.31578249366306
 10
66.72644595789323
 20
16.19810357818454
 10
67.0308128318743
 20
16.083896895185703
 10
67.33630620232489
 20
15.973157211825871
 10
67.64292479685614
 20
15.865880612094658
 10
67.95066776853896
 20
15.762064489412436
 10
68.2595346943072
 20
15.66170754171543
 10
68.56952557416085
 20
15.564809769003638
 10
68.88064083116608
 20
15.471372473340837
 10
69.19288131225194
 20
15.381398261306655
 10
69.50624828980736
 20
15.29489104891148
 10
69.82074346408533
 20
15.211856068995987
 10
70.13636896642504
 20
15.132299881147778
 10
70.45312736330625
 20
15.056230384179262
 10
70.77102166125378
 20
14.98365683122243
 10
71.09005531261444
 20
14.914589847508216
 10
71.41023222223231
 20
14.849041450910942
 10
71.73155675505288
 20
14.787025075351487
 10
72.05403374469111
 20
14.72855559716707
 10
72.37766850300332
 20
14.673649364570448
 10
72.70246683070803
 20
14.622324230337417
 10
73.02843502910632
 20
14.574599587878684
 10
73.35557991295887
 20
14.530496410870942
 10
73.68390882458256
 20
14.490037296642011
 10
74.01342964923742
 20
14.45324651352688
 10
74.3441508318821
 20
14.42015005243567
 10
74.67608139538449
 20
14.390775682900436
 10
75.00923096028401
 20
14.365153013897
 10
75.34360976621173
 20
14.34331355976921
 10
75.67922869508628
 20
14.325290811618952
 10
76.01609929621624
 20
14.311120314563135
 10
76.35423381345345
 20
14.300839751302945
 10
76.69364521455729
 20
14.294489032498007
 10
77.0343472229478
 20
14.292110394492159
 10
77.37635435204425
 20
14.293748504997051
 10
77.71968194240849
 20
14.29945057740727
 10
78.05593313160068
 20
14.283373726427866
 10
78.36480005736892
 20
14.18301677873086
 10
80.61709322455532
 20
21.11486238027274
 10
80.79129419470857
 20
20.96949810742568
 10
81.13200991525188
 20
20.67559470567189
 10
81.46787125829299
 20
20.376155947261395
 10
81.79878830562896
 20
20.071261999190487
 10
82.12467246276431
 20
19.76099448894171
 10
82.44543648263004
 20
19.44543648263006
 10
82.76099448894169
 20
19.12467246276433
 10
83.07126199919047
 20
18.798788305628978
 10
83.37615594726137
 20
18.467871258293012
 10
83.67559470567187
 20
18.13200991525191
 10
83.96949810742566
 20
17.79129419470858
 10
84.25778746747525
 20
17.445815314500262
 10
84.54038560378787
 20
17.095665767677147
 10
84.81721685800896
 20
16.740939297739825
 10
85.08820711571772
 20
16.381730873541933
 10
85.35328382626942
 20
16.018136663864563
 10
85.61237602221881
 20
15.650254011669714
 10
85.86541433831998
 20
15.278181408039082
 10
86.11233103009704
 20
14.902018465805682
 10
86.35305999198091
 20
14.521865892885135
 10
86.58753677500746
 20
14.137825465313623
 10
86.81569860407205
 20
13.750000000000012
 10
87.03748439473586
 20
13.358493327199373
 10
87.25283476957975
 20
12.963410262714943
 10
87.46169207410104
 20
12.564856579836585
 10
87.66400039214892
 20
12.16293898102256
 10
87.85970556089468
 20
11.75776506933277
 10
88.04875518533233
 20
11.349443319620876
 10
88.231098652306
 20
10.938083049492812
 10
88.40668714406038
 20
10.523794390039987
 10
88.52557422084898
 20
10.23
 10
81.23683486103565
 20
10.23
 10
81.23683486103565
 20
9.905238095238094
 10
81.14821752308194
 20
9.58047619047619
 10
81.03670046989947
 20
9.255714285714284
 10
80.92945651914118
 20
8.93095238095238
 10
80.82643602770622
 20
8.606190476190474
 10
80.72759202918311
 20
8.28142857142857
 10
80.63288011365182
 20
7.956666666666667
 10
80.54225831656144
 20
7.63190476190476
 10
80.45568701597514
 20
7.307142857142857
 10
80.37312883754524
 20
6.98238095238095
 10
80.29454856664326
 20
6.657619047619047
 10
80.21991306712711
 20
6.332857142857144
 10
80.14919120627724
 20
6.008095238095237
 10
80.08235378547968
 20
5.683333333333332
 10
80.01937347627428
 20
5.358571428571427
 10
79.96022476142355
 20
5.0338095238095235
 10
79.90488388069093
 20
4.7090476190476185
 10
79.85332878104767
 20
4.3842857142857135
 10
79.805539071055
 20
4.059523809523808
 10
79.76149597919357
 20
3.7347619047619034
 10
79.72118231593527
 20
3.4099999999999984
 10
79.68458243937343
 20
3.085238095238095
 10
79.65168222424774
 20
2.76047619047619
 10
79.62246903421735
 20
2.435714285714285
 10
79.5969316972533
 20
2.11095238095238
 10
79.57506048403683
 20
1.786190476190475
 10
79.55684708926509
 20
1.46142857142857
 10
79.54228461577952
 20
1.1366666666666667
 10
79.5313675614458
 20
0.8119047619047617
 10
79.52409180872696
 20
0.48714285714285666
 10
79.52045461690298
 20
0.16238095238095163
 10
79.52045461690298
 20
-0.1623809523809534
 10
79.52409180872696
 20
-0.48714285714285843
 10
79.5313675614458
 20
-0.8119047619047635
 10
79.54228461577952
 20
-1.1366666666666667
 10
79.55684708926509
 20
-1.4614285714285717
 10
79.57506048403683
 20
-1.7861904761904768
 10
79.5969316972533
 20
-2.110952380952382
 10
79.62246903421735
 20
-2.435714285714287
 10
79.65168222424774
 20
-2.760476190476191
 10
79.68458243937343
 20
-3.085238095238096
 10
79.72118231593527
 20
-3.410000000000001
 10
79.76149597919357
 20
-3.734761904761905
 10
79.805539071055
 20
-4.05952380952381
 10
79.85332878104767
 20
-4.384285714285715
 10
79.90488388069093
 20
-4.709047619047619
 10
79.96022476142355
 20
-5.033809523809524
 10
80.01937347627428
 20
-5.358571428571429
 10
80.08235378547968
 20
-5.683333333333334
 10
80.14919120627724
 20
-6.008095238095239
 10
80.21991306712711
 20
-6.332857142857144
 10
80.29454856664326
 20
-6.657619047619049
 10
80.37312883754524
 20
-6.982380952380953
 10
80.45568701597514
 20
-7.307142857142858
 10
80.54225831656144
 20
-7.631904761904762
 10
80.63288011365182
 20
-7.956666666666667
 10
80.72759202918311
 20
-8.281428571428572
 10
80.82643602770622
 20
-8.606190476190477
 10
80.92945651914118
 20
-8.930952380952382
 10
81.03670046989947
 20
-9.255714285714287
 10
81.14821752308194
 20
-9.58047619047619
 10
81.23683486103565
 20
-9.905238095238095
 10
81.23683486103565
 20
-10.23
 10
88.52557422084898
 20
-10.23
 10
88.40668714406038
 20
-10.523794390039969
  0
LWPOLYLINE
  5
9C
330
17
100
AcDbEntity
  8
CORTE
100
AcDbPolyline
 90
7
 70
1
 10
56.575
 20
3.7094754795433453
 10
56.575
 20
-3.7094754795433467
 10
63.0
 20
-7.4189509590866916
 10
69.425
 20
-3.709475479543349
 10
69.425
 20
3.7094754795433453
 10
63.0
 20
7.4189509590866916
 10
56.575
 20
3.7094754795433453
  0
CIRCLE
  5
9D
330
17
100
AcDbEntity
  8
CORTE
100
AcDbCircle
 10
74.66602505888675
 20
8.475863338057463
 30
0.0
 40
1.6
  0
CIRCLE
  5
9E
330
17
100
AcDbEntity
  8
CORTE
100
AcDbCircle
 10
58.54397494111326
 20
13.714234964976116
 30
0.0
 40
1.6
  0
CIRCLE
  5
9F
330
17
100
AcDbEntity
  8
CORTE
100
AcDbCircle
 10
48.58
 20
1.7659406843704834e-15
 30
0.0
 40
1.6
  0
CIRCLE
  5
A0
330
17
100
AcDbEntity
  8
CORTE
100
AcDbCircle
 10
58.543974941113255
 20
-13.714234964976114
 30
0.0
 40
1.6
  0
CIRCLE
  5
A1
330
17
100
AcDbEntity
  8
CORTE
100
AcDbCircle
 10
74.66602505888675
 20
-8.475863338057465
 30
0.0
 40
1.6
  0
LINE
  5
A2
330
17
100
AcDbEntity
  8
RANURA
100
AcDbLine
 10
85.96000000000001
 20
-12.83
 30
0.0
 11
85.96000000000001
 21
12.83
 31
0.0
  0
LINE
  5
A3
330
17
100
AcDbEntity
  8
RANURA
100
AcDbLine
 10
82.29708529491562
 20
17.87156957630615
 30
0.0
 11
57.89297508678197
 21
25.800945651967304
 31
0.0
  0
LINE
  5
A4
330
17
100
AcDbEntity
  8
RANURA
100
AcDbLine
 10
51.966254596063635
 20
23.87523743046576
 30
0.0
 11
36.88368502223878
 21
3.115861354804613
 31
0.0
  0
LINE
  5
A5
330
17
100
AcDbEntity
  8
RANURA
100
AcDbLine
 10
36.88368502223878
 20
-3.115861354804604
 30
0.0
 11
51.966254596063635
 21
-23.87523743046576
 31
0.0
  0
LINE
  5
A6
330
17
100
AcDbEntity
  8
RANURA
100
AcDbLine
 10
57.892975086781966
 20
-25.8009456519673
 30
0.0
 11
82.2970852949156
 21
-17.871569576306154
 31
0.0
  0
TEXT
  5
A7
330
17
100
AcDbEntity
  8
TEXTO
100
AcDbText
 10
63.0
 20
-33.5
 30
0.0
 40
2.5
  1
placa_ranurada_A
 11
63.0
 21
-33.5
 31
0.0
100
AcDbText
  0
LWPOLYLINE
  5
A8
330
17
100
AcDbEntity
  8
CORTE
100
AcDbPolyline
 90
421
 70
1
 10
104.72722380288641
 20
-3.457402299250475
 10
104.74963332179708
 20
-3.4099999999999984
 10
104.87871301736307
 20
-3.085238095238095
 10
104.98804341837445
 20
-2.76047619047619
 10
105.08066134923314
 20
-2.435714285714285
 10
105.15864065509464
 20
-2.11095238095238
 10
105.22344970688772
 20
-1.786190476190475
 10
105.27615008401784
 20
-1.46142857142857
 10
105.31751416084737
 20
-1.1366666666666667
 10
105.3480977080772
 20
-0.8119047619047617
 10
105.3682856883328
 20
-0.48714285714285666
 10
105.37832092343334
 20
-0.16238095238095163
 10
105.37832092343334
 20
0.1623809523809534
 10
105.3682856883328
 20
0.48714285714285843
 10
105.3480977080772
 20
0.8119047619047635
 10
105.31751416084737
 20
1.1366666666666667
 10
105.27615008401784
 20
1.4614285714285717
 10
105.22344970688772
 20
1.7861904761904768
 10
105.15864065509464
 20
2.110952380952382
 10
105.08066134923314
 20
2.435714285714287
 10
104.98804341837445
 20
2.760476190476191
 10
104.87871301736307
 20
3.085238095238096
 10
104.74963332179708
 20
3.410000000000001
 10
104.72722380288641
 20
3.4574022992504787
 10
104.83729435172216
 20
3.533485832886318
 10
105.14275756738876
 20
3.7129816067512964
 10
105.44239086603002
 20
3.896713063269911
 10
105.73654109529168
 20
4.084428202876812
 10
106.02549805553545
 20
4.275916473284586
 10
106.30950663891181
 20
4.470999949931132
 10
106.58877583065666
 20
4.66952679615484
 10
106.86348550189693
 20
4.871366327932439
 10
107.13379161596558
 20
5.076405231269725
 10
107.39983027418009
 20
5.2845446227714294
 10
107.6617208987629
 20
5.495697737114156
 10
107.91956876474347
 20
5.709788087511867
 10
108.17346703407091
 20
5.926747987846554
 10
108.42349840441398
 20
6.146517354744886
 10
108.66973645631859
 20
6.3690427288110225
 10
108.91224676172143
 20
6.5942764692443125
 10
109.15108780177896
 20
6.822176086997523
 10
109.38631173088753
 20
7.052703689683654
 10
109.61796501550619
 20
7.285825517444096
 10
109.84608897016054
 20
7.521511553518967
 10
110.07072020825697
 20
7.75973519671143
 10
110.29189102167932
 20
8.000472985594586
 10
110.50962970029636
 20
8.243704366375647
 10
110.72396080027498
 20
8.489411497955038
 10
110.93490536832093
 20
8.737579089005962
 10
111.14248112754625
 20
8.98819426293379
 10
111.34670262950698
 20
9.241246447414216
 10
111.54758137600189
 20
9.49672728590128
 10
111.74512591342565
 20
9.754630569075804
 10
111.93934190178787
 20
10.014952184700084
 10
112.13023215991333
 20
10.277690084778044
 10
112.31779668780203
 20
10.54284426930968
 10
112.50203266662919
 20
10.810416786291077
 10
112.6829344363852
 20
11.080411747959928
 10
112.86049345067539
 20
11.352835363635421
 10
113.03469820770098
 20
11.627695989863511
 10
113.20553415590597
 20
11.905004198968506
 10
113.37298357217826
 20
12.184772867545036
 10
113.53702540981214
 20
12.46701728691989
 10
113.69763511264073
 20
12.751755298192654
 10
113.8547843907952
 20
13.039007455156106
 10
114.00844095239177
 20
13.328797219237154
 10
114.15856818402403
 20
13.62115119163263
 10
114.30512477116638
 20
13.91609938910242
 10
114.44806424735978
 20
14.213675571505126
 10
114.58733445820786
 20
14.513917631227756
 10
114.72287692255418
 20
14.816868057317535
 10
114.85462606846203
 20
15.12257449057512
 10
114.98250831538552
 20
15.431090390396353
 10
115.10644096565585
 20
15.742475840154562
 10
115.22633085732396
 20
16.056798525967753
 10
115.34207271536037
 20
16.374134934621964
 10
115.45354711754266
 20
16.694571831440598
 10
115.5606179625533
 20
17.018208099818917
 10
115.66312928705938
 20
17.34515705375113
 10
115.76090121993393
 20
17.6755493772605
 10
115.85372477594107
 20
18.009536907008645
 10
115.94135506293034
 20
18.347297567557664
 10
116.02350228053999
 20
18.689041911194963
 10
116.09981958112432
 20
19.035021937485904
 10
116.13816565140102
 20
19.16321635509391
 10
116.19017283916973
 20
19.156551752147717
 10
116.5389275844966
 20
19.13414661425529
 10
116.88157946217918
 20
19.130524171641273
 10
117.2190669025666
 20
19.142796232669344
 10
117.5520307590556
 20
19.16899045339058
 10
117.88092478321721
 20
19.207710330064888
 10
118.20607702112864
 20
19.25794624068108
 10
118.52772614959382
 20
19.318963613568823
 10
118.84604391120435
 20
19.390233879381476
 10
119.16114926595367
 20
19.471390916905566
 10
119.47311724991052
 20
19.56220378886764
 10
119.78198417567874
 20
19.66256073656465
 10
120.08775004325837
 20
19.772461759996585
 10
120.39037854004552
 20
19.892018617866512
 10
120.68979462997147
 20
20.021462247447868
 10
120.98587935304275
 20
20.16115876995414
 10
121.27846096666781
 20
20.31163675473196
 10
121.56730079404267
 20
20.47363077345167
 10
121.85207078909012
 20
20.648150448124444
 10
122.13231720023919
 20
20.83659228249039
 10
122.40739917409307
 20
21.040928620498416
 10
122.67637828030267
 20
21.264047653784857
 10
122.71453562371305
 20
21.300008488812733
 10
122.8209090343306
 20
21.218836280975875
 10
123.08601298450972
 20
20.983790743770456
 10
123.35334376484093
 20
20.75559868506418
 10
123.62276889131246
 20
20.533852360995155
 10
123.89417767003611
 20
20.31821109080595
 10
124.16747656053397
 20
20.108386986507643
 10
124.44258573754908
 20
19.904134371221
 10
124.71943649642452
 20
19.70524179375461
 10
124.99796926446813
 20
19.51152590821442
 10
125.27813205560253
 20
19.322826717905986
 10
125.55987925459775
 20
19.13900383358699
 10
125.84317064997072
 20
18.95993349703794
 10
126.12797065702333
 20
18.785506189819333
 10
126.41424768805692
 20
18.615624694990963
 10
126.70197363780383
 20
18.45020251343334
 10
126.99112346001299
 20
18.28916256071176
 10
127.28167481687031
 20
18.13243608810364
 10
127.57360778716905
 20
17.979961784438917
 10
127.86690462230119
 20
17.831685025118887
 10
128.1615495415222
 20
17.68755724200585
 10
128.45752855975525
 20
17.547535393459164
 10
128.7548293425983
 20
17.41158151809269
 10
129.053441084283
 20
17.279662359171095
 10
129.35335440518824
 20
17.151749049188872
 10
129.65456126618776
 20
17.027816846259533
 10
129.95705489765518
 20
16.90784491561531
 10
130.26082974139067
 20
16.79181615087613
 10
130.56588140409798
 20
16.679717030866602
 10
130.8722066213449
 20
16.57153750869725
 10
131.1798032312001
 20
16.467270930627706
 10
131.48867015696837
 20
16.366913982930697
 10
131.79880739864961
 20
16.270466665606232
 10
132.11021603293918
 20
16.177932292381566
 10
132.4228982217683
 20
16.089317516997085
 10
132.7368572295693
 20
16.004632386342248
 10
133.05209744963835
 20
15.923890421592459
 10
133.3686244401753
 20
15.847108729127783
 10
133.68644497080652
 20
15.774308143715993
 10
134.0055670806583
 20
15.705513407243572
 10
134.32600014935173
 20
15.640753387216035
 10
134.64775498265513
 20
15.580061340368704
 10
134.9708439149706
 20
15.523475228087733
 10
135.29528093137495
 20
15.471038092013746
 10
135.62108181261266
 20
15.422798500284461
 10
135.94826430729182
 20
15.378811077498563
 10
136.27684833661914
 20
15.339137134826132
 10
136.60685623840868
 20
15.303845420989738
 10
136.93831305891158
 20
15.273013020424099
 10
137.27124690339542
 20
15.246726432248694
 10
137.60568935955894
 20
15.225082873403728
 10
137.94167601210017
 20
15.208191862328707
 10
138.27924707250224
 20
15.196177157243131
 10
138.6184481559951
 20
15.189179147389304
 10
138.95933124865616
 20
15.187357829461686
 10
139.30195592317753
 20
15.190896549354312
 10
139.64639088421615
 20
15.200006758258606
 10
139.99271595702896
 20
15.214934133053806
 10
140.3410246820939
 20
15.235966561728816
 10
140.69142775329914
 20
15.263444725041072
 10
141.04405765465648
 20
15.297776366852478
 10
141.17782737825826
 20
15.300921340466383
 10
141.18756006904792
 20
15.249400090073635
 10
141.27402265983176
 20
14.910791048571587
 10
141.37646276553718
 20
14.583790351151924
 10
141.4924235436141
 20
14.26661299721738
 10
141.62022721808805
 20
13.958040011170016
 10
141.75868585192362
 20
13.657208306233036
 10
141.90694060934084
 20
13.36349390168774
 10
142.06436662635457
 20
13.076442807274688
 10
142.2305142750228
 20
12.795728349172242
 10
142.4050721140394
 20
12.521124252026473
 10
142.58784369642598
 20
12.252487788753127
 10
142.77873395455143
 20
11.989749888675167
 10
142.97774288841578
 20
11.732910551792596
 10
143.18496556565012
 20
11.482038848782445
 10
143.40059843323277
 20
11.237277506728972
 10
143.62495293246997
 20
10.998852800986109
 10
143.85847869130367
 20
10.767091405375485
 10
144.10180057371903
 20
10.542447310156549
 10
144.35577741549602
 20
10.325544496047991
 10
144.62159715367002
 20
10.117246049826619
 10
144.9009375642155
 20
9.918770947090364
 10
145.19625548968258
 20
9.731904188436495
 10
145.24224754374129
 20
9.706726907497076
 10
145.19791937816643
 20
9.58047619047619
 10
145.05629941426238
 20
9.255714285714284
 10
144.92188562410485
 20
8.93095238095238
 10
144.79424928042582
 20
8.606190476190474
 10
144.67303217027836
 20
8.28142857142857
 10
144.55793159031734
 20
7.956666666666667
 10
144.4486892205848
 20
7.63190476190476
 10
144.34508272814077
 20
7.307142857142857
 10
144.24691933170365
 20
6.98238095238095
 10
144.15403080079324
 20
6.657619047619047
 10
144.06626952142457
 20
6.332857142857144
 10
143.98350536650486
 20
6.008095238095237
 10
143.90562318153215
 20
5.683333333333332
 10
143.83252074656625
 20
5.358571428571427
 10
143.76410711105058
 20
5.0338095238095235
 10
143.700301223614
 20
4.7090476190476185
 10
143.6410307975717
 20
4.3842857142857135
 10
143.58623136654447
 20
4.059523809523808
 10
143.53584549483026
 20
3.7347619047619034
 10
143.48982211486694
 20
3.4099999999999984
 10
143.44811596999534
 20
3.085238095238095
 10
143.41068714525196
 20
2.76047619047619
 10
143.37750067243587
 20
2.435714285714285
 10
143.34852619845554
 20
2.11095238095238
 10
143.32373770815195
 20
1.786190476190475
 10
143.3031132945539
 20
1.46142857142857
 10
143.28663497094888
 20
1.1366666666666667
 10
143.27428852033177
 20
0.8119047619047617
 10
143.2660633787778
 20
0.48714285714285666
 10
143.26195255013033
 20
0.16238095238095163
 10
143.26195255013033
 20
-0.1623809523809534
 10
143.2660633787778
 20
-0.48714285714285843
 10
143.27428852033177
 20
-0.8119047619047635
 10
143.28663497094888
 20
-1.1366666666666667
 10
143.3031132945539
 20
-1.4614285714285717
 10
143.32373770815195
 20
-1.7861904761904768
 10
143.34852619845554
 20
-2.110952380952382
 10
143.37750067243587
 20
-2.435714285714287
 10
143.41068714525196
 20
-2.760476190476191
 10
143.44811596999534
 20
-3.085238095238096
 10
143.48982211486694
 20
-3.410000000000001
 10
143.53584549483026
 20
-3.734761904761905
 10
143.58623136654447
 20
-4.05952380952381
 10
143.6410307975717
 20
-4.384285714285715
 10
143.700301223614
 20
-4.709047619047619
 10
143.76410711105058
 20
-5.033809523809524
 10
143.83252074656625
 20
-5.358571428571429
 10
143.90562318153215
 20
-5.683333333333334
 10
143.98350536650486
 20
-6.008095238095239
 10
144.06626952142457
 20
-6.332857142857144
 10
144.15403080079324
 20
-6.657619047619049
 10
144.24691933170365
 20
-6.982380952380953
 10
144.34508272814077
 20
-7.307142857142858
 10
144.4486892205848
 20
-7.631904761904762
 10
144.55793159031734
 20
-7.956666666666667
 10
144.67303217027836
 20
-8.281428571428572
 10
144.79424928042584
 20
-8.606190476190477
 10
144.92188562410485
 20
-8.930952380952382
 10
145.05629941426238
 20
-9.255714285714287
 10
145.19791937816643
 20
-9.58047619047619
 10
145.24224754374129
 20
-9.70672690749708
 10
145.19625548968258
 20
-9.731904188436502
 10
144.9009375642155
 20
-9.918770947090369
 10
144.62159715367002
 20
-10.117246049826624
 10
144.35577741549602
 20
-10.325544496047998
 10
144.10180057371903
 20
-10.542447310156556
 10
143.85847869130367
 20
-10.767091405375492
 10
143.62495293246997
 20
-10.998852800986114
 10
143.40059843323277
 20
-11.237277506728978
 10
143.18496556565012
 20
-11.482038848782452
 10
142.97774288841578
 20
-11.732910551792603
 10
142.77873395455143
 20
-11.989749888675172
 10
142.58784369642598
 20
-12.252487788753132
 10
142.4050721140394
 20
-12.52112425202648
 10
142.2305142750228
 20
-12.795728349172249
 10
142.06436662635457
 20
-13.07644280727469
 10
141.90694060934084
 20
-13.363493901687745
 10
141.7586858519236
 20
-13.657208306233041
 10
141.62022721808805
 20
-13.958040011170024
 10
141.4924235436141
 20
-14.266612997217386
 10
141.37646276553718
 20
-14.58379035115193
 10
141.27402265983176
 20
-14.910791048571593
 10
141.18756006904792
 20
-15.249400090073642
 10
141.17782737825823
 20
-15.300921340466388
 10
141.04405765465648
 20
-15.297776366852483
 10
140.69142775329914
 20
-15.263444725041076
 10
140.3410246820939
 20
-15.235966561728814
 10
139.99271595702893
 20
-15.214934133053806
 10
139.64639088421612
 20
-15.200006758258612
 10
139.30195592317753
 20
-15.190896549354314
 10
138.95933124865616
 20
-15.18735782946169
 10
138.6184481559951
 20
-15.189179147389307
 10
138.27924707250224
 20
-15.196177157243136
 10
137.94167601210017
 20
-15.208191862328711
 10
137.60568935955894
 20
-15.225082873403728
 10
137.27124690339542
 20
-15.246726432248696
 10
136.93831305891158
 20
-15.273013020424104
 10
136.60685623840868
 20
-15.303845420989745
 10
136.27684833661914
 20
-15.339137134826135
 10
135.94826430729182
 20
-15.378811077498563
 10
135.62108181261266
 20
-15.422798500284461
 10
135.29528093137495
 20
-15.471038092013751
 10
134.9708439149706
 20
-15.523475228087737
 10
134.64775498265513
 20
-15.580061340368706
 10
134.32600014935173
 20
-15.64075338721604
 10
134.0055670806583
 20
-15.705513407243574
 10
133.68644497080652
 20
-15.774308143715999
 10
133.3686244401753
 20
-15.847108729127784
 10
133.05209744963835
 20
-15.92389042159246
 10
132.7368572295693
 20
-16.004632386342248
 10
132.4228982217683
 20
-16.089317516997085
 10
132.11021603293915
 20
-16.17793229238157
 10
131.79880739864961
 20
-16.270466665606232
 10
131.48867015696834
 20
-16.3669139829307
 10
131.1798032312001
 20
-16.46727093062771
 10
130.8722066213449
 20
-16.57153750869725
 10
130.56588140409798
 20
-16.679717030866605
 10
130.26082974139064
 20
-16.79181615087613
 10
129.95705489765518
 20
-16.90784491561531
 10
129.65456126618776
 20
-17.027816846259533
 10
129.3533544051882
 20
-17.151749049188872
 10
129.05344108428298
 20
-17.2796623591711
 10
128.75482934259827
 20
-17.41158151809269
 10
128.45752855975525
 20
-17.547535393459167
 10
128.1615495415222
 20
-17.68755724200585
 10
127.86690462230119
 20
-17.83168502511889
 10
127.57360778716904
 20
-17.97996178443892
 10
127.28167481687031
 20
-18.132436088103645
 10
126.99112346001297
 20
-18.289162560711755
 10
126.70197363780383
 20
-18.450202513433343
 10
126.4142476880569
 20
-18.615624694990963
 10
126.12797065702333
 20
-18.785506189819337
 10
125.84317064997072
 20
-18.95993349703794
 10
125.55987925459775
 20
-19.13900383358699
 10
125.27813205560251
 20
-19.322826717905983
 10
124.99796926446813
 20
-19.511525908214423
 10
124.71943649642452
 20
-19.705241793754606
 10
124.44258573754907
 20
-19.904134371221005
 10
124.16747656053397
 20
-20.10838698650764
 10
123.89417767003611
 20
-20.318211090805953
 10
123.62276889131246
 20
-20.533852360995166
 10
123.35334376484093
 20
-20.75559868506419
 10
123.08601298450972
 20
-20.983790743770456
 10
122.8209090343306
 20
-21.21883628097588
 10
122.71453562371305
 20
-21.300008488812733
 10
122.67637828030267
 20
-21.264047653784854
 10
122.40739917409307
 20
-21.040928620498416
 10
122.13231720023917
 20
-20.836592282490386
 10
121.85207078909012
 20
-20.64815044812444
 10
121.56730079404265
 20
-20.47363077345167
 10
121.2784609666678
 20
-20.311636754731957
 10
120.98587935304275
 20
-20.161158769954138
 10
120.68979462997146
 20
-20.021462247447865
 10
120.39037854004552
 20
-19.89201861786651
 10
120.08775004325837
 20
-19.77246175999658
 10
119.78198417567874
 20
-19.662560736564647
 10
119.4731172499105
 20
-19.562203788867638
 10
119.16114926595365
 20
-19.471390916905563
 10
118.84604391120433
 20
-19.390233879381473
 10
118.52772614959382
 20
-19.31896361356882
 10
118.20607702112862
 20
-19.257946240681076
 10
117.88092478321721
 20
-19.207710330064884
 10
117.55203075905558
 20
-19.16899045339058
 10
117.21906690256658
 20
-19.14279623266934
 10
116.88157946217916
 20
-19.13052417164127
 10
116.53892758449659
 20
-19.13414661425529
 10
116.19017283916972
 20
-19.15655175214771
 10
116.13816565140101
 20
-19.1632163550939
 10
116.09981958112432
 20
-19.0350219374859
 10
116.02350228053999
 20
-18.68904191119496
 10
115.94135506293033
 20
-18.347297567557657
 10
115.85372477594107
 20
-18.009536907008638
 10
115.76090121993393
 20
-17.675549377260495
 10
115.66312928705936
 20
-17.345157053751123
 10
115.5606179625533
 20
-17.01820809981891
 10
115.45354711754264
 20
-16.694571831440594
 10
115.34207271536037
 20
-16.37413493462196
 10
115.22633085732396
 20
-16.05679852596775
 10
115.10644096565585
 20
-15.742475840154558
 10
114.9825083153855
 20
-15.43109039039635
 10
114.85462606846203
 20
-15.122574490575117
 10
114.72287692255416
 20
-14.816868057317528
 10
114.58733445820785
 20
-14.513917631227752
 10
114.44806424735978
 20
-14.213675571505123
 10
114.30512477116638
 20
-13.916099389102413
 10
114.15856818402403
 20
-13.621151191632627
 10
114.00844095239177
 20
-13.328797219237149
 10
113.8547843907952
 20
-13.039007455156103
 10
113.69763511264073
 20
-12.75175529819265
 10
113.53702540981214
 20
-12.467017286919887
 10
113.37298357217826
 20
-12.18477286754503
 10
113.20553415590595
 20
-11.905004198968498
 10
113.03469820770098
 20
-11.627695989863508
 10
112.86049345067539
 20
-11.352835363635416
 10
112.6829344363852
 20
-11.080411747959927
 10
112.50203266662919
 20
-10.810416786291071
 10
112.31779668780203
 20
-10.542844269309674
 10
112.13023215991332
 20
-10.277690084778039
 10
111.93934190178786
 20
-10.014952184700078
 10
111.74512591342564
 20
-9.754630569075797
 10
111.54758137600189
 20
-9.496727285901274
 10
111.34670262950698
 20
-9.24124644741421
 10
111.14248112754625
 20
-8.988194262933785
 10
110.93490536832093
 20
-8.737579089005957
 10
110.72396080027497
 20
-8.48941149795503
 10
110.50962970029636
 20
-8.243704366375642
 10
110.29189102167932
 20
-8.00047298559458
 10
110.07072020825697
 20
-7.759735196711426
 10
109.84608897016054
 20
-7.521511553518961
 10
109.61796501550617
 20
-7.2858255174440885
 10
109.38631173088751
 20
-7.052703689683648
 10
109.15108780177894
 20
-6.822176086997519
 10
108.91224676172143
 20
-6.594276469244307
 10
108.66973645631859
 20
-6.369042728811017
 10
108.42349840441398
 20
-6.146517354744877
 10
108.17346703407091
 20
-5.926747987846547
 10
107.91956876474347
 20
-5.709788087511861
 10
107.6617208987629
 20
-5.495697737114149
 10
107.39983027418009
 20
-5.284544622771423
 10
107.13379161596558
 20
-5.076405231269718
 10
106.86348550189693
 20
-4.871366327932433
 10
106.58877583065666
 20
-4.669526796154831
 10
106.30950663891181
 20
-4.470999949931125
 10
106.02549805553545
 20
-4.275916473284579
 10
105.73654109529167
 20
-4.084428202876808
 10
105.44239086603001
 20
-3.8967130632699076
 10
105.14275756738874
 20
-3.7129816067512884
 10
104.83729435172216
 20
-3.5334858328863117
 10
104.72722380288641
 20
-3.457402299250475
  0
LWPOLYLINE
  5
A9
330
17
100
AcDbEntity
  8
CORTE
100
AcDbPolyline
 90
7
 70
1
 10
119.575
 20
3.7094754795433453
 10
119.575
 20
-3.7094754795433467
 10
126.0
 20
-7.4189509590866916
 10
132.425
 20
-3.709475479543349
 10
132.425
 20
3.7094754795433453
 10
126.0
 20
7.4189509590866916
 10
119.575
 20
3.7094754795433453
  0
CIRCLE
  5
AA
330
17
100
AcDbEntity
  8
CORTE
100
AcDbCircle
 10
137.66602505888673
 20
8.475863338057463
 30
0.0
 40
1.6
  0
CIRCLE
  5
AB
330
17
100
AcDbEntity
  8
CORTE
100
AcDbCircle
 10
121.54397494111326
 20
13.714234964976116
 30
0.0
 40
1.6
  0
CIRCLE
  5
AC
330
17
100
AcDbEntity
  8
CORTE
100
AcDbCircle
 10
111.58
 20
1.7659406843704834e-15
 30
0.0
 40
1.6
  0
CIRCLE
  5
AD
330
17
100
AcDbEntity
  8
CORTE
100
AcDbCircle
 10
121.54397494111326
 20
-13.714234964976114
 30
0.0
 40
1.6
  0
CIRCLE
  5
AE
330
17
100
AcDbEntity
  8
CORTE
100
AcDbCircle
 10
137.66602505888673
 20
-8.475863338057465
 30
0.0
 40
1.6
  0
TEXT
  5
AF
330
17
100
AcDbEntity
  8
TEXTO
100
AcDbText
 10
126.0
 20
-33.5
 30
0.0
 40
2.5
  1
placa_intermedia_1
 11
126.0
 21
-33.5
 31
0.0
100
AcDbText
  0
LWPOLYLINE
  5
B0
330
17
100
AcDbEntity
  8
CORTE
100
AcDbPolyline
 90
421
 70
1
 10
192.5926008259069
 20
-21.040928620498416
 10
192.32362171969731
 20
-21.264047653784857
 10
192.28546437628694
 20
-21.300008488812733
 10
192.1790909656694
 20
-21.218836280975875
 10
191.91398701549028
 20
-20.98379074377046
 10
191.64665623515907
 20
-20.75559868506418
 10
191.37723110868754
 20
-20.53385236099516
 10
191.10582232996387
 20
-20.31821109080595
 10
190.83252343946603
 20
-20.108386986507643
 10
190.55741426245092
 20
-19.904134371221
 10
190.28056350357548
 20
-19.70524179375461
 10
190.00203073553186
 20
-19.51152590821442
 10
189.72186794439747
 20
-19.322826717905986
 10
189.44012074540225
 20
-19.13900383358699
 10
189.15682935002928
 20
-18.95993349703794
 10
188.87202934297667
 20
-18.785506189819333
 10
188.58575231194308
 20
-18.615624694990963
 10
188.29802636219617
 20
-18.45020251343334
 10
188.00887653998703
 20
-18.28916256071176
 10
187.71832518312968
 20
-18.13243608810364
 10
187.42639221283093
 20
-17.979961784438917
 10
187.1330953776988
 20
-17.831685025118887
 10
186.8384504584778
 20
-17.68755724200585
 10
186.54247144024475
 20
-17.547535393459164
 10
186.2451706574017
 20
-17.41158151809269
 10
185.946558915717
 20
-17.279662359171095
 10
185.64664559481176
 20
-17.151749049188872
 10
185.34543873381224
 20
-17.027816846259533
 10
185.04294510234482
 20
-16.90784491561531
 10
184.73917025860933
 20
-16.79181615087613
 10
184.43411859590202
 20
-16.679717030866602
 10
184.1277933786551
 20
-16.57153750869725
 10
183.8201967687999
 20
-16.467270930627706
 10
183.51132984303163
 20
-16.366913982930697
 10
183.20119260135039
 20
-16.270466665606232
 10
182.88978396706082
 20
-16.177932292381566
 10
182.5771017782317
 20
-16.089317516997085
 10
182.2631427704307
 20
-16.004632386342248
 10
181.94790255036165
 20
-15.923890421592459
 10
181.6313755598247
 20
-15.847108729127783
 10
181.31355502919348
 20
-15.774308143715993
 10
180.9944329193417
 20
-15.705513407243572
 10
180.67399985064827
 20
-15.640753387216035
 10
180.35224501734487
 20
-15.580061340368704
 10
180.0291560850294
 20
-15.523475228087731
 10
179.70471906862505
 20
-15.471038092013746
 10
179.37891818738734
 20
-15.42279850028446
 10
179.05173569270818
 20
-15.378811077498561
 10
178.72315166338086
 20
-15.33913713482613
 10
178.39314376159132
 20
-15.303845420989738
 10
178.06168694108842
 20
-15.273013020424097
 10
177.72875309660458
 20
-15.246726432248693
 10
177.39431064044106
 20
-15.225082873403727
 10
177.05832398789983
 20
-15.208191862328707
 10
176.72075292749776
 20
-15.19617715724313
 10
176.3815518440049
 20
-15.189179147389304
 10
176.04066875134384
 20
-15.187357829461684
 10
175.69804407682247
 20
-15.19089654935431
 10
175.35360911578385
 20
-15.200006758258604
 10
175.00728404297104
 20
-15.214934133053806
 10
174.6589753179061
 20
-15.235966561728814
 10
174.30857224670086
 20
-15.263444725041072
 10
173.9559423453435
 20
-15.297776366852476
 10
173.82217262174174
 20
-15.300921340466381
 10
173.81243993095208
 20
-15.249400090073635
 10
173.72597734016824
 20
-14.910791048571586
 10
173.6235372344628
 20
-14.583790351151922
 10
173.50757645638586
 20
-14.266612997217377
 10
173.37977278191195
 20
-13.958040011170015
 10
173.24131414807638
 20
-13.657208306233034
 10
173.09305939065916
 20
-13.363493901687736
 10
172.93563337364543
 20
-13.076442807274685
 10
172.7694857249772
 20
-12.79572834917224
 10
172.5949278859606
 20
-12.521124252026471
 10
172.41215630357402
 20
-12.252487788753124
 10
172.22126604544857
 20
-11.989749888675163
 10
172.02225711158422
 20
-11.732910551792594
 10
171.81503443434988
 20
-11.482038848782443
 10
171.59940156676723
 20
-11.237277506728969
 10
171.37504706753003
 20
-10.998852800986105
 10
171.14152130869633
 20
-10.767091405375483
 10
170.89819942628097
 20
-10.542447310156547
 10
170.64422258450398
 20
-10.32554449604799
 10
170.37840284632998
 20
-10.117246049826617
 10
170.0990624357845
 20
-9.918770947090362
 10
169.80374451031742
 20
-9.731904188436493
 10
169.75775245625871
 20
-9.706726907497075
 10
169.80208062183357
 20
-9.58047619047619
 10
169.94370058573762
 20
-9.255714285714284
 10
170.07811437589515
 20
-8.93095238095238
 10
170.20575071957418
 20
-8.606190476190474
 10
170.32696782972164
 20
-8.28142857142857
 10
170.44206840968266
 20
-7.956666666666667
 10
170.5513107794152
 20
-7.63190476190476
 10
170.65491727185923
 20
-7.307142857142857
 10
170.75308066829635
 20
-6.98238095238095
 10
170.84596919920676
 20
-6.657619047619047
 10
170.93373047857543
 20
-6.332857142857144
 10
171.01649463349514
 20
-6.008095238095237
 10
171.09437681846785
 20
-5.683333333333332
 10
171.16747925343375
 20
-5.358571428571427
 10
171.23589288894942
 20
-5.0338095238095235
 10
171.299698776386
 20
-4.7090476190476185
 10
171.3589692024283
 20
-4.3842857142857135
 10
171.41376863345553
 20
-4.059523809523808
 10
171.46415450516974
 20
-3.7347619047619034
 10
171.51017788513306
 20
-3.4099999999999984
 10
171.55188403000466
 20
-3.085238095238095
 10
171.58931285474804
 20
-2.76047619047619
 10
171.62249932756413
 20
-2.435714285714285
 10
171.65147380154446
 20
-2.11095238095238
 10
171.67626229184805
 20
-1.786190476190475
 10
171.6968867054461
 20
-1.46142857142857
 10
171.71336502905112
 20
-1.1366666666666667
 10
171.72571147966823
 20
-0.8119047619047617
 10
171.7339366212222
 20
-0.48714285714285666
 10
171.73804744986967
 20
-0.16238095238095163
 10
171.73804744986967
 20
0.1623809523809534
 10
171.7339366212222
 20
0.48714285714285843
 10
171.72571147966823
 20
0.8119047619047635
 10
171.71336502905112
 20
1.1366666666666667
 10
171.6968867054461
 20
1.4614285714285717
 10
171.67626229184805
 20
1.7861904761904768
 10
171.65147380154446
 20
2.110952380952382
 10
171.62249932756413
 20
2.435714285714287
 10
171.58931285474804
 20
2.760476190476191
 10
171.55188403000466
 20
3.085238095238096
 10
171.51017788513306
 20
3.410000000000001
 10
171.46415450516974
 20
3.734761904761905
 10
171.41376863345553
 20
4.05952380952381
 10
171.3589692024283
 20
4.384285714285715
 10
171.299698776386
 20
4.709047619047619
 10
171.23589288894942
 20
5.033809523809524
 10
171.16747925343375
 20
5.358571428571429
 10
171.09437681846785
 20
5.683333333333334
 10
171.01649463349514
 20
6.008095238095239
 10
170.93373047857543
 20
6.332857142857144
 10
170.84596919920676
 20
6.657619047619049
 10
170.75308066829635
 20
6.982380952380953
 10
170.65491727185923
 20
7.307142857142858
 10
170.5513107794152
 20
7.631904761904762
 10
170.44206840968266
 20
7.956666666666667
 10
170.32696782972164
 20
8.281428571428572
 10
170.20575071957416
 20
8.606190476190477
 10
170.07811437589515
 20
8.930952380952382
 10
169.94370058573762
 20
9.255714285714287
 10
169.80208062183357
 20
9.58047619047619
 10
169.75775245625871
 20
9.706726907497078
 10
169.80374451031742
 20
9.731904188436499
 10
170.0990624357845
 20
9.918770947090366
 10
170.37840284632998
 20
10.117246049826623
 10
170.64422258450398
 20
10.325544496047995
 10
170.89819942628097
 20
10.542447310156552
 10
171.14152130869633
 20
10.76709140537549
 10
171.37504706753003
 20
10.998852800986112
 10
171.59940156676723
 20
11.237277506728976
 10
171.81503443434988
 20
11.482038848782448
 10
172.02225711158422
 20
11.7329105517926
 10
172.22126604544857
 20
11.98974988867517
 10
172.41215630357402
 20
12.25248778875313
 10
172.5949278859606
 20
12.521124252026476
 10
172.7694857249772
 20
12.795728349172245
 10
172.93563337364543
 20
13.076442807274688
 10
173.09305939065916
 20
13.363493901687743
 10
173.2413141480764
 20
13.657208306233041
 10
173.37977278191195
 20
13.95804001117002
 10
173.5075764563859
 20
14.266612997217383
 10
173.62353723446282
 20
14.583790351151926
 10
173.72597734016824
 20
14.910791048571589
 10
173.81243993095208
 20
15.249400090073639
 10
173.82217262174177
 20
15.300921340466386
 10
173.95594234534352
 20
15.297776366852482
 10
174.30857224670086
 20
15.263444725041076
 10
174.6589753179061
 20
15.235966561728812
 10
175.00728404297107
 20
15.214934133053806
 10
175.35360911578388
 20
15.20000675825861
 10
175.69804407682247
 20
15.190896549354312
 10
176.04066875134384
 20
15.187357829461689
 10
176.3815518440049
 20
15.189179147389305
 10
176.72075292749776
 20
15.196177157243135
 10
177.05832398789983
 20
15.20819186232871
 10
177.39431064044106
 20
15.225082873403728
 10
177.72875309660458
 20
15.246726432248694
 10
178.06168694108842
 20
15.273013020424102
 10
178.39314376159132
 20
15.303845420989743
 10
178.72315166338086
 20
15.339137134826135
 10
179.05173569270818
 20
15.378811077498563
 10
179.37891818738734
 20
15.422798500284461
 10
179.70471906862505
 20
15.471038092013751
 10
180.0291560850294
 20
15.523475228087737
 10
180.35224501734487
 20
15.580061340368706
 10
180.67399985064827
 20
15.64075338721604
 10
180.9944329193417
 20
15.705513407243574
 10
181.31355502919348
 20
15.774308143715999
 10
181.6313755598247
 20
15.847108729127784
 10
181.94790255036165
 20
15.92389042159246
 10
182.2631427704307
 20
16.004632386342248
 10
182.5771017782317
 20
16.089317516997085
 10
182.88978396706082
 20
16.17793229238157
 10
183.20119260135039
 20
16.270466665606232
 10
183.51132984303166
 20
16.3669139829307
 10
183.8201967687999
 20
16.46727093062771
 10
184.1277933786551
 20
16.57153750869725
 10
184.43411859590202
 20
16.679717030866605
 10
184.73917025860936
 20
16.79181615087613
 10
185.04294510234482
 20
16.90784491561531
 10
185.34543873381224
 20
17.027816846259533
 10
185.64664559481176
 20
17.151749049188872
 10
185.94655891571702
 20
17.2796623591711
 10
186.2451706574017
 20
17.41158151809269
 10
186.54247144024475
 20
17.547535393459167
 10
186.8384504584778
 20
17.68755724200585
 10
187.1330953776988
 20
17.83168502511889
 10
187.42639221283096
 20
17.97996178443892
 10
187.7183251831297
 20
18.132436088103645
 10
188.00887653998703
 20
18.28916256071176
 10
188.29802636219617
 20
18.450202513433343
 10
188.58575231194308
 20
18.615624694990967
 10
188.87202934297667
 20
18.785506189819337
 10
189.15682935002928
 20
18.959933497037945
 10
189.44012074540225
 20
19.13900383358699
 10
189.72186794439747
 20
19.322826717905983
 10
190.0020307355319
 20
19.511525908214423
 10
190.28056350357548
 20
19.70524179375461
 10
190.55741426245092
 20
19.904134371221005
 10
190.83252343946603
 20
20.10838698650764
 10
191.1058223299639
 20
20.318211090805953
 10
191.37723110868754
 20
20.533852360995166
 10
191.64665623515907
 20
20.75559868506419
 10
191.91398701549028
 20
20.983790743770456
 10
192.17909096566942
 20
21.21883628097588
 10
192.28546437628697
 20
21.300008488812733
 10
192.32362171969734
 20
21.264047653784854
 10
192.59260082590694
 20
21.040928620498416
 10
192.86768279976081
 20
20.836592282490386
 10
193.14792921090987
 20
20.64815044812444
 10
193.43269920595733
 20
20.47363077345167
 10
193.7215390333322
 20
20.311636754731957
 10
194.01412064695725
 20
20.161158769954138
 10
194.31020537002854
 20
20.021462247447865
 10
194.6096214599545
 20
19.89201861786651
 10
194.91224995674165
 20
19.77246175999658
 10
195.21801582432124
 20
19.662560736564647
 10
195.5268827500895
 20
19.562203788867638
 10
195.83885073404633
 20
19.471390916905563
 10
196.15395608879567
 20
19.390233879381473
 10
196.47227385040617
 20
19.31896361356882
 10
196.79392297887136
 20
19.257946240681076
 10
197.1190752167828
 20
19.207710330064884
 10
197.44796924094442
 20
19.16899045339058
 10
197.7809330974334
 20
19.14279623266934
 10
198.11842053782084
 20
19.13052417164127
 10
198.4610724155034
 20
19.13414661425529
 10
198.80982716083028
 20
19.15655175214771
 10
198.861834348599
 20
19.1632163550939
 10
198.90018041887566
 20
19.0350219374859
 10
198.97649771946
 20
18.689041911194963
 10
199.05864493706966
 20
18.34729756755766
 10
199.1462752240589
 20
18.009536907008638
 10
199.23909878006606
 20
17.675549377260495
 10
199.33687071294062
 20
17.345157053751127
 10
199.4393820374467
 20
17.018208099818914
 10
199.54645288245734
 20
16.694571831440598
 10
199.65792728463964
 20
16.374134934621964
 10
199.77366914267603
 20
16.05679852596775
 10
199.89355903434415
 20
15.742475840154562
 10
200.0174916846145
 20
15.43109039039635
 10
200.14537393153796
 20
15.122574490575118
 10
200.27712307744582
 20
14.81686805731753
 10
200.41266554179214
 20
14.513917631227752
 10
200.55193575264022
 20
14.213675571505124
 10
200.6948752288336
 20
13.916099389102413
 10
200.84143181597597
 20
13.621151191632629
 10
200.99155904760823
 20
13.32879721923715
 10
201.1452156092048
 20
13.039007455156103
 10
201.3023648873593
 20
12.751755298192652
 10
201.46297459018786
 20
12.467017286919887
 10
201.62701642782173
 20
12.184772867545032
 10
201.79446584409405
 20
11.905004198968502
 10
201.96530179229902
 20
11.62769598986351
 10
202.1395065493246
 20
11.352835363635418
 10
202.3170655636148
 20
11.080411747959928
 10
202.4979673333708
 20
10.810416786291073
 10
202.68220331219797
 20
10.542844269309677
 10
202.86976784008667
 20
10.27769008477804
 10
203.06065809821214
 20
10.01495218470008
 10
203.25487408657435
 20
9.7546305690758
 10
203.4524186239981
 20
9.496727285901276
 10
203.65329737049302
 20
9.241246447414213
 10
203.85751887245377
 20
8.988194262933787
 10
204.06509463167907
 20
8.737579089005958
 10
204.27603919972503
 20
8.489411497955034
 10
204.49037029970364
 20
8.243704366375644
 10
204.70810897832067
 20
8.000472985594582
 10
204.92927979174303
 20
7.7597351967114285
 10
205.15391102983946
 20
7.5215115535189625
 10
205.38203498449383
 20
7.285825517444092
 10
205.6136882691125
 20
7.052703689683651
 10
205.84891219822106
 20
6.822176086997521
 10
206.08775323827857
 20
6.59427646924431
 10
206.3302635436814
 20
6.36904272881102
 10
206.57650159558602
 20
6.14651735474488
 10
206.8265329659291
 20
5.926747987846549
 10
207.08043123525653
 20
5.709788087511864
 10
207.3382791012371
 20
5.4956977371141535
 10
207.6001697258199
 20
5.284544622771426
 10
207.86620838403442
 20
5.076405231269721
 10
208.13651449810305
 20
4.871366327932436
 10
208.41122416934334
 20
4.669526796154836
 10
208.6904933610882
 20
4.470999949931129
 10
208.97450194446455
 20
4.275916473284582
 10
209.26345890470833
 20
4.08442820287681
 10
209.55760913397
 20
3.8967130632699103
 10
209.85724243261126
 20
3.712981606751291
 10
210.16270564827784
 20
3.5334858328863152
 10
210.2727761971136
 20
3.4574022992504774
 10
210.2503666782029
 20
3.4099999999999984
 10
210.12128698263692
 20
3.085238095238095
 10
210.01195658162555
 20
2.76047619047619
 10
209.91933865076686
 20
2.435714285714285
 10
209.84135934490536
 20
2.11095238095238
 10
209.77655029311228
 20
1.786190476190475
 10
209.72384991598216
 20
1.46142857142857
 10
209.68248583915263
 20
1.1366666666666667
 10
209.6519022919228
 20
0.8119047619047617
 10
209.6317143116672
 20
0.48714285714285666
 10
209.62167907656666
 20
0.16238095238095163
 10
209.62167907656666
 20
-0.1623809523809534
 10
209.6317143116672
 20
-0.48714285714285843
 10
209.6519022919228
 20
-0.8119047619047635
 10
209.68248583915263
 20
-1.1366666666666667
 10
209.72384991598216
 20
-1.4614285714285717
 10
209.77655029311228
 20
-1.7861904761904768
 10
209.84135934490536
 20
-2.110952380952382
 10
209.91933865076686
 20
-2.435714285714287
 10
210.01195658162555
 20
-2.760476190476191
 10
210.12128698263692
 20
-3.085238095238096
 10
210.2503666782029
 20
-3.410000000000001
 10
210.2727761971136
 20
-3.4574022992504827
 10
210.16270564827784
 20
-3.5334858328863197
 10
209.85724243261126
 20
-3.712981606751298
 10
209.55760913396998
 20
-3.896713063269913
 10
209.26345890470833
 20
-4.084428202876814
 10
208.97450194446455
 20
-4.275916473284588
 10
208.6904933610882
 20
-4.470999949931134
 10
208.41122416934334
 20
-4.669526796154842
 10
208.13651449810305
 20
-4.87136632793244
 10
207.86620838403442
 20
-5.076405231269727
 10
207.6001697258199
 20
-5.284544622771431
 10
207.3382791012371
 20
-5.495697737114158
 10
207.08043123525653
 20
-5.7097880875118685
 10
206.8265329659291
 20
-5.926747987846555
 10
206.57650159558602
 20
-6.146517354744888
 10
206.3302635436814
 20
-6.369042728811024
 10
206.08775323827857
 20
-6.594276469244314
 10
205.84891219822106
 20
-6.8221760869975245
 10
205.6136882691125
 20
-7.052703689683656
 10
205.38203498449383
 20
-7.285825517444097
 10
205.15391102983946
 20
-7.521511553518969
 10
204.92927979174303
 20
-7.759735196711432
 10
204.70810897832067
 20
-8.000472985594588
 10
204.49037029970364
 20
-8.243704366375649
 10
204.27603919972503
 20
-8.48941149795504
 10
204.06509463167907
 20
-8.737579089005964
 10
203.85751887245374
 20
-8.988194262933792
 10
203.65329737049302
 20
-9.241246447414218
 10
203.4524186239981
 20
-9.496727285901281
 10
203.25487408657435
 20
-9.754630569075806
 10
203.06065809821214
 20
-10.014952184700086
 10
202.86976784008667
 20
-10.277690084778046
 10
202.68220331219797
 20
-10.542844269309683
 10
202.4979673333708
 20
-10.810416786291078
 10
202.3170655636148
 20
-11.08041174795993
 10
202.1395065493246
 20
-11.352835363635423
 10
201.96530179229902
 20
-11.627695989863515
 10
201.79446584409405
 20
-11.905004198968507
 10
201.62701642782173
 20
-12.184772867545036
 10
201.46297459018786
 20
-12.46701728691989
 10
201.30236488735926
 20
-12.751755298192656
 10
201.1452156092048
 20
-13.03900745515611
 10
200.99155904760823
 20
-13.328797219237156
 10
200.84143181597597
 20
-13.621151191632633
 10
200.6948752288336
 20
-13.916099389102422
 10
200.55193575264022
 20
-14.213675571505128
 10
200.41266554179214
 20
-14.513917631227756
 10
200.27712307744582
 20
-14.816868057317537
 10
200.14537393153796
 20
-15.122574490575122
 10
200.0174916846145
 20
-15.431090390396356
 10
199.89355903434415
 20
-15.742475840154563
 10
199.77366914267603
 20
-16.056798525967753
 10
199.6579272846396
 20
-16.374134934621967
 10
199.54645288245734
 20
-16.694571831440598
 10
199.4393820374467
 20
-17.018208099818917
 10
199.33687071294062
 20
-17.34515705375113
 10
199.23909878006606
 20
-17.675549377260502
 10
199.1462752240589
 20
-18.009536907008652
 10
199.05864493706966
 20
-18.347297567557668
 10
198.97649771946
 20
-18.689041911194966
 10
198.90018041887566
 20
-19.035021937485904
 10
198.86183434859896
 20
-19.16321635509391
 10
198.80982716083028
 20
-19.156551752147717
 10
198.4610724155034
 20
-19.13414661425529
 10
198.1184205378208
 20
-19.130524171641277
 10
197.7809330974334
 20
-19.142796232669344
 10
197.4479692409444
 20
-19.168990453390585
 10
197.1190752167828
 20
-19.207710330064888
 10
196.79392297887136
 20
-19.25794624068108
 10
196.47227385040617
 20
-19.318963613568823
 10
196.15395608879567
 20
-19.390233879381476
 10
195.83885073404633
 20
-19.471390916905566
 10
195.52688275008947
 20
-19.56220378886764
 10
195.21801582432124
 20
-19.66256073656465
 10
194.91224995674162
 20
-19.772461759996585
 10
194.60962145995447
 20
-19.892018617866512
 10
194.31020537002854
 20
-20.021462247447868
 10
194.01412064695725
 20
-20.16115876995414
 10
193.7215390333322
 20
-20.31163675473196
 10
193.43269920595733
 20
-20.47363077345167
 10
193.14792921090987
 20
-20.648150448124444
 10
192.86768279976081
 20
-20.83659228249039
 10
192.5926008259069
 20
-21.040928620498416
  0
LWPOLYLINE
  5
B1
330
17
100
AcDbEntity
  8
CORTE
100
AcDbPolyline
 90
7
 70
1
 10
182.575
 20
3.7094754795433453
 10
182.575
 20
-3.7094754795433467
 10
189.0
 20
-7.4189509590866916
 10
195.425
 20
-3.709475479543349
 10
195.425
 20
3.7094754795433453
 10
189.0
 20
7.4189509590866916
 10
182.575
 20
3.7094754795433453
  0
CIRCLE
  5
B2
330
17
100
AcDbEntity
  8
CORTE
100
AcDbCircle
 10
200.66602505888673
 20
8.475863338057463
 30
0.0
 40
1.6
  0
CIRCLE
  5
B3
330
17
100
AcDbEntity
  8
CORTE
100
AcDbCircle
 10
184.54397494111325
 20
13.714234964976116
 30
0.0
 40
1.6
  0
CIRCLE
  5
B4
330
17
100
AcDbEntity
  8
CORTE
100
AcDbCircle
 10
174.58
 20
1.7659406843704834e-15
 30
0.0
 40
1.6
  0
CIRCLE
  5
B5
330
17
100
AcDbEntity
  8
CORTE
100
AcDbCircle
 10
184.54397494111325
 20
-13.714234964976114
 30
0.0
 40
1.6
  0
CIRCLE
  5
B6
330
17
100
AcDbEntity
  8
CORTE
100
AcDbCircle
 10
200.66602505888673
 20
-8.475863338057465
 30
0.0
 40
1.6
  0
TEXT
  5
B7
330
17
100
AcDbEntity
  8
TEXTO
100
AcDbText
 10
189.0
 20
-33.5
 30
0.0
 40
2.5
  1
placa_intermedia_2
 11
189.0
 21
-33.5
 31
0.0
100
AcDbText
  0
LWPOLYLINE
  5
B8
330
17
100
AcDbEntity
  8
CORTE
100
AcDbPolyline
 90
482
 70
1
 10
279.48527615560005
 20
-0.8997747775988437
 10
279.46687504564227
 20
-1.3493610440039954
 10
279.4411203890616
 20
-1.7985860538289342
 10
279.40801908100246
 20
-2.2473295386758756
 10
279.3675799834854
 20
-2.6954713590629167
 10
279.3198139230347
 20
-3.1428915365882757
 10
279.26473368777977
 20
-3.5894702860514185
 10
279.2023540240315
 20
-4.035088047522448
 10
279.1326916323342
 20
-4.479625518351189
 10
279.05576516299465
 20
-4.922963685107399
 10
278.9715952110888
 20
-5.364983855443527
 10
278.8802043109482
 20
-5.805567689871541
 10
278.7816169301267
 20
-6.244597233445263
 10
278.67585946285
 20
-6.681954947339755
 10
278.66403371489696
 20
-6.727579052218578
 10
272.7669524571393
 20
-2.4430987273542986
 10
272.57606219901385
 20
-2.7058366274322605
 10
272.3134790084876
 20
-2.9164865631636117
 10
272.03236955917487
 20
-3.1136763840017965
 10
271.7547171223421
 20
-3.313377871426458
 10
271.48048153587683
 20
-3.5155618459550206
 10
271.2096248031542
 20
-3.720200701423477
 10
270.94211099579417
 20
-3.9272683343357784
 10
270.6779061637618
 20
-4.13674007854777
 10
270.41697825223685
 20
-4.348592644869322
 10
270.159297024737
 20
-4.562804065210053
 10
269.90483399202924
 20
-4.77935364093068
 10
269.65356234641155
 20
-4.998221895095563
 10
269.4054569009847
 20
-5.219390528351286
 10
269.16049403357385
 20
-5.442842378183176
 10
268.9186516349902
 20
-5.668561381325385
 10
268.6799090613551
 20
-5.896532539122031
 10
268.44424709023326
 20
-6.12674188565648
 10
268.2116478803497
 20
-6.359176458483658
 10
267.9820949346839
 20
-6.593824271816591
 10
267.75557306675773
 20
-6.830674292033045
 10
267.5320683699508
 20
-7.069716415381881
 10
267.3115681896948
 20
-7.310941447781065
 10
267.09406109841404
 20
-7.554341086610897
 10
266.8795368730941
 20
-7.7999079044165756
 10
266.66798647537365
 20
-8.047635334444239
 10
266.4594020340685
 20
-8.297517657943816
 10
266.2537768300474
 20
-8.54954999318077
 10
266.05110528339196
 20
-8.803728286107006
 10
265.85138294278204
 20
-9.060049302649135
 10
265.65460647706016
 20
-9.318510622579634
 10
265.4607736689373
 20
-9.579110634943696
 10
265.2698834108118
 20
-9.841848535021656
 10
265.0819357026838
 20
-10.10672432281351
 10
264.89693165215476
 20
-10.373738803038933
 10
264.7148734765138
 20
-10.642893586652718
 10
264.53576450691827
 20
-10.914191093882401
 10
264.3596091946884
 20
-11.187634558801367
 10
264.18641311974267
 20
-11.463228035457707
 10
264.0161830012122
 20
-11.740976405585961
 10
263.8489267102812
 20
-12.0208853879362
 10
263.684653285311
 20
-12.302961549262289
 10
263.5233729493161
 20
-12.58721231701902
 10
263.36509712987214
 20
-12.873645993826104
 10
263.2098384815474
 20
-13.162271773765568
 10
263.05761091096224
 20
-13.453099760588554
 10
262.9084296045949
 20
-13.746140987917293
 10
262.7623110594658
 20
-14.041407441538762
 10
262.61927311685
 20
-14.338912083898034
 10
262.4793349991827
 20
-14.638668880911743
 10
262.3425173503427
 20
-14.940692831235772
 10
262.2088422795186
 20
-15.244999998135969
 10
262.0783334088853
 20
-15.551607544127002
 10
261.9510159253422
 20
-15.860533768562291
 10
261.82691663659114
 20
-16.171798148377484
 10
261.70606403186514
 20
-16.485421382211847
 10
261.5884883476466
 20
-16.801425438155775
 10
261.47422163875575
 20
-17.11983360539939
 10
261.3632978552275
 20
-17.44067055008685
 10
261.25575292544175
 20
-17.763962375714208
 10
261.15162484602365
 20
-18.089736688445463
 10
261.05095377908543
 20
-18.418022667763196
 10
260.9317564533608
 20
-18.732848532187763
 10
260.7408661952353
 20
-18.995586432265725
 10
266.6375690092034
 20
-23.279791801622405
 10
266.5218658928851
 20
-23.35305999198092
 10
266.1378254653136
 20
-23.58753677500748
 10
265.75
 20
-23.81569860407206
 10
265.35849332719937
 20
-24.037484394735866
 10
264.96341026271494
 20
-24.25283476957976
 10
264.56485657983654
 20
-24.461692074101038
 10
264.16293898102253
 20
-24.664000392148928
 10
263.7577650693328
 20
-24.859705560894692
 10
263.34944331962083
 20
-25.048755185332332
 10
262.93808304949283
 20
-25.23109865230601
 10
262.52379439004
 20
-25.406687144060385
 10
262.10668825635435
 20
-25.575473651310332
 10
261.68687631783393
 20
-25.737412985826456
 10
261.26447096828605
 20
-25.89246179253307
 10
260.83958529583697
 20
-26.040578561115403
 10
260.41233305265524
 20
-26.18172363713292
 10
259.9828286244977
 20
-26.31585923263574
 10
259.55118700008563
 20
-26.442949436281452
 10
259.1175237403193
 20
-26.562960222949375
 10
258.68195494733976
 20
-26.67585946284996
 10
258.2445972334453
 20
-26.781616930126674
 10
257.80556768987157
 20
-26.880204310948223
 10
257.36498385544354
 20
-26.971595211088836
 10
256.9229636851074
 20
-27.05576516299463
 10
256.4796255183512
 20
-27.132691632334172
 10
256.03508804752244
 20
-27.202354024031475
 10
255.5894702860514
 20
-27.264733687779785
 10
255.14289153658828
 20
-27.31981392303472
 10
254.69547135906294
 20
-27.367579983485413
 10
254.24732953867587
 20
-27.408019081002458
 10
253.84132233539435
 20
-27.437967971546538
 10
256.09381626602993
 20
-20.505504483642284
 10
255.78494934026168
 20
-20.40514753594528
 10
255.5034666779174
 20
-20.220510491530668
 10
255.22906041674517
 20
-20.01409452372644
 10
254.95333369430517
 20
-19.81174251782753
 10
254.6763018511592
 20
-19.613407260439367
 10
254.39797940072657
 20
-19.419044083850288
 10
254.1183800664273
 20
-19.228610751716467
 10
253.83751681602078
 20
-19.04206735337827
 10
253.55540189335886
 20
-18.859376206134517
 10
253.27204684775012
 20
-18.68050176486829
 10
252.98746256111318
 20
-18.505410538477715
 10
252.7016592730791
 20
-18.33407101261893
 10
252.41464660418728
 20
-18.16645357831613
 10
252.12643357730568
 20
-18.002530466037246
 10
251.8370286373929
 20
-17.842275684872167
 10
251.54643966970897
 20
-17.68566496648589
 10
251.25467401657082
 20
-17.532675713550613
 10
250.96173849273904
 20
-17.38328695238963
 10
250.66763939951477
 20
-17.237479289592237
 10
250.37238253761655
 20
-17.095234872382644
 10
250.07597321890063
 20
-16.956537352548086
 10
249.77841627698203
 20
-16.821371853751344
 10
249.47971607680623
 20
-16.689724942071543
 10
249.17987652321727
 20
-16.561584599634365
 10
248.87890106856202
 20
-16.436940201208866
 10
248.57679271936527
 20
-16.31578249366306
 10
248.27355404210675
 20
-16.19810357818454
 10
247.9691871681257
 20
-16.083896895185703
 10
247.6636937976751
 20
-15.973157211825871
 10
247.35707520314386
 20
-15.865880612094658
 10
247.04933223146102
 20
-15.762064489412436
 10
246.7404653056928
 20
-15.66170754171543
 10
246.43047442583915
 20
-15.564809769003638
 10
246.1193591688339
 20
-15.471372473340837
 10
245.80711868774804
 20
-15.381398261306654
 10
245.49375171019264
 20
-15.294891048911479
 10
245.17925653591467
 20
-15.211856068995987
 10
244.86363103357496
 20
-15.132299881147778
 10
244.54687263669376
 20
-15.056230384179262
 10
244.22897833874623
 20
-14.983656831222428
 10
243.90994468738555
 20
-14.914589847508216
 10
243.5897677777677
 20
-14.849041450910942
 10
243.26844324494712
 20
-14.787025075351487
 10
242.9459662553089
 20
-14.728555597167068
 10
242.62233149699668
 20
-14.673649364570446
 10
242.29753316929197
 20
-14.622324230337416
 10
241.97156497089367
 20
-14.574599587878682
 10
241.64442008704114
 20
-14.530496410870942
 10
241.31609117541745
 20
-14.49003729664201
 10
240.98657035076258
 20
-14.453246513526878
 10
240.6558491681179
 20
-14.420150052435668
 10
240.32391860461553
 20
-14.390775682900436
 10
239.99076903971599
 20
-14.365153013896999
 10
239.65639023378827
 20
-14.34331355976921
 10
239.3207713049137
 20
-14.32529081161895
 10
238.98390070378375
 20
-14.311120314563134
 10
238.64576618654655
 20
-14.300839751302943
 10
238.3063547854427
 20
-14.294489032498007
 10
237.9656527770522
 20
-14.292110394492157
 10
237.62364564795575
 20
-14.293748504997051
 10
237.2803180575915
 20
-14.299450577407269
 10
236.94406686839932
 20
-14.283373726427865
 10
236.6351999426311
 20
-14.183016778730858
 10
234.38290677544467
 20
-21.114862380272736
 10
234.20870580529143
 20
-20.969498107425675
 10
233.8679900847481
 20
-20.675594705671887
 10
233.532128741707
 20
-20.37615594726138
 10
233.20121169437104
 20
-20.071261999190487
 10
232.87532753723568
 20
-19.7609944889417
 10
232.55456351736996
 20
-19.445436482630058
 10
232.2390055110583
 20
-19.12467246276433
 10
231.92873800080952
 20
-18.798788305628968
 10
231.62384405273863
 20
-18.46787125829301
 10
231.32440529432813
 20
-18.132009915251896
 10
231.03050189257434
 20
-17.791294194708577
 10
230.74221253252475
 20
-17.44581531450026
 10
230.45961439621212
 20
-17.095665767677136
 10
230.18278314199102
 20
-16.740939297739825
 10
229.91179288428228
 20
-16.38173087354192
 10
229.6467161737306
 20
-16.01813666386456
 10
229.3876239777812
 20
-15.65025401166971
 10
229.13458566168
 20
-15.27818140803907
 10
228.88766896990296
 20
-14.902018465805678
 10
228.64694000801907
 20
-14.521865892885122
 10
228.41246322499254
 20
-14.137825465313608
 10
228.18430139592795
 20
-13.750000000000009
 10
227.96251560526414
 20
-13.358493327199358
 10
227.74716523042025
 20
-12.963410262714941
 10
227.53830792589895
 20
-12.564856579836572
 10
227.33599960785108
 20
-12.162938981022547
 10
227.1402944391053
 20
-11.757765069332766
 10
226.95124481466766
 20
-11.349443319620862
 10
226.768901347694
 20
-10.938083049492809
 10
226.59331285593962
 20
-10.523794390039972
 10
226.47442577915103
 20
-10.23
 10
233.76316513896435
 20
-10.23
 10
233.76316513896435
 20
-9.905238095238094
 10
233.85178247691806
 20
-9.58047619047619
 10
233.96329953010053
 20
-9.255714285714284
 10
234.07054348085882
 20
-8.93095238095238
 10
234.17356397229378
 20
-8.606190476190474
 10
234.2724079708169
 20
-8.28142857142857
 10
234.36711988634818
 20
-7.956666666666667
 10
234.45774168343854
 20
-7.63190476190476
 10
234.54431298402486
 20
-7.307142857142857
 10
234.62687116245476
 20
-6.98238095238095
 10
234.70545143335676
 20
-6.657619047619047
 10
234.7800869328729
 20
-6.332857142857144
 10
234.85080879372276
 20
-6.008095238095237
 10
234.91764621452032
 20
-5.683333333333332
 10
234.98062652372573
 20
-5.358571428571427
 10
235.03977523857645
 20
-5.0338095238095235
 10
235.09511611930907
 20
-4.7090476190476185
 10
235.14667121895235
 20
-4.3842857142857135
 10
235.194460928945
 20
-4.059523809523808
 10
235.23850402080643
 20
-3.7347619047619034
 10
235.27881768406473
 20
-3.4099999999999984
 10
235.31541756062657
 20
-3.085238095238095
 10
235.34831777575226
 20
-2.76047619047619
 10
235.37753096578265
 20
-2.435714285714285
 10
235.4030683027467
 20
-2.11095238095238
 10
235.42493951596316
 20
-1.786190476190475
 10
235.4431529107349
 20
-1.46142857142857
 10
235.45771538422048
 20
-1.1366666666666667
 10
235.4686324385542
 20
-0.8119047619047617
 10
235.47590819127305
 20
-0.48714285714285666
 10
235.47954538309702
 20
-0.16238095238095163
 10
235.47954538309702
 20
0.1623809523809534
 10
235.47590819127305
 20
0.48714285714285843
 10
235.4686324385542
 20
0.8119047619047635
 10
235.45771538422048
 20
1.1366666666666667
 10
235.4431529107349
 20
1.4614285714285717
 10
235.42493951596316
 20
1.7861904761904768
 10
235.4030683027467
 20
2.110952380952382
 10
235.37753096578265
 20
2.435714285714287
 10
235.34831777575226
 20
2.760476190476191
 10
235.31541756062657
 20
3.085238095238096
 10
235.27881768406473
 20
3.410000000000001
 10
235.23850402080643
 20
3.734761904761905
 10
235.194460928945
 20
4.05952380952381
 10
235.14667121895235
 20
4.384285714285715
 10
235.09511611930907
 20
4.709047619047619
 10
235.03977523857645
 20
5.033809523809524
 10
234.98062652372573
 20
5.358571428571429
 10
234.91764621452032
 20
5.683333333333334
 10
234.85080879372276
 20
6.008095238095239
 10
234.7800869328729
 20
6.332857142857144
 10
234.70545143335676
 20
6.657619047619049
 10
234.62687116245476
 20
6.982380952380953
 10
234.54431298402486
 20
7.307142857142858
 10
234.45774168343854
 20
7.631904761904762
 10
234.36711988634818
 20
7.956666666666667
 10
234.2724079708169
 20
8.281428571428572
 10
234.17356397229378
 20
8.606190476190477
 10
234.07054348085882
 20
8.930952380952382
 10
233.96329953010053
 20
9.255714285714287
 10
233.85178247691806
 20
9.58047619047619
 10
233.76316513896435
 20
9.905238095238095
 10
233.76316513896435
 20
10.23
 10
226.47442577915103
 20
10.23
 10
226.59331285593962
 20
10.523794390039953
 10
226.768901347694
 20
10.938083049492793
 10
226.95124481466766
 20
11.349443319620846
 10
227.1402944391053
 20
11.75776506933275
 10
227.33599960785108
 20
12.16293898102253
 10
227.53830792589895
 20
12.564856579836555
 10
227.74716523042022
 20
12.963410262714925
 10
227.96251560526412
 20
13.358493327199342
 10
228.18430139592795
 20
13.749999999999993
 10
228.4124632249925
 20
14.137825465313593
 10
228.64694000801907
 20
14.521865892885108
 10
228.88766896990296
 20
14.90201846580566
 10
229.13458566168
 20
15.278181408039053
 10
229.38762397778117
 20
15.650254011669695
 10
229.64671617373057
 20
16.018136663864546
 10
229.91179288428225
 20
16.381730873541905
 10
230.18278314199102
 20
16.74093929773981
 10
230.45961439621212
 20
17.095665767677122
 10
230.74221253252472
 20
17.445815314500244
 10
231.0305018925743
 20
17.791294194708566
 10
231.3244052943281
 20
18.132009915251885
 10
231.6238440527386
 20
18.467871258293
 10
231.92873800080952
 20
18.798788305628953
 10
232.2390055110583
 20
19.124672462764316
 10
232.55456351736993
 20
19.445436482630047
 10
232.87532753723568
 20
19.760994488941687
 10
233.20121169437104
 20
20.071261999190472
 10
233.532128741707
 20
20.37615594726137
 10
233.8679900847481
 20
20.675594705671877
 10
234.20870580529143
 20
20.96949810742567
 10
234.3829067754447
 20
21.114862380272744
 10
236.6351999426311
 20
14.183016778730863
 10
236.94406686839932
 20
14.283373726427872
 10
237.28031805759153
 20
14.299450577407274
 10
237.62364564795575
 20
14.293748504997055
 10
237.9656527770522
 20
14.292110394492159
 10
238.30635478544272
 20
14.294489032498014
 10
238.64576618654655
 20
14.300839751302949
 10
238.98390070378375
 20
14.311120314563135
 10
239.32077130491373
 20
14.325290811618956
 10
239.65639023378827
 20
14.343313559769216
 10
239.99076903971599
 20
14.365153013897
 10
240.32391860461553
 20
14.390775682900442
 10
240.6558491681179
 20
14.420150052435673
 10
240.98657035076258
 20
14.453246513526883
 10
241.31609117541745
 20
14.490037296642011
 10
241.64442008704114
 20
14.530496410870947
 10
241.9715649708937
 20
14.574599587878684
 10
242.29753316929197
 20
14.622324230337417
 10
242.62233149699668
 20
14.673649364570451
 10
242.9459662553089
 20
14.728555597167071
 10
243.26844324494712
 20
14.78702507535149
 10
243.5897677777677
 20
14.849041450910947
 10
243.90994468738558
 20
14.91458984750822
 10
244.22897833874623
 20
14.983656831222431
 10
244.54687263669376
 20
15.056230384179266
 10
244.86363103357496
 20
15.132299881147782
 10
245.17925653591467
 20
15.21185606899599
 10
245.49375171019264
 20
15.294891048911483
 10
245.80711868774807
 20
15.381398261306657
 10
246.11935916883394
 20
15.47137247334084
 10
246.43047442583915
 20
15.564809769003642
 10
246.7404653056928
 20
15.661707541715433
 10
247.04933223146105
 20
15.76206448941244
 10
247.35707520314386
 20
15.865880612094662
 10
247.6636937976751
 20
15.973157211825875
 10
247.9691871681257
 20
16.083896895185703
 10
248.27355404210675
 20
16.198103578184543
 10
248.57679271936527
 20
16.315782493663065
 10
248.87890106856202
 20
16.43694020120887
 10
249.1798765232173
 20
16.561584599634365
 10
249.47971607680623
 20
16.689724942071546
 10
249.77841627698203
 20
16.821371853751348
 10
250.07597321890063
 20
16.95653735254809
 10
250.37238253761655
 20
17.095234872382644
 10
250.6676393995148
 20
17.23747928959224
 10
250.96173849273904
 20
17.383286952389632
 10
251.25467401657082
 20
17.532675713550613
 10
251.546439669709
 20
17.68566496648589
 10
251.8370286373929
 20
17.84227568487217
 10
252.1264335773057
 20
18.002530466037246
 10
252.41464660418728
 20
18.16645357831613
 10
252.7016592730791
 20
18.334071012618935
 10
252.98746256111318
 20
18.50541053847772
 10
253.27204684775012
 20
18.68050176486829
 10
253.55540189335886
 20
18.85937620613452
 10
253.8375168160208
 20
19.042067353378272
 10
254.1183800664273
 20
19.228610751716463
 10
254.39797940072657
 20
19.41904408385029
 10
254.6763018511592
 20
19.613407260439367
 10
254.95333369430517
 20
19.81174251782753
 10
255.22906041674517
 20
20.014094523726435
 10
255.50346667791743
 20
20.22051049153067
 10
255.78494934026168
 20
20.40514753594528
 10
256.09381626602993
 20
20.505504483642287
 10
253.84132233539435
 20
27.43796797154654
 10
254.24732953867587
 20
27.408019081002458
 10
254.6954713590629
 20
27.367579983485417
 10
255.14289153658825
 20
27.319813923034722
 10
255.5894702860514
 20
27.26473368777979
 10
256.03508804752244
 20
27.202354024031482
 10
256.4796255183512
 20
27.132691632334172
 10
256.9229636851074
 20
27.055765162994632
 10
257.3649838554435
 20
26.971595211088843
 10
257.8055676898715
 20
26.880204310948226
 10
258.24459723344523
 20
26.78161693012668
 10
258.68195494733976
 20
26.67585946284996
 10
259.1175237403193
 20
26.562960222949382
 10
259.55118700008563
 20
26.44294943628146
 10
259.9828286244977
 20
26.315859232635745
 10
260.4123330526552
 20
26.181723637132922
 10
260.83958529583697
 20
26.040578561115407
 10
261.26447096828605
 20
25.892461792533076
 10
261.6868763178339
 20
25.737412985826463
 10
262.10668825635435
 20
25.575473651310336
 10
262.52379439003994
 20
25.406687144060392
 10
262.9380830494928
 20
25.23109865230602
 10
263.34944331962083
 20
25.04875518533234
 10
263.7577650693327
 20
24.8597055608947
 10
264.16293898102253
 20
24.66400039214893
 10
264.56485657983654
 20
24.461692074101048
 10
264.9634102627149
 20
24.252834769579778
 10
265.3584933271993
 20
24.037484394735873
 10
265.75
 20
23.815698604072075
 10
266.1378254653136
 20
23.587536775007486
 10
266.5218658928851
 20
23.353059991980928
 10
266.6375690092034
 20
23.279791801622398
 10
260.7408661952353
 20
18.995586432265718
 10
260.9317564533608
 20
18.73284853218776
 10
261.05095377908543
 20
18.418022667763193
 10
261.15162484602365
 20
18.08973668844546
 10
261.25575292544175
 20
17.7639623757142
 10
261.3632978552275
 20
17.440670550086846
 10
261.47422163875575
 20
17.119833605399386
 10
261.5884883476466
 20
16.80142543815577
 10
261.70606403186514
 20
16.48542138221184
 10
261.82691663659114
 20
16.171798148377476
 10
261.9510159253422
 20
15.860533768562288
 10
262.0783334088853
 20
15.551607544126998
 10
262.2088422795186
 20
15.244999998135967
 10
262.3425173503427
 20
14.940692831235767
 10
262.4793349991827
 20
14.638668880911737
 10
262.61927311685
 20
14.338912083898029
 10
262.7623110594658
 20
14.041407441538759
 10
262.9084296045949
 20
13.746140987917288
 10
263.05761091096224
 20
13.453099760588549
 10
263.2098384815474
 20
13.162271773765562
 10
263.36509712987214
 20
12.873645993826099
 10
263.5233729493161
 20
12.587212317019016
 10
263.684653285311
 20
12.302961549262285
 10
263.8489267102812
 20
12.020885387936197
 10
264.0161830012122
 20
11.740976405585958
 10
264.18641311974267
 20
11.463228035457702
 10
264.3596091946884
 20
11.187634558801362
 10
264.53576450691827
 20
10.914191093882396
 10
264.7148734765138
 20
10.642893586652715
 10
264.89693165215476
 20
10.373738803038927
 10
265.0819357026838
 20
10.106724322813506
 10
265.2698834108119
 20
9.84184853502165
 10
265.4607736689373
 20
9.57911063494369
 10
265.65460647706016
 20
9.318510622579629
 10
265.85138294278204
 20
9.06004930264913
 10
266.05110528339196
 20
8.803728286107003
 10
266.2537768300474
 20
8.549549993180765
 10
266.4594020340685
 20
8.29751765794381
 10
266.66798647537365
 20
8.047635334444234
 10
266.8795368730941
 20
7.79990790441657
 10
267.09406109841404
 20
7.554341086610892
 10
267.3115681896948
 20
7.310941447781062
 10
267.5320683699508
 20
7.069716415381874
 10
267.75557306675773
 20
6.83067429203304
 10
267.9820949346839
 20
6.593824271816584
 10
268.2116478803497
 20
6.3591764584836525
 10
268.44424709023326
 20
6.1267418856564735
 10
268.6799090613551
 20
5.896532539122027
 10
268.9186516349902
 20
5.668561381325379
 10
269.16049403357385
 20
5.44284237818317
 10
269.4054569009847
 20
5.21939052835128
 10
269.65356234641155
 20
4.998221895095559
 10
269.90483399202924
 20
4.779353640930674
 10
270.159297024737
 20
4.562804065210047
 10
270.41697825223685
 20
4.348592644869316
 10
270.6779061637618
 20
4.1367400785477635
 10
270.94211099579417
 20
3.927268334335774
 10
271.2096248031542
 20
3.7202007014234706
 10
271.48048153587683
 20
3.5155618459550135
 10
271.7547171223421
 20
3.31337787142645
 10
272.03236955917487
 20
3.1136763840017894
 10
272.3134790084876
 20
2.9164865631636054
 10
272.57606219901385
 20
2.7058366274322534
 10
272.7669524571393
 20
2.443098727354295
 10
278.66403371489696
 20
6.727579052218574
 10
278.67585946285
 20
6.681954947339765
 10
278.7816169301267
 20
6.244597233445281
 10
278.8802043109482
 20
5.805567689871569
 10
278.9715952110888
 20
5.36498385544354
 10
279.05576516299465
 20
4.922963685107421
 10
279.1326916323342
 20
4.479625518351198
 10
279.2023540240315
 20
4.035088047522466
 10
279.26473368777977
 20
3.5894702860514456
 10
279.3198139230347
 20
3.142891536588288
 10
279.3675799834854
 20
2.6954713590629384
 10
279.40801908100246
 20
2.247329538675883
 10
279.4411203890616
 20
1.798586053828951
 10
279.4668750456422
 20
1.349361044004022
 10
279.48527615560005
 20
0.8997747775988558
 10
279.49631879251297
 20
0.449947619728408
 10
279.5
 20
0.0
 10
279.49631879251297
 20
-0.4499476197283864
 10
279.48527615560005
 20
-0.8997747775988437
  0
LWPOLYLINE
  5
B9
330
17
100
AcDbEntity
  8
CORTE
100
AcDbPolyline
 90
7
 70
1
 10
245.575
 20
3.7094754795433453
 10
245.575
 20
-3.7094754795433467
 10
252.0
 20
-7.4189509590866916
 10
258.425
 20
-3.709475479543349
 10
258.425
 20
3.7094754795433453
 10
252.0
 20
7.4189509590866916
 10
245.575
 20
3.7094754795433453
  0
CIRCLE
  5
BA
330
17
100
AcDbEntity
  8
CORTE
100
AcDbCircle
 10
263.66602505888676
 20
8.475863338057463
 30
0.0
 40
1.6
  0
CIRCLE
  5
BB
330
17
100
AcDbEntity
  8
CORTE
100
AcDbCircle
 10
247.54397494111325
 20
13.714234964976116
 30
0.0
 40
1.6
  0
CIRCLE
  5
BC
330
17
100
AcDbEntity
  8
CORTE
100
AcDbCircle
 10
237.58
 20
1.7659406843704834e-15
 30
0.0
 40
1.6
  0
CIRCLE
  5
BD
330
17
100
AcDbEntity
  8
CORTE
100
AcDbCircle
 10
247.54397494111325
 20
-13.714234964976114
 30
0.0
 40
1.6
  0
CIRCLE
  5
BE
330
17
100
AcDbEntity
  8
CORTE
100
AcDbCircle
 10
263.66602505888676
 20
-8.475863338057465
 30
0.0
 40
1.6
  0
LINE
  5
BF
330
17
100
AcDbEntity
  8
RANURA
100
AcDbLine
 10
278.11631497776125
 20
3.1158613548046077
 30
0.0
 11
263.03374540393634
 21
23.87523743046576
 31
0.0
  0
LINE
  5
C0
330
17
100
AcDbEntity
  8
RANURA
100
AcDbLine
 10
257.107024913218
 20
25.8009456519673
 30
0.0
 11
232.7029147050844
 21
17.871569576306154
 31
0.0
  0
LINE
  5
C1
330
17
100
AcDbEntity
  8
RANURA
100
AcDbLine
 10
229.04
 20
12.830000000000004
 30
0.0
 11
229.04
 21
-12.829999999999997
 31
0.0
  0
LINE
  5
C2
330
17
100
AcDbEntity
  8
RANURA
100
AcDbLine
 10
232.70291470508437
 20
-17.87156957630615
 30
0.0
 11
257.107024913218
 21
-25.800945651967304
 31
0.0
  0
LINE
  5
C3
330
17
100
AcDbEntity
  8
RANURA
100
AcDbLine
 10
263.03374540393634
 20
-23.875237430465763
 30
0.0
 11
278.11631497776125
 21
-3.115861354804615
 31
0.0
  0
TEXT
  5
C4
330
17
100
AcDbEntity
  8
TEXTO
100
AcDbText
 10
252.0
 20
-33.5
 30
0.0
 40
2.5
  1
placa_ranurada_B
 11
252.0
 21
-33.5
 31
0.0
100
AcDbText
  0
LWPOLYLINE
  5
C5
330
17
100
AcDbEntity
  8
CORTE
100
AcDbPolyline
 90
482
 70
1
 10
342.48527615560005
 20
-0.8997747775988437
 10
342.46687504564227
 20
-1.3493610440039954
 10
342.4411203890616
 20
-1.7985860538289342
 10
342.40801908100246
 20
-2.2473295386758756
 10
342.3675799834854
 20
-2.6954713590629167
 10
342.3198139230347
 20
-3.1428915365882757
 10
342.26473368777977
 20
-3.5894702860514185
 10
342.2023540240315
 20
-4.035088047522448
 10
342.1326916323342
 20
-4.479625518351189
 10
342.05576516299465
 20
-4.922963685107399
 10
341.9715952110888
 20
-5.364983855443527
 10
341.8802043109482
 20
-5.805567689871541
 10
341.7816169301267
 20
-6.244597233445263
 10
341.67585946285
 20
-6.681954947339755
 10
341.66403371489696
 20
-6.727579052218578
 10
335.7669524571393
 20
-2.4430987273542986
 10
335.57606219901385
 20
-2.7058366274322605
 10
335.3134790084876
 20
-2.9164865631636117
 10
335.03236955917487
 20
-3.1136763840017965
 10
334.7547171223421
 20
-3.313377871426458
 10
334.48048153587683
 20
-3.5155618459550206
 10
334.2096248031542
 20
-3.720200701423477
 10
333.94211099579417
 20
-3.9272683343357784
 10
333.6779061637618
 20
-4.13674007854777
 10
333.41697825223685
 20
-4.348592644869322
 10
333.159297024737
 20
-4.562804065210053
 10
332.90483399202924
 20
-4.77935364093068
 10
332.65356234641155
 20
-4.998221895095563
 10
332.4054569009847
 20
-5.219390528351286
 10
332.16049403357385
 20
-5.442842378183176
 10
331.9186516349902
 20
-5.668561381325385
 10
331.6799090613551
 20
-5.896532539122031
 10
331.44424709023326
 20
-6.12674188565648
 10
331.2116478803497
 20
-6.359176458483658
 10
330.9820949346839
 20
-6.593824271816591
 10
330.75557306675773
 20
-6.830674292033045
 10
330.5320683699508
 20
-7.069716415381881
 10
330.3115681896948
 20
-7.310941447781065
 10
330.09406109841404
 20
-7.554341086610897
 10
329.8795368730941
 20
-7.7999079044165756
 10
329.66798647537365
 20
-8.047635334444239
 10
329.4594020340685
 20
-8.297517657943816
 10
329.2537768300474
 20
-8.54954999318077
 10
329.05110528339196
 20
-8.803728286107006
 10
328.85138294278204
 20
-9.060049302649135
 10
328.65460647706016
 20
-9.318510622579634
 10
328.4607736689373
 20
-9.579110634943696
 10
328.2698834108118
 20
-9.841848535021656
 10
328.0819357026838
 20
-10.10672432281351
 10
327.89693165215476
 20
-10.373738803038933
 10
327.7148734765138
 20
-10.642893586652718
 10
327.53576450691827
 20
-10.914191093882401
 10
327.3596091946884
 20
-11.187634558801367
 10
327.18641311974267
 20
-11.463228035457707
 10
327.0161830012122
 20
-11.740976405585961
 10
326.8489267102812
 20
-12.0208853879362
 10
326.684653285311
 20
-12.302961549262289
 10
326.5233729493161
 20
-12.58721231701902
 10
326.36509712987214
 20
-12.873645993826104
 10
326.2098384815474
 20
-13.162271773765568
 10
326.05761091096224
 20
-13.453099760588554
 10
325.9084296045949
 20
-13.746140987917293
 10
325.7623110594658
 20
-14.041407441538762
 10
325.61927311685
 20
-14.338912083898034
 10
325.4793349991827
 20
-14.638668880911743
 10
325.3425173503427
 20
-14.940692831235772
 10
325.2088422795186
 20
-15.244999998135969
 10
325.0783334088853
 20
-15.551607544127002
 10
324.9510159253422
 20
-15.860533768562291
 10
324.82691663659114
 20
-16.171798148377484
 10
324.70606403186514
 20
-16.485421382211847
 10
324.5884883476466
 20
-16.801425438155775
 10
324.47422163875575
 20
-17.11983360539939
 10
324.3632978552275
 20
-17.44067055008685
 10
324.25575292544175
 20
-17.763962375714208
 10
324.15162484602365
 20
-18.089736688445463
 10
324.05095377908543
 20
-18.418022667763196
 10
323.9317564533608
 20
-18.732848532187763
 10
323.7408661952353
 20
-18.995586432265725
 10
329.6375690092034
 20
-23.279791801622405
 10
329.5218658928851
 20
-23.35305999198092
 10
329.1378254653136
 20
-23.58753677500748
 10
328.75
 20
-23.81569860407206
 10
328.35849332719937
 20
-24.037484394735866
 10
327.96341026271494
 20
-24.25283476957976
 10
327.56485657983654
 20
-24.461692074101038
 10
327.16293898102253
 20
-24.664000392148928
 10
326.7577650693328
 20
-24.859705560894692
 10
326.34944331962083
 20
-25.048755185332332
 10
325.93808304949283
 20
-25.23109865230601
 10
325.52379439004
 20
-25.406687144060385
 10
325.10668825635435
 20
-25.575473651310332
 10
324.68687631783393
 20
-25.737412985826456
 10
324.26447096828605
 20
-25.89246179253307
 10
323.83958529583697
 20
-26.040578561115403
 10
323.41233305265524
 20
-26.18172363713292
 10
322.9828286244977
 20
-26.31585923263574
 10
322.55118700008563
 20
-26.442949436281452
 10
322.1175237403193
 20
-26.562960222949375
 10
321.68195494733976
 20
-26.67585946284996
 10
321.2445972334453
 20
-26.781616930126674
 10
320.80556768987157
 20
-26.880204310948223
 10
320.36498385544354
 20
-26.971595211088836
 10
319.9229636851074
 20
-27.05576516299463
 10
319.4796255183512
 20
-27.132691632334172
 10
319.03508804752244
 20
-27.202354024031475
 10
318.58947028605144
 20
-27.264733687779785
 10
318.1428915365883
 20
-27.31981392303472
 10
317.69547135906294
 20
-27.367579983485413
 10
317.2473295386759
 20
-27.408019081002458
 10
316.84132233539435
 20
-27.437967971546538
 10
319.09381626602993
 20
-20.505504483642284
 10
318.7849493402617
 20
-20.40514753594528
 10
318.5034666779174
 20
-20.220510491530668
 10
318.2290604167452
 20
-20.01409452372644
 10
317.9533336943052
 20
-19.81174251782753
 10
317.67630185115917
 20
-19.613407260439367
 10
317.39797940072657
 20
-19.419044083850288
 10
317.1183800664273
 20
-19.228610751716467
 10
316.8375168160208
 20
-19.04206735337827
 10
316.55540189335886
 20
-18.859376206134517
 10
316.2720468477501
 20
-18.68050176486829
 10
315.98746256111315
 20
-18.505410538477715
 10
315.7016592730791
 20
-18.33407101261893
 10
315.4146466041873
 20
-18.16645357831613
 10
315.1264335773057
 20
-18.002530466037246
 10
314.8370286373929
 20
-17.842275684872167
 10
314.546439669709
 20
-17.68566496648589
 10
314.2546740165708
 20
-17.532675713550613
 10
313.961738492739
 20
-17.38328695238963
 10
313.66763939951477
 20
-17.237479289592237
 10
313.37238253761655
 20
-17.095234872382644
 10
313.07597321890063
 20
-16.956537352548086
 10
312.77841627698206
 20
-16.821371853751344
 10
312.4797160768062
 20
-16.689724942071543
 10
312.1798765232173
 20
-16.561584599634365
 10
311.878901068562
 20
-16.436940201208866
 10
311.57679271936524
 20
-16.31578249366306
 10
311.27355404210675
 20
-16.19810357818454
 10
310.9691871681257
 20
-16.083896895185703
 10
310.6636937976751
 20
-15.973157211825871
 10
310.35707520314384
 20
-15.865880612094658
 10
310.04933223146105
 20
-15.762064489412436
 10
309.7404653056928
 20
-15.66170754171543
 10
309.4304744258391
 20
-15.564809769003638
 10
309.1193591688339
 20
-15.471372473340837
 10
308.8071186877481
 20
-15.381398261306654
 10
308.49375171019267
 20
-15.294891048911479
 10
308.1792565359147
 20
-15.211856068995987
 10
307.86363103357496
 20
-15.132299881147778
 10
307.54687263669376
 20
-15.056230384179262
 10
307.22897833874623
 20
-14.983656831222428
 10
306.9099446873856
 20
-14.914589847508216
 10
306.5897677777677
 20
-14.849041450910942
 10
306.26844324494715
 20
-14.787025075351487
 10
305.9459662553089
 20
-14.728555597167068
 10
305.62233149699665
 20
-14.673649364570446
 10
305.29753316929197
 20
-14.622324230337416
 10
304.97156497089367
 20
-14.574599587878682
 10
304.6444200870411
 20
-14.530496410870942
 10
304.31609117541745
 20
-14.49003729664201
 10
303.9865703507626
 20
-14.453246513526878
 10
303.6558491681179
 20
-14.420150052435668
 10
303.3239186046155
 20
-14.390775682900436
 10
302.990769039716
 20
-14.365153013896999
 10
302.6563902337883
 20
-14.34331355976921
 10
302.3207713049137
 20
-14.32529081161895
 10
301.9839007037838
 20
-14.311120314563134
 10
301.64576618654655
 20
-14.300839751302943
 10
301.3063547854427
 20
-14.294489032498007
 10
300.9656527770522
 20
-14.292110394492157
 10
300.62364564795575
 20
-14.293748504997051
 10
300.2803180575915
 20
-14.299450577407269
 10
299.9440668683993
 20
-14.283373726427865
 10
299.63519994263106
 20
-14.183016778730858
 10
297.38290677544467
 20
-21.114862380272736
 10
297.2087058052914
 20
-20.969498107425675
 10
296.8679900847481
 20
-20.675594705671887
 10
296.532128741707
 20
-20.37615594726138
 10
296.20121169437107
 20
-20.071261999190487
 10
295.8753275372357
 20
-19.7609944889417
 10
295.55456351736996
 20
-19.445436482630058
 10
295.23900551105834
 20
-19.12467246276433
 10
294.9287380008095
 20
-18.798788305628968
 10
294.6238440527386
 20
-18.46787125829301
 10
294.32440529432813
 20
-18.132009915251896
 10
294.0305018925743
 20
-17.791294194708577
 10
293.7422125325247
 20
-17.44581531450026
 10
293.45961439621215
 20
-17.095665767677136
 10
293.182783141991
 20
-16.740939297739825
 10
292.91179288428225
 20
-16.38173087354192
 10
292.64671617373057
 20
-16.01813666386456
 10
292.3876239777812
 20
-15.65025401166971
 10
292.13458566168003
 20
-15.27818140803907
 10
291.88766896990296
 20
-14.902018465805678
 10
291.6469400080191
 20
-14.521865892885122
 10
291.4124632249925
 20
-14.137825465313608
 10
291.18430139592795
 20
-13.750000000000009
 10
290.9625156052641
 20
-13.358493327199358
 10
290.74716523042025
 20
-12.963410262714941
 10
290.53830792589895
 20
-12.564856579836572
 10
290.3359996078511
 20
-12.162938981022547
 10
290.14029443910533
 20
-11.757765069332766
 10
289.9512448146677
 20
-11.349443319620862
 10
289.768901347694
 20
-10.938083049492809
 10
289.59331285593964
 20
-10.523794390039972
 10
289.47442577915103
 20
-10.23
 10
296.7631651389644
 20
-10.23
 10
296.7631651389644
 20
-9.905238095238094
 10
296.85178247691806
 20
-9.58047619047619
 10
296.9632995301005
 20
-9.255714285714284
 10
297.0705434808588
 20
-8.93095238095238
 10
297.1735639722938
 20
-8.606190476190474
 10
297.2724079708169
 20
-8.28142857142857
 10
297.3671198863482
 20
-7.956666666666667
 10
297.45774168343854
 20
-7.63190476190476
 10
297.5443129840248
 20
-7.307142857142857
 10
297.6268711624548
 20
-6.98238095238095
 10
297.70545143335676
 20
-6.657619047619047
 10
297.7800869328729
 20
-6.332857142857144
 10
297.85080879372276
 20
-6.008095238095237
 10
297.91764621452035
 20
-5.683333333333332
 10
297.98062652372573
 20
-5.358571428571427
 10
298.03977523857645
 20
-5.0338095238095235
 10
298.09511611930907
 20
-4.7090476190476185
 10
298.14667121895235
 20
-4.3842857142857135
 10
298.194460928945
 20
-4.059523809523808
 10
298.23850402080643
 20
-3.7347619047619034
 10
298.27881768406473
 20
-3.4099999999999984
 10
298.3154175606266
 20
-3.085238095238095
 10
298.34831777575226
 20
-2.76047619047619
 10
298.3775309657826
 20
-2.435714285714285
 10
298.4030683027467
 20
-2.11095238095238
 10
298.42493951596316
 20
-1.786190476190475
 10
298.4431529107349
 20
-1.46142857142857
 10
298.4577153842205
 20
-1.1366666666666667
 10
298.4686324385542
 20
-0.8119047619047617
 10
298.47590819127305
 20
-0.48714285714285666
 10
298.47954538309705
 20
-0.16238095238095163
 10
298.47954538309705
 20
0.1623809523809534
 10
298.47590819127305
 20
0.48714285714285843
 10
298.4686324385542
 20
0.8119047619047635
 10
298.4577153842205
 20
1.1366666666666667
 10
298.4431529107349
 20
1.4614285714285717
 10
298.42493951596316
 20
1.7861904761904768
 10
298.4030683027467
 20
2.110952380952382
 10
298.3775309657826
 20
2.435714285714287
 10
298.34831777575226
 20
2.760476190476191
 10
298.3154175606266
 20
3.085238095238096
 10
298.27881768406473
 20
3.410000000000001
 10
298.23850402080643
 20
3.734761904761905
 10
298.194460928945
 20
4.05952380952381
 10
298.14667121895235
 20
4.384285714285715
 10
298.09511611930907
 20
4.709047619047619
 10
298.03977523857645
 20
5.033809523809524
 10
297.98062652372573
 20
5.358571428571429
 10
297.91764621452035
 20
5.683333333333334
 10
297.85080879372276
 20
6.008095238095239
 10
297.7800869328729
 20
6.332857142857144
 10
297.70545143335676
 20
6.657619047619049
 10
297.6268711624548
 20
6.982380952380953
 10
297.5443129840248
 20
7.307142857142858
 10
297.45774168343854
 20
7.631904761904762
 10
297.3671198863482
 20
7.956666666666667
 10
297.2724079708169
 20
8.281428571428572
 10
297.1735639722938
 20
8.606190476190477
 10
297.0705434808588
 20
8.930952380952382
 10
296.9632995301005
 20
9.255714285714287
 10
296.85178247691806
 20
9.58047619047619
 10
296.7631651389644
 20
9.905238095238095
 10
296.7631651389644
 20
10.23
 10
289.47442577915103
 20
10.23
 10
289.5933128559396
 20
10.523794390039953
 10
289.768901347694
 20
10.938083049492793
 10
289.9512448146677
 20
11.349443319620846
 10
290.14029443910533
 20
11.75776506933275
 10
290.3359996078511
 20
12.16293898102253
 10
290.53830792589895
 20
12.564856579836555
 10
290.74716523042025
 20
12.963410262714925
 10
290.9625156052641
 20
13.358493327199342
 10
291.18430139592795
 20
13.749999999999993
 10
291.4124632249925
 20
14.137825465313593
 10
291.6469400080191
 20
14.521865892885108
 10
291.88766896990296
 20
14.90201846580566
 10
292.13458566168
 20
15.278181408039053
 10
292.3876239777812
 20
15.650254011669695
 10
292.64671617373057
 20
16.018136663864546
 10
292.91179288428225
 20
16.381730873541905
 10
293.182783141991
 20
16.74093929773981
 10
293.4596143962121
 20
17.095665767677122
 10
293.7422125325247
 20
17.445815314500244
 10
294.0305018925743
 20
17.791294194708566
 10
294.32440529432813
 20
18.132009915251885
 10
294.6238440527386
 20
18.467871258293
 10
294.9287380008095
 20
18.798788305628953
 10
295.2390055110583
 20
19.124672462764316
 10
295.55456351736996
 20
19.445436482630047
 10
295.87532753723565
 20
19.760994488941687
 10
296.201211694371
 20
20.071261999190472
 10
296.53212874170697
 20
20.37615594726137
 10
296.8679900847481
 20
20.675594705671877
 10
297.2087058052914
 20
20.96949810742567
 10
297.38290677544467
 20
21.114862380272744
 10
299.63519994263106
 20
14.183016778730863
 10
299.9440668683993
 20
14.283373726427872
 10
300.2803180575915
 20
14.299450577407274
 10
300.62364564795575
 20
14.293748504997055
 10
300.9656527770522
 20
14.292110394492159
 10
301.3063547854427
 20
14.294489032498014
 10
301.64576618654655
 20
14.300839751302949
 10
301.9839007037838
 20
14.311120314563135
 10
302.3207713049137
 20
14.325290811618956
 10
302.6563902337883
 20
14.343313559769216
 10
302.990769039716
 20
14.365153013897
 10
303.3239186046155
 20
14.390775682900442
 10
303.6558491681179
 20
14.420150052435673
 10
303.9865703507626
 20
14.453246513526883
 10
304.31609117541745
 20
14.490037296642011
 10
304.6444200870411
 20
14.530496410870947
 10
304.97156497089367
 20
14.574599587878684
 10
305.29753316929197
 20
14.622324230337417
 10
305.62233149699665
 20
14.673649364570451
 10
305.9459662553089
 20
14.728555597167071
 10
306.26844324494715
 20
14.78702507535149
 10
306.5897677777677
 20
14.849041450910947
 10
306.9099446873856
 20
14.91458984750822
 10
307.22897833874623
 20
14.983656831222431
 10
307.54687263669376
 20
15.056230384179266
 10
307.86363103357496
 20
15.132299881147782
 10
308.1792565359147
 20
15.21185606899599
 10
308.49375171019267
 20
15.294891048911483
 10
308.8071186877481
 20
15.381398261306657
 10
309.1193591688339
 20
15.47137247334084
 10
309.4304744258392
 20
15.564809769003642
 10
309.7404653056928
 20
15.661707541715433
 10
310.04933223146105
 20
15.76206448941244
 10
310.35707520314384
 20
15.865880612094662
 10
310.6636937976751
 20
15.973157211825875
 10
310.9691871681257
 20
16.083896895185703
 10
311.27355404210675
 20
16.198103578184543
 10
311.5767927193653
 20
16.315782493663065
 10
311.878901068562
 20
16.43694020120887
 10
312.1798765232173
 20
16.561584599634365
 10
312.47971607680626
 20
16.689724942071546
 10
312.77841627698206
 20
16.821371853751348
 10
313.07597321890063
 20
16.95653735254809
 10
313.37238253761655
 20
17.095234872382644
 10
313.66763939951477
 20
17.23747928959224
 10
313.961738492739
 20
17.383286952389632
 10
314.2546740165708
 20
17.532675713550613
 10
314.546439669709
 20
17.68566496648589
 10
314.8370286373929
 20
17.84227568487217
 10
315.1264335773057
 20
18.002530466037246
 10
315.4146466041873
 20
18.16645357831613
 10
315.7016592730791
 20
18.334071012618935
 10
315.9874625611132
 20
18.50541053847772
 10
316.2720468477501
 20
18.68050176486829
 10
316.55540189335886
 20
18.85937620613452
 10
316.8375168160208
 20
19.042067353378272
 10
317.1183800664273
 20
19.228610751716463
 10
317.39797940072657
 20
19.41904408385029
 10
317.67630185115917
 20
19.613407260439367
 10
317.9533336943052
 20
19.81174251782753
 10
318.2290604167452
 20
20.014094523726435
 10
318.5034666779174
 20
20.22051049153067
 10
318.7849493402617
 20
20.40514753594528
 10
319.09381626602993
 20
20.505504483642287
 10
316.84132233539435
 20
27.43796797154654
 10
317.2473295386759
 20
27.408019081002458
 10
317.6954713590629
 20
27.367579983485417
 10
318.14289153658825
 20
27.319813923034722
 10
318.58947028605144
 20
27.26473368777979
 10
319.03508804752244
 20
27.202354024031482
 10
319.4796255183512
 20
27.132691632334172
 10
319.9229636851074
 20
27.055765162994632
 10
320.3649838554435
 20
26.971595211088843
 10
320.8055676898715
 20
26.880204310948226
 10
321.24459723344523
 20
26.78161693012668
 10
321.68195494733976
 20
26.67585946284996
 10
322.1175237403193
 20
26.562960222949382
 10
322.55118700008563
 20
26.44294943628146
 10
322.9828286244977
 20
26.315859232635745
 10
323.4123330526552
 20
26.181723637132922
 10
323.83958529583697
 20
26.040578561115407
 10
324.26447096828605
 20
25.892461792533076
 10
324.6868763178339
 20
25.737412985826463
 10
325.10668825635435
 20
25.575473651310336
 10
325.52379439003994
 20
25.406687144060392
 10
325.9380830494928
 20
25.23109865230602
 10
326.34944331962083
 20
25.04875518533234
 10
326.7577650693327
 20
24.8597055608947
 10
327.16293898102253
 20
24.66400039214893
 10
327.56485657983654
 20
24.461692074101048
 10
327.9634102627149
 20
24.252834769579778
 10
328.3584933271993
 20
24.037484394735873
 10
328.75
 20
23.815698604072075
 10
329.1378254653136
 20
23.587536775007486
 10
329.5218658928851
 20
23.353059991980928
 10
329.6375690092034
 20
23.279791801622398
 10
323.7408661952353
 20
18.995586432265718
 10
323.9317564533608
 20
18.73284853218776
 10
324.05095377908543
 20
18.418022667763193
 10
324.15162484602365
 20
18.08973668844546
 10
324.25575292544175
 20
17.7639623757142
 10
324.3632978552275
 20
17.440670550086846
 10
324.47422163875575
 20
17.119833605399386
 10
324.5884883476466
 20
16.80142543815577
 10
324.70606403186514
 20
16.48542138221184
 10
324.82691663659114
 20
16.171798148377476
 10
324.9510159253422
 20
15.860533768562288
 10
325.0783334088853
 20
15.551607544126998
 10
325.2088422795186
 20
15.244999998135967
 10
325.3425173503427
 20
14.940692831235767
 10
325.4793349991827
 20
14.638668880911737
 10
325.61927311685
 20
14.338912083898029
 10
325.7623110594658
 20
14.041407441538759
 10
325.9084296045949
 20
13.746140987917288
 10
326.05761091096224
 20
13.453099760588549
 10
326.2098384815474
 20
13.162271773765562
 10
326.36509712987214
 20
12.873645993826099
 10
326.5233729493161
 20
12.587212317019016
 10
326.684653285311
 20
12.302961549262285
 10
326.8489267102812
 20
12.020885387936197
 10
327.0161830012122
 20
11.740976405585958
 10
327.18641311974267
 20
11.463228035457702
 10
327.3596091946884
 20
11.187634558801362
 10
327.53576450691827
 20
10.914191093882396
 10
327.7148734765138
 20
10.642893586652715
 10
327.89693165215476
 20
10.373738803038927
 10
328.0819357026838
 20
10.106724322813506
 10
328.2698834108119
 20
9.84184853502165
 10
328.4607736689373
 20
9.57911063494369
 10
328.65460647706016
 20
9.318510622579629
 10
328.85138294278204
 20
9.06004930264913
 10
329.05110528339196
 20
8.803728286107003
 10
329.2537768300474
 20
8.549549993180765
 10
329.4594020340685
 20
8.29751765794381
 10
329.66798647537365
 20
8.047635334444234
 10
329.8795368730941
 20
7.79990790441657
 10
330.09406109841404
 20
7.554341086610892
 10
330.3115681896948
 20
7.310941447781062
 10
330.5320683699508
 20
7.069716415381874
 10
330.75557306675773
 20
6.83067429203304
 10
330.9820949346839
 20
6.593824271816584
 10
331.2116478803497
 20
6.3591764584836525
 10
331.44424709023326
 20
6.1267418856564735
 10
331.6799090613551
 20
5.896532539122027
 10
331.9186516349902
 20
5.668561381325379
 10
332.16049403357385
 20
5.44284237818317
 10
332.4054569009847
 20
5.21939052835128
 10
332.65356234641155
 20
4.998221895095559
 10
332.90483399202924
 20
4.779353640930674
 10
333.159297024737
 20
4.562804065210047
 10
333.41697825223685
 20
4.348592644869316
 10
333.6779061637618
 20
4.1367400785477635
 10
333.94211099579417
 20
3.927268334335774
 10
334.2096248031542
 20
3.7202007014234706
 10
334.48048153587683
 20
3.5155618459550135
 10
334.7547171223421
 20
3.31337787142645
 10
335.03236955917487
 20
3.1136763840017894
 10
335.3134790084876
 20
2.9164865631636054
 10
335.57606219901385
 20
2.7058366274322534
 10
335.7669524571393
 20
2.443098727354295
 10
341.66403371489696
 20
6.727579052218574
 10
341.67585946285
 20
6.681954947339765
 10
341.7816169301267
 20
6.244597233445281
 10
341.8802043109482
 20
5.805567689871569
 10
341.9715952110888
 20
5.36498385544354
 10
342.05576516299465
 20
4.922963685107421
 10
342.1326916323342
 20
4.479625518351198
 10
342.2023540240315
 20
4.035088047522466
 10
342.26473368777977
 20
3.5894702860514456
 10
342.3198139230347
 20
3.142891536588288
 10
342.3675799834854
 20
2.6954713590629384
 10
342.40801908100246
 20
2.247329538675883
 10
342.4411203890616
 20
1.798586053828951
 10
342.4668750456422
 20
1.349361044004022
 10
342.48527615560005
 20
0.8997747775988558
 10
342.49631879251297
 20
0.449947619728408
 10
342.5
 20
0.0
 10
342.49631879251297
 20
-0.4499476197283864
 10
342.48527615560005
 20
-0.8997747775988437
  0
LWPOLYLINE
  5
C6
330
17
100
AcDbEntity
  8
CORTE
100
AcDbPolyline
 90
7
 70
1
 10
308.575
 20
3.7094754795433453
 10
308.575
 20
-3.7094754795433467
 10
315.0
 20
-7.4189509590866916
 10
321.425
 20
-3.709475479543349
 10
321.425
 20
3.7094754795433453
 10
315.0
 20
7.4189509590866916
 10
308.575
 20
3.7094754795433453
  0
CIRCLE
  5
C7
330
17
100
AcDbEntity
  8
CORTE
100
AcDbCircle
 10
326.66602505888676
 20
8.475863338057463
 30
0.0
 40
1.25
  0
CIRCLE
  5
C8
330
17
100
AcDbEntity
  8
CORTE
100
AcDbCircle
 10
310.5439749411133
 20
13.714234964976116
 30
0.0
 40
1.25
  0
CIRCLE
  5
C9
330
17
100
AcDbEntity
  8
CORTE
100
AcDbCircle
 10
300.58
 20
1.7659406843704834e-15
 30
0.0
 40
1.25
  0
CIRCLE
  5
CA
330
17
100
AcDbEntity
  8
CORTE
100
AcDbCircle
 10
310.5439749411133
 20
-13.714234964976114
 30
0.0
 40
1.25
  0
CIRCLE
  5
CB
330
17
100
AcDbEntity
  8
CORTE
100
AcDbCircle
 10
326.66602505888676
 20
-8.475863338057465
 30
0.0
 40
1.25
  0
TEXT
  5
CC
330
17
100
AcDbEntity
  8
TEXTO
100
AcDbText
 10
315.0
 20
-33.5
 30
0.0
 40
2.5
  1
placa_ext_roscada
 11
315.0
 21
-33.5
 31
0.0
100
AcDbText
  0
ENDSEC
  0
SECTION
  2
OBJECTS
  0
DICTIONARY
  5
A
330
0
100
AcDbDictionary
281
1
  3
ACAD_COLOR
350
B
  3
ACAD_GROUP
350
C
  3
ACAD_LAYOUT
350
D
  3
ACAD_MATERIAL
350
E
  3
ACAD_MLEADERSTYLE
350
F
  3
ACAD_MLINESTYLE
350
10
  3
ACAD_PLOTSETTINGS
350
11
  3
ACAD_PLOTSTYLENAME
350
12
  3
ACAD_SCALELIST
350
14
  3
ACAD_TABLESTYLE
350
15
  3
ACAD_VISUALSTYLE
350
16
  3
EZDXF_META
350
2D
  0
DICTIONARY
  5
B
330
A
100
AcDbDictionary
281
1
  0
DICTIONARY
  5
C
330
A
100
AcDbDictionary
281
1
  0
DICTIONARY
  5
D
330
A
100
AcDbDictionary
281
1
  3
Model
350
1A
  3
Layout1
350
1E
  0
DICTIONARY
  5
E
330
A
100
AcDbDictionary
281
1
  3
ByBlock
350
1F
  3
ByLayer
350
20
  3
Global
350
21
  0
DICTIONARY
  5
F
330
A
100
AcDbDictionary
281
1
  3
Standard
350
2C
  0
DICTIONARY
  5
10
330
A
100
AcDbDictionary
281
1
  3
Standard
350
22
  0
DICTIONARY
  5
11
330
A
100
AcDbDictionary
281
1
  0
ACDBDICTIONARYWDFLT
  5
12
330
A
100
AcDbDictionary
281
1
  3
Normal
350
13
100
AcDbDictionaryWithDefault
340
13
  0
ACDBPLACEHOLDER
  5
13
330
12
  0
DICTIONARY
  5
14
330
A
100
AcDbDictionary
281
1
  0
DICTIONARY
  5
15
330
A
100
AcDbDictionary
281
1
  0
DICTIONARY
  5
16
330
A
100
AcDbDictionary
281
1
  3
2dWireframe
350
5A
  3
Basic
350
5B
  3
Brighten
350
5C
  3
ColorChange
350
5D
  3
Conceptual
350
5E
  3
Dim
350
5F
  3
EdgeColorOff
350
60
  3
Facepattern
350
61
  3
Flat
350
62
  3
FlatWithEdges
350
63
  3
Gouraud
350
64
  3
GouraudWithEdges
350
65
  3
Hidden
350
66
  3
JitterOff
350
67
  3
Linepattern
350
68
  3
Modeling
350
69
  3
OverhangOff
350
6A
  3
Realistic
350
6B
  3
Shaded
350
6C
  3
Shaded with edges
350
6D
  3
Shades of Gray
350
6E
  3
Sketchy
350
6F
  3
Thicken
350
70
  3
Wireframe
350
71
  3
X-Ray
350
72
  0
LAYOUT
  5
1A
330
D
100
AcDbPlotSettings
  1

  4
A3
  6

 40
7.5
 41
20.0
 42
7.5
 43
20.0
 44
420.0
 45
297.0
 46
0.0
 47
0.0
 48
0.0
 49
0.0
140
0.0
141
0.0
142
1.0
143
1.0
 70
1024
 72
1
 73
0
 74
5
  7

 75
16
 76
0
 77
2
 78
300
147
1.0
148
0.0
149
0.0
100
AcDbLayout
  1
Model
 70
1
 71
0
 10
0.0
 20
0.0
 11
420.0
 21
297.0
 12
0.0
 22
0.0
 32
0.0
 14
1e+20
 24
1e+20
 34
1e+20
 15
-1e+20
 25
-1e+20
 35
-1e+20
146
0.0
 13
0.0
 23
0.0
 33
0.0
 16
1.0
 26
0.0
 36
0.0
 17
0.0
 27
1.0
 37
0.0
 76
1
330
17
  0
LAYOUT
  5
1E
330
D
100
AcDbPlotSettings
  1

  4
A3
  6

 40
7.5
 41
20.0
 42
7.5
 43
20.0
 44
420.0
 45
297.0
 46
0.0
 47
0.0
 48
0.0
 49
0.0
140
0.0
141
0.0
142
1.0
143
1.0
 70
0
 72
1
 73
0
 74
5
  7

 75
16
 76
0
 77
2
 78
300
147
1.0
148
0.0
149
0.0
100
AcDbLayout
  1
Layout1
 70
1
 71
1
 10
0.0
 20
0.0
 11
420.0
 21
297.0
 12
0.0
 22
0.0
 32
0.0
 14
1e+20
 24
1e+20
 34
1e+20
 15
-1e+20
 25
-1e+20
 35
-1e+20
146
0.0
 13
0.0
 23
0.0
 33
0.0
 16
1.0
 26
0.0
 36
0.0
 17
0.0
 27
1.0
 37
0.0
 76
1
330
1B
  0
MATERIAL
  5
1F
102
{ACAD_REACTORS
330
E
102
}
330
E
100
AcDbMaterial
  1
ByBlock
  2

 70
0
 40
1.0
 71
1
 41
1.0
 91
-1023410177
 42
1.0
 72
1
  3

 73
1
 74
1
 75
1
 44
0.5
 73
0
 45
1.0
 46
1.0
 77
1
  4

 78
1
 79
1
170
1
 48
1.0
171
1
  6

172
1
173
1
174
1
140
1.0
141
1.0
175
1
  7

176
1
177
1
178
1
143
1.0
179
1
  8

270
1
271
1
272
1
145
1.0
146
1.0
273
1
  9

274
1
275
1
276
1
 42
1.0
 72
1
  3

 73
1
 74
1
 75
1
 94
63
  0
MATERIAL
  5
20
102
{ACAD_REACTORS
330
E
102
}
330
E
100
AcDbMaterial
  1
ByLayer
  2

 70
0
 40
1.0
 71
1
 41
1.0
 91
-1023410177
 42
1.0
 72
1
  3

 73
1
 74
1
 75
1
 44
0.5
 73
0
 45
1.0
 46
1.0
 77
1
  4

 78
1
 79
1
170
1
 48
1.0
171
1
  6

172
1
173
1
174
1
140
1.0
141
1.0
175
1
  7

176
1
177
1
178
1
143
1.0
179
1
  8

270
1
271
1
272
1
145
1.0
146
1.0
273
1
  9

274
1
275
1
276
1
 42
1.0
 72
1
  3

 73
1
 74
1
 75
1
 94
63
  0
MATERIAL
  5
21
102
{ACAD_REACTORS
330
E
102
}
330
E
100
AcDbMaterial
  1
Global
  2

 70
0
 40
1.0
 71
1
 41
1.0
 91
-1023410177
 42
1.0
 72
1
  3

 73
1
 74
1
 75
1
 44
0.5
 73
0
 45
1.0
 46
1.0
 77
1
  4

 78
1
 79
1
170
1
 48
1.0
171
1
  6

172
1
173
1
174
1
140
1.0
141
1.0
175
1
  7

176
1
177
1
178
1
143
1.0
179
1
  8

270
1
271
1
272
1
145
1.0
146
1.0
273
1
  9

274
1
275
1
276
1
 42
1.0
 72
1
  3

 73
1
 74
1
 75
1
 94
63
  0
MLINESTYLE
  5
22
102
{ACAD_REACTORS
330
10
102
}
330
10
100
AcDbMlineStyle
  2
Standard
 70
0
  3

 62
256
 51
90.0
 52
90.0
 71
2
 49
0.5
 62
256
  6
BYLAYER
 49
-0.5
 62
256
  6
BYLAYER
  0
MLEADERSTYLE
  5
2C
102
{ACAD_REACTORS
330
F
102
}
330
F
100
AcDbMLeaderStyle
179
2
170
2
171
1
172
0
 90
2
 40
0.0
 41
0.0
173
1
 91
-1056964608
 92
-2
290
1
 42
2.0
291
1
 43
8.0
  3
Standard
 44
4.0
300

342
29
174
1
175
1
176
0
178
1
 93
-1056964608
 45
4.0
292
0
297
0
 46
4.0
 94
-1056964608
 47
1.0
 49
1.0
140
1.0
294
1
141
0.0
177
0
142
1.0
295
0
296
0
143
3.75
271
0
272
9
273
9
  0
DICTIONARY
  5
2D
330
A
100
AcDbDictionary
280
1
281
1
  3
CREATED_BY_EZDXF
350
2E
  3
WRITTEN_BY_EZDXF
350
CF
  0
DICTIONARYVAR
  5
2E
330
2D
100
DictionaryVariables
280
0
  1
1.4.4 @ 2026-07-27T17:42:42.534861+00:00
  0
VISUALSTYLE
  5
5A
102
{ACAD_REACTORS
330
16
102
}
330
16
100
AcDbVisualStyle
  2
2dWireframe
 70
4
177
3
291
0
 70
58
 90
2
176
1
 90
2
176
1
 90
0
176
1
 90
0
176
1
 40
0.6
176
1
 40
30.0
176
1
 62
7
420
16777215
176
1
 90
1
176
1
 90
4
176
1
 62
7
176
1
 62
257
176
1
 90
1
176
1
 90
1
176
1
 40
1.0
176
1
 90
8
176
1
 62
7
176
1
 40
1.0
176
1
 90
1
176
1
 90
6
176
1
 90
2
176
1
 62
7
176
1
 90
5
176
1
 90
0
176
1
 90
0
176
1
290
0
176
1
 90
1
176
1
 40
0.0
176
1
 90
0
176
1
290
1
176
1
290
1
176
1
290
0
176
1
290
0
176
1
290
0
176
1
290
0
176
1
290
0
176
1
290
0
176
1
290
0
176
1
 90
50
176
1
 40
0.0
176
1
 40
1.0
176
1
 90
0
176
1
 62
18
420
0
176
1
 90
50
176
1
 90
3
176
1
 62
5
420
255
176
1
290
0
176
1
 90
50
176
1
 90
50
176
1
 90
50
176
1
290
0
176
1
 90
50
176
1
 62
256
176
0
 40
1.0
176
0
 90
2
176
1
  1
strokes_ogs.tif
176
1
290
0
176
1
 40
1.0
176
1
 40
1.0
176
1
  0
VISUALSTYLE
  5
5B
102
{ACAD_REACTORS
330
16
102
}
330
16
100
AcDbVisualStyle
  2
Basic
 70
7
177
3
291
1
 70
58
 90
2
176
1
 90
2
176
1
 90
0
176
1
 90
1
176
1
 40
0.6
176
1
 40
30.0
176
1
 62
7
420
16777215
176
1
 90
1
176
1
 90
4
176
1
 62
7
176
1
 62
257
176
1
 90
1
176
1
 90
1
176
1
 40
1.0
176
1
 90
8
176
1
 62
7
176
1
 40
1.0
176
1
 90
1
176
1
 90
6
176
1
 90
2
176
1
 62
7
176
1
 90
5
176
1
 90
0
176
1
 90
0
176
1
290
0
176
1
 90
1
176
1
 40
0.0
176
1
 90
0
176
1
290
0
176
1
290
1
176
1
290
1
176
1
290
0
176
1
290
0
176
1
290
0
176
1
290
0
176
1
290
0
176
1
290
0
176
1
 90
50
176
1
 40
0.0
176
1
 40
1.0
176
1
 90
0
176
1
 62
18
420
0
176
1
 90
50
176
1
 90
3
176
1
 62
5
420
255
176
1
290
0
176
1
 90
50
176
1
 90
50
176
1
 90
50
176
1
290
0
176
1
 90
50
176
1
 62
256
176
0
 40
1.0
176
0
 90
2
176
1
  1
strokes_ogs.tif
176
1
290
0
176
1
 40
1.0
176
1
 40
1.0
176
1
  0
VISUALSTYLE
  5
5C
102
{ACAD_REACTORS
330
16
102
}
330
16
100
AcDbVisualStyle
  2
Brighten
 70
12
177
3
291
1
 70
58
 90
2
176
1
 90
2
176
1
 90
0
176
1
 90
2
176
1
 40
0.6
176
1
 40
30.0
176
1
 62
7
420
16777215
176
1
 90
1
176
1
 90
4
176
1
 62
7
176
1
 62
257
176
1
 90
1
176
1
 90
1
176
1
 40
1.0
176
1
 90
8
176
1
 62
7
176
1
 40
1.0
176
1
 90
1
176
1
 90
6
176
1
 90
2
176
1
 62
7
176
1
 90
5
176
1
 90
0
176
1
 90
0
176
1
290
0
176
1
 90
1
176
1
 40
0.0
176
1
 90
0
176
1
290
0
176
1
290
1
176
1
290
1
176
1
290
0
176
1
290
0
176
1
290
0
176
1
290
0
176
1
290
0
176
1
290
0
176
1
 90
50
176
1
 40
0.0
176
1
 40
1.0
176
1
 90
0
176
1
 62
18
420
0
176
1
 90
50
176
1
 90
3
176
1
 62
5
420
255
176
1
290
0
176
1
 90
50
176
1
 90
50
176
1
 90
50
176
1
290
0
176
1
 90
50
176
1
 62
256
176
0
 40
1.0
176
0
 90
2
176
1
  1
strokes_ogs.tif
176
1
290
0
176
1
 40
1.0
176
1
 40
1.0
176
1
  0
VISUALSTYLE
  5
5D
102
{ACAD_REACTORS
330
16
102
}
330
16
100
AcDbVisualStyle
  2
ColorChange
 70
16
177
3
291
1
 70
58
 90
2
176
1
 90
2
176
1
 90
0
176
1
 90
2
176
1
 40
0.6
176
1
 40
30.0
176
1
 62
7
420
16777215
176
1
 90
1
176
1
 90
4
176
1
 62
7
176
1
 62
257
176
1
 90
1
176
1
 90
1
176
1
 40
1.0
176
1
 90
8
176
1
 62
7
176
1
 40
1.0
176
1
 90
1
176
1
 90
6
176
1
 90
2
176
1
 62
7
176
1
 90
5
176
1
 90
0
176
1
 90
0
176
1
290
0
176
1
 90
1
176
1
 40
0.0
176
1
 90
0
176
1
290
0
176
1
290
1
176
1
290
1
176
1
290
0
176
1
290
0
176
1
290
0
176
1
290
0
176
1
290
0
176
1
290
0
176
1
 90
50
176
1
 40
0.0
176
1
 40
1.0
176
1
 90
0
176
1
 62
18
420
0
176
1
 90
50
176
1
 90
3
176
1
 62
5
420
255
176
1
290
0
176
1
 90
50
176
1
 90
50
176
1
 90
50
176
1
290
0
176
1
 90
50
176
1
 62
256
176
0
 40
1.0
176
0
 90
2
176
1
  1
strokes_ogs.tif
176
1
290
0
176
1
 40
1.0
176
1
 40
1.0
176
1
  0
VISUALSTYLE
  5
5E
102
{ACAD_REACTORS
330
16
102
}
330
16
100
AcDbVisualStyle
  2
Conceptual
 70
9
177
3
291
0
 70
58
 90
2
176
1
 90
2
176
1
 90
0
176
1
 90
3
176
1
 40
0.6
176
1
 40
30.0
176
1
 62
7
420
16777215
176
1
 90
1
176
1
 90
4
176
1
 62
7
176
1
 62
257
176
1
 90
1
176
1
 90
1
176
1
 40
1.0
176
1
 90
8
176
1
 62
7
176
1
 40
1.0
176
1
 90
1
176
1
 90
6
176
1
 90
2
176
1
 62
7
176
1
 90
5
176
1
 90
0
176
1
 90
0
176
1
290
0
176
1
 90
1
176
1
 40
0.0
176
1
 90
0
176
1
290
0
176
1
290
1
176
1
290
1
176
1
290
0
176
1
290
0
176
1
290
0
176
1
290
0
176
1
290
0
176
1
290
0
176
1
 90
50
176
1
 40
0.0
176
1
 40
1.0
176
1
 90
0
176
1
 62
18
420
0
176
1
 90
50
176
1
 90
3
176
1
 62
5
420
255
176
1
290
0
176
1
 90
50
176
1
 90
50
176
1
 90
50
176
1
290
0
176
1
 90
50
176
1
 62
256
176
0
 40
1.0
176
0
 90
2
176
1
  1
strokes_ogs.tif
176
1
290
0
176
1
 40
1.0
176
1
 40
1.0
176
1
  0
VISUALSTYLE
  5
5F
102
{ACAD_REACTORS
330
16
102
}
330
16
100
AcDbVisualStyle
  2
Dim
 70
11
177
3
291
1
 70
58
 90
2
176
1
 90
2
176
1
 90
0
176
1
 90
2
176
1
 40
0.6
176
1
 40
30.0
176
1
 62
7
420
16777215
176
1
 90
1
176
1
 90
4
176
1
 62
7
176
1
 62
257
176
1
 90
1
176
1
 90
1
176
1
 40
1.0
176
1
 90
8
176
1
 62
7
176
1
 40
1.0
176
1
 90
1
176
1
 90
6
176
1
 90
2
176
1
 62
7
176
1
 90
5
176
1
 90
0
176
1
 90
0
176
1
290
0
176
1
 90
1
176
1
 40
0.0
176
1
 90
0
176
1
290
0
176
1
290
1
176
1
290
1
176
1
290
0
176
1
290
0
176
1
290
0
176
1
290
0
176
1
290
0
176
1
290
0
176
1
 90
50
176
1
 40
0.0
176
1
 40
1.0
176
1
 90
0
176
1
 62
18
420
0
176
1
 90
50
176
1
 90
3
176
1
 62
5
420
255
176
1
290
0
176
1
 90
50
176
1
 90
50
176
1
 90
50
176
1
290
0
176
1
 90
50
176
1
 62
256
176
0
 40
1.0
176
0
 90
2
176
1
  1
strokes_ogs.tif
176
1
290
0
176
1
 40
1.0
176
1
 40
1.0
176
1
  0
VISUALSTYLE
  5
60
102
{ACAD_REACTORS
330
16
102
}
330
16
100
AcDbVisualStyle
  2
EdgeColorOff
 70
22
177
3
291
1
 70
58
 90
2
176
1
 90
2
176
1
 90
0
176
1
 90
2
176
1
 40
0.6
176
1
 40
30.0
176
1
 62
7
420
16777215
176
1
 90
1
176
1
 90
4
176
1
 62
7
176
1
 62
257
176
1
 90
1
176
1
 90
1
176
1
 40
1.0
176
1
 90
8
176
1
 62
7
176
1
 40
1.0
176
1
 90
1
176
1
 90
6
176
1
 90
2
176
1
 62
7
176
1
 90
5
176
1
 90
0
176
1
 90
0
176
1
290
0
176
1
 90
1
176
1
 40
0.0
176
1
 90
0
176
1
290
0
176
1
290
1
176
1
290
1
176
1
290
0
176
1
290
0
176
1
290
0
176
1
290
0
176
1
290
0
176
1
290
0
176
1
 90
50
176
1
 40
0.0
176
1
 40
1.0
176
1
 90
0
176
1
 62
18
420
0
176
1
 90
50
176
1
 90
3
176
1
 62
5
420
255
176
1
290
0
176
1
 90
50
176
1
 90
50
176
1
 90
50
176
1
290
0
176
1
 90
50
176
1
 62
256
176
0
 40
1.0
176
0
 90
2
176
1
  1
strokes_ogs.tif
176
1
290
0
176
1
 40
1.0
176
1
 40
1.0
176
1
  0
VISUALSTYLE
  5
61
102
{ACAD_REACTORS
330
16
102
}
330
16
100
AcDbVisualStyle
  2
Facepattern
 70
15
177
3
291
1
 70
58
 90
2
176
1
 90
2
176
1
 90
0
176
1
 90
2
176
1
 40
0.6
176
1
 40
30.0
176
1
 62
7
420
16777215
176
1
 90
1
176
1
 90
4
176
1
 62
7
176
1
 62
257
176
1
 90
1
176
1
 90
1
176
1
 40
1.0
176
1
 90
8
176
1
 62
7
176
1
 40
1.0
176
1
 90
1
176
1
 90
6
176
1
 90
2
176
1
 62
7
176
1
 90
5
176
1
 90
0
176
1
 90
0
176
1
290
0
176
1
 90
1
176
1
 40
0.0
176
1
 90
0
176
1
290
0
176
1
290
1
176
1
290
1
176
1
290
0
176
1
290
0
176
1
290
0
176
1
290
0
176
1
290
0
176
1
290
0
176
1
 90
50
176
1
 40
0.0
176
1
 40
1.0
176
1
 90
0
176
1
 62
18
420
0
176
1
 90
50
176
1
 90
3
176
1
 62
5
420
255
176
1
290
0
176
1
 90
50
176
1
 90
50
176
1
 90
50
176
1
290
0
176
1
 90
50
176
1
 62
256
176
0
 40
1.0
176
0
 90
2
176
1
  1
strokes_ogs.tif
176
1
290
0
176
1
 40
1.0
176
1
 40
1.0
176
1
  0
VISUALSTYLE
  5
62
102
{ACAD_REACTORS
330
16
102
}
330
16
100
AcDbVisualStyle
  2
Flat
 70
0
177
3
291
1
 70
58
 90
2
176
1
 90
2
176
1
 90
0
176
1
 90
2
176
1
 40
0.6
176
1
 40
30.0
176
1
 62
7
420
16777215
176
1
 90
1
176
1
 90
4
176
1
 62
7
176
1
 62
257
176
1
 90
1
176
1
 90
1
176
1
 40
1.0
176
1
 90
8
176
1
 62
7
176
1
 40
1.0
176
1
 90
1
176
1
 90
6
176
1
 90
2
176
1
 62
7
176
1
 90
5
176
1
 90
0
176
1
 90
0
176
1
290
0
176
1
 90
1
176
1
 40
0.0
176
1
 90
0
176
1
290
0
176
1
290
1
176
1
290
1
176
1
290
0
176
1
290
0
176
1
290
0
176
1
290
0
176
1
290
0
176
1
290
0
176
1
 90
50
176
1
 40
0.0
176
1
 40
1.0
176
1
 90
0
176
1
 62
18
420
0
176
1
 90
50
176
1
 90
3
176
1
 62
5
420
255
176
1
290
0
176
1
 90
50
176
1
 90
50
176
1
 90
50
176
1
290
0
176
1
 90
50
176
1
 62
256
176
0
 40
1.0
176
0
 90
2
176
1
  1
strokes_ogs.tif
176
1
290
0
176
1
 40
1.0
176
1
 40
1.0
176
1
  0
VISUALSTYLE
  5
63
102
{ACAD_REACTORS
330
16
102
}
330
16
100
AcDbVisualStyle
  2
FlatWithEdges
 70
1
177
3
291
1
 70
58
 90
2
176
1
 90
2
176
1
 90
0
176
1
 90
2
176
1
 40
0.6
176
1
 40
30.0
176
1
 62
7
420
16777215
176
1
 90
1
176
1
 90
4
176
1
 62
7
176
1
 62
257
176
1
 90
1
176
1
 90
1
176
1
 40
1.0
176
1
 90
8
176
1
 62
7
176
1
 40
1.0
176
1
 90
1
176
1
 90
6
176
1
 90
2
176
1
 62
7
176
1
 90
5
176
1
 90
0
176
1
 90
0
176
1
290
0
176
1
 90
1
176
1
 40
0.0
176
1
 90
0
176
1
290
0
176
1
290
1
176
1
290
1
176
1
290
0
176
1
290
0
176
1
290
0
176
1
290
0
176
1
290
0
176
1
290
0
176
1
 90
50
176
1
 40
0.0
176
1
 40
1.0
176
1
 90
0
176
1
 62
18
420
0
176
1
 90
50
176
1
 90
3
176
1
 62
5
420
255
176
1
290
0
176
1
 90
50
176
1
 90
50
176
1
 90
50
176
1
290
0
176
1
 90
50
176
1
 62
256
176
0
 40
1.0
176
0
 90
2
176
1
  1
strokes_ogs.tif
176
1
290
0
176
1
 40
1.0
176
1
 40
1.0
176
1
  0
VISUALSTYLE
  5
64
102
{ACAD_REACTORS
330
16
102
}
330
16
100
AcDbVisualStyle
  2
Gouraud
 70
2
177
3
291
1
 70
58
 90
2
176
1
 90
2
176
1
 90
0
176
1
 90
2
176
1
 40
0.6
176
1
 40
30.0
176
1
 62
7
420
16777215
176
1
 90
1
176
1
 90
4
176
1
 62
7
176
1
 62
257
176
1
 90
1
176
1
 90
1
176
1
 40
1.0
176
1
 90
8
176
1
 62
7
176
1
 40
1.0
176
1
 90
1
176
1
 90
6
176
1
 90
2
176
1
 62
7
176
1
 90
5
176
1
 90
0
176
1
 90
0
176
1
290
0
176
1
 90
1
176
1
 40
0.0
176
1
 90
0
176
1
290
0
176
1
290
1
176
1
290
1
176
1
290
0
176
1
290
0
176
1
290
0
176
1
290
0
176
1
290
0
176
1
290
0
176
1
 90
50
176
1
 40
0.0
176
1
 40
1.0
176
1
 90
0
176
1
 62
18
420
0
176
1
 90
50
176
1
 90
3
176
1
 62
5
420
255
176
1
290
0
176
1
 90
50
176
1
 90
50
176
1
 90
50
176
1
290
0
176
1
 90
50
176
1
 62
256
176
0
 40
1.0
176
0
 90
2
176
1
  1
strokes_ogs.tif
176
1
290
0
176
1
 40
1.0
176
1
 40
1.0
176
1
  0
VISUALSTYLE
  5
65
102
{ACAD_REACTORS
330
16
102
}
330
16
100
AcDbVisualStyle
  2
GouraudWithEdges
 70
3
177
3
291
1
 70
58
 90
2
176
1
 90
2
176
1
 90
0
176
1
 90
2
176
1
 40
0.6
176
1
 40
30.0
176
1
 62
7
420
16777215
176
1
 90
1
176
1
 90
4
176
1
 62
7
176
1
 62
257
176
1
 90
1
176
1
 90
1
176
1
 40
1.0
176
1
 90
8
176
1
 62
7
176
1
 40
1.0
176
1
 90
1
176
1
 90
6
176
1
 90
2
176
1
 62
7
176
1
 90
5
176
1
 90
0
176
1
 90
0
176
1
290
0
176
1
 90
1
176
1
 40
0.0
176
1
 90
0
176
1
290
0
176
1
290
1
176
1
290
1
176
1
290
0
176
1
290
0
176
1
290
0
176
1
290
0
176
1
290
0
176
1
290
0
176
1
 90
50
176
1
 40
0.0
176
1
 40
1.0
176
1
 90
0
176
1
 62
18
420
0
176
1
 90
50
176
1
 90
3
176
1
 62
5
420
255
176
1
290
0
176
1
 90
50
176
1
 90
50
176
1
 90
50
176
1
290
0
176
1
 90
50
176
1
 62
256
176
0
 40
1.0
176
0
 90
2
176
1
  1
strokes_ogs.tif
176
1
290
0
176
1
 40
1.0
176
1
 40
1.0
176
1
  0
VISUALSTYLE
  5
66
102
{ACAD_REACTORS
330
16
102
}
330
16
100
AcDbVisualStyle
  2
Hidden
 70
6
177
3
291
0
 70
58
 90
2
176
1
 90
2
176
1
 90
0
176
1
 90
1
176
1
 40
0.6
176
1
 40
30.0
176
1
 62
7
420
16777215
176
1
 90
1
176
1
 90
4
176
1
 62
7
176
1
 62
257
176
1
 90
1
176
1
 90
1
176
1
 40
1.0
176
1
 90
8
176
1
 62
7
176
1
 40
1.0
176
1
 90
1
176
1
 90
6
176
1
 90
2
176
1
 62
7
176
1
 90
5
176
1
 90
0
176
1
 90
0
176
1
290
0
176
1
 90
1
176
1
 40
0.0
176
1
 90
0
176
1
290
0
176
1
290
1
176
1
290
1
176
1
290
0
176
1
290
0
176
1
290
0
176
1
290
0
176
1
290
0
176
1
290
0
176
1
 90
50
176
1
 40
0.0
176
1
 40
1.0
176
1
 90
0
176
1
 62
18
420
0
176
1
 90
50
176
1
 90
3
176
1
 62
5
420
255
176
1
290
0
176
1
 90
50
176
1
 90
50
176
1
 90
50
176
1
290
0
176
1
 90
50
176
1
 62
256
176
0
 40
1.0
176
0
 90
2
176
1
  1
strokes_ogs.tif
176
1
290
0
176
1
 40
1.0
176
1
 40
1.0
176
1
  0
VISUALSTYLE
  5
67
102
{ACAD_REACTORS
330
16
102
}
330
16
100
AcDbVisualStyle
  2
JitterOff
 70
20
177
3
291
1
 70
58
 90
2
176
1
 90
2
176
1
 90
0
176
1
 90
2
176
1
 40
0.6
176
1
 40
30.0
176
1
 62
7
420
16777215
176
1
 90
1
176
1
 90
4
176
1
 62
7
176
1
 62
257
176
1
 90
1
176
1
 90
1
176
1
 40
1.0
176
1
 90
8
176
1
 62
7
176
1
 40
1.0
176
1
 90
1
176
1
 90
6
176
1
 90
2
176
1
 62
7
176
1
 90
5
176
1
 90
0
176
1
 90
0
176
1
290
0
176
1
 90
1
176
1
 40
0.0
176
1
 90
0
176
1
290
0
176
1
290
1
176
1
290
1
176
1
290
0
176
1
290
0
176
1
290
0
176
1
290
0
176
1
290
0
176
1
290
0
176
1
 90
50
176
1
 40
0.0
176
1
 40
1.0
176
1
 90
0
176
1
 62
18
420
0
176
1
 90
50
176
1
 90
3
176
1
 62
5
420
255
176
1
290
0
176
1
 90
50
176
1
 90
50
176
1
 90
50
176
1
290
0
176
1
 90
50
176
1
 62
256
176
0
 40
1.0
176
0
 90
2
176
1
  1
strokes_ogs.tif
176
1
290
0
176
1
 40
1.0
176
1
 40
1.0
176
1
  0
VISUALSTYLE
  5
68
102
{ACAD_REACTORS
330
16
102
}
330
16
100
AcDbVisualStyle
  2
Linepattern
 70
14
177
3
291
1
 70
58
 90
2
176
1
 90
2
176
1
 90
0
176
1
 90
2
176
1
 40
0.6
176
1
 40
30.0
176
1
 62
7
420
16777215
176
1
 90
1
176
1
 90
4
176
1
 62
7
176
1
 62
257
176
1
 90
1
176
1
 90
1
176
1
 40
1.0
176
1
 90
8
176
1
 62
7
176
1
 40
1.0
176
1
 90
1
176
1
 90
6
176
1
 90
2
176
1
 62
7
176
1
 90
5
176
1
 90
0
176
1
 90
0
176
1
290
0
176
1
 90
1
176
1
 40
0.0
176
1
 90
0
176
1
290
0
176
1
290
1
176
1
290
1
176
1
290
0
176
1
290
0
176
1
290
0
176
1
290
0
176
1
290
0
176
1
290
0
176
1
 90
50
176
1
 40
0.0
176
1
 40
1.0
176
1
 90
0
176
1
 62
18
420
0
176
1
 90
50
176
1
 90
3
176
1
 62
5
420
255
176
1
290
0
176
1
 90
50
176
1
 90
50
176
1
 90
50
176
1
290
0
176
1
 90
50
176
1
 62
256
176
0
 40
1.0
176
0
 90
2
176
1
  1
strokes_ogs.tif
176
1
290
0
176
1
 40
1.0
176
1
 40
1.0
176
1
  0
VISUALSTYLE
  5
69
102
{ACAD_REACTORS
330
16
102
}
330
16
100
AcDbVisualStyle
  2
Modeling
 70
10
177
3
291
0
 70
58
 90
2
176
1
 90
2
176
1
 90
0
176
1
 90
2
176
1
 40
0.6
176
1
 40
30.0
176
1
 62
7
420
16777215
176
1
 90
1
176
1
 90
4
176
1
 62
7
176
1
 62
257
176
1
 90
1
176
1
 90
1
176
1
 40
1.0
176
1
 90
8
176
1
 62
7
176
1
 40
1.0
176
1
 90
1
176
1
 90
6
176
1
 90
2
176
1
 62
7
176
1
 90
5
176
1
 90
0
176
1
 90
0
176
1
290
0
176
1
 90
1
176
1
 40
0.0
176
1
 90
0
176
1
290
0
176
1
290
1
176
1
290
1
176
1
290
0
176
1
290
0
176
1
290
0
176
1
290
0
176
1
290
0
176
1
290
0
176
1
 90
50
176
1
 40
0.0
176
1
 40
1.0
176
1
 90
0
176
1
 62
18
420
0
176
1
 90
50
176
1
 90
3
176
1
 62
5
420
255
176
1
290
0
176
1
 90
50
176
1
 90
50
176
1
 90
50
176
1
290
0
176
1
 90
50
176
1
 62
256
176
0
 40
1.0
176
0
 90
2
176
1
  1
strokes_ogs.tif
176
1
290
0
176
1
 40
1.0
176
1
 40
1.0
176
1
  0
VISUALSTYLE
  5
6A
102
{ACAD_REACTORS
330
16
102
}
330
16
100
AcDbVisualStyle
  2
OverhangOff
 70
21
177
3
291
1
 70
58
 90
2
176
1
 90
2
176
1
 90
0
176
1
 90
2
176
1
 40
0.6
176
1
 40
30.0
176
1
 62
7
420
16777215
176
1
 90
1
176
1
 90
4
176
1
 62
7
176
1
 62
257
176
1
 90
1
176
1
 90
1
176
1
 40
1.0
176
1
 90
8
176
1
 62
7
176
1
 40
1.0
176
1
 90
1
176
1
 90
6
176
1
 90
2
176
1
 62
7
176
1
 90
5
176
1
 90
0
176
1
 90
0
176
1
290
0
176
1
 90
1
176
1
 40
0.0
176
1
 90
0
176
1
290
0
176
1
290
1
176
1
290
1
176
1
290
0
176
1
290
0
176
1
290
0
176
1
290
0
176
1
290
0
176
1
290
0
176
1
 90
50
176
1
 40
0.0
176
1
 40
1.0
176
1
 90
0
176
1
 62
18
420
0
176
1
 90
50
176
1
 90
3
176
1
 62
5
420
255
176
1
290
0
176
1
 90
50
176
1
 90
50
176
1
 90
50
176
1
290
0
176
1
 90
50
176
1
 62
256
176
0
 40
1.0
176
0
 90
2
176
1
  1
strokes_ogs.tif
176
1
290
0
176
1
 40
1.0
176
1
 40
1.0
176
1
  0
VISUALSTYLE
  5
6B
102
{ACAD_REACTORS
330
16
102
}
330
16
100
AcDbVisualStyle
  2
Realistic
 70
8
177
3
291
0
 70
58
 90
2
176
1
 90
2
176
1
 90
0
176
1
 90
2
176
1
 40
0.6
176
1
 40
30.0
176
1
 62
7
420
16777215
176
1
 90
1
176
1
 90
4
176
1
 62
7
176
1
 62
257
176
1
 90
1
176
1
 90
1
176
1
 40
1.0
176
1
 90
8
176
1
 62
7
176
1
 40
1.0
176
1
 90
1
176
1
 90
6
176
1
 90
2
176
1
 62
7
176
1
 90
5
176
1
 90
0
176
1
 90
0
176
1
290
0
176
1
 90
1
176
1
 40
0.0
176
1
 90
0
176
1
290
0
176
1
290
1
176
1
290
1
176
1
290
0
176
1
290
0
176
1
290
0
176
1
290
0
176
1
290
0
176
1
290
0
176
1
 90
50
176
1
 40
0.0
176
1
 40
1.0
176
1
 90
0
176
1
 62
18
420
0
176
1
 90
50
176
1
 90
3
176
1
 62
5
420
255
176
1
290
0
176
1
 90
50
176
1
 90
50
176
1
 90
50
176
1
290
0
176
1
 90
50
176
1
 62
256
176
0
 40
1.0
176
0
 90
2
176
1
  1
strokes_ogs.tif
176
1
290
0
176
1
 40
1.0
176
1
 40
1.0
176
1
  0
VISUALSTYLE
  5
6C
102
{ACAD_REACTORS
330
16
102
}
330
16
100
AcDbVisualStyle
  2
Shaded
 70
27
177
3
291
0
 70
58
 90
2
176
1
 90
2
176
1
 90
0
176
1
 90
2
176
1
 40
0.6
176
1
 40
30.0
176
1
 62
7
420
16777215
176
1
 90
1
176
1
 90
4
176
1
 62
7
176
1
 62
257
176
1
 90
1
176
1
 90
1
176
1
 40
1.0
176
1
 90
8
176
1
 62
7
176
1
 40
1.0
176
1
 90
1
176
1
 90
6
176
1
 90
2
176
1
 62
7
176
1
 90
5
176
1
 90
0
176
1
 90
0
176
1
290
0
176
1
 90
1
176
1
 40
0.0
176
1
 90
0
176
1
290
0
176
1
290
1
176
1
290
1
176
1
290
0
176
1
290
0
176
1
290
0
176
1
290
0
176
1
290
0
176
1
290
0
176
1
 90
50
176
1
 40
0.0
176
1
 40
1.0
176
1
 90
0
176
1
 62
18
420
0
176
1
 90
50
176
1
 90
3
176
1
 62
5
420
255
176
1
290
0
176
1
 90
50
176
1
 90
50
176
1
 90
50
176
1
290
0
176
1
 90
50
176
1
 62
256
176
0
 40
1.0
176
0
 90
2
176
1
  1
strokes_ogs.tif
176
1
290
0
176
1
 40
1.0
176
1
 40
1.0
176
1
  0
VISUALSTYLE
  5
6D
102
{ACAD_REACTORS
330
16
102
}
330
16
100
AcDbVisualStyle
  2
Shaded with edges
 70
26
177
3
291
0
 70
58
 90
2
176
1
 90
2
176
1
 90
0
176
1
 90
2
176
1
 40
0.6
176
1
 40
30.0
176
1
 62
7
420
16777215
176
1
 90
1
176
1
 90
4
176
1
 62
7
176
1
 62
257
176
1
 90
1
176
1
 90
1
176
1
 40
1.0
176
1
 90
8
176
1
 62
7
176
1
 40
1.0
176
1
 90
1
176
1
 90
6
176
1
 90
2
176
1
 62
7
176
1
 90
5
176
1
 90
0
176
1
 90
0
176
1
290
0
176
1
 90
1
176
1
 40
0.0
176
1
 90
0
176
1
290
0
176
1
290
1
176
1
290
1
176
1
290
0
176
1
290
0
176
1
290
0
176
1
290
0
176
1
290
0
176
1
290
0
176
1
 90
50
176
1
 40
0.0
176
1
 40
1.0
176
1
 90
0
176
1
 62
18
420
0
176
1
 90
50
176
1
 90
3
176
1
 62
5
420
255
176
1
290
0
176
1
 90
50
176
1
 90
50
176
1
 90
50
176
1
290
0
176
1
 90
50
176
1
 62
256
176
0
 40
1.0
176
0
 90
2
176
1
  1
strokes_ogs.tif
176
1
290
0
176
1
 40
1.0
176
1
 40
1.0
176
1
  0
VISUALSTYLE
  5
6E
102
{ACAD_REACTORS
330
16
102
}
330
16
100
AcDbVisualStyle
  2
Shades of Gray
 70
23
177
3
291
0
 70
58
 90
2
176
1
 90
2
176
1
 90
0
176
1
 90
2
176
1
 40
0.6
176
1
 40
30.0
176
1
 62
7
420
16777215
176
1
 90
1
176
1
 90
4
176
1
 62
7
176
1
 62
257
176
1
 90
1
176
1
 90
1
176
1
 40
1.0
176
1
 90
8
176
1
 62
7
176
1
 40
1.0
176
1
 90
1
176
1
 90
6
176
1
 90
2
176
1
 62
7
176
1
 90
5
176
1
 90
0
176
1
 90
0
176
1
290
0
176
1
 90
1
176
1
 40
0.0
176
1
 90
0
176
1
290
0
176
1
290
1
176
1
290
1
176
1
290
0
176
1
290
0
176
1
290
0
176
1
290
0
176
1
290
0
176
1
290
0
176
1
 90
50
176
1
 40
0.0
176
1
 40
1.0
176
1
 90
0
176
1
 62
18
420
0
176
1
 90
50
176
1
 90
3
176
1
 62
5
420
255
176
1
290
0
176
1
 90
50
176
1
 90
50
176
1
 90
50
176
1
290
0
176
1
 90
50
176
1
 62
256
176
0
 40
1.0
176
0
 90
2
176
1
  1
strokes_ogs.tif
176
1
290
0
176
1
 40
1.0
176
1
 40
1.0
176
1
  0
VISUALSTYLE
  5
6F
102
{ACAD_REACTORS
330
16
102
}
330
16
100
AcDbVisualStyle
  2
Sketchy
 70
24
177
3
291
0
 70
58
 90
2
176
1
 90
2
176
1
 90
0
176
1
 90
1
176
1
 40
0.6
176
1
 40
30.0
176
1
 62
7
420
16777215
176
1
 90
1
176
1
 90
4
176
1
 62
7
176
1
 62
257
176
1
 90
1
176
1
 90
1
176
1
 40
1.0
176
1
 90
8
176
1
 62
7
176
1
 40
1.0
176
1
 90
1
176
1
 90
6
176
1
 90
2
176
1
 62
7
176
1
 90
5
176
1
 90
0
176
1
 90
0
176
1
290
0
176
1
 90
1
176
1
 40
0.0
176
1
 90
0
176
1
290
0
176
1
290
1
176
1
290
1
176
1
290
0
176
1
290
0
176
1
290
0
176
1
290
0
176
1
290
0
176
1
290
0
176
1
 90
50
176
1
 40
0.0
176
1
 40
1.0
176
1
 90
0
176
1
 62
18
420
0
176
1
 90
50
176
1
 90
3
176
1
 62
5
420
255
176
1
290
0
176
1
 90
50
176
1
 90
50
176
1
 90
50
176
1
290
0
176
1
 90
50
176
1
 62
256
176
0
 40
1.0
176
0
 90
2
176
1
  1
strokes_ogs.tif
176
1
290
0
176
1
 40
1.0
176
1
 40
1.0
176
1
  0
VISUALSTYLE
  5
70
102
{ACAD_REACTORS
330
16
102
}
330
16
100
AcDbVisualStyle
  2
Thicken
 70
13
177
3
291
1
 70
58
 90
2
176
1
 90
2
176
1
 90
0
176
1
 90
2
176
1
 40
0.6
176
1
 40
30.0
176
1
 62
7
420
16777215
176
1
 90
1
176
1
 90
4
176
1
 62
7
176
1
 62
257
176
1
 90
1
176
1
 90
1
176
1
 40
1.0
176
1
 90
8
176
1
 62
7
176
1
 40
1.0
176
1
 90
1
176
1
 90
6
176
1
 90
2
176
1
 62
7
176
1
 90
5
176
1
 90
0
176
1
 90
0
176
1
290
0
176
1
 90
1
176
1
 40
0.0
176
1
 90
0
176
1
290
0
176
1
290
1
176
1
290
1
176
1
290
0
176
1
290
0
176
1
290
0
176
1
290
0
176
1
290
0
176
1
290
0
176
1
 90
50
176
1
 40
0.0
176
1
 40
1.0
176
1
 90
0
176
1
 62
18
420
0
176
1
 90
50
176
1
 90
3
176
1
 62
5
420
255
176
1
290
0
176
1
 90
50
176
1
 90
50
176
1
 90
50
176
1
290
0
176
1
 90
50
176
1
 62
256
176
0
 40
1.0
176
0
 90
2
176
1
  1
strokes_ogs.tif
176
1
290
0
176
1
 40
1.0
176
1
 40
1.0
176
1
  0
VISUALSTYLE
  5
71
102
{ACAD_REACTORS
330
16
102
}
330
16
100
AcDbVisualStyle
  2
Wireframe
 70
5
177
3
291
0
 70
58
 90
2
176
1
 90
2
176
1
 90
0
176
1
 90
0
176
1
 40
0.6
176
1
 40
30.0
176
1
 62
7
420
16777215
176
1
 90
1
176
1
 90
4
176
1
 62
7
176
1
 62
257
176
1
 90
1
176
1
 90
1
176
1
 40
1.0
176
1
 90
8
176
1
 62
7
176
1
 40
1.0
176
1
 90
1
176
1
 90
6
176
1
 90
2
176
1
 62
7
176
1
 90
5
176
1
 90
0
176
1
 90
0
176
1
290
0
176
1
 90
1
176
1
 40
0.0
176
1
 90
0
176
1
290
0
176
1
290
1
176
1
290
1
176
1
290
0
176
1
290
0
176
1
290
0
176
1
290
0
176
1
290
0
176
1
290
0
176
1
 90
50
176
1
 40
0.0
176
1
 40
1.0
176
1
 90
0
176
1
 62
18
420
0
176
1
 90
50
176
1
 90
3
176
1
 62
5
420
255
176
1
290
0
176
1
 90
50
176
1
 90
50
176
1
 90
50
176
1
290
0
176
1
 90
50
176
1
 62
256
176
0
 40
1.0
176
0
 90
2
176
1
  1
strokes_ogs.tif
176
1
290
0
176
1
 40
1.0
176
1
 40
1.0
176
1
  0
VISUALSTYLE
  5
72
102
{ACAD_REACTORS
330
16
102
}
330
16
100
AcDbVisualStyle
  2
X-Ray
 70
25
177
3
291
0
 70
58
 90
2
176
1
 90
2
176
1
 90
0
176
1
 90
2
176
1
 40
0.5
176
1
 40
30.0
176
1
 62
7
420
16777215
176
1
 90
1
176
1
 90
4
176
1
 62
7
176
1
 62
257
176
1
 90
1
176
1
 90
1
176
1
 40
1.0
176
1
 90
8
176
1
 62
7
176
1
 40
1.0
176
1
 90
1
176
1
 90
6
176
1
 90
2
176
1
 62
7
176
1
 90
5
176
1
 90
0
176
1
 90
0
176
1
290
0
176
1
 90
1
176
1
 40
0.0
176
1
 90
0
176
1
290
0
176
1
290
1
176
1
290
1
176
1
290
0
176
1
290
0
176
1
290
0
176
1
290
0
176
1
290
0
176
1
290
0
176
1
 90
50
176
1
 40
0.0
176
1
 40
1.0
176
1
 90
0
176
1
 62
18
420
0
176
1
 90
50
176
1
 90
3
176
1
 62
5
420
255
176
1
290
0
176
1
 90
50
176
1
 90
50
176
1
 90
50
176
1
290
0
176
1
 90
50
176
1
 62
256
176
0
 40
1.0
176
0
 90
2
176
1
  1
strokes_ogs.tif
176
1
290
0
176
1
 40
1.0
176
1
 40
1.0
176
1
  0
DICTIONARYVAR
  5
CF
330
2D
100
DictionaryVariables
280
0
  1
1.4.4 @ 2026-07-27T17:42:42.553631+00:00
  0
ENDSEC
  0
EOF
