0
SECTION
2
HEADER
9
$ACADVER
1
AC1009
9
$DWGCODEPAGE
3
ANSI_1252
0
ENDSEC
0
SECTION
2
TABLES
0
TABLE
2
LTYPE
70
2
0
LTYPE
2
CONTINUOUS
70
0
3
Solid line
72
65
73
0
40
0
0
LTYPE
2
DASHED
70
0
3
Segmentada __ __ __
72
65
73
2
40
6
49
4
49
-2
0
ENDTAB
0
TABLE
2
LAYER
70
7
0
LAYER
2
SOMBRA
70
0
62
8
6
CONTINUOUS
0
LAYER
2
NORMA
70
0
62
7
6
CONTINUOUS
0
LAYER
2
FINA
70
0
62
7
6
CONTINUOUS
0
LAYER
2
VISIBLE
70
0
62
7
6
CONTINUOUS
0
LAYER
2
COTAS
70
0
62
7
6
CONTINUOUS
0
LAYER
2
TEXTO
70
0
62
7
6
CONTINUOUS
0
LAYER
2
PLIEGUE
70
0
62
1
6
DASHED
0
ENDTAB
0
ENDSEC
0
SECTION
2
ENTITIES
0
LINE
8
VISIBLE
10
497.5000
20
2120.2150
30
0
11
5497.5000
21
2120.2150
31
0
0
LINE
8
VISIBLE
10
5497.5000
20
2120.2150
30
0
11
5497.5000
21
2319.7850
31
0
0
LINE
8
VISIBLE
10
5497.5000
20
2319.7850
30
0
11
497.5000
21
2319.7850
31
0
0
LINE
8
VISIBLE
10
497.5000
20
2319.7850
30
0
11
497.5000
21
2120.2150
31
0
0
LINE
8
VISIBLE
10
497.5000
20
2120.2150
30
0
11
497.5000
21
2120.2150
31
0
0
CIRCLE
8
VISIBLE
10
5077.5000
20
2187.7850
30
0
40
4.5000
0
CIRCLE
8
VISIBLE
10
4217.5000
20
2161.0350
30
0
40
4.5000
0
CIRCLE
8
VISIBLE
10
3717.5000
20
2161.0350
30
0
40
4.5000
0
CIRCLE
8
VISIBLE
10
3217.5000
20
2161.0350
30
0
40
4.5000
0
CIRCLE
8
VISIBLE
10
2717.5000
20
2161.0350
30
0
40
4.5000
0
CIRCLE
8
VISIBLE
10
2217.5000
20
2161.0350
30
0
40
4.5000
0
CIRCLE
8
VISIBLE
10
1717.5000
20
2161.0350
30
0
40
4.5000
0
CIRCLE
8
VISIBLE
10
1217.5000
20
2161.0350
30
0
40
4.5000
0
CIRCLE
8
VISIBLE
10
4027.5000
20
2129.2150
30
0
40
3.5000
0
CIRCLE
8
VISIBLE
10
4307.5000
20
2129.2150
30
0
40
3.5000
0
CIRCLE
8
VISIBLE
10
4587.5000
20
2129.2150
30
0
40
3.5000
0
CIRCLE
8
VISIBLE
10
4867.5000
20
2129.2150
30
0
40
3.5000
0
CIRCLE
8
VISIBLE
10
5147.5000
20
2129.2150
30
0
40
3.5000
0
CIRCLE
8
VISIBLE
10
5427.5000
20
2129.2150
30
0
40
3.5000
0
CIRCLE
8
VISIBLE
10
597.5000
20
2129.2150
30
0
40
3.5000
0
CIRCLE
8
VISIBLE
10
877.5000
20
2129.2150
30
0
40
3.5000
0
TEXT
8
TEXTO
10
497.5000
20
2090.2150
30
0
40
16.0000
1
BARRENOS: 16× · Ø 9 / 7 mm (corte láser)
0
LINE
8
FINA
10
497.5000
20
2138.2150
30
0
11
5497.5000
21
2138.2150
31
0
0
LINE
8
PLIEGUE
10
497.5000
20
2145.0050
30
0
11
5497.5000
21
2145.0050
31
0
0
LINE
8
FINA
10
497.5000
20
2151.7850
30
0
11
5497.5000
21
2151.7850
31
0
0
TEXT
8
TEXTO
10
2997.5000
20
2149.0050
30
0
40
12.5000
1
PLEGAR ARRIBA 90° R6
72
1
73
2
11
2997.5000
21
2149.0050
31
0
0
LINE
8
COTAS
10
497.5000
20
2115.2150
30
0
11
497.5000
21
2067.7150
31
0
0
LINE
8
COTAS
10
5497.5000
20
2115.2150
30
0
11
5497.5000
21
2067.7150
31
0
0
LINE
8
COTAS
10
497.5000
20
2075.2150
30
0
11
5497.5000
21
2075.2150
31
0
0
SOLID
8
COTAS
10
497.5000
20
2075.2150
30
0
11
510.0000
21
2077.4650
31
0
12
510.0000
22
2072.9650
32
0
13
510.0000
23
2072.9650
33
0
0
SOLID
8
COTAS
10
5497.5000
20
2075.2150
30
0
11
5485.0000
21
2077.4650
31
0
12
5485.0000
22
2072.9650
32
0
13
5485.0000
23
2072.9650
33
0
0
TEXT
8
COTAS
10
2997.5000
20
2086.2150
30
0
40
17.5000
1
5000
72
1
73
2
11
2997.5000
21
2086.2150
31
0
0
LINE
8
COTAS
10
5502.5000
20
2120.2150
30
0
11
5550.0000
21
2120.2150
31
0
0
LINE
8
COTAS
10
5502.5000
20
2319.7850
30
0
11
5550.0000
21
2319.7850
31
0
0
LINE
8
COTAS
10
5542.5000
20
2120.2150
30
0
11
5542.5000
21
2319.7850
31
0
0
SOLID
8
COTAS
10
5542.5000
20
2120.2150
30
0
11
5544.7500
21
2132.7150
31
0
12
5540.2500
22
2132.7150
32
0
13
5540.2500
23
2132.7150
33
0
0
SOLID
8
COTAS
10
5542.5000
20
2319.7850
30
0
11
5544.7500
21
2307.2850
31
0
12
5540.2500
22
2307.2850
32
0
13
5540.2500
23
2307.2850
33
0
0
TEXT
8
COTAS
10
5553.5000
20
2220.0000
30
0
40
17.5000
1
199.6
72
1
73
2
11
5553.5000
21
2220.0000
31
0
0
TEXT
8
TEXTO
10
497.5000
20
2372.2850
30
0
40
17.5000
1
DESARROLLO DE CHAPA — BA = ang·(R + K·t), fibra neutra por factor K
0
TEXT
8
TEXTO
10
497.5000
20
2344.7850
30
0
40
20.0000
1
ESPESOR DE CHAPA e = 6 mm (constante en toda la pieza)
0
LINE
8
FINA
10
0.0000
20
0.0000
30
0
11
5945.0000
21
0.0000
31
0
0
LINE
8
FINA
10
5945.0000
20
0.0000
30
0
11
5945.0000
21
4205.0000
31
0
0
LINE
8
FINA
10
5945.0000
20
4205.0000
30
0
11
0.0000
21
4205.0000
31
0
0
LINE
8
FINA
10
0.0000
20
4205.0000
30
0
11
0.0000
21
0.0000
31
0
0
LINE
8
NORMA
10
100.0000
20
50.0000
30
0
11
5895.0000
21
50.0000
31
0
0
LINE
8
NORMA
10
5895.0000
20
50.0000
30
0
11
5895.0000
21
4155.0000
31
0
0
LINE
8
NORMA
10
5895.0000
20
4155.0000
30
0
11
100.0000
21
4155.0000
31
0
0
LINE
8
NORMA
10
100.0000
20
4155.0000
30
0
11
100.0000
21
50.0000
31
0
0
LINE
8
NORMA
10
0.0000
20
2102.5000
30
0
11
125.0000
21
2102.5000
31
0
0
LINE
8
NORMA
10
5945.0000
20
2102.5000
30
0
11
5870.0000
21
2102.5000
31
0
0
LINE
8
NORMA
10
2972.5000
20
0.0000
30
0
11
2972.5000
21
75.0000
31
0
0
LINE
8
NORMA
10
2972.5000
20
4205.0000
30
0
11
2972.5000
21
4130.0000
31
0
0
LINE
8
FINA
10
247.7083
20
0.0000
30
0
11
247.7083
21
50.0000
31
0
0
LINE
8
FINA
10
247.7083
20
4155.0000
30
0
11
247.7083
21
4205.0000
31
0
0
LINE
8
FINA
10
495.4167
20
0.0000
30
0
11
495.4167
21
50.0000
31
0
0
LINE
8
FINA
10
495.4167
20
4155.0000
30
0
11
495.4167
21
4205.0000
31
0
0
LINE
8
FINA
10
743.1250
20
0.0000
30
0
11
743.1250
21
50.0000
31
0
0
LINE
8
FINA
10
743.1250
20
4155.0000
30
0
11
743.1250
21
4205.0000
31
0
0
LINE
8
FINA
10
990.8333
20
0.0000
30
0
11
990.8333
21
50.0000
31
0
0
LINE
8
FINA
10
990.8333
20
4155.0000
30
0
11
990.8333
21
4205.0000
31
0
0
LINE
8
FINA
10
1238.5417
20
0.0000
30
0
11
1238.5417
21
50.0000
31
0
0
LINE
8
FINA
10
1238.5417
20
4155.0000
30
0
11
1238.5417
21
4205.0000
31
0
0
LINE
8
FINA
10
1486.2500
20
0.0000
30
0
11
1486.2500
21
50.0000
31
0
0
LINE
8
FINA
10
1486.2500
20
4155.0000
30
0
11
1486.2500
21
4205.0000
31
0
0
LINE
8
FINA
10
1733.9583
20
0.0000
30
0
11
1733.9583
21
50.0000
31
0
0
LINE
8
FINA
10
1733.9583
20
4155.0000
30
0
11
1733.9583
21
4205.0000
31
0
0
LINE
8
FINA
10
1981.6667
20
0.0000
30
0
11
1981.6667
21
50.0000
31
0
0
LINE
8
FINA
10
1981.6667
20
4155.0000
30
0
11
1981.6667
21
4205.0000
31
0
0
LINE
8
FINA
10
2229.3750
20
0.0000
30
0
11
2229.3750
21
50.0000
31
0
0
LINE
8
FINA
10
2229.3750
20
4155.0000
30
0
11
2229.3750
21
4205.0000
31
0
0
LINE
8
FINA
10
2477.0833
20
0.0000
30
0
11
2477.0833
21
50.0000
31
0
0
LINE
8
FINA
10
2477.0833
20
4155.0000
30
0
11
2477.0833
21
4205.0000
31
0
0
LINE
8
FINA
10
2724.7917
20
0.0000
30
0
11
2724.7917
21
50.0000
31
0
0
LINE
8
FINA
10
2724.7917
20
4155.0000
30
0
11
2724.7917
21
4205.0000
31
0
0
LINE
8
FINA
10
2972.5000
20
0.0000
30
0
11
2972.5000
21
50.0000
31
0
0
LINE
8
FINA
10
2972.5000
20
4155.0000
30
0
11
2972.5000
21
4205.0000
31
0
0
LINE
8
FINA
10
3220.2083
20
0.0000
30
0
11
3220.2083
21
50.0000
31
0
0
LINE
8
FINA
10
3220.2083
20
4155.0000
30
0
11
3220.2083
21
4205.0000
31
0
0
LINE
8
FINA
10
3467.9167
20
0.0000
30
0
11
3467.9167
21
50.0000
31
0
0
LINE
8
FINA
10
3467.9167
20
4155.0000
30
0
11
3467.9167
21
4205.0000
31
0
0
LINE
8
FINA
10
3715.6250
20
0.0000
30
0
11
3715.6250
21
50.0000
31
0
0
LINE
8
FINA
10
3715.6250
20
4155.0000
30
0
11
3715.6250
21
4205.0000
31
0
0
LINE
8
FINA
10
3963.3333
20
0.0000
30
0
11
3963.3333
21
50.0000
31
0
0
LINE
8
FINA
10
3963.3333
20
4155.0000
30
0
11
3963.3333
21
4205.0000
31
0
0
LINE
8
FINA
10
4211.0417
20
0.0000
30
0
11
4211.0417
21
50.0000
31
0
0
LINE
8
FINA
10
4211.0417
20
4155.0000
30
0
11
4211.0417
21
4205.0000
31
0
0
LINE
8
FINA
10
4458.7500
20
0.0000
30
0
11
4458.7500
21
50.0000
31
0
0
LINE
8
FINA
10
4458.7500
20
4155.0000
30
0
11
4458.7500
21
4205.0000
31
0
0
LINE
8
FINA
10
4706.4583
20
0.0000
30
0
11
4706.4583
21
50.0000
31
0
0
LINE
8
FINA
10
4706.4583
20
4155.0000
30
0
11
4706.4583
21
4205.0000
31
0
0
LINE
8
FINA
10
4954.1667
20
0.0000
30
0
11
4954.1667
21
50.0000
31
0
0
LINE
8
FINA
10
4954.1667
20
4155.0000
30
0
11
4954.1667
21
4205.0000
31
0
0
LINE
8
FINA
10
5201.8750
20
0.0000
30
0
11
5201.8750
21
50.0000
31
0
0
LINE
8
FINA
10
5201.8750
20
4155.0000
30
0
11
5201.8750
21
4205.0000
31
0
0
LINE
8
FINA
10
5449.5833
20
0.0000
30
0
11
5449.5833
21
50.0000
31
0
0
LINE
8
FINA
10
5449.5833
20
4155.0000
30
0
11
5449.5833
21
4205.0000
31
0
0
LINE
8
FINA
10
5697.2917
20
0.0000
30
0
11
5697.2917
21
50.0000
31
0
0
LINE
8
FINA
10
5697.2917
20
4155.0000
30
0
11
5697.2917
21
4205.0000
31
0
0
LINE
8
FINA
10
0.0000
20
262.8125
30
0
11
50.0000
21
262.8125
31
0
0
LINE
8
FINA
10
5895.0000
20
262.8125
30
0
11
5945.0000
21
262.8125
31
0
0
LINE
8
FINA
10
0.0000
20
525.6250
30
0
11
50.0000
21
525.6250
31
0
0
LINE
8
FINA
10
5895.0000
20
525.6250
30
0
11
5945.0000
21
525.6250
31
0
0
LINE
8
FINA
10
0.0000
20
788.4375
30
0
11
50.0000
21
788.4375
31
0
0
LINE
8
FINA
10
5895.0000
20
788.4375
30
0
11
5945.0000
21
788.4375
31
0
0
LINE
8
FINA
10
0.0000
20
1051.2500
30
0
11
50.0000
21
1051.2500
31
0
0
LINE
8
FINA
10
5895.0000
20
1051.2500
30
0
11
5945.0000
21
1051.2500
31
0
0
LINE
8
FINA
10
0.0000
20
1314.0625
30
0
11
50.0000
21
1314.0625
31
0
0
LINE
8
FINA
10
5895.0000
20
1314.0625
30
0
11
5945.0000
21
1314.0625
31
0
0
LINE
8
FINA
10
0.0000
20
1576.8750
30
0
11
50.0000
21
1576.8750
31
0
0
LINE
8
FINA
10
5895.0000
20
1576.8750
30
0
11
5945.0000
21
1576.8750
31
0
0
LINE
8
FINA
10
0.0000
20
1839.6875
30
0
11
50.0000
21
1839.6875
31
0
0
LINE
8
FINA
10
5895.0000
20
1839.6875
30
0
11
5945.0000
21
1839.6875
31
0
0
LINE
8
FINA
10
0.0000
20
2102.5000
30
0
11
50.0000
21
2102.5000
31
0
0
LINE
8
FINA
10
5895.0000
20
2102.5000
30
0
11
5945.0000
21
2102.5000
31
0
0
LINE
8
FINA
10
0.0000
20
2365.3125
30
0
11
50.0000
21
2365.3125
31
0
0
LINE
8
FINA
10
5895.0000
20
2365.3125
30
0
11
5945.0000
21
2365.3125
31
0
0
LINE
8
FINA
10
0.0000
20
2628.1250
30
0
11
50.0000
21
2628.1250
31
0
0
LINE
8
FINA
10
5895.0000
20
2628.1250
30
0
11
5945.0000
21
2628.1250
31
0
0
LINE
8
FINA
10
0.0000
20
2890.9375
30
0
11
50.0000
21
2890.9375
31
0
0
LINE
8
FINA
10
5895.0000
20
2890.9375
30
0
11
5945.0000
21
2890.9375
31
0
0
LINE
8
FINA
10
0.0000
20
3153.7500
30
0
11
50.0000
21
3153.7500
31
0
0
LINE
8
FINA
10
5895.0000
20
3153.7500
30
0
11
5945.0000
21
3153.7500
31
0
0
LINE
8
FINA
10
0.0000
20
3416.5625
30
0
11
50.0000
21
3416.5625
31
0
0
LINE
8
FINA
10
5895.0000
20
3416.5625
30
0
11
5945.0000
21
3416.5625
31
0
0
LINE
8
FINA
10
0.0000
20
3679.3750
30
0
11
50.0000
21
3679.3750
31
0
0
LINE
8
FINA
10
5895.0000
20
3679.3750
30
0
11
5945.0000
21
3679.3750
31
0
0
LINE
8
FINA
10
0.0000
20
3942.1875
30
0
11
50.0000
21
3942.1875
31
0
0
LINE
8
FINA
10
5895.0000
20
3942.1875
30
0
11
5945.0000
21
3942.1875
31
0
0
TEXT
8
TEXTO
10
123.8542
20
25.0000
30
0
40
12.5000
1
1
72
1
73
2
11
123.8542
21
25.0000
31
0
0
TEXT
8
TEXTO
10
123.8542
20
4180.0000
30
0
40
12.5000
1
1
72
1
73
2
11
123.8542
21
4180.0000
31
0
0
TEXT
8
TEXTO
10
371.5625
20
25.0000
30
0
40
12.5000
1
2
72
1
73
2
11
371.5625
21
25.0000
31
0
0
TEXT
8
TEXTO
10
371.5625
20
4180.0000
30
0
40
12.5000
1
2
72
1
73
2
11
371.5625
21
4180.0000
31
0
0
TEXT
8
TEXTO
10
619.2708
20
25.0000
30
0
40
12.5000
1
3
72
1
73
2
11
619.2708
21
25.0000
31
0
0
TEXT
8
TEXTO
10
619.2708
20
4180.0000
30
0
40
12.5000
1
3
72
1
73
2
11
619.2708
21
4180.0000
31
0
0
TEXT
8
TEXTO
10
866.9792
20
25.0000
30
0
40
12.5000
1
4
72
1
73
2
11
866.9792
21
25.0000
31
0
0
TEXT
8
TEXTO
10
866.9792
20
4180.0000
30
0
40
12.5000
1
4
72
1
73
2
11
866.9792
21
4180.0000
31
0
0
TEXT
8
TEXTO
10
1114.6875
20
25.0000
30
0
40
12.5000
1
5
72
1
73
2
11
1114.6875
21
25.0000
31
0
0
TEXT
8
TEXTO
10
1114.6875
20
4180.0000
30
0
40
12.5000
1
5
72
1
73
2
11
1114.6875
21
4180.0000
31
0
0
TEXT
8
TEXTO
10
1362.3958
20
25.0000
30
0
40
12.5000
1
6
72
1
73
2
11
1362.3958
21
25.0000
31
0
0
TEXT
8
TEXTO
10
1362.3958
20
4180.0000
30
0
40
12.5000
1
6
72
1
73
2
11
1362.3958
21
4180.0000
31
0
0
TEXT
8
TEXTO
10
1610.1042
20
25.0000
30
0
40
12.5000
1
7
72
1
73
2
11
1610.1042
21
25.0000
31
0
0
TEXT
8
TEXTO
10
1610.1042
20
4180.0000
30
0
40
12.5000
1
7
72
1
73
2
11
1610.1042
21
4180.0000
31
0
0
TEXT
8
TEXTO
10
1857.8125
20
25.0000
30
0
40
12.5000
1
8
72
1
73
2
11
1857.8125
21
25.0000
31
0
0
TEXT
8
TEXTO
10
1857.8125
20
4180.0000
30
0
40
12.5000
1
8
72
1
73
2
11
1857.8125
21
4180.0000
31
0
0
TEXT
8
TEXTO
10
2105.5208
20
25.0000
30
0
40
12.5000
1
9
72
1
73
2
11
2105.5208
21
25.0000
31
0
0
TEXT
8
TEXTO
10
2105.5208
20
4180.0000
30
0
40
12.5000
1
9
72
1
73
2
11
2105.5208
21
4180.0000
31
0
0
TEXT
8
TEXTO
10
2353.2292
20
25.0000
30
0
40
12.5000
1
10
72
1
73
2
11
2353.2292
21
25.0000
31
0
0
TEXT
8
TEXTO
10
2353.2292
20
4180.0000
30
0
40
12.5000
1
10
72
1
73
2
11
2353.2292
21
4180.0000
31
0
0
TEXT
8
TEXTO
10
2600.9375
20
25.0000
30
0
40
12.5000
1
11
72
1
73
2
11
2600.9375
21
25.0000
31
0
0
TEXT
8
TEXTO
10
2600.9375
20
4180.0000
30
0
40
12.5000
1
11
72
1
73
2
11
2600.9375
21
4180.0000
31
0
0
TEXT
8
TEXTO
10
2848.6458
20
25.0000
30
0
40
12.5000
1
12
72
1
73
2
11
2848.6458
21
25.0000
31
0
0
TEXT
8
TEXTO
10
2848.6458
20
4180.0000
30
0
40
12.5000
1
12
72
1
73
2
11
2848.6458
21
4180.0000
31
0
0
TEXT
8
TEXTO
10
3096.3542
20
25.0000
30
0
40
12.5000
1
13
72
1
73
2
11
3096.3542
21
25.0000
31
0
0
TEXT
8
TEXTO
10
3096.3542
20
4180.0000
30
0
40
12.5000
1
13
72
1
73
2
11
3096.3542
21
4180.0000
31
0
0
TEXT
8
TEXTO
10
3344.0625
20
25.0000
30
0
40
12.5000
1
14
72
1
73
2
11
3344.0625
21
25.0000
31
0
0
TEXT
8
TEXTO
10
3344.0625
20
4180.0000
30
0
40
12.5000
1
14
72
1
73
2
11
3344.0625
21
4180.0000
31
0
0
TEXT
8
TEXTO
10
3591.7708
20
25.0000
30
0
40
12.5000
1
15
72
1
73
2
11
3591.7708
21
25.0000
31
0
0
TEXT
8
TEXTO
10
3591.7708
20
4180.0000
30
0
40
12.5000
1
15
72
1
73
2
11
3591.7708
21
4180.0000
31
0
0
TEXT
8
TEXTO
10
3839.4792
20
25.0000
30
0
40
12.5000
1
16
72
1
73
2
11
3839.4792
21
25.0000
31
0
0
TEXT
8
TEXTO
10
3839.4792
20
4180.0000
30
0
40
12.5000
1
16
72
1
73
2
11
3839.4792
21
4180.0000
31
0
0
TEXT
8
TEXTO
10
4087.1875
20
25.0000
30
0
40
12.5000
1
17
72
1
73
2
11
4087.1875
21
25.0000
31
0
0
TEXT
8
TEXTO
10
4087.1875
20
4180.0000
30
0
40
12.5000
1
17
72
1
73
2
11
4087.1875
21
4180.0000
31
0
0
TEXT
8
TEXTO
10
4334.8958
20
25.0000
30
0
40
12.5000
1
18
72
1
73
2
11
4334.8958
21
25.0000
31
0
0
TEXT
8
TEXTO
10
4334.8958
20
4180.0000
30
0
40
12.5000
1
18
72
1
73
2
11
4334.8958
21
4180.0000
31
0
0
TEXT
8
TEXTO
10
4582.6042
20
25.0000
30
0
40
12.5000
1
19
72
1
73
2
11
4582.6042
21
25.0000
31
0
0
TEXT
8
TEXTO
10
4582.6042
20
4180.0000
30
0
40
12.5000
1
19
72
1
73
2
11
4582.6042
21
4180.0000
31
0
0
TEXT
8
TEXTO
10
4830.3125
20
25.0000
30
0
40
12.5000
1
20
72
1
73
2
11
4830.3125
21
25.0000
31
0
0
TEXT
8
TEXTO
10
4830.3125
20
4180.0000
30
0
40
12.5000
1
20
72
1
73
2
11
4830.3125
21
4180.0000
31
0
0
TEXT
8
TEXTO
10
5078.0208
20
25.0000
30
0
40
12.5000
1
21
72
1
73
2
11
5078.0208
21
25.0000
31
0
0
TEXT
8
TEXTO
10
5078.0208
20
4180.0000
30
0
40
12.5000
1
21
72
1
73
2
11
5078.0208
21
4180.0000
31
0
0
TEXT
8
TEXTO
10
5325.7292
20
25.0000
30
0
40
12.5000
1
22
72
1
73
2
11
5325.7292
21
25.0000
31
0
0
TEXT
8
TEXTO
10
5325.7292
20
4180.0000
30
0
40
12.5000
1
22
72
1
73
2
11
5325.7292
21
4180.0000
31
0
0
TEXT
8
TEXTO
10
5573.4375
20
25.0000
30
0
40
12.5000
1
23
72
1
73
2
11
5573.4375
21
25.0000
31
0
0
TEXT
8
TEXTO
10
5573.4375
20
4180.0000
30
0
40
12.5000
1
23
72
1
73
2
11
5573.4375
21
4180.0000
31
0
0
TEXT
8
TEXTO
10
5821.1458
20
25.0000
30
0
40
12.5000
1
24
72
1
73
2
11
5821.1458
21
25.0000
31
0
0
TEXT
8
TEXTO
10
5821.1458
20
4180.0000
30
0
40
12.5000
1
24
72
1
73
2
11
5821.1458
21
4180.0000
31
0
0
TEXT
8
TEXTO
10
25.0000
20
4073.5938
30
0
40
12.5000
1
A
72
1
73
2
11
25.0000
21
4073.5938
31
0
0
TEXT
8
TEXTO
10
5920.0000
20
4073.5938
30
0
40
12.5000
1
A
72
1
73
2
11
5920.0000
21
4073.5938
31
0
0
TEXT
8
TEXTO
10
25.0000
20
3810.7813
30
0
40
12.5000
1
B
72
1
73
2
11
25.0000
21
3810.7813
31
0
0
TEXT
8
TEXTO
10
5920.0000
20
3810.7813
30
0
40
12.5000
1
B
72
1
73
2
11
5920.0000
21
3810.7813
31
0
0
TEXT
8
TEXTO
10
25.0000
20
3547.9688
30
0
40
12.5000
1
C
72
1
73
2
11
25.0000
21
3547.9688
31
0
0
TEXT
8
TEXTO
10
5920.0000
20
3547.9688
30
0
40
12.5000
1
C
72
1
73
2
11
5920.0000
21
3547.9688
31
0
0
TEXT
8
TEXTO
10
25.0000
20
3285.1563
30
0
40
12.5000
1
D
72
1
73
2
11
25.0000
21
3285.1563
31
0
0
TEXT
8
TEXTO
10
5920.0000
20
3285.1563
30
0
40
12.5000
1
D
72
1
73
2
11
5920.0000
21
3285.1563
31
0
0
TEXT
8
TEXTO
10
25.0000
20
3022.3438
30
0
40
12.5000
1
E
72
1
73
2
11
25.0000
21
3022.3438
31
0
0
TEXT
8
TEXTO
10
5920.0000
20
3022.3438
30
0
40
12.5000
1
E
72
1
73
2
11
5920.0000
21
3022.3438
31
0
0
TEXT
8
TEXTO
10
25.0000
20
2759.5313
30
0
40
12.5000
1
F
72
1
73
2
11
25.0000
21
2759.5313
31
0
0
TEXT
8
TEXTO
10
5920.0000
20
2759.5313
30
0
40
12.5000
1
F
72
1
73
2
11
5920.0000
21
2759.5313
31
0
0
TEXT
8
TEXTO
10
25.0000
20
2496.7188
30
0
40
12.5000
1
G
72
1
73
2
11
25.0000
21
2496.7188
31
0
0
TEXT
8
TEXTO
10
5920.0000
20
2496.7188
30
0
40
12.5000
1
G
72
1
73
2
11
5920.0000
21
2496.7188
31
0
0
TEXT
8
TEXTO
10
25.0000
20
2233.9063
30
0
40
12.5000
1
H
72
1
73
2
11
25.0000
21
2233.9063
31
0
0
TEXT
8
TEXTO
10
5920.0000
20
2233.9063
30
0
40
12.5000
1
H
72
1
73
2
11
5920.0000
21
2233.9063
31
0
0
TEXT
8
TEXTO
10
25.0000
20
1971.0938
30
0
40
12.5000
1
J
72
1
73
2
11
25.0000
21
1971.0938
31
0
0
TEXT
8
TEXTO
10
5920.0000
20
1971.0938
30
0
40
12.5000
1
J
72
1
73
2
11
5920.0000
21
1971.0938
31
0
0
TEXT
8
TEXTO
10
25.0000
20
1708.2813
30
0
40
12.5000
1
K
72
1
73
2
11
25.0000
21
1708.2813
31
0
0
TEXT
8
TEXTO
10
5920.0000
20
1708.2813
30
0
40
12.5000
1
K
72
1
73
2
11
5920.0000
21
1708.2813
31
0
0
TEXT
8
TEXTO
10
25.0000
20
1445.4688
30
0
40
12.5000
1
L
72
1
73
2
11
25.0000
21
1445.4688
31
0
0
TEXT
8
TEXTO
10
5920.0000
20
1445.4688
30
0
40
12.5000
1
L
72
1
73
2
11
5920.0000
21
1445.4688
31
0
0
TEXT
8
TEXTO
10
25.0000
20
1182.6563
30
0
40
12.5000
1
M
72
1
73
2
11
25.0000
21
1182.6563
31
0
0
TEXT
8
TEXTO
10
5920.0000
20
1182.6563
30
0
40
12.5000
1
M
72
1
73
2
11
5920.0000
21
1182.6563
31
0
0
TEXT
8
TEXTO
10
25.0000
20
919.8438
30
0
40
12.5000
1
N
72
1
73
2
11
25.0000
21
919.8438
31
0
0
TEXT
8
TEXTO
10
5920.0000
20
919.8438
30
0
40
12.5000
1
N
72
1
73
2
11
5920.0000
21
919.8438
31
0
0
TEXT
8
TEXTO
10
25.0000
20
657.0313
30
0
40
12.5000
1
P
72
1
73
2
11
25.0000
21
657.0313
31
0
0
TEXT
8
TEXTO
10
5920.0000
20
657.0313
30
0
40
12.5000
1
P
72
1
73
2
11
5920.0000
21
657.0313
31
0
0
TEXT
8
TEXTO
10
25.0000
20
394.2188
30
0
40
12.5000
1
Q
72
1
73
2
11
25.0000
21
394.2188
31
0
0
TEXT
8
TEXTO
10
5920.0000
20
394.2188
30
0
40
12.5000
1
Q
72
1
73
2
11
5920.0000
21
394.2188
31
0
0
TEXT
8
TEXTO
10
25.0000
20
131.4063
30
0
40
12.5000
1
R
72
1
73
2
11
25.0000
21
131.4063
31
0
0
TEXT
8
TEXTO
10
5920.0000
20
131.4063
30
0
40
12.5000
1
R
72
1
73
2
11
5920.0000
21
131.4063
31
0
0
LINE
8
NORMA
10
4995.0000
20
50.0000
30
0
11
5895.0000
21
50.0000
31
0
0
LINE
8
NORMA
10
5895.0000
20
50.0000
30
0
11
5895.0000
21
260.0000
31
0
0
LINE
8
NORMA
10
5895.0000
20
260.0000
30
0
11
4995.0000
21
260.0000
31
0
0
LINE
8
NORMA
10
4995.0000
20
260.0000
30
0
11
4995.0000
21
50.0000
31
0
0
LINE
8
NORMA
10
5195.0000
20
50.0000
30
0
11
5195.0000
21
260.0000
31
0
0
LINE
8
NORMA
10
5665.0000
20
50.0000
30
0
11
5665.0000
21
260.0000
31
0
0
LINE
8
FINA
10
4995.0000
20
145.0000
30
0
11
5195.0000
21
145.0000
31
0
0
TEXT
8
TEXTO
10
5095.0000
20
219.0000
30
0
40
30.0000
1
foto3d
72
1
73
2
11
5095.0000
21
219.0000
31
0
0
LINE
8
FINA
10
5027.5000
20
193.0000
30
0
11
5162.5000
21
193.0000
31
0
0
TEXT
8
TEXTO
10
5095.0000
20
179.0000
30
0
40
6.5000
1
CAD · DISEÑO CAPA USER
72
1
73
2
11
5095.0000
21
179.0000
31
0
0
TEXT
8
TEXTO
10
5095.0000
20
163.0000
30
0
40
6.5000
1
ISO 5457 · 7200 · 129 · 5456-2
72
1
73
2
11
5095.0000
21
163.0000
31
0
0
TEXT
8
TEXTO
10
5095.0000
20
133.0000
30
0
40
7.0000
1
PROYECCIÓN — PRIMER DIEDRO
72
1
73
2
11
5095.0000
21
133.0000
31
0
0
CIRCLE
8
TEXTO
10
5072.0000
20
87.5000
30
0
40
14.9500
0
CIRCLE
8
TEXTO
10
5072.0000
20
87.5000
30
0
40
8.0500
0
LINE
8
TEXTO
10
5097.3000
20
72.5500
30
0
11
5132.9500
21
79.4500
31
0
0
LINE
8
TEXTO
10
5132.9500
20
79.4500
30
0
11
5132.9500
21
95.5500
31
0
0
LINE
8
TEXTO
10
5132.9500
20
95.5500
30
0
11
5097.3000
21
102.4500
31
0
0
LINE
8
TEXTO
10
5097.3000
20
102.4500
30
0
11
5097.3000
21
72.5500
31
0
0
LINE
8
FINA
10
5050.1500
20
87.5000
30
0
11
5139.8500
21
87.5000
31
0
0
LINE
8
FINA
10
5195.0000
20
195.0000
30
0
11
5665.0000
21
195.0000
31
0
0
LINE
8
FINA
10
5195.0000
20
145.0000
30
0
11
5665.0000
21
145.0000
31
0
0
LINE
8
FINA
10
5195.0000
20
95.0000
30
0
11
5665.0000
21
95.0000
31
0
0
LINE
8
FINA
10
5430.0000
20
145.0000
30
0
11
5430.0000
21
195.0000
31
0
0
LINE
8
FINA
10
5475.0000
20
95.0000
30
0
11
5475.0000
21
145.0000
31
0
0
TEXT
8
TEXTO
10
5201.5000
20
248.0000
30
0
40
7.0000
1
DESIGNACIÓN
0
TEXT
8
TEXTO
10
5203.0000
20
220.5000
30
0
40
14.8453
1
LBD-06 · Placa lateral libre (?Y) PL6 L=5000 (x2) — DESARROLLO
72
0
73
2
11
5203.0000
21
220.5000
31
0
0
TEXT
8
TEXTO
10
5201.5000
20
183.0000
30
0
40
7.0000
1
PROYECTO
0
TEXT
8
TEXTO
10
5203.0000
20
163.0000
30
0
40
10.6647
1
CV-LBP-5000 · Movex 530 LBP 18 in × 5.0 m
72
0
73
2
11
5203.0000
21
163.0000
31
0
0
TEXT
8
TEXTO
10
5436.5000
20
183.0000
30
0
40
7.0000
1
FUENTE
0
TEXT
8
TEXTO
10
5438.0000
20
163.0000
30
0
40
12.0000
1
chapa plegada — capa user
72
0
73
2
11
5438.0000
21
163.0000
31
0
0
TEXT
8
TEXTO
10
5201.5000
20
133.0000
30
0
40
7.0000
1
VERIFICACIÓN DE ESCALA
0
TEXT
8
TEXTO
10
5203.0000
20
113.0000
30
0
40
12.0000
1
CAD EN MM (CAPA USER)
72
0
73
2
11
5203.0000
21
113.0000
31
0
0
TEXT
8
TEXTO
10
5481.5000
20
133.0000
30
0
40
7.0000
1
PLIEGUES
0
TEXT
8
TEXTO
10
5483.0000
20
113.0000
30
0
40
13.0000
1
1
72
0
73
2
11
5483.0000
21
113.0000
31
0
0
TEXT
8
TEXTO
10
5201.5000
20
83.0000
30
0
40
7.0000
1
NOTA
0
TEXT
8
TEXTO
10
5203.0000
20
65.5000
30
0
40
11.0000
1
MECHAS PORTA-CHUMACERA VAN SOLDADAS (ver GA y plano de mecha)
72
0
73
2
11
5203.0000
21
65.5000
31
0
0
LINE
8
FINA
10
5665.0000
20
195.0000
30
0
11
5895.0000
21
195.0000
31
0
0
LINE
8
FINA
10
5665.0000
20
145.0000
30
0
11
5895.0000
21
145.0000
31
0
0
LINE
8
FINA
10
5665.0000
20
95.0000
30
0
11
5895.0000
21
95.0000
31
0
0
LINE
8
FINA
10
5780.0000
20
145.0000
30
0
11
5780.0000
21
195.0000
31
0
0
LINE
8
FINA
10
5795.0000
20
95.0000
30
0
11
5795.0000
21
145.0000
31
0
0
TEXT
8
TEXTO
10
5671.5000
20
248.0000
30
0
40
7.0000
1
ESCALA
0
TEXT
8
TEXTO
10
5780.0000
20
220.5000
30
0
40
25.0000
1
1:5
72
1
73
2
11
5780.0000
21
220.5000
31
0
0
TEXT
8
TEXTO
10
5671.5000
20
183.0000
30
0
40
7.0000
1
FORMATO
0
TEXT
8
TEXTO
10
5722.5000
20
163.0000
30
0
40
15.0000
1
A0
72
1
73
2
11
5722.5000
21
163.0000
31
0
0
TEXT
8
TEXTO
10
5786.5000
20
183.0000
30
0
40
7.0000
1
LÁMINA
0
TEXT
8
TEXTO
10
5837.5000
20
163.0000
30
0
40
15.0000
1
1 / 1
72
1
73
2
11
5837.5000
21
163.0000
31
0
0
TEXT
8
TEXTO
10
5671.5000
20
133.0000
30
0
40
7.0000
1
FECHA
0
TEXT
8
TEXTO
10
5730.0000
20
113.0000
30
0
40
13.0000
1
2026-08-12
72
1
73
2
11
5730.0000
21
113.0000
31
0
0
TEXT
8
TEXTO
10
5801.5000
20
133.0000
30
0
40
7.0000
1
UNIDADES
0
TEXT
8
TEXTO
10
5845.0000
20
113.0000
30
0
40
15.0000
1
mm
72
1
73
2
11
5845.0000
21
113.0000
31
0
0
TEXT
8
TEXTO
10
5671.5000
20
83.0000
30
0
40
7.0000
1
Nº DE PLANO
0
TEXT
8
TEXTO
10
5780.0000
20
65.5000
30
0
40
13.0000
1
CHAPA-01
72
1
73
2
11
5780.0000
21
65.5000
31
0
0
ENDSEC
0
EOF
