0
SECTION
2
HEADER
9
$ACADVER
1
AC1009
9
$DWGCODEPAGE
3
ANSI_1252
0
ENDSEC
0
SECTION
2
TABLES
0
TABLE
2
LTYPE
70
2
0
LTYPE
2
CONTINUOUS
70
0
3
Solid line
72
65
73
0
40
0
0
LTYPE
2
DASHED
70
0
3
Segmentada __ __ __
72
65
73
2
40
6
49
4
49
-2
0
ENDTAB
0
TABLE
2
LAYER
70
8
0
LAYER
2
SOMBRA
70
0
62
8
6
CONTINUOUS
0
LAYER
2
NORMA
70
0
62
7
6
CONTINUOUS
0
LAYER
2
FINA
70
0
62
7
6
CONTINUOUS
0
LAYER
2
VISIBLE
70
0
62
7
6
CONTINUOUS
0
LAYER
2
COTAS
70
0
62
7
6
CONTINUOUS
0
LAYER
2
TEXTO
70
0
62
7
6
CONTINUOUS
0
LAYER
2
PLIEGUE
70
0
62
1
6
DASHED
0
LAYER
2
OCULTA
70
0
62
7
6
CONTINUOUS
0
ENDTAB
0
ENDSEC
0
SECTION
2
ENTITIES
0
LINE
8
VISIBLE
10
113.5000
20
82.6050
30
0
11
316.5000
21
82.6050
31
0
0
LINE
8
VISIBLE
10
316.5000
20
82.6050
30
0
11
316.5000
21
261.3950
31
0
0
LINE
8
VISIBLE
10
316.5000
20
261.3950
30
0
11
113.5000
21
261.3950
31
0
0
LINE
8
VISIBLE
10
113.5000
20
261.3950
30
0
11
113.5000
21
82.6050
31
0
0
CIRCLE
8
VISIBLE
10
215.0000
20
229.3950
30
0
40
5.5000
0
CIRCLE
8
VISIBLE
10
169.8000
20
209.3950
30
0
40
5.5000
0
CIRCLE
8
VISIBLE
10
260.2000
20
209.3950
30
0
40
5.5000
0
LINE
8
VISIBLE
10
138.1000
20
117.1050
30
0
11
149.1000
21
117.1050
31
0
0
LINE
8
VISIBLE
10
149.1000
20
117.1050
30
0
11
149.1000
21
121.1050
31
0
0
LINE
8
VISIBLE
10
149.1000
20
121.1050
30
0
11
159.6000
21
121.1050
31
0
0
LINE
8
VISIBLE
10
159.6000
20
121.1050
30
0
11
159.6000
21
132.1050
31
0
0
LINE
8
VISIBLE
10
159.6000
20
132.1050
30
0
11
149.1000
21
132.1050
31
0
0
LINE
8
VISIBLE
10
149.1000
20
132.1050
30
0
11
149.1000
21
136.1050
31
0
0
LINE
8
VISIBLE
10
149.1000
20
136.1050
30
0
11
138.1000
21
136.1050
31
0
0
LINE
8
VISIBLE
10
138.1000
20
136.1050
30
0
11
138.1000
21
132.1050
31
0
0
LINE
8
VISIBLE
10
138.1000
20
132.1050
30
0
11
127.6000
21
132.1050
31
0
0
LINE
8
VISIBLE
10
127.6000
20
132.1050
30
0
11
127.6000
21
121.1050
31
0
0
LINE
8
VISIBLE
10
127.6000
20
121.1050
30
0
11
138.1000
21
121.1050
31
0
0
LINE
8
VISIBLE
10
138.1000
20
121.1050
30
0
11
138.1000
21
117.1050
31
0
0
LINE
8
VISIBLE
10
185.7000
20
117.1050
30
0
11
196.7000
21
117.1050
31
0
0
LINE
8
VISIBLE
10
196.7000
20
117.1050
30
0
11
196.7000
21
121.1050
31
0
0
LINE
8
VISIBLE
10
196.7000
20
121.1050
30
0
11
207.2000
21
121.1050
31
0
0
LINE
8
VISIBLE
10
207.2000
20
121.1050
30
0
11
207.2000
21
132.1050
31
0
0
LINE
8
VISIBLE
10
207.2000
20
132.1050
30
0
11
196.7000
21
132.1050
31
0
0
LINE
8
VISIBLE
10
196.7000
20
132.1050
30
0
11
196.7000
21
136.1050
31
0
0
LINE
8
VISIBLE
10
196.7000
20
136.1050
30
0
11
185.7000
21
136.1050
31
0
0
LINE
8
VISIBLE
10
185.7000
20
136.1050
30
0
11
185.7000
21
132.1050
31
0
0
LINE
8
VISIBLE
10
185.7000
20
132.1050
30
0
11
175.2000
21
132.1050
31
0
0
LINE
8
VISIBLE
10
175.2000
20
132.1050
30
0
11
175.2000
21
121.1050
31
0
0
LINE
8
VISIBLE
10
175.2000
20
121.1050
30
0
11
185.7000
21
121.1050
31
0
0
LINE
8
VISIBLE
10
185.7000
20
121.1050
30
0
11
185.7000
21
117.1050
31
0
0
LINE
8
VISIBLE
10
233.3000
20
117.1050
30
0
11
244.3000
21
117.1050
31
0
0
LINE
8
VISIBLE
10
244.3000
20
117.1050
30
0
11
244.3000
21
121.1050
31
0
0
LINE
8
VISIBLE
10
244.3000
20
121.1050
30
0
11
254.8000
21
121.1050
31
0
0
LINE
8
VISIBLE
10
254.8000
20
121.1050
30
0
11
254.8000
21
132.1050
31
0
0
LINE
8
VISIBLE
10
254.8000
20
132.1050
30
0
11
244.3000
21
132.1050
31
0
0
LINE
8
VISIBLE
10
244.3000
20
132.1050
30
0
11
244.3000
21
136.1050
31
0
0
LINE
8
VISIBLE
10
244.3000
20
136.1050
30
0
11
233.3000
21
136.1050
31
0
0
LINE
8
VISIBLE
10
233.3000
20
136.1050
30
0
11
233.3000
21
132.1050
31
0
0
LINE
8
VISIBLE
10
233.3000
20
132.1050
30
0
11
222.8000
21
132.1050
31
0
0
LINE
8
VISIBLE
10
222.8000
20
132.1050
30
0
11
222.8000
21
121.1050
31
0
0
LINE
8
VISIBLE
10
222.8000
20
121.1050
30
0
11
233.3000
21
121.1050
31
0
0
LINE
8
VISIBLE
10
233.3000
20
121.1050
30
0
11
233.3000
21
117.1050
31
0
0
LINE
8
VISIBLE
10
280.9000
20
117.1050
30
0
11
291.9000
21
117.1050
31
0
0
LINE
8
VISIBLE
10
291.9000
20
117.1050
30
0
11
291.9000
21
121.1050
31
0
0
LINE
8
VISIBLE
10
291.9000
20
121.1050
30
0
11
302.4000
21
121.1050
31
0
0
LINE
8
VISIBLE
10
302.4000
20
121.1050
30
0
11
302.4000
21
132.1050
31
0
0
LINE
8
VISIBLE
10
302.4000
20
132.1050
30
0
11
291.9000
21
132.1050
31
0
0
LINE
8
VISIBLE
10
291.9000
20
132.1050
30
0
11
291.9000
21
136.1050
31
0
0
LINE
8
VISIBLE
10
291.9000
20
136.1050
30
0
11
280.9000
21
136.1050
31
0
0
LINE
8
VISIBLE
10
280.9000
20
136.1050
30
0
11
280.9000
21
132.1050
31
0
0
LINE
8
VISIBLE
10
280.9000
20
132.1050
30
0
11
270.4000
21
132.1050
31
0
0
LINE
8
VISIBLE
10
270.4000
20
132.1050
30
0
11
270.4000
21
121.1050
31
0
0
LINE
8
VISIBLE
10
270.4000
20
121.1050
30
0
11
280.9000
21
121.1050
31
0
0
LINE
8
VISIBLE
10
280.9000
20
121.1050
30
0
11
280.9000
21
117.1050
31
0
0
LINE
8
VISIBLE
10
243.7500
20
253.1850
30
0
11
240.4300
21
254.9650
31
0
0
LINE
8
VISIBLE
10
240.4300
20
254.9650
30
0
11
237.0000
21
256.5150
31
0
0
LINE
8
VISIBLE
10
237.0000
20
256.5150
30
0
11
233.4800
21
257.8350
31
0
0
LINE
8
VISIBLE
10
233.4800
20
257.8350
30
0
11
229.8800
21
258.9350
31
0
0
LINE
8
VISIBLE
10
229.8800
20
258.9350
30
0
11
226.2200
21
259.7850
31
0
0
LINE
8
VISIBLE
10
226.2200
20
259.7850
30
0
11
222.5100
21
260.3950
31
0
0
LINE
8
VISIBLE
10
222.5100
20
260.3950
30
0
11
218.7600
21
260.7650
31
0
0
LINE
8
VISIBLE
10
218.7600
20
260.7650
30
0
11
215.0000
21
260.8950
31
0
0
LINE
8
VISIBLE
10
215.0000
20
260.8950
30
0
11
211.2400
21
260.7650
31
0
0
LINE
8
VISIBLE
10
211.2400
20
260.7650
30
0
11
207.4900
21
260.3950
31
0
0
LINE
8
VISIBLE
10
207.4900
20
260.3950
30
0
11
203.7800
21
259.7850
31
0
0
LINE
8
VISIBLE
10
203.7800
20
259.7850
30
0
11
200.1200
21
258.9350
31
0
0
LINE
8
VISIBLE
10
200.1200
20
258.9350
30
0
11
196.5200
21
257.8350
31
0
0
LINE
8
VISIBLE
10
196.5200
20
257.8350
30
0
11
193.0000
21
256.5150
31
0
0
LINE
8
VISIBLE
10
193.0000
20
256.5150
30
0
11
189.5700
21
254.9650
31
0
0
LINE
8
VISIBLE
10
189.5700
20
254.9650
30
0
11
186.2500
21
253.1850
31
0
0
LINE
8
VISIBLE
10
186.2500
20
253.1850
30
0
11
191.7500
21
243.6650
31
0
0
LINE
8
VISIBLE
10
191.7500
20
243.6650
30
0
11
194.4300
21
245.0950
31
0
0
LINE
8
VISIBLE
10
194.4300
20
245.0950
30
0
11
197.2100
21
246.3550
31
0
0
LINE
8
VISIBLE
10
197.2100
20
246.3550
30
0
11
200.0500
21
247.4250
31
0
0
LINE
8
VISIBLE
10
200.0500
20
247.4250
30
0
11
202.9600
21
248.3050
31
0
0
LINE
8
VISIBLE
10
202.9600
20
248.3050
30
0
11
205.9300
21
248.9950
31
0
0
LINE
8
VISIBLE
10
205.9300
20
248.9950
30
0
11
208.9300
21
249.4950
31
0
0
LINE
8
VISIBLE
10
208.9300
20
249.4950
30
0
11
211.9600
21
249.7950
31
0
0
LINE
8
VISIBLE
10
211.9600
20
249.7950
30
0
11
215.0000
21
249.8950
31
0
0
LINE
8
VISIBLE
10
215.0000
20
249.8950
30
0
11
218.0400
21
249.7950
31
0
0
LINE
8
VISIBLE
10
218.0400
20
249.7950
30
0
11
221.0700
21
249.4950
31
0
0
LINE
8
VISIBLE
10
221.0700
20
249.4950
30
0
11
224.0700
21
248.9950
31
0
0
LINE
8
VISIBLE
10
224.0700
20
248.9950
30
0
11
227.0400
21
248.3050
31
0
0
LINE
8
VISIBLE
10
227.0400
20
248.3050
30
0
11
229.9500
21
247.4250
31
0
0
LINE
8
VISIBLE
10
229.9500
20
247.4250
30
0
11
232.7900
21
246.3550
31
0
0
LINE
8
VISIBLE
10
232.7900
20
246.3550
30
0
11
235.5700
21
245.0950
31
0
0
LINE
8
VISIBLE
10
235.5700
20
245.0950
30
0
11
238.2500
21
243.6650
31
0
0
LINE
8
VISIBLE
10
238.2500
20
243.6650
30
0
11
243.7500
21
253.1850
31
0
0
TEXT
8
TEXTO
10
113.5000
20
76.6050
30
0
40
3.2000
1
BARRENOS: 3× · Ø 11 mm (corte láser)
0
LINE
8
FINA
10
113.5000
20
171.6050
30
0
11
316.5000
21
171.6050
31
0
0
LINE
8
PLIEGUE
10
113.5000
20
174.9950
30
0
11
316.5000
21
174.9950
31
0
0
LINE
8
FINA
10
113.5000
20
178.3950
30
0
11
316.5000
21
178.3950
31
0
0
TEXT
8
TEXTO
10
215.0000
20
178.9950
30
0
40
2.5000
1
PLEGAR 90°
72
1
73
2
11
215.0000
21
178.9950
31
0
0
LINE
8
COTAS
10
113.5000
20
81.6050
30
0
11
113.5000
21
72.1050
31
0
0
LINE
8
COTAS
10
316.5000
20
81.6050
30
0
11
316.5000
21
72.1050
31
0
0
LINE
8
COTAS
10
113.5000
20
73.6050
30
0
11
316.5000
21
73.6050
31
0
0
SOLID
8
COTAS
10
113.5000
20
73.6050
30
0
11
116.0000
21
74.0550
31
0
12
116.0000
22
73.1550
32
0
13
116.0000
23
73.1550
33
0
0
SOLID
8
COTAS
10
316.5000
20
73.6050
30
0
11
314.0000
21
74.0550
31
0
12
314.0000
22
73.1550
32
0
13
314.0000
23
73.1550
33
0
0
TEXT
8
COTAS
10
215.0000
20
75.8050
30
0
40
3.5000
1
203
72
1
73
2
11
215.0000
21
75.8050
31
0
0
LINE
8
COTAS
10
317.5000
20
82.6050
30
0
11
327.0000
21
82.6050
31
0
0
LINE
8
COTAS
10
317.5000
20
261.3950
30
0
11
327.0000
21
261.3950
31
0
0
LINE
8
COTAS
10
325.5000
20
82.6050
30
0
11
325.5000
21
261.3950
31
0
0
SOLID
8
COTAS
10
325.5000
20
82.6050
30
0
11
325.9500
21
85.1050
31
0
12
325.0500
22
85.1050
32
0
13
325.0500
23
85.1050
33
0
0
SOLID
8
COTAS
10
325.5000
20
261.3950
30
0
11
325.9500
21
258.8950
31
0
12
325.0500
22
258.8950
32
0
13
325.0500
23
258.8950
33
0
0
TEXT
8
COTAS
10
327.7000
20
172.0000
30
0
40
3.5000
1
178.8
72
1
73
2
11
327.7000
21
172.0000
31
0
0
TEXT
8
TEXTO
10
113.5000
20
271.8950
30
0
40
3.5000
1
DESARROLLO DE CHAPA — BA = ang·(R + K·t), fibra neutra por factor K
0
TEXT
8
TEXTO
10
113.5000
20
266.3950
30
0
40
4.0000
1
ESPESOR DE CHAPA e = 3 mm (constante en toda la pieza)
0
LINE
8
FINA
10
0.0000
20
0.0000
30
0
11
420.0000
21
0.0000
31
0
0
LINE
8
FINA
10
420.0000
20
0.0000
30
0
11
420.0000
21
297.0000
31
0
0
LINE
8
FINA
10
420.0000
20
297.0000
30
0
11
0.0000
21
297.0000
31
0
0
LINE
8
FINA
10
0.0000
20
297.0000
30
0
11
0.0000
21
0.0000
31
0
0
LINE
8
NORMA
10
20.0000
20
10.0000
30
0
11
410.0000
21
10.0000
31
0
0
LINE
8
NORMA
10
410.0000
20
10.0000
30
0
11
410.0000
21
287.0000
31
0
0
LINE
8
NORMA
10
410.0000
20
287.0000
30
0
11
20.0000
21
287.0000
31
0
0
LINE
8
NORMA
10
20.0000
20
287.0000
30
0
11
20.0000
21
10.0000
31
0
0
LINE
8
NORMA
10
0.0000
20
148.5000
30
0
11
25.0000
21
148.5000
31
0
0
LINE
8
NORMA
10
420.0000
20
148.5000
30
0
11
405.0000
21
148.5000
31
0
0
LINE
8
NORMA
10
210.0000
20
0.0000
30
0
11
210.0000
21
15.0000
31
0
0
LINE
8
NORMA
10
210.0000
20
297.0000
30
0
11
210.0000
21
282.0000
31
0
0
LINE
8
FINA
10
52.5000
20
0.0000
30
0
11
52.5000
21
10.0000
31
0
0
LINE
8
FINA
10
52.5000
20
287.0000
30
0
11
52.5000
21
297.0000
31
0
0
LINE
8
FINA
10
105.0000
20
0.0000
30
0
11
105.0000
21
10.0000
31
0
0
LINE
8
FINA
10
105.0000
20
287.0000
30
0
11
105.0000
21
297.0000
31
0
0
LINE
8
FINA
10
157.5000
20
0.0000
30
0
11
157.5000
21
10.0000
31
0
0
LINE
8
FINA
10
157.5000
20
287.0000
30
0
11
157.5000
21
297.0000
31
0
0
LINE
8
FINA
10
210.0000
20
0.0000
30
0
11
210.0000
21
10.0000
31
0
0
LINE
8
FINA
10
210.0000
20
287.0000
30
0
11
210.0000
21
297.0000
31
0
0
LINE
8
FINA
10
262.5000
20
0.0000
30
0
11
262.5000
21
10.0000
31
0
0
LINE
8
FINA
10
262.5000
20
287.0000
30
0
11
262.5000
21
297.0000
31
0
0
LINE
8
FINA
10
315.0000
20
0.0000
30
0
11
315.0000
21
10.0000
31
0
0
LINE
8
FINA
10
315.0000
20
287.0000
30
0
11
315.0000
21
297.0000
31
0
0
LINE
8
FINA
10
367.5000
20
0.0000
30
0
11
367.5000
21
10.0000
31
0
0
LINE
8
FINA
10
367.5000
20
287.0000
30
0
11
367.5000
21
297.0000
31
0
0
LINE
8
FINA
10
0.0000
20
49.5000
30
0
11
10.0000
21
49.5000
31
0
0
LINE
8
FINA
10
410.0000
20
49.5000
30
0
11
420.0000
21
49.5000
31
0
0
LINE
8
FINA
10
0.0000
20
99.0000
30
0
11
10.0000
21
99.0000
31
0
0
LINE
8
FINA
10
410.0000
20
99.0000
30
0
11
420.0000
21
99.0000
31
0
0
LINE
8
FINA
10
0.0000
20
148.5000
30
0
11
10.0000
21
148.5000
31
0
0
LINE
8
FINA
10
410.0000
20
148.5000
30
0
11
420.0000
21
148.5000
31
0
0
LINE
8
FINA
10
0.0000
20
198.0000
30
0
11
10.0000
21
198.0000
31
0
0
LINE
8
FINA
10
410.0000
20
198.0000
30
0
11
420.0000
21
198.0000
31
0
0
LINE
8
FINA
10
0.0000
20
247.5000
30
0
11
10.0000
21
247.5000
31
0
0
LINE
8
FINA
10
410.0000
20
247.5000
30
0
11
420.0000
21
247.5000
31
0
0
TEXT
8
TEXTO
10
26.2500
20
5.0000
30
0
40
2.5000
1
1
72
1
73
2
11
26.2500
21
5.0000
31
0
0
TEXT
8
TEXTO
10
26.2500
20
292.0000
30
0
40
2.5000
1
1
72
1
73
2
11
26.2500
21
292.0000
31
0
0
TEXT
8
TEXTO
10
78.7500
20
5.0000
30
0
40
2.5000
1
2
72
1
73
2
11
78.7500
21
5.0000
31
0
0
TEXT
8
TEXTO
10
78.7500
20
292.0000
30
0
40
2.5000
1
2
72
1
73
2
11
78.7500
21
292.0000
31
0
0
TEXT
8
TEXTO
10
131.2500
20
5.0000
30
0
40
2.5000
1
3
72
1
73
2
11
131.2500
21
5.0000
31
0
0
TEXT
8
TEXTO
10
131.2500
20
292.0000
30
0
40
2.5000
1
3
72
1
73
2
11
131.2500
21
292.0000
31
0
0
TEXT
8
TEXTO
10
183.7500
20
5.0000
30
0
40
2.5000
1
4
72
1
73
2
11
183.7500
21
5.0000
31
0
0
TEXT
8
TEXTO
10
183.7500
20
292.0000
30
0
40
2.5000
1
4
72
1
73
2
11
183.7500
21
292.0000
31
0
0
TEXT
8
TEXTO
10
236.2500
20
5.0000
30
0
40
2.5000
1
5
72
1
73
2
11
236.2500
21
5.0000
31
0
0
TEXT
8
TEXTO
10
236.2500
20
292.0000
30
0
40
2.5000
1
5
72
1
73
2
11
236.2500
21
292.0000
31
0
0
TEXT
8
TEXTO
10
288.7500
20
5.0000
30
0
40
2.5000
1
6
72
1
73
2
11
288.7500
21
5.0000
31
0
0
TEXT
8
TEXTO
10
288.7500
20
292.0000
30
0
40
2.5000
1
6
72
1
73
2
11
288.7500
21
292.0000
31
0
0
TEXT
8
TEXTO
10
341.2500
20
5.0000
30
0
40
2.5000
1
7
72
1
73
2
11
341.2500
21
5.0000
31
0
0
TEXT
8
TEXTO
10
341.2500
20
292.0000
30
0
40
2.5000
1
7
72
1
73
2
11
341.2500
21
292.0000
31
0
0
TEXT
8
TEXTO
10
393.7500
20
5.0000
30
0
40
2.5000
1
8
72
1
73
2
11
393.7500
21
5.0000
31
0
0
TEXT
8
TEXTO
10
393.7500
20
292.0000
30
0
40
2.5000
1
8
72
1
73
2
11
393.7500
21
292.0000
31
0
0
TEXT
8
TEXTO
10
5.0000
20
272.2500
30
0
40
2.5000
1
A
72
1
73
2
11
5.0000
21
272.2500
31
0
0
TEXT
8
TEXTO
10
415.0000
20
272.2500
30
0
40
2.5000
1
A
72
1
73
2
11
415.0000
21
272.2500
31
0
0
TEXT
8
TEXTO
10
5.0000
20
222.7500
30
0
40
2.5000
1
B
72
1
73
2
11
5.0000
21
222.7500
31
0
0
TEXT
8
TEXTO
10
415.0000
20
222.7500
30
0
40
2.5000
1
B
72
1
73
2
11
415.0000
21
222.7500
31
0
0
TEXT
8
TEXTO
10
5.0000
20
173.2500
30
0
40
2.5000
1
C
72
1
73
2
11
5.0000
21
173.2500
31
0
0
TEXT
8
TEXTO
10
415.0000
20
173.2500
30
0
40
2.5000
1
C
72
1
73
2
11
415.0000
21
173.2500
31
0
0
TEXT
8
TEXTO
10
5.0000
20
123.7500
30
0
40
2.5000
1
D
72
1
73
2
11
5.0000
21
123.7500
31
0
0
TEXT
8
TEXTO
10
415.0000
20
123.7500
30
0
40
2.5000
1
D
72
1
73
2
11
415.0000
21
123.7500
31
0
0
TEXT
8
TEXTO
10
5.0000
20
74.2500
30
0
40
2.5000
1
E
72
1
73
2
11
5.0000
21
74.2500
31
0
0
TEXT
8
TEXTO
10
415.0000
20
74.2500
30
0
40
2.5000
1
E
72
1
73
2
11
415.0000
21
74.2500
31
0
0
TEXT
8
TEXTO
10
5.0000
20
24.7500
30
0
40
2.5000
1
F
72
1
73
2
11
5.0000
21
24.7500
31
0
0
TEXT
8
TEXTO
10
415.0000
20
24.7500
30
0
40
2.5000
1
F
72
1
73
2
11
415.0000
21
24.7500
31
0
0
LINE
8
NORMA
10
230.0000
20
10.0000
30
0
11
410.0000
21
10.0000
31
0
0
LINE
8
NORMA
10
410.0000
20
10.0000
30
0
11
410.0000
21
52.0000
31
0
0
LINE
8
NORMA
10
410.0000
20
52.0000
30
0
11
230.0000
21
52.0000
31
0
0
LINE
8
NORMA
10
230.0000
20
52.0000
30
0
11
230.0000
21
10.0000
31
0
0
LINE
8
NORMA
10
270.0000
20
10.0000
30
0
11
270.0000
21
52.0000
31
0
0
LINE
8
NORMA
10
364.0000
20
10.0000
30
0
11
364.0000
21
52.0000
31
0
0
LINE
8
FINA
10
230.0000
20
29.0000
30
0
11
270.0000
21
29.0000
31
0
0
TEXT
8
TEXTO
10
250.0000
20
43.4000
30
0
40
4.9000
1
ConveyOne
72
1
73
2
11
250.0000
21
43.4000
31
0
0
LINE
8
FINA
10
236.5000
20
38.6000
30
0
11
263.5000
21
38.6000
31
0
0
TEXT
8
TEXTO
10
250.0000
20
35.8000
30
0
40
1.3000
1
CAD · DISEÑO CAPA USER
72
1
73
2
11
250.0000
21
35.8000
31
0
0
TEXT
8
TEXTO
10
250.0000
20
32.6000
30
0
40
1.3000
1
ISO 5457 · 7200 · 129 · 5456-2
72
1
73
2
11
250.0000
21
32.6000
31
0
0
TEXT
8
TEXTO
10
250.0000
20
26.6000
30
0
40
1.4000
1
PROYECCIÓN — PRIMER DIEDRO
72
1
73
2
11
250.0000
21
26.6000
31
0
0
CIRCLE
8
TEXTO
10
245.4000
20
17.5000
30
0
40
2.9900
0
CIRCLE
8
TEXTO
10
245.4000
20
17.5000
30
0
40
1.6100
0
LINE
8
TEXTO
10
250.4600
20
14.5100
30
0
11
257.5900
21
15.8900
31
0
0
LINE
8
TEXTO
10
257.5900
20
15.8900
30
0
11
257.5900
21
19.1100
31
0
0
LINE
8
TEXTO
10
257.5900
20
19.1100
30
0
11
250.4600
21
20.4900
31
0
0
LINE
8
TEXTO
10
250.4600
20
20.4900
30
0
11
250.4600
21
14.5100
31
0
0
LINE
8
FINA
10
241.0300
20
17.5000
30
0
11
258.9700
21
17.5000
31
0
0
LINE
8
FINA
10
270.0000
20
39.0000
30
0
11
364.0000
21
39.0000
31
0
0
LINE
8
FINA
10
270.0000
20
29.0000
30
0
11
364.0000
21
29.0000
31
0
0
LINE
8
FINA
10
270.0000
20
19.0000
30
0
11
364.0000
21
19.0000
31
0
0
LINE
8
FINA
10
317.0000
20
29.0000
30
0
11
317.0000
21
39.0000
31
0
0
LINE
8
FINA
10
326.0000
20
19.0000
30
0
11
326.0000
21
29.0000
31
0
0
TEXT
8
TEXTO
10
271.3000
20
49.6000
30
0
40
1.4000
1
DESIGNACIÓN
0
TEXT
8
TEXTO
10
271.6000
20
44.1000
30
0
40
2.2224
1
LBD-01 · Bracket soporte B_005A 24V (cruciformes + arco angular) (x6) — DESARROL…
72
0
73
2
11
271.6000
21
44.1000
31
0
0
TEXT
8
TEXTO
10
271.3000
20
36.6000
30
0
40
1.4000
1
PROYECTO
0
TEXT
8
TEXTO
10
271.6000
20
32.6000
30
0
40
2.1329
1
CV-LBP-5000 · Movex 530 LBP 18 in × 5.0 m
72
0
73
2
11
271.6000
21
32.6000
31
0
0
TEXT
8
TEXTO
10
318.3000
20
36.6000
30
0
40
1.4000
1
FUENTE
0
TEXT
8
TEXTO
10
318.6000
20
32.6000
30
0
40
2.4000
1
chapa plegada — capa user
72
0
73
2
11
318.6000
21
32.6000
31
0
0
TEXT
8
TEXTO
10
271.3000
20
26.6000
30
0
40
1.4000
1
VERIFICACIÓN DE ESCALA
0
TEXT
8
TEXTO
10
271.6000
20
22.6000
30
0
40
2.4000
1
CAD EN MM (CAPA USER)
72
0
73
2
11
271.6000
21
22.6000
31
0
0
TEXT
8
TEXTO
10
327.3000
20
26.6000
30
0
40
1.4000
1
PLIEGUES
0
TEXT
8
TEXTO
10
327.6000
20
22.6000
30
0
40
2.6000
1
1
72
0
73
2
11
327.6000
21
22.6000
31
0
0
TEXT
8
TEXTO
10
271.3000
20
16.6000
30
0
40
1.4000
1
NOTA
0
TEXT
8
TEXTO
10
271.6000
20
13.1000
30
0
40
2.2000
1
Acero S275JR e3 — PINTADO RAL 7035 · e3 · tol. gral. ISO 2768-mK · K=0.44
72
0
73
2
11
271.6000
21
13.1000
31
0
0
LINE
8
FINA
10
364.0000
20
39.0000
30
0
11
410.0000
21
39.0000
31
0
0
LINE
8
FINA
10
364.0000
20
29.0000
30
0
11
410.0000
21
29.0000
31
0
0
LINE
8
FINA
10
364.0000
20
19.0000
30
0
11
410.0000
21
19.0000
31
0
0
LINE
8
FINA
10
387.0000
20
29.0000
30
0
11
387.0000
21
39.0000
31
0
0
LINE
8
FINA
10
390.0000
20
19.0000
30
0
11
390.0000
21
29.0000
31
0
0
TEXT
8
TEXTO
10
365.3000
20
49.6000
30
0
40
1.4000
1
ESCALA
0
TEXT
8
TEXTO
10
387.0000
20
44.1000
30
0
40
5.0000
1
1:1
72
1
73
2
11
387.0000
21
44.1000
31
0
0
TEXT
8
TEXTO
10
365.3000
20
36.6000
30
0
40
1.4000
1
FORMATO
0
TEXT
8
TEXTO
10
375.5000
20
32.6000
30
0
40
3.0000
1
A3
72
1
73
2
11
375.5000
21
32.6000
31
0
0
TEXT
8
TEXTO
10
388.3000
20
36.6000
30
0
40
1.4000
1
LÁMINA
0
TEXT
8
TEXTO
10
398.5000
20
32.6000
30
0
40
3.0000
1
1 / 1
72
1
73
2
11
398.5000
21
32.6000
31
0
0
TEXT
8
TEXTO
10
365.3000
20
26.6000
30
0
40
1.4000
1
FECHA
0
TEXT
8
TEXTO
10
377.0000
20
22.6000
30
0
40
2.6000
1
2026-08-12
72
1
73
2
11
377.0000
21
22.6000
31
0
0
TEXT
8
TEXTO
10
391.3000
20
26.6000
30
0
40
1.4000
1
UNIDADES
0
TEXT
8
TEXTO
10
400.0000
20
22.6000
30
0
40
3.0000
1
mm
72
1
73
2
11
400.0000
21
22.6000
31
0
0
TEXT
8
TEXTO
10
365.3000
20
16.6000
30
0
40
1.4000
1
Nº DE PLANO
0
TEXT
8
TEXTO
10
387.0000
20
13.1000
30
0
40
2.6000
1
LBD-01
72
1
73
2
11
387.0000
21
13.1000
31
0
0
ENDSEC
0
EOF
