0
SECTION
2
HEADER
9
$ACADVER
1
AC1009
9
$DWGCODEPAGE
3
ANSI_1252
0
ENDSEC
0
SECTION
2
TABLES
0
TABLE
2
LTYPE
70
3
0
LTYPE
2
CONTINUOUS
70
0
3
Solid line
72
65
73
0
40
0
0
LTYPE
2
DASHED
70
0
3
Segmentada __ __ __
72
65
73
2
40
6
49
4
49
-2
0
LTYPE
2
CENTER
70
0
3
Centro ____ _ ____
72
65
73
4
40
11
49
7
49
-1.2
49
1.2
49
-1.2
0
ENDTAB
0
TABLE
2
LAYER
70
9
0
LAYER
2
SOMBRA
70
0
62
8
6
CONTINUOUS
0
LAYER
2
NORMA
70
0
62
7
6
CONTINUOUS
0
LAYER
2
FINA
70
0
62
7
6
CONTINUOUS
0
LAYER
2
VISIBLE
70
0
62
7
6
CONTINUOUS
0
LAYER
2
COTAS
70
0
62
7
6
CONTINUOUS
0
LAYER
2
TEXTO
70
0
62
7
6
CONTINUOUS
0
LAYER
2
PLIEGUE
70
0
62
1
6
DASHED
0
LAYER
2
OCULTA
70
0
62
7
6
DASHED
0
LAYER
2
EJE
70
0
62
4
6
CENTER
0
ENDTAB
0
ENDSEC
0
SECTION
2
ENTITIES
0
LINE
8
VISIBLE
10
136.5000
20
255.2150
30
0
11
136.7400
21
253.0550
31
0
0
LINE
8
VISIBLE
10
136.7400
20
253.0550
30
0
11
137.4600
21
251.3750
31
0
0
LINE
8
VISIBLE
10
137.4600
20
251.3750
30
0
11
138.6600
21
250.1750
31
0
0
LINE
8
VISIBLE
10
138.6600
20
250.1750
30
0
11
140.3400
21
249.4550
31
0
0
LINE
8
VISIBLE
10
140.3400
20
249.4550
30
0
11
142.5000
21
249.2150
31
0
0
LINE
8
VISIBLE
10
142.5000
20
249.2150
30
0
11
708.5000
21
249.2150
31
0
0
LINE
8
VISIBLE
10
708.5000
20
249.2150
30
0
11
710.6600
21
249.4550
31
0
0
LINE
8
VISIBLE
10
710.6600
20
249.4550
30
0
11
712.3400
21
250.1750
31
0
0
LINE
8
VISIBLE
10
712.3400
20
250.1750
30
0
11
713.5400
21
251.3750
31
0
0
LINE
8
VISIBLE
10
713.5400
20
251.3750
30
0
11
714.2600
21
253.0550
31
0
0
LINE
8
VISIBLE
10
714.2600
20
253.0550
30
0
11
714.5000
21
255.2150
31
0
0
LINE
8
VISIBLE
10
714.5000
20
255.2150
30
0
11
714.5000
21
385.7850
31
0
0
LINE
8
VISIBLE
10
714.5000
20
385.7850
30
0
11
714.2600
21
387.9450
31
0
0
LINE
8
VISIBLE
10
714.2600
20
387.9450
30
0
11
713.5400
21
389.6250
31
0
0
LINE
8
VISIBLE
10
713.5400
20
389.6250
30
0
11
712.3400
21
390.8250
31
0
0
LINE
8
VISIBLE
10
712.3400
20
390.8250
30
0
11
710.6600
21
391.5450
31
0
0
LINE
8
VISIBLE
10
710.6600
20
391.5450
30
0
11
708.5000
21
391.7850
31
0
0
LINE
8
VISIBLE
10
708.5000
20
391.7850
30
0
11
142.5000
21
391.7850
31
0
0
LINE
8
VISIBLE
10
142.5000
20
391.7850
30
0
11
140.3400
21
391.5450
31
0
0
LINE
8
VISIBLE
10
140.3400
20
391.5450
30
0
11
138.6600
21
390.8250
31
0
0
LINE
8
VISIBLE
10
138.6600
20
390.8250
30
0
11
137.4600
21
389.6250
31
0
0
LINE
8
VISIBLE
10
137.4600
20
389.6250
30
0
11
136.7400
21
387.9450
31
0
0
LINE
8
VISIBLE
10
136.7400
20
387.9450
30
0
11
136.5000
21
385.7850
31
0
0
LINE
8
VISIBLE
10
136.5000
20
385.7850
30
0
11
136.5000
21
255.2150
31
0
0
CIRCLE
8
VISIBLE
10
649.8000
20
320.5050
30
0
40
5.5000
0
CIRCLE
8
VISIBLE
10
701.9000
20
320.5050
30
0
40
5.5000
0
CIRCLE
8
VISIBLE
10
285.5000
20
320.5050
30
0
40
5.5000
0
CIRCLE
8
VISIBLE
10
315.5000
20
320.5050
30
0
40
5.5000
0
CIRCLE
8
VISIBLE
10
340.5000
20
320.5050
30
0
40
5.5000
0
LINE
8
VISIBLE
10
158.5000
20
315.0050
30
0
11
268.5000
21
315.0050
31
0
0
LINE
8
VISIBLE
10
268.5000
20
315.0050
30
0
11
268.5000
21
326.0050
31
0
0
LINE
8
VISIBLE
10
268.5000
20
326.0050
30
0
11
158.5000
21
326.0050
31
0
0
LINE
8
VISIBLE
10
158.5000
20
326.0050
30
0
11
158.5000
21
315.0050
31
0
0
LINE
8
VISIBLE
10
452.9000
20
314.7050
30
0
11
456.5000
21
314.7050
31
0
0
LINE
8
VISIBLE
10
456.5000
20
314.7050
30
0
11
456.5000
21
326.3050
31
0
0
LINE
8
VISIBLE
10
456.5000
20
326.3050
30
0
11
452.9000
21
326.3050
31
0
0
LINE
8
VISIBLE
10
452.9000
20
326.3050
30
0
11
452.9000
21
314.7050
31
0
0
TEXT
8
TEXTO
10
136.5000
20
236.2150
30
0
40
3.2000
1
BARRENOS (corte láser): 
0
TEXT
8
TEXTO
10
173.9272
20
236.2150
30
0
40
3.2000
1
5× Ø11
0
TEXT
8
TEXTO
10
136.5000
20
231.7150
30
0
40
2.8000
1
POSICIONES: DXF de corte a escala REAL 1:1 + _agujeros.csv (X·Y·Ø de cada barreno) — contornos interiores ídem
0
LINE
8
FINA
10
136.5000
20
281.2150
30
0
11
714.5000
21
281.2150
31
0
0
LINE
8
PLIEGUE
10
136.5000
20
284.6050
30
0
11
714.5000
21
284.6050
31
0
0
LINE
8
FINA
10
136.5000
20
288.0050
30
0
11
714.5000
21
288.0050
31
0
0
LINE
8
FINA
10
136.5000
20
353.0050
30
0
11
714.5000
21
353.0050
31
0
0
LINE
8
PLIEGUE
10
136.5000
20
356.3950
30
0
11
714.5000
21
356.3950
31
0
0
LINE
8
FINA
10
136.5000
20
359.7850
30
0
11
714.5000
21
359.7850
31
0
0
TEXT
8
TEXTO
10
425.5000
20
290.6050
30
0
40
2.8000
1
PLEGAR ARRIBA 90° R3 (×2)
72
1
73
2
11
425.5000
21
290.6050
31
0
0
LINE
8
COTAS
10
136.5000
20
248.2150
30
0
11
136.5000
21
238.7150
31
0
0
LINE
8
COTAS
10
714.5000
20
248.2150
30
0
11
714.5000
21
238.7150
31
0
0
LINE
8
COTAS
10
136.5000
20
240.2150
30
0
11
714.5000
21
240.2150
31
0
0
SOLID
8
COTAS
10
136.5000
20
240.2150
30
0
11
139.0000
21
240.6650
31
0
12
139.0000
22
239.7650
32
0
13
139.0000
23
239.7650
33
0
0
SOLID
8
COTAS
10
714.5000
20
240.2150
30
0
11
712.0000
21
240.6650
31
0
12
712.0000
22
239.7650
32
0
13
712.0000
23
239.7650
33
0
0
TEXT
8
COTAS
10
425.5000
20
242.4150
30
0
40
3.5000
1
578
72
1
73
2
11
425.5000
21
242.4150
31
0
0
LINE
8
COTAS
10
715.5000
20
249.2150
30
0
11
725.0000
21
249.2150
31
0
0
LINE
8
COTAS
10
715.5000
20
391.7850
30
0
11
725.0000
21
391.7850
31
0
0
LINE
8
COTAS
10
723.5000
20
249.2150
30
0
11
723.5000
21
391.7850
31
0
0
SOLID
8
COTAS
10
723.5000
20
249.2150
30
0
11
723.9500
21
251.7150
31
0
12
723.0500
22
251.7150
32
0
13
723.0500
23
251.7150
33
0
0
SOLID
8
COTAS
10
723.5000
20
391.7850
30
0
11
723.9500
21
389.2850
31
0
12
723.0500
22
389.2850
32
0
13
723.0500
23
389.2850
33
0
0
TEXT
8
COTAS
10
725.7000
20
320.5000
30
0
40
3.5000
1
142.6
72
1
73
2
11
725.7000
21
320.5000
31
0
0
LINE
8
COTAS
10
135.5000
20
249.2150
30
0
11
128.0000
21
249.2150
31
0
0
LINE
8
COTAS
10
135.5000
20
284.6050
30
0
11
128.0000
21
284.6050
31
0
0
LINE
8
COTAS
10
129.5000
20
249.2150
30
0
11
129.5000
21
284.6050
31
0
0
SOLID
8
COTAS
10
129.5000
20
249.2150
30
0
11
129.9500
21
251.7150
31
0
12
129.0500
22
251.7150
32
0
13
129.0500
23
251.7150
33
0
0
SOLID
8
COTAS
10
129.5000
20
284.6050
30
0
11
129.9500
21
282.1050
31
0
12
129.0500
22
282.1050
32
0
13
129.0500
23
282.1050
33
0
0
TEXT
8
COTAS
10
131.7000
20
266.9100
30
0
40
3.5000
1
35.4
72
1
73
2
11
131.7000
21
266.9100
31
0
0
LINE
8
COTAS
10
135.5000
20
249.2150
30
0
11
121.0000
21
249.2150
31
0
0
LINE
8
COTAS
10
135.5000
20
356.3950
30
0
11
121.0000
21
356.3950
31
0
0
LINE
8
COTAS
10
122.5000
20
249.2150
30
0
11
122.5000
21
356.3950
31
0
0
SOLID
8
COTAS
10
122.5000
20
249.2150
30
0
11
122.9500
21
251.7150
31
0
12
122.0500
22
251.7150
32
0
13
122.0500
23
251.7150
33
0
0
SOLID
8
COTAS
10
122.5000
20
356.3950
30
0
11
122.9500
21
353.8950
31
0
12
122.0500
22
353.8950
32
0
13
122.0500
23
353.8950
33
0
0
TEXT
8
COTAS
10
124.7000
20
302.8050
30
0
40
3.5000
1
107.2
72
1
73
2
11
124.7000
21
302.8050
31
0
0
TEXT
8
TEXTO
10
136.5000
20
402.2850
30
0
40
3.5000
1
DESARROLLO DE CHAPA — BA = ang·(R + K·t) · K=0.44 · R=3 · t=3 ? BA(90°)=6.79 mm
0
TEXT
8
TEXTO
10
136.5000
20
396.7850
30
0
40
4.0000
1
ESPESOR DE CHAPA e = 3 mm (constante en toda la pieza)
0
LINE
8
FINA
10
0.0000
20
0.0000
30
0
11
841.0000
21
0.0000
31
0
0
LINE
8
FINA
10
841.0000
20
0.0000
30
0
11
841.0000
21
594.0000
31
0
0
LINE
8
FINA
10
841.0000
20
594.0000
30
0
11
0.0000
21
594.0000
31
0
0
LINE
8
FINA
10
0.0000
20
594.0000
30
0
11
0.0000
21
0.0000
31
0
0
LINE
8
NORMA
10
20.0000
20
10.0000
30
0
11
831.0000
21
10.0000
31
0
0
LINE
8
NORMA
10
831.0000
20
10.0000
30
0
11
831.0000
21
584.0000
31
0
0
LINE
8
NORMA
10
831.0000
20
584.0000
30
0
11
20.0000
21
584.0000
31
0
0
LINE
8
NORMA
10
20.0000
20
584.0000
30
0
11
20.0000
21
10.0000
31
0
0
LINE
8
NORMA
10
0.0000
20
297.0000
30
0
11
25.0000
21
297.0000
31
0
0
LINE
8
NORMA
10
841.0000
20
297.0000
30
0
11
826.0000
21
297.0000
31
0
0
LINE
8
NORMA
10
420.5000
20
0.0000
30
0
11
420.5000
21
15.0000
31
0
0
LINE
8
NORMA
10
420.5000
20
594.0000
30
0
11
420.5000
21
579.0000
31
0
0
LINE
8
FINA
10
52.5625
20
0.0000
30
0
11
52.5625
21
10.0000
31
0
0
LINE
8
FINA
10
52.5625
20
584.0000
30
0
11
52.5625
21
594.0000
31
0
0
LINE
8
FINA
10
105.1250
20
0.0000
30
0
11
105.1250
21
10.0000
31
0
0
LINE
8
FINA
10
105.1250
20
584.0000
30
0
11
105.1250
21
594.0000
31
0
0
LINE
8
FINA
10
157.6875
20
0.0000
30
0
11
157.6875
21
10.0000
31
0
0
LINE
8
FINA
10
157.6875
20
584.0000
30
0
11
157.6875
21
594.0000
31
0
0
LINE
8
FINA
10
210.2500
20
0.0000
30
0
11
210.2500
21
10.0000
31
0
0
LINE
8
FINA
10
210.2500
20
584.0000
30
0
11
210.2500
21
594.0000
31
0
0
LINE
8
FINA
10
262.8125
20
0.0000
30
0
11
262.8125
21
10.0000
31
0
0
LINE
8
FINA
10
262.8125
20
584.0000
30
0
11
262.8125
21
594.0000
31
0
0
LINE
8
FINA
10
315.3750
20
0.0000
30
0
11
315.3750
21
10.0000
31
0
0
LINE
8
FINA
10
315.3750
20
584.0000
30
0
11
315.3750
21
594.0000
31
0
0
LINE
8
FINA
10
367.9375
20
0.0000
30
0
11
367.9375
21
10.0000
31
0
0
LINE
8
FINA
10
367.9375
20
584.0000
30
0
11
367.9375
21
594.0000
31
0
0
LINE
8
FINA
10
420.5000
20
0.0000
30
0
11
420.5000
21
10.0000
31
0
0
LINE
8
FINA
10
420.5000
20
584.0000
30
0
11
420.5000
21
594.0000
31
0
0
LINE
8
FINA
10
473.0625
20
0.0000
30
0
11
473.0625
21
10.0000
31
0
0
LINE
8
FINA
10
473.0625
20
584.0000
30
0
11
473.0625
21
594.0000
31
0
0
LINE
8
FINA
10
525.6250
20
0.0000
30
0
11
525.6250
21
10.0000
31
0
0
LINE
8
FINA
10
525.6250
20
584.0000
30
0
11
525.6250
21
594.0000
31
0
0
LINE
8
FINA
10
578.1875
20
0.0000
30
0
11
578.1875
21
10.0000
31
0
0
LINE
8
FINA
10
578.1875
20
584.0000
30
0
11
578.1875
21
594.0000
31
0
0
LINE
8
FINA
10
630.7500
20
0.0000
30
0
11
630.7500
21
10.0000
31
0
0
LINE
8
FINA
10
630.7500
20
584.0000
30
0
11
630.7500
21
594.0000
31
0
0
LINE
8
FINA
10
683.3125
20
0.0000
30
0
11
683.3125
21
10.0000
31
0
0
LINE
8
FINA
10
683.3125
20
584.0000
30
0
11
683.3125
21
594.0000
31
0
0
LINE
8
FINA
10
735.8750
20
0.0000
30
0
11
735.8750
21
10.0000
31
0
0
LINE
8
FINA
10
735.8750
20
584.0000
30
0
11
735.8750
21
594.0000
31
0
0
LINE
8
FINA
10
788.4375
20
0.0000
30
0
11
788.4375
21
10.0000
31
0
0
LINE
8
FINA
10
788.4375
20
584.0000
30
0
11
788.4375
21
594.0000
31
0
0
LINE
8
FINA
10
0.0000
20
49.5000
30
0
11
10.0000
21
49.5000
31
0
0
LINE
8
FINA
10
831.0000
20
49.5000
30
0
11
841.0000
21
49.5000
31
0
0
LINE
8
FINA
10
0.0000
20
99.0000
30
0
11
10.0000
21
99.0000
31
0
0
LINE
8
FINA
10
831.0000
20
99.0000
30
0
11
841.0000
21
99.0000
31
0
0
LINE
8
FINA
10
0.0000
20
148.5000
30
0
11
10.0000
21
148.5000
31
0
0
LINE
8
FINA
10
831.0000
20
148.5000
30
0
11
841.0000
21
148.5000
31
0
0
LINE
8
FINA
10
0.0000
20
198.0000
30
0
11
10.0000
21
198.0000
31
0
0
LINE
8
FINA
10
831.0000
20
198.0000
30
0
11
841.0000
21
198.0000
31
0
0
LINE
8
FINA
10
0.0000
20
247.5000
30
0
11
10.0000
21
247.5000
31
0
0
LINE
8
FINA
10
831.0000
20
247.5000
30
0
11
841.0000
21
247.5000
31
0
0
LINE
8
FINA
10
0.0000
20
297.0000
30
0
11
10.0000
21
297.0000
31
0
0
LINE
8
FINA
10
831.0000
20
297.0000
30
0
11
841.0000
21
297.0000
31
0
0
LINE
8
FINA
10
0.0000
20
346.5000
30
0
11
10.0000
21
346.5000
31
0
0
LINE
8
FINA
10
831.0000
20
346.5000
30
0
11
841.0000
21
346.5000
31
0
0
LINE
8
FINA
10
0.0000
20
396.0000
30
0
11
10.0000
21
396.0000
31
0
0
LINE
8
FINA
10
831.0000
20
396.0000
30
0
11
841.0000
21
396.0000
31
0
0
LINE
8
FINA
10
0.0000
20
445.5000
30
0
11
10.0000
21
445.5000
31
0
0
LINE
8
FINA
10
831.0000
20
445.5000
30
0
11
841.0000
21
445.5000
31
0
0
LINE
8
FINA
10
0.0000
20
495.0000
30
0
11
10.0000
21
495.0000
31
0
0
LINE
8
FINA
10
831.0000
20
495.0000
30
0
11
841.0000
21
495.0000
31
0
0
LINE
8
FINA
10
0.0000
20
544.5000
30
0
11
10.0000
21
544.5000
31
0
0
LINE
8
FINA
10
831.0000
20
544.5000
30
0
11
841.0000
21
544.5000
31
0
0
TEXT
8
TEXTO
10
26.2813
20
5.0000
30
0
40
2.5000
1
1
72
1
73
2
11
26.2813
21
5.0000
31
0
0
TEXT
8
TEXTO
10
26.2813
20
589.0000
30
0
40
2.5000
1
1
72
1
73
2
11
26.2813
21
589.0000
31
0
0
TEXT
8
TEXTO
10
78.8438
20
5.0000
30
0
40
2.5000
1
2
72
1
73
2
11
78.8438
21
5.0000
31
0
0
TEXT
8
TEXTO
10
78.8438
20
589.0000
30
0
40
2.5000
1
2
72
1
73
2
11
78.8438
21
589.0000
31
0
0
TEXT
8
TEXTO
10
131.4063
20
5.0000
30
0
40
2.5000
1
3
72
1
73
2
11
131.4063
21
5.0000
31
0
0
TEXT
8
TEXTO
10
131.4063
20
589.0000
30
0
40
2.5000
1
3
72
1
73
2
11
131.4063
21
589.0000
31
0
0
TEXT
8
TEXTO
10
183.9688
20
5.0000
30
0
40
2.5000
1
4
72
1
73
2
11
183.9688
21
5.0000
31
0
0
TEXT
8
TEXTO
10
183.9688
20
589.0000
30
0
40
2.5000
1
4
72
1
73
2
11
183.9688
21
589.0000
31
0
0
TEXT
8
TEXTO
10
236.5313
20
5.0000
30
0
40
2.5000
1
5
72
1
73
2
11
236.5313
21
5.0000
31
0
0
TEXT
8
TEXTO
10
236.5313
20
589.0000
30
0
40
2.5000
1
5
72
1
73
2
11
236.5313
21
589.0000
31
0
0
TEXT
8
TEXTO
10
289.0938
20
5.0000
30
0
40
2.5000
1
6
72
1
73
2
11
289.0938
21
5.0000
31
0
0
TEXT
8
TEXTO
10
289.0938
20
589.0000
30
0
40
2.5000
1
6
72
1
73
2
11
289.0938
21
589.0000
31
0
0
TEXT
8
TEXTO
10
341.6563
20
5.0000
30
0
40
2.5000
1
7
72
1
73
2
11
341.6563
21
5.0000
31
0
0
TEXT
8
TEXTO
10
341.6563
20
589.0000
30
0
40
2.5000
1
7
72
1
73
2
11
341.6563
21
589.0000
31
0
0
TEXT
8
TEXTO
10
394.2188
20
5.0000
30
0
40
2.5000
1
8
72
1
73
2
11
394.2188
21
5.0000
31
0
0
TEXT
8
TEXTO
10
394.2188
20
589.0000
30
0
40
2.5000
1
8
72
1
73
2
11
394.2188
21
589.0000
31
0
0
TEXT
8
TEXTO
10
446.7813
20
5.0000
30
0
40
2.5000
1
9
72
1
73
2
11
446.7813
21
5.0000
31
0
0
TEXT
8
TEXTO
10
446.7813
20
589.0000
30
0
40
2.5000
1
9
72
1
73
2
11
446.7813
21
589.0000
31
0
0
TEXT
8
TEXTO
10
499.3438
20
5.0000
30
0
40
2.5000
1
10
72
1
73
2
11
499.3438
21
5.0000
31
0
0
TEXT
8
TEXTO
10
499.3438
20
589.0000
30
0
40
2.5000
1
10
72
1
73
2
11
499.3438
21
589.0000
31
0
0
TEXT
8
TEXTO
10
551.9063
20
5.0000
30
0
40
2.5000
1
11
72
1
73
2
11
551.9063
21
5.0000
31
0
0
TEXT
8
TEXTO
10
551.9063
20
589.0000
30
0
40
2.5000
1
11
72
1
73
2
11
551.9063
21
589.0000
31
0
0
TEXT
8
TEXTO
10
604.4688
20
5.0000
30
0
40
2.5000
1
12
72
1
73
2
11
604.4688
21
5.0000
31
0
0
TEXT
8
TEXTO
10
604.4688
20
589.0000
30
0
40
2.5000
1
12
72
1
73
2
11
604.4688
21
589.0000
31
0
0
TEXT
8
TEXTO
10
657.0313
20
5.0000
30
0
40
2.5000
1
13
72
1
73
2
11
657.0313
21
5.0000
31
0
0
TEXT
8
TEXTO
10
657.0313
20
589.0000
30
0
40
2.5000
1
13
72
1
73
2
11
657.0313
21
589.0000
31
0
0
TEXT
8
TEXTO
10
709.5938
20
5.0000
30
0
40
2.5000
1
14
72
1
73
2
11
709.5938
21
5.0000
31
0
0
TEXT
8
TEXTO
10
709.5938
20
589.0000
30
0
40
2.5000
1
14
72
1
73
2
11
709.5938
21
589.0000
31
0
0
TEXT
8
TEXTO
10
762.1563
20
5.0000
30
0
40
2.5000
1
15
72
1
73
2
11
762.1563
21
5.0000
31
0
0
TEXT
8
TEXTO
10
762.1563
20
589.0000
30
0
40
2.5000
1
15
72
1
73
2
11
762.1563
21
589.0000
31
0
0
TEXT
8
TEXTO
10
814.7188
20
5.0000
30
0
40
2.5000
1
16
72
1
73
2
11
814.7188
21
5.0000
31
0
0
TEXT
8
TEXTO
10
814.7188
20
589.0000
30
0
40
2.5000
1
16
72
1
73
2
11
814.7188
21
589.0000
31
0
0
TEXT
8
TEXTO
10
5.0000
20
569.2500
30
0
40
2.5000
1
A
72
1
73
2
11
5.0000
21
569.2500
31
0
0
TEXT
8
TEXTO
10
836.0000
20
569.2500
30
0
40
2.5000
1
A
72
1
73
2
11
836.0000
21
569.2500
31
0
0
TEXT
8
TEXTO
10
5.0000
20
519.7500
30
0
40
2.5000
1
B
72
1
73
2
11
5.0000
21
519.7500
31
0
0
TEXT
8
TEXTO
10
836.0000
20
519.7500
30
0
40
2.5000
1
B
72
1
73
2
11
836.0000
21
519.7500
31
0
0
TEXT
8
TEXTO
10
5.0000
20
470.2500
30
0
40
2.5000
1
C
72
1
73
2
11
5.0000
21
470.2500
31
0
0
TEXT
8
TEXTO
10
836.0000
20
470.2500
30
0
40
2.5000
1
C
72
1
73
2
11
836.0000
21
470.2500
31
0
0
TEXT
8
TEXTO
10
5.0000
20
420.7500
30
0
40
2.5000
1
D
72
1
73
2
11
5.0000
21
420.7500
31
0
0
TEXT
8
TEXTO
10
836.0000
20
420.7500
30
0
40
2.5000
1
D
72
1
73
2
11
836.0000
21
420.7500
31
0
0
TEXT
8
TEXTO
10
5.0000
20
371.2500
30
0
40
2.5000
1
E
72
1
73
2
11
5.0000
21
371.2500
31
0
0
TEXT
8
TEXTO
10
836.0000
20
371.2500
30
0
40
2.5000
1
E
72
1
73
2
11
836.0000
21
371.2500
31
0
0
TEXT
8
TEXTO
10
5.0000
20
321.7500
30
0
40
2.5000
1
F
72
1
73
2
11
5.0000
21
321.7500
31
0
0
TEXT
8
TEXTO
10
836.0000
20
321.7500
30
0
40
2.5000
1
F
72
1
73
2
11
836.0000
21
321.7500
31
0
0
TEXT
8
TEXTO
10
5.0000
20
272.2500
30
0
40
2.5000
1
G
72
1
73
2
11
5.0000
21
272.2500
31
0
0
TEXT
8
TEXTO
10
836.0000
20
272.2500
30
0
40
2.5000
1
G
72
1
73
2
11
836.0000
21
272.2500
31
0
0
TEXT
8
TEXTO
10
5.0000
20
222.7500
30
0
40
2.5000
1
H
72
1
73
2
11
5.0000
21
222.7500
31
0
0
TEXT
8
TEXTO
10
836.0000
20
222.7500
30
0
40
2.5000
1
H
72
1
73
2
11
836.0000
21
222.7500
31
0
0
TEXT
8
TEXTO
10
5.0000
20
173.2500
30
0
40
2.5000
1
J
72
1
73
2
11
5.0000
21
173.2500
31
0
0
TEXT
8
TEXTO
10
836.0000
20
173.2500
30
0
40
2.5000
1
J
72
1
73
2
11
836.0000
21
173.2500
31
0
0
TEXT
8
TEXTO
10
5.0000
20
123.7500
30
0
40
2.5000
1
K
72
1
73
2
11
5.0000
21
123.7500
31
0
0
TEXT
8
TEXTO
10
836.0000
20
123.7500
30
0
40
2.5000
1
K
72
1
73
2
11
836.0000
21
123.7500
31
0
0
TEXT
8
TEXTO
10
5.0000
20
74.2500
30
0
40
2.5000
1
L
72
1
73
2
11
5.0000
21
74.2500
31
0
0
TEXT
8
TEXTO
10
836.0000
20
74.2500
30
0
40
2.5000
1
L
72
1
73
2
11
836.0000
21
74.2500
31
0
0
TEXT
8
TEXTO
10
5.0000
20
24.7500
30
0
40
2.5000
1
M
72
1
73
2
11
5.0000
21
24.7500
31
0
0
TEXT
8
TEXTO
10
836.0000
20
24.7500
30
0
40
2.5000
1
M
72
1
73
2
11
836.0000
21
24.7500
31
0
0
LINE
8
NORMA
10
651.0000
20
10.0000
30
0
11
831.0000
21
10.0000
31
0
0
LINE
8
NORMA
10
831.0000
20
10.0000
30
0
11
831.0000
21
52.0000
31
0
0
LINE
8
NORMA
10
831.0000
20
52.0000
30
0
11
651.0000
21
52.0000
31
0
0
LINE
8
NORMA
10
651.0000
20
52.0000
30
0
11
651.0000
21
10.0000
31
0
0
LINE
8
NORMA
10
691.0000
20
10.0000
30
0
11
691.0000
21
52.0000
31
0
0
LINE
8
NORMA
10
785.0000
20
10.0000
30
0
11
785.0000
21
52.0000
31
0
0
LINE
8
FINA
10
651.0000
20
29.0000
30
0
11
691.0000
21
29.0000
31
0
0
TEXT
8
TEXTO
10
671.0000
20
43.4000
30
0
40
4.9000
1
ConveyOne
72
1
73
2
11
671.0000
21
43.4000
31
0
0
LINE
8
FINA
10
657.5000
20
38.6000
30
0
11
684.5000
21
38.6000
31
0
0
TEXT
8
TEXTO
10
671.0000
20
35.8000
30
0
40
1.3000
1
CAD · DISEÑO CAPA USER
72
1
73
2
11
671.0000
21
35.8000
31
0
0
TEXT
8
TEXTO
10
671.0000
20
32.6000
30
0
40
1.3000
1
ISO 5457 · 7200 · 129 · 5456-2
72
1
73
2
11
671.0000
21
32.6000
31
0
0
TEXT
8
TEXTO
10
671.0000
20
26.6000
30
0
40
1.4000
1
PROYECCIÓN — PRIMER DIEDRO
72
1
73
2
11
671.0000
21
26.6000
31
0
0
CIRCLE
8
TEXTO
10
666.4000
20
17.5000
30
0
40
2.9900
0
CIRCLE
8
TEXTO
10
666.4000
20
17.5000
30
0
40
1.6100
0
LINE
8
TEXTO
10
671.4600
20
14.5100
30
0
11
678.5900
21
15.8900
31
0
0
LINE
8
TEXTO
10
678.5900
20
15.8900
30
0
11
678.5900
21
19.1100
31
0
0
LINE
8
TEXTO
10
678.5900
20
19.1100
30
0
11
671.4600
21
20.4900
31
0
0
LINE
8
TEXTO
10
671.4600
20
20.4900
30
0
11
671.4600
21
14.5100
31
0
0
LINE
8
FINA
10
662.0300
20
17.5000
30
0
11
679.9700
21
17.5000
31
0
0
LINE
8
FINA
10
691.0000
20
39.0000
30
0
11
785.0000
21
39.0000
31
0
0
LINE
8
FINA
10
691.0000
20
29.0000
30
0
11
785.0000
21
29.0000
31
0
0
LINE
8
FINA
10
691.0000
20
19.0000
30
0
11
785.0000
21
19.0000
31
0
0
LINE
8
FINA
10
738.0000
20
29.0000
30
0
11
738.0000
21
39.0000
31
0
0
LINE
8
FINA
10
747.0000
20
19.0000
30
0
11
747.0000
21
29.0000
31
0
0
TEXT
8
TEXTO
10
692.3000
20
49.6000
30
0
40
1.4000
1
DESIGNACIÓN
0
TEXT
8
TEXTO
10
692.6000
20
44.1000
30
0
40
2.0000
1
LBD-03 · Columna soporte 24V canal C 77×38×3 (pivote+arco / apriete 3×M10) (x6) — DESARROL…
72
0
73
2
11
692.6000
21
44.1000
31
0
0
TEXT
8
TEXTO
10
692.3000
20
36.6000
30
0
40
1.4000
1
PROYECTO
0
TEXT
8
TEXTO
10
692.6000
20
32.6000
30
0
40
2.1329
1
CV-LBP-5000 · Movex 530 LBP 18 in × 5.0 m
72
0
73
2
11
692.6000
21
32.6000
31
0
0
TEXT
8
TEXTO
10
739.3000
20
36.6000
30
0
40
1.4000
1
FUENTE
0
TEXT
8
TEXTO
10
739.6000
20
32.6000
30
0
40
2.4000
1
chapa plegada — capa user
72
0
73
2
11
739.6000
21
32.6000
31
0
0
TEXT
8
TEXTO
10
692.3000
20
26.6000
30
0
40
1.4000
1
VERIFICACIÓN DE ESCALA
0
TEXT
8
TEXTO
10
692.6000
20
22.6000
30
0
40
2.4000
1
CAD EN MM (CAPA USER)
72
0
73
2
11
692.6000
21
22.6000
31
0
0
TEXT
8
TEXTO
10
748.3000
20
26.6000
30
0
40
1.4000
1
PLIEGUES
0
TEXT
8
TEXTO
10
748.6000
20
22.6000
30
0
40
2.6000
1
2
72
0
73
2
11
748.6000
21
22.6000
31
0
0
TEXT
8
TEXTO
10
692.3000
20
16.6000
30
0
40
1.4000
1
NOTA
0
TEXT
8
TEXTO
10
692.6000
20
13.1000
30
0
40
2.2000
1
Acero S275JR e3 — PINTADO RAL 7035 · e3 · tol. gral. ISO 2768-mK · K=0.44
72
0
73
2
11
692.6000
21
13.1000
31
0
0
LINE
8
FINA
10
785.0000
20
39.0000
30
0
11
831.0000
21
39.0000
31
0
0
LINE
8
FINA
10
785.0000
20
29.0000
30
0
11
831.0000
21
29.0000
31
0
0
LINE
8
FINA
10
785.0000
20
19.0000
30
0
11
831.0000
21
19.0000
31
0
0
LINE
8
FINA
10
808.0000
20
29.0000
30
0
11
808.0000
21
39.0000
31
0
0
LINE
8
FINA
10
811.0000
20
19.0000
30
0
11
811.0000
21
29.0000
31
0
0
TEXT
8
TEXTO
10
786.3000
20
49.6000
30
0
40
1.4000
1
ESCALA
0
TEXT
8
TEXTO
10
808.0000
20
44.1000
30
0
40
5.0000
1
1:1
72
1
73
2
11
808.0000
21
44.1000
31
0
0
TEXT
8
TEXTO
10
786.3000
20
36.6000
30
0
40
1.4000
1
FORMATO
0
TEXT
8
TEXTO
10
792.5000
20
32.6000
30
0
40
2.6000
1
A1
72
1
73
2
11
792.5000
21
32.6000
31
0
0
TEXT
8
TEXTO
10
801.3000
20
36.6000
30
0
40
1.4000
1
LÁMINA
0
TEXT
8
TEXTO
10
807.5000
20
32.6000
30
0
40
2.4000
1
1 / 1
72
1
73
2
11
807.5000
21
32.6000
31
0
0
LINE
8
FINA
10
815.0000
20
29.0000
30
0
11
815.0000
21
39.0000
31
0
0
TEXT
8
TEXTO
10
816.3000
20
36.6000
30
0
40
1.4000
1
REV
0
TEXT
8
TEXTO
10
823.0000
20
32.6000
30
0
40
4.6000
1
—
72
1
73
2
11
823.0000
21
32.6000
31
0
0
TEXT
8
TEXTO
10
786.3000
20
26.6000
30
0
40
1.4000
1
FECHA
0
TEXT
8
TEXTO
10
798.0000
20
22.6000
30
0
40
2.6000
1
2026-08-19
72
1
73
2
11
798.0000
21
22.6000
31
0
0
TEXT
8
TEXTO
10
812.3000
20
26.6000
30
0
40
1.4000
1
UNIDADES
0
TEXT
8
TEXTO
10
821.0000
20
22.6000
30
0
40
3.0000
1
mm
72
1
73
2
11
821.0000
21
22.6000
31
0
0
TEXT
8
TEXTO
10
786.3000
20
16.6000
30
0
40
1.4000
1
Nº DE PLANO
0
TEXT
8
TEXTO
10
808.0000
20
13.1000
30
0
40
2.6000
1
LBD-03
72
1
73
2
11
808.0000
21
13.1000
31
0
0
TEXT
8
TEXTO
10
651.0000
20
56.5000
30
0
40
2.0000
1
DIBUJÓ: Célula de Diseño ConveyOne · REVISÓ: panel adversarial · APROBÓ: S. Contreras — PENDIENTE DE FIRMA
0
ENDSEC
0
EOF
