0
SECTION
2
HEADER
9
$ACADVER
1
AC1009
9
$DWGCODEPAGE
3
ANSI_1252
0
ENDSEC
0
SECTION
2
TABLES
0
TABLE
2
LTYPE
70
2
0
LTYPE
2
CONTINUOUS
70
0
3
Solid line
72
65
73
0
40
0
0
LTYPE
2
DASHED
70
0
3
Segmentada __ __ __
72
65
73
2
40
6
49
4
49
-2
0
ENDTAB
0
TABLE
2
LAYER
70
8
0
LAYER
2
SOMBRA
70
0
62
8
6
CONTINUOUS
0
LAYER
2
NORMA
70
0
62
7
6
CONTINUOUS
0
LAYER
2
FINA
70
0
62
7
6
CONTINUOUS
0
LAYER
2
VISIBLE
70
0
62
7
6
CONTINUOUS
0
LAYER
2
COTAS
70
0
62
7
6
CONTINUOUS
0
LAYER
2
TEXTO
70
0
62
7
6
CONTINUOUS
0
LAYER
2
PLIEGUE
70
0
62
1
6
DASHED
0
LAYER
2
OCULTA
70
0
62
7
6
CONTINUOUS
0
ENDTAB
0
ENDSEC
0
SECTION
2
ENTITIES
0
LINE
8
VISIBLE
10
175.2400
20
131.0000
30
0
11
1023.7600
21
131.0000
31
0
0
LINE
8
VISIBLE
10
1023.7600
20
131.0000
30
0
11
1023.7600
21
757.0000
31
0
0
LINE
8
VISIBLE
10
1023.7600
20
757.0000
30
0
11
175.2400
21
757.0000
31
0
0
LINE
8
VISIBLE
10
175.2400
20
757.0000
30
0
11
175.2400
21
131.0000
31
0
0
CIRCLE
8
VISIBLE
10
732.2400
20
142.5000
30
0
40
3.5000
0
TEXT
8
TEXTO
10
736.4400
20
141.7000
30
0
40
1.9000
1
A
0
CIRCLE
8
VISIBLE
10
483.7400
20
142.5000
30
0
40
3.5000
0
TEXT
8
TEXTO
10
487.9400
20
141.7000
30
0
40
1.9000
1
A
0
CIRCLE
8
VISIBLE
10
235.2400
20
142.5000
30
0
40
3.5000
0
TEXT
8
TEXTO
10
239.4400
20
141.7000
30
0
40
1.9000
1
A
0
CIRCLE
8
VISIBLE
10
732.2400
20
745.5000
30
0
40
3.5000
0
TEXT
8
TEXTO
10
736.4400
20
744.7000
30
0
40
1.9000
1
A
0
CIRCLE
8
VISIBLE
10
483.7400
20
745.5000
30
0
40
3.5000
0
TEXT
8
TEXTO
10
487.9400
20
744.7000
30
0
40
1.9000
1
A
0
CIRCLE
8
VISIBLE
10
235.2400
20
745.5000
30
0
40
3.5000
0
TEXT
8
TEXTO
10
239.4400
20
744.7000
30
0
40
1.9000
1
A
0
CIRCLE
8
VISIBLE
10
712.2400
20
444.0000
30
0
40
4.0000
0
TEXT
8
TEXTO
10
716.9400
20
443.2000
30
0
40
1.9000
1
B
0
CIRCLE
8
VISIBLE
10
412.2400
20
444.0000
30
0
40
4.0000
0
TEXT
8
TEXTO
10
416.9400
20
443.2000
30
0
40
1.9000
1
B
0
TEXT
8
TEXTO
10
175.2400
20
118.0000
30
0
40
3.2000
1
BARRENOS (corte láser): A = 6× Ø7 · B = 2× Ø8
0
TEXT
8
TEXTO
10
175.2400
20
113.5000
30
0
40
2.8000
1
POSICIONES: DXF de corte a escala REAL 1:1 + _agujeros.csv (X·Y·Ø de cada barreno) — contornos interiores ídem
0
LINE
8
FINA
10
788.2400
20
131.0000
30
0
11
788.2400
21
757.0000
31
0
0
LINE
8
PLIEGUE
10
790.5000
20
131.0000
30
0
11
790.5000
21
757.0000
31
0
0
LINE
8
FINA
10
792.7600
20
131.0000
30
0
11
792.7600
21
757.0000
31
0
0
TEXT
8
TEXTO
10
481.7400
20
446.0000
30
0
40
2.8000
1
1 PLIEGUE 90° R2 — TAPA DE EXTREMO 235 ARRIBA
72
1
73
2
11
481.7400
21
446.0000
31
0
0
LINE
8
COTAS
10
175.2400
20
130.0000
30
0
11
175.2400
21
120.5000
31
0
0
LINE
8
COTAS
10
1023.7600
20
130.0000
30
0
11
1023.7600
21
120.5000
31
0
0
LINE
8
COTAS
10
175.2400
20
122.0000
30
0
11
1023.7600
21
122.0000
31
0
0
SOLID
8
COTAS
10
175.2400
20
122.0000
30
0
11
177.7400
21
122.4500
31
0
12
177.7400
22
121.5500
32
0
13
177.7400
23
121.5500
33
0
0
SOLID
8
COTAS
10
1023.7600
20
122.0000
30
0
11
1021.2600
21
122.4500
31
0
12
1021.2600
22
121.5500
32
0
13
1021.2600
23
121.5500
33
0
0
TEXT
8
COTAS
10
599.5000
20
124.2000
30
0
40
3.5000
1
848.5
72
1
73
2
11
599.5000
21
124.2000
31
0
0
LINE
8
COTAS
10
1024.7600
20
131.0000
30
0
11
1034.2600
21
131.0000
31
0
0
LINE
8
COTAS
10
1024.7600
20
757.0000
30
0
11
1034.2600
21
757.0000
31
0
0
LINE
8
COTAS
10
1032.7600
20
131.0000
30
0
11
1032.7600
21
757.0000
31
0
0
SOLID
8
COTAS
10
1032.7600
20
131.0000
30
0
11
1033.2100
21
133.5000
31
0
12
1032.3100
22
133.5000
32
0
13
1032.3100
23
133.5000
33
0
0
SOLID
8
COTAS
10
1032.7600
20
757.0000
30
0
11
1033.2100
21
754.5000
31
0
12
1032.3100
22
754.5000
32
0
13
1032.3100
23
754.5000
33
0
0
TEXT
8
COTAS
10
1034.9600
20
444.0000
30
0
40
3.5000
1
626
72
1
73
2
11
1034.9600
21
444.0000
31
0
0
TEXT
8
TEXTO
10
175.2400
20
767.5000
30
0
40
3.5000
1
DESARROLLO DE CHAPA — BA = ang·(R + K·t) · K=0.44 · R=2 · t=2 ? BA(90°)=4.52 mm
0
TEXT
8
TEXTO
10
175.2400
20
762.0000
30
0
40
4.0000
1
ESPESOR DE CHAPA e = 2 mm (constante en toda la pieza)
0
LINE
8
FINA
10
0.0000
20
0.0000
30
0
11
1189.0000
21
0.0000
31
0
0
LINE
8
FINA
10
1189.0000
20
0.0000
30
0
11
1189.0000
21
841.0000
31
0
0
LINE
8
FINA
10
1189.0000
20
841.0000
30
0
11
0.0000
21
841.0000
31
0
0
LINE
8
FINA
10
0.0000
20
841.0000
30
0
11
0.0000
21
0.0000
31
0
0
LINE
8
NORMA
10
20.0000
20
10.0000
30
0
11
1179.0000
21
10.0000
31
0
0
LINE
8
NORMA
10
1179.0000
20
10.0000
30
0
11
1179.0000
21
831.0000
31
0
0
LINE
8
NORMA
10
1179.0000
20
831.0000
30
0
11
20.0000
21
831.0000
31
0
0
LINE
8
NORMA
10
20.0000
20
831.0000
30
0
11
20.0000
21
10.0000
31
0
0
LINE
8
NORMA
10
0.0000
20
420.5000
30
0
11
25.0000
21
420.5000
31
0
0
LINE
8
NORMA
10
1189.0000
20
420.5000
30
0
11
1174.0000
21
420.5000
31
0
0
LINE
8
NORMA
10
594.5000
20
0.0000
30
0
11
594.5000
21
15.0000
31
0
0
LINE
8
NORMA
10
594.5000
20
841.0000
30
0
11
594.5000
21
826.0000
31
0
0
LINE
8
FINA
10
49.5417
20
0.0000
30
0
11
49.5417
21
10.0000
31
0
0
LINE
8
FINA
10
49.5417
20
831.0000
30
0
11
49.5417
21
841.0000
31
0
0
LINE
8
FINA
10
99.0833
20
0.0000
30
0
11
99.0833
21
10.0000
31
0
0
LINE
8
FINA
10
99.0833
20
831.0000
30
0
11
99.0833
21
841.0000
31
0
0
LINE
8
FINA
10
148.6250
20
0.0000
30
0
11
148.6250
21
10.0000
31
0
0
LINE
8
FINA
10
148.6250
20
831.0000
30
0
11
148.6250
21
841.0000
31
0
0
LINE
8
FINA
10
198.1667
20
0.0000
30
0
11
198.1667
21
10.0000
31
0
0
LINE
8
FINA
10
198.1667
20
831.0000
30
0
11
198.1667
21
841.0000
31
0
0
LINE
8
FINA
10
247.7083
20
0.0000
30
0
11
247.7083
21
10.0000
31
0
0
LINE
8
FINA
10
247.7083
20
831.0000
30
0
11
247.7083
21
841.0000
31
0
0
LINE
8
FINA
10
297.2500
20
0.0000
30
0
11
297.2500
21
10.0000
31
0
0
LINE
8
FINA
10
297.2500
20
831.0000
30
0
11
297.2500
21
841.0000
31
0
0
LINE
8
FINA
10
346.7917
20
0.0000
30
0
11
346.7917
21
10.0000
31
0
0
LINE
8
FINA
10
346.7917
20
831.0000
30
0
11
346.7917
21
841.0000
31
0
0
LINE
8
FINA
10
396.3333
20
0.0000
30
0
11
396.3333
21
10.0000
31
0
0
LINE
8
FINA
10
396.3333
20
831.0000
30
0
11
396.3333
21
841.0000
31
0
0
LINE
8
FINA
10
445.8750
20
0.0000
30
0
11
445.8750
21
10.0000
31
0
0
LINE
8
FINA
10
445.8750
20
831.0000
30
0
11
445.8750
21
841.0000
31
0
0
LINE
8
FINA
10
495.4167
20
0.0000
30
0
11
495.4167
21
10.0000
31
0
0
LINE
8
FINA
10
495.4167
20
831.0000
30
0
11
495.4167
21
841.0000
31
0
0
LINE
8
FINA
10
544.9583
20
0.0000
30
0
11
544.9583
21
10.0000
31
0
0
LINE
8
FINA
10
544.9583
20
831.0000
30
0
11
544.9583
21
841.0000
31
0
0
LINE
8
FINA
10
594.5000
20
0.0000
30
0
11
594.5000
21
10.0000
31
0
0
LINE
8
FINA
10
594.5000
20
831.0000
30
0
11
594.5000
21
841.0000
31
0
0
LINE
8
FINA
10
644.0417
20
0.0000
30
0
11
644.0417
21
10.0000
31
0
0
LINE
8
FINA
10
644.0417
20
831.0000
30
0
11
644.0417
21
841.0000
31
0
0
LINE
8
FINA
10
693.5833
20
0.0000
30
0
11
693.5833
21
10.0000
31
0
0
LINE
8
FINA
10
693.5833
20
831.0000
30
0
11
693.5833
21
841.0000
31
0
0
LINE
8
FINA
10
743.1250
20
0.0000
30
0
11
743.1250
21
10.0000
31
0
0
LINE
8
FINA
10
743.1250
20
831.0000
30
0
11
743.1250
21
841.0000
31
0
0
LINE
8
FINA
10
792.6667
20
0.0000
30
0
11
792.6667
21
10.0000
31
0
0
LINE
8
FINA
10
792.6667
20
831.0000
30
0
11
792.6667
21
841.0000
31
0
0
LINE
8
FINA
10
842.2083
20
0.0000
30
0
11
842.2083
21
10.0000
31
0
0
LINE
8
FINA
10
842.2083
20
831.0000
30
0
11
842.2083
21
841.0000
31
0
0
LINE
8
FINA
10
891.7500
20
0.0000
30
0
11
891.7500
21
10.0000
31
0
0
LINE
8
FINA
10
891.7500
20
831.0000
30
0
11
891.7500
21
841.0000
31
0
0
LINE
8
FINA
10
941.2917
20
0.0000
30
0
11
941.2917
21
10.0000
31
0
0
LINE
8
FINA
10
941.2917
20
831.0000
30
0
11
941.2917
21
841.0000
31
0
0
LINE
8
FINA
10
990.8333
20
0.0000
30
0
11
990.8333
21
10.0000
31
0
0
LINE
8
FINA
10
990.8333
20
831.0000
30
0
11
990.8333
21
841.0000
31
0
0
LINE
8
FINA
10
1040.3750
20
0.0000
30
0
11
1040.3750
21
10.0000
31
0
0
LINE
8
FINA
10
1040.3750
20
831.0000
30
0
11
1040.3750
21
841.0000
31
0
0
LINE
8
FINA
10
1089.9167
20
0.0000
30
0
11
1089.9167
21
10.0000
31
0
0
LINE
8
FINA
10
1089.9167
20
831.0000
30
0
11
1089.9167
21
841.0000
31
0
0
LINE
8
FINA
10
1139.4583
20
0.0000
30
0
11
1139.4583
21
10.0000
31
0
0
LINE
8
FINA
10
1139.4583
20
831.0000
30
0
11
1139.4583
21
841.0000
31
0
0
LINE
8
FINA
10
0.0000
20
52.5625
30
0
11
10.0000
21
52.5625
31
0
0
LINE
8
FINA
10
1179.0000
20
52.5625
30
0
11
1189.0000
21
52.5625
31
0
0
LINE
8
FINA
10
0.0000
20
105.1250
30
0
11
10.0000
21
105.1250
31
0
0
LINE
8
FINA
10
1179.0000
20
105.1250
30
0
11
1189.0000
21
105.1250
31
0
0
LINE
8
FINA
10
0.0000
20
157.6875
30
0
11
10.0000
21
157.6875
31
0
0
LINE
8
FINA
10
1179.0000
20
157.6875
30
0
11
1189.0000
21
157.6875
31
0
0
LINE
8
FINA
10
0.0000
20
210.2500
30
0
11
10.0000
21
210.2500
31
0
0
LINE
8
FINA
10
1179.0000
20
210.2500
30
0
11
1189.0000
21
210.2500
31
0
0
LINE
8
FINA
10
0.0000
20
262.8125
30
0
11
10.0000
21
262.8125
31
0
0
LINE
8
FINA
10
1179.0000
20
262.8125
30
0
11
1189.0000
21
262.8125
31
0
0
LINE
8
FINA
10
0.0000
20
315.3750
30
0
11
10.0000
21
315.3750
31
0
0
LINE
8
FINA
10
1179.0000
20
315.3750
30
0
11
1189.0000
21
315.3750
31
0
0
LINE
8
FINA
10
0.0000
20
367.9375
30
0
11
10.0000
21
367.9375
31
0
0
LINE
8
FINA
10
1179.0000
20
367.9375
30
0
11
1189.0000
21
367.9375
31
0
0
LINE
8
FINA
10
0.0000
20
420.5000
30
0
11
10.0000
21
420.5000
31
0
0
LINE
8
FINA
10
1179.0000
20
420.5000
30
0
11
1189.0000
21
420.5000
31
0
0
LINE
8
FINA
10
0.0000
20
473.0625
30
0
11
10.0000
21
473.0625
31
0
0
LINE
8
FINA
10
1179.0000
20
473.0625
30
0
11
1189.0000
21
473.0625
31
0
0
LINE
8
FINA
10
0.0000
20
525.6250
30
0
11
10.0000
21
525.6250
31
0
0
LINE
8
FINA
10
1179.0000
20
525.6250
30
0
11
1189.0000
21
525.6250
31
0
0
LINE
8
FINA
10
0.0000
20
578.1875
30
0
11
10.0000
21
578.1875
31
0
0
LINE
8
FINA
10
1179.0000
20
578.1875
30
0
11
1189.0000
21
578.1875
31
0
0
LINE
8
FINA
10
0.0000
20
630.7500
30
0
11
10.0000
21
630.7500
31
0
0
LINE
8
FINA
10
1179.0000
20
630.7500
30
0
11
1189.0000
21
630.7500
31
0
0
LINE
8
FINA
10
0.0000
20
683.3125
30
0
11
10.0000
21
683.3125
31
0
0
LINE
8
FINA
10
1179.0000
20
683.3125
30
0
11
1189.0000
21
683.3125
31
0
0
LINE
8
FINA
10
0.0000
20
735.8750
30
0
11
10.0000
21
735.8750
31
0
0
LINE
8
FINA
10
1179.0000
20
735.8750
30
0
11
1189.0000
21
735.8750
31
0
0
LINE
8
FINA
10
0.0000
20
788.4375
30
0
11
10.0000
21
788.4375
31
0
0
LINE
8
FINA
10
1179.0000
20
788.4375
30
0
11
1189.0000
21
788.4375
31
0
0
TEXT
8
TEXTO
10
24.7708
20
5.0000
30
0
40
2.5000
1
1
72
1
73
2
11
24.7708
21
5.0000
31
0
0
TEXT
8
TEXTO
10
24.7708
20
836.0000
30
0
40
2.5000
1
1
72
1
73
2
11
24.7708
21
836.0000
31
0
0
TEXT
8
TEXTO
10
74.3125
20
5.0000
30
0
40
2.5000
1
2
72
1
73
2
11
74.3125
21
5.0000
31
0
0
TEXT
8
TEXTO
10
74.3125
20
836.0000
30
0
40
2.5000
1
2
72
1
73
2
11
74.3125
21
836.0000
31
0
0
TEXT
8
TEXTO
10
123.8542
20
5.0000
30
0
40
2.5000
1
3
72
1
73
2
11
123.8542
21
5.0000
31
0
0
TEXT
8
TEXTO
10
123.8542
20
836.0000
30
0
40
2.5000
1
3
72
1
73
2
11
123.8542
21
836.0000
31
0
0
TEXT
8
TEXTO
10
173.3958
20
5.0000
30
0
40
2.5000
1
4
72
1
73
2
11
173.3958
21
5.0000
31
0
0
TEXT
8
TEXTO
10
173.3958
20
836.0000
30
0
40
2.5000
1
4
72
1
73
2
11
173.3958
21
836.0000
31
0
0
TEXT
8
TEXTO
10
222.9375
20
5.0000
30
0
40
2.5000
1
5
72
1
73
2
11
222.9375
21
5.0000
31
0
0
TEXT
8
TEXTO
10
222.9375
20
836.0000
30
0
40
2.5000
1
5
72
1
73
2
11
222.9375
21
836.0000
31
0
0
TEXT
8
TEXTO
10
272.4792
20
5.0000
30
0
40
2.5000
1
6
72
1
73
2
11
272.4792
21
5.0000
31
0
0
TEXT
8
TEXTO
10
272.4792
20
836.0000
30
0
40
2.5000
1
6
72
1
73
2
11
272.4792
21
836.0000
31
0
0
TEXT
8
TEXTO
10
322.0208
20
5.0000
30
0
40
2.5000
1
7
72
1
73
2
11
322.0208
21
5.0000
31
0
0
TEXT
8
TEXTO
10
322.0208
20
836.0000
30
0
40
2.5000
1
7
72
1
73
2
11
322.0208
21
836.0000
31
0
0
TEXT
8
TEXTO
10
371.5625
20
5.0000
30
0
40
2.5000
1
8
72
1
73
2
11
371.5625
21
5.0000
31
0
0
TEXT
8
TEXTO
10
371.5625
20
836.0000
30
0
40
2.5000
1
8
72
1
73
2
11
371.5625
21
836.0000
31
0
0
TEXT
8
TEXTO
10
421.1042
20
5.0000
30
0
40
2.5000
1
9
72
1
73
2
11
421.1042
21
5.0000
31
0
0
TEXT
8
TEXTO
10
421.1042
20
836.0000
30
0
40
2.5000
1
9
72
1
73
2
11
421.1042
21
836.0000
31
0
0
TEXT
8
TEXTO
10
470.6458
20
5.0000
30
0
40
2.5000
1
10
72
1
73
2
11
470.6458
21
5.0000
31
0
0
TEXT
8
TEXTO
10
470.6458
20
836.0000
30
0
40
2.5000
1
10
72
1
73
2
11
470.6458
21
836.0000
31
0
0
TEXT
8
TEXTO
10
520.1875
20
5.0000
30
0
40
2.5000
1
11
72
1
73
2
11
520.1875
21
5.0000
31
0
0
TEXT
8
TEXTO
10
520.1875
20
836.0000
30
0
40
2.5000
1
11
72
1
73
2
11
520.1875
21
836.0000
31
0
0
TEXT
8
TEXTO
10
569.7292
20
5.0000
30
0
40
2.5000
1
12
72
1
73
2
11
569.7292
21
5.0000
31
0
0
TEXT
8
TEXTO
10
569.7292
20
836.0000
30
0
40
2.5000
1
12
72
1
73
2
11
569.7292
21
836.0000
31
0
0
TEXT
8
TEXTO
10
619.2708
20
5.0000
30
0
40
2.5000
1
13
72
1
73
2
11
619.2708
21
5.0000
31
0
0
TEXT
8
TEXTO
10
619.2708
20
836.0000
30
0
40
2.5000
1
13
72
1
73
2
11
619.2708
21
836.0000
31
0
0
TEXT
8
TEXTO
10
668.8125
20
5.0000
30
0
40
2.5000
1
14
72
1
73
2
11
668.8125
21
5.0000
31
0
0
TEXT
8
TEXTO
10
668.8125
20
836.0000
30
0
40
2.5000
1
14
72
1
73
2
11
668.8125
21
836.0000
31
0
0
TEXT
8
TEXTO
10
718.3542
20
5.0000
30
0
40
2.5000
1
15
72
1
73
2
11
718.3542
21
5.0000
31
0
0
TEXT
8
TEXTO
10
718.3542
20
836.0000
30
0
40
2.5000
1
15
72
1
73
2
11
718.3542
21
836.0000
31
0
0
TEXT
8
TEXTO
10
767.8958
20
5.0000
30
0
40
2.5000
1
16
72
1
73
2
11
767.8958
21
5.0000
31
0
0
TEXT
8
TEXTO
10
767.8958
20
836.0000
30
0
40
2.5000
1
16
72
1
73
2
11
767.8958
21
836.0000
31
0
0
TEXT
8
TEXTO
10
817.4375
20
5.0000
30
0
40
2.5000
1
17
72
1
73
2
11
817.4375
21
5.0000
31
0
0
TEXT
8
TEXTO
10
817.4375
20
836.0000
30
0
40
2.5000
1
17
72
1
73
2
11
817.4375
21
836.0000
31
0
0
TEXT
8
TEXTO
10
866.9792
20
5.0000
30
0
40
2.5000
1
18
72
1
73
2
11
866.9792
21
5.0000
31
0
0
TEXT
8
TEXTO
10
866.9792
20
836.0000
30
0
40
2.5000
1
18
72
1
73
2
11
866.9792
21
836.0000
31
0
0
TEXT
8
TEXTO
10
916.5208
20
5.0000
30
0
40
2.5000
1
19
72
1
73
2
11
916.5208
21
5.0000
31
0
0
TEXT
8
TEXTO
10
916.5208
20
836.0000
30
0
40
2.5000
1
19
72
1
73
2
11
916.5208
21
836.0000
31
0
0
TEXT
8
TEXTO
10
966.0625
20
5.0000
30
0
40
2.5000
1
20
72
1
73
2
11
966.0625
21
5.0000
31
0
0
TEXT
8
TEXTO
10
966.0625
20
836.0000
30
0
40
2.5000
1
20
72
1
73
2
11
966.0625
21
836.0000
31
0
0
TEXT
8
TEXTO
10
1015.6042
20
5.0000
30
0
40
2.5000
1
21
72
1
73
2
11
1015.6042
21
5.0000
31
0
0
TEXT
8
TEXTO
10
1015.6042
20
836.0000
30
0
40
2.5000
1
21
72
1
73
2
11
1015.6042
21
836.0000
31
0
0
TEXT
8
TEXTO
10
1065.1458
20
5.0000
30
0
40
2.5000
1
22
72
1
73
2
11
1065.1458
21
5.0000
31
0
0
TEXT
8
TEXTO
10
1065.1458
20
836.0000
30
0
40
2.5000
1
22
72
1
73
2
11
1065.1458
21
836.0000
31
0
0
TEXT
8
TEXTO
10
1114.6875
20
5.0000
30
0
40
2.5000
1
23
72
1
73
2
11
1114.6875
21
5.0000
31
0
0
TEXT
8
TEXTO
10
1114.6875
20
836.0000
30
0
40
2.5000
1
23
72
1
73
2
11
1114.6875
21
836.0000
31
0
0
TEXT
8
TEXTO
10
1164.2292
20
5.0000
30
0
40
2.5000
1
24
72
1
73
2
11
1164.2292
21
5.0000
31
0
0
TEXT
8
TEXTO
10
1164.2292
20
836.0000
30
0
40
2.5000
1
24
72
1
73
2
11
1164.2292
21
836.0000
31
0
0
TEXT
8
TEXTO
10
5.0000
20
814.7188
30
0
40
2.5000
1
A
72
1
73
2
11
5.0000
21
814.7188
31
0
0
TEXT
8
TEXTO
10
1184.0000
20
814.7188
30
0
40
2.5000
1
A
72
1
73
2
11
1184.0000
21
814.7188
31
0
0
TEXT
8
TEXTO
10
5.0000
20
762.1563
30
0
40
2.5000
1
B
72
1
73
2
11
5.0000
21
762.1563
31
0
0
TEXT
8
TEXTO
10
1184.0000
20
762.1563
30
0
40
2.5000
1
B
72
1
73
2
11
1184.0000
21
762.1563
31
0
0
TEXT
8
TEXTO
10
5.0000
20
709.5938
30
0
40
2.5000
1
C
72
1
73
2
11
5.0000
21
709.5938
31
0
0
TEXT
8
TEXTO
10
1184.0000
20
709.5938
30
0
40
2.5000
1
C
72
1
73
2
11
1184.0000
21
709.5938
31
0
0
TEXT
8
TEXTO
10
5.0000
20
657.0313
30
0
40
2.5000
1
D
72
1
73
2
11
5.0000
21
657.0313
31
0
0
TEXT
8
TEXTO
10
1184.0000
20
657.0313
30
0
40
2.5000
1
D
72
1
73
2
11
1184.0000
21
657.0313
31
0
0
TEXT
8
TEXTO
10
5.0000
20
604.4688
30
0
40
2.5000
1
E
72
1
73
2
11
5.0000
21
604.4688
31
0
0
TEXT
8
TEXTO
10
1184.0000
20
604.4688
30
0
40
2.5000
1
E
72
1
73
2
11
1184.0000
21
604.4688
31
0
0
TEXT
8
TEXTO
10
5.0000
20
551.9063
30
0
40
2.5000
1
F
72
1
73
2
11
5.0000
21
551.9063
31
0
0
TEXT
8
TEXTO
10
1184.0000
20
551.9063
30
0
40
2.5000
1
F
72
1
73
2
11
1184.0000
21
551.9063
31
0
0
TEXT
8
TEXTO
10
5.0000
20
499.3438
30
0
40
2.5000
1
G
72
1
73
2
11
5.0000
21
499.3438
31
0
0
TEXT
8
TEXTO
10
1184.0000
20
499.3438
30
0
40
2.5000
1
G
72
1
73
2
11
1184.0000
21
499.3438
31
0
0
TEXT
8
TEXTO
10
5.0000
20
446.7813
30
0
40
2.5000
1
H
72
1
73
2
11
5.0000
21
446.7813
31
0
0
TEXT
8
TEXTO
10
1184.0000
20
446.7813
30
0
40
2.5000
1
H
72
1
73
2
11
1184.0000
21
446.7813
31
0
0
TEXT
8
TEXTO
10
5.0000
20
394.2188
30
0
40
2.5000
1
J
72
1
73
2
11
5.0000
21
394.2188
31
0
0
TEXT
8
TEXTO
10
1184.0000
20
394.2188
30
0
40
2.5000
1
J
72
1
73
2
11
1184.0000
21
394.2188
31
0
0
TEXT
8
TEXTO
10
5.0000
20
341.6563
30
0
40
2.5000
1
K
72
1
73
2
11
5.0000
21
341.6563
31
0
0
TEXT
8
TEXTO
10
1184.0000
20
341.6563
30
0
40
2.5000
1
K
72
1
73
2
11
1184.0000
21
341.6563
31
0
0
TEXT
8
TEXTO
10
5.0000
20
289.0938
30
0
40
2.5000
1
L
72
1
73
2
11
5.0000
21
289.0938
31
0
0
TEXT
8
TEXTO
10
1184.0000
20
289.0938
30
0
40
2.5000
1
L
72
1
73
2
11
1184.0000
21
289.0938
31
0
0
TEXT
8
TEXTO
10
5.0000
20
236.5313
30
0
40
2.5000
1
M
72
1
73
2
11
5.0000
21
236.5313
31
0
0
TEXT
8
TEXTO
10
1184.0000
20
236.5313
30
0
40
2.5000
1
M
72
1
73
2
11
1184.0000
21
236.5313
31
0
0
TEXT
8
TEXTO
10
5.0000
20
183.9688
30
0
40
2.5000
1
N
72
1
73
2
11
5.0000
21
183.9688
31
0
0
TEXT
8
TEXTO
10
1184.0000
20
183.9688
30
0
40
2.5000
1
N
72
1
73
2
11
1184.0000
21
183.9688
31
0
0
TEXT
8
TEXTO
10
5.0000
20
131.4063
30
0
40
2.5000
1
P
72
1
73
2
11
5.0000
21
131.4063
31
0
0
TEXT
8
TEXTO
10
1184.0000
20
131.4063
30
0
40
2.5000
1
P
72
1
73
2
11
1184.0000
21
131.4063
31
0
0
TEXT
8
TEXTO
10
5.0000
20
78.8438
30
0
40
2.5000
1
Q
72
1
73
2
11
5.0000
21
78.8438
31
0
0
TEXT
8
TEXTO
10
1184.0000
20
78.8438
30
0
40
2.5000
1
Q
72
1
73
2
11
1184.0000
21
78.8438
31
0
0
TEXT
8
TEXTO
10
5.0000
20
26.2813
30
0
40
2.5000
1
R
72
1
73
2
11
5.0000
21
26.2813
31
0
0
TEXT
8
TEXTO
10
1184.0000
20
26.2813
30
0
40
2.5000
1
R
72
1
73
2
11
1184.0000
21
26.2813
31
0
0
LINE
8
NORMA
10
999.0000
20
10.0000
30
0
11
1179.0000
21
10.0000
31
0
0
LINE
8
NORMA
10
1179.0000
20
10.0000
30
0
11
1179.0000
21
52.0000
31
0
0
LINE
8
NORMA
10
1179.0000
20
52.0000
30
0
11
999.0000
21
52.0000
31
0
0
LINE
8
NORMA
10
999.0000
20
52.0000
30
0
11
999.0000
21
10.0000
31
0
0
LINE
8
NORMA
10
1039.0000
20
10.0000
30
0
11
1039.0000
21
52.0000
31
0
0
LINE
8
NORMA
10
1133.0000
20
10.0000
30
0
11
1133.0000
21
52.0000
31
0
0
LINE
8
FINA
10
999.0000
20
29.0000
30
0
11
1039.0000
21
29.0000
31
0
0
TEXT
8
TEXTO
10
1019.0000
20
43.4000
30
0
40
4.9000
1
ConveyOne
72
1
73
2
11
1019.0000
21
43.4000
31
0
0
LINE
8
FINA
10
1005.5000
20
38.6000
30
0
11
1032.5000
21
38.6000
31
0
0
TEXT
8
TEXTO
10
1019.0000
20
35.8000
30
0
40
1.3000
1
CAD · DISEÑO CAPA USER
72
1
73
2
11
1019.0000
21
35.8000
31
0
0
TEXT
8
TEXTO
10
1019.0000
20
32.6000
30
0
40
1.3000
1
ISO 5457 · 7200 · 129 · 5456-2
72
1
73
2
11
1019.0000
21
32.6000
31
0
0
TEXT
8
TEXTO
10
1019.0000
20
26.6000
30
0
40
1.4000
1
PROYECCIÓN — PRIMER DIEDRO
72
1
73
2
11
1019.0000
21
26.6000
31
0
0
CIRCLE
8
TEXTO
10
1014.4000
20
17.5000
30
0
40
2.9900
0
CIRCLE
8
TEXTO
10
1014.4000
20
17.5000
30
0
40
1.6100
0
LINE
8
TEXTO
10
1019.4600
20
14.5100
30
0
11
1026.5900
21
15.8900
31
0
0
LINE
8
TEXTO
10
1026.5900
20
15.8900
30
0
11
1026.5900
21
19.1100
31
0
0
LINE
8
TEXTO
10
1026.5900
20
19.1100
30
0
11
1019.4600
21
20.4900
31
0
0
LINE
8
TEXTO
10
1019.4600
20
20.4900
30
0
11
1019.4600
21
14.5100
31
0
0
LINE
8
FINA
10
1010.0300
20
17.5000
30
0
11
1027.9700
21
17.5000
31
0
0
LINE
8
FINA
10
1039.0000
20
39.0000
30
0
11
1133.0000
21
39.0000
31
0
0
LINE
8
FINA
10
1039.0000
20
29.0000
30
0
11
1133.0000
21
29.0000
31
0
0
LINE
8
FINA
10
1039.0000
20
19.0000
30
0
11
1133.0000
21
19.0000
31
0
0
LINE
8
FINA
10
1086.0000
20
29.0000
30
0
11
1086.0000
21
39.0000
31
0
0
LINE
8
FINA
10
1095.0000
20
19.0000
30
0
11
1095.0000
21
29.0000
31
0
0
TEXT
8
TEXTO
10
1040.3000
20
49.6000
30
0
40
1.4000
1
DESIGNACIÓN
0
TEXT
8
TEXTO
10
1040.6000
20
44.1000
30
0
40
2.5543
1
LBD-08 · Guarda tensor — fondo con tapa e2 (615×626) (x1) — DESARROLLO
72
0
73
2
11
1040.6000
21
44.1000
31
0
0
TEXT
8
TEXTO
10
1040.3000
20
36.6000
30
0
40
1.4000
1
PROYECTO
0
TEXT
8
TEXTO
10
1040.6000
20
32.6000
30
0
40
2.1329
1
CV-LBP-5000 · Movex 530 LBP 18 in × 5.0 m
72
0
73
2
11
1040.6000
21
32.6000
31
0
0
TEXT
8
TEXTO
10
1087.3000
20
36.6000
30
0
40
1.4000
1
FUENTE
0
TEXT
8
TEXTO
10
1087.6000
20
32.6000
30
0
40
2.4000
1
chapa plegada — capa user
72
0
73
2
11
1087.6000
21
32.6000
31
0
0
TEXT
8
TEXTO
10
1040.3000
20
26.6000
30
0
40
1.4000
1
VERIFICACIÓN DE ESCALA
0
TEXT
8
TEXTO
10
1040.6000
20
22.6000
30
0
40
2.4000
1
CAD EN MM (CAPA USER)
72
0
73
2
11
1040.6000
21
22.6000
31
0
0
TEXT
8
TEXTO
10
1096.3000
20
26.6000
30
0
40
1.4000
1
PLIEGUES
0
TEXT
8
TEXTO
10
1096.6000
20
22.6000
30
0
40
2.6000
1
1
72
0
73
2
11
1096.6000
21
22.6000
31
0
0
TEXT
8
TEXTO
10
1040.3000
20
16.6000
30
0
40
1.4000
1
NOTA
0
TEXT
8
TEXTO
10
1040.6000
20
13.1000
30
0
40
2.1785
1
Acero S275JR e2.0 — terminación PINTADO RAL 7035 · e2 · tol. gral. ISO 2768-mK · K=0.…
72
0
73
2
11
1040.6000
21
13.1000
31
0
0
LINE
8
FINA
10
1133.0000
20
39.0000
30
0
11
1179.0000
21
39.0000
31
0
0
LINE
8
FINA
10
1133.0000
20
29.0000
30
0
11
1179.0000
21
29.0000
31
0
0
LINE
8
FINA
10
1133.0000
20
19.0000
30
0
11
1179.0000
21
19.0000
31
0
0
LINE
8
FINA
10
1156.0000
20
29.0000
30
0
11
1156.0000
21
39.0000
31
0
0
LINE
8
FINA
10
1159.0000
20
19.0000
30
0
11
1159.0000
21
29.0000
31
0
0
TEXT
8
TEXTO
10
1134.3000
20
49.6000
30
0
40
1.4000
1
ESCALA
0
TEXT
8
TEXTO
10
1156.0000
20
44.1000
30
0
40
5.0000
1
1:1
72
1
73
2
11
1156.0000
21
44.1000
31
0
0
TEXT
8
TEXTO
10
1134.3000
20
36.6000
30
0
40
1.4000
1
FORMATO
0
TEXT
8
TEXTO
10
1144.5000
20
32.6000
30
0
40
3.0000
1
A0
72
1
73
2
11
1144.5000
21
32.6000
31
0
0
TEXT
8
TEXTO
10
1157.3000
20
36.6000
30
0
40
1.4000
1
LÁMINA
0
TEXT
8
TEXTO
10
1167.5000
20
32.6000
30
0
40
3.0000
1
1 / 1
72
1
73
2
11
1167.5000
21
32.6000
31
0
0
TEXT
8
TEXTO
10
1134.3000
20
26.6000
30
0
40
1.4000
1
FECHA
0
TEXT
8
TEXTO
10
1146.0000
20
22.6000
30
0
40
2.6000
1
2026-08-18
72
1
73
2
11
1146.0000
21
22.6000
31
0
0
TEXT
8
TEXTO
10
1160.3000
20
26.6000
30
0
40
1.4000
1
UNIDADES
0
TEXT
8
TEXTO
10
1169.0000
20
22.6000
30
0
40
3.0000
1
mm
72
1
73
2
11
1169.0000
21
22.6000
31
0
0
TEXT
8
TEXTO
10
1134.3000
20
16.6000
30
0
40
1.4000
1
Nº DE PLANO
0
TEXT
8
TEXTO
10
1156.0000
20
13.1000
30
0
40
2.6000
1
LBD-08
72
1
73
2
11
1156.0000
21
13.1000
31
0
0
ENDSEC
0
EOF
