0
SECTION
2
HEADER
9
$ACADVER
1
AC1009
9
$DWGCODEPAGE
3
ANSI_1252
0
ENDSEC
0
SECTION
2
TABLES
0
TABLE
2
LTYPE
70
3
0
LTYPE
2
CONTINUOUS
70
0
3
Solid line
72
65
73
0
40
0
0
LTYPE
2
DASHED
70
0
3
Segmentada __ __ __
72
65
73
2
40
6
49
4
49
-2
0
LTYPE
2
CENTER
70
0
3
Centro ____ _ ____
72
65
73
4
40
11
49
7
49
-1.2
49
1.2
49
-1.2
0
ENDTAB
0
TABLE
2
LAYER
70
9
0
LAYER
2
SOMBRA
70
0
62
8
6
CONTINUOUS
0
LAYER
2
NORMA
70
0
62
7
6
CONTINUOUS
0
LAYER
2
FINA
70
0
62
7
6
CONTINUOUS
0
LAYER
2
VISIBLE
70
0
62
7
6
CONTINUOUS
0
LAYER
2
COTAS
70
0
62
7
6
CONTINUOUS
0
LAYER
2
TEXTO
70
0
62
7
6
CONTINUOUS
0
LAYER
2
PLIEGUE
70
0
62
1
6
DASHED
0
LAYER
2
OCULTA
70
0
62
7
6
DASHED
0
LAYER
2
EJE
70
0
62
4
6
CENTER
0
ENDTAB
0
ENDSEC
0
SECTION
2
ENTITIES
0
LINE
8
VISIBLE
10
497.5000
20
2069.7150
30
0
11
497.7400
21
2067.5550
31
0
0
LINE
8
VISIBLE
10
497.7400
20
2067.5550
30
0
11
498.4600
21
2065.8750
31
0
0
LINE
8
VISIBLE
10
498.4600
20
2065.8750
30
0
11
499.6600
21
2064.6750
31
0
0
LINE
8
VISIBLE
10
499.6600
20
2064.6750
30
0
11
501.3400
21
2063.9550
31
0
0
LINE
8
VISIBLE
10
501.3400
20
2063.9550
30
0
11
503.5000
21
2063.7150
31
0
0
LINE
8
VISIBLE
10
503.5000
20
2063.7150
30
0
11
584.5900
21
2063.7150
31
0
0
LINE
8
VISIBLE
10
584.5900
20
2063.7150
30
0
11
586.7500
21
2063.9550
31
0
0
LINE
8
VISIBLE
10
586.7500
20
2063.9550
30
0
11
588.4300
21
2064.6750
31
0
0
LINE
8
VISIBLE
10
588.4300
20
2064.6750
30
0
11
589.6300
21
2065.8750
31
0
0
LINE
8
VISIBLE
10
589.6300
20
2065.8750
30
0
11
590.3500
21
2067.5550
31
0
0
LINE
8
VISIBLE
10
590.3500
20
2067.5550
30
0
11
590.5900
21
2069.7150
31
0
0
LINE
8
VISIBLE
10
590.5900
20
2069.7150
30
0
11
590.5900
21
2103.2850
31
0
0
LINE
8
VISIBLE
10
590.5900
20
2103.2850
30
0
11
770.5900
21
2103.2850
31
0
0
LINE
8
VISIBLE
10
770.5900
20
2103.2850
30
0
11
770.5900
21
2069.7150
31
0
0
LINE
8
VISIBLE
10
770.5900
20
2069.7150
30
0
11
770.8300
21
2067.5550
31
0
0
LINE
8
VISIBLE
10
770.8300
20
2067.5550
30
0
11
771.5500
21
2065.8750
31
0
0
LINE
8
VISIBLE
10
771.5500
20
2065.8750
30
0
11
772.7500
21
2064.6750
31
0
0
LINE
8
VISIBLE
10
772.7500
20
2064.6750
30
0
11
774.4300
21
2063.9550
31
0
0
LINE
8
VISIBLE
10
774.4300
20
2063.9550
30
0
11
776.5900
21
2063.7150
31
0
0
LINE
8
VISIBLE
10
776.5900
20
2063.7150
30
0
11
909.6700
21
2063.7150
31
0
0
LINE
8
VISIBLE
10
909.6700
20
2063.7150
30
0
11
911.8300
21
2063.9550
31
0
0
LINE
8
VISIBLE
10
911.8300
20
2063.9550
30
0
11
913.5100
21
2064.6750
31
0
0
LINE
8
VISIBLE
10
913.5100
20
2064.6750
30
0
11
914.7100
21
2065.8750
31
0
0
LINE
8
VISIBLE
10
914.7100
20
2065.8750
30
0
11
915.4300
21
2067.5550
31
0
0
LINE
8
VISIBLE
10
915.4300
20
2067.5550
30
0
11
915.6700
21
2069.7150
31
0
0
LINE
8
VISIBLE
10
915.6700
20
2069.7150
30
0
11
915.6700
21
2103.2850
31
0
0
LINE
8
VISIBLE
10
915.6700
20
2103.2850
30
0
11
1095.6700
21
2103.2850
31
0
0
LINE
8
VISIBLE
10
1095.6700
20
2103.2850
30
0
11
1095.6700
21
2069.7150
31
0
0
LINE
8
VISIBLE
10
1095.6700
20
2069.7150
30
0
11
1095.9100
21
2067.5550
31
0
0
LINE
8
VISIBLE
10
1095.9100
20
2067.5550
30
0
11
1096.6300
21
2065.8750
31
0
0
LINE
8
VISIBLE
10
1096.6300
20
2065.8750
30
0
11
1097.8300
21
2064.6750
31
0
0
LINE
8
VISIBLE
10
1097.8300
20
2064.6750
30
0
11
1099.5100
21
2063.9550
31
0
0
LINE
8
VISIBLE
10
1099.5100
20
2063.9550
30
0
11
1101.6700
21
2063.7150
31
0
0
LINE
8
VISIBLE
10
1101.6700
20
2063.7150
30
0
11
5126.9400
21
2063.7150
31
0
0
LINE
8
VISIBLE
10
5126.9400
20
2063.7150
30
0
11
5129.1000
21
2063.9550
31
0
0
LINE
8
VISIBLE
10
5129.1000
20
2063.9550
30
0
11
5130.7800
21
2064.6750
31
0
0
LINE
8
VISIBLE
10
5130.7800
20
2064.6750
30
0
11
5131.9800
21
2065.8750
31
0
0
LINE
8
VISIBLE
10
5131.9800
20
2065.8750
30
0
11
5132.7000
21
2067.5550
31
0
0
LINE
8
VISIBLE
10
5132.7000
20
2067.5550
30
0
11
5132.9400
21
2069.7150
31
0
0
LINE
8
VISIBLE
10
5132.9400
20
2069.7150
30
0
11
5132.9400
21
2103.2850
31
0
0
LINE
8
VISIBLE
10
5132.9400
20
2103.2850
30
0
11
5312.9400
21
2103.2850
31
0
0
LINE
8
VISIBLE
10
5312.9400
20
2103.2850
30
0
11
5312.9400
21
2069.7150
31
0
0
LINE
8
VISIBLE
10
5312.9400
20
2069.7150
30
0
11
5313.1800
21
2067.5550
31
0
0
LINE
8
VISIBLE
10
5313.1800
20
2067.5550
30
0
11
5313.9000
21
2065.8750
31
0
0
LINE
8
VISIBLE
10
5313.9000
20
2065.8750
30
0
11
5315.1000
21
2064.6750
31
0
0
LINE
8
VISIBLE
10
5315.1000
20
2064.6750
30
0
11
5316.7800
21
2063.9550
31
0
0
LINE
8
VISIBLE
10
5316.7800
20
2063.9550
30
0
11
5318.9400
21
2063.7150
31
0
0
LINE
8
VISIBLE
10
5318.9400
20
2063.7150
30
0
11
5383.8400
21
2063.7150
31
0
0
LINE
8
VISIBLE
10
5383.8400
20
2063.7150
30
0
11
5386.0000
21
2063.9550
31
0
0
LINE
8
VISIBLE
10
5386.0000
20
2063.9550
30
0
11
5387.6800
21
2064.6750
31
0
0
LINE
8
VISIBLE
10
5387.6800
20
2064.6750
30
0
11
5388.8800
21
2065.8750
31
0
0
LINE
8
VISIBLE
10
5388.8800
20
2065.8750
30
0
11
5389.6000
21
2067.5550
31
0
0
LINE
8
VISIBLE
10
5389.6000
20
2067.5550
30
0
11
5389.8400
21
2069.7150
31
0
0
LINE
8
VISIBLE
10
5389.8400
20
2069.7150
30
0
11
5389.8400
21
2103.2850
31
0
0
LINE
8
VISIBLE
10
5389.8400
20
2103.2850
30
0
11
5497.5000
21
2103.2850
31
0
0
LINE
8
VISIBLE
10
5497.5000
20
2103.2850
30
0
11
5497.5000
21
2063.7150
31
0
0
LINE
8
VISIBLE
10
5497.5000
20
2063.7150
30
0
11
5497.5000
21
2370.2850
31
0
0
LINE
8
VISIBLE
10
5497.5000
20
2370.2850
30
0
11
5497.2600
21
2372.4450
31
0
0
LINE
8
VISIBLE
10
5497.2600
20
2372.4450
30
0
11
5496.5400
21
2374.1250
31
0
0
LINE
8
VISIBLE
10
5496.5400
20
2374.1250
30
0
11
5495.3400
21
2375.3250
31
0
0
LINE
8
VISIBLE
10
5495.3400
20
2375.3250
30
0
11
5493.6600
21
2376.0450
31
0
0
LINE
8
VISIBLE
10
5493.6600
20
2376.0450
30
0
11
5491.5000
21
2376.2850
31
0
0
LINE
8
VISIBLE
10
5491.5000
20
2376.2850
30
0
11
503.5000
21
2376.2850
31
0
0
LINE
8
VISIBLE
10
503.5000
20
2376.2850
30
0
11
501.3400
21
2376.0450
31
0
0
LINE
8
VISIBLE
10
501.3400
20
2376.0450
30
0
11
499.6600
21
2375.3250
31
0
0
LINE
8
VISIBLE
10
499.6600
20
2375.3250
30
0
11
498.4600
21
2374.1250
31
0
0
LINE
8
VISIBLE
10
498.4600
20
2374.1250
30
0
11
497.7400
21
2372.4450
31
0
0
LINE
8
VISIBLE
10
497.7400
20
2372.4450
30
0
11
497.5000
21
2370.2850
31
0
0
LINE
8
VISIBLE
10
497.5000
20
2370.2850
30
0
11
497.5000
21
2069.7150
31
0
0
CIRCLE
8
VISIBLE
10
5077.5000
20
2244.2850
30
0
40
4.5000
0
TEXT
8
TEXTO
10
5085.5000
20
2240.2850
30
0
40
11.0000
1
B
0
CIRCLE
8
VISIBLE
10
4217.5000
20
2217.5350
30
0
40
4.5000
0
TEXT
8
TEXTO
10
4225.5000
20
2213.5350
30
0
40
11.0000
1
B
0
CIRCLE
8
VISIBLE
10
3717.5000
20
2217.5350
30
0
40
4.5000
0
TEXT
8
TEXTO
10
3725.5000
20
2213.5350
30
0
40
11.0000
1
B
0
CIRCLE
8
VISIBLE
10
3217.5000
20
2217.5350
30
0
40
4.5000
0
TEXT
8
TEXTO
10
3225.5000
20
2213.5350
30
0
40
11.0000
1
B
0
CIRCLE
8
VISIBLE
10
2717.5000
20
2217.5350
30
0
40
4.5000
0
TEXT
8
TEXTO
10
2725.5000
20
2213.5350
30
0
40
11.0000
1
B
0
CIRCLE
8
VISIBLE
10
2217.5000
20
2217.5350
30
0
40
4.5000
0
TEXT
8
TEXTO
10
2225.5000
20
2213.5350
30
0
40
11.0000
1
B
0
CIRCLE
8
VISIBLE
10
1717.5000
20
2217.5350
30
0
40
4.5000
0
TEXT
8
TEXTO
10
1725.5000
20
2213.5350
30
0
40
11.0000
1
B
0
CIRCLE
8
VISIBLE
10
1217.5000
20
2217.5350
30
0
40
4.5000
0
TEXT
8
TEXTO
10
1225.5000
20
2213.5350
30
0
40
11.0000
1
B
0
CIRCLE
8
VISIBLE
10
1297.5000
20
2209.2850
30
0
40
3.5000
0
TEXT
8
TEXTO
10
1304.5000
20
2205.2850
30
0
40
11.0000
1
A
0
CIRCLE
8
VISIBLE
10
1297.5000
20
2149.2850
30
0
40
3.5000
0
TEXT
8
TEXTO
10
1304.5000
20
2145.2850
30
0
40
11.0000
1
A
0
CIRCLE
8
VISIBLE
10
1997.5000
20
2209.2850
30
0
40
3.5000
0
TEXT
8
TEXTO
10
2004.5000
20
2205.2850
30
0
40
11.0000
1
A
0
CIRCLE
8
VISIBLE
10
1997.5000
20
2149.2850
30
0
40
3.5000
0
TEXT
8
TEXTO
10
2004.5000
20
2145.2850
30
0
40
11.0000
1
A
0
CIRCLE
8
VISIBLE
10
2997.5000
20
2209.2850
30
0
40
3.5000
0
TEXT
8
TEXTO
10
3004.5000
20
2205.2850
30
0
40
11.0000
1
A
0
CIRCLE
8
VISIBLE
10
2997.5000
20
2149.2850
30
0
40
3.5000
0
TEXT
8
TEXTO
10
3004.5000
20
2145.2850
30
0
40
11.0000
1
A
0
CIRCLE
8
VISIBLE
10
3997.5000
20
2209.2850
30
0
40
3.5000
0
TEXT
8
TEXTO
10
4004.5000
20
2205.2850
30
0
40
11.0000
1
A
0
CIRCLE
8
VISIBLE
10
3997.5000
20
2149.2850
30
0
40
3.5000
0
TEXT
8
TEXTO
10
4004.5000
20
2145.2850
30
0
40
11.0000
1
A
0
CIRCLE
8
VISIBLE
10
4697.5000
20
2209.2850
30
0
40
3.5000
0
TEXT
8
TEXTO
10
4704.5000
20
2205.2850
30
0
40
11.0000
1
A
0
CIRCLE
8
VISIBLE
10
4697.5000
20
2149.2850
30
0
40
3.5000
0
TEXT
8
TEXTO
10
4704.5000
20
2145.2850
30
0
40
11.0000
1
A
0
CIRCLE
8
VISIBLE
10
985.5000
20
2310.7850
30
0
40
3.5000
0
TEXT
8
TEXTO
10
992.5000
20
2306.7850
30
0
40
11.0000
1
A
0
CIRCLE
8
VISIBLE
10
1009.5000
20
2310.7850
30
0
40
3.5000
0
TEXT
8
TEXTO
10
1016.5000
20
2306.7850
30
0
40
11.0000
1
A
0
CIRCLE
8
VISIBLE
10
1985.5000
20
2310.7850
30
0
40
3.5000
0
TEXT
8
TEXTO
10
1992.5000
20
2306.7850
30
0
40
11.0000
1
A
0
CIRCLE
8
VISIBLE
10
2009.5000
20
2310.7850
30
0
40
3.5000
0
TEXT
8
TEXTO
10
2016.5000
20
2306.7850
30
0
40
11.0000
1
A
0
CIRCLE
8
VISIBLE
10
2985.5000
20
2310.7850
30
0
40
3.5000
0
TEXT
8
TEXTO
10
2992.5000
20
2306.7850
30
0
40
11.0000
1
A
0
CIRCLE
8
VISIBLE
10
3009.5000
20
2310.7850
30
0
40
3.5000
0
TEXT
8
TEXTO
10
3016.5000
20
2306.7850
30
0
40
11.0000
1
A
0
CIRCLE
8
VISIBLE
10
3985.5000
20
2310.7850
30
0
40
3.5000
0
TEXT
8
TEXTO
10
3992.5000
20
2306.7850
30
0
40
11.0000
1
A
0
CIRCLE
8
VISIBLE
10
4009.5000
20
2310.7850
30
0
40
3.5000
0
TEXT
8
TEXTO
10
4016.5000
20
2306.7850
30
0
40
11.0000
1
A
0
CIRCLE
8
VISIBLE
10
4985.5000
20
2310.7850
30
0
40
3.5000
0
TEXT
8
TEXTO
10
4992.5000
20
2306.7850
30
0
40
11.0000
1
A
0
CIRCLE
8
VISIBLE
10
5009.5000
20
2310.7850
30
0
40
3.5000
0
TEXT
8
TEXTO
10
5016.5000
20
2306.7850
30
0
40
11.0000
1
A
0
CIRCLE
8
VISIBLE
10
5212.5000
20
2271.2850
30
0
40
5.5000
0
TEXT
8
TEXTO
10
5221.5000
20
2267.2850
30
0
40
11.0000
1
C
0
CIRCLE
8
VISIBLE
10
5212.5000
20
2201.2850
30
0
40
5.5000
0
TEXT
8
TEXTO
10
5221.5000
20
2197.2850
30
0
40
11.0000
1
C
0
CIRCLE
8
VISIBLE
10
5212.5000
20
2131.2850
30
0
40
5.5000
0
TEXT
8
TEXTO
10
5221.5000
20
2127.2850
30
0
40
11.0000
1
C
0
CIRCLE
8
VISIBLE
10
5452.5000
20
2271.2850
30
0
40
5.5000
0
TEXT
8
TEXTO
10
5461.5000
20
2267.2850
30
0
40
11.0000
1
C
0
CIRCLE
8
VISIBLE
10
5452.5000
20
2201.2850
30
0
40
5.5000
0
TEXT
8
TEXTO
10
5461.5000
20
2197.2850
30
0
40
11.0000
1
C
0
CIRCLE
8
VISIBLE
10
5452.5000
20
2131.2850
30
0
40
5.5000
0
TEXT
8
TEXTO
10
5461.5000
20
2127.2850
30
0
40
11.0000
1
C
0
CIRCLE
8
VISIBLE
10
722.5000
20
2271.2850
30
0
40
5.5000
0
TEXT
8
TEXTO
10
731.5000
20
2267.2850
30
0
40
11.0000
1
C
0
CIRCLE
8
VISIBLE
10
722.5000
20
2201.2850
30
0
40
5.5000
0
TEXT
8
TEXTO
10
731.5000
20
2197.2850
30
0
40
11.0000
1
C
0
CIRCLE
8
VISIBLE
10
722.5000
20
2131.2850
30
0
40
5.5000
0
TEXT
8
TEXTO
10
731.5000
20
2127.2850
30
0
40
11.0000
1
C
0
CIRCLE
8
VISIBLE
10
962.5000
20
2271.2850
30
0
40
5.5000
0
TEXT
8
TEXTO
10
971.5000
20
2267.2850
30
0
40
11.0000
1
C
0
CIRCLE
8
VISIBLE
10
962.5000
20
2201.2850
30
0
40
5.5000
0
TEXT
8
TEXTO
10
971.5000
20
2197.2850
30
0
40
11.0000
1
C
0
CIRCLE
8
VISIBLE
10
962.5000
20
2131.2850
30
0
40
5.5000
0
TEXT
8
TEXTO
10
971.5000
20
2127.2850
30
0
40
11.0000
1
C
0
CIRCLE
8
VISIBLE
10
551.7000
20
2327.8350
30
0
40
3.5000
0
TEXT
8
TEXTO
10
558.7000
20
2323.8350
30
0
40
11.0000
1
A
0
CIRCLE
8
VISIBLE
10
551.7000
20
2351.8350
30
0
40
3.5000
0
TEXT
8
TEXTO
10
558.7000
20
2347.8350
30
0
40
11.0000
1
A
0
CIRCLE
8
VISIBLE
10
5443.3000
20
2327.8350
30
0
40
3.5000
0
TEXT
8
TEXTO
10
5450.3000
20
2323.8350
30
0
40
11.0000
1
A
0
CIRCLE
8
VISIBLE
10
5443.3000
20
2351.8350
30
0
40
3.5000
0
TEXT
8
TEXTO
10
5450.3000
20
2347.8350
30
0
40
11.0000
1
A
0
CIRCLE
8
VISIBLE
10
1125.4700
20
2078.2150
30
0
40
4.5000
0
TEXT
8
TEXTO
10
1133.4700
20
2074.2150
30
0
40
11.0000
1
B
0
CIRCLE
8
VISIBLE
10
1177.5700
20
2078.2150
30
0
40
4.5000
0
TEXT
8
TEXTO
10
1185.5700
20
2074.2150
30
0
40
11.0000
1
B
0
CIRCLE
8
VISIBLE
10
1220.7700
20
2078.2150
30
0
40
4.5000
0
TEXT
8
TEXTO
10
1228.7700
20
2074.2150
30
0
40
11.0000
1
B
0
CIRCLE
8
VISIBLE
10
1272.8700
20
2078.2150
30
0
40
4.5000
0
TEXT
8
TEXTO
10
1280.8700
20
2074.2150
30
0
40
11.0000
1
B
0
CIRCLE
8
VISIBLE
10
2923.8000
20
2078.2150
30
0
40
4.5000
0
TEXT
8
TEXTO
10
2931.8000
20
2074.2150
30
0
40
11.0000
1
B
0
CIRCLE
8
VISIBLE
10
2975.9000
20
2078.2150
30
0
40
4.5000
0
TEXT
8
TEXTO
10
2983.9000
20
2074.2150
30
0
40
11.0000
1
B
0
CIRCLE
8
VISIBLE
10
3019.1000
20
2078.2150
30
0
40
4.5000
0
TEXT
8
TEXTO
10
3027.1000
20
2074.2150
30
0
40
11.0000
1
B
0
CIRCLE
8
VISIBLE
10
3071.2000
20
2078.2150
30
0
40
4.5000
0
TEXT
8
TEXTO
10
3079.2000
20
2074.2150
30
0
40
11.0000
1
B
0
CIRCLE
8
VISIBLE
10
4723.8000
20
2078.2150
30
0
40
4.5000
0
TEXT
8
TEXTO
10
4731.8000
20
2074.2150
30
0
40
11.0000
1
B
0
CIRCLE
8
VISIBLE
10
4775.9000
20
2078.2150
30
0
40
4.5000
0
TEXT
8
TEXTO
10
4783.9000
20
2074.2150
30
0
40
11.0000
1
B
0
CIRCLE
8
VISIBLE
10
4819.1000
20
2078.2150
30
0
40
4.5000
0
TEXT
8
TEXTO
10
4827.1000
20
2074.2150
30
0
40
11.0000
1
B
0
CIRCLE
8
VISIBLE
10
4871.2000
20
2078.2150
30
0
40
4.5000
0
TEXT
8
TEXTO
10
4879.2000
20
2074.2150
30
0
40
11.0000
1
B
0
TEXT
8
TEXTO
10
497.5000
20
1998.7150
30
0
40
16.0000
1
BARRENOS (corte láser): 
0
TEXT
8
TEXTO
10
684.6360
20
1998.7150
30
0
40
16.0000
1
A = 24× Ø7  ·  
0
TEXT
8
TEXTO
10
785.3080
20
1998.7150
30
0
40
16.0000
1
B = 20× Ø9  ·  
0
TEXT
8
TEXTO
10
885.9800
20
1998.7150
30
0
40
16.0000
1
C = 12× Ø11
0
TEXT
8
TEXTO
10
497.5000
20
1976.2150
30
0
40
14.0000
1
POSICIONES: DXF de corte a escala REAL 1:1 + _agujeros.csv (X·Y·Ø de cada barreno) — contornos interiores ídem
0
LINE
8
FINA
10
497.5000
20
2089.7150
30
0
11
590.5900
21
2089.7150
31
0
0
LINE
8
PLIEGUE
10
497.5000
20
2096.5050
30
0
11
590.5900
21
2096.5050
31
0
0
LINE
8
FINA
10
497.5000
20
2103.2850
30
0
11
590.5900
21
2103.2850
31
0
0
LINE
8
FINA
10
770.5900
20
2089.7150
30
0
11
915.6700
21
2089.7150
31
0
0
LINE
8
PLIEGUE
10
770.5900
20
2096.5050
30
0
11
915.6700
21
2096.5050
31
0
0
LINE
8
FINA
10
770.5900
20
2103.2850
30
0
11
915.6700
21
2103.2850
31
0
0
LINE
8
FINA
10
1095.6700
20
2089.7150
30
0
11
5132.9400
21
2089.7150
31
0
0
LINE
8
PLIEGUE
10
1095.6700
20
2096.5050
30
0
11
5132.9400
21
2096.5050
31
0
0
LINE
8
FINA
10
1095.6700
20
2103.2850
30
0
11
5132.9400
21
2103.2850
31
0
0
LINE
8
FINA
10
5312.9400
20
2089.7150
30
0
11
5389.8400
21
2089.7150
31
0
0
LINE
8
PLIEGUE
10
5312.9400
20
2096.5050
30
0
11
5389.8400
21
2096.5050
31
0
0
LINE
8
FINA
10
5312.9400
20
2103.2850
30
0
11
5389.8400
21
2103.2850
31
0
0
TEXT
8
TEXTO
10
2997.5000
20
2110.5050
30
0
40
14.0000
1
PLEGAR ARRIBA 90° R6 — ala SEGMENTADA (muescas = paso del lazo de banda)
72
1
73
2
11
2997.5000
21
2110.5050
31
0
0
LINE
8
COTAS
10
497.5000
20
2058.7150
30
0
11
497.5000
21
2011.2150
31
0
0
LINE
8
COTAS
10
5497.5000
20
2058.7150
30
0
11
5497.5000
21
2011.2150
31
0
0
LINE
8
COTAS
10
497.5000
20
2018.7150
30
0
11
5497.5000
21
2018.7150
31
0
0
SOLID
8
COTAS
10
497.5000
20
2018.7150
30
0
11
510.0000
21
2020.9650
31
0
12
510.0000
22
2016.4650
32
0
13
510.0000
23
2016.4650
33
0
0
SOLID
8
COTAS
10
5497.5000
20
2018.7150
30
0
11
5485.0000
21
2020.9650
31
0
12
5485.0000
22
2016.4650
32
0
13
5485.0000
23
2016.4650
33
0
0
TEXT
8
COTAS
10
2997.5000
20
2029.7150
30
0
40
17.5000
1
5000
72
1
73
2
11
2997.5000
21
2029.7150
31
0
0
LINE
8
COTAS
10
5502.5000
20
2063.7150
30
0
11
5550.0000
21
2063.7150
31
0
0
LINE
8
COTAS
10
5502.5000
20
2376.2850
30
0
11
5550.0000
21
2376.2850
31
0
0
LINE
8
COTAS
10
5542.5000
20
2063.7150
30
0
11
5542.5000
21
2376.2850
31
0
0
SOLID
8
COTAS
10
5542.5000
20
2063.7150
30
0
11
5544.7500
21
2076.2150
31
0
12
5540.2500
22
2076.2150
32
0
13
5540.2500
23
2076.2150
33
0
0
SOLID
8
COTAS
10
5542.5000
20
2376.2850
30
0
11
5544.7500
21
2363.7850
31
0
12
5540.2500
22
2363.7850
32
0
13
5540.2500
23
2363.7850
33
0
0
TEXT
8
COTAS
10
5553.5000
20
2220.0000
30
0
40
17.5000
1
312.6
72
1
73
2
11
5553.5000
21
2220.0000
31
0
0
LINE
8
COTAS
10
492.5000
20
2063.7150
30
0
11
455.0000
21
2063.7150
31
0
0
LINE
8
COTAS
10
492.5000
20
2096.5050
30
0
11
455.0000
21
2096.5050
31
0
0
LINE
8
COTAS
10
462.5000
20
2063.7150
30
0
11
462.5000
21
2096.5050
31
0
0
SOLID
8
COTAS
10
462.5000
20
2063.7150
30
0
11
464.7500
21
2076.2150
31
0
12
460.2500
22
2076.2150
32
0
13
460.2500
23
2076.2150
33
0
0
SOLID
8
COTAS
10
462.5000
20
2096.5050
30
0
11
464.7500
21
2084.0050
31
0
12
460.2500
22
2084.0050
32
0
13
460.2500
23
2084.0050
33
0
0
TEXT
8
COTAS
10
473.5000
20
2080.1100
30
0
40
17.5000
1
32.8
72
1
73
2
11
473.5000
21
2080.1100
31
0
0
TEXT
8
TEXTO
10
497.5000
20
2428.7850
30
0
40
17.5000
1
DESARROLLO DE CHAPA — BA = ang·(R + K·t) · K=0.44 · R=6 · t=6 ? BA(90°)=13.57 mm
0
TEXT
8
TEXTO
10
497.5000
20
2401.2850
30
0
40
20.0000
1
ESPESOR DE CHAPA e = 6 mm (constante en toda la pieza)
0
LINE
8
FINA
10
0.0000
20
0.0000
30
0
11
5945.0000
21
0.0000
31
0
0
LINE
8
FINA
10
5945.0000
20
0.0000
30
0
11
5945.0000
21
4205.0000
31
0
0
LINE
8
FINA
10
5945.0000
20
4205.0000
30
0
11
0.0000
21
4205.0000
31
0
0
LINE
8
FINA
10
0.0000
20
4205.0000
30
0
11
0.0000
21
0.0000
31
0
0
LINE
8
NORMA
10
100.0000
20
50.0000
30
0
11
5895.0000
21
50.0000
31
0
0
LINE
8
NORMA
10
5895.0000
20
50.0000
30
0
11
5895.0000
21
4155.0000
31
0
0
LINE
8
NORMA
10
5895.0000
20
4155.0000
30
0
11
100.0000
21
4155.0000
31
0
0
LINE
8
NORMA
10
100.0000
20
4155.0000
30
0
11
100.0000
21
50.0000
31
0
0
LINE
8
NORMA
10
0.0000
20
2102.5000
30
0
11
125.0000
21
2102.5000
31
0
0
LINE
8
NORMA
10
5945.0000
20
2102.5000
30
0
11
5870.0000
21
2102.5000
31
0
0
LINE
8
NORMA
10
2972.5000
20
0.0000
30
0
11
2972.5000
21
75.0000
31
0
0
LINE
8
NORMA
10
2972.5000
20
4205.0000
30
0
11
2972.5000
21
4130.0000
31
0
0
LINE
8
FINA
10
247.7083
20
0.0000
30
0
11
247.7083
21
50.0000
31
0
0
LINE
8
FINA
10
247.7083
20
4155.0000
30
0
11
247.7083
21
4205.0000
31
0
0
LINE
8
FINA
10
495.4167
20
0.0000
30
0
11
495.4167
21
50.0000
31
0
0
LINE
8
FINA
10
495.4167
20
4155.0000
30
0
11
495.4167
21
4205.0000
31
0
0
LINE
8
FINA
10
743.1250
20
0.0000
30
0
11
743.1250
21
50.0000
31
0
0
LINE
8
FINA
10
743.1250
20
4155.0000
30
0
11
743.1250
21
4205.0000
31
0
0
LINE
8
FINA
10
990.8333
20
0.0000
30
0
11
990.8333
21
50.0000
31
0
0
LINE
8
FINA
10
990.8333
20
4155.0000
30
0
11
990.8333
21
4205.0000
31
0
0
LINE
8
FINA
10
1238.5417
20
0.0000
30
0
11
1238.5417
21
50.0000
31
0
0
LINE
8
FINA
10
1238.5417
20
4155.0000
30
0
11
1238.5417
21
4205.0000
31
0
0
LINE
8
FINA
10
1486.2500
20
0.0000
30
0
11
1486.2500
21
50.0000
31
0
0
LINE
8
FINA
10
1486.2500
20
4155.0000
30
0
11
1486.2500
21
4205.0000
31
0
0
LINE
8
FINA
10
1733.9583
20
0.0000
30
0
11
1733.9583
21
50.0000
31
0
0
LINE
8
FINA
10
1733.9583
20
4155.0000
30
0
11
1733.9583
21
4205.0000
31
0
0
LINE
8
FINA
10
1981.6667
20
0.0000
30
0
11
1981.6667
21
50.0000
31
0
0
LINE
8
FINA
10
1981.6667
20
4155.0000
30
0
11
1981.6667
21
4205.0000
31
0
0
LINE
8
FINA
10
2229.3750
20
0.0000
30
0
11
2229.3750
21
50.0000
31
0
0
LINE
8
FINA
10
2229.3750
20
4155.0000
30
0
11
2229.3750
21
4205.0000
31
0
0
LINE
8
FINA
10
2477.0833
20
0.0000
30
0
11
2477.0833
21
50.0000
31
0
0
LINE
8
FINA
10
2477.0833
20
4155.0000
30
0
11
2477.0833
21
4205.0000
31
0
0
LINE
8
FINA
10
2724.7917
20
0.0000
30
0
11
2724.7917
21
50.0000
31
0
0
LINE
8
FINA
10
2724.7917
20
4155.0000
30
0
11
2724.7917
21
4205.0000
31
0
0
LINE
8
FINA
10
2972.5000
20
0.0000
30
0
11
2972.5000
21
50.0000
31
0
0
LINE
8
FINA
10
2972.5000
20
4155.0000
30
0
11
2972.5000
21
4205.0000
31
0
0
LINE
8
FINA
10
3220.2083
20
0.0000
30
0
11
3220.2083
21
50.0000
31
0
0
LINE
8
FINA
10
3220.2083
20
4155.0000
30
0
11
3220.2083
21
4205.0000
31
0
0
LINE
8
FINA
10
3467.9167
20
0.0000
30
0
11
3467.9167
21
50.0000
31
0
0
LINE
8
FINA
10
3467.9167
20
4155.0000
30
0
11
3467.9167
21
4205.0000
31
0
0
LINE
8
FINA
10
3715.6250
20
0.0000
30
0
11
3715.6250
21
50.0000
31
0
0
LINE
8
FINA
10
3715.6250
20
4155.0000
30
0
11
3715.6250
21
4205.0000
31
0
0
LINE
8
FINA
10
3963.3333
20
0.0000
30
0
11
3963.3333
21
50.0000
31
0
0
LINE
8
FINA
10
3963.3333
20
4155.0000
30
0
11
3963.3333
21
4205.0000
31
0
0
LINE
8
FINA
10
4211.0417
20
0.0000
30
0
11
4211.0417
21
50.0000
31
0
0
LINE
8
FINA
10
4211.0417
20
4155.0000
30
0
11
4211.0417
21
4205.0000
31
0
0
LINE
8
FINA
10
4458.7500
20
0.0000
30
0
11
4458.7500
21
50.0000
31
0
0
LINE
8
FINA
10
4458.7500
20
4155.0000
30
0
11
4458.7500
21
4205.0000
31
0
0
LINE
8
FINA
10
4706.4583
20
0.0000
30
0
11
4706.4583
21
50.0000
31
0
0
LINE
8
FINA
10
4706.4583
20
4155.0000
30
0
11
4706.4583
21
4205.0000
31
0
0
LINE
8
FINA
10
4954.1667
20
0.0000
30
0
11
4954.1667
21
50.0000
31
0
0
LINE
8
FINA
10
4954.1667
20
4155.0000
30
0
11
4954.1667
21
4205.0000
31
0
0
LINE
8
FINA
10
5201.8750
20
0.0000
30
0
11
5201.8750
21
50.0000
31
0
0
LINE
8
FINA
10
5201.8750
20
4155.0000
30
0
11
5201.8750
21
4205.0000
31
0
0
LINE
8
FINA
10
5449.5833
20
0.0000
30
0
11
5449.5833
21
50.0000
31
0
0
LINE
8
FINA
10
5449.5833
20
4155.0000
30
0
11
5449.5833
21
4205.0000
31
0
0
LINE
8
FINA
10
5697.2917
20
0.0000
30
0
11
5697.2917
21
50.0000
31
0
0
LINE
8
FINA
10
5697.2917
20
4155.0000
30
0
11
5697.2917
21
4205.0000
31
0
0
LINE
8
FINA
10
0.0000
20
262.8125
30
0
11
50.0000
21
262.8125
31
0
0
LINE
8
FINA
10
5895.0000
20
262.8125
30
0
11
5945.0000
21
262.8125
31
0
0
LINE
8
FINA
10
0.0000
20
525.6250
30
0
11
50.0000
21
525.6250
31
0
0
LINE
8
FINA
10
5895.0000
20
525.6250
30
0
11
5945.0000
21
525.6250
31
0
0
LINE
8
FINA
10
0.0000
20
788.4375
30
0
11
50.0000
21
788.4375
31
0
0
LINE
8
FINA
10
5895.0000
20
788.4375
30
0
11
5945.0000
21
788.4375
31
0
0
LINE
8
FINA
10
0.0000
20
1051.2500
30
0
11
50.0000
21
1051.2500
31
0
0
LINE
8
FINA
10
5895.0000
20
1051.2500
30
0
11
5945.0000
21
1051.2500
31
0
0
LINE
8
FINA
10
0.0000
20
1314.0625
30
0
11
50.0000
21
1314.0625
31
0
0
LINE
8
FINA
10
5895.0000
20
1314.0625
30
0
11
5945.0000
21
1314.0625
31
0
0
LINE
8
FINA
10
0.0000
20
1576.8750
30
0
11
50.0000
21
1576.8750
31
0
0
LINE
8
FINA
10
5895.0000
20
1576.8750
30
0
11
5945.0000
21
1576.8750
31
0
0
LINE
8
FINA
10
0.0000
20
1839.6875
30
0
11
50.0000
21
1839.6875
31
0
0
LINE
8
FINA
10
5895.0000
20
1839.6875
30
0
11
5945.0000
21
1839.6875
31
0
0
LINE
8
FINA
10
0.0000
20
2102.5000
30
0
11
50.0000
21
2102.5000
31
0
0
LINE
8
FINA
10
5895.0000
20
2102.5000
30
0
11
5945.0000
21
2102.5000
31
0
0
LINE
8
FINA
10
0.0000
20
2365.3125
30
0
11
50.0000
21
2365.3125
31
0
0
LINE
8
FINA
10
5895.0000
20
2365.3125
30
0
11
5945.0000
21
2365.3125
31
0
0
LINE
8
FINA
10
0.0000
20
2628.1250
30
0
11
50.0000
21
2628.1250
31
0
0
LINE
8
FINA
10
5895.0000
20
2628.1250
30
0
11
5945.0000
21
2628.1250
31
0
0
LINE
8
FINA
10
0.0000
20
2890.9375
30
0
11
50.0000
21
2890.9375
31
0
0
LINE
8
FINA
10
5895.0000
20
2890.9375
30
0
11
5945.0000
21
2890.9375
31
0
0
LINE
8
FINA
10
0.0000
20
3153.7500
30
0
11
50.0000
21
3153.7500
31
0
0
LINE
8
FINA
10
5895.0000
20
3153.7500
30
0
11
5945.0000
21
3153.7500
31
0
0
LINE
8
FINA
10
0.0000
20
3416.5625
30
0
11
50.0000
21
3416.5625
31
0
0
LINE
8
FINA
10
5895.0000
20
3416.5625
30
0
11
5945.0000
21
3416.5625
31
0
0
LINE
8
FINA
10
0.0000
20
3679.3750
30
0
11
50.0000
21
3679.3750
31
0
0
LINE
8
FINA
10
5895.0000
20
3679.3750
30
0
11
5945.0000
21
3679.3750
31
0
0
LINE
8
FINA
10
0.0000
20
3942.1875
30
0
11
50.0000
21
3942.1875
31
0
0
LINE
8
FINA
10
5895.0000
20
3942.1875
30
0
11
5945.0000
21
3942.1875
31
0
0
TEXT
8
TEXTO
10
123.8542
20
25.0000
30
0
40
12.5000
1
1
72
1
73
2
11
123.8542
21
25.0000
31
0
0
TEXT
8
TEXTO
10
123.8542
20
4180.0000
30
0
40
12.5000
1
1
72
1
73
2
11
123.8542
21
4180.0000
31
0
0
TEXT
8
TEXTO
10
371.5625
20
25.0000
30
0
40
12.5000
1
2
72
1
73
2
11
371.5625
21
25.0000
31
0
0
TEXT
8
TEXTO
10
371.5625
20
4180.0000
30
0
40
12.5000
1
2
72
1
73
2
11
371.5625
21
4180.0000
31
0
0
TEXT
8
TEXTO
10
619.2708
20
25.0000
30
0
40
12.5000
1
3
72
1
73
2
11
619.2708
21
25.0000
31
0
0
TEXT
8
TEXTO
10
619.2708
20
4180.0000
30
0
40
12.5000
1
3
72
1
73
2
11
619.2708
21
4180.0000
31
0
0
TEXT
8
TEXTO
10
866.9792
20
25.0000
30
0
40
12.5000
1
4
72
1
73
2
11
866.9792
21
25.0000
31
0
0
TEXT
8
TEXTO
10
866.9792
20
4180.0000
30
0
40
12.5000
1
4
72
1
73
2
11
866.9792
21
4180.0000
31
0
0
TEXT
8
TEXTO
10
1114.6875
20
25.0000
30
0
40
12.5000
1
5
72
1
73
2
11
1114.6875
21
25.0000
31
0
0
TEXT
8
TEXTO
10
1114.6875
20
4180.0000
30
0
40
12.5000
1
5
72
1
73
2
11
1114.6875
21
4180.0000
31
0
0
TEXT
8
TEXTO
10
1362.3958
20
25.0000
30
0
40
12.5000
1
6
72
1
73
2
11
1362.3958
21
25.0000
31
0
0
TEXT
8
TEXTO
10
1362.3958
20
4180.0000
30
0
40
12.5000
1
6
72
1
73
2
11
1362.3958
21
4180.0000
31
0
0
TEXT
8
TEXTO
10
1610.1042
20
25.0000
30
0
40
12.5000
1
7
72
1
73
2
11
1610.1042
21
25.0000
31
0
0
TEXT
8
TEXTO
10
1610.1042
20
4180.0000
30
0
40
12.5000
1
7
72
1
73
2
11
1610.1042
21
4180.0000
31
0
0
TEXT
8
TEXTO
10
1857.8125
20
25.0000
30
0
40
12.5000
1
8
72
1
73
2
11
1857.8125
21
25.0000
31
0
0
TEXT
8
TEXTO
10
1857.8125
20
4180.0000
30
0
40
12.5000
1
8
72
1
73
2
11
1857.8125
21
4180.0000
31
0
0
TEXT
8
TEXTO
10
2105.5208
20
25.0000
30
0
40
12.5000
1
9
72
1
73
2
11
2105.5208
21
25.0000
31
0
0
TEXT
8
TEXTO
10
2105.5208
20
4180.0000
30
0
40
12.5000
1
9
72
1
73
2
11
2105.5208
21
4180.0000
31
0
0
TEXT
8
TEXTO
10
2353.2292
20
25.0000
30
0
40
12.5000
1
10
72
1
73
2
11
2353.2292
21
25.0000
31
0
0
TEXT
8
TEXTO
10
2353.2292
20
4180.0000
30
0
40
12.5000
1
10
72
1
73
2
11
2353.2292
21
4180.0000
31
0
0
TEXT
8
TEXTO
10
2600.9375
20
25.0000
30
0
40
12.5000
1
11
72
1
73
2
11
2600.9375
21
25.0000
31
0
0
TEXT
8
TEXTO
10
2600.9375
20
4180.0000
30
0
40
12.5000
1
11
72
1
73
2
11
2600.9375
21
4180.0000
31
0
0
TEXT
8
TEXTO
10
2848.6458
20
25.0000
30
0
40
12.5000
1
12
72
1
73
2
11
2848.6458
21
25.0000
31
0
0
TEXT
8
TEXTO
10
2848.6458
20
4180.0000
30
0
40
12.5000
1
12
72
1
73
2
11
2848.6458
21
4180.0000
31
0
0
TEXT
8
TEXTO
10
3096.3542
20
25.0000
30
0
40
12.5000
1
13
72
1
73
2
11
3096.3542
21
25.0000
31
0
0
TEXT
8
TEXTO
10
3096.3542
20
4180.0000
30
0
40
12.5000
1
13
72
1
73
2
11
3096.3542
21
4180.0000
31
0
0
TEXT
8
TEXTO
10
3344.0625
20
25.0000
30
0
40
12.5000
1
14
72
1
73
2
11
3344.0625
21
25.0000
31
0
0
TEXT
8
TEXTO
10
3344.0625
20
4180.0000
30
0
40
12.5000
1
14
72
1
73
2
11
3344.0625
21
4180.0000
31
0
0
TEXT
8
TEXTO
10
3591.7708
20
25.0000
30
0
40
12.5000
1
15
72
1
73
2
11
3591.7708
21
25.0000
31
0
0
TEXT
8
TEXTO
10
3591.7708
20
4180.0000
30
0
40
12.5000
1
15
72
1
73
2
11
3591.7708
21
4180.0000
31
0
0
TEXT
8
TEXTO
10
3839.4792
20
25.0000
30
0
40
12.5000
1
16
72
1
73
2
11
3839.4792
21
25.0000
31
0
0
TEXT
8
TEXTO
10
3839.4792
20
4180.0000
30
0
40
12.5000
1
16
72
1
73
2
11
3839.4792
21
4180.0000
31
0
0
TEXT
8
TEXTO
10
4087.1875
20
25.0000
30
0
40
12.5000
1
17
72
1
73
2
11
4087.1875
21
25.0000
31
0
0
TEXT
8
TEXTO
10
4087.1875
20
4180.0000
30
0
40
12.5000
1
17
72
1
73
2
11
4087.1875
21
4180.0000
31
0
0
TEXT
8
TEXTO
10
4334.8958
20
25.0000
30
0
40
12.5000
1
18
72
1
73
2
11
4334.8958
21
25.0000
31
0
0
TEXT
8
TEXTO
10
4334.8958
20
4180.0000
30
0
40
12.5000
1
18
72
1
73
2
11
4334.8958
21
4180.0000
31
0
0
TEXT
8
TEXTO
10
4582.6042
20
25.0000
30
0
40
12.5000
1
19
72
1
73
2
11
4582.6042
21
25.0000
31
0
0
TEXT
8
TEXTO
10
4582.6042
20
4180.0000
30
0
40
12.5000
1
19
72
1
73
2
11
4582.6042
21
4180.0000
31
0
0
TEXT
8
TEXTO
10
4830.3125
20
25.0000
30
0
40
12.5000
1
20
72
1
73
2
11
4830.3125
21
25.0000
31
0
0
TEXT
8
TEXTO
10
4830.3125
20
4180.0000
30
0
40
12.5000
1
20
72
1
73
2
11
4830.3125
21
4180.0000
31
0
0
TEXT
8
TEXTO
10
5078.0208
20
25.0000
30
0
40
12.5000
1
21
72
1
73
2
11
5078.0208
21
25.0000
31
0
0
TEXT
8
TEXTO
10
5078.0208
20
4180.0000
30
0
40
12.5000
1
21
72
1
73
2
11
5078.0208
21
4180.0000
31
0
0
TEXT
8
TEXTO
10
5325.7292
20
25.0000
30
0
40
12.5000
1
22
72
1
73
2
11
5325.7292
21
25.0000
31
0
0
TEXT
8
TEXTO
10
5325.7292
20
4180.0000
30
0
40
12.5000
1
22
72
1
73
2
11
5325.7292
21
4180.0000
31
0
0
TEXT
8
TEXTO
10
5573.4375
20
25.0000
30
0
40
12.5000
1
23
72
1
73
2
11
5573.4375
21
25.0000
31
0
0
TEXT
8
TEXTO
10
5573.4375
20
4180.0000
30
0
40
12.5000
1
23
72
1
73
2
11
5573.4375
21
4180.0000
31
0
0
TEXT
8
TEXTO
10
5821.1458
20
25.0000
30
0
40
12.5000
1
24
72
1
73
2
11
5821.1458
21
25.0000
31
0
0
TEXT
8
TEXTO
10
5821.1458
20
4180.0000
30
0
40
12.5000
1
24
72
1
73
2
11
5821.1458
21
4180.0000
31
0
0
TEXT
8
TEXTO
10
25.0000
20
4073.5938
30
0
40
12.5000
1
A
72
1
73
2
11
25.0000
21
4073.5938
31
0
0
TEXT
8
TEXTO
10
5920.0000
20
4073.5938
30
0
40
12.5000
1
A
72
1
73
2
11
5920.0000
21
4073.5938
31
0
0
TEXT
8
TEXTO
10
25.0000
20
3810.7813
30
0
40
12.5000
1
B
72
1
73
2
11
25.0000
21
3810.7813
31
0
0
TEXT
8
TEXTO
10
5920.0000
20
3810.7813
30
0
40
12.5000
1
B
72
1
73
2
11
5920.0000
21
3810.7813
31
0
0
TEXT
8
TEXTO
10
25.0000
20
3547.9688
30
0
40
12.5000
1
C
72
1
73
2
11
25.0000
21
3547.9688
31
0
0
TEXT
8
TEXTO
10
5920.0000
20
3547.9688
30
0
40
12.5000
1
C
72
1
73
2
11
5920.0000
21
3547.9688
31
0
0
TEXT
8
TEXTO
10
25.0000
20
3285.1563
30
0
40
12.5000
1
D
72
1
73
2
11
25.0000
21
3285.1563
31
0
0
TEXT
8
TEXTO
10
5920.0000
20
3285.1563
30
0
40
12.5000
1
D
72
1
73
2
11
5920.0000
21
3285.1563
31
0
0
TEXT
8
TEXTO
10
25.0000
20
3022.3438
30
0
40
12.5000
1
E
72
1
73
2
11
25.0000
21
3022.3438
31
0
0
TEXT
8
TEXTO
10
5920.0000
20
3022.3438
30
0
40
12.5000
1
E
72
1
73
2
11
5920.0000
21
3022.3438
31
0
0
TEXT
8
TEXTO
10
25.0000
20
2759.5313
30
0
40
12.5000
1
F
72
1
73
2
11
25.0000
21
2759.5313
31
0
0
TEXT
8
TEXTO
10
5920.0000
20
2759.5313
30
0
40
12.5000
1
F
72
1
73
2
11
5920.0000
21
2759.5313
31
0
0
TEXT
8
TEXTO
10
25.0000
20
2496.7188
30
0
40
12.5000
1
G
72
1
73
2
11
25.0000
21
2496.7188
31
0
0
TEXT
8
TEXTO
10
5920.0000
20
2496.7188
30
0
40
12.5000
1
G
72
1
73
2
11
5920.0000
21
2496.7188
31
0
0
TEXT
8
TEXTO
10
25.0000
20
2233.9063
30
0
40
12.5000
1
H
72
1
73
2
11
25.0000
21
2233.9063
31
0
0
TEXT
8
TEXTO
10
5920.0000
20
2233.9063
30
0
40
12.5000
1
H
72
1
73
2
11
5920.0000
21
2233.9063
31
0
0
TEXT
8
TEXTO
10
25.0000
20
1971.0938
30
0
40
12.5000
1
J
72
1
73
2
11
25.0000
21
1971.0938
31
0
0
TEXT
8
TEXTO
10
5920.0000
20
1971.0938
30
0
40
12.5000
1
J
72
1
73
2
11
5920.0000
21
1971.0938
31
0
0
TEXT
8
TEXTO
10
25.0000
20
1708.2813
30
0
40
12.5000
1
K
72
1
73
2
11
25.0000
21
1708.2813
31
0
0
TEXT
8
TEXTO
10
5920.0000
20
1708.2813
30
0
40
12.5000
1
K
72
1
73
2
11
5920.0000
21
1708.2813
31
0
0
TEXT
8
TEXTO
10
25.0000
20
1445.4688
30
0
40
12.5000
1
L
72
1
73
2
11
25.0000
21
1445.4688
31
0
0
TEXT
8
TEXTO
10
5920.0000
20
1445.4688
30
0
40
12.5000
1
L
72
1
73
2
11
5920.0000
21
1445.4688
31
0
0
TEXT
8
TEXTO
10
25.0000
20
1182.6563
30
0
40
12.5000
1
M
72
1
73
2
11
25.0000
21
1182.6563
31
0
0
TEXT
8
TEXTO
10
5920.0000
20
1182.6563
30
0
40
12.5000
1
M
72
1
73
2
11
5920.0000
21
1182.6563
31
0
0
TEXT
8
TEXTO
10
25.0000
20
919.8438
30
0
40
12.5000
1
N
72
1
73
2
11
25.0000
21
919.8438
31
0
0
TEXT
8
TEXTO
10
5920.0000
20
919.8438
30
0
40
12.5000
1
N
72
1
73
2
11
5920.0000
21
919.8438
31
0
0
TEXT
8
TEXTO
10
25.0000
20
657.0313
30
0
40
12.5000
1
P
72
1
73
2
11
25.0000
21
657.0313
31
0
0
TEXT
8
TEXTO
10
5920.0000
20
657.0313
30
0
40
12.5000
1
P
72
1
73
2
11
5920.0000
21
657.0313
31
0
0
TEXT
8
TEXTO
10
25.0000
20
394.2188
30
0
40
12.5000
1
Q
72
1
73
2
11
25.0000
21
394.2188
31
0
0
TEXT
8
TEXTO
10
5920.0000
20
394.2188
30
0
40
12.5000
1
Q
72
1
73
2
11
5920.0000
21
394.2188
31
0
0
TEXT
8
TEXTO
10
25.0000
20
131.4063
30
0
40
12.5000
1
R
72
1
73
2
11
25.0000
21
131.4063
31
0
0
TEXT
8
TEXTO
10
5920.0000
20
131.4063
30
0
40
12.5000
1
R
72
1
73
2
11
5920.0000
21
131.4063
31
0
0
LINE
8
NORMA
10
4995.0000
20
50.0000
30
0
11
5895.0000
21
50.0000
31
0
0
LINE
8
NORMA
10
5895.0000
20
50.0000
30
0
11
5895.0000
21
260.0000
31
0
0
LINE
8
NORMA
10
5895.0000
20
260.0000
30
0
11
4995.0000
21
260.0000
31
0
0
LINE
8
NORMA
10
4995.0000
20
260.0000
30
0
11
4995.0000
21
50.0000
31
0
0
LINE
8
NORMA
10
5195.0000
20
50.0000
30
0
11
5195.0000
21
260.0000
31
0
0
LINE
8
NORMA
10
5665.0000
20
50.0000
30
0
11
5665.0000
21
260.0000
31
0
0
LINE
8
FINA
10
4995.0000
20
145.0000
30
0
11
5195.0000
21
145.0000
31
0
0
TEXT
8
TEXTO
10
5095.0000
20
217.0000
30
0
40
24.5000
1
ConveyOne
72
1
73
2
11
5095.0000
21
217.0000
31
0
0
LINE
8
FINA
10
5027.5000
20
193.0000
30
0
11
5162.5000
21
193.0000
31
0
0
TEXT
8
TEXTO
10
5095.0000
20
179.0000
30
0
40
6.5000
1
CAD · DISEÑO CAPA USER
72
1
73
2
11
5095.0000
21
179.0000
31
0
0
TEXT
8
TEXTO
10
5095.0000
20
163.0000
30
0
40
6.5000
1
ISO 5457 · 7200 · 129 · 5456-2
72
1
73
2
11
5095.0000
21
163.0000
31
0
0
TEXT
8
TEXTO
10
5095.0000
20
133.0000
30
0
40
7.0000
1
PROYECCIÓN — PRIMER DIEDRO
72
1
73
2
11
5095.0000
21
133.0000
31
0
0
CIRCLE
8
TEXTO
10
5072.0000
20
87.5000
30
0
40
14.9500
0
CIRCLE
8
TEXTO
10
5072.0000
20
87.5000
30
0
40
8.0500
0
LINE
8
TEXTO
10
5097.3000
20
72.5500
30
0
11
5132.9500
21
79.4500
31
0
0
LINE
8
TEXTO
10
5132.9500
20
79.4500
30
0
11
5132.9500
21
95.5500
31
0
0
LINE
8
TEXTO
10
5132.9500
20
95.5500
30
0
11
5097.3000
21
102.4500
31
0
0
LINE
8
TEXTO
10
5097.3000
20
102.4500
30
0
11
5097.3000
21
72.5500
31
0
0
LINE
8
FINA
10
5050.1500
20
87.5000
30
0
11
5139.8500
21
87.5000
31
0
0
LINE
8
FINA
10
5195.0000
20
195.0000
30
0
11
5665.0000
21
195.0000
31
0
0
LINE
8
FINA
10
5195.0000
20
145.0000
30
0
11
5665.0000
21
145.0000
31
0
0
LINE
8
FINA
10
5195.0000
20
95.0000
30
0
11
5665.0000
21
95.0000
31
0
0
LINE
8
FINA
10
5430.0000
20
145.0000
30
0
11
5430.0000
21
195.0000
31
0
0
LINE
8
FINA
10
5475.0000
20
95.0000
30
0
11
5475.0000
21
145.0000
31
0
0
TEXT
8
TEXTO
10
5201.5000
20
248.0000
30
0
40
7.0000
1
DESIGNACIÓN
0
TEXT
8
TEXTO
10
5203.0000
20
220.5000
30
0
40
10.0000
1
LBD-12 · Placa lateral PL6 L=5000 (ambidiestra ×2 — la mano la da el pliegue) (x2 — 1 SEGÚN VI…
72
0
73
2
11
5203.0000
21
220.5000
31
0
0
TEXT
8
TEXTO
10
5201.5000
20
183.0000
30
0
40
7.0000
1
PROYECTO
0
TEXT
8
TEXTO
10
5203.0000
20
163.0000
30
0
40
10.6647
1
CV-LBP-5000 · Movex 530 LBP 18 in × 5.0 m
72
0
73
2
11
5203.0000
21
163.0000
31
0
0
TEXT
8
TEXTO
10
5436.5000
20
183.0000
30
0
40
7.0000
1
FUENTE
0
TEXT
8
TEXTO
10
5438.0000
20
163.0000
30
0
40
12.0000
1
chapa plegada — capa user
72
0
73
2
11
5438.0000
21
163.0000
31
0
0
TEXT
8
TEXTO
10
5201.5000
20
133.0000
30
0
40
7.0000
1
VERIFICACIÓN DE ESCALA
0
TEXT
8
TEXTO
10
5203.0000
20
113.0000
30
0
40
12.0000
1
CAD EN MM (CAPA USER)
72
0
73
2
11
5203.0000
21
113.0000
31
0
0
TEXT
8
TEXTO
10
5481.5000
20
133.0000
30
0
40
7.0000
1
PLIEGUES
0
TEXT
8
TEXTO
10
5483.0000
20
113.0000
30
0
40
13.0000
1
1
72
0
73
2
11
5483.0000
21
113.0000
31
0
0
TEXT
8
TEXTO
10
5201.5000
20
83.0000
30
0
40
7.0000
1
NOTA
0
TEXT
8
TEXTO
10
5203.0000
20
65.5000
30
0
40
10.0000
1
Acero S275JR PL6 — terminación PINTADO RAL 7035 (decisión Sergio 12-08) · e6 · tol. gral. ISO …
72
0
73
2
11
5203.0000
21
65.5000
31
0
0
LINE
8
FINA
10
5665.0000
20
195.0000
30
0
11
5895.0000
21
195.0000
31
0
0
LINE
8
FINA
10
5665.0000
20
145.0000
30
0
11
5895.0000
21
145.0000
31
0
0
LINE
8
FINA
10
5665.0000
20
95.0000
30
0
11
5895.0000
21
95.0000
31
0
0
LINE
8
FINA
10
5780.0000
20
145.0000
30
0
11
5780.0000
21
195.0000
31
0
0
LINE
8
FINA
10
5795.0000
20
95.0000
30
0
11
5795.0000
21
145.0000
31
0
0
TEXT
8
TEXTO
10
5671.5000
20
248.0000
30
0
40
7.0000
1
ESCALA
0
TEXT
8
TEXTO
10
5780.0000
20
220.5000
30
0
40
25.0000
1
1:5
72
1
73
2
11
5780.0000
21
220.5000
31
0
0
TEXT
8
TEXTO
10
5671.5000
20
183.0000
30
0
40
7.0000
1
FORMATO
0
TEXT
8
TEXTO
10
5702.5000
20
163.0000
30
0
40
13.0000
1
A0
72
1
73
2
11
5702.5000
21
163.0000
31
0
0
TEXT
8
TEXTO
10
5746.5000
20
183.0000
30
0
40
7.0000
1
LÁMINA
0
TEXT
8
TEXTO
10
5777.5000
20
163.0000
30
0
40
12.0000
1
1 / 1
72
1
73
2
11
5777.5000
21
163.0000
31
0
0
LINE
8
FINA
10
5815.0000
20
145.0000
30
0
11
5815.0000
21
195.0000
31
0
0
TEXT
8
TEXTO
10
5821.5000
20
183.0000
30
0
40
7.0000
1
REV
0
TEXT
8
TEXTO
10
5855.0000
20
163.0000
30
0
40
23.0000
1
—
72
1
73
2
11
5855.0000
21
163.0000
31
0
0
TEXT
8
TEXTO
10
5671.5000
20
133.0000
30
0
40
7.0000
1
FECHA
0
TEXT
8
TEXTO
10
5730.0000
20
113.0000
30
0
40
13.0000
1
2026-09-01
72
1
73
2
11
5730.0000
21
113.0000
31
0
0
TEXT
8
TEXTO
10
5801.5000
20
133.0000
30
0
40
7.0000
1
UNIDADES
0
TEXT
8
TEXTO
10
5845.0000
20
113.0000
30
0
40
15.0000
1
mm
72
1
73
2
11
5845.0000
21
113.0000
31
0
0
TEXT
8
TEXTO
10
5671.5000
20
83.0000
30
0
40
7.0000
1
Nº DE PLANO
0
TEXT
8
TEXTO
10
5780.0000
20
65.5000
30
0
40
13.0000
1
LBD-12
72
1
73
2
11
5780.0000
21
65.5000
31
0
0
TEXT
8
TEXTO
10
4995.0000
20
282.5000
30
0
40
10.0000
1
DIBUJÓ: Célula de Diseño ConveyOne · REVISÓ: panel adversarial · APROBÓ: S. Contreras — PENDIENTE DE FIRMA
0
ENDSEC
0
EOF
