0
SECTION
2
HEADER
9
$ACADVER
1
AC1009
9
$DWGCODEPAGE
3
ANSI_1252
0
ENDSEC
0
SECTION
2
TABLES
0
TABLE
2
LTYPE
70
2
0
LTYPE
2
CONTINUOUS
70
0
3
Solid line
72
65
73
0
40
0
0
LTYPE
2
DASHED
70
0
3
Segmentada __ __ __
72
65
73
2
40
6
49
4
49
-2
0
ENDTAB
0
TABLE
2
LAYER
70
7
0
LAYER
2
SOMBRA
70
0
62
8
6
CONTINUOUS
0
LAYER
2
NORMA
70
0
62
7
6
CONTINUOUS
0
LAYER
2
FINA
70
0
62
7
6
CONTINUOUS
0
LAYER
2
VISIBLE
70
0
62
7
6
CONTINUOUS
0
LAYER
2
COTAS
70
0
62
7
6
CONTINUOUS
0
LAYER
2
TEXTO
70
0
62
7
6
CONTINUOUS
0
LAYER
2
PLIEGUE
70
0
62
1
6
DASHED
0
ENDTAB
0
ENDSEC
0
SECTION
2
ENTITIES
0
LINE
8
VISIBLE
10
619.1950
20
223.2150
30
0
11
1269.1950
21
223.2150
31
0
0
LINE
8
VISIBLE
10
1269.1950
20
223.2150
30
0
11
1269.1950
21
429.0050
31
0
0
LINE
8
VISIBLE
10
1269.1950
20
429.0050
30
0
11
1269.1950
21
853.0050
31
0
0
LINE
8
VISIBLE
10
1269.1950
20
853.0050
30
0
11
1269.1950
21
1058.7850
31
0
0
LINE
8
VISIBLE
10
1269.1950
20
1058.7850
30
0
11
619.1950
21
1058.7850
31
0
0
LINE
8
VISIBLE
10
619.1950
20
1058.7850
30
0
11
619.1950
21
853.0050
31
0
0
LINE
8
VISIBLE
10
619.1950
20
853.0050
30
0
11
432.8050
21
853.0050
31
0
0
LINE
8
VISIBLE
10
432.8050
20
853.0050
30
0
11
432.8050
21
429.0050
31
0
0
LINE
8
VISIBLE
10
432.8050
20
429.0050
30
0
11
619.1950
21
429.0050
31
0
0
LINE
8
VISIBLE
10
619.1950
20
429.0050
30
0
11
619.1950
21
223.2150
31
0
0
LINE
8
VISIBLE
10
619.1950
20
223.2150
30
0
11
619.1950
21
223.2150
31
0
0
CIRCLE
8
VISIBLE
10
719.1950
20
229.7150
30
0
40
3.5000
0
CIRCLE
8
VISIBLE
10
719.1950
20
1052.2850
30
0
40
3.5000
0
CIRCLE
8
VISIBLE
10
999.1950
20
229.7150
30
0
40
3.5000
0
CIRCLE
8
VISIBLE
10
999.1950
20
1052.2850
30
0
40
3.5000
0
TEXT
8
TEXTO
10
432.8050
20
211.2150
30
0
40
6.4000
1
BARRENOS: 4× · Ø 7 mm (corte láser)
0
LINE
8
FINA
10
619.1950
20
236.2150
30
0
11
1269.1950
21
236.2150
31
0
0
LINE
8
PLIEGUE
10
619.1950
20
237.9150
30
0
11
1269.1950
21
237.9150
31
0
0
LINE
8
FINA
10
619.1950
20
239.6050
30
0
11
1269.1950
21
239.6050
31
0
0
LINE
8
FINA
10
619.1950
20
425.6050
30
0
11
1269.1950
21
425.6050
31
0
0
LINE
8
PLIEGUE
10
619.1950
20
427.3050
30
0
11
1269.1950
21
427.3050
31
0
0
LINE
8
FINA
10
619.1950
20
429.0050
30
0
11
1269.1950
21
429.0050
31
0
0
LINE
8
FINA
10
619.1950
20
853.0050
30
0
11
1269.1950
21
853.0050
31
0
0
LINE
8
PLIEGUE
10
619.1950
20
854.6950
30
0
11
1269.1950
21
854.6950
31
0
0
LINE
8
FINA
10
619.1950
20
856.3950
30
0
11
1269.1950
21
856.3950
31
0
0
LINE
8
FINA
10
619.1950
20
1042.3950
30
0
11
1269.1950
21
1042.3950
31
0
0
LINE
8
PLIEGUE
10
619.1950
20
1044.0950
30
0
11
1269.1950
21
1044.0950
31
0
0
LINE
8
FINA
10
619.1950
20
1045.7850
30
0
11
1269.1950
21
1045.7850
31
0
0
LINE
8
PLIEGUE
10
619.1950
20
429.0050
30
0
11
619.1950
21
853.0050
31
0
0
TEXT
8
TEXTO
10
944.1950
20
641.0050
30
0
40
5.0000
1
4 PLIEGUES 90° R1.5 — ARTESA EN U + TAPA(S) DE EXTREMO
72
1
73
2
11
944.1950
21
641.0050
31
0
0
LINE
8
COTAS
10
432.8050
20
221.2150
30
0
11
432.8050
21
202.2150
31
0
0
LINE
8
COTAS
10
1269.1950
20
221.2150
30
0
11
1269.1950
21
202.2150
31
0
0
LINE
8
COTAS
10
432.8050
20
205.2150
30
0
11
1269.1950
21
205.2150
31
0
0
SOLID
8
COTAS
10
432.8050
20
205.2150
30
0
11
437.8050
21
206.1150
31
0
12
437.8050
22
204.3150
32
0
13
437.8050
23
204.3150
33
0
0
SOLID
8
COTAS
10
1269.1950
20
205.2150
30
0
11
1264.1950
21
206.1150
31
0
12
1264.1950
22
204.3150
32
0
13
1264.1950
23
204.3150
33
0
0
TEXT
8
COTAS
10
851.0000
20
209.6150
30
0
40
7.0000
1
836.4
72
1
73
2
11
851.0000
21
209.6150
31
0
0
LINE
8
COTAS
10
1271.1950
20
223.2150
30
0
11
1290.1950
21
223.2150
31
0
0
LINE
8
COTAS
10
1271.1950
20
1058.7850
30
0
11
1290.1950
21
1058.7850
31
0
0
LINE
8
COTAS
10
1287.1950
20
223.2150
30
0
11
1287.1950
21
1058.7850
31
0
0
SOLID
8
COTAS
10
1287.1950
20
223.2150
30
0
11
1288.0950
21
228.2150
31
0
12
1286.2950
22
228.2150
32
0
13
1286.2950
23
228.2150
33
0
0
SOLID
8
COTAS
10
1287.1950
20
1058.7850
30
0
11
1288.0950
21
1053.7850
31
0
12
1286.2950
22
1053.7850
32
0
13
1286.2950
23
1053.7850
33
0
0
TEXT
8
COTAS
10
1291.5950
20
641.0000
30
0
40
7.0000
1
835.6
72
1
73
2
11
1291.5950
21
641.0000
31
0
0
TEXT
8
TEXTO
10
432.8050
20
1079.7850
30
0
40
7.0000
1
DESARROLLO DE CHAPA — BA = ang·(R + K·t), fibra neutra por factor K
0
TEXT
8
TEXTO
10
432.8050
20
1068.7850
30
0
40
8.0000
1
ESPESOR DE CHAPA e = 1.5 mm (constante en toda la pieza)
0
LINE
8
FINA
10
0.0000
20
0.0000
30
0
11
1682.0000
21
0.0000
31
0
0
LINE
8
FINA
10
1682.0000
20
0.0000
30
0
11
1682.0000
21
1188.0000
31
0
0
LINE
8
FINA
10
1682.0000
20
1188.0000
30
0
11
0.0000
21
1188.0000
31
0
0
LINE
8
FINA
10
0.0000
20
1188.0000
30
0
11
0.0000
21
0.0000
31
0
0
LINE
8
NORMA
10
40.0000
20
20.0000
30
0
11
1662.0000
21
20.0000
31
0
0
LINE
8
NORMA
10
1662.0000
20
20.0000
30
0
11
1662.0000
21
1168.0000
31
0
0
LINE
8
NORMA
10
1662.0000
20
1168.0000
30
0
11
40.0000
21
1168.0000
31
0
0
LINE
8
NORMA
10
40.0000
20
1168.0000
30
0
11
40.0000
21
20.0000
31
0
0
LINE
8
NORMA
10
0.0000
20
594.0000
30
0
11
50.0000
21
594.0000
31
0
0
LINE
8
NORMA
10
1682.0000
20
594.0000
30
0
11
1652.0000
21
594.0000
31
0
0
LINE
8
NORMA
10
841.0000
20
0.0000
30
0
11
841.0000
21
30.0000
31
0
0
LINE
8
NORMA
10
841.0000
20
1188.0000
30
0
11
841.0000
21
1158.0000
31
0
0
LINE
8
FINA
10
105.1250
20
0.0000
30
0
11
105.1250
21
20.0000
31
0
0
LINE
8
FINA
10
105.1250
20
1168.0000
30
0
11
105.1250
21
1188.0000
31
0
0
LINE
8
FINA
10
210.2500
20
0.0000
30
0
11
210.2500
21
20.0000
31
0
0
LINE
8
FINA
10
210.2500
20
1168.0000
30
0
11
210.2500
21
1188.0000
31
0
0
LINE
8
FINA
10
315.3750
20
0.0000
30
0
11
315.3750
21
20.0000
31
0
0
LINE
8
FINA
10
315.3750
20
1168.0000
30
0
11
315.3750
21
1188.0000
31
0
0
LINE
8
FINA
10
420.5000
20
0.0000
30
0
11
420.5000
21
20.0000
31
0
0
LINE
8
FINA
10
420.5000
20
1168.0000
30
0
11
420.5000
21
1188.0000
31
0
0
LINE
8
FINA
10
525.6250
20
0.0000
30
0
11
525.6250
21
20.0000
31
0
0
LINE
8
FINA
10
525.6250
20
1168.0000
30
0
11
525.6250
21
1188.0000
31
0
0
LINE
8
FINA
10
630.7500
20
0.0000
30
0
11
630.7500
21
20.0000
31
0
0
LINE
8
FINA
10
630.7500
20
1168.0000
30
0
11
630.7500
21
1188.0000
31
0
0
LINE
8
FINA
10
735.8750
20
0.0000
30
0
11
735.8750
21
20.0000
31
0
0
LINE
8
FINA
10
735.8750
20
1168.0000
30
0
11
735.8750
21
1188.0000
31
0
0
LINE
8
FINA
10
841.0000
20
0.0000
30
0
11
841.0000
21
20.0000
31
0
0
LINE
8
FINA
10
841.0000
20
1168.0000
30
0
11
841.0000
21
1188.0000
31
0
0
LINE
8
FINA
10
946.1250
20
0.0000
30
0
11
946.1250
21
20.0000
31
0
0
LINE
8
FINA
10
946.1250
20
1168.0000
30
0
11
946.1250
21
1188.0000
31
0
0
LINE
8
FINA
10
1051.2500
20
0.0000
30
0
11
1051.2500
21
20.0000
31
0
0
LINE
8
FINA
10
1051.2500
20
1168.0000
30
0
11
1051.2500
21
1188.0000
31
0
0
LINE
8
FINA
10
1156.3750
20
0.0000
30
0
11
1156.3750
21
20.0000
31
0
0
LINE
8
FINA
10
1156.3750
20
1168.0000
30
0
11
1156.3750
21
1188.0000
31
0
0
LINE
8
FINA
10
1261.5000
20
0.0000
30
0
11
1261.5000
21
20.0000
31
0
0
LINE
8
FINA
10
1261.5000
20
1168.0000
30
0
11
1261.5000
21
1188.0000
31
0
0
LINE
8
FINA
10
1366.6250
20
0.0000
30
0
11
1366.6250
21
20.0000
31
0
0
LINE
8
FINA
10
1366.6250
20
1168.0000
30
0
11
1366.6250
21
1188.0000
31
0
0
LINE
8
FINA
10
1471.7500
20
0.0000
30
0
11
1471.7500
21
20.0000
31
0
0
LINE
8
FINA
10
1471.7500
20
1168.0000
30
0
11
1471.7500
21
1188.0000
31
0
0
LINE
8
FINA
10
1576.8750
20
0.0000
30
0
11
1576.8750
21
20.0000
31
0
0
LINE
8
FINA
10
1576.8750
20
1168.0000
30
0
11
1576.8750
21
1188.0000
31
0
0
LINE
8
FINA
10
0.0000
20
99.0000
30
0
11
20.0000
21
99.0000
31
0
0
LINE
8
FINA
10
1662.0000
20
99.0000
30
0
11
1682.0000
21
99.0000
31
0
0
LINE
8
FINA
10
0.0000
20
198.0000
30
0
11
20.0000
21
198.0000
31
0
0
LINE
8
FINA
10
1662.0000
20
198.0000
30
0
11
1682.0000
21
198.0000
31
0
0
LINE
8
FINA
10
0.0000
20
297.0000
30
0
11
20.0000
21
297.0000
31
0
0
LINE
8
FINA
10
1662.0000
20
297.0000
30
0
11
1682.0000
21
297.0000
31
0
0
LINE
8
FINA
10
0.0000
20
396.0000
30
0
11
20.0000
21
396.0000
31
0
0
LINE
8
FINA
10
1662.0000
20
396.0000
30
0
11
1682.0000
21
396.0000
31
0
0
LINE
8
FINA
10
0.0000
20
495.0000
30
0
11
20.0000
21
495.0000
31
0
0
LINE
8
FINA
10
1662.0000
20
495.0000
30
0
11
1682.0000
21
495.0000
31
0
0
LINE
8
FINA
10
0.0000
20
594.0000
30
0
11
20.0000
21
594.0000
31
0
0
LINE
8
FINA
10
1662.0000
20
594.0000
30
0
11
1682.0000
21
594.0000
31
0
0
LINE
8
FINA
10
0.0000
20
693.0000
30
0
11
20.0000
21
693.0000
31
0
0
LINE
8
FINA
10
1662.0000
20
693.0000
30
0
11
1682.0000
21
693.0000
31
0
0
LINE
8
FINA
10
0.0000
20
792.0000
30
0
11
20.0000
21
792.0000
31
0
0
LINE
8
FINA
10
1662.0000
20
792.0000
30
0
11
1682.0000
21
792.0000
31
0
0
LINE
8
FINA
10
0.0000
20
891.0000
30
0
11
20.0000
21
891.0000
31
0
0
LINE
8
FINA
10
1662.0000
20
891.0000
30
0
11
1682.0000
21
891.0000
31
0
0
LINE
8
FINA
10
0.0000
20
990.0000
30
0
11
20.0000
21
990.0000
31
0
0
LINE
8
FINA
10
1662.0000
20
990.0000
30
0
11
1682.0000
21
990.0000
31
0
0
LINE
8
FINA
10
0.0000
20
1089.0000
30
0
11
20.0000
21
1089.0000
31
0
0
LINE
8
FINA
10
1662.0000
20
1089.0000
30
0
11
1682.0000
21
1089.0000
31
0
0
TEXT
8
TEXTO
10
52.5625
20
10.0000
30
0
40
5.0000
1
1
72
1
73
2
11
52.5625
21
10.0000
31
0
0
TEXT
8
TEXTO
10
52.5625
20
1178.0000
30
0
40
5.0000
1
1
72
1
73
2
11
52.5625
21
1178.0000
31
0
0
TEXT
8
TEXTO
10
157.6875
20
10.0000
30
0
40
5.0000
1
2
72
1
73
2
11
157.6875
21
10.0000
31
0
0
TEXT
8
TEXTO
10
157.6875
20
1178.0000
30
0
40
5.0000
1
2
72
1
73
2
11
157.6875
21
1178.0000
31
0
0
TEXT
8
TEXTO
10
262.8125
20
10.0000
30
0
40
5.0000
1
3
72
1
73
2
11
262.8125
21
10.0000
31
0
0
TEXT
8
TEXTO
10
262.8125
20
1178.0000
30
0
40
5.0000
1
3
72
1
73
2
11
262.8125
21
1178.0000
31
0
0
TEXT
8
TEXTO
10
367.9375
20
10.0000
30
0
40
5.0000
1
4
72
1
73
2
11
367.9375
21
10.0000
31
0
0
TEXT
8
TEXTO
10
367.9375
20
1178.0000
30
0
40
5.0000
1
4
72
1
73
2
11
367.9375
21
1178.0000
31
0
0
TEXT
8
TEXTO
10
473.0625
20
10.0000
30
0
40
5.0000
1
5
72
1
73
2
11
473.0625
21
10.0000
31
0
0
TEXT
8
TEXTO
10
473.0625
20
1178.0000
30
0
40
5.0000
1
5
72
1
73
2
11
473.0625
21
1178.0000
31
0
0
TEXT
8
TEXTO
10
578.1875
20
10.0000
30
0
40
5.0000
1
6
72
1
73
2
11
578.1875
21
10.0000
31
0
0
TEXT
8
TEXTO
10
578.1875
20
1178.0000
30
0
40
5.0000
1
6
72
1
73
2
11
578.1875
21
1178.0000
31
0
0
TEXT
8
TEXTO
10
683.3125
20
10.0000
30
0
40
5.0000
1
7
72
1
73
2
11
683.3125
21
10.0000
31
0
0
TEXT
8
TEXTO
10
683.3125
20
1178.0000
30
0
40
5.0000
1
7
72
1
73
2
11
683.3125
21
1178.0000
31
0
0
TEXT
8
TEXTO
10
788.4375
20
10.0000
30
0
40
5.0000
1
8
72
1
73
2
11
788.4375
21
10.0000
31
0
0
TEXT
8
TEXTO
10
788.4375
20
1178.0000
30
0
40
5.0000
1
8
72
1
73
2
11
788.4375
21
1178.0000
31
0
0
TEXT
8
TEXTO
10
893.5625
20
10.0000
30
0
40
5.0000
1
9
72
1
73
2
11
893.5625
21
10.0000
31
0
0
TEXT
8
TEXTO
10
893.5625
20
1178.0000
30
0
40
5.0000
1
9
72
1
73
2
11
893.5625
21
1178.0000
31
0
0
TEXT
8
TEXTO
10
998.6875
20
10.0000
30
0
40
5.0000
1
10
72
1
73
2
11
998.6875
21
10.0000
31
0
0
TEXT
8
TEXTO
10
998.6875
20
1178.0000
30
0
40
5.0000
1
10
72
1
73
2
11
998.6875
21
1178.0000
31
0
0
TEXT
8
TEXTO
10
1103.8125
20
10.0000
30
0
40
5.0000
1
11
72
1
73
2
11
1103.8125
21
10.0000
31
0
0
TEXT
8
TEXTO
10
1103.8125
20
1178.0000
30
0
40
5.0000
1
11
72
1
73
2
11
1103.8125
21
1178.0000
31
0
0
TEXT
8
TEXTO
10
1208.9375
20
10.0000
30
0
40
5.0000
1
12
72
1
73
2
11
1208.9375
21
10.0000
31
0
0
TEXT
8
TEXTO
10
1208.9375
20
1178.0000
30
0
40
5.0000
1
12
72
1
73
2
11
1208.9375
21
1178.0000
31
0
0
TEXT
8
TEXTO
10
1314.0625
20
10.0000
30
0
40
5.0000
1
13
72
1
73
2
11
1314.0625
21
10.0000
31
0
0
TEXT
8
TEXTO
10
1314.0625
20
1178.0000
30
0
40
5.0000
1
13
72
1
73
2
11
1314.0625
21
1178.0000
31
0
0
TEXT
8
TEXTO
10
1419.1875
20
10.0000
30
0
40
5.0000
1
14
72
1
73
2
11
1419.1875
21
10.0000
31
0
0
TEXT
8
TEXTO
10
1419.1875
20
1178.0000
30
0
40
5.0000
1
14
72
1
73
2
11
1419.1875
21
1178.0000
31
0
0
TEXT
8
TEXTO
10
1524.3125
20
10.0000
30
0
40
5.0000
1
15
72
1
73
2
11
1524.3125
21
10.0000
31
0
0
TEXT
8
TEXTO
10
1524.3125
20
1178.0000
30
0
40
5.0000
1
15
72
1
73
2
11
1524.3125
21
1178.0000
31
0
0
TEXT
8
TEXTO
10
1629.4375
20
10.0000
30
0
40
5.0000
1
16
72
1
73
2
11
1629.4375
21
10.0000
31
0
0
TEXT
8
TEXTO
10
1629.4375
20
1178.0000
30
0
40
5.0000
1
16
72
1
73
2
11
1629.4375
21
1178.0000
31
0
0
TEXT
8
TEXTO
10
10.0000
20
1138.5000
30
0
40
5.0000
1
A
72
1
73
2
11
10.0000
21
1138.5000
31
0
0
TEXT
8
TEXTO
10
1672.0000
20
1138.5000
30
0
40
5.0000
1
A
72
1
73
2
11
1672.0000
21
1138.5000
31
0
0
TEXT
8
TEXTO
10
10.0000
20
1039.5000
30
0
40
5.0000
1
B
72
1
73
2
11
10.0000
21
1039.5000
31
0
0
TEXT
8
TEXTO
10
1672.0000
20
1039.5000
30
0
40
5.0000
1
B
72
1
73
2
11
1672.0000
21
1039.5000
31
0
0
TEXT
8
TEXTO
10
10.0000
20
940.5000
30
0
40
5.0000
1
C
72
1
73
2
11
10.0000
21
940.5000
31
0
0
TEXT
8
TEXTO
10
1672.0000
20
940.5000
30
0
40
5.0000
1
C
72
1
73
2
11
1672.0000
21
940.5000
31
0
0
TEXT
8
TEXTO
10
10.0000
20
841.5000
30
0
40
5.0000
1
D
72
1
73
2
11
10.0000
21
841.5000
31
0
0
TEXT
8
TEXTO
10
1672.0000
20
841.5000
30
0
40
5.0000
1
D
72
1
73
2
11
1672.0000
21
841.5000
31
0
0
TEXT
8
TEXTO
10
10.0000
20
742.5000
30
0
40
5.0000
1
E
72
1
73
2
11
10.0000
21
742.5000
31
0
0
TEXT
8
TEXTO
10
1672.0000
20
742.5000
30
0
40
5.0000
1
E
72
1
73
2
11
1672.0000
21
742.5000
31
0
0
TEXT
8
TEXTO
10
10.0000
20
643.5000
30
0
40
5.0000
1
F
72
1
73
2
11
10.0000
21
643.5000
31
0
0
TEXT
8
TEXTO
10
1672.0000
20
643.5000
30
0
40
5.0000
1
F
72
1
73
2
11
1672.0000
21
643.5000
31
0
0
TEXT
8
TEXTO
10
10.0000
20
544.5000
30
0
40
5.0000
1
G
72
1
73
2
11
10.0000
21
544.5000
31
0
0
TEXT
8
TEXTO
10
1672.0000
20
544.5000
30
0
40
5.0000
1
G
72
1
73
2
11
1672.0000
21
544.5000
31
0
0
TEXT
8
TEXTO
10
10.0000
20
445.5000
30
0
40
5.0000
1
H
72
1
73
2
11
10.0000
21
445.5000
31
0
0
TEXT
8
TEXTO
10
1672.0000
20
445.5000
30
0
40
5.0000
1
H
72
1
73
2
11
1672.0000
21
445.5000
31
0
0
TEXT
8
TEXTO
10
10.0000
20
346.5000
30
0
40
5.0000
1
J
72
1
73
2
11
10.0000
21
346.5000
31
0
0
TEXT
8
TEXTO
10
1672.0000
20
346.5000
30
0
40
5.0000
1
J
72
1
73
2
11
1672.0000
21
346.5000
31
0
0
TEXT
8
TEXTO
10
10.0000
20
247.5000
30
0
40
5.0000
1
K
72
1
73
2
11
10.0000
21
247.5000
31
0
0
TEXT
8
TEXTO
10
1672.0000
20
247.5000
30
0
40
5.0000
1
K
72
1
73
2
11
1672.0000
21
247.5000
31
0
0
TEXT
8
TEXTO
10
10.0000
20
148.5000
30
0
40
5.0000
1
L
72
1
73
2
11
10.0000
21
148.5000
31
0
0
TEXT
8
TEXTO
10
1672.0000
20
148.5000
30
0
40
5.0000
1
L
72
1
73
2
11
1672.0000
21
148.5000
31
0
0
TEXT
8
TEXTO
10
10.0000
20
49.5000
30
0
40
5.0000
1
M
72
1
73
2
11
10.0000
21
49.5000
31
0
0
TEXT
8
TEXTO
10
1672.0000
20
49.5000
30
0
40
5.0000
1
M
72
1
73
2
11
1672.0000
21
49.5000
31
0
0
LINE
8
NORMA
10
1302.0000
20
20.0000
30
0
11
1662.0000
21
20.0000
31
0
0
LINE
8
NORMA
10
1662.0000
20
20.0000
30
0
11
1662.0000
21
104.0000
31
0
0
LINE
8
NORMA
10
1662.0000
20
104.0000
30
0
11
1302.0000
21
104.0000
31
0
0
LINE
8
NORMA
10
1302.0000
20
104.0000
30
0
11
1302.0000
21
20.0000
31
0
0
LINE
8
NORMA
10
1382.0000
20
20.0000
30
0
11
1382.0000
21
104.0000
31
0
0
LINE
8
NORMA
10
1570.0000
20
20.0000
30
0
11
1570.0000
21
104.0000
31
0
0
LINE
8
FINA
10
1302.0000
20
58.0000
30
0
11
1382.0000
21
58.0000
31
0
0
TEXT
8
TEXTO
10
1342.0000
20
87.6000
30
0
40
12.0000
1
foto3d
72
1
73
2
11
1342.0000
21
87.6000
31
0
0
LINE
8
FINA
10
1315.0000
20
77.2000
30
0
11
1369.0000
21
77.2000
31
0
0
TEXT
8
TEXTO
10
1342.0000
20
71.6000
30
0
40
2.6000
1
CAD · DISEÑO CAPA USER
72
1
73
2
11
1342.0000
21
71.6000
31
0
0
TEXT
8
TEXTO
10
1342.0000
20
65.2000
30
0
40
2.6000
1
ISO 5457 · 7200 · 129 · 5456-2
72
1
73
2
11
1342.0000
21
65.2000
31
0
0
TEXT
8
TEXTO
10
1342.0000
20
53.2000
30
0
40
2.8000
1
PROYECCIÓN — PRIMER DIEDRO
72
1
73
2
11
1342.0000
21
53.2000
31
0
0
CIRCLE
8
TEXTO
10
1332.8000
20
35.0000
30
0
40
5.9800
0
CIRCLE
8
TEXTO
10
1332.8000
20
35.0000
30
0
40
3.2200
0
LINE
8
TEXTO
10
1342.9200
20
29.0200
30
0
11
1357.1800
21
31.7800
31
0
0
LINE
8
TEXTO
10
1357.1800
20
31.7800
30
0
11
1357.1800
21
38.2200
31
0
0
LINE
8
TEXTO
10
1357.1800
20
38.2200
30
0
11
1342.9200
21
40.9800
31
0
0
LINE
8
TEXTO
10
1342.9200
20
40.9800
30
0
11
1342.9200
21
29.0200
31
0
0
LINE
8
FINA
10
1324.0600
20
35.0000
30
0
11
1359.9400
21
35.0000
31
0
0
LINE
8
FINA
10
1382.0000
20
78.0000
30
0
11
1570.0000
21
78.0000
31
0
0
LINE
8
FINA
10
1382.0000
20
58.0000
30
0
11
1570.0000
21
58.0000
31
0
0
LINE
8
FINA
10
1382.0000
20
38.0000
30
0
11
1570.0000
21
38.0000
31
0
0
LINE
8
FINA
10
1476.0000
20
58.0000
30
0
11
1476.0000
21
78.0000
31
0
0
LINE
8
FINA
10
1494.0000
20
38.0000
30
0
11
1494.0000
21
58.0000
31
0
0
TEXT
8
TEXTO
10
1384.6000
20
99.2000
30
0
40
2.8000
1
DESIGNACIÓN
0
TEXT
8
TEXTO
10
1385.2000
20
88.2000
30
0
40
4.6166
1
LBD-02 · Guarda inferior tensor — artesa U chapa 1.5 (650×424) (x1) — DESARROL…
72
0
73
2
11
1385.2000
21
88.2000
31
0
0
TEXT
8
TEXTO
10
1384.6000
20
73.2000
30
0
40
2.8000
1
PROYECTO
0
TEXT
8
TEXTO
10
1385.2000
20
65.2000
30
0
40
4.2659
1
CV-LBP-5000 · Movex 530 LBP 18 in × 5.0 m
72
0
73
2
11
1385.2000
21
65.2000
31
0
0
TEXT
8
TEXTO
10
1478.6000
20
73.2000
30
0
40
2.8000
1
FUENTE
0
TEXT
8
TEXTO
10
1479.2000
20
65.2000
30
0
40
4.8000
1
chapa plegada — capa user
72
0
73
2
11
1479.2000
21
65.2000
31
0
0
TEXT
8
TEXTO
10
1384.6000
20
53.2000
30
0
40
2.8000
1
VERIFICACIÓN DE ESCALA
0
TEXT
8
TEXTO
10
1385.2000
20
45.2000
30
0
40
4.8000
1
CAD EN MM (CAPA USER)
72
0
73
2
11
1385.2000
21
45.2000
31
0
0
TEXT
8
TEXTO
10
1496.6000
20
53.2000
30
0
40
2.8000
1
PLIEGUES
0
TEXT
8
TEXTO
10
1497.2000
20
45.2000
30
0
40
5.2000
1
4
72
0
73
2
11
1497.2000
21
45.2000
31
0
0
TEXT
8
TEXTO
10
1384.6000
20
33.2000
30
0
40
2.8000
1
NOTA
0
TEXT
8
TEXTO
10
1385.2000
20
26.2000
30
0
40
4.2702
1
MONTA APERNADA M6 AL ALA INFERIOR DE LAS PLACAS (desmontable para mantención)
72
0
73
2
11
1385.2000
21
26.2000
31
0
0
LINE
8
FINA
10
1570.0000
20
78.0000
30
0
11
1662.0000
21
78.0000
31
0
0
LINE
8
FINA
10
1570.0000
20
58.0000
30
0
11
1662.0000
21
58.0000
31
0
0
LINE
8
FINA
10
1570.0000
20
38.0000
30
0
11
1662.0000
21
38.0000
31
0
0
LINE
8
FINA
10
1616.0000
20
58.0000
30
0
11
1616.0000
21
78.0000
31
0
0
LINE
8
FINA
10
1622.0000
20
38.0000
30
0
11
1622.0000
21
58.0000
31
0
0
TEXT
8
TEXTO
10
1572.6000
20
99.2000
30
0
40
2.8000
1
ESCALA
0
TEXT
8
TEXTO
10
1616.0000
20
88.2000
30
0
40
10.0000
1
1:2
72
1
73
2
11
1616.0000
21
88.2000
31
0
0
TEXT
8
TEXTO
10
1572.6000
20
73.2000
30
0
40
2.8000
1
FORMATO
0
TEXT
8
TEXTO
10
1593.0000
20
65.2000
30
0
40
6.0000
1
A1
72
1
73
2
11
1593.0000
21
65.2000
31
0
0
TEXT
8
TEXTO
10
1618.6000
20
73.2000
30
0
40
2.8000
1
LÁMINA
0
TEXT
8
TEXTO
10
1639.0000
20
65.2000
30
0
40
6.0000
1
1 / 1
72
1
73
2
11
1639.0000
21
65.2000
31
0
0
TEXT
8
TEXTO
10
1572.6000
20
53.2000
30
0
40
2.8000
1
FECHA
0
TEXT
8
TEXTO
10
1596.0000
20
45.2000
30
0
40
5.2000
1
2026-08-12
72
1
73
2
11
1596.0000
21
45.2000
31
0
0
TEXT
8
TEXTO
10
1624.6000
20
53.2000
30
0
40
2.8000
1
UNIDADES
0
TEXT
8
TEXTO
10
1642.0000
20
45.2000
30
0
40
6.0000
1
mm
72
1
73
2
11
1642.0000
21
45.2000
31
0
0
TEXT
8
TEXTO
10
1572.6000
20
33.2000
30
0
40
2.8000
1
Nº DE PLANO
0
TEXT
8
TEXTO
10
1616.0000
20
26.2000
30
0
40
5.2000
1
CHAPA-01
72
1
73
2
11
1616.0000
21
26.2000
31
0
0
ENDSEC
0
EOF
