0
SECTION
2
HEADER
9
$ACADVER
1
AC1009
9
$DWGCODEPAGE
3
ANSI_1252
0
ENDSEC
0
SECTION
2
TABLES
0
TABLE
2
LTYPE
70
2
0
LTYPE
2
CONTINUOUS
70
0
3
Solid line
72
65
73
0
40
0
0
LTYPE
2
DASHED
70
0
3
Segmentada __ __ __
72
65
73
2
40
6
49
4
49
-2
0
ENDTAB
0
TABLE
2
LAYER
70
8
0
LAYER
2
SOMBRA
70
0
62
8
6
CONTINUOUS
0
LAYER
2
NORMA
70
0
62
7
6
CONTINUOUS
0
LAYER
2
FINA
70
0
62
7
6
CONTINUOUS
0
LAYER
2
VISIBLE
70
0
62
7
6
CONTINUOUS
0
LAYER
2
COTAS
70
0
62
7
6
CONTINUOUS
0
LAYER
2
TEXTO
70
0
62
7
6
CONTINUOUS
0
LAYER
2
PLIEGUE
70
0
62
1
6
DASHED
0
LAYER
2
OCULTA
70
0
62
7
6
CONTINUOUS
0
ENDTAB
0
ENDSEC
0
SECTION
2
ENTITIES
0
LINE
8
VISIBLE
10
246.5000
20
111.9750
30
0
11
604.5000
21
111.9750
31
0
0
LINE
8
VISIBLE
10
604.5000
20
111.9750
30
0
11
604.5000
21
529.0250
31
0
0
LINE
8
VISIBLE
10
604.5000
20
529.0250
30
0
11
246.5000
21
529.0250
31
0
0
LINE
8
VISIBLE
10
246.5000
20
529.0250
30
0
11
246.5000
21
111.9750
31
0
0
CIRCLE
8
VISIBLE
10
326.5000
20
445.4950
30
0
40
3.5000
0
TEXT
8
TEXTO
10
330.7000
20
444.6950
30
0
40
1.9000
1
A
0
CIRCLE
8
VISIBLE
10
326.5000
20
345.4950
30
0
40
3.5000
0
TEXT
8
TEXTO
10
330.7000
20
344.6950
30
0
40
1.9000
1
A
0
CIRCLE
8
VISIBLE
10
546.5000
20
445.4950
30
0
40
3.5000
0
TEXT
8
TEXTO
10
550.7000
20
444.6950
30
0
40
1.9000
1
A
0
CIRCLE
8
VISIBLE
10
546.5000
20
345.4950
30
0
40
3.5000
0
TEXT
8
TEXTO
10
550.7000
20
344.6950
30
0
40
1.9000
1
A
0
CIRCLE
8
VISIBLE
10
481.5000
20
334.4950
30
0
40
12.5000
0
TEXT
8
TEXTO
10
494.7000
20
333.6950
30
0
40
1.9000
1
B
0
CIRCLE
8
VISIBLE
10
306.5000
20
124.4750
30
0
40
3.5000
0
TEXT
8
TEXTO
10
310.7000
20
123.6750
30
0
40
1.9000
1
A
0
CIRCLE
8
VISIBLE
10
425.5000
20
124.4750
30
0
40
3.5000
0
TEXT
8
TEXTO
10
429.7000
20
123.6750
30
0
40
1.9000
1
A
0
CIRCLE
8
VISIBLE
10
544.5000
20
124.4750
30
0
40
3.5000
0
TEXT
8
TEXTO
10
548.7000
20
123.6750
30
0
40
1.9000
1
A
0
TEXT
8
TEXTO
10
246.5000
20
98.9750
30
0
40
3.2000
1
BARRENOS (corte láser): A = 7× Ø7 · B = 1× Ø25
0
TEXT
8
TEXTO
10
246.5000
20
94.4750
30
0
40
2.8000
1
POSICIONES: DXF de corte a escala REAL 1:1 + _agujeros.csv (X·Y·Ø de cada barreno) — contornos interiores ídem
0
LINE
8
FINA
10
246.5000
20
134.9750
30
0
11
604.5000
21
134.9750
31
0
0
LINE
8
PLIEGUE
10
246.5000
20
137.2350
30
0
11
604.5000
21
137.2350
31
0
0
LINE
8
FINA
10
246.5000
20
139.4950
30
0
11
604.5000
21
139.4950
31
0
0
LINE
8
FINA
10
246.5000
20
461.4950
30
0
11
604.5000
21
461.4950
31
0
0
LINE
8
PLIEGUE
10
246.5000
20
463.7650
30
0
11
604.5000
21
463.7650
31
0
0
LINE
8
FINA
10
246.5000
20
466.0250
30
0
11
604.5000
21
466.0250
31
0
0
TEXT
8
TEXTO
10
425.5000
20
302.4950
30
0
40
2.8000
1
2 PLIEGUES 90° R2 — COSTADO EN C (pestaña 27 · alma 330 · tira 67)
72
1
73
2
11
425.5000
21
302.4950
31
0
0
LINE
8
COTAS
10
246.5000
20
110.9750
30
0
11
246.5000
21
101.4750
31
0
0
LINE
8
COTAS
10
604.5000
20
110.9750
30
0
11
604.5000
21
101.4750
31
0
0
LINE
8
COTAS
10
246.5000
20
102.9750
30
0
11
604.5000
21
102.9750
31
0
0
SOLID
8
COTAS
10
246.5000
20
102.9750
30
0
11
249.0000
21
103.4250
31
0
12
249.0000
22
102.5250
32
0
13
249.0000
23
102.5250
33
0
0
SOLID
8
COTAS
10
604.5000
20
102.9750
30
0
11
602.0000
21
103.4250
31
0
12
602.0000
22
102.5250
32
0
13
602.0000
23
102.5250
33
0
0
TEXT
8
COTAS
10
425.5000
20
105.1750
30
0
40
3.5000
1
358
72
1
73
2
11
425.5000
21
105.1750
31
0
0
LINE
8
COTAS
10
605.5000
20
111.9750
30
0
11
615.0000
21
111.9750
31
0
0
LINE
8
COTAS
10
605.5000
20
529.0250
30
0
11
615.0000
21
529.0250
31
0
0
LINE
8
COTAS
10
613.5000
20
111.9750
30
0
11
613.5000
21
529.0250
31
0
0
SOLID
8
COTAS
10
613.5000
20
111.9750
30
0
11
613.9500
21
114.4750
31
0
12
613.0500
22
114.4750
32
0
13
613.0500
23
114.4750
33
0
0
SOLID
8
COTAS
10
613.5000
20
529.0250
30
0
11
613.9500
21
526.5250
31
0
12
613.0500
22
526.5250
32
0
13
613.0500
23
526.5250
33
0
0
TEXT
8
COTAS
10
615.7000
20
320.5000
30
0
40
3.5000
1
417.1
72
1
73
2
11
615.7000
21
320.5000
31
0
0
LINE
8
COTAS
10
245.5000
20
111.9750
30
0
11
238.0000
21
111.9750
31
0
0
LINE
8
COTAS
10
245.5000
20
137.2350
30
0
11
238.0000
21
137.2350
31
0
0
LINE
8
COTAS
10
239.5000
20
111.9750
30
0
11
239.5000
21
137.2350
31
0
0
SOLID
8
COTAS
10
239.5000
20
111.9750
30
0
11
239.9500
21
114.4750
31
0
12
239.0500
22
114.4750
32
0
13
239.0500
23
114.4750
33
0
0
SOLID
8
COTAS
10
239.5000
20
137.2350
30
0
11
239.9500
21
134.7350
31
0
12
239.0500
22
134.7350
32
0
13
239.0500
23
134.7350
33
0
0
TEXT
8
COTAS
10
241.7000
20
124.6050
30
0
40
3.5000
1
25.3
72
1
73
2
11
241.7000
21
124.6050
31
0
0
LINE
8
COTAS
10
245.5000
20
111.9750
30
0
11
231.0000
21
111.9750
31
0
0
LINE
8
COTAS
10
245.5000
20
463.7650
30
0
11
231.0000
21
463.7650
31
0
0
LINE
8
COTAS
10
232.5000
20
111.9750
30
0
11
232.5000
21
463.7650
31
0
0
SOLID
8
COTAS
10
232.5000
20
111.9750
30
0
11
232.9500
21
114.4750
31
0
12
232.0500
22
114.4750
32
0
13
232.0500
23
114.4750
33
0
0
SOLID
8
COTAS
10
232.5000
20
463.7650
30
0
11
232.9500
21
461.2650
31
0
12
232.0500
22
461.2650
32
0
13
232.0500
23
461.2650
33
0
0
TEXT
8
COTAS
10
234.7000
20
287.8700
30
0
40
3.5000
1
351.8
72
1
73
2
11
234.7000
21
287.8700
31
0
0
TEXT
8
TEXTO
10
246.5000
20
539.5250
30
0
40
3.5000
1
DESARROLLO DE CHAPA — BA = ang·(R + K·t) · K=0.44 · R=2 · t=2 ? BA(90°)=4.52 mm
0
TEXT
8
TEXTO
10
246.5000
20
534.0250
30
0
40
4.0000
1
ESPESOR DE CHAPA e = 2 mm (constante en toda la pieza)
0
LINE
8
FINA
10
0.0000
20
0.0000
30
0
11
841.0000
21
0.0000
31
0
0
LINE
8
FINA
10
841.0000
20
0.0000
30
0
11
841.0000
21
594.0000
31
0
0
LINE
8
FINA
10
841.0000
20
594.0000
30
0
11
0.0000
21
594.0000
31
0
0
LINE
8
FINA
10
0.0000
20
594.0000
30
0
11
0.0000
21
0.0000
31
0
0
LINE
8
NORMA
10
20.0000
20
10.0000
30
0
11
831.0000
21
10.0000
31
0
0
LINE
8
NORMA
10
831.0000
20
10.0000
30
0
11
831.0000
21
584.0000
31
0
0
LINE
8
NORMA
10
831.0000
20
584.0000
30
0
11
20.0000
21
584.0000
31
0
0
LINE
8
NORMA
10
20.0000
20
584.0000
30
0
11
20.0000
21
10.0000
31
0
0
LINE
8
NORMA
10
0.0000
20
297.0000
30
0
11
25.0000
21
297.0000
31
0
0
LINE
8
NORMA
10
841.0000
20
297.0000
30
0
11
826.0000
21
297.0000
31
0
0
LINE
8
NORMA
10
420.5000
20
0.0000
30
0
11
420.5000
21
15.0000
31
0
0
LINE
8
NORMA
10
420.5000
20
594.0000
30
0
11
420.5000
21
579.0000
31
0
0
LINE
8
FINA
10
52.5625
20
0.0000
30
0
11
52.5625
21
10.0000
31
0
0
LINE
8
FINA
10
52.5625
20
584.0000
30
0
11
52.5625
21
594.0000
31
0
0
LINE
8
FINA
10
105.1250
20
0.0000
30
0
11
105.1250
21
10.0000
31
0
0
LINE
8
FINA
10
105.1250
20
584.0000
30
0
11
105.1250
21
594.0000
31
0
0
LINE
8
FINA
10
157.6875
20
0.0000
30
0
11
157.6875
21
10.0000
31
0
0
LINE
8
FINA
10
157.6875
20
584.0000
30
0
11
157.6875
21
594.0000
31
0
0
LINE
8
FINA
10
210.2500
20
0.0000
30
0
11
210.2500
21
10.0000
31
0
0
LINE
8
FINA
10
210.2500
20
584.0000
30
0
11
210.2500
21
594.0000
31
0
0
LINE
8
FINA
10
262.8125
20
0.0000
30
0
11
262.8125
21
10.0000
31
0
0
LINE
8
FINA
10
262.8125
20
584.0000
30
0
11
262.8125
21
594.0000
31
0
0
LINE
8
FINA
10
315.3750
20
0.0000
30
0
11
315.3750
21
10.0000
31
0
0
LINE
8
FINA
10
315.3750
20
584.0000
30
0
11
315.3750
21
594.0000
31
0
0
LINE
8
FINA
10
367.9375
20
0.0000
30
0
11
367.9375
21
10.0000
31
0
0
LINE
8
FINA
10
367.9375
20
584.0000
30
0
11
367.9375
21
594.0000
31
0
0
LINE
8
FINA
10
420.5000
20
0.0000
30
0
11
420.5000
21
10.0000
31
0
0
LINE
8
FINA
10
420.5000
20
584.0000
30
0
11
420.5000
21
594.0000
31
0
0
LINE
8
FINA
10
473.0625
20
0.0000
30
0
11
473.0625
21
10.0000
31
0
0
LINE
8
FINA
10
473.0625
20
584.0000
30
0
11
473.0625
21
594.0000
31
0
0
LINE
8
FINA
10
525.6250
20
0.0000
30
0
11
525.6250
21
10.0000
31
0
0
LINE
8
FINA
10
525.6250
20
584.0000
30
0
11
525.6250
21
594.0000
31
0
0
LINE
8
FINA
10
578.1875
20
0.0000
30
0
11
578.1875
21
10.0000
31
0
0
LINE
8
FINA
10
578.1875
20
584.0000
30
0
11
578.1875
21
594.0000
31
0
0
LINE
8
FINA
10
630.7500
20
0.0000
30
0
11
630.7500
21
10.0000
31
0
0
LINE
8
FINA
10
630.7500
20
584.0000
30
0
11
630.7500
21
594.0000
31
0
0
LINE
8
FINA
10
683.3125
20
0.0000
30
0
11
683.3125
21
10.0000
31
0
0
LINE
8
FINA
10
683.3125
20
584.0000
30
0
11
683.3125
21
594.0000
31
0
0
LINE
8
FINA
10
735.8750
20
0.0000
30
0
11
735.8750
21
10.0000
31
0
0
LINE
8
FINA
10
735.8750
20
584.0000
30
0
11
735.8750
21
594.0000
31
0
0
LINE
8
FINA
10
788.4375
20
0.0000
30
0
11
788.4375
21
10.0000
31
0
0
LINE
8
FINA
10
788.4375
20
584.0000
30
0
11
788.4375
21
594.0000
31
0
0
LINE
8
FINA
10
0.0000
20
49.5000
30
0
11
10.0000
21
49.5000
31
0
0
LINE
8
FINA
10
831.0000
20
49.5000
30
0
11
841.0000
21
49.5000
31
0
0
LINE
8
FINA
10
0.0000
20
99.0000
30
0
11
10.0000
21
99.0000
31
0
0
LINE
8
FINA
10
831.0000
20
99.0000
30
0
11
841.0000
21
99.0000
31
0
0
LINE
8
FINA
10
0.0000
20
148.5000
30
0
11
10.0000
21
148.5000
31
0
0
LINE
8
FINA
10
831.0000
20
148.5000
30
0
11
841.0000
21
148.5000
31
0
0
LINE
8
FINA
10
0.0000
20
198.0000
30
0
11
10.0000
21
198.0000
31
0
0
LINE
8
FINA
10
831.0000
20
198.0000
30
0
11
841.0000
21
198.0000
31
0
0
LINE
8
FINA
10
0.0000
20
247.5000
30
0
11
10.0000
21
247.5000
31
0
0
LINE
8
FINA
10
831.0000
20
247.5000
30
0
11
841.0000
21
247.5000
31
0
0
LINE
8
FINA
10
0.0000
20
297.0000
30
0
11
10.0000
21
297.0000
31
0
0
LINE
8
FINA
10
831.0000
20
297.0000
30
0
11
841.0000
21
297.0000
31
0
0
LINE
8
FINA
10
0.0000
20
346.5000
30
0
11
10.0000
21
346.5000
31
0
0
LINE
8
FINA
10
831.0000
20
346.5000
30
0
11
841.0000
21
346.5000
31
0
0
LINE
8
FINA
10
0.0000
20
396.0000
30
0
11
10.0000
21
396.0000
31
0
0
LINE
8
FINA
10
831.0000
20
396.0000
30
0
11
841.0000
21
396.0000
31
0
0
LINE
8
FINA
10
0.0000
20
445.5000
30
0
11
10.0000
21
445.5000
31
0
0
LINE
8
FINA
10
831.0000
20
445.5000
30
0
11
841.0000
21
445.5000
31
0
0
LINE
8
FINA
10
0.0000
20
495.0000
30
0
11
10.0000
21
495.0000
31
0
0
LINE
8
FINA
10
831.0000
20
495.0000
30
0
11
841.0000
21
495.0000
31
0
0
LINE
8
FINA
10
0.0000
20
544.5000
30
0
11
10.0000
21
544.5000
31
0
0
LINE
8
FINA
10
831.0000
20
544.5000
30
0
11
841.0000
21
544.5000
31
0
0
TEXT
8
TEXTO
10
26.2813
20
5.0000
30
0
40
2.5000
1
1
72
1
73
2
11
26.2813
21
5.0000
31
0
0
TEXT
8
TEXTO
10
26.2813
20
589.0000
30
0
40
2.5000
1
1
72
1
73
2
11
26.2813
21
589.0000
31
0
0
TEXT
8
TEXTO
10
78.8438
20
5.0000
30
0
40
2.5000
1
2
72
1
73
2
11
78.8438
21
5.0000
31
0
0
TEXT
8
TEXTO
10
78.8438
20
589.0000
30
0
40
2.5000
1
2
72
1
73
2
11
78.8438
21
589.0000
31
0
0
TEXT
8
TEXTO
10
131.4063
20
5.0000
30
0
40
2.5000
1
3
72
1
73
2
11
131.4063
21
5.0000
31
0
0
TEXT
8
TEXTO
10
131.4063
20
589.0000
30
0
40
2.5000
1
3
72
1
73
2
11
131.4063
21
589.0000
31
0
0
TEXT
8
TEXTO
10
183.9688
20
5.0000
30
0
40
2.5000
1
4
72
1
73
2
11
183.9688
21
5.0000
31
0
0
TEXT
8
TEXTO
10
183.9688
20
589.0000
30
0
40
2.5000
1
4
72
1
73
2
11
183.9688
21
589.0000
31
0
0
TEXT
8
TEXTO
10
236.5313
20
5.0000
30
0
40
2.5000
1
5
72
1
73
2
11
236.5313
21
5.0000
31
0
0
TEXT
8
TEXTO
10
236.5313
20
589.0000
30
0
40
2.5000
1
5
72
1
73
2
11
236.5313
21
589.0000
31
0
0
TEXT
8
TEXTO
10
289.0938
20
5.0000
30
0
40
2.5000
1
6
72
1
73
2
11
289.0938
21
5.0000
31
0
0
TEXT
8
TEXTO
10
289.0938
20
589.0000
30
0
40
2.5000
1
6
72
1
73
2
11
289.0938
21
589.0000
31
0
0
TEXT
8
TEXTO
10
341.6563
20
5.0000
30
0
40
2.5000
1
7
72
1
73
2
11
341.6563
21
5.0000
31
0
0
TEXT
8
TEXTO
10
341.6563
20
589.0000
30
0
40
2.5000
1
7
72
1
73
2
11
341.6563
21
589.0000
31
0
0
TEXT
8
TEXTO
10
394.2188
20
5.0000
30
0
40
2.5000
1
8
72
1
73
2
11
394.2188
21
5.0000
31
0
0
TEXT
8
TEXTO
10
394.2188
20
589.0000
30
0
40
2.5000
1
8
72
1
73
2
11
394.2188
21
589.0000
31
0
0
TEXT
8
TEXTO
10
446.7813
20
5.0000
30
0
40
2.5000
1
9
72
1
73
2
11
446.7813
21
5.0000
31
0
0
TEXT
8
TEXTO
10
446.7813
20
589.0000
30
0
40
2.5000
1
9
72
1
73
2
11
446.7813
21
589.0000
31
0
0
TEXT
8
TEXTO
10
499.3438
20
5.0000
30
0
40
2.5000
1
10
72
1
73
2
11
499.3438
21
5.0000
31
0
0
TEXT
8
TEXTO
10
499.3438
20
589.0000
30
0
40
2.5000
1
10
72
1
73
2
11
499.3438
21
589.0000
31
0
0
TEXT
8
TEXTO
10
551.9063
20
5.0000
30
0
40
2.5000
1
11
72
1
73
2
11
551.9063
21
5.0000
31
0
0
TEXT
8
TEXTO
10
551.9063
20
589.0000
30
0
40
2.5000
1
11
72
1
73
2
11
551.9063
21
589.0000
31
0
0
TEXT
8
TEXTO
10
604.4688
20
5.0000
30
0
40
2.5000
1
12
72
1
73
2
11
604.4688
21
5.0000
31
0
0
TEXT
8
TEXTO
10
604.4688
20
589.0000
30
0
40
2.5000
1
12
72
1
73
2
11
604.4688
21
589.0000
31
0
0
TEXT
8
TEXTO
10
657.0313
20
5.0000
30
0
40
2.5000
1
13
72
1
73
2
11
657.0313
21
5.0000
31
0
0
TEXT
8
TEXTO
10
657.0313
20
589.0000
30
0
40
2.5000
1
13
72
1
73
2
11
657.0313
21
589.0000
31
0
0
TEXT
8
TEXTO
10
709.5938
20
5.0000
30
0
40
2.5000
1
14
72
1
73
2
11
709.5938
21
5.0000
31
0
0
TEXT
8
TEXTO
10
709.5938
20
589.0000
30
0
40
2.5000
1
14
72
1
73
2
11
709.5938
21
589.0000
31
0
0
TEXT
8
TEXTO
10
762.1563
20
5.0000
30
0
40
2.5000
1
15
72
1
73
2
11
762.1563
21
5.0000
31
0
0
TEXT
8
TEXTO
10
762.1563
20
589.0000
30
0
40
2.5000
1
15
72
1
73
2
11
762.1563
21
589.0000
31
0
0
TEXT
8
TEXTO
10
814.7188
20
5.0000
30
0
40
2.5000
1
16
72
1
73
2
11
814.7188
21
5.0000
31
0
0
TEXT
8
TEXTO
10
814.7188
20
589.0000
30
0
40
2.5000
1
16
72
1
73
2
11
814.7188
21
589.0000
31
0
0
TEXT
8
TEXTO
10
5.0000
20
569.2500
30
0
40
2.5000
1
A
72
1
73
2
11
5.0000
21
569.2500
31
0
0
TEXT
8
TEXTO
10
836.0000
20
569.2500
30
0
40
2.5000
1
A
72
1
73
2
11
836.0000
21
569.2500
31
0
0
TEXT
8
TEXTO
10
5.0000
20
519.7500
30
0
40
2.5000
1
B
72
1
73
2
11
5.0000
21
519.7500
31
0
0
TEXT
8
TEXTO
10
836.0000
20
519.7500
30
0
40
2.5000
1
B
72
1
73
2
11
836.0000
21
519.7500
31
0
0
TEXT
8
TEXTO
10
5.0000
20
470.2500
30
0
40
2.5000
1
C
72
1
73
2
11
5.0000
21
470.2500
31
0
0
TEXT
8
TEXTO
10
836.0000
20
470.2500
30
0
40
2.5000
1
C
72
1
73
2
11
836.0000
21
470.2500
31
0
0
TEXT
8
TEXTO
10
5.0000
20
420.7500
30
0
40
2.5000
1
D
72
1
73
2
11
5.0000
21
420.7500
31
0
0
TEXT
8
TEXTO
10
836.0000
20
420.7500
30
0
40
2.5000
1
D
72
1
73
2
11
836.0000
21
420.7500
31
0
0
TEXT
8
TEXTO
10
5.0000
20
371.2500
30
0
40
2.5000
1
E
72
1
73
2
11
5.0000
21
371.2500
31
0
0
TEXT
8
TEXTO
10
836.0000
20
371.2500
30
0
40
2.5000
1
E
72
1
73
2
11
836.0000
21
371.2500
31
0
0
TEXT
8
TEXTO
10
5.0000
20
321.7500
30
0
40
2.5000
1
F
72
1
73
2
11
5.0000
21
321.7500
31
0
0
TEXT
8
TEXTO
10
836.0000
20
321.7500
30
0
40
2.5000
1
F
72
1
73
2
11
836.0000
21
321.7500
31
0
0
TEXT
8
TEXTO
10
5.0000
20
272.2500
30
0
40
2.5000
1
G
72
1
73
2
11
5.0000
21
272.2500
31
0
0
TEXT
8
TEXTO
10
836.0000
20
272.2500
30
0
40
2.5000
1
G
72
1
73
2
11
836.0000
21
272.2500
31
0
0
TEXT
8
TEXTO
10
5.0000
20
222.7500
30
0
40
2.5000
1
H
72
1
73
2
11
5.0000
21
222.7500
31
0
0
TEXT
8
TEXTO
10
836.0000
20
222.7500
30
0
40
2.5000
1
H
72
1
73
2
11
836.0000
21
222.7500
31
0
0
TEXT
8
TEXTO
10
5.0000
20
173.2500
30
0
40
2.5000
1
J
72
1
73
2
11
5.0000
21
173.2500
31
0
0
TEXT
8
TEXTO
10
836.0000
20
173.2500
30
0
40
2.5000
1
J
72
1
73
2
11
836.0000
21
173.2500
31
0
0
TEXT
8
TEXTO
10
5.0000
20
123.7500
30
0
40
2.5000
1
K
72
1
73
2
11
5.0000
21
123.7500
31
0
0
TEXT
8
TEXTO
10
836.0000
20
123.7500
30
0
40
2.5000
1
K
72
1
73
2
11
836.0000
21
123.7500
31
0
0
TEXT
8
TEXTO
10
5.0000
20
74.2500
30
0
40
2.5000
1
L
72
1
73
2
11
5.0000
21
74.2500
31
0
0
TEXT
8
TEXTO
10
836.0000
20
74.2500
30
0
40
2.5000
1
L
72
1
73
2
11
836.0000
21
74.2500
31
0
0
TEXT
8
TEXTO
10
5.0000
20
24.7500
30
0
40
2.5000
1
M
72
1
73
2
11
5.0000
21
24.7500
31
0
0
TEXT
8
TEXTO
10
836.0000
20
24.7500
30
0
40
2.5000
1
M
72
1
73
2
11
836.0000
21
24.7500
31
0
0
LINE
8
NORMA
10
651.0000
20
10.0000
30
0
11
831.0000
21
10.0000
31
0
0
LINE
8
NORMA
10
831.0000
20
10.0000
30
0
11
831.0000
21
52.0000
31
0
0
LINE
8
NORMA
10
831.0000
20
52.0000
30
0
11
651.0000
21
52.0000
31
0
0
LINE
8
NORMA
10
651.0000
20
52.0000
30
0
11
651.0000
21
10.0000
31
0
0
LINE
8
NORMA
10
691.0000
20
10.0000
30
0
11
691.0000
21
52.0000
31
0
0
LINE
8
NORMA
10
785.0000
20
10.0000
30
0
11
785.0000
21
52.0000
31
0
0
LINE
8
FINA
10
651.0000
20
29.0000
30
0
11
691.0000
21
29.0000
31
0
0
TEXT
8
TEXTO
10
671.0000
20
43.4000
30
0
40
4.9000
1
ConveyOne
72
1
73
2
11
671.0000
21
43.4000
31
0
0
LINE
8
FINA
10
657.5000
20
38.6000
30
0
11
684.5000
21
38.6000
31
0
0
TEXT
8
TEXTO
10
671.0000
20
35.8000
30
0
40
1.3000
1
CAD · DISEÑO CAPA USER
72
1
73
2
11
671.0000
21
35.8000
31
0
0
TEXT
8
TEXTO
10
671.0000
20
32.6000
30
0
40
1.3000
1
ISO 5457 · 7200 · 129 · 5456-2
72
1
73
2
11
671.0000
21
32.6000
31
0
0
TEXT
8
TEXTO
10
671.0000
20
26.6000
30
0
40
1.4000
1
PROYECCIÓN — PRIMER DIEDRO
72
1
73
2
11
671.0000
21
26.6000
31
0
0
CIRCLE
8
TEXTO
10
666.4000
20
17.5000
30
0
40
2.9900
0
CIRCLE
8
TEXTO
10
666.4000
20
17.5000
30
0
40
1.6100
0
LINE
8
TEXTO
10
671.4600
20
14.5100
30
0
11
678.5900
21
15.8900
31
0
0
LINE
8
TEXTO
10
678.5900
20
15.8900
30
0
11
678.5900
21
19.1100
31
0
0
LINE
8
TEXTO
10
678.5900
20
19.1100
30
0
11
671.4600
21
20.4900
31
0
0
LINE
8
TEXTO
10
671.4600
20
20.4900
30
0
11
671.4600
21
14.5100
31
0
0
LINE
8
FINA
10
662.0300
20
17.5000
30
0
11
679.9700
21
17.5000
31
0
0
LINE
8
FINA
10
691.0000
20
39.0000
30
0
11
785.0000
21
39.0000
31
0
0
LINE
8
FINA
10
691.0000
20
29.0000
30
0
11
785.0000
21
29.0000
31
0
0
LINE
8
FINA
10
691.0000
20
19.0000
30
0
11
785.0000
21
19.0000
31
0
0
LINE
8
FINA
10
738.0000
20
29.0000
30
0
11
738.0000
21
39.0000
31
0
0
LINE
8
FINA
10
747.0000
20
19.0000
30
0
11
747.0000
21
29.0000
31
0
0
TEXT
8
TEXTO
10
692.3000
20
49.6000
30
0
40
1.4000
1
DESIGNACIÓN
0
TEXT
8
TEXTO
10
692.6000
20
44.1000
30
0
40
2.6243
1
LBD-04 · Guarda motriz — costado libre e2 (358×330) (x1) — DESARROLLO
72
0
73
2
11
692.6000
21
44.1000
31
0
0
TEXT
8
TEXTO
10
692.3000
20
36.6000
30
0
40
1.4000
1
PROYECTO
0
TEXT
8
TEXTO
10
692.6000
20
32.6000
30
0
40
2.1329
1
CV-LBP-5000 · Movex 530 LBP 18 in × 5.0 m
72
0
73
2
11
692.6000
21
32.6000
31
0
0
TEXT
8
TEXTO
10
739.3000
20
36.6000
30
0
40
1.4000
1
FUENTE
0
TEXT
8
TEXTO
10
739.6000
20
32.6000
30
0
40
2.4000
1
chapa plegada — capa user
72
0
73
2
11
739.6000
21
32.6000
31
0
0
TEXT
8
TEXTO
10
692.3000
20
26.6000
30
0
40
1.4000
1
VERIFICACIÓN DE ESCALA
0
TEXT
8
TEXTO
10
692.6000
20
22.6000
30
0
40
2.4000
1
CAD EN MM (CAPA USER)
72
0
73
2
11
692.6000
21
22.6000
31
0
0
TEXT
8
TEXTO
10
748.3000
20
26.6000
30
0
40
1.4000
1
PLIEGUES
0
TEXT
8
TEXTO
10
748.6000
20
22.6000
30
0
40
2.6000
1
2
72
0
73
2
11
748.6000
21
22.6000
31
0
0
TEXT
8
TEXTO
10
692.3000
20
16.6000
30
0
40
1.4000
1
NOTA
0
TEXT
8
TEXTO
10
692.6000
20
13.1000
30
0
40
2.1785
1
Acero S275JR e2.0 — terminación PINTADO RAL 7035 · e2 · tol. gral. ISO 2768-mK · K=0.…
72
0
73
2
11
692.6000
21
13.1000
31
0
0
LINE
8
FINA
10
785.0000
20
39.0000
30
0
11
831.0000
21
39.0000
31
0
0
LINE
8
FINA
10
785.0000
20
29.0000
30
0
11
831.0000
21
29.0000
31
0
0
LINE
8
FINA
10
785.0000
20
19.0000
30
0
11
831.0000
21
19.0000
31
0
0
LINE
8
FINA
10
808.0000
20
29.0000
30
0
11
808.0000
21
39.0000
31
0
0
LINE
8
FINA
10
811.0000
20
19.0000
30
0
11
811.0000
21
29.0000
31
0
0
TEXT
8
TEXTO
10
786.3000
20
49.6000
30
0
40
1.4000
1
ESCALA
0
TEXT
8
TEXTO
10
808.0000
20
44.1000
30
0
40
5.0000
1
1:1
72
1
73
2
11
808.0000
21
44.1000
31
0
0
TEXT
8
TEXTO
10
786.3000
20
36.6000
30
0
40
1.4000
1
FORMATO
0
TEXT
8
TEXTO
10
796.5000
20
32.6000
30
0
40
3.0000
1
A1
72
1
73
2
11
796.5000
21
32.6000
31
0
0
TEXT
8
TEXTO
10
809.3000
20
36.6000
30
0
40
1.4000
1
LÁMINA
0
TEXT
8
TEXTO
10
819.5000
20
32.6000
30
0
40
3.0000
1
1 / 1
72
1
73
2
11
819.5000
21
32.6000
31
0
0
TEXT
8
TEXTO
10
786.3000
20
26.6000
30
0
40
1.4000
1
FECHA
0
TEXT
8
TEXTO
10
798.0000
20
22.6000
30
0
40
2.6000
1
2026-08-18
72
1
73
2
11
798.0000
21
22.6000
31
0
0
TEXT
8
TEXTO
10
812.3000
20
26.6000
30
0
40
1.4000
1
UNIDADES
0
TEXT
8
TEXTO
10
821.0000
20
22.6000
30
0
40
3.0000
1
mm
72
1
73
2
11
821.0000
21
22.6000
31
0
0
TEXT
8
TEXTO
10
786.3000
20
16.6000
30
0
40
1.4000
1
Nº DE PLANO
0
TEXT
8
TEXTO
10
808.0000
20
13.1000
30
0
40
2.6000
1
LBD-04
72
1
73
2
11
808.0000
21
13.1000
31
0
0
ENDSEC
0
EOF
