0
SECTION
2
HEADER
9
$ACADVER
1
AC1009
9
$DWGCODEPAGE
3
ANSI_1252
0
ENDSEC
0
SECTION
2
TABLES
0
TABLE
2
LTYPE
70
2
0
LTYPE
2
CONTINUOUS
70
0
3
Solid line
72
65
73
0
40
0
0
LTYPE
2
DASHED
70
0
3
Segmentada __ __ __
72
65
73
2
40
6
49
4
49
-2
0
ENDTAB
0
TABLE
2
LAYER
70
8
0
LAYER
2
SOMBRA
70
0
62
8
6
CONTINUOUS
0
LAYER
2
NORMA
70
0
62
7
6
CONTINUOUS
0
LAYER
2
FINA
70
0
62
7
6
CONTINUOUS
0
LAYER
2
VISIBLE
70
0
62
7
6
CONTINUOUS
0
LAYER
2
COTAS
70
0
62
7
6
CONTINUOUS
0
LAYER
2
TEXTO
70
0
62
7
6
CONTINUOUS
0
LAYER
2
PLIEGUE
70
0
62
1
6
DASHED
0
LAYER
2
OCULTA
70
0
62
7
6
CONTINUOUS
0
ENDTAB
0
ENDSEC
0
SECTION
2
ENTITIES
0
LINE
8
VISIBLE
10
83.5000
20
81.0000
30
0
11
223.5000
21
81.0000
31
0
0
LINE
8
VISIBLE
10
223.5000
20
81.0000
30
0
11
255.0000
21
176.0000
31
0
0
LINE
8
VISIBLE
10
255.0000
20
176.0000
30
0
11
52.0000
21
176.0000
31
0
0
LINE
8
VISIBLE
10
52.0000
20
176.0000
30
0
11
83.5000
21
81.0000
31
0
0
CIRCLE
8
VISIBLE
10
153.5000
20
101.0000
30
0
40
5.5000
0
LINE
8
VISIBLE
10
76.6000
20
141.5000
30
0
11
87.6000
21
141.5000
31
0
0
LINE
8
VISIBLE
10
87.6000
20
141.5000
30
0
11
87.6000
21
145.5000
31
0
0
LINE
8
VISIBLE
10
87.6000
20
145.5000
30
0
11
98.1000
21
145.5000
31
0
0
LINE
8
VISIBLE
10
98.1000
20
145.5000
30
0
11
98.1000
21
156.5000
31
0
0
LINE
8
VISIBLE
10
98.1000
20
156.5000
30
0
11
87.6000
21
156.5000
31
0
0
LINE
8
VISIBLE
10
87.6000
20
156.5000
30
0
11
87.6000
21
160.5000
31
0
0
LINE
8
VISIBLE
10
87.6000
20
160.5000
30
0
11
76.6000
21
160.5000
31
0
0
LINE
8
VISIBLE
10
76.6000
20
160.5000
30
0
11
76.6000
21
156.5000
31
0
0
LINE
8
VISIBLE
10
76.6000
20
156.5000
30
0
11
66.1000
21
156.5000
31
0
0
LINE
8
VISIBLE
10
66.1000
20
156.5000
30
0
11
66.1000
21
145.5000
31
0
0
LINE
8
VISIBLE
10
66.1000
20
145.5000
30
0
11
76.6000
21
145.5000
31
0
0
LINE
8
VISIBLE
10
76.6000
20
145.5000
30
0
11
76.6000
21
141.5000
31
0
0
LINE
8
VISIBLE
10
124.2000
20
141.5000
30
0
11
135.2000
21
141.5000
31
0
0
LINE
8
VISIBLE
10
135.2000
20
141.5000
30
0
11
135.2000
21
145.5000
31
0
0
LINE
8
VISIBLE
10
135.2000
20
145.5000
30
0
11
145.7000
21
145.5000
31
0
0
LINE
8
VISIBLE
10
145.7000
20
145.5000
30
0
11
145.7000
21
156.5000
31
0
0
LINE
8
VISIBLE
10
145.7000
20
156.5000
30
0
11
135.2000
21
156.5000
31
0
0
LINE
8
VISIBLE
10
135.2000
20
156.5000
30
0
11
135.2000
21
160.5000
31
0
0
LINE
8
VISIBLE
10
135.2000
20
160.5000
30
0
11
124.2000
21
160.5000
31
0
0
LINE
8
VISIBLE
10
124.2000
20
160.5000
30
0
11
124.2000
21
156.5000
31
0
0
LINE
8
VISIBLE
10
124.2000
20
156.5000
30
0
11
113.7000
21
156.5000
31
0
0
LINE
8
VISIBLE
10
113.7000
20
156.5000
30
0
11
113.7000
21
145.5000
31
0
0
LINE
8
VISIBLE
10
113.7000
20
145.5000
30
0
11
124.2000
21
145.5000
31
0
0
LINE
8
VISIBLE
10
124.2000
20
145.5000
30
0
11
124.2000
21
141.5000
31
0
0
LINE
8
VISIBLE
10
171.8000
20
141.5000
30
0
11
182.8000
21
141.5000
31
0
0
LINE
8
VISIBLE
10
182.8000
20
141.5000
30
0
11
182.8000
21
145.5000
31
0
0
LINE
8
VISIBLE
10
182.8000
20
145.5000
30
0
11
193.3000
21
145.5000
31
0
0
LINE
8
VISIBLE
10
193.3000
20
145.5000
30
0
11
193.3000
21
156.5000
31
0
0
LINE
8
VISIBLE
10
193.3000
20
156.5000
30
0
11
182.8000
21
156.5000
31
0
0
LINE
8
VISIBLE
10
182.8000
20
156.5000
30
0
11
182.8000
21
160.5000
31
0
0
LINE
8
VISIBLE
10
182.8000
20
160.5000
30
0
11
171.8000
21
160.5000
31
0
0
LINE
8
VISIBLE
10
171.8000
20
160.5000
30
0
11
171.8000
21
156.5000
31
0
0
LINE
8
VISIBLE
10
171.8000
20
156.5000
30
0
11
161.3000
21
156.5000
31
0
0
LINE
8
VISIBLE
10
161.3000
20
156.5000
30
0
11
161.3000
21
145.5000
31
0
0
LINE
8
VISIBLE
10
161.3000
20
145.5000
30
0
11
171.8000
21
145.5000
31
0
0
LINE
8
VISIBLE
10
171.8000
20
145.5000
30
0
11
171.8000
21
141.5000
31
0
0
LINE
8
VISIBLE
10
219.4000
20
141.5000
30
0
11
230.4000
21
141.5000
31
0
0
LINE
8
VISIBLE
10
230.4000
20
141.5000
30
0
11
230.4000
21
145.5000
31
0
0
LINE
8
VISIBLE
10
230.4000
20
145.5000
30
0
11
240.9000
21
145.5000
31
0
0
LINE
8
VISIBLE
10
240.9000
20
145.5000
30
0
11
240.9000
21
156.5000
31
0
0
LINE
8
VISIBLE
10
240.9000
20
156.5000
30
0
11
230.4000
21
156.5000
31
0
0
LINE
8
VISIBLE
10
230.4000
20
156.5000
30
0
11
230.4000
21
160.5000
31
0
0
LINE
8
VISIBLE
10
230.4000
20
160.5000
30
0
11
219.4000
21
160.5000
31
0
0
LINE
8
VISIBLE
10
219.4000
20
160.5000
30
0
11
219.4000
21
156.5000
31
0
0
LINE
8
VISIBLE
10
219.4000
20
156.5000
30
0
11
208.9000
21
156.5000
31
0
0
LINE
8
VISIBLE
10
208.9000
20
156.5000
30
0
11
208.9000
21
145.5000
31
0
0
LINE
8
VISIBLE
10
208.9000
20
145.5000
30
0
11
219.4000
21
145.5000
31
0
0
LINE
8
VISIBLE
10
219.4000
20
145.5000
30
0
11
219.4000
21
141.5000
31
0
0
LINE
8
VISIBLE
10
187.3000
20
147.5200
30
0
11
183.5400
21
150.0300
31
0
0
LINE
8
VISIBLE
10
183.5400
20
150.0300
30
0
11
179.6000
21
152.2300
31
0
0
LINE
8
VISIBLE
10
179.6000
20
152.2300
30
0
11
175.5000
21
154.1200
31
0
0
LINE
8
VISIBLE
10
175.5000
20
154.1200
30
0
11
171.2700
21
155.6900
31
0
0
LINE
8
VISIBLE
10
171.2700
20
155.6900
30
0
11
166.9200
21
156.9100
31
0
0
LINE
8
VISIBLE
10
166.9200
20
156.9100
30
0
11
162.4900
21
157.7900
31
0
0
LINE
8
VISIBLE
10
162.4900
20
157.7900
30
0
11
158.0100
21
158.3200
31
0
0
LINE
8
VISIBLE
10
158.0100
20
158.3200
30
0
11
153.5000
21
158.5000
31
0
0
LINE
8
VISIBLE
10
153.5000
20
158.5000
30
0
11
148.9900
21
158.3200
31
0
0
LINE
8
VISIBLE
10
148.9900
20
158.3200
30
0
11
144.5100
21
157.7900
31
0
0
LINE
8
VISIBLE
10
144.5100
20
157.7900
30
0
11
140.0800
21
156.9100
31
0
0
LINE
8
VISIBLE
10
140.0800
20
156.9100
30
0
11
135.7300
21
155.6900
31
0
0
LINE
8
VISIBLE
10
135.7300
20
155.6900
30
0
11
131.5000
21
154.1200
31
0
0
LINE
8
VISIBLE
10
131.5000
20
154.1200
30
0
11
127.4000
21
152.2300
31
0
0
LINE
8
VISIBLE
10
127.4000
20
152.2300
30
0
11
123.4600
21
150.0300
31
0
0
LINE
8
VISIBLE
10
123.4600
20
150.0300
30
0
11
119.7000
21
147.5200
31
0
0
LINE
8
VISIBLE
10
119.7000
20
147.5200
30
0
11
126.1700
21
138.6200
31
0
0
LINE
8
VISIBLE
10
126.1700
20
138.6200
30
0
11
129.2000
21
140.6500
31
0
0
LINE
8
VISIBLE
10
129.2000
20
140.6500
30
0
11
132.3900
21
142.4300
31
0
0
LINE
8
VISIBLE
10
132.3900
20
142.4300
30
0
11
135.7100
21
143.9600
31
0
0
LINE
8
VISIBLE
10
135.7100
20
143.9600
30
0
11
139.1300
21
145.2200
31
0
0
LINE
8
VISIBLE
10
139.1300
20
145.2200
30
0
11
142.6400
21
146.2200
31
0
0
LINE
8
VISIBLE
10
142.6400
20
146.2200
30
0
11
146.2300
21
146.9300
31
0
0
LINE
8
VISIBLE
10
146.2300
20
146.9300
30
0
11
149.8500
21
147.3600
31
0
0
LINE
8
VISIBLE
10
149.8500
20
147.3600
30
0
11
153.5000
21
147.5000
31
0
0
LINE
8
VISIBLE
10
153.5000
20
147.5000
30
0
11
157.1500
21
147.3600
31
0
0
LINE
8
VISIBLE
10
157.1500
20
147.3600
30
0
11
160.7700
21
146.9300
31
0
0
LINE
8
VISIBLE
10
160.7700
20
146.9300
30
0
11
164.3600
21
146.2200
31
0
0
LINE
8
VISIBLE
10
164.3600
20
146.2200
30
0
11
167.8700
21
145.2200
31
0
0
LINE
8
VISIBLE
10
167.8700
20
145.2200
30
0
11
171.2900
21
143.9600
31
0
0
LINE
8
VISIBLE
10
171.2900
20
143.9600
30
0
11
174.6100
21
142.4300
31
0
0
LINE
8
VISIBLE
10
174.6100
20
142.4300
30
0
11
177.8000
21
140.6500
31
0
0
LINE
8
VISIBLE
10
177.8000
20
140.6500
30
0
11
180.8300
21
138.6200
31
0
0
LINE
8
VISIBLE
10
180.8300
20
138.6200
30
0
11
187.3000
21
147.5200
31
0
0
TEXT
8
TEXTO
10
52.0000
20
68.0000
30
0
40
3.2000
1
BARRENOS (corte láser): 1× Ø11
0
TEXT
8
TEXTO
10
52.0000
20
63.5000
30
0
40
2.8000
1
POSICIONES: DXF de corte a escala REAL 1:1 + _agujeros.csv (X·Y·Ø de cada barreno) — contornos interiores ídem
0
LINE
8
COTAS
10
52.0000
20
80.0000
30
0
11
52.0000
21
70.5000
31
0
0
LINE
8
COTAS
10
255.0000
20
80.0000
30
0
11
255.0000
21
70.5000
31
0
0
LINE
8
COTAS
10
52.0000
20
72.0000
30
0
11
255.0000
21
72.0000
31
0
0
SOLID
8
COTAS
10
52.0000
20
72.0000
30
0
11
54.5000
21
72.4500
31
0
12
54.5000
22
71.5500
32
0
13
54.5000
23
71.5500
33
0
0
SOLID
8
COTAS
10
255.0000
20
72.0000
30
0
11
252.5000
21
72.4500
31
0
12
252.5000
22
71.5500
32
0
13
252.5000
23
71.5500
33
0
0
TEXT
8
COTAS
10
153.5000
20
74.2000
30
0
40
3.5000
1
203
72
1
73
2
11
153.5000
21
74.2000
31
0
0
LINE
8
COTAS
10
256.0000
20
81.0000
30
0
11
265.5000
21
81.0000
31
0
0
LINE
8
COTAS
10
256.0000
20
176.0000
30
0
11
265.5000
21
176.0000
31
0
0
LINE
8
COTAS
10
264.0000
20
81.0000
30
0
11
264.0000
21
176.0000
31
0
0
SOLID
8
COTAS
10
264.0000
20
81.0000
30
0
11
264.4500
21
83.5000
31
0
12
263.5500
22
83.5000
32
0
13
263.5500
23
83.5000
33
0
0
SOLID
8
COTAS
10
264.0000
20
176.0000
30
0
11
264.4500
21
173.5000
31
0
12
263.5500
22
173.5000
32
0
13
263.5500
23
173.5000
33
0
0
TEXT
8
COTAS
10
266.2000
20
128.5000
30
0
40
3.5000
1
95
72
1
73
2
11
266.2000
21
128.5000
31
0
0
TEXT
8
TEXTO
10
52.0000
20
186.5000
30
0
40
3.5000
1
PIEZA PLANA DE CORTE — sin pliegues (láser directo)
0
TEXT
8
TEXTO
10
52.0000
20
181.0000
30
0
40
4.0000
1
ESPESOR DE CHAPA e = 3 mm (constante en toda la pieza)
0
LINE
8
FINA
10
0.0000
20
0.0000
30
0
11
297.0000
21
0.0000
31
0
0
LINE
8
FINA
10
297.0000
20
0.0000
30
0
11
297.0000
21
210.0000
31
0
0
LINE
8
FINA
10
297.0000
20
210.0000
30
0
11
0.0000
21
210.0000
31
0
0
LINE
8
FINA
10
0.0000
20
210.0000
30
0
11
0.0000
21
0.0000
31
0
0
LINE
8
NORMA
10
20.0000
20
10.0000
30
0
11
287.0000
21
10.0000
31
0
0
LINE
8
NORMA
10
287.0000
20
10.0000
30
0
11
287.0000
21
200.0000
31
0
0
LINE
8
NORMA
10
287.0000
20
200.0000
30
0
11
20.0000
21
200.0000
31
0
0
LINE
8
NORMA
10
20.0000
20
200.0000
30
0
11
20.0000
21
10.0000
31
0
0
LINE
8
NORMA
10
0.0000
20
105.0000
30
0
11
25.0000
21
105.0000
31
0
0
LINE
8
NORMA
10
297.0000
20
105.0000
30
0
11
282.0000
21
105.0000
31
0
0
LINE
8
NORMA
10
148.5000
20
0.0000
30
0
11
148.5000
21
15.0000
31
0
0
LINE
8
NORMA
10
148.5000
20
210.0000
30
0
11
148.5000
21
195.0000
31
0
0
LINE
8
FINA
10
49.5000
20
0.0000
30
0
11
49.5000
21
10.0000
31
0
0
LINE
8
FINA
10
49.5000
20
200.0000
30
0
11
49.5000
21
210.0000
31
0
0
LINE
8
FINA
10
99.0000
20
0.0000
30
0
11
99.0000
21
10.0000
31
0
0
LINE
8
FINA
10
99.0000
20
200.0000
30
0
11
99.0000
21
210.0000
31
0
0
LINE
8
FINA
10
148.5000
20
0.0000
30
0
11
148.5000
21
10.0000
31
0
0
LINE
8
FINA
10
148.5000
20
200.0000
30
0
11
148.5000
21
210.0000
31
0
0
LINE
8
FINA
10
198.0000
20
0.0000
30
0
11
198.0000
21
10.0000
31
0
0
LINE
8
FINA
10
198.0000
20
200.0000
30
0
11
198.0000
21
210.0000
31
0
0
LINE
8
FINA
10
247.5000
20
0.0000
30
0
11
247.5000
21
10.0000
31
0
0
LINE
8
FINA
10
247.5000
20
200.0000
30
0
11
247.5000
21
210.0000
31
0
0
LINE
8
FINA
10
0.0000
20
52.5000
30
0
11
10.0000
21
52.5000
31
0
0
LINE
8
FINA
10
287.0000
20
52.5000
30
0
11
297.0000
21
52.5000
31
0
0
LINE
8
FINA
10
0.0000
20
105.0000
30
0
11
10.0000
21
105.0000
31
0
0
LINE
8
FINA
10
287.0000
20
105.0000
30
0
11
297.0000
21
105.0000
31
0
0
LINE
8
FINA
10
0.0000
20
157.5000
30
0
11
10.0000
21
157.5000
31
0
0
LINE
8
FINA
10
287.0000
20
157.5000
30
0
11
297.0000
21
157.5000
31
0
0
TEXT
8
TEXTO
10
24.7500
20
5.0000
30
0
40
2.5000
1
1
72
1
73
2
11
24.7500
21
5.0000
31
0
0
TEXT
8
TEXTO
10
24.7500
20
205.0000
30
0
40
2.5000
1
1
72
1
73
2
11
24.7500
21
205.0000
31
0
0
TEXT
8
TEXTO
10
74.2500
20
5.0000
30
0
40
2.5000
1
2
72
1
73
2
11
74.2500
21
5.0000
31
0
0
TEXT
8
TEXTO
10
74.2500
20
205.0000
30
0
40
2.5000
1
2
72
1
73
2
11
74.2500
21
205.0000
31
0
0
TEXT
8
TEXTO
10
123.7500
20
5.0000
30
0
40
2.5000
1
3
72
1
73
2
11
123.7500
21
5.0000
31
0
0
TEXT
8
TEXTO
10
123.7500
20
205.0000
30
0
40
2.5000
1
3
72
1
73
2
11
123.7500
21
205.0000
31
0
0
TEXT
8
TEXTO
10
173.2500
20
5.0000
30
0
40
2.5000
1
4
72
1
73
2
11
173.2500
21
5.0000
31
0
0
TEXT
8
TEXTO
10
173.2500
20
205.0000
30
0
40
2.5000
1
4
72
1
73
2
11
173.2500
21
205.0000
31
0
0
TEXT
8
TEXTO
10
222.7500
20
5.0000
30
0
40
2.5000
1
5
72
1
73
2
11
222.7500
21
5.0000
31
0
0
TEXT
8
TEXTO
10
222.7500
20
205.0000
30
0
40
2.5000
1
5
72
1
73
2
11
222.7500
21
205.0000
31
0
0
TEXT
8
TEXTO
10
272.2500
20
5.0000
30
0
40
2.5000
1
6
72
1
73
2
11
272.2500
21
5.0000
31
0
0
TEXT
8
TEXTO
10
272.2500
20
205.0000
30
0
40
2.5000
1
6
72
1
73
2
11
272.2500
21
205.0000
31
0
0
TEXT
8
TEXTO
10
5.0000
20
183.7500
30
0
40
2.5000
1
A
72
1
73
2
11
5.0000
21
183.7500
31
0
0
TEXT
8
TEXTO
10
292.0000
20
183.7500
30
0
40
2.5000
1
A
72
1
73
2
11
292.0000
21
183.7500
31
0
0
TEXT
8
TEXTO
10
5.0000
20
131.2500
30
0
40
2.5000
1
B
72
1
73
2
11
5.0000
21
131.2500
31
0
0
TEXT
8
TEXTO
10
292.0000
20
131.2500
30
0
40
2.5000
1
B
72
1
73
2
11
292.0000
21
131.2500
31
0
0
TEXT
8
TEXTO
10
5.0000
20
78.7500
30
0
40
2.5000
1
C
72
1
73
2
11
5.0000
21
78.7500
31
0
0
TEXT
8
TEXTO
10
292.0000
20
78.7500
30
0
40
2.5000
1
C
72
1
73
2
11
292.0000
21
78.7500
31
0
0
TEXT
8
TEXTO
10
5.0000
20
26.2500
30
0
40
2.5000
1
D
72
1
73
2
11
5.0000
21
26.2500
31
0
0
TEXT
8
TEXTO
10
292.0000
20
26.2500
30
0
40
2.5000
1
D
72
1
73
2
11
292.0000
21
26.2500
31
0
0
LINE
8
NORMA
10
107.0000
20
10.0000
30
0
11
287.0000
21
10.0000
31
0
0
LINE
8
NORMA
10
287.0000
20
10.0000
30
0
11
287.0000
21
52.0000
31
0
0
LINE
8
NORMA
10
287.0000
20
52.0000
30
0
11
107.0000
21
52.0000
31
0
0
LINE
8
NORMA
10
107.0000
20
52.0000
30
0
11
107.0000
21
10.0000
31
0
0
LINE
8
NORMA
10
147.0000
20
10.0000
30
0
11
147.0000
21
52.0000
31
0
0
LINE
8
NORMA
10
241.0000
20
10.0000
30
0
11
241.0000
21
52.0000
31
0
0
LINE
8
FINA
10
107.0000
20
29.0000
30
0
11
147.0000
21
29.0000
31
0
0
TEXT
8
TEXTO
10
127.0000
20
43.4000
30
0
40
4.9000
1
ConveyOne
72
1
73
2
11
127.0000
21
43.4000
31
0
0
LINE
8
FINA
10
113.5000
20
38.6000
30
0
11
140.5000
21
38.6000
31
0
0
TEXT
8
TEXTO
10
127.0000
20
35.8000
30
0
40
1.3000
1
CAD · DISEÑO CAPA USER
72
1
73
2
11
127.0000
21
35.8000
31
0
0
TEXT
8
TEXTO
10
127.0000
20
32.6000
30
0
40
1.3000
1
ISO 5457 · 7200 · 129 · 5456-2
72
1
73
2
11
127.0000
21
32.6000
31
0
0
TEXT
8
TEXTO
10
127.0000
20
26.6000
30
0
40
1.4000
1
PROYECCIÓN — PRIMER DIEDRO
72
1
73
2
11
127.0000
21
26.6000
31
0
0
CIRCLE
8
TEXTO
10
122.4000
20
17.5000
30
0
40
2.9900
0
CIRCLE
8
TEXTO
10
122.4000
20
17.5000
30
0
40
1.6100
0
LINE
8
TEXTO
10
127.4600
20
14.5100
30
0
11
134.5900
21
15.8900
31
0
0
LINE
8
TEXTO
10
134.5900
20
15.8900
30
0
11
134.5900
21
19.1100
31
0
0
LINE
8
TEXTO
10
134.5900
20
19.1100
30
0
11
127.4600
21
20.4900
31
0
0
LINE
8
TEXTO
10
127.4600
20
20.4900
30
0
11
127.4600
21
14.5100
31
0
0
LINE
8
FINA
10
118.0300
20
17.5000
30
0
11
135.9700
21
17.5000
31
0
0
LINE
8
FINA
10
147.0000
20
39.0000
30
0
11
241.0000
21
39.0000
31
0
0
LINE
8
FINA
10
147.0000
20
29.0000
30
0
11
241.0000
21
29.0000
31
0
0
LINE
8
FINA
10
147.0000
20
19.0000
30
0
11
241.0000
21
19.0000
31
0
0
LINE
8
FINA
10
194.0000
20
29.0000
30
0
11
194.0000
21
39.0000
31
0
0
LINE
8
FINA
10
203.0000
20
19.0000
30
0
11
203.0000
21
29.0000
31
0
0
TEXT
8
TEXTO
10
148.3000
20
49.6000
30
0
40
1.4000
1
DESIGNACIÓN
0
TEXT
8
TEXTO
10
148.6000
20
44.1000
30
0
40
2.2224
1
LBD-01 · Bracket soporte B_005A 24V (cruciformes + arco angular) (x6) — DESARROL…
72
0
73
2
11
148.6000
21
44.1000
31
0
0
TEXT
8
TEXTO
10
148.3000
20
36.6000
30
0
40
1.4000
1
PROYECTO
0
TEXT
8
TEXTO
10
148.6000
20
32.6000
30
0
40
2.1329
1
CV-LBP-5000 · Movex 530 LBP 18 in × 5.0 m
72
0
73
2
11
148.6000
21
32.6000
31
0
0
TEXT
8
TEXTO
10
195.3000
20
36.6000
30
0
40
1.4000
1
FUENTE
0
TEXT
8
TEXTO
10
195.6000
20
32.6000
30
0
40
2.4000
1
chapa plegada — capa user
72
0
73
2
11
195.6000
21
32.6000
31
0
0
TEXT
8
TEXTO
10
148.3000
20
26.6000
30
0
40
1.4000
1
VERIFICACIÓN DE ESCALA
0
TEXT
8
TEXTO
10
148.6000
20
22.6000
30
0
40
2.4000
1
CAD EN MM (CAPA USER)
72
0
73
2
11
148.6000
21
22.6000
31
0
0
TEXT
8
TEXTO
10
204.3000
20
26.6000
30
0
40
1.4000
1
PLIEGUES
0
TEXT
8
TEXTO
10
204.6000
20
22.6000
30
0
40
2.6000
1
0
72
0
73
2
11
204.6000
21
22.6000
31
0
0
TEXT
8
TEXTO
10
148.3000
20
16.6000
30
0
40
1.4000
1
NOTA
0
TEXT
8
TEXTO
10
148.6000
20
13.1000
30
0
40
2.2000
1
Acero S275JR e3 — PINTADO RAL 7035 · e3 · tol. gral. ISO 2768-mK · K=0.44
72
0
73
2
11
148.6000
21
13.1000
31
0
0
LINE
8
FINA
10
241.0000
20
39.0000
30
0
11
287.0000
21
39.0000
31
0
0
LINE
8
FINA
10
241.0000
20
29.0000
30
0
11
287.0000
21
29.0000
31
0
0
LINE
8
FINA
10
241.0000
20
19.0000
30
0
11
287.0000
21
19.0000
31
0
0
LINE
8
FINA
10
264.0000
20
29.0000
30
0
11
264.0000
21
39.0000
31
0
0
LINE
8
FINA
10
267.0000
20
19.0000
30
0
11
267.0000
21
29.0000
31
0
0
TEXT
8
TEXTO
10
242.3000
20
49.6000
30
0
40
1.4000
1
ESCALA
0
TEXT
8
TEXTO
10
264.0000
20
44.1000
30
0
40
5.0000
1
1:1
72
1
73
2
11
264.0000
21
44.1000
31
0
0
TEXT
8
TEXTO
10
242.3000
20
36.6000
30
0
40
1.4000
1
FORMATO
0
TEXT
8
TEXTO
10
252.5000
20
32.6000
30
0
40
3.0000
1
A4
72
1
73
2
11
252.5000
21
32.6000
31
0
0
TEXT
8
TEXTO
10
265.3000
20
36.6000
30
0
40
1.4000
1
LÁMINA
0
TEXT
8
TEXTO
10
275.5000
20
32.6000
30
0
40
3.0000
1
1 / 1
72
1
73
2
11
275.5000
21
32.6000
31
0
0
TEXT
8
TEXTO
10
242.3000
20
26.6000
30
0
40
1.4000
1
FECHA
0
TEXT
8
TEXTO
10
254.0000
20
22.6000
30
0
40
2.6000
1
2026-08-13
72
1
73
2
11
254.0000
21
22.6000
31
0
0
TEXT
8
TEXTO
10
268.3000
20
26.6000
30
0
40
1.4000
1
UNIDADES
0
TEXT
8
TEXTO
10
277.0000
20
22.6000
30
0
40
3.0000
1
mm
72
1
73
2
11
277.0000
21
22.6000
31
0
0
TEXT
8
TEXTO
10
242.3000
20
16.6000
30
0
40
1.4000
1
Nº DE PLANO
0
TEXT
8
TEXTO
10
264.0000
20
13.1000
30
0
40
2.6000
1
LBD-01
72
1
73
2
11
264.0000
21
13.1000
31
0
0
ENDSEC
0
EOF
