0
SECTION
2
HEADER
9
$ACADVER
1
AC1009
9
$DWGCODEPAGE
3
ANSI_1252
0
ENDSEC
0
SECTION
2
TABLES
0
TABLE
2
LTYPE
70
2
0
LTYPE
2
CONTINUOUS
70
0
3
Solid line
72
65
73
0
40
0
0
LTYPE
2
DASHED
70
0
3
Segmentada __ __ __
72
65
73
2
40
6
49
4
49
-2
0
ENDTAB
0
TABLE
2
LAYER
70
8
0
LAYER
2
SOMBRA
70
0
62
8
6
CONTINUOUS
0
LAYER
2
NORMA
70
0
62
7
6
CONTINUOUS
0
LAYER
2
FINA
70
0
62
7
6
CONTINUOUS
0
LAYER
2
VISIBLE
70
0
62
7
6
CONTINUOUS
0
LAYER
2
COTAS
70
0
62
7
6
CONTINUOUS
0
LAYER
2
TEXTO
70
0
62
7
6
CONTINUOUS
0
LAYER
2
PLIEGUE
70
0
62
1
6
DASHED
0
LAYER
2
OCULTA
70
0
62
7
6
CONTINUOUS
0
ENDTAB
0
ENDSEC
0
SECTION
2
ENTITIES
0
LINE
8
VISIBLE
10
120.5000
20
63.1050
30
0
11
186.5000
21
63.1050
31
0
0
LINE
8
VISIBLE
10
186.5000
20
63.1050
30
0
11
255.0000
21
133.1050
31
0
0
LINE
8
VISIBLE
10
255.0000
20
133.1050
30
0
11
255.0000
21
193.8950
31
0
0
LINE
8
VISIBLE
10
255.0000
20
193.8950
30
0
11
52.0000
21
193.8950
31
0
0
LINE
8
VISIBLE
10
52.0000
20
193.8950
30
0
11
52.0000
21
133.1050
31
0
0
LINE
8
VISIBLE
10
52.0000
20
133.1050
30
0
11
120.5000
21
63.1050
31
0
0
CIRCLE
8
VISIBLE
10
153.5000
20
75.4050
30
0
40
5.5000
0
CIRCLE
8
VISIBLE
10
198.6200
20
101.4550
30
0
40
5.5000
0
CIRCLE
8
VISIBLE
10
108.3800
20
101.4550
30
0
40
5.5000
0
LINE
8
VISIBLE
10
194.9300
20
115.4150
30
0
11
192.1700
21
118.0950
31
0
0
LINE
8
VISIBLE
10
192.1700
20
118.0950
30
0
11
189.2300
21
120.5850
31
0
0
LINE
8
VISIBLE
10
189.2300
20
120.5850
30
0
11
186.1200
21
122.8750
31
0
0
LINE
8
VISIBLE
10
186.1200
20
122.8750
30
0
11
182.8800
21
124.9450
31
0
0
LINE
8
VISIBLE
10
182.8800
20
124.9450
30
0
11
179.5000
21
126.8050
31
0
0
LINE
8
VISIBLE
10
179.5000
20
126.8050
30
0
11
176.0100
21
128.4250
31
0
0
LINE
8
VISIBLE
10
176.0100
20
128.4250
30
0
11
172.4100
21
129.8150
31
0
0
LINE
8
VISIBLE
10
172.4100
20
129.8150
30
0
11
168.7300
21
130.9550
31
0
0
LINE
8
VISIBLE
10
168.7300
20
130.9550
30
0
11
164.9800
21
131.8450
31
0
0
LINE
8
VISIBLE
10
164.9800
20
131.8450
30
0
11
161.1800
21
132.4950
31
0
0
LINE
8
VISIBLE
10
161.1800
20
132.4950
30
0
11
157.3500
21
132.8750
31
0
0
LINE
8
VISIBLE
10
157.3500
20
132.8750
30
0
11
153.5000
21
133.0050
31
0
0
LINE
8
VISIBLE
10
153.5000
20
133.0050
30
0
11
149.6500
21
132.8750
31
0
0
LINE
8
VISIBLE
10
149.6500
20
132.8750
30
0
11
145.8200
21
132.4950
31
0
0
LINE
8
VISIBLE
10
145.8200
20
132.4950
30
0
11
142.0200
21
131.8450
31
0
0
LINE
8
VISIBLE
10
142.0200
20
131.8450
30
0
11
138.2700
21
130.9550
31
0
0
LINE
8
VISIBLE
10
138.2700
20
130.9550
30
0
11
134.5900
21
129.8150
31
0
0
LINE
8
VISIBLE
10
134.5900
20
129.8150
30
0
11
130.9900
21
128.4250
31
0
0
LINE
8
VISIBLE
10
130.9900
20
128.4250
30
0
11
127.5000
21
126.8050
31
0
0
LINE
8
VISIBLE
10
127.5000
20
126.8050
30
0
11
124.1200
21
124.9450
31
0
0
LINE
8
VISIBLE
10
124.1200
20
124.9450
30
0
11
120.8800
21
122.8750
31
0
0
LINE
8
VISIBLE
10
120.8800
20
122.8750
30
0
11
117.7700
21
120.5850
31
0
0
LINE
8
VISIBLE
10
117.7700
20
120.5850
30
0
11
114.8300
21
118.0950
31
0
0
LINE
8
VISIBLE
10
114.8300
20
118.0950
30
0
11
112.0700
21
115.4150
31
0
0
LINE
8
VISIBLE
10
112.0700
20
115.4150
30
0
11
119.9800
21
107.7750
31
0
0
LINE
8
VISIBLE
10
119.9800
20
107.7750
30
0
11
122.2200
21
109.9450
31
0
0
LINE
8
VISIBLE
10
122.2200
20
109.9450
30
0
11
124.6000
21
111.9550
31
0
0
LINE
8
VISIBLE
10
124.6000
20
111.9550
30
0
11
127.1100
21
113.8050
31
0
0
LINE
8
VISIBLE
10
127.1100
20
113.8050
30
0
11
129.7300
21
115.4850
31
0
0
LINE
8
VISIBLE
10
129.7300
20
115.4850
30
0
11
132.4600
21
116.9850
31
0
0
LINE
8
VISIBLE
10
132.4600
20
116.9850
30
0
11
135.2900
21
118.3050
31
0
0
LINE
8
VISIBLE
10
135.2900
20
118.3050
30
0
11
138.2000
21
119.4250
31
0
0
LINE
8
VISIBLE
10
138.2000
20
119.4250
30
0
11
141.1800
21
120.3450
31
0
0
LINE
8
VISIBLE
10
141.1800
20
120.3450
30
0
11
144.2100
21
121.0650
31
0
0
LINE
8
VISIBLE
10
144.2100
20
121.0650
30
0
11
147.2800
21
121.5850
31
0
0
LINE
8
VISIBLE
10
147.2800
20
121.5850
30
0
11
150.3800
21
121.9050
31
0
0
LINE
8
VISIBLE
10
150.3800
20
121.9050
30
0
11
153.5000
21
122.0050
31
0
0
LINE
8
VISIBLE
10
153.5000
20
122.0050
30
0
11
156.6200
21
121.9050
31
0
0
LINE
8
VISIBLE
10
156.6200
20
121.9050
30
0
11
159.7200
21
121.5850
31
0
0
LINE
8
VISIBLE
10
159.7200
20
121.5850
30
0
11
162.7900
21
121.0650
31
0
0
LINE
8
VISIBLE
10
162.7900
20
121.0650
30
0
11
165.8200
21
120.3450
31
0
0
LINE
8
VISIBLE
10
165.8200
20
120.3450
30
0
11
168.8000
21
119.4250
31
0
0
LINE
8
VISIBLE
10
168.8000
20
119.4250
30
0
11
171.7100
21
118.3050
31
0
0
LINE
8
VISIBLE
10
171.7100
20
118.3050
30
0
11
174.5400
21
116.9850
31
0
0
LINE
8
VISIBLE
10
174.5400
20
116.9850
30
0
11
177.2700
21
115.4850
31
0
0
LINE
8
VISIBLE
10
177.2700
20
115.4850
30
0
11
179.8900
21
113.8050
31
0
0
LINE
8
VISIBLE
10
179.8900
20
113.8050
30
0
11
182.4000
21
111.9550
31
0
0
LINE
8
VISIBLE
10
182.4000
20
111.9550
30
0
11
184.7800
21
109.9450
31
0
0
LINE
8
VISIBLE
10
184.7800
20
109.9450
30
0
11
187.0200
21
107.7750
31
0
0
LINE
8
VISIBLE
10
187.0200
20
107.7750
30
0
11
194.9300
21
115.4150
31
0
0
LINE
8
VISIBLE
10
74.3000
20
169.8950
30
0
11
85.3000
21
169.8950
31
0
0
LINE
8
VISIBLE
10
85.3000
20
169.8950
30
0
11
85.3000
21
173.8950
31
0
0
LINE
8
VISIBLE
10
85.3000
20
173.8950
30
0
11
95.8000
21
173.8950
31
0
0
LINE
8
VISIBLE
10
95.8000
20
173.8950
30
0
11
95.8000
21
184.8950
31
0
0
LINE
8
VISIBLE
10
95.8000
20
184.8950
30
0
11
85.3000
21
184.8950
31
0
0
LINE
8
VISIBLE
10
85.3000
20
184.8950
30
0
11
85.3000
21
188.8950
31
0
0
LINE
8
VISIBLE
10
85.3000
20
188.8950
30
0
11
74.3000
21
188.8950
31
0
0
LINE
8
VISIBLE
10
74.3000
20
188.8950
30
0
11
74.3000
21
184.8950
31
0
0
LINE
8
VISIBLE
10
74.3000
20
184.8950
30
0
11
63.8000
21
184.8950
31
0
0
LINE
8
VISIBLE
10
63.8000
20
184.8950
30
0
11
63.8000
21
173.8950
31
0
0
LINE
8
VISIBLE
10
63.8000
20
173.8950
30
0
11
74.3000
21
173.8950
31
0
0
LINE
8
VISIBLE
10
74.3000
20
173.8950
30
0
11
74.3000
21
169.8950
31
0
0
LINE
8
VISIBLE
10
126.4000
20
169.8950
30
0
11
137.4000
21
169.8950
31
0
0
LINE
8
VISIBLE
10
137.4000
20
169.8950
30
0
11
137.4000
21
173.8950
31
0
0
LINE
8
VISIBLE
10
137.4000
20
173.8950
30
0
11
147.9000
21
173.8950
31
0
0
LINE
8
VISIBLE
10
147.9000
20
173.8950
30
0
11
147.9000
21
184.8950
31
0
0
LINE
8
VISIBLE
10
147.9000
20
184.8950
30
0
11
137.4000
21
184.8950
31
0
0
LINE
8
VISIBLE
10
137.4000
20
184.8950
30
0
11
137.4000
21
188.8950
31
0
0
LINE
8
VISIBLE
10
137.4000
20
188.8950
30
0
11
126.4000
21
188.8950
31
0
0
LINE
8
VISIBLE
10
126.4000
20
188.8950
30
0
11
126.4000
21
184.8950
31
0
0
LINE
8
VISIBLE
10
126.4000
20
184.8950
30
0
11
115.9000
21
184.8950
31
0
0
LINE
8
VISIBLE
10
115.9000
20
184.8950
30
0
11
115.9000
21
173.8950
31
0
0
LINE
8
VISIBLE
10
115.9000
20
173.8950
30
0
11
126.4000
21
173.8950
31
0
0
LINE
8
VISIBLE
10
126.4000
20
173.8950
30
0
11
126.4000
21
169.8950
31
0
0
LINE
8
VISIBLE
10
169.6000
20
169.8950
30
0
11
180.6000
21
169.8950
31
0
0
LINE
8
VISIBLE
10
180.6000
20
169.8950
30
0
11
180.6000
21
173.8950
31
0
0
LINE
8
VISIBLE
10
180.6000
20
173.8950
30
0
11
191.1000
21
173.8950
31
0
0
LINE
8
VISIBLE
10
191.1000
20
173.8950
30
0
11
191.1000
21
184.8950
31
0
0
LINE
8
VISIBLE
10
191.1000
20
184.8950
30
0
11
180.6000
21
184.8950
31
0
0
LINE
8
VISIBLE
10
180.6000
20
184.8950
30
0
11
180.6000
21
188.8950
31
0
0
LINE
8
VISIBLE
10
180.6000
20
188.8950
30
0
11
169.6000
21
188.8950
31
0
0
LINE
8
VISIBLE
10
169.6000
20
188.8950
30
0
11
169.6000
21
184.8950
31
0
0
LINE
8
VISIBLE
10
169.6000
20
184.8950
30
0
11
159.1000
21
184.8950
31
0
0
LINE
8
VISIBLE
10
159.1000
20
184.8950
30
0
11
159.1000
21
173.8950
31
0
0
LINE
8
VISIBLE
10
159.1000
20
173.8950
30
0
11
169.6000
21
173.8950
31
0
0
LINE
8
VISIBLE
10
169.6000
20
173.8950
30
0
11
169.6000
21
169.8950
31
0
0
LINE
8
VISIBLE
10
221.7000
20
169.8950
30
0
11
232.7000
21
169.8950
31
0
0
LINE
8
VISIBLE
10
232.7000
20
169.8950
30
0
11
232.7000
21
173.8950
31
0
0
LINE
8
VISIBLE
10
232.7000
20
173.8950
30
0
11
243.2000
21
173.8950
31
0
0
LINE
8
VISIBLE
10
243.2000
20
173.8950
30
0
11
243.2000
21
184.8950
31
0
0
LINE
8
VISIBLE
10
243.2000
20
184.8950
30
0
11
232.7000
21
184.8950
31
0
0
LINE
8
VISIBLE
10
232.7000
20
184.8950
30
0
11
232.7000
21
188.8950
31
0
0
LINE
8
VISIBLE
10
232.7000
20
188.8950
30
0
11
221.7000
21
188.8950
31
0
0
LINE
8
VISIBLE
10
221.7000
20
188.8950
30
0
11
221.7000
21
184.8950
31
0
0
LINE
8
VISIBLE
10
221.7000
20
184.8950
30
0
11
211.2000
21
184.8950
31
0
0
LINE
8
VISIBLE
10
211.2000
20
184.8950
30
0
11
211.2000
21
173.8950
31
0
0
LINE
8
VISIBLE
10
211.2000
20
173.8950
30
0
11
221.7000
21
173.8950
31
0
0
LINE
8
VISIBLE
10
221.7000
20
173.8950
30
0
11
221.7000
21
169.8950
31
0
0
TEXT
8
TEXTO
10
52.0000
20
50.1050
30
0
40
3.2000
1
BARRENOS (corte láser): 3× Ø11
0
TEXT
8
TEXTO
10
52.0000
20
45.6050
30
0
40
2.8000
1
POSICIONES: DXF de corte a escala REAL 1:1 + _agujeros.csv (X·Y·Ø de cada barreno) — contornos interiores ídem
0
LINE
8
FINA
10
52.0000
20
158.1050
30
0
11
255.0000
21
158.1050
31
0
0
LINE
8
PLIEGUE
10
52.0000
20
161.4950
30
0
11
255.0000
21
161.4950
31
0
0
LINE
8
FINA
10
52.0000
20
164.8950
30
0
11
255.0000
21
164.8950
31
0
0
TEXT
8
TEXTO
10
153.5000
20
167.4950
30
0
40
2.8000
1
PLEGAR ARRIBA 90° R3 (ala de apriete al canal)
72
1
73
2
11
153.5000
21
167.4950
31
0
0
LINE
8
COTAS
10
52.0000
20
62.1050
30
0
11
52.0000
21
52.6050
31
0
0
LINE
8
COTAS
10
255.0000
20
62.1050
30
0
11
255.0000
21
52.6050
31
0
0
LINE
8
COTAS
10
52.0000
20
54.1050
30
0
11
255.0000
21
54.1050
31
0
0
SOLID
8
COTAS
10
52.0000
20
54.1050
30
0
11
54.5000
21
54.5550
31
0
12
54.5000
22
53.6550
32
0
13
54.5000
23
53.6550
33
0
0
SOLID
8
COTAS
10
255.0000
20
54.1050
30
0
11
252.5000
21
54.5550
31
0
12
252.5000
22
53.6550
32
0
13
252.5000
23
53.6550
33
0
0
TEXT
8
COTAS
10
153.5000
20
56.3050
30
0
40
3.5000
1
203
72
1
73
2
11
153.5000
21
56.3050
31
0
0
LINE
8
COTAS
10
256.0000
20
63.1050
30
0
11
265.5000
21
63.1050
31
0
0
LINE
8
COTAS
10
256.0000
20
193.8950
30
0
11
265.5000
21
193.8950
31
0
0
LINE
8
COTAS
10
264.0000
20
63.1050
30
0
11
264.0000
21
193.8950
31
0
0
SOLID
8
COTAS
10
264.0000
20
63.1050
30
0
11
264.4500
21
65.6050
31
0
12
263.5500
22
65.6050
32
0
13
263.5500
23
65.6050
33
0
0
SOLID
8
COTAS
10
264.0000
20
193.8950
30
0
11
264.4500
21
191.3950
31
0
12
263.5500
22
191.3950
32
0
13
263.5500
23
191.3950
33
0
0
TEXT
8
COTAS
10
266.2000
20
128.5000
30
0
40
3.5000
1
130.8
72
1
73
2
11
266.2000
21
128.5000
31
0
0
LINE
8
COTAS
10
51.0000
20
63.1050
30
0
11
43.5000
21
63.1050
31
0
0
LINE
8
COTAS
10
51.0000
20
161.4950
30
0
11
43.5000
21
161.4950
31
0
0
LINE
8
COTAS
10
45.0000
20
63.1050
30
0
11
45.0000
21
161.4950
31
0
0
SOLID
8
COTAS
10
45.0000
20
63.1050
30
0
11
45.4500
21
65.6050
31
0
12
44.5500
22
65.6050
32
0
13
44.5500
23
65.6050
33
0
0
SOLID
8
COTAS
10
45.0000
20
161.4950
30
0
11
45.4500
21
158.9950
31
0
12
44.5500
22
158.9950
32
0
13
44.5500
23
158.9950
33
0
0
TEXT
8
COTAS
10
47.2000
20
112.3000
30
0
40
3.5000
1
98.4
72
1
73
2
11
47.2000
21
112.3000
31
0
0
TEXT
8
TEXTO
10
52.0000
20
204.3950
30
0
40
3.5000
1
DESARROLLO DE CHAPA — BA = ang·(R + K·t) · K=0.44 · R=3 · t=3 ? BA(90°)=6.79 mm
0
TEXT
8
TEXTO
10
52.0000
20
198.8950
30
0
40
4.0000
1
ESPESOR DE CHAPA e = 3 mm (constante en toda la pieza)
0
LINE
8
FINA
10
0.0000
20
0.0000
30
0
11
297.0000
21
0.0000
31
0
0
LINE
8
FINA
10
297.0000
20
0.0000
30
0
11
297.0000
21
210.0000
31
0
0
LINE
8
FINA
10
297.0000
20
210.0000
30
0
11
0.0000
21
210.0000
31
0
0
LINE
8
FINA
10
0.0000
20
210.0000
30
0
11
0.0000
21
0.0000
31
0
0
LINE
8
NORMA
10
20.0000
20
10.0000
30
0
11
287.0000
21
10.0000
31
0
0
LINE
8
NORMA
10
287.0000
20
10.0000
30
0
11
287.0000
21
200.0000
31
0
0
LINE
8
NORMA
10
287.0000
20
200.0000
30
0
11
20.0000
21
200.0000
31
0
0
LINE
8
NORMA
10
20.0000
20
200.0000
30
0
11
20.0000
21
10.0000
31
0
0
LINE
8
NORMA
10
0.0000
20
105.0000
30
0
11
25.0000
21
105.0000
31
0
0
LINE
8
NORMA
10
297.0000
20
105.0000
30
0
11
282.0000
21
105.0000
31
0
0
LINE
8
NORMA
10
148.5000
20
0.0000
30
0
11
148.5000
21
15.0000
31
0
0
LINE
8
NORMA
10
148.5000
20
210.0000
30
0
11
148.5000
21
195.0000
31
0
0
LINE
8
FINA
10
49.5000
20
0.0000
30
0
11
49.5000
21
10.0000
31
0
0
LINE
8
FINA
10
49.5000
20
200.0000
30
0
11
49.5000
21
210.0000
31
0
0
LINE
8
FINA
10
99.0000
20
0.0000
30
0
11
99.0000
21
10.0000
31
0
0
LINE
8
FINA
10
99.0000
20
200.0000
30
0
11
99.0000
21
210.0000
31
0
0
LINE
8
FINA
10
148.5000
20
0.0000
30
0
11
148.5000
21
10.0000
31
0
0
LINE
8
FINA
10
148.5000
20
200.0000
30
0
11
148.5000
21
210.0000
31
0
0
LINE
8
FINA
10
198.0000
20
0.0000
30
0
11
198.0000
21
10.0000
31
0
0
LINE
8
FINA
10
198.0000
20
200.0000
30
0
11
198.0000
21
210.0000
31
0
0
LINE
8
FINA
10
247.5000
20
0.0000
30
0
11
247.5000
21
10.0000
31
0
0
LINE
8
FINA
10
247.5000
20
200.0000
30
0
11
247.5000
21
210.0000
31
0
0
LINE
8
FINA
10
0.0000
20
52.5000
30
0
11
10.0000
21
52.5000
31
0
0
LINE
8
FINA
10
287.0000
20
52.5000
30
0
11
297.0000
21
52.5000
31
0
0
LINE
8
FINA
10
0.0000
20
105.0000
30
0
11
10.0000
21
105.0000
31
0
0
LINE
8
FINA
10
287.0000
20
105.0000
30
0
11
297.0000
21
105.0000
31
0
0
LINE
8
FINA
10
0.0000
20
157.5000
30
0
11
10.0000
21
157.5000
31
0
0
LINE
8
FINA
10
287.0000
20
157.5000
30
0
11
297.0000
21
157.5000
31
0
0
TEXT
8
TEXTO
10
24.7500
20
5.0000
30
0
40
2.5000
1
1
72
1
73
2
11
24.7500
21
5.0000
31
0
0
TEXT
8
TEXTO
10
24.7500
20
205.0000
30
0
40
2.5000
1
1
72
1
73
2
11
24.7500
21
205.0000
31
0
0
TEXT
8
TEXTO
10
74.2500
20
5.0000
30
0
40
2.5000
1
2
72
1
73
2
11
74.2500
21
5.0000
31
0
0
TEXT
8
TEXTO
10
74.2500
20
205.0000
30
0
40
2.5000
1
2
72
1
73
2
11
74.2500
21
205.0000
31
0
0
TEXT
8
TEXTO
10
123.7500
20
5.0000
30
0
40
2.5000
1
3
72
1
73
2
11
123.7500
21
5.0000
31
0
0
TEXT
8
TEXTO
10
123.7500
20
205.0000
30
0
40
2.5000
1
3
72
1
73
2
11
123.7500
21
205.0000
31
0
0
TEXT
8
TEXTO
10
173.2500
20
5.0000
30
0
40
2.5000
1
4
72
1
73
2
11
173.2500
21
5.0000
31
0
0
TEXT
8
TEXTO
10
173.2500
20
205.0000
30
0
40
2.5000
1
4
72
1
73
2
11
173.2500
21
205.0000
31
0
0
TEXT
8
TEXTO
10
222.7500
20
5.0000
30
0
40
2.5000
1
5
72
1
73
2
11
222.7500
21
5.0000
31
0
0
TEXT
8
TEXTO
10
222.7500
20
205.0000
30
0
40
2.5000
1
5
72
1
73
2
11
222.7500
21
205.0000
31
0
0
TEXT
8
TEXTO
10
272.2500
20
5.0000
30
0
40
2.5000
1
6
72
1
73
2
11
272.2500
21
5.0000
31
0
0
TEXT
8
TEXTO
10
272.2500
20
205.0000
30
0
40
2.5000
1
6
72
1
73
2
11
272.2500
21
205.0000
31
0
0
TEXT
8
TEXTO
10
5.0000
20
183.7500
30
0
40
2.5000
1
A
72
1
73
2
11
5.0000
21
183.7500
31
0
0
TEXT
8
TEXTO
10
292.0000
20
183.7500
30
0
40
2.5000
1
A
72
1
73
2
11
292.0000
21
183.7500
31
0
0
TEXT
8
TEXTO
10
5.0000
20
131.2500
30
0
40
2.5000
1
B
72
1
73
2
11
5.0000
21
131.2500
31
0
0
TEXT
8
TEXTO
10
292.0000
20
131.2500
30
0
40
2.5000
1
B
72
1
73
2
11
292.0000
21
131.2500
31
0
0
TEXT
8
TEXTO
10
5.0000
20
78.7500
30
0
40
2.5000
1
C
72
1
73
2
11
5.0000
21
78.7500
31
0
0
TEXT
8
TEXTO
10
292.0000
20
78.7500
30
0
40
2.5000
1
C
72
1
73
2
11
292.0000
21
78.7500
31
0
0
TEXT
8
TEXTO
10
5.0000
20
26.2500
30
0
40
2.5000
1
D
72
1
73
2
11
5.0000
21
26.2500
31
0
0
TEXT
8
TEXTO
10
292.0000
20
26.2500
30
0
40
2.5000
1
D
72
1
73
2
11
292.0000
21
26.2500
31
0
0
LINE
8
NORMA
10
107.0000
20
10.0000
30
0
11
287.0000
21
10.0000
31
0
0
LINE
8
NORMA
10
287.0000
20
10.0000
30
0
11
287.0000
21
52.0000
31
0
0
LINE
8
NORMA
10
287.0000
20
52.0000
30
0
11
107.0000
21
52.0000
31
0
0
LINE
8
NORMA
10
107.0000
20
52.0000
30
0
11
107.0000
21
10.0000
31
0
0
LINE
8
NORMA
10
147.0000
20
10.0000
30
0
11
147.0000
21
52.0000
31
0
0
LINE
8
NORMA
10
241.0000
20
10.0000
30
0
11
241.0000
21
52.0000
31
0
0
LINE
8
FINA
10
107.0000
20
29.0000
30
0
11
147.0000
21
29.0000
31
0
0
TEXT
8
TEXTO
10
127.0000
20
43.4000
30
0
40
4.9000
1
ConveyOne
72
1
73
2
11
127.0000
21
43.4000
31
0
0
LINE
8
FINA
10
113.5000
20
38.6000
30
0
11
140.5000
21
38.6000
31
0
0
TEXT
8
TEXTO
10
127.0000
20
35.8000
30
0
40
1.3000
1
CAD · DISEÑO CAPA USER
72
1
73
2
11
127.0000
21
35.8000
31
0
0
TEXT
8
TEXTO
10
127.0000
20
32.6000
30
0
40
1.3000
1
ISO 5457 · 7200 · 129 · 5456-2
72
1
73
2
11
127.0000
21
32.6000
31
0
0
TEXT
8
TEXTO
10
127.0000
20
26.6000
30
0
40
1.4000
1
PROYECCIÓN — PRIMER DIEDRO
72
1
73
2
11
127.0000
21
26.6000
31
0
0
CIRCLE
8
TEXTO
10
122.4000
20
17.5000
30
0
40
2.9900
0
CIRCLE
8
TEXTO
10
122.4000
20
17.5000
30
0
40
1.6100
0
LINE
8
TEXTO
10
127.4600
20
14.5100
30
0
11
134.5900
21
15.8900
31
0
0
LINE
8
TEXTO
10
134.5900
20
15.8900
30
0
11
134.5900
21
19.1100
31
0
0
LINE
8
TEXTO
10
134.5900
20
19.1100
30
0
11
127.4600
21
20.4900
31
0
0
LINE
8
TEXTO
10
127.4600
20
20.4900
30
0
11
127.4600
21
14.5100
31
0
0
LINE
8
FINA
10
118.0300
20
17.5000
30
0
11
135.9700
21
17.5000
31
0
0
LINE
8
FINA
10
147.0000
20
39.0000
30
0
11
241.0000
21
39.0000
31
0
0
LINE
8
FINA
10
147.0000
20
29.0000
30
0
11
241.0000
21
29.0000
31
0
0
LINE
8
FINA
10
147.0000
20
19.0000
30
0
11
241.0000
21
19.0000
31
0
0
LINE
8
FINA
10
194.0000
20
29.0000
30
0
11
194.0000
21
39.0000
31
0
0
LINE
8
FINA
10
203.0000
20
19.0000
30
0
11
203.0000
21
29.0000
31
0
0
TEXT
8
TEXTO
10
148.3000
20
49.6000
30
0
40
1.4000
1
DESIGNACIÓN
0
TEXT
8
TEXTO
10
148.6000
20
44.1000
30
0
40
2.0000
1
LBD-01 · Bracket soporte B_005A 24V (ángulo: cruciformes + pivote/arco de aplome) (x6) — DES…
72
0
73
2
11
148.6000
21
44.1000
31
0
0
TEXT
8
TEXTO
10
148.3000
20
36.6000
30
0
40
1.4000
1
PROYECTO
0
TEXT
8
TEXTO
10
148.6000
20
32.6000
30
0
40
2.1329
1
CV-LBP-5000 · Movex 530 LBP 18 in × 5.0 m
72
0
73
2
11
148.6000
21
32.6000
31
0
0
TEXT
8
TEXTO
10
195.3000
20
36.6000
30
0
40
1.4000
1
FUENTE
0
TEXT
8
TEXTO
10
195.6000
20
32.6000
30
0
40
2.4000
1
chapa plegada — capa user
72
0
73
2
11
195.6000
21
32.6000
31
0
0
TEXT
8
TEXTO
10
148.3000
20
26.6000
30
0
40
1.4000
1
VERIFICACIÓN DE ESCALA
0
TEXT
8
TEXTO
10
148.6000
20
22.6000
30
0
40
2.4000
1
CAD EN MM (CAPA USER)
72
0
73
2
11
148.6000
21
22.6000
31
0
0
TEXT
8
TEXTO
10
204.3000
20
26.6000
30
0
40
1.4000
1
PLIEGUES
0
TEXT
8
TEXTO
10
204.6000
20
22.6000
30
0
40
2.6000
1
1
72
0
73
2
11
204.6000
21
22.6000
31
0
0
TEXT
8
TEXTO
10
148.3000
20
16.6000
30
0
40
1.4000
1
NOTA
0
TEXT
8
TEXTO
10
148.6000
20
13.1000
30
0
40
2.2000
1
Acero S275JR e3 — PINTADO RAL 7035 · e3 · tol. gral. ISO 2768-mK · K=0.44
72
0
73
2
11
148.6000
21
13.1000
31
0
0
LINE
8
FINA
10
241.0000
20
39.0000
30
0
11
287.0000
21
39.0000
31
0
0
LINE
8
FINA
10
241.0000
20
29.0000
30
0
11
287.0000
21
29.0000
31
0
0
LINE
8
FINA
10
241.0000
20
19.0000
30
0
11
287.0000
21
19.0000
31
0
0
LINE
8
FINA
10
264.0000
20
29.0000
30
0
11
264.0000
21
39.0000
31
0
0
LINE
8
FINA
10
267.0000
20
19.0000
30
0
11
267.0000
21
29.0000
31
0
0
TEXT
8
TEXTO
10
242.3000
20
49.6000
30
0
40
1.4000
1
ESCALA
0
TEXT
8
TEXTO
10
264.0000
20
44.1000
30
0
40
5.0000
1
1:1
72
1
73
2
11
264.0000
21
44.1000
31
0
0
TEXT
8
TEXTO
10
242.3000
20
36.6000
30
0
40
1.4000
1
FORMATO
0
TEXT
8
TEXTO
10
252.5000
20
32.6000
30
0
40
3.0000
1
A4
72
1
73
2
11
252.5000
21
32.6000
31
0
0
TEXT
8
TEXTO
10
265.3000
20
36.6000
30
0
40
1.4000
1
LÁMINA
0
TEXT
8
TEXTO
10
275.5000
20
32.6000
30
0
40
3.0000
1
1 / 1
72
1
73
2
11
275.5000
21
32.6000
31
0
0
TEXT
8
TEXTO
10
242.3000
20
26.6000
30
0
40
1.4000
1
FECHA
0
TEXT
8
TEXTO
10
254.0000
20
22.6000
30
0
40
2.6000
1
2026-08-13
72
1
73
2
11
254.0000
21
22.6000
31
0
0
TEXT
8
TEXTO
10
268.3000
20
26.6000
30
0
40
1.4000
1
UNIDADES
0
TEXT
8
TEXTO
10
277.0000
20
22.6000
30
0
40
3.0000
1
mm
72
1
73
2
11
277.0000
21
22.6000
31
0
0
TEXT
8
TEXTO
10
242.3000
20
16.6000
30
0
40
1.4000
1
Nº DE PLANO
0
TEXT
8
TEXTO
10
264.0000
20
13.1000
30
0
40
2.6000
1
LBD-01
72
1
73
2
11
264.0000
21
13.1000
31
0
0
ENDSEC
0
EOF
