0
SECTION
2
HEADER
9
$ACADVER
1
AC1009
9
$DWGCODEPAGE
3
ANSI_1252
0
ENDSEC
0
SECTION
2
TABLES
0
TABLE
2
LTYPE
70
2
0
LTYPE
2
CONTINUOUS
70
0
3
Solid line
72
65
73
0
40
0
0
LTYPE
2
DASHED
70
0
3
Segmentada __ __ __
72
65
73
2
40
6
49
4
49
-2
0
ENDTAB
0
TABLE
2
LAYER
70
8
0
LAYER
2
SOMBRA
70
0
62
8
6
CONTINUOUS
0
LAYER
2
NORMA
70
0
62
7
6
CONTINUOUS
0
LAYER
2
FINA
70
0
62
7
6
CONTINUOUS
0
LAYER
2
VISIBLE
70
0
62
7
6
CONTINUOUS
0
LAYER
2
COTAS
70
0
62
7
6
CONTINUOUS
0
LAYER
2
TEXTO
70
0
62
7
6
CONTINUOUS
0
LAYER
2
PLIEGUE
70
0
62
1
6
DASHED
0
LAYER
2
OCULTA
70
0
62
7
6
CONTINUOUS
0
ENDTAB
0
ENDSEC
0
SECTION
2
ENTITIES
0
LINE
8
VISIBLE
10
117.0000
20
159.4750
30
0
11
734.0000
21
159.4750
31
0
0
LINE
8
VISIBLE
10
734.0000
20
159.4750
30
0
11
734.0000
21
481.5250
31
0
0
LINE
8
VISIBLE
10
734.0000
20
481.5250
30
0
11
117.0000
21
481.5250
31
0
0
LINE
8
VISIBLE
10
117.0000
20
481.5250
30
0
11
117.0000
21
159.4750
31
0
0
CIRCLE
8
VISIBLE
10
355.0000
20
397.9950
30
0
40
3.5000
0
TEXT
8
TEXTO
10
359.2000
20
397.1950
30
0
40
1.9000
1
A
0
CIRCLE
8
VISIBLE
10
355.0000
20
297.9950
30
0
40
3.5000
0
TEXT
8
TEXTO
10
359.2000
20
297.1950
30
0
40
1.9000
1
A
0
CIRCLE
8
VISIBLE
10
575.0000
20
397.9950
30
0
40
3.5000
0
TEXT
8
TEXTO
10
579.2000
20
397.1950
30
0
40
1.9000
1
A
0
CIRCLE
8
VISIBLE
10
575.0000
20
297.9950
30
0
40
3.5000
0
TEXT
8
TEXTO
10
579.2000
20
297.1950
30
0
40
1.9000
1
A
0
CIRCLE
8
VISIBLE
10
420.0000
20
346.9950
30
0
40
12.5000
0
TEXT
8
TEXTO
10
433.2000
20
346.1950
30
0
40
1.9000
1
B
0
CIRCLE
8
VISIBLE
10
177.0000
20
171.9750
30
0
40
3.5000
0
TEXT
8
TEXTO
10
181.2000
20
171.1750
30
0
40
1.9000
1
A
0
CIRCLE
8
VISIBLE
10
425.5000
20
171.9750
30
0
40
3.5000
0
TEXT
8
TEXTO
10
429.7000
20
171.1750
30
0
40
1.9000
1
A
0
CIRCLE
8
VISIBLE
10
674.0000
20
171.9750
30
0
40
3.5000
0
TEXT
8
TEXTO
10
678.2000
20
171.1750
30
0
40
1.9000
1
A
0
TEXT
8
TEXTO
10
117.0000
20
146.4750
30
0
40
3.2000
1
BARRENOS (corte láser): A = 7× Ø7 · B = 1× Ø25
0
TEXT
8
TEXTO
10
117.0000
20
141.9750
30
0
40
2.8000
1
POSICIONES: DXF de corte a escala REAL 1:1 + _agujeros.csv (X·Y·Ø de cada barreno) — contornos interiores ídem
0
LINE
8
FINA
10
117.0000
20
182.4750
30
0
11
734.0000
21
182.4750
31
0
0
LINE
8
PLIEGUE
10
117.0000
20
184.7350
30
0
11
734.0000
21
184.7350
31
0
0
LINE
8
FINA
10
117.0000
20
186.9950
30
0
11
734.0000
21
186.9950
31
0
0
LINE
8
FINA
10
117.0000
20
413.9950
30
0
11
734.0000
21
413.9950
31
0
0
LINE
8
PLIEGUE
10
117.0000
20
416.2650
30
0
11
734.0000
21
416.2650
31
0
0
LINE
8
FINA
10
117.0000
20
418.5250
30
0
11
734.0000
21
418.5250
31
0
0
TEXT
8
TEXTO
10
425.5000
20
302.4950
30
0
40
2.8000
1
2 PLIEGUES 90° R2 — COSTADO EN C (pestaña 27 · alma 235 · tira 67)
72
1
73
2
11
425.5000
21
302.4950
31
0
0
LINE
8
COTAS
10
117.0000
20
158.4750
30
0
11
117.0000
21
148.9750
31
0
0
LINE
8
COTAS
10
734.0000
20
158.4750
30
0
11
734.0000
21
148.9750
31
0
0
LINE
8
COTAS
10
117.0000
20
150.4750
30
0
11
734.0000
21
150.4750
31
0
0
SOLID
8
COTAS
10
117.0000
20
150.4750
30
0
11
119.5000
21
150.9250
31
0
12
119.5000
22
150.0250
32
0
13
119.5000
23
150.0250
33
0
0
SOLID
8
COTAS
10
734.0000
20
150.4750
30
0
11
731.5000
21
150.9250
31
0
12
731.5000
22
150.0250
32
0
13
731.5000
23
150.0250
33
0
0
TEXT
8
COTAS
10
425.5000
20
152.6750
30
0
40
3.5000
1
617
72
1
73
2
11
425.5000
21
152.6750
31
0
0
LINE
8
COTAS
10
735.0000
20
159.4750
30
0
11
744.5000
21
159.4750
31
0
0
LINE
8
COTAS
10
735.0000
20
481.5250
30
0
11
744.5000
21
481.5250
31
0
0
LINE
8
COTAS
10
743.0000
20
159.4750
30
0
11
743.0000
21
481.5250
31
0
0
SOLID
8
COTAS
10
743.0000
20
159.4750
30
0
11
743.4500
21
161.9750
31
0
12
742.5500
22
161.9750
32
0
13
742.5500
23
161.9750
33
0
0
SOLID
8
COTAS
10
743.0000
20
481.5250
30
0
11
743.4500
21
479.0250
31
0
12
742.5500
22
479.0250
32
0
13
742.5500
23
479.0250
33
0
0
TEXT
8
COTAS
10
745.2000
20
320.5000
30
0
40
3.5000
1
322.1
72
1
73
2
11
745.2000
21
320.5000
31
0
0
LINE
8
COTAS
10
116.0000
20
159.4750
30
0
11
108.5000
21
159.4750
31
0
0
LINE
8
COTAS
10
116.0000
20
184.7350
30
0
11
108.5000
21
184.7350
31
0
0
LINE
8
COTAS
10
110.0000
20
159.4750
30
0
11
110.0000
21
184.7350
31
0
0
SOLID
8
COTAS
10
110.0000
20
159.4750
30
0
11
110.4500
21
161.9750
31
0
12
109.5500
22
161.9750
32
0
13
109.5500
23
161.9750
33
0
0
SOLID
8
COTAS
10
110.0000
20
184.7350
30
0
11
110.4500
21
182.2350
31
0
12
109.5500
22
182.2350
32
0
13
109.5500
23
182.2350
33
0
0
TEXT
8
COTAS
10
112.2000
20
172.1050
30
0
40
3.5000
1
25.3
72
1
73
2
11
112.2000
21
172.1050
31
0
0
LINE
8
COTAS
10
116.0000
20
159.4750
30
0
11
101.5000
21
159.4750
31
0
0
LINE
8
COTAS
10
116.0000
20
416.2650
30
0
11
101.5000
21
416.2650
31
0
0
LINE
8
COTAS
10
103.0000
20
159.4750
30
0
11
103.0000
21
416.2650
31
0
0
SOLID
8
COTAS
10
103.0000
20
159.4750
30
0
11
103.4500
21
161.9750
31
0
12
102.5500
22
161.9750
32
0
13
102.5500
23
161.9750
33
0
0
SOLID
8
COTAS
10
103.0000
20
416.2650
30
0
11
103.4500
21
413.7650
31
0
12
102.5500
22
413.7650
32
0
13
102.5500
23
413.7650
33
0
0
TEXT
8
COTAS
10
105.2000
20
287.8700
30
0
40
3.5000
1
256.8
72
1
73
2
11
105.2000
21
287.8700
31
0
0
TEXT
8
TEXTO
10
117.0000
20
492.0250
30
0
40
3.5000
1
DESARROLLO DE CHAPA — BA = ang·(R + K·t) · K=0.44 · R=2 · t=2 ? BA(90°)=4.52 mm
0
TEXT
8
TEXTO
10
117.0000
20
486.5250
30
0
40
4.0000
1
ESPESOR DE CHAPA e = 2 mm (constante en toda la pieza)
0
LINE
8
FINA
10
0.0000
20
0.0000
30
0
11
841.0000
21
0.0000
31
0
0
LINE
8
FINA
10
841.0000
20
0.0000
30
0
11
841.0000
21
594.0000
31
0
0
LINE
8
FINA
10
841.0000
20
594.0000
30
0
11
0.0000
21
594.0000
31
0
0
LINE
8
FINA
10
0.0000
20
594.0000
30
0
11
0.0000
21
0.0000
31
0
0
LINE
8
NORMA
10
20.0000
20
10.0000
30
0
11
831.0000
21
10.0000
31
0
0
LINE
8
NORMA
10
831.0000
20
10.0000
30
0
11
831.0000
21
584.0000
31
0
0
LINE
8
NORMA
10
831.0000
20
584.0000
30
0
11
20.0000
21
584.0000
31
0
0
LINE
8
NORMA
10
20.0000
20
584.0000
30
0
11
20.0000
21
10.0000
31
0
0
LINE
8
NORMA
10
0.0000
20
297.0000
30
0
11
25.0000
21
297.0000
31
0
0
LINE
8
NORMA
10
841.0000
20
297.0000
30
0
11
826.0000
21
297.0000
31
0
0
LINE
8
NORMA
10
420.5000
20
0.0000
30
0
11
420.5000
21
15.0000
31
0
0
LINE
8
NORMA
10
420.5000
20
594.0000
30
0
11
420.5000
21
579.0000
31
0
0
LINE
8
FINA
10
52.5625
20
0.0000
30
0
11
52.5625
21
10.0000
31
0
0
LINE
8
FINA
10
52.5625
20
584.0000
30
0
11
52.5625
21
594.0000
31
0
0
LINE
8
FINA
10
105.1250
20
0.0000
30
0
11
105.1250
21
10.0000
31
0
0
LINE
8
FINA
10
105.1250
20
584.0000
30
0
11
105.1250
21
594.0000
31
0
0
LINE
8
FINA
10
157.6875
20
0.0000
30
0
11
157.6875
21
10.0000
31
0
0
LINE
8
FINA
10
157.6875
20
584.0000
30
0
11
157.6875
21
594.0000
31
0
0
LINE
8
FINA
10
210.2500
20
0.0000
30
0
11
210.2500
21
10.0000
31
0
0
LINE
8
FINA
10
210.2500
20
584.0000
30
0
11
210.2500
21
594.0000
31
0
0
LINE
8
FINA
10
262.8125
20
0.0000
30
0
11
262.8125
21
10.0000
31
0
0
LINE
8
FINA
10
262.8125
20
584.0000
30
0
11
262.8125
21
594.0000
31
0
0
LINE
8
FINA
10
315.3750
20
0.0000
30
0
11
315.3750
21
10.0000
31
0
0
LINE
8
FINA
10
315.3750
20
584.0000
30
0
11
315.3750
21
594.0000
31
0
0
LINE
8
FINA
10
367.9375
20
0.0000
30
0
11
367.9375
21
10.0000
31
0
0
LINE
8
FINA
10
367.9375
20
584.0000
30
0
11
367.9375
21
594.0000
31
0
0
LINE
8
FINA
10
420.5000
20
0.0000
30
0
11
420.5000
21
10.0000
31
0
0
LINE
8
FINA
10
420.5000
20
584.0000
30
0
11
420.5000
21
594.0000
31
0
0
LINE
8
FINA
10
473.0625
20
0.0000
30
0
11
473.0625
21
10.0000
31
0
0
LINE
8
FINA
10
473.0625
20
584.0000
30
0
11
473.0625
21
594.0000
31
0
0
LINE
8
FINA
10
525.6250
20
0.0000
30
0
11
525.6250
21
10.0000
31
0
0
LINE
8
FINA
10
525.6250
20
584.0000
30
0
11
525.6250
21
594.0000
31
0
0
LINE
8
FINA
10
578.1875
20
0.0000
30
0
11
578.1875
21
10.0000
31
0
0
LINE
8
FINA
10
578.1875
20
584.0000
30
0
11
578.1875
21
594.0000
31
0
0
LINE
8
FINA
10
630.7500
20
0.0000
30
0
11
630.7500
21
10.0000
31
0
0
LINE
8
FINA
10
630.7500
20
584.0000
30
0
11
630.7500
21
594.0000
31
0
0
LINE
8
FINA
10
683.3125
20
0.0000
30
0
11
683.3125
21
10.0000
31
0
0
LINE
8
FINA
10
683.3125
20
584.0000
30
0
11
683.3125
21
594.0000
31
0
0
LINE
8
FINA
10
735.8750
20
0.0000
30
0
11
735.8750
21
10.0000
31
0
0
LINE
8
FINA
10
735.8750
20
584.0000
30
0
11
735.8750
21
594.0000
31
0
0
LINE
8
FINA
10
788.4375
20
0.0000
30
0
11
788.4375
21
10.0000
31
0
0
LINE
8
FINA
10
788.4375
20
584.0000
30
0
11
788.4375
21
594.0000
31
0
0
LINE
8
FINA
10
0.0000
20
49.5000
30
0
11
10.0000
21
49.5000
31
0
0
LINE
8
FINA
10
831.0000
20
49.5000
30
0
11
841.0000
21
49.5000
31
0
0
LINE
8
FINA
10
0.0000
20
99.0000
30
0
11
10.0000
21
99.0000
31
0
0
LINE
8
FINA
10
831.0000
20
99.0000
30
0
11
841.0000
21
99.0000
31
0
0
LINE
8
FINA
10
0.0000
20
148.5000
30
0
11
10.0000
21
148.5000
31
0
0
LINE
8
FINA
10
831.0000
20
148.5000
30
0
11
841.0000
21
148.5000
31
0
0
LINE
8
FINA
10
0.0000
20
198.0000
30
0
11
10.0000
21
198.0000
31
0
0
LINE
8
FINA
10
831.0000
20
198.0000
30
0
11
841.0000
21
198.0000
31
0
0
LINE
8
FINA
10
0.0000
20
247.5000
30
0
11
10.0000
21
247.5000
31
0
0
LINE
8
FINA
10
831.0000
20
247.5000
30
0
11
841.0000
21
247.5000
31
0
0
LINE
8
FINA
10
0.0000
20
297.0000
30
0
11
10.0000
21
297.0000
31
0
0
LINE
8
FINA
10
831.0000
20
297.0000
30
0
11
841.0000
21
297.0000
31
0
0
LINE
8
FINA
10
0.0000
20
346.5000
30
0
11
10.0000
21
346.5000
31
0
0
LINE
8
FINA
10
831.0000
20
346.5000
30
0
11
841.0000
21
346.5000
31
0
0
LINE
8
FINA
10
0.0000
20
396.0000
30
0
11
10.0000
21
396.0000
31
0
0
LINE
8
FINA
10
831.0000
20
396.0000
30
0
11
841.0000
21
396.0000
31
0
0
LINE
8
FINA
10
0.0000
20
445.5000
30
0
11
10.0000
21
445.5000
31
0
0
LINE
8
FINA
10
831.0000
20
445.5000
30
0
11
841.0000
21
445.5000
31
0
0
LINE
8
FINA
10
0.0000
20
495.0000
30
0
11
10.0000
21
495.0000
31
0
0
LINE
8
FINA
10
831.0000
20
495.0000
30
0
11
841.0000
21
495.0000
31
0
0
LINE
8
FINA
10
0.0000
20
544.5000
30
0
11
10.0000
21
544.5000
31
0
0
LINE
8
FINA
10
831.0000
20
544.5000
30
0
11
841.0000
21
544.5000
31
0
0
TEXT
8
TEXTO
10
26.2813
20
5.0000
30
0
40
2.5000
1
1
72
1
73
2
11
26.2813
21
5.0000
31
0
0
TEXT
8
TEXTO
10
26.2813
20
589.0000
30
0
40
2.5000
1
1
72
1
73
2
11
26.2813
21
589.0000
31
0
0
TEXT
8
TEXTO
10
78.8438
20
5.0000
30
0
40
2.5000
1
2
72
1
73
2
11
78.8438
21
5.0000
31
0
0
TEXT
8
TEXTO
10
78.8438
20
589.0000
30
0
40
2.5000
1
2
72
1
73
2
11
78.8438
21
589.0000
31
0
0
TEXT
8
TEXTO
10
131.4063
20
5.0000
30
0
40
2.5000
1
3
72
1
73
2
11
131.4063
21
5.0000
31
0
0
TEXT
8
TEXTO
10
131.4063
20
589.0000
30
0
40
2.5000
1
3
72
1
73
2
11
131.4063
21
589.0000
31
0
0
TEXT
8
TEXTO
10
183.9688
20
5.0000
30
0
40
2.5000
1
4
72
1
73
2
11
183.9688
21
5.0000
31
0
0
TEXT
8
TEXTO
10
183.9688
20
589.0000
30
0
40
2.5000
1
4
72
1
73
2
11
183.9688
21
589.0000
31
0
0
TEXT
8
TEXTO
10
236.5313
20
5.0000
30
0
40
2.5000
1
5
72
1
73
2
11
236.5313
21
5.0000
31
0
0
TEXT
8
TEXTO
10
236.5313
20
589.0000
30
0
40
2.5000
1
5
72
1
73
2
11
236.5313
21
589.0000
31
0
0
TEXT
8
TEXTO
10
289.0938
20
5.0000
30
0
40
2.5000
1
6
72
1
73
2
11
289.0938
21
5.0000
31
0
0
TEXT
8
TEXTO
10
289.0938
20
589.0000
30
0
40
2.5000
1
6
72
1
73
2
11
289.0938
21
589.0000
31
0
0
TEXT
8
TEXTO
10
341.6563
20
5.0000
30
0
40
2.5000
1
7
72
1
73
2
11
341.6563
21
5.0000
31
0
0
TEXT
8
TEXTO
10
341.6563
20
589.0000
30
0
40
2.5000
1
7
72
1
73
2
11
341.6563
21
589.0000
31
0
0
TEXT
8
TEXTO
10
394.2188
20
5.0000
30
0
40
2.5000
1
8
72
1
73
2
11
394.2188
21
5.0000
31
0
0
TEXT
8
TEXTO
10
394.2188
20
589.0000
30
0
40
2.5000
1
8
72
1
73
2
11
394.2188
21
589.0000
31
0
0
TEXT
8
TEXTO
10
446.7813
20
5.0000
30
0
40
2.5000
1
9
72
1
73
2
11
446.7813
21
5.0000
31
0
0
TEXT
8
TEXTO
10
446.7813
20
589.0000
30
0
40
2.5000
1
9
72
1
73
2
11
446.7813
21
589.0000
31
0
0
TEXT
8
TEXTO
10
499.3438
20
5.0000
30
0
40
2.5000
1
10
72
1
73
2
11
499.3438
21
5.0000
31
0
0
TEXT
8
TEXTO
10
499.3438
20
589.0000
30
0
40
2.5000
1
10
72
1
73
2
11
499.3438
21
589.0000
31
0
0
TEXT
8
TEXTO
10
551.9063
20
5.0000
30
0
40
2.5000
1
11
72
1
73
2
11
551.9063
21
5.0000
31
0
0
TEXT
8
TEXTO
10
551.9063
20
589.0000
30
0
40
2.5000
1
11
72
1
73
2
11
551.9063
21
589.0000
31
0
0
TEXT
8
TEXTO
10
604.4688
20
5.0000
30
0
40
2.5000
1
12
72
1
73
2
11
604.4688
21
5.0000
31
0
0
TEXT
8
TEXTO
10
604.4688
20
589.0000
30
0
40
2.5000
1
12
72
1
73
2
11
604.4688
21
589.0000
31
0
0
TEXT
8
TEXTO
10
657.0313
20
5.0000
30
0
40
2.5000
1
13
72
1
73
2
11
657.0313
21
5.0000
31
0
0
TEXT
8
TEXTO
10
657.0313
20
589.0000
30
0
40
2.5000
1
13
72
1
73
2
11
657.0313
21
589.0000
31
0
0
TEXT
8
TEXTO
10
709.5938
20
5.0000
30
0
40
2.5000
1
14
72
1
73
2
11
709.5938
21
5.0000
31
0
0
TEXT
8
TEXTO
10
709.5938
20
589.0000
30
0
40
2.5000
1
14
72
1
73
2
11
709.5938
21
589.0000
31
0
0
TEXT
8
TEXTO
10
762.1563
20
5.0000
30
0
40
2.5000
1
15
72
1
73
2
11
762.1563
21
5.0000
31
0
0
TEXT
8
TEXTO
10
762.1563
20
589.0000
30
0
40
2.5000
1
15
72
1
73
2
11
762.1563
21
589.0000
31
0
0
TEXT
8
TEXTO
10
814.7188
20
5.0000
30
0
40
2.5000
1
16
72
1
73
2
11
814.7188
21
5.0000
31
0
0
TEXT
8
TEXTO
10
814.7188
20
589.0000
30
0
40
2.5000
1
16
72
1
73
2
11
814.7188
21
589.0000
31
0
0
TEXT
8
TEXTO
10
5.0000
20
569.2500
30
0
40
2.5000
1
A
72
1
73
2
11
5.0000
21
569.2500
31
0
0
TEXT
8
TEXTO
10
836.0000
20
569.2500
30
0
40
2.5000
1
A
72
1
73
2
11
836.0000
21
569.2500
31
0
0
TEXT
8
TEXTO
10
5.0000
20
519.7500
30
0
40
2.5000
1
B
72
1
73
2
11
5.0000
21
519.7500
31
0
0
TEXT
8
TEXTO
10
836.0000
20
519.7500
30
0
40
2.5000
1
B
72
1
73
2
11
836.0000
21
519.7500
31
0
0
TEXT
8
TEXTO
10
5.0000
20
470.2500
30
0
40
2.5000
1
C
72
1
73
2
11
5.0000
21
470.2500
31
0
0
TEXT
8
TEXTO
10
836.0000
20
470.2500
30
0
40
2.5000
1
C
72
1
73
2
11
836.0000
21
470.2500
31
0
0
TEXT
8
TEXTO
10
5.0000
20
420.7500
30
0
40
2.5000
1
D
72
1
73
2
11
5.0000
21
420.7500
31
0
0
TEXT
8
TEXTO
10
836.0000
20
420.7500
30
0
40
2.5000
1
D
72
1
73
2
11
836.0000
21
420.7500
31
0
0
TEXT
8
TEXTO
10
5.0000
20
371.2500
30
0
40
2.5000
1
E
72
1
73
2
11
5.0000
21
371.2500
31
0
0
TEXT
8
TEXTO
10
836.0000
20
371.2500
30
0
40
2.5000
1
E
72
1
73
2
11
836.0000
21
371.2500
31
0
0
TEXT
8
TEXTO
10
5.0000
20
321.7500
30
0
40
2.5000
1
F
72
1
73
2
11
5.0000
21
321.7500
31
0
0
TEXT
8
TEXTO
10
836.0000
20
321.7500
30
0
40
2.5000
1
F
72
1
73
2
11
836.0000
21
321.7500
31
0
0
TEXT
8
TEXTO
10
5.0000
20
272.2500
30
0
40
2.5000
1
G
72
1
73
2
11
5.0000
21
272.2500
31
0
0
TEXT
8
TEXTO
10
836.0000
20
272.2500
30
0
40
2.5000
1
G
72
1
73
2
11
836.0000
21
272.2500
31
0
0
TEXT
8
TEXTO
10
5.0000
20
222.7500
30
0
40
2.5000
1
H
72
1
73
2
11
5.0000
21
222.7500
31
0
0
TEXT
8
TEXTO
10
836.0000
20
222.7500
30
0
40
2.5000
1
H
72
1
73
2
11
836.0000
21
222.7500
31
0
0
TEXT
8
TEXTO
10
5.0000
20
173.2500
30
0
40
2.5000
1
J
72
1
73
2
11
5.0000
21
173.2500
31
0
0
TEXT
8
TEXTO
10
836.0000
20
173.2500
30
0
40
2.5000
1
J
72
1
73
2
11
836.0000
21
173.2500
31
0
0
TEXT
8
TEXTO
10
5.0000
20
123.7500
30
0
40
2.5000
1
K
72
1
73
2
11
5.0000
21
123.7500
31
0
0
TEXT
8
TEXTO
10
836.0000
20
123.7500
30
0
40
2.5000
1
K
72
1
73
2
11
836.0000
21
123.7500
31
0
0
TEXT
8
TEXTO
10
5.0000
20
74.2500
30
0
40
2.5000
1
L
72
1
73
2
11
5.0000
21
74.2500
31
0
0
TEXT
8
TEXTO
10
836.0000
20
74.2500
30
0
40
2.5000
1
L
72
1
73
2
11
836.0000
21
74.2500
31
0
0
TEXT
8
TEXTO
10
5.0000
20
24.7500
30
0
40
2.5000
1
M
72
1
73
2
11
5.0000
21
24.7500
31
0
0
TEXT
8
TEXTO
10
836.0000
20
24.7500
30
0
40
2.5000
1
M
72
1
73
2
11
836.0000
21
24.7500
31
0
0
LINE
8
NORMA
10
651.0000
20
10.0000
30
0
11
831.0000
21
10.0000
31
0
0
LINE
8
NORMA
10
831.0000
20
10.0000
30
0
11
831.0000
21
52.0000
31
0
0
LINE
8
NORMA
10
831.0000
20
52.0000
30
0
11
651.0000
21
52.0000
31
0
0
LINE
8
NORMA
10
651.0000
20
52.0000
30
0
11
651.0000
21
10.0000
31
0
0
LINE
8
NORMA
10
691.0000
20
10.0000
30
0
11
691.0000
21
52.0000
31
0
0
LINE
8
NORMA
10
785.0000
20
10.0000
30
0
11
785.0000
21
52.0000
31
0
0
LINE
8
FINA
10
651.0000
20
29.0000
30
0
11
691.0000
21
29.0000
31
0
0
TEXT
8
TEXTO
10
671.0000
20
43.4000
30
0
40
4.9000
1
ConveyOne
72
1
73
2
11
671.0000
21
43.4000
31
0
0
LINE
8
FINA
10
657.5000
20
38.6000
30
0
11
684.5000
21
38.6000
31
0
0
TEXT
8
TEXTO
10
671.0000
20
35.8000
30
0
40
1.3000
1
CAD · DISEÑO CAPA USER
72
1
73
2
11
671.0000
21
35.8000
31
0
0
TEXT
8
TEXTO
10
671.0000
20
32.6000
30
0
40
1.3000
1
ISO 5457 · 7200 · 129 · 5456-2
72
1
73
2
11
671.0000
21
32.6000
31
0
0
TEXT
8
TEXTO
10
671.0000
20
26.6000
30
0
40
1.4000
1
PROYECCIÓN — PRIMER DIEDRO
72
1
73
2
11
671.0000
21
26.6000
31
0
0
CIRCLE
8
TEXTO
10
666.4000
20
17.5000
30
0
40
2.9900
0
CIRCLE
8
TEXTO
10
666.4000
20
17.5000
30
0
40
1.6100
0
LINE
8
TEXTO
10
671.4600
20
14.5100
30
0
11
678.5900
21
15.8900
31
0
0
LINE
8
TEXTO
10
678.5900
20
15.8900
30
0
11
678.5900
21
19.1100
31
0
0
LINE
8
TEXTO
10
678.5900
20
19.1100
30
0
11
671.4600
21
20.4900
31
0
0
LINE
8
TEXTO
10
671.4600
20
20.4900
30
0
11
671.4600
21
14.5100
31
0
0
LINE
8
FINA
10
662.0300
20
17.5000
30
0
11
679.9700
21
17.5000
31
0
0
LINE
8
FINA
10
691.0000
20
39.0000
30
0
11
785.0000
21
39.0000
31
0
0
LINE
8
FINA
10
691.0000
20
29.0000
30
0
11
785.0000
21
29.0000
31
0
0
LINE
8
FINA
10
691.0000
20
19.0000
30
0
11
785.0000
21
19.0000
31
0
0
LINE
8
FINA
10
738.0000
20
29.0000
30
0
11
738.0000
21
39.0000
31
0
0
LINE
8
FINA
10
747.0000
20
19.0000
30
0
11
747.0000
21
29.0000
31
0
0
TEXT
8
TEXTO
10
692.3000
20
49.6000
30
0
40
1.4000
1
DESIGNACIÓN
0
TEXT
8
TEXTO
10
692.6000
20
44.1000
30
0
40
2.5584
1
LBD-07 · Guarda tensor — costado lateral e2 (617×235) (x2) — DESARROLLO
72
0
73
2
11
692.6000
21
44.1000
31
0
0
TEXT
8
TEXTO
10
692.3000
20
36.6000
30
0
40
1.4000
1
PROYECTO
0
TEXT
8
TEXTO
10
692.6000
20
32.6000
30
0
40
2.1329
1
CV-LBP-5000 · Movex 530 LBP 18 in × 5.0 m
72
0
73
2
11
692.6000
21
32.6000
31
0
0
TEXT
8
TEXTO
10
739.3000
20
36.6000
30
0
40
1.4000
1
FUENTE
0
TEXT
8
TEXTO
10
739.6000
20
32.6000
30
0
40
2.4000
1
chapa plegada — capa user
72
0
73
2
11
739.6000
21
32.6000
31
0
0
TEXT
8
TEXTO
10
692.3000
20
26.6000
30
0
40
1.4000
1
VERIFICACIÓN DE ESCALA
0
TEXT
8
TEXTO
10
692.6000
20
22.6000
30
0
40
2.4000
1
CAD EN MM (CAPA USER)
72
0
73
2
11
692.6000
21
22.6000
31
0
0
TEXT
8
TEXTO
10
748.3000
20
26.6000
30
0
40
1.4000
1
PLIEGUES
0
TEXT
8
TEXTO
10
748.6000
20
22.6000
30
0
40
2.6000
1
2
72
0
73
2
11
748.6000
21
22.6000
31
0
0
TEXT
8
TEXTO
10
692.3000
20
16.6000
30
0
40
1.4000
1
NOTA
0
TEXT
8
TEXTO
10
692.6000
20
13.1000
30
0
40
2.1785
1
Acero S275JR e2.0 — terminación PINTADO RAL 7035 · e2 · tol. gral. ISO 2768-mK · K=0.…
72
0
73
2
11
692.6000
21
13.1000
31
0
0
LINE
8
FINA
10
785.0000
20
39.0000
30
0
11
831.0000
21
39.0000
31
0
0
LINE
8
FINA
10
785.0000
20
29.0000
30
0
11
831.0000
21
29.0000
31
0
0
LINE
8
FINA
10
785.0000
20
19.0000
30
0
11
831.0000
21
19.0000
31
0
0
LINE
8
FINA
10
808.0000
20
29.0000
30
0
11
808.0000
21
39.0000
31
0
0
LINE
8
FINA
10
811.0000
20
19.0000
30
0
11
811.0000
21
29.0000
31
0
0
TEXT
8
TEXTO
10
786.3000
20
49.6000
30
0
40
1.4000
1
ESCALA
0
TEXT
8
TEXTO
10
808.0000
20
44.1000
30
0
40
5.0000
1
1:1
72
1
73
2
11
808.0000
21
44.1000
31
0
0
TEXT
8
TEXTO
10
786.3000
20
36.6000
30
0
40
1.4000
1
FORMATO
0
TEXT
8
TEXTO
10
796.5000
20
32.6000
30
0
40
3.0000
1
A1
72
1
73
2
11
796.5000
21
32.6000
31
0
0
TEXT
8
TEXTO
10
809.3000
20
36.6000
30
0
40
1.4000
1
LÁMINA
0
TEXT
8
TEXTO
10
819.5000
20
32.6000
30
0
40
3.0000
1
1 / 1
72
1
73
2
11
819.5000
21
32.6000
31
0
0
TEXT
8
TEXTO
10
786.3000
20
26.6000
30
0
40
1.4000
1
FECHA
0
TEXT
8
TEXTO
10
798.0000
20
22.6000
30
0
40
2.6000
1
2026-08-18
72
1
73
2
11
798.0000
21
22.6000
31
0
0
TEXT
8
TEXTO
10
812.3000
20
26.6000
30
0
40
1.4000
1
UNIDADES
0
TEXT
8
TEXTO
10
821.0000
20
22.6000
30
0
40
3.0000
1
mm
72
1
73
2
11
821.0000
21
22.6000
31
0
0
TEXT
8
TEXTO
10
786.3000
20
16.6000
30
0
40
1.4000
1
Nº DE PLANO
0
TEXT
8
TEXTO
10
808.0000
20
13.1000
30
0
40
2.6000
1
LBD-07
72
1
73
2
11
808.0000
21
13.1000
31
0
0
ENDSEC
0
EOF
