0
SECTION
2
HEADER
9
$ACADVER
1
AC1009
9
$DWGCODEPAGE
3
ANSI_1252
0
ENDSEC
0
SECTION
2
TABLES
0
TABLE
2
LTYPE
70
2
0
LTYPE
2
CONTINUOUS
70
0
3
Solid line
72
65
73
0
40
0
0
LTYPE
2
DASHED
70
0
3
Segmentada __ __ __
72
65
73
2
40
6
49
4
49
-2
0
ENDTAB
0
TABLE
2
LAYER
70
8
0
LAYER
2
SOMBRA
70
0
62
8
6
CONTINUOUS
0
LAYER
2
NORMA
70
0
62
7
6
CONTINUOUS
0
LAYER
2
FINA
70
0
62
7
6
CONTINUOUS
0
LAYER
2
VISIBLE
70
0
62
7
6
CONTINUOUS
0
LAYER
2
COTAS
70
0
62
7
6
CONTINUOUS
0
LAYER
2
TEXTO
70
0
62
7
6
CONTINUOUS
0
LAYER
2
PLIEGUE
70
0
62
1
6
DASHED
0
LAYER
2
LOGO
70
0
62
5
6
CONTINUOUS
0
ENDTAB
0
ENDSEC
0
SECTION
2
ENTITIES
0
LINE
8
VISIBLE
10
68.4485
20
113.5000
30
0
11
238.5515
21
113.5000
31
0
0
LINE
8
VISIBLE
10
238.5515
20
113.5000
30
0
11
240.5095
21
113.6280
31
0
0
LINE
8
VISIBLE
10
240.5095
20
113.6280
30
0
11
242.4335
21
114.0110
31
0
0
LINE
8
VISIBLE
10
242.4335
20
114.0110
30
0
11
244.2915
21
114.6420
31
0
0
LINE
8
VISIBLE
10
244.2915
20
114.6420
30
0
11
246.0515
21
115.5100
31
0
0
LINE
8
VISIBLE
10
246.0515
20
115.5100
30
0
11
247.6825
21
116.6000
31
0
0
LINE
8
VISIBLE
10
247.6825
20
116.6000
30
0
11
249.1585
21
117.8930
31
0
0
LINE
8
VISIBLE
10
249.1585
20
117.8930
30
0
11
250.4515
21
119.3690
31
0
0
LINE
8
VISIBLE
10
250.4515
20
119.3690
30
0
11
251.5415
21
121.0000
31
0
0
LINE
8
VISIBLE
10
251.5415
20
121.0000
30
0
11
252.4095
21
122.7600
31
0
0
LINE
8
VISIBLE
10
252.4095
20
122.7600
30
0
11
253.0405
21
124.6180
31
0
0
LINE
8
VISIBLE
10
253.0405
20
124.6180
30
0
11
253.4235
21
126.5420
31
0
0
LINE
8
VISIBLE
10
253.4235
20
126.5420
30
0
11
253.5515
21
128.5000
31
0
0
LINE
8
VISIBLE
10
253.5515
20
128.5000
30
0
11
253.4235
21
130.4580
31
0
0
LINE
8
VISIBLE
10
253.4235
20
130.4580
30
0
11
253.0405
21
132.3820
31
0
0
LINE
8
VISIBLE
10
253.0405
20
132.3820
30
0
11
252.4095
21
134.2400
31
0
0
LINE
8
VISIBLE
10
252.4095
20
134.2400
30
0
11
251.5415
21
136.0000
31
0
0
LINE
8
VISIBLE
10
251.5415
20
136.0000
30
0
11
250.4515
21
137.6310
31
0
0
LINE
8
VISIBLE
10
250.4515
20
137.6310
30
0
11
249.1585
21
139.1070
31
0
0
LINE
8
VISIBLE
10
249.1585
20
139.1070
30
0
11
247.6825
21
140.4000
31
0
0
LINE
8
VISIBLE
10
247.6825
20
140.4000
30
0
11
246.0515
21
141.4900
31
0
0
LINE
8
VISIBLE
10
246.0515
20
141.4900
30
0
11
244.2915
21
142.3580
31
0
0
LINE
8
VISIBLE
10
244.2915
20
142.3580
30
0
11
242.4335
21
142.9890
31
0
0
LINE
8
VISIBLE
10
242.4335
20
142.9890
30
0
11
240.5095
21
143.3720
31
0
0
LINE
8
VISIBLE
10
240.5095
20
143.3720
30
0
11
238.5515
21
143.5000
31
0
0
LINE
8
VISIBLE
10
238.5515
20
143.5000
30
0
11
68.4485
21
143.5000
31
0
0
LINE
8
VISIBLE
10
68.4485
20
143.5000
30
0
11
66.4905
21
143.3720
31
0
0
LINE
8
VISIBLE
10
66.4905
20
143.3720
30
0
11
64.5665
21
142.9890
31
0
0
LINE
8
VISIBLE
10
64.5665
20
142.9890
30
0
11
62.7085
21
142.3580
31
0
0
LINE
8
VISIBLE
10
62.7085
20
142.3580
30
0
11
60.9485
21
141.4900
31
0
0
LINE
8
VISIBLE
10
60.9485
20
141.4900
30
0
11
59.3175
21
140.4000
31
0
0
LINE
8
VISIBLE
10
59.3175
20
140.4000
30
0
11
57.8415
21
139.1070
31
0
0
LINE
8
VISIBLE
10
57.8415
20
139.1070
30
0
11
56.5485
21
137.6310
31
0
0
LINE
8
VISIBLE
10
56.5485
20
137.6310
30
0
11
55.4585
21
136.0000
31
0
0
LINE
8
VISIBLE
10
55.4585
20
136.0000
30
0
11
54.5905
21
134.2400
31
0
0
LINE
8
VISIBLE
10
54.5905
20
134.2400
30
0
11
53.9595
21
132.3820
31
0
0
LINE
8
VISIBLE
10
53.9595
20
132.3820
30
0
11
53.5765
21
130.4580
31
0
0
LINE
8
VISIBLE
10
53.5765
20
130.4580
30
0
11
53.4485
21
128.5000
31
0
0
LINE
8
VISIBLE
10
53.4485
20
128.5000
30
0
11
53.5765
21
126.5420
31
0
0
LINE
8
VISIBLE
10
53.5765
20
126.5420
30
0
11
53.9595
21
124.6180
31
0
0
LINE
8
VISIBLE
10
53.9595
20
124.6180
30
0
11
54.5905
21
122.7600
31
0
0
LINE
8
VISIBLE
10
54.5905
20
122.7600
30
0
11
55.4585
21
121.0000
31
0
0
LINE
8
VISIBLE
10
55.4585
20
121.0000
30
0
11
56.5485
21
119.3690
31
0
0
LINE
8
VISIBLE
10
56.5485
20
119.3690
30
0
11
57.8415
21
117.8930
31
0
0
LINE
8
VISIBLE
10
57.8415
20
117.8930
30
0
11
59.3175
21
116.6000
31
0
0
LINE
8
VISIBLE
10
59.3175
20
116.6000
30
0
11
60.9485
21
115.5100
31
0
0
LINE
8
VISIBLE
10
60.9485
20
115.5100
30
0
11
62.7085
21
114.6420
31
0
0
LINE
8
VISIBLE
10
62.7085
20
114.6420
30
0
11
64.5665
21
114.0110
31
0
0
LINE
8
VISIBLE
10
64.5665
20
114.0110
30
0
11
66.4905
21
113.6280
31
0
0
LINE
8
VISIBLE
10
66.4905
20
113.6280
30
0
11
68.4485
21
113.5000
31
0
0
CIRCLE
8
VISIBLE
10
133.4195
20
128.5000
30
0
40
4.2500
0
LINE
8
VISIBLE
10
65.9485
20
123.0000
30
0
11
70.9485
21
123.0000
31
0
0
LINE
8
VISIBLE
10
70.9485
20
123.0000
30
0
11
70.9485
21
123.0000
31
0
0
LINE
8
VISIBLE
10
70.9485
20
123.0000
30
0
11
72.3725
21
123.1870
31
0
0
LINE
8
VISIBLE
10
72.3725
20
123.1870
30
0
11
73.6985
21
123.7370
31
0
0
LINE
8
VISIBLE
10
73.6985
20
123.7370
30
0
11
74.8375
21
124.6110
31
0
0
LINE
8
VISIBLE
10
74.8375
20
124.6110
30
0
11
75.7115
21
125.7500
31
0
0
LINE
8
VISIBLE
10
75.7115
20
125.7500
30
0
11
76.2615
21
127.0760
31
0
0
LINE
8
VISIBLE
10
76.2615
20
127.0760
30
0
11
76.4485
21
128.5000
31
0
0
LINE
8
VISIBLE
10
76.4485
20
128.5000
30
0
11
76.2615
21
129.9240
31
0
0
LINE
8
VISIBLE
10
76.2615
20
129.9240
30
0
11
75.7115
21
131.2500
31
0
0
LINE
8
VISIBLE
10
75.7115
20
131.2500
30
0
11
74.8375
21
132.3890
31
0
0
LINE
8
VISIBLE
10
74.8375
20
132.3890
30
0
11
73.6985
21
133.2630
31
0
0
LINE
8
VISIBLE
10
73.6985
20
133.2630
30
0
11
72.3725
21
133.8130
31
0
0
LINE
8
VISIBLE
10
72.3725
20
133.8130
30
0
11
70.9485
21
134.0000
31
0
0
LINE
8
VISIBLE
10
70.9485
20
134.0000
30
0
11
65.9485
21
134.0000
31
0
0
LINE
8
VISIBLE
10
65.9485
20
134.0000
30
0
11
65.9485
21
134.0000
31
0
0
LINE
8
VISIBLE
10
65.9485
20
134.0000
30
0
11
64.5245
21
133.8130
31
0
0
LINE
8
VISIBLE
10
64.5245
20
133.8130
30
0
11
63.1985
21
133.2630
31
0
0
LINE
8
VISIBLE
10
63.1985
20
133.2630
30
0
11
62.0595
21
132.3890
31
0
0
LINE
8
VISIBLE
10
62.0595
20
132.3890
30
0
11
61.1855
21
131.2500
31
0
0
LINE
8
VISIBLE
10
61.1855
20
131.2500
30
0
11
60.6355
21
129.9240
31
0
0
LINE
8
VISIBLE
10
60.6355
20
129.9240
30
0
11
60.4485
21
128.5000
31
0
0
LINE
8
VISIBLE
10
60.4485
20
128.5000
30
0
11
60.6355
21
127.0760
31
0
0
LINE
8
VISIBLE
10
60.6355
20
127.0760
30
0
11
61.1855
21
125.7500
31
0
0
LINE
8
VISIBLE
10
61.1855
20
125.7500
30
0
11
62.0595
21
124.6110
31
0
0
LINE
8
VISIBLE
10
62.0595
20
124.6110
30
0
11
63.1985
21
123.7370
31
0
0
LINE
8
VISIBLE
10
63.1985
20
123.7370
30
0
11
64.5245
21
123.1870
31
0
0
LINE
8
VISIBLE
10
64.5245
20
123.1870
30
0
11
65.9485
21
123.0000
31
0
0
LINE
8
VISIBLE
10
236.0515
20
123.0000
30
0
11
241.0515
21
123.0000
31
0
0
LINE
8
VISIBLE
10
241.0515
20
123.0000
30
0
11
241.0515
21
123.0000
31
0
0
LINE
8
VISIBLE
10
241.0515
20
123.0000
30
0
11
242.4755
21
123.1870
31
0
0
LINE
8
VISIBLE
10
242.4755
20
123.1870
30
0
11
243.8015
21
123.7370
31
0
0
LINE
8
VISIBLE
10
243.8015
20
123.7370
30
0
11
244.9405
21
124.6110
31
0
0
LINE
8
VISIBLE
10
244.9405
20
124.6110
30
0
11
245.8145
21
125.7500
31
0
0
LINE
8
VISIBLE
10
245.8145
20
125.7500
30
0
11
246.3645
21
127.0760
31
0
0
LINE
8
VISIBLE
10
246.3645
20
127.0760
30
0
11
246.5515
21
128.5000
31
0
0
LINE
8
VISIBLE
10
246.5515
20
128.5000
30
0
11
246.3645
21
129.9240
31
0
0
LINE
8
VISIBLE
10
246.3645
20
129.9240
30
0
11
245.8145
21
131.2500
31
0
0
LINE
8
VISIBLE
10
245.8145
20
131.2500
30
0
11
244.9405
21
132.3890
31
0
0
LINE
8
VISIBLE
10
244.9405
20
132.3890
30
0
11
243.8015
21
133.2630
31
0
0
LINE
8
VISIBLE
10
243.8015
20
133.2630
30
0
11
242.4755
21
133.8130
31
0
0
LINE
8
VISIBLE
10
242.4755
20
133.8130
30
0
11
241.0515
21
134.0000
31
0
0
LINE
8
VISIBLE
10
241.0515
20
134.0000
30
0
11
236.0515
21
134.0000
31
0
0
LINE
8
VISIBLE
10
236.0515
20
134.0000
30
0
11
236.0515
21
134.0000
31
0
0
LINE
8
VISIBLE
10
236.0515
20
134.0000
30
0
11
234.6275
21
133.8130
31
0
0
LINE
8
VISIBLE
10
234.6275
20
133.8130
30
0
11
233.3015
21
133.2630
31
0
0
LINE
8
VISIBLE
10
233.3015
20
133.2630
30
0
11
232.1625
21
132.3890
31
0
0
LINE
8
VISIBLE
10
232.1625
20
132.3890
30
0
11
231.2885
21
131.2500
31
0
0
LINE
8
VISIBLE
10
231.2885
20
131.2500
30
0
11
230.7385
21
129.9240
31
0
0
LINE
8
VISIBLE
10
230.7385
20
129.9240
30
0
11
230.5515
21
128.5000
31
0
0
LINE
8
VISIBLE
10
230.5515
20
128.5000
30
0
11
230.7385
21
127.0760
31
0
0
LINE
8
VISIBLE
10
230.7385
20
127.0760
30
0
11
231.2885
21
125.7500
31
0
0
LINE
8
VISIBLE
10
231.2885
20
125.7500
30
0
11
232.1625
21
124.6110
31
0
0
LINE
8
VISIBLE
10
232.1625
20
124.6110
30
0
11
233.3015
21
123.7370
31
0
0
LINE
8
VISIBLE
10
233.3015
20
123.7370
30
0
11
234.6275
21
123.1870
31
0
0
LINE
8
VISIBLE
10
234.6275
20
123.1870
30
0
11
236.0515
21
123.0000
31
0
0
TEXT
8
TEXTO
10
53.4485
20
107.5000
30
0
40
3.2000
1
BARRENOS: 1× · Ø 8.5 mm (corte láser)
0
LINE
8
FINA
10
82.4485
20
113.5000
30
0
11
82.4485
21
143.5000
31
0
0
LINE
8
PLIEGUE
10
86.9725
20
113.5000
30
0
11
86.9725
21
143.5000
31
0
0
LINE
8
FINA
10
91.4965
20
113.5000
30
0
11
91.4965
21
143.5000
31
0
0
LINE
8
FINA
10
113.3395
20
113.5000
30
0
11
113.3395
21
143.5000
31
0
0
LINE
8
PLIEGUE
10
115.6015
20
113.5000
30
0
11
115.6015
21
143.5000
31
0
0
LINE
8
FINA
10
117.8635
20
113.5000
30
0
11
117.8635
21
143.5000
31
0
0
LINE
8
FINA
10
148.9765
20
113.5000
30
0
11
148.9765
21
143.5000
31
0
0
LINE
8
PLIEGUE
10
153.4995
20
113.5000
30
0
11
153.4995
21
143.5000
31
0
0
LINE
8
FINA
10
158.0235
20
113.5000
30
0
11
158.0235
21
143.5000
31
0
0
LINE
8
FINA
10
189.1365
20
113.5000
30
0
11
189.1365
21
143.5000
31
0
0
LINE
8
PLIEGUE
10
191.3985
20
113.5000
30
0
11
191.3985
21
143.5000
31
0
0
LINE
8
FINA
10
193.6605
20
113.5000
30
0
11
193.6605
21
143.5000
31
0
0
LINE
8
FINA
10
215.5035
20
113.5000
30
0
11
215.5035
21
143.5000
31
0
0
LINE
8
PLIEGUE
10
220.0275
20
113.5000
30
0
11
220.0275
21
143.5000
31
0
0
LINE
8
FINA
10
224.5515
20
113.5000
30
0
11
224.5515
21
143.5000
31
0
0
TEXT
8
TEXTO
10
86.9725
20
144.7000
30
0
40
2.5000
1
P1 90° ABAJO
72
1
73
2
11
86.9725
21
144.7000
31
0
0
TEXT
8
TEXTO
10
115.6015
20
144.7000
30
0
40
2.5000
1
P2 45° ARRIBA
72
1
73
2
11
115.6015
21
144.7000
31
0
0
TEXT
8
TEXTO
10
153.4995
20
144.7000
30
0
40
2.5000
1
P3 90° ARRIBA (ÁPICE)
72
1
73
2
11
153.4995
21
144.7000
31
0
0
TEXT
8
TEXTO
10
191.3985
20
144.7000
30
0
40
2.5000
1
P4 45° ARRIBA
72
1
73
2
11
191.3985
21
144.7000
31
0
0
TEXT
8
TEXTO
10
220.0275
20
144.7000
30
0
40
2.5000
1
P5 90° ABAJO
72
1
73
2
11
220.0275
21
144.7000
31
0
0
TEXT
8
TEXTO
10
153.4995
20
97.5000
30
0
40
2.5000
1
SECUENCIA: P3 (ápice) > P2·P4 (45°) > P1·P5 (orejas) · CARA DEL ASIENTO HACIA ARRIBA
72
1
73
2
11
153.4995
21
97.5000
31
0
0
LINE
8
COTAS
10
53.4485
20
112.5000
30
0
11
53.4485
21
103.0000
31
0
0
LINE
8
COTAS
10
253.5515
20
112.5000
30
0
11
253.5515
21
103.0000
31
0
0
LINE
8
COTAS
10
53.4485
20
104.5000
30
0
11
253.5515
21
104.5000
31
0
0
SOLID
8
COTAS
10
53.4485
20
104.5000
30
0
11
55.9485
21
104.9500
31
0
12
55.9485
22
104.0500
32
0
13
55.9485
23
104.0500
33
0
0
SOLID
8
COTAS
10
253.5515
20
104.5000
30
0
11
251.0515
21
104.9500
31
0
12
251.0515
22
104.0500
32
0
13
251.0515
23
104.0500
33
0
0
TEXT
8
COTAS
10
153.5000
20
106.7000
30
0
40
3.5000
1
200.1
72
1
73
2
11
153.5000
21
106.7000
31
0
0
LINE
8
COTAS
10
254.5515
20
113.5000
30
0
11
264.0515
21
113.5000
31
0
0
LINE
8
COTAS
10
254.5515
20
143.5000
30
0
11
264.0515
21
143.5000
31
0
0
LINE
8
COTAS
10
262.5515
20
113.5000
30
0
11
262.5515
21
143.5000
31
0
0
SOLID
8
COTAS
10
262.5515
20
113.5000
30
0
11
263.0015
21
116.0000
31
0
12
262.1015
22
116.0000
32
0
13
262.1015
23
116.0000
33
0
0
SOLID
8
COTAS
10
262.5515
20
143.5000
30
0
11
263.0015
21
141.0000
31
0
12
262.1015
22
141.0000
32
0
13
262.1015
23
141.0000
33
0
0
TEXT
8
COTAS
10
264.7515
20
128.5000
30
0
40
3.5000
1
30
72
1
73
2
11
264.7515
21
128.5000
31
0
0
TEXT
8
TEXTO
10
53.4485
20
154.0000
30
0
40
3.5000
1
DESARROLLO DE CHAPA — BA = ang·(R + K·t), fibra neutra por factor K
0
TEXT
8
TEXTO
10
53.4485
20
148.5000
30
0
40
4.0000
1
ESPESOR DE CHAPA e = 4 mm (constante en toda la pieza)
0
LINE
8
FINA
10
0.0000
20
0.0000
30
0
11
297.0000
21
0.0000
31
0
0
LINE
8
FINA
10
297.0000
20
0.0000
30
0
11
297.0000
21
210.0000
31
0
0
LINE
8
FINA
10
297.0000
20
210.0000
30
0
11
0.0000
21
210.0000
31
0
0
LINE
8
FINA
10
0.0000
20
210.0000
30
0
11
0.0000
21
0.0000
31
0
0
LINE
8
NORMA
10
20.0000
20
10.0000
30
0
11
287.0000
21
10.0000
31
0
0
LINE
8
NORMA
10
287.0000
20
10.0000
30
0
11
287.0000
21
200.0000
31
0
0
LINE
8
NORMA
10
287.0000
20
200.0000
30
0
11
20.0000
21
200.0000
31
0
0
LINE
8
NORMA
10
20.0000
20
200.0000
30
0
11
20.0000
21
10.0000
31
0
0
LINE
8
NORMA
10
0.0000
20
105.0000
30
0
11
25.0000
21
105.0000
31
0
0
LINE
8
NORMA
10
297.0000
20
105.0000
30
0
11
282.0000
21
105.0000
31
0
0
LINE
8
NORMA
10
148.5000
20
0.0000
30
0
11
148.5000
21
15.0000
31
0
0
LINE
8
NORMA
10
148.5000
20
210.0000
30
0
11
148.5000
21
195.0000
31
0
0
LINE
8
FINA
10
49.5000
20
0.0000
30
0
11
49.5000
21
10.0000
31
0
0
LINE
8
FINA
10
49.5000
20
200.0000
30
0
11
49.5000
21
210.0000
31
0
0
LINE
8
FINA
10
99.0000
20
0.0000
30
0
11
99.0000
21
10.0000
31
0
0
LINE
8
FINA
10
99.0000
20
200.0000
30
0
11
99.0000
21
210.0000
31
0
0
LINE
8
FINA
10
148.5000
20
0.0000
30
0
11
148.5000
21
10.0000
31
0
0
LINE
8
FINA
10
148.5000
20
200.0000
30
0
11
148.5000
21
210.0000
31
0
0
LINE
8
FINA
10
198.0000
20
0.0000
30
0
11
198.0000
21
10.0000
31
0
0
LINE
8
FINA
10
198.0000
20
200.0000
30
0
11
198.0000
21
210.0000
31
0
0
LINE
8
FINA
10
247.5000
20
0.0000
30
0
11
247.5000
21
10.0000
31
0
0
LINE
8
FINA
10
247.5000
20
200.0000
30
0
11
247.5000
21
210.0000
31
0
0
LINE
8
FINA
10
0.0000
20
52.5000
30
0
11
10.0000
21
52.5000
31
0
0
LINE
8
FINA
10
287.0000
20
52.5000
30
0
11
297.0000
21
52.5000
31
0
0
LINE
8
FINA
10
0.0000
20
105.0000
30
0
11
10.0000
21
105.0000
31
0
0
LINE
8
FINA
10
287.0000
20
105.0000
30
0
11
297.0000
21
105.0000
31
0
0
LINE
8
FINA
10
0.0000
20
157.5000
30
0
11
10.0000
21
157.5000
31
0
0
LINE
8
FINA
10
287.0000
20
157.5000
30
0
11
297.0000
21
157.5000
31
0
0
TEXT
8
TEXTO
10
24.7500
20
5.0000
30
0
40
2.5000
1
1
72
1
73
2
11
24.7500
21
5.0000
31
0
0
TEXT
8
TEXTO
10
24.7500
20
205.0000
30
0
40
2.5000
1
1
72
1
73
2
11
24.7500
21
205.0000
31
0
0
TEXT
8
TEXTO
10
74.2500
20
5.0000
30
0
40
2.5000
1
2
72
1
73
2
11
74.2500
21
5.0000
31
0
0
TEXT
8
TEXTO
10
74.2500
20
205.0000
30
0
40
2.5000
1
2
72
1
73
2
11
74.2500
21
205.0000
31
0
0
TEXT
8
TEXTO
10
123.7500
20
5.0000
30
0
40
2.5000
1
3
72
1
73
2
11
123.7500
21
5.0000
31
0
0
TEXT
8
TEXTO
10
123.7500
20
205.0000
30
0
40
2.5000
1
3
72
1
73
2
11
123.7500
21
205.0000
31
0
0
TEXT
8
TEXTO
10
173.2500
20
5.0000
30
0
40
2.5000
1
4
72
1
73
2
11
173.2500
21
5.0000
31
0
0
TEXT
8
TEXTO
10
173.2500
20
205.0000
30
0
40
2.5000
1
4
72
1
73
2
11
173.2500
21
205.0000
31
0
0
TEXT
8
TEXTO
10
222.7500
20
5.0000
30
0
40
2.5000
1
5
72
1
73
2
11
222.7500
21
5.0000
31
0
0
TEXT
8
TEXTO
10
222.7500
20
205.0000
30
0
40
2.5000
1
5
72
1
73
2
11
222.7500
21
205.0000
31
0
0
TEXT
8
TEXTO
10
272.2500
20
5.0000
30
0
40
2.5000
1
6
72
1
73
2
11
272.2500
21
5.0000
31
0
0
TEXT
8
TEXTO
10
272.2500
20
205.0000
30
0
40
2.5000
1
6
72
1
73
2
11
272.2500
21
205.0000
31
0
0
TEXT
8
TEXTO
10
5.0000
20
183.7500
30
0
40
2.5000
1
A
72
1
73
2
11
5.0000
21
183.7500
31
0
0
TEXT
8
TEXTO
10
292.0000
20
183.7500
30
0
40
2.5000
1
A
72
1
73
2
11
292.0000
21
183.7500
31
0
0
TEXT
8
TEXTO
10
5.0000
20
131.2500
30
0
40
2.5000
1
B
72
1
73
2
11
5.0000
21
131.2500
31
0
0
TEXT
8
TEXTO
10
292.0000
20
131.2500
30
0
40
2.5000
1
B
72
1
73
2
11
292.0000
21
131.2500
31
0
0
TEXT
8
TEXTO
10
5.0000
20
78.7500
30
0
40
2.5000
1
C
72
1
73
2
11
5.0000
21
78.7500
31
0
0
TEXT
8
TEXTO
10
292.0000
20
78.7500
30
0
40
2.5000
1
C
72
1
73
2
11
292.0000
21
78.7500
31
0
0
TEXT
8
TEXTO
10
5.0000
20
26.2500
30
0
40
2.5000
1
D
72
1
73
2
11
5.0000
21
26.2500
31
0
0
TEXT
8
TEXTO
10
292.0000
20
26.2500
30
0
40
2.5000
1
D
72
1
73
2
11
292.0000
21
26.2500
31
0
0
LINE
8
NORMA
10
107.0000
20
10.0000
30
0
11
287.0000
21
10.0000
31
0
0
LINE
8
NORMA
10
287.0000
20
10.0000
30
0
11
287.0000
21
52.0000
31
0
0
LINE
8
NORMA
10
287.0000
20
52.0000
30
0
11
107.0000
21
52.0000
31
0
0
LINE
8
NORMA
10
107.0000
20
52.0000
30
0
11
107.0000
21
10.0000
31
0
0
LINE
8
NORMA
10
147.0000
20
10.0000
30
0
11
147.0000
21
52.0000
31
0
0
LINE
8
NORMA
10
241.0000
20
10.0000
30
0
11
241.0000
21
52.0000
31
0
0
LINE
8
FINA
10
107.0000
20
29.0000
30
0
11
147.0000
21
29.0000
31
0
0
SOLID
8
LOGO
10
131.9003
20
50.4000
30
0
11
127.1926
21
50.4000
31
0
12
125.4623
22
50.3278
32
0
13
125.4623
23
50.3278
33
0
0
SOLID
8
LOGO
10
125.4623
20
50.3278
30
0
11
124.8139
21
50.1601
31
0
12
123.9255
22
49.7275
32
0
13
123.9255
23
49.7275
33
0
0
SOLID
8
LOGO
10
123.9255
20
49.7275
30
0
11
123.3966
21
49.2949
31
0
12
122.8565
22
48.7067
32
0
13
122.8565
23
48.7067
33
0
0
SOLID
8
LOGO
10
122.8565
20
48.7067
30
0
11
122.4962
21
48.1296
31
0
12
122.1358
22
47.1931
32
0
13
122.1358
23
47.1931
33
0
0
SOLID
8
LOGO
10
122.1358
20
47.1931
30
0
11
122.0154
21
46.5205
31
0
12
122.0154
22
45.6313
32
0
13
122.0154
23
45.6313
33
0
0
SOLID
8
LOGO
10
122.0154
20
45.6313
30
0
11
122.1118
21
45.0551
31
0
12
122.3035
22
44.4548
32
0
13
122.3035
23
44.4548
33
0
0
SOLID
8
LOGO
10
122.3035
20
44.4548
30
0
11
122.6639
21
43.7582
31
0
12
123.0965
22
43.1812
32
0
13
123.0965
23
43.1812
33
0
0
SOLID
8
LOGO
10
123.0965
20
43.1812
30
0
11
123.9014
21
42.4966
31
0
12
124.4054
22
42.2085
32
0
13
124.4054
23
42.2085
33
0
0
SOLID
8
LOGO
10
124.4054
20
42.2085
30
0
11
125.2705
21
41.8963
31
0
12
125.9190
22
41.8000
32
0
13
125.9190
23
41.8000
33
0
0
SOLID
8
LOGO
10
125.9190
20
41.8000
30
0
11
127.6966
21
41.8482
31
0
12
128.5377
22
42.1844
32
0
13
128.5377
23
42.1844
33
0
0
SOLID
8
LOGO
10
128.5377
20
42.1844
30
0
11
129.3426
21
42.8449
31
0
12
129.8707
22
43.5174
32
0
13
129.8707
23
43.5174
33
0
0
SOLID
8
LOGO
10
129.8707
20
43.5174
30
0
11
130.0865
21
43.9018
31
0
12
130.2069
22
44.2863
32
0
13
130.2069
23
44.2863
33
0
0
SOLID
8
LOGO
10
130.2069
20
44.2863
30
0
11
130.2792
21
45.1755
31
0
12
130.2551
22
47.1208
32
0
13
130.2551
23
47.1208
33
0
0
SOLID
8
LOGO
10
130.2551
20
47.1208
30
0
11
129.0416
21
47.1569
31
0
12
128.1894
22
46.1602
32
0
13
128.1894
23
46.1602
33
0
0
SOLID
8
LOGO
10
128.1894
20
46.1602
30
0
11
128.2014
21
46.0037
31
0
12
128.8137
22
45.9676
32
0
13
128.8137
23
45.9676
33
0
0
SOLID
8
LOGO
10
129.0055
20
48.6585
30
0
11
128.3330
21
47.8174
31
0
12
128.3691
22
47.7572
32
0
13
128.3691
23
47.7572
33
0
0
SOLID
8
LOGO
10
128.3691
20
47.7572
30
0
11
129.9790
21
47.7099
31
0
12
131.9846
22
50.2676
32
0
13
131.9846
23
50.2676
33
0
0
SOLID
8
LOGO
10
131.9846
20
50.2676
30
0
11
131.9003
21
50.4000
31
0
12
125.4623
22
50.3278
32
0
13
125.4623
23
50.3278
33
0
0
SOLID
8
LOGO
10
125.4623
20
50.3278
30
0
11
123.9255
21
49.7275
31
0
12
122.8565
22
48.7067
32
0
13
122.8565
23
48.7067
33
0
0
SOLID
8
LOGO
10
122.8565
20
48.7067
30
0
11
122.1358
21
47.1931
31
0
12
122.0154
22
45.6313
32
0
13
122.0154
23
45.6313
33
0
0
SOLID
8
LOGO
10
122.0154
20
45.6313
30
0
11
122.3035
21
44.4548
31
0
12
123.0965
22
43.1812
32
0
13
123.0965
23
43.1812
33
0
0
SOLID
8
LOGO
10
123.0965
20
43.1812
30
0
11
124.4054
21
42.2085
31
0
12
125.9190
22
41.8000
32
0
13
125.9190
23
41.8000
33
0
0
SOLID
8
LOGO
10
125.9190
20
41.8000
30
0
11
128.5377
21
42.1844
31
0
12
129.8707
22
43.5174
32
0
13
129.8707
23
43.5174
33
0
0
SOLID
8
LOGO
10
129.8707
20
43.5174
30
0
11
130.2069
21
44.2863
31
0
12
130.2551
22
47.1208
32
0
13
130.2551
23
47.1208
33
0
0
SOLID
8
LOGO
10
130.2551
20
47.1208
30
0
11
128.1894
21
46.1602
31
0
12
128.8137
22
45.9676
32
0
13
128.8137
23
45.9676
33
0
0
SOLID
8
LOGO
10
129.0055
20
48.6585
30
0
11
128.3691
21
47.7572
31
0
12
131.9846
22
50.2676
32
0
13
131.9846
23
50.2676
33
0
0
SOLID
8
LOGO
10
131.9846
20
50.2676
30
0
11
125.4623
21
50.3278
31
0
12
122.8565
22
48.7067
32
0
13
122.8565
23
48.7067
33
0
0
SOLID
8
LOGO
10
122.8565
20
48.7067
30
0
11
122.0154
21
45.6313
31
0
12
123.0965
22
43.1812
32
0
13
123.0965
23
43.1812
33
0
0
SOLID
8
LOGO
10
123.0965
20
43.1812
30
0
11
125.9190
21
41.8000
31
0
12
129.8707
22
43.5174
32
0
13
129.8707
23
43.5174
33
0
0
SOLID
8
LOGO
10
129.8707
20
43.5174
30
0
11
130.2551
21
47.1208
31
0
12
128.8137
22
45.9676
32
0
13
128.8137
23
45.9676
33
0
0
SOLID
8
LOGO
10
128.9462
20
48.7428
30
0
11
129.0055
21
48.6585
31
0
12
131.9846
22
50.2676
32
0
13
131.9846
23
50.2676
33
0
0
SOLID
8
LOGO
10
129.8707
20
43.5174
30
0
11
128.8137
21
45.9676
31
0
12
128.8137
22
45.0310
32
0
13
128.8137
23
45.0310
33
0
0
SOLID
8
LOGO
10
125.7986
20
48.6705
30
0
11
128.9462
21
48.7428
31
0
12
131.9846
22
50.2676
32
0
13
131.9846
23
50.2676
33
0
0
SOLID
8
LOGO
10
129.8707
20
43.5174
30
0
11
128.8137
21
45.0310
31
0
12
128.6220
22
44.3826
32
0
13
128.6220
23
44.3826
33
0
0
SOLID
8
LOGO
10
125.7986
20
48.6705
30
0
11
131.9846
21
50.2676
31
0
12
122.8565
22
48.7067
32
0
13
122.8565
23
48.7067
33
0
0
SOLID
8
LOGO
10
129.8707
20
43.5174
30
0
11
128.6220
21
44.3826
31
0
12
128.1773
22
43.8657
32
0
13
128.1773
23
43.8657
33
0
0
SOLID
8
LOGO
10
125.0779
20
48.4297
30
0
11
125.7986
21
48.6705
31
0
12
122.8565
22
48.7067
32
0
13
122.8565
23
48.7067
33
0
0
SOLID
8
LOGO
10
129.8707
20
43.5174
30
0
11
128.1773
21
43.8657
31
0
12
127.6003
22
43.5535
32
0
13
127.6003
23
43.5535
33
0
0
SOLID
8
LOGO
10
124.8380
20
48.2861
30
0
11
125.0779
21
48.4297
31
0
12
122.8565
22
48.7067
32
0
13
122.8565
23
48.7067
33
0
0
SOLID
8
LOGO
10
123.0965
20
43.1812
30
0
11
129.8707
21
43.5174
31
0
12
127.6003
22
43.5535
32
0
13
127.6003
23
43.5535
33
0
0
SOLID
8
LOGO
10
124.3452
20
47.8174
30
0
11
124.8380
21
48.2861
31
0
12
122.8565
22
48.7067
32
0
13
122.8565
23
48.7067
33
0
0
SOLID
8
LOGO
10
123.0965
20
43.1812
30
0
11
127.6003
21
43.5535
31
0
12
125.9190
22
43.5054
32
0
13
125.9190
23
43.5054
33
0
0
SOLID
8
LOGO
10
123.8894
20
47.0486
30
0
11
124.3452
21
47.8174
31
0
12
122.8565
22
48.7067
32
0
13
122.8565
23
48.7067
33
0
0
SOLID
8
LOGO
10
123.0965
20
43.1812
30
0
11
125.9190
21
43.5054
31
0
12
125.4150
22
43.6258
32
0
13
125.4150
23
43.6258
33
0
0
SOLID
8
LOGO
10
123.7208
20
46.4724
30
0
11
123.8894
21
47.0486
31
0
12
122.8565
22
48.7067
32
0
13
122.8565
23
48.7067
33
0
0
SOLID
8
LOGO
10
123.0965
20
43.1812
30
0
11
125.4150
21
43.6258
31
0
12
124.7416
22
44.0102
32
0
13
124.7416
23
44.0102
33
0
0
SOLID
8
LOGO
10
123.7208
20
45.8480
30
0
11
123.7208
21
46.4724
31
0
12
122.8565
22
48.7067
32
0
13
122.8565
23
48.7067
33
0
0
SOLID
8
LOGO
10
123.0965
20
43.1812
30
0
11
124.7416
21
44.0102
31
0
12
124.2016
22
44.5503
32
0
13
124.2016
23
44.5503
33
0
0
SOLID
8
LOGO
10
123.9135
20
45.0310
30
0
11
123.7208
21
45.8480
31
0
12
122.8565
22
48.7067
32
0
13
122.8565
23
48.7067
33
0
0
SOLID
8
LOGO
10
123.0965
20
43.1812
30
0
11
124.2016
21
44.5503
31
0
12
123.9135
22
45.0310
32
0
13
123.9135
23
45.0310
33
0
0
SOLID
8
LOGO
10
123.9135
20
45.0310
30
0
11
122.8565
21
48.7067
31
0
12
123.0965
22
43.1812
32
0
13
123.0965
23
43.1812
33
0
0
TEXT
8
TEXTO
10
127.0000
20
38.8000
30
0
40
3.4000
1
CONVEYONE
72
1
73
2
11
127.0000
21
38.8000
31
0
0
LINE
8
FINA
10
113.5000
20
37.2000
30
0
11
140.5000
21
37.2000
31
0
0
TEXT
8
TEXTO
10
127.0000
20
35.0000
30
0
40
1.3000
1
CONVEYONE SpA
72
1
73
2
11
127.0000
21
35.0000
31
0
0
TEXT
8
TEXTO
10
127.0000
20
32.6000
30
0
40
1.3000
1
ISO 5457 · 7200 · 129 · 5456-2
72
1
73
2
11
127.0000
21
32.6000
31
0
0
TEXT
8
TEXTO
10
127.0000
20
26.6000
30
0
40
1.4000
1
PROYECCIÓN — PRIMER DIEDRO
72
1
73
2
11
127.0000
21
26.6000
31
0
0
CIRCLE
8
TEXTO
10
122.4000
20
17.5000
30
0
40
2.9900
0
CIRCLE
8
TEXTO
10
122.4000
20
17.5000
30
0
40
1.6100
0
LINE
8
TEXTO
10
127.4600
20
14.5100
30
0
11
134.5900
21
15.8900
31
0
0
LINE
8
TEXTO
10
134.5900
20
15.8900
30
0
11
134.5900
21
19.1100
31
0
0
LINE
8
TEXTO
10
134.5900
20
19.1100
30
0
11
127.4600
21
20.4900
31
0
0
LINE
8
TEXTO
10
127.4600
20
20.4900
30
0
11
127.4600
21
14.5100
31
0
0
LINE
8
FINA
10
118.0300
20
17.5000
30
0
11
135.9700
21
17.5000
31
0
0
LINE
8
FINA
10
147.0000
20
39.0000
30
0
11
241.0000
21
39.0000
31
0
0
LINE
8
FINA
10
147.0000
20
29.0000
30
0
11
241.0000
21
29.0000
31
0
0
LINE
8
FINA
10
147.0000
20
19.0000
30
0
11
241.0000
21
19.0000
31
0
0
LINE
8
FINA
10
194.0000
20
29.0000
30
0
11
194.0000
21
39.0000
31
0
0
LINE
8
FINA
10
203.0000
20
19.0000
30
0
11
203.0000
21
29.0000
31
0
0
TEXT
8
TEXTO
10
148.3000
20
49.6000
30
0
40
1.4000
1
DESIGNACIÓN
0
TEXT
8
TEXTO
10
148.6000
20
44.1000
30
0
40
3.1053
1
HGD-02 · RC-48V retenedor asiento en V (x12) — DESARROL…
72
0
73
2
11
148.6000
21
44.1000
31
0
0
TEXT
8
TEXTO
10
148.3000
20
36.6000
30
0
40
1.4000
1
PROYECTO
0
TEXT
8
TEXTO
10
148.6000
20
32.6000
30
0
40
2.0000
1
CV-HGR-190E24 · kit colgante Hytrol 190-E24 …
72
0
73
2
11
148.6000
21
32.6000
31
0
0
TEXT
8
TEXTO
10
195.3000
20
36.6000
30
0
40
1.4000
1
FUENTE
0
TEXT
8
TEXTO
10
195.6000
20
32.6000
30
0
40
2.4000
1
chapa plegada — capa user
72
0
73
2
11
195.6000
21
32.6000
31
0
0
TEXT
8
TEXTO
10
148.3000
20
26.6000
30
0
40
1.4000
1
VERIFICACIÓN DE ESCALA
0
TEXT
8
TEXTO
10
148.6000
20
22.6000
30
0
40
2.4000
1
CAD EN MM (CAPA USER)
72
0
73
2
11
148.6000
21
22.6000
31
0
0
TEXT
8
TEXTO
10
204.3000
20
26.6000
30
0
40
1.4000
1
PLIEGUES
0
TEXT
8
TEXTO
10
204.6000
20
22.6000
30
0
40
2.6000
1
5
72
0
73
2
11
204.6000
21
22.6000
31
0
0
TEXT
8
TEXTO
10
148.3000
20
16.6000
30
0
40
1.4000
1
NOTA
0
TEXT
8
TEXTO
10
148.6000
20
13.1000
30
0
40
2.2000
1
Acero ASTM A36 — chapa 4 mm (corte láser) · e4 · tol. gral. ISO 2768-mK · K=0.44
72
0
73
2
11
148.6000
21
13.1000
31
0
0
LINE
8
FINA
10
241.0000
20
39.0000
30
0
11
287.0000
21
39.0000
31
0
0
LINE
8
FINA
10
241.0000
20
29.0000
30
0
11
287.0000
21
29.0000
31
0
0
LINE
8
FINA
10
241.0000
20
19.0000
30
0
11
287.0000
21
19.0000
31
0
0
LINE
8
FINA
10
264.0000
20
29.0000
30
0
11
264.0000
21
39.0000
31
0
0
LINE
8
FINA
10
267.0000
20
19.0000
30
0
11
267.0000
21
29.0000
31
0
0
TEXT
8
TEXTO
10
242.3000
20
49.6000
30
0
40
1.4000
1
ESCALA
0
TEXT
8
TEXTO
10
264.0000
20
44.1000
30
0
40
5.0000
1
1:1
72
1
73
2
11
264.0000
21
44.1000
31
0
0
TEXT
8
TEXTO
10
242.3000
20
36.6000
30
0
40
1.4000
1
FORMATO
0
TEXT
8
TEXTO
10
252.5000
20
32.6000
30
0
40
3.0000
1
A4
72
1
73
2
11
252.5000
21
32.6000
31
0
0
TEXT
8
TEXTO
10
265.3000
20
36.6000
30
0
40
1.4000
1
LÁMINA
0
TEXT
8
TEXTO
10
275.5000
20
32.6000
30
0
40
3.0000
1
1 / 1
72
1
73
2
11
275.5000
21
32.6000
31
0
0
TEXT
8
TEXTO
10
242.3000
20
26.6000
30
0
40
1.4000
1
FECHA
0
TEXT
8
TEXTO
10
254.0000
20
22.6000
30
0
40
2.6000
1
2026-08-18
72
1
73
2
11
254.0000
21
22.6000
31
0
0
TEXT
8
TEXTO
10
268.3000
20
26.6000
30
0
40
1.4000
1
UNIDADES
0
TEXT
8
TEXTO
10
277.0000
20
22.6000
30
0
40
3.0000
1
mm
72
1
73
2
11
277.0000
21
22.6000
31
0
0
TEXT
8
TEXTO
10
242.3000
20
16.6000
30
0
40
1.4000
1
Nº DE PLANO
0
TEXT
8
TEXTO
10
264.0000
20
13.1000
30
0
40
2.6000
1
HGD-02
72
1
73
2
11
264.0000
21
13.1000
31
0
0
ENDSEC
0
EOF
