0
SECTION
2
HEADER
9
$ACADVER
1
AC1009
9
$DWGCODEPAGE
3
ANSI_1252
0
ENDSEC
0
SECTION
2
TABLES
0
TABLE
2
LTYPE
70
2
0
LTYPE
2
CONTINUOUS
70
0
3
Solid line
72
65
73
0
40
0
0
LTYPE
2
DASHED
70
0
3
Segmentada __ __ __
72
65
73
2
40
6
49
4
49
-2
0
ENDTAB
0
TABLE
2
LAYER
70
8
0
LAYER
2
SOMBRA
70
0
62
8
6
CONTINUOUS
0
LAYER
2
NORMA
70
0
62
7
6
CONTINUOUS
0
LAYER
2
FINA
70
0
62
7
6
CONTINUOUS
0
LAYER
2
VISIBLE
70
0
62
7
6
CONTINUOUS
0
LAYER
2
COTAS
70
0
62
7
6
CONTINUOUS
0
LAYER
2
TEXTO
70
0
62
7
6
CONTINUOUS
0
LAYER
2
PLIEGUE
70
0
62
1
6
DASHED
0
LAYER
2
LOGO
70
0
62
5
6
CONTINUOUS
0
ENDTAB
0
ENDSEC
0
SECTION
2
ENTITIES
0
LINE
8
VISIBLE
10
105.5000
20
111.5000
30
0
11
201.5000
21
111.5000
31
0
0
LINE
8
VISIBLE
10
201.5000
20
111.5000
30
0
11
203.7190
21
111.6450
31
0
0
LINE
8
VISIBLE
10
203.7190
20
111.6450
30
0
11
205.9000
21
112.0790
31
0
0
LINE
8
VISIBLE
10
205.9000
20
112.0790
30
0
11
208.0060
21
112.7940
31
0
0
LINE
8
VISIBLE
10
208.0060
20
112.7940
30
0
11
210.0000
21
113.7780
31
0
0
LINE
8
VISIBLE
10
210.0000
20
113.7780
30
0
11
211.8490
21
115.0130
31
0
0
LINE
8
VISIBLE
10
211.8490
20
115.0130
30
0
11
213.5210
21
116.4790
31
0
0
LINE
8
VISIBLE
10
213.5210
20
116.4790
30
0
11
214.9870
21
118.1510
31
0
0
LINE
8
VISIBLE
10
214.9870
20
118.1510
30
0
11
216.2220
21
120.0000
31
0
0
LINE
8
VISIBLE
10
216.2220
20
120.0000
30
0
11
217.2060
21
121.9940
31
0
0
LINE
8
VISIBLE
10
217.2060
20
121.9940
30
0
11
217.9210
21
124.1000
31
0
0
LINE
8
VISIBLE
10
217.9210
20
124.1000
30
0
11
218.3550
21
126.2810
31
0
0
LINE
8
VISIBLE
10
218.3550
20
126.2810
30
0
11
218.5000
21
128.5000
31
0
0
LINE
8
VISIBLE
10
218.5000
20
128.5000
30
0
11
218.3550
21
130.7190
31
0
0
LINE
8
VISIBLE
10
218.3550
20
130.7190
30
0
11
217.9210
21
132.9000
31
0
0
LINE
8
VISIBLE
10
217.9210
20
132.9000
30
0
11
217.2060
21
135.0060
31
0
0
LINE
8
VISIBLE
10
217.2060
20
135.0060
30
0
11
216.2220
21
137.0000
31
0
0
LINE
8
VISIBLE
10
216.2220
20
137.0000
30
0
11
214.9870
21
138.8490
31
0
0
LINE
8
VISIBLE
10
214.9870
20
138.8490
30
0
11
213.5210
21
140.5210
31
0
0
LINE
8
VISIBLE
10
213.5210
20
140.5210
30
0
11
211.8490
21
141.9870
31
0
0
LINE
8
VISIBLE
10
211.8490
20
141.9870
30
0
11
210.0000
21
143.2220
31
0
0
LINE
8
VISIBLE
10
210.0000
20
143.2220
30
0
11
208.0060
21
144.2060
31
0
0
LINE
8
VISIBLE
10
208.0060
20
144.2060
30
0
11
205.9000
21
144.9210
31
0
0
LINE
8
VISIBLE
10
205.9000
20
144.9210
30
0
11
203.7190
21
145.3550
31
0
0
LINE
8
VISIBLE
10
203.7190
20
145.3550
30
0
11
201.5000
21
145.5000
31
0
0
LINE
8
VISIBLE
10
201.5000
20
145.5000
30
0
11
105.5000
21
145.5000
31
0
0
LINE
8
VISIBLE
10
105.5000
20
145.5000
30
0
11
103.2810
21
145.3550
31
0
0
LINE
8
VISIBLE
10
103.2810
20
145.3550
30
0
11
101.1000
21
144.9210
31
0
0
LINE
8
VISIBLE
10
101.1000
20
144.9210
30
0
11
98.9940
21
144.2060
31
0
0
LINE
8
VISIBLE
10
98.9940
20
144.2060
30
0
11
97.0000
21
143.2220
31
0
0
LINE
8
VISIBLE
10
97.0000
20
143.2220
30
0
11
95.1510
21
141.9870
31
0
0
LINE
8
VISIBLE
10
95.1510
20
141.9870
30
0
11
93.4790
21
140.5210
31
0
0
LINE
8
VISIBLE
10
93.4790
20
140.5210
30
0
11
92.0130
21
138.8490
31
0
0
LINE
8
VISIBLE
10
92.0130
20
138.8490
30
0
11
90.7780
21
137.0000
31
0
0
LINE
8
VISIBLE
10
90.7780
20
137.0000
30
0
11
89.7940
21
135.0060
31
0
0
LINE
8
VISIBLE
10
89.7940
20
135.0060
30
0
11
89.0790
21
132.9000
31
0
0
LINE
8
VISIBLE
10
89.0790
20
132.9000
30
0
11
88.6450
21
130.7190
31
0
0
LINE
8
VISIBLE
10
88.6450
20
130.7190
30
0
11
88.5000
21
128.5000
31
0
0
LINE
8
VISIBLE
10
88.5000
20
128.5000
30
0
11
88.6450
21
126.2810
31
0
0
LINE
8
VISIBLE
10
88.6450
20
126.2810
30
0
11
89.0790
21
124.1000
31
0
0
LINE
8
VISIBLE
10
89.0790
20
124.1000
30
0
11
89.7940
21
121.9940
31
0
0
LINE
8
VISIBLE
10
89.7940
20
121.9940
30
0
11
90.7780
21
120.0000
31
0
0
LINE
8
VISIBLE
10
90.7780
20
120.0000
30
0
11
92.0130
21
118.1510
31
0
0
LINE
8
VISIBLE
10
92.0130
20
118.1510
30
0
11
93.4790
21
116.4790
31
0
0
LINE
8
VISIBLE
10
93.4790
20
116.4790
30
0
11
95.1510
21
115.0130
31
0
0
LINE
8
VISIBLE
10
95.1510
20
115.0130
30
0
11
97.0000
21
113.7780
31
0
0
LINE
8
VISIBLE
10
97.0000
20
113.7780
30
0
11
98.9940
21
112.7940
31
0
0
LINE
8
VISIBLE
10
98.9940
20
112.7940
30
0
11
101.1000
21
112.0790
31
0
0
LINE
8
VISIBLE
10
101.1000
20
112.0790
30
0
11
103.2810
21
111.6450
31
0
0
LINE
8
VISIBLE
10
103.2810
20
111.6450
30
0
11
105.5000
21
111.5000
31
0
0
LINE
8
VISIBLE
10
103.0000
20
123.0000
30
0
11
108.0000
21
123.0000
31
0
0
LINE
8
VISIBLE
10
108.0000
20
123.0000
30
0
11
108.0000
21
123.0000
31
0
0
LINE
8
VISIBLE
10
108.0000
20
123.0000
30
0
11
109.4240
21
123.1870
31
0
0
LINE
8
VISIBLE
10
109.4240
20
123.1870
30
0
11
110.7500
21
123.7370
31
0
0
LINE
8
VISIBLE
10
110.7500
20
123.7370
30
0
11
111.8890
21
124.6110
31
0
0
LINE
8
VISIBLE
10
111.8890
20
124.6110
30
0
11
112.7630
21
125.7500
31
0
0
LINE
8
VISIBLE
10
112.7630
20
125.7500
30
0
11
113.3130
21
127.0760
31
0
0
LINE
8
VISIBLE
10
113.3130
20
127.0760
30
0
11
113.5000
21
128.5000
31
0
0
LINE
8
VISIBLE
10
113.5000
20
128.5000
30
0
11
113.3130
21
129.9240
31
0
0
LINE
8
VISIBLE
10
113.3130
20
129.9240
30
0
11
112.7630
21
131.2500
31
0
0
LINE
8
VISIBLE
10
112.7630
20
131.2500
30
0
11
111.8890
21
132.3890
31
0
0
LINE
8
VISIBLE
10
111.8890
20
132.3890
30
0
11
110.7500
21
133.2630
31
0
0
LINE
8
VISIBLE
10
110.7500
20
133.2630
30
0
11
109.4240
21
133.8130
31
0
0
LINE
8
VISIBLE
10
109.4240
20
133.8130
30
0
11
108.0000
21
134.0000
31
0
0
LINE
8
VISIBLE
10
108.0000
20
134.0000
30
0
11
103.0000
21
134.0000
31
0
0
LINE
8
VISIBLE
10
103.0000
20
134.0000
30
0
11
103.0000
21
134.0000
31
0
0
LINE
8
VISIBLE
10
103.0000
20
134.0000
30
0
11
101.5760
21
133.8130
31
0
0
LINE
8
VISIBLE
10
101.5760
20
133.8130
30
0
11
100.2500
21
133.2630
31
0
0
LINE
8
VISIBLE
10
100.2500
20
133.2630
30
0
11
99.1110
21
132.3890
31
0
0
LINE
8
VISIBLE
10
99.1110
20
132.3890
30
0
11
98.2370
21
131.2500
31
0
0
LINE
8
VISIBLE
10
98.2370
20
131.2500
30
0
11
97.6870
21
129.9240
31
0
0
LINE
8
VISIBLE
10
97.6870
20
129.9240
30
0
11
97.5000
21
128.5000
31
0
0
LINE
8
VISIBLE
10
97.5000
20
128.5000
30
0
11
97.6870
21
127.0760
31
0
0
LINE
8
VISIBLE
10
97.6870
20
127.0760
30
0
11
98.2370
21
125.7500
31
0
0
LINE
8
VISIBLE
10
98.2370
20
125.7500
30
0
11
99.1110
21
124.6110
31
0
0
LINE
8
VISIBLE
10
99.1110
20
124.6110
30
0
11
100.2500
21
123.7370
31
0
0
LINE
8
VISIBLE
10
100.2500
20
123.7370
30
0
11
101.5760
21
123.1870
31
0
0
LINE
8
VISIBLE
10
101.5760
20
123.1870
30
0
11
103.0000
21
123.0000
31
0
0
LINE
8
VISIBLE
10
199.0000
20
123.0000
30
0
11
204.0000
21
123.0000
31
0
0
LINE
8
VISIBLE
10
204.0000
20
123.0000
30
0
11
204.0000
21
123.0000
31
0
0
LINE
8
VISIBLE
10
204.0000
20
123.0000
30
0
11
205.4240
21
123.1870
31
0
0
LINE
8
VISIBLE
10
205.4240
20
123.1870
30
0
11
206.7500
21
123.7370
31
0
0
LINE
8
VISIBLE
10
206.7500
20
123.7370
30
0
11
207.8890
21
124.6110
31
0
0
LINE
8
VISIBLE
10
207.8890
20
124.6110
30
0
11
208.7630
21
125.7500
31
0
0
LINE
8
VISIBLE
10
208.7630
20
125.7500
30
0
11
209.3130
21
127.0760
31
0
0
LINE
8
VISIBLE
10
209.3130
20
127.0760
30
0
11
209.5000
21
128.5000
31
0
0
LINE
8
VISIBLE
10
209.5000
20
128.5000
30
0
11
209.3130
21
129.9240
31
0
0
LINE
8
VISIBLE
10
209.3130
20
129.9240
30
0
11
208.7630
21
131.2500
31
0
0
LINE
8
VISIBLE
10
208.7630
20
131.2500
30
0
11
207.8890
21
132.3890
31
0
0
LINE
8
VISIBLE
10
207.8890
20
132.3890
30
0
11
206.7500
21
133.2630
31
0
0
LINE
8
VISIBLE
10
206.7500
20
133.2630
30
0
11
205.4240
21
133.8130
31
0
0
LINE
8
VISIBLE
10
205.4240
20
133.8130
30
0
11
204.0000
21
134.0000
31
0
0
LINE
8
VISIBLE
10
204.0000
20
134.0000
30
0
11
199.0000
21
134.0000
31
0
0
LINE
8
VISIBLE
10
199.0000
20
134.0000
30
0
11
199.0000
21
134.0000
31
0
0
LINE
8
VISIBLE
10
199.0000
20
134.0000
30
0
11
197.5760
21
133.8130
31
0
0
LINE
8
VISIBLE
10
197.5760
20
133.8130
30
0
11
196.2500
21
133.2630
31
0
0
LINE
8
VISIBLE
10
196.2500
20
133.2630
30
0
11
195.1110
21
132.3890
31
0
0
LINE
8
VISIBLE
10
195.1110
20
132.3890
30
0
11
194.2370
21
131.2500
31
0
0
LINE
8
VISIBLE
10
194.2370
20
131.2500
30
0
11
193.6870
21
129.9240
31
0
0
LINE
8
VISIBLE
10
193.6870
20
129.9240
30
0
11
193.5000
21
128.5000
31
0
0
LINE
8
VISIBLE
10
193.5000
20
128.5000
30
0
11
193.6870
21
127.0760
31
0
0
LINE
8
VISIBLE
10
193.6870
20
127.0760
30
0
11
194.2370
21
125.7500
31
0
0
LINE
8
VISIBLE
10
194.2370
20
125.7500
30
0
11
195.1110
21
124.6110
31
0
0
LINE
8
VISIBLE
10
195.1110
20
124.6110
30
0
11
196.2500
21
123.7370
31
0
0
LINE
8
VISIBLE
10
196.2500
20
123.7370
30
0
11
197.5760
21
123.1870
31
0
0
LINE
8
VISIBLE
10
197.5760
20
123.1870
30
0
11
199.0000
21
123.0000
31
0
0
LINE
8
COTAS
10
88.5000
20
110.5000
30
0
11
88.5000
21
101.0000
31
0
0
LINE
8
COTAS
10
218.5000
20
110.5000
30
0
11
218.5000
21
101.0000
31
0
0
LINE
8
COTAS
10
88.5000
20
102.5000
30
0
11
218.5000
21
102.5000
31
0
0
SOLID
8
COTAS
10
88.5000
20
102.5000
30
0
11
91.0000
21
102.9500
31
0
12
91.0000
22
102.0500
32
0
13
91.0000
23
102.0500
33
0
0
SOLID
8
COTAS
10
218.5000
20
102.5000
30
0
11
216.0000
21
102.9500
31
0
12
216.0000
22
102.0500
32
0
13
216.0000
23
102.0500
33
0
0
TEXT
8
COTAS
10
153.5000
20
104.7000
30
0
40
3.5000
1
130
72
1
73
2
11
153.5000
21
104.7000
31
0
0
LINE
8
COTAS
10
219.5000
20
111.5000
30
0
11
229.0000
21
111.5000
31
0
0
LINE
8
COTAS
10
219.5000
20
145.5000
30
0
11
229.0000
21
145.5000
31
0
0
LINE
8
COTAS
10
227.5000
20
111.5000
30
0
11
227.5000
21
145.5000
31
0
0
SOLID
8
COTAS
10
227.5000
20
111.5000
30
0
11
227.9500
21
114.0000
31
0
12
227.0500
22
114.0000
32
0
13
227.0500
23
114.0000
33
0
0
SOLID
8
COTAS
10
227.5000
20
145.5000
30
0
11
227.9500
21
143.0000
31
0
12
227.0500
22
143.0000
32
0
13
227.0500
23
143.0000
33
0
0
TEXT
8
COTAS
10
229.7000
20
128.5000
30
0
40
3.5000
1
34
72
1
73
2
11
229.7000
21
128.5000
31
0
0
TEXT
8
TEXTO
10
88.5000
20
156.0000
30
0
40
3.5000
1
DESARROLLO DE CHAPA — BA = ang·(R + K·t), fibra neutra por factor K
0
TEXT
8
TEXTO
10
88.5000
20
150.5000
30
0
40
4.0000
1
ESPESOR DE CHAPA e = 4 mm (constante en toda la pieza)
0
LINE
8
FINA
10
0.0000
20
0.0000
30
0
11
297.0000
21
0.0000
31
0
0
LINE
8
FINA
10
297.0000
20
0.0000
30
0
11
297.0000
21
210.0000
31
0
0
LINE
8
FINA
10
297.0000
20
210.0000
30
0
11
0.0000
21
210.0000
31
0
0
LINE
8
FINA
10
0.0000
20
210.0000
30
0
11
0.0000
21
0.0000
31
0
0
LINE
8
NORMA
10
20.0000
20
10.0000
30
0
11
287.0000
21
10.0000
31
0
0
LINE
8
NORMA
10
287.0000
20
10.0000
30
0
11
287.0000
21
200.0000
31
0
0
LINE
8
NORMA
10
287.0000
20
200.0000
30
0
11
20.0000
21
200.0000
31
0
0
LINE
8
NORMA
10
20.0000
20
200.0000
30
0
11
20.0000
21
10.0000
31
0
0
LINE
8
NORMA
10
0.0000
20
105.0000
30
0
11
25.0000
21
105.0000
31
0
0
LINE
8
NORMA
10
297.0000
20
105.0000
30
0
11
282.0000
21
105.0000
31
0
0
LINE
8
NORMA
10
148.5000
20
0.0000
30
0
11
148.5000
21
15.0000
31
0
0
LINE
8
NORMA
10
148.5000
20
210.0000
30
0
11
148.5000
21
195.0000
31
0
0
LINE
8
FINA
10
49.5000
20
0.0000
30
0
11
49.5000
21
10.0000
31
0
0
LINE
8
FINA
10
49.5000
20
200.0000
30
0
11
49.5000
21
210.0000
31
0
0
LINE
8
FINA
10
99.0000
20
0.0000
30
0
11
99.0000
21
10.0000
31
0
0
LINE
8
FINA
10
99.0000
20
200.0000
30
0
11
99.0000
21
210.0000
31
0
0
LINE
8
FINA
10
148.5000
20
0.0000
30
0
11
148.5000
21
10.0000
31
0
0
LINE
8
FINA
10
148.5000
20
200.0000
30
0
11
148.5000
21
210.0000
31
0
0
LINE
8
FINA
10
198.0000
20
0.0000
30
0
11
198.0000
21
10.0000
31
0
0
LINE
8
FINA
10
198.0000
20
200.0000
30
0
11
198.0000
21
210.0000
31
0
0
LINE
8
FINA
10
247.5000
20
0.0000
30
0
11
247.5000
21
10.0000
31
0
0
LINE
8
FINA
10
247.5000
20
200.0000
30
0
11
247.5000
21
210.0000
31
0
0
LINE
8
FINA
10
0.0000
20
52.5000
30
0
11
10.0000
21
52.5000
31
0
0
LINE
8
FINA
10
287.0000
20
52.5000
30
0
11
297.0000
21
52.5000
31
0
0
LINE
8
FINA
10
0.0000
20
105.0000
30
0
11
10.0000
21
105.0000
31
0
0
LINE
8
FINA
10
287.0000
20
105.0000
30
0
11
297.0000
21
105.0000
31
0
0
LINE
8
FINA
10
0.0000
20
157.5000
30
0
11
10.0000
21
157.5000
31
0
0
LINE
8
FINA
10
287.0000
20
157.5000
30
0
11
297.0000
21
157.5000
31
0
0
TEXT
8
TEXTO
10
24.7500
20
5.0000
30
0
40
2.5000
1
1
72
1
73
2
11
24.7500
21
5.0000
31
0
0
TEXT
8
TEXTO
10
24.7500
20
205.0000
30
0
40
2.5000
1
1
72
1
73
2
11
24.7500
21
205.0000
31
0
0
TEXT
8
TEXTO
10
74.2500
20
5.0000
30
0
40
2.5000
1
2
72
1
73
2
11
74.2500
21
5.0000
31
0
0
TEXT
8
TEXTO
10
74.2500
20
205.0000
30
0
40
2.5000
1
2
72
1
73
2
11
74.2500
21
205.0000
31
0
0
TEXT
8
TEXTO
10
123.7500
20
5.0000
30
0
40
2.5000
1
3
72
1
73
2
11
123.7500
21
5.0000
31
0
0
TEXT
8
TEXTO
10
123.7500
20
205.0000
30
0
40
2.5000
1
3
72
1
73
2
11
123.7500
21
205.0000
31
0
0
TEXT
8
TEXTO
10
173.2500
20
5.0000
30
0
40
2.5000
1
4
72
1
73
2
11
173.2500
21
5.0000
31
0
0
TEXT
8
TEXTO
10
173.2500
20
205.0000
30
0
40
2.5000
1
4
72
1
73
2
11
173.2500
21
205.0000
31
0
0
TEXT
8
TEXTO
10
222.7500
20
5.0000
30
0
40
2.5000
1
5
72
1
73
2
11
222.7500
21
5.0000
31
0
0
TEXT
8
TEXTO
10
222.7500
20
205.0000
30
0
40
2.5000
1
5
72
1
73
2
11
222.7500
21
205.0000
31
0
0
TEXT
8
TEXTO
10
272.2500
20
5.0000
30
0
40
2.5000
1
6
72
1
73
2
11
272.2500
21
5.0000
31
0
0
TEXT
8
TEXTO
10
272.2500
20
205.0000
30
0
40
2.5000
1
6
72
1
73
2
11
272.2500
21
205.0000
31
0
0
TEXT
8
TEXTO
10
5.0000
20
183.7500
30
0
40
2.5000
1
A
72
1
73
2
11
5.0000
21
183.7500
31
0
0
TEXT
8
TEXTO
10
292.0000
20
183.7500
30
0
40
2.5000
1
A
72
1
73
2
11
292.0000
21
183.7500
31
0
0
TEXT
8
TEXTO
10
5.0000
20
131.2500
30
0
40
2.5000
1
B
72
1
73
2
11
5.0000
21
131.2500
31
0
0
TEXT
8
TEXTO
10
292.0000
20
131.2500
30
0
40
2.5000
1
B
72
1
73
2
11
292.0000
21
131.2500
31
0
0
TEXT
8
TEXTO
10
5.0000
20
78.7500
30
0
40
2.5000
1
C
72
1
73
2
11
5.0000
21
78.7500
31
0
0
TEXT
8
TEXTO
10
292.0000
20
78.7500
30
0
40
2.5000
1
C
72
1
73
2
11
292.0000
21
78.7500
31
0
0
TEXT
8
TEXTO
10
5.0000
20
26.2500
30
0
40
2.5000
1
D
72
1
73
2
11
5.0000
21
26.2500
31
0
0
TEXT
8
TEXTO
10
292.0000
20
26.2500
30
0
40
2.5000
1
D
72
1
73
2
11
292.0000
21
26.2500
31
0
0
LINE
8
NORMA
10
107.0000
20
10.0000
30
0
11
287.0000
21
10.0000
31
0
0
LINE
8
NORMA
10
287.0000
20
10.0000
30
0
11
287.0000
21
52.0000
31
0
0
LINE
8
NORMA
10
287.0000
20
52.0000
30
0
11
107.0000
21
52.0000
31
0
0
LINE
8
NORMA
10
107.0000
20
52.0000
30
0
11
107.0000
21
10.0000
31
0
0
LINE
8
NORMA
10
147.0000
20
10.0000
30
0
11
147.0000
21
52.0000
31
0
0
LINE
8
NORMA
10
241.0000
20
10.0000
30
0
11
241.0000
21
52.0000
31
0
0
LINE
8
FINA
10
107.0000
20
29.0000
30
0
11
147.0000
21
29.0000
31
0
0
SOLID
8
LOGO
10
131.9003
20
50.4000
30
0
11
127.1926
21
50.4000
31
0
12
125.4623
22
50.3278
32
0
13
125.4623
23
50.3278
33
0
0
SOLID
8
LOGO
10
125.4623
20
50.3278
30
0
11
124.8139
21
50.1601
31
0
12
123.9255
22
49.7275
32
0
13
123.9255
23
49.7275
33
0
0
SOLID
8
LOGO
10
123.9255
20
49.7275
30
0
11
123.3966
21
49.2949
31
0
12
122.8565
22
48.7067
32
0
13
122.8565
23
48.7067
33
0
0
SOLID
8
LOGO
10
122.8565
20
48.7067
30
0
11
122.4962
21
48.1296
31
0
12
122.1358
22
47.1931
32
0
13
122.1358
23
47.1931
33
0
0
SOLID
8
LOGO
10
122.1358
20
47.1931
30
0
11
122.0154
21
46.5205
31
0
12
122.0154
22
45.6313
32
0
13
122.0154
23
45.6313
33
0
0
SOLID
8
LOGO
10
122.0154
20
45.6313
30
0
11
122.1118
21
45.0551
31
0
12
122.3035
22
44.4548
32
0
13
122.3035
23
44.4548
33
0
0
SOLID
8
LOGO
10
122.3035
20
44.4548
30
0
11
122.6639
21
43.7582
31
0
12
123.0965
22
43.1812
32
0
13
123.0965
23
43.1812
33
0
0
SOLID
8
LOGO
10
123.0965
20
43.1812
30
0
11
123.9014
21
42.4966
31
0
12
124.4054
22
42.2085
32
0
13
124.4054
23
42.2085
33
0
0
SOLID
8
LOGO
10
124.4054
20
42.2085
30
0
11
125.2705
21
41.8963
31
0
12
125.9190
22
41.8000
32
0
13
125.9190
23
41.8000
33
0
0
SOLID
8
LOGO
10
125.9190
20
41.8000
30
0
11
127.6966
21
41.8482
31
0
12
128.5377
22
42.1844
32
0
13
128.5377
23
42.1844
33
0
0
SOLID
8
LOGO
10
128.5377
20
42.1844
30
0
11
129.3426
21
42.8449
31
0
12
129.8707
22
43.5174
32
0
13
129.8707
23
43.5174
33
0
0
SOLID
8
LOGO
10
129.8707
20
43.5174
30
0
11
130.0865
21
43.9018
31
0
12
130.2069
22
44.2863
32
0
13
130.2069
23
44.2863
33
0
0
SOLID
8
LOGO
10
130.2069
20
44.2863
30
0
11
130.2792
21
45.1755
31
0
12
130.2551
22
47.1208
32
0
13
130.2551
23
47.1208
33
0
0
SOLID
8
LOGO
10
130.2551
20
47.1208
30
0
11
129.0416
21
47.1569
31
0
12
128.1894
22
46.1602
32
0
13
128.1894
23
46.1602
33
0
0
SOLID
8
LOGO
10
128.1894
20
46.1602
30
0
11
128.2014
21
46.0037
31
0
12
128.8137
22
45.9676
32
0
13
128.8137
23
45.9676
33
0
0
SOLID
8
LOGO
10
129.0055
20
48.6585
30
0
11
128.3330
21
47.8174
31
0
12
128.3691
22
47.7572
32
0
13
128.3691
23
47.7572
33
0
0
SOLID
8
LOGO
10
128.3691
20
47.7572
30
0
11
129.9790
21
47.7099
31
0
12
131.9846
22
50.2676
32
0
13
131.9846
23
50.2676
33
0
0
SOLID
8
LOGO
10
131.9846
20
50.2676
30
0
11
131.9003
21
50.4000
31
0
12
125.4623
22
50.3278
32
0
13
125.4623
23
50.3278
33
0
0
SOLID
8
LOGO
10
125.4623
20
50.3278
30
0
11
123.9255
21
49.7275
31
0
12
122.8565
22
48.7067
32
0
13
122.8565
23
48.7067
33
0
0
SOLID
8
LOGO
10
122.8565
20
48.7067
30
0
11
122.1358
21
47.1931
31
0
12
122.0154
22
45.6313
32
0
13
122.0154
23
45.6313
33
0
0
SOLID
8
LOGO
10
122.0154
20
45.6313
30
0
11
122.3035
21
44.4548
31
0
12
123.0965
22
43.1812
32
0
13
123.0965
23
43.1812
33
0
0
SOLID
8
LOGO
10
123.0965
20
43.1812
30
0
11
124.4054
21
42.2085
31
0
12
125.9190
22
41.8000
32
0
13
125.9190
23
41.8000
33
0
0
SOLID
8
LOGO
10
125.9190
20
41.8000
30
0
11
128.5377
21
42.1844
31
0
12
129.8707
22
43.5174
32
0
13
129.8707
23
43.5174
33
0
0
SOLID
8
LOGO
10
129.8707
20
43.5174
30
0
11
130.2069
21
44.2863
31
0
12
130.2551
22
47.1208
32
0
13
130.2551
23
47.1208
33
0
0
SOLID
8
LOGO
10
130.2551
20
47.1208
30
0
11
128.1894
21
46.1602
31
0
12
128.8137
22
45.9676
32
0
13
128.8137
23
45.9676
33
0
0
SOLID
8
LOGO
10
129.0055
20
48.6585
30
0
11
128.3691
21
47.7572
31
0
12
131.9846
22
50.2676
32
0
13
131.9846
23
50.2676
33
0
0
SOLID
8
LOGO
10
131.9846
20
50.2676
30
0
11
125.4623
21
50.3278
31
0
12
122.8565
22
48.7067
32
0
13
122.8565
23
48.7067
33
0
0
SOLID
8
LOGO
10
122.8565
20
48.7067
30
0
11
122.0154
21
45.6313
31
0
12
123.0965
22
43.1812
32
0
13
123.0965
23
43.1812
33
0
0
SOLID
8
LOGO
10
123.0965
20
43.1812
30
0
11
125.9190
21
41.8000
31
0
12
129.8707
22
43.5174
32
0
13
129.8707
23
43.5174
33
0
0
SOLID
8
LOGO
10
129.8707
20
43.5174
30
0
11
130.2551
21
47.1208
31
0
12
128.8137
22
45.9676
32
0
13
128.8137
23
45.9676
33
0
0
SOLID
8
LOGO
10
128.9462
20
48.7428
30
0
11
129.0055
21
48.6585
31
0
12
131.9846
22
50.2676
32
0
13
131.9846
23
50.2676
33
0
0
SOLID
8
LOGO
10
129.8707
20
43.5174
30
0
11
128.8137
21
45.9676
31
0
12
128.8137
22
45.0310
32
0
13
128.8137
23
45.0310
33
0
0
SOLID
8
LOGO
10
125.7986
20
48.6705
30
0
11
128.9462
21
48.7428
31
0
12
131.9846
22
50.2676
32
0
13
131.9846
23
50.2676
33
0
0
SOLID
8
LOGO
10
129.8707
20
43.5174
30
0
11
128.8137
21
45.0310
31
0
12
128.6220
22
44.3826
32
0
13
128.6220
23
44.3826
33
0
0
SOLID
8
LOGO
10
125.7986
20
48.6705
30
0
11
131.9846
21
50.2676
31
0
12
122.8565
22
48.7067
32
0
13
122.8565
23
48.7067
33
0
0
SOLID
8
LOGO
10
129.8707
20
43.5174
30
0
11
128.6220
21
44.3826
31
0
12
128.1773
22
43.8657
32
0
13
128.1773
23
43.8657
33
0
0
SOLID
8
LOGO
10
125.0779
20
48.4297
30
0
11
125.7986
21
48.6705
31
0
12
122.8565
22
48.7067
32
0
13
122.8565
23
48.7067
33
0
0
SOLID
8
LOGO
10
129.8707
20
43.5174
30
0
11
128.1773
21
43.8657
31
0
12
127.6003
22
43.5535
32
0
13
127.6003
23
43.5535
33
0
0
SOLID
8
LOGO
10
124.8380
20
48.2861
30
0
11
125.0779
21
48.4297
31
0
12
122.8565
22
48.7067
32
0
13
122.8565
23
48.7067
33
0
0
SOLID
8
LOGO
10
123.0965
20
43.1812
30
0
11
129.8707
21
43.5174
31
0
12
127.6003
22
43.5535
32
0
13
127.6003
23
43.5535
33
0
0
SOLID
8
LOGO
10
124.3452
20
47.8174
30
0
11
124.8380
21
48.2861
31
0
12
122.8565
22
48.7067
32
0
13
122.8565
23
48.7067
33
0
0
SOLID
8
LOGO
10
123.0965
20
43.1812
30
0
11
127.6003
21
43.5535
31
0
12
125.9190
22
43.5054
32
0
13
125.9190
23
43.5054
33
0
0
SOLID
8
LOGO
10
123.8894
20
47.0486
30
0
11
124.3452
21
47.8174
31
0
12
122.8565
22
48.7067
32
0
13
122.8565
23
48.7067
33
0
0
SOLID
8
LOGO
10
123.0965
20
43.1812
30
0
11
125.9190
21
43.5054
31
0
12
125.4150
22
43.6258
32
0
13
125.4150
23
43.6258
33
0
0
SOLID
8
LOGO
10
123.7208
20
46.4724
30
0
11
123.8894
21
47.0486
31
0
12
122.8565
22
48.7067
32
0
13
122.8565
23
48.7067
33
0
0
SOLID
8
LOGO
10
123.0965
20
43.1812
30
0
11
125.4150
21
43.6258
31
0
12
124.7416
22
44.0102
32
0
13
124.7416
23
44.0102
33
0
0
SOLID
8
LOGO
10
123.7208
20
45.8480
30
0
11
123.7208
21
46.4724
31
0
12
122.8565
22
48.7067
32
0
13
122.8565
23
48.7067
33
0
0
SOLID
8
LOGO
10
123.0965
20
43.1812
30
0
11
124.7416
21
44.0102
31
0
12
124.2016
22
44.5503
32
0
13
124.2016
23
44.5503
33
0
0
SOLID
8
LOGO
10
123.9135
20
45.0310
30
0
11
123.7208
21
45.8480
31
0
12
122.8565
22
48.7067
32
0
13
122.8565
23
48.7067
33
0
0
SOLID
8
LOGO
10
123.0965
20
43.1812
30
0
11
124.2016
21
44.5503
31
0
12
123.9135
22
45.0310
32
0
13
123.9135
23
45.0310
33
0
0
SOLID
8
LOGO
10
123.9135
20
45.0310
30
0
11
122.8565
21
48.7067
31
0
12
123.0965
22
43.1812
32
0
13
123.0965
23
43.1812
33
0
0
TEXT
8
TEXTO
10
127.0000
20
38.8000
30
0
40
3.4000
1
CONVEYONE
72
1
73
2
11
127.0000
21
38.8000
31
0
0
LINE
8
FINA
10
113.5000
20
37.2000
30
0
11
140.5000
21
37.2000
31
0
0
TEXT
8
TEXTO
10
127.0000
20
35.0000
30
0
40
1.3000
1
CONVEYONE SpA
72
1
73
2
11
127.0000
21
35.0000
31
0
0
TEXT
8
TEXTO
10
127.0000
20
32.6000
30
0
40
1.3000
1
ISO 5457 · 7200 · 129 · 5456-2
72
1
73
2
11
127.0000
21
32.6000
31
0
0
TEXT
8
TEXTO
10
127.0000
20
26.6000
30
0
40
1.4000
1
PROYECCIÓN — PRIMER DIEDRO
72
1
73
2
11
127.0000
21
26.6000
31
0
0
CIRCLE
8
TEXTO
10
122.4000
20
17.5000
30
0
40
2.9900
0
CIRCLE
8
TEXTO
10
122.4000
20
17.5000
30
0
40
1.6100
0
LINE
8
TEXTO
10
127.4600
20
14.5100
30
0
11
134.5900
21
15.8900
31
0
0
LINE
8
TEXTO
10
134.5900
20
15.8900
30
0
11
134.5900
21
19.1100
31
0
0
LINE
8
TEXTO
10
134.5900
20
19.1100
30
0
11
127.4600
21
20.4900
31
0
0
LINE
8
TEXTO
10
127.4600
20
20.4900
30
0
11
127.4600
21
14.5100
31
0
0
LINE
8
FINA
10
118.0300
20
17.5000
30
0
11
135.9700
21
17.5000
31
0
0
LINE
8
FINA
10
147.0000
20
39.0000
30
0
11
241.0000
21
39.0000
31
0
0
LINE
8
FINA
10
147.0000
20
29.0000
30
0
11
241.0000
21
29.0000
31
0
0
LINE
8
FINA
10
147.0000
20
19.0000
30
0
11
241.0000
21
19.0000
31
0
0
LINE
8
FINA
10
194.0000
20
29.0000
30
0
11
194.0000
21
39.0000
31
0
0
LINE
8
FINA
10
203.0000
20
19.0000
30
0
11
203.0000
21
29.0000
31
0
0
TEXT
8
TEXTO
10
148.3000
20
49.6000
30
0
40
1.4000
1
DESIGNACIÓN
0
TEXT
8
TEXTO
10
148.6000
20
44.1000
30
0
40
3.4128
1
HGD-01 · PD-48 placa distribuidora (x12) — DESARROL…
72
0
73
2
11
148.6000
21
44.1000
31
0
0
TEXT
8
TEXTO
10
148.3000
20
36.6000
30
0
40
1.4000
1
PROYECTO
0
TEXT
8
TEXTO
10
148.6000
20
32.6000
30
0
40
2.0000
1
CV-HGR-190E24 · kit colgante Hytrol 190-E24 …
72
0
73
2
11
148.6000
21
32.6000
31
0
0
TEXT
8
TEXTO
10
195.3000
20
36.6000
30
0
40
1.4000
1
FUENTE
0
TEXT
8
TEXTO
10
195.6000
20
32.6000
30
0
40
2.4000
1
chapa plegada — capa user
72
0
73
2
11
195.6000
21
32.6000
31
0
0
TEXT
8
TEXTO
10
148.3000
20
26.6000
30
0
40
1.4000
1
VERIFICACIÓN DE ESCALA
0
TEXT
8
TEXTO
10
148.6000
20
22.6000
30
0
40
2.4000
1
CAD EN MM (CAPA USER)
72
0
73
2
11
148.6000
21
22.6000
31
0
0
TEXT
8
TEXTO
10
204.3000
20
26.6000
30
0
40
1.4000
1
PLIEGUES
0
TEXT
8
TEXTO
10
204.6000
20
22.6000
30
0
40
2.6000
1
0
72
0
73
2
11
204.6000
21
22.6000
31
0
0
TEXT
8
TEXTO
10
148.3000
20
16.6000
30
0
40
1.4000
1
NOTA
0
TEXT
8
TEXTO
10
148.6000
20
13.1000
30
0
40
2.2000
1
Acero ASTM A36 — chapa 4 mm (corte láser) · e4 · tol. gral. ISO 2768-mK · K=0.44
72
0
73
2
11
148.6000
21
13.1000
31
0
0
LINE
8
FINA
10
241.0000
20
39.0000
30
0
11
287.0000
21
39.0000
31
0
0
LINE
8
FINA
10
241.0000
20
29.0000
30
0
11
287.0000
21
29.0000
31
0
0
LINE
8
FINA
10
241.0000
20
19.0000
30
0
11
287.0000
21
19.0000
31
0
0
LINE
8
FINA
10
264.0000
20
29.0000
30
0
11
264.0000
21
39.0000
31
0
0
LINE
8
FINA
10
267.0000
20
19.0000
30
0
11
267.0000
21
29.0000
31
0
0
TEXT
8
TEXTO
10
242.3000
20
49.6000
30
0
40
1.4000
1
ESCALA
0
TEXT
8
TEXTO
10
264.0000
20
44.1000
30
0
40
5.0000
1
1:1
72
1
73
2
11
264.0000
21
44.1000
31
0
0
TEXT
8
TEXTO
10
242.3000
20
36.6000
30
0
40
1.4000
1
FORMATO
0
TEXT
8
TEXTO
10
252.5000
20
32.6000
30
0
40
3.0000
1
A4
72
1
73
2
11
252.5000
21
32.6000
31
0
0
TEXT
8
TEXTO
10
265.3000
20
36.6000
30
0
40
1.4000
1
LÁMINA
0
TEXT
8
TEXTO
10
275.5000
20
32.6000
30
0
40
3.0000
1
1 / 1
72
1
73
2
11
275.5000
21
32.6000
31
0
0
TEXT
8
TEXTO
10
242.3000
20
26.6000
30
0
40
1.4000
1
FECHA
0
TEXT
8
TEXTO
10
254.0000
20
22.6000
30
0
40
2.6000
1
2026-08-18
72
1
73
2
11
254.0000
21
22.6000
31
0
0
TEXT
8
TEXTO
10
268.3000
20
26.6000
30
0
40
1.4000
1
UNIDADES
0
TEXT
8
TEXTO
10
277.0000
20
22.6000
30
0
40
3.0000
1
mm
72
1
73
2
11
277.0000
21
22.6000
31
0
0
TEXT
8
TEXTO
10
242.3000
20
16.6000
30
0
40
1.4000
1
Nº DE PLANO
0
TEXT
8
TEXTO
10
264.0000
20
13.1000
30
0
40
2.6000
1
HGD-01
72
1
73
2
11
264.0000
21
13.1000
31
0
0
ENDSEC
0
EOF
