0
SECTION
2
HEADER
9
$ACADVER
1
AC1009
9
$DWGCODEPAGE
3
ANSI_1252
0
ENDSEC
0
SECTION
2
TABLES
0
TABLE
2
LTYPE
70
2
0
LTYPE
2
CONTINUOUS
70
0
3
Solid line
72
65
73
0
40
0
0
LTYPE
2
DASHED
70
0
3
Segmentada __ __ __
72
65
73
2
40
6
49
4
49
-2
0
ENDTAB
0
TABLE
2
LAYER
70
7
0
LAYER
2
SOMBRA
70
0
62
8
6
CONTINUOUS
0
LAYER
2
NORMA
70
0
62
7
6
CONTINUOUS
0
LAYER
2
FINA
70
0
62
7
6
CONTINUOUS
0
LAYER
2
VISIBLE
70
0
62
7
6
CONTINUOUS
0
LAYER
2
COTAS
70
0
62
7
6
CONTINUOUS
0
LAYER
2
TEXTO
70
0
62
7
6
CONTINUOUS
0
LAYER
2
PLIEGUE
70
0
62
1
6
DASHED
0
ENDTAB
0
ENDSEC
0
SECTION
2
ENTITIES
0
LINE
8
VISIBLE
10
68.4485
20
113.5000
30
0
11
238.5515
21
113.5000
31
0
0
LINE
8
VISIBLE
10
238.5515
20
113.5000
30
0
11
240.5095
21
113.6280
31
0
0
LINE
8
VISIBLE
10
240.5095
20
113.6280
30
0
11
242.4335
21
114.0110
31
0
0
LINE
8
VISIBLE
10
242.4335
20
114.0110
30
0
11
244.2915
21
114.6420
31
0
0
LINE
8
VISIBLE
10
244.2915
20
114.6420
30
0
11
246.0515
21
115.5100
31
0
0
LINE
8
VISIBLE
10
246.0515
20
115.5100
30
0
11
247.6825
21
116.6000
31
0
0
LINE
8
VISIBLE
10
247.6825
20
116.6000
30
0
11
249.1585
21
117.8930
31
0
0
LINE
8
VISIBLE
10
249.1585
20
117.8930
30
0
11
250.4515
21
119.3690
31
0
0
LINE
8
VISIBLE
10
250.4515
20
119.3690
30
0
11
251.5415
21
121.0000
31
0
0
LINE
8
VISIBLE
10
251.5415
20
121.0000
30
0
11
252.4095
21
122.7600
31
0
0
LINE
8
VISIBLE
10
252.4095
20
122.7600
30
0
11
253.0405
21
124.6180
31
0
0
LINE
8
VISIBLE
10
253.0405
20
124.6180
30
0
11
253.4235
21
126.5420
31
0
0
LINE
8
VISIBLE
10
253.4235
20
126.5420
30
0
11
253.5515
21
128.5000
31
0
0
LINE
8
VISIBLE
10
253.5515
20
128.5000
30
0
11
253.4235
21
130.4580
31
0
0
LINE
8
VISIBLE
10
253.4235
20
130.4580
30
0
11
253.0405
21
132.3820
31
0
0
LINE
8
VISIBLE
10
253.0405
20
132.3820
30
0
11
252.4095
21
134.2400
31
0
0
LINE
8
VISIBLE
10
252.4095
20
134.2400
30
0
11
251.5415
21
136.0000
31
0
0
LINE
8
VISIBLE
10
251.5415
20
136.0000
30
0
11
250.4515
21
137.6310
31
0
0
LINE
8
VISIBLE
10
250.4515
20
137.6310
30
0
11
249.1585
21
139.1070
31
0
0
LINE
8
VISIBLE
10
249.1585
20
139.1070
30
0
11
247.6825
21
140.4000
31
0
0
LINE
8
VISIBLE
10
247.6825
20
140.4000
30
0
11
246.0515
21
141.4900
31
0
0
LINE
8
VISIBLE
10
246.0515
20
141.4900
30
0
11
244.2915
21
142.3580
31
0
0
LINE
8
VISIBLE
10
244.2915
20
142.3580
30
0
11
242.4335
21
142.9890
31
0
0
LINE
8
VISIBLE
10
242.4335
20
142.9890
30
0
11
240.5095
21
143.3720
31
0
0
LINE
8
VISIBLE
10
240.5095
20
143.3720
30
0
11
238.5515
21
143.5000
31
0
0
LINE
8
VISIBLE
10
238.5515
20
143.5000
30
0
11
68.4485
21
143.5000
31
0
0
LINE
8
VISIBLE
10
68.4485
20
143.5000
30
0
11
66.4905
21
143.3720
31
0
0
LINE
8
VISIBLE
10
66.4905
20
143.3720
30
0
11
64.5665
21
142.9890
31
0
0
LINE
8
VISIBLE
10
64.5665
20
142.9890
30
0
11
62.7085
21
142.3580
31
0
0
LINE
8
VISIBLE
10
62.7085
20
142.3580
30
0
11
60.9485
21
141.4900
31
0
0
LINE
8
VISIBLE
10
60.9485
20
141.4900
30
0
11
59.3175
21
140.4000
31
0
0
LINE
8
VISIBLE
10
59.3175
20
140.4000
30
0
11
57.8415
21
139.1070
31
0
0
LINE
8
VISIBLE
10
57.8415
20
139.1070
30
0
11
56.5485
21
137.6310
31
0
0
LINE
8
VISIBLE
10
56.5485
20
137.6310
30
0
11
55.4585
21
136.0000
31
0
0
LINE
8
VISIBLE
10
55.4585
20
136.0000
30
0
11
54.5905
21
134.2400
31
0
0
LINE
8
VISIBLE
10
54.5905
20
134.2400
30
0
11
53.9595
21
132.3820
31
0
0
LINE
8
VISIBLE
10
53.9595
20
132.3820
30
0
11
53.5765
21
130.4580
31
0
0
LINE
8
VISIBLE
10
53.5765
20
130.4580
30
0
11
53.4485
21
128.5000
31
0
0
LINE
8
VISIBLE
10
53.4485
20
128.5000
30
0
11
53.5765
21
126.5420
31
0
0
LINE
8
VISIBLE
10
53.5765
20
126.5420
30
0
11
53.9595
21
124.6180
31
0
0
LINE
8
VISIBLE
10
53.9595
20
124.6180
30
0
11
54.5905
21
122.7600
31
0
0
LINE
8
VISIBLE
10
54.5905
20
122.7600
30
0
11
55.4585
21
121.0000
31
0
0
LINE
8
VISIBLE
10
55.4585
20
121.0000
30
0
11
56.5485
21
119.3690
31
0
0
LINE
8
VISIBLE
10
56.5485
20
119.3690
30
0
11
57.8415
21
117.8930
31
0
0
LINE
8
VISIBLE
10
57.8415
20
117.8930
30
0
11
59.3175
21
116.6000
31
0
0
LINE
8
VISIBLE
10
59.3175
20
116.6000
30
0
11
60.9485
21
115.5100
31
0
0
LINE
8
VISIBLE
10
60.9485
20
115.5100
30
0
11
62.7085
21
114.6420
31
0
0
LINE
8
VISIBLE
10
62.7085
20
114.6420
30
0
11
64.5665
21
114.0110
31
0
0
LINE
8
VISIBLE
10
64.5665
20
114.0110
30
0
11
66.4905
21
113.6280
31
0
0
LINE
8
VISIBLE
10
66.4905
20
113.6280
30
0
11
68.4485
21
113.5000
31
0
0
CIRCLE
8
VISIBLE
10
133.4195
20
128.5000
30
0
40
4.2500
0
LINE
8
VISIBLE
10
65.9485
20
123.0000
30
0
11
70.9485
21
123.0000
31
0
0
LINE
8
VISIBLE
10
70.9485
20
123.0000
30
0
11
70.9485
21
123.0000
31
0
0
LINE
8
VISIBLE
10
70.9485
20
123.0000
30
0
11
72.3725
21
123.1870
31
0
0
LINE
8
VISIBLE
10
72.3725
20
123.1870
30
0
11
73.6985
21
123.7370
31
0
0
LINE
8
VISIBLE
10
73.6985
20
123.7370
30
0
11
74.8375
21
124.6110
31
0
0
LINE
8
VISIBLE
10
74.8375
20
124.6110
30
0
11
75.7115
21
125.7500
31
0
0
LINE
8
VISIBLE
10
75.7115
20
125.7500
30
0
11
76.2615
21
127.0760
31
0
0
LINE
8
VISIBLE
10
76.2615
20
127.0760
30
0
11
76.4485
21
128.5000
31
0
0
LINE
8
VISIBLE
10
76.4485
20
128.5000
30
0
11
76.2615
21
129.9240
31
0
0
LINE
8
VISIBLE
10
76.2615
20
129.9240
30
0
11
75.7115
21
131.2500
31
0
0
LINE
8
VISIBLE
10
75.7115
20
131.2500
30
0
11
74.8375
21
132.3890
31
0
0
LINE
8
VISIBLE
10
74.8375
20
132.3890
30
0
11
73.6985
21
133.2630
31
0
0
LINE
8
VISIBLE
10
73.6985
20
133.2630
30
0
11
72.3725
21
133.8130
31
0
0
LINE
8
VISIBLE
10
72.3725
20
133.8130
30
0
11
70.9485
21
134.0000
31
0
0
LINE
8
VISIBLE
10
70.9485
20
134.0000
30
0
11
65.9485
21
134.0000
31
0
0
LINE
8
VISIBLE
10
65.9485
20
134.0000
30
0
11
65.9485
21
134.0000
31
0
0
LINE
8
VISIBLE
10
65.9485
20
134.0000
30
0
11
64.5245
21
133.8130
31
0
0
LINE
8
VISIBLE
10
64.5245
20
133.8130
30
0
11
63.1985
21
133.2630
31
0
0
LINE
8
VISIBLE
10
63.1985
20
133.2630
30
0
11
62.0595
21
132.3890
31
0
0
LINE
8
VISIBLE
10
62.0595
20
132.3890
30
0
11
61.1855
21
131.2500
31
0
0
LINE
8
VISIBLE
10
61.1855
20
131.2500
30
0
11
60.6355
21
129.9240
31
0
0
LINE
8
VISIBLE
10
60.6355
20
129.9240
30
0
11
60.4485
21
128.5000
31
0
0
LINE
8
VISIBLE
10
60.4485
20
128.5000
30
0
11
60.6355
21
127.0760
31
0
0
LINE
8
VISIBLE
10
60.6355
20
127.0760
30
0
11
61.1855
21
125.7500
31
0
0
LINE
8
VISIBLE
10
61.1855
20
125.7500
30
0
11
62.0595
21
124.6110
31
0
0
LINE
8
VISIBLE
10
62.0595
20
124.6110
30
0
11
63.1985
21
123.7370
31
0
0
LINE
8
VISIBLE
10
63.1985
20
123.7370
30
0
11
64.5245
21
123.1870
31
0
0
LINE
8
VISIBLE
10
64.5245
20
123.1870
30
0
11
65.9485
21
123.0000
31
0
0
LINE
8
VISIBLE
10
236.0515
20
123.0000
30
0
11
241.0515
21
123.0000
31
0
0
LINE
8
VISIBLE
10
241.0515
20
123.0000
30
0
11
241.0515
21
123.0000
31
0
0
LINE
8
VISIBLE
10
241.0515
20
123.0000
30
0
11
242.4755
21
123.1870
31
0
0
LINE
8
VISIBLE
10
242.4755
20
123.1870
30
0
11
243.8015
21
123.7370
31
0
0
LINE
8
VISIBLE
10
243.8015
20
123.7370
30
0
11
244.9405
21
124.6110
31
0
0
LINE
8
VISIBLE
10
244.9405
20
124.6110
30
0
11
245.8145
21
125.7500
31
0
0
LINE
8
VISIBLE
10
245.8145
20
125.7500
30
0
11
246.3645
21
127.0760
31
0
0
LINE
8
VISIBLE
10
246.3645
20
127.0760
30
0
11
246.5515
21
128.5000
31
0
0
LINE
8
VISIBLE
10
246.5515
20
128.5000
30
0
11
246.3645
21
129.9240
31
0
0
LINE
8
VISIBLE
10
246.3645
20
129.9240
30
0
11
245.8145
21
131.2500
31
0
0
LINE
8
VISIBLE
10
245.8145
20
131.2500
30
0
11
244.9405
21
132.3890
31
0
0
LINE
8
VISIBLE
10
244.9405
20
132.3890
30
0
11
243.8015
21
133.2630
31
0
0
LINE
8
VISIBLE
10
243.8015
20
133.2630
30
0
11
242.4755
21
133.8130
31
0
0
LINE
8
VISIBLE
10
242.4755
20
133.8130
30
0
11
241.0515
21
134.0000
31
0
0
LINE
8
VISIBLE
10
241.0515
20
134.0000
30
0
11
236.0515
21
134.0000
31
0
0
LINE
8
VISIBLE
10
236.0515
20
134.0000
30
0
11
236.0515
21
134.0000
31
0
0
LINE
8
VISIBLE
10
236.0515
20
134.0000
30
0
11
234.6275
21
133.8130
31
0
0
LINE
8
VISIBLE
10
234.6275
20
133.8130
30
0
11
233.3015
21
133.2630
31
0
0
LINE
8
VISIBLE
10
233.3015
20
133.2630
30
0
11
232.1625
21
132.3890
31
0
0
LINE
8
VISIBLE
10
232.1625
20
132.3890
30
0
11
231.2885
21
131.2500
31
0
0
LINE
8
VISIBLE
10
231.2885
20
131.2500
30
0
11
230.7385
21
129.9240
31
0
0
LINE
8
VISIBLE
10
230.7385
20
129.9240
30
0
11
230.5515
21
128.5000
31
0
0
LINE
8
VISIBLE
10
230.5515
20
128.5000
30
0
11
230.7385
21
127.0760
31
0
0
LINE
8
VISIBLE
10
230.7385
20
127.0760
30
0
11
231.2885
21
125.7500
31
0
0
LINE
8
VISIBLE
10
231.2885
20
125.7500
30
0
11
232.1625
21
124.6110
31
0
0
LINE
8
VISIBLE
10
232.1625
20
124.6110
30
0
11
233.3015
21
123.7370
31
0
0
LINE
8
VISIBLE
10
233.3015
20
123.7370
30
0
11
234.6275
21
123.1870
31
0
0
LINE
8
VISIBLE
10
234.6275
20
123.1870
30
0
11
236.0515
21
123.0000
31
0
0
TEXT
8
TEXTO
10
53.4485
20
107.5000
30
0
40
3.2000
1
BARRENOS: 1× · Ø 8.5 mm (corte láser)
0
LINE
8
FINA
10
82.4485
20
113.5000
30
0
11
82.4485
21
143.5000
31
0
0
LINE
8
PLIEGUE
10
86.9725
20
113.5000
30
0
11
86.9725
21
143.5000
31
0
0
LINE
8
FINA
10
91.4965
20
113.5000
30
0
11
91.4965
21
143.5000
31
0
0
LINE
8
FINA
10
113.3395
20
113.5000
30
0
11
113.3395
21
143.5000
31
0
0
LINE
8
PLIEGUE
10
115.6015
20
113.5000
30
0
11
115.6015
21
143.5000
31
0
0
LINE
8
FINA
10
117.8635
20
113.5000
30
0
11
117.8635
21
143.5000
31
0
0
LINE
8
FINA
10
148.9765
20
113.5000
30
0
11
148.9765
21
143.5000
31
0
0
LINE
8
PLIEGUE
10
153.4995
20
113.5000
30
0
11
153.4995
21
143.5000
31
0
0
LINE
8
FINA
10
158.0235
20
113.5000
30
0
11
158.0235
21
143.5000
31
0
0
LINE
8
FINA
10
189.1365
20
113.5000
30
0
11
189.1365
21
143.5000
31
0
0
LINE
8
PLIEGUE
10
191.3985
20
113.5000
30
0
11
191.3985
21
143.5000
31
0
0
LINE
8
FINA
10
193.6605
20
113.5000
30
0
11
193.6605
21
143.5000
31
0
0
LINE
8
FINA
10
215.5035
20
113.5000
30
0
11
215.5035
21
143.5000
31
0
0
LINE
8
PLIEGUE
10
220.0275
20
113.5000
30
0
11
220.0275
21
143.5000
31
0
0
LINE
8
FINA
10
224.5515
20
113.5000
30
0
11
224.5515
21
143.5000
31
0
0
TEXT
8
TEXTO
10
86.9725
20
144.7000
30
0
40
2.5000
1
P1 90° ABAJO
72
1
73
2
11
86.9725
21
144.7000
31
0
0
TEXT
8
TEXTO
10
115.6015
20
144.7000
30
0
40
2.5000
1
P2 45° ARRIBA
72
1
73
2
11
115.6015
21
144.7000
31
0
0
TEXT
8
TEXTO
10
153.4995
20
144.7000
30
0
40
2.5000
1
P3 90° ARRIBA (ÁPICE)
72
1
73
2
11
153.4995
21
144.7000
31
0
0
TEXT
8
TEXTO
10
191.3985
20
144.7000
30
0
40
2.5000
1
P4 45° ARRIBA
72
1
73
2
11
191.3985
21
144.7000
31
0
0
TEXT
8
TEXTO
10
220.0275
20
144.7000
30
0
40
2.5000
1
P5 90° ABAJO
72
1
73
2
11
220.0275
21
144.7000
31
0
0
TEXT
8
TEXTO
10
153.4995
20
97.5000
30
0
40
2.5000
1
SECUENCIA: P3 (ápice) > P2·P4 (45°) > P1·P5 (orejas) · CARA DEL ASIENTO HACIA ARRIBA
72
1
73
2
11
153.4995
21
97.5000
31
0
0
LINE
8
COTAS
10
53.4485
20
112.5000
30
0
11
53.4485
21
103.0000
31
0
0
LINE
8
COTAS
10
253.5515
20
112.5000
30
0
11
253.5515
21
103.0000
31
0
0
LINE
8
COTAS
10
53.4485
20
104.5000
30
0
11
253.5515
21
104.5000
31
0
0
SOLID
8
COTAS
10
53.4485
20
104.5000
30
0
11
55.9485
21
104.9500
31
0
12
55.9485
22
104.0500
32
0
13
55.9485
23
104.0500
33
0
0
SOLID
8
COTAS
10
253.5515
20
104.5000
30
0
11
251.0515
21
104.9500
31
0
12
251.0515
22
104.0500
32
0
13
251.0515
23
104.0500
33
0
0
TEXT
8
COTAS
10
153.5000
20
106.7000
30
0
40
3.5000
1
200.1
72
1
73
2
11
153.5000
21
106.7000
31
0
0
LINE
8
COTAS
10
254.5515
20
113.5000
30
0
11
264.0515
21
113.5000
31
0
0
LINE
8
COTAS
10
254.5515
20
143.5000
30
0
11
264.0515
21
143.5000
31
0
0
LINE
8
COTAS
10
262.5515
20
113.5000
30
0
11
262.5515
21
143.5000
31
0
0
SOLID
8
COTAS
10
262.5515
20
113.5000
30
0
11
263.0015
21
116.0000
31
0
12
262.1015
22
116.0000
32
0
13
262.1015
23
116.0000
33
0
0
SOLID
8
COTAS
10
262.5515
20
143.5000
30
0
11
263.0015
21
141.0000
31
0
12
262.1015
22
141.0000
32
0
13
262.1015
23
141.0000
33
0
0
TEXT
8
COTAS
10
264.7515
20
128.5000
30
0
40
3.5000
1
30
72
1
73
2
11
264.7515
21
128.5000
31
0
0
TEXT
8
TEXTO
10
53.4485
20
154.0000
30
0
40
3.5000
1
DESARROLLO DE CHAPA — BA = ang·(R + K·t), fibra neutra por factor K
0
TEXT
8
TEXTO
10
53.4485
20
148.5000
30
0
40
4.0000
1
ESPESOR DE CHAPA e = 4 mm (constante en toda la pieza)
0
LINE
8
FINA
10
0.0000
20
0.0000
30
0
11
297.0000
21
0.0000
31
0
0
LINE
8
FINA
10
297.0000
20
0.0000
30
0
11
297.0000
21
210.0000
31
0
0
LINE
8
FINA
10
297.0000
20
210.0000
30
0
11
0.0000
21
210.0000
31
0
0
LINE
8
FINA
10
0.0000
20
210.0000
30
0
11
0.0000
21
0.0000
31
0
0
LINE
8
NORMA
10
20.0000
20
10.0000
30
0
11
287.0000
21
10.0000
31
0
0
LINE
8
NORMA
10
287.0000
20
10.0000
30
0
11
287.0000
21
200.0000
31
0
0
LINE
8
NORMA
10
287.0000
20
200.0000
30
0
11
20.0000
21
200.0000
31
0
0
LINE
8
NORMA
10
20.0000
20
200.0000
30
0
11
20.0000
21
10.0000
31
0
0
LINE
8
NORMA
10
0.0000
20
105.0000
30
0
11
25.0000
21
105.0000
31
0
0
LINE
8
NORMA
10
297.0000
20
105.0000
30
0
11
282.0000
21
105.0000
31
0
0
LINE
8
NORMA
10
148.5000
20
0.0000
30
0
11
148.5000
21
15.0000
31
0
0
LINE
8
NORMA
10
148.5000
20
210.0000
30
0
11
148.5000
21
195.0000
31
0
0
LINE
8
FINA
10
49.5000
20
0.0000
30
0
11
49.5000
21
10.0000
31
0
0
LINE
8
FINA
10
49.5000
20
200.0000
30
0
11
49.5000
21
210.0000
31
0
0
LINE
8
FINA
10
99.0000
20
0.0000
30
0
11
99.0000
21
10.0000
31
0
0
LINE
8
FINA
10
99.0000
20
200.0000
30
0
11
99.0000
21
210.0000
31
0
0
LINE
8
FINA
10
148.5000
20
0.0000
30
0
11
148.5000
21
10.0000
31
0
0
LINE
8
FINA
10
148.5000
20
200.0000
30
0
11
148.5000
21
210.0000
31
0
0
LINE
8
FINA
10
198.0000
20
0.0000
30
0
11
198.0000
21
10.0000
31
0
0
LINE
8
FINA
10
198.0000
20
200.0000
30
0
11
198.0000
21
210.0000
31
0
0
LINE
8
FINA
10
247.5000
20
0.0000
30
0
11
247.5000
21
10.0000
31
0
0
LINE
8
FINA
10
247.5000
20
200.0000
30
0
11
247.5000
21
210.0000
31
0
0
LINE
8
FINA
10
0.0000
20
52.5000
30
0
11
10.0000
21
52.5000
31
0
0
LINE
8
FINA
10
287.0000
20
52.5000
30
0
11
297.0000
21
52.5000
31
0
0
LINE
8
FINA
10
0.0000
20
105.0000
30
0
11
10.0000
21
105.0000
31
0
0
LINE
8
FINA
10
287.0000
20
105.0000
30
0
11
297.0000
21
105.0000
31
0
0
LINE
8
FINA
10
0.0000
20
157.5000
30
0
11
10.0000
21
157.5000
31
0
0
LINE
8
FINA
10
287.0000
20
157.5000
30
0
11
297.0000
21
157.5000
31
0
0
TEXT
8
TEXTO
10
24.7500
20
5.0000
30
0
40
2.5000
1
1
72
1
73
2
11
24.7500
21
5.0000
31
0
0
TEXT
8
TEXTO
10
24.7500
20
205.0000
30
0
40
2.5000
1
1
72
1
73
2
11
24.7500
21
205.0000
31
0
0
TEXT
8
TEXTO
10
74.2500
20
5.0000
30
0
40
2.5000
1
2
72
1
73
2
11
74.2500
21
5.0000
31
0
0
TEXT
8
TEXTO
10
74.2500
20
205.0000
30
0
40
2.5000
1
2
72
1
73
2
11
74.2500
21
205.0000
31
0
0
TEXT
8
TEXTO
10
123.7500
20
5.0000
30
0
40
2.5000
1
3
72
1
73
2
11
123.7500
21
5.0000
31
0
0
TEXT
8
TEXTO
10
123.7500
20
205.0000
30
0
40
2.5000
1
3
72
1
73
2
11
123.7500
21
205.0000
31
0
0
TEXT
8
TEXTO
10
173.2500
20
5.0000
30
0
40
2.5000
1
4
72
1
73
2
11
173.2500
21
5.0000
31
0
0
TEXT
8
TEXTO
10
173.2500
20
205.0000
30
0
40
2.5000
1
4
72
1
73
2
11
173.2500
21
205.0000
31
0
0
TEXT
8
TEXTO
10
222.7500
20
5.0000
30
0
40
2.5000
1
5
72
1
73
2
11
222.7500
21
5.0000
31
0
0
TEXT
8
TEXTO
10
222.7500
20
205.0000
30
0
40
2.5000
1
5
72
1
73
2
11
222.7500
21
205.0000
31
0
0
TEXT
8
TEXTO
10
272.2500
20
5.0000
30
0
40
2.5000
1
6
72
1
73
2
11
272.2500
21
5.0000
31
0
0
TEXT
8
TEXTO
10
272.2500
20
205.0000
30
0
40
2.5000
1
6
72
1
73
2
11
272.2500
21
205.0000
31
0
0
TEXT
8
TEXTO
10
5.0000
20
183.7500
30
0
40
2.5000
1
A
72
1
73
2
11
5.0000
21
183.7500
31
0
0
TEXT
8
TEXTO
10
292.0000
20
183.7500
30
0
40
2.5000
1
A
72
1
73
2
11
292.0000
21
183.7500
31
0
0
TEXT
8
TEXTO
10
5.0000
20
131.2500
30
0
40
2.5000
1
B
72
1
73
2
11
5.0000
21
131.2500
31
0
0
TEXT
8
TEXTO
10
292.0000
20
131.2500
30
0
40
2.5000
1
B
72
1
73
2
11
292.0000
21
131.2500
31
0
0
TEXT
8
TEXTO
10
5.0000
20
78.7500
30
0
40
2.5000
1
C
72
1
73
2
11
5.0000
21
78.7500
31
0
0
TEXT
8
TEXTO
10
292.0000
20
78.7500
30
0
40
2.5000
1
C
72
1
73
2
11
292.0000
21
78.7500
31
0
0
TEXT
8
TEXTO
10
5.0000
20
26.2500
30
0
40
2.5000
1
D
72
1
73
2
11
5.0000
21
26.2500
31
0
0
TEXT
8
TEXTO
10
292.0000
20
26.2500
30
0
40
2.5000
1
D
72
1
73
2
11
292.0000
21
26.2500
31
0
0
LINE
8
NORMA
10
107.0000
20
10.0000
30
0
11
287.0000
21
10.0000
31
0
0
LINE
8
NORMA
10
287.0000
20
10.0000
30
0
11
287.0000
21
52.0000
31
0
0
LINE
8
NORMA
10
287.0000
20
52.0000
30
0
11
107.0000
21
52.0000
31
0
0
LINE
8
NORMA
10
107.0000
20
52.0000
30
0
11
107.0000
21
10.0000
31
0
0
LINE
8
NORMA
10
147.0000
20
10.0000
30
0
11
147.0000
21
52.0000
31
0
0
LINE
8
NORMA
10
241.0000
20
10.0000
30
0
11
241.0000
21
52.0000
31
0
0
LINE
8
FINA
10
107.0000
20
29.0000
30
0
11
147.0000
21
29.0000
31
0
0
TEXT
8
TEXTO
10
127.0000
20
43.8000
30
0
40
6.0000
1
foto3d
72
1
73
2
11
127.0000
21
43.8000
31
0
0
LINE
8
FINA
10
113.5000
20
38.6000
30
0
11
140.5000
21
38.6000
31
0
0
TEXT
8
TEXTO
10
127.0000
20
35.8000
30
0
40
1.3000
1
CAD · DISEÑO CAPA USER
72
1
73
2
11
127.0000
21
35.8000
31
0
0
TEXT
8
TEXTO
10
127.0000
20
32.6000
30
0
40
1.3000
1
ISO 5457 · 7200 · 129 · 5456-2
72
1
73
2
11
127.0000
21
32.6000
31
0
0
TEXT
8
TEXTO
10
127.0000
20
26.6000
30
0
40
1.4000
1
PROYECCIÓN — PRIMER DIEDRO
72
1
73
2
11
127.0000
21
26.6000
31
0
0
CIRCLE
8
TEXTO
10
122.4000
20
17.5000
30
0
40
2.9900
0
CIRCLE
8
TEXTO
10
122.4000
20
17.5000
30
0
40
1.6100
0
LINE
8
TEXTO
10
127.4600
20
14.5100
30
0
11
134.5900
21
15.8900
31
0
0
LINE
8
TEXTO
10
134.5900
20
15.8900
30
0
11
134.5900
21
19.1100
31
0
0
LINE
8
TEXTO
10
134.5900
20
19.1100
30
0
11
127.4600
21
20.4900
31
0
0
LINE
8
TEXTO
10
127.4600
20
20.4900
30
0
11
127.4600
21
14.5100
31
0
0
LINE
8
FINA
10
118.0300
20
17.5000
30
0
11
135.9700
21
17.5000
31
0
0
LINE
8
FINA
10
147.0000
20
39.0000
30
0
11
241.0000
21
39.0000
31
0
0
LINE
8
FINA
10
147.0000
20
29.0000
30
0
11
241.0000
21
29.0000
31
0
0
LINE
8
FINA
10
147.0000
20
19.0000
30
0
11
241.0000
21
19.0000
31
0
0
LINE
8
FINA
10
194.0000
20
29.0000
30
0
11
194.0000
21
39.0000
31
0
0
LINE
8
FINA
10
203.0000
20
19.0000
30
0
11
203.0000
21
29.0000
31
0
0
TEXT
8
TEXTO
10
148.3000
20
49.6000
30
0
40
1.4000
1
DESIGNACIÓN
0
TEXT
8
TEXTO
10
148.6000
20
44.1000
30
0
40
3.1053
1
HGD-02 · RC-48V retenedor asiento en V (x12) — DESARROL…
72
0
73
2
11
148.6000
21
44.1000
31
0
0
TEXT
8
TEXTO
10
148.3000
20
36.6000
30
0
40
1.4000
1
PROYECTO
0
TEXT
8
TEXTO
10
148.6000
20
32.6000
30
0
40
2.0000
1
CV-HGR-190E24 · kit colgante Hytrol 190-E24 …
72
0
73
2
11
148.6000
21
32.6000
31
0
0
TEXT
8
TEXTO
10
195.3000
20
36.6000
30
0
40
1.4000
1
FUENTE
0
TEXT
8
TEXTO
10
195.6000
20
32.6000
30
0
40
2.4000
1
chapa plegada — capa user
72
0
73
2
11
195.6000
21
32.6000
31
0
0
TEXT
8
TEXTO
10
148.3000
20
26.6000
30
0
40
1.4000
1
VERIFICACIÓN DE ESCALA
0
TEXT
8
TEXTO
10
148.6000
20
22.6000
30
0
40
2.4000
1
CAD EN MM (CAPA USER)
72
0
73
2
11
148.6000
21
22.6000
31
0
0
TEXT
8
TEXTO
10
204.3000
20
26.6000
30
0
40
1.4000
1
PLIEGUES
0
TEXT
8
TEXTO
10
204.6000
20
22.6000
30
0
40
2.6000
1
5
72
0
73
2
11
204.6000
21
22.6000
31
0
0
TEXT
8
TEXTO
10
148.3000
20
16.6000
30
0
40
1.4000
1
NOTA
0
TEXT
8
TEXTO
10
148.6000
20
13.1000
30
0
40
2.2000
1
Acero ASTM A36 — chapa 4 mm (corte láser) · e4 · tol. gral. ISO 2768-mK · K=0.44
72
0
73
2
11
148.6000
21
13.1000
31
0
0
LINE
8
FINA
10
241.0000
20
39.0000
30
0
11
287.0000
21
39.0000
31
0
0
LINE
8
FINA
10
241.0000
20
29.0000
30
0
11
287.0000
21
29.0000
31
0
0
LINE
8
FINA
10
241.0000
20
19.0000
30
0
11
287.0000
21
19.0000
31
0
0
LINE
8
FINA
10
264.0000
20
29.0000
30
0
11
264.0000
21
39.0000
31
0
0
LINE
8
FINA
10
267.0000
20
19.0000
30
0
11
267.0000
21
29.0000
31
0
0
TEXT
8
TEXTO
10
242.3000
20
49.6000
30
0
40
1.4000
1
ESCALA
0
TEXT
8
TEXTO
10
264.0000
20
44.1000
30
0
40
5.0000
1
1:1
72
1
73
2
11
264.0000
21
44.1000
31
0
0
TEXT
8
TEXTO
10
242.3000
20
36.6000
30
0
40
1.4000
1
FORMATO
0
TEXT
8
TEXTO
10
252.5000
20
32.6000
30
0
40
3.0000
1
A4
72
1
73
2
11
252.5000
21
32.6000
31
0
0
TEXT
8
TEXTO
10
265.3000
20
36.6000
30
0
40
1.4000
1
LÁMINA
0
TEXT
8
TEXTO
10
275.5000
20
32.6000
30
0
40
3.0000
1
1 / 1
72
1
73
2
11
275.5000
21
32.6000
31
0
0
TEXT
8
TEXTO
10
242.3000
20
26.6000
30
0
40
1.4000
1
FECHA
0
TEXT
8
TEXTO
10
254.0000
20
22.6000
30
0
40
2.6000
1
2026-08-18
72
1
73
2
11
254.0000
21
22.6000
31
0
0
TEXT
8
TEXTO
10
268.3000
20
26.6000
30
0
40
1.4000
1
UNIDADES
0
TEXT
8
TEXTO
10
277.0000
20
22.6000
30
0
40
3.0000
1
mm
72
1
73
2
11
277.0000
21
22.6000
31
0
0
TEXT
8
TEXTO
10
242.3000
20
16.6000
30
0
40
1.4000
1
Nº DE PLANO
0
TEXT
8
TEXTO
10
264.0000
20
13.1000
30
0
40
2.6000
1
HGD-02
72
1
73
2
11
264.0000
21
13.1000
31
0
0
ENDSEC
0
EOF
