0
SECTION
2
HEADER
9
$ACADVER
1
AC1009
9
$DWGCODEPAGE
3
ANSI_1252
0
ENDSEC
0
SECTION
2
TABLES
0
TABLE
2
LTYPE
70
2
0
LTYPE
2
CONTINUOUS
70
0
3
Solid line
72
65
73
0
40
0
0
LTYPE
2
DASHED
70
0
3
Segmentada __ __ __
72
65
73
2
40
6
49
4
49
-2
0
ENDTAB
0
TABLE
2
LAYER
70
6
0
LAYER
2
NORMA
70
0
62
7
6
CONTINUOUS
0
LAYER
2
FINA
70
0
62
7
6
CONTINUOUS
0
LAYER
2
VISIBLE
70
0
62
7
6
CONTINUOUS
0
LAYER
2
COTAS
70
0
62
7
6
CONTINUOUS
0
LAYER
2
TEXTO
70
0
62
7
6
CONTINUOUS
0
LAYER
2
PLIEGUE
70
0
62
1
6
DASHED
0
ENDTAB
0
ENDSEC
0
SECTION
2
ENTITIES
0
LINE
8
VISIBLE
10
113.6730
20
97.0000
30
0
11
316.3270
21
97.0000
31
0
0
LINE
8
VISIBLE
10
316.3270
20
97.0000
30
0
11
316.3270
21
97.0000
31
0
0
LINE
8
VISIBLE
10
316.3270
20
97.0000
30
0
11
365.3748
21
97.0000
31
0
0
LINE
8
VISIBLE
10
365.3748
20
97.0000
30
0
11
365.3748
21
247.0000
31
0
0
LINE
8
VISIBLE
10
365.3748
20
247.0000
30
0
11
316.3270
21
247.0000
31
0
0
LINE
8
VISIBLE
10
316.3270
20
247.0000
30
0
11
316.3270
21
247.0000
31
0
0
LINE
8
VISIBLE
10
316.3270
20
247.0000
30
0
11
113.6730
21
247.0000
31
0
0
LINE
8
VISIBLE
10
113.6730
20
247.0000
30
0
11
113.6730
21
247.0000
31
0
0
LINE
8
VISIBLE
10
113.6730
20
247.0000
30
0
11
64.6252
21
247.0000
31
0
0
LINE
8
VISIBLE
10
64.6252
20
247.0000
30
0
11
64.6252
21
97.0000
31
0
0
LINE
8
VISIBLE
10
64.6252
20
97.0000
30
0
11
113.6730
21
97.0000
31
0
0
LINE
8
VISIBLE
10
113.6730
20
97.0000
30
0
11
113.6730
21
97.0000
31
0
0
LINE
8
FINA
10
316.3270
20
97.0000
30
0
11
316.3270
21
247.0000
31
0
0
LINE
8
FINA
10
325.3748
20
97.0000
30
0
11
325.3748
21
247.0000
31
0
0
LINE
8
PLIEGUE
10
320.8509
20
97.0000
30
0
11
320.8509
21
247.0000
31
0
0
LINE
8
FINA
10
113.6730
20
247.0000
30
0
11
113.6730
21
97.0000
31
0
0
LINE
8
FINA
10
104.6252
20
247.0000
30
0
11
104.6252
21
97.0000
31
0
0
LINE
8
PLIEGUE
10
109.1491
20
247.0000
30
0
11
109.1491
21
97.0000
31
0
0
TEXT
8
TEXTO
10
327.8748
20
172.0000
30
0
40
2.5000
1
PLEGAR ARRIBA 90° R4
72
1
73
2
11
327.8748
21
172.0000
31
0
0
TEXT
8
TEXTO
10
102.1252
20
172.0000
30
0
40
2.5000
1
PLEGAR ARRIBA 90° R4
72
1
73
2
11
102.1252
21
172.0000
31
0
0
LINE
8
COTAS
10
64.6252
20
96.0000
30
0
11
64.6252
21
86.5000
31
0
0
LINE
8
COTAS
10
365.3748
20
96.0000
30
0
11
365.3748
21
86.5000
31
0
0
LINE
8
COTAS
10
64.6252
20
88.0000
30
0
11
365.3748
21
88.0000
31
0
0
SOLID
8
COTAS
10
64.6252
20
88.0000
30
0
11
67.1252
21
88.4500
31
0
12
67.1252
22
87.5500
32
0
13
67.1252
23
87.5500
33
0
0
SOLID
8
COTAS
10
365.3748
20
88.0000
30
0
11
362.8748
21
88.4500
31
0
12
362.8748
22
87.5500
32
0
13
362.8748
23
87.5500
33
0
0
TEXT
8
COTAS
10
215.0000
20
90.2000
30
0
40
3.5000
1
300.7
72
1
73
2
11
215.0000
21
90.2000
31
0
0
LINE
8
COTAS
10
366.3748
20
97.0000
30
0
11
375.8748
21
97.0000
31
0
0
LINE
8
COTAS
10
366.3748
20
247.0000
30
0
11
375.8748
21
247.0000
31
0
0
LINE
8
COTAS
10
374.3748
20
97.0000
30
0
11
374.3748
21
247.0000
31
0
0
SOLID
8
COTAS
10
374.3748
20
97.0000
30
0
11
374.8248
21
99.5000
31
0
12
373.9248
22
99.5000
32
0
13
373.9248
23
99.5000
33
0
0
SOLID
8
COTAS
10
374.3748
20
247.0000
30
0
11
374.8248
21
244.5000
31
0
12
373.9248
22
244.5000
32
0
13
373.9248
23
244.5000
33
0
0
TEXT
8
COTAS
10
376.5748
20
172.0000
30
0
40
3.5000
1
150
72
1
73
2
11
376.5748
21
172.0000
31
0
0
TEXT
8
TEXTO
10
64.6252
20
257.5000
30
0
40
3.5000
1
DESARROLLO DE CHAPA — BA = ang·(R + K·t), fibra neutra por factor K
0
TEXT
8
TEXTO
10
64.6252
20
252.0000
30
0
40
4.0000
1
ESPESOR DE CHAPA e = 4 mm (constante en toda la pieza)
0
LINE
8
FINA
10
0.0000
20
0.0000
30
0
11
420.0000
21
0.0000
31
0
0
LINE
8
FINA
10
420.0000
20
0.0000
30
0
11
420.0000
21
297.0000
31
0
0
LINE
8
FINA
10
420.0000
20
297.0000
30
0
11
0.0000
21
297.0000
31
0
0
LINE
8
FINA
10
0.0000
20
297.0000
30
0
11
0.0000
21
0.0000
31
0
0
LINE
8
NORMA
10
20.0000
20
10.0000
30
0
11
410.0000
21
10.0000
31
0
0
LINE
8
NORMA
10
410.0000
20
10.0000
30
0
11
410.0000
21
287.0000
31
0
0
LINE
8
NORMA
10
410.0000
20
287.0000
30
0
11
20.0000
21
287.0000
31
0
0
LINE
8
NORMA
10
20.0000
20
287.0000
30
0
11
20.0000
21
10.0000
31
0
0
LINE
8
NORMA
10
0.0000
20
148.5000
30
0
11
25.0000
21
148.5000
31
0
0
LINE
8
NORMA
10
420.0000
20
148.5000
30
0
11
405.0000
21
148.5000
31
0
0
LINE
8
NORMA
10
210.0000
20
0.0000
30
0
11
210.0000
21
15.0000
31
0
0
LINE
8
NORMA
10
210.0000
20
297.0000
30
0
11
210.0000
21
282.0000
31
0
0
LINE
8
FINA
10
52.5000
20
0.0000
30
0
11
52.5000
21
10.0000
31
0
0
LINE
8
FINA
10
52.5000
20
287.0000
30
0
11
52.5000
21
297.0000
31
0
0
LINE
8
FINA
10
105.0000
20
0.0000
30
0
11
105.0000
21
10.0000
31
0
0
LINE
8
FINA
10
105.0000
20
287.0000
30
0
11
105.0000
21
297.0000
31
0
0
LINE
8
FINA
10
157.5000
20
0.0000
30
0
11
157.5000
21
10.0000
31
0
0
LINE
8
FINA
10
157.5000
20
287.0000
30
0
11
157.5000
21
297.0000
31
0
0
LINE
8
FINA
10
210.0000
20
0.0000
30
0
11
210.0000
21
10.0000
31
0
0
LINE
8
FINA
10
210.0000
20
287.0000
30
0
11
210.0000
21
297.0000
31
0
0
LINE
8
FINA
10
262.5000
20
0.0000
30
0
11
262.5000
21
10.0000
31
0
0
LINE
8
FINA
10
262.5000
20
287.0000
30
0
11
262.5000
21
297.0000
31
0
0
LINE
8
FINA
10
315.0000
20
0.0000
30
0
11
315.0000
21
10.0000
31
0
0
LINE
8
FINA
10
315.0000
20
287.0000
30
0
11
315.0000
21
297.0000
31
0
0
LINE
8
FINA
10
367.5000
20
0.0000
30
0
11
367.5000
21
10.0000
31
0
0
LINE
8
FINA
10
367.5000
20
287.0000
30
0
11
367.5000
21
297.0000
31
0
0
LINE
8
FINA
10
0.0000
20
49.5000
30
0
11
10.0000
21
49.5000
31
0
0
LINE
8
FINA
10
410.0000
20
49.5000
30
0
11
420.0000
21
49.5000
31
0
0
LINE
8
FINA
10
0.0000
20
99.0000
30
0
11
10.0000
21
99.0000
31
0
0
LINE
8
FINA
10
410.0000
20
99.0000
30
0
11
420.0000
21
99.0000
31
0
0
LINE
8
FINA
10
0.0000
20
148.5000
30
0
11
10.0000
21
148.5000
31
0
0
LINE
8
FINA
10
410.0000
20
148.5000
30
0
11
420.0000
21
148.5000
31
0
0
LINE
8
FINA
10
0.0000
20
198.0000
30
0
11
10.0000
21
198.0000
31
0
0
LINE
8
FINA
10
410.0000
20
198.0000
30
0
11
420.0000
21
198.0000
31
0
0
LINE
8
FINA
10
0.0000
20
247.5000
30
0
11
10.0000
21
247.5000
31
0
0
LINE
8
FINA
10
410.0000
20
247.5000
30
0
11
420.0000
21
247.5000
31
0
0
TEXT
8
TEXTO
10
26.2500
20
5.0000
30
0
40
2.5000
1
1
72
1
73
2
11
26.2500
21
5.0000
31
0
0
TEXT
8
TEXTO
10
26.2500
20
292.0000
30
0
40
2.5000
1
1
72
1
73
2
11
26.2500
21
292.0000
31
0
0
TEXT
8
TEXTO
10
78.7500
20
5.0000
30
0
40
2.5000
1
2
72
1
73
2
11
78.7500
21
5.0000
31
0
0
TEXT
8
TEXTO
10
78.7500
20
292.0000
30
0
40
2.5000
1
2
72
1
73
2
11
78.7500
21
292.0000
31
0
0
TEXT
8
TEXTO
10
131.2500
20
5.0000
30
0
40
2.5000
1
3
72
1
73
2
11
131.2500
21
5.0000
31
0
0
TEXT
8
TEXTO
10
131.2500
20
292.0000
30
0
40
2.5000
1
3
72
1
73
2
11
131.2500
21
292.0000
31
0
0
TEXT
8
TEXTO
10
183.7500
20
5.0000
30
0
40
2.5000
1
4
72
1
73
2
11
183.7500
21
5.0000
31
0
0
TEXT
8
TEXTO
10
183.7500
20
292.0000
30
0
40
2.5000
1
4
72
1
73
2
11
183.7500
21
292.0000
31
0
0
TEXT
8
TEXTO
10
236.2500
20
5.0000
30
0
40
2.5000
1
5
72
1
73
2
11
236.2500
21
5.0000
31
0
0
TEXT
8
TEXTO
10
236.2500
20
292.0000
30
0
40
2.5000
1
5
72
1
73
2
11
236.2500
21
292.0000
31
0
0
TEXT
8
TEXTO
10
288.7500
20
5.0000
30
0
40
2.5000
1
6
72
1
73
2
11
288.7500
21
5.0000
31
0
0
TEXT
8
TEXTO
10
288.7500
20
292.0000
30
0
40
2.5000
1
6
72
1
73
2
11
288.7500
21
292.0000
31
0
0
TEXT
8
TEXTO
10
341.2500
20
5.0000
30
0
40
2.5000
1
7
72
1
73
2
11
341.2500
21
5.0000
31
0
0
TEXT
8
TEXTO
10
341.2500
20
292.0000
30
0
40
2.5000
1
7
72
1
73
2
11
341.2500
21
292.0000
31
0
0
TEXT
8
TEXTO
10
393.7500
20
5.0000
30
0
40
2.5000
1
8
72
1
73
2
11
393.7500
21
5.0000
31
0
0
TEXT
8
TEXTO
10
393.7500
20
292.0000
30
0
40
2.5000
1
8
72
1
73
2
11
393.7500
21
292.0000
31
0
0
TEXT
8
TEXTO
10
5.0000
20
272.2500
30
0
40
2.5000
1
A
72
1
73
2
11
5.0000
21
272.2500
31
0
0
TEXT
8
TEXTO
10
415.0000
20
272.2500
30
0
40
2.5000
1
A
72
1
73
2
11
415.0000
21
272.2500
31
0
0
TEXT
8
TEXTO
10
5.0000
20
222.7500
30
0
40
2.5000
1
B
72
1
73
2
11
5.0000
21
222.7500
31
0
0
TEXT
8
TEXTO
10
415.0000
20
222.7500
30
0
40
2.5000
1
B
72
1
73
2
11
415.0000
21
222.7500
31
0
0
TEXT
8
TEXTO
10
5.0000
20
173.2500
30
0
40
2.5000
1
C
72
1
73
2
11
5.0000
21
173.2500
31
0
0
TEXT
8
TEXTO
10
415.0000
20
173.2500
30
0
40
2.5000
1
C
72
1
73
2
11
415.0000
21
173.2500
31
0
0
TEXT
8
TEXTO
10
5.0000
20
123.7500
30
0
40
2.5000
1
D
72
1
73
2
11
5.0000
21
123.7500
31
0
0
TEXT
8
TEXTO
10
415.0000
20
123.7500
30
0
40
2.5000
1
D
72
1
73
2
11
415.0000
21
123.7500
31
0
0
TEXT
8
TEXTO
10
5.0000
20
74.2500
30
0
40
2.5000
1
E
72
1
73
2
11
5.0000
21
74.2500
31
0
0
TEXT
8
TEXTO
10
415.0000
20
74.2500
30
0
40
2.5000
1
E
72
1
73
2
11
415.0000
21
74.2500
31
0
0
TEXT
8
TEXTO
10
5.0000
20
24.7500
30
0
40
2.5000
1
F
72
1
73
2
11
5.0000
21
24.7500
31
0
0
TEXT
8
TEXTO
10
415.0000
20
24.7500
30
0
40
2.5000
1
F
72
1
73
2
11
415.0000
21
24.7500
31
0
0
LINE
8
NORMA
10
230.0000
20
10.0000
30
0
11
410.0000
21
10.0000
31
0
0
LINE
8
NORMA
10
410.0000
20
10.0000
30
0
11
410.0000
21
52.0000
31
0
0
LINE
8
NORMA
10
410.0000
20
52.0000
30
0
11
230.0000
21
52.0000
31
0
0
LINE
8
NORMA
10
230.0000
20
52.0000
30
0
11
230.0000
21
10.0000
31
0
0
LINE
8
NORMA
10
270.0000
20
10.0000
30
0
11
270.0000
21
52.0000
31
0
0
LINE
8
NORMA
10
364.0000
20
10.0000
30
0
11
364.0000
21
52.0000
31
0
0
LINE
8
FINA
10
230.0000
20
29.0000
30
0
11
270.0000
21
29.0000
31
0
0
TEXT
8
TEXTO
10
250.0000
20
43.8000
30
0
40
6.0000
1
foto3d
72
1
73
2
11
250.0000
21
43.8000
31
0
0
LINE
8
FINA
10
236.5000
20
38.6000
30
0
11
263.5000
21
38.6000
31
0
0
TEXT
8
TEXTO
10
250.0000
20
35.8000
30
0
40
1.3000
1
CAD · DISEŃO CAPA USER
72
1
73
2
11
250.0000
21
35.8000
31
0
0
TEXT
8
TEXTO
10
250.0000
20
32.6000
30
0
40
1.3000
1
ISO 5457 · 7200 · 129 · 5456-2
72
1
73
2
11
250.0000
21
32.6000
31
0
0
TEXT
8
TEXTO
10
250.0000
20
26.6000
30
0
40
1.4000
1
PROYECCIÓN — PRIMER DIEDRO
72
1
73
2
11
250.0000
21
26.6000
31
0
0
CIRCLE
8
TEXTO
10
245.4000
20
17.5000
30
0
40
2.9900
0
CIRCLE
8
TEXTO
10
245.4000
20
17.5000
30
0
40
1.6100
0
LINE
8
TEXTO
10
250.4600
20
14.5100
30
0
11
257.5900
21
15.8900
31
0
0
LINE
8
TEXTO
10
257.5900
20
15.8900
30
0
11
257.5900
21
19.1100
31
0
0
LINE
8
TEXTO
10
257.5900
20
19.1100
30
0
11
250.4600
21
20.4900
31
0
0
LINE
8
TEXTO
10
250.4600
20
20.4900
30
0
11
250.4600
21
14.5100
31
0
0
LINE
8
FINA
10
241.0300
20
17.5000
30
0
11
258.9700
21
17.5000
31
0
0
LINE
8
FINA
10
270.0000
20
39.0000
30
0
11
364.0000
21
39.0000
31
0
0
LINE
8
FINA
10
270.0000
20
29.0000
30
0
11
364.0000
21
29.0000
31
0
0
LINE
8
FINA
10
270.0000
20
19.0000
30
0
11
364.0000
21
19.0000
31
0
0
LINE
8
FINA
10
317.0000
20
29.0000
30
0
11
317.0000
21
39.0000
31
0
0
LINE
8
FINA
10
326.0000
20
19.0000
30
0
11
326.0000
21
29.0000
31
0
0
TEXT
8
TEXTO
10
271.3000
20
49.6000
30
0
40
1.4000
1
DESIGNACIÓN
0
TEXT
8
TEXTO
10
271.6000
20
44.1000
30
0
40
4.2000
1
BRACKET COSTANERA — DESARROLLO
72
0
73
2
11
271.6000
21
44.1000
31
0
0
TEXT
8
TEXTO
10
271.3000
20
36.6000
30
0
40
1.4000
1
PROYECTO
0
TEXT
8
TEXTO
10
271.6000
20
32.6000
30
0
40
2.8000
1
Transportador 190-E24
72
0
73
2
11
271.6000
21
32.6000
31
0
0
TEXT
8
TEXTO
10
318.3000
20
36.6000
30
0
40
1.4000
1
FUENTE
0
TEXT
8
TEXTO
10
318.6000
20
32.6000
30
0
40
2.4000
1
chapa plegada — capa user
72
0
73
2
11
318.6000
21
32.6000
31
0
0
TEXT
8
TEXTO
10
271.3000
20
26.6000
30
0
40
1.4000
1
VERIFICACIÓN DE ESCALA
0
TEXT
8
TEXTO
10
271.6000
20
22.6000
30
0
40
2.4000
1
CAD EN MM (CAPA USER)
72
0
73
2
11
271.6000
21
22.6000
31
0
0
TEXT
8
TEXTO
10
327.3000
20
26.6000
30
0
40
1.4000
1
PLIEGUES
0
TEXT
8
TEXTO
10
327.6000
20
22.6000
30
0
40
2.6000
1
2
72
0
73
2
11
327.6000
21
22.6000
31
0
0
TEXT
8
TEXTO
10
271.3000
20
16.6000
30
0
40
1.4000
1
NOTA
0
TEXT
8
TEXTO
10
271.6000
20
13.1000
30
0
40
2.2000
1
La pieza tiene cortes/funciones ajenos a la chapa: NO se reflejan en el desarrollo.
72
0
73
2
11
271.6000
21
13.1000
31
0
0
LINE
8
FINA
10
364.0000
20
39.0000
30
0
11
410.0000
21
39.0000
31
0
0
LINE
8
FINA
10
364.0000
20
29.0000
30
0
11
410.0000
21
29.0000
31
0
0
LINE
8
FINA
10
364.0000
20
19.0000
30
0
11
410.0000
21
19.0000
31
0
0
LINE
8
FINA
10
387.0000
20
29.0000
30
0
11
387.0000
21
39.0000
31
0
0
LINE
8
FINA
10
390.0000
20
19.0000
30
0
11
390.0000
21
29.0000
31
0
0
TEXT
8
TEXTO
10
365.3000
20
49.6000
30
0
40
1.4000
1
ESCALA
0
TEXT
8
TEXTO
10
387.0000
20
44.1000
30
0
40
5.0000
1
1:1
72
1
73
2
11
387.0000
21
44.1000
31
0
0
TEXT
8
TEXTO
10
365.3000
20
36.6000
30
0
40
1.4000
1
FORMATO
0
TEXT
8
TEXTO
10
375.5000
20
32.6000
30
0
40
3.0000
1
A3
72
1
73
2
11
375.5000
21
32.6000
31
0
0
TEXT
8
TEXTO
10
388.3000
20
36.6000
30
0
40
1.4000
1
LÁMINA
0
TEXT
8
TEXTO
10
398.5000
20
32.6000
30
0
40
3.0000
1
1 / 1
72
1
73
2
11
398.5000
21
32.6000
31
0
0
TEXT
8
TEXTO
10
365.3000
20
26.6000
30
0
40
1.4000
1
FECHA
0
TEXT
8
TEXTO
10
377.0000
20
22.6000
30
0
40
2.6000
1
2026-07-16
72
1
73
2
11
377.0000
21
22.6000
31
0
0
TEXT
8
TEXTO
10
391.3000
20
26.6000
30
0
40
1.4000
1
UNIDADES
0
TEXT
8
TEXTO
10
400.0000
20
22.6000
30
0
40
3.0000
1
mm
72
1
73
2
11
400.0000
21
22.6000
31
0
0
TEXT
8
TEXTO
10
365.3000
20
16.6000
30
0
40
1.4000
1
Nş DE PLANO
0
TEXT
8
TEXTO
10
387.0000
20
13.1000
30
0
40
2.6000
1
CHAPA-01
72
1
73
2
11
387.0000
21
13.1000
31
0
0
ENDSEC
0
EOF
