0
SECTION
2
HEADER
9
$ACADVER
1
AC1009
9
$DWGCODEPAGE
3
ANSI_1252
0
ENDSEC
0
SECTION
2
TABLES
0
TABLE
2
LTYPE
70
2
0
LTYPE
2
CONTINUOUS
70
0
3
Solid line
72
65
73
0
40
0
0
LTYPE
2
DASHED
70
0
3
Segmentada __ __ __
72
65
73
2
40
6
49
4
49
-2
0
ENDTAB
0
TABLE
2
LAYER
70
6
0
LAYER
2
NORMA
70
0
62
7
6
CONTINUOUS
0
LAYER
2
FINA
70
0
62
7
6
CONTINUOUS
0
LAYER
2
VISIBLE
70
0
62
7
6
CONTINUOUS
0
LAYER
2
COTAS
70
0
62
7
6
CONTINUOUS
0
LAYER
2
TEXTO
70
0
62
7
6
CONTINUOUS
0
LAYER
2
PLIEGUE
70
0
62
1
6
DASHED
0
ENDTAB
0
ENDSEC
0
SECTION
2
ENTITIES
0
LINE
8
VISIBLE
10
52.0000
20
238.0239
30
0
11
52.0000
21
238.0239
31
0
0
LINE
8
VISIBLE
10
52.0000
20
238.0239
30
0
11
52.0000
21
188.9761
31
0
0
LINE
8
VISIBLE
10
52.0000
20
188.9761
30
0
11
552.0000
21
188.9761
31
0
0
LINE
8
VISIBLE
10
552.0000
20
188.9761
30
0
11
552.0000
21
238.0239
31
0
0
LINE
8
VISIBLE
10
552.0000
20
238.0239
30
0
11
552.0000
21
238.0239
31
0
0
LINE
8
VISIBLE
10
552.0000
20
238.0239
30
0
11
552.0000
21
278.0239
31
0
0
LINE
8
VISIBLE
10
552.0000
20
278.0239
30
0
11
52.0000
21
278.0239
31
0
0
LINE
8
VISIBLE
10
52.0000
20
278.0239
30
0
11
52.0000
21
238.0239
31
0
0
LINE
8
FINA
10
52.0000
20
238.0239
30
0
11
552.0000
21
238.0239
31
0
0
LINE
8
FINA
10
52.0000
20
228.9761
30
0
11
552.0000
21
228.9761
31
0
0
LINE
8
PLIEGUE
10
52.0000
20
233.5000
30
0
11
552.0000
21
233.5000
31
0
0
TEXT
8
TEXTO
10
302.0000
20
226.4761
30
0
40
2.5000
1
PLEGAR ARRIBA 90° R4
72
1
73
2
11
302.0000
21
226.4761
31
0
0
LINE
8
COTAS
10
52.0000
20
187.9761
30
0
11
52.0000
21
178.4761
31
0
0
LINE
8
COTAS
10
552.0000
20
187.9761
30
0
11
552.0000
21
178.4761
31
0
0
LINE
8
COTAS
10
52.0000
20
179.9761
30
0
11
552.0000
21
179.9761
31
0
0
SOLID
8
COTAS
10
52.0000
20
179.9761
30
0
11
54.5000
21
180.4261
31
0
12
54.5000
22
179.5261
32
0
13
54.5000
23
179.5261
33
0
0
SOLID
8
COTAS
10
552.0000
20
179.9761
30
0
11
549.5000
21
180.4261
31
0
12
549.5000
22
179.5261
32
0
13
549.5000
23
179.5261
33
0
0
TEXT
8
COTAS
10
302.0000
20
182.1761
30
0
40
3.5000
1
500
72
1
73
2
11
302.0000
21
182.1761
31
0
0
LINE
8
COTAS
10
553.0000
20
188.9761
30
0
11
562.5000
21
188.9761
31
0
0
LINE
8
COTAS
10
553.0000
20
278.0239
30
0
11
562.5000
21
278.0239
31
0
0
LINE
8
COTAS
10
561.0000
20
188.9761
30
0
11
561.0000
21
278.0239
31
0
0
SOLID
8
COTAS
10
561.0000
20
188.9761
30
0
11
561.4500
21
191.4761
31
0
12
560.5500
22
191.4761
32
0
13
560.5500
23
191.4761
33
0
0
SOLID
8
COTAS
10
561.0000
20
278.0239
30
0
11
561.4500
21
275.5239
31
0
12
560.5500
22
275.5239
32
0
13
560.5500
23
275.5239
33
0
0
TEXT
8
COTAS
10
563.2000
20
233.5000
30
0
40
3.5000
1
89
72
1
73
2
11
563.2000
21
233.5000
31
0
0
TEXT
8
TEXTO
10
52.0000
20
288.5239
30
0
40
3.5000
1
DESARROLLO DE CHAPA — BA = ang·(R + K·t), fibra neutra por factor K
0
TEXT
8
TEXTO
10
52.0000
20
283.0239
30
0
40
4.0000
1
ESPESOR DE CHAPA e = 4 mm (constante en toda la pieza)
0
LINE
8
FINA
10
0.0000
20
0.0000
30
0
11
594.0000
21
0.0000
31
0
0
LINE
8
FINA
10
594.0000
20
0.0000
30
0
11
594.0000
21
420.0000
31
0
0
LINE
8
FINA
10
594.0000
20
420.0000
30
0
11
0.0000
21
420.0000
31
0
0
LINE
8
FINA
10
0.0000
20
420.0000
30
0
11
0.0000
21
0.0000
31
0
0
LINE
8
NORMA
10
20.0000
20
10.0000
30
0
11
584.0000
21
10.0000
31
0
0
LINE
8
NORMA
10
584.0000
20
10.0000
30
0
11
584.0000
21
410.0000
31
0
0
LINE
8
NORMA
10
584.0000
20
410.0000
30
0
11
20.0000
21
410.0000
31
0
0
LINE
8
NORMA
10
20.0000
20
410.0000
30
0
11
20.0000
21
10.0000
31
0
0
LINE
8
NORMA
10
0.0000
20
210.0000
30
0
11
25.0000
21
210.0000
31
0
0
LINE
8
NORMA
10
594.0000
20
210.0000
30
0
11
579.0000
21
210.0000
31
0
0
LINE
8
NORMA
10
297.0000
20
0.0000
30
0
11
297.0000
21
15.0000
31
0
0
LINE
8
NORMA
10
297.0000
20
420.0000
30
0
11
297.0000
21
405.0000
31
0
0
LINE
8
FINA
10
49.5000
20
0.0000
30
0
11
49.5000
21
10.0000
31
0
0
LINE
8
FINA
10
49.5000
20
410.0000
30
0
11
49.5000
21
420.0000
31
0
0
LINE
8
FINA
10
99.0000
20
0.0000
30
0
11
99.0000
21
10.0000
31
0
0
LINE
8
FINA
10
99.0000
20
410.0000
30
0
11
99.0000
21
420.0000
31
0
0
LINE
8
FINA
10
148.5000
20
0.0000
30
0
11
148.5000
21
10.0000
31
0
0
LINE
8
FINA
10
148.5000
20
410.0000
30
0
11
148.5000
21
420.0000
31
0
0
LINE
8
FINA
10
198.0000
20
0.0000
30
0
11
198.0000
21
10.0000
31
0
0
LINE
8
FINA
10
198.0000
20
410.0000
30
0
11
198.0000
21
420.0000
31
0
0
LINE
8
FINA
10
247.5000
20
0.0000
30
0
11
247.5000
21
10.0000
31
0
0
LINE
8
FINA
10
247.5000
20
410.0000
30
0
11
247.5000
21
420.0000
31
0
0
LINE
8
FINA
10
297.0000
20
0.0000
30
0
11
297.0000
21
10.0000
31
0
0
LINE
8
FINA
10
297.0000
20
410.0000
30
0
11
297.0000
21
420.0000
31
0
0
LINE
8
FINA
10
346.5000
20
0.0000
30
0
11
346.5000
21
10.0000
31
0
0
LINE
8
FINA
10
346.5000
20
410.0000
30
0
11
346.5000
21
420.0000
31
0
0
LINE
8
FINA
10
396.0000
20
0.0000
30
0
11
396.0000
21
10.0000
31
0
0
LINE
8
FINA
10
396.0000
20
410.0000
30
0
11
396.0000
21
420.0000
31
0
0
LINE
8
FINA
10
445.5000
20
0.0000
30
0
11
445.5000
21
10.0000
31
0
0
LINE
8
FINA
10
445.5000
20
410.0000
30
0
11
445.5000
21
420.0000
31
0
0
LINE
8
FINA
10
495.0000
20
0.0000
30
0
11
495.0000
21
10.0000
31
0
0
LINE
8
FINA
10
495.0000
20
410.0000
30
0
11
495.0000
21
420.0000
31
0
0
LINE
8
FINA
10
544.5000
20
0.0000
30
0
11
544.5000
21
10.0000
31
0
0
LINE
8
FINA
10
544.5000
20
410.0000
30
0
11
544.5000
21
420.0000
31
0
0
LINE
8
FINA
10
0.0000
20
52.5000
30
0
11
10.0000
21
52.5000
31
0
0
LINE
8
FINA
10
584.0000
20
52.5000
30
0
11
594.0000
21
52.5000
31
0
0
LINE
8
FINA
10
0.0000
20
105.0000
30
0
11
10.0000
21
105.0000
31
0
0
LINE
8
FINA
10
584.0000
20
105.0000
30
0
11
594.0000
21
105.0000
31
0
0
LINE
8
FINA
10
0.0000
20
157.5000
30
0
11
10.0000
21
157.5000
31
0
0
LINE
8
FINA
10
584.0000
20
157.5000
30
0
11
594.0000
21
157.5000
31
0
0
LINE
8
FINA
10
0.0000
20
210.0000
30
0
11
10.0000
21
210.0000
31
0
0
LINE
8
FINA
10
584.0000
20
210.0000
30
0
11
594.0000
21
210.0000
31
0
0
LINE
8
FINA
10
0.0000
20
262.5000
30
0
11
10.0000
21
262.5000
31
0
0
LINE
8
FINA
10
584.0000
20
262.5000
30
0
11
594.0000
21
262.5000
31
0
0
LINE
8
FINA
10
0.0000
20
315.0000
30
0
11
10.0000
21
315.0000
31
0
0
LINE
8
FINA
10
584.0000
20
315.0000
30
0
11
594.0000
21
315.0000
31
0
0
LINE
8
FINA
10
0.0000
20
367.5000
30
0
11
10.0000
21
367.5000
31
0
0
LINE
8
FINA
10
584.0000
20
367.5000
30
0
11
594.0000
21
367.5000
31
0
0
TEXT
8
TEXTO
10
24.7500
20
5.0000
30
0
40
2.5000
1
1
72
1
73
2
11
24.7500
21
5.0000
31
0
0
TEXT
8
TEXTO
10
24.7500
20
415.0000
30
0
40
2.5000
1
1
72
1
73
2
11
24.7500
21
415.0000
31
0
0
TEXT
8
TEXTO
10
74.2500
20
5.0000
30
0
40
2.5000
1
2
72
1
73
2
11
74.2500
21
5.0000
31
0
0
TEXT
8
TEXTO
10
74.2500
20
415.0000
30
0
40
2.5000
1
2
72
1
73
2
11
74.2500
21
415.0000
31
0
0
TEXT
8
TEXTO
10
123.7500
20
5.0000
30
0
40
2.5000
1
3
72
1
73
2
11
123.7500
21
5.0000
31
0
0
TEXT
8
TEXTO
10
123.7500
20
415.0000
30
0
40
2.5000
1
3
72
1
73
2
11
123.7500
21
415.0000
31
0
0
TEXT
8
TEXTO
10
173.2500
20
5.0000
30
0
40
2.5000
1
4
72
1
73
2
11
173.2500
21
5.0000
31
0
0
TEXT
8
TEXTO
10
173.2500
20
415.0000
30
0
40
2.5000
1
4
72
1
73
2
11
173.2500
21
415.0000
31
0
0
TEXT
8
TEXTO
10
222.7500
20
5.0000
30
0
40
2.5000
1
5
72
1
73
2
11
222.7500
21
5.0000
31
0
0
TEXT
8
TEXTO
10
222.7500
20
415.0000
30
0
40
2.5000
1
5
72
1
73
2
11
222.7500
21
415.0000
31
0
0
TEXT
8
TEXTO
10
272.2500
20
5.0000
30
0
40
2.5000
1
6
72
1
73
2
11
272.2500
21
5.0000
31
0
0
TEXT
8
TEXTO
10
272.2500
20
415.0000
30
0
40
2.5000
1
6
72
1
73
2
11
272.2500
21
415.0000
31
0
0
TEXT
8
TEXTO
10
321.7500
20
5.0000
30
0
40
2.5000
1
7
72
1
73
2
11
321.7500
21
5.0000
31
0
0
TEXT
8
TEXTO
10
321.7500
20
415.0000
30
0
40
2.5000
1
7
72
1
73
2
11
321.7500
21
415.0000
31
0
0
TEXT
8
TEXTO
10
371.2500
20
5.0000
30
0
40
2.5000
1
8
72
1
73
2
11
371.2500
21
5.0000
31
0
0
TEXT
8
TEXTO
10
371.2500
20
415.0000
30
0
40
2.5000
1
8
72
1
73
2
11
371.2500
21
415.0000
31
0
0
TEXT
8
TEXTO
10
420.7500
20
5.0000
30
0
40
2.5000
1
9
72
1
73
2
11
420.7500
21
5.0000
31
0
0
TEXT
8
TEXTO
10
420.7500
20
415.0000
30
0
40
2.5000
1
9
72
1
73
2
11
420.7500
21
415.0000
31
0
0
TEXT
8
TEXTO
10
470.2500
20
5.0000
30
0
40
2.5000
1
10
72
1
73
2
11
470.2500
21
5.0000
31
0
0
TEXT
8
TEXTO
10
470.2500
20
415.0000
30
0
40
2.5000
1
10
72
1
73
2
11
470.2500
21
415.0000
31
0
0
TEXT
8
TEXTO
10
519.7500
20
5.0000
30
0
40
2.5000
1
11
72
1
73
2
11
519.7500
21
5.0000
31
0
0
TEXT
8
TEXTO
10
519.7500
20
415.0000
30
0
40
2.5000
1
11
72
1
73
2
11
519.7500
21
415.0000
31
0
0
TEXT
8
TEXTO
10
569.2500
20
5.0000
30
0
40
2.5000
1
12
72
1
73
2
11
569.2500
21
5.0000
31
0
0
TEXT
8
TEXTO
10
569.2500
20
415.0000
30
0
40
2.5000
1
12
72
1
73
2
11
569.2500
21
415.0000
31
0
0
TEXT
8
TEXTO
10
5.0000
20
393.7500
30
0
40
2.5000
1
A
72
1
73
2
11
5.0000
21
393.7500
31
0
0
TEXT
8
TEXTO
10
589.0000
20
393.7500
30
0
40
2.5000
1
A
72
1
73
2
11
589.0000
21
393.7500
31
0
0
TEXT
8
TEXTO
10
5.0000
20
341.2500
30
0
40
2.5000
1
B
72
1
73
2
11
5.0000
21
341.2500
31
0
0
TEXT
8
TEXTO
10
589.0000
20
341.2500
30
0
40
2.5000
1
B
72
1
73
2
11
589.0000
21
341.2500
31
0
0
TEXT
8
TEXTO
10
5.0000
20
288.7500
30
0
40
2.5000
1
C
72
1
73
2
11
5.0000
21
288.7500
31
0
0
TEXT
8
TEXTO
10
589.0000
20
288.7500
30
0
40
2.5000
1
C
72
1
73
2
11
589.0000
21
288.7500
31
0
0
TEXT
8
TEXTO
10
5.0000
20
236.2500
30
0
40
2.5000
1
D
72
1
73
2
11
5.0000
21
236.2500
31
0
0
TEXT
8
TEXTO
10
589.0000
20
236.2500
30
0
40
2.5000
1
D
72
1
73
2
11
589.0000
21
236.2500
31
0
0
TEXT
8
TEXTO
10
5.0000
20
183.7500
30
0
40
2.5000
1
E
72
1
73
2
11
5.0000
21
183.7500
31
0
0
TEXT
8
TEXTO
10
589.0000
20
183.7500
30
0
40
2.5000
1
E
72
1
73
2
11
589.0000
21
183.7500
31
0
0
TEXT
8
TEXTO
10
5.0000
20
131.2500
30
0
40
2.5000
1
F
72
1
73
2
11
5.0000
21
131.2500
31
0
0
TEXT
8
TEXTO
10
589.0000
20
131.2500
30
0
40
2.5000
1
F
72
1
73
2
11
589.0000
21
131.2500
31
0
0
TEXT
8
TEXTO
10
5.0000
20
78.7500
30
0
40
2.5000
1
G
72
1
73
2
11
5.0000
21
78.7500
31
0
0
TEXT
8
TEXTO
10
589.0000
20
78.7500
30
0
40
2.5000
1
G
72
1
73
2
11
589.0000
21
78.7500
31
0
0
TEXT
8
TEXTO
10
5.0000
20
26.2500
30
0
40
2.5000
1
H
72
1
73
2
11
5.0000
21
26.2500
31
0
0
TEXT
8
TEXTO
10
589.0000
20
26.2500
30
0
40
2.5000
1
H
72
1
73
2
11
589.0000
21
26.2500
31
0
0
LINE
8
NORMA
10
404.0000
20
10.0000
30
0
11
584.0000
21
10.0000
31
0
0
LINE
8
NORMA
10
584.0000
20
10.0000
30
0
11
584.0000
21
52.0000
31
0
0
LINE
8
NORMA
10
584.0000
20
52.0000
30
0
11
404.0000
21
52.0000
31
0
0
LINE
8
NORMA
10
404.0000
20
52.0000
30
0
11
404.0000
21
10.0000
31
0
0
LINE
8
NORMA
10
444.0000
20
10.0000
30
0
11
444.0000
21
52.0000
31
0
0
LINE
8
NORMA
10
538.0000
20
10.0000
30
0
11
538.0000
21
52.0000
31
0
0
LINE
8
FINA
10
404.0000
20
29.0000
30
0
11
444.0000
21
29.0000
31
0
0
TEXT
8
TEXTO
10
424.0000
20
43.8000
30
0
40
6.0000
1
foto3d
72
1
73
2
11
424.0000
21
43.8000
31
0
0
LINE
8
FINA
10
410.5000
20
38.6000
30
0
11
437.5000
21
38.6000
31
0
0
TEXT
8
TEXTO
10
424.0000
20
35.8000
30
0
40
1.3000
1
CAD · DISEŃO CAPA USER
72
1
73
2
11
424.0000
21
35.8000
31
0
0
TEXT
8
TEXTO
10
424.0000
20
32.6000
30
0
40
1.3000
1
ISO 5457 · 7200 · 129 · 5456-2
72
1
73
2
11
424.0000
21
32.6000
31
0
0
TEXT
8
TEXTO
10
424.0000
20
26.6000
30
0
40
1.4000
1
PROYECCIÓN — PRIMER DIEDRO
72
1
73
2
11
424.0000
21
26.6000
31
0
0
CIRCLE
8
TEXTO
10
419.4000
20
17.5000
30
0
40
2.9900
0
CIRCLE
8
TEXTO
10
419.4000
20
17.5000
30
0
40
1.6100
0
LINE
8
TEXTO
10
424.4600
20
14.5100
30
0
11
431.5900
21
15.8900
31
0
0
LINE
8
TEXTO
10
431.5900
20
15.8900
30
0
11
431.5900
21
19.1100
31
0
0
LINE
8
TEXTO
10
431.5900
20
19.1100
30
0
11
424.4600
21
20.4900
31
0
0
LINE
8
TEXTO
10
424.4600
20
20.4900
30
0
11
424.4600
21
14.5100
31
0
0
LINE
8
FINA
10
415.0300
20
17.5000
30
0
11
432.9700
21
17.5000
31
0
0
LINE
8
FINA
10
444.0000
20
39.0000
30
0
11
538.0000
21
39.0000
31
0
0
LINE
8
FINA
10
444.0000
20
29.0000
30
0
11
538.0000
21
29.0000
31
0
0
LINE
8
FINA
10
444.0000
20
19.0000
30
0
11
538.0000
21
19.0000
31
0
0
LINE
8
FINA
10
491.0000
20
29.0000
30
0
11
491.0000
21
39.0000
31
0
0
LINE
8
FINA
10
500.0000
20
19.0000
30
0
11
500.0000
21
29.0000
31
0
0
TEXT
8
TEXTO
10
445.3000
20
49.6000
30
0
40
1.4000
1
DESIGNACIÓN
0
TEXT
8
TEXTO
10
445.6000
20
44.1000
30
0
40
4.2000
1
TRAVESANO ANGULO — DESARROLLO
72
0
73
2
11
445.6000
21
44.1000
31
0
0
TEXT
8
TEXTO
10
445.3000
20
36.6000
30
0
40
1.4000
1
PROYECTO
0
TEXT
8
TEXTO
10
445.6000
20
32.6000
30
0
40
2.8000
1
Transportador 190-E24
72
0
73
2
11
445.6000
21
32.6000
31
0
0
TEXT
8
TEXTO
10
492.3000
20
36.6000
30
0
40
1.4000
1
FUENTE
0
TEXT
8
TEXTO
10
492.6000
20
32.6000
30
0
40
2.4000
1
chapa plegada — capa user
72
0
73
2
11
492.6000
21
32.6000
31
0
0
TEXT
8
TEXTO
10
445.3000
20
26.6000
30
0
40
1.4000
1
VERIFICACIÓN DE ESCALA
0
TEXT
8
TEXTO
10
445.6000
20
22.6000
30
0
40
2.4000
1
CAD EN MM (CAPA USER)
72
0
73
2
11
445.6000
21
22.6000
31
0
0
TEXT
8
TEXTO
10
501.3000
20
26.6000
30
0
40
1.4000
1
PLIEGUES
0
TEXT
8
TEXTO
10
501.6000
20
22.6000
30
0
40
2.6000
1
1
72
0
73
2
11
501.6000
21
22.6000
31
0
0
TEXT
8
TEXTO
10
445.3000
20
16.6000
30
0
40
1.4000
1
NOTA
0
TEXT
8
TEXTO
10
445.6000
20
13.1000
30
0
40
2.2000
1
acero e=4 mm · K=0.44 · R def=4 mm — diseńo, no medición
72
0
73
2
11
445.6000
21
13.1000
31
0
0
LINE
8
FINA
10
538.0000
20
39.0000
30
0
11
584.0000
21
39.0000
31
0
0
LINE
8
FINA
10
538.0000
20
29.0000
30
0
11
584.0000
21
29.0000
31
0
0
LINE
8
FINA
10
538.0000
20
19.0000
30
0
11
584.0000
21
19.0000
31
0
0
LINE
8
FINA
10
561.0000
20
29.0000
30
0
11
561.0000
21
39.0000
31
0
0
LINE
8
FINA
10
564.0000
20
19.0000
30
0
11
564.0000
21
29.0000
31
0
0
TEXT
8
TEXTO
10
539.3000
20
49.6000
30
0
40
1.4000
1
ESCALA
0
TEXT
8
TEXTO
10
561.0000
20
44.1000
30
0
40
5.0000
1
1:1
72
1
73
2
11
561.0000
21
44.1000
31
0
0
TEXT
8
TEXTO
10
539.3000
20
36.6000
30
0
40
1.4000
1
FORMATO
0
TEXT
8
TEXTO
10
549.5000
20
32.6000
30
0
40
3.0000
1
A2
72
1
73
2
11
549.5000
21
32.6000
31
0
0
TEXT
8
TEXTO
10
562.3000
20
36.6000
30
0
40
1.4000
1
LÁMINA
0
TEXT
8
TEXTO
10
572.5000
20
32.6000
30
0
40
3.0000
1
1 / 1
72
1
73
2
11
572.5000
21
32.6000
31
0
0
TEXT
8
TEXTO
10
539.3000
20
26.6000
30
0
40
1.4000
1
FECHA
0
TEXT
8
TEXTO
10
551.0000
20
22.6000
30
0
40
2.6000
1
2026-07-16
72
1
73
2
11
551.0000
21
22.6000
31
0
0
TEXT
8
TEXTO
10
565.3000
20
26.6000
30
0
40
1.4000
1
UNIDADES
0
TEXT
8
TEXTO
10
574.0000
20
22.6000
30
0
40
3.0000
1
mm
72
1
73
2
11
574.0000
21
22.6000
31
0
0
TEXT
8
TEXTO
10
539.3000
20
16.6000
30
0
40
1.4000
1
Nş DE PLANO
0
TEXT
8
TEXTO
10
561.0000
20
13.1000
30
0
40
2.6000
1
CHAPA-01
72
1
73
2
11
561.0000
21
13.1000
31
0
0
ENDSEC
0
EOF
