0
SECTION
2
HEADER
9
$ACADVER
1
AC1009
9
$DWGCODEPAGE
3
ANSI_1252
0
ENDSEC
0
SECTION
2
TABLES
0
TABLE
2
LTYPE
70
2
0
LTYPE
2
CONTINUOUS
70
0
3
Solid line
72
65
73
0
40
0
0
LTYPE
2
DASHED
70
0
3
Segmentada __ __ __
72
65
73
2
40
6
49
4
49
-2
0
ENDTAB
0
TABLE
2
LAYER
70
8
0
LAYER
2
SOMBRA
70
0
62
8
6
CONTINUOUS
0
LAYER
2
NORMA
70
0
62
7
6
CONTINUOUS
0
LAYER
2
FINA
70
0
62
7
6
CONTINUOUS
0
LAYER
2
VISIBLE
70
0
62
7
6
CONTINUOUS
0
LAYER
2
COTAS
70
0
62
7
6
CONTINUOUS
0
LAYER
2
TEXTO
70
0
62
7
6
CONTINUOUS
0
LAYER
2
PLIEGUE
70
0
62
1
6
DASHED
0
LAYER
2
OCULTA
70
0
62
7
6
CONTINUOUS
0
ENDTAB
0
ENDSEC
0
SECTION
2
ENTITIES
0
LINE
8
VISIBLE
10
799.0000
20
265.2150
30
0
11
840.7500
21
265.2150
31
0
0
LINE
8
VISIBLE
10
840.7500
20
265.2150
30
0
11
840.7500
21
299.7150
31
0
0
LINE
8
VISIBLE
10
840.7500
20
299.7150
30
0
11
1599.0000
21
299.7150
31
0
0
LINE
8
VISIBLE
10
1599.0000
20
299.7150
30
0
11
1599.0000
21
265.2150
31
0
0
LINE
8
VISIBLE
10
1599.0000
20
265.2150
30
0
11
1599.0000
21
637.5050
31
0
0
LINE
8
VISIBLE
10
1599.0000
20
637.5050
30
0
11
1930.3900
21
637.5050
31
0
0
LINE
8
VISIBLE
10
1930.3900
20
637.5050
30
0
11
1930.3900
21
1138.5050
31
0
0
LINE
8
VISIBLE
10
1930.3900
20
1138.5050
30
0
11
1599.0000
21
1138.5050
31
0
0
LINE
8
VISIBLE
10
1599.0000
20
1138.5050
30
0
11
1599.0000
21
1510.7850
31
0
0
LINE
8
VISIBLE
10
1599.0000
20
1510.7850
30
0
11
1599.0000
21
1476.2850
31
0
0
LINE
8
VISIBLE
10
1599.0000
20
1476.2850
30
0
11
840.7500
21
1476.2850
31
0
0
LINE
8
VISIBLE
10
840.7500
20
1476.2850
30
0
11
840.7500
21
1510.7850
31
0
0
LINE
8
VISIBLE
10
840.7500
20
1510.7850
30
0
11
799.0000
21
1510.7850
31
0
0
LINE
8
VISIBLE
10
799.0000
20
1510.7850
30
0
11
799.0000
21
1138.5050
31
0
0
LINE
8
VISIBLE
10
799.0000
20
1138.5050
30
0
11
467.6100
21
1138.5050
31
0
0
LINE
8
VISIBLE
10
467.6100
20
1138.5050
30
0
11
467.6100
21
637.5050
31
0
0
LINE
8
VISIBLE
10
467.6100
20
637.5050
30
0
11
799.0000
21
637.5050
31
0
0
LINE
8
VISIBLE
10
799.0000
20
637.5050
30
0
11
799.0000
21
265.2150
31
0
0
CIRCLE
8
VISIBLE
10
889.0000
20
888.0050
30
0
40
4.0000
0
CIRCLE
8
VISIBLE
10
1339.0000
20
888.0050
30
0
40
4.0000
0
CIRCLE
8
VISIBLE
10
1479.0000
20
512.1050
30
0
40
24.0000
0
CIRCLE
8
VISIBLE
10
1479.0000
20
1263.8950
30
0
40
24.0000
0
CIRCLE
8
VISIBLE
10
1099.0000
20
402.1050
30
0
40
24.0000
0
CIRCLE
8
VISIBLE
10
1099.0000
20
1373.8950
30
0
40
24.0000
0
CIRCLE
8
VISIBLE
10
1039.0000
20
362.1050
30
0
40
3.5000
0
CIRCLE
8
VISIBLE
10
1039.0000
20
1413.8950
30
0
40
3.5000
0
CIRCLE
8
VISIBLE
10
1039.0000
20
462.1050
30
0
40
3.5000
0
CIRCLE
8
VISIBLE
10
1039.0000
20
1313.8950
30
0
40
3.5000
0
CIRCLE
8
VISIBLE
10
1539.0000
20
362.1050
30
0
40
3.5000
0
CIRCLE
8
VISIBLE
10
1539.0000
20
1413.8950
30
0
40
3.5000
0
CIRCLE
8
VISIBLE
10
1539.0000
20
462.1050
30
0
40
3.5000
0
CIRCLE
8
VISIBLE
10
1539.0000
20
1313.8950
30
0
40
3.5000
0
TEXT
8
TEXTO
10
467.6100
20
253.2150
30
0
40
6.4000
1
BARRENOS: 14× · Ø 8 / 48 / 7 mm (corte láser)
0
LINE
8
FINA
10
799.0000
20
299.7150
30
0
11
1599.0000
21
299.7150
31
0
0
LINE
8
PLIEGUE
10
799.0000
20
301.4150
30
0
11
1599.0000
21
301.4150
31
0
0
LINE
8
FINA
10
799.0000
20
303.1050
30
0
11
1599.0000
21
303.1050
31
0
0
LINE
8
FINA
10
799.0000
20
634.1050
30
0
11
1599.0000
21
634.1050
31
0
0
LINE
8
PLIEGUE
10
799.0000
20
635.8050
30
0
11
1599.0000
21
635.8050
31
0
0
LINE
8
FINA
10
799.0000
20
637.5050
30
0
11
1599.0000
21
637.5050
31
0
0
LINE
8
FINA
10
799.0000
20
1138.5050
30
0
11
1599.0000
21
1138.5050
31
0
0
LINE
8
PLIEGUE
10
799.0000
20
1140.1950
30
0
11
1599.0000
21
1140.1950
31
0
0
LINE
8
FINA
10
799.0000
20
1141.8950
30
0
11
1599.0000
21
1141.8950
31
0
0
LINE
8
FINA
10
799.0000
20
1472.8950
30
0
11
1599.0000
21
1472.8950
31
0
0
LINE
8
PLIEGUE
10
799.0000
20
1474.5950
30
0
11
1599.0000
21
1474.5950
31
0
0
LINE
8
FINA
10
799.0000
20
1476.2850
30
0
11
1599.0000
21
1476.2850
31
0
0
LINE
8
PLIEGUE
10
799.0000
20
637.5050
30
0
11
799.0000
21
1138.5050
31
0
0
LINE
8
PLIEGUE
10
1599.0000
20
637.5050
30
0
11
1599.0000
21
1138.5050
31
0
0
TEXT
8
TEXTO
10
1199.0000
20
888.0050
30
0
40
5.0000
1
4 PLIEGUES 90° R1.5 — ARTESA EN U + TAPA(S) DE EXTREMO
72
1
73
2
11
1199.0000
21
888.0050
31
0
0
LINE
8
COTAS
10
467.6100
20
263.2150
30
0
11
467.6100
21
244.2150
31
0
0
LINE
8
COTAS
10
1930.3900
20
263.2150
30
0
11
1930.3900
21
244.2150
31
0
0
LINE
8
COTAS
10
467.6100
20
247.2150
30
0
11
1930.3900
21
247.2150
31
0
0
SOLID
8
COTAS
10
467.6100
20
247.2150
30
0
11
472.6100
21
248.1150
31
0
12
472.6100
22
246.3150
32
0
13
472.6100
23
246.3150
33
0
0
SOLID
8
COTAS
10
1930.3900
20
247.2150
30
0
11
1925.3900
21
248.1150
31
0
12
1925.3900
22
246.3150
32
0
13
1925.3900
23
246.3150
33
0
0
TEXT
8
COTAS
10
1199.0000
20
251.6150
30
0
40
7.0000
1
1462.8
72
1
73
2
11
1199.0000
21
251.6150
31
0
0
LINE
8
COTAS
10
1932.3900
20
265.2150
30
0
11
1951.3900
21
265.2150
31
0
0
LINE
8
COTAS
10
1932.3900
20
1510.7850
30
0
11
1951.3900
21
1510.7850
31
0
0
LINE
8
COTAS
10
1948.3900
20
265.2150
30
0
11
1948.3900
21
1510.7850
31
0
0
SOLID
8
COTAS
10
1948.3900
20
265.2150
30
0
11
1949.2900
21
270.2150
31
0
12
1947.4900
22
270.2150
32
0
13
1947.4900
23
270.2150
33
0
0
SOLID
8
COTAS
10
1948.3900
20
1510.7850
30
0
11
1949.2900
21
1505.7850
31
0
12
1947.4900
22
1505.7850
32
0
13
1947.4900
23
1505.7850
33
0
0
TEXT
8
COTAS
10
1952.7900
20
888.0000
30
0
40
7.0000
1
1245.6
72
1
73
2
11
1952.7900
21
888.0000
31
0
0
TEXT
8
TEXTO
10
467.6100
20
1531.7850
30
0
40
7.0000
1
DESARROLLO DE CHAPA — BA = ang·(R + K·t), fibra neutra por factor K
0
TEXT
8
TEXTO
10
467.6100
20
1520.7850
30
0
40
8.0000
1
ESPESOR DE CHAPA e = 1.5 mm (constante en toda la pieza)
0
LINE
8
FINA
10
0.0000
20
0.0000
30
0
11
2378.0000
21
0.0000
31
0
0
LINE
8
FINA
10
2378.0000
20
0.0000
30
0
11
2378.0000
21
1682.0000
31
0
0
LINE
8
FINA
10
2378.0000
20
1682.0000
30
0
11
0.0000
21
1682.0000
31
0
0
LINE
8
FINA
10
0.0000
20
1682.0000
30
0
11
0.0000
21
0.0000
31
0
0
LINE
8
NORMA
10
40.0000
20
20.0000
30
0
11
2358.0000
21
20.0000
31
0
0
LINE
8
NORMA
10
2358.0000
20
20.0000
30
0
11
2358.0000
21
1662.0000
31
0
0
LINE
8
NORMA
10
2358.0000
20
1662.0000
30
0
11
40.0000
21
1662.0000
31
0
0
LINE
8
NORMA
10
40.0000
20
1662.0000
30
0
11
40.0000
21
20.0000
31
0
0
LINE
8
NORMA
10
0.0000
20
841.0000
30
0
11
50.0000
21
841.0000
31
0
0
LINE
8
NORMA
10
2378.0000
20
841.0000
30
0
11
2348.0000
21
841.0000
31
0
0
LINE
8
NORMA
10
1189.0000
20
0.0000
30
0
11
1189.0000
21
30.0000
31
0
0
LINE
8
NORMA
10
1189.0000
20
1682.0000
30
0
11
1189.0000
21
1652.0000
31
0
0
LINE
8
FINA
10
99.0833
20
0.0000
30
0
11
99.0833
21
20.0000
31
0
0
LINE
8
FINA
10
99.0833
20
1662.0000
30
0
11
99.0833
21
1682.0000
31
0
0
LINE
8
FINA
10
198.1667
20
0.0000
30
0
11
198.1667
21
20.0000
31
0
0
LINE
8
FINA
10
198.1667
20
1662.0000
30
0
11
198.1667
21
1682.0000
31
0
0
LINE
8
FINA
10
297.2500
20
0.0000
30
0
11
297.2500
21
20.0000
31
0
0
LINE
8
FINA
10
297.2500
20
1662.0000
30
0
11
297.2500
21
1682.0000
31
0
0
LINE
8
FINA
10
396.3333
20
0.0000
30
0
11
396.3333
21
20.0000
31
0
0
LINE
8
FINA
10
396.3333
20
1662.0000
30
0
11
396.3333
21
1682.0000
31
0
0
LINE
8
FINA
10
495.4167
20
0.0000
30
0
11
495.4167
21
20.0000
31
0
0
LINE
8
FINA
10
495.4167
20
1662.0000
30
0
11
495.4167
21
1682.0000
31
0
0
LINE
8
FINA
10
594.5000
20
0.0000
30
0
11
594.5000
21
20.0000
31
0
0
LINE
8
FINA
10
594.5000
20
1662.0000
30
0
11
594.5000
21
1682.0000
31
0
0
LINE
8
FINA
10
693.5833
20
0.0000
30
0
11
693.5833
21
20.0000
31
0
0
LINE
8
FINA
10
693.5833
20
1662.0000
30
0
11
693.5833
21
1682.0000
31
0
0
LINE
8
FINA
10
792.6667
20
0.0000
30
0
11
792.6667
21
20.0000
31
0
0
LINE
8
FINA
10
792.6667
20
1662.0000
30
0
11
792.6667
21
1682.0000
31
0
0
LINE
8
FINA
10
891.7500
20
0.0000
30
0
11
891.7500
21
20.0000
31
0
0
LINE
8
FINA
10
891.7500
20
1662.0000
30
0
11
891.7500
21
1682.0000
31
0
0
LINE
8
FINA
10
990.8333
20
0.0000
30
0
11
990.8333
21
20.0000
31
0
0
LINE
8
FINA
10
990.8333
20
1662.0000
30
0
11
990.8333
21
1682.0000
31
0
0
LINE
8
FINA
10
1089.9167
20
0.0000
30
0
11
1089.9167
21
20.0000
31
0
0
LINE
8
FINA
10
1089.9167
20
1662.0000
30
0
11
1089.9167
21
1682.0000
31
0
0
LINE
8
FINA
10
1189.0000
20
0.0000
30
0
11
1189.0000
21
20.0000
31
0
0
LINE
8
FINA
10
1189.0000
20
1662.0000
30
0
11
1189.0000
21
1682.0000
31
0
0
LINE
8
FINA
10
1288.0833
20
0.0000
30
0
11
1288.0833
21
20.0000
31
0
0
LINE
8
FINA
10
1288.0833
20
1662.0000
30
0
11
1288.0833
21
1682.0000
31
0
0
LINE
8
FINA
10
1387.1667
20
0.0000
30
0
11
1387.1667
21
20.0000
31
0
0
LINE
8
FINA
10
1387.1667
20
1662.0000
30
0
11
1387.1667
21
1682.0000
31
0
0
LINE
8
FINA
10
1486.2500
20
0.0000
30
0
11
1486.2500
21
20.0000
31
0
0
LINE
8
FINA
10
1486.2500
20
1662.0000
30
0
11
1486.2500
21
1682.0000
31
0
0
LINE
8
FINA
10
1585.3333
20
0.0000
30
0
11
1585.3333
21
20.0000
31
0
0
LINE
8
FINA
10
1585.3333
20
1662.0000
30
0
11
1585.3333
21
1682.0000
31
0
0
LINE
8
FINA
10
1684.4167
20
0.0000
30
0
11
1684.4167
21
20.0000
31
0
0
LINE
8
FINA
10
1684.4167
20
1662.0000
30
0
11
1684.4167
21
1682.0000
31
0
0
LINE
8
FINA
10
1783.5000
20
0.0000
30
0
11
1783.5000
21
20.0000
31
0
0
LINE
8
FINA
10
1783.5000
20
1662.0000
30
0
11
1783.5000
21
1682.0000
31
0
0
LINE
8
FINA
10
1882.5833
20
0.0000
30
0
11
1882.5833
21
20.0000
31
0
0
LINE
8
FINA
10
1882.5833
20
1662.0000
30
0
11
1882.5833
21
1682.0000
31
0
0
LINE
8
FINA
10
1981.6667
20
0.0000
30
0
11
1981.6667
21
20.0000
31
0
0
LINE
8
FINA
10
1981.6667
20
1662.0000
30
0
11
1981.6667
21
1682.0000
31
0
0
LINE
8
FINA
10
2080.7500
20
0.0000
30
0
11
2080.7500
21
20.0000
31
0
0
LINE
8
FINA
10
2080.7500
20
1662.0000
30
0
11
2080.7500
21
1682.0000
31
0
0
LINE
8
FINA
10
2179.8333
20
0.0000
30
0
11
2179.8333
21
20.0000
31
0
0
LINE
8
FINA
10
2179.8333
20
1662.0000
30
0
11
2179.8333
21
1682.0000
31
0
0
LINE
8
FINA
10
2278.9167
20
0.0000
30
0
11
2278.9167
21
20.0000
31
0
0
LINE
8
FINA
10
2278.9167
20
1662.0000
30
0
11
2278.9167
21
1682.0000
31
0
0
LINE
8
FINA
10
0.0000
20
105.1250
30
0
11
20.0000
21
105.1250
31
0
0
LINE
8
FINA
10
2358.0000
20
105.1250
30
0
11
2378.0000
21
105.1250
31
0
0
LINE
8
FINA
10
0.0000
20
210.2500
30
0
11
20.0000
21
210.2500
31
0
0
LINE
8
FINA
10
2358.0000
20
210.2500
30
0
11
2378.0000
21
210.2500
31
0
0
LINE
8
FINA
10
0.0000
20
315.3750
30
0
11
20.0000
21
315.3750
31
0
0
LINE
8
FINA
10
2358.0000
20
315.3750
30
0
11
2378.0000
21
315.3750
31
0
0
LINE
8
FINA
10
0.0000
20
420.5000
30
0
11
20.0000
21
420.5000
31
0
0
LINE
8
FINA
10
2358.0000
20
420.5000
30
0
11
2378.0000
21
420.5000
31
0
0
LINE
8
FINA
10
0.0000
20
525.6250
30
0
11
20.0000
21
525.6250
31
0
0
LINE
8
FINA
10
2358.0000
20
525.6250
30
0
11
2378.0000
21
525.6250
31
0
0
LINE
8
FINA
10
0.0000
20
630.7500
30
0
11
20.0000
21
630.7500
31
0
0
LINE
8
FINA
10
2358.0000
20
630.7500
30
0
11
2378.0000
21
630.7500
31
0
0
LINE
8
FINA
10
0.0000
20
735.8750
30
0
11
20.0000
21
735.8750
31
0
0
LINE
8
FINA
10
2358.0000
20
735.8750
30
0
11
2378.0000
21
735.8750
31
0
0
LINE
8
FINA
10
0.0000
20
841.0000
30
0
11
20.0000
21
841.0000
31
0
0
LINE
8
FINA
10
2358.0000
20
841.0000
30
0
11
2378.0000
21
841.0000
31
0
0
LINE
8
FINA
10
0.0000
20
946.1250
30
0
11
20.0000
21
946.1250
31
0
0
LINE
8
FINA
10
2358.0000
20
946.1250
30
0
11
2378.0000
21
946.1250
31
0
0
LINE
8
FINA
10
0.0000
20
1051.2500
30
0
11
20.0000
21
1051.2500
31
0
0
LINE
8
FINA
10
2358.0000
20
1051.2500
30
0
11
2378.0000
21
1051.2500
31
0
0
LINE
8
FINA
10
0.0000
20
1156.3750
30
0
11
20.0000
21
1156.3750
31
0
0
LINE
8
FINA
10
2358.0000
20
1156.3750
30
0
11
2378.0000
21
1156.3750
31
0
0
LINE
8
FINA
10
0.0000
20
1261.5000
30
0
11
20.0000
21
1261.5000
31
0
0
LINE
8
FINA
10
2358.0000
20
1261.5000
30
0
11
2378.0000
21
1261.5000
31
0
0
LINE
8
FINA
10
0.0000
20
1366.6250
30
0
11
20.0000
21
1366.6250
31
0
0
LINE
8
FINA
10
2358.0000
20
1366.6250
30
0
11
2378.0000
21
1366.6250
31
0
0
LINE
8
FINA
10
0.0000
20
1471.7500
30
0
11
20.0000
21
1471.7500
31
0
0
LINE
8
FINA
10
2358.0000
20
1471.7500
30
0
11
2378.0000
21
1471.7500
31
0
0
LINE
8
FINA
10
0.0000
20
1576.8750
30
0
11
20.0000
21
1576.8750
31
0
0
LINE
8
FINA
10
2358.0000
20
1576.8750
30
0
11
2378.0000
21
1576.8750
31
0
0
TEXT
8
TEXTO
10
49.5417
20
10.0000
30
0
40
5.0000
1
1
72
1
73
2
11
49.5417
21
10.0000
31
0
0
TEXT
8
TEXTO
10
49.5417
20
1672.0000
30
0
40
5.0000
1
1
72
1
73
2
11
49.5417
21
1672.0000
31
0
0
TEXT
8
TEXTO
10
148.6250
20
10.0000
30
0
40
5.0000
1
2
72
1
73
2
11
148.6250
21
10.0000
31
0
0
TEXT
8
TEXTO
10
148.6250
20
1672.0000
30
0
40
5.0000
1
2
72
1
73
2
11
148.6250
21
1672.0000
31
0
0
TEXT
8
TEXTO
10
247.7083
20
10.0000
30
0
40
5.0000
1
3
72
1
73
2
11
247.7083
21
10.0000
31
0
0
TEXT
8
TEXTO
10
247.7083
20
1672.0000
30
0
40
5.0000
1
3
72
1
73
2
11
247.7083
21
1672.0000
31
0
0
TEXT
8
TEXTO
10
346.7917
20
10.0000
30
0
40
5.0000
1
4
72
1
73
2
11
346.7917
21
10.0000
31
0
0
TEXT
8
TEXTO
10
346.7917
20
1672.0000
30
0
40
5.0000
1
4
72
1
73
2
11
346.7917
21
1672.0000
31
0
0
TEXT
8
TEXTO
10
445.8750
20
10.0000
30
0
40
5.0000
1
5
72
1
73
2
11
445.8750
21
10.0000
31
0
0
TEXT
8
TEXTO
10
445.8750
20
1672.0000
30
0
40
5.0000
1
5
72
1
73
2
11
445.8750
21
1672.0000
31
0
0
TEXT
8
TEXTO
10
544.9583
20
10.0000
30
0
40
5.0000
1
6
72
1
73
2
11
544.9583
21
10.0000
31
0
0
TEXT
8
TEXTO
10
544.9583
20
1672.0000
30
0
40
5.0000
1
6
72
1
73
2
11
544.9583
21
1672.0000
31
0
0
TEXT
8
TEXTO
10
644.0417
20
10.0000
30
0
40
5.0000
1
7
72
1
73
2
11
644.0417
21
10.0000
31
0
0
TEXT
8
TEXTO
10
644.0417
20
1672.0000
30
0
40
5.0000
1
7
72
1
73
2
11
644.0417
21
1672.0000
31
0
0
TEXT
8
TEXTO
10
743.1250
20
10.0000
30
0
40
5.0000
1
8
72
1
73
2
11
743.1250
21
10.0000
31
0
0
TEXT
8
TEXTO
10
743.1250
20
1672.0000
30
0
40
5.0000
1
8
72
1
73
2
11
743.1250
21
1672.0000
31
0
0
TEXT
8
TEXTO
10
842.2083
20
10.0000
30
0
40
5.0000
1
9
72
1
73
2
11
842.2083
21
10.0000
31
0
0
TEXT
8
TEXTO
10
842.2083
20
1672.0000
30
0
40
5.0000
1
9
72
1
73
2
11
842.2083
21
1672.0000
31
0
0
TEXT
8
TEXTO
10
941.2917
20
10.0000
30
0
40
5.0000
1
10
72
1
73
2
11
941.2917
21
10.0000
31
0
0
TEXT
8
TEXTO
10
941.2917
20
1672.0000
30
0
40
5.0000
1
10
72
1
73
2
11
941.2917
21
1672.0000
31
0
0
TEXT
8
TEXTO
10
1040.3750
20
10.0000
30
0
40
5.0000
1
11
72
1
73
2
11
1040.3750
21
10.0000
31
0
0
TEXT
8
TEXTO
10
1040.3750
20
1672.0000
30
0
40
5.0000
1
11
72
1
73
2
11
1040.3750
21
1672.0000
31
0
0
TEXT
8
TEXTO
10
1139.4583
20
10.0000
30
0
40
5.0000
1
12
72
1
73
2
11
1139.4583
21
10.0000
31
0
0
TEXT
8
TEXTO
10
1139.4583
20
1672.0000
30
0
40
5.0000
1
12
72
1
73
2
11
1139.4583
21
1672.0000
31
0
0
TEXT
8
TEXTO
10
1238.5417
20
10.0000
30
0
40
5.0000
1
13
72
1
73
2
11
1238.5417
21
10.0000
31
0
0
TEXT
8
TEXTO
10
1238.5417
20
1672.0000
30
0
40
5.0000
1
13
72
1
73
2
11
1238.5417
21
1672.0000
31
0
0
TEXT
8
TEXTO
10
1337.6250
20
10.0000
30
0
40
5.0000
1
14
72
1
73
2
11
1337.6250
21
10.0000
31
0
0
TEXT
8
TEXTO
10
1337.6250
20
1672.0000
30
0
40
5.0000
1
14
72
1
73
2
11
1337.6250
21
1672.0000
31
0
0
TEXT
8
TEXTO
10
1436.7083
20
10.0000
30
0
40
5.0000
1
15
72
1
73
2
11
1436.7083
21
10.0000
31
0
0
TEXT
8
TEXTO
10
1436.7083
20
1672.0000
30
0
40
5.0000
1
15
72
1
73
2
11
1436.7083
21
1672.0000
31
0
0
TEXT
8
TEXTO
10
1535.7917
20
10.0000
30
0
40
5.0000
1
16
72
1
73
2
11
1535.7917
21
10.0000
31
0
0
TEXT
8
TEXTO
10
1535.7917
20
1672.0000
30
0
40
5.0000
1
16
72
1
73
2
11
1535.7917
21
1672.0000
31
0
0
TEXT
8
TEXTO
10
1634.8750
20
10.0000
30
0
40
5.0000
1
17
72
1
73
2
11
1634.8750
21
10.0000
31
0
0
TEXT
8
TEXTO
10
1634.8750
20
1672.0000
30
0
40
5.0000
1
17
72
1
73
2
11
1634.8750
21
1672.0000
31
0
0
TEXT
8
TEXTO
10
1733.9583
20
10.0000
30
0
40
5.0000
1
18
72
1
73
2
11
1733.9583
21
10.0000
31
0
0
TEXT
8
TEXTO
10
1733.9583
20
1672.0000
30
0
40
5.0000
1
18
72
1
73
2
11
1733.9583
21
1672.0000
31
0
0
TEXT
8
TEXTO
10
1833.0417
20
10.0000
30
0
40
5.0000
1
19
72
1
73
2
11
1833.0417
21
10.0000
31
0
0
TEXT
8
TEXTO
10
1833.0417
20
1672.0000
30
0
40
5.0000
1
19
72
1
73
2
11
1833.0417
21
1672.0000
31
0
0
TEXT
8
TEXTO
10
1932.1250
20
10.0000
30
0
40
5.0000
1
20
72
1
73
2
11
1932.1250
21
10.0000
31
0
0
TEXT
8
TEXTO
10
1932.1250
20
1672.0000
30
0
40
5.0000
1
20
72
1
73
2
11
1932.1250
21
1672.0000
31
0
0
TEXT
8
TEXTO
10
2031.2083
20
10.0000
30
0
40
5.0000
1
21
72
1
73
2
11
2031.2083
21
10.0000
31
0
0
TEXT
8
TEXTO
10
2031.2083
20
1672.0000
30
0
40
5.0000
1
21
72
1
73
2
11
2031.2083
21
1672.0000
31
0
0
TEXT
8
TEXTO
10
2130.2917
20
10.0000
30
0
40
5.0000
1
22
72
1
73
2
11
2130.2917
21
10.0000
31
0
0
TEXT
8
TEXTO
10
2130.2917
20
1672.0000
30
0
40
5.0000
1
22
72
1
73
2
11
2130.2917
21
1672.0000
31
0
0
TEXT
8
TEXTO
10
2229.3750
20
10.0000
30
0
40
5.0000
1
23
72
1
73
2
11
2229.3750
21
10.0000
31
0
0
TEXT
8
TEXTO
10
2229.3750
20
1672.0000
30
0
40
5.0000
1
23
72
1
73
2
11
2229.3750
21
1672.0000
31
0
0
TEXT
8
TEXTO
10
2328.4583
20
10.0000
30
0
40
5.0000
1
24
72
1
73
2
11
2328.4583
21
10.0000
31
0
0
TEXT
8
TEXTO
10
2328.4583
20
1672.0000
30
0
40
5.0000
1
24
72
1
73
2
11
2328.4583
21
1672.0000
31
0
0
TEXT
8
TEXTO
10
10.0000
20
1629.4375
30
0
40
5.0000
1
A
72
1
73
2
11
10.0000
21
1629.4375
31
0
0
TEXT
8
TEXTO
10
2368.0000
20
1629.4375
30
0
40
5.0000
1
A
72
1
73
2
11
2368.0000
21
1629.4375
31
0
0
TEXT
8
TEXTO
10
10.0000
20
1524.3125
30
0
40
5.0000
1
B
72
1
73
2
11
10.0000
21
1524.3125
31
0
0
TEXT
8
TEXTO
10
2368.0000
20
1524.3125
30
0
40
5.0000
1
B
72
1
73
2
11
2368.0000
21
1524.3125
31
0
0
TEXT
8
TEXTO
10
10.0000
20
1419.1875
30
0
40
5.0000
1
C
72
1
73
2
11
10.0000
21
1419.1875
31
0
0
TEXT
8
TEXTO
10
2368.0000
20
1419.1875
30
0
40
5.0000
1
C
72
1
73
2
11
2368.0000
21
1419.1875
31
0
0
TEXT
8
TEXTO
10
10.0000
20
1314.0625
30
0
40
5.0000
1
D
72
1
73
2
11
10.0000
21
1314.0625
31
0
0
TEXT
8
TEXTO
10
2368.0000
20
1314.0625
30
0
40
5.0000
1
D
72
1
73
2
11
2368.0000
21
1314.0625
31
0
0
TEXT
8
TEXTO
10
10.0000
20
1208.9375
30
0
40
5.0000
1
E
72
1
73
2
11
10.0000
21
1208.9375
31
0
0
TEXT
8
TEXTO
10
2368.0000
20
1208.9375
30
0
40
5.0000
1
E
72
1
73
2
11
2368.0000
21
1208.9375
31
0
0
TEXT
8
TEXTO
10
10.0000
20
1103.8125
30
0
40
5.0000
1
F
72
1
73
2
11
10.0000
21
1103.8125
31
0
0
TEXT
8
TEXTO
10
2368.0000
20
1103.8125
30
0
40
5.0000
1
F
72
1
73
2
11
2368.0000
21
1103.8125
31
0
0
TEXT
8
TEXTO
10
10.0000
20
998.6875
30
0
40
5.0000
1
G
72
1
73
2
11
10.0000
21
998.6875
31
0
0
TEXT
8
TEXTO
10
2368.0000
20
998.6875
30
0
40
5.0000
1
G
72
1
73
2
11
2368.0000
21
998.6875
31
0
0
TEXT
8
TEXTO
10
10.0000
20
893.5625
30
0
40
5.0000
1
H
72
1
73
2
11
10.0000
21
893.5625
31
0
0
TEXT
8
TEXTO
10
2368.0000
20
893.5625
30
0
40
5.0000
1
H
72
1
73
2
11
2368.0000
21
893.5625
31
0
0
TEXT
8
TEXTO
10
10.0000
20
788.4375
30
0
40
5.0000
1
J
72
1
73
2
11
10.0000
21
788.4375
31
0
0
TEXT
8
TEXTO
10
2368.0000
20
788.4375
30
0
40
5.0000
1
J
72
1
73
2
11
2368.0000
21
788.4375
31
0
0
TEXT
8
TEXTO
10
10.0000
20
683.3125
30
0
40
5.0000
1
K
72
1
73
2
11
10.0000
21
683.3125
31
0
0
TEXT
8
TEXTO
10
2368.0000
20
683.3125
30
0
40
5.0000
1
K
72
1
73
2
11
2368.0000
21
683.3125
31
0
0
TEXT
8
TEXTO
10
10.0000
20
578.1875
30
0
40
5.0000
1
L
72
1
73
2
11
10.0000
21
578.1875
31
0
0
TEXT
8
TEXTO
10
2368.0000
20
578.1875
30
0
40
5.0000
1
L
72
1
73
2
11
2368.0000
21
578.1875
31
0
0
TEXT
8
TEXTO
10
10.0000
20
473.0625
30
0
40
5.0000
1
M
72
1
73
2
11
10.0000
21
473.0625
31
0
0
TEXT
8
TEXTO
10
2368.0000
20
473.0625
30
0
40
5.0000
1
M
72
1
73
2
11
2368.0000
21
473.0625
31
0
0
TEXT
8
TEXTO
10
10.0000
20
367.9375
30
0
40
5.0000
1
N
72
1
73
2
11
10.0000
21
367.9375
31
0
0
TEXT
8
TEXTO
10
2368.0000
20
367.9375
30
0
40
5.0000
1
N
72
1
73
2
11
2368.0000
21
367.9375
31
0
0
TEXT
8
TEXTO
10
10.0000
20
262.8125
30
0
40
5.0000
1
P
72
1
73
2
11
10.0000
21
262.8125
31
0
0
TEXT
8
TEXTO
10
2368.0000
20
262.8125
30
0
40
5.0000
1
P
72
1
73
2
11
2368.0000
21
262.8125
31
0
0
TEXT
8
TEXTO
10
10.0000
20
157.6875
30
0
40
5.0000
1
Q
72
1
73
2
11
10.0000
21
157.6875
31
0
0
TEXT
8
TEXTO
10
2368.0000
20
157.6875
30
0
40
5.0000
1
Q
72
1
73
2
11
2368.0000
21
157.6875
31
0
0
TEXT
8
TEXTO
10
10.0000
20
52.5625
30
0
40
5.0000
1
R
72
1
73
2
11
10.0000
21
52.5625
31
0
0
TEXT
8
TEXTO
10
2368.0000
20
52.5625
30
0
40
5.0000
1
R
72
1
73
2
11
2368.0000
21
52.5625
31
0
0
LINE
8
NORMA
10
1998.0000
20
20.0000
30
0
11
2358.0000
21
20.0000
31
0
0
LINE
8
NORMA
10
2358.0000
20
20.0000
30
0
11
2358.0000
21
104.0000
31
0
0
LINE
8
NORMA
10
2358.0000
20
104.0000
30
0
11
1998.0000
21
104.0000
31
0
0
LINE
8
NORMA
10
1998.0000
20
104.0000
30
0
11
1998.0000
21
20.0000
31
0
0
LINE
8
NORMA
10
2078.0000
20
20.0000
30
0
11
2078.0000
21
104.0000
31
0
0
LINE
8
NORMA
10
2266.0000
20
20.0000
30
0
11
2266.0000
21
104.0000
31
0
0
LINE
8
FINA
10
1998.0000
20
58.0000
30
0
11
2078.0000
21
58.0000
31
0
0
TEXT
8
TEXTO
10
2038.0000
20
87.6000
30
0
40
12.0000
1
foto3d
72
1
73
2
11
2038.0000
21
87.6000
31
0
0
LINE
8
FINA
10
2011.0000
20
77.2000
30
0
11
2065.0000
21
77.2000
31
0
0
TEXT
8
TEXTO
10
2038.0000
20
71.6000
30
0
40
2.6000
1
CAD · DISEÑO CAPA USER
72
1
73
2
11
2038.0000
21
71.6000
31
0
0
TEXT
8
TEXTO
10
2038.0000
20
65.2000
30
0
40
2.6000
1
ISO 5457 · 7200 · 129 · 5456-2
72
1
73
2
11
2038.0000
21
65.2000
31
0
0
TEXT
8
TEXTO
10
2038.0000
20
53.2000
30
0
40
2.8000
1
PROYECCIÓN — PRIMER DIEDRO
72
1
73
2
11
2038.0000
21
53.2000
31
0
0
CIRCLE
8
TEXTO
10
2028.8000
20
35.0000
30
0
40
5.9800
0
CIRCLE
8
TEXTO
10
2028.8000
20
35.0000
30
0
40
3.2200
0
LINE
8
TEXTO
10
2038.9200
20
29.0200
30
0
11
2053.1800
21
31.7800
31
0
0
LINE
8
TEXTO
10
2053.1800
20
31.7800
30
0
11
2053.1800
21
38.2200
31
0
0
LINE
8
TEXTO
10
2053.1800
20
38.2200
30
0
11
2038.9200
21
40.9800
31
0
0
LINE
8
TEXTO
10
2038.9200
20
40.9800
30
0
11
2038.9200
21
29.0200
31
0
0
LINE
8
FINA
10
2020.0600
20
35.0000
30
0
11
2055.9400
21
35.0000
31
0
0
LINE
8
FINA
10
2078.0000
20
78.0000
30
0
11
2266.0000
21
78.0000
31
0
0
LINE
8
FINA
10
2078.0000
20
58.0000
30
0
11
2266.0000
21
58.0000
31
0
0
LINE
8
FINA
10
2078.0000
20
38.0000
30
0
11
2266.0000
21
38.0000
31
0
0
LINE
8
FINA
10
2172.0000
20
58.0000
30
0
11
2172.0000
21
78.0000
31
0
0
LINE
8
FINA
10
2190.0000
20
38.0000
30
0
11
2190.0000
21
58.0000
31
0
0
TEXT
8
TEXTO
10
2080.6000
20
99.2000
30
0
40
2.8000
1
DESIGNACIÓN
0
TEXT
8
TEXTO
10
2081.2000
20
88.2000
30
0
40
4.6627
1
GTD-02 · Guarda inferior unica — artesa U chapa 1.5 (800×504) (x1) — DESARROL…
72
0
73
2
11
2081.2000
21
88.2000
31
0
0
TEXT
8
TEXTO
10
2080.6000
20
73.2000
30
0
40
2.8000
1
PROYECTO
0
TEXT
8
TEXTO
10
2081.2000
20
65.2000
30
0
40
4.0000
1
CV-GT-800 · Movex 530 GT (friction top) 18 in…
72
0
73
2
11
2081.2000
21
65.2000
31
0
0
TEXT
8
TEXTO
10
2174.6000
20
73.2000
30
0
40
2.8000
1
FUENTE
0
TEXT
8
TEXTO
10
2175.2000
20
65.2000
30
0
40
4.8000
1
chapa plegada — capa user
72
0
73
2
11
2175.2000
21
65.2000
31
0
0
TEXT
8
TEXTO
10
2080.6000
20
53.2000
30
0
40
2.8000
1
VERIFICACIÓN DE ESCALA
0
TEXT
8
TEXTO
10
2081.2000
20
45.2000
30
0
40
4.8000
1
CAD EN MM (CAPA USER)
72
0
73
2
11
2081.2000
21
45.2000
31
0
0
TEXT
8
TEXTO
10
2192.6000
20
53.2000
30
0
40
2.8000
1
PLIEGUES
0
TEXT
8
TEXTO
10
2193.2000
20
45.2000
30
0
40
5.2000
1
4
72
0
73
2
11
2193.2000
21
45.2000
31
0
0
TEXT
8
TEXTO
10
2080.6000
20
33.2000
30
0
40
2.8000
1
NOTA
0
TEXT
8
TEXTO
10
2081.2000
20
26.2000
30
0
40
4.2714
1
Acero S275JR e1.5 — terminación PINTADO RAL 7035 · e1.5 · tol. gral. ISO 2768-mK · K=0.44
72
0
73
2
11
2081.2000
21
26.2000
31
0
0
LINE
8
FINA
10
2266.0000
20
78.0000
30
0
11
2358.0000
21
78.0000
31
0
0
LINE
8
FINA
10
2266.0000
20
58.0000
30
0
11
2358.0000
21
58.0000
31
0
0
LINE
8
FINA
10
2266.0000
20
38.0000
30
0
11
2358.0000
21
38.0000
31
0
0
LINE
8
FINA
10
2312.0000
20
58.0000
30
0
11
2312.0000
21
78.0000
31
0
0
LINE
8
FINA
10
2318.0000
20
38.0000
30
0
11
2318.0000
21
58.0000
31
0
0
TEXT
8
TEXTO
10
2268.6000
20
99.2000
30
0
40
2.8000
1
ESCALA
0
TEXT
8
TEXTO
10
2312.0000
20
88.2000
30
0
40
10.0000
1
1:2
72
1
73
2
11
2312.0000
21
88.2000
31
0
0
TEXT
8
TEXTO
10
2268.6000
20
73.2000
30
0
40
2.8000
1
FORMATO
0
TEXT
8
TEXTO
10
2289.0000
20
65.2000
30
0
40
6.0000
1
A0
72
1
73
2
11
2289.0000
21
65.2000
31
0
0
TEXT
8
TEXTO
10
2314.6000
20
73.2000
30
0
40
2.8000
1
LÁMINA
0
TEXT
8
TEXTO
10
2335.0000
20
65.2000
30
0
40
6.0000
1
1 / 1
72
1
73
2
11
2335.0000
21
65.2000
31
0
0
TEXT
8
TEXTO
10
2268.6000
20
53.2000
30
0
40
2.8000
1
FECHA
0
TEXT
8
TEXTO
10
2292.0000
20
45.2000
30
0
40
5.2000
1
2026-08-12
72
1
73
2
11
2292.0000
21
45.2000
31
0
0
TEXT
8
TEXTO
10
2320.6000
20
53.2000
30
0
40
2.8000
1
UNIDADES
0
TEXT
8
TEXTO
10
2338.0000
20
45.2000
30
0
40
6.0000
1
mm
72
1
73
2
11
2338.0000
21
45.2000
31
0
0
TEXT
8
TEXTO
10
2268.6000
20
33.2000
30
0
40
2.8000
1
Nº DE PLANO
0
TEXT
8
TEXTO
10
2312.0000
20
26.2000
30
0
40
5.2000
1
GTD-02
72
1
73
2
11
2312.0000
21
26.2000
31
0
0
ENDSEC
0
EOF
