0
SECTION
2
HEADER
9
$ACADVER
1
AC1009
9
$DWGCODEPAGE
3
ANSI_1252
0
ENDSEC
0
SECTION
2
TABLES
0
TABLE
2
LTYPE
70
3
0
LTYPE
2
CONTINUOUS
70
0
3
Solid line
72
65
73
0
40
0
0
LTYPE
2
DASHED
70
0
3
Segmentada __ __ __
72
65
73
2
40
6
49
4
49
-2
0
LTYPE
2
CENTER
70
0
3
Centro ____ _ ____
72
65
73
4
40
11
49
7
49
-1.2
49
1.2
49
-1.2
0
ENDTAB
0
TABLE
2
LAYER
70
9
0
LAYER
2
SOMBRA
70
0
62
8
6
CONTINUOUS
0
LAYER
2
NORMA
70
0
62
7
6
CONTINUOUS
0
LAYER
2
FINA
70
0
62
7
6
CONTINUOUS
0
LAYER
2
VISIBLE
70
0
62
7
6
CONTINUOUS
0
LAYER
2
COTAS
70
0
62
7
6
CONTINUOUS
0
LAYER
2
TEXTO
70
0
62
7
6
CONTINUOUS
0
LAYER
2
PLIEGUE
70
0
62
1
6
DASHED
0
LAYER
2
OCULTA
70
0
62
7
6
DASHED
0
LAYER
2
EJE
70
0
62
4
6
CENTER
0
ENDTAB
0
ENDSEC
0
SECTION
2
ENTITIES
0
LINE
8
VISIBLE
10
182.0000
20
106.6050
30
0
11
248.0000
21
106.6050
31
0
0
LINE
8
VISIBLE
10
248.0000
20
106.6050
30
0
11
316.5000
21
176.6050
31
0
0
LINE
8
VISIBLE
10
316.5000
20
176.6050
30
0
11
316.5000
21
237.3950
31
0
0
LINE
8
VISIBLE
10
316.5000
20
237.3950
30
0
11
113.5000
21
237.3950
31
0
0
LINE
8
VISIBLE
10
113.5000
20
237.3950
30
0
11
113.5000
21
176.6050
31
0
0
LINE
8
VISIBLE
10
113.5000
20
176.6050
30
0
11
182.0000
21
106.6050
31
0
0
CIRCLE
8
VISIBLE
10
215.0000
20
118.9050
30
0
40
5.5000
0
CIRCLE
8
VISIBLE
10
260.1200
20
144.9550
30
0
40
5.5000
0
CIRCLE
8
VISIBLE
10
169.8800
20
144.9550
30
0
40
5.5000
0
LINE
8
VISIBLE
10
256.4300
20
158.9150
30
0
11
253.6700
21
161.5950
31
0
0
LINE
8
VISIBLE
10
253.6700
20
161.5950
30
0
11
250.7300
21
164.0850
31
0
0
LINE
8
VISIBLE
10
250.7300
20
164.0850
30
0
11
247.6200
21
166.3750
31
0
0
LINE
8
VISIBLE
10
247.6200
20
166.3750
30
0
11
244.3800
21
168.4450
31
0
0
LINE
8
VISIBLE
10
244.3800
20
168.4450
30
0
11
241.0000
21
170.3050
31
0
0
LINE
8
VISIBLE
10
241.0000
20
170.3050
30
0
11
237.5100
21
171.9250
31
0
0
LINE
8
VISIBLE
10
237.5100
20
171.9250
30
0
11
233.9100
21
173.3150
31
0
0
LINE
8
VISIBLE
10
233.9100
20
173.3150
30
0
11
230.2300
21
174.4550
31
0
0
LINE
8
VISIBLE
10
230.2300
20
174.4550
30
0
11
226.4800
21
175.3450
31
0
0
LINE
8
VISIBLE
10
226.4800
20
175.3450
30
0
11
222.6800
21
175.9950
31
0
0
LINE
8
VISIBLE
10
222.6800
20
175.9950
30
0
11
218.8500
21
176.3750
31
0
0
LINE
8
VISIBLE
10
218.8500
20
176.3750
30
0
11
215.0000
21
176.5050
31
0
0
LINE
8
VISIBLE
10
215.0000
20
176.5050
30
0
11
211.1500
21
176.3750
31
0
0
LINE
8
VISIBLE
10
211.1500
20
176.3750
30
0
11
207.3200
21
175.9950
31
0
0
LINE
8
VISIBLE
10
207.3200
20
175.9950
30
0
11
203.5200
21
175.3450
31
0
0
LINE
8
VISIBLE
10
203.5200
20
175.3450
30
0
11
199.7700
21
174.4550
31
0
0
LINE
8
VISIBLE
10
199.7700
20
174.4550
30
0
11
196.0900
21
173.3150
31
0
0
LINE
8
VISIBLE
10
196.0900
20
173.3150
30
0
11
192.4900
21
171.9250
31
0
0
LINE
8
VISIBLE
10
192.4900
20
171.9250
30
0
11
189.0000
21
170.3050
31
0
0
LINE
8
VISIBLE
10
189.0000
20
170.3050
30
0
11
185.6200
21
168.4450
31
0
0
LINE
8
VISIBLE
10
185.6200
20
168.4450
30
0
11
182.3800
21
166.3750
31
0
0
LINE
8
VISIBLE
10
182.3800
20
166.3750
30
0
11
179.2700
21
164.0850
31
0
0
LINE
8
VISIBLE
10
179.2700
20
164.0850
30
0
11
176.3300
21
161.5950
31
0
0
LINE
8
VISIBLE
10
176.3300
20
161.5950
30
0
11
173.5700
21
158.9150
31
0
0
LINE
8
VISIBLE
10
173.5700
20
158.9150
30
0
11
181.4800
21
151.2750
31
0
0
LINE
8
VISIBLE
10
181.4800
20
151.2750
30
0
11
183.7200
21
153.4450
31
0
0
LINE
8
VISIBLE
10
183.7200
20
153.4450
30
0
11
186.1000
21
155.4550
31
0
0
LINE
8
VISIBLE
10
186.1000
20
155.4550
30
0
11
188.6100
21
157.3050
31
0
0
LINE
8
VISIBLE
10
188.6100
20
157.3050
30
0
11
191.2300
21
158.9850
31
0
0
LINE
8
VISIBLE
10
191.2300
20
158.9850
30
0
11
193.9600
21
160.4850
31
0
0
LINE
8
VISIBLE
10
193.9600
20
160.4850
30
0
11
196.7900
21
161.8050
31
0
0
LINE
8
VISIBLE
10
196.7900
20
161.8050
30
0
11
199.7000
21
162.9250
31
0
0
LINE
8
VISIBLE
10
199.7000
20
162.9250
30
0
11
202.6800
21
163.8450
31
0
0
LINE
8
VISIBLE
10
202.6800
20
163.8450
30
0
11
205.7100
21
164.5650
31
0
0
LINE
8
VISIBLE
10
205.7100
20
164.5650
30
0
11
208.7800
21
165.0850
31
0
0
LINE
8
VISIBLE
10
208.7800
20
165.0850
30
0
11
211.8800
21
165.4050
31
0
0
LINE
8
VISIBLE
10
211.8800
20
165.4050
30
0
11
215.0000
21
165.5050
31
0
0
LINE
8
VISIBLE
10
215.0000
20
165.5050
30
0
11
218.1200
21
165.4050
31
0
0
LINE
8
VISIBLE
10
218.1200
20
165.4050
30
0
11
221.2200
21
165.0850
31
0
0
LINE
8
VISIBLE
10
221.2200
20
165.0850
30
0
11
224.2900
21
164.5650
31
0
0
LINE
8
VISIBLE
10
224.2900
20
164.5650
30
0
11
227.3200
21
163.8450
31
0
0
LINE
8
VISIBLE
10
227.3200
20
163.8450
30
0
11
230.3000
21
162.9250
31
0
0
LINE
8
VISIBLE
10
230.3000
20
162.9250
30
0
11
233.2100
21
161.8050
31
0
0
LINE
8
VISIBLE
10
233.2100
20
161.8050
30
0
11
236.0400
21
160.4850
31
0
0
LINE
8
VISIBLE
10
236.0400
20
160.4850
30
0
11
238.7700
21
158.9850
31
0
0
LINE
8
VISIBLE
10
238.7700
20
158.9850
30
0
11
241.3900
21
157.3050
31
0
0
LINE
8
VISIBLE
10
241.3900
20
157.3050
30
0
11
243.9000
21
155.4550
31
0
0
LINE
8
VISIBLE
10
243.9000
20
155.4550
30
0
11
246.2800
21
153.4450
31
0
0
LINE
8
VISIBLE
10
246.2800
20
153.4450
30
0
11
248.5200
21
151.2750
31
0
0
LINE
8
VISIBLE
10
248.5200
20
151.2750
30
0
11
256.4300
21
158.9150
31
0
0
LINE
8
VISIBLE
10
135.8000
20
213.3950
30
0
11
146.8000
21
213.3950
31
0
0
LINE
8
VISIBLE
10
146.8000
20
213.3950
30
0
11
146.8000
21
217.3950
31
0
0
LINE
8
VISIBLE
10
146.8000
20
217.3950
30
0
11
157.3000
21
217.3950
31
0
0
LINE
8
VISIBLE
10
157.3000
20
217.3950
30
0
11
157.3000
21
228.3950
31
0
0
LINE
8
VISIBLE
10
157.3000
20
228.3950
30
0
11
146.8000
21
228.3950
31
0
0
LINE
8
VISIBLE
10
146.8000
20
228.3950
30
0
11
146.8000
21
232.3950
31
0
0
LINE
8
VISIBLE
10
146.8000
20
232.3950
30
0
11
135.8000
21
232.3950
31
0
0
LINE
8
VISIBLE
10
135.8000
20
232.3950
30
0
11
135.8000
21
228.3950
31
0
0
LINE
8
VISIBLE
10
135.8000
20
228.3950
30
0
11
125.3000
21
228.3950
31
0
0
LINE
8
VISIBLE
10
125.3000
20
228.3950
30
0
11
125.3000
21
217.3950
31
0
0
LINE
8
VISIBLE
10
125.3000
20
217.3950
30
0
11
135.8000
21
217.3950
31
0
0
LINE
8
VISIBLE
10
135.8000
20
217.3950
30
0
11
135.8000
21
213.3950
31
0
0
LINE
8
VISIBLE
10
187.9000
20
213.3950
30
0
11
198.9000
21
213.3950
31
0
0
LINE
8
VISIBLE
10
198.9000
20
213.3950
30
0
11
198.9000
21
217.3950
31
0
0
LINE
8
VISIBLE
10
198.9000
20
217.3950
30
0
11
209.4000
21
217.3950
31
0
0
LINE
8
VISIBLE
10
209.4000
20
217.3950
30
0
11
209.4000
21
228.3950
31
0
0
LINE
8
VISIBLE
10
209.4000
20
228.3950
30
0
11
198.9000
21
228.3950
31
0
0
LINE
8
VISIBLE
10
198.9000
20
228.3950
30
0
11
198.9000
21
232.3950
31
0
0
LINE
8
VISIBLE
10
198.9000
20
232.3950
30
0
11
187.9000
21
232.3950
31
0
0
LINE
8
VISIBLE
10
187.9000
20
232.3950
30
0
11
187.9000
21
228.3950
31
0
0
LINE
8
VISIBLE
10
187.9000
20
228.3950
30
0
11
177.4000
21
228.3950
31
0
0
LINE
8
VISIBLE
10
177.4000
20
228.3950
30
0
11
177.4000
21
217.3950
31
0
0
LINE
8
VISIBLE
10
177.4000
20
217.3950
30
0
11
187.9000
21
217.3950
31
0
0
LINE
8
VISIBLE
10
187.9000
20
217.3950
30
0
11
187.9000
21
213.3950
31
0
0
LINE
8
VISIBLE
10
231.1000
20
213.3950
30
0
11
242.1000
21
213.3950
31
0
0
LINE
8
VISIBLE
10
242.1000
20
213.3950
30
0
11
242.1000
21
217.3950
31
0
0
LINE
8
VISIBLE
10
242.1000
20
217.3950
30
0
11
252.6000
21
217.3950
31
0
0
LINE
8
VISIBLE
10
252.6000
20
217.3950
30
0
11
252.6000
21
228.3950
31
0
0
LINE
8
VISIBLE
10
252.6000
20
228.3950
30
0
11
242.1000
21
228.3950
31
0
0
LINE
8
VISIBLE
10
242.1000
20
228.3950
30
0
11
242.1000
21
232.3950
31
0
0
LINE
8
VISIBLE
10
242.1000
20
232.3950
30
0
11
231.1000
21
232.3950
31
0
0
LINE
8
VISIBLE
10
231.1000
20
232.3950
30
0
11
231.1000
21
228.3950
31
0
0
LINE
8
VISIBLE
10
231.1000
20
228.3950
30
0
11
220.6000
21
228.3950
31
0
0
LINE
8
VISIBLE
10
220.6000
20
228.3950
30
0
11
220.6000
21
217.3950
31
0
0
LINE
8
VISIBLE
10
220.6000
20
217.3950
30
0
11
231.1000
21
217.3950
31
0
0
LINE
8
VISIBLE
10
231.1000
20
217.3950
30
0
11
231.1000
21
213.3950
31
0
0
LINE
8
VISIBLE
10
283.2000
20
213.3950
30
0
11
294.2000
21
213.3950
31
0
0
LINE
8
VISIBLE
10
294.2000
20
213.3950
30
0
11
294.2000
21
217.3950
31
0
0
LINE
8
VISIBLE
10
294.2000
20
217.3950
30
0
11
304.7000
21
217.3950
31
0
0
LINE
8
VISIBLE
10
304.7000
20
217.3950
30
0
11
304.7000
21
228.3950
31
0
0
LINE
8
VISIBLE
10
304.7000
20
228.3950
30
0
11
294.2000
21
228.3950
31
0
0
LINE
8
VISIBLE
10
294.2000
20
228.3950
30
0
11
294.2000
21
232.3950
31
0
0
LINE
8
VISIBLE
10
294.2000
20
232.3950
30
0
11
283.2000
21
232.3950
31
0
0
LINE
8
VISIBLE
10
283.2000
20
232.3950
30
0
11
283.2000
21
228.3950
31
0
0
LINE
8
VISIBLE
10
283.2000
20
228.3950
30
0
11
272.7000
21
228.3950
31
0
0
LINE
8
VISIBLE
10
272.7000
20
228.3950
30
0
11
272.7000
21
217.3950
31
0
0
LINE
8
VISIBLE
10
272.7000
20
217.3950
30
0
11
283.2000
21
217.3950
31
0
0
LINE
8
VISIBLE
10
283.2000
20
217.3950
30
0
11
283.2000
21
213.3950
31
0
0
TEXT
8
TEXTO
10
113.5000
20
93.6050
30
0
40
3.2000
1
BARRENOS (corte láser): 
0
TEXT
8
TEXTO
10
150.9272
20
93.6050
30
0
40
3.2000
1
3× Ø11
0
TEXT
8
TEXTO
10
113.5000
20
89.1050
30
0
40
2.8000
1
POSICIONES: DXF de corte a escala REAL 1:1 + _agujeros.csv (X·Y·Ø de cada barreno) — contornos interiores ídem
0
LINE
8
FINA
10
113.5000
20
201.6050
30
0
11
316.5000
21
201.6050
31
0
0
LINE
8
PLIEGUE
10
113.5000
20
204.9950
30
0
11
316.5000
21
204.9950
31
0
0
LINE
8
FINA
10
113.5000
20
208.3950
30
0
11
316.5000
21
208.3950
31
0
0
TEXT
8
TEXTO
10
215.0000
20
210.9950
30
0
40
2.8000
1
PLEGAR ARRIBA 90° R3 (ala de apriete al canal)
72
1
73
2
11
215.0000
21
210.9950
31
0
0
LINE
8
COTAS
10
113.5000
20
105.6050
30
0
11
113.5000
21
96.1050
31
0
0
LINE
8
COTAS
10
316.5000
20
105.6050
30
0
11
316.5000
21
96.1050
31
0
0
LINE
8
COTAS
10
113.5000
20
97.6050
30
0
11
316.5000
21
97.6050
31
0
0
SOLID
8
COTAS
10
113.5000
20
97.6050
30
0
11
116.0000
21
98.0550
31
0
12
116.0000
22
97.1550
32
0
13
116.0000
23
97.1550
33
0
0
SOLID
8
COTAS
10
316.5000
20
97.6050
30
0
11
314.0000
21
98.0550
31
0
12
314.0000
22
97.1550
32
0
13
314.0000
23
97.1550
33
0
0
TEXT
8
COTAS
10
215.0000
20
99.8050
30
0
40
3.5000
1
203
72
1
73
2
11
215.0000
21
99.8050
31
0
0
LINE
8
COTAS
10
317.5000
20
106.6050
30
0
11
327.0000
21
106.6050
31
0
0
LINE
8
COTAS
10
317.5000
20
237.3950
30
0
11
327.0000
21
237.3950
31
0
0
LINE
8
COTAS
10
325.5000
20
106.6050
30
0
11
325.5000
21
237.3950
31
0
0
SOLID
8
COTAS
10
325.5000
20
106.6050
30
0
11
325.9500
21
109.1050
31
0
12
325.0500
22
109.1050
32
0
13
325.0500
23
109.1050
33
0
0
SOLID
8
COTAS
10
325.5000
20
237.3950
30
0
11
325.9500
21
234.8950
31
0
12
325.0500
22
234.8950
32
0
13
325.0500
23
234.8950
33
0
0
TEXT
8
COTAS
10
327.7000
20
172.0000
30
0
40
3.5000
1
130.8
72
1
73
2
11
327.7000
21
172.0000
31
0
0
LINE
8
COTAS
10
112.5000
20
106.6050
30
0
11
105.0000
21
106.6050
31
0
0
LINE
8
COTAS
10
112.5000
20
204.9950
30
0
11
105.0000
21
204.9950
31
0
0
LINE
8
COTAS
10
106.5000
20
106.6050
30
0
11
106.5000
21
204.9950
31
0
0
SOLID
8
COTAS
10
106.5000
20
106.6050
30
0
11
106.9500
21
109.1050
31
0
12
106.0500
22
109.1050
32
0
13
106.0500
23
109.1050
33
0
0
SOLID
8
COTAS
10
106.5000
20
204.9950
30
0
11
106.9500
21
202.4950
31
0
12
106.0500
22
202.4950
32
0
13
106.0500
23
202.4950
33
0
0
TEXT
8
COTAS
10
108.7000
20
155.8000
30
0
40
3.5000
1
98.4
72
1
73
2
11
108.7000
21
155.8000
31
0
0
TEXT
8
TEXTO
10
113.5000
20
247.8950
30
0
40
3.5000
1
DESARROLLO DE CHAPA — BA = ang·(R + K·t) · K=0.44 · R=3 · t=3 ? BA(90°)=6.79 mm
0
TEXT
8
TEXTO
10
113.5000
20
242.3950
30
0
40
4.0000
1
ESPESOR DE CHAPA e = 3 mm (constante en toda la pieza)
0
LINE
8
FINA
10
0.0000
20
0.0000
30
0
11
420.0000
21
0.0000
31
0
0
LINE
8
FINA
10
420.0000
20
0.0000
30
0
11
420.0000
21
297.0000
31
0
0
LINE
8
FINA
10
420.0000
20
297.0000
30
0
11
0.0000
21
297.0000
31
0
0
LINE
8
FINA
10
0.0000
20
297.0000
30
0
11
0.0000
21
0.0000
31
0
0
LINE
8
NORMA
10
20.0000
20
10.0000
30
0
11
410.0000
21
10.0000
31
0
0
LINE
8
NORMA
10
410.0000
20
10.0000
30
0
11
410.0000
21
287.0000
31
0
0
LINE
8
NORMA
10
410.0000
20
287.0000
30
0
11
20.0000
21
287.0000
31
0
0
LINE
8
NORMA
10
20.0000
20
287.0000
30
0
11
20.0000
21
10.0000
31
0
0
LINE
8
NORMA
10
0.0000
20
148.5000
30
0
11
25.0000
21
148.5000
31
0
0
LINE
8
NORMA
10
420.0000
20
148.5000
30
0
11
405.0000
21
148.5000
31
0
0
LINE
8
NORMA
10
210.0000
20
0.0000
30
0
11
210.0000
21
15.0000
31
0
0
LINE
8
NORMA
10
210.0000
20
297.0000
30
0
11
210.0000
21
282.0000
31
0
0
LINE
8
FINA
10
52.5000
20
0.0000
30
0
11
52.5000
21
10.0000
31
0
0
LINE
8
FINA
10
52.5000
20
287.0000
30
0
11
52.5000
21
297.0000
31
0
0
LINE
8
FINA
10
105.0000
20
0.0000
30
0
11
105.0000
21
10.0000
31
0
0
LINE
8
FINA
10
105.0000
20
287.0000
30
0
11
105.0000
21
297.0000
31
0
0
LINE
8
FINA
10
157.5000
20
0.0000
30
0
11
157.5000
21
10.0000
31
0
0
LINE
8
FINA
10
157.5000
20
287.0000
30
0
11
157.5000
21
297.0000
31
0
0
LINE
8
FINA
10
210.0000
20
0.0000
30
0
11
210.0000
21
10.0000
31
0
0
LINE
8
FINA
10
210.0000
20
287.0000
30
0
11
210.0000
21
297.0000
31
0
0
LINE
8
FINA
10
262.5000
20
0.0000
30
0
11
262.5000
21
10.0000
31
0
0
LINE
8
FINA
10
262.5000
20
287.0000
30
0
11
262.5000
21
297.0000
31
0
0
LINE
8
FINA
10
315.0000
20
0.0000
30
0
11
315.0000
21
10.0000
31
0
0
LINE
8
FINA
10
315.0000
20
287.0000
30
0
11
315.0000
21
297.0000
31
0
0
LINE
8
FINA
10
367.5000
20
0.0000
30
0
11
367.5000
21
10.0000
31
0
0
LINE
8
FINA
10
367.5000
20
287.0000
30
0
11
367.5000
21
297.0000
31
0
0
LINE
8
FINA
10
0.0000
20
49.5000
30
0
11
10.0000
21
49.5000
31
0
0
LINE
8
FINA
10
410.0000
20
49.5000
30
0
11
420.0000
21
49.5000
31
0
0
LINE
8
FINA
10
0.0000
20
99.0000
30
0
11
10.0000
21
99.0000
31
0
0
LINE
8
FINA
10
410.0000
20
99.0000
30
0
11
420.0000
21
99.0000
31
0
0
LINE
8
FINA
10
0.0000
20
148.5000
30
0
11
10.0000
21
148.5000
31
0
0
LINE
8
FINA
10
410.0000
20
148.5000
30
0
11
420.0000
21
148.5000
31
0
0
LINE
8
FINA
10
0.0000
20
198.0000
30
0
11
10.0000
21
198.0000
31
0
0
LINE
8
FINA
10
410.0000
20
198.0000
30
0
11
420.0000
21
198.0000
31
0
0
LINE
8
FINA
10
0.0000
20
247.5000
30
0
11
10.0000
21
247.5000
31
0
0
LINE
8
FINA
10
410.0000
20
247.5000
30
0
11
420.0000
21
247.5000
31
0
0
TEXT
8
TEXTO
10
26.2500
20
5.0000
30
0
40
2.5000
1
1
72
1
73
2
11
26.2500
21
5.0000
31
0
0
TEXT
8
TEXTO
10
26.2500
20
292.0000
30
0
40
2.5000
1
1
72
1
73
2
11
26.2500
21
292.0000
31
0
0
TEXT
8
TEXTO
10
78.7500
20
5.0000
30
0
40
2.5000
1
2
72
1
73
2
11
78.7500
21
5.0000
31
0
0
TEXT
8
TEXTO
10
78.7500
20
292.0000
30
0
40
2.5000
1
2
72
1
73
2
11
78.7500
21
292.0000
31
0
0
TEXT
8
TEXTO
10
131.2500
20
5.0000
30
0
40
2.5000
1
3
72
1
73
2
11
131.2500
21
5.0000
31
0
0
TEXT
8
TEXTO
10
131.2500
20
292.0000
30
0
40
2.5000
1
3
72
1
73
2
11
131.2500
21
292.0000
31
0
0
TEXT
8
TEXTO
10
183.7500
20
5.0000
30
0
40
2.5000
1
4
72
1
73
2
11
183.7500
21
5.0000
31
0
0
TEXT
8
TEXTO
10
183.7500
20
292.0000
30
0
40
2.5000
1
4
72
1
73
2
11
183.7500
21
292.0000
31
0
0
TEXT
8
TEXTO
10
236.2500
20
5.0000
30
0
40
2.5000
1
5
72
1
73
2
11
236.2500
21
5.0000
31
0
0
TEXT
8
TEXTO
10
236.2500
20
292.0000
30
0
40
2.5000
1
5
72
1
73
2
11
236.2500
21
292.0000
31
0
0
TEXT
8
TEXTO
10
288.7500
20
5.0000
30
0
40
2.5000
1
6
72
1
73
2
11
288.7500
21
5.0000
31
0
0
TEXT
8
TEXTO
10
288.7500
20
292.0000
30
0
40
2.5000
1
6
72
1
73
2
11
288.7500
21
292.0000
31
0
0
TEXT
8
TEXTO
10
341.2500
20
5.0000
30
0
40
2.5000
1
7
72
1
73
2
11
341.2500
21
5.0000
31
0
0
TEXT
8
TEXTO
10
341.2500
20
292.0000
30
0
40
2.5000
1
7
72
1
73
2
11
341.2500
21
292.0000
31
0
0
TEXT
8
TEXTO
10
393.7500
20
5.0000
30
0
40
2.5000
1
8
72
1
73
2
11
393.7500
21
5.0000
31
0
0
TEXT
8
TEXTO
10
393.7500
20
292.0000
30
0
40
2.5000
1
8
72
1
73
2
11
393.7500
21
292.0000
31
0
0
TEXT
8
TEXTO
10
5.0000
20
272.2500
30
0
40
2.5000
1
A
72
1
73
2
11
5.0000
21
272.2500
31
0
0
TEXT
8
TEXTO
10
415.0000
20
272.2500
30
0
40
2.5000
1
A
72
1
73
2
11
415.0000
21
272.2500
31
0
0
TEXT
8
TEXTO
10
5.0000
20
222.7500
30
0
40
2.5000
1
B
72
1
73
2
11
5.0000
21
222.7500
31
0
0
TEXT
8
TEXTO
10
415.0000
20
222.7500
30
0
40
2.5000
1
B
72
1
73
2
11
415.0000
21
222.7500
31
0
0
TEXT
8
TEXTO
10
5.0000
20
173.2500
30
0
40
2.5000
1
C
72
1
73
2
11
5.0000
21
173.2500
31
0
0
TEXT
8
TEXTO
10
415.0000
20
173.2500
30
0
40
2.5000
1
C
72
1
73
2
11
415.0000
21
173.2500
31
0
0
TEXT
8
TEXTO
10
5.0000
20
123.7500
30
0
40
2.5000
1
D
72
1
73
2
11
5.0000
21
123.7500
31
0
0
TEXT
8
TEXTO
10
415.0000
20
123.7500
30
0
40
2.5000
1
D
72
1
73
2
11
415.0000
21
123.7500
31
0
0
TEXT
8
TEXTO
10
5.0000
20
74.2500
30
0
40
2.5000
1
E
72
1
73
2
11
5.0000
21
74.2500
31
0
0
TEXT
8
TEXTO
10
415.0000
20
74.2500
30
0
40
2.5000
1
E
72
1
73
2
11
415.0000
21
74.2500
31
0
0
TEXT
8
TEXTO
10
5.0000
20
24.7500
30
0
40
2.5000
1
F
72
1
73
2
11
5.0000
21
24.7500
31
0
0
TEXT
8
TEXTO
10
415.0000
20
24.7500
30
0
40
2.5000
1
F
72
1
73
2
11
415.0000
21
24.7500
31
0
0
LINE
8
NORMA
10
230.0000
20
10.0000
30
0
11
410.0000
21
10.0000
31
0
0
LINE
8
NORMA
10
410.0000
20
10.0000
30
0
11
410.0000
21
52.0000
31
0
0
LINE
8
NORMA
10
410.0000
20
52.0000
30
0
11
230.0000
21
52.0000
31
0
0
LINE
8
NORMA
10
230.0000
20
52.0000
30
0
11
230.0000
21
10.0000
31
0
0
LINE
8
NORMA
10
270.0000
20
10.0000
30
0
11
270.0000
21
52.0000
31
0
0
LINE
8
NORMA
10
364.0000
20
10.0000
30
0
11
364.0000
21
52.0000
31
0
0
LINE
8
FINA
10
230.0000
20
29.0000
30
0
11
270.0000
21
29.0000
31
0
0
TEXT
8
TEXTO
10
250.0000
20
43.4000
30
0
40
4.9000
1
ConveyOne
72
1
73
2
11
250.0000
21
43.4000
31
0
0
LINE
8
FINA
10
236.5000
20
38.6000
30
0
11
263.5000
21
38.6000
31
0
0
TEXT
8
TEXTO
10
250.0000
20
35.8000
30
0
40
1.3000
1
CAD · DISEÑO CAPA USER
72
1
73
2
11
250.0000
21
35.8000
31
0
0
TEXT
8
TEXTO
10
250.0000
20
32.6000
30
0
40
1.3000
1
ISO 5457 · 7200 · 129 · 5456-2
72
1
73
2
11
250.0000
21
32.6000
31
0
0
TEXT
8
TEXTO
10
250.0000
20
26.6000
30
0
40
1.4000
1
PROYECCIÓN — PRIMER DIEDRO
72
1
73
2
11
250.0000
21
26.6000
31
0
0
CIRCLE
8
TEXTO
10
245.4000
20
17.5000
30
0
40
2.9900
0
CIRCLE
8
TEXTO
10
245.4000
20
17.5000
30
0
40
1.6100
0
LINE
8
TEXTO
10
250.4600
20
14.5100
30
0
11
257.5900
21
15.8900
31
0
0
LINE
8
TEXTO
10
257.5900
20
15.8900
30
0
11
257.5900
21
19.1100
31
0
0
LINE
8
TEXTO
10
257.5900
20
19.1100
30
0
11
250.4600
21
20.4900
31
0
0
LINE
8
TEXTO
10
250.4600
20
20.4900
30
0
11
250.4600
21
14.5100
31
0
0
LINE
8
FINA
10
241.0300
20
17.5000
30
0
11
258.9700
21
17.5000
31
0
0
LINE
8
FINA
10
270.0000
20
39.0000
30
0
11
364.0000
21
39.0000
31
0
0
LINE
8
FINA
10
270.0000
20
29.0000
30
0
11
364.0000
21
29.0000
31
0
0
LINE
8
FINA
10
270.0000
20
19.0000
30
0
11
364.0000
21
19.0000
31
0
0
LINE
8
FINA
10
317.0000
20
29.0000
30
0
11
317.0000
21
39.0000
31
0
0
LINE
8
FINA
10
326.0000
20
19.0000
30
0
11
326.0000
21
29.0000
31
0
0
TEXT
8
TEXTO
10
271.3000
20
49.6000
30
0
40
1.4000
1
DESIGNACIÓN
0
TEXT
8
TEXTO
10
271.6000
20
44.1000
30
0
40
2.0000
1
GTD-01 · Bracket soporte B_005A 24V (ángulo: cruciformes + pivote/arco de aplome) (x4) — DES…
72
0
73
2
11
271.6000
21
44.1000
31
0
0
TEXT
8
TEXTO
10
271.3000
20
36.6000
30
0
40
1.4000
1
PROYECTO
0
TEXT
8
TEXTO
10
271.6000
20
32.6000
30
0
40
2.0000
1
CV-GT-800 · Movex 530 GT (friction top) 18 in…
72
0
73
2
11
271.6000
21
32.6000
31
0
0
TEXT
8
TEXTO
10
318.3000
20
36.6000
30
0
40
1.4000
1
FUENTE
0
TEXT
8
TEXTO
10
318.6000
20
32.6000
30
0
40
2.4000
1
chapa plegada — capa user
72
0
73
2
11
318.6000
21
32.6000
31
0
0
TEXT
8
TEXTO
10
271.3000
20
26.6000
30
0
40
1.4000
1
VERIFICACIÓN DE ESCALA
0
TEXT
8
TEXTO
10
271.6000
20
22.6000
30
0
40
2.4000
1
CAD EN MM (CAPA USER)
72
0
73
2
11
271.6000
21
22.6000
31
0
0
TEXT
8
TEXTO
10
327.3000
20
26.6000
30
0
40
1.4000
1
PLIEGUES
0
TEXT
8
TEXTO
10
327.6000
20
22.6000
30
0
40
2.6000
1
1
72
0
73
2
11
327.6000
21
22.6000
31
0
0
TEXT
8
TEXTO
10
271.3000
20
16.6000
30
0
40
1.4000
1
NOTA
0
TEXT
8
TEXTO
10
271.6000
20
13.1000
30
0
40
2.2000
1
Acero S275JR e3 — PINTADO RAL 7035 · e3 · tol. gral. ISO 2768-mK · K=0.44
72
0
73
2
11
271.6000
21
13.1000
31
0
0
LINE
8
FINA
10
364.0000
20
39.0000
30
0
11
410.0000
21
39.0000
31
0
0
LINE
8
FINA
10
364.0000
20
29.0000
30
0
11
410.0000
21
29.0000
31
0
0
LINE
8
FINA
10
364.0000
20
19.0000
30
0
11
410.0000
21
19.0000
31
0
0
LINE
8
FINA
10
387.0000
20
29.0000
30
0
11
387.0000
21
39.0000
31
0
0
LINE
8
FINA
10
390.0000
20
19.0000
30
0
11
390.0000
21
29.0000
31
0
0
TEXT
8
TEXTO
10
365.3000
20
49.6000
30
0
40
1.4000
1
ESCALA
0
TEXT
8
TEXTO
10
387.0000
20
44.1000
30
0
40
5.0000
1
1:1
72
1
73
2
11
387.0000
21
44.1000
31
0
0
TEXT
8
TEXTO
10
365.3000
20
36.6000
30
0
40
1.4000
1
FORMATO
0
TEXT
8
TEXTO
10
371.5000
20
32.6000
30
0
40
2.6000
1
A3
72
1
73
2
11
371.5000
21
32.6000
31
0
0
TEXT
8
TEXTO
10
380.3000
20
36.6000
30
0
40
1.4000
1
LÁMINA
0
TEXT
8
TEXTO
10
386.5000
20
32.6000
30
0
40
2.4000
1
1 / 1
72
1
73
2
11
386.5000
21
32.6000
31
0
0
LINE
8
FINA
10
394.0000
20
29.0000
30
0
11
394.0000
21
39.0000
31
0
0
TEXT
8
TEXTO
10
395.3000
20
36.6000
30
0
40
1.4000
1
REV
0
TEXT
8
TEXTO
10
402.0000
20
32.6000
30
0
40
4.6000
1
—
72
1
73
2
11
402.0000
21
32.6000
31
0
0
TEXT
8
TEXTO
10
365.3000
20
26.6000
30
0
40
1.4000
1
FECHA
0
TEXT
8
TEXTO
10
377.0000
20
22.6000
30
0
40
2.6000
1
2026-08-18
72
1
73
2
11
377.0000
21
22.6000
31
0
0
TEXT
8
TEXTO
10
391.3000
20
26.6000
30
0
40
1.4000
1
UNIDADES
0
TEXT
8
TEXTO
10
400.0000
20
22.6000
30
0
40
3.0000
1
mm
72
1
73
2
11
400.0000
21
22.6000
31
0
0
TEXT
8
TEXTO
10
365.3000
20
16.6000
30
0
40
1.4000
1
Nº DE PLANO
0
TEXT
8
TEXTO
10
387.0000
20
13.1000
30
0
40
2.6000
1
GTD-01
72
1
73
2
11
387.0000
21
13.1000
31
0
0
TEXT
8
TEXTO
10
230.0000
20
56.5000
30
0
40
2.0000
1
DIBUJÓ: Célula de Diseño ConveyOne · REVISÓ: panel adversarial · APROBÓ: S. Contreras — PENDIENTE DE FIRMA
0
ENDSEC
0
EOF
