0
SECTION
2
HEADER
9
$ACADVER
1
AC1009
9
$DWGCODEPAGE
3
ANSI_1252
0
ENDSEC
0
SECTION
2
TABLES
0
TABLE
2
LTYPE
70
3
0
LTYPE
2
CONTINUOUS
70
0
3
Solid line
72
65
73
0
40
0
0
LTYPE
2
DASHED
70
0
3
Segmentada __ __ __
72
65
73
2
40
6
49
4
49
-2
0
LTYPE
2
CENTER
70
0
3
Centro ____ _ ____
72
65
73
4
40
11
49
7
49
-1.2
49
1.2
49
-1.2
0
ENDTAB
0
TABLE
2
LAYER
70
9
0
LAYER
2
SOMBRA
70
0
62
8
6
CONTINUOUS
0
LAYER
2
NORMA
70
0
62
7
6
CONTINUOUS
0
LAYER
2
FINA
70
0
62
7
6
CONTINUOUS
0
LAYER
2
VISIBLE
70
0
62
7
6
CONTINUOUS
0
LAYER
2
COTAS
70
0
62
7
6
CONTINUOUS
0
LAYER
2
TEXTO
70
0
62
7
6
CONTINUOUS
0
LAYER
2
PLIEGUE
70
0
62
1
6
DASHED
0
LAYER
2
OCULTA
70
0
62
7
6
DASHED
0
LAYER
2
EJE
70
0
62
4
6
CENTER
0
ENDTAB
0
ENDSEC
0
SECTION
2
ENTITIES
0
LINE
8
VISIBLE
10
194.5000
20
301.5000
30
0
11
194.7400
21
299.3400
31
0
0
LINE
8
VISIBLE
10
194.7400
20
299.3400
30
0
11
195.4600
21
297.6600
31
0
0
LINE
8
VISIBLE
10
195.4600
20
297.6600
30
0
11
196.6600
21
296.4600
31
0
0
LINE
8
VISIBLE
10
196.6600
20
296.4600
30
0
11
198.3400
21
295.7400
31
0
0
LINE
8
VISIBLE
10
198.3400
20
295.7400
30
0
11
200.5000
21
295.5000
31
0
0
LINE
8
VISIBLE
10
200.5000
20
295.5000
30
0
11
650.5000
21
295.5000
31
0
0
LINE
8
VISIBLE
10
650.5000
20
295.5000
30
0
11
652.6600
21
295.7400
31
0
0
LINE
8
VISIBLE
10
652.6600
20
295.7400
30
0
11
654.3400
21
296.4600
31
0
0
LINE
8
VISIBLE
10
654.3400
20
296.4600
30
0
11
655.5400
21
297.6600
31
0
0
LINE
8
VISIBLE
10
655.5400
20
297.6600
30
0
11
656.2600
21
299.3400
31
0
0
LINE
8
VISIBLE
10
656.2600
20
299.3400
30
0
11
656.5000
21
301.5000
31
0
0
LINE
8
VISIBLE
10
656.5000
20
301.5000
30
0
11
656.5000
21
339.5000
31
0
0
LINE
8
VISIBLE
10
656.5000
20
339.5000
30
0
11
656.2600
21
341.6600
31
0
0
LINE
8
VISIBLE
10
656.2600
20
341.6600
30
0
11
655.5400
21
343.3400
31
0
0
LINE
8
VISIBLE
10
655.5400
20
343.3400
30
0
11
654.3400
21
344.5400
31
0
0
LINE
8
VISIBLE
10
654.3400
20
344.5400
30
0
11
652.6600
21
345.2600
31
0
0
LINE
8
VISIBLE
10
652.6600
20
345.2600
30
0
11
650.5000
21
345.5000
31
0
0
LINE
8
VISIBLE
10
650.5000
20
345.5000
30
0
11
200.5000
21
345.5000
31
0
0
LINE
8
VISIBLE
10
200.5000
20
345.5000
30
0
11
198.3400
21
345.2600
31
0
0
LINE
8
VISIBLE
10
198.3400
20
345.2600
30
0
11
196.6600
21
344.5400
31
0
0
LINE
8
VISIBLE
10
196.6600
20
344.5400
30
0
11
195.4600
21
343.3400
31
0
0
LINE
8
VISIBLE
10
195.4600
20
343.3400
30
0
11
194.7400
21
341.6600
31
0
0
LINE
8
VISIBLE
10
194.7400
20
341.6600
30
0
11
194.5000
21
339.5000
31
0
0
LINE
8
VISIBLE
10
194.5000
20
339.5000
30
0
11
194.5000
21
301.5000
31
0
0
CIRCLE
8
VISIBLE
10
246.7000
20
320.5000
30
0
40
3.5000
0
CIRCLE
8
VISIBLE
10
306.3000
20
320.5000
30
0
40
3.5000
0
CIRCLE
8
VISIBLE
10
365.9000
20
320.5000
30
0
40
3.5000
0
CIRCLE
8
VISIBLE
10
425.5000
20
320.5000
30
0
40
3.5000
0
CIRCLE
8
VISIBLE
10
485.1000
20
320.5000
30
0
40
3.5000
0
CIRCLE
8
VISIBLE
10
544.7000
20
320.5000
30
0
40
3.5000
0
CIRCLE
8
VISIBLE
10
604.3000
20
320.5000
30
0
40
3.5000
0
TEXT
8
TEXTO
10
194.5000
20
282.5000
30
0
40
3.2000
1
BARRENOS (corte láser): 
0
TEXT
8
TEXTO
10
231.9272
20
282.5000
30
0
40
3.2000
1
7× Ø7
0
TEXT
8
TEXTO
10
194.5000
20
278.0000
30
0
40
2.8000
1
POSICIONES: DXF de corte a escala REAL 1:1 + _agujeros.csv (X·Y·Ø de cada barreno) — contornos interiores ídem
0
LINE
8
COTAS
10
194.5000
20
294.5000
30
0
11
194.5000
21
285.0000
31
0
0
LINE
8
COTAS
10
656.5000
20
294.5000
30
0
11
656.5000
21
285.0000
31
0
0
LINE
8
COTAS
10
194.5000
20
286.5000
30
0
11
656.5000
21
286.5000
31
0
0
SOLID
8
COTAS
10
194.5000
20
286.5000
30
0
11
197.0000
21
286.9500
31
0
12
197.0000
22
286.0500
32
0
13
197.0000
23
286.0500
33
0
0
SOLID
8
COTAS
10
656.5000
20
286.5000
30
0
11
654.0000
21
286.9500
31
0
12
654.0000
22
286.0500
32
0
13
654.0000
23
286.0500
33
0
0
TEXT
8
COTAS
10
425.5000
20
288.7000
30
0
40
3.5000
1
462
72
1
73
2
11
425.5000
21
288.7000
31
0
0
LINE
8
COTAS
10
657.5000
20
295.5000
30
0
11
667.0000
21
295.5000
31
0
0
LINE
8
COTAS
10
657.5000
20
345.5000
30
0
11
667.0000
21
345.5000
31
0
0
LINE
8
COTAS
10
665.5000
20
295.5000
30
0
11
665.5000
21
345.5000
31
0
0
SOLID
8
COTAS
10
665.5000
20
295.5000
30
0
11
665.9500
21
298.0000
31
0
12
665.0500
22
298.0000
32
0
13
665.0500
23
298.0000
33
0
0
SOLID
8
COTAS
10
665.5000
20
345.5000
30
0
11
665.9500
21
343.0000
31
0
12
665.0500
22
343.0000
32
0
13
665.0500
23
343.0000
33
0
0
TEXT
8
COTAS
10
667.7000
20
320.5000
30
0
40
3.5000
1
50
72
1
73
2
11
667.7000
21
320.5000
31
0
0
TEXT
8
TEXTO
10
194.5000
20
356.0000
30
0
40
3.5000
1
PIEZA PLANA DE CORTE — sin pliegues (láser directo)
0
TEXT
8
TEXTO
10
194.5000
20
350.5000
30
0
40
4.0000
1
ESPESOR DE CHAPA e = 6 mm (constante en toda la pieza)
0
LINE
8
FINA
10
0.0000
20
0.0000
30
0
11
841.0000
21
0.0000
31
0
0
LINE
8
FINA
10
841.0000
20
0.0000
30
0
11
841.0000
21
594.0000
31
0
0
LINE
8
FINA
10
841.0000
20
594.0000
30
0
11
0.0000
21
594.0000
31
0
0
LINE
8
FINA
10
0.0000
20
594.0000
30
0
11
0.0000
21
0.0000
31
0
0
LINE
8
NORMA
10
20.0000
20
10.0000
30
0
11
831.0000
21
10.0000
31
0
0
LINE
8
NORMA
10
831.0000
20
10.0000
30
0
11
831.0000
21
584.0000
31
0
0
LINE
8
NORMA
10
831.0000
20
584.0000
30
0
11
20.0000
21
584.0000
31
0
0
LINE
8
NORMA
10
20.0000
20
584.0000
30
0
11
20.0000
21
10.0000
31
0
0
LINE
8
NORMA
10
0.0000
20
297.0000
30
0
11
25.0000
21
297.0000
31
0
0
LINE
8
NORMA
10
841.0000
20
297.0000
30
0
11
826.0000
21
297.0000
31
0
0
LINE
8
NORMA
10
420.5000
20
0.0000
30
0
11
420.5000
21
15.0000
31
0
0
LINE
8
NORMA
10
420.5000
20
594.0000
30
0
11
420.5000
21
579.0000
31
0
0
LINE
8
FINA
10
52.5625
20
0.0000
30
0
11
52.5625
21
10.0000
31
0
0
LINE
8
FINA
10
52.5625
20
584.0000
30
0
11
52.5625
21
594.0000
31
0
0
LINE
8
FINA
10
105.1250
20
0.0000
30
0
11
105.1250
21
10.0000
31
0
0
LINE
8
FINA
10
105.1250
20
584.0000
30
0
11
105.1250
21
594.0000
31
0
0
LINE
8
FINA
10
157.6875
20
0.0000
30
0
11
157.6875
21
10.0000
31
0
0
LINE
8
FINA
10
157.6875
20
584.0000
30
0
11
157.6875
21
594.0000
31
0
0
LINE
8
FINA
10
210.2500
20
0.0000
30
0
11
210.2500
21
10.0000
31
0
0
LINE
8
FINA
10
210.2500
20
584.0000
30
0
11
210.2500
21
594.0000
31
0
0
LINE
8
FINA
10
262.8125
20
0.0000
30
0
11
262.8125
21
10.0000
31
0
0
LINE
8
FINA
10
262.8125
20
584.0000
30
0
11
262.8125
21
594.0000
31
0
0
LINE
8
FINA
10
315.3750
20
0.0000
30
0
11
315.3750
21
10.0000
31
0
0
LINE
8
FINA
10
315.3750
20
584.0000
30
0
11
315.3750
21
594.0000
31
0
0
LINE
8
FINA
10
367.9375
20
0.0000
30
0
11
367.9375
21
10.0000
31
0
0
LINE
8
FINA
10
367.9375
20
584.0000
30
0
11
367.9375
21
594.0000
31
0
0
LINE
8
FINA
10
420.5000
20
0.0000
30
0
11
420.5000
21
10.0000
31
0
0
LINE
8
FINA
10
420.5000
20
584.0000
30
0
11
420.5000
21
594.0000
31
0
0
LINE
8
FINA
10
473.0625
20
0.0000
30
0
11
473.0625
21
10.0000
31
0
0
LINE
8
FINA
10
473.0625
20
584.0000
30
0
11
473.0625
21
594.0000
31
0
0
LINE
8
FINA
10
525.6250
20
0.0000
30
0
11
525.6250
21
10.0000
31
0
0
LINE
8
FINA
10
525.6250
20
584.0000
30
0
11
525.6250
21
594.0000
31
0
0
LINE
8
FINA
10
578.1875
20
0.0000
30
0
11
578.1875
21
10.0000
31
0
0
LINE
8
FINA
10
578.1875
20
584.0000
30
0
11
578.1875
21
594.0000
31
0
0
LINE
8
FINA
10
630.7500
20
0.0000
30
0
11
630.7500
21
10.0000
31
0
0
LINE
8
FINA
10
630.7500
20
584.0000
30
0
11
630.7500
21
594.0000
31
0
0
LINE
8
FINA
10
683.3125
20
0.0000
30
0
11
683.3125
21
10.0000
31
0
0
LINE
8
FINA
10
683.3125
20
584.0000
30
0
11
683.3125
21
594.0000
31
0
0
LINE
8
FINA
10
735.8750
20
0.0000
30
0
11
735.8750
21
10.0000
31
0
0
LINE
8
FINA
10
735.8750
20
584.0000
30
0
11
735.8750
21
594.0000
31
0
0
LINE
8
FINA
10
788.4375
20
0.0000
30
0
11
788.4375
21
10.0000
31
0
0
LINE
8
FINA
10
788.4375
20
584.0000
30
0
11
788.4375
21
594.0000
31
0
0
LINE
8
FINA
10
0.0000
20
49.5000
30
0
11
10.0000
21
49.5000
31
0
0
LINE
8
FINA
10
831.0000
20
49.5000
30
0
11
841.0000
21
49.5000
31
0
0
LINE
8
FINA
10
0.0000
20
99.0000
30
0
11
10.0000
21
99.0000
31
0
0
LINE
8
FINA
10
831.0000
20
99.0000
30
0
11
841.0000
21
99.0000
31
0
0
LINE
8
FINA
10
0.0000
20
148.5000
30
0
11
10.0000
21
148.5000
31
0
0
LINE
8
FINA
10
831.0000
20
148.5000
30
0
11
841.0000
21
148.5000
31
0
0
LINE
8
FINA
10
0.0000
20
198.0000
30
0
11
10.0000
21
198.0000
31
0
0
LINE
8
FINA
10
831.0000
20
198.0000
30
0
11
841.0000
21
198.0000
31
0
0
LINE
8
FINA
10
0.0000
20
247.5000
30
0
11
10.0000
21
247.5000
31
0
0
LINE
8
FINA
10
831.0000
20
247.5000
30
0
11
841.0000
21
247.5000
31
0
0
LINE
8
FINA
10
0.0000
20
297.0000
30
0
11
10.0000
21
297.0000
31
0
0
LINE
8
FINA
10
831.0000
20
297.0000
30
0
11
841.0000
21
297.0000
31
0
0
LINE
8
FINA
10
0.0000
20
346.5000
30
0
11
10.0000
21
346.5000
31
0
0
LINE
8
FINA
10
831.0000
20
346.5000
30
0
11
841.0000
21
346.5000
31
0
0
LINE
8
FINA
10
0.0000
20
396.0000
30
0
11
10.0000
21
396.0000
31
0
0
LINE
8
FINA
10
831.0000
20
396.0000
30
0
11
841.0000
21
396.0000
31
0
0
LINE
8
FINA
10
0.0000
20
445.5000
30
0
11
10.0000
21
445.5000
31
0
0
LINE
8
FINA
10
831.0000
20
445.5000
30
0
11
841.0000
21
445.5000
31
0
0
LINE
8
FINA
10
0.0000
20
495.0000
30
0
11
10.0000
21
495.0000
31
0
0
LINE
8
FINA
10
831.0000
20
495.0000
30
0
11
841.0000
21
495.0000
31
0
0
LINE
8
FINA
10
0.0000
20
544.5000
30
0
11
10.0000
21
544.5000
31
0
0
LINE
8
FINA
10
831.0000
20
544.5000
30
0
11
841.0000
21
544.5000
31
0
0
TEXT
8
TEXTO
10
26.2813
20
5.0000
30
0
40
2.5000
1
1
72
1
73
2
11
26.2813
21
5.0000
31
0
0
TEXT
8
TEXTO
10
26.2813
20
589.0000
30
0
40
2.5000
1
1
72
1
73
2
11
26.2813
21
589.0000
31
0
0
TEXT
8
TEXTO
10
78.8438
20
5.0000
30
0
40
2.5000
1
2
72
1
73
2
11
78.8438
21
5.0000
31
0
0
TEXT
8
TEXTO
10
78.8438
20
589.0000
30
0
40
2.5000
1
2
72
1
73
2
11
78.8438
21
589.0000
31
0
0
TEXT
8
TEXTO
10
131.4063
20
5.0000
30
0
40
2.5000
1
3
72
1
73
2
11
131.4063
21
5.0000
31
0
0
TEXT
8
TEXTO
10
131.4063
20
589.0000
30
0
40
2.5000
1
3
72
1
73
2
11
131.4063
21
589.0000
31
0
0
TEXT
8
TEXTO
10
183.9688
20
5.0000
30
0
40
2.5000
1
4
72
1
73
2
11
183.9688
21
5.0000
31
0
0
TEXT
8
TEXTO
10
183.9688
20
589.0000
30
0
40
2.5000
1
4
72
1
73
2
11
183.9688
21
589.0000
31
0
0
TEXT
8
TEXTO
10
236.5313
20
5.0000
30
0
40
2.5000
1
5
72
1
73
2
11
236.5313
21
5.0000
31
0
0
TEXT
8
TEXTO
10
236.5313
20
589.0000
30
0
40
2.5000
1
5
72
1
73
2
11
236.5313
21
589.0000
31
0
0
TEXT
8
TEXTO
10
289.0938
20
5.0000
30
0
40
2.5000
1
6
72
1
73
2
11
289.0938
21
5.0000
31
0
0
TEXT
8
TEXTO
10
289.0938
20
589.0000
30
0
40
2.5000
1
6
72
1
73
2
11
289.0938
21
589.0000
31
0
0
TEXT
8
TEXTO
10
341.6563
20
5.0000
30
0
40
2.5000
1
7
72
1
73
2
11
341.6563
21
5.0000
31
0
0
TEXT
8
TEXTO
10
341.6563
20
589.0000
30
0
40
2.5000
1
7
72
1
73
2
11
341.6563
21
589.0000
31
0
0
TEXT
8
TEXTO
10
394.2188
20
5.0000
30
0
40
2.5000
1
8
72
1
73
2
11
394.2188
21
5.0000
31
0
0
TEXT
8
TEXTO
10
394.2188
20
589.0000
30
0
40
2.5000
1
8
72
1
73
2
11
394.2188
21
589.0000
31
0
0
TEXT
8
TEXTO
10
446.7813
20
5.0000
30
0
40
2.5000
1
9
72
1
73
2
11
446.7813
21
5.0000
31
0
0
TEXT
8
TEXTO
10
446.7813
20
589.0000
30
0
40
2.5000
1
9
72
1
73
2
11
446.7813
21
589.0000
31
0
0
TEXT
8
TEXTO
10
499.3438
20
5.0000
30
0
40
2.5000
1
10
72
1
73
2
11
499.3438
21
5.0000
31
0
0
TEXT
8
TEXTO
10
499.3438
20
589.0000
30
0
40
2.5000
1
10
72
1
73
2
11
499.3438
21
589.0000
31
0
0
TEXT
8
TEXTO
10
551.9063
20
5.0000
30
0
40
2.5000
1
11
72
1
73
2
11
551.9063
21
5.0000
31
0
0
TEXT
8
TEXTO
10
551.9063
20
589.0000
30
0
40
2.5000
1
11
72
1
73
2
11
551.9063
21
589.0000
31
0
0
TEXT
8
TEXTO
10
604.4688
20
5.0000
30
0
40
2.5000
1
12
72
1
73
2
11
604.4688
21
5.0000
31
0
0
TEXT
8
TEXTO
10
604.4688
20
589.0000
30
0
40
2.5000
1
12
72
1
73
2
11
604.4688
21
589.0000
31
0
0
TEXT
8
TEXTO
10
657.0313
20
5.0000
30
0
40
2.5000
1
13
72
1
73
2
11
657.0313
21
5.0000
31
0
0
TEXT
8
TEXTO
10
657.0313
20
589.0000
30
0
40
2.5000
1
13
72
1
73
2
11
657.0313
21
589.0000
31
0
0
TEXT
8
TEXTO
10
709.5938
20
5.0000
30
0
40
2.5000
1
14
72
1
73
2
11
709.5938
21
5.0000
31
0
0
TEXT
8
TEXTO
10
709.5938
20
589.0000
30
0
40
2.5000
1
14
72
1
73
2
11
709.5938
21
589.0000
31
0
0
TEXT
8
TEXTO
10
762.1563
20
5.0000
30
0
40
2.5000
1
15
72
1
73
2
11
762.1563
21
5.0000
31
0
0
TEXT
8
TEXTO
10
762.1563
20
589.0000
30
0
40
2.5000
1
15
72
1
73
2
11
762.1563
21
589.0000
31
0
0
TEXT
8
TEXTO
10
814.7188
20
5.0000
30
0
40
2.5000
1
16
72
1
73
2
11
814.7188
21
5.0000
31
0
0
TEXT
8
TEXTO
10
814.7188
20
589.0000
30
0
40
2.5000
1
16
72
1
73
2
11
814.7188
21
589.0000
31
0
0
TEXT
8
TEXTO
10
5.0000
20
569.2500
30
0
40
2.5000
1
A
72
1
73
2
11
5.0000
21
569.2500
31
0
0
TEXT
8
TEXTO
10
836.0000
20
569.2500
30
0
40
2.5000
1
A
72
1
73
2
11
836.0000
21
569.2500
31
0
0
TEXT
8
TEXTO
10
5.0000
20
519.7500
30
0
40
2.5000
1
B
72
1
73
2
11
5.0000
21
519.7500
31
0
0
TEXT
8
TEXTO
10
836.0000
20
519.7500
30
0
40
2.5000
1
B
72
1
73
2
11
836.0000
21
519.7500
31
0
0
TEXT
8
TEXTO
10
5.0000
20
470.2500
30
0
40
2.5000
1
C
72
1
73
2
11
5.0000
21
470.2500
31
0
0
TEXT
8
TEXTO
10
836.0000
20
470.2500
30
0
40
2.5000
1
C
72
1
73
2
11
836.0000
21
470.2500
31
0
0
TEXT
8
TEXTO
10
5.0000
20
420.7500
30
0
40
2.5000
1
D
72
1
73
2
11
5.0000
21
420.7500
31
0
0
TEXT
8
TEXTO
10
836.0000
20
420.7500
30
0
40
2.5000
1
D
72
1
73
2
11
836.0000
21
420.7500
31
0
0
TEXT
8
TEXTO
10
5.0000
20
371.2500
30
0
40
2.5000
1
E
72
1
73
2
11
5.0000
21
371.2500
31
0
0
TEXT
8
TEXTO
10
836.0000
20
371.2500
30
0
40
2.5000
1
E
72
1
73
2
11
836.0000
21
371.2500
31
0
0
TEXT
8
TEXTO
10
5.0000
20
321.7500
30
0
40
2.5000
1
F
72
1
73
2
11
5.0000
21
321.7500
31
0
0
TEXT
8
TEXTO
10
836.0000
20
321.7500
30
0
40
2.5000
1
F
72
1
73
2
11
836.0000
21
321.7500
31
0
0
TEXT
8
TEXTO
10
5.0000
20
272.2500
30
0
40
2.5000
1
G
72
1
73
2
11
5.0000
21
272.2500
31
0
0
TEXT
8
TEXTO
10
836.0000
20
272.2500
30
0
40
2.5000
1
G
72
1
73
2
11
836.0000
21
272.2500
31
0
0
TEXT
8
TEXTO
10
5.0000
20
222.7500
30
0
40
2.5000
1
H
72
1
73
2
11
5.0000
21
222.7500
31
0
0
TEXT
8
TEXTO
10
836.0000
20
222.7500
30
0
40
2.5000
1
H
72
1
73
2
11
836.0000
21
222.7500
31
0
0
TEXT
8
TEXTO
10
5.0000
20
173.2500
30
0
40
2.5000
1
J
72
1
73
2
11
5.0000
21
173.2500
31
0
0
TEXT
8
TEXTO
10
836.0000
20
173.2500
30
0
40
2.5000
1
J
72
1
73
2
11
836.0000
21
173.2500
31
0
0
TEXT
8
TEXTO
10
5.0000
20
123.7500
30
0
40
2.5000
1
K
72
1
73
2
11
5.0000
21
123.7500
31
0
0
TEXT
8
TEXTO
10
836.0000
20
123.7500
30
0
40
2.5000
1
K
72
1
73
2
11
836.0000
21
123.7500
31
0
0
TEXT
8
TEXTO
10
5.0000
20
74.2500
30
0
40
2.5000
1
L
72
1
73
2
11
5.0000
21
74.2500
31
0
0
TEXT
8
TEXTO
10
836.0000
20
74.2500
30
0
40
2.5000
1
L
72
1
73
2
11
836.0000
21
74.2500
31
0
0
TEXT
8
TEXTO
10
5.0000
20
24.7500
30
0
40
2.5000
1
M
72
1
73
2
11
5.0000
21
24.7500
31
0
0
TEXT
8
TEXTO
10
836.0000
20
24.7500
30
0
40
2.5000
1
M
72
1
73
2
11
836.0000
21
24.7500
31
0
0
LINE
8
NORMA
10
651.0000
20
10.0000
30
0
11
831.0000
21
10.0000
31
0
0
LINE
8
NORMA
10
831.0000
20
10.0000
30
0
11
831.0000
21
52.0000
31
0
0
LINE
8
NORMA
10
831.0000
20
52.0000
30
0
11
651.0000
21
52.0000
31
0
0
LINE
8
NORMA
10
651.0000
20
52.0000
30
0
11
651.0000
21
10.0000
31
0
0
LINE
8
NORMA
10
691.0000
20
10.0000
30
0
11
691.0000
21
52.0000
31
0
0
LINE
8
NORMA
10
785.0000
20
10.0000
30
0
11
785.0000
21
52.0000
31
0
0
LINE
8
FINA
10
651.0000
20
29.0000
30
0
11
691.0000
21
29.0000
31
0
0
TEXT
8
TEXTO
10
671.0000
20
43.4000
30
0
40
4.9000
1
ConveyOne
72
1
73
2
11
671.0000
21
43.4000
31
0
0
LINE
8
FINA
10
657.5000
20
38.6000
30
0
11
684.5000
21
38.6000
31
0
0
TEXT
8
TEXTO
10
671.0000
20
35.8000
30
0
40
1.3000
1
CAD · DISEÑO CAPA USER
72
1
73
2
11
671.0000
21
35.8000
31
0
0
TEXT
8
TEXTO
10
671.0000
20
32.6000
30
0
40
1.3000
1
ISO 5457 · 7200 · 129 · 5456-2
72
1
73
2
11
671.0000
21
32.6000
31
0
0
TEXT
8
TEXTO
10
671.0000
20
26.6000
30
0
40
1.4000
1
PROYECCIÓN — PRIMER DIEDRO
72
1
73
2
11
671.0000
21
26.6000
31
0
0
CIRCLE
8
TEXTO
10
666.4000
20
17.5000
30
0
40
2.9900
0
CIRCLE
8
TEXTO
10
666.4000
20
17.5000
30
0
40
1.6100
0
LINE
8
TEXTO
10
671.4600
20
14.5100
30
0
11
678.5900
21
15.8900
31
0
0
LINE
8
TEXTO
10
678.5900
20
15.8900
30
0
11
678.5900
21
19.1100
31
0
0
LINE
8
TEXTO
10
678.5900
20
19.1100
30
0
11
671.4600
21
20.4900
31
0
0
LINE
8
TEXTO
10
671.4600
20
20.4900
30
0
11
671.4600
21
14.5100
31
0
0
LINE
8
FINA
10
662.0300
20
17.5000
30
0
11
679.9700
21
17.5000
31
0
0
LINE
8
FINA
10
691.0000
20
39.0000
30
0
11
785.0000
21
39.0000
31
0
0
LINE
8
FINA
10
691.0000
20
29.0000
30
0
11
785.0000
21
29.0000
31
0
0
LINE
8
FINA
10
691.0000
20
19.0000
30
0
11
785.0000
21
19.0000
31
0
0
LINE
8
FINA
10
738.0000
20
29.0000
30
0
11
738.0000
21
39.0000
31
0
0
LINE
8
FINA
10
747.0000
20
19.0000
30
0
11
747.0000
21
29.0000
31
0
0
TEXT
8
TEXTO
10
692.3000
20
49.6000
30
0
40
1.4000
1
DESIGNACIÓN
0
TEXT
8
TEXTO
10
692.6000
20
44.1000
30
0
40
2.4847
1
GTD-09 · Portacarril 50×6 con clips (apernado M6 al alma) (x1) — DESARROLLO
72
0
73
2
11
692.6000
21
44.1000
31
0
0
TEXT
8
TEXTO
10
692.3000
20
36.6000
30
0
40
1.4000
1
PROYECTO
0
TEXT
8
TEXTO
10
692.6000
20
32.6000
30
0
40
2.0000
1
CV-GT-800 · Movex 530 GT (friction top) 18 in…
72
0
73
2
11
692.6000
21
32.6000
31
0
0
TEXT
8
TEXTO
10
739.3000
20
36.6000
30
0
40
1.4000
1
FUENTE
0
TEXT
8
TEXTO
10
739.6000
20
32.6000
30
0
40
2.4000
1
chapa plegada — capa user
72
0
73
2
11
739.6000
21
32.6000
31
0
0
TEXT
8
TEXTO
10
692.3000
20
26.6000
30
0
40
1.4000
1
VERIFICACIÓN DE ESCALA
0
TEXT
8
TEXTO
10
692.6000
20
22.6000
30
0
40
2.4000
1
CAD EN MM (CAPA USER)
72
0
73
2
11
692.6000
21
22.6000
31
0
0
TEXT
8
TEXTO
10
748.3000
20
26.6000
30
0
40
1.4000
1
PLIEGUES
0
TEXT
8
TEXTO
10
748.6000
20
22.6000
30
0
40
2.6000
1
0
72
0
73
2
11
748.6000
21
22.6000
31
0
0
TEXT
8
TEXTO
10
692.3000
20
16.6000
30
0
40
1.4000
1
NOTA
0
TEXT
8
TEXTO
10
692.6000
20
13.1000
30
0
40
2.2000
1
Acero S275JR e6 — PINTADO RAL 7035 · e6 · tol. gral. ISO 2768-mK · K=0.44
72
0
73
2
11
692.6000
21
13.1000
31
0
0
LINE
8
FINA
10
785.0000
20
39.0000
30
0
11
831.0000
21
39.0000
31
0
0
LINE
8
FINA
10
785.0000
20
29.0000
30
0
11
831.0000
21
29.0000
31
0
0
LINE
8
FINA
10
785.0000
20
19.0000
30
0
11
831.0000
21
19.0000
31
0
0
LINE
8
FINA
10
808.0000
20
29.0000
30
0
11
808.0000
21
39.0000
31
0
0
LINE
8
FINA
10
811.0000
20
19.0000
30
0
11
811.0000
21
29.0000
31
0
0
TEXT
8
TEXTO
10
786.3000
20
49.6000
30
0
40
1.4000
1
ESCALA
0
TEXT
8
TEXTO
10
808.0000
20
44.1000
30
0
40
5.0000
1
1:1
72
1
73
2
11
808.0000
21
44.1000
31
0
0
TEXT
8
TEXTO
10
786.3000
20
36.6000
30
0
40
1.4000
1
FORMATO
0
TEXT
8
TEXTO
10
792.5000
20
32.6000
30
0
40
2.6000
1
A1
72
1
73
2
11
792.5000
21
32.6000
31
0
0
TEXT
8
TEXTO
10
801.3000
20
36.6000
30
0
40
1.4000
1
LÁMINA
0
TEXT
8
TEXTO
10
807.5000
20
32.6000
30
0
40
2.4000
1
1 / 1
72
1
73
2
11
807.5000
21
32.6000
31
0
0
LINE
8
FINA
10
815.0000
20
29.0000
30
0
11
815.0000
21
39.0000
31
0
0
TEXT
8
TEXTO
10
816.3000
20
36.6000
30
0
40
1.4000
1
REV
0
TEXT
8
TEXTO
10
823.0000
20
32.6000
30
0
40
4.6000
1
—
72
1
73
2
11
823.0000
21
32.6000
31
0
0
TEXT
8
TEXTO
10
786.3000
20
26.6000
30
0
40
1.4000
1
FECHA
0
TEXT
8
TEXTO
10
798.0000
20
22.6000
30
0
40
2.6000
1
2026-08-18
72
1
73
2
11
798.0000
21
22.6000
31
0
0
TEXT
8
TEXTO
10
812.3000
20
26.6000
30
0
40
1.4000
1
UNIDADES
0
TEXT
8
TEXTO
10
821.0000
20
22.6000
30
0
40
3.0000
1
mm
72
1
73
2
11
821.0000
21
22.6000
31
0
0
TEXT
8
TEXTO
10
786.3000
20
16.6000
30
0
40
1.4000
1
Nº DE PLANO
0
TEXT
8
TEXTO
10
808.0000
20
13.1000
30
0
40
2.6000
1
GTD-09
72
1
73
2
11
808.0000
21
13.1000
31
0
0
TEXT
8
TEXTO
10
651.0000
20
56.5000
30
0
40
2.0000
1
DIBUJÓ: Célula de Diseño ConveyOne · REVISÓ: panel adversarial · APROBÓ: S. Contreras — PENDIENTE DE FIRMA
0
ENDSEC
0
EOF
