0
SECTION
2
HEADER
9
$ACADVER
1
AC1009
9
$DWGCODEPAGE
3
ANSI_1252
0
ENDSEC
0
SECTION
2
TABLES
0
TABLE
2
LTYPE
70
2
0
LTYPE
2
CONTINUOUS
70
0
3
Solid line
72
65
73
0
40
0
0
LTYPE
2
DASHED
70
0
3
Segmentada __ __ __
72
65
73
2
40
6
49
4
49
-2
0
ENDTAB
0
TABLE
2
LAYER
70
8
0
LAYER
2
SOMBRA
70
0
62
8
6
CONTINUOUS
0
LAYER
2
NORMA
70
0
62
7
6
CONTINUOUS
0
LAYER
2
FINA
70
0
62
7
6
CONTINUOUS
0
LAYER
2
VISIBLE
70
0
62
7
6
CONTINUOUS
0
LAYER
2
COTAS
70
0
62
7
6
CONTINUOUS
0
LAYER
2
TEXTO
70
0
62
7
6
CONTINUOUS
0
LAYER
2
PLIEGUE
70
0
62
1
6
DASHED
0
LAYER
2
OCULTA
70
0
62
7
6
CONTINUOUS
0
ENDTAB
0
ENDSEC
0
SECTION
2
ENTITIES
0
LINE
8
VISIBLE
10
30.5000
20
97.2150
30
0
11
399.5000
21
97.2150
31
0
0
LINE
8
VISIBLE
10
399.5000
20
97.2150
30
0
11
399.5000
21
246.7850
31
0
0
LINE
8
VISIBLE
10
399.5000
20
246.7850
30
0
11
30.5000
21
246.7850
31
0
0
LINE
8
VISIBLE
10
30.5000
20
246.7850
30
0
11
30.5000
21
97.2150
31
0
0
LINE
8
VISIBLE
10
58.5000
20
166.5050
30
0
11
78.5000
21
166.5050
31
0
0
LINE
8
VISIBLE
10
78.5000
20
166.5050
30
0
11
78.5000
21
177.5050
31
0
0
LINE
8
VISIBLE
10
78.5000
20
177.5050
30
0
11
58.5000
21
177.5050
31
0
0
LINE
8
VISIBLE
10
58.5000
20
177.5050
30
0
11
58.5000
21
166.5050
31
0
0
LINE
8
VISIBLE
10
92.5000
20
166.5050
30
0
11
112.5000
21
166.5050
31
0
0
LINE
8
VISIBLE
10
112.5000
20
166.5050
30
0
11
112.5000
21
177.5050
31
0
0
LINE
8
VISIBLE
10
112.5000
20
177.5050
30
0
11
92.5000
21
177.5050
31
0
0
LINE
8
VISIBLE
10
92.5000
20
177.5050
30
0
11
92.5000
21
166.5050
31
0
0
LINE
8
VISIBLE
10
126.5000
20
166.5050
30
0
11
146.5000
21
166.5050
31
0
0
LINE
8
VISIBLE
10
146.5000
20
166.5050
30
0
11
146.5000
21
177.5050
31
0
0
LINE
8
VISIBLE
10
146.5000
20
177.5050
30
0
11
126.5000
21
177.5050
31
0
0
LINE
8
VISIBLE
10
126.5000
20
177.5050
30
0
11
126.5000
21
166.5050
31
0
0
LINE
8
VISIBLE
10
160.5000
20
166.5050
30
0
11
180.5000
21
166.5050
31
0
0
LINE
8
VISIBLE
10
180.5000
20
166.5050
30
0
11
180.5000
21
177.5050
31
0
0
LINE
8
VISIBLE
10
180.5000
20
177.5050
30
0
11
160.5000
21
177.5050
31
0
0
LINE
8
VISIBLE
10
160.5000
20
177.5050
30
0
11
160.5000
21
166.5050
31
0
0
LINE
8
VISIBLE
10
194.5000
20
166.5050
30
0
11
214.5000
21
166.5050
31
0
0
LINE
8
VISIBLE
10
214.5000
20
166.5050
30
0
11
214.5000
21
177.5050
31
0
0
LINE
8
VISIBLE
10
214.5000
20
177.5050
30
0
11
194.5000
21
177.5050
31
0
0
LINE
8
VISIBLE
10
194.5000
20
177.5050
30
0
11
194.5000
21
166.5050
31
0
0
LINE
8
VISIBLE
10
228.5000
20
166.5050
30
0
11
248.5000
21
166.5050
31
0
0
LINE
8
VISIBLE
10
248.5000
20
166.5050
30
0
11
248.5000
21
177.5050
31
0
0
LINE
8
VISIBLE
10
248.5000
20
177.5050
30
0
11
228.5000
21
177.5050
31
0
0
LINE
8
VISIBLE
10
228.5000
20
177.5050
30
0
11
228.5000
21
166.5050
31
0
0
LINE
8
VISIBLE
10
262.5000
20
166.5050
30
0
11
282.5000
21
166.5050
31
0
0
LINE
8
VISIBLE
10
282.5000
20
166.5050
30
0
11
282.5000
21
177.5050
31
0
0
LINE
8
VISIBLE
10
282.5000
20
177.5050
30
0
11
262.5000
21
177.5050
31
0
0
LINE
8
VISIBLE
10
262.5000
20
177.5050
30
0
11
262.5000
21
166.5050
31
0
0
LINE
8
VISIBLE
10
296.5000
20
166.5050
30
0
11
316.5000
21
166.5050
31
0
0
LINE
8
VISIBLE
10
316.5000
20
166.5050
30
0
11
316.5000
21
177.5050
31
0
0
LINE
8
VISIBLE
10
316.5000
20
177.5050
30
0
11
296.5000
21
177.5050
31
0
0
LINE
8
VISIBLE
10
296.5000
20
177.5050
30
0
11
296.5000
21
166.5050
31
0
0
LINE
8
VISIBLE
10
330.5000
20
166.5050
30
0
11
350.5000
21
166.5050
31
0
0
LINE
8
VISIBLE
10
350.5000
20
166.5050
30
0
11
350.5000
21
177.5050
31
0
0
LINE
8
VISIBLE
10
350.5000
20
177.5050
30
0
11
330.5000
21
177.5050
31
0
0
LINE
8
VISIBLE
10
330.5000
20
177.5050
30
0
11
330.5000
21
166.5050
31
0
0
LINE
8
VISIBLE
10
364.5000
20
166.5050
30
0
11
384.5000
21
166.5050
31
0
0
LINE
8
VISIBLE
10
384.5000
20
166.5050
30
0
11
384.5000
21
177.5050
31
0
0
LINE
8
VISIBLE
10
384.5000
20
177.5050
30
0
11
364.5000
21
177.5050
31
0
0
LINE
8
VISIBLE
10
364.5000
20
177.5050
30
0
11
364.5000
21
166.5050
31
0
0
LINE
8
FINA
10
30.5000
20
129.2150
30
0
11
399.5000
21
129.2150
31
0
0
LINE
8
PLIEGUE
10
30.5000
20
132.6050
30
0
11
399.5000
21
132.6050
31
0
0
LINE
8
FINA
10
30.5000
20
136.0050
30
0
11
399.5000
21
136.0050
31
0
0
LINE
8
FINA
10
30.5000
20
208.0050
30
0
11
399.5000
21
208.0050
31
0
0
LINE
8
PLIEGUE
10
30.5000
20
211.3950
30
0
11
399.5000
21
211.3950
31
0
0
LINE
8
FINA
10
30.5000
20
214.7850
30
0
11
399.5000
21
214.7850
31
0
0
TEXT
8
TEXTO
10
215.0000
20
138.6050
30
0
40
2.8000
1
PLEGAR ARRIBA 90° R3 (×2)
72
1
73
2
11
215.0000
21
138.6050
31
0
0
LINE
8
COTAS
10
30.5000
20
96.2150
30
0
11
30.5000
21
86.7150
31
0
0
LINE
8
COTAS
10
399.5000
20
96.2150
30
0
11
399.5000
21
86.7150
31
0
0
LINE
8
COTAS
10
30.5000
20
88.2150
30
0
11
399.5000
21
88.2150
31
0
0
SOLID
8
COTAS
10
30.5000
20
88.2150
30
0
11
33.0000
21
88.6650
31
0
12
33.0000
22
87.7650
32
0
13
33.0000
23
87.7650
33
0
0
SOLID
8
COTAS
10
399.5000
20
88.2150
30
0
11
397.0000
21
88.6650
31
0
12
397.0000
22
87.7650
32
0
13
397.0000
23
87.7650
33
0
0
TEXT
8
COTAS
10
215.0000
20
90.4150
30
0
40
3.5000
1
369
72
1
73
2
11
215.0000
21
90.4150
31
0
0
LINE
8
COTAS
10
400.5000
20
97.2150
30
0
11
410.0000
21
97.2150
31
0
0
LINE
8
COTAS
10
400.5000
20
246.7850
30
0
11
410.0000
21
246.7850
31
0
0
LINE
8
COTAS
10
408.5000
20
97.2150
30
0
11
408.5000
21
246.7850
31
0
0
SOLID
8
COTAS
10
408.5000
20
97.2150
30
0
11
408.9500
21
99.7150
31
0
12
408.0500
22
99.7150
32
0
13
408.0500
23
99.7150
33
0
0
SOLID
8
COTAS
10
408.5000
20
246.7850
30
0
11
408.9500
21
244.2850
31
0
12
408.0500
22
244.2850
32
0
13
408.0500
23
244.2850
33
0
0
TEXT
8
COTAS
10
410.7000
20
172.0000
30
0
40
3.5000
1
149.6
72
1
73
2
11
410.7000
21
172.0000
31
0
0
LINE
8
COTAS
10
29.5000
20
97.2150
30
0
11
22.0000
21
97.2150
31
0
0
LINE
8
COTAS
10
29.5000
20
132.6050
30
0
11
22.0000
21
132.6050
31
0
0
LINE
8
COTAS
10
23.5000
20
97.2150
30
0
11
23.5000
21
132.6050
31
0
0
SOLID
8
COTAS
10
23.5000
20
97.2150
30
0
11
23.9500
21
99.7150
31
0
12
23.0500
22
99.7150
32
0
13
23.0500
23
99.7150
33
0
0
SOLID
8
COTAS
10
23.5000
20
132.6050
30
0
11
23.9500
21
130.1050
31
0
12
23.0500
22
130.1050
32
0
13
23.0500
23
130.1050
33
0
0
TEXT
8
COTAS
10
25.7000
20
114.9100
30
0
40
3.5000
1
35.4
72
1
73
2
11
25.7000
21
114.9100
31
0
0
LINE
8
COTAS
10
29.5000
20
97.2150
30
0
11
15.0000
21
97.2150
31
0
0
LINE
8
COTAS
10
29.5000
20
211.3950
30
0
11
15.0000
21
211.3950
31
0
0
LINE
8
COTAS
10
16.5000
20
97.2150
30
0
11
16.5000
21
211.3950
31
0
0
SOLID
8
COTAS
10
16.5000
20
97.2150
30
0
11
16.9500
21
99.7150
31
0
12
16.0500
22
99.7150
32
0
13
16.0500
23
99.7150
33
0
0
SOLID
8
COTAS
10
16.5000
20
211.3950
30
0
11
16.9500
21
208.8950
31
0
12
16.0500
22
208.8950
32
0
13
16.0500
23
208.8950
33
0
0
TEXT
8
COTAS
10
18.7000
20
154.3050
30
0
40
3.5000
1
114.2
72
1
73
2
11
18.7000
21
154.3050
31
0
0
TEXT
8
TEXTO
10
30.5000
20
257.2850
30
0
40
3.5000
1
DESARROLLO DE CHAPA — BA = ang·(R + K·t) · K=0.44 · R=3 · t=3 ? BA(90°)=6.79 mm
0
TEXT
8
TEXTO
10
30.5000
20
251.7850
30
0
40
4.0000
1
ESPESOR DE CHAPA e = 3 mm (constante en toda la pieza)
0
LINE
8
FINA
10
0.0000
20
0.0000
30
0
11
420.0000
21
0.0000
31
0
0
LINE
8
FINA
10
420.0000
20
0.0000
30
0
11
420.0000
21
297.0000
31
0
0
LINE
8
FINA
10
420.0000
20
297.0000
30
0
11
0.0000
21
297.0000
31
0
0
LINE
8
FINA
10
0.0000
20
297.0000
30
0
11
0.0000
21
0.0000
31
0
0
LINE
8
NORMA
10
20.0000
20
10.0000
30
0
11
410.0000
21
10.0000
31
0
0
LINE
8
NORMA
10
410.0000
20
10.0000
30
0
11
410.0000
21
287.0000
31
0
0
LINE
8
NORMA
10
410.0000
20
287.0000
30
0
11
20.0000
21
287.0000
31
0
0
LINE
8
NORMA
10
20.0000
20
287.0000
30
0
11
20.0000
21
10.0000
31
0
0
LINE
8
NORMA
10
0.0000
20
148.5000
30
0
11
25.0000
21
148.5000
31
0
0
LINE
8
NORMA
10
420.0000
20
148.5000
30
0
11
405.0000
21
148.5000
31
0
0
LINE
8
NORMA
10
210.0000
20
0.0000
30
0
11
210.0000
21
15.0000
31
0
0
LINE
8
NORMA
10
210.0000
20
297.0000
30
0
11
210.0000
21
282.0000
31
0
0
LINE
8
FINA
10
52.5000
20
0.0000
30
0
11
52.5000
21
10.0000
31
0
0
LINE
8
FINA
10
52.5000
20
287.0000
30
0
11
52.5000
21
297.0000
31
0
0
LINE
8
FINA
10
105.0000
20
0.0000
30
0
11
105.0000
21
10.0000
31
0
0
LINE
8
FINA
10
105.0000
20
287.0000
30
0
11
105.0000
21
297.0000
31
0
0
LINE
8
FINA
10
157.5000
20
0.0000
30
0
11
157.5000
21
10.0000
31
0
0
LINE
8
FINA
10
157.5000
20
287.0000
30
0
11
157.5000
21
297.0000
31
0
0
LINE
8
FINA
10
210.0000
20
0.0000
30
0
11
210.0000
21
10.0000
31
0
0
LINE
8
FINA
10
210.0000
20
287.0000
30
0
11
210.0000
21
297.0000
31
0
0
LINE
8
FINA
10
262.5000
20
0.0000
30
0
11
262.5000
21
10.0000
31
0
0
LINE
8
FINA
10
262.5000
20
287.0000
30
0
11
262.5000
21
297.0000
31
0
0
LINE
8
FINA
10
315.0000
20
0.0000
30
0
11
315.0000
21
10.0000
31
0
0
LINE
8
FINA
10
315.0000
20
287.0000
30
0
11
315.0000
21
297.0000
31
0
0
LINE
8
FINA
10
367.5000
20
0.0000
30
0
11
367.5000
21
10.0000
31
0
0
LINE
8
FINA
10
367.5000
20
287.0000
30
0
11
367.5000
21
297.0000
31
0
0
LINE
8
FINA
10
0.0000
20
49.5000
30
0
11
10.0000
21
49.5000
31
0
0
LINE
8
FINA
10
410.0000
20
49.5000
30
0
11
420.0000
21
49.5000
31
0
0
LINE
8
FINA
10
0.0000
20
99.0000
30
0
11
10.0000
21
99.0000
31
0
0
LINE
8
FINA
10
410.0000
20
99.0000
30
0
11
420.0000
21
99.0000
31
0
0
LINE
8
FINA
10
0.0000
20
148.5000
30
0
11
10.0000
21
148.5000
31
0
0
LINE
8
FINA
10
410.0000
20
148.5000
30
0
11
420.0000
21
148.5000
31
0
0
LINE
8
FINA
10
0.0000
20
198.0000
30
0
11
10.0000
21
198.0000
31
0
0
LINE
8
FINA
10
410.0000
20
198.0000
30
0
11
420.0000
21
198.0000
31
0
0
LINE
8
FINA
10
0.0000
20
247.5000
30
0
11
10.0000
21
247.5000
31
0
0
LINE
8
FINA
10
410.0000
20
247.5000
30
0
11
420.0000
21
247.5000
31
0
0
TEXT
8
TEXTO
10
26.2500
20
5.0000
30
0
40
2.5000
1
1
72
1
73
2
11
26.2500
21
5.0000
31
0
0
TEXT
8
TEXTO
10
26.2500
20
292.0000
30
0
40
2.5000
1
1
72
1
73
2
11
26.2500
21
292.0000
31
0
0
TEXT
8
TEXTO
10
78.7500
20
5.0000
30
0
40
2.5000
1
2
72
1
73
2
11
78.7500
21
5.0000
31
0
0
TEXT
8
TEXTO
10
78.7500
20
292.0000
30
0
40
2.5000
1
2
72
1
73
2
11
78.7500
21
292.0000
31
0
0
TEXT
8
TEXTO
10
131.2500
20
5.0000
30
0
40
2.5000
1
3
72
1
73
2
11
131.2500
21
5.0000
31
0
0
TEXT
8
TEXTO
10
131.2500
20
292.0000
30
0
40
2.5000
1
3
72
1
73
2
11
131.2500
21
292.0000
31
0
0
TEXT
8
TEXTO
10
183.7500
20
5.0000
30
0
40
2.5000
1
4
72
1
73
2
11
183.7500
21
5.0000
31
0
0
TEXT
8
TEXTO
10
183.7500
20
292.0000
30
0
40
2.5000
1
4
72
1
73
2
11
183.7500
21
292.0000
31
0
0
TEXT
8
TEXTO
10
236.2500
20
5.0000
30
0
40
2.5000
1
5
72
1
73
2
11
236.2500
21
5.0000
31
0
0
TEXT
8
TEXTO
10
236.2500
20
292.0000
30
0
40
2.5000
1
5
72
1
73
2
11
236.2500
21
292.0000
31
0
0
TEXT
8
TEXTO
10
288.7500
20
5.0000
30
0
40
2.5000
1
6
72
1
73
2
11
288.7500
21
5.0000
31
0
0
TEXT
8
TEXTO
10
288.7500
20
292.0000
30
0
40
2.5000
1
6
72
1
73
2
11
288.7500
21
292.0000
31
0
0
TEXT
8
TEXTO
10
341.2500
20
5.0000
30
0
40
2.5000
1
7
72
1
73
2
11
341.2500
21
5.0000
31
0
0
TEXT
8
TEXTO
10
341.2500
20
292.0000
30
0
40
2.5000
1
7
72
1
73
2
11
341.2500
21
292.0000
31
0
0
TEXT
8
TEXTO
10
393.7500
20
5.0000
30
0
40
2.5000
1
8
72
1
73
2
11
393.7500
21
5.0000
31
0
0
TEXT
8
TEXTO
10
393.7500
20
292.0000
30
0
40
2.5000
1
8
72
1
73
2
11
393.7500
21
292.0000
31
0
0
TEXT
8
TEXTO
10
5.0000
20
272.2500
30
0
40
2.5000
1
A
72
1
73
2
11
5.0000
21
272.2500
31
0
0
TEXT
8
TEXTO
10
415.0000
20
272.2500
30
0
40
2.5000
1
A
72
1
73
2
11
415.0000
21
272.2500
31
0
0
TEXT
8
TEXTO
10
5.0000
20
222.7500
30
0
40
2.5000
1
B
72
1
73
2
11
5.0000
21
222.7500
31
0
0
TEXT
8
TEXTO
10
415.0000
20
222.7500
30
0
40
2.5000
1
B
72
1
73
2
11
415.0000
21
222.7500
31
0
0
TEXT
8
TEXTO
10
5.0000
20
173.2500
30
0
40
2.5000
1
C
72
1
73
2
11
5.0000
21
173.2500
31
0
0
TEXT
8
TEXTO
10
415.0000
20
173.2500
30
0
40
2.5000
1
C
72
1
73
2
11
415.0000
21
173.2500
31
0
0
TEXT
8
TEXTO
10
5.0000
20
123.7500
30
0
40
2.5000
1
D
72
1
73
2
11
5.0000
21
123.7500
31
0
0
TEXT
8
TEXTO
10
415.0000
20
123.7500
30
0
40
2.5000
1
D
72
1
73
2
11
415.0000
21
123.7500
31
0
0
TEXT
8
TEXTO
10
5.0000
20
74.2500
30
0
40
2.5000
1
E
72
1
73
2
11
5.0000
21
74.2500
31
0
0
TEXT
8
TEXTO
10
415.0000
20
74.2500
30
0
40
2.5000
1
E
72
1
73
2
11
415.0000
21
74.2500
31
0
0
TEXT
8
TEXTO
10
5.0000
20
24.7500
30
0
40
2.5000
1
F
72
1
73
2
11
5.0000
21
24.7500
31
0
0
TEXT
8
TEXTO
10
415.0000
20
24.7500
30
0
40
2.5000
1
F
72
1
73
2
11
415.0000
21
24.7500
31
0
0
LINE
8
NORMA
10
230.0000
20
10.0000
30
0
11
410.0000
21
10.0000
31
0
0
LINE
8
NORMA
10
410.0000
20
10.0000
30
0
11
410.0000
21
52.0000
31
0
0
LINE
8
NORMA
10
410.0000
20
52.0000
30
0
11
230.0000
21
52.0000
31
0
0
LINE
8
NORMA
10
230.0000
20
52.0000
30
0
11
230.0000
21
10.0000
31
0
0
LINE
8
NORMA
10
270.0000
20
10.0000
30
0
11
270.0000
21
52.0000
31
0
0
LINE
8
NORMA
10
364.0000
20
10.0000
30
0
11
364.0000
21
52.0000
31
0
0
LINE
8
FINA
10
230.0000
20
29.0000
30
0
11
270.0000
21
29.0000
31
0
0
TEXT
8
TEXTO
10
250.0000
20
43.4000
30
0
40
4.9000
1
ConveyOne
72
1
73
2
11
250.0000
21
43.4000
31
0
0
LINE
8
FINA
10
236.5000
20
38.6000
30
0
11
263.5000
21
38.6000
31
0
0
TEXT
8
TEXTO
10
250.0000
20
35.8000
30
0
40
1.3000
1
CAD · DISEÑO CAPA USER
72
1
73
2
11
250.0000
21
35.8000
31
0
0
TEXT
8
TEXTO
10
250.0000
20
32.6000
30
0
40
1.3000
1
ISO 5457 · 7200 · 129 · 5456-2
72
1
73
2
11
250.0000
21
32.6000
31
0
0
TEXT
8
TEXTO
10
250.0000
20
26.6000
30
0
40
1.4000
1
PROYECCIÓN — PRIMER DIEDRO
72
1
73
2
11
250.0000
21
26.6000
31
0
0
CIRCLE
8
TEXTO
10
245.4000
20
17.5000
30
0
40
2.9900
0
CIRCLE
8
TEXTO
10
245.4000
20
17.5000
30
0
40
1.6100
0
LINE
8
TEXTO
10
250.4600
20
14.5100
30
0
11
257.5900
21
15.8900
31
0
0
LINE
8
TEXTO
10
257.5900
20
15.8900
30
0
11
257.5900
21
19.1100
31
0
0
LINE
8
TEXTO
10
257.5900
20
19.1100
30
0
11
250.4600
21
20.4900
31
0
0
LINE
8
TEXTO
10
250.4600
20
20.4900
30
0
11
250.4600
21
14.5100
31
0
0
LINE
8
FINA
10
241.0300
20
17.5000
30
0
11
258.9700
21
17.5000
31
0
0
LINE
8
FINA
10
270.0000
20
39.0000
30
0
11
364.0000
21
39.0000
31
0
0
LINE
8
FINA
10
270.0000
20
29.0000
30
0
11
364.0000
21
29.0000
31
0
0
LINE
8
FINA
10
270.0000
20
19.0000
30
0
11
364.0000
21
19.0000
31
0
0
LINE
8
FINA
10
317.0000
20
29.0000
30
0
11
317.0000
21
39.0000
31
0
0
LINE
8
FINA
10
326.0000
20
19.0000
30
0
11
326.0000
21
29.0000
31
0
0
TEXT
8
TEXTO
10
271.3000
20
49.6000
30
0
40
1.4000
1
DESIGNACIÓN
0
TEXT
8
TEXTO
10
271.6000
20
44.1000
30
0
40
2.0000
1
GTD-10 · Tira telescópica BR_3002 84×38×3 (10 ranuras 11×20) + pata B_004A (soldada) (x4) — …
72
0
73
2
11
271.6000
21
44.1000
31
0
0
TEXT
8
TEXTO
10
271.3000
20
36.6000
30
0
40
1.4000
1
PROYECTO
0
TEXT
8
TEXTO
10
271.6000
20
32.6000
30
0
40
2.0000
1
CV-GT-800 · Movex 530 GT (friction top) 18 in…
72
0
73
2
11
271.6000
21
32.6000
31
0
0
TEXT
8
TEXTO
10
318.3000
20
36.6000
30
0
40
1.4000
1
FUENTE
0
TEXT
8
TEXTO
10
318.6000
20
32.6000
30
0
40
2.4000
1
chapa plegada — capa user
72
0
73
2
11
318.6000
21
32.6000
31
0
0
TEXT
8
TEXTO
10
271.3000
20
26.6000
30
0
40
1.4000
1
VERIFICACIÓN DE ESCALA
0
TEXT
8
TEXTO
10
271.6000
20
22.6000
30
0
40
2.4000
1
CAD EN MM (CAPA USER)
72
0
73
2
11
271.6000
21
22.6000
31
0
0
TEXT
8
TEXTO
10
327.3000
20
26.6000
30
0
40
1.4000
1
PLIEGUES
0
TEXT
8
TEXTO
10
327.6000
20
22.6000
30
0
40
2.6000
1
2
72
0
73
2
11
327.6000
21
22.6000
31
0
0
TEXT
8
TEXTO
10
271.3000
20
16.6000
30
0
40
1.4000
1
NOTA
0
TEXT
8
TEXTO
10
271.6000
20
13.1000
30
0
40
2.2000
1
Acero S275JR e3 — PINTADO RAL 7035 · e3 · tol. gral. ISO 2768-mK · K=0.44
72
0
73
2
11
271.6000
21
13.1000
31
0
0
LINE
8
FINA
10
364.0000
20
39.0000
30
0
11
410.0000
21
39.0000
31
0
0
LINE
8
FINA
10
364.0000
20
29.0000
30
0
11
410.0000
21
29.0000
31
0
0
LINE
8
FINA
10
364.0000
20
19.0000
30
0
11
410.0000
21
19.0000
31
0
0
LINE
8
FINA
10
387.0000
20
29.0000
30
0
11
387.0000
21
39.0000
31
0
0
LINE
8
FINA
10
390.0000
20
19.0000
30
0
11
390.0000
21
29.0000
31
0
0
TEXT
8
TEXTO
10
365.3000
20
49.6000
30
0
40
1.4000
1
ESCALA
0
TEXT
8
TEXTO
10
387.0000
20
44.1000
30
0
40
5.0000
1
1:1
72
1
73
2
11
387.0000
21
44.1000
31
0
0
TEXT
8
TEXTO
10
365.3000
20
36.6000
30
0
40
1.4000
1
FORMATO
0
TEXT
8
TEXTO
10
375.5000
20
32.6000
30
0
40
3.0000
1
A3
72
1
73
2
11
375.5000
21
32.6000
31
0
0
TEXT
8
TEXTO
10
388.3000
20
36.6000
30
0
40
1.4000
1
LÁMINA
0
TEXT
8
TEXTO
10
398.5000
20
32.6000
30
0
40
3.0000
1
1 / 1
72
1
73
2
11
398.5000
21
32.6000
31
0
0
TEXT
8
TEXTO
10
365.3000
20
26.6000
30
0
40
1.4000
1
FECHA
0
TEXT
8
TEXTO
10
377.0000
20
22.6000
30
0
40
2.6000
1
2026-08-18
72
1
73
2
11
377.0000
21
22.6000
31
0
0
TEXT
8
TEXTO
10
391.3000
20
26.6000
30
0
40
1.4000
1
UNIDADES
0
TEXT
8
TEXTO
10
400.0000
20
22.6000
30
0
40
3.0000
1
mm
72
1
73
2
11
400.0000
21
22.6000
31
0
0
TEXT
8
TEXTO
10
365.3000
20
16.6000
30
0
40
1.4000
1
Nº DE PLANO
0
TEXT
8
TEXTO
10
387.0000
20
13.1000
30
0
40
2.6000
1
GTD-10
72
1
73
2
11
387.0000
21
13.1000
31
0
0
ENDSEC
0
EOF
