0
SECTION
2
HEADER
9
$ACADVER
1
AC1009
9
$DWGCODEPAGE
3
ANSI_1252
0
ENDSEC
0
SECTION
2
TABLES
0
TABLE
2
LTYPE
70
3
0
LTYPE
2
CONTINUOUS
70
0
3
Solid line
72
65
73
0
40
0
0
LTYPE
2
DASHED
70
0
3
Segmentada __ __ __
72
65
73
2
40
6
49
4
49
-2
0
LTYPE
2
CENTER
70
0
3
Centro ____ _ ____
72
65
73
4
40
11
49
7
49
-1.2
49
1.2
49
-1.2
0
ENDTAB
0
TABLE
2
LAYER
70
9
0
LAYER
2
SOMBRA
70
0
62
8
6
CONTINUOUS
0
LAYER
2
NORMA
70
0
62
7
6
CONTINUOUS
0
LAYER
2
FINA
70
0
62
7
6
CONTINUOUS
0
LAYER
2
VISIBLE
70
0
62
7
6
CONTINUOUS
0
LAYER
2
COTAS
70
0
62
7
6
CONTINUOUS
0
LAYER
2
TEXTO
70
0
62
7
6
CONTINUOUS
0
LAYER
2
PLIEGUE
70
0
62
1
6
DASHED
0
LAYER
2
OCULTA
70
0
62
7
6
DASHED
0
LAYER
2
EJE
70
0
62
4
6
CENTER
0
ENDTAB
0
ENDSEC
0
SECTION
2
ENTITIES
0
LINE
8
VISIBLE
10
199.5000
20
293.7150
30
0
11
199.7400
21
291.5550
31
0
0
LINE
8
VISIBLE
10
199.7400
20
291.5550
30
0
11
200.4600
21
289.8750
31
0
0
LINE
8
VISIBLE
10
200.4600
20
289.8750
30
0
11
201.6600
21
288.6750
31
0
0
LINE
8
VISIBLE
10
201.6600
20
288.6750
30
0
11
203.3400
21
287.9550
31
0
0
LINE
8
VISIBLE
10
203.3400
20
287.9550
30
0
11
205.5000
21
287.7150
31
0
0
LINE
8
VISIBLE
10
205.5000
20
287.7150
30
0
11
679.2900
21
287.7150
31
0
0
LINE
8
VISIBLE
10
679.2900
20
287.7150
30
0
11
681.4500
21
287.9550
31
0
0
LINE
8
VISIBLE
10
681.4500
20
287.9550
30
0
11
683.1300
21
288.6750
31
0
0
LINE
8
VISIBLE
10
683.1300
20
288.6750
30
0
11
684.3300
21
289.8750
31
0
0
LINE
8
VISIBLE
10
684.3300
20
289.8750
30
0
11
685.0500
21
291.5550
31
0
0
LINE
8
VISIBLE
10
685.0500
20
291.5550
30
0
11
685.2900
21
293.7150
31
0
0
LINE
8
VISIBLE
10
685.2900
20
293.7150
30
0
11
685.2900
21
327.2850
31
0
0
LINE
8
VISIBLE
10
685.2900
20
327.2850
30
0
11
865.2900
21
327.2850
31
0
0
LINE
8
VISIBLE
10
865.2900
20
327.2850
30
0
11
865.2900
21
293.7150
31
0
0
LINE
8
VISIBLE
10
865.2900
20
293.7150
30
0
11
865.5300
21
291.5550
31
0
0
LINE
8
VISIBLE
10
865.5300
20
291.5550
30
0
11
866.2500
21
289.8750
31
0
0
LINE
8
VISIBLE
10
866.2500
20
289.8750
30
0
11
867.4500
21
288.6750
31
0
0
LINE
8
VISIBLE
10
867.4500
20
288.6750
30
0
11
869.1300
21
287.9550
31
0
0
LINE
8
VISIBLE
10
869.1300
20
287.9550
30
0
11
871.2900
21
287.7150
31
0
0
LINE
8
VISIBLE
10
871.2900
20
287.7150
30
0
11
885.8500
21
287.7150
31
0
0
LINE
8
VISIBLE
10
885.8500
20
287.7150
30
0
11
888.0100
21
287.9550
31
0
0
LINE
8
VISIBLE
10
888.0100
20
287.9550
30
0
11
889.6900
21
288.6750
31
0
0
LINE
8
VISIBLE
10
889.6900
20
288.6750
30
0
11
890.8900
21
289.8750
31
0
0
LINE
8
VISIBLE
10
890.8900
20
289.8750
30
0
11
891.6100
21
291.5550
31
0
0
LINE
8
VISIBLE
10
891.6100
20
291.5550
30
0
11
891.8500
21
293.7150
31
0
0
LINE
8
VISIBLE
10
891.8500
20
293.7150
30
0
11
891.8500
21
327.2850
31
0
0
LINE
8
VISIBLE
10
891.8500
20
327.2850
30
0
11
999.5000
21
327.2850
31
0
0
LINE
8
VISIBLE
10
999.5000
20
327.2850
30
0
11
999.5000
21
287.7150
31
0
0
LINE
8
VISIBLE
10
999.5000
20
287.7150
30
0
11
999.5000
21
594.2850
31
0
0
LINE
8
VISIBLE
10
999.5000
20
594.2850
30
0
11
999.2600
21
596.4450
31
0
0
LINE
8
VISIBLE
10
999.2600
20
596.4450
30
0
11
998.5400
21
598.1250
31
0
0
LINE
8
VISIBLE
10
998.5400
20
598.1250
30
0
11
997.3400
21
599.3250
31
0
0
LINE
8
VISIBLE
10
997.3400
20
599.3250
30
0
11
995.6600
21
600.0450
31
0
0
LINE
8
VISIBLE
10
995.6600
20
600.0450
30
0
11
993.5000
21
600.2850
31
0
0
LINE
8
VISIBLE
10
993.5000
20
600.2850
30
0
11
205.5000
21
600.2850
31
0
0
LINE
8
VISIBLE
10
205.5000
20
600.2850
30
0
11
203.3400
21
600.0450
31
0
0
LINE
8
VISIBLE
10
203.3400
20
600.0450
30
0
11
201.6600
21
599.3250
31
0
0
LINE
8
VISIBLE
10
201.6600
20
599.3250
30
0
11
200.4600
21
598.1250
31
0
0
LINE
8
VISIBLE
10
200.4600
20
598.1250
30
0
11
199.7400
21
596.4450
31
0
0
LINE
8
VISIBLE
10
199.7400
20
596.4450
30
0
11
199.5000
21
594.2850
31
0
0
LINE
8
VISIBLE
10
199.5000
20
594.2850
30
0
11
199.5000
21
293.7150
31
0
0
CIRCLE
8
VISIBLE
10
709.5000
20
396.5350
30
0
40
4.5000
0
TEXT
8
TEXTO
10
714.7000
20
395.7350
30
0
40
2.2000
1
B
0
CIRCLE
8
VISIBLE
10
279.5000
20
468.2850
30
0
40
4.5000
0
TEXT
8
TEXTO
10
284.7000
20
467.4850
30
0
40
2.2000
1
B
0
CIRCLE
8
VISIBLE
10
487.5000
20
534.5350
30
0
40
3.5000
0
TEXT
8
TEXTO
10
491.7000
20
533.7350
30
0
40
2.2000
1
A
0
CIRCLE
8
VISIBLE
10
511.5000
20
534.5350
30
0
40
3.5000
0
TEXT
8
TEXTO
10
515.7000
20
533.7350
30
0
40
2.2000
1
A
0
CIRCLE
8
VISIBLE
10
714.5000
20
495.2850
30
0
40
5.5000
0
TEXT
8
TEXTO
10
720.7000
20
494.4850
30
0
40
2.2000
1
C
0
CIRCLE
8
VISIBLE
10
714.5000
20
425.2850
30
0
40
5.5000
0
TEXT
8
TEXTO
10
720.7000
20
424.4850
30
0
40
2.2000
1
C
0
CIRCLE
8
VISIBLE
10
714.5000
20
355.2850
30
0
40
5.5000
0
TEXT
8
TEXTO
10
720.7000
20
354.4850
30
0
40
2.2000
1
C
0
CIRCLE
8
VISIBLE
10
954.5000
20
495.2850
30
0
40
5.5000
0
TEXT
8
TEXTO
10
960.7000
20
494.4850
30
0
40
2.2000
1
C
0
CIRCLE
8
VISIBLE
10
954.5000
20
425.2850
30
0
40
5.5000
0
TEXT
8
TEXTO
10
960.7000
20
424.4850
30
0
40
2.2000
1
C
0
CIRCLE
8
VISIBLE
10
954.5000
20
355.2850
30
0
40
5.5000
0
TEXT
8
TEXTO
10
960.7000
20
354.4850
30
0
40
2.2000
1
C
0
CIRCLE
8
VISIBLE
10
253.7000
20
551.5850
30
0
40
3.5000
0
TEXT
8
TEXTO
10
257.9000
20
550.7850
30
0
40
2.2000
1
A
0
CIRCLE
8
VISIBLE
10
253.7000
20
575.5850
30
0
40
3.5000
0
TEXT
8
TEXTO
10
257.9000
20
574.7850
30
0
40
2.2000
1
A
0
CIRCLE
8
VISIBLE
10
945.3000
20
551.5850
30
0
40
3.5000
0
TEXT
8
TEXTO
10
949.5000
20
550.7850
30
0
40
2.2000
1
A
0
CIRCLE
8
VISIBLE
10
945.3000
20
575.5850
30
0
40
3.5000
0
TEXT
8
TEXTO
10
949.5000
20
574.7850
30
0
40
2.2000
1
A
0
CIRCLE
8
VISIBLE
10
275.8000
20
302.2150
30
0
40
4.5000
0
TEXT
8
TEXTO
10
281.0000
20
301.4150
30
0
40
2.2000
1
B
0
CIRCLE
8
VISIBLE
10
327.9000
20
302.2150
30
0
40
4.5000
0
TEXT
8
TEXTO
10
333.1000
20
301.4150
30
0
40
2.2000
1
B
0
CIRCLE
8
VISIBLE
10
371.1000
20
302.2150
30
0
40
4.5000
0
TEXT
8
TEXTO
10
376.3000
20
301.4150
30
0
40
2.2000
1
B
0
CIRCLE
8
VISIBLE
10
423.2000
20
302.2150
30
0
40
4.5000
0
TEXT
8
TEXTO
10
428.4000
20
301.4150
30
0
40
2.2000
1
B
0
CIRCLE
8
VISIBLE
10
508.0900
20
302.2150
30
0
40
4.5000
0
TEXT
8
TEXTO
10
513.2900
20
301.4150
30
0
40
2.2000
1
B
0
CIRCLE
8
VISIBLE
10
560.1900
20
302.2150
30
0
40
4.5000
0
TEXT
8
TEXTO
10
565.3900
20
301.4150
30
0
40
2.2000
1
B
0
CIRCLE
8
VISIBLE
10
603.3900
20
302.2150
30
0
40
4.5000
0
TEXT
8
TEXTO
10
608.5900
20
301.4150
30
0
40
2.2000
1
B
0
CIRCLE
8
VISIBLE
10
655.4900
20
302.2150
30
0
40
4.5000
0
TEXT
8
TEXTO
10
660.6900
20
301.4150
30
0
40
2.2000
1
B
0
TEXT
8
TEXTO
10
199.5000
20
274.7150
30
0
40
3.2000
1
BARRENOS (corte láser): 
0
TEXT
8
TEXTO
10
236.9272
20
274.7150
30
0
40
3.2000
1
A = 6× Ø7  ·  
0
TEXT
8
TEXTO
10
255.2824
20
274.7150
30
0
40
3.2000
1
B = 10× Ø9  ·  
0
TEXT
8
TEXTO
10
275.4168
20
274.7150
30
0
40
3.2000
1
C = 6× Ø11
0
TEXT
8
TEXTO
10
199.5000
20
270.2150
30
0
40
2.8000
1
POSICIONES: DXF de corte a escala REAL 1:1 + _agujeros.csv (X·Y·Ø de cada barreno) — contornos interiores ídem
0
LINE
8
FINA
10
199.5000
20
313.7150
30
0
11
685.2900
21
313.7150
31
0
0
LINE
8
PLIEGUE
10
199.5000
20
320.5050
30
0
11
685.2900
21
320.5050
31
0
0
LINE
8
FINA
10
199.5000
20
327.2850
30
0
11
685.2900
21
327.2850
31
0
0
LINE
8
FINA
10
865.2900
20
313.7150
30
0
11
891.8500
21
313.7150
31
0
0
LINE
8
PLIEGUE
10
865.2900
20
320.5050
30
0
11
891.8500
21
320.5050
31
0
0
LINE
8
FINA
10
865.2900
20
327.2850
30
0
11
891.8500
21
327.2850
31
0
0
TEXT
8
TEXTO
10
599.5000
20
326.5050
30
0
40
2.8000
1
PLEGAR ARRIBA 90° R6 — ala SEGMENTADA (muescas = paso del lazo de banda)
72
1
73
2
11
599.5000
21
326.5050
31
0
0
LINE
8
COTAS
10
199.5000
20
286.7150
30
0
11
199.5000
21
277.2150
31
0
0
LINE
8
COTAS
10
999.5000
20
286.7150
30
0
11
999.5000
21
277.2150
31
0
0
LINE
8
COTAS
10
199.5000
20
278.7150
30
0
11
999.5000
21
278.7150
31
0
0
SOLID
8
COTAS
10
199.5000
20
278.7150
30
0
11
202.0000
21
279.1650
31
0
12
202.0000
22
278.2650
32
0
13
202.0000
23
278.2650
33
0
0
SOLID
8
COTAS
10
999.5000
20
278.7150
30
0
11
997.0000
21
279.1650
31
0
12
997.0000
22
278.2650
32
0
13
997.0000
23
278.2650
33
0
0
TEXT
8
COTAS
10
599.5000
20
280.9150
30
0
40
3.5000
1
800
72
1
73
2
11
599.5000
21
280.9150
31
0
0
LINE
8
COTAS
10
1000.5000
20
287.7150
30
0
11
1010.0000
21
287.7150
31
0
0
LINE
8
COTAS
10
1000.5000
20
600.2850
30
0
11
1010.0000
21
600.2850
31
0
0
LINE
8
COTAS
10
1008.5000
20
287.7150
30
0
11
1008.5000
21
600.2850
31
0
0
SOLID
8
COTAS
10
1008.5000
20
287.7150
30
0
11
1008.9500
21
290.2150
31
0
12
1008.0500
22
290.2150
32
0
13
1008.0500
23
290.2150
33
0
0
SOLID
8
COTAS
10
1008.5000
20
600.2850
30
0
11
1008.9500
21
597.7850
31
0
12
1008.0500
22
597.7850
32
0
13
1008.0500
23
597.7850
33
0
0
TEXT
8
COTAS
10
1010.7000
20
444.0000
30
0
40
3.5000
1
312.6
72
1
73
2
11
1010.7000
21
444.0000
31
0
0
LINE
8
COTAS
10
198.5000
20
287.7150
30
0
11
191.0000
21
287.7150
31
0
0
LINE
8
COTAS
10
198.5000
20
320.5050
30
0
11
191.0000
21
320.5050
31
0
0
LINE
8
COTAS
10
192.5000
20
287.7150
30
0
11
192.5000
21
320.5050
31
0
0
SOLID
8
COTAS
10
192.5000
20
287.7150
30
0
11
192.9500
21
290.2150
31
0
12
192.0500
22
290.2150
32
0
13
192.0500
23
290.2150
33
0
0
SOLID
8
COTAS
10
192.5000
20
320.5050
30
0
11
192.9500
21
318.0050
31
0
12
192.0500
22
318.0050
32
0
13
192.0500
23
318.0050
33
0
0
TEXT
8
COTAS
10
194.7000
20
304.1100
30
0
40
3.5000
1
32.8
72
1
73
2
11
194.7000
21
304.1100
31
0
0
TEXT
8
TEXTO
10
199.5000
20
610.7850
30
0
40
3.5000
1
DESARROLLO DE CHAPA — BA = ang·(R + K·t) · K=0.44 · R=6 · t=6 ? BA(90°)=13.57 mm
0
TEXT
8
TEXTO
10
199.5000
20
605.2850
30
0
40
4.0000
1
ESPESOR DE CHAPA e = 6 mm (constante en toda la pieza)
0
LINE
8
FINA
10
0.0000
20
0.0000
30
0
11
1189.0000
21
0.0000
31
0
0
LINE
8
FINA
10
1189.0000
20
0.0000
30
0
11
1189.0000
21
841.0000
31
0
0
LINE
8
FINA
10
1189.0000
20
841.0000
30
0
11
0.0000
21
841.0000
31
0
0
LINE
8
FINA
10
0.0000
20
841.0000
30
0
11
0.0000
21
0.0000
31
0
0
LINE
8
NORMA
10
20.0000
20
10.0000
30
0
11
1179.0000
21
10.0000
31
0
0
LINE
8
NORMA
10
1179.0000
20
10.0000
30
0
11
1179.0000
21
831.0000
31
0
0
LINE
8
NORMA
10
1179.0000
20
831.0000
30
0
11
20.0000
21
831.0000
31
0
0
LINE
8
NORMA
10
20.0000
20
831.0000
30
0
11
20.0000
21
10.0000
31
0
0
LINE
8
NORMA
10
0.0000
20
420.5000
30
0
11
25.0000
21
420.5000
31
0
0
LINE
8
NORMA
10
1189.0000
20
420.5000
30
0
11
1174.0000
21
420.5000
31
0
0
LINE
8
NORMA
10
594.5000
20
0.0000
30
0
11
594.5000
21
15.0000
31
0
0
LINE
8
NORMA
10
594.5000
20
841.0000
30
0
11
594.5000
21
826.0000
31
0
0
LINE
8
FINA
10
49.5417
20
0.0000
30
0
11
49.5417
21
10.0000
31
0
0
LINE
8
FINA
10
49.5417
20
831.0000
30
0
11
49.5417
21
841.0000
31
0
0
LINE
8
FINA
10
99.0833
20
0.0000
30
0
11
99.0833
21
10.0000
31
0
0
LINE
8
FINA
10
99.0833
20
831.0000
30
0
11
99.0833
21
841.0000
31
0
0
LINE
8
FINA
10
148.6250
20
0.0000
30
0
11
148.6250
21
10.0000
31
0
0
LINE
8
FINA
10
148.6250
20
831.0000
30
0
11
148.6250
21
841.0000
31
0
0
LINE
8
FINA
10
198.1667
20
0.0000
30
0
11
198.1667
21
10.0000
31
0
0
LINE
8
FINA
10
198.1667
20
831.0000
30
0
11
198.1667
21
841.0000
31
0
0
LINE
8
FINA
10
247.7083
20
0.0000
30
0
11
247.7083
21
10.0000
31
0
0
LINE
8
FINA
10
247.7083
20
831.0000
30
0
11
247.7083
21
841.0000
31
0
0
LINE
8
FINA
10
297.2500
20
0.0000
30
0
11
297.2500
21
10.0000
31
0
0
LINE
8
FINA
10
297.2500
20
831.0000
30
0
11
297.2500
21
841.0000
31
0
0
LINE
8
FINA
10
346.7917
20
0.0000
30
0
11
346.7917
21
10.0000
31
0
0
LINE
8
FINA
10
346.7917
20
831.0000
30
0
11
346.7917
21
841.0000
31
0
0
LINE
8
FINA
10
396.3333
20
0.0000
30
0
11
396.3333
21
10.0000
31
0
0
LINE
8
FINA
10
396.3333
20
831.0000
30
0
11
396.3333
21
841.0000
31
0
0
LINE
8
FINA
10
445.8750
20
0.0000
30
0
11
445.8750
21
10.0000
31
0
0
LINE
8
FINA
10
445.8750
20
831.0000
30
0
11
445.8750
21
841.0000
31
0
0
LINE
8
FINA
10
495.4167
20
0.0000
30
0
11
495.4167
21
10.0000
31
0
0
LINE
8
FINA
10
495.4167
20
831.0000
30
0
11
495.4167
21
841.0000
31
0
0
LINE
8
FINA
10
544.9583
20
0.0000
30
0
11
544.9583
21
10.0000
31
0
0
LINE
8
FINA
10
544.9583
20
831.0000
30
0
11
544.9583
21
841.0000
31
0
0
LINE
8
FINA
10
594.5000
20
0.0000
30
0
11
594.5000
21
10.0000
31
0
0
LINE
8
FINA
10
594.5000
20
831.0000
30
0
11
594.5000
21
841.0000
31
0
0
LINE
8
FINA
10
644.0417
20
0.0000
30
0
11
644.0417
21
10.0000
31
0
0
LINE
8
FINA
10
644.0417
20
831.0000
30
0
11
644.0417
21
841.0000
31
0
0
LINE
8
FINA
10
693.5833
20
0.0000
30
0
11
693.5833
21
10.0000
31
0
0
LINE
8
FINA
10
693.5833
20
831.0000
30
0
11
693.5833
21
841.0000
31
0
0
LINE
8
FINA
10
743.1250
20
0.0000
30
0
11
743.1250
21
10.0000
31
0
0
LINE
8
FINA
10
743.1250
20
831.0000
30
0
11
743.1250
21
841.0000
31
0
0
LINE
8
FINA
10
792.6667
20
0.0000
30
0
11
792.6667
21
10.0000
31
0
0
LINE
8
FINA
10
792.6667
20
831.0000
30
0
11
792.6667
21
841.0000
31
0
0
LINE
8
FINA
10
842.2083
20
0.0000
30
0
11
842.2083
21
10.0000
31
0
0
LINE
8
FINA
10
842.2083
20
831.0000
30
0
11
842.2083
21
841.0000
31
0
0
LINE
8
FINA
10
891.7500
20
0.0000
30
0
11
891.7500
21
10.0000
31
0
0
LINE
8
FINA
10
891.7500
20
831.0000
30
0
11
891.7500
21
841.0000
31
0
0
LINE
8
FINA
10
941.2917
20
0.0000
30
0
11
941.2917
21
10.0000
31
0
0
LINE
8
FINA
10
941.2917
20
831.0000
30
0
11
941.2917
21
841.0000
31
0
0
LINE
8
FINA
10
990.8333
20
0.0000
30
0
11
990.8333
21
10.0000
31
0
0
LINE
8
FINA
10
990.8333
20
831.0000
30
0
11
990.8333
21
841.0000
31
0
0
LINE
8
FINA
10
1040.3750
20
0.0000
30
0
11
1040.3750
21
10.0000
31
0
0
LINE
8
FINA
10
1040.3750
20
831.0000
30
0
11
1040.3750
21
841.0000
31
0
0
LINE
8
FINA
10
1089.9167
20
0.0000
30
0
11
1089.9167
21
10.0000
31
0
0
LINE
8
FINA
10
1089.9167
20
831.0000
30
0
11
1089.9167
21
841.0000
31
0
0
LINE
8
FINA
10
1139.4583
20
0.0000
30
0
11
1139.4583
21
10.0000
31
0
0
LINE
8
FINA
10
1139.4583
20
831.0000
30
0
11
1139.4583
21
841.0000
31
0
0
LINE
8
FINA
10
0.0000
20
52.5625
30
0
11
10.0000
21
52.5625
31
0
0
LINE
8
FINA
10
1179.0000
20
52.5625
30
0
11
1189.0000
21
52.5625
31
0
0
LINE
8
FINA
10
0.0000
20
105.1250
30
0
11
10.0000
21
105.1250
31
0
0
LINE
8
FINA
10
1179.0000
20
105.1250
30
0
11
1189.0000
21
105.1250
31
0
0
LINE
8
FINA
10
0.0000
20
157.6875
30
0
11
10.0000
21
157.6875
31
0
0
LINE
8
FINA
10
1179.0000
20
157.6875
30
0
11
1189.0000
21
157.6875
31
0
0
LINE
8
FINA
10
0.0000
20
210.2500
30
0
11
10.0000
21
210.2500
31
0
0
LINE
8
FINA
10
1179.0000
20
210.2500
30
0
11
1189.0000
21
210.2500
31
0
0
LINE
8
FINA
10
0.0000
20
262.8125
30
0
11
10.0000
21
262.8125
31
0
0
LINE
8
FINA
10
1179.0000
20
262.8125
30
0
11
1189.0000
21
262.8125
31
0
0
LINE
8
FINA
10
0.0000
20
315.3750
30
0
11
10.0000
21
315.3750
31
0
0
LINE
8
FINA
10
1179.0000
20
315.3750
30
0
11
1189.0000
21
315.3750
31
0
0
LINE
8
FINA
10
0.0000
20
367.9375
30
0
11
10.0000
21
367.9375
31
0
0
LINE
8
FINA
10
1179.0000
20
367.9375
30
0
11
1189.0000
21
367.9375
31
0
0
LINE
8
FINA
10
0.0000
20
420.5000
30
0
11
10.0000
21
420.5000
31
0
0
LINE
8
FINA
10
1179.0000
20
420.5000
30
0
11
1189.0000
21
420.5000
31
0
0
LINE
8
FINA
10
0.0000
20
473.0625
30
0
11
10.0000
21
473.0625
31
0
0
LINE
8
FINA
10
1179.0000
20
473.0625
30
0
11
1189.0000
21
473.0625
31
0
0
LINE
8
FINA
10
0.0000
20
525.6250
30
0
11
10.0000
21
525.6250
31
0
0
LINE
8
FINA
10
1179.0000
20
525.6250
30
0
11
1189.0000
21
525.6250
31
0
0
LINE
8
FINA
10
0.0000
20
578.1875
30
0
11
10.0000
21
578.1875
31
0
0
LINE
8
FINA
10
1179.0000
20
578.1875
30
0
11
1189.0000
21
578.1875
31
0
0
LINE
8
FINA
10
0.0000
20
630.7500
30
0
11
10.0000
21
630.7500
31
0
0
LINE
8
FINA
10
1179.0000
20
630.7500
30
0
11
1189.0000
21
630.7500
31
0
0
LINE
8
FINA
10
0.0000
20
683.3125
30
0
11
10.0000
21
683.3125
31
0
0
LINE
8
FINA
10
1179.0000
20
683.3125
30
0
11
1189.0000
21
683.3125
31
0
0
LINE
8
FINA
10
0.0000
20
735.8750
30
0
11
10.0000
21
735.8750
31
0
0
LINE
8
FINA
10
1179.0000
20
735.8750
30
0
11
1189.0000
21
735.8750
31
0
0
LINE
8
FINA
10
0.0000
20
788.4375
30
0
11
10.0000
21
788.4375
31
0
0
LINE
8
FINA
10
1179.0000
20
788.4375
30
0
11
1189.0000
21
788.4375
31
0
0
TEXT
8
TEXTO
10
24.7708
20
5.0000
30
0
40
2.5000
1
1
72
1
73
2
11
24.7708
21
5.0000
31
0
0
TEXT
8
TEXTO
10
24.7708
20
836.0000
30
0
40
2.5000
1
1
72
1
73
2
11
24.7708
21
836.0000
31
0
0
TEXT
8
TEXTO
10
74.3125
20
5.0000
30
0
40
2.5000
1
2
72
1
73
2
11
74.3125
21
5.0000
31
0
0
TEXT
8
TEXTO
10
74.3125
20
836.0000
30
0
40
2.5000
1
2
72
1
73
2
11
74.3125
21
836.0000
31
0
0
TEXT
8
TEXTO
10
123.8542
20
5.0000
30
0
40
2.5000
1
3
72
1
73
2
11
123.8542
21
5.0000
31
0
0
TEXT
8
TEXTO
10
123.8542
20
836.0000
30
0
40
2.5000
1
3
72
1
73
2
11
123.8542
21
836.0000
31
0
0
TEXT
8
TEXTO
10
173.3958
20
5.0000
30
0
40
2.5000
1
4
72
1
73
2
11
173.3958
21
5.0000
31
0
0
TEXT
8
TEXTO
10
173.3958
20
836.0000
30
0
40
2.5000
1
4
72
1
73
2
11
173.3958
21
836.0000
31
0
0
TEXT
8
TEXTO
10
222.9375
20
5.0000
30
0
40
2.5000
1
5
72
1
73
2
11
222.9375
21
5.0000
31
0
0
TEXT
8
TEXTO
10
222.9375
20
836.0000
30
0
40
2.5000
1
5
72
1
73
2
11
222.9375
21
836.0000
31
0
0
TEXT
8
TEXTO
10
272.4792
20
5.0000
30
0
40
2.5000
1
6
72
1
73
2
11
272.4792
21
5.0000
31
0
0
TEXT
8
TEXTO
10
272.4792
20
836.0000
30
0
40
2.5000
1
6
72
1
73
2
11
272.4792
21
836.0000
31
0
0
TEXT
8
TEXTO
10
322.0208
20
5.0000
30
0
40
2.5000
1
7
72
1
73
2
11
322.0208
21
5.0000
31
0
0
TEXT
8
TEXTO
10
322.0208
20
836.0000
30
0
40
2.5000
1
7
72
1
73
2
11
322.0208
21
836.0000
31
0
0
TEXT
8
TEXTO
10
371.5625
20
5.0000
30
0
40
2.5000
1
8
72
1
73
2
11
371.5625
21
5.0000
31
0
0
TEXT
8
TEXTO
10
371.5625
20
836.0000
30
0
40
2.5000
1
8
72
1
73
2
11
371.5625
21
836.0000
31
0
0
TEXT
8
TEXTO
10
421.1042
20
5.0000
30
0
40
2.5000
1
9
72
1
73
2
11
421.1042
21
5.0000
31
0
0
TEXT
8
TEXTO
10
421.1042
20
836.0000
30
0
40
2.5000
1
9
72
1
73
2
11
421.1042
21
836.0000
31
0
0
TEXT
8
TEXTO
10
470.6458
20
5.0000
30
0
40
2.5000
1
10
72
1
73
2
11
470.6458
21
5.0000
31
0
0
TEXT
8
TEXTO
10
470.6458
20
836.0000
30
0
40
2.5000
1
10
72
1
73
2
11
470.6458
21
836.0000
31
0
0
TEXT
8
TEXTO
10
520.1875
20
5.0000
30
0
40
2.5000
1
11
72
1
73
2
11
520.1875
21
5.0000
31
0
0
TEXT
8
TEXTO
10
520.1875
20
836.0000
30
0
40
2.5000
1
11
72
1
73
2
11
520.1875
21
836.0000
31
0
0
TEXT
8
TEXTO
10
569.7292
20
5.0000
30
0
40
2.5000
1
12
72
1
73
2
11
569.7292
21
5.0000
31
0
0
TEXT
8
TEXTO
10
569.7292
20
836.0000
30
0
40
2.5000
1
12
72
1
73
2
11
569.7292
21
836.0000
31
0
0
TEXT
8
TEXTO
10
619.2708
20
5.0000
30
0
40
2.5000
1
13
72
1
73
2
11
619.2708
21
5.0000
31
0
0
TEXT
8
TEXTO
10
619.2708
20
836.0000
30
0
40
2.5000
1
13
72
1
73
2
11
619.2708
21
836.0000
31
0
0
TEXT
8
TEXTO
10
668.8125
20
5.0000
30
0
40
2.5000
1
14
72
1
73
2
11
668.8125
21
5.0000
31
0
0
TEXT
8
TEXTO
10
668.8125
20
836.0000
30
0
40
2.5000
1
14
72
1
73
2
11
668.8125
21
836.0000
31
0
0
TEXT
8
TEXTO
10
718.3542
20
5.0000
30
0
40
2.5000
1
15
72
1
73
2
11
718.3542
21
5.0000
31
0
0
TEXT
8
TEXTO
10
718.3542
20
836.0000
30
0
40
2.5000
1
15
72
1
73
2
11
718.3542
21
836.0000
31
0
0
TEXT
8
TEXTO
10
767.8958
20
5.0000
30
0
40
2.5000
1
16
72
1
73
2
11
767.8958
21
5.0000
31
0
0
TEXT
8
TEXTO
10
767.8958
20
836.0000
30
0
40
2.5000
1
16
72
1
73
2
11
767.8958
21
836.0000
31
0
0
TEXT
8
TEXTO
10
817.4375
20
5.0000
30
0
40
2.5000
1
17
72
1
73
2
11
817.4375
21
5.0000
31
0
0
TEXT
8
TEXTO
10
817.4375
20
836.0000
30
0
40
2.5000
1
17
72
1
73
2
11
817.4375
21
836.0000
31
0
0
TEXT
8
TEXTO
10
866.9792
20
5.0000
30
0
40
2.5000
1
18
72
1
73
2
11
866.9792
21
5.0000
31
0
0
TEXT
8
TEXTO
10
866.9792
20
836.0000
30
0
40
2.5000
1
18
72
1
73
2
11
866.9792
21
836.0000
31
0
0
TEXT
8
TEXTO
10
916.5208
20
5.0000
30
0
40
2.5000
1
19
72
1
73
2
11
916.5208
21
5.0000
31
0
0
TEXT
8
TEXTO
10
916.5208
20
836.0000
30
0
40
2.5000
1
19
72
1
73
2
11
916.5208
21
836.0000
31
0
0
TEXT
8
TEXTO
10
966.0625
20
5.0000
30
0
40
2.5000
1
20
72
1
73
2
11
966.0625
21
5.0000
31
0
0
TEXT
8
TEXTO
10
966.0625
20
836.0000
30
0
40
2.5000
1
20
72
1
73
2
11
966.0625
21
836.0000
31
0
0
TEXT
8
TEXTO
10
1015.6042
20
5.0000
30
0
40
2.5000
1
21
72
1
73
2
11
1015.6042
21
5.0000
31
0
0
TEXT
8
TEXTO
10
1015.6042
20
836.0000
30
0
40
2.5000
1
21
72
1
73
2
11
1015.6042
21
836.0000
31
0
0
TEXT
8
TEXTO
10
1065.1458
20
5.0000
30
0
40
2.5000
1
22
72
1
73
2
11
1065.1458
21
5.0000
31
0
0
TEXT
8
TEXTO
10
1065.1458
20
836.0000
30
0
40
2.5000
1
22
72
1
73
2
11
1065.1458
21
836.0000
31
0
0
TEXT
8
TEXTO
10
1114.6875
20
5.0000
30
0
40
2.5000
1
23
72
1
73
2
11
1114.6875
21
5.0000
31
0
0
TEXT
8
TEXTO
10
1114.6875
20
836.0000
30
0
40
2.5000
1
23
72
1
73
2
11
1114.6875
21
836.0000
31
0
0
TEXT
8
TEXTO
10
1164.2292
20
5.0000
30
0
40
2.5000
1
24
72
1
73
2
11
1164.2292
21
5.0000
31
0
0
TEXT
8
TEXTO
10
1164.2292
20
836.0000
30
0
40
2.5000
1
24
72
1
73
2
11
1164.2292
21
836.0000
31
0
0
TEXT
8
TEXTO
10
5.0000
20
814.7188
30
0
40
2.5000
1
A
72
1
73
2
11
5.0000
21
814.7188
31
0
0
TEXT
8
TEXTO
10
1184.0000
20
814.7188
30
0
40
2.5000
1
A
72
1
73
2
11
1184.0000
21
814.7188
31
0
0
TEXT
8
TEXTO
10
5.0000
20
762.1563
30
0
40
2.5000
1
B
72
1
73
2
11
5.0000
21
762.1563
31
0
0
TEXT
8
TEXTO
10
1184.0000
20
762.1563
30
0
40
2.5000
1
B
72
1
73
2
11
1184.0000
21
762.1563
31
0
0
TEXT
8
TEXTO
10
5.0000
20
709.5938
30
0
40
2.5000
1
C
72
1
73
2
11
5.0000
21
709.5938
31
0
0
TEXT
8
TEXTO
10
1184.0000
20
709.5938
30
0
40
2.5000
1
C
72
1
73
2
11
1184.0000
21
709.5938
31
0
0
TEXT
8
TEXTO
10
5.0000
20
657.0313
30
0
40
2.5000
1
D
72
1
73
2
11
5.0000
21
657.0313
31
0
0
TEXT
8
TEXTO
10
1184.0000
20
657.0313
30
0
40
2.5000
1
D
72
1
73
2
11
1184.0000
21
657.0313
31
0
0
TEXT
8
TEXTO
10
5.0000
20
604.4688
30
0
40
2.5000
1
E
72
1
73
2
11
5.0000
21
604.4688
31
0
0
TEXT
8
TEXTO
10
1184.0000
20
604.4688
30
0
40
2.5000
1
E
72
1
73
2
11
1184.0000
21
604.4688
31
0
0
TEXT
8
TEXTO
10
5.0000
20
551.9063
30
0
40
2.5000
1
F
72
1
73
2
11
5.0000
21
551.9063
31
0
0
TEXT
8
TEXTO
10
1184.0000
20
551.9063
30
0
40
2.5000
1
F
72
1
73
2
11
1184.0000
21
551.9063
31
0
0
TEXT
8
TEXTO
10
5.0000
20
499.3438
30
0
40
2.5000
1
G
72
1
73
2
11
5.0000
21
499.3438
31
0
0
TEXT
8
TEXTO
10
1184.0000
20
499.3438
30
0
40
2.5000
1
G
72
1
73
2
11
1184.0000
21
499.3438
31
0
0
TEXT
8
TEXTO
10
5.0000
20
446.7813
30
0
40
2.5000
1
H
72
1
73
2
11
5.0000
21
446.7813
31
0
0
TEXT
8
TEXTO
10
1184.0000
20
446.7813
30
0
40
2.5000
1
H
72
1
73
2
11
1184.0000
21
446.7813
31
0
0
TEXT
8
TEXTO
10
5.0000
20
394.2188
30
0
40
2.5000
1
J
72
1
73
2
11
5.0000
21
394.2188
31
0
0
TEXT
8
TEXTO
10
1184.0000
20
394.2188
30
0
40
2.5000
1
J
72
1
73
2
11
1184.0000
21
394.2188
31
0
0
TEXT
8
TEXTO
10
5.0000
20
341.6563
30
0
40
2.5000
1
K
72
1
73
2
11
5.0000
21
341.6563
31
0
0
TEXT
8
TEXTO
10
1184.0000
20
341.6563
30
0
40
2.5000
1
K
72
1
73
2
11
1184.0000
21
341.6563
31
0
0
TEXT
8
TEXTO
10
5.0000
20
289.0938
30
0
40
2.5000
1
L
72
1
73
2
11
5.0000
21
289.0938
31
0
0
TEXT
8
TEXTO
10
1184.0000
20
289.0938
30
0
40
2.5000
1
L
72
1
73
2
11
1184.0000
21
289.0938
31
0
0
TEXT
8
TEXTO
10
5.0000
20
236.5313
30
0
40
2.5000
1
M
72
1
73
2
11
5.0000
21
236.5313
31
0
0
TEXT
8
TEXTO
10
1184.0000
20
236.5313
30
0
40
2.5000
1
M
72
1
73
2
11
1184.0000
21
236.5313
31
0
0
TEXT
8
TEXTO
10
5.0000
20
183.9688
30
0
40
2.5000
1
N
72
1
73
2
11
5.0000
21
183.9688
31
0
0
TEXT
8
TEXTO
10
1184.0000
20
183.9688
30
0
40
2.5000
1
N
72
1
73
2
11
1184.0000
21
183.9688
31
0
0
TEXT
8
TEXTO
10
5.0000
20
131.4063
30
0
40
2.5000
1
P
72
1
73
2
11
5.0000
21
131.4063
31
0
0
TEXT
8
TEXTO
10
1184.0000
20
131.4063
30
0
40
2.5000
1
P
72
1
73
2
11
1184.0000
21
131.4063
31
0
0
TEXT
8
TEXTO
10
5.0000
20
78.8438
30
0
40
2.5000
1
Q
72
1
73
2
11
5.0000
21
78.8438
31
0
0
TEXT
8
TEXTO
10
1184.0000
20
78.8438
30
0
40
2.5000
1
Q
72
1
73
2
11
1184.0000
21
78.8438
31
0
0
TEXT
8
TEXTO
10
5.0000
20
26.2813
30
0
40
2.5000
1
R
72
1
73
2
11
5.0000
21
26.2813
31
0
0
TEXT
8
TEXTO
10
1184.0000
20
26.2813
30
0
40
2.5000
1
R
72
1
73
2
11
1184.0000
21
26.2813
31
0
0
LINE
8
NORMA
10
999.0000
20
10.0000
30
0
11
1179.0000
21
10.0000
31
0
0
LINE
8
NORMA
10
1179.0000
20
10.0000
30
0
11
1179.0000
21
52.0000
31
0
0
LINE
8
NORMA
10
1179.0000
20
52.0000
30
0
11
999.0000
21
52.0000
31
0
0
LINE
8
NORMA
10
999.0000
20
52.0000
30
0
11
999.0000
21
10.0000
31
0
0
LINE
8
NORMA
10
1039.0000
20
10.0000
30
0
11
1039.0000
21
52.0000
31
0
0
LINE
8
NORMA
10
1133.0000
20
10.0000
30
0
11
1133.0000
21
52.0000
31
0
0
LINE
8
FINA
10
999.0000
20
29.0000
30
0
11
1039.0000
21
29.0000
31
0
0
TEXT
8
TEXTO
10
1019.0000
20
43.4000
30
0
40
4.9000
1
ConveyOne
72
1
73
2
11
1019.0000
21
43.4000
31
0
0
LINE
8
FINA
10
1005.5000
20
38.6000
30
0
11
1032.5000
21
38.6000
31
0
0
TEXT
8
TEXTO
10
1019.0000
20
35.8000
30
0
40
1.3000
1
CAD · DISEÑO CAPA USER
72
1
73
2
11
1019.0000
21
35.8000
31
0
0
TEXT
8
TEXTO
10
1019.0000
20
32.6000
30
0
40
1.3000
1
ISO 5457 · 7200 · 129 · 5456-2
72
1
73
2
11
1019.0000
21
32.6000
31
0
0
TEXT
8
TEXTO
10
1019.0000
20
26.6000
30
0
40
1.4000
1
PROYECCIÓN — PRIMER DIEDRO
72
1
73
2
11
1019.0000
21
26.6000
31
0
0
CIRCLE
8
TEXTO
10
1014.4000
20
17.5000
30
0
40
2.9900
0
CIRCLE
8
TEXTO
10
1014.4000
20
17.5000
30
0
40
1.6100
0
LINE
8
TEXTO
10
1019.4600
20
14.5100
30
0
11
1026.5900
21
15.8900
31
0
0
LINE
8
TEXTO
10
1026.5900
20
15.8900
30
0
11
1026.5900
21
19.1100
31
0
0
LINE
8
TEXTO
10
1026.5900
20
19.1100
30
0
11
1019.4600
21
20.4900
31
0
0
LINE
8
TEXTO
10
1019.4600
20
20.4900
30
0
11
1019.4600
21
14.5100
31
0
0
LINE
8
FINA
10
1010.0300
20
17.5000
30
0
11
1027.9700
21
17.5000
31
0
0
LINE
8
FINA
10
1039.0000
20
39.0000
30
0
11
1133.0000
21
39.0000
31
0
0
LINE
8
FINA
10
1039.0000
20
29.0000
30
0
11
1133.0000
21
29.0000
31
0
0
LINE
8
FINA
10
1039.0000
20
19.0000
30
0
11
1133.0000
21
19.0000
31
0
0
LINE
8
FINA
10
1086.0000
20
29.0000
30
0
11
1086.0000
21
39.0000
31
0
0
LINE
8
FINA
10
1095.0000
20
19.0000
30
0
11
1095.0000
21
29.0000
31
0
0
TEXT
8
TEXTO
10
1040.3000
20
49.6000
30
0
40
1.4000
1
DESIGNACIÓN
0
TEXT
8
TEXTO
10
1040.6000
20
44.1000
30
0
40
2.0000
1
GTD-09 · Placa lateral PL6 L=800 (ambidiestra ×2 — la mano la da el pliegue) (x2 — 1 SEGÚN VIS…
72
0
73
2
11
1040.6000
21
44.1000
31
0
0
TEXT
8
TEXTO
10
1040.3000
20
36.6000
30
0
40
1.4000
1
PROYECTO
0
TEXT
8
TEXTO
10
1040.6000
20
32.6000
30
0
40
2.0000
1
CV-GT-800 · Movex 530 GT (friction top) 18 in…
72
0
73
2
11
1040.6000
21
32.6000
31
0
0
TEXT
8
TEXTO
10
1087.3000
20
36.6000
30
0
40
1.4000
1
FUENTE
0
TEXT
8
TEXTO
10
1087.6000
20
32.6000
30
0
40
2.4000
1
chapa plegada — capa user
72
0
73
2
11
1087.6000
21
32.6000
31
0
0
TEXT
8
TEXTO
10
1040.3000
20
26.6000
30
0
40
1.4000
1
VERIFICACIÓN DE ESCALA
0
TEXT
8
TEXTO
10
1040.6000
20
22.6000
30
0
40
2.4000
1
CAD EN MM (CAPA USER)
72
0
73
2
11
1040.6000
21
22.6000
31
0
0
TEXT
8
TEXTO
10
1096.3000
20
26.6000
30
0
40
1.4000
1
PLIEGUES
0
TEXT
8
TEXTO
10
1096.6000
20
22.6000
30
0
40
2.6000
1
1
72
0
73
2
11
1096.6000
21
22.6000
31
0
0
TEXT
8
TEXTO
10
1040.3000
20
16.6000
30
0
40
1.4000
1
NOTA
0
TEXT
8
TEXTO
10
1040.6000
20
13.1000
30
0
40
2.0000
1
Acero S275JR PL6 — terminación PINTADO RAL 7035 (decisión Sergio 12-08) · e6 · tol. gral. ISO …
72
0
73
2
11
1040.6000
21
13.1000
31
0
0
LINE
8
FINA
10
1133.0000
20
39.0000
30
0
11
1179.0000
21
39.0000
31
0
0
LINE
8
FINA
10
1133.0000
20
29.0000
30
0
11
1179.0000
21
29.0000
31
0
0
LINE
8
FINA
10
1133.0000
20
19.0000
30
0
11
1179.0000
21
19.0000
31
0
0
LINE
8
FINA
10
1156.0000
20
29.0000
30
0
11
1156.0000
21
39.0000
31
0
0
LINE
8
FINA
10
1159.0000
20
19.0000
30
0
11
1159.0000
21
29.0000
31
0
0
TEXT
8
TEXTO
10
1134.3000
20
49.6000
30
0
40
1.4000
1
ESCALA
0
TEXT
8
TEXTO
10
1156.0000
20
44.1000
30
0
40
5.0000
1
1:1
72
1
73
2
11
1156.0000
21
44.1000
31
0
0
TEXT
8
TEXTO
10
1134.3000
20
36.6000
30
0
40
1.4000
1
FORMATO
0
TEXT
8
TEXTO
10
1140.5000
20
32.6000
30
0
40
2.6000
1
A0
72
1
73
2
11
1140.5000
21
32.6000
31
0
0
TEXT
8
TEXTO
10
1149.3000
20
36.6000
30
0
40
1.4000
1
LÁMINA
0
TEXT
8
TEXTO
10
1155.5000
20
32.6000
30
0
40
2.4000
1
1 / 1
72
1
73
2
11
1155.5000
21
32.6000
31
0
0
LINE
8
FINA
10
1163.0000
20
29.0000
30
0
11
1163.0000
21
39.0000
31
0
0
TEXT
8
TEXTO
10
1164.3000
20
36.6000
30
0
40
1.4000
1
REV
0
TEXT
8
TEXTO
10
1171.0000
20
32.6000
30
0
40
4.6000
1
—
72
1
73
2
11
1171.0000
21
32.6000
31
0
0
TEXT
8
TEXTO
10
1134.3000
20
26.6000
30
0
40
1.4000
1
FECHA
0
TEXT
8
TEXTO
10
1146.0000
20
22.6000
30
0
40
2.6000
1
2026-09-01
72
1
73
2
11
1146.0000
21
22.6000
31
0
0
TEXT
8
TEXTO
10
1160.3000
20
26.6000
30
0
40
1.4000
1
UNIDADES
0
TEXT
8
TEXTO
10
1169.0000
20
22.6000
30
0
40
3.0000
1
mm
72
1
73
2
11
1169.0000
21
22.6000
31
0
0
TEXT
8
TEXTO
10
1134.3000
20
16.6000
30
0
40
1.4000
1
Nº DE PLANO
0
TEXT
8
TEXTO
10
1156.0000
20
13.1000
30
0
40
2.6000
1
GTD-09
72
1
73
2
11
1156.0000
21
13.1000
31
0
0
TEXT
8
TEXTO
10
999.0000
20
56.5000
30
0
40
2.0000
1
DIBUJÓ: Célula de Diseño ConveyOne · REVISÓ: panel adversarial · APROBÓ: S. Contreras — PENDIENTE DE FIRMA
0
ENDSEC
0
EOF
