0
SECTION
2
HEADER
9
$ACADVER
1
AC1009
9
$DWGCODEPAGE
3
ANSI_1252
0
ENDSEC
0
SECTION
2
TABLES
0
TABLE
2
LTYPE
70
3
0
LTYPE
2
CONTINUOUS
70
0
3
Solid line
72
65
73
0
40
0
0
LTYPE
2
DASHED
70
0
3
Segmentada __ __ __
72
65
73
2
40
6
49
4
49
-2
0
LTYPE
2
CENTER
70
0
3
Centro ____ _ ____
72
65
73
4
40
11
49
7
49
-1.2
49
1.2
49
-1.2
0
ENDTAB
0
TABLE
2
LAYER
70
9
0
LAYER
2
SOMBRA
70
0
62
8
6
CONTINUOUS
0
LAYER
2
NORMA
70
0
62
7
6
CONTINUOUS
0
LAYER
2
FINA
70
0
62
7
6
CONTINUOUS
0
LAYER
2
VISIBLE
70
0
62
7
6
CONTINUOUS
0
LAYER
2
COTAS
70
0
62
7
6
CONTINUOUS
0
LAYER
2
TEXTO
70
0
62
7
6
CONTINUOUS
0
LAYER
2
PLIEGUE
70
0
62
1
6
DASHED
0
LAYER
2
OCULTA
70
0
62
7
6
DASHED
0
LAYER
2
EJE
70
0
62
4
6
CENTER
0
ENDTAB
0
ENDSEC
0
SECTION
2
ENTITIES
0
LINE
8
VISIBLE
10
117.5000
20
164.7150
30
0
11
117.7400
21
162.5550
31
0
0
LINE
8
VISIBLE
10
117.7400
20
162.5550
30
0
11
118.4600
21
160.8750
31
0
0
LINE
8
VISIBLE
10
118.4600
20
160.8750
30
0
11
119.6600
21
159.6750
31
0
0
LINE
8
VISIBLE
10
119.6600
20
159.6750
30
0
11
121.3400
21
158.9550
31
0
0
LINE
8
VISIBLE
10
121.3400
20
158.9550
30
0
11
123.5000
21
158.7150
31
0
0
LINE
8
VISIBLE
10
123.5000
20
158.7150
30
0
11
480.5000
21
158.7150
31
0
0
LINE
8
VISIBLE
10
480.5000
20
158.7150
30
0
11
482.6600
21
158.9550
31
0
0
LINE
8
VISIBLE
10
482.6600
20
158.9550
30
0
11
484.3400
21
159.6750
31
0
0
LINE
8
VISIBLE
10
484.3400
20
159.6750
30
0
11
485.5400
21
160.8750
31
0
0
LINE
8
VISIBLE
10
485.5400
20
160.8750
30
0
11
486.2600
21
162.5550
31
0
0
LINE
8
VISIBLE
10
486.2600
20
162.5550
30
0
11
486.5000
21
164.7150
31
0
0
LINE
8
VISIBLE
10
486.5000
20
164.7150
30
0
11
486.5000
21
302.2850
31
0
0
LINE
8
VISIBLE
10
486.5000
20
302.2850
30
0
11
486.2600
21
304.4450
31
0
0
LINE
8
VISIBLE
10
486.2600
20
304.4450
30
0
11
485.5400
21
306.1250
31
0
0
LINE
8
VISIBLE
10
485.5400
20
306.1250
30
0
11
484.3400
21
307.3250
31
0
0
LINE
8
VISIBLE
10
484.3400
20
307.3250
30
0
11
482.6600
21
308.0450
31
0
0
LINE
8
VISIBLE
10
482.6600
20
308.0450
30
0
11
480.5000
21
308.2850
31
0
0
LINE
8
VISIBLE
10
480.5000
20
308.2850
30
0
11
123.5000
21
308.2850
31
0
0
LINE
8
VISIBLE
10
123.5000
20
308.2850
30
0
11
121.3400
21
308.0450
31
0
0
LINE
8
VISIBLE
10
121.3400
20
308.0450
30
0
11
119.6600
21
307.3250
31
0
0
LINE
8
VISIBLE
10
119.6600
20
307.3250
30
0
11
118.4600
21
306.1250
31
0
0
LINE
8
VISIBLE
10
118.4600
20
306.1250
30
0
11
117.7400
21
304.4450
31
0
0
LINE
8
VISIBLE
10
117.7400
20
304.4450
30
0
11
117.5000
21
302.2850
31
0
0
LINE
8
VISIBLE
10
117.5000
20
302.2850
30
0
11
117.5000
21
164.7150
31
0
0
LINE
8
VISIBLE
10
145.5000
20
228.0050
30
0
11
165.5000
21
228.0050
31
0
0
LINE
8
VISIBLE
10
165.5000
20
228.0050
30
0
11
165.5000
21
239.0050
31
0
0
LINE
8
VISIBLE
10
165.5000
20
239.0050
30
0
11
145.5000
21
239.0050
31
0
0
LINE
8
VISIBLE
10
145.5000
20
239.0050
30
0
11
145.5000
21
228.0050
31
0
0
LINE
8
VISIBLE
10
179.5000
20
228.0050
30
0
11
199.5000
21
228.0050
31
0
0
LINE
8
VISIBLE
10
199.5000
20
228.0050
30
0
11
199.5000
21
239.0050
31
0
0
LINE
8
VISIBLE
10
199.5000
20
239.0050
30
0
11
179.5000
21
239.0050
31
0
0
LINE
8
VISIBLE
10
179.5000
20
239.0050
30
0
11
179.5000
21
228.0050
31
0
0
LINE
8
VISIBLE
10
213.5000
20
228.0050
30
0
11
233.5000
21
228.0050
31
0
0
LINE
8
VISIBLE
10
233.5000
20
228.0050
30
0
11
233.5000
21
239.0050
31
0
0
LINE
8
VISIBLE
10
233.5000
20
239.0050
30
0
11
213.5000
21
239.0050
31
0
0
LINE
8
VISIBLE
10
213.5000
20
239.0050
30
0
11
213.5000
21
228.0050
31
0
0
LINE
8
VISIBLE
10
247.5000
20
228.0050
30
0
11
267.5000
21
228.0050
31
0
0
LINE
8
VISIBLE
10
267.5000
20
228.0050
30
0
11
267.5000
21
239.0050
31
0
0
LINE
8
VISIBLE
10
267.5000
20
239.0050
30
0
11
247.5000
21
239.0050
31
0
0
LINE
8
VISIBLE
10
247.5000
20
239.0050
30
0
11
247.5000
21
228.0050
31
0
0
LINE
8
VISIBLE
10
281.5000
20
228.0050
30
0
11
301.5000
21
228.0050
31
0
0
LINE
8
VISIBLE
10
301.5000
20
228.0050
30
0
11
301.5000
21
239.0050
31
0
0
LINE
8
VISIBLE
10
301.5000
20
239.0050
30
0
11
281.5000
21
239.0050
31
0
0
LINE
8
VISIBLE
10
281.5000
20
239.0050
30
0
11
281.5000
21
228.0050
31
0
0
LINE
8
VISIBLE
10
315.5000
20
228.0050
30
0
11
335.5000
21
228.0050
31
0
0
LINE
8
VISIBLE
10
335.5000
20
228.0050
30
0
11
335.5000
21
239.0050
31
0
0
LINE
8
VISIBLE
10
335.5000
20
239.0050
30
0
11
315.5000
21
239.0050
31
0
0
LINE
8
VISIBLE
10
315.5000
20
239.0050
30
0
11
315.5000
21
228.0050
31
0
0
LINE
8
VISIBLE
10
349.5000
20
228.0050
30
0
11
369.5000
21
228.0050
31
0
0
LINE
8
VISIBLE
10
369.5000
20
228.0050
30
0
11
369.5000
21
239.0050
31
0
0
LINE
8
VISIBLE
10
369.5000
20
239.0050
30
0
11
349.5000
21
239.0050
31
0
0
LINE
8
VISIBLE
10
349.5000
20
239.0050
30
0
11
349.5000
21
228.0050
31
0
0
LINE
8
VISIBLE
10
383.5000
20
228.0050
30
0
11
403.5000
21
228.0050
31
0
0
LINE
8
VISIBLE
10
403.5000
20
228.0050
30
0
11
403.5000
21
239.0050
31
0
0
LINE
8
VISIBLE
10
403.5000
20
239.0050
30
0
11
383.5000
21
239.0050
31
0
0
LINE
8
VISIBLE
10
383.5000
20
239.0050
30
0
11
383.5000
21
228.0050
31
0
0
LINE
8
VISIBLE
10
417.5000
20
228.0050
30
0
11
437.5000
21
228.0050
31
0
0
LINE
8
VISIBLE
10
437.5000
20
228.0050
30
0
11
437.5000
21
239.0050
31
0
0
LINE
8
VISIBLE
10
437.5000
20
239.0050
30
0
11
417.5000
21
239.0050
31
0
0
LINE
8
VISIBLE
10
417.5000
20
239.0050
30
0
11
417.5000
21
228.0050
31
0
0
LINE
8
VISIBLE
10
451.5000
20
228.0050
30
0
11
471.5000
21
228.0050
31
0
0
LINE
8
VISIBLE
10
471.5000
20
228.0050
30
0
11
471.5000
21
239.0050
31
0
0
LINE
8
VISIBLE
10
471.5000
20
239.0050
30
0
11
451.5000
21
239.0050
31
0
0
LINE
8
VISIBLE
10
451.5000
20
239.0050
30
0
11
451.5000
21
228.0050
31
0
0
LINE
8
FINA
10
117.5000
20
190.7150
30
0
11
486.5000
21
190.7150
31
0
0
LINE
8
PLIEGUE
10
117.5000
20
194.1050
30
0
11
486.5000
21
194.1050
31
0
0
LINE
8
FINA
10
117.5000
20
197.5050
30
0
11
486.5000
21
197.5050
31
0
0
LINE
8
FINA
10
117.5000
20
269.5050
30
0
11
486.5000
21
269.5050
31
0
0
LINE
8
PLIEGUE
10
117.5000
20
272.8950
30
0
11
486.5000
21
272.8950
31
0
0
LINE
8
FINA
10
117.5000
20
276.2850
30
0
11
486.5000
21
276.2850
31
0
0
TEXT
8
TEXTO
10
302.0000
20
200.1050
30
0
40
2.8000
1
PLEGAR ARRIBA 90° R3 (×2)
72
1
73
2
11
302.0000
21
200.1050
31
0
0
LINE
8
COTAS
10
117.5000
20
157.7150
30
0
11
117.5000
21
148.2150
31
0
0
LINE
8
COTAS
10
486.5000
20
157.7150
30
0
11
486.5000
21
148.2150
31
0
0
LINE
8
COTAS
10
117.5000
20
149.7150
30
0
11
486.5000
21
149.7150
31
0
0
SOLID
8
COTAS
10
117.5000
20
149.7150
30
0
11
120.0000
21
150.1650
31
0
12
120.0000
22
149.2650
32
0
13
120.0000
23
149.2650
33
0
0
SOLID
8
COTAS
10
486.5000
20
149.7150
30
0
11
484.0000
21
150.1650
31
0
12
484.0000
22
149.2650
32
0
13
484.0000
23
149.2650
33
0
0
TEXT
8
COTAS
10
302.0000
20
151.9150
30
0
40
3.5000
1
369
72
1
73
2
11
302.0000
21
151.9150
31
0
0
LINE
8
COTAS
10
487.5000
20
158.7150
30
0
11
497.0000
21
158.7150
31
0
0
LINE
8
COTAS
10
487.5000
20
308.2850
30
0
11
497.0000
21
308.2850
31
0
0
LINE
8
COTAS
10
495.5000
20
158.7150
30
0
11
495.5000
21
308.2850
31
0
0
SOLID
8
COTAS
10
495.5000
20
158.7150
30
0
11
495.9500
21
161.2150
31
0
12
495.0500
22
161.2150
32
0
13
495.0500
23
161.2150
33
0
0
SOLID
8
COTAS
10
495.5000
20
308.2850
30
0
11
495.9500
21
305.7850
31
0
12
495.0500
22
305.7850
32
0
13
495.0500
23
305.7850
33
0
0
TEXT
8
COTAS
10
497.7000
20
233.5000
30
0
40
3.5000
1
149.6
72
1
73
2
11
497.7000
21
233.5000
31
0
0
LINE
8
COTAS
10
116.5000
20
158.7150
30
0
11
109.0000
21
158.7150
31
0
0
LINE
8
COTAS
10
116.5000
20
194.1050
30
0
11
109.0000
21
194.1050
31
0
0
LINE
8
COTAS
10
110.5000
20
158.7150
30
0
11
110.5000
21
194.1050
31
0
0
SOLID
8
COTAS
10
110.5000
20
158.7150
30
0
11
110.9500
21
161.2150
31
0
12
110.0500
22
161.2150
32
0
13
110.0500
23
161.2150
33
0
0
SOLID
8
COTAS
10
110.5000
20
194.1050
30
0
11
110.9500
21
191.6050
31
0
12
110.0500
22
191.6050
32
0
13
110.0500
23
191.6050
33
0
0
TEXT
8
COTAS
10
112.7000
20
176.4100
30
0
40
3.5000
1
35.4
72
1
73
2
11
112.7000
21
176.4100
31
0
0
LINE
8
COTAS
10
116.5000
20
158.7150
30
0
11
102.0000
21
158.7150
31
0
0
LINE
8
COTAS
10
116.5000
20
272.8950
30
0
11
102.0000
21
272.8950
31
0
0
LINE
8
COTAS
10
103.5000
20
158.7150
30
0
11
103.5000
21
272.8950
31
0
0
SOLID
8
COTAS
10
103.5000
20
158.7150
30
0
11
103.9500
21
161.2150
31
0
12
103.0500
22
161.2150
32
0
13
103.0500
23
161.2150
33
0
0
SOLID
8
COTAS
10
103.5000
20
272.8950
30
0
11
103.9500
21
270.3950
31
0
12
103.0500
22
270.3950
32
0
13
103.0500
23
270.3950
33
0
0
TEXT
8
COTAS
10
105.7000
20
215.8050
30
0
40
3.5000
1
114.2
72
1
73
2
11
105.7000
21
215.8050
31
0
0
TEXT
8
TEXTO
10
117.5000
20
318.7850
30
0
40
3.5000
1
DESARROLLO DE CHAPA — BA = ang·(R + K·t) · K=0.44 · R=3 · t=3 ? BA(90°)=6.79 mm
0
TEXT
8
TEXTO
10
117.5000
20
313.2850
30
0
40
4.0000
1
ESPESOR DE CHAPA e = 3 mm (constante en toda la pieza)
0
LINE
8
FINA
10
0.0000
20
0.0000
30
0
11
594.0000
21
0.0000
31
0
0
LINE
8
FINA
10
594.0000
20
0.0000
30
0
11
594.0000
21
420.0000
31
0
0
LINE
8
FINA
10
594.0000
20
420.0000
30
0
11
0.0000
21
420.0000
31
0
0
LINE
8
FINA
10
0.0000
20
420.0000
30
0
11
0.0000
21
0.0000
31
0
0
LINE
8
NORMA
10
20.0000
20
10.0000
30
0
11
584.0000
21
10.0000
31
0
0
LINE
8
NORMA
10
584.0000
20
10.0000
30
0
11
584.0000
21
410.0000
31
0
0
LINE
8
NORMA
10
584.0000
20
410.0000
30
0
11
20.0000
21
410.0000
31
0
0
LINE
8
NORMA
10
20.0000
20
410.0000
30
0
11
20.0000
21
10.0000
31
0
0
LINE
8
NORMA
10
0.0000
20
210.0000
30
0
11
25.0000
21
210.0000
31
0
0
LINE
8
NORMA
10
594.0000
20
210.0000
30
0
11
579.0000
21
210.0000
31
0
0
LINE
8
NORMA
10
297.0000
20
0.0000
30
0
11
297.0000
21
15.0000
31
0
0
LINE
8
NORMA
10
297.0000
20
420.0000
30
0
11
297.0000
21
405.0000
31
0
0
LINE
8
FINA
10
49.5000
20
0.0000
30
0
11
49.5000
21
10.0000
31
0
0
LINE
8
FINA
10
49.5000
20
410.0000
30
0
11
49.5000
21
420.0000
31
0
0
LINE
8
FINA
10
99.0000
20
0.0000
30
0
11
99.0000
21
10.0000
31
0
0
LINE
8
FINA
10
99.0000
20
410.0000
30
0
11
99.0000
21
420.0000
31
0
0
LINE
8
FINA
10
148.5000
20
0.0000
30
0
11
148.5000
21
10.0000
31
0
0
LINE
8
FINA
10
148.5000
20
410.0000
30
0
11
148.5000
21
420.0000
31
0
0
LINE
8
FINA
10
198.0000
20
0.0000
30
0
11
198.0000
21
10.0000
31
0
0
LINE
8
FINA
10
198.0000
20
410.0000
30
0
11
198.0000
21
420.0000
31
0
0
LINE
8
FINA
10
247.5000
20
0.0000
30
0
11
247.5000
21
10.0000
31
0
0
LINE
8
FINA
10
247.5000
20
410.0000
30
0
11
247.5000
21
420.0000
31
0
0
LINE
8
FINA
10
297.0000
20
0.0000
30
0
11
297.0000
21
10.0000
31
0
0
LINE
8
FINA
10
297.0000
20
410.0000
30
0
11
297.0000
21
420.0000
31
0
0
LINE
8
FINA
10
346.5000
20
0.0000
30
0
11
346.5000
21
10.0000
31
0
0
LINE
8
FINA
10
346.5000
20
410.0000
30
0
11
346.5000
21
420.0000
31
0
0
LINE
8
FINA
10
396.0000
20
0.0000
30
0
11
396.0000
21
10.0000
31
0
0
LINE
8
FINA
10
396.0000
20
410.0000
30
0
11
396.0000
21
420.0000
31
0
0
LINE
8
FINA
10
445.5000
20
0.0000
30
0
11
445.5000
21
10.0000
31
0
0
LINE
8
FINA
10
445.5000
20
410.0000
30
0
11
445.5000
21
420.0000
31
0
0
LINE
8
FINA
10
495.0000
20
0.0000
30
0
11
495.0000
21
10.0000
31
0
0
LINE
8
FINA
10
495.0000
20
410.0000
30
0
11
495.0000
21
420.0000
31
0
0
LINE
8
FINA
10
544.5000
20
0.0000
30
0
11
544.5000
21
10.0000
31
0
0
LINE
8
FINA
10
544.5000
20
410.0000
30
0
11
544.5000
21
420.0000
31
0
0
LINE
8
FINA
10
0.0000
20
52.5000
30
0
11
10.0000
21
52.5000
31
0
0
LINE
8
FINA
10
584.0000
20
52.5000
30
0
11
594.0000
21
52.5000
31
0
0
LINE
8
FINA
10
0.0000
20
105.0000
30
0
11
10.0000
21
105.0000
31
0
0
LINE
8
FINA
10
584.0000
20
105.0000
30
0
11
594.0000
21
105.0000
31
0
0
LINE
8
FINA
10
0.0000
20
157.5000
30
0
11
10.0000
21
157.5000
31
0
0
LINE
8
FINA
10
584.0000
20
157.5000
30
0
11
594.0000
21
157.5000
31
0
0
LINE
8
FINA
10
0.0000
20
210.0000
30
0
11
10.0000
21
210.0000
31
0
0
LINE
8
FINA
10
584.0000
20
210.0000
30
0
11
594.0000
21
210.0000
31
0
0
LINE
8
FINA
10
0.0000
20
262.5000
30
0
11
10.0000
21
262.5000
31
0
0
LINE
8
FINA
10
584.0000
20
262.5000
30
0
11
594.0000
21
262.5000
31
0
0
LINE
8
FINA
10
0.0000
20
315.0000
30
0
11
10.0000
21
315.0000
31
0
0
LINE
8
FINA
10
584.0000
20
315.0000
30
0
11
594.0000
21
315.0000
31
0
0
LINE
8
FINA
10
0.0000
20
367.5000
30
0
11
10.0000
21
367.5000
31
0
0
LINE
8
FINA
10
584.0000
20
367.5000
30
0
11
594.0000
21
367.5000
31
0
0
TEXT
8
TEXTO
10
24.7500
20
5.0000
30
0
40
2.5000
1
1
72
1
73
2
11
24.7500
21
5.0000
31
0
0
TEXT
8
TEXTO
10
24.7500
20
415.0000
30
0
40
2.5000
1
1
72
1
73
2
11
24.7500
21
415.0000
31
0
0
TEXT
8
TEXTO
10
74.2500
20
5.0000
30
0
40
2.5000
1
2
72
1
73
2
11
74.2500
21
5.0000
31
0
0
TEXT
8
TEXTO
10
74.2500
20
415.0000
30
0
40
2.5000
1
2
72
1
73
2
11
74.2500
21
415.0000
31
0
0
TEXT
8
TEXTO
10
123.7500
20
5.0000
30
0
40
2.5000
1
3
72
1
73
2
11
123.7500
21
5.0000
31
0
0
TEXT
8
TEXTO
10
123.7500
20
415.0000
30
0
40
2.5000
1
3
72
1
73
2
11
123.7500
21
415.0000
31
0
0
TEXT
8
TEXTO
10
173.2500
20
5.0000
30
0
40
2.5000
1
4
72
1
73
2
11
173.2500
21
5.0000
31
0
0
TEXT
8
TEXTO
10
173.2500
20
415.0000
30
0
40
2.5000
1
4
72
1
73
2
11
173.2500
21
415.0000
31
0
0
TEXT
8
TEXTO
10
222.7500
20
5.0000
30
0
40
2.5000
1
5
72
1
73
2
11
222.7500
21
5.0000
31
0
0
TEXT
8
TEXTO
10
222.7500
20
415.0000
30
0
40
2.5000
1
5
72
1
73
2
11
222.7500
21
415.0000
31
0
0
TEXT
8
TEXTO
10
272.2500
20
5.0000
30
0
40
2.5000
1
6
72
1
73
2
11
272.2500
21
5.0000
31
0
0
TEXT
8
TEXTO
10
272.2500
20
415.0000
30
0
40
2.5000
1
6
72
1
73
2
11
272.2500
21
415.0000
31
0
0
TEXT
8
TEXTO
10
321.7500
20
5.0000
30
0
40
2.5000
1
7
72
1
73
2
11
321.7500
21
5.0000
31
0
0
TEXT
8
TEXTO
10
321.7500
20
415.0000
30
0
40
2.5000
1
7
72
1
73
2
11
321.7500
21
415.0000
31
0
0
TEXT
8
TEXTO
10
371.2500
20
5.0000
30
0
40
2.5000
1
8
72
1
73
2
11
371.2500
21
5.0000
31
0
0
TEXT
8
TEXTO
10
371.2500
20
415.0000
30
0
40
2.5000
1
8
72
1
73
2
11
371.2500
21
415.0000
31
0
0
TEXT
8
TEXTO
10
420.7500
20
5.0000
30
0
40
2.5000
1
9
72
1
73
2
11
420.7500
21
5.0000
31
0
0
TEXT
8
TEXTO
10
420.7500
20
415.0000
30
0
40
2.5000
1
9
72
1
73
2
11
420.7500
21
415.0000
31
0
0
TEXT
8
TEXTO
10
470.2500
20
5.0000
30
0
40
2.5000
1
10
72
1
73
2
11
470.2500
21
5.0000
31
0
0
TEXT
8
TEXTO
10
470.2500
20
415.0000
30
0
40
2.5000
1
10
72
1
73
2
11
470.2500
21
415.0000
31
0
0
TEXT
8
TEXTO
10
519.7500
20
5.0000
30
0
40
2.5000
1
11
72
1
73
2
11
519.7500
21
5.0000
31
0
0
TEXT
8
TEXTO
10
519.7500
20
415.0000
30
0
40
2.5000
1
11
72
1
73
2
11
519.7500
21
415.0000
31
0
0
TEXT
8
TEXTO
10
569.2500
20
5.0000
30
0
40
2.5000
1
12
72
1
73
2
11
569.2500
21
5.0000
31
0
0
TEXT
8
TEXTO
10
569.2500
20
415.0000
30
0
40
2.5000
1
12
72
1
73
2
11
569.2500
21
415.0000
31
0
0
TEXT
8
TEXTO
10
5.0000
20
393.7500
30
0
40
2.5000
1
A
72
1
73
2
11
5.0000
21
393.7500
31
0
0
TEXT
8
TEXTO
10
589.0000
20
393.7500
30
0
40
2.5000
1
A
72
1
73
2
11
589.0000
21
393.7500
31
0
0
TEXT
8
TEXTO
10
5.0000
20
341.2500
30
0
40
2.5000
1
B
72
1
73
2
11
5.0000
21
341.2500
31
0
0
TEXT
8
TEXTO
10
589.0000
20
341.2500
30
0
40
2.5000
1
B
72
1
73
2
11
589.0000
21
341.2500
31
0
0
TEXT
8
TEXTO
10
5.0000
20
288.7500
30
0
40
2.5000
1
C
72
1
73
2
11
5.0000
21
288.7500
31
0
0
TEXT
8
TEXTO
10
589.0000
20
288.7500
30
0
40
2.5000
1
C
72
1
73
2
11
589.0000
21
288.7500
31
0
0
TEXT
8
TEXTO
10
5.0000
20
236.2500
30
0
40
2.5000
1
D
72
1
73
2
11
5.0000
21
236.2500
31
0
0
TEXT
8
TEXTO
10
589.0000
20
236.2500
30
0
40
2.5000
1
D
72
1
73
2
11
589.0000
21
236.2500
31
0
0
TEXT
8
TEXTO
10
5.0000
20
183.7500
30
0
40
2.5000
1
E
72
1
73
2
11
5.0000
21
183.7500
31
0
0
TEXT
8
TEXTO
10
589.0000
20
183.7500
30
0
40
2.5000
1
E
72
1
73
2
11
589.0000
21
183.7500
31
0
0
TEXT
8
TEXTO
10
5.0000
20
131.2500
30
0
40
2.5000
1
F
72
1
73
2
11
5.0000
21
131.2500
31
0
0
TEXT
8
TEXTO
10
589.0000
20
131.2500
30
0
40
2.5000
1
F
72
1
73
2
11
589.0000
21
131.2500
31
0
0
TEXT
8
TEXTO
10
5.0000
20
78.7500
30
0
40
2.5000
1
G
72
1
73
2
11
5.0000
21
78.7500
31
0
0
TEXT
8
TEXTO
10
589.0000
20
78.7500
30
0
40
2.5000
1
G
72
1
73
2
11
589.0000
21
78.7500
31
0
0
TEXT
8
TEXTO
10
5.0000
20
26.2500
30
0
40
2.5000
1
H
72
1
73
2
11
5.0000
21
26.2500
31
0
0
TEXT
8
TEXTO
10
589.0000
20
26.2500
30
0
40
2.5000
1
H
72
1
73
2
11
589.0000
21
26.2500
31
0
0
LINE
8
NORMA
10
404.0000
20
10.0000
30
0
11
584.0000
21
10.0000
31
0
0
LINE
8
NORMA
10
584.0000
20
10.0000
30
0
11
584.0000
21
52.0000
31
0
0
LINE
8
NORMA
10
584.0000
20
52.0000
30
0
11
404.0000
21
52.0000
31
0
0
LINE
8
NORMA
10
404.0000
20
52.0000
30
0
11
404.0000
21
10.0000
31
0
0
LINE
8
NORMA
10
444.0000
20
10.0000
30
0
11
444.0000
21
52.0000
31
0
0
LINE
8
NORMA
10
538.0000
20
10.0000
30
0
11
538.0000
21
52.0000
31
0
0
LINE
8
FINA
10
404.0000
20
29.0000
30
0
11
444.0000
21
29.0000
31
0
0
TEXT
8
TEXTO
10
424.0000
20
43.4000
30
0
40
4.9000
1
ConveyOne
72
1
73
2
11
424.0000
21
43.4000
31
0
0
LINE
8
FINA
10
410.5000
20
38.6000
30
0
11
437.5000
21
38.6000
31
0
0
TEXT
8
TEXTO
10
424.0000
20
35.8000
30
0
40
1.3000
1
CAD · DISEÑO CAPA USER
72
1
73
2
11
424.0000
21
35.8000
31
0
0
TEXT
8
TEXTO
10
424.0000
20
32.6000
30
0
40
1.3000
1
ISO 5457 · 7200 · 129 · 5456-2
72
1
73
2
11
424.0000
21
32.6000
31
0
0
TEXT
8
TEXTO
10
424.0000
20
26.6000
30
0
40
1.4000
1
PROYECCIÓN — PRIMER DIEDRO
72
1
73
2
11
424.0000
21
26.6000
31
0
0
CIRCLE
8
TEXTO
10
419.4000
20
17.5000
30
0
40
2.9900
0
CIRCLE
8
TEXTO
10
419.4000
20
17.5000
30
0
40
1.6100
0
LINE
8
TEXTO
10
424.4600
20
14.5100
30
0
11
431.5900
21
15.8900
31
0
0
LINE
8
TEXTO
10
431.5900
20
15.8900
30
0
11
431.5900
21
19.1100
31
0
0
LINE
8
TEXTO
10
431.5900
20
19.1100
30
0
11
424.4600
21
20.4900
31
0
0
LINE
8
TEXTO
10
424.4600
20
20.4900
30
0
11
424.4600
21
14.5100
31
0
0
LINE
8
FINA
10
415.0300
20
17.5000
30
0
11
432.9700
21
17.5000
31
0
0
LINE
8
FINA
10
444.0000
20
39.0000
30
0
11
538.0000
21
39.0000
31
0
0
LINE
8
FINA
10
444.0000
20
29.0000
30
0
11
538.0000
21
29.0000
31
0
0
LINE
8
FINA
10
444.0000
20
19.0000
30
0
11
538.0000
21
19.0000
31
0
0
LINE
8
FINA
10
491.0000
20
29.0000
30
0
11
491.0000
21
39.0000
31
0
0
LINE
8
FINA
10
500.0000
20
19.0000
30
0
11
500.0000
21
29.0000
31
0
0
TEXT
8
TEXTO
10
445.3000
20
49.6000
30
0
40
1.4000
1
DESIGNACIÓN
0
TEXT
8
TEXTO
10
445.6000
20
44.1000
30
0
40
2.0000
1
GTD-10 · Tira telescópica BR_3002 84×38×3 (10 ranuras 11×20) + pata B_004A (soldada) (x4) — …
72
0
73
2
11
445.6000
21
44.1000
31
0
0
TEXT
8
TEXTO
10
445.3000
20
36.6000
30
0
40
1.4000
1
PROYECTO
0
TEXT
8
TEXTO
10
445.6000
20
32.6000
30
0
40
2.0000
1
CV-GT-800 · Movex 530 GT (friction top) 18 in…
72
0
73
2
11
445.6000
21
32.6000
31
0
0
TEXT
8
TEXTO
10
492.3000
20
36.6000
30
0
40
1.4000
1
FUENTE
0
TEXT
8
TEXTO
10
492.6000
20
32.6000
30
0
40
2.4000
1
chapa plegada — capa user
72
0
73
2
11
492.6000
21
32.6000
31
0
0
TEXT
8
TEXTO
10
445.3000
20
26.6000
30
0
40
1.4000
1
VERIFICACIÓN DE ESCALA
0
TEXT
8
TEXTO
10
445.6000
20
22.6000
30
0
40
2.4000
1
CAD EN MM (CAPA USER)
72
0
73
2
11
445.6000
21
22.6000
31
0
0
TEXT
8
TEXTO
10
501.3000
20
26.6000
30
0
40
1.4000
1
PLIEGUES
0
TEXT
8
TEXTO
10
501.6000
20
22.6000
30
0
40
2.6000
1
2
72
0
73
2
11
501.6000
21
22.6000
31
0
0
TEXT
8
TEXTO
10
445.3000
20
16.6000
30
0
40
1.4000
1
NOTA
0
TEXT
8
TEXTO
10
445.6000
20
13.1000
30
0
40
2.2000
1
Acero S275JR e3 — PINTADO RAL 7035 · e3 · tol. gral. ISO 2768-mK · K=0.44
72
0
73
2
11
445.6000
21
13.1000
31
0
0
LINE
8
FINA
10
538.0000
20
39.0000
30
0
11
584.0000
21
39.0000
31
0
0
LINE
8
FINA
10
538.0000
20
29.0000
30
0
11
584.0000
21
29.0000
31
0
0
LINE
8
FINA
10
538.0000
20
19.0000
30
0
11
584.0000
21
19.0000
31
0
0
LINE
8
FINA
10
561.0000
20
29.0000
30
0
11
561.0000
21
39.0000
31
0
0
LINE
8
FINA
10
564.0000
20
19.0000
30
0
11
564.0000
21
29.0000
31
0
0
TEXT
8
TEXTO
10
539.3000
20
49.6000
30
0
40
1.4000
1
ESCALA
0
TEXT
8
TEXTO
10
561.0000
20
44.1000
30
0
40
5.0000
1
1:1
72
1
73
2
11
561.0000
21
44.1000
31
0
0
TEXT
8
TEXTO
10
539.3000
20
36.6000
30
0
40
1.4000
1
FORMATO
0
TEXT
8
TEXTO
10
545.5000
20
32.6000
30
0
40
2.6000
1
A2
72
1
73
2
11
545.5000
21
32.6000
31
0
0
TEXT
8
TEXTO
10
554.3000
20
36.6000
30
0
40
1.4000
1
LÁMINA
0
TEXT
8
TEXTO
10
560.5000
20
32.6000
30
0
40
2.4000
1
1 / 1
72
1
73
2
11
560.5000
21
32.6000
31
0
0
LINE
8
FINA
10
568.0000
20
29.0000
30
0
11
568.0000
21
39.0000
31
0
0
TEXT
8
TEXTO
10
569.3000
20
36.6000
30
0
40
1.4000
1
REV
0
TEXT
8
TEXTO
10
576.0000
20
32.6000
30
0
40
4.6000
1
—
72
1
73
2
11
576.0000
21
32.6000
31
0
0
TEXT
8
TEXTO
10
539.3000
20
26.6000
30
0
40
1.4000
1
FECHA
0
TEXT
8
TEXTO
10
551.0000
20
22.6000
30
0
40
2.6000
1
2026-08-18
72
1
73
2
11
551.0000
21
22.6000
31
0
0
TEXT
8
TEXTO
10
565.3000
20
26.6000
30
0
40
1.4000
1
UNIDADES
0
TEXT
8
TEXTO
10
574.0000
20
22.6000
30
0
40
3.0000
1
mm
72
1
73
2
11
574.0000
21
22.6000
31
0
0
TEXT
8
TEXTO
10
539.3000
20
16.6000
30
0
40
1.4000
1
Nº DE PLANO
0
TEXT
8
TEXTO
10
561.0000
20
13.1000
30
0
40
2.6000
1
GTD-10
72
1
73
2
11
561.0000
21
13.1000
31
0
0
TEXT
8
TEXTO
10
404.0000
20
56.5000
30
0
40
2.0000
1
DIBUJÓ: Célula de Diseño ConveyOne · REVISÓ: panel adversarial · APROBÓ: S. Contreras — PENDIENTE DE FIRMA
0
ENDSEC
0
EOF
