0
SECTION
2
HEADER
9
$ACADVER
1
AC1009
9
$DWGCODEPAGE
3
ANSI_1252
0
ENDSEC
0
SECTION
2
TABLES
0
TABLE
2
LTYPE
70
2
0
LTYPE
2
CONTINUOUS
70
0
3
Solid line
72
65
73
0
40
0
0
LTYPE
2
DASHED
70
0
3
Segmentada __ __ __
72
65
73
2
40
6
49
4
49
-2
0
ENDTAB
0
TABLE
2
LAYER
70
8
0
LAYER
2
SOMBRA
70
0
62
8
6
CONTINUOUS
0
LAYER
2
NORMA
70
0
62
7
6
CONTINUOUS
0
LAYER
2
FINA
70
0
62
7
6
CONTINUOUS
0
LAYER
2
VISIBLE
70
0
62
7
6
CONTINUOUS
0
LAYER
2
COTAS
70
0
62
7
6
CONTINUOUS
0
LAYER
2
TEXTO
70
0
62
7
6
CONTINUOUS
0
LAYER
2
PLIEGUE
70
0
62
1
6
DASHED
0
LAYER
2
OCULTA
70
0
62
7
6
CONTINUOUS
0
ENDTAB
0
ENDSEC
0
SECTION
2
ENTITIES
0
LINE
8
VISIBLE
10
451.0000
20
123.2150
30
0
11
497.5000
21
123.2150
31
0
0
LINE
8
VISIBLE
10
497.5000
20
123.2150
30
0
11
497.5000
21
157.7150
31
0
0
LINE
8
VISIBLE
10
497.5000
20
157.7150
30
0
11
704.5000
21
157.7150
31
0
0
LINE
8
VISIBLE
10
704.5000
20
157.7150
30
0
11
704.5000
21
123.2150
31
0
0
LINE
8
VISIBLE
10
704.5000
20
123.2150
30
0
11
729.7900
21
123.2150
31
0
0
LINE
8
VISIBLE
10
729.7900
20
123.2150
30
0
11
729.7900
21
157.7150
31
0
0
LINE
8
VISIBLE
10
729.7900
20
157.7150
30
0
11
1251.0000
21
157.7150
31
0
0
LINE
8
VISIBLE
10
1251.0000
20
157.7150
30
0
11
1251.0000
21
123.2150
31
0
0
LINE
8
VISIBLE
10
1251.0000
20
123.2150
30
0
11
1251.0000
21
390.5050
31
0
0
LINE
8
VISIBLE
10
1251.0000
20
390.5050
30
0
11
1477.3900
21
390.5050
31
0
0
LINE
8
VISIBLE
10
1477.3900
20
390.5050
30
0
11
1477.3900
21
891.5050
31
0
0
LINE
8
VISIBLE
10
1477.3900
20
891.5050
30
0
11
1251.0000
21
891.5050
31
0
0
LINE
8
VISIBLE
10
1251.0000
20
891.5050
30
0
11
1251.0000
21
1158.7850
31
0
0
LINE
8
VISIBLE
10
1251.0000
20
1158.7850
30
0
11
1251.0000
21
1124.2850
31
0
0
LINE
8
VISIBLE
10
1251.0000
20
1124.2850
30
0
11
729.7900
21
1124.2850
31
0
0
LINE
8
VISIBLE
10
729.7900
20
1124.2850
30
0
11
729.7900
21
1158.7850
31
0
0
LINE
8
VISIBLE
10
729.7900
20
1158.7850
30
0
11
704.5000
21
1158.7850
31
0
0
LINE
8
VISIBLE
10
704.5000
20
1158.7850
30
0
11
704.5000
21
1124.2850
31
0
0
LINE
8
VISIBLE
10
704.5000
20
1124.2850
30
0
11
497.5000
21
1124.2850
31
0
0
LINE
8
VISIBLE
10
497.5000
20
1124.2850
30
0
11
497.5000
21
1158.7850
31
0
0
LINE
8
VISIBLE
10
497.5000
20
1158.7850
30
0
11
451.0000
21
1158.7850
31
0
0
LINE
8
VISIBLE
10
451.0000
20
1158.7850
30
0
11
451.0000
21
891.5050
31
0
0
LINE
8
VISIBLE
10
451.0000
20
891.5050
30
0
11
224.6100
21
891.5050
31
0
0
LINE
8
VISIBLE
10
224.6100
20
891.5050
30
0
11
224.6100
21
390.5050
31
0
0
LINE
8
VISIBLE
10
224.6100
20
390.5050
30
0
11
451.0000
21
390.5050
31
0
0
LINE
8
VISIBLE
10
451.0000
20
390.5050
30
0
11
451.0000
21
123.2150
31
0
0
CIRCLE
8
VISIBLE
10
541.0000
20
641.0050
30
0
40
4.0000
0
TEXT
8
TEXTO
10
546.4000
20
639.4050
30
0
40
3.8000
1
B
0
CIRCLE
8
VISIBLE
10
991.0000
20
641.0050
30
0
40
4.0000
0
TEXT
8
TEXTO
10
996.4000
20
639.4050
30
0
40
3.8000
1
B
0
CIRCLE
8
VISIBLE
10
1131.0000
20
265.1050
30
0
40
24.0000
0
TEXT
8
TEXTO
10
1156.4000
20
263.5050
30
0
40
3.8000
1
C
0
CIRCLE
8
VISIBLE
10
1131.0000
20
1016.8950
30
0
40
24.0000
0
TEXT
8
TEXTO
10
1156.4000
20
1015.2950
30
0
40
3.8000
1
C
0
CIRCLE
8
VISIBLE
10
751.0000
20
205.1050
30
0
40
24.0000
0
TEXT
8
TEXTO
10
776.4000
20
203.5050
30
0
40
3.8000
1
C
0
CIRCLE
8
VISIBLE
10
751.0000
20
1076.8950
30
0
40
24.0000
0
TEXT
8
TEXTO
10
776.4000
20
1075.2950
30
0
40
3.8000
1
C
0
CIRCLE
8
VISIBLE
10
981.0000
20
115.1050
30
0
40
3.5000
0
TEXT
8
TEXTO
10
985.9000
20
113.5050
30
0
40
3.8000
1
A
0
CIRCLE
8
VISIBLE
10
981.0000
20
1166.8950
30
0
40
3.5000
0
TEXT
8
TEXTO
10
985.9000
20
1165.2950
30
0
40
3.8000
1
A
0
CIRCLE
8
VISIBLE
10
981.0000
20
215.1050
30
0
40
3.5000
0
TEXT
8
TEXTO
10
985.9000
20
213.5050
30
0
40
3.8000
1
A
0
CIRCLE
8
VISIBLE
10
981.0000
20
1066.8950
30
0
40
3.5000
0
TEXT
8
TEXTO
10
985.9000
20
1065.2950
30
0
40
3.8000
1
A
0
CIRCLE
8
VISIBLE
10
1191.0000
20
115.1050
30
0
40
3.5000
0
TEXT
8
TEXTO
10
1195.9000
20
113.5050
30
0
40
3.8000
1
A
0
CIRCLE
8
VISIBLE
10
1191.0000
20
1166.8950
30
0
40
3.5000
0
TEXT
8
TEXTO
10
1195.9000
20
1165.2950
30
0
40
3.8000
1
A
0
CIRCLE
8
VISIBLE
10
1191.0000
20
215.1050
30
0
40
3.5000
0
TEXT
8
TEXTO
10
1195.9000
20
213.5050
30
0
40
3.8000
1
A
0
CIRCLE
8
VISIBLE
10
1191.0000
20
1066.8950
30
0
40
3.5000
0
TEXT
8
TEXTO
10
1195.9000
20
1065.2950
30
0
40
3.8000
1
A
0
TEXT
8
TEXTO
10
224.6100
20
97.2150
30
0
40
6.4000
1
BARRENOS (corte láser): A = 8× Ø7 · B = 2× Ø8 · C = 4× Ø48
0
TEXT
8
TEXTO
10
224.6100
20
88.2150
30
0
40
5.6000
1
POSICIONES: DXF de corte a escala REAL 1:1 + _agujeros.csv (X·Y·Ø de cada barreno) — contornos interiores ídem
0
LINE
8
FINA
10
451.0000
20
157.7150
30
0
11
1251.0000
21
157.7150
31
0
0
LINE
8
PLIEGUE
10
451.0000
20
159.4150
30
0
11
1251.0000
21
159.4150
31
0
0
LINE
8
FINA
10
451.0000
20
161.1050
30
0
11
1251.0000
21
161.1050
31
0
0
LINE
8
FINA
10
451.0000
20
387.1050
30
0
11
1251.0000
21
387.1050
31
0
0
LINE
8
PLIEGUE
10
451.0000
20
388.8050
30
0
11
1251.0000
21
388.8050
31
0
0
LINE
8
FINA
10
451.0000
20
390.5050
30
0
11
1251.0000
21
390.5050
31
0
0
LINE
8
FINA
10
451.0000
20
891.5050
30
0
11
1251.0000
21
891.5050
31
0
0
LINE
8
PLIEGUE
10
451.0000
20
893.1950
30
0
11
1251.0000
21
893.1950
31
0
0
LINE
8
FINA
10
451.0000
20
894.8950
30
0
11
1251.0000
21
894.8950
31
0
0
LINE
8
FINA
10
451.0000
20
1120.8950
30
0
11
1251.0000
21
1120.8950
31
0
0
LINE
8
PLIEGUE
10
451.0000
20
1122.5950
30
0
11
1251.0000
21
1122.5950
31
0
0
LINE
8
FINA
10
451.0000
20
1124.2850
30
0
11
1251.0000
21
1124.2850
31
0
0
LINE
8
PLIEGUE
10
451.0000
20
390.5050
30
0
11
451.0000
21
891.5050
31
0
0
LINE
8
PLIEGUE
10
1251.0000
20
390.5050
30
0
11
1251.0000
21
891.5050
31
0
0
TEXT
8
TEXTO
10
851.0000
20
645.0050
30
0
40
5.6000
1
4 PLIEGUES 90° R1.5 — ARTESA EN U + TAPA(S) DE EXTREMO
72
1
73
2
11
851.0000
21
645.0050
31
0
0
LINE
8
COTAS
10
224.6100
20
121.2150
30
0
11
224.6100
21
102.2150
31
0
0
LINE
8
COTAS
10
1477.3900
20
121.2150
30
0
11
1477.3900
21
102.2150
31
0
0
LINE
8
COTAS
10
224.6100
20
105.2150
30
0
11
1477.3900
21
105.2150
31
0
0
SOLID
8
COTAS
10
224.6100
20
105.2150
30
0
11
229.6100
21
106.1150
31
0
12
229.6100
22
104.3150
32
0
13
229.6100
23
104.3150
33
0
0
SOLID
8
COTAS
10
1477.3900
20
105.2150
30
0
11
1472.3900
21
106.1150
31
0
12
1472.3900
22
104.3150
32
0
13
1472.3900
23
104.3150
33
0
0
TEXT
8
COTAS
10
851.0000
20
109.6150
30
0
40
7.0000
1
1252.8
72
1
73
2
11
851.0000
21
109.6150
31
0
0
LINE
8
COTAS
10
1479.3900
20
123.2150
30
0
11
1498.3900
21
123.2150
31
0
0
LINE
8
COTAS
10
1479.3900
20
1158.7850
30
0
11
1498.3900
21
1158.7850
31
0
0
LINE
8
COTAS
10
1495.3900
20
123.2150
30
0
11
1495.3900
21
1158.7850
31
0
0
SOLID
8
COTAS
10
1495.3900
20
123.2150
30
0
11
1496.2900
21
128.2150
31
0
12
1494.4900
22
128.2150
32
0
13
1494.4900
23
128.2150
33
0
0
SOLID
8
COTAS
10
1495.3900
20
1158.7850
30
0
11
1496.2900
21
1153.7850
31
0
12
1494.4900
22
1153.7850
32
0
13
1494.4900
23
1153.7850
33
0
0
TEXT
8
COTAS
10
1499.7900
20
641.0000
30
0
40
7.0000
1
1035.6
72
1
73
2
11
1499.7900
21
641.0000
31
0
0
LINE
8
COTAS
10
222.6100
20
123.2150
30
0
11
207.6100
21
123.2150
31
0
0
LINE
8
COTAS
10
222.6100
20
159.4150
30
0
11
207.6100
21
159.4150
31
0
0
LINE
8
COTAS
10
210.6100
20
123.2150
30
0
11
210.6100
21
159.4150
31
0
0
SOLID
8
COTAS
10
210.6100
20
123.2150
30
0
11
211.5100
21
128.2150
31
0
12
209.7100
22
128.2150
32
0
13
209.7100
23
128.2150
33
0
0
SOLID
8
COTAS
10
210.6100
20
159.4150
30
0
11
211.5100
21
154.4150
31
0
12
209.7100
22
154.4150
32
0
13
209.7100
23
154.4150
33
0
0
TEXT
8
COTAS
10
215.0100
20
141.3150
30
0
40
7.0000
1
36.2
72
1
73
2
11
215.0100
21
141.3150
31
0
0
LINE
8
COTAS
10
222.6100
20
123.2150
30
0
11
193.6100
21
123.2150
31
0
0
LINE
8
COTAS
10
222.6100
20
388.8050
30
0
11
193.6100
21
388.8050
31
0
0
LINE
8
COTAS
10
196.6100
20
123.2150
30
0
11
196.6100
21
388.8050
31
0
0
SOLID
8
COTAS
10
196.6100
20
123.2150
30
0
11
197.5100
21
128.2150
31
0
12
195.7100
22
128.2150
32
0
13
195.7100
23
128.2150
33
0
0
SOLID
8
COTAS
10
196.6100
20
388.8050
30
0
11
197.5100
21
383.8050
31
0
12
195.7100
22
383.8050
32
0
13
195.7100
23
383.8050
33
0
0
TEXT
8
COTAS
10
201.0100
20
256.0100
30
0
40
7.0000
1
265.6
72
1
73
2
11
201.0100
21
256.0100
31
0
0
LINE
8
COTAS
10
222.6100
20
123.2150
30
0
11
179.6100
21
123.2150
31
0
0
LINE
8
COTAS
10
222.6100
20
893.1950
30
0
11
179.6100
21
893.1950
31
0
0
LINE
8
COTAS
10
182.6100
20
123.2150
30
0
11
182.6100
21
893.1950
31
0
0
SOLID
8
COTAS
10
182.6100
20
123.2150
30
0
11
183.5100
21
128.2150
31
0
12
181.7100
22
128.2150
32
0
13
181.7100
23
128.2150
33
0
0
SOLID
8
COTAS
10
182.6100
20
893.1950
30
0
11
183.5100
21
888.1950
31
0
12
181.7100
22
888.1950
32
0
13
181.7100
23
888.1950
33
0
0
TEXT
8
COTAS
10
187.0100
20
508.2050
30
0
40
7.0000
1
770
72
1
73
2
11
187.0100
21
508.2050
31
0
0
LINE
8
COTAS
10
222.6100
20
123.2150
30
0
11
165.6100
21
123.2150
31
0
0
LINE
8
COTAS
10
222.6100
20
1122.5950
30
0
11
165.6100
21
1122.5950
31
0
0
LINE
8
COTAS
10
168.6100
20
123.2150
30
0
11
168.6100
21
1122.5950
31
0
0
SOLID
8
COTAS
10
168.6100
20
123.2150
30
0
11
169.5100
21
128.2150
31
0
12
167.7100
22
128.2150
32
0
13
167.7100
23
128.2150
33
0
0
SOLID
8
COTAS
10
168.6100
20
1122.5950
30
0
11
169.5100
21
1117.5950
31
0
12
167.7100
22
1117.5950
32
0
13
167.7100
23
1117.5950
33
0
0
TEXT
8
COTAS
10
173.0100
20
622.9050
30
0
40
7.0000
1
999.4
72
1
73
2
11
173.0100
21
622.9050
31
0
0
TEXT
8
TEXTO
10
224.6100
20
1179.7850
30
0
40
7.0000
1
DESARROLLO DE CHAPA — BA = ang·(R + K·t) · K=0.44 · R=1.5 · t=1.5 ? BA(90°)=3.39 mm
0
TEXT
8
TEXTO
10
224.6100
20
1168.7850
30
0
40
8.0000
1
ESPESOR DE CHAPA e = 1.5 mm (constante en toda la pieza)
0
LINE
8
FINA
10
0.0000
20
0.0000
30
0
11
1682.0000
21
0.0000
31
0
0
LINE
8
FINA
10
1682.0000
20
0.0000
30
0
11
1682.0000
21
1188.0000
31
0
0
LINE
8
FINA
10
1682.0000
20
1188.0000
30
0
11
0.0000
21
1188.0000
31
0
0
LINE
8
FINA
10
0.0000
20
1188.0000
30
0
11
0.0000
21
0.0000
31
0
0
LINE
8
NORMA
10
40.0000
20
20.0000
30
0
11
1662.0000
21
20.0000
31
0
0
LINE
8
NORMA
10
1662.0000
20
20.0000
30
0
11
1662.0000
21
1168.0000
31
0
0
LINE
8
NORMA
10
1662.0000
20
1168.0000
30
0
11
40.0000
21
1168.0000
31
0
0
LINE
8
NORMA
10
40.0000
20
1168.0000
30
0
11
40.0000
21
20.0000
31
0
0
LINE
8
NORMA
10
0.0000
20
594.0000
30
0
11
50.0000
21
594.0000
31
0
0
LINE
8
NORMA
10
1682.0000
20
594.0000
30
0
11
1652.0000
21
594.0000
31
0
0
LINE
8
NORMA
10
841.0000
20
0.0000
30
0
11
841.0000
21
30.0000
31
0
0
LINE
8
NORMA
10
841.0000
20
1188.0000
30
0
11
841.0000
21
1158.0000
31
0
0
LINE
8
FINA
10
105.1250
20
0.0000
30
0
11
105.1250
21
20.0000
31
0
0
LINE
8
FINA
10
105.1250
20
1168.0000
30
0
11
105.1250
21
1188.0000
31
0
0
LINE
8
FINA
10
210.2500
20
0.0000
30
0
11
210.2500
21
20.0000
31
0
0
LINE
8
FINA
10
210.2500
20
1168.0000
30
0
11
210.2500
21
1188.0000
31
0
0
LINE
8
FINA
10
315.3750
20
0.0000
30
0
11
315.3750
21
20.0000
31
0
0
LINE
8
FINA
10
315.3750
20
1168.0000
30
0
11
315.3750
21
1188.0000
31
0
0
LINE
8
FINA
10
420.5000
20
0.0000
30
0
11
420.5000
21
20.0000
31
0
0
LINE
8
FINA
10
420.5000
20
1168.0000
30
0
11
420.5000
21
1188.0000
31
0
0
LINE
8
FINA
10
525.6250
20
0.0000
30
0
11
525.6250
21
20.0000
31
0
0
LINE
8
FINA
10
525.6250
20
1168.0000
30
0
11
525.6250
21
1188.0000
31
0
0
LINE
8
FINA
10
630.7500
20
0.0000
30
0
11
630.7500
21
20.0000
31
0
0
LINE
8
FINA
10
630.7500
20
1168.0000
30
0
11
630.7500
21
1188.0000
31
0
0
LINE
8
FINA
10
735.8750
20
0.0000
30
0
11
735.8750
21
20.0000
31
0
0
LINE
8
FINA
10
735.8750
20
1168.0000
30
0
11
735.8750
21
1188.0000
31
0
0
LINE
8
FINA
10
841.0000
20
0.0000
30
0
11
841.0000
21
20.0000
31
0
0
LINE
8
FINA
10
841.0000
20
1168.0000
30
0
11
841.0000
21
1188.0000
31
0
0
LINE
8
FINA
10
946.1250
20
0.0000
30
0
11
946.1250
21
20.0000
31
0
0
LINE
8
FINA
10
946.1250
20
1168.0000
30
0
11
946.1250
21
1188.0000
31
0
0
LINE
8
FINA
10
1051.2500
20
0.0000
30
0
11
1051.2500
21
20.0000
31
0
0
LINE
8
FINA
10
1051.2500
20
1168.0000
30
0
11
1051.2500
21
1188.0000
31
0
0
LINE
8
FINA
10
1156.3750
20
0.0000
30
0
11
1156.3750
21
20.0000
31
0
0
LINE
8
FINA
10
1156.3750
20
1168.0000
30
0
11
1156.3750
21
1188.0000
31
0
0
LINE
8
FINA
10
1261.5000
20
0.0000
30
0
11
1261.5000
21
20.0000
31
0
0
LINE
8
FINA
10
1261.5000
20
1168.0000
30
0
11
1261.5000
21
1188.0000
31
0
0
LINE
8
FINA
10
1366.6250
20
0.0000
30
0
11
1366.6250
21
20.0000
31
0
0
LINE
8
FINA
10
1366.6250
20
1168.0000
30
0
11
1366.6250
21
1188.0000
31
0
0
LINE
8
FINA
10
1471.7500
20
0.0000
30
0
11
1471.7500
21
20.0000
31
0
0
LINE
8
FINA
10
1471.7500
20
1168.0000
30
0
11
1471.7500
21
1188.0000
31
0
0
LINE
8
FINA
10
1576.8750
20
0.0000
30
0
11
1576.8750
21
20.0000
31
0
0
LINE
8
FINA
10
1576.8750
20
1168.0000
30
0
11
1576.8750
21
1188.0000
31
0
0
LINE
8
FINA
10
0.0000
20
99.0000
30
0
11
20.0000
21
99.0000
31
0
0
LINE
8
FINA
10
1662.0000
20
99.0000
30
0
11
1682.0000
21
99.0000
31
0
0
LINE
8
FINA
10
0.0000
20
198.0000
30
0
11
20.0000
21
198.0000
31
0
0
LINE
8
FINA
10
1662.0000
20
198.0000
30
0
11
1682.0000
21
198.0000
31
0
0
LINE
8
FINA
10
0.0000
20
297.0000
30
0
11
20.0000
21
297.0000
31
0
0
LINE
8
FINA
10
1662.0000
20
297.0000
30
0
11
1682.0000
21
297.0000
31
0
0
LINE
8
FINA
10
0.0000
20
396.0000
30
0
11
20.0000
21
396.0000
31
0
0
LINE
8
FINA
10
1662.0000
20
396.0000
30
0
11
1682.0000
21
396.0000
31
0
0
LINE
8
FINA
10
0.0000
20
495.0000
30
0
11
20.0000
21
495.0000
31
0
0
LINE
8
FINA
10
1662.0000
20
495.0000
30
0
11
1682.0000
21
495.0000
31
0
0
LINE
8
FINA
10
0.0000
20
594.0000
30
0
11
20.0000
21
594.0000
31
0
0
LINE
8
FINA
10
1662.0000
20
594.0000
30
0
11
1682.0000
21
594.0000
31
0
0
LINE
8
FINA
10
0.0000
20
693.0000
30
0
11
20.0000
21
693.0000
31
0
0
LINE
8
FINA
10
1662.0000
20
693.0000
30
0
11
1682.0000
21
693.0000
31
0
0
LINE
8
FINA
10
0.0000
20
792.0000
30
0
11
20.0000
21
792.0000
31
0
0
LINE
8
FINA
10
1662.0000
20
792.0000
30
0
11
1682.0000
21
792.0000
31
0
0
LINE
8
FINA
10
0.0000
20
891.0000
30
0
11
20.0000
21
891.0000
31
0
0
LINE
8
FINA
10
1662.0000
20
891.0000
30
0
11
1682.0000
21
891.0000
31
0
0
LINE
8
FINA
10
0.0000
20
990.0000
30
0
11
20.0000
21
990.0000
31
0
0
LINE
8
FINA
10
1662.0000
20
990.0000
30
0
11
1682.0000
21
990.0000
31
0
0
LINE
8
FINA
10
0.0000
20
1089.0000
30
0
11
20.0000
21
1089.0000
31
0
0
LINE
8
FINA
10
1662.0000
20
1089.0000
30
0
11
1682.0000
21
1089.0000
31
0
0
TEXT
8
TEXTO
10
52.5625
20
10.0000
30
0
40
5.0000
1
1
72
1
73
2
11
52.5625
21
10.0000
31
0
0
TEXT
8
TEXTO
10
52.5625
20
1178.0000
30
0
40
5.0000
1
1
72
1
73
2
11
52.5625
21
1178.0000
31
0
0
TEXT
8
TEXTO
10
157.6875
20
10.0000
30
0
40
5.0000
1
2
72
1
73
2
11
157.6875
21
10.0000
31
0
0
TEXT
8
TEXTO
10
157.6875
20
1178.0000
30
0
40
5.0000
1
2
72
1
73
2
11
157.6875
21
1178.0000
31
0
0
TEXT
8
TEXTO
10
262.8125
20
10.0000
30
0
40
5.0000
1
3
72
1
73
2
11
262.8125
21
10.0000
31
0
0
TEXT
8
TEXTO
10
262.8125
20
1178.0000
30
0
40
5.0000
1
3
72
1
73
2
11
262.8125
21
1178.0000
31
0
0
TEXT
8
TEXTO
10
367.9375
20
10.0000
30
0
40
5.0000
1
4
72
1
73
2
11
367.9375
21
10.0000
31
0
0
TEXT
8
TEXTO
10
367.9375
20
1178.0000
30
0
40
5.0000
1
4
72
1
73
2
11
367.9375
21
1178.0000
31
0
0
TEXT
8
TEXTO
10
473.0625
20
10.0000
30
0
40
5.0000
1
5
72
1
73
2
11
473.0625
21
10.0000
31
0
0
TEXT
8
TEXTO
10
473.0625
20
1178.0000
30
0
40
5.0000
1
5
72
1
73
2
11
473.0625
21
1178.0000
31
0
0
TEXT
8
TEXTO
10
578.1875
20
10.0000
30
0
40
5.0000
1
6
72
1
73
2
11
578.1875
21
10.0000
31
0
0
TEXT
8
TEXTO
10
578.1875
20
1178.0000
30
0
40
5.0000
1
6
72
1
73
2
11
578.1875
21
1178.0000
31
0
0
TEXT
8
TEXTO
10
683.3125
20
10.0000
30
0
40
5.0000
1
7
72
1
73
2
11
683.3125
21
10.0000
31
0
0
TEXT
8
TEXTO
10
683.3125
20
1178.0000
30
0
40
5.0000
1
7
72
1
73
2
11
683.3125
21
1178.0000
31
0
0
TEXT
8
TEXTO
10
788.4375
20
10.0000
30
0
40
5.0000
1
8
72
1
73
2
11
788.4375
21
10.0000
31
0
0
TEXT
8
TEXTO
10
788.4375
20
1178.0000
30
0
40
5.0000
1
8
72
1
73
2
11
788.4375
21
1178.0000
31
0
0
TEXT
8
TEXTO
10
893.5625
20
10.0000
30
0
40
5.0000
1
9
72
1
73
2
11
893.5625
21
10.0000
31
0
0
TEXT
8
TEXTO
10
893.5625
20
1178.0000
30
0
40
5.0000
1
9
72
1
73
2
11
893.5625
21
1178.0000
31
0
0
TEXT
8
TEXTO
10
998.6875
20
10.0000
30
0
40
5.0000
1
10
72
1
73
2
11
998.6875
21
10.0000
31
0
0
TEXT
8
TEXTO
10
998.6875
20
1178.0000
30
0
40
5.0000
1
10
72
1
73
2
11
998.6875
21
1178.0000
31
0
0
TEXT
8
TEXTO
10
1103.8125
20
10.0000
30
0
40
5.0000
1
11
72
1
73
2
11
1103.8125
21
10.0000
31
0
0
TEXT
8
TEXTO
10
1103.8125
20
1178.0000
30
0
40
5.0000
1
11
72
1
73
2
11
1103.8125
21
1178.0000
31
0
0
TEXT
8
TEXTO
10
1208.9375
20
10.0000
30
0
40
5.0000
1
12
72
1
73
2
11
1208.9375
21
10.0000
31
0
0
TEXT
8
TEXTO
10
1208.9375
20
1178.0000
30
0
40
5.0000
1
12
72
1
73
2
11
1208.9375
21
1178.0000
31
0
0
TEXT
8
TEXTO
10
1314.0625
20
10.0000
30
0
40
5.0000
1
13
72
1
73
2
11
1314.0625
21
10.0000
31
0
0
TEXT
8
TEXTO
10
1314.0625
20
1178.0000
30
0
40
5.0000
1
13
72
1
73
2
11
1314.0625
21
1178.0000
31
0
0
TEXT
8
TEXTO
10
1419.1875
20
10.0000
30
0
40
5.0000
1
14
72
1
73
2
11
1419.1875
21
10.0000
31
0
0
TEXT
8
TEXTO
10
1419.1875
20
1178.0000
30
0
40
5.0000
1
14
72
1
73
2
11
1419.1875
21
1178.0000
31
0
0
TEXT
8
TEXTO
10
1524.3125
20
10.0000
30
0
40
5.0000
1
15
72
1
73
2
11
1524.3125
21
10.0000
31
0
0
TEXT
8
TEXTO
10
1524.3125
20
1178.0000
30
0
40
5.0000
1
15
72
1
73
2
11
1524.3125
21
1178.0000
31
0
0
TEXT
8
TEXTO
10
1629.4375
20
10.0000
30
0
40
5.0000
1
16
72
1
73
2
11
1629.4375
21
10.0000
31
0
0
TEXT
8
TEXTO
10
1629.4375
20
1178.0000
30
0
40
5.0000
1
16
72
1
73
2
11
1629.4375
21
1178.0000
31
0
0
TEXT
8
TEXTO
10
10.0000
20
1138.5000
30
0
40
5.0000
1
A
72
1
73
2
11
10.0000
21
1138.5000
31
0
0
TEXT
8
TEXTO
10
1672.0000
20
1138.5000
30
0
40
5.0000
1
A
72
1
73
2
11
1672.0000
21
1138.5000
31
0
0
TEXT
8
TEXTO
10
10.0000
20
1039.5000
30
0
40
5.0000
1
B
72
1
73
2
11
10.0000
21
1039.5000
31
0
0
TEXT
8
TEXTO
10
1672.0000
20
1039.5000
30
0
40
5.0000
1
B
72
1
73
2
11
1672.0000
21
1039.5000
31
0
0
TEXT
8
TEXTO
10
10.0000
20
940.5000
30
0
40
5.0000
1
C
72
1
73
2
11
10.0000
21
940.5000
31
0
0
TEXT
8
TEXTO
10
1672.0000
20
940.5000
30
0
40
5.0000
1
C
72
1
73
2
11
1672.0000
21
940.5000
31
0
0
TEXT
8
TEXTO
10
10.0000
20
841.5000
30
0
40
5.0000
1
D
72
1
73
2
11
10.0000
21
841.5000
31
0
0
TEXT
8
TEXTO
10
1672.0000
20
841.5000
30
0
40
5.0000
1
D
72
1
73
2
11
1672.0000
21
841.5000
31
0
0
TEXT
8
TEXTO
10
10.0000
20
742.5000
30
0
40
5.0000
1
E
72
1
73
2
11
10.0000
21
742.5000
31
0
0
TEXT
8
TEXTO
10
1672.0000
20
742.5000
30
0
40
5.0000
1
E
72
1
73
2
11
1672.0000
21
742.5000
31
0
0
TEXT
8
TEXTO
10
10.0000
20
643.5000
30
0
40
5.0000
1
F
72
1
73
2
11
10.0000
21
643.5000
31
0
0
TEXT
8
TEXTO
10
1672.0000
20
643.5000
30
0
40
5.0000
1
F
72
1
73
2
11
1672.0000
21
643.5000
31
0
0
TEXT
8
TEXTO
10
10.0000
20
544.5000
30
0
40
5.0000
1
G
72
1
73
2
11
10.0000
21
544.5000
31
0
0
TEXT
8
TEXTO
10
1672.0000
20
544.5000
30
0
40
5.0000
1
G
72
1
73
2
11
1672.0000
21
544.5000
31
0
0
TEXT
8
TEXTO
10
10.0000
20
445.5000
30
0
40
5.0000
1
H
72
1
73
2
11
10.0000
21
445.5000
31
0
0
TEXT
8
TEXTO
10
1672.0000
20
445.5000
30
0
40
5.0000
1
H
72
1
73
2
11
1672.0000
21
445.5000
31
0
0
TEXT
8
TEXTO
10
10.0000
20
346.5000
30
0
40
5.0000
1
J
72
1
73
2
11
10.0000
21
346.5000
31
0
0
TEXT
8
TEXTO
10
1672.0000
20
346.5000
30
0
40
5.0000
1
J
72
1
73
2
11
1672.0000
21
346.5000
31
0
0
TEXT
8
TEXTO
10
10.0000
20
247.5000
30
0
40
5.0000
1
K
72
1
73
2
11
10.0000
21
247.5000
31
0
0
TEXT
8
TEXTO
10
1672.0000
20
247.5000
30
0
40
5.0000
1
K
72
1
73
2
11
1672.0000
21
247.5000
31
0
0
TEXT
8
TEXTO
10
10.0000
20
148.5000
30
0
40
5.0000
1
L
72
1
73
2
11
10.0000
21
148.5000
31
0
0
TEXT
8
TEXTO
10
1672.0000
20
148.5000
30
0
40
5.0000
1
L
72
1
73
2
11
1672.0000
21
148.5000
31
0
0
TEXT
8
TEXTO
10
10.0000
20
49.5000
30
0
40
5.0000
1
M
72
1
73
2
11
10.0000
21
49.5000
31
0
0
TEXT
8
TEXTO
10
1672.0000
20
49.5000
30
0
40
5.0000
1
M
72
1
73
2
11
1672.0000
21
49.5000
31
0
0
LINE
8
NORMA
10
1302.0000
20
20.0000
30
0
11
1662.0000
21
20.0000
31
0
0
LINE
8
NORMA
10
1662.0000
20
20.0000
30
0
11
1662.0000
21
104.0000
31
0
0
LINE
8
NORMA
10
1662.0000
20
104.0000
30
0
11
1302.0000
21
104.0000
31
0
0
LINE
8
NORMA
10
1302.0000
20
104.0000
30
0
11
1302.0000
21
20.0000
31
0
0
LINE
8
NORMA
10
1382.0000
20
20.0000
30
0
11
1382.0000
21
104.0000
31
0
0
LINE
8
NORMA
10
1570.0000
20
20.0000
30
0
11
1570.0000
21
104.0000
31
0
0
LINE
8
FINA
10
1302.0000
20
58.0000
30
0
11
1382.0000
21
58.0000
31
0
0
TEXT
8
TEXTO
10
1342.0000
20
86.8000
30
0
40
9.8000
1
ConveyOne
72
1
73
2
11
1342.0000
21
86.8000
31
0
0
LINE
8
FINA
10
1315.0000
20
77.2000
30
0
11
1369.0000
21
77.2000
31
0
0
TEXT
8
TEXTO
10
1342.0000
20
71.6000
30
0
40
2.6000
1
CAD · DISEÑO CAPA USER
72
1
73
2
11
1342.0000
21
71.6000
31
0
0
TEXT
8
TEXTO
10
1342.0000
20
65.2000
30
0
40
2.6000
1
ISO 5457 · 7200 · 129 · 5456-2
72
1
73
2
11
1342.0000
21
65.2000
31
0
0
TEXT
8
TEXTO
10
1342.0000
20
53.2000
30
0
40
2.8000
1
PROYECCIÓN — PRIMER DIEDRO
72
1
73
2
11
1342.0000
21
53.2000
31
0
0
CIRCLE
8
TEXTO
10
1332.8000
20
35.0000
30
0
40
5.9800
0
CIRCLE
8
TEXTO
10
1332.8000
20
35.0000
30
0
40
3.2200
0
LINE
8
TEXTO
10
1342.9200
20
29.0200
30
0
11
1357.1800
21
31.7800
31
0
0
LINE
8
TEXTO
10
1357.1800
20
31.7800
30
0
11
1357.1800
21
38.2200
31
0
0
LINE
8
TEXTO
10
1357.1800
20
38.2200
30
0
11
1342.9200
21
40.9800
31
0
0
LINE
8
TEXTO
10
1342.9200
20
40.9800
30
0
11
1342.9200
21
29.0200
31
0
0
LINE
8
FINA
10
1324.0600
20
35.0000
30
0
11
1359.9400
21
35.0000
31
0
0
LINE
8
FINA
10
1382.0000
20
78.0000
30
0
11
1570.0000
21
78.0000
31
0
0
LINE
8
FINA
10
1382.0000
20
58.0000
30
0
11
1570.0000
21
58.0000
31
0
0
LINE
8
FINA
10
1382.0000
20
38.0000
30
0
11
1570.0000
21
38.0000
31
0
0
LINE
8
FINA
10
1476.0000
20
58.0000
30
0
11
1476.0000
21
78.0000
31
0
0
LINE
8
FINA
10
1494.0000
20
38.0000
30
0
11
1494.0000
21
58.0000
31
0
0
TEXT
8
TEXTO
10
1384.6000
20
99.2000
30
0
40
2.8000
1
DESIGNACIÓN
0
TEXT
8
TEXTO
10
1385.2000
20
88.2000
30
0
40
4.6627
1
GTD-04 · Guarda inferior unica — artesa U chapa 1.5 (800×504) (x1) — DESARROL…
72
0
73
2
11
1385.2000
21
88.2000
31
0
0
TEXT
8
TEXTO
10
1384.6000
20
73.2000
30
0
40
2.8000
1
PROYECTO
0
TEXT
8
TEXTO
10
1385.2000
20
65.2000
30
0
40
4.0000
1
CV-GT-800 · Movex 530 GT (friction top) 18 in…
72
0
73
2
11
1385.2000
21
65.2000
31
0
0
TEXT
8
TEXTO
10
1478.6000
20
73.2000
30
0
40
2.8000
1
FUENTE
0
TEXT
8
TEXTO
10
1479.2000
20
65.2000
30
0
40
4.8000
1
chapa plegada — capa user
72
0
73
2
11
1479.2000
21
65.2000
31
0
0
TEXT
8
TEXTO
10
1384.6000
20
53.2000
30
0
40
2.8000
1
VERIFICACIÓN DE ESCALA
0
TEXT
8
TEXTO
10
1385.2000
20
45.2000
30
0
40
4.8000
1
CAD EN MM (CAPA USER)
72
0
73
2
11
1385.2000
21
45.2000
31
0
0
TEXT
8
TEXTO
10
1496.6000
20
53.2000
30
0
40
2.8000
1
PLIEGUES
0
TEXT
8
TEXTO
10
1497.2000
20
45.2000
30
0
40
5.2000
1
4
72
0
73
2
11
1497.2000
21
45.2000
31
0
0
TEXT
8
TEXTO
10
1384.6000
20
33.2000
30
0
40
2.8000
1
NOTA
0
TEXT
8
TEXTO
10
1385.2000
20
26.2000
30
0
40
4.2714
1
Acero S275JR e1.5 — terminación PINTADO RAL 7035 · e1.5 · tol. gral. ISO 2768-mK · K=0.44
72
0
73
2
11
1385.2000
21
26.2000
31
0
0
LINE
8
FINA
10
1570.0000
20
78.0000
30
0
11
1662.0000
21
78.0000
31
0
0
LINE
8
FINA
10
1570.0000
20
58.0000
30
0
11
1662.0000
21
58.0000
31
0
0
LINE
8
FINA
10
1570.0000
20
38.0000
30
0
11
1662.0000
21
38.0000
31
0
0
LINE
8
FINA
10
1616.0000
20
58.0000
30
0
11
1616.0000
21
78.0000
31
0
0
LINE
8
FINA
10
1622.0000
20
38.0000
30
0
11
1622.0000
21
58.0000
31
0
0
TEXT
8
TEXTO
10
1572.6000
20
99.2000
30
0
40
2.8000
1
ESCALA
0
TEXT
8
TEXTO
10
1616.0000
20
88.2000
30
0
40
10.0000
1
1:2
72
1
73
2
11
1616.0000
21
88.2000
31
0
0
TEXT
8
TEXTO
10
1572.6000
20
73.2000
30
0
40
2.8000
1
FORMATO
0
TEXT
8
TEXTO
10
1593.0000
20
65.2000
30
0
40
6.0000
1
A1
72
1
73
2
11
1593.0000
21
65.2000
31
0
0
TEXT
8
TEXTO
10
1618.6000
20
73.2000
30
0
40
2.8000
1
LÁMINA
0
TEXT
8
TEXTO
10
1639.0000
20
65.2000
30
0
40
6.0000
1
1 / 1
72
1
73
2
11
1639.0000
21
65.2000
31
0
0
TEXT
8
TEXTO
10
1572.6000
20
53.2000
30
0
40
2.8000
1
FECHA
0
TEXT
8
TEXTO
10
1596.0000
20
45.2000
30
0
40
5.2000
1
2026-08-13
72
1
73
2
11
1596.0000
21
45.2000
31
0
0
TEXT
8
TEXTO
10
1624.6000
20
53.2000
30
0
40
2.8000
1
UNIDADES
0
TEXT
8
TEXTO
10
1642.0000
20
45.2000
30
0
40
6.0000
1
mm
72
1
73
2
11
1642.0000
21
45.2000
31
0
0
TEXT
8
TEXTO
10
1572.6000
20
33.2000
30
0
40
2.8000
1
Nº DE PLANO
0
TEXT
8
TEXTO
10
1616.0000
20
26.2000
30
0
40
5.2000
1
GTD-04
72
1
73
2
11
1616.0000
21
26.2000
31
0
0
ENDSEC
0
EOF
