0
SECTION
2
HEADER
9
$ACADVER
1
AC1009
9
$DWGCODEPAGE
3
ANSI_1252
0
ENDSEC
0
SECTION
2
TABLES
0
TABLE
2
LTYPE
70
2
0
LTYPE
2
CONTINUOUS
70
0
3
Solid line
72
65
73
0
40
0
0
LTYPE
2
DASHED
70
0
3
Segmentada __ __ __
72
65
73
2
40
6
49
4
49
-2
0
ENDTAB
0
TABLE
2
LAYER
70
7
0
LAYER
2
SOMBRA
70
0
62
8
6
CONTINUOUS
0
LAYER
2
NORMA
70
0
62
7
6
CONTINUOUS
0
LAYER
2
FINA
70
0
62
7
6
CONTINUOUS
0
LAYER
2
VISIBLE
70
0
62
7
6
CONTINUOUS
0
LAYER
2
COTAS
70
0
62
7
6
CONTINUOUS
0
LAYER
2
TEXTO
70
0
62
7
6
CONTINUOUS
0
LAYER
2
PLIEGUE
70
0
62
1
6
DASHED
0
ENDTAB
0
ENDSEC
0
SECTION
2
ENTITIES
0
LINE
8
VISIBLE
10
80.5000
20
244.2500
30
0
11
80.5000
21
344.2500
31
0
0
LINE
8
VISIBLE
10
80.5000
20
344.2500
30
0
11
133.5000
21
344.2500
31
0
0
LINE
8
VISIBLE
10
133.5000
20
344.2500
30
0
11
133.5000
21
382.7500
31
0
0
LINE
8
VISIBLE
10
133.5000
20
382.7500
30
0
11
133.7700
21
385.4800
31
0
0
LINE
8
VISIBLE
10
133.7700
20
385.4800
30
0
11
134.5700
21
388.1100
31
0
0
LINE
8
VISIBLE
10
134.5700
20
388.1100
30
0
11
135.8600
21
390.5300
31
0
0
LINE
8
VISIBLE
10
135.8600
20
390.5300
30
0
11
137.6000
21
392.6500
31
0
0
LINE
8
VISIBLE
10
137.6000
20
392.6500
30
0
11
139.7200
21
394.3900
31
0
0
LINE
8
VISIBLE
10
139.7200
20
394.3900
30
0
11
142.1400
21
395.6800
31
0
0
LINE
8
VISIBLE
10
142.1400
20
395.6800
30
0
11
144.7700
21
396.4800
31
0
0
LINE
8
VISIBLE
10
144.7700
20
396.4800
30
0
11
147.5000
21
396.7500
31
0
0
LINE
8
VISIBLE
10
147.5000
20
396.7500
30
0
11
150.2300
21
396.4800
31
0
0
LINE
8
VISIBLE
10
150.2300
20
396.4800
30
0
11
152.8600
21
395.6800
31
0
0
LINE
8
VISIBLE
10
152.8600
20
395.6800
30
0
11
155.2800
21
394.3900
31
0
0
LINE
8
VISIBLE
10
155.2800
20
394.3900
30
0
11
157.4000
21
392.6500
31
0
0
LINE
8
VISIBLE
10
157.4000
20
392.6500
30
0
11
159.1400
21
390.5300
31
0
0
LINE
8
VISIBLE
10
159.1400
20
390.5300
30
0
11
160.4300
21
388.1100
31
0
0
LINE
8
VISIBLE
10
160.4300
20
388.1100
30
0
11
161.2300
21
385.4800
31
0
0
LINE
8
VISIBLE
10
161.2300
20
385.4800
30
0
11
161.5000
21
382.7500
31
0
0
LINE
8
VISIBLE
10
161.5000
20
382.7500
30
0
11
161.5000
21
344.2500
31
0
0
LINE
8
VISIBLE
10
161.5000
20
344.2500
30
0
11
272.5000
21
344.2500
31
0
0
LINE
8
VISIBLE
10
272.5000
20
344.2500
30
0
11
272.5000
21
382.7500
31
0
0
LINE
8
VISIBLE
10
272.5000
20
382.7500
30
0
11
272.7700
21
385.4800
31
0
0
LINE
8
VISIBLE
10
272.7700
20
385.4800
30
0
11
273.5700
21
388.1100
31
0
0
LINE
8
VISIBLE
10
273.5700
20
388.1100
30
0
11
274.8600
21
390.5300
31
0
0
LINE
8
VISIBLE
10
274.8600
20
390.5300
30
0
11
276.6000
21
392.6500
31
0
0
LINE
8
VISIBLE
10
276.6000
20
392.6500
30
0
11
278.7200
21
394.3900
31
0
0
LINE
8
VISIBLE
10
278.7200
20
394.3900
30
0
11
281.1400
21
395.6800
31
0
0
LINE
8
VISIBLE
10
281.1400
20
395.6800
30
0
11
283.7700
21
396.4800
31
0
0
LINE
8
VISIBLE
10
283.7700
20
396.4800
30
0
11
286.5000
21
396.7500
31
0
0
LINE
8
VISIBLE
10
286.5000
20
396.7500
30
0
11
289.2300
21
396.4800
31
0
0
LINE
8
VISIBLE
10
289.2300
20
396.4800
30
0
11
291.8600
21
395.6800
31
0
0
LINE
8
VISIBLE
10
291.8600
20
395.6800
30
0
11
294.2800
21
394.3900
31
0
0
LINE
8
VISIBLE
10
294.2800
20
394.3900
30
0
11
296.4000
21
392.6500
31
0
0
LINE
8
VISIBLE
10
296.4000
20
392.6500
30
0
11
298.1400
21
390.5300
31
0
0
LINE
8
VISIBLE
10
298.1400
20
390.5300
30
0
11
299.4300
21
388.1100
31
0
0
LINE
8
VISIBLE
10
299.4300
20
388.1100
30
0
11
300.2300
21
385.4800
31
0
0
LINE
8
VISIBLE
10
300.2300
20
385.4800
30
0
11
300.5000
21
382.7500
31
0
0
LINE
8
VISIBLE
10
300.5000
20
382.7500
30
0
11
300.5000
21
344.2500
31
0
0
LINE
8
VISIBLE
10
300.5000
20
344.2500
30
0
11
411.5000
21
344.2500
31
0
0
LINE
8
VISIBLE
10
411.5000
20
344.2500
30
0
11
411.5000
21
382.7500
31
0
0
LINE
8
VISIBLE
10
411.5000
20
382.7500
30
0
11
411.7700
21
385.4800
31
0
0
LINE
8
VISIBLE
10
411.7700
20
385.4800
30
0
11
412.5700
21
388.1100
31
0
0
LINE
8
VISIBLE
10
412.5700
20
388.1100
30
0
11
413.8600
21
390.5300
31
0
0
LINE
8
VISIBLE
10
413.8600
20
390.5300
30
0
11
415.6000
21
392.6500
31
0
0
LINE
8
VISIBLE
10
415.6000
20
392.6500
30
0
11
417.7200
21
394.3900
31
0
0
LINE
8
VISIBLE
10
417.7200
20
394.3900
30
0
11
420.1400
21
395.6800
31
0
0
LINE
8
VISIBLE
10
420.1400
20
395.6800
30
0
11
422.7700
21
396.4800
31
0
0
LINE
8
VISIBLE
10
422.7700
20
396.4800
30
0
11
425.5000
21
396.7500
31
0
0
LINE
8
VISIBLE
10
425.5000
20
396.7500
30
0
11
428.2300
21
396.4800
31
0
0
LINE
8
VISIBLE
10
428.2300
20
396.4800
30
0
11
430.8600
21
395.6800
31
0
0
LINE
8
VISIBLE
10
430.8600
20
395.6800
30
0
11
433.2800
21
394.3900
31
0
0
LINE
8
VISIBLE
10
433.2800
20
394.3900
30
0
11
435.4000
21
392.6500
31
0
0
LINE
8
VISIBLE
10
435.4000
20
392.6500
30
0
11
437.1400
21
390.5300
31
0
0
LINE
8
VISIBLE
10
437.1400
20
390.5300
30
0
11
438.4300
21
388.1100
31
0
0
LINE
8
VISIBLE
10
438.4300
20
388.1100
30
0
11
439.2300
21
385.4800
31
0
0
LINE
8
VISIBLE
10
439.2300
20
385.4800
30
0
11
439.5000
21
382.7500
31
0
0
LINE
8
VISIBLE
10
439.5000
20
382.7500
30
0
11
439.5000
21
344.2500
31
0
0
LINE
8
VISIBLE
10
439.5000
20
344.2500
30
0
11
550.5000
21
344.2500
31
0
0
LINE
8
VISIBLE
10
550.5000
20
344.2500
30
0
11
550.5000
21
382.7500
31
0
0
LINE
8
VISIBLE
10
550.5000
20
382.7500
30
0
11
550.7700
21
385.4800
31
0
0
LINE
8
VISIBLE
10
550.7700
20
385.4800
30
0
11
551.5700
21
388.1100
31
0
0
LINE
8
VISIBLE
10
551.5700
20
388.1100
30
0
11
552.8600
21
390.5300
31
0
0
LINE
8
VISIBLE
10
552.8600
20
390.5300
30
0
11
554.6000
21
392.6500
31
0
0
LINE
8
VISIBLE
10
554.6000
20
392.6500
30
0
11
556.7200
21
394.3900
31
0
0
LINE
8
VISIBLE
10
556.7200
20
394.3900
30
0
11
559.1400
21
395.6800
31
0
0
LINE
8
VISIBLE
10
559.1400
20
395.6800
30
0
11
561.7700
21
396.4800
31
0
0
LINE
8
VISIBLE
10
561.7700
20
396.4800
30
0
11
564.5000
21
396.7500
31
0
0
LINE
8
VISIBLE
10
564.5000
20
396.7500
30
0
11
567.2300
21
396.4800
31
0
0
LINE
8
VISIBLE
10
567.2300
20
396.4800
30
0
11
569.8600
21
395.6800
31
0
0
LINE
8
VISIBLE
10
569.8600
20
395.6800
30
0
11
572.2800
21
394.3900
31
0
0
LINE
8
VISIBLE
10
572.2800
20
394.3900
30
0
11
574.4000
21
392.6500
31
0
0
LINE
8
VISIBLE
10
574.4000
20
392.6500
30
0
11
576.1400
21
390.5300
31
0
0
LINE
8
VISIBLE
10
576.1400
20
390.5300
30
0
11
577.4300
21
388.1100
31
0
0
LINE
8
VISIBLE
10
577.4300
20
388.1100
30
0
11
578.2300
21
385.4800
31
0
0
LINE
8
VISIBLE
10
578.2300
20
385.4800
30
0
11
578.5000
21
382.7500
31
0
0
LINE
8
VISIBLE
10
578.5000
20
382.7500
30
0
11
578.5000
21
344.2500
31
0
0
LINE
8
VISIBLE
10
578.5000
20
344.2500
30
0
11
689.5000
21
344.2500
31
0
0
LINE
8
VISIBLE
10
689.5000
20
344.2500
30
0
11
689.5000
21
382.7500
31
0
0
LINE
8
VISIBLE
10
689.5000
20
382.7500
30
0
11
689.7700
21
385.4800
31
0
0
LINE
8
VISIBLE
10
689.7700
20
385.4800
30
0
11
690.5700
21
388.1100
31
0
0
LINE
8
VISIBLE
10
690.5700
20
388.1100
30
0
11
691.8600
21
390.5300
31
0
0
LINE
8
VISIBLE
10
691.8600
20
390.5300
30
0
11
693.6000
21
392.6500
31
0
0
LINE
8
VISIBLE
10
693.6000
20
392.6500
30
0
11
695.7200
21
394.3900
31
0
0
LINE
8
VISIBLE
10
695.7200
20
394.3900
30
0
11
698.1400
21
395.6800
31
0
0
LINE
8
VISIBLE
10
698.1400
20
395.6800
30
0
11
700.7700
21
396.4800
31
0
0
LINE
8
VISIBLE
10
700.7700
20
396.4800
30
0
11
703.5000
21
396.7500
31
0
0
LINE
8
VISIBLE
10
703.5000
20
396.7500
30
0
11
706.2300
21
396.4800
31
0
0
LINE
8
VISIBLE
10
706.2300
20
396.4800
30
0
11
708.8600
21
395.6800
31
0
0
LINE
8
VISIBLE
10
708.8600
20
395.6800
30
0
11
711.2800
21
394.3900
31
0
0
LINE
8
VISIBLE
10
711.2800
20
394.3900
30
0
11
713.4000
21
392.6500
31
0
0
LINE
8
VISIBLE
10
713.4000
20
392.6500
30
0
11
715.1400
21
390.5300
31
0
0
LINE
8
VISIBLE
10
715.1400
20
390.5300
30
0
11
716.4300
21
388.1100
31
0
0
LINE
8
VISIBLE
10
716.4300
20
388.1100
30
0
11
717.2300
21
385.4800
31
0
0
LINE
8
VISIBLE
10
717.2300
20
385.4800
30
0
11
717.5000
21
382.7500
31
0
0
LINE
8
VISIBLE
10
717.5000
20
382.7500
30
0
11
717.5000
21
344.2500
31
0
0
LINE
8
VISIBLE
10
717.5000
20
344.2500
30
0
11
770.5000
21
344.2500
31
0
0
LINE
8
VISIBLE
10
770.5000
20
344.2500
30
0
11
770.5000
21
244.2500
31
0
0
LINE
8
VISIBLE
10
770.5000
20
244.2500
30
0
11
80.5000
21
244.2500
31
0
0
CIRCLE
8
VISIBLE
10
147.5000
20
382.7500
30
0
40
10.2500
0
CIRCLE
8
VISIBLE
10
286.5000
20
382.7500
30
0
40
10.2500
0
CIRCLE
8
VISIBLE
10
425.5000
20
382.7500
30
0
40
10.2500
0
CIRCLE
8
VISIBLE
10
564.5000
20
382.7500
30
0
40
10.2500
0
CIRCLE
8
VISIBLE
10
703.5000
20
382.7500
30
0
40
10.2500
0
CIRCLE
8
VISIBLE
10
495.0000
20
296.2500
30
0
40
11.0000
0
CIRCLE
8
VISIBLE
10
463.0000
20
296.2500
30
0
40
5.5000
0
CIRCLE
8
VISIBLE
10
527.0000
20
296.2500
30
0
40
5.5000
0
CIRCLE
8
VISIBLE
10
217.0000
20
263.2500
30
0
40
6.1000
0
CIRCLE
8
VISIBLE
10
217.0000
20
273.2500
30
0
40
6.1000
0
CIRCLE
8
VISIBLE
10
356.0000
20
263.2500
30
0
40
6.1000
0
CIRCLE
8
VISIBLE
10
356.0000
20
273.2500
30
0
40
6.1000
0
CIRCLE
8
VISIBLE
10
634.0000
20
263.2500
30
0
40
6.1000
0
CIRCLE
8
VISIBLE
10
634.0000
20
273.2500
30
0
40
6.1000
0
CIRCLE
8
VISIBLE
10
143.5000
20
214.2500
30
0
40
6.1000
0
CIRCLE
8
VISIBLE
10
707.5000
20
214.2500
30
0
40
6.1000
0
CIRCLE
8
VISIBLE
10
440.0000
20
256.2500
30
0
40
6.1000
0
TEXT
8
TEXTO
10
425.5000
20
401.7500
30
0
40
3.5000
1
VISTA DE CARA (perfil del boceto + perforaciones)
72
1
73
2
11
425.5000
21
401.7500
31
0
0
LINE
8
COTAS
10
80.5000
20
243.2500
30
0
11
80.5000
21
233.7500
31
0
0
LINE
8
COTAS
10
770.5000
20
243.2500
30
0
11
770.5000
21
233.7500
31
0
0
LINE
8
COTAS
10
80.5000
20
235.2500
30
0
11
770.5000
21
235.2500
31
0
0
SOLID
8
COTAS
10
80.5000
20
235.2500
30
0
11
83.0000
21
235.7000
31
0
12
83.0000
22
234.8000
32
0
13
83.0000
23
234.8000
33
0
0
SOLID
8
COTAS
10
770.5000
20
235.2500
30
0
11
768.0000
21
235.7000
31
0
12
768.0000
22
234.8000
32
0
13
768.0000
23
234.8000
33
0
0
TEXT
8
COTAS
10
425.5000
20
237.4500
30
0
40
3.5000
1
690
72
1
73
2
11
425.5000
21
237.4500
31
0
0
LINE
8
COTAS
10
771.5000
20
244.2500
30
0
11
781.0000
21
244.2500
31
0
0
LINE
8
COTAS
10
771.5000
20
396.7500
30
0
11
781.0000
21
396.7500
31
0
0
LINE
8
COTAS
10
779.5000
20
244.2500
30
0
11
779.5000
21
396.7500
31
0
0
SOLID
8
COTAS
10
779.5000
20
244.2500
30
0
11
779.9500
21
246.7500
31
0
12
779.0500
22
246.7500
32
0
13
779.0500
23
246.7500
33
0
0
SOLID
8
COTAS
10
779.5000
20
396.7500
30
0
11
779.9500
21
394.2500
31
0
12
779.0500
22
394.2500
32
0
13
779.0500
23
394.2500
33
0
0
TEXT
8
COTAS
10
781.7000
20
320.5000
30
0
40
3.5000
1
152.5
72
1
73
2
11
781.7000
21
320.5000
31
0
0
LINE
8
FINA
10
0.0000
20
0.0000
30
0
11
841.0000
21
0.0000
31
0
0
LINE
8
FINA
10
841.0000
20
0.0000
30
0
11
841.0000
21
594.0000
31
0
0
LINE
8
FINA
10
841.0000
20
594.0000
30
0
11
0.0000
21
594.0000
31
0
0
LINE
8
FINA
10
0.0000
20
594.0000
30
0
11
0.0000
21
0.0000
31
0
0
LINE
8
NORMA
10
20.0000
20
10.0000
30
0
11
831.0000
21
10.0000
31
0
0
LINE
8
NORMA
10
831.0000
20
10.0000
30
0
11
831.0000
21
584.0000
31
0
0
LINE
8
NORMA
10
831.0000
20
584.0000
30
0
11
20.0000
21
584.0000
31
0
0
LINE
8
NORMA
10
20.0000
20
584.0000
30
0
11
20.0000
21
10.0000
31
0
0
LINE
8
NORMA
10
0.0000
20
297.0000
30
0
11
25.0000
21
297.0000
31
0
0
LINE
8
NORMA
10
841.0000
20
297.0000
30
0
11
826.0000
21
297.0000
31
0
0
LINE
8
NORMA
10
420.5000
20
0.0000
30
0
11
420.5000
21
15.0000
31
0
0
LINE
8
NORMA
10
420.5000
20
594.0000
30
0
11
420.5000
21
579.0000
31
0
0
LINE
8
FINA
10
52.5625
20
0.0000
30
0
11
52.5625
21
10.0000
31
0
0
LINE
8
FINA
10
52.5625
20
584.0000
30
0
11
52.5625
21
594.0000
31
0
0
LINE
8
FINA
10
105.1250
20
0.0000
30
0
11
105.1250
21
10.0000
31
0
0
LINE
8
FINA
10
105.1250
20
584.0000
30
0
11
105.1250
21
594.0000
31
0
0
LINE
8
FINA
10
157.6875
20
0.0000
30
0
11
157.6875
21
10.0000
31
0
0
LINE
8
FINA
10
157.6875
20
584.0000
30
0
11
157.6875
21
594.0000
31
0
0
LINE
8
FINA
10
210.2500
20
0.0000
30
0
11
210.2500
21
10.0000
31
0
0
LINE
8
FINA
10
210.2500
20
584.0000
30
0
11
210.2500
21
594.0000
31
0
0
LINE
8
FINA
10
262.8125
20
0.0000
30
0
11
262.8125
21
10.0000
31
0
0
LINE
8
FINA
10
262.8125
20
584.0000
30
0
11
262.8125
21
594.0000
31
0
0
LINE
8
FINA
10
315.3750
20
0.0000
30
0
11
315.3750
21
10.0000
31
0
0
LINE
8
FINA
10
315.3750
20
584.0000
30
0
11
315.3750
21
594.0000
31
0
0
LINE
8
FINA
10
367.9375
20
0.0000
30
0
11
367.9375
21
10.0000
31
0
0
LINE
8
FINA
10
367.9375
20
584.0000
30
0
11
367.9375
21
594.0000
31
0
0
LINE
8
FINA
10
420.5000
20
0.0000
30
0
11
420.5000
21
10.0000
31
0
0
LINE
8
FINA
10
420.5000
20
584.0000
30
0
11
420.5000
21
594.0000
31
0
0
LINE
8
FINA
10
473.0625
20
0.0000
30
0
11
473.0625
21
10.0000
31
0
0
LINE
8
FINA
10
473.0625
20
584.0000
30
0
11
473.0625
21
594.0000
31
0
0
LINE
8
FINA
10
525.6250
20
0.0000
30
0
11
525.6250
21
10.0000
31
0
0
LINE
8
FINA
10
525.6250
20
584.0000
30
0
11
525.6250
21
594.0000
31
0
0
LINE
8
FINA
10
578.1875
20
0.0000
30
0
11
578.1875
21
10.0000
31
0
0
LINE
8
FINA
10
578.1875
20
584.0000
30
0
11
578.1875
21
594.0000
31
0
0
LINE
8
FINA
10
630.7500
20
0.0000
30
0
11
630.7500
21
10.0000
31
0
0
LINE
8
FINA
10
630.7500
20
584.0000
30
0
11
630.7500
21
594.0000
31
0
0
LINE
8
FINA
10
683.3125
20
0.0000
30
0
11
683.3125
21
10.0000
31
0
0
LINE
8
FINA
10
683.3125
20
584.0000
30
0
11
683.3125
21
594.0000
31
0
0
LINE
8
FINA
10
735.8750
20
0.0000
30
0
11
735.8750
21
10.0000
31
0
0
LINE
8
FINA
10
735.8750
20
584.0000
30
0
11
735.8750
21
594.0000
31
0
0
LINE
8
FINA
10
788.4375
20
0.0000
30
0
11
788.4375
21
10.0000
31
0
0
LINE
8
FINA
10
788.4375
20
584.0000
30
0
11
788.4375
21
594.0000
31
0
0
LINE
8
FINA
10
0.0000
20
49.5000
30
0
11
10.0000
21
49.5000
31
0
0
LINE
8
FINA
10
831.0000
20
49.5000
30
0
11
841.0000
21
49.5000
31
0
0
LINE
8
FINA
10
0.0000
20
99.0000
30
0
11
10.0000
21
99.0000
31
0
0
LINE
8
FINA
10
831.0000
20
99.0000
30
0
11
841.0000
21
99.0000
31
0
0
LINE
8
FINA
10
0.0000
20
148.5000
30
0
11
10.0000
21
148.5000
31
0
0
LINE
8
FINA
10
831.0000
20
148.5000
30
0
11
841.0000
21
148.5000
31
0
0
LINE
8
FINA
10
0.0000
20
198.0000
30
0
11
10.0000
21
198.0000
31
0
0
LINE
8
FINA
10
831.0000
20
198.0000
30
0
11
841.0000
21
198.0000
31
0
0
LINE
8
FINA
10
0.0000
20
247.5000
30
0
11
10.0000
21
247.5000
31
0
0
LINE
8
FINA
10
831.0000
20
247.5000
30
0
11
841.0000
21
247.5000
31
0
0
LINE
8
FINA
10
0.0000
20
297.0000
30
0
11
10.0000
21
297.0000
31
0
0
LINE
8
FINA
10
831.0000
20
297.0000
30
0
11
841.0000
21
297.0000
31
0
0
LINE
8
FINA
10
0.0000
20
346.5000
30
0
11
10.0000
21
346.5000
31
0
0
LINE
8
FINA
10
831.0000
20
346.5000
30
0
11
841.0000
21
346.5000
31
0
0
LINE
8
FINA
10
0.0000
20
396.0000
30
0
11
10.0000
21
396.0000
31
0
0
LINE
8
FINA
10
831.0000
20
396.0000
30
0
11
841.0000
21
396.0000
31
0
0
LINE
8
FINA
10
0.0000
20
445.5000
30
0
11
10.0000
21
445.5000
31
0
0
LINE
8
FINA
10
831.0000
20
445.5000
30
0
11
841.0000
21
445.5000
31
0
0
LINE
8
FINA
10
0.0000
20
495.0000
30
0
11
10.0000
21
495.0000
31
0
0
LINE
8
FINA
10
831.0000
20
495.0000
30
0
11
841.0000
21
495.0000
31
0
0
LINE
8
FINA
10
0.0000
20
544.5000
30
0
11
10.0000
21
544.5000
31
0
0
LINE
8
FINA
10
831.0000
20
544.5000
30
0
11
841.0000
21
544.5000
31
0
0
TEXT
8
TEXTO
10
26.2813
20
5.0000
30
0
40
2.5000
1
1
72
1
73
2
11
26.2813
21
5.0000
31
0
0
TEXT
8
TEXTO
10
26.2813
20
589.0000
30
0
40
2.5000
1
1
72
1
73
2
11
26.2813
21
589.0000
31
0
0
TEXT
8
TEXTO
10
78.8438
20
5.0000
30
0
40
2.5000
1
2
72
1
73
2
11
78.8438
21
5.0000
31
0
0
TEXT
8
TEXTO
10
78.8438
20
589.0000
30
0
40
2.5000
1
2
72
1
73
2
11
78.8438
21
589.0000
31
0
0
TEXT
8
TEXTO
10
131.4063
20
5.0000
30
0
40
2.5000
1
3
72
1
73
2
11
131.4063
21
5.0000
31
0
0
TEXT
8
TEXTO
10
131.4063
20
589.0000
30
0
40
2.5000
1
3
72
1
73
2
11
131.4063
21
589.0000
31
0
0
TEXT
8
TEXTO
10
183.9688
20
5.0000
30
0
40
2.5000
1
4
72
1
73
2
11
183.9688
21
5.0000
31
0
0
TEXT
8
TEXTO
10
183.9688
20
589.0000
30
0
40
2.5000
1
4
72
1
73
2
11
183.9688
21
589.0000
31
0
0
TEXT
8
TEXTO
10
236.5313
20
5.0000
30
0
40
2.5000
1
5
72
1
73
2
11
236.5313
21
5.0000
31
0
0
TEXT
8
TEXTO
10
236.5313
20
589.0000
30
0
40
2.5000
1
5
72
1
73
2
11
236.5313
21
589.0000
31
0
0
TEXT
8
TEXTO
10
289.0938
20
5.0000
30
0
40
2.5000
1
6
72
1
73
2
11
289.0938
21
5.0000
31
0
0
TEXT
8
TEXTO
10
289.0938
20
589.0000
30
0
40
2.5000
1
6
72
1
73
2
11
289.0938
21
589.0000
31
0
0
TEXT
8
TEXTO
10
341.6563
20
5.0000
30
0
40
2.5000
1
7
72
1
73
2
11
341.6563
21
5.0000
31
0
0
TEXT
8
TEXTO
10
341.6563
20
589.0000
30
0
40
2.5000
1
7
72
1
73
2
11
341.6563
21
589.0000
31
0
0
TEXT
8
TEXTO
10
394.2188
20
5.0000
30
0
40
2.5000
1
8
72
1
73
2
11
394.2188
21
5.0000
31
0
0
TEXT
8
TEXTO
10
394.2188
20
589.0000
30
0
40
2.5000
1
8
72
1
73
2
11
394.2188
21
589.0000
31
0
0
TEXT
8
TEXTO
10
446.7813
20
5.0000
30
0
40
2.5000
1
9
72
1
73
2
11
446.7813
21
5.0000
31
0
0
TEXT
8
TEXTO
10
446.7813
20
589.0000
30
0
40
2.5000
1
9
72
1
73
2
11
446.7813
21
589.0000
31
0
0
TEXT
8
TEXTO
10
499.3438
20
5.0000
30
0
40
2.5000
1
10
72
1
73
2
11
499.3438
21
5.0000
31
0
0
TEXT
8
TEXTO
10
499.3438
20
589.0000
30
0
40
2.5000
1
10
72
1
73
2
11
499.3438
21
589.0000
31
0
0
TEXT
8
TEXTO
10
551.9063
20
5.0000
30
0
40
2.5000
1
11
72
1
73
2
11
551.9063
21
5.0000
31
0
0
TEXT
8
TEXTO
10
551.9063
20
589.0000
30
0
40
2.5000
1
11
72
1
73
2
11
551.9063
21
589.0000
31
0
0
TEXT
8
TEXTO
10
604.4688
20
5.0000
30
0
40
2.5000
1
12
72
1
73
2
11
604.4688
21
5.0000
31
0
0
TEXT
8
TEXTO
10
604.4688
20
589.0000
30
0
40
2.5000
1
12
72
1
73
2
11
604.4688
21
589.0000
31
0
0
TEXT
8
TEXTO
10
657.0313
20
5.0000
30
0
40
2.5000
1
13
72
1
73
2
11
657.0313
21
5.0000
31
0
0
TEXT
8
TEXTO
10
657.0313
20
589.0000
30
0
40
2.5000
1
13
72
1
73
2
11
657.0313
21
589.0000
31
0
0
TEXT
8
TEXTO
10
709.5938
20
5.0000
30
0
40
2.5000
1
14
72
1
73
2
11
709.5938
21
5.0000
31
0
0
TEXT
8
TEXTO
10
709.5938
20
589.0000
30
0
40
2.5000
1
14
72
1
73
2
11
709.5938
21
589.0000
31
0
0
TEXT
8
TEXTO
10
762.1563
20
5.0000
30
0
40
2.5000
1
15
72
1
73
2
11
762.1563
21
5.0000
31
0
0
TEXT
8
TEXTO
10
762.1563
20
589.0000
30
0
40
2.5000
1
15
72
1
73
2
11
762.1563
21
589.0000
31
0
0
TEXT
8
TEXTO
10
814.7188
20
5.0000
30
0
40
2.5000
1
16
72
1
73
2
11
814.7188
21
5.0000
31
0
0
TEXT
8
TEXTO
10
814.7188
20
589.0000
30
0
40
2.5000
1
16
72
1
73
2
11
814.7188
21
589.0000
31
0
0
TEXT
8
TEXTO
10
5.0000
20
569.2500
30
0
40
2.5000
1
A
72
1
73
2
11
5.0000
21
569.2500
31
0
0
TEXT
8
TEXTO
10
836.0000
20
569.2500
30
0
40
2.5000
1
A
72
1
73
2
11
836.0000
21
569.2500
31
0
0
TEXT
8
TEXTO
10
5.0000
20
519.7500
30
0
40
2.5000
1
B
72
1
73
2
11
5.0000
21
519.7500
31
0
0
TEXT
8
TEXTO
10
836.0000
20
519.7500
30
0
40
2.5000
1
B
72
1
73
2
11
836.0000
21
519.7500
31
0
0
TEXT
8
TEXTO
10
5.0000
20
470.2500
30
0
40
2.5000
1
C
72
1
73
2
11
5.0000
21
470.2500
31
0
0
TEXT
8
TEXTO
10
836.0000
20
470.2500
30
0
40
2.5000
1
C
72
1
73
2
11
836.0000
21
470.2500
31
0
0
TEXT
8
TEXTO
10
5.0000
20
420.7500
30
0
40
2.5000
1
D
72
1
73
2
11
5.0000
21
420.7500
31
0
0
TEXT
8
TEXTO
10
836.0000
20
420.7500
30
0
40
2.5000
1
D
72
1
73
2
11
836.0000
21
420.7500
31
0
0
TEXT
8
TEXTO
10
5.0000
20
371.2500
30
0
40
2.5000
1
E
72
1
73
2
11
5.0000
21
371.2500
31
0
0
TEXT
8
TEXTO
10
836.0000
20
371.2500
30
0
40
2.5000
1
E
72
1
73
2
11
836.0000
21
371.2500
31
0
0
TEXT
8
TEXTO
10
5.0000
20
321.7500
30
0
40
2.5000
1
F
72
1
73
2
11
5.0000
21
321.7500
31
0
0
TEXT
8
TEXTO
10
836.0000
20
321.7500
30
0
40
2.5000
1
F
72
1
73
2
11
836.0000
21
321.7500
31
0
0
TEXT
8
TEXTO
10
5.0000
20
272.2500
30
0
40
2.5000
1
G
72
1
73
2
11
5.0000
21
272.2500
31
0
0
TEXT
8
TEXTO
10
836.0000
20
272.2500
30
0
40
2.5000
1
G
72
1
73
2
11
836.0000
21
272.2500
31
0
0
TEXT
8
TEXTO
10
5.0000
20
222.7500
30
0
40
2.5000
1
H
72
1
73
2
11
5.0000
21
222.7500
31
0
0
TEXT
8
TEXTO
10
836.0000
20
222.7500
30
0
40
2.5000
1
H
72
1
73
2
11
836.0000
21
222.7500
31
0
0
TEXT
8
TEXTO
10
5.0000
20
173.2500
30
0
40
2.5000
1
J
72
1
73
2
11
5.0000
21
173.2500
31
0
0
TEXT
8
TEXTO
10
836.0000
20
173.2500
30
0
40
2.5000
1
J
72
1
73
2
11
836.0000
21
173.2500
31
0
0
TEXT
8
TEXTO
10
5.0000
20
123.7500
30
0
40
2.5000
1
K
72
1
73
2
11
5.0000
21
123.7500
31
0
0
TEXT
8
TEXTO
10
836.0000
20
123.7500
30
0
40
2.5000
1
K
72
1
73
2
11
836.0000
21
123.7500
31
0
0
TEXT
8
TEXTO
10
5.0000
20
74.2500
30
0
40
2.5000
1
L
72
1
73
2
11
5.0000
21
74.2500
31
0
0
TEXT
8
TEXTO
10
836.0000
20
74.2500
30
0
40
2.5000
1
L
72
1
73
2
11
836.0000
21
74.2500
31
0
0
TEXT
8
TEXTO
10
5.0000
20
24.7500
30
0
40
2.5000
1
M
72
1
73
2
11
5.0000
21
24.7500
31
0
0
TEXT
8
TEXTO
10
836.0000
20
24.7500
30
0
40
2.5000
1
M
72
1
73
2
11
836.0000
21
24.7500
31
0
0
LINE
8
NORMA
10
651.0000
20
10.0000
30
0
11
831.0000
21
10.0000
31
0
0
LINE
8
NORMA
10
831.0000
20
10.0000
30
0
11
831.0000
21
52.0000
31
0
0
LINE
8
NORMA
10
831.0000
20
52.0000
30
0
11
651.0000
21
52.0000
31
0
0
LINE
8
NORMA
10
651.0000
20
52.0000
30
0
11
651.0000
21
10.0000
31
0
0
LINE
8
NORMA
10
691.0000
20
10.0000
30
0
11
691.0000
21
52.0000
31
0
0
LINE
8
NORMA
10
785.0000
20
10.0000
30
0
11
785.0000
21
52.0000
31
0
0
LINE
8
FINA
10
651.0000
20
29.0000
30
0
11
691.0000
21
29.0000
31
0
0
TEXT
8
TEXTO
10
671.0000
20
43.8000
30
0
40
6.0000
1
foto3d
72
1
73
2
11
671.0000
21
43.8000
31
0
0
LINE
8
FINA
10
657.5000
20
38.6000
30
0
11
684.5000
21
38.6000
31
0
0
TEXT
8
TEXTO
10
671.0000
20
35.8000
30
0
40
1.3000
1
CAD · DISEŃO CAPA USER
72
1
73
2
11
671.0000
21
35.8000
31
0
0
TEXT
8
TEXTO
10
671.0000
20
32.6000
30
0
40
1.3000
1
ISO 5457 · 7200 · 129 · 5456-2
72
1
73
2
11
671.0000
21
32.6000
31
0
0
TEXT
8
TEXTO
10
671.0000
20
26.6000
30
0
40
1.4000
1
PROYECCIÓN — PRIMER DIEDRO
72
1
73
2
11
671.0000
21
26.6000
31
0
0
CIRCLE
8
TEXTO
10
666.4000
20
17.5000
30
0
40
2.9900
0
CIRCLE
8
TEXTO
10
666.4000
20
17.5000
30
0
40
1.6100
0
LINE
8
TEXTO
10
671.4600
20
14.5100
30
0
11
678.5900
21
15.8900
31
0
0
LINE
8
TEXTO
10
678.5900
20
15.8900
30
0
11
678.5900
21
19.1100
31
0
0
LINE
8
TEXTO
10
678.5900
20
19.1100
30
0
11
671.4600
21
20.4900
31
0
0
LINE
8
TEXTO
10
671.4600
20
20.4900
30
0
11
671.4600
21
14.5100
31
0
0
LINE
8
FINA
10
662.0300
20
17.5000
30
0
11
679.9700
21
17.5000
31
0
0
LINE
8
FINA
10
691.0000
20
39.0000
30
0
11
785.0000
21
39.0000
31
0
0
LINE
8
FINA
10
691.0000
20
29.0000
30
0
11
785.0000
21
29.0000
31
0
0
LINE
8
FINA
10
691.0000
20
19.0000
30
0
11
785.0000
21
19.0000
31
0
0
LINE
8
FINA
10
738.0000
20
29.0000
30
0
11
738.0000
21
39.0000
31
0
0
LINE
8
FINA
10
747.0000
20
19.0000
30
0
11
747.0000
21
29.0000
31
0
0
TEXT
8
TEXTO
10
692.3000
20
49.6000
30
0
40
1.4000
1
DESIGNACIÓN
0
TEXT
8
TEXTO
10
692.6000
20
44.1000
30
0
40
4.2000
1
Placa lateral de transmisión
72
0
73
2
11
692.6000
21
44.1000
31
0
0
TEXT
8
TEXTO
10
692.3000
20
36.6000
30
0
40
1.4000
1
PROYECTO
0
TEXT
8
TEXTO
10
692.6000
20
32.6000
30
0
40
2.8000
1
TRANSFERENCIA 90°
72
0
73
2
11
692.6000
21
32.6000
31
0
0
TEXT
8
TEXTO
10
739.3000
20
36.6000
30
0
40
1.4000
1
FUENTE
0
TEXT
8
TEXTO
10
739.6000
20
32.6000
30
0
40
2.4000
1
diseńo paramétrico — capa user
72
0
73
2
11
739.6000
21
32.6000
31
0
0
TEXT
8
TEXTO
10
692.3000
20
26.6000
30
0
40
1.4000
1
VERIFICACIÓN DE ESCALA
0
TEXT
8
TEXTO
10
692.6000
20
22.6000
30
0
40
2.4000
1
PERFIL DE BOCETO (CAPA USER)
72
0
73
2
11
692.6000
21
22.6000
31
0
0
TEXT
8
TEXTO
10
748.3000
20
26.6000
30
0
40
1.4000
1
PIEZAS
0
TEXT
8
TEXTO
10
748.6000
20
22.6000
30
0
40
2.6000
1
1
72
0
73
2
11
748.6000
21
22.6000
31
0
0
TEXT
8
TEXTO
10
692.3000
20
16.6000
30
0
40
1.4000
1
NOTA
0
TEXT
8
TEXTO
10
692.6000
20
13.1000
30
0
40
2.0000
1
Material: Acero S275JR · tol. gral. ISO 2768-mK · cara con perforaciones; espesor y cortes en el J…
72
0
73
2
11
692.6000
21
13.1000
31
0
0
LINE
8
FINA
10
785.0000
20
39.0000
30
0
11
831.0000
21
39.0000
31
0
0
LINE
8
FINA
10
785.0000
20
29.0000
30
0
11
831.0000
21
29.0000
31
0
0
LINE
8
FINA
10
785.0000
20
19.0000
30
0
11
831.0000
21
19.0000
31
0
0
LINE
8
FINA
10
808.0000
20
29.0000
30
0
11
808.0000
21
39.0000
31
0
0
LINE
8
FINA
10
811.0000
20
19.0000
30
0
11
811.0000
21
29.0000
31
0
0
TEXT
8
TEXTO
10
786.3000
20
49.6000
30
0
40
1.4000
1
ESCALA
0
TEXT
8
TEXTO
10
808.0000
20
44.1000
30
0
40
5.0000
1
1:1
72
1
73
2
11
808.0000
21
44.1000
31
0
0
TEXT
8
TEXTO
10
786.3000
20
36.6000
30
0
40
1.4000
1
FORMATO
0
TEXT
8
TEXTO
10
796.5000
20
32.6000
30
0
40
3.0000
1
A1
72
1
73
2
11
796.5000
21
32.6000
31
0
0
TEXT
8
TEXTO
10
809.3000
20
36.6000
30
0
40
1.4000
1
LÁMINA
0
TEXT
8
TEXTO
10
819.5000
20
32.6000
30
0
40
3.0000
1
1 / 1
72
1
73
2
11
819.5000
21
32.6000
31
0
0
TEXT
8
TEXTO
10
786.3000
20
26.6000
30
0
40
1.4000
1
FECHA
0
TEXT
8
TEXTO
10
798.0000
20
22.6000
30
0
40
2.6000
1
2026-07-20
72
1
73
2
11
798.0000
21
22.6000
31
0
0
TEXT
8
TEXTO
10
812.3000
20
26.6000
30
0
40
1.4000
1
UNIDADES
0
TEXT
8
TEXTO
10
821.0000
20
22.6000
30
0
40
3.0000
1
mm
72
1
73
2
11
821.0000
21
22.6000
31
0
0
TEXT
8
TEXTO
10
786.3000
20
16.6000
30
0
40
1.4000
1
Nş DE PLANO
0
TEXT
8
TEXTO
10
808.0000
20
13.1000
30
0
40
2.6000
1
TR-06
72
1
73
2
11
808.0000
21
13.1000
31
0
0
ENDSEC
0
EOF
