0
SECTION
2
HEADER
9
$ACADVER
1
AC1009
9
$DWGCODEPAGE
3
ANSI_1252
0
ENDSEC
0
SECTION
2
TABLES
0
TABLE
2
LTYPE
70
2
0
LTYPE
2
CONTINUOUS
70
0
3
Solid line
72
65
73
0
40
0
0
LTYPE
2
DASHED
70
0
3
Segmentada __ __ __
72
65
73
2
40
6
49
4
49
-2
0
ENDTAB
0
TABLE
2
LAYER
70
7
0
LAYER
2
SOMBRA
70
0
62
8
6
CONTINUOUS
0
LAYER
2
NORMA
70
0
62
7
6
CONTINUOUS
0
LAYER
2
FINA
70
0
62
7
6
CONTINUOUS
0
LAYER
2
VISIBLE
70
0
62
7
6
CONTINUOUS
0
LAYER
2
COTAS
70
0
62
7
6
CONTINUOUS
0
LAYER
2
TEXTO
70
0
62
7
6
CONTINUOUS
0
LAYER
2
PLIEGUE
70
0
62
1
6
DASHED
0
ENDTAB
0
ENDSEC
0
SECTION
2
ENTITIES
0
LINE
8
VISIBLE
10
102.1447
20
141.6793
30
0
11
102.1447
21
141.6793
31
0
0
LINE
8
VISIBLE
10
102.1447
20
141.6793
30
0
11
102.1447
21
140.6793
31
0
0
LINE
8
VISIBLE
10
102.1447
20
140.6793
30
0
11
102.1447
21
140.6793
31
0
0
LINE
8
VISIBLE
10
102.1447
20
141.6793
30
0
11
102.1447
21
141.6793
31
0
0
LINE
8
VISIBLE
10
102.1447
20
140.6793
30
0
11
102.1447
21
140.6793
31
0
0
LINE
8
VISIBLE
10
102.1447
20
141.6793
30
0
11
102.1447
21
141.6793
31
0
0
LINE
8
VISIBLE
10
102.1447
20
140.6793
30
0
11
102.1447
21
140.6793
31
0
0
LINE
8
VISIBLE
10
102.1447
20
141.6793
30
0
11
102.1447
21
141.6793
31
0
0
LINE
8
VISIBLE
10
102.1447
20
140.6793
30
0
11
102.1447
21
140.6793
31
0
0
LINE
8
VISIBLE
10
102.1447
20
141.6793
30
0
11
102.1447
21
141.6793
31
0
0
LINE
8
VISIBLE
10
102.1447
20
140.6793
30
0
11
102.1447
21
140.6793
31
0
0
LINE
8
VISIBLE
10
102.1447
20
141.6793
30
0
11
102.1447
21
141.6793
31
0
0
LINE
8
VISIBLE
10
102.1447
20
140.6793
30
0
11
102.1447
21
141.6793
31
0
0
LINE
8
VISIBLE
10
102.1447
20
140.6793
30
0
11
102.1447
21
140.6793
31
0
0
LINE
8
VISIBLE
10
42.1447
20
140.6793
30
0
11
42.1447
21
140.6793
31
0
0
LINE
8
VISIBLE
10
42.1447
20
140.6793
30
0
11
42.1447
21
141.6793
31
0
0
LINE
8
VISIBLE
10
42.1447
20
141.6793
30
0
11
42.1447
21
141.6793
31
0
0
LINE
8
VISIBLE
10
42.1447
20
140.6793
30
0
11
42.1447
21
140.6793
31
0
0
LINE
8
VISIBLE
10
42.1447
20
141.6793
30
0
11
42.1447
21
140.6793
31
0
0
LINE
8
VISIBLE
10
42.1447
20
141.6793
30
0
11
42.1447
21
141.6793
31
0
0
LINE
8
VISIBLE
10
42.1447
20
140.6793
30
0
11
42.1447
21
140.6793
31
0
0
LINE
8
VISIBLE
10
42.1447
20
141.6793
30
0
11
42.1447
21
141.6793
31
0
0
LINE
8
VISIBLE
10
42.1447
20
140.6793
30
0
11
42.1447
21
140.6793
31
0
0
LINE
8
VISIBLE
10
42.1447
20
141.6793
30
0
11
42.1447
21
141.6793
31
0
0
LINE
8
VISIBLE
10
42.1447
20
140.6793
30
0
11
42.1447
21
140.6793
31
0
0
LINE
8
VISIBLE
10
42.1447
20
141.6793
30
0
11
42.1447
21
141.6793
31
0
0
LINE
8
VISIBLE
10
42.1447
20
140.6793
30
0
11
42.1447
21
140.6793
31
0
0
LINE
8
VISIBLE
10
42.1447
20
141.6793
30
0
11
42.1447
21
141.6793
31
0
0
LINE
8
VISIBLE
10
42.1447
20
140.6793
30
0
11
42.1447
21
140.6793
31
0
0
LINE
8
VISIBLE
10
42.1447
20
141.6793
30
0
11
42.1447
21
141.6793
31
0
0
LINE
8
VISIBLE
10
42.1447
20
140.6793
30
0
11
42.1447
21
140.6793
31
0
0
LINE
8
VISIBLE
10
42.1447
20
141.6793
30
0
11
42.1447
21
141.6793
31
0
0
LINE
8
VISIBLE
10
102.1447
20
140.6793
30
0
11
99.9445
21
140.6793
31
0
0
LINE
8
VISIBLE
10
99.9445
20
141.6793
30
0
11
102.1447
21
141.6793
31
0
0
LINE
8
VISIBLE
10
99.9445
20
140.6793
30
0
11
94.0641
21
140.6793
31
0
0
LINE
8
VISIBLE
10
94.0641
20
141.6793
30
0
11
99.9445
21
141.6793
31
0
0
LINE
8
VISIBLE
10
94.0641
20
140.6793
30
0
11
89.4686
21
140.6793
31
0
0
LINE
8
VISIBLE
10
89.4686
20
141.6793
30
0
11
94.0641
21
141.6793
31
0
0
LINE
8
VISIBLE
10
89.4686
20
140.6793
30
0
11
85.6791
21
140.6793
31
0
0
LINE
8
VISIBLE
10
85.6791
20
141.6793
30
0
11
89.4686
21
141.6793
31
0
0
LINE
8
VISIBLE
10
85.6791
20
140.6793
30
0
11
82.4112
21
140.6793
31
0
0
LINE
8
VISIBLE
10
82.4112
20
141.6793
30
0
11
85.6791
21
141.6793
31
0
0
LINE
8
VISIBLE
10
82.4112
20
140.6793
30
0
11
79.4804
21
140.6793
31
0
0
LINE
8
VISIBLE
10
79.4804
20
141.6793
30
0
11
82.4112
21
141.6793
31
0
0
LINE
8
VISIBLE
10
79.4804
20
140.6793
30
0
11
76.7555
21
140.6793
31
0
0
LINE
8
VISIBLE
10
76.7555
20
141.6793
30
0
11
79.4804
21
141.6793
31
0
0
LINE
8
VISIBLE
10
76.7555
20
140.6793
30
0
11
74.1338
21
140.6793
31
0
0
LINE
8
VISIBLE
10
74.1338
20
141.6793
30
0
11
76.7555
21
141.6793
31
0
0
LINE
8
VISIBLE
10
74.1338
20
140.6793
30
0
11
71.5239
21
140.6793
31
0
0
LINE
8
VISIBLE
10
71.5239
20
141.6793
30
0
11
74.1338
21
141.6793
31
0
0
LINE
8
VISIBLE
10
71.5239
20
140.6793
30
0
11
68.8331
21
140.6793
31
0
0
LINE
8
VISIBLE
10
68.8331
20
141.6793
30
0
11
71.5239
21
141.6793
31
0
0
LINE
8
VISIBLE
10
68.8331
20
140.6793
30
0
11
65.9533
21
140.6793
31
0
0
LINE
8
VISIBLE
10
65.9533
20
141.6793
30
0
11
68.8331
21
141.6793
31
0
0
LINE
8
VISIBLE
10
65.9533
20
140.6793
30
0
11
62.7415
21
140.6793
31
0
0
LINE
8
VISIBLE
10
62.7415
20
141.6793
30
0
11
65.9533
21
141.6793
31
0
0
LINE
8
VISIBLE
10
62.7415
20
140.6793
30
0
11
58.9849
21
140.6793
31
0
0
LINE
8
VISIBLE
10
58.9849
20
141.6793
30
0
11
62.7415
21
141.6793
31
0
0
LINE
8
VISIBLE
10
58.9849
20
140.6793
30
0
11
54.3333
21
140.6793
31
0
0
LINE
8
VISIBLE
10
54.3333
20
141.6793
30
0
11
58.9849
21
141.6793
31
0
0
LINE
8
VISIBLE
10
54.3333
20
140.6793
30
0
11
48.1395
21
140.6793
31
0
0
LINE
8
VISIBLE
10
48.1395
20
141.6793
30
0
11
54.3333
21
141.6793
31
0
0
LINE
8
VISIBLE
10
48.1395
20
140.6793
30
0
11
42.1447
21
140.6793
31
0
0
LINE
8
VISIBLE
10
42.1447
20
141.6793
30
0
11
48.1395
21
141.6793
31
0
0
LINE
8
VISIBLE
10
102.1447
20
141.6793
30
0
11
42.1447
21
141.6793
31
0
0
LINE
8
VISIBLE
10
42.1447
20
140.6793
30
0
11
102.1447
21
140.6793
31
0
0
LINE
8
VISIBLE
10
75.1090
20
141.6793
30
0
11
75.4164
21
141.6793
31
0
0
LINE
8
VISIBLE
10
74.9804
20
141.6793
30
0
11
75.3322
21
141.6793
31
0
0
LINE
8
VISIBLE
10
74.9078
20
141.6793
30
0
11
75.1935
21
141.6793
31
0
0
LINE
8
VISIBLE
10
74.8845
20
141.6793
30
0
11
75.0025
21
141.6793
31
0
0
LINE
8
VISIBLE
10
69.1803
20
141.6793
30
0
11
68.8729
21
141.6793
31
0
0
LINE
8
VISIBLE
10
69.3089
20
141.6793
30
0
11
68.9571
21
141.6793
31
0
0
LINE
8
VISIBLE
10
69.3815
20
141.6793
30
0
11
69.0959
21
141.6793
31
0
0
LINE
8
VISIBLE
10
69.4048
20
141.6793
30
0
11
69.2868
21
141.6793
31
0
0
LINE
8
VISIBLE
10
70.9990
20
141.6793
30
0
11
69.8112
21
141.6793
31
0
0
LINE
8
VISIBLE
10
71.2446
20
141.6793
30
0
11
70.1357
21
141.6793
31
0
0
LINE
8
VISIBLE
10
71.4796
20
141.6793
30
0
11
70.4947
21
141.6793
31
0
0
LINE
8
VISIBLE
10
71.7064
20
141.6793
30
0
11
70.8818
21
141.6793
31
0
0
LINE
8
VISIBLE
10
71.9274
20
141.6793
30
0
11
71.2905
21
141.6793
31
0
0
LINE
8
VISIBLE
10
72.1447
20
141.6793
30
0
11
71.7139
21
141.6793
31
0
0
LINE
8
VISIBLE
10
73.7947
20
140.6793
30
0
11
75.1116
21
140.6793
31
0
0
LINE
8
VISIBLE
10
74.1536
20
140.6793
30
0
11
74.9820
21
140.6793
31
0
0
LINE
8
VISIBLE
10
74.4781
20
140.6793
30
0
11
74.9086
21
140.6793
31
0
0
LINE
8
VISIBLE
10
74.7627
20
140.6793
30
0
11
74.8845
21
140.6793
31
0
0
LINE
8
VISIBLE
10
70.4947
20
140.6793
30
0
11
69.1777
21
140.6793
31
0
0
LINE
8
VISIBLE
10
70.1357
20
140.6793
30
0
11
69.3073
21
140.6793
31
0
0
LINE
8
VISIBLE
10
69.8112
20
140.6793
30
0
11
69.3807
21
140.6793
31
0
0
LINE
8
VISIBLE
10
69.5266
20
140.6793
30
0
11
69.4048
21
140.6793
31
0
0
LINE
8
VISIBLE
10
69.8112
20
140.6793
30
0
11
70.9990
21
140.6793
31
0
0
LINE
8
VISIBLE
10
70.1357
20
140.6793
30
0
11
71.2446
21
140.6793
31
0
0
LINE
8
VISIBLE
10
70.4947
20
140.6793
30
0
11
71.4796
21
140.6793
31
0
0
LINE
8
VISIBLE
10
70.8818
20
140.6793
30
0
11
71.7064
21
140.6793
31
0
0
LINE
8
VISIBLE
10
71.2905
20
140.6793
30
0
11
71.9274
21
140.6793
31
0
0
LINE
8
VISIBLE
10
71.7139
20
140.6793
30
0
11
72.1447
21
140.6793
31
0
0
LINE
8
VISIBLE
10
72.1476
20
140.6793
30
0
11
72.1447
21
140.6793
31
0
0
LINE
8
VISIBLE
10
72.1447
20
141.6793
30
0
11
72.1534
21
141.6793
31
0
0
LINE
8
VISIBLE
10
72.1534
20
141.6793
30
0
11
72.5754
21
141.6793
31
0
0
LINE
8
VISIBLE
10
72.5754
20
140.6793
30
0
11
72.1476
21
140.6793
31
0
0
LINE
8
VISIBLE
10
72.5783
20
140.6793
30
0
11
72.5754
21
140.6793
31
0
0
LINE
8
VISIBLE
10
72.5754
20
141.6793
30
0
11
72.5840
21
141.6793
31
0
0
LINE
8
VISIBLE
10
72.5840
20
141.6793
30
0
11
72.9988
21
141.6793
31
0
0
LINE
8
VISIBLE
10
72.9988
20
140.6793
30
0
11
72.5783
21
140.6793
31
0
0
LINE
8
VISIBLE
10
73.0015
20
140.6793
30
0
11
72.9988
21
140.6793
31
0
0
LINE
8
VISIBLE
10
72.9988
20
141.6793
30
0
11
73.0071
21
141.6793
31
0
0
LINE
8
VISIBLE
10
73.0071
20
141.6793
30
0
11
73.4075
21
141.6793
31
0
0
LINE
8
VISIBLE
10
73.4075
20
140.6793
30
0
11
73.0015
21
140.6793
31
0
0
LINE
8
VISIBLE
10
73.4101
20
140.6793
30
0
11
73.4075
21
140.6793
31
0
0
LINE
8
VISIBLE
10
73.4075
20
141.6793
30
0
11
73.4154
21
141.6793
31
0
0
LINE
8
VISIBLE
10
73.4154
20
141.6793
30
0
11
73.7947
21
141.6793
31
0
0
LINE
8
VISIBLE
10
73.7947
20
140.6793
30
0
11
73.4101
21
140.6793
31
0
0
LINE
8
VISIBLE
10
73.7971
20
140.6793
30
0
11
73.7947
21
140.6793
31
0
0
LINE
8
VISIBLE
10
73.7947
20
141.6793
30
0
11
73.8020
21
141.6793
31
0
0
LINE
8
VISIBLE
10
73.8020
20
141.6793
30
0
11
74.1536
21
141.6793
31
0
0
LINE
8
VISIBLE
10
74.1536
20
140.6793
30
0
11
73.7971
21
140.6793
31
0
0
LINE
8
VISIBLE
10
74.1558
20
140.6793
30
0
11
74.1536
21
140.6793
31
0
0
LINE
8
VISIBLE
10
74.1536
20
141.6793
30
0
11
74.1602
21
141.6793
31
0
0
LINE
8
VISIBLE
10
74.1602
20
141.6793
30
0
11
74.4781
21
141.6793
31
0
0
LINE
8
VISIBLE
10
74.4781
20
140.6793
30
0
11
74.1558
21
140.6793
31
0
0
LINE
8
VISIBLE
10
74.4800
20
140.6793
30
0
11
74.4781
21
140.6793
31
0
0
LINE
8
VISIBLE
10
74.4781
20
141.6793
30
0
11
74.4839
21
141.6793
31
0
0
LINE
8
VISIBLE
10
74.4839
20
141.6793
30
0
11
74.7627
21
141.6793
31
0
0
LINE
8
VISIBLE
10
74.7627
20
140.6793
30
0
11
74.4800
21
140.6793
31
0
0
LINE
8
VISIBLE
10
74.7644
20
140.6793
30
0
11
74.7627
21
140.6793
31
0
0
LINE
8
VISIBLE
10
74.7627
20
141.6793
30
0
11
74.7676
21
141.6793
31
0
0
LINE
8
VISIBLE
10
74.7676
20
141.6793
30
0
11
75.0025
21
141.6793
31
0
0
LINE
8
VISIBLE
10
75.0025
20
140.6793
30
0
11
74.7644
21
140.6793
31
0
0
LINE
8
VISIBLE
10
75.0038
20
140.6793
30
0
11
75.0025
21
140.6793
31
0
0
LINE
8
VISIBLE
10
75.0025
20
141.6793
30
0
11
75.0064
21
141.6793
31
0
0
LINE
8
VISIBLE
10
75.0064
20
141.6793
30
0
11
75.1935
21
141.6793
31
0
0
LINE
8
VISIBLE
10
75.1935
20
140.6793
30
0
11
75.0038
21
140.6793
31
0
0
LINE
8
VISIBLE
10
75.1944
20
140.6793
30
0
11
75.1935
21
140.6793
31
0
0
LINE
8
VISIBLE
10
75.1935
20
141.6793
30
0
11
75.1963
21
141.6793
31
0
0
LINE
8
VISIBLE
10
75.1963
20
141.6793
30
0
11
75.3322
21
141.6793
31
0
0
LINE
8
VISIBLE
10
75.3322
20
140.6793
30
0
11
75.1944
21
140.6793
31
0
0
LINE
8
VISIBLE
10
75.3328
20
140.6793
30
0
11
75.3322
21
140.6793
31
0
0
LINE
8
VISIBLE
10
75.3322
20
141.6793
30
0
11
75.3339
21
141.6793
31
0
0
LINE
8
VISIBLE
10
75.3339
20
141.6793
30
0
11
75.4164
21
141.6793
31
0
0
LINE
8
VISIBLE
10
75.4164
20
140.6793
30
0
11
75.3328
21
140.6793
31
0
0
LINE
8
VISIBLE
10
75.4166
20
140.6793
30
0
11
75.4164
21
140.6793
31
0
0
LINE
8
VISIBLE
10
75.4164
20
141.6793
30
0
11
75.4170
21
141.6793
31
0
0
LINE
8
VISIBLE
10
75.4170
20
141.6793
30
0
11
75.4447
21
141.6793
31
0
0
LINE
8
VISIBLE
10
75.4447
20
140.6793
30
0
11
75.4166
21
140.6793
31
0
0
LINE
8
VISIBLE
10
75.4445
20
140.6793
30
0
11
75.4447
21
140.6793
31
0
0
LINE
8
VISIBLE
10
75.4447
20
141.6793
30
0
11
75.4441
21
141.6793
31
0
0
LINE
8
VISIBLE
10
75.4441
20
141.6793
30
0
11
75.4164
21
141.6793
31
0
0
LINE
8
VISIBLE
10
75.4164
20
140.6793
30
0
11
75.4445
21
140.6793
31
0
0
LINE
8
VISIBLE
10
75.4159
20
140.6793
30
0
11
75.4164
21
140.6793
31
0
0
LINE
8
VISIBLE
10
75.4164
20
141.6793
30
0
11
75.4147
21
141.6793
31
0
0
LINE
8
VISIBLE
10
75.4147
20
141.6793
30
0
11
75.3322
21
141.6793
31
0
0
LINE
8
VISIBLE
10
75.3322
20
140.6793
30
0
11
75.4159
21
140.6793
31
0
0
LINE
8
VISIBLE
10
75.3313
20
140.6793
30
0
11
75.3322
21
140.6793
31
0
0
LINE
8
VISIBLE
10
75.3322
20
141.6793
30
0
11
75.3294
21
141.6793
31
0
0
LINE
8
VISIBLE
10
75.3294
20
141.6793
30
0
11
75.1935
21
141.6793
31
0
0
LINE
8
VISIBLE
10
75.1935
20
140.6793
30
0
11
75.3313
21
140.6793
31
0
0
LINE
8
VISIBLE
10
75.1922
20
140.6793
30
0
11
75.1935
21
140.6793
31
0
0
LINE
8
VISIBLE
10
75.1935
20
141.6793
30
0
11
75.1896
21
141.6793
31
0
0
LINE
8
VISIBLE
10
75.1896
20
141.6793
30
0
11
75.0025
21
141.6793
31
0
0
LINE
8
VISIBLE
10
75.0025
20
140.6793
30
0
11
75.1922
21
140.6793
31
0
0
LINE
8
VISIBLE
10
75.0009
20
140.6793
30
0
11
75.0025
21
140.6793
31
0
0
LINE
8
VISIBLE
10
75.0025
20
141.6793
30
0
11
74.9977
21
141.6793
31
0
0
LINE
8
VISIBLE
10
74.9977
20
141.6793
30
0
11
74.7627
21
141.6793
31
0
0
LINE
8
VISIBLE
10
74.7627
20
140.6793
30
0
11
75.0009
21
140.6793
31
0
0
LINE
8
VISIBLE
10
74.7608
20
140.6793
30
0
11
74.7627
21
140.6793
31
0
0
LINE
8
VISIBLE
10
74.7627
20
141.6793
30
0
11
74.7569
21
141.6793
31
0
0
LINE
8
VISIBLE
10
74.7569
20
141.6793
30
0
11
74.4781
21
141.6793
31
0
0
LINE
8
VISIBLE
10
74.4781
20
140.6793
30
0
11
74.7608
21
140.6793
31
0
0
LINE
8
VISIBLE
10
74.4759
20
140.6793
30
0
11
74.4781
21
140.6793
31
0
0
LINE
8
VISIBLE
10
74.4781
20
141.6793
30
0
11
74.4715
21
141.6793
31
0
0
LINE
8
VISIBLE
10
74.4715
20
141.6793
30
0
11
74.1536
21
141.6793
31
0
0
LINE
8
VISIBLE
10
74.1536
20
140.6793
30
0
11
74.4759
21
140.6793
31
0
0
LINE
8
VISIBLE
10
74.1511
20
140.6793
30
0
11
74.1536
21
140.6793
31
0
0
LINE
8
VISIBLE
10
74.1536
20
141.6793
30
0
11
74.1463
21
141.6793
31
0
0
LINE
8
VISIBLE
10
74.1463
20
141.6793
30
0
11
73.7947
21
141.6793
31
0
0
LINE
8
VISIBLE
10
73.7947
20
140.6793
30
0
11
74.1511
21
140.6793
31
0
0
LINE
8
VISIBLE
10
73.7920
20
140.6793
30
0
11
73.7947
21
140.6793
31
0
0
LINE
8
VISIBLE
10
73.7947
20
141.6793
30
0
11
73.7868
21
141.6793
31
0
0
LINE
8
VISIBLE
10
73.7868
20
141.6793
30
0
11
73.4075
21
141.6793
31
0
0
LINE
8
VISIBLE
10
73.4075
20
140.6793
30
0
11
73.7920
21
140.6793
31
0
0
LINE
8
VISIBLE
10
73.4047
20
140.6793
30
0
11
73.4075
21
140.6793
31
0
0
LINE
8
VISIBLE
10
73.4075
20
141.6793
30
0
11
73.3992
21
141.6793
31
0
0
LINE
8
VISIBLE
10
73.3992
20
141.6793
30
0
11
72.9988
21
141.6793
31
0
0
LINE
8
VISIBLE
10
72.9988
20
140.6793
30
0
11
73.4047
21
140.6793
31
0
0
LINE
8
VISIBLE
10
72.9959
20
140.6793
30
0
11
72.9988
21
140.6793
31
0
0
LINE
8
VISIBLE
10
72.9988
20
141.6793
30
0
11
72.9901
21
141.6793
31
0
0
LINE
8
VISIBLE
10
72.9901
20
141.6793
30
0
11
72.5754
21
141.6793
31
0
0
LINE
8
VISIBLE
10
72.5754
20
140.6793
30
0
11
72.9959
21
140.6793
31
0
0
LINE
8
VISIBLE
10
72.5725
20
140.6793
30
0
11
72.5754
21
140.6793
31
0
0
LINE
8
VISIBLE
10
72.5754
20
141.6793
30
0
11
72.5666
21
141.6793
31
0
0
LINE
8
VISIBLE
10
72.5666
20
141.6793
30
0
11
72.1447
21
141.6793
31
0
0
LINE
8
VISIBLE
10
72.1447
20
140.6793
30
0
11
72.5725
21
140.6793
31
0
0
LINE
8
VISIBLE
10
72.1417
20
140.6793
30
0
11
72.1447
21
140.6793
31
0
0
LINE
8
VISIBLE
10
72.1447
20
141.6793
30
0
11
72.1359
21
141.6793
31
0
0
LINE
8
VISIBLE
10
72.1359
20
141.6793
30
0
11
71.7139
21
141.6793
31
0
0
LINE
8
VISIBLE
10
71.7139
20
140.6793
30
0
11
72.1417
21
140.6793
31
0
0
LINE
8
VISIBLE
10
71.7110
20
140.6793
30
0
11
71.7139
21
140.6793
31
0
0
LINE
8
VISIBLE
10
71.7139
20
141.6793
30
0
11
71.7053
21
141.6793
31
0
0
LINE
8
VISIBLE
10
71.7053
20
141.6793
30
0
11
71.2906
21
141.6793
31
0
0
LINE
8
VISIBLE
10
71.2906
20
140.6793
30
0
11
71.7110
21
140.6793
31
0
0
LINE
8
VISIBLE
10
71.2878
20
140.6793
30
0
11
71.2906
21
140.6793
31
0
0
LINE
8
VISIBLE
10
71.2906
20
141.6793
30
0
11
71.2822
21
141.6793
31
0
0
LINE
8
VISIBLE
10
71.2822
20
141.6793
30
0
11
70.8818
21
141.6793
31
0
0
LINE
8
VISIBLE
10
70.8818
20
140.6793
30
0
11
71.2878
21
140.6793
31
0
0
LINE
8
VISIBLE
10
70.8792
20
140.6793
30
0
11
70.8818
21
140.6793
31
0
0
LINE
8
VISIBLE
10
70.8818
20
141.6793
30
0
11
70.8739
21
141.6793
31
0
0
LINE
8
VISIBLE
10
70.8739
20
141.6793
30
0
11
70.4947
21
141.6793
31
0
0
LINE
8
VISIBLE
10
70.4947
20
140.6793
30
0
11
70.8792
21
140.6793
31
0
0
LINE
8
VISIBLE
10
70.4922
20
140.6793
30
0
11
70.4947
21
140.6793
31
0
0
LINE
8
VISIBLE
10
70.4947
20
141.6793
30
0
11
70.4873
21
141.6793
31
0
0
LINE
8
VISIBLE
10
70.4873
20
141.6793
30
0
11
70.1357
21
141.6793
31
0
0
LINE
8
VISIBLE
10
70.1357
20
140.6793
30
0
11
70.4922
21
140.6793
31
0
0
LINE
8
VISIBLE
10
70.1335
20
140.6793
30
0
11
70.1357
21
140.6793
31
0
0
LINE
8
VISIBLE
10
70.1357
20
141.6793
30
0
11
70.1291
21
141.6793
31
0
0
LINE
8
VISIBLE
10
70.1291
20
141.6793
30
0
11
69.8112
21
141.6793
31
0
0
LINE
8
VISIBLE
10
69.8112
20
140.6793
30
0
11
70.1335
21
140.6793
31
0
0
LINE
8
VISIBLE
10
69.8093
20
140.6793
30
0
11
69.8112
21
140.6793
31
0
0
LINE
8
VISIBLE
10
69.8112
20
141.6793
30
0
11
69.8054
21
141.6793
31
0
0
LINE
8
VISIBLE
10
69.8054
20
141.6793
30
0
11
69.5266
21
141.6793
31
0
0
LINE
8
VISIBLE
10
69.5266
20
140.6793
30
0
11
69.8093
21
140.6793
31
0
0
LINE
8
VISIBLE
10
69.5250
20
140.6793
30
0
11
69.5266
21
140.6793
31
0
0
LINE
8
VISIBLE
10
69.5266
20
141.6793
30
0
11
69.5217
21
141.6793
31
0
0
LINE
8
VISIBLE
10
69.5217
20
141.6793
30
0
11
69.2868
21
141.6793
31
0
0
LINE
8
VISIBLE
10
69.2868
20
140.6793
30
0
11
69.5250
21
140.6793
31
0
0
LINE
8
VISIBLE
10
69.2855
20
140.6793
30
0
11
69.2868
21
140.6793
31
0
0
LINE
8
VISIBLE
10
69.2868
20
141.6793
30
0
11
69.2829
21
141.6793
31
0
0
LINE
8
VISIBLE
10
69.2829
20
141.6793
30
0
11
69.0959
21
141.6793
31
0
0
LINE
8
VISIBLE
10
69.0959
20
140.6793
30
0
11
69.2855
21
140.6793
31
0
0
LINE
8
VISIBLE
10
69.0949
20
140.6793
30
0
11
69.0959
21
140.6793
31
0
0
LINE
8
VISIBLE
10
69.0959
20
141.6793
30
0
11
69.0930
21
141.6793
31
0
0
LINE
8
VISIBLE
10
69.0930
20
141.6793
30
0
11
68.9571
21
141.6793
31
0
0
LINE
8
VISIBLE
10
68.9571
20
140.6793
30
0
11
69.0949
21
140.6793
31
0
0
LINE
8
VISIBLE
10
68.9565
20
140.6793
30
0
11
68.9571
21
140.6793
31
0
0
LINE
8
VISIBLE
10
68.9571
20
141.6793
30
0
11
68.9554
21
141.6793
31
0
0
LINE
8
VISIBLE
10
68.9554
20
141.6793
30
0
11
68.8729
21
141.6793
31
0
0
LINE
8
VISIBLE
10
68.8729
20
140.6793
30
0
11
68.9565
21
140.6793
31
0
0
LINE
8
VISIBLE
10
68.8727
20
140.6793
30
0
11
68.8729
21
140.6793
31
0
0
LINE
8
VISIBLE
10
68.8729
20
141.6793
30
0
11
68.8723
21
141.6793
31
0
0
LINE
8
VISIBLE
10
68.8723
20
141.6793
30
0
11
68.8447
21
141.6793
31
0
0
LINE
8
VISIBLE
10
68.8447
20
140.6793
30
0
11
68.8727
21
140.6793
31
0
0
LINE
8
VISIBLE
10
68.8449
20
140.6793
30
0
11
68.8447
21
140.6793
31
0
0
LINE
8
VISIBLE
10
68.8447
20
141.6793
30
0
11
68.8452
21
141.6793
31
0
0
LINE
8
VISIBLE
10
68.8452
20
141.6793
30
0
11
68.8729
21
141.6793
31
0
0
LINE
8
VISIBLE
10
68.8729
20
140.6793
30
0
11
68.8449
21
140.6793
31
0
0
LINE
8
VISIBLE
10
68.8735
20
140.6793
30
0
11
68.8729
21
140.6793
31
0
0
LINE
8
VISIBLE
10
68.8729
20
141.6793
30
0
11
68.8746
21
141.6793
31
0
0
LINE
8
VISIBLE
10
68.8746
20
141.6793
30
0
11
68.9571
21
141.6793
31
0
0
LINE
8
VISIBLE
10
68.9571
20
140.6793
30
0
11
68.8735
21
140.6793
31
0
0
LINE
8
VISIBLE
10
68.9580
20
140.6793
30
0
11
68.9571
21
140.6793
31
0
0
LINE
8
VISIBLE
10
68.9571
20
141.6793
30
0
11
68.9599
21
141.6793
31
0
0
LINE
8
VISIBLE
10
68.9599
20
141.6793
30
0
11
69.0959
21
141.6793
31
0
0
LINE
8
VISIBLE
10
69.0959
20
140.6793
30
0
11
68.9580
21
140.6793
31
0
0
LINE
8
VISIBLE
10
69.0972
20
140.6793
30
0
11
69.0959
21
140.6793
31
0
0
LINE
8
VISIBLE
10
69.0959
20
141.6793
30
0
11
69.0997
21
141.6793
31
0
0
LINE
8
VISIBLE
10
69.0997
20
141.6793
30
0
11
69.2868
21
141.6793
31
0
0
LINE
8
VISIBLE
10
69.2868
20
140.6793
30
0
11
69.0972
21
140.6793
31
0
0
LINE
8
VISIBLE
10
69.2884
20
140.6793
30
0
11
69.2868
21
140.6793
31
0
0
LINE
8
VISIBLE
10
69.2868
20
141.6793
30
0
11
69.2917
21
141.6793
31
0
0
LINE
8
VISIBLE
10
69.2917
20
141.6793
30
0
11
69.5266
21
141.6793
31
0
0
LINE
8
VISIBLE
10
69.5266
20
140.6793
30
0
11
69.2884
21
140.6793
31
0
0
LINE
8
VISIBLE
10
69.5285
20
140.6793
30
0
11
69.5266
21
140.6793
31
0
0
LINE
8
VISIBLE
10
69.5266
20
141.6793
30
0
11
69.5324
21
141.6793
31
0
0
LINE
8
VISIBLE
10
69.5324
20
141.6793
30
0
11
69.8112
21
141.6793
31
0
0
LINE
8
VISIBLE
10
69.8112
20
140.6793
30
0
11
69.5285
21
140.6793
31
0
0
LINE
8
VISIBLE
10
69.8134
20
140.6793
30
0
11
69.8112
21
140.6793
31
0
0
LINE
8
VISIBLE
10
69.8112
20
141.6793
30
0
11
69.8178
21
141.6793
31
0
0
LINE
8
VISIBLE
10
69.8178
20
141.6793
30
0
11
70.1357
21
141.6793
31
0
0
LINE
8
VISIBLE
10
70.1357
20
140.6793
30
0
11
69.8134
21
140.6793
31
0
0
LINE
8
VISIBLE
10
70.1382
20
140.6793
30
0
11
70.1357
21
140.6793
31
0
0
LINE
8
VISIBLE
10
70.1357
20
141.6793
30
0
11
70.1431
21
141.6793
31
0
0
LINE
8
VISIBLE
10
70.1431
20
141.6793
30
0
11
70.4947
21
141.6793
31
0
0
LINE
8
VISIBLE
10
70.4947
20
140.6793
30
0
11
70.1382
21
140.6793
31
0
0
LINE
8
VISIBLE
10
70.4973
20
140.6793
30
0
11
70.4947
21
140.6793
31
0
0
LINE
8
VISIBLE
10
70.4947
20
141.6793
30
0
11
70.5025
21
141.6793
31
0
0
LINE
8
VISIBLE
10
70.5025
20
141.6793
30
0
11
70.8818
21
141.6793
31
0
0
LINE
8
VISIBLE
10
70.8818
20
140.6793
30
0
11
70.4973
21
140.6793
31
0
0
LINE
8
VISIBLE
10
70.8846
20
140.6793
30
0
11
70.8818
21
140.6793
31
0
0
LINE
8
VISIBLE
10
70.8818
20
141.6793
30
0
11
70.8901
21
141.6793
31
0
0
LINE
8
VISIBLE
10
70.8901
20
141.6793
30
0
11
71.2906
21
141.6793
31
0
0
LINE
8
VISIBLE
10
71.2906
20
140.6793
30
0
11
70.8846
21
140.6793
31
0
0
LINE
8
VISIBLE
10
71.2934
20
140.6793
30
0
11
71.2906
21
140.6793
31
0
0
LINE
8
VISIBLE
10
71.2906
20
141.6793
30
0
11
71.2992
21
141.6793
31
0
0
LINE
8
VISIBLE
10
71.2992
20
141.6793
30
0
11
71.7139
21
141.6793
31
0
0
LINE
8
VISIBLE
10
71.7139
20
140.6793
30
0
11
71.2934
21
140.6793
31
0
0
LINE
8
VISIBLE
10
71.7169
20
140.6793
30
0
11
71.7139
21
140.6793
31
0
0
LINE
8
VISIBLE
10
71.7139
20
141.6793
30
0
11
71.7227
21
141.6793
31
0
0
LINE
8
VISIBLE
10
71.7227
20
141.6793
30
0
11
72.1447
21
141.6793
31
0
0
LINE
8
VISIBLE
10
72.1447
20
140.6793
30
0
11
71.7169
21
140.6793
31
0
0
TEXT
8
TEXTO
10
72.1447
20
145.6793
30
0
40
3.5000
1
ALZADO
72
1
73
2
11
72.1447
21
145.6793
31
0
0
LINE
8
COTAS
10
42.1447
20
139.6793
30
0
11
42.1447
21
130.1793
31
0
0
LINE
8
COTAS
10
102.1447
20
139.6793
30
0
11
102.1447
21
130.1793
31
0
0
LINE
8
COTAS
10
42.1447
20
131.6793
30
0
11
102.1447
21
131.6793
31
0
0
SOLID
8
COTAS
10
42.1447
20
131.6793
30
0
11
44.6447
21
132.1293
31
0
12
44.6447
22
131.2293
32
0
13
44.6447
23
131.2293
33
0
0
SOLID
8
COTAS
10
102.1447
20
131.6793
30
0
11
99.6447
21
132.1293
31
0
12
99.6447
22
131.2293
32
0
13
99.6447
23
131.2293
33
0
0
TEXT
8
COTAS
10
72.1447
20
133.8793
30
0
40
3.5000
1
60
72
1
73
2
11
72.1447
21
133.8793
31
0
0
LINE
8
COTAS
10
103.1447
20
140.6793
30
0
11
112.6447
21
140.6793
31
0
0
LINE
8
COTAS
10
103.1447
20
141.6793
30
0
11
112.6447
21
141.6793
31
0
0
LINE
8
COTAS
10
111.1447
20
140.6793
30
0
11
111.1447
21
141.6793
31
0
0
SOLID
8
COTAS
10
111.1447
20
140.6793
30
0
11
111.5947
21
143.1793
31
0
12
110.6947
22
143.1793
32
0
13
110.6947
23
143.1793
33
0
0
SOLID
8
COTAS
10
111.1447
20
141.6793
30
0
11
111.5947
21
139.1793
31
0
12
110.6947
22
139.1793
32
0
13
110.6947
23
139.1793
33
0
0
TEXT
8
COTAS
10
113.3447
20
141.1793
30
0
40
3.5000
1
1
72
1
73
2
11
113.3447
21
141.1793
31
0
0
LINE
8
VISIBLE
10
102.1447
20
93.3456
30
0
11
102.1447
21
74.6793
31
0
0
LINE
8
VISIBLE
10
102.1447
20
74.6793
30
0
11
102.1447
21
74.6793
31
0
0
LINE
8
VISIBLE
10
102.1447
20
74.6793
30
0
11
102.1447
21
93.3456
31
0
0
LINE
8
VISIBLE
10
102.1447
20
97.2893
30
0
11
102.1447
21
93.3456
31
0
0
LINE
8
VISIBLE
10
102.1447
20
93.3456
30
0
11
102.1447
21
97.2893
31
0
0
LINE
8
VISIBLE
10
102.1447
20
101.3856
30
0
11
102.1447
21
97.2893
31
0
0
LINE
8
VISIBLE
10
102.1447
20
97.2893
30
0
11
102.1447
21
101.3856
31
0
0
LINE
8
VISIBLE
10
102.1447
20
105.8021
30
0
11
102.1447
21
101.3856
31
0
0
LINE
8
VISIBLE
10
102.1447
20
101.3856
30
0
11
102.1447
21
105.8021
31
0
0
LINE
8
VISIBLE
10
102.1447
20
110.7642
30
0
11
102.1447
21
105.8021
31
0
0
LINE
8
VISIBLE
10
102.1447
20
105.8021
30
0
11
102.1447
21
110.7642
31
0
0
LINE
8
VISIBLE
10
102.1447
20
114.6793
30
0
11
102.1447
21
110.7642
31
0
0
LINE
8
VISIBLE
10
102.1447
20
114.6793
30
0
11
102.1447
21
114.6793
31
0
0
LINE
8
VISIBLE
10
102.1447
20
110.7642
30
0
11
102.1447
21
114.6793
31
0
0
LINE
8
VISIBLE
10
42.1447
20
89.4131
30
0
11
42.1447
21
74.6793
31
0
0
LINE
8
VISIBLE
10
42.1447
20
74.6793
30
0
11
42.1447
21
74.6793
31
0
0
LINE
8
VISIBLE
10
42.1447
20
74.6793
30
0
11
42.1447
21
89.4131
31
0
0
LINE
8
VISIBLE
10
42.1447
20
114.6793
30
0
11
42.1447
21
113.1454
31
0
0
LINE
8
VISIBLE
10
42.1447
20
114.6793
30
0
11
42.1447
21
114.6793
31
0
0
LINE
8
VISIBLE
10
42.1447
20
113.1454
30
0
11
42.1447
21
114.6793
31
0
0
LINE
8
VISIBLE
10
42.1447
20
113.1454
30
0
11
42.1447
21
108.3404
31
0
0
LINE
8
VISIBLE
10
42.1447
20
108.3404
30
0
11
42.1447
21
113.1454
31
0
0
LINE
8
VISIBLE
10
42.1447
20
108.3404
30
0
11
42.1447
21
104.0042
31
0
0
LINE
8
VISIBLE
10
42.1447
20
104.0042
30
0
11
42.1447
21
108.3404
31
0
0
LINE
8
VISIBLE
10
42.1447
20
104.0042
30
0
11
42.1447
21
99.9456
31
0
0
LINE
8
VISIBLE
10
42.1447
20
99.9456
30
0
11
42.1447
21
104.0042
31
0
0
LINE
8
VISIBLE
10
42.1447
20
99.9456
30
0
11
42.1447
21
96.0131
31
0
0
LINE
8
VISIBLE
10
42.1447
20
96.0131
30
0
11
42.1447
21
99.9456
31
0
0
LINE
8
VISIBLE
10
42.1447
20
96.0131
30
0
11
42.1447
21
92.0694
31
0
0
LINE
8
VISIBLE
10
42.1447
20
92.0694
30
0
11
42.1447
21
96.0131
31
0
0
LINE
8
VISIBLE
10
42.1447
20
92.0694
30
0
11
42.1447
21
89.4131
31
0
0
LINE
8
VISIBLE
10
42.1447
20
89.4131
30
0
11
42.1447
21
92.0694
31
0
0
LINE
8
VISIBLE
10
102.1447
20
114.6793
30
0
11
99.9445
21
114.6793
31
0
0
LINE
8
VISIBLE
10
99.9445
20
114.6793
30
0
11
102.1447
21
114.6793
31
0
0
LINE
8
VISIBLE
10
99.9445
20
114.6793
30
0
11
94.0641
21
114.6793
31
0
0
LINE
8
VISIBLE
10
94.0641
20
114.6793
30
0
11
99.9445
21
114.6793
31
0
0
LINE
8
VISIBLE
10
94.0641
20
114.6793
30
0
11
89.4686
21
114.6793
31
0
0
LINE
8
VISIBLE
10
89.4686
20
114.6793
30
0
11
94.0641
21
114.6793
31
0
0
LINE
8
VISIBLE
10
89.4686
20
114.6793
30
0
11
85.6791
21
114.6793
31
0
0
LINE
8
VISIBLE
10
85.6791
20
114.6793
30
0
11
89.4686
21
114.6793
31
0
0
LINE
8
VISIBLE
10
85.6791
20
114.6793
30
0
11
82.4112
21
114.6793
31
0
0
LINE
8
VISIBLE
10
82.4112
20
114.6793
30
0
11
85.6791
21
114.6793
31
0
0
LINE
8
VISIBLE
10
82.4112
20
114.6793
30
0
11
79.4804
21
114.6793
31
0
0
LINE
8
VISIBLE
10
79.4804
20
114.6793
30
0
11
82.4112
21
114.6793
31
0
0
LINE
8
VISIBLE
10
79.4804
20
114.6793
30
0
11
76.7555
21
114.6793
31
0
0
LINE
8
VISIBLE
10
76.7555
20
114.6793
30
0
11
79.4804
21
114.6793
31
0
0
LINE
8
VISIBLE
10
76.7555
20
114.6793
30
0
11
74.1338
21
114.6793
31
0
0
LINE
8
VISIBLE
10
74.1338
20
114.6793
30
0
11
76.7555
21
114.6793
31
0
0
LINE
8
VISIBLE
10
74.1338
20
114.6793
30
0
11
71.5239
21
114.6793
31
0
0
LINE
8
VISIBLE
10
71.5239
20
114.6793
30
0
11
74.1338
21
114.6793
31
0
0
LINE
8
VISIBLE
10
71.5239
20
114.6793
30
0
11
68.8331
21
114.6793
31
0
0
LINE
8
VISIBLE
10
68.8331
20
114.6793
30
0
11
71.5239
21
114.6793
31
0
0
LINE
8
VISIBLE
10
68.8331
20
114.6793
30
0
11
65.9533
21
114.6793
31
0
0
LINE
8
VISIBLE
10
65.9533
20
114.6793
30
0
11
68.8331
21
114.6793
31
0
0
LINE
8
VISIBLE
10
65.9533
20
114.6793
30
0
11
62.7415
21
114.6793
31
0
0
LINE
8
VISIBLE
10
62.7415
20
114.6793
30
0
11
65.9533
21
114.6793
31
0
0
LINE
8
VISIBLE
10
62.7415
20
114.6793
30
0
11
58.9849
21
114.6793
31
0
0
LINE
8
VISIBLE
10
58.9849
20
114.6793
30
0
11
62.7415
21
114.6793
31
0
0
LINE
8
VISIBLE
10
58.9849
20
114.6793
30
0
11
54.3333
21
114.6793
31
0
0
LINE
8
VISIBLE
10
54.3333
20
114.6793
30
0
11
58.9849
21
114.6793
31
0
0
LINE
8
VISIBLE
10
54.3333
20
114.6793
30
0
11
48.1395
21
114.6793
31
0
0
LINE
8
VISIBLE
10
48.1395
20
114.6793
30
0
11
54.3333
21
114.6793
31
0
0
LINE
8
VISIBLE
10
48.1395
20
114.6793
30
0
11
42.1447
21
114.6793
31
0
0
LINE
8
VISIBLE
10
42.1447
20
114.6793
30
0
11
48.1395
21
114.6793
31
0
0
LINE
8
VISIBLE
10
102.1447
20
74.6793
30
0
11
42.1447
21
74.6793
31
0
0
LINE
8
VISIBLE
10
42.1447
20
74.6793
30
0
11
102.1447
21
74.6793
31
0
0
LINE
8
VISIBLE
10
75.1090
20
96.6556
30
0
11
75.4164
21
95.1101
31
0
0
LINE
8
VISIBLE
10
74.9804
20
96.5698
30
0
11
75.3322
21
95.5334
31
0
0
LINE
8
VISIBLE
10
74.9078
20
96.5214
30
0
11
75.1935
21
95.9422
31
0
0
LINE
8
VISIBLE
10
74.8845
20
96.5059
30
0
11
75.0025
21
96.3293
31
0
0
LINE
8
VISIBLE
10
69.1803
20
92.7031
30
0
11
68.8729
21
94.2486
31
0
0
LINE
8
VISIBLE
10
69.3089
20
92.7888
30
0
11
68.9571
21
93.8252
31
0
0
LINE
8
VISIBLE
10
69.3815
20
92.8372
30
0
11
69.0959
21
93.4165
31
0
0
LINE
8
VISIBLE
10
69.4048
20
92.8527
30
0
11
69.2868
21
93.0293
31
0
0
LINE
8
VISIBLE
10
70.9990
20
91.3042
30
0
11
69.8112
21
92.3459
31
0
0
LINE
8
VISIBLE
10
71.2446
20
91.3203
30
0
11
70.1357
21
92.0613
31
0
0
LINE
8
VISIBLE
10
71.4796
20
91.3357
30
0
11
70.4947
21
91.8215
31
0
0
LINE
8
VISIBLE
10
71.7064
20
91.3506
30
0
11
70.8818
21
91.6305
31
0
0
LINE
8
VISIBLE
10
71.9274
20
91.3651
30
0
11
71.2905
21
91.4918
31
0
0
LINE
8
VISIBLE
10
72.1447
20
91.3793
30
0
11
71.7139
21
91.4076
31
0
0
LINE
8
VISIBLE
10
73.7947
20
91.8214
30
0
11
75.1116
21
92.7014
31
0
0
LINE
8
VISIBLE
10
74.1536
20
92.0613
30
0
11
74.9820
21
92.7878
31
0
0
LINE
8
VISIBLE
10
74.4781
20
92.3459
30
0
11
74.9086
21
92.8367
31
0
0
LINE
8
VISIBLE
10
74.7627
20
92.6704
30
0
11
74.8845
21
92.8527
31
0
0
LINE
8
VISIBLE
10
70.4947
20
97.5372
30
0
11
69.1777
21
96.6573
31
0
0
LINE
8
VISIBLE
10
70.1357
20
97.2974
30
0
11
69.3073
21
96.5709
31
0
0
LINE
8
VISIBLE
10
69.8112
20
97.0128
30
0
11
69.3807
21
96.5219
31
0
0
LINE
8
VISIBLE
10
69.5266
20
96.6883
30
0
11
69.4048
21
96.5059
31
0
0
LINE
8
VISIBLE
10
69.8112
20
92.3459
30
0
11
70.9990
21
91.3042
31
0
0
LINE
8
VISIBLE
10
70.1357
20
92.0613
30
0
11
71.2446
21
91.3203
31
0
0
LINE
8
VISIBLE
10
70.4947
20
91.8215
30
0
11
71.4796
21
91.3357
31
0
0
LINE
8
VISIBLE
10
70.8818
20
91.6305
30
0
11
71.7064
21
91.3506
31
0
0
LINE
8
VISIBLE
10
71.2905
20
91.4918
30
0
11
71.9274
21
91.3651
31
0
0
LINE
8
VISIBLE
10
71.7139
20
91.4076
30
0
11
72.1447
21
91.3793
31
0
0
LINE
8
VISIBLE
10
72.1476
20
91.3795
30
0
11
72.1447
21
91.3793
31
0
0
LINE
8
VISIBLE
10
72.1447
20
91.3793
30
0
11
72.1534
21
91.3799
31
0
0
LINE
8
VISIBLE
10
72.1534
20
91.3799
30
0
11
72.5754
21
91.4076
31
0
0
LINE
8
VISIBLE
10
72.5754
20
91.4076
30
0
11
72.1476
21
91.3795
31
0
0
LINE
8
VISIBLE
10
72.5783
20
91.4081
30
0
11
72.5754
21
91.4076
31
0
0
LINE
8
VISIBLE
10
72.5754
20
91.4076
30
0
11
72.5840
21
91.4093
31
0
0
LINE
8
VISIBLE
10
72.5840
20
91.4093
30
0
11
72.9988
21
91.4918
31
0
0
LINE
8
VISIBLE
10
72.9988
20
91.4918
30
0
11
72.5783
21
91.4081
31
0
0
LINE
8
VISIBLE
10
73.0015
20
91.4927
30
0
11
72.9988
21
91.4918
31
0
0
LINE
8
VISIBLE
10
72.9988
20
91.4918
30
0
11
73.0071
21
91.4946
31
0
0
LINE
8
VISIBLE
10
73.0071
20
91.4946
30
0
11
73.4075
21
91.6305
31
0
0
LINE
8
VISIBLE
10
73.4075
20
91.6305
30
0
11
73.0015
21
91.4927
31
0
0
LINE
8
VISIBLE
10
73.4101
20
91.6318
30
0
11
73.4075
21
91.6305
31
0
0
LINE
8
VISIBLE
10
73.4075
20
91.6305
30
0
11
73.4154
21
91.6344
31
0
0
LINE
8
VISIBLE
10
73.4154
20
91.6344
30
0
11
73.7947
21
91.8215
31
0
0
LINE
8
VISIBLE
10
73.7947
20
91.8215
30
0
11
73.4101
21
91.6318
31
0
0
LINE
8
VISIBLE
10
73.7971
20
91.8231
30
0
11
73.7947
21
91.8215
31
0
0
LINE
8
VISIBLE
10
73.7947
20
91.8215
30
0
11
73.8020
21
91.8263
31
0
0
LINE
8
VISIBLE
10
73.8020
20
91.8263
30
0
11
74.1536
21
92.0613
31
0
0
LINE
8
VISIBLE
10
74.1536
20
92.0613
30
0
11
73.7971
21
91.8231
31
0
0
LINE
8
VISIBLE
10
74.1558
20
92.0632
30
0
11
74.1536
21
92.0613
31
0
0
LINE
8
VISIBLE
10
74.1536
20
92.0613
30
0
11
74.1602
21
92.0671
31
0
0
LINE
8
VISIBLE
10
74.1602
20
92.0671
30
0
11
74.4781
21
92.3459
31
0
0
LINE
8
VISIBLE
10
74.4781
20
92.3459
30
0
11
74.1558
21
92.0632
31
0
0
LINE
8
VISIBLE
10
74.4800
20
92.3481
30
0
11
74.4781
21
92.3459
31
0
0
LINE
8
VISIBLE
10
74.4781
20
92.3459
30
0
11
74.4839
21
92.3525
31
0
0
LINE
8
VISIBLE
10
74.4839
20
92.3525
30
0
11
74.7627
21
92.6704
31
0
0
LINE
8
VISIBLE
10
74.7627
20
92.6704
30
0
11
74.4800
21
92.3481
31
0
0
LINE
8
VISIBLE
10
74.7644
20
92.6729
30
0
11
74.7627
21
92.6704
31
0
0
LINE
8
VISIBLE
10
74.7627
20
92.6704
30
0
11
74.7676
21
92.6777
31
0
0
LINE
8
VISIBLE
10
74.7676
20
92.6777
30
0
11
75.0025
21
93.0293
31
0
0
LINE
8
VISIBLE
10
75.0025
20
93.0293
30
0
11
74.7644
21
92.6729
31
0
0
LINE
8
VISIBLE
10
75.0038
20
93.0320
30
0
11
75.0025
21
93.0293
31
0
0
LINE
8
VISIBLE
10
75.0025
20
93.0293
30
0
11
75.0064
21
93.0372
31
0
0
LINE
8
VISIBLE
10
75.0064
20
93.0372
30
0
11
75.1935
21
93.4165
31
0
0
LINE
8
VISIBLE
10
75.1935
20
93.4165
30
0
11
75.0038
21
93.0320
31
0
0
LINE
8
VISIBLE
10
75.1944
20
93.4193
30
0
11
75.1935
21
93.4165
31
0
0
LINE
8
VISIBLE
10
75.1935
20
93.4165
30
0
11
75.1963
21
93.4248
31
0
0
LINE
8
VISIBLE
10
75.1963
20
93.4248
30
0
11
75.3322
21
93.8252
31
0
0
LINE
8
VISIBLE
10
75.3322
20
93.8252
30
0
11
75.1944
21
93.4193
31
0
0
LINE
8
VISIBLE
10
75.3328
20
93.8281
30
0
11
75.3322
21
93.8252
31
0
0
LINE
8
VISIBLE
10
75.3322
20
93.8252
30
0
11
75.3339
21
93.8339
31
0
0
LINE
8
VISIBLE
10
75.3339
20
93.8339
30
0
11
75.4164
21
94.2486
31
0
0
LINE
8
VISIBLE
10
75.4164
20
94.2486
30
0
11
75.3328
21
93.8281
31
0
0
LINE
8
VISIBLE
10
75.4166
20
94.2515
30
0
11
75.4164
21
94.2486
31
0
0
LINE
8
VISIBLE
10
75.4164
20
94.2486
30
0
11
75.4170
21
94.2574
31
0
0
LINE
8
VISIBLE
10
75.4170
20
94.2574
30
0
11
75.4447
21
94.6793
31
0
0
LINE
8
VISIBLE
10
75.4447
20
94.6793
30
0
11
75.4166
21
94.2515
31
0
0
LINE
8
VISIBLE
10
75.4445
20
94.6823
30
0
11
75.4447
21
94.6793
31
0
0
LINE
8
VISIBLE
10
75.4447
20
94.6793
30
0
11
75.4441
21
94.6881
31
0
0
LINE
8
VISIBLE
10
75.4441
20
94.6881
30
0
11
75.4164
21
95.1101
31
0
0
LINE
8
VISIBLE
10
75.4164
20
95.1101
30
0
11
75.4445
21
94.6823
31
0
0
LINE
8
VISIBLE
10
75.4159
20
95.1130
30
0
11
75.4164
21
95.1101
31
0
0
LINE
8
VISIBLE
10
75.4164
20
95.1101
30
0
11
75.4147
21
95.1187
31
0
0
LINE
8
VISIBLE
10
75.4147
20
95.1187
30
0
11
75.3322
21
95.5334
31
0
0
LINE
8
VISIBLE
10
75.3322
20
95.5334
30
0
11
75.4159
21
95.1130
31
0
0
LINE
8
VISIBLE
10
75.3313
20
95.5362
30
0
11
75.3322
21
95.5334
31
0
0
LINE
8
VISIBLE
10
75.3322
20
95.5334
30
0
11
75.3294
21
95.5418
31
0
0
LINE
8
VISIBLE
10
75.3294
20
95.5418
30
0
11
75.1935
21
95.9422
31
0
0
LINE
8
VISIBLE
10
75.1935
20
95.9422
30
0
11
75.3313
21
95.5362
31
0
0
LINE
8
VISIBLE
10
75.1922
20
95.9448
30
0
11
75.1935
21
95.9422
31
0
0
LINE
8
VISIBLE
10
75.1935
20
95.9422
30
0
11
75.1896
21
95.9501
31
0
0
LINE
8
VISIBLE
10
75.1896
20
95.9501
30
0
11
75.0025
21
96.3293
31
0
0
LINE
8
VISIBLE
10
75.0025
20
96.3293
30
0
11
75.1922
21
95.9448
31
0
0
LINE
8
VISIBLE
10
75.0009
20
96.3318
30
0
11
75.0025
21
96.3293
31
0
0
LINE
8
VISIBLE
10
75.0025
20
96.3293
30
0
11
74.9977
21
96.3366
31
0
0
LINE
8
VISIBLE
10
74.9977
20
96.3366
30
0
11
74.7627
21
96.6883
31
0
0
LINE
8
VISIBLE
10
74.7627
20
96.6883
30
0
11
75.0009
21
96.3318
31
0
0
LINE
8
VISIBLE
10
74.7608
20
96.6905
30
0
11
74.7627
21
96.6883
31
0
0
LINE
8
VISIBLE
10
74.7627
20
96.6883
30
0
11
74.7569
21
96.6949
31
0
0
LINE
8
VISIBLE
10
74.7569
20
96.6949
30
0
11
74.4781
21
97.0128
31
0
0
LINE
8
VISIBLE
10
74.4781
20
97.0128
30
0
11
74.7608
21
96.6905
31
0
0
LINE
8
VISIBLE
10
74.4759
20
97.0147
30
0
11
74.4781
21
97.0128
31
0
0
LINE
8
VISIBLE
10
74.4781
20
97.0128
30
0
11
74.4715
21
97.0186
31
0
0
LINE
8
VISIBLE
10
74.4715
20
97.0186
30
0
11
74.1536
21
97.2974
31
0
0
LINE
8
VISIBLE
10
74.1536
20
97.2974
30
0
11
74.4759
21
97.0147
31
0
0
LINE
8
VISIBLE
10
74.1511
20
97.2990
30
0
11
74.1536
21
97.2974
31
0
0
LINE
8
VISIBLE
10
74.1536
20
97.2974
30
0
11
74.1463
21
97.3023
31
0
0
LINE
8
VISIBLE
10
74.1463
20
97.3023
30
0
11
73.7947
21
97.5372
31
0
0
LINE
8
VISIBLE
10
73.7947
20
97.5372
30
0
11
74.1511
21
97.2990
31
0
0
LINE
8
VISIBLE
10
73.7920
20
97.5385
30
0
11
73.7947
21
97.5372
31
0
0
LINE
8
VISIBLE
10
73.7947
20
97.5372
30
0
11
73.7868
21
97.5411
31
0
0
LINE
8
VISIBLE
10
73.7868
20
97.5411
30
0
11
73.4075
21
97.7281
31
0
0
LINE
8
VISIBLE
10
73.4075
20
97.7281
30
0
11
73.7920
21
97.5385
31
0
0
LINE
8
VISIBLE
10
73.4047
20
97.7291
30
0
11
73.4075
21
97.7281
31
0
0
LINE
8
VISIBLE
10
73.4075
20
97.7281
30
0
11
73.3992
21
97.7310
31
0
0
LINE
8
VISIBLE
10
73.3992
20
97.7310
30
0
11
72.9988
21
97.8669
31
0
0
LINE
8
VISIBLE
10
72.9988
20
97.8669
30
0
11
73.4047
21
97.7291
31
0
0
LINE
8
VISIBLE
10
72.9959
20
97.8675
30
0
11
72.9988
21
97.8669
31
0
0
LINE
8
VISIBLE
10
72.9988
20
97.8669
30
0
11
72.9901
21
97.8686
31
0
0
LINE
8
VISIBLE
10
72.9901
20
97.8686
30
0
11
72.5754
21
97.9511
31
0
0
LINE
8
VISIBLE
10
72.5754
20
97.9511
30
0
11
72.9959
21
97.8675
31
0
0
LINE
8
VISIBLE
10
72.5725
20
97.9513
30
0
11
72.5754
21
97.9511
31
0
0
LINE
8
VISIBLE
10
72.5754
20
97.9511
30
0
11
72.5666
21
97.9517
31
0
0
LINE
8
VISIBLE
10
72.5666
20
97.9517
30
0
11
72.1447
21
97.9793
31
0
0
LINE
8
VISIBLE
10
72.1447
20
97.9793
30
0
11
72.5725
21
97.9513
31
0
0
LINE
8
VISIBLE
10
72.1417
20
97.9791
30
0
11
72.1447
21
97.9793
31
0
0
LINE
8
VISIBLE
10
72.1447
20
97.9793
30
0
11
72.1359
21
97.9788
31
0
0
LINE
8
VISIBLE
10
72.1359
20
97.9788
30
0
11
71.7139
21
97.9511
31
0
0
LINE
8
VISIBLE
10
71.7139
20
97.9511
30
0
11
72.1417
21
97.9791
31
0
0
LINE
8
VISIBLE
10
71.7110
20
97.9505
30
0
11
71.7139
21
97.9511
31
0
0
LINE
8
VISIBLE
10
71.7139
20
97.9511
30
0
11
71.7053
21
97.9494
31
0
0
LINE
8
VISIBLE
10
71.7053
20
97.9494
30
0
11
71.2906
21
97.8669
31
0
0
LINE
8
VISIBLE
10
71.2906
20
97.8669
30
0
11
71.7110
21
97.9505
31
0
0
LINE
8
VISIBLE
10
71.2878
20
97.8660
30
0
11
71.2906
21
97.8669
31
0
0
LINE
8
VISIBLE
10
71.2906
20
97.8669
30
0
11
71.2822
21
97.8641
31
0
0
LINE
8
VISIBLE
10
71.2822
20
97.8641
30
0
11
70.8818
21
97.7281
31
0
0
LINE
8
VISIBLE
10
70.8818
20
97.7281
30
0
11
71.2878
21
97.8660
31
0
0
LINE
8
VISIBLE
10
70.8792
20
97.7268
30
0
11
70.8818
21
97.7281
31
0
0
LINE
8
VISIBLE
10
70.8818
20
97.7281
30
0
11
70.8739
21
97.7242
31
0
0
LINE
8
VISIBLE
10
70.8739
20
97.7242
30
0
11
70.4947
21
97.5372
31
0
0
LINE
8
VISIBLE
10
70.4947
20
97.5372
30
0
11
70.8792
21
97.7268
31
0
0
LINE
8
VISIBLE
10
70.4922
20
97.5356
30
0
11
70.4947
21
97.5372
31
0
0
LINE
8
VISIBLE
10
70.4947
20
97.5372
30
0
11
70.4873
21
97.5323
31
0
0
LINE
8
VISIBLE
10
70.4873
20
97.5323
30
0
11
70.1357
21
97.2974
31
0
0
LINE
8
VISIBLE
10
70.1357
20
97.2974
30
0
11
70.4922
21
97.5356
31
0
0
LINE
8
VISIBLE
10
70.1335
20
97.2955
30
0
11
70.1357
21
97.2974
31
0
0
LINE
8
VISIBLE
10
70.1357
20
97.2974
30
0
11
70.1291
21
97.2916
31
0
0
LINE
8
VISIBLE
10
70.1291
20
97.2916
30
0
11
69.8112
21
97.0128
31
0
0
LINE
8
VISIBLE
10
69.8112
20
97.0128
30
0
11
70.1335
21
97.2955
31
0
0
LINE
8
VISIBLE
10
69.8093
20
97.0106
30
0
11
69.8112
21
97.0128
31
0
0
LINE
8
VISIBLE
10
69.8112
20
97.0128
30
0
11
69.8054
21
97.0062
31
0
0
LINE
8
VISIBLE
10
69.8054
20
97.0062
30
0
11
69.5266
21
96.6883
31
0
0
LINE
8
VISIBLE
10
69.5266
20
96.6883
30
0
11
69.8093
21
97.0106
31
0
0
LINE
8
VISIBLE
10
69.5250
20
96.6858
30
0
11
69.5266
21
96.6883
31
0
0
LINE
8
VISIBLE
10
69.5266
20
96.6883
30
0
11
69.5217
21
96.6809
31
0
0
LINE
8
VISIBLE
10
69.5217
20
96.6809
30
0
11
69.2868
21
96.3293
31
0
0
LINE
8
VISIBLE
10
69.2868
20
96.3293
30
0
11
69.5250
21
96.6858
31
0
0
LINE
8
VISIBLE
10
69.2855
20
96.3267
30
0
11
69.2868
21
96.3293
31
0
0
LINE
8
VISIBLE
10
69.2868
20
96.3293
30
0
11
69.2829
21
96.3214
31
0
0
LINE
8
VISIBLE
10
69.2829
20
96.3214
30
0
11
69.0959
21
95.9422
31
0
0
LINE
8
VISIBLE
10
69.0959
20
95.9422
30
0
11
69.2855
21
96.3267
31
0
0
LINE
8
VISIBLE
10
69.0949
20
95.9394
30
0
11
69.0959
21
95.9422
31
0
0
LINE
8
VISIBLE
10
69.0959
20
95.9422
30
0
11
69.0930
21
95.9339
31
0
0
LINE
8
VISIBLE
10
69.0930
20
95.9339
30
0
11
68.9571
21
95.5334
31
0
0
LINE
8
VISIBLE
10
68.9571
20
95.5334
30
0
11
69.0949
21
95.9394
31
0
0
LINE
8
VISIBLE
10
68.9565
20
95.5306
30
0
11
68.9571
21
95.5334
31
0
0
LINE
8
VISIBLE
10
68.9571
20
95.5334
30
0
11
68.9554
21
95.5248
31
0
0
LINE
8
VISIBLE
10
68.9554
20
95.5248
30
0
11
68.8729
21
95.1101
31
0
0
LINE
8
VISIBLE
10
68.8729
20
95.1101
30
0
11
68.9565
21
95.5306
31
0
0
LINE
8
VISIBLE
10
68.8727
20
95.1071
30
0
11
68.8729
21
95.1101
31
0
0
LINE
8
VISIBLE
10
68.8729
20
95.1101
30
0
11
68.8723
21
95.1013
31
0
0
LINE
8
VISIBLE
10
68.8723
20
95.1013
30
0
11
68.8447
21
94.6793
31
0
0
LINE
8
VISIBLE
10
68.8447
20
94.6793
30
0
11
68.8727
21
95.1071
31
0
0
LINE
8
VISIBLE
10
68.8449
20
94.6764
30
0
11
68.8447
21
94.6793
31
0
0
LINE
8
VISIBLE
10
68.8447
20
94.6793
30
0
11
68.8452
21
94.6706
31
0
0
LINE
8
VISIBLE
10
68.8452
20
94.6706
30
0
11
68.8729
21
94.2486
31
0
0
LINE
8
VISIBLE
10
68.8729
20
94.2486
30
0
11
68.8449
21
94.6764
31
0
0
LINE
8
VISIBLE
10
68.8735
20
94.2457
30
0
11
68.8729
21
94.2486
31
0
0
LINE
8
VISIBLE
10
68.8729
20
94.2486
30
0
11
68.8746
21
94.2400
31
0
0
LINE
8
VISIBLE
10
68.8746
20
94.2400
30
0
11
68.9571
21
93.8252
31
0
0
LINE
8
VISIBLE
10
68.9571
20
93.8252
30
0
11
68.8735
21
94.2457
31
0
0
LINE
8
VISIBLE
10
68.9580
20
93.8225
30
0
11
68.9571
21
93.8252
31
0
0
LINE
8
VISIBLE
10
68.9571
20
93.8252
30
0
11
68.9599
21
93.8169
31
0
0
LINE
8
VISIBLE
10
68.9599
20
93.8169
30
0
11
69.0959
21
93.4165
31
0
0
LINE
8
VISIBLE
10
69.0959
20
93.4165
30
0
11
68.9580
21
93.8225
31
0
0
LINE
8
VISIBLE
10
69.0972
20
93.4139
30
0
11
69.0959
21
93.4165
31
0
0
LINE
8
VISIBLE
10
69.0959
20
93.4165
30
0
11
69.0997
21
93.4086
31
0
0
LINE
8
VISIBLE
10
69.0997
20
93.4086
30
0
11
69.2868
21
93.0293
31
0
0
LINE
8
VISIBLE
10
69.2868
20
93.0293
30
0
11
69.0972
21
93.4139
31
0
0
LINE
8
VISIBLE
10
69.2884
20
93.0269
30
0
11
69.2868
21
93.0293
31
0
0
LINE
8
VISIBLE
10
69.2868
20
93.0293
30
0
11
69.2917
21
93.0220
31
0
0
LINE
8
VISIBLE
10
69.2917
20
93.0220
30
0
11
69.5266
21
92.6704
31
0
0
LINE
8
VISIBLE
10
69.5266
20
92.6704
30
0
11
69.2884
21
93.0269
31
0
0
LINE
8
VISIBLE
10
69.5285
20
92.6682
30
0
11
69.5266
21
92.6704
31
0
0
LINE
8
VISIBLE
10
69.5266
20
92.6704
30
0
11
69.5324
21
92.6638
31
0
0
LINE
8
VISIBLE
10
69.5324
20
92.6638
30
0
11
69.8112
21
92.3459
31
0
0
LINE
8
VISIBLE
10
69.8112
20
92.3459
30
0
11
69.5285
21
92.6682
31
0
0
LINE
8
VISIBLE
10
69.8134
20
92.3440
30
0
11
69.8112
21
92.3459
31
0
0
LINE
8
VISIBLE
10
69.8112
20
92.3459
30
0
11
69.8178
21
92.3401
31
0
0
LINE
8
VISIBLE
10
69.8178
20
92.3401
30
0
11
70.1357
21
92.0613
31
0
0
LINE
8
VISIBLE
10
70.1357
20
92.0613
30
0
11
69.8134
21
92.3440
31
0
0
LINE
8
VISIBLE
10
70.1382
20
92.0596
30
0
11
70.1357
21
92.0613
31
0
0
LINE
8
VISIBLE
10
70.1357
20
92.0613
30
0
11
70.1431
21
92.0564
31
0
0
LINE
8
VISIBLE
10
70.1431
20
92.0564
30
0
11
70.4947
21
91.8215
31
0
0
LINE
8
VISIBLE
10
70.4947
20
91.8215
30
0
11
70.1382
21
92.0596
31
0
0
LINE
8
VISIBLE
10
70.4973
20
91.8202
30
0
11
70.4947
21
91.8215
31
0
0
LINE
8
VISIBLE
10
70.4947
20
91.8215
30
0
11
70.5025
21
91.8176
31
0
0
LINE
8
VISIBLE
10
70.5025
20
91.8176
30
0
11
70.8818
21
91.6305
31
0
0
LINE
8
VISIBLE
10
70.8818
20
91.6305
30
0
11
70.4973
21
91.8202
31
0
0
LINE
8
VISIBLE
10
70.8846
20
91.6296
30
0
11
70.8818
21
91.6305
31
0
0
LINE
8
VISIBLE
10
70.8818
20
91.6305
30
0
11
70.8901
21
91.6277
31
0
0
LINE
8
VISIBLE
10
70.8901
20
91.6277
30
0
11
71.2906
21
91.4918
31
0
0
LINE
8
VISIBLE
10
71.2906
20
91.4918
30
0
11
70.8846
21
91.6296
31
0
0
LINE
8
VISIBLE
10
71.2934
20
91.4912
30
0
11
71.2906
21
91.4918
31
0
0
LINE
8
VISIBLE
10
71.2906
20
91.4918
30
0
11
71.2992
21
91.4901
31
0
0
LINE
8
VISIBLE
10
71.2992
20
91.4901
30
0
11
71.7139
21
91.4076
31
0
0
LINE
8
VISIBLE
10
71.7139
20
91.4076
30
0
11
71.2934
21
91.4912
31
0
0
LINE
8
VISIBLE
10
71.7169
20
91.4074
30
0
11
71.7139
21
91.4076
31
0
0
LINE
8
VISIBLE
10
71.7139
20
91.4076
30
0
11
71.7227
21
91.4070
31
0
0
LINE
8
VISIBLE
10
71.7227
20
91.4070
30
0
11
72.1447
21
91.3793
31
0
0
LINE
8
VISIBLE
10
72.1447
20
91.3793
30
0
11
71.7169
21
91.4074
31
0
0
TEXT
8
TEXTO
10
72.1447
20
118.6793
30
0
40
3.5000
1
PLANTA
72
1
73
2
11
72.1447
21
118.6793
31
0
0
LINE
8
COTAS
10
103.1447
20
74.6793
30
0
11
112.6447
21
74.6793
31
0
0
LINE
8
COTAS
10
103.1447
20
114.6793
30
0
11
112.6447
21
114.6793
31
0
0
LINE
8
COTAS
10
111.1447
20
74.6793
30
0
11
111.1447
21
114.6793
31
0
0
SOLID
8
COTAS
10
111.1447
20
74.6793
30
0
11
111.5947
21
77.1793
31
0
12
110.6947
22
77.1793
32
0
13
110.6947
23
77.1793
33
0
0
SOLID
8
COTAS
10
111.1447
20
114.6793
30
0
11
111.5947
21
112.1793
31
0
12
110.6947
22
112.1793
32
0
13
110.6947
23
112.1793
33
0
0
TEXT
8
COTAS
10
113.3447
20
94.6793
30
0
40
3.5000
1
40
72
1
73
2
11
113.3447
21
94.6793
31
0
0
LINE
8
VISIBLE
10
149.4784
20
141.6793
30
0
11
168.1447
21
141.6793
31
0
0
LINE
8
VISIBLE
10
168.1447
20
141.6793
30
0
11
168.1447
21
140.6793
31
0
0
LINE
8
VISIBLE
10
168.1447
20
140.6793
30
0
11
149.4784
21
140.6793
31
0
0
LINE
8
VISIBLE
10
145.5347
20
141.6793
30
0
11
149.4784
21
141.6793
31
0
0
LINE
8
VISIBLE
10
149.4784
20
140.6793
30
0
11
145.5347
21
140.6793
31
0
0
LINE
8
VISIBLE
10
141.4384
20
141.6793
30
0
11
145.5347
21
141.6793
31
0
0
LINE
8
VISIBLE
10
145.5347
20
140.6793
30
0
11
141.4384
21
140.6793
31
0
0
LINE
8
VISIBLE
10
137.0219
20
141.6793
30
0
11
141.4384
21
141.6793
31
0
0
LINE
8
VISIBLE
10
141.4384
20
140.6793
30
0
11
137.0219
21
140.6793
31
0
0
LINE
8
VISIBLE
10
132.0598
20
141.6793
30
0
11
137.0219
21
141.6793
31
0
0
LINE
8
VISIBLE
10
137.0219
20
140.6793
30
0
11
132.0598
21
140.6793
31
0
0
LINE
8
VISIBLE
10
128.1447
20
141.6793
30
0
11
132.0598
21
141.6793
31
0
0
LINE
8
VISIBLE
10
128.1447
20
140.6793
30
0
11
128.1447
21
141.6793
31
0
0
LINE
8
VISIBLE
10
132.0598
20
140.6793
30
0
11
128.1447
21
140.6793
31
0
0
LINE
8
VISIBLE
10
153.4109
20
140.6793
30
0
11
168.1447
21
140.6793
31
0
0
LINE
8
VISIBLE
10
168.1447
20
140.6793
30
0
11
168.1447
21
141.6793
31
0
0
LINE
8
VISIBLE
10
168.1447
20
141.6793
30
0
11
153.4109
21
141.6793
31
0
0
LINE
8
VISIBLE
10
128.1447
20
140.6793
30
0
11
129.6786
21
140.6793
31
0
0
LINE
8
VISIBLE
10
128.1447
20
141.6793
30
0
11
128.1447
21
140.6793
31
0
0
LINE
8
VISIBLE
10
129.6786
20
141.6793
30
0
11
128.1447
21
141.6793
31
0
0
LINE
8
VISIBLE
10
129.6786
20
140.6793
30
0
11
134.4836
21
140.6793
31
0
0
LINE
8
VISIBLE
10
134.4836
20
141.6793
30
0
11
129.6786
21
141.6793
31
0
0
LINE
8
VISIBLE
10
134.4836
20
140.6793
30
0
11
138.8198
21
140.6793
31
0
0
LINE
8
VISIBLE
10
138.8198
20
141.6793
30
0
11
134.4836
21
141.6793
31
0
0
LINE
8
VISIBLE
10
138.8198
20
140.6793
30
0
11
142.8784
21
140.6793
31
0
0
LINE
8
VISIBLE
10
142.8784
20
141.6793
30
0
11
138.8198
21
141.6793
31
0
0
LINE
8
VISIBLE
10
142.8784
20
140.6793
30
0
11
146.8109
21
140.6793
31
0
0
LINE
8
VISIBLE
10
146.8109
20
141.6793
30
0
11
142.8784
21
141.6793
31
0
0
LINE
8
VISIBLE
10
146.8109
20
140.6793
30
0
11
150.7546
21
140.6793
31
0
0
LINE
8
VISIBLE
10
150.7546
20
141.6793
30
0
11
146.8109
21
141.6793
31
0
0
LINE
8
VISIBLE
10
150.7546
20
140.6793
30
0
11
153.4109
21
140.6793
31
0
0
LINE
8
VISIBLE
10
153.4109
20
141.6793
30
0
11
150.7546
21
141.6793
31
0
0
LINE
8
VISIBLE
10
128.1447
20
140.6793
30
0
11
128.1447
21
140.6793
31
0
0
LINE
8
VISIBLE
10
128.1447
20
141.6793
30
0
11
128.1447
21
141.6793
31
0
0
LINE
8
VISIBLE
10
128.1447
20
140.6793
30
0
11
128.1447
21
140.6793
31
0
0
LINE
8
VISIBLE
10
128.1447
20
141.6793
30
0
11
128.1447
21
141.6793
31
0
0
LINE
8
VISIBLE
10
128.1447
20
140.6793
30
0
11
128.1447
21
140.6793
31
0
0
LINE
8
VISIBLE
10
128.1447
20
141.6793
30
0
11
128.1447
21
141.6793
31
0
0
LINE
8
VISIBLE
10
128.1447
20
140.6793
30
0
11
128.1447
21
140.6793
31
0
0
LINE
8
VISIBLE
10
128.1447
20
141.6793
30
0
11
128.1447
21
141.6793
31
0
0
LINE
8
VISIBLE
10
128.1447
20
140.6793
30
0
11
128.1447
21
140.6793
31
0
0
LINE
8
VISIBLE
10
128.1447
20
141.6793
30
0
11
128.1447
21
141.6793
31
0
0
LINE
8
VISIBLE
10
128.1447
20
140.6793
30
0
11
128.1447
21
140.6793
31
0
0
LINE
8
VISIBLE
10
128.1447
20
141.6793
30
0
11
128.1447
21
141.6793
31
0
0
LINE
8
VISIBLE
10
128.1447
20
140.6793
30
0
11
128.1447
21
140.6793
31
0
0
LINE
8
VISIBLE
10
128.1447
20
141.6793
30
0
11
128.1447
21
141.6793
31
0
0
LINE
8
VISIBLE
10
128.1447
20
140.6793
30
0
11
128.1447
21
140.6793
31
0
0
LINE
8
VISIBLE
10
128.1447
20
141.6793
30
0
11
128.1447
21
141.6793
31
0
0
LINE
8
VISIBLE
10
128.1447
20
140.6793
30
0
11
128.1447
21
140.6793
31
0
0
LINE
8
VISIBLE
10
128.1447
20
141.6793
30
0
11
128.1447
21
141.6793
31
0
0
LINE
8
VISIBLE
10
128.1447
20
140.6793
30
0
11
128.1447
21
140.6793
31
0
0
LINE
8
VISIBLE
10
128.1447
20
141.6793
30
0
11
128.1447
21
141.6793
31
0
0
LINE
8
VISIBLE
10
128.1447
20
140.6793
30
0
11
128.1447
21
140.6793
31
0
0
LINE
8
VISIBLE
10
128.1447
20
141.6793
30
0
11
128.1447
21
141.6793
31
0
0
LINE
8
VISIBLE
10
128.1447
20
140.6793
30
0
11
128.1447
21
140.6793
31
0
0
LINE
8
VISIBLE
10
128.1447
20
141.6793
30
0
11
128.1447
21
141.6793
31
0
0
LINE
8
VISIBLE
10
128.1447
20
140.6793
30
0
11
128.1447
21
140.6793
31
0
0
LINE
8
VISIBLE
10
128.1447
20
141.6793
30
0
11
128.1447
21
141.6793
31
0
0
LINE
8
VISIBLE
10
128.1447
20
140.6793
30
0
11
128.1447
21
140.6793
31
0
0
LINE
8
VISIBLE
10
128.1447
20
141.6793
30
0
11
128.1447
21
141.6793
31
0
0
LINE
8
VISIBLE
10
128.1447
20
140.6793
30
0
11
128.1447
21
140.6793
31
0
0
LINE
8
VISIBLE
10
128.1447
20
141.6793
30
0
11
128.1447
21
141.6793
31
0
0
LINE
8
VISIBLE
10
128.1447
20
140.6793
30
0
11
128.1447
21
140.6793
31
0
0
LINE
8
VISIBLE
10
128.1447
20
141.6793
30
0
11
128.1447
21
141.6793
31
0
0
LINE
8
VISIBLE
10
168.1447
20
141.6793
30
0
11
168.1447
21
141.6793
31
0
0
LINE
8
VISIBLE
10
168.1447
20
140.6793
30
0
11
168.1447
21
140.6793
31
0
0
LINE
8
VISIBLE
10
146.1684
20
141.6793
30
0
11
147.7139
21
141.6793
31
0
0
LINE
8
VISIBLE
10
146.2542
20
141.6793
30
0
11
147.2906
21
141.6793
31
0
0
LINE
8
VISIBLE
10
146.3026
20
141.6793
30
0
11
146.8818
21
141.6793
31
0
0
LINE
8
VISIBLE
10
146.3181
20
141.6793
30
0
11
146.4947
21
141.6793
31
0
0
LINE
8
VISIBLE
10
150.1209
20
141.6793
30
0
11
148.5754
21
141.6793
31
0
0
LINE
8
VISIBLE
10
150.0352
20
141.6793
30
0
11
148.9988
21
141.6793
31
0
0
LINE
8
VISIBLE
10
149.9868
20
141.6793
30
0
11
149.4075
21
141.6793
31
0
0
LINE
8
VISIBLE
10
149.9713
20
141.6793
30
0
11
149.7947
21
141.6793
31
0
0
LINE
8
VISIBLE
10
151.5198
20
141.6793
30
0
11
150.4781
21
141.6793
31
0
0
LINE
8
VISIBLE
10
151.5036
20
141.6793
30
0
11
150.7627
21
141.6793
31
0
0
LINE
8
VISIBLE
10
151.4883
20
141.6793
30
0
11
151.0025
21
141.6793
31
0
0
LINE
8
VISIBLE
10
151.4734
20
141.6793
30
0
11
151.1935
21
141.6793
31
0
0
LINE
8
VISIBLE
10
151.4589
20
141.6793
30
0
11
151.3322
21
141.6793
31
0
0
LINE
8
VISIBLE
10
151.4447
20
141.6793
30
0
11
151.4164
21
141.6793
31
0
0
LINE
8
VISIBLE
10
151.0026
20
140.6793
30
0
11
150.1226
21
140.6793
31
0
0
LINE
8
VISIBLE
10
150.7627
20
140.6793
30
0
11
150.0362
21
140.6793
31
0
0
LINE
8
VISIBLE
10
150.4781
20
140.6793
30
0
11
149.9873
21
140.6793
31
0
0
LINE
8
VISIBLE
10
150.1536
20
140.6793
30
0
11
149.9713
21
140.6793
31
0
0
LINE
8
VISIBLE
10
145.2868
20
140.6793
30
0
11
146.1667
21
140.6793
31
0
0
LINE
8
VISIBLE
10
145.5266
20
140.6793
30
0
11
146.2531
21
140.6793
31
0
0
LINE
8
VISIBLE
10
145.8112
20
140.6793
30
0
11
146.3021
21
140.6793
31
0
0
LINE
8
VISIBLE
10
146.1357
20
140.6793
30
0
11
146.3181
21
140.6793
31
0
0
LINE
8
VISIBLE
10
150.4781
20
140.6793
30
0
11
151.5198
21
140.6793
31
0
0
LINE
8
VISIBLE
10
150.7627
20
140.6793
30
0
11
151.5036
21
140.6793
31
0
0
LINE
8
VISIBLE
10
151.0025
20
140.6793
30
0
11
151.4883
21
140.6793
31
0
0
LINE
8
VISIBLE
10
151.1935
20
140.6793
30
0
11
151.4734
21
140.6793
31
0
0
LINE
8
VISIBLE
10
151.3322
20
140.6793
30
0
11
151.4589
21
140.6793
31
0
0
LINE
8
VISIBLE
10
151.4164
20
140.6793
30
0
11
151.4447
21
140.6793
31
0
0
LINE
8
VISIBLE
10
151.4445
20
140.6793
30
0
11
151.4447
21
140.6793
31
0
0
LINE
8
VISIBLE
10
151.4447
20
141.6793
30
0
11
151.4441
21
141.6793
31
0
0
LINE
8
VISIBLE
10
151.4441
20
141.6793
30
0
11
151.4164
21
141.6793
31
0
0
LINE
8
VISIBLE
10
151.4164
20
140.6793
30
0
11
151.4445
21
140.6793
31
0
0
LINE
8
VISIBLE
10
151.4159
20
140.6793
30
0
11
151.4164
21
140.6793
31
0
0
LINE
8
VISIBLE
10
151.4164
20
141.6793
30
0
11
151.4147
21
141.6793
31
0
0
LINE
8
VISIBLE
10
151.4147
20
141.6793
30
0
11
151.3322
21
141.6793
31
0
0
LINE
8
VISIBLE
10
151.3322
20
140.6793
30
0
11
151.4159
21
140.6793
31
0
0
LINE
8
VISIBLE
10
151.3313
20
140.6793
30
0
11
151.3322
21
140.6793
31
0
0
LINE
8
VISIBLE
10
151.3322
20
141.6793
30
0
11
151.3294
21
141.6793
31
0
0
LINE
8
VISIBLE
10
151.3294
20
141.6793
30
0
11
151.1935
21
141.6793
31
0
0
LINE
8
VISIBLE
10
151.1935
20
140.6793
30
0
11
151.3313
21
140.6793
31
0
0
LINE
8
VISIBLE
10
151.1922
20
140.6793
30
0
11
151.1935
21
140.6793
31
0
0
LINE
8
VISIBLE
10
151.1935
20
141.6793
30
0
11
151.1896
21
141.6793
31
0
0
LINE
8
VISIBLE
10
151.1896
20
141.6793
30
0
11
151.0025
21
141.6793
31
0
0
LINE
8
VISIBLE
10
151.0025
20
140.6793
30
0
11
151.1922
21
140.6793
31
0
0
LINE
8
VISIBLE
10
151.0009
20
140.6793
30
0
11
151.0025
21
140.6793
31
0
0
LINE
8
VISIBLE
10
151.0025
20
141.6793
30
0
11
150.9977
21
141.6793
31
0
0
LINE
8
VISIBLE
10
150.9977
20
141.6793
30
0
11
150.7627
21
141.6793
31
0
0
LINE
8
VISIBLE
10
150.7627
20
140.6793
30
0
11
151.0009
21
140.6793
31
0
0
LINE
8
VISIBLE
10
150.7608
20
140.6793
30
0
11
150.7627
21
140.6793
31
0
0
LINE
8
VISIBLE
10
150.7627
20
141.6793
30
0
11
150.7569
21
141.6793
31
0
0
LINE
8
VISIBLE
10
150.7569
20
141.6793
30
0
11
150.4781
21
141.6793
31
0
0
LINE
8
VISIBLE
10
150.4781
20
140.6793
30
0
11
150.7608
21
140.6793
31
0
0
LINE
8
VISIBLE
10
150.4759
20
140.6793
30
0
11
150.4781
21
140.6793
31
0
0
LINE
8
VISIBLE
10
150.4781
20
141.6793
30
0
11
150.4715
21
141.6793
31
0
0
LINE
8
VISIBLE
10
150.4715
20
141.6793
30
0
11
150.1536
21
141.6793
31
0
0
LINE
8
VISIBLE
10
150.1536
20
140.6793
30
0
11
150.4759
21
140.6793
31
0
0
LINE
8
VISIBLE
10
150.1511
20
140.6793
30
0
11
150.1536
21
140.6793
31
0
0
LINE
8
VISIBLE
10
150.1536
20
141.6793
30
0
11
150.1463
21
141.6793
31
0
0
LINE
8
VISIBLE
10
150.1463
20
141.6793
30
0
11
149.7947
21
141.6793
31
0
0
LINE
8
VISIBLE
10
149.7947
20
140.6793
30
0
11
150.1511
21
140.6793
31
0
0
LINE
8
VISIBLE
10
149.7920
20
140.6793
30
0
11
149.7947
21
140.6793
31
0
0
LINE
8
VISIBLE
10
149.7947
20
141.6793
30
0
11
149.7868
21
141.6793
31
0
0
LINE
8
VISIBLE
10
149.7868
20
141.6793
30
0
11
149.4075
21
141.6793
31
0
0
LINE
8
VISIBLE
10
149.4075
20
140.6793
30
0
11
149.7920
21
140.6793
31
0
0
LINE
8
VISIBLE
10
149.4047
20
140.6793
30
0
11
149.4075
21
140.6793
31
0
0
LINE
8
VISIBLE
10
149.4075
20
141.6793
30
0
11
149.3992
21
141.6793
31
0
0
LINE
8
VISIBLE
10
149.3992
20
141.6793
30
0
11
148.9988
21
141.6793
31
0
0
LINE
8
VISIBLE
10
148.9988
20
140.6793
30
0
11
149.4047
21
140.6793
31
0
0
LINE
8
VISIBLE
10
148.9959
20
140.6793
30
0
11
148.9988
21
140.6793
31
0
0
LINE
8
VISIBLE
10
148.9988
20
141.6793
30
0
11
148.9901
21
141.6793
31
0
0
LINE
8
VISIBLE
10
148.9901
20
141.6793
30
0
11
148.5754
21
141.6793
31
0
0
LINE
8
VISIBLE
10
148.5754
20
140.6793
30
0
11
148.9959
21
140.6793
31
0
0
LINE
8
VISIBLE
10
148.5725
20
140.6793
30
0
11
148.5754
21
140.6793
31
0
0
LINE
8
VISIBLE
10
148.5754
20
141.6793
30
0
11
148.5666
21
141.6793
31
0
0
LINE
8
VISIBLE
10
148.5666
20
141.6793
30
0
11
148.1447
21
141.6793
31
0
0
LINE
8
VISIBLE
10
148.1447
20
140.6793
30
0
11
148.5725
21
140.6793
31
0
0
LINE
8
VISIBLE
10
148.1417
20
140.6793
30
0
11
148.1447
21
140.6793
31
0
0
LINE
8
VISIBLE
10
148.1447
20
141.6793
30
0
11
148.1359
21
141.6793
31
0
0
LINE
8
VISIBLE
10
148.1359
20
141.6793
30
0
11
147.7139
21
141.6793
31
0
0
LINE
8
VISIBLE
10
147.7139
20
140.6793
30
0
11
148.1417
21
140.6793
31
0
0
LINE
8
VISIBLE
10
147.7110
20
140.6793
30
0
11
147.7139
21
140.6793
31
0
0
LINE
8
VISIBLE
10
147.7139
20
141.6793
30
0
11
147.7053
21
141.6793
31
0
0
LINE
8
VISIBLE
10
147.7053
20
141.6793
30
0
11
147.2906
21
141.6793
31
0
0
LINE
8
VISIBLE
10
147.2906
20
140.6793
30
0
11
147.7110
21
140.6793
31
0
0
LINE
8
VISIBLE
10
147.2878
20
140.6793
30
0
11
147.2906
21
140.6793
31
0
0
LINE
8
VISIBLE
10
147.2906
20
141.6793
30
0
11
147.2822
21
141.6793
31
0
0
LINE
8
VISIBLE
10
147.2822
20
141.6793
30
0
11
146.8818
21
141.6793
31
0
0
LINE
8
VISIBLE
10
146.8818
20
140.6793
30
0
11
147.2878
21
140.6793
31
0
0
LINE
8
VISIBLE
10
146.8792
20
140.6793
30
0
11
146.8818
21
140.6793
31
0
0
LINE
8
VISIBLE
10
146.8818
20
141.6793
30
0
11
146.8739
21
141.6793
31
0
0
LINE
8
VISIBLE
10
146.8739
20
141.6793
30
0
11
146.4947
21
141.6793
31
0
0
LINE
8
VISIBLE
10
146.4947
20
140.6793
30
0
11
146.8792
21
140.6793
31
0
0
LINE
8
VISIBLE
10
146.4922
20
140.6793
30
0
11
146.4947
21
140.6793
31
0
0
LINE
8
VISIBLE
10
146.4947
20
141.6793
30
0
11
146.4873
21
141.6793
31
0
0
LINE
8
VISIBLE
10
146.4873
20
141.6793
30
0
11
146.1357
21
141.6793
31
0
0
LINE
8
VISIBLE
10
146.1357
20
140.6793
30
0
11
146.4922
21
140.6793
31
0
0
LINE
8
VISIBLE
10
146.1335
20
140.6793
30
0
11
146.1357
21
140.6793
31
0
0
LINE
8
VISIBLE
10
146.1357
20
141.6793
30
0
11
146.1291
21
141.6793
31
0
0
LINE
8
VISIBLE
10
146.1291
20
141.6793
30
0
11
145.8112
21
141.6793
31
0
0
LINE
8
VISIBLE
10
145.8112
20
140.6793
30
0
11
146.1335
21
140.6793
31
0
0
LINE
8
VISIBLE
10
145.8093
20
140.6793
30
0
11
145.8112
21
140.6793
31
0
0
LINE
8
VISIBLE
10
145.8112
20
141.6793
30
0
11
145.8054
21
141.6793
31
0
0
LINE
8
VISIBLE
10
145.8054
20
141.6793
30
0
11
145.5266
21
141.6793
31
0
0
LINE
8
VISIBLE
10
145.5266
20
140.6793
30
0
11
145.8093
21
140.6793
31
0
0
LINE
8
VISIBLE
10
145.5250
20
140.6793
30
0
11
145.5266
21
140.6793
31
0
0
LINE
8
VISIBLE
10
145.5266
20
141.6793
30
0
11
145.5217
21
141.6793
31
0
0
LINE
8
VISIBLE
10
145.5217
20
141.6793
30
0
11
145.2868
21
141.6793
31
0
0
LINE
8
VISIBLE
10
145.2868
20
140.6793
30
0
11
145.5250
21
140.6793
31
0
0
LINE
8
VISIBLE
10
145.2855
20
140.6793
30
0
11
145.2868
21
140.6793
31
0
0
LINE
8
VISIBLE
10
145.2868
20
141.6793
30
0
11
145.2829
21
141.6793
31
0
0
LINE
8
VISIBLE
10
145.2829
20
141.6793
30
0
11
145.0959
21
141.6793
31
0
0
LINE
8
VISIBLE
10
145.0959
20
140.6793
30
0
11
145.2855
21
140.6793
31
0
0
LINE
8
VISIBLE
10
145.0949
20
140.6793
30
0
11
145.0959
21
140.6793
31
0
0
LINE
8
VISIBLE
10
145.0959
20
141.6793
30
0
11
145.0930
21
141.6793
31
0
0
LINE
8
VISIBLE
10
145.0930
20
141.6793
30
0
11
144.9571
21
141.6793
31
0
0
LINE
8
VISIBLE
10
144.9571
20
140.6793
30
0
11
145.0949
21
140.6793
31
0
0
LINE
8
VISIBLE
10
144.9565
20
140.6793
30
0
11
144.9571
21
140.6793
31
0
0
LINE
8
VISIBLE
10
144.9571
20
141.6793
30
0
11
144.9554
21
141.6793
31
0
0
LINE
8
VISIBLE
10
144.9554
20
141.6793
30
0
11
144.8729
21
141.6793
31
0
0
LINE
8
VISIBLE
10
144.8729
20
140.6793
30
0
11
144.9565
21
140.6793
31
0
0
LINE
8
VISIBLE
10
144.8727
20
140.6793
30
0
11
144.8729
21
140.6793
31
0
0
LINE
8
VISIBLE
10
144.8729
20
141.6793
30
0
11
144.8723
21
141.6793
31
0
0
LINE
8
VISIBLE
10
144.8723
20
141.6793
30
0
11
144.8447
21
141.6793
31
0
0
LINE
8
VISIBLE
10
144.8447
20
140.6793
30
0
11
144.8727
21
140.6793
31
0
0
LINE
8
VISIBLE
10
144.8449
20
140.6793
30
0
11
144.8447
21
140.6793
31
0
0
LINE
8
VISIBLE
10
144.8447
20
141.6793
30
0
11
144.8452
21
141.6793
31
0
0
LINE
8
VISIBLE
10
144.8452
20
141.6793
30
0
11
144.8729
21
141.6793
31
0
0
LINE
8
VISIBLE
10
144.8729
20
140.6793
30
0
11
144.8449
21
140.6793
31
0
0
LINE
8
VISIBLE
10
144.8735
20
140.6793
30
0
11
144.8729
21
140.6793
31
0
0
LINE
8
VISIBLE
10
144.8729
20
141.6793
30
0
11
144.8746
21
141.6793
31
0
0
LINE
8
VISIBLE
10
144.8746
20
141.6793
30
0
11
144.9571
21
141.6793
31
0
0
LINE
8
VISIBLE
10
144.9571
20
140.6793
30
0
11
144.8735
21
140.6793
31
0
0
LINE
8
VISIBLE
10
144.9580
20
140.6793
30
0
11
144.9571
21
140.6793
31
0
0
LINE
8
VISIBLE
10
144.9571
20
141.6793
30
0
11
144.9599
21
141.6793
31
0
0
LINE
8
VISIBLE
10
144.9599
20
141.6793
30
0
11
145.0959
21
141.6793
31
0
0
LINE
8
VISIBLE
10
145.0959
20
140.6793
30
0
11
144.9580
21
140.6793
31
0
0
LINE
8
VISIBLE
10
145.0972
20
140.6793
30
0
11
145.0959
21
140.6793
31
0
0
LINE
8
VISIBLE
10
145.0959
20
141.6793
30
0
11
145.0998
21
141.6793
31
0
0
LINE
8
VISIBLE
10
145.0998
20
141.6793
30
0
11
145.2868
21
141.6793
31
0
0
LINE
8
VISIBLE
10
145.2868
20
140.6793
30
0
11
145.0972
21
140.6793
31
0
0
LINE
8
VISIBLE
10
145.2884
20
140.6793
30
0
11
145.2868
21
140.6793
31
0
0
LINE
8
VISIBLE
10
145.2868
20
141.6793
30
0
11
145.2917
21
141.6793
31
0
0
LINE
8
VISIBLE
10
145.2917
20
141.6793
30
0
11
145.5266
21
141.6793
31
0
0
LINE
8
VISIBLE
10
145.5266
20
140.6793
30
0
11
145.2884
21
140.6793
31
0
0
LINE
8
VISIBLE
10
145.5285
20
140.6793
30
0
11
145.5266
21
140.6793
31
0
0
LINE
8
VISIBLE
10
145.5266
20
141.6793
30
0
11
145.5324
21
141.6793
31
0
0
LINE
8
VISIBLE
10
145.5324
20
141.6793
30
0
11
145.8112
21
141.6793
31
0
0
LINE
8
VISIBLE
10
145.8112
20
140.6793
30
0
11
145.5285
21
140.6793
31
0
0
LINE
8
VISIBLE
10
145.8134
20
140.6793
30
0
11
145.8112
21
140.6793
31
0
0
LINE
8
VISIBLE
10
145.8112
20
141.6793
30
0
11
145.8178
21
141.6793
31
0
0
LINE
8
VISIBLE
10
145.8178
20
141.6793
30
0
11
146.1357
21
141.6793
31
0
0
LINE
8
VISIBLE
10
146.1357
20
140.6793
30
0
11
145.8134
21
140.6793
31
0
0
LINE
8
VISIBLE
10
146.1382
20
140.6793
30
0
11
146.1357
21
140.6793
31
0
0
LINE
8
VISIBLE
10
146.1357
20
141.6793
30
0
11
146.1431
21
141.6793
31
0
0
LINE
8
VISIBLE
10
146.1431
20
141.6793
30
0
11
146.4947
21
141.6793
31
0
0
LINE
8
VISIBLE
10
146.4947
20
140.6793
30
0
11
146.1382
21
140.6793
31
0
0
LINE
8
VISIBLE
10
146.4973
20
140.6793
30
0
11
146.4947
21
140.6793
31
0
0
LINE
8
VISIBLE
10
146.4947
20
141.6793
30
0
11
146.5026
21
141.6793
31
0
0
LINE
8
VISIBLE
10
146.5026
20
141.6793
30
0
11
146.8818
21
141.6793
31
0
0
LINE
8
VISIBLE
10
146.8818
20
140.6793
30
0
11
146.4973
21
140.6793
31
0
0
LINE
8
VISIBLE
10
146.8846
20
140.6793
30
0
11
146.8818
21
140.6793
31
0
0
LINE
8
VISIBLE
10
146.8818
20
141.6793
30
0
11
146.8901
21
141.6793
31
0
0
LINE
8
VISIBLE
10
146.8901
20
141.6793
30
0
11
147.2906
21
141.6793
31
0
0
LINE
8
VISIBLE
10
147.2906
20
140.6793
30
0
11
146.8846
21
140.6793
31
0
0
LINE
8
VISIBLE
10
147.2934
20
140.6793
30
0
11
147.2906
21
140.6793
31
0
0
LINE
8
VISIBLE
10
147.2906
20
141.6793
30
0
11
147.2992
21
141.6793
31
0
0
LINE
8
VISIBLE
10
147.2992
20
141.6793
30
0
11
147.7139
21
141.6793
31
0
0
LINE
8
VISIBLE
10
147.7139
20
140.6793
30
0
11
147.2934
21
140.6793
31
0
0
LINE
8
VISIBLE
10
147.7169
20
140.6793
30
0
11
147.7139
21
140.6793
31
0
0
LINE
8
VISIBLE
10
147.7139
20
141.6793
30
0
11
147.7227
21
141.6793
31
0
0
LINE
8
VISIBLE
10
147.7227
20
141.6793
30
0
11
148.1447
21
141.6793
31
0
0
LINE
8
VISIBLE
10
148.1447
20
140.6793
30
0
11
147.7169
21
140.6793
31
0
0
LINE
8
VISIBLE
10
148.1476
20
140.6793
30
0
11
148.1447
21
140.6793
31
0
0
LINE
8
VISIBLE
10
148.1447
20
141.6793
30
0
11
148.1534
21
141.6793
31
0
0
LINE
8
VISIBLE
10
148.1534
20
141.6793
30
0
11
148.5754
21
141.6793
31
0
0
LINE
8
VISIBLE
10
148.5754
20
140.6793
30
0
11
148.1476
21
140.6793
31
0
0
LINE
8
VISIBLE
10
148.5783
20
140.6793
30
0
11
148.5754
21
140.6793
31
0
0
LINE
8
VISIBLE
10
148.5754
20
141.6793
30
0
11
148.5840
21
141.6793
31
0
0
LINE
8
VISIBLE
10
148.5840
20
141.6793
30
0
11
148.9988
21
141.6793
31
0
0
LINE
8
VISIBLE
10
148.9988
20
140.6793
30
0
11
148.5783
21
140.6793
31
0
0
LINE
8
VISIBLE
10
149.0015
20
140.6793
30
0
11
148.9988
21
140.6793
31
0
0
LINE
8
VISIBLE
10
148.9988
20
141.6793
30
0
11
149.0071
21
141.6793
31
0
0
LINE
8
VISIBLE
10
149.0071
20
141.6793
30
0
11
149.4075
21
141.6793
31
0
0
LINE
8
VISIBLE
10
149.4075
20
140.6793
30
0
11
149.0015
21
140.6793
31
0
0
LINE
8
VISIBLE
10
149.4101
20
140.6793
30
0
11
149.4075
21
140.6793
31
0
0
LINE
8
VISIBLE
10
149.4075
20
141.6793
30
0
11
149.4154
21
141.6793
31
0
0
LINE
8
VISIBLE
10
149.4154
20
141.6793
30
0
11
149.7947
21
141.6793
31
0
0
LINE
8
VISIBLE
10
149.7947
20
140.6793
30
0
11
149.4101
21
140.6793
31
0
0
LINE
8
VISIBLE
10
149.7971
20
140.6793
30
0
11
149.7947
21
140.6793
31
0
0
LINE
8
VISIBLE
10
149.7947
20
141.6793
30
0
11
149.8020
21
141.6793
31
0
0
LINE
8
VISIBLE
10
149.8020
20
141.6793
30
0
11
150.1536
21
141.6793
31
0
0
LINE
8
VISIBLE
10
150.1536
20
140.6793
30
0
11
149.7971
21
140.6793
31
0
0
LINE
8
VISIBLE
10
150.1558
20
140.6793
30
0
11
150.1536
21
140.6793
31
0
0
LINE
8
VISIBLE
10
150.1536
20
141.6793
30
0
11
150.1602
21
141.6793
31
0
0
LINE
8
VISIBLE
10
150.1602
20
141.6793
30
0
11
150.4781
21
141.6793
31
0
0
LINE
8
VISIBLE
10
150.4781
20
140.6793
30
0
11
150.1558
21
140.6793
31
0
0
LINE
8
VISIBLE
10
150.4800
20
140.6793
30
0
11
150.4781
21
140.6793
31
0
0
LINE
8
VISIBLE
10
150.4781
20
141.6793
30
0
11
150.4839
21
141.6793
31
0
0
LINE
8
VISIBLE
10
150.4839
20
141.6793
30
0
11
150.7627
21
141.6793
31
0
0
LINE
8
VISIBLE
10
150.7627
20
140.6793
30
0
11
150.4800
21
140.6793
31
0
0
LINE
8
VISIBLE
10
150.7644
20
140.6793
30
0
11
150.7627
21
140.6793
31
0
0
LINE
8
VISIBLE
10
150.7627
20
141.6793
30
0
11
150.7676
21
141.6793
31
0
0
LINE
8
VISIBLE
10
150.7676
20
141.6793
30
0
11
151.0025
21
141.6793
31
0
0
LINE
8
VISIBLE
10
151.0025
20
140.6793
30
0
11
150.7644
21
140.6793
31
0
0
LINE
8
VISIBLE
10
151.0038
20
140.6793
30
0
11
151.0025
21
140.6793
31
0
0
LINE
8
VISIBLE
10
151.0025
20
141.6793
30
0
11
151.0064
21
141.6793
31
0
0
LINE
8
VISIBLE
10
151.0064
20
141.6793
30
0
11
151.1935
21
141.6793
31
0
0
LINE
8
VISIBLE
10
151.1935
20
140.6793
30
0
11
151.0038
21
140.6793
31
0
0
LINE
8
VISIBLE
10
151.1944
20
140.6793
30
0
11
151.1935
21
140.6793
31
0
0
LINE
8
VISIBLE
10
151.1935
20
141.6793
30
0
11
151.1963
21
141.6793
31
0
0
LINE
8
VISIBLE
10
151.1963
20
141.6793
30
0
11
151.3322
21
141.6793
31
0
0
LINE
8
VISIBLE
10
151.3322
20
140.6793
30
0
11
151.1944
21
140.6793
31
0
0
LINE
8
VISIBLE
10
151.3328
20
140.6793
30
0
11
151.3322
21
140.6793
31
0
0
LINE
8
VISIBLE
10
151.3322
20
141.6793
30
0
11
151.3339
21
141.6793
31
0
0
LINE
8
VISIBLE
10
151.3339
20
141.6793
30
0
11
151.4164
21
141.6793
31
0
0
LINE
8
VISIBLE
10
151.4164
20
140.6793
30
0
11
151.3328
21
140.6793
31
0
0
LINE
8
VISIBLE
10
151.4166
20
140.6793
30
0
11
151.4164
21
140.6793
31
0
0
LINE
8
VISIBLE
10
151.4164
20
141.6793
30
0
11
151.4170
21
141.6793
31
0
0
LINE
8
VISIBLE
10
151.4170
20
141.6793
30
0
11
151.4447
21
141.6793
31
0
0
LINE
8
VISIBLE
10
151.4447
20
140.6793
30
0
11
151.4166
21
140.6793
31
0
0
TEXT
8
TEXTO
10
148.1447
20
145.6793
30
0
40
3.5000
1
PERFIL
72
1
73
2
11
148.1447
21
145.6793
31
0
0
SOLID
8
SOMBRA
62
253
10
246.9894
20
175.7899
30
0
11
236.5711
21
181.5042
31
0
12
236.5711
22
182.3207
32
0
13
236.5711
23
182.3207
33
0
0
SOLID
8
SOMBRA
62
253
10
246.9894
20
175.4891
30
0
11
236.5711
21
181.5042
31
0
12
246.9894
22
175.7899
32
0
13
246.9894
23
175.7899
33
0
0
SOLID
8
SOMBRA
62
253
10
246.9894
20
175.7899
30
0
11
236.5711
21
182.3207
31
0
12
246.9894
22
176.3056
32
0
13
246.9894
23
176.3056
33
0
0
SOLID
8
SOMBRA
62
253
10
248.8677
20
174.4047
30
0
11
246.9894
21
175.4891
31
0
12
246.9894
22
175.7899
32
0
13
246.9894
23
175.7899
33
0
0
SOLID
8
SOMBRA
62
253
10
248.8677
20
174.7597
30
0
11
246.9894
21
175.7899
31
0
12
246.9894
22
176.3056
32
0
13
246.9894
23
176.3056
33
0
0
SOLID
8
SOMBRA
62
253
10
248.8677
20
174.4047
30
0
11
246.9894
21
175.7899
31
0
12
248.8677
22
174.7597
32
0
13
248.8677
23
174.7597
33
0
0
SOLID
8
SOMBRA
62
253
10
248.8677
20
174.7597
30
0
11
246.9894
21
176.3056
31
0
12
248.8677
22
175.2212
32
0
13
248.8677
23
175.2212
33
0
0
SOLID
8
SOMBRA
62
253
10
251.6563
20
172.7947
30
0
11
248.8677
21
174.4047
31
0
12
248.8677
22
174.7597
32
0
13
248.8677
23
174.7597
33
0
0
SOLID
8
SOMBRA
62
253
10
251.6563
20
173.2302
30
0
11
248.8677
21
174.7597
31
0
12
248.8677
22
175.2212
32
0
13
248.8677
23
175.2212
33
0
0
SOLID
8
SOMBRA
62
254
10
246.9894
20
176.3056
30
0
11
236.5711
21
182.3207
31
0
12
230.7939
22
165.6435
32
0
13
230.7939
23
165.6435
33
0
0
SOLID
8
SOMBRA
62
253
10
251.6563
20
172.7947
30
0
11
248.8677
21
174.7597
31
0
12
251.6563
22
173.2302
32
0
13
251.6563
23
173.2302
33
0
0
SOLID
8
SOMBRA
62
253
10
236.5711
20
182.3207
30
0
11
236.5711
21
181.5042
31
0
12
194.1447
22
157.8258
32
0
13
194.1447
23
157.8258
33
0
0
SOLID
8
SOMBRA
62
253
10
251.6563
20
173.2302
30
0
11
248.8677
21
175.2212
31
0
12
251.6563
22
173.6112
32
0
13
251.6563
23
173.6112
33
0
0
SOLID
8
SOMBRA
62
252
10
224.1885
20
160.4784
30
0
11
236.5711
21
181.5042
31
0
12
246.9894
22
175.4891
32
0
13
246.9894
23
175.4891
33
0
0
SOLID
8
SOMBRA
62
253
10
254.4370
20
171.1893
30
0
11
251.6563
21
172.7947
31
0
12
251.6563
22
173.2302
32
0
13
251.6563
23
173.2302
33
0
0
SOLID
8
SOMBRA
62
253
10
254.4370
20
171.7050
30
0
11
251.6563
21
173.2302
31
0
12
251.6563
22
173.6112
32
0
13
251.6563
23
173.6112
33
0
0
SOLID
8
SOMBRA
62
253
10
254.4370
20
171.1893
30
0
11
251.6563
21
173.2302
31
0
12
254.4370
22
171.7050
32
0
13
254.4370
23
171.7050
33
0
0
SOLID
8
SOMBRA
62
253
10
254.4370
20
171.7050
30
0
11
251.6563
21
173.6112
31
0
12
254.4370
22
172.0058
32
0
13
254.4370
23
172.0058
33
0
0
SOLID
8
SOMBRA
62
253
10
257.3069
20
169.5323
30
0
11
254.4370
21
171.1893
31
0
12
254.4370
22
171.7050
32
0
13
254.4370
23
171.7050
33
0
0
SOLID
8
SOMBRA
62
252
10
234.0713
20
161.6196
30
0
11
246.9894
21
175.4891
31
0
12
248.8677
22
174.4047
32
0
13
248.8677
23
174.4047
33
0
0
SOLID
8
SOMBRA
62
253
10
257.3069
20
170.1309
30
0
11
254.4370
21
171.7050
31
0
12
254.4370
22
172.0058
32
0
13
254.4370
23
172.0058
33
0
0
SOLID
8
SOMBRA
62
252
10
234.0713
20
161.6196
30
0
11
243.5160
21
173.2024
31
0
12
246.9894
22
175.4891
32
0
13
246.9894
23
175.4891
33
0
0
SOLID
8
SOMBRA
62
253
10
257.3069
20
169.5323
30
0
11
254.4370
21
171.7050
31
0
12
257.3069
22
170.1309
32
0
13
257.3069
23
170.1309
33
0
0
SOLID
8
SOMBRA
62
253
10
257.3069
20
170.1309
30
0
11
254.4370
21
172.0058
31
0
12
257.3069
22
170.3488
32
0
13
257.3069
23
170.3488
33
0
0
SOLID
8
SOMBRA
62
252
10
234.8115
20
161.7051
30
0
11
248.8677
21
174.4047
31
0
12
251.6563
22
172.7947
32
0
13
251.6563
23
172.7947
33
0
0
SOLID
8
SOMBRA
62
254
10
232.3579
20
160.9556
30
0
11
248.8677
21
175.2212
31
0
12
246.9894
22
176.3056
32
0
13
246.9894
23
176.3056
33
0
0
SOLID
8
SOMBRA
62
254
10
232.3579
20
160.9556
30
0
11
246.9894
21
176.3056
31
0
12
243.5160
22
174.0189
32
0
13
243.5160
23
174.0189
33
0
0
SOLID
8
SOMBRA
62
253
10
260.3730
20
167.7621
30
0
11
257.3069
21
169.5323
31
0
12
257.3069
22
170.1309
32
0
13
257.3069
23
170.1309
33
0
0
SOLID
8
SOMBRA
62
254
10
232.1181
20
160.7484
30
0
11
251.6563
21
173.6112
31
0
12
248.8677
22
175.2212
32
0
13
248.8677
23
175.2212
33
0
0
SOLID
8
SOMBRA
62
252
10
235.9697
20
161.8388
30
0
11
251.6563
21
172.7947
31
0
12
254.4370
22
171.1893
32
0
13
254.4370
23
171.1893
33
0
0
SOLID
8
SOMBRA
62
253
10
260.3730
20
168.4492
30
0
11
257.3069
21
170.1309
31
0
12
257.3069
22
170.3488
32
0
13
257.3069
23
170.3488
33
0
0
SOLID
8
SOMBRA
62
253
10
260.3730
20
167.7621
30
0
11
257.3069
21
170.1309
31
0
12
260.3730
22
168.4492
32
0
13
260.3730
23
168.4492
33
0
0
SOLID
8
SOMBRA
62
252
10
233.5733
20
161.5621
30
0
11
237.9394
21
169.5311
31
0
12
243.5160
22
173.2024
32
0
13
243.5160
23
173.2024
33
0
0
SOLID
8
SOMBRA
62
253
10
260.3730
20
168.4492
30
0
11
257.3069
21
170.3488
31
0
12
260.3730
22
168.5786
32
0
13
260.3730
23
168.5786
33
0
0
SOLID
8
SOMBRA
62
252
10
237.9591
20
162.0685
30
0
11
254.4370
21
171.1893
31
0
12
257.3069
22
169.5323
32
0
13
257.3069
23
169.5323
33
0
0
SOLID
8
SOMBRA
62
254
10
231.8335
20
160.5610
30
0
11
254.4370
21
172.0058
31
0
12
251.6563
22
173.6112
32
0
13
251.6563
23
173.6112
33
0
0
SOLID
8
SOMBRA
62
254
10
230.7939
20
165.6435
30
0
11
236.5711
21
182.3207
31
0
12
194.1447
22
157.8258
32
0
13
194.1447
23
157.8258
33
0
0
SOLID
8
SOMBRA
62
254
10
232.5488
20
161.1791
30
0
11
243.5160
21
174.0189
31
0
12
237.9394
22
170.3476
32
0
13
237.9394
23
170.3476
33
0
0
SOLID
8
SOMBRA
62
253
10
263.7707
20
165.8005
30
0
11
260.3730
21
167.7621
31
0
12
260.3730
22
168.4492
32
0
13
260.3730
23
168.4492
33
0
0
SOLID
8
SOMBRA
62
253
10
263.7707
20
166.5857
30
0
11
260.3730
21
168.4492
31
0
12
260.3730
22
168.5786
32
0
13
260.3730
23
168.5786
33
0
0
SOLID
8
SOMBRA
62
252
10
242.0247
20
162.5380
30
0
11
257.3069
21
169.5323
31
0
12
260.3730
22
167.7621
32
0
13
260.3730
23
167.7621
33
0
0
SOLID
8
SOMBRA
62
254
10
231.5089
20
160.3967
30
0
11
257.3069
21
170.3488
31
0
12
254.4370
22
172.0058
32
0
13
254.4370
23
172.0058
33
0
0
SOLID
8
SOMBRA
62
252
10
224.1885
20
160.4784
30
0
11
194.1447
21
157.0093
31
0
12
236.5711
22
181.5042
32
0
13
236.5711
23
181.5042
33
0
0
SOLID
8
SOMBRA
62
252
10
233.2308
20
161.5225
30
0
11
235.1272
21
167.6798
31
0
12
237.9394
22
169.5311
32
0
13
237.9394
23
169.5311
33
0
0
SOLID
8
SOMBRA
62
253
10
263.7707
20
165.8005
30
0
11
260.3730
21
168.4492
31
0
12
263.7707
22
166.5857
32
0
13
263.7707
23
166.5857
33
0
0
SOLID
8
SOMBRA
62
253
10
263.7707
20
166.5857
30
0
11
260.3730
21
168.5786
31
0
12
263.7707
22
166.6170
32
0
13
263.7707
23
166.6170
33
0
0
SOLID
8
SOMBRA
62
252
10
234.8115
20
161.7051
30
0
11
234.0713
21
161.6196
31
0
12
248.8677
22
174.4047
32
0
13
248.8677
23
174.4047
33
0
0
SOLID
8
SOMBRA
62
252
10
254.4369
20
163.9712
30
0
11
260.3730
21
167.7621
31
0
12
263.7707
22
165.8005
32
0
13
263.7707
23
165.8005
33
0
0
SOLID
8
SOMBRA
62
254
10
232.6876
20
161.4151
30
0
11
237.9394
21
170.3476
31
0
12
235.1272
22
168.4963
32
0
13
235.1272
23
168.4963
33
0
0
SOLID
8
SOMBRA
62
252
10
234.0713
20
161.6196
30
0
11
233.5733
21
161.5621
31
0
12
243.5160
22
173.2024
32
0
13
243.5160
23
173.2024
33
0
0
SOLID
8
SOMBRA
62
253
10
264.8553
20
165.1742
30
0
11
263.7707
21
165.8005
31
0
12
263.7707
22
166.5857
32
0
13
263.7707
23
166.5857
33
0
0
SOLID
8
SOMBRA
62
252
10
235.9697
20
161.8388
30
0
11
234.8115
21
161.7051
31
0
12
251.6563
22
172.7947
32
0
13
251.6563
23
172.7947
33
0
0
SOLID
8
SOMBRA
62
252
10
232.9966
20
161.4955
30
0
11
233.4203
21
166.5561
31
0
12
235.1272
22
167.6798
32
0
13
235.1272
23
167.6798
33
0
0
SOLID
8
SOMBRA
62
253
10
263.7707
20
166.5857
30
0
11
263.7707
21
166.6170
31
0
12
264.8553
22
165.9907
32
0
13
264.8553
23
165.9907
33
0
0
SOLID
8
SOMBRA
62
254
10
231.1500
20
160.2583
30
0
11
260.3730
21
168.5786
31
0
12
257.3069
22
170.3488
32
0
13
257.3069
23
170.3488
33
0
0
SOLID
8
SOMBRA
62
253
10
264.8553
20
165.1742
30
0
11
263.7707
21
166.5857
31
0
12
264.8553
22
165.9907
32
0
13
264.8553
23
165.9907
33
0
0
SOLID
8
SOMBRA
62
253
10
236.5711
20
181.5042
30
0
11
194.1447
21
157.0093
31
0
12
194.1447
22
157.8258
32
0
13
194.1447
23
157.8258
33
0
0
SOLID
8
SOMBRA
62
252
10
237.9591
20
162.0685
30
0
11
235.9697
21
161.8388
31
0
12
254.4370
22
171.1893
32
0
13
254.4370
23
171.1893
33
0
0
SOLID
8
SOMBRA
62
252
10
254.4369
20
163.9712
30
0
11
263.7707
21
165.8005
31
0
12
264.8553
22
165.1742
32
0
13
264.8553
23
165.1742
33
0
0
SOLID
8
SOMBRA
62
252
10
254.4369
20
163.9712
30
0
11
242.0247
21
162.5380
31
0
12
260.3730
22
167.7621
32
0
13
260.3730
23
167.7621
33
0
0
SOLID
8
SOMBRA
62
252
10
242.0247
20
162.5380
30
0
11
237.9591
21
162.0685
31
0
12
257.3069
22
169.5323
32
0
13
257.3069
23
169.5323
33
0
0
SOLID
8
SOMBRA
62
254
10
232.7718
20
161.6596
30
0
11
235.1272
21
168.4963
31
0
12
233.4203
22
167.3726
32
0
13
233.4203
23
167.3726
33
0
0
SOLID
8
SOMBRA
62
252
10
232.8438
20
161.4779
30
0
11
232.2659
21
165.7961
31
0
12
233.4203
22
166.5561
32
0
13
233.4203
23
166.5561
33
0
0
SOLID
8
SOMBRA
62
254
10
230.7893
20
165.6300
30
0
11
230.7939
21
165.6435
31
0
12
230.7848
22
165.6375
32
0
13
230.7848
23
165.6375
33
0
0
SOLID
8
SOMBRA
62
252
10
260.6163
20
162.7268
30
0
11
264.8553
21
165.1742
31
0
12
264.8553
22
165.9907
32
0
13
264.8553
23
165.9907
33
0
0
SOLID
8
SOMBRA
62
252
10
233.5733
20
161.5621
30
0
11
233.2308
21
161.5225
31
0
12
237.9394
22
169.5311
32
0
13
237.9394
23
169.5311
33
0
0
SOLID
8
SOMBRA
62
254
10
230.5594
20
164.9665
30
0
11
230.7893
21
165.6300
31
0
12
230.7848
22
165.6375
32
0
13
230.7848
23
165.6375
33
0
0
SOLID
8
SOMBRA
62
252
10
232.7573
20
161.4679
30
0
11
231.4270
21
165.2438
31
0
12
232.2659
22
165.7961
32
0
13
232.2659
23
165.7961
33
0
0
SOLID
8
SOMBRA
62
254
10
230.5594
20
164.9665
30
0
11
230.7848
21
165.6375
31
0
12
230.2737
22
165.3010
32
0
13
230.2737
23
165.3010
33
0
0
SOLID
8
SOMBRA
62
254
10
232.8000
20
161.9082
30
0
11
233.4203
21
167.3726
31
0
12
232.2659
22
166.6126
32
0
13
232.2659
23
166.6126
33
0
0
SOLID
8
SOMBRA
62
252
10
260.6163
20
162.7268
30
0
11
254.4369
21
163.9712
31
0
12
264.8553
22
165.1742
32
0
13
264.8553
23
165.1742
33
0
0
SOLID
8
SOMBRA
62
254
10
230.7628
20
160.1480
30
0
11
263.7707
21
166.6170
31
0
12
260.3730
22
168.5786
32
0
13
260.3730
23
168.5786
33
0
0
SOLID
8
SOMBRA
62
252
10
232.6876
20
161.5849
30
0
11
230.7848
21
164.8210
31
0
12
231.4270
22
165.2438
32
0
13
231.4270
23
165.2438
33
0
0
SOLID
8
SOMBRA
62
254
10
230.4123
20
164.5420
30
0
11
230.2737
21
165.3010
31
0
12
229.8538
22
165.0246
32
0
13
229.8538
23
165.0246
33
0
0
SOLID
8
SOMBRA
62
254
10
232.7718
20
162.1569
30
0
11
232.2659
21
166.6126
31
0
12
231.4270
22
166.0603
32
0
13
231.4270
23
166.0603
33
0
0
SOLID
8
SOMBRA
62
254
10
230.4123
20
164.5420
30
0
11
230.5594
21
164.9665
31
0
12
230.2737
22
165.3010
32
0
13
230.2737
23
165.3010
33
0
0
SOLID
8
SOMBRA
62
252
10
232.5488
20
161.8209
30
0
11
230.2737
21
164.4845
31
0
12
230.7848
22
164.8210
32
0
13
230.7848
23
164.8210
33
0
0
SOLID
8
SOMBRA
62
252
10
232.3579
20
162.0444
30
0
11
229.8538
21
164.2081
31
0
12
230.2737
22
164.4845
32
0
13
230.2737
23
164.4845
33
0
0
SOLID
8
SOMBRA
62
252
10
233.2308
20
161.5225
30
0
11
232.9966
21
161.4955
31
0
12
235.1272
22
167.6798
32
0
13
235.1272
23
167.6798
33
0
0
SOLID
8
SOMBRA
62
252
10
232.1181
20
162.2516
30
0
11
229.5000
21
163.9752
31
0
12
229.8538
22
164.2081
32
0
13
229.8538
23
164.2081
33
0
0
SOLID
8
SOMBRA
62
254
10
232.6876
20
162.4014
30
0
11
231.4270
21
166.0603
31
0
12
230.7939
22
165.6435
32
0
13
230.7939
23
165.6435
33
0
0
SOLID
8
SOMBRA
62
254
10
230.3134
20
164.2562
30
0
11
229.8538
21
165.0246
31
0
12
229.5000
22
164.7917
32
0
13
229.5000
23
164.7917
33
0
0
SOLID
8
SOMBRA
62
252
10
231.8335
20
162.4390
30
0
11
229.1954
21
163.7747
31
0
12
229.5000
22
163.9752
32
0
13
229.5000
23
163.9752
33
0
0
SOLID
8
SOMBRA
62
254
10
230.3134
20
164.2562
30
0
11
230.4123
21
164.5420
31
0
12
229.8538
22
165.0246
32
0
13
229.8538
23
165.0246
33
0
0
SOLID
8
SOMBRA
62
254
10
232.6876
20
162.4014
30
0
11
230.7939
21
165.6435
31
0
12
230.7893
22
165.6300
32
0
13
230.7893
23
165.6300
33
0
0
SOLID
8
SOMBRA
62
252
10
231.5089
20
162.6033
30
0
11
228.9283
21
163.5988
31
0
12
229.1954
22
163.7747
32
0
13
229.1954
23
163.7747
33
0
0
SOLID
8
SOMBRA
62
252
10
260.6163
20
162.7268
30
0
11
264.8553
21
165.9907
31
0
12
260.6163
22
163.4618
32
0
13
260.6163
23
163.4618
33
0
0
SOLID
8
SOMBRA
62
252
10
231.1500
20
162.7418
30
0
11
228.6903
21
163.4421
31
0
12
228.9283
22
163.5988
32
0
13
228.9283
23
163.5988
33
0
0
SOLID
8
SOMBRA
62
254
10
230.2453
20
164.0596
30
0
11
229.5000
21
164.7917
31
0
12
229.1954
22
164.5912
32
0
13
229.1954
23
164.5912
33
0
0
SOLID
8
SOMBRA
62
252
10
230.7629
20
162.8520
30
0
11
228.4750
21
163.3004
31
0
12
228.6903
22
163.4421
32
0
13
228.6903
23
163.4421
33
0
0
SOLID
8
SOMBRA
62
254
10
232.5488
20
162.6374
30
0
11
230.7893
21
165.6300
31
0
12
230.5594
22
164.9665
32
0
13
230.5594
23
164.9665
33
0
0
SOLID
8
SOMBRA
62
252
10
232.9966
20
161.4955
30
0
11
232.8438
21
161.4779
31
0
12
233.4203
22
166.5561
32
0
13
233.4203
23
166.5561
33
0
0
SOLID
8
SOMBRA
62
252
10
260.6163
20
163.4618
30
0
11
264.8553
21
165.9907
31
0
12
260.6163
22
163.5433
32
0
13
260.6163
23
163.5433
33
0
0
SOLID
8
SOMBRA
62
254
10
230.2453
20
164.0596
30
0
11
230.3134
21
164.2562
31
0
12
229.5000
22
164.7917
32
0
13
229.5000
23
164.7917
33
0
0
SOLID
8
SOMBRA
62
252
10
230.3541
20
162.9321
30
0
11
228.2778
21
163.1705
31
0
12
228.4750
22
163.3004
32
0
13
228.4750
23
163.3004
33
0
0
SOLID
8
SOMBRA
62
254
10
230.1987
20
163.9252
30
0
11
229.1954
21
164.5912
31
0
12
228.9283
22
164.4153
32
0
13
228.9283
23
164.4153
33
0
0
SOLID
8
SOMBRA
62
252
10
229.9307
20
162.9807
30
0
11
228.0950
21
163.0502
31
0
12
228.2778
22
163.1705
32
0
13
228.2778
23
163.1705
33
0
0
SOLID
8
SOMBRA
62
254
10
230.3541
20
160.0679
30
0
11
264.8553
21
165.9907
31
0
12
263.7707
22
166.6170
32
0
13
263.7707
23
166.6170
33
0
0
SOLID
8
SOMBRA
62
252
10
229.5000
20
162.9970
30
0
11
227.9236
21
162.9374
31
0
12
228.0950
22
163.0502
32
0
13
228.0950
23
163.0502
33
0
0
SOLID
8
SOMBRA
62
254
10
230.1987
20
163.9252
30
0
11
230.2453
21
164.0596
31
0
12
229.1954
22
164.5912
32
0
13
229.1954
23
164.5912
33
0
0
SOLID
8
SOMBRA
62
254
10
230.1684
20
163.8377
30
0
11
228.9283
21
164.4153
31
0
12
228.6903
22
164.2586
32
0
13
228.6903
23
164.2586
33
0
0
SOLID
8
SOMBRA
62
252
10
229.0693
20
162.9807
30
0
11
227.7613
21
162.8305
31
0
12
227.9236
22
162.9374
32
0
13
227.9236
23
162.9374
33
0
0
SOLID
8
SOMBRA
62
252
10
232.8438
20
161.4779
30
0
11
232.7573
21
161.4679
31
0
12
232.2659
22
165.7961
32
0
13
232.2659
23
165.7961
33
0
0
SOLID
8
SOMBRA
62
254
10
232.3579
20
162.8609
30
0
11
230.5594
21
164.9665
31
0
12
230.4123
22
164.5420
32
0
13
230.4123
23
164.5420
33
0
0
SOLID
8
SOMBRA
62
252
10
229.4912
20
163.8132
30
0
11
229.4971
21
162.9969
31
0
12
229.5000
22
162.9970
32
0
13
229.5000
23
162.9970
33
0
0
SOLID
8
SOMBRA
62
252
10
229.9278
20
162.9808
30
0
11
229.5000
21
163.8135
31
0
12
229.5000
22
162.9970
32
0
13
229.5000
23
162.9970
33
0
0
SOLID
8
SOMBRA
62
252
10
229.4971
20
162.9969
30
0
11
229.0693
21
163.7972
31
0
12
229.0693
22
162.9807
32
0
13
229.0693
23
162.9807
33
0
0
SOLID
8
SOMBRA
62
252
10
229.9220
20
163.7975
30
0
11
229.9278
21
162.9808
31
0
12
229.9307
22
162.9807
32
0
13
229.9307
23
162.9807
33
0
0
SOLID
8
SOMBRA
62
252
10
229.0606
20
163.7962
30
0
11
229.0664
21
162.9804
31
0
12
229.0693
22
162.9807
32
0
13
229.0693
23
162.9807
33
0
0
SOLID
8
SOMBRA
62
254
10
230.1684
20
163.8377
30
0
11
230.1987
21
163.9252
31
0
12
228.9283
22
164.4153
32
0
13
228.9283
23
164.4153
33
0
0
SOLID
8
SOMBRA
62
252
10
228.6459
20
162.9321
30
0
11
227.6060
21
162.7283
31
0
12
227.7613
22
162.8305
32
0
13
227.7613
23
162.8305
33
0
0
SOLID
8
SOMBRA
62
254
10
230.1513
20
163.7883
30
0
11
228.6903
21
164.2586
31
0
12
228.4750
22
164.1169
32
0
13
228.4750
23
164.1169
33
0
0
SOLID
8
SOMBRA
62
252
10
230.3512
20
162.9324
30
0
11
229.9307
21
163.7972
31
0
12
229.9307
22
162.9807
32
0
13
229.9307
23
162.9807
33
0
0
SOLID
8
SOMBRA
62
252
10
229.0664
20
162.9804
30
0
11
228.6459
21
163.7486
31
0
12
228.6459
22
162.9321
32
0
13
228.6459
23
162.9321
33
0
0
SOLID
8
SOMBRA
62
252
10
230.3455
20
163.7496
30
0
11
230.3512
21
162.9324
31
0
12
230.3541
22
162.9321
32
0
13
230.3541
23
162.9321
33
0
0
SOLID
8
SOMBRA
62
252
10
228.6376
20
163.7470
30
0
11
228.6431
21
162.9315
31
0
12
228.6459
22
162.9321
32
0
13
228.6459
23
162.9321
33
0
0
SOLID
8
SOMBRA
62
252
10
230.7601
20
162.8525
30
0
11
230.3541
21
163.7486
31
0
12
230.3541
22
162.9321
32
0
13
230.3541
23
162.9321
33
0
0
SOLID
8
SOMBRA
62
252
10
228.6431
20
162.9315
30
0
11
228.2371
21
163.6685
31
0
12
228.2371
22
162.8520
32
0
13
228.2371
23
162.8520
33
0
0
SOLID
8
SOMBRA
62
254
10
230.1513
20
163.7883
30
0
11
230.1684
21
163.8377
31
0
12
228.6903
22
164.2586
32
0
13
228.6903
23
164.2586
33
0
0
SOLID
8
SOMBRA
62
252
10
228.2371
20
162.8520
30
0
11
227.4561
21
162.6296
31
0
12
227.6060
22
162.7283
32
0
13
227.6060
23
162.7283
33
0
0
SOLID
8
SOMBRA
62
254
10
230.1458
20
163.7725
30
0
11
228.4750
21
164.1169
31
0
12
228.2778
22
163.9870
32
0
13
228.2778
23
163.9870
33
0
0
SOLID
8
SOMBRA
62
254
10
232.1181
20
163.0681
30
0
11
230.4123
21
164.5420
31
0
12
230.3134
22
164.2562
32
0
13
230.3134
23
164.2562
33
0
0
SOLID
8
SOMBRA
62
252
10
232.7573
20
161.4679
30
0
11
232.7290
21
161.4646
31
0
12
231.4270
22
165.2438
32
0
13
231.4270
23
165.2438
33
0
0
SOLID
8
SOMBRA
62
252
10
229.4912
20
163.8132
30
0
11
229.5000
21
162.9970
31
0
12
229.5000
22
163.8135
32
0
13
229.5000
23
163.8135
33
0
0
SOLID
8
SOMBRA
62
252
10
229.4971
20
162.9969
30
0
11
229.4912
21
163.8132
31
0
12
229.0693
22
163.7972
32
0
13
229.0693
23
163.7972
33
0
0
SOLID
8
SOMBRA
62
252
10
230.7545
20
163.6701
30
0
11
230.7601
21
162.8525
31
0
12
230.7629
22
162.8520
32
0
13
230.7629
23
162.8520
33
0
0
SOLID
8
SOMBRA
62
252
10
228.2293
20
163.6662
30
0
11
228.2345
21
162.8512
31
0
12
228.2371
22
162.8520
32
0
13
228.2371
23
162.8520
33
0
0
SOLID
8
SOMBRA
62
252
10
229.9278
20
162.9808
30
0
11
229.9220
21
163.7975
31
0
12
229.5000
22
163.8135
32
0
13
229.5000
23
163.8135
33
0
0
SOLID
8
SOMBRA
62
252
10
229.9220
20
163.7975
30
0
11
229.9307
21
162.9807
31
0
12
229.9307
22
163.7972
32
0
13
229.9307
23
163.7972
33
0
0
SOLID
8
SOMBRA
62
252
10
229.0606
20
163.7962
30
0
11
229.0693
21
162.9807
31
0
12
229.0693
22
163.7972
32
0
13
229.0693
23
163.7972
33
0
0
SOLID
8
SOMBRA
62
252
10
229.0664
20
162.9804
30
0
11
229.0606
21
163.7962
31
0
12
228.6459
22
163.7486
32
0
13
228.6459
23
163.7486
33
0
0
SOLID
8
SOMBRA
62
252
10
231.1474
20
162.7425
30
0
11
230.7629
21
163.6685
31
0
12
230.7629
22
162.8520
32
0
13
230.7629
23
162.8520
33
0
0
SOLID
8
SOMBRA
62
252
10
230.3512
20
162.9324
30
0
11
230.3455
21
163.7496
31
0
12
229.9307
22
163.7972
32
0
13
229.9307
23
163.7972
33
0
0
SOLID
8
SOMBRA
62
254
10
230.1458
20
163.7725
30
0
11
230.1513
21
163.7883
31
0
12
228.4750
22
164.1169
32
0
13
228.4750
23
164.1169
33
0
0
SOLID
8
SOMBRA
62
252
10
230.3455
20
163.7496
30
0
11
230.3541
21
162.9321
31
0
12
230.3541
22
163.7486
32
0
13
230.3541
23
163.7486
33
0
0
SOLID
8
SOMBRA
62
252
10
228.6376
20
163.7470
30
0
11
228.6459
21
162.9321
31
0
12
228.6459
22
163.7486
32
0
13
228.6459
23
163.7486
33
0
0
SOLID
8
SOMBRA
62
254
10
229.9307
20
163.7972
30
0
11
228.2778
21
163.9870
31
0
12
228.0950
22
163.8667
32
0
13
228.0950
23
163.8667
33
0
0
SOLID
8
SOMBRA
62
252
10
228.2345
20
162.8512
30
0
11
227.8500
21
163.5582
31
0
12
227.8500
22
162.7418
32
0
13
227.8500
23
162.7418
33
0
0
SOLID
8
SOMBRA
62
252
10
227.8500
20
162.7418
30
0
11
227.3101
21
162.5335
31
0
12
227.4561
22
162.6296
32
0
13
227.4561
23
162.6296
33
0
0
SOLID
8
SOMBRA
62
252
10
228.6431
20
162.9315
30
0
11
228.6376
21
163.7470
31
0
12
228.2371
22
163.6685
32
0
13
228.2371
23
163.6685
33
0
0
SOLID
8
SOMBRA
62
254
10
231.8335
20
163.2555
30
0
11
230.3134
21
164.2562
31
0
12
230.2453
22
164.0596
32
0
13
230.2453
23
164.0596
33
0
0
SOLID
8
SOMBRA
62
252
10
230.7601
20
162.8525
30
0
11
230.7545
21
163.6701
31
0
12
230.3541
22
163.7486
32
0
13
230.3541
23
163.7486
33
0
0
SOLID
8
SOMBRA
62
252
10
231.1421
20
163.5605
30
0
11
231.1474
21
162.7425
31
0
12
231.1500
22
162.7418
32
0
13
231.1500
23
162.7418
33
0
0
SOLID
8
SOMBRA
62
252
10
227.8427
20
163.5554
30
0
11
227.8476
21
162.7408
31
0
12
227.8500
22
162.7418
32
0
13
227.8500
23
162.7418
33
0
0
SOLID
8
SOMBRA
62
254
10
229.5000
20
163.8135
30
0
11
228.0950
21
163.8667
31
0
12
227.9236
22
163.7539
32
0
13
227.9236
23
163.7539
33
0
0
SOLID
8
SOMBRA
62
252
10
230.7545
20
163.6701
30
0
11
230.7629
21
162.8520
31
0
12
230.7629
22
163.6685
32
0
13
230.7629
23
163.6685
33
0
0
SOLID
8
SOMBRA
62
252
10
228.2293
20
163.6662
30
0
11
228.2371
21
162.8520
31
0
12
228.2371
22
163.6685
32
0
13
228.2371
23
163.6685
33
0
0
SOLID
8
SOMBRA
62
254
10
231.5089
20
163.4198
30
0
11
230.2453
21
164.0596
31
0
12
230.1987
22
163.9252
32
0
13
230.1987
23
163.9252
33
0
0
SOLID
8
SOMBRA
62
252
10
231.5065
20
162.6042
30
0
11
231.1500
21
163.5582
31
0
12
231.1500
22
162.7418
32
0
13
231.1500
23
162.7418
33
0
0
SOLID
8
SOMBRA
62
254
10
231.1500
20
163.5582
30
0
11
230.1987
21
163.9252
31
0
12
230.1684
22
163.8377
32
0
13
230.1684
23
163.8377
33
0
0
SOLID
8
SOMBRA
62
254
10
230.3541
20
163.7486
30
0
11
230.1513
21
163.7883
31
0
12
230.1458
22
163.7725
32
0
13
230.1458
23
163.7725
33
0
0
SOLID
8
SOMBRA
62
252
10
228.2345
20
162.8512
30
0
11
228.2293
21
163.6662
31
0
12
227.8500
22
163.5582
32
0
13
227.8500
23
163.5582
33
0
0
SOLID
8
SOMBRA
62
254
10
230.7629
20
163.6685
30
0
11
230.1684
21
163.8377
31
0
12
230.1513
22
163.7883
32
0
13
230.1513
23
163.7883
33
0
0
SOLID
8
SOMBRA
62
252
10
227.4911
20
162.6033
30
0
11
227.1665
21
162.4390
31
0
12
227.3101
22
162.5335
32
0
13
227.3101
23
162.5335
33
0
0
SOLID
8
SOMBRA
62
252
10
227.8476
20
162.7408
30
0
11
227.4911
21
163.4198
31
0
12
227.4911
22
162.6033
32
0
13
227.4911
23
162.6033
33
0
0
SOLID
8
SOMBRA
62
254
10
229.0693
20
163.7972
30
0
11
227.9236
21
163.7539
31
0
12
227.7613
22
163.6470
32
0
13
227.7613
23
163.6470
33
0
0
SOLID
8
SOMBRA
62
252
10
231.1474
20
162.7425
30
0
11
231.1421
21
163.5605
31
0
12
230.7629
22
163.6685
32
0
13
230.7629
23
163.6685
33
0
0
SOLID
8
SOMBRA
62
252
10
231.1421
20
163.5605
30
0
11
231.1500
21
162.7418
31
0
12
231.1500
22
163.5582
32
0
13
231.1500
23
163.5582
33
0
0
SOLID
8
SOMBRA
62
252
10
227.8427
20
163.5554
30
0
11
227.8500
21
162.7418
31
0
12
227.8500
22
163.5582
32
0
13
227.8500
23
163.5582
33
0
0
SOLID
8
SOMBRA
62
252
10
231.5016
20
163.4226
30
0
11
231.5065
21
162.6042
31
0
12
231.5089
22
162.6033
32
0
13
231.5089
23
162.6033
33
0
0
SOLID
8
SOMBRA
62
252
10
227.4845
20
163.4164
30
0
11
227.4889
21
162.6022
31
0
12
227.4911
22
162.6033
32
0
13
227.4911
23
162.6033
33
0
0
SOLID
8
SOMBRA
62
252
10
227.8476
20
162.7408
30
0
11
227.8427
21
163.5554
31
0
12
227.4911
22
163.4198
32
0
13
227.4911
23
163.4198
33
0
0
SOLID
8
SOMBRA
62
254
10
228.6459
20
163.7486
30
0
11
227.7613
21
163.6470
31
0
12
227.6060
22
163.5448
32
0
13
227.6060
23
163.5448
33
0
0
SOLID
8
SOMBRA
62
252
10
231.8312
20
162.4401
30
0
11
231.5089
21
163.4198
31
0
12
231.5089
22
162.6033
32
0
13
231.5089
23
162.6033
33
0
0
SOLID
8
SOMBRA
62
252
10
231.5065
20
162.6042
30
0
11
231.5016
21
163.4226
31
0
12
231.1500
22
163.5582
32
0
13
231.1500
23
163.5582
33
0
0
SOLID
8
SOMBRA
62
252
10
227.4889
20
162.6022
30
0
11
227.1665
21
163.2555
31
0
12
227.1665
22
162.4390
32
0
13
227.1665
23
162.4390
33
0
0
SOLID
8
SOMBRA
62
252
10
231.5016
20
163.4226
30
0
11
231.5089
21
162.6033
31
0
12
231.5089
22
163.4198
32
0
13
231.5089
23
163.4198
33
0
0
SOLID
8
SOMBRA
62
252
10
227.4845
20
163.4164
30
0
11
227.4911
21
162.6033
31
0
12
227.4911
22
163.4198
32
0
13
227.4911
23
163.4198
33
0
0
SOLID
8
SOMBRA
62
254
10
228.2371
20
163.6685
30
0
11
227.6060
21
163.5448
31
0
12
227.4561
22
163.4461
32
0
13
227.4561
23
163.4461
33
0
0
SOLID
8
SOMBRA
62
252
10
231.8268
20
163.2588
30
0
11
231.8312
21
162.4401
31
0
12
231.8335
22
162.4390
32
0
13
231.8335
23
162.4390
33
0
0
SOLID
8
SOMBRA
62
252
10
227.1607
20
163.2516
30
0
11
227.1646
21
162.4377
31
0
12
227.1665
22
162.4390
32
0
13
227.1665
23
162.4390
33
0
0
SOLID
8
SOMBRA
62
252
10
227.4889
20
162.6022
30
0
11
227.4845
21
163.4164
31
0
12
227.1665
22
163.2555
32
0
13
227.1665
23
163.2555
33
0
0
SOLID
8
SOMBRA
62
252
10
232.1161
20
162.2529
30
0
11
231.8335
21
163.2555
31
0
12
231.8335
22
162.4390
32
0
13
231.8335
23
162.4390
33
0
0
SOLID
8
SOMBRA
62
254
10
227.8500
20
163.5583
30
0
11
227.4561
21
163.4461
31
0
12
227.3101
22
163.3500
32
0
13
227.3101
23
163.3500
33
0
0
SOLID
8
SOMBRA
62
252
10
231.8312
20
162.4401
30
0
11
231.8268
21
163.2588
31
0
12
231.5089
22
163.4198
32
0
13
231.5089
23
163.4198
33
0
0
SOLID
8
SOMBRA
62
252
10
227.1646
20
162.4377
30
0
11
226.8819
21
163.0681
31
0
12
226.8819
22
162.2516
32
0
13
226.8819
23
162.2516
33
0
0
SOLID
8
SOMBRA
62
252
10
231.8268
20
163.2588
30
0
11
231.8335
21
162.4390
31
0
12
231.8335
22
163.2555
32
0
13
231.8335
23
163.2555
33
0
0
SOLID
8
SOMBRA
62
252
10
227.1607
20
163.2516
30
0
11
227.1665
21
162.4390
31
0
12
227.1665
22
163.2555
32
0
13
227.1665
23
163.2555
33
0
0
SOLID
8
SOMBRA
62
252
10
232.1123
20
163.0719
30
0
11
232.1161
21
162.2529
31
0
12
232.1181
22
162.2516
32
0
13
232.1181
23
162.2516
33
0
0
SOLID
8
SOMBRA
62
254
10
227.4911
20
163.4198
30
0
11
227.3101
21
163.3500
31
0
12
227.1665
22
163.2555
32
0
13
227.1665
23
163.2555
33
0
0
SOLID
8
SOMBRA
62
252
10
226.8770
20
163.0639
30
0
11
226.8803
21
162.2502
31
0
12
226.8819
22
162.2516
32
0
13
226.8819
23
162.2516
33
0
0
SOLID
8
SOMBRA
62
252
10
227.1646
20
162.4377
30
0
11
227.1607
21
163.2516
31
0
12
226.8819
22
163.0681
32
0
13
226.8819
23
163.0681
33
0
0
SOLID
8
SOMBRA
62
252
10
232.3563
20
162.0458
30
0
11
232.1181
21
163.0681
31
0
12
232.1181
22
162.2516
32
0
13
232.1181
23
162.2516
33
0
0
SOLID
8
SOMBRA
62
252
10
232.1161
20
162.2529
30
0
11
232.1123
21
163.0719
31
0
12
231.8335
22
163.2555
32
0
13
231.8335
23
163.2555
33
0
0
SOLID
8
SOMBRA
62
252
10
260.6163
20
162.7268
30
0
11
230.3541
21
159.2514
31
0
12
254.4369
22
163.9712
32
0
13
254.4369
23
163.9712
33
0
0
SOLID
8
SOMBRA
62
252
10
232.1123
20
163.0719
30
0
11
232.1181
21
162.2516
31
0
12
232.1181
22
163.0681
32
0
13
232.1181
23
163.0681
33
0
0
SOLID
8
SOMBRA
62
252
10
226.8770
20
163.0639
30
0
11
226.8819
21
162.2516
31
0
12
226.8819
22
163.0681
32
0
13
226.8819
23
163.0681
33
0
0
SOLID
8
SOMBRA
62
252
10
226.8803
20
162.2502
30
0
11
226.6421
21
162.8609
31
0
12
226.6421
22
162.0444
32
0
13
226.6421
23
162.0444
33
0
0
SOLID
8
SOMBRA
62
254
10
230.3541
20
160.0679
30
0
11
260.6163
21
163.5433
31
0
12
264.8553
22
165.9907
32
0
13
264.8553
23
165.9907
33
0
0
SOLID
8
SOMBRA
62
252
10
230.7628
20
159.3315
30
0
11
242.0247
21
162.5380
31
0
12
254.4369
22
163.9712
32
0
13
254.4369
23
163.9712
33
0
0
SOLID
8
SOMBRA
62
252
10
232.3530
20
162.8651
30
0
11
232.3563
21
162.0458
31
0
12
232.3579
22
162.0444
32
0
13
232.3579
23
162.0444
33
0
0
SOLID
8
SOMBRA
62
252
10
226.8803
20
162.2502
30
0
11
226.8770
21
163.0639
31
0
12
226.6421
22
162.8609
32
0
13
226.6421
23
162.8609
33
0
0
SOLID
8
SOMBRA
62
252
10
226.6382
20
162.8563
30
0
11
226.6408
21
162.0429
31
0
12
226.6421
22
162.0444
32
0
13
226.6421
23
162.0444
33
0
0
SOLID
8
SOMBRA
62
252
10
232.3563
20
162.0458
30
0
11
232.3530
21
162.8651
31
0
12
232.1181
22
163.0681
32
0
13
232.1181
23
163.0681
33
0
0
SOLID
8
SOMBRA
62
252
10
232.5475
20
161.8224
30
0
11
232.3579
21
162.8609
31
0
12
232.3579
22
162.0444
32
0
13
232.3579
23
162.0444
33
0
0
SOLID
8
SOMBRA
62
252
10
232.3530
20
162.8651
30
0
11
232.3579
21
162.0444
31
0
12
232.3579
22
162.8609
32
0
13
232.3579
23
162.8609
33
0
0
SOLID
8
SOMBRA
62
252
10
226.6382
20
162.8563
30
0
11
226.6421
21
162.0444
31
0
12
226.6421
22
162.8609
32
0
13
226.6421
23
162.8609
33
0
0
SOLID
8
SOMBRA
62
252
10
256.2366
20
160.1982
30
0
11
260.6163
21
162.7268
31
0
12
260.6163
22
163.4618
32
0
13
260.6163
23
163.4618
33
0
0
SOLID
8
SOMBRA
62
252
10
226.6408
20
162.0429
30
0
11
226.4512
21
162.6374
31
0
12
226.4512
22
161.8209
32
0
13
226.4512
23
161.8209
33
0
0
SOLID
8
SOMBRA
62
252
10
226.6408
20
162.0429
30
0
11
226.6382
21
162.8563
31
0
12
226.4512
22
162.6374
32
0
13
226.4512
23
162.6374
33
0
0
SOLID
8
SOMBRA
62
252
10
232.5449
20
162.6419
30
0
11
232.5475
21
161.8224
31
0
12
232.5488
22
161.8209
32
0
13
232.5488
23
161.8209
33
0
0
SOLID
8
SOMBRA
62
252
10
226.4484
20
162.6325
30
0
11
226.4503
21
161.8193
31
0
12
226.4512
22
161.8209
32
0
13
226.4512
23
161.8209
33
0
0
SOLID
8
SOMBRA
62
252
10
232.5475
20
161.8224
30
0
11
232.5449
21
162.6419
31
0
12
232.3579
22
162.8609
32
0
13
232.3579
23
162.8609
33
0
0
SOLID
8
SOMBRA
62
252
10
232.6866
20
161.5865
30
0
11
232.5488
21
162.6374
31
0
12
232.5488
22
161.8209
32
0
13
232.5488
23
161.8209
33
0
0
SOLID
8
SOMBRA
62
252
10
232.5449
20
162.6419
30
0
11
232.5488
21
161.8209
31
0
12
232.5488
22
162.6374
32
0
13
232.5488
23
162.6374
33
0
0
SOLID
8
SOMBRA
62
252
10
226.4484
20
162.6325
30
0
11
226.4512
21
161.8209
31
0
12
226.4512
22
162.6374
32
0
13
226.4512
23
162.6374
33
0
0
SOLID
8
SOMBRA
62
252
10
226.4503
20
161.8193
30
0
11
226.3124
21
162.4014
31
0
12
226.3124
22
161.5849
32
0
13
226.3124
23
161.5849
33
0
0
SOLID
8
SOMBRA
62
252
10
256.2366
20
160.8489
30
0
11
260.6163
21
163.4618
31
0
12
260.6163
22
163.5433
32
0
13
260.6163
23
163.5433
33
0
0
SOLID
8
SOMBRA
62
252
10
226.4503
20
161.8193
30
0
11
226.4484
21
162.6325
31
0
12
226.3124
22
162.4014
32
0
13
226.3124
23
162.4014
33
0
0
SOLID
8
SOMBRA
62
252
10
232.6847
20
162.4062
30
0
11
232.6866
21
161.5865
31
0
12
232.6876
22
161.5849
32
0
13
232.6876
23
161.5849
33
0
0
SOLID
8
SOMBRA
62
252
10
226.3107
20
162.3964
30
0
11
226.3119
21
161.5832
31
0
12
226.3124
22
161.5849
32
0
13
226.3124
23
161.5849
33
0
0
SOLID
8
SOMBRA
62
252
10
232.7718
20
161.3404
30
0
11
232.7290
21
161.4646
31
0
12
232.7573
22
161.4679
32
0
13
232.7573
23
161.4679
33
0
0
SOLID
8
SOMBRA
62
252
10
232.6866
20
161.5865
30
0
11
232.6847
21
162.4062
31
0
12
232.5488
22
162.6374
32
0
13
232.5488
23
162.6374
33
0
0
SOLID
8
SOMBRA
62
252
10
232.7712
20
161.3421
30
0
11
232.6876
21
162.4014
31
0
12
232.6876
22
161.5849
32
0
13
232.6876
23
161.5849
33
0
0
SOLID
8
SOMBRA
62
252
10
231.1500
20
159.4418
30
0
11
237.9591
21
162.0685
31
0
12
242.0247
22
162.5380
32
0
13
242.0247
23
162.5380
33
0
0
SOLID
8
SOMBRA
62
252
10
232.8000
20
161.0918
30
0
11
232.7573
21
161.4679
31
0
12
232.8438
22
161.4779
32
0
13
232.8438
23
161.4779
33
0
0
SOLID
8
SOMBRA
62
252
10
232.6847
20
162.4062
30
0
11
232.6876
21
161.5849
31
0
12
232.6876
22
162.4014
32
0
13
232.6876
23
162.4014
33
0
0
SOLID
8
SOMBRA
62
252
10
226.3107
20
162.3964
30
0
11
226.3124
21
161.5849
31
0
12
226.3124
22
162.4014
32
0
13
226.3124
23
162.4014
33
0
0
SOLID
8
SOMBRA
62
252
10
226.3119
20
161.5832
30
0
11
226.2282
21
162.1569
31
0
12
226.2282
22
161.3404
32
0
13
226.2282
23
161.3404
33
0
0
SOLID
8
SOMBRA
62
252
10
232.7718
20
160.8431
30
0
11
232.8438
21
161.4779
31
0
12
232.9966
22
161.4955
32
0
13
232.9966
23
161.4955
33
0
0
SOLID
8
SOMBRA
62
252
10
226.3119
20
161.5832
30
0
11
226.3107
21
162.3964
31
0
12
226.2282
22
162.1569
32
0
13
226.2282
23
162.1569
33
0
0
SOLID
8
SOMBRA
62
252
10
232.7701
20
162.1619
30
0
11
232.7712
21
161.3421
31
0
12
232.7718
22
161.3404
32
0
13
232.7718
23
161.3404
33
0
0
SOLID
8
SOMBRA
62
252
10
232.6876
20
160.5986
30
0
11
232.9966
21
161.4955
31
0
12
233.2308
22
161.5225
32
0
13
233.2308
23
161.5225
33
0
0
SOLID
8
SOMBRA
62
252
10
226.2277
20
162.1519
30
0
11
226.2280
21
161.3387
31
0
12
226.2282
22
161.3404
32
0
13
226.2282
23
161.3404
33
0
0
SOLID
8
SOMBRA
62
252
10
231.5089
20
159.5802
30
0
11
235.9697
21
161.8388
31
0
12
237.9591
22
162.0685
32
0
13
237.9591
23
162.0685
33
0
0
SOLID
8
SOMBRA
62
252
10
232.7712
20
161.3421
30
0
11
232.7701
21
162.1619
31
0
12
232.6876
22
162.4014
32
0
13
232.6876
23
162.4014
33
0
0
SOLID
8
SOMBRA
62
252
10
232.5488
20
160.3626
30
0
11
233.2308
21
161.5225
31
0
12
233.5733
22
161.5621
32
0
13
233.5733
23
161.5621
33
0
0
SOLID
8
SOMBRA
62
252
10
232.7998
20
161.0934
30
0
11
232.7718
21
162.1569
31
0
12
232.7718
22
161.3404
32
0
13
232.7718
23
161.3404
33
0
0
SOLID
8
SOMBRA
62
252
10
232.3579
20
160.1391
30
0
11
233.5733
21
161.5621
31
0
12
234.0713
22
161.6196
32
0
13
234.0713
23
161.6196
33
0
0
SOLID
8
SOMBRA
62
252
10
224.9287
20
160.5639
30
0
11
224.1885
21
160.4784
31
0
12
226.8819
22
162.2516
32
0
13
226.8819
23
162.2516
33
0
0
SOLID
8
SOMBRA
62
252
10
231.8335
20
159.7445
30
0
11
234.8115
21
161.7051
31
0
12
235.9697
22
161.8388
32
0
13
235.9697
23
161.8388
33
0
0
SOLID
8
SOMBRA
62
252
10
232.1181
20
159.9319
30
0
11
234.0713
21
161.6196
31
0
12
234.8115
22
161.7051
32
0
13
234.8115
23
161.7051
33
0
0
SOLID
8
SOMBRA
62
252
10
225.4267
20
160.6214
30
0
11
224.9287
21
160.5639
31
0
12
226.6421
22
162.0444
32
0
13
226.6421
23
162.0444
33
0
0
SOLID
8
SOMBRA
62
252
10
232.7701
20
162.1619
30
0
11
232.7718
21
161.3404
31
0
12
232.7718
22
162.1569
32
0
13
232.7718
23
162.1569
33
0
0
SOLID
8
SOMBRA
62
252
10
226.2277
20
162.1519
30
0
11
226.2282
21
161.3404
31
0
12
226.2282
22
162.1569
32
0
13
226.2282
23
162.1569
33
0
0
SOLID
8
SOMBRA
62
252
10
226.2280
20
161.3387
30
0
11
226.2000
21
161.9082
31
0
12
226.2000
22
161.0918
32
0
13
226.2000
23
161.0918
33
0
0
SOLID
8
SOMBRA
62
252
10
225.7692
20
160.6610
30
0
11
225.4267
21
160.6214
31
0
12
226.4512
22
161.8209
32
0
13
226.4512
23
161.8209
33
0
0
SOLID
8
SOMBRA
62
252
10
226.2280
20
161.3387
30
0
11
226.2277
21
162.1519
31
0
12
226.2000
22
161.9082
32
0
13
226.2000
23
161.9082
33
0
0
SOLID
8
SOMBRA
62
252
10
226.0034
20
160.6880
30
0
11
225.7692
21
160.6610
31
0
12
226.3124
22
161.5849
32
0
13
226.3124
23
161.5849
33
0
0
SOLID
8
SOMBRA
62
252
10
232.7994
20
161.9133
30
0
11
232.7998
21
161.0934
31
0
12
232.8000
22
161.0918
32
0
13
232.8000
23
161.0918
33
0
0
SOLID
8
SOMBRA
62
252
10
226.2006
20
161.9032
30
0
11
226.2002
21
161.0901
31
0
12
226.2000
22
161.0918
32
0
13
226.2000
23
161.0918
33
0
0
SOLID
8
SOMBRA
62
252
10
226.1562
20
160.7056
30
0
11
226.0034
21
160.6880
31
0
12
226.2282
22
161.3404
32
0
13
226.2282
23
161.3404
33
0
0
SOLID
8
SOMBRA
62
252
10
232.7998
20
161.0934
30
0
11
232.7994
21
161.9133
31
0
12
232.7718
22
162.1569
32
0
13
232.7718
23
162.1569
33
0
0
SOLID
8
SOMBRA
62
252
10
232.7720
20
160.8448
30
0
11
232.8000
21
161.9082
31
0
12
232.8000
22
161.0918
32
0
13
232.8000
23
161.0918
33
0
0
SOLID
8
SOMBRA
62
252
10
226.2427
20
160.7156
30
0
11
226.1562
21
160.7056
31
0
12
226.2000
22
161.0918
32
0
13
226.2000
23
161.0918
33
0
0
SOLID
8
SOMBRA
62
252
10
232.7994
20
161.9133
30
0
11
232.8000
21
161.0918
31
0
12
232.8000
22
161.9082
32
0
13
232.8000
23
161.9082
33
0
0
SOLID
8
SOMBRA
62
252
10
226.2006
20
161.9032
30
0
11
226.2000
21
161.0918
31
0
12
226.2000
22
161.9082
32
0
13
226.2000
23
161.9082
33
0
0
SOLID
8
SOMBRA
62
252
10
256.2366
20
160.1982
30
0
11
260.6163
21
163.4618
31
0
12
256.2366
22
160.8489
32
0
13
256.2366
23
160.8489
33
0
0
SOLID
8
SOMBRA
62
252
10
226.2002
20
161.0901
30
0
11
226.2282
21
161.6596
31
0
12
226.2282
22
160.8431
32
0
13
226.2282
23
160.8431
33
0
0
SOLID
8
SOMBRA
62
252
10
226.2710
20
160.7189
30
0
11
226.2427
21
160.7156
31
0
12
226.2282
22
160.8431
32
0
13
226.2282
23
160.8431
33
0
0
SOLID
8
SOMBRA
62
252
10
226.2002
20
161.0901
30
0
11
226.2006
21
161.9032
31
0
12
226.2282
22
161.6596
32
0
13
226.2282
23
161.6596
33
0
0
SOLID
8
SOMBRA
62
252
10
260.6163
20
162.7268
30
0
11
256.2366
21
160.1982
31
0
12
229.9307
22
159.2028
32
0
13
229.9307
23
159.2028
33
0
0
SOLID
8
SOMBRA
62
252
10
232.7723
20
161.6646
30
0
11
232.7720
21
160.8448
31
0
12
232.7718
22
160.8431
32
0
13
232.7718
23
160.8431
33
0
0
SOLID
8
SOMBRA
62
252
10
226.2299
20
161.6546
30
0
11
226.2288
21
160.8414
31
0
12
226.2282
22
160.8431
32
0
13
226.2282
23
160.8431
33
0
0
SOLID
8
SOMBRA
62
252
10
256.2366
20
160.8489
30
0
11
260.6163
21
163.5433
31
0
12
256.2366
22
161.0147
32
0
13
256.2366
23
161.0147
33
0
0
SOLID
8
SOMBRA
62
252
10
232.7720
20
160.8448
30
0
11
232.7723
21
161.6646
31
0
12
232.8000
22
161.9082
32
0
13
232.8000
23
161.9082
33
0
0
SOLID
8
SOMBRA
62
253
10
232.6881
20
160.6003
30
0
11
232.7718
21
161.6596
31
0
12
232.7718
22
160.8431
32
0
13
232.7718
23
160.8431
33
0
0
SOLID
8
SOMBRA
62
252
10
232.7723
20
161.6646
30
0
11
232.7718
21
160.8431
31
0
12
232.7718
22
161.6596
32
0
13
232.7718
23
161.6596
33
0
0
SOLID
8
SOMBRA
62
252
10
226.2299
20
161.6546
30
0
11
226.2282
21
160.8431
31
0
12
226.2282
22
161.6596
32
0
13
226.2282
23
161.6596
33
0
0
SOLID
8
SOMBRA
62
252
10
226.2288
20
160.8414
30
0
11
226.3124
21
161.4151
31
0
12
226.3124
22
160.5986
32
0
13
226.3124
23
160.5986
33
0
0
SOLID
8
SOMBRA
62
252
10
226.2288
20
160.8414
30
0
11
226.2299
21
161.6546
31
0
12
226.3124
22
161.4151
32
0
13
226.3124
23
161.4151
33
0
0
SOLID
8
SOMBRA
62
253
10
232.6893
20
161.4201
30
0
11
232.6881
21
160.6003
31
0
12
232.6876
22
160.5986
32
0
13
232.6876
23
160.5986
33
0
0
SOLID
8
SOMBRA
62
252
10
226.3153
20
161.4103
30
0
11
226.3134
21
160.5970
31
0
12
226.3124
22
160.5986
32
0
13
226.3124
23
160.5986
33
0
0
SOLID
8
SOMBRA
62
253
10
232.6881
20
160.6003
30
0
11
232.6893
21
161.4201
31
0
12
232.7718
22
161.6596
32
0
13
232.7718
23
161.6596
33
0
0
SOLID
8
SOMBRA
62
253
10
232.5497
20
160.3642
30
0
11
232.6876
21
161.4151
31
0
12
232.6876
22
160.5986
32
0
13
232.6876
23
160.5986
33
0
0
SOLID
8
SOMBRA
62
253
10
232.6893
20
161.4201
30
0
11
232.6876
21
160.5986
31
0
12
232.6876
22
161.4151
32
0
13
232.6876
23
161.4151
33
0
0
SOLID
8
SOMBRA
62
252
10
226.3153
20
161.4103
30
0
11
226.3124
21
160.5986
31
0
12
226.3124
22
161.4151
32
0
13
226.3124
23
161.4151
33
0
0
SOLID
8
SOMBRA
62
252
10
226.3134
20
160.5970
30
0
11
226.4512
21
161.1791
31
0
12
226.4512
22
160.3626
32
0
13
226.4512
23
160.3626
33
0
0
SOLID
8
SOMBRA
62
254
10
229.9307
20
160.0193
30
0
11
256.2366
21
161.0147
31
0
12
260.6163
22
163.5433
32
0
13
260.6163
23
163.5433
33
0
0
SOLID
8
SOMBRA
62
252
10
226.3134
20
160.5970
30
0
11
226.3153
21
161.4103
31
0
12
226.4512
22
161.1791
32
0
13
226.4512
23
161.1791
33
0
0
SOLID
8
SOMBRA
62
253
10
232.5516
20
161.1839
30
0
11
232.5497
21
160.3642
31
0
12
232.5488
22
160.3626
32
0
13
232.5488
23
160.3626
33
0
0
SOLID
8
SOMBRA
62
252
10
226.4551
20
161.1746
30
0
11
226.4525
21
160.3611
31
0
12
226.4512
22
160.3626
32
0
13
226.4512
23
160.3626
33
0
0
SOLID
8
SOMBRA
62
253
10
232.5497
20
160.3642
30
0
11
232.5516
21
161.1839
31
0
12
232.6876
22
161.4151
32
0
13
232.6876
23
161.4151
33
0
0
SOLID
8
SOMBRA
62
253
10
232.3592
20
160.1406
30
0
11
232.5488
21
161.1791
31
0
12
232.5488
22
160.3626
32
0
13
232.5488
23
160.3626
33
0
0
SOLID
8
SOMBRA
62
253
10
232.5516
20
161.1839
30
0
11
232.5488
21
160.3626
31
0
12
232.5488
22
161.1791
32
0
13
232.5488
23
161.1791
33
0
0
SOLID
8
SOMBRA
62
252
10
226.4551
20
161.1746
30
0
11
226.4512
21
160.3626
31
0
12
226.4512
22
161.1791
32
0
13
226.4512
23
161.1791
33
0
0
SOLID
8
SOMBRA
62
252
10
226.4525
20
160.3611
30
0
11
226.6421
21
160.9556
31
0
12
226.6421
22
160.1391
32
0
13
226.6421
23
160.1391
33
0
0
SOLID
8
SOMBRA
62
252
10
226.4525
20
160.3611
30
0
11
226.4551
21
161.1746
31
0
12
226.6421
22
160.9556
32
0
13
226.6421
23
160.9556
33
0
0
SOLID
8
SOMBRA
62
253
10
232.3618
20
160.9602
30
0
11
232.3592
21
160.1406
31
0
12
232.3579
22
160.1391
32
0
13
232.3579
23
160.1391
33
0
0
SOLID
8
SOMBRA
62
253
10
226.6470
20
160.9514
30
0
11
226.6437
21
160.1377
31
0
12
226.6421
22
160.1391
32
0
13
226.6421
23
160.1391
33
0
0
SOLID
8
SOMBRA
62
253
10
232.3592
20
160.1406
30
0
11
232.3618
21
160.9602
31
0
12
232.5488
22
161.1791
32
0
13
232.5488
23
161.1791
33
0
0
SOLID
8
SOMBRA
62
253
10
232.1197
20
159.9333
30
0
11
232.3579
21
160.9556
31
0
12
232.3579
22
160.1391
32
0
13
232.3579
23
160.1391
33
0
0
SOLID
8
SOMBRA
62
253
10
232.3618
20
160.9602
30
0
11
232.3579
21
160.1391
31
0
12
232.3579
22
160.9556
32
0
13
232.3579
23
160.9556
33
0
0
SOLID
8
SOMBRA
62
253
10
226.6470
20
160.9514
30
0
11
226.6421
21
160.1391
31
0
12
226.6421
22
160.9556
32
0
13
226.6421
23
160.9556
33
0
0
SOLID
8
SOMBRA
62
253
10
226.6437
20
160.1377
30
0
11
226.8819
21
160.7484
31
0
12
226.8819
22
159.9319
32
0
13
226.8819
23
159.9319
33
0
0
SOLID
8
SOMBRA
62
253
10
232.1230
20
160.7526
30
0
11
232.1197
21
159.9333
31
0
12
232.1181
22
159.9319
32
0
13
232.1181
23
159.9319
33
0
0
SOLID
8
SOMBRA
62
253
10
226.6437
20
160.1377
30
0
11
226.6470
21
160.9514
31
0
12
226.8819
22
160.7484
32
0
13
226.8819
23
160.7484
33
0
0
SOLID
8
SOMBRA
62
253
10
226.8877
20
160.7446
30
0
11
226.8839
21
159.9306
31
0
12
226.8819
22
159.9319
32
0
13
226.8819
23
159.9319
33
0
0
SOLID
8
SOMBRA
62
253
10
231.8354
20
159.7458
30
0
11
232.1181
21
160.7484
31
0
12
232.1181
22
159.9319
32
0
13
232.1181
23
159.9319
33
0
0
SOLID
8
SOMBRA
62
253
10
232.1197
20
159.9333
30
0
11
232.1230
21
160.7526
31
0
12
232.3579
22
160.9556
32
0
13
232.3579
23
160.9556
33
0
0
SOLID
8
SOMBRA
62
253
10
226.8839
20
159.9306
30
0
11
227.1665
21
160.5610
31
0
12
227.1665
22
159.7445
32
0
13
227.1665
23
159.7445
33
0
0
SOLID
8
SOMBRA
62
253
10
232.1230
20
160.7526
30
0
11
232.1181
21
159.9319
31
0
12
232.1181
22
160.7484
32
0
13
232.1181
23
160.7484
33
0
0
SOLID
8
SOMBRA
62
253
10
226.8877
20
160.7446
30
0
11
226.8819
21
159.9319
31
0
12
226.8819
22
160.7484
32
0
13
226.8819
23
160.7484
33
0
0
SOLID
8
SOMBRA
62
253
10
231.8393
20
160.5648
30
0
11
231.8354
21
159.7458
31
0
12
231.8335
22
159.7445
32
0
13
231.8335
23
159.7445
33
0
0
SOLID
8
SOMBRA
62
253
10
227.1732
20
160.5577
30
0
11
227.1688
21
159.7434
31
0
12
227.1665
22
159.7445
32
0
13
227.1665
23
159.7445
33
0
0
SOLID
8
SOMBRA
62
253
10
226.8839
20
159.9306
30
0
11
226.8877
21
160.7446
31
0
12
227.1665
22
160.5610
32
0
13
227.1665
23
160.5610
33
0
0
SOLID
8
SOMBRA
62
253
10
231.5111
20
159.5813
30
0
11
231.8335
21
160.5610
31
0
12
231.8335
22
159.7445
32
0
13
231.8335
23
159.7445
33
0
0
SOLID
8
SOMBRA
62
253
10
231.8354
20
159.7458
30
0
11
231.8393
21
160.5648
31
0
12
232.1181
22
160.7484
32
0
13
232.1181
23
160.7484
33
0
0
SOLID
8
SOMBRA
62
253
10
227.1688
20
159.7434
30
0
11
227.4911
21
160.3967
31
0
12
227.4911
22
159.5802
32
0
13
227.4911
23
159.5802
33
0
0
SOLID
8
SOMBRA
62
253
10
231.8393
20
160.5648
30
0
11
231.8335
21
159.7445
31
0
12
231.8335
22
160.5610
32
0
13
231.8335
23
160.5610
33
0
0
SOLID
8
SOMBRA
62
253
10
227.1732
20
160.5577
30
0
11
227.1665
21
159.7445
31
0
12
227.1665
22
160.5610
32
0
13
227.1665
23
160.5610
33
0
0
SOLID
8
SOMBRA
62
252
10
252.9475
20
158.2992
30
0
11
256.2366
21
160.1982
31
0
12
256.2366
22
160.8489
32
0
13
256.2366
23
160.8489
33
0
0
SOLID
8
SOMBRA
62
253
10
231.5155
20
160.4001
30
0
11
231.5111
21
159.5813
31
0
12
231.5089
22
159.5802
32
0
13
231.5089
23
159.5802
33
0
0
SOLID
8
SOMBRA
62
253
10
227.4984
20
160.3939
30
0
11
227.4935
21
159.5793
31
0
12
227.4911
22
159.5802
32
0
13
227.4911
23
159.5802
33
0
0
SOLID
8
SOMBRA
62
253
10
227.1688
20
159.7434
30
0
11
227.1732
21
160.5577
31
0
12
227.4911
22
160.3967
32
0
13
227.4911
23
160.3967
33
0
0
SOLID
8
SOMBRA
62
253
10
231.1524
20
159.4427
30
0
11
231.5089
21
160.3967
31
0
12
231.5089
22
159.5802
32
0
13
231.5089
23
159.5802
33
0
0
SOLID
8
SOMBRA
62
253
10
231.5111
20
159.5813
30
0
11
231.5155
21
160.4001
31
0
12
231.8335
22
160.5610
32
0
13
231.8335
23
160.5610
33
0
0
SOLID
8
SOMBRA
62
253
10
227.4935
20
159.5793
30
0
11
227.8500
21
160.2582
31
0
12
227.8500
22
159.4418
32
0
13
227.8500
23
159.4418
33
0
0
SOLID
8
SOMBRA
62
253
10
231.5155
20
160.4001
30
0
11
231.5089
21
159.5802
31
0
12
231.5089
22
160.3967
32
0
13
231.5089
23
160.3967
33
0
0
SOLID
8
SOMBRA
62
253
10
227.4984
20
160.3939
30
0
11
227.4911
21
159.5802
31
0
12
227.4911
22
160.3967
32
0
13
227.4911
23
160.3967
33
0
0
SOLID
8
SOMBRA
62
253
10
231.1573
20
160.2611
30
0
11
231.1524
21
159.4427
31
0
12
231.1500
22
159.4418
32
0
13
231.1500
23
159.4418
33
0
0
SOLID
8
SOMBRA
62
253
10
227.8579
20
160.2560
30
0
11
227.8526
21
159.4410
31
0
12
227.8500
22
159.4418
32
0
13
227.8500
23
159.4418
33
0
0
SOLID
8
SOMBRA
62
253
10
230.7655
20
159.3323
30
0
11
231.1500
21
160.2582
31
0
12
231.1500
22
159.4418
32
0
13
231.1500
23
159.4418
33
0
0
SOLID
8
SOMBRA
62
253
10
227.4935
20
159.5793
30
0
11
227.4984
21
160.3939
31
0
12
227.8500
22
160.2582
32
0
13
227.8500
23
160.2582
33
0
0
SOLID
8
SOMBRA
62
253
10
227.8526
20
159.4410
30
0
11
228.2371
21
160.1480
31
0
12
228.2371
22
159.3315
32
0
13
228.2371
23
159.3315
33
0
0
SOLID
8
SOMBRA
62
252
10
256.2366
20
160.1982
30
0
11
252.9475
21
158.2992
31
0
12
229.5000
22
159.1865
32
0
13
229.5000
23
159.1865
33
0
0
SOLID
8
SOMBRA
62
252
10
252.9475
20
158.8865
30
0
11
256.2366
21
160.8489
31
0
12
256.2366
22
161.0147
32
0
13
256.2366
23
161.0147
33
0
0
SOLID
8
SOMBRA
62
253
10
231.1524
20
159.4427
30
0
11
231.1573
21
160.2611
31
0
12
231.5089
22
160.3967
32
0
13
231.5089
23
160.3967
33
0
0
SOLID
8
SOMBRA
62
253
10
230.7707
20
160.1503
30
0
11
230.7655
21
159.3323
31
0
12
230.7629
22
159.3315
32
0
13
230.7629
23
159.3315
33
0
0
SOLID
8
SOMBRA
62
253
10
228.2455
20
160.1464
30
0
11
228.2399
21
159.3310
31
0
12
228.2371
22
159.3315
32
0
13
228.2371
23
159.3315
33
0
0
SOLID
8
SOMBRA
62
253
10
231.1573
20
160.2611
30
0
11
231.1500
21
159.4418
31
0
12
231.1500
22
160.2582
32
0
13
231.1500
23
160.2582
33
0
0
SOLID
8
SOMBRA
62
253
10
230.3569
20
159.2520
30
0
11
230.7629
21
160.1480
31
0
12
230.7629
22
159.3315
32
0
13
230.7629
23
159.3315
33
0
0
SOLID
8
SOMBRA
62
253
10
227.8579
20
160.2560
30
0
11
227.8500
21
159.4418
31
0
12
227.8500
22
160.2582
32
0
13
227.8500
23
160.2582
33
0
0
SOLID
8
SOMBRA
62
253
10
228.2399
20
159.3310
30
0
11
228.6459
21
160.0679
31
0
12
228.6459
22
159.2514
32
0
13
228.6459
23
159.2514
33
0
0
SOLID
8
SOMBRA
62
253
10
227.8526
20
159.4410
30
0
11
227.8579
21
160.2560
31
0
12
228.2371
22
160.1480
32
0
13
228.2371
23
160.1480
33
0
0
SOLID
8
SOMBRA
62
253
10
230.3624
20
160.0695
30
0
11
230.3569
21
159.2520
31
0
12
230.3541
22
159.2514
32
0
13
230.3541
23
159.2514
33
0
0
SOLID
8
SOMBRA
62
253
10
228.6545
20
160.0669
30
0
11
228.6488
21
159.2511
31
0
12
228.6459
22
159.2514
32
0
13
228.6459
23
159.2514
33
0
0
SOLID
8
SOMBRA
62
253
10
229.9336
20
159.2031
30
0
11
230.3541
21
160.0679
31
0
12
230.3541
22
159.2514
32
0
13
230.3541
23
159.2514
33
0
0
SOLID
8
SOMBRA
62
253
10
230.7655
20
159.3323
30
0
11
230.7707
21
160.1503
31
0
12
231.1500
22
160.2582
32
0
13
231.1500
23
160.2582
33
0
0
SOLID
8
SOMBRA
62
253
10
228.6488
20
159.2511
30
0
11
229.0693
21
160.0193
31
0
12
229.0693
22
159.2028
32
0
13
229.0693
23
159.2028
33
0
0
SOLID
8
SOMBRA
62
253
10
229.9394
20
160.0203
30
0
11
229.9336
21
159.2031
31
0
12
229.9307
22
159.2028
32
0
13
229.9307
23
159.2028
33
0
0
SOLID
8
SOMBRA
62
253
10
229.0780
20
160.0190
30
0
11
229.0722
21
159.2027
31
0
12
229.0693
22
159.2028
32
0
13
229.0693
23
159.2028
33
0
0
SOLID
8
SOMBRA
62
253
10
229.5029
20
159.1866
30
0
11
229.9307
21
160.0193
31
0
12
229.9307
22
159.2028
32
0
13
229.9307
23
159.2028
33
0
0
SOLID
8
SOMBRA
62
253
10
230.7707
20
160.1503
30
0
11
230.7629
21
159.3315
31
0
12
230.7629
22
160.1480
32
0
13
230.7629
23
160.1480
33
0
0
SOLID
8
SOMBRA
62
253
10
228.2455
20
160.1464
30
0
11
228.2371
21
159.3315
31
0
12
228.2371
22
160.1480
32
0
13
228.2371
23
160.1480
33
0
0
SOLID
8
SOMBRA
62
253
10
229.0722
20
159.2027
30
0
11
229.5000
21
160.0030
31
0
12
229.5000
22
159.1865
32
0
13
229.5000
23
159.1865
33
0
0
SOLID
8
SOMBRA
62
253
10
229.5088
20
160.0033
30
0
11
229.5029
21
159.1866
31
0
12
229.5000
22
159.1865
32
0
13
229.5000
23
159.1865
33
0
0
SOLID
8
SOMBRA
62
253
10
228.2399
20
159.3310
30
0
11
228.2455
21
160.1464
31
0
12
228.6459
22
160.0679
32
0
13
228.6459
23
160.0679
33
0
0
SOLID
8
SOMBRA
62
253
10
230.3569
20
159.2520
30
0
11
230.3624
21
160.0695
31
0
12
230.7629
22
160.1480
32
0
13
230.7629
23
160.1480
33
0
0
SOLID
8
SOMBRA
62
253
10
230.3624
20
160.0695
30
0
11
230.3541
21
159.2514
31
0
12
230.3541
22
160.0679
32
0
13
230.3541
23
160.0679
33
0
0
SOLID
8
SOMBRA
62
253
10
228.6545
20
160.0669
30
0
11
228.6459
21
159.2514
31
0
12
228.6459
22
160.0679
32
0
13
228.6459
23
160.0679
33
0
0
SOLID
8
SOMBRA
62
253
10
228.6488
20
159.2511
30
0
11
228.6545
21
160.0669
31
0
12
229.0693
22
160.0193
32
0
13
229.0693
23
160.0193
33
0
0
SOLID
8
SOMBRA
62
253
10
229.9336
20
159.2031
30
0
11
229.9394
21
160.0203
31
0
12
230.3541
22
160.0679
32
0
13
230.3541
23
160.0679
33
0
0
SOLID
8
SOMBRA
62
253
10
229.9394
20
160.0203
30
0
11
229.9307
21
159.2028
31
0
12
229.9307
22
160.0193
32
0
13
229.9307
23
160.0193
33
0
0
SOLID
8
SOMBRA
62
253
10
229.0780
20
160.0190
30
0
11
229.0693
21
159.2028
31
0
12
229.0693
22
160.0193
32
0
13
229.0693
23
160.0193
33
0
0
SOLID
8
SOMBRA
62
253
10
229.0722
20
159.2027
30
0
11
229.0780
21
160.0190
31
0
12
229.5000
22
160.0030
32
0
13
229.5000
23
160.0030
33
0
0
SOLID
8
SOMBRA
62
253
10
229.5029
20
159.1866
30
0
11
229.5088
21
160.0033
31
0
12
229.9307
22
160.0193
32
0
13
229.9307
23
160.0193
33
0
0
SOLID
8
SOMBRA
62
253
10
229.5088
20
160.0033
30
0
11
229.5000
21
159.1865
31
0
12
229.5000
22
160.0030
32
0
13
229.5000
23
160.0030
33
0
0
SOLID
8
SOMBRA
62
254
10
228.2371
20
160.1480
30
0
11
228.8316
21
159.9788
31
0
12
228.8487
22
160.0282
32
0
13
228.8487
23
160.0282
33
0
0
SOLID
8
SOMBRA
62
254
10
228.6459
20
160.0679
30
0
11
228.8487
21
160.0282
31
0
12
228.8542
22
160.0440
32
0
13
228.8542
23
160.0440
33
0
0
SOLID
8
SOMBRA
62
254
10
229.5000
20
160.0030
30
0
11
252.9475
21
159.1157
31
0
12
256.2366
22
161.0147
32
0
13
256.2366
23
161.0147
33
0
0
SOLID
8
SOMBRA
62
254
10
227.8500
20
160.2582
30
0
11
228.8013
21
159.8913
31
0
12
228.8316
22
159.9788
32
0
13
228.8316
23
159.9788
33
0
0
SOLID
8
SOMBRA
62
254
10
227.4911
20
160.3967
30
0
11
228.7547
21
159.7569
31
0
12
228.8013
22
159.8913
32
0
13
228.8013
23
159.8913
33
0
0
SOLID
8
SOMBRA
62
254
10
227.1665
20
160.5610
30
0
11
228.6866
21
159.5603
31
0
12
228.7547
22
159.7569
32
0
13
228.7547
23
159.7569
33
0
0
SOLID
8
SOMBRA
62
252
10
252.9475
20
158.2992
30
0
11
256.2366
21
160.8489
31
0
12
252.9475
22
158.8865
32
0
13
252.9475
23
158.8865
33
0
0
SOLID
8
SOMBRA
62
254
10
226.8819
20
160.7484
30
0
11
228.5877
21
159.2745
31
0
12
228.6866
22
159.5603
32
0
13
228.6866
23
159.5603
33
0
0
SOLID
8
SOMBRA
62
252
10
252.9475
20
158.8865
30
0
11
256.2366
21
161.0147
31
0
12
252.9475
22
159.1157
32
0
13
252.9475
23
159.1157
33
0
0
SOLID
8
SOMBRA
62
254
10
226.6421
20
160.9556
30
0
11
228.4406
21
158.8500
31
0
12
228.5877
22
159.2745
32
0
13
228.5877
23
159.2745
33
0
0
SOLID
8
SOMBRA
62
254
10
226.4512
20
161.1791
30
0
11
228.2107
21
158.1865
31
0
12
228.4406
22
158.8500
32
0
13
228.4406
23
158.8500
33
0
0
SOLID
8
SOMBRA
62
252
10
252.9475
20
158.2992
30
0
11
250.2912
21
156.7656
31
0
12
229.0693
22
159.2028
32
0
13
229.0693
23
159.2028
33
0
0
SOLID
8
SOMBRA
62
252
10
250.2912
20
156.7656
30
0
11
252.9475
21
158.2992
31
0
12
252.9475
22
158.8865
32
0
13
252.9475
23
158.8865
33
0
0
SOLID
8
SOMBRA
62
254
10
229.0693
20
160.0193
30
0
11
250.2912
21
157.5821
31
0
12
252.9475
22
159.1157
32
0
13
252.9475
23
159.1157
33
0
0
SOLID
8
SOMBRA
62
254
10
226.3124
20
161.4151
30
0
11
227.8167
21
157.0490
31
0
12
228.2107
22
158.1865
32
0
13
228.2107
23
158.1865
33
0
0
SOLID
8
SOMBRA
62
254
10
248.0201
20
156.2709
30
0
11
228.8542
21
160.0440
31
0
12
228.8487
22
160.0282
32
0
13
228.8487
23
160.0282
33
0
0
SOLID
8
SOMBRA
62
252
10
250.2912
20
157.3018
30
0
11
252.9475
21
158.8865
31
0
12
252.9475
22
159.1157
32
0
13
252.9475
23
159.1157
33
0
0
SOLID
8
SOMBRA
62
252
10
250.2912
20
156.7656
30
0
11
248.0201
21
155.4544
31
0
12
228.6459
22
159.2514
32
0
13
228.6459
23
159.2514
33
0
0
SOLID
8
SOMBRA
62
254
10
245.9838
20
155.0952
30
0
11
228.8487
21
160.0282
31
0
12
228.8316
22
159.9788
32
0
13
228.8316
23
159.9788
33
0
0
SOLID
8
SOMBRA
62
252
10
250.2912
20
156.7656
30
0
11
252.9475
21
158.8865
31
0
12
250.2912
22
157.3018
32
0
13
250.2912
23
157.3018
33
0
0
SOLID
8
SOMBRA
62
252
10
250.2912
20
157.3018
30
0
11
252.9475
21
159.1157
31
0
12
250.2912
22
157.5821
32
0
13
250.2912
23
157.5821
33
0
0
SOLID
8
SOMBRA
62
254
10
248.0201
20
156.2709
30
0
11
250.2912
21
157.5821
31
0
12
228.8542
22
160.0440
32
0
13
228.8542
23
160.0440
33
0
0
SOLID
8
SOMBRA
62
254
10
244.0811
20
153.9967
30
0
11
228.8316
21
159.9788
31
0
12
228.8013
22
159.8913
32
0
13
228.8013
23
159.8913
33
0
0
SOLID
8
SOMBRA
62
254
10
230.7939
20
165.6435
30
0
11
194.1447
21
157.8258
31
0
12
207.3437
22
150.2053
32
0
13
207.3437
23
150.2053
33
0
0
SOLID
8
SOMBRA
62
254
10
226.2282
20
161.6596
30
0
11
227.0145
21
154.7333
31
0
12
227.8167
22
157.0490
32
0
13
227.8167
23
157.0490
33
0
0
SOLID
8
SOMBRA
62
252
10
248.0201
20
155.4544
30
0
11
245.9838
21
154.2787
31
0
12
228.2371
22
159.3315
32
0
13
228.2371
23
159.3315
33
0
0
SOLID
8
SOMBRA
62
254
10
242.2356
20
152.9312
30
0
11
228.8013
21
159.8913
31
0
12
228.7547
22
159.7569
32
0
13
228.7547
23
159.7569
33
0
0
SOLID
8
SOMBRA
62
252
10
210.1323
20
147.7788
30
0
11
224.1885
21
160.4784
31
0
12
224.9287
22
160.5639
32
0
13
224.9287
23
160.5639
33
0
0
SOLID
8
SOMBRA
62
252
10
248.0201
20
155.4544
30
0
11
250.2912
21
156.7656
31
0
12
250.2912
22
157.3018
32
0
13
250.2912
23
157.3018
33
0
0
SOLID
8
SOMBRA
62
252
10
248.0201
20
155.9469
30
0
11
250.2912
21
157.3018
31
0
12
250.2912
22
157.5821
32
0
13
250.2912
23
157.5821
33
0
0
SOLID
8
SOMBRA
62
254
10
245.9838
20
155.0952
30
0
11
248.0201
21
156.2709
31
0
12
228.8487
22
160.0282
32
0
13
228.8487
23
160.0282
33
0
0
SOLID
8
SOMBRA
62
254
10
240.3818
20
151.8609
30
0
11
228.7547
21
159.7569
31
0
12
228.6866
22
159.5603
32
0
13
228.6866
23
159.5603
33
0
0
SOLID
8
SOMBRA
62
252
10
213.0288
20
146.1065
30
0
11
224.9287
21
160.5639
31
0
12
225.4267
22
160.6214
32
0
13
225.4267
23
160.6214
33
0
0
SOLID
8
SOMBRA
62
252
10
231.3923
20
145.8543
30
0
11
226.2427
21
160.7156
31
0
12
226.2710
22
160.7189
32
0
13
226.2710
23
160.7189
33
0
0
SOLID
8
SOMBRA
62
252
10
248.0201
20
155.4544
30
0
11
250.2912
21
157.3018
31
0
12
248.0201
22
155.9469
32
0
13
248.0201
23
155.9469
33
0
0
SOLID
8
SOMBRA
62
252
10
245.9838
20
154.2787
30
0
11
244.0811
21
153.1802
31
0
12
227.8500
22
159.4418
32
0
13
227.8500
23
159.4418
33
0
0
SOLID
8
SOMBRA
62
252
10
207.3437
20
149.3888
30
0
11
194.1447
21
157.0093
31
0
12
224.1885
22
160.4784
32
0
13
224.1885
23
160.4784
33
0
0
SOLID
8
SOMBRA
62
252
10
248.0201
20
155.9469
30
0
11
250.2912
21
157.5821
31
0
12
248.0201
22
156.2709
32
0
13
248.0201
23
156.2709
33
0
0
SOLID
8
SOMBRA
62
254
10
238.4550
20
150.7485
30
0
11
228.6866
21
159.5603
31
0
12
228.5877
22
159.2745
32
0
13
228.5877
23
159.2745
33
0
0
SOLID
8
SOMBRA
62
252
10
216.1518
20
144.3035
30
0
11
225.4267
21
160.6214
31
0
12
225.7692
22
160.6610
32
0
13
225.7692
23
160.6610
33
0
0
SOLID
8
SOMBRA
62
252
10
228.1428
20
143.9782
30
0
11
226.1562
21
160.7056
31
0
12
226.2427
22
160.7156
32
0
13
226.2427
23
160.7156
33
0
0
SOLID
8
SOMBRA
62
254
10
244.0811
20
153.9967
30
0
11
245.9838
21
155.0952
31
0
12
228.8316
22
159.9788
32
0
13
228.8316
23
159.9788
33
0
0
SOLID
8
SOMBRA
62
252
10
245.9838
20
154.2787
30
0
11
248.0201
21
155.4544
31
0
12
248.0201
22
155.9469
32
0
13
248.0201
23
155.9469
33
0
0
SOLID
8
SOMBRA
62
252
10
244.0811
20
153.1802
30
0
11
242.2356
21
152.1147
31
0
12
227.4911
22
159.5802
32
0
13
227.4911
23
159.5802
33
0
0
SOLID
8
SOMBRA
62
252
10
245.9838
20
154.7321
30
0
11
248.0201
21
155.9469
31
0
12
248.0201
22
156.2709
32
0
13
248.0201
23
156.2709
33
0
0
SOLID
8
SOMBRA
62
254
10
236.3826
20
149.5520
30
0
11
228.5877
21
159.2745
31
0
12
228.4406
22
158.8500
32
0
13
228.4406
23
158.8500
33
0
0
SOLID
8
SOMBRA
62
252
10
219.6605
20
142.2777
30
0
11
225.7692
21
160.6610
31
0
12
226.0034
22
160.6880
32
0
13
226.0034
23
160.6880
33
0
0
SOLID
8
SOMBRA
62
252
10
245.9838
20
154.2787
30
0
11
248.0201
21
155.9469
31
0
12
245.9838
22
154.7321
32
0
13
245.9838
23
154.7321
33
0
0
SOLID
8
SOMBRA
62
254
10
242.2356
20
152.9312
30
0
11
244.0811
21
153.9967
31
0
12
228.8013
22
159.8913
32
0
13
228.8013
23
159.8913
33
0
0
SOLID
8
SOMBRA
62
252
10
223.9847
20
141.5776
30
0
11
226.0034
21
160.6880
31
0
12
226.1562
22
160.7056
32
0
13
226.1562
23
160.7056
33
0
0
SOLID
8
SOMBRA
62
252
10
245.9838
20
154.7321
30
0
11
248.0201
21
156.2709
31
0
12
245.9838
22
155.0952
32
0
13
245.9838
23
155.0952
33
0
0
SOLID
8
SOMBRA
62
252
10
242.2356
20
152.1147
30
0
11
240.3818
21
151.0444
31
0
12
227.1665
22
159.7445
32
0
13
227.1665
23
159.7445
33
0
0
SOLID
8
SOMBRA
62
252
10
207.3437
20
149.8243
30
0
11
194.1447
21
157.8258
31
0
12
194.1447
22
157.0093
32
0
13
194.1447
23
157.0093
33
0
0
SOLID
8
SOMBRA
62
254
10
234.0718
20
148.2179
30
0
11
228.4406
21
158.8500
31
0
12
228.2107
22
158.1865
32
0
13
228.2107
23
158.1865
33
0
0
SOLID
8
SOMBRA
62
252
10
244.0811
20
153.1802
30
0
11
245.9838
21
154.2787
31
0
12
245.9838
22
154.7321
32
0
13
245.9838
23
154.7321
33
0
0
SOLID
8
SOMBRA
62
252
10
240.3818
20
151.0444
30
0
11
238.4550
21
149.9320
31
0
12
226.8819
22
159.9319
32
0
13
226.8819
23
159.9319
33
0
0
SOLID
8
SOMBRA
62
252
10
244.0811
20
153.5969
30
0
11
245.9838
21
154.7321
31
0
12
245.9838
22
155.0952
32
0
13
245.9838
23
155.0952
33
0
0
SOLID
8
SOMBRA
62
254
10
240.3818
20
151.8609
30
0
11
242.2356
21
152.9312
31
0
12
228.7547
22
159.7569
32
0
13
228.7547
23
159.7569
33
0
0
SOLID
8
SOMBRA
62
254
10
226.2000
20
161.9082
30
0
11
224.5914
21
147.7384
31
0
12
227.0145
22
154.7333
32
0
13
227.0145
23
154.7333
33
0
0
SOLID
8
SOMBRA
62
252
10
244.0811
20
153.1802
30
0
11
245.9838
21
154.7321
31
0
12
244.0811
22
153.5969
32
0
13
244.0811
23
153.5969
33
0
0
SOLID
8
SOMBRA
62
252
10
244.0811
20
153.5969
30
0
11
245.9838
21
155.0952
31
0
12
244.0811
22
153.9967
32
0
13
244.0811
23
153.9967
33
0
0
SOLID
8
SOMBRA
62
252
10
238.4550
20
149.9320
30
0
11
236.3826
21
148.7355
31
0
12
226.6421
22
160.1391
32
0
13
226.6421
23
160.1391
33
0
0
SOLID
8
SOMBRA
62
254
10
238.4550
20
150.7485
30
0
11
240.3818
21
151.8609
31
0
12
228.6866
22
159.5603
32
0
13
228.6866
23
159.5603
33
0
0
SOLID
8
SOMBRA
62
252
10
242.2356
20
152.1147
30
0
11
244.0811
21
153.1802
31
0
12
244.0811
22
153.5969
32
0
13
244.0811
23
153.5969
33
0
0
SOLID
8
SOMBRA
62
254
10
231.3923
20
146.6708
30
0
11
228.2107
21
158.1865
31
0
12
227.8167
22
157.0490
32
0
13
227.8167
23
157.0490
33
0
0
SOLID
8
SOMBRA
62
254
10
226.8819
20
163.0681
30
0
11
207.3437
21
150.2053
31
0
12
210.1323
22
148.5953
32
0
13
210.1323
23
148.5953
33
0
0
SOLID
8
SOMBRA
62
252
10
242.2356
20
152.4959
30
0
11
244.0811
21
153.5969
31
0
12
244.0811
22
153.9967
32
0
13
244.0811
23
153.9967
33
0
0
SOLID
8
SOMBRA
62
252
10
210.1323
20
147.7788
30
0
11
207.3437
21
149.3888
31
0
12
224.1885
22
160.4784
32
0
13
224.1885
23
160.4784
33
0
0
SOLID
8
SOMBRA
62
252
10
242.2356
20
152.1147
30
0
11
244.0811
21
153.5969
31
0
12
242.2356
22
152.4959
32
0
13
242.2356
23
152.4959
33
0
0
SOLID
8
SOMBRA
62
252
10
236.3826
20
148.7355
30
0
11
234.0718
21
147.4014
31
0
12
226.4512
22
160.3626
32
0
13
226.4512
23
160.3626
33
0
0
SOLID
8
SOMBRA
62
252
10
242.2356
20
152.4959
30
0
11
244.0811
21
153.9967
31
0
12
242.2356
22
152.9312
32
0
13
242.2356
23
152.9312
33
0
0
SOLID
8
SOMBRA
62
254
10
236.3826
20
149.5520
30
0
11
238.4550
21
150.7485
31
0
12
228.5877
22
159.2745
32
0
13
228.5877
23
159.2745
33
0
0
SOLID
8
SOMBRA
62
252
10
207.3437
20
149.8243
30
0
11
194.1447
21
157.0093
31
0
12
207.3437
22
149.3888
32
0
13
207.3437
23
149.3888
33
0
0
SOLID
8
SOMBRA
62
252
10
240.3818
20
151.0444
30
0
11
242.2356
21
152.1147
31
0
12
242.2356
22
152.4959
32
0
13
242.2356
23
152.4959
33
0
0
SOLID
8
SOMBRA
62
252
10
207.3437
20
150.2053
30
0
11
194.1447
21
157.8258
31
0
12
207.3437
22
149.8243
32
0
13
207.3437
23
149.8243
33
0
0
SOLID
8
SOMBRA
62
254
10
226.6421
20
162.8609
30
0
11
210.1323
21
148.5953
31
0
12
213.0288
22
146.9230
32
0
13
213.0288
23
146.9230
33
0
0
SOLID
8
SOMBRA
62
252
10
240.3818
20
151.3899
30
0
11
242.2356
21
152.4959
31
0
12
242.2356
22
152.9312
32
0
13
242.2356
23
152.9312
33
0
0
SOLID
8
SOMBRA
62
252
10
213.0288
20
146.1065
30
0
11
210.1323
21
147.7788
31
0
12
224.9287
22
160.5639
32
0
13
224.9287
23
160.5639
33
0
0
SOLID
8
SOMBRA
62
252
10
234.0718
20
147.4014
30
0
11
231.3923
21
145.8543
31
0
12
226.3124
22
160.5986
32
0
13
226.3124
23
160.5986
33
0
0
SOLID
8
SOMBRA
62
252
10
240.3818
20
151.0444
30
0
11
242.2356
21
152.4959
31
0
12
240.3818
22
151.3899
32
0
13
240.3818
23
151.3899
33
0
0
SOLID
8
SOMBRA
62
252
10
240.3818
20
151.3899
30
0
11
242.2356
21
152.9312
31
0
12
240.3818
22
151.8609
32
0
13
240.3818
23
151.8609
33
0
0
SOLID
8
SOMBRA
62
254
10
234.0718
20
148.2179
30
0
11
236.3826
21
149.5520
31
0
12
228.4406
22
158.8500
32
0
13
228.4406
23
158.8500
33
0
0
SOLID
8
SOMBRA
62
254
10
228.1428
20
144.7947
30
0
11
227.8167
21
157.0490
31
0
12
227.0145
22
154.7333
32
0
13
227.0145
23
154.7333
33
0
0
SOLID
8
SOMBRA
62
252
10
238.4550
20
149.9320
30
0
11
240.3818
21
151.0444
31
0
12
240.3818
22
151.3899
32
0
13
240.3818
23
151.3899
33
0
0
SOLID
8
SOMBRA
62
252
10
238.4550
20
150.2404
30
0
11
240.3818
21
151.3899
31
0
12
240.3818
22
151.8609
32
0
13
240.3818
23
151.8609
33
0
0
SOLID
8
SOMBRA
62
252
10
216.1518
20
144.3035
30
0
11
213.0288
21
146.1065
31
0
12
225.4267
22
160.6214
32
0
13
225.4267
23
160.6214
33
0
0
SOLID
8
SOMBRA
62
254
10
226.4512
20
162.6374
30
0
11
213.0288
21
146.9230
31
0
12
216.1518
22
145.1200
32
0
13
216.1518
23
145.1200
33
0
0
SOLID
8
SOMBRA
62
252
10
238.4550
20
149.9320
30
0
11
240.3818
21
151.3899
31
0
12
238.4550
22
150.2404
32
0
13
238.4550
23
150.2404
33
0
0
SOLID
8
SOMBRA
62
252
10
231.3923
20
145.8543
30
0
11
228.1428
21
143.9782
31
0
12
226.2427
22
160.7156
32
0
13
226.2427
23
160.7156
33
0
0
SOLID
8
SOMBRA
62
252
10
238.4550
20
150.2404
30
0
11
240.3818
21
151.8609
31
0
12
238.4550
22
150.7485
32
0
13
238.4550
23
150.7485
33
0
0
SOLID
8
SOMBRA
62
254
10
231.3923
20
146.6708
30
0
11
234.0718
21
148.2179
31
0
12
228.2107
22
158.1865
32
0
13
228.2107
23
158.1865
33
0
0
SOLID
8
SOMBRA
62
254
10
224.5914
20
147.7384
30
0
11
226.2282
21
162.1569
31
0
12
219.6605
22
143.0942
32
0
13
219.6605
23
143.0942
33
0
0
SOLID
8
SOMBRA
62
252
10
236.3826
20
148.7355
30
0
11
238.4550
21
149.9320
31
0
12
238.4550
22
150.2404
32
0
13
238.4550
23
150.2404
33
0
0
SOLID
8
SOMBRA
62
252
10
236.3826
20
149.0040
30
0
11
238.4550
21
150.2404
31
0
12
238.4550
22
150.7485
32
0
13
238.4550
23
150.7485
33
0
0
SOLID
8
SOMBRA
62
252
10
219.6605
20
142.2777
30
0
11
216.1518
21
144.3035
31
0
12
225.7692
22
160.6610
32
0
13
225.7692
23
160.6610
33
0
0
SOLID
8
SOMBRA
62
252
10
236.3826
20
148.7355
30
0
11
238.4550
21
150.2404
31
0
12
236.3826
22
149.0040
32
0
13
236.3826
23
149.0040
33
0
0
SOLID
8
SOMBRA
62
254
10
226.3124
20
162.4014
30
0
11
216.1518
21
145.1200
31
0
12
219.6605
22
143.0942
32
0
13
219.6605
23
143.0942
33
0
0
SOLID
8
SOMBRA
62
252
10
236.3826
20
149.0040
30
0
11
238.4550
21
150.7485
31
0
12
236.3826
22
149.5520
32
0
13
236.3826
23
149.5520
33
0
0
SOLID
8
SOMBRA
62
252
10
228.1428
20
143.9782
30
0
11
223.9847
21
141.5776
31
0
12
226.1562
22
160.7056
32
0
13
226.1562
23
160.7056
33
0
0
SOLID
8
SOMBRA
62
252
10
210.1323
20
148.1338
30
0
11
207.3437
21
149.8243
31
0
12
207.3437
22
149.3888
32
0
13
207.3437
23
149.3888
33
0
0
SOLID
8
SOMBRA
62
252
10
210.1323
20
148.5953
30
0
11
207.3437
21
150.2053
31
0
12
207.3437
22
149.8243
32
0
13
207.3437
23
149.8243
33
0
0
SOLID
8
SOMBRA
62
254
10
228.1428
20
144.7947
30
0
11
231.3923
21
146.6708
31
0
12
227.8167
22
157.0490
32
0
13
227.8167
23
157.0490
33
0
0
SOLID
8
SOMBRA
62
252
10
210.1323
20
148.1338
30
0
11
207.3437
21
149.3888
31
0
12
210.1323
22
147.7788
32
0
13
210.1323
23
147.7788
33
0
0
SOLID
8
SOMBRA
62
252
10
234.0718
20
147.4014
30
0
11
236.3826
21
148.7355
31
0
12
236.3826
22
149.0040
32
0
13
236.3826
23
149.0040
33
0
0
SOLID
8
SOMBRA
62
252
10
223.9847
20
141.5776
30
0
11
219.6605
21
142.2777
31
0
12
226.0034
22
160.6880
32
0
13
226.0034
23
160.6880
33
0
0
SOLID
8
SOMBRA
62
252
10
234.0718
20
147.6254
30
0
11
236.3826
21
149.0040
31
0
12
236.3826
22
149.5520
32
0
13
236.3826
23
149.5520
33
0
0
SOLID
8
SOMBRA
62
252
10
210.1323
20
148.5953
30
0
11
207.3437
21
149.8243
31
0
12
210.1323
22
148.1338
32
0
13
210.1323
23
148.1338
33
0
0
SOLID
8
SOMBRA
62
252
10
234.0718
20
147.4014
30
0
11
236.3826
21
149.0040
31
0
12
234.0718
22
147.6254
32
0
13
234.0718
23
147.6254
33
0
0
SOLID
8
SOMBRA
62
252
10
234.0718
20
147.6254
30
0
11
236.3826
21
149.5520
31
0
12
234.0718
22
148.2179
32
0
13
234.0718
23
148.2179
33
0
0
SOLID
8
SOMBRA
62
252
10
213.0288
20
146.3779
30
0
11
210.1323
21
148.1338
31
0
12
210.1323
22
147.7788
32
0
13
210.1323
23
147.7788
33
0
0
SOLID
8
SOMBRA
62
254
10
223.9847
20
142.3941
30
0
11
227.0145
21
154.7333
31
0
12
224.5914
22
147.7384
32
0
13
224.5914
23
147.7384
33
0
0
SOLID
8
SOMBRA
62
252
10
213.0288
20
146.9230
30
0
11
210.1323
21
148.5953
31
0
12
210.1323
22
148.1338
32
0
13
210.1323
23
148.1338
33
0
0
SOLID
8
SOMBRA
62
252
10
231.3923
20
145.8543
30
0
11
234.0718
21
147.4014
31
0
12
234.0718
22
147.6254
32
0
13
234.0718
23
147.6254
33
0
0
SOLID
8
SOMBRA
62
252
10
231.3923
20
146.0268
30
0
11
234.0718
21
147.6254
31
0
12
234.0718
22
148.2179
32
0
13
234.0718
23
148.2179
33
0
0
SOLID
8
SOMBRA
62
252
10
213.0288
20
146.3779
30
0
11
210.1323
21
147.7788
31
0
12
213.0288
22
146.1065
32
0
13
213.0288
23
146.1065
33
0
0
SOLID
8
SOMBRA
62
252
10
213.0288
20
146.9230
30
0
11
210.1323
21
148.1338
31
0
12
213.0288
22
146.3779
32
0
13
213.0288
23
146.3779
33
0
0
SOLID
8
SOMBRA
62
252
10
231.3923
20
145.8543
30
0
11
234.0718
21
147.6254
31
0
12
231.3923
22
146.0268
32
0
13
231.3923
23
146.0268
33
0
0
SOLID
8
SOMBRA
62
254
10
223.9847
20
142.3941
30
0
11
228.1428
21
144.7947
31
0
12
227.0145
22
154.7333
32
0
13
227.0145
23
154.7333
33
0
0
SOLID
8
SOMBRA
62
252
10
231.3923
20
146.0268
30
0
11
234.0718
21
148.2179
31
0
12
231.3923
22
146.6708
32
0
13
231.3923
23
146.6708
33
0
0
SOLID
8
SOMBRA
62
252
10
216.1518
20
144.4847
30
0
11
213.0288
21
146.3779
31
0
12
213.0288
22
146.1065
32
0
13
213.0288
23
146.1065
33
0
0
SOLID
8
SOMBRA
62
252
10
228.1428
20
143.9782
30
0
11
231.3923
21
145.8543
31
0
12
231.3923
22
146.0268
32
0
13
231.3923
23
146.0268
33
0
0
SOLID
8
SOMBRA
62
252
10
216.1518
20
145.1200
30
0
11
213.0288
21
146.9230
31
0
12
213.0288
22
146.3779
32
0
13
213.0288
23
146.3779
33
0
0
SOLID
8
SOMBRA
62
252
10
228.1428
20
144.0882
30
0
11
231.3923
21
146.0268
31
0
12
231.3923
22
146.6708
32
0
13
231.3923
23
146.6708
33
0
0
SOLID
8
SOMBRA
62
252
10
216.1518
20
144.4847
30
0
11
213.0288
21
146.1065
31
0
12
216.1518
22
144.3035
32
0
13
216.1518
23
144.3035
33
0
0
SOLID
8
SOMBRA
62
252
10
216.1518
20
145.1200
30
0
11
213.0288
21
146.3779
31
0
12
216.1518
22
144.4847
32
0
13
216.1518
23
144.4847
33
0
0
SOLID
8
SOMBRA
62
252
10
228.1428
20
143.9782
30
0
11
231.3923
21
146.0268
31
0
12
228.1428
22
144.0882
32
0
13
228.1428
23
144.0882
33
0
0
SOLID
8
SOMBRA
62
252
10
228.1428
20
144.0882
30
0
11
231.3923
21
146.6708
31
0
12
228.1428
22
144.7947
32
0
13
228.1428
23
144.7947
33
0
0
SOLID
8
SOMBRA
62
252
10
219.6605
20
142.3576
30
0
11
216.1518
21
144.4847
31
0
12
216.1518
22
144.3035
32
0
13
216.1518
23
144.3035
33
0
0
SOLID
8
SOMBRA
62
252
10
219.6605
20
143.0942
30
0
11
216.1518
21
145.1200
31
0
12
216.1518
22
144.4847
32
0
13
216.1518
23
144.4847
33
0
0
SOLID
8
SOMBRA
62
252
10
223.9847
20
141.5776
30
0
11
228.1428
21
143.9782
31
0
12
228.1428
22
144.0882
32
0
13
228.1428
23
144.0882
33
0
0
SOLID
8
SOMBRA
62
252
10
223.9847
20
141.6075
30
0
11
228.1428
21
144.0882
31
0
12
228.1428
22
144.7947
32
0
13
228.1428
23
144.7947
33
0
0
SOLID
8
SOMBRA
62
252
10
219.6605
20
142.3576
30
0
11
216.1518
21
144.3035
31
0
12
219.6605
22
142.2777
32
0
13
219.6605
23
142.2777
33
0
0
SOLID
8
SOMBRA
62
254
10
224.5914
20
147.7384
30
0
11
219.6605
21
143.0942
31
0
12
222.4289
22
141.4958
32
0
13
222.4289
23
141.4958
33
0
0
SOLID
8
SOMBRA
62
252
10
219.6605
20
143.0942
30
0
11
216.1518
21
144.4847
31
0
12
219.6605
22
142.3576
32
0
13
219.6605
23
142.3576
33
0
0
SOLID
8
SOMBRA
62
254
10
223.9847
20
142.3941
30
0
11
224.5914
21
147.7384
31
0
12
222.4289
22
141.4958
32
0
13
222.4289
23
141.4958
33
0
0
SOLID
8
SOMBRA
62
252
10
223.9847
20
141.5776
30
0
11
228.1428
21
144.0882
31
0
12
223.9847
22
141.6075
32
0
13
223.9847
23
141.6075
33
0
0
SOLID
8
SOMBRA
62
252
10
223.9847
20
141.6075
30
0
11
228.1428
21
144.7947
31
0
12
223.9847
22
142.3941
32
0
13
223.9847
23
142.3941
33
0
0
SOLID
8
SOMBRA
62
252
10
219.6605
20
142.3576
30
0
11
219.6605
21
142.2777
31
0
12
222.4289
22
140.6793
32
0
13
222.4289
23
140.6793
33
0
0
SOLID
8
SOMBRA
62
252
10
223.9847
20
141.5776
30
0
11
222.4289
21
140.6793
31
0
12
219.6605
22
142.2777
32
0
13
219.6605
23
142.2777
33
0
0
SOLID
8
SOMBRA
62
252
10
222.4289
20
141.4958
30
0
11
219.6605
21
143.0942
31
0
12
219.6605
22
142.3576
32
0
13
219.6605
23
142.3576
33
0
0
SOLID
8
SOMBRA
62
252
10
223.9847
20
141.5776
30
0
11
223.9847
21
141.6075
31
0
12
222.4289
22
140.6793
32
0
13
222.4289
23
140.6793
33
0
0
SOLID
8
SOMBRA
62
252
10
222.4289
20
141.4958
30
0
11
219.6605
21
142.3576
31
0
12
222.4289
22
140.6793
32
0
13
222.4289
23
140.6793
33
0
0
SOLID
8
SOMBRA
62
252
10
223.9847
20
141.6075
30
0
11
223.9847
21
142.3941
31
0
12
222.4289
22
141.4958
32
0
13
222.4289
23
141.4958
33
0
0
SOLID
8
SOMBRA
62
252
10
223.9847
20
141.6075
30
0
11
222.4289
21
141.4958
31
0
12
222.4289
22
140.6793
32
0
13
222.4289
23
140.6793
33
0
0
LINE
8
VISIBLE
10
207.3437
20
150.2053
30
0
11
194.1447
21
157.8258
31
0
0
LINE
8
VISIBLE
10
194.1447
20
157.8258
30
0
11
194.1447
21
157.0093
31
0
0
LINE
8
VISIBLE
10
194.1447
20
157.0093
30
0
11
207.3437
21
149.3888
31
0
0
LINE
8
VISIBLE
10
210.1323
20
148.5953
30
0
11
207.3437
21
150.2053
31
0
0
LINE
8
VISIBLE
10
207.3437
20
149.3888
30
0
11
210.1323
21
147.7788
31
0
0
LINE
8
VISIBLE
10
213.0288
20
146.9230
30
0
11
210.1323
21
148.5953
31
0
0
LINE
8
VISIBLE
10
210.1323
20
147.7788
30
0
11
213.0288
21
146.1065
31
0
0
LINE
8
VISIBLE
10
216.1518
20
145.1200
30
0
11
213.0288
21
146.9230
31
0
0
LINE
8
VISIBLE
10
213.0288
20
146.1065
30
0
11
216.1518
21
144.3035
31
0
0
LINE
8
VISIBLE
10
219.6605
20
143.0942
30
0
11
216.1518
21
145.1200
31
0
0
LINE
8
VISIBLE
10
216.1518
20
144.3035
30
0
11
219.6605
21
142.2777
31
0
0
LINE
8
VISIBLE
10
222.4289
20
141.4958
30
0
11
219.6605
21
143.0942
31
0
0
LINE
8
VISIBLE
10
222.4289
20
140.6793
30
0
11
222.4289
21
141.4958
31
0
0
LINE
8
VISIBLE
10
219.6605
20
142.2777
30
0
11
222.4289
21
140.6793
31
0
0
LINE
8
VISIBLE
10
246.9894
20
175.4891
30
0
11
236.5711
21
181.5042
31
0
0
LINE
8
VISIBLE
10
236.5711
20
181.5042
30
0
11
236.5711
21
182.3207
31
0
0
LINE
8
VISIBLE
10
236.5711
20
182.3207
30
0
11
246.9894
21
176.3056
31
0
0
LINE
8
VISIBLE
10
264.8553
20
165.1742
30
0
11
263.7707
21
165.8005
31
0
0
LINE
8
VISIBLE
10
264.8553
20
165.9907
30
0
11
264.8553
21
165.1742
31
0
0
LINE
8
VISIBLE
10
263.7707
20
166.6170
30
0
11
264.8553
21
165.9907
31
0
0
LINE
8
VISIBLE
10
263.7707
20
165.8005
30
0
11
260.3730
21
167.7621
31
0
0
LINE
8
VISIBLE
10
260.3730
20
168.5786
30
0
11
263.7707
21
166.6170
31
0
0
LINE
8
VISIBLE
10
260.3730
20
167.7621
30
0
11
257.3069
21
169.5323
31
0
0
LINE
8
VISIBLE
10
257.3069
20
170.3488
30
0
11
260.3730
21
168.5786
31
0
0
LINE
8
VISIBLE
10
257.3069
20
169.5323
30
0
11
254.4370
21
171.1893
31
0
0
LINE
8
VISIBLE
10
254.4370
20
172.0058
30
0
11
257.3069
21
170.3488
31
0
0
LINE
8
VISIBLE
10
254.4370
20
171.1893
30
0
11
251.6563
21
172.7947
31
0
0
LINE
8
VISIBLE
10
251.6563
20
173.6112
30
0
11
254.4370
21
172.0058
31
0
0
LINE
8
VISIBLE
10
251.6563
20
172.7947
30
0
11
248.8677
21
174.4047
31
0
0
LINE
8
VISIBLE
10
248.8677
20
175.2212
30
0
11
251.6563
21
173.6112
31
0
0
LINE
8
VISIBLE
10
248.8677
20
174.4047
30
0
11
246.9894
21
175.4891
31
0
0
LINE
8
VISIBLE
10
246.9894
20
176.3056
30
0
11
248.8677
21
175.2212
31
0
0
LINE
8
VISIBLE
10
222.4289
20
140.6793
30
0
11
223.9847
21
141.5776
31
0
0
LINE
8
VISIBLE
10
223.9847
20
142.3941
30
0
11
222.4289
21
141.4958
31
0
0
LINE
8
VISIBLE
10
223.9847
20
141.5776
30
0
11
228.1428
21
143.9782
31
0
0
LINE
8
VISIBLE
10
228.1428
20
144.7947
30
0
11
223.9847
21
142.3941
31
0
0
LINE
8
VISIBLE
10
228.1428
20
143.9782
30
0
11
231.3923
21
145.8543
31
0
0
LINE
8
VISIBLE
10
231.3923
20
146.6708
30
0
11
228.1428
21
144.7947
31
0
0
LINE
8
VISIBLE
10
231.3923
20
145.8543
30
0
11
234.0718
21
147.4014
31
0
0
LINE
8
VISIBLE
10
234.0718
20
148.2179
30
0
11
231.3923
21
146.6708
31
0
0
LINE
8
VISIBLE
10
234.0718
20
147.4014
30
0
11
236.3826
21
148.7355
31
0
0
LINE
8
VISIBLE
10
236.3826
20
149.5520
30
0
11
234.0718
21
148.2179
31
0
0
LINE
8
VISIBLE
10
236.3826
20
148.7355
30
0
11
238.4550
21
149.9320
31
0
0
LINE
8
VISIBLE
10
238.4550
20
150.7485
30
0
11
236.3826
21
149.5520
31
0
0
LINE
8
VISIBLE
10
238.4550
20
149.9320
30
0
11
240.3818
21
151.0444
31
0
0
LINE
8
VISIBLE
10
240.3818
20
151.8609
30
0
11
238.4550
21
150.7485
31
0
0
LINE
8
VISIBLE
10
240.3818
20
151.0444
30
0
11
242.2356
21
152.1147
31
0
0
LINE
8
VISIBLE
10
242.2356
20
152.9312
30
0
11
240.3818
21
151.8609
31
0
0
LINE
8
VISIBLE
10
242.2356
20
152.1147
30
0
11
244.0811
21
153.1802
31
0
0
LINE
8
VISIBLE
10
244.0811
20
153.9967
30
0
11
242.2356
21
152.9312
31
0
0
LINE
8
VISIBLE
10
244.0811
20
153.1802
30
0
11
245.9838
21
154.2787
31
0
0
LINE
8
VISIBLE
10
245.9838
20
155.0952
30
0
11
244.0811
21
153.9967
31
0
0
LINE
8
VISIBLE
10
245.9838
20
154.2787
30
0
11
248.0201
21
155.4544
31
0
0
LINE
8
VISIBLE
10
248.0201
20
156.2709
30
0
11
245.9838
21
155.0952
31
0
0
LINE
8
VISIBLE
10
248.0201
20
155.4544
30
0
11
250.2912
21
156.7656
31
0
0
LINE
8
VISIBLE
10
250.2912
20
157.5821
30
0
11
248.0201
21
156.2709
31
0
0
LINE
8
VISIBLE
10
250.2912
20
156.7656
30
0
11
252.9475
21
158.2992
31
0
0
LINE
8
VISIBLE
10
252.9475
20
159.1157
30
0
11
250.2912
21
157.5821
31
0
0
LINE
8
VISIBLE
10
252.9475
20
158.2992
30
0
11
256.2366
21
160.1982
31
0
0
LINE
8
VISIBLE
10
256.2366
20
161.0147
30
0
11
252.9475
21
159.1157
31
0
0
LINE
8
VISIBLE
10
256.2366
20
160.1982
30
0
11
260.6163
21
162.7268
31
0
0
LINE
8
VISIBLE
10
260.6163
20
163.5433
30
0
11
256.2366
21
161.0147
31
0
0
LINE
8
VISIBLE
10
260.6163
20
162.7268
30
0
11
264.8553
21
165.1742
31
0
0
LINE
8
VISIBLE
10
264.8553
20
165.9907
30
0
11
260.6163
21
163.5433
31
0
0
LINE
8
VISIBLE
10
194.1447
20
157.8258
30
0
11
236.5711
21
182.3207
31
0
0
LINE
8
VISIBLE
10
236.5711
20
181.5042
30
0
11
194.1447
21
157.0093
31
0
0
LINE
8
VISIBLE
10
228.8013
20
159.8913
30
0
11
227.4911
21
160.3967
31
0
0
LINE
8
VISIBLE
10
228.8316
20
159.9788
30
0
11
227.8500
21
160.2582
31
0
0
LINE
8
VISIBLE
10
228.8487
20
160.0282
30
0
11
228.2371
21
160.1480
31
0
0
LINE
8
VISIBLE
10
228.8542
20
160.0440
30
0
11
228.6459
21
160.0679
31
0
0
LINE
8
VISIBLE
10
230.1987
20
163.9252
30
0
11
231.5089
21
163.4198
31
0
0
LINE
8
VISIBLE
10
230.1684
20
163.8377
30
0
11
231.1500
21
163.5582
31
0
0
LINE
8
VISIBLE
10
230.1513
20
163.7883
30
0
11
230.7629
21
163.6685
31
0
0
LINE
8
VISIBLE
10
230.1458
20
163.7725
30
0
11
230.3541
21
163.7486
31
0
0
LINE
8
VISIBLE
10
227.9236
20
163.7539
30
0
11
229.5000
21
163.8135
31
0
0
LINE
8
VISIBLE
10
227.7613
20
163.6470
30
0
11
229.0693
21
163.7972
31
0
0
LINE
8
VISIBLE
10
227.6060
20
163.5448
30
0
11
228.6459
21
163.7486
31
0
0
LINE
8
VISIBLE
10
227.4561
20
163.4461
30
0
11
228.2371
21
163.6685
31
0
0
LINE
8
VISIBLE
10
227.3101
20
163.3500
30
0
11
227.8500
21
163.5583
31
0
0
LINE
8
VISIBLE
10
227.1665
20
163.2555
30
0
11
227.4911
21
163.4198
31
0
0
LINE
8
VISIBLE
10
226.3124
20
161.5849
30
0
11
226.0034
21
160.6880
31
0
0
LINE
8
VISIBLE
10
226.2282
20
161.3404
30
0
11
226.1562
21
160.7056
31
0
0
LINE
8
VISIBLE
10
226.2000
20
161.0918
30
0
11
226.2427
21
160.7156
31
0
0
LINE
8
VISIBLE
10
226.2282
20
160.8431
30
0
11
226.2710
21
160.7189
31
0
0
LINE
8
VISIBLE
10
232.6876
20
160.5986
30
0
11
232.9966
21
161.4955
31
0
0
LINE
8
VISIBLE
10
232.7718
20
160.8431
30
0
11
232.8438
21
161.4779
31
0
0
LINE
8
VISIBLE
10
232.8000
20
161.0918
30
0
11
232.7573
21
161.4679
31
0
0
LINE
8
VISIBLE
10
232.7718
20
161.3404
30
0
11
232.7290
21
161.4646
31
0
0
LINE
8
VISIBLE
10
229.5000
20
162.9970
30
0
11
227.9236
21
162.9374
31
0
0
LINE
8
VISIBLE
10
229.0693
20
162.9807
30
0
11
227.7613
21
162.8305
31
0
0
LINE
8
VISIBLE
10
228.6459
20
162.9321
30
0
11
227.6060
21
162.7283
31
0
0
LINE
8
VISIBLE
10
228.2371
20
162.8520
30
0
11
227.4561
21
162.6296
31
0
0
LINE
8
VISIBLE
10
227.8500
20
162.7418
30
0
11
227.3101
21
162.5335
31
0
0
LINE
8
VISIBLE
10
227.4911
20
162.6033
30
0
11
227.1665
21
162.4390
31
0
0
LINE
8
VISIBLE
10
227.1646
20
162.4377
30
0
11
227.1665
21
162.4390
31
0
0
LINE
8
VISIBLE
10
227.1665
20
163.2555
30
0
11
227.1607
21
163.2516
31
0
0
LINE
8
VISIBLE
10
227.1607
20
163.2516
30
0
11
226.8819
21
163.0681
31
0
0
LINE
8
VISIBLE
10
226.8819
20
162.2516
30
0
11
227.1646
21
162.4377
31
0
0
LINE
8
VISIBLE
10
226.8803
20
162.2502
30
0
11
226.8819
21
162.2516
31
0
0
LINE
8
VISIBLE
10
226.8819
20
163.0681
30
0
11
226.8770
21
163.0639
31
0
0
LINE
8
VISIBLE
10
226.8770
20
163.0639
30
0
11
226.6421
21
162.8609
31
0
0
LINE
8
VISIBLE
10
226.6421
20
162.0444
30
0
11
226.8803
21
162.2502
31
0
0
LINE
8
VISIBLE
10
226.6408
20
162.0429
30
0
11
226.6421
21
162.0444
31
0
0
LINE
8
VISIBLE
10
226.6421
20
162.8609
30
0
11
226.6382
21
162.8563
31
0
0
LINE
8
VISIBLE
10
226.6382
20
162.8563
30
0
11
226.4512
21
162.6374
31
0
0
LINE
8
VISIBLE
10
226.4512
20
161.8209
30
0
11
226.6408
21
162.0429
31
0
0
LINE
8
VISIBLE
10
226.4503
20
161.8193
30
0
11
226.4512
21
161.8209
31
0
0
LINE
8
VISIBLE
10
226.4512
20
162.6374
30
0
11
226.4484
21
162.6325
31
0
0
LINE
8
VISIBLE
10
226.4484
20
162.6325
30
0
11
226.3124
21
162.4014
31
0
0
LINE
8
VISIBLE
10
226.3124
20
161.5849
30
0
11
226.4503
21
161.8193
31
0
0
LINE
8
VISIBLE
10
226.3119
20
161.5832
30
0
11
226.3124
21
161.5849
31
0
0
LINE
8
VISIBLE
10
226.3124
20
162.4014
30
0
11
226.3107
21
162.3964
31
0
0
LINE
8
VISIBLE
10
226.3107
20
162.3964
30
0
11
226.2282
21
162.1569
31
0
0
LINE
8
VISIBLE
10
226.2282
20
161.3404
30
0
11
226.3119
21
161.5832
31
0
0
LINE
8
VISIBLE
10
226.2280
20
161.3387
30
0
11
226.2282
21
161.3404
31
0
0
LINE
8
VISIBLE
10
226.2282
20
162.1569
30
0
11
226.2277
21
162.1519
31
0
0
LINE
8
VISIBLE
10
226.2277
20
162.1519
30
0
11
226.2000
21
161.9082
31
0
0
LINE
8
VISIBLE
10
226.2000
20
161.0918
30
0
11
226.2280
21
161.3387
31
0
0
LINE
8
VISIBLE
10
226.2002
20
161.0901
30
0
11
226.2000
21
161.0918
31
0
0
LINE
8
VISIBLE
10
226.2000
20
161.9082
30
0
11
226.2006
21
161.9032
31
0
0
LINE
8
VISIBLE
10
226.2006
20
161.9032
30
0
11
226.2282
21
161.6596
31
0
0
LINE
8
VISIBLE
10
226.2282
20
160.8431
30
0
11
226.2002
21
161.0901
31
0
0
LINE
8
VISIBLE
10
226.2288
20
160.8414
30
0
11
226.2282
21
160.8431
31
0
0
LINE
8
VISIBLE
10
226.2282
20
161.6596
30
0
11
226.2299
21
161.6546
31
0
0
LINE
8
VISIBLE
10
226.2299
20
161.6546
30
0
11
226.3124
21
161.4151
31
0
0
LINE
8
VISIBLE
10
226.3124
20
160.5986
30
0
11
226.2288
21
160.8414
31
0
0
LINE
8
VISIBLE
10
226.3134
20
160.5970
30
0
11
226.3124
21
160.5986
31
0
0
LINE
8
VISIBLE
10
226.3124
20
161.4151
30
0
11
226.3153
21
161.4103
31
0
0
LINE
8
VISIBLE
10
226.3153
20
161.4103
30
0
11
226.4512
21
161.1791
31
0
0
LINE
8
VISIBLE
10
226.4512
20
160.3626
30
0
11
226.3134
21
160.5970
31
0
0
LINE
8
VISIBLE
10
226.4525
20
160.3611
30
0
11
226.4512
21
160.3626
31
0
0
LINE
8
VISIBLE
10
226.4512
20
161.1791
30
0
11
226.4551
21
161.1746
31
0
0
LINE
8
VISIBLE
10
226.4551
20
161.1746
30
0
11
226.6421
21
160.9556
31
0
0
LINE
8
VISIBLE
10
226.6421
20
160.1391
30
0
11
226.4525
21
160.3611
31
0
0
LINE
8
VISIBLE
10
226.6437
20
160.1377
30
0
11
226.6421
21
160.1391
31
0
0
LINE
8
VISIBLE
10
226.6421
20
160.9556
30
0
11
226.6470
21
160.9514
31
0
0
LINE
8
VISIBLE
10
226.6470
20
160.9514
30
0
11
226.8819
21
160.7484
31
0
0
LINE
8
VISIBLE
10
226.8819
20
159.9319
30
0
11
226.6437
21
160.1377
31
0
0
LINE
8
VISIBLE
10
226.8839
20
159.9306
30
0
11
226.8819
21
159.9319
31
0
0
LINE
8
VISIBLE
10
226.8819
20
160.7484
30
0
11
226.8877
21
160.7446
31
0
0
LINE
8
VISIBLE
10
226.8877
20
160.7446
30
0
11
227.1665
21
160.5610
31
0
0
LINE
8
VISIBLE
10
227.1665
20
159.7445
30
0
11
226.8839
21
159.9306
31
0
0
LINE
8
VISIBLE
10
227.1688
20
159.7434
30
0
11
227.1665
21
159.7445
31
0
0
LINE
8
VISIBLE
10
227.1665
20
160.5610
30
0
11
227.1732
21
160.5577
31
0
0
LINE
8
VISIBLE
10
227.1732
20
160.5577
30
0
11
227.4911
21
160.3967
31
0
0
LINE
8
VISIBLE
10
227.4911
20
159.5802
30
0
11
227.1688
21
159.7434
31
0
0
LINE
8
VISIBLE
10
227.4935
20
159.5793
30
0
11
227.4911
21
159.5802
31
0
0
LINE
8
VISIBLE
10
227.4911
20
160.3967
30
0
11
227.4984
21
160.3939
31
0
0
LINE
8
VISIBLE
10
227.4984
20
160.3939
30
0
11
227.8500
21
160.2582
31
0
0
LINE
8
VISIBLE
10
227.8500
20
159.4418
30
0
11
227.4935
21
159.5793
31
0
0
LINE
8
VISIBLE
10
227.8526
20
159.4410
30
0
11
227.8500
21
159.4418
31
0
0
LINE
8
VISIBLE
10
227.8500
20
160.2582
30
0
11
227.8579
21
160.2560
31
0
0
LINE
8
VISIBLE
10
227.8579
20
160.2560
30
0
11
228.2371
21
160.1480
31
0
0
LINE
8
VISIBLE
10
228.2371
20
159.3315
30
0
11
227.8526
21
159.4410
31
0
0
LINE
8
VISIBLE
10
228.2399
20
159.3310
30
0
11
228.2371
21
159.3315
31
0
0
LINE
8
VISIBLE
10
228.2371
20
160.1480
30
0
11
228.2455
21
160.1464
31
0
0
LINE
8
VISIBLE
10
228.2455
20
160.1464
30
0
11
228.6459
21
160.0679
31
0
0
LINE
8
VISIBLE
10
228.6459
20
159.2514
30
0
11
228.2399
21
159.3310
31
0
0
LINE
8
VISIBLE
10
228.6488
20
159.2511
30
0
11
228.6459
21
159.2514
31
0
0
LINE
8
VISIBLE
10
228.6459
20
160.0679
30
0
11
228.6545
21
160.0669
31
0
0
LINE
8
VISIBLE
10
228.6545
20
160.0669
30
0
11
229.0693
21
160.0193
31
0
0
LINE
8
VISIBLE
10
229.0693
20
159.2028
30
0
11
228.6488
21
159.2511
31
0
0
LINE
8
VISIBLE
10
229.0722
20
159.2027
30
0
11
229.0693
21
159.2028
31
0
0
LINE
8
VISIBLE
10
229.0693
20
160.0193
30
0
11
229.0780
21
160.0190
31
0
0
LINE
8
VISIBLE
10
229.0780
20
160.0190
30
0
11
229.5000
21
160.0030
31
0
0
LINE
8
VISIBLE
10
229.5000
20
159.1865
30
0
11
229.0722
21
159.2027
31
0
0
LINE
8
VISIBLE
10
229.5029
20
159.1866
30
0
11
229.5000
21
159.1865
31
0
0
LINE
8
VISIBLE
10
229.5000
20
160.0030
30
0
11
229.5088
21
160.0033
31
0
0
LINE
8
VISIBLE
10
229.5088
20
160.0033
30
0
11
229.9307
21
160.0193
31
0
0
LINE
8
VISIBLE
10
229.9307
20
159.2028
30
0
11
229.5029
21
159.1866
31
0
0
LINE
8
VISIBLE
10
229.9336
20
159.2031
30
0
11
229.9307
21
159.2028
31
0
0
LINE
8
VISIBLE
10
229.9307
20
160.0193
30
0
11
229.9394
21
160.0203
31
0
0
LINE
8
VISIBLE
10
229.9394
20
160.0203
30
0
11
230.3541
21
160.0679
31
0
0
LINE
8
VISIBLE
10
230.3541
20
159.2514
30
0
11
229.9336
21
159.2031
31
0
0
LINE
8
VISIBLE
10
230.3569
20
159.2520
30
0
11
230.3541
21
159.2514
31
0
0
LINE
8
VISIBLE
10
230.3541
20
160.0679
30
0
11
230.3624
21
160.0695
31
0
0
LINE
8
VISIBLE
10
230.3624
20
160.0695
30
0
11
230.7629
21
160.1480
31
0
0
LINE
8
VISIBLE
10
230.7629
20
159.3315
30
0
11
230.3569
21
159.2520
31
0
0
LINE
8
VISIBLE
10
230.7655
20
159.3323
30
0
11
230.7629
21
159.3315
31
0
0
LINE
8
VISIBLE
10
230.7629
20
160.1480
30
0
11
230.7707
21
160.1503
31
0
0
LINE
8
VISIBLE
10
230.7707
20
160.1503
30
0
11
231.1500
21
160.2582
31
0
0
LINE
8
VISIBLE
10
231.1500
20
159.4418
30
0
11
230.7655
21
159.3323
31
0
0
LINE
8
VISIBLE
10
231.1524
20
159.4427
30
0
11
231.1500
21
159.4418
31
0
0
LINE
8
VISIBLE
10
231.1500
20
160.2582
30
0
11
231.1573
21
160.2611
31
0
0
LINE
8
VISIBLE
10
231.1573
20
160.2611
30
0
11
231.5089
21
160.3967
31
0
0
LINE
8
VISIBLE
10
231.5089
20
159.5802
30
0
11
231.1524
21
159.4427
31
0
0
LINE
8
VISIBLE
10
231.5111
20
159.5813
30
0
11
231.5089
21
159.5802
31
0
0
LINE
8
VISIBLE
10
231.5089
20
160.3967
30
0
11
231.5155
21
160.4001
31
0
0
LINE
8
VISIBLE
10
231.5155
20
160.4001
30
0
11
231.8335
21
160.5610
31
0
0
LINE
8
VISIBLE
10
231.8335
20
159.7445
30
0
11
231.5111
21
159.5813
31
0
0
LINE
8
VISIBLE
10
231.8354
20
159.7458
30
0
11
231.8335
21
159.7445
31
0
0
LINE
8
VISIBLE
10
231.8335
20
160.5610
30
0
11
231.8393
21
160.5648
31
0
0
LINE
8
VISIBLE
10
231.8393
20
160.5648
30
0
11
232.1181
21
160.7484
31
0
0
LINE
8
VISIBLE
10
232.1181
20
159.9319
30
0
11
231.8354
21
159.7458
31
0
0
LINE
8
VISIBLE
10
232.1197
20
159.9333
30
0
11
232.1181
21
159.9319
31
0
0
LINE
8
VISIBLE
10
232.1181
20
160.7484
30
0
11
232.1230
21
160.7526
31
0
0
LINE
8
VISIBLE
10
232.1230
20
160.7526
30
0
11
232.3579
21
160.9556
31
0
0
LINE
8
VISIBLE
10
232.3579
20
160.1391
30
0
11
232.1197
21
159.9333
31
0
0
LINE
8
VISIBLE
10
232.3592
20
160.1406
30
0
11
232.3579
21
160.1391
31
0
0
LINE
8
VISIBLE
10
232.3579
20
160.9556
30
0
11
232.3618
21
160.9602
31
0
0
LINE
8
VISIBLE
10
232.3618
20
160.9602
30
0
11
232.5488
21
161.1791
31
0
0
LINE
8
VISIBLE
10
232.5488
20
160.3626
30
0
11
232.3592
21
160.1406
31
0
0
LINE
8
VISIBLE
10
232.5497
20
160.3642
30
0
11
232.5488
21
160.3626
31
0
0
LINE
8
VISIBLE
10
232.5488
20
161.1791
30
0
11
232.5516
21
161.1839
31
0
0
LINE
8
VISIBLE
10
232.5516
20
161.1839
30
0
11
232.6876
21
161.4151
31
0
0
LINE
8
VISIBLE
10
232.6876
20
160.5986
30
0
11
232.5497
21
160.3642
31
0
0
LINE
8
VISIBLE
10
232.6881
20
160.6003
30
0
11
232.6876
21
160.5986
31
0
0
LINE
8
VISIBLE
10
232.6876
20
161.4151
30
0
11
232.6893
21
161.4201
31
0
0
LINE
8
VISIBLE
10
232.6893
20
161.4201
30
0
11
232.7718
21
161.6596
31
0
0
LINE
8
VISIBLE
10
232.7718
20
160.8431
30
0
11
232.6881
21
160.6003
31
0
0
LINE
8
VISIBLE
10
232.7720
20
160.8448
30
0
11
232.7718
21
160.8431
31
0
0
LINE
8
VISIBLE
10
232.7718
20
161.6596
30
0
11
232.7723
21
161.6646
31
0
0
LINE
8
VISIBLE
10
232.7723
20
161.6646
30
0
11
232.8000
21
161.9082
31
0
0
LINE
8
VISIBLE
10
232.8000
20
161.0918
30
0
11
232.7720
21
160.8448
31
0
0
LINE
8
VISIBLE
10
232.7998
20
161.0934
30
0
11
232.8000
21
161.0918
31
0
0
LINE
8
VISIBLE
10
232.8000
20
161.9082
30
0
11
232.7994
21
161.9133
31
0
0
LINE
8
VISIBLE
10
232.7994
20
161.9133
30
0
11
232.7718
21
162.1569
31
0
0
LINE
8
VISIBLE
10
232.7718
20
161.3404
30
0
11
232.7998
21
161.0934
31
0
0
LINE
8
VISIBLE
10
232.7712
20
161.3421
30
0
11
232.7718
21
161.3404
31
0
0
LINE
8
VISIBLE
10
232.7718
20
162.1569
30
0
11
232.7701
21
162.1619
31
0
0
LINE
8
VISIBLE
10
232.7701
20
162.1619
30
0
11
232.6876
21
162.4014
31
0
0
LINE
8
VISIBLE
10
232.6876
20
161.5849
30
0
11
232.7712
21
161.3421
31
0
0
LINE
8
VISIBLE
10
232.6866
20
161.5865
30
0
11
232.6876
21
161.5849
31
0
0
LINE
8
VISIBLE
10
232.6876
20
162.4014
30
0
11
232.6847
21
162.4062
31
0
0
LINE
8
VISIBLE
10
232.6847
20
162.4062
30
0
11
232.5488
21
162.6374
31
0
0
LINE
8
VISIBLE
10
232.5488
20
161.8209
30
0
11
232.6866
21
161.5865
31
0
0
LINE
8
VISIBLE
10
232.5475
20
161.8224
30
0
11
232.5488
21
161.8209
31
0
0
LINE
8
VISIBLE
10
232.5488
20
162.6374
30
0
11
232.5449
21
162.6419
31
0
0
LINE
8
VISIBLE
10
232.5449
20
162.6419
30
0
11
232.3579
21
162.8609
31
0
0
LINE
8
VISIBLE
10
232.3579
20
162.0444
30
0
11
232.5475
21
161.8224
31
0
0
LINE
8
VISIBLE
10
232.3563
20
162.0458
30
0
11
232.3579
21
162.0444
31
0
0
LINE
8
VISIBLE
10
232.3579
20
162.8609
30
0
11
232.3530
21
162.8651
31
0
0
LINE
8
VISIBLE
10
232.3530
20
162.8651
30
0
11
232.1181
21
163.0681
31
0
0
LINE
8
VISIBLE
10
232.1181
20
162.2516
30
0
11
232.3563
21
162.0458
31
0
0
LINE
8
VISIBLE
10
232.1161
20
162.2529
30
0
11
232.1181
21
162.2516
31
0
0
LINE
8
VISIBLE
10
232.1181
20
163.0681
30
0
11
232.1123
21
163.0719
31
0
0
LINE
8
VISIBLE
10
232.1123
20
163.0719
30
0
11
231.8335
21
163.2555
31
0
0
LINE
8
VISIBLE
10
231.8335
20
162.4390
30
0
11
232.1161
21
162.2529
31
0
0
LINE
8
VISIBLE
10
231.8312
20
162.4401
30
0
11
231.8335
21
162.4390
31
0
0
LINE
8
VISIBLE
10
231.8335
20
163.2555
30
0
11
231.8268
21
163.2588
31
0
0
LINE
8
VISIBLE
10
231.8268
20
163.2588
30
0
11
231.5089
21
163.4198
31
0
0
LINE
8
VISIBLE
10
231.5089
20
162.6033
30
0
11
231.8312
21
162.4401
31
0
0
LINE
8
VISIBLE
10
231.5065
20
162.6042
30
0
11
231.5089
21
162.6033
31
0
0
LINE
8
VISIBLE
10
231.5089
20
163.4198
30
0
11
231.5016
21
163.4226
31
0
0
LINE
8
VISIBLE
10
231.5016
20
163.4226
30
0
11
231.1500
21
163.5582
31
0
0
LINE
8
VISIBLE
10
231.1500
20
162.7418
30
0
11
231.5065
21
162.6042
31
0
0
LINE
8
VISIBLE
10
231.1474
20
162.7425
30
0
11
231.1500
21
162.7418
31
0
0
LINE
8
VISIBLE
10
231.1500
20
163.5582
30
0
11
231.1421
21
163.5605
31
0
0
LINE
8
VISIBLE
10
231.1421
20
163.5605
30
0
11
230.7629
21
163.6685
31
0
0
LINE
8
VISIBLE
10
230.7629
20
162.8520
30
0
11
231.1474
21
162.7425
31
0
0
LINE
8
VISIBLE
10
230.7601
20
162.8525
30
0
11
230.7629
21
162.8520
31
0
0
LINE
8
VISIBLE
10
230.7629
20
163.6685
30
0
11
230.7545
21
163.6701
31
0
0
LINE
8
VISIBLE
10
230.7545
20
163.6701
30
0
11
230.3541
21
163.7486
31
0
0
LINE
8
VISIBLE
10
230.3541
20
162.9321
30
0
11
230.7601
21
162.8525
31
0
0
LINE
8
VISIBLE
10
230.3512
20
162.9324
30
0
11
230.3541
21
162.9321
31
0
0
LINE
8
VISIBLE
10
230.3541
20
163.7486
30
0
11
230.3455
21
163.7496
31
0
0
LINE
8
VISIBLE
10
230.3455
20
163.7496
30
0
11
229.9307
21
163.7972
31
0
0
LINE
8
VISIBLE
10
229.9307
20
162.9807
30
0
11
230.3512
21
162.9324
31
0
0
LINE
8
VISIBLE
10
229.9278
20
162.9808
30
0
11
229.9307
21
162.9807
31
0
0
LINE
8
VISIBLE
10
229.9307
20
163.7972
30
0
11
229.9220
21
163.7975
31
0
0
LINE
8
VISIBLE
10
229.9220
20
163.7975
30
0
11
229.5000
21
163.8135
31
0
0
LINE
8
VISIBLE
10
229.5000
20
162.9970
30
0
11
229.9278
21
162.9808
31
0
0
LINE
8
VISIBLE
10
229.4971
20
162.9969
30
0
11
229.5000
21
162.9970
31
0
0
LINE
8
VISIBLE
10
229.5000
20
163.8135
30
0
11
229.4912
21
163.8132
31
0
0
LINE
8
VISIBLE
10
229.4912
20
163.8132
30
0
11
229.0693
21
163.7972
31
0
0
LINE
8
VISIBLE
10
229.0693
20
162.9807
30
0
11
229.4971
21
162.9969
31
0
0
LINE
8
VISIBLE
10
229.0664
20
162.9804
30
0
11
229.0693
21
162.9807
31
0
0
LINE
8
VISIBLE
10
229.0693
20
163.7972
30
0
11
229.0606
21
163.7962
31
0
0
LINE
8
VISIBLE
10
229.0606
20
163.7962
30
0
11
228.6459
21
163.7486
31
0
0
LINE
8
VISIBLE
10
228.6459
20
162.9321
30
0
11
229.0664
21
162.9804
31
0
0
LINE
8
VISIBLE
10
228.6431
20
162.9315
30
0
11
228.6459
21
162.9321
31
0
0
LINE
8
VISIBLE
10
228.6459
20
163.7486
30
0
11
228.6376
21
163.7470
31
0
0
LINE
8
VISIBLE
10
228.6376
20
163.7470
30
0
11
228.2371
21
163.6685
31
0
0
LINE
8
VISIBLE
10
228.2371
20
162.8520
30
0
11
228.6431
21
162.9315
31
0
0
LINE
8
VISIBLE
10
228.2345
20
162.8512
30
0
11
228.2371
21
162.8520
31
0
0
LINE
8
VISIBLE
10
228.2371
20
163.6685
30
0
11
228.2293
21
163.6662
31
0
0
LINE
8
VISIBLE
10
228.2293
20
163.6662
30
0
11
227.8500
21
163.5582
31
0
0
LINE
8
VISIBLE
10
227.8500
20
162.7418
30
0
11
228.2345
21
162.8512
31
0
0
LINE
8
VISIBLE
10
227.8476
20
162.7408
30
0
11
227.8500
21
162.7418
31
0
0
LINE
8
VISIBLE
10
227.8500
20
163.5582
30
0
11
227.8427
21
163.5554
31
0
0
LINE
8
VISIBLE
10
227.8427
20
163.5554
30
0
11
227.4911
21
163.4198
31
0
0
LINE
8
VISIBLE
10
227.4911
20
162.6033
30
0
11
227.8476
21
162.7408
31
0
0
LINE
8
VISIBLE
10
227.4889
20
162.6022
30
0
11
227.4911
21
162.6033
31
0
0
LINE
8
VISIBLE
10
227.4911
20
163.4198
30
0
11
227.4845
21
163.4164
31
0
0
LINE
8
VISIBLE
10
227.4845
20
163.4164
30
0
11
227.1665
21
163.2555
31
0
0
LINE
8
VISIBLE
10
227.1665
20
162.4390
30
0
11
227.4889
21
162.6022
31
0
0
TEXT
8
TEXTO
10
229.5000
20
186.3207
30
0
40
3.5000
1
ISOMÉTRICA
72
1
73
2
11
229.5000
21
186.3207
31
0
0
LINE
8
FINA
10
0.0000
20
0.0000
30
0
11
297.0000
21
0.0000
31
0
0
LINE
8
FINA
10
297.0000
20
0.0000
30
0
11
297.0000
21
210.0000
31
0
0
LINE
8
FINA
10
297.0000
20
210.0000
30
0
11
0.0000
21
210.0000
31
0
0
LINE
8
FINA
10
0.0000
20
210.0000
30
0
11
0.0000
21
0.0000
31
0
0
LINE
8
NORMA
10
20.0000
20
10.0000
30
0
11
287.0000
21
10.0000
31
0
0
LINE
8
NORMA
10
287.0000
20
10.0000
30
0
11
287.0000
21
200.0000
31
0
0
LINE
8
NORMA
10
287.0000
20
200.0000
30
0
11
20.0000
21
200.0000
31
0
0
LINE
8
NORMA
10
20.0000
20
200.0000
30
0
11
20.0000
21
10.0000
31
0
0
LINE
8
NORMA
10
0.0000
20
105.0000
30
0
11
25.0000
21
105.0000
31
0
0
LINE
8
NORMA
10
297.0000
20
105.0000
30
0
11
282.0000
21
105.0000
31
0
0
LINE
8
NORMA
10
148.5000
20
0.0000
30
0
11
148.5000
21
15.0000
31
0
0
LINE
8
NORMA
10
148.5000
20
210.0000
30
0
11
148.5000
21
195.0000
31
0
0
LINE
8
FINA
10
49.5000
20
0.0000
30
0
11
49.5000
21
10.0000
31
0
0
LINE
8
FINA
10
49.5000
20
200.0000
30
0
11
49.5000
21
210.0000
31
0
0
LINE
8
FINA
10
99.0000
20
0.0000
30
0
11
99.0000
21
10.0000
31
0
0
LINE
8
FINA
10
99.0000
20
200.0000
30
0
11
99.0000
21
210.0000
31
0
0
LINE
8
FINA
10
148.5000
20
0.0000
30
0
11
148.5000
21
10.0000
31
0
0
LINE
8
FINA
10
148.5000
20
200.0000
30
0
11
148.5000
21
210.0000
31
0
0
LINE
8
FINA
10
198.0000
20
0.0000
30
0
11
198.0000
21
10.0000
31
0
0
LINE
8
FINA
10
198.0000
20
200.0000
30
0
11
198.0000
21
210.0000
31
0
0
LINE
8
FINA
10
247.5000
20
0.0000
30
0
11
247.5000
21
10.0000
31
0
0
LINE
8
FINA
10
247.5000
20
200.0000
30
0
11
247.5000
21
210.0000
31
0
0
LINE
8
FINA
10
0.0000
20
52.5000
30
0
11
10.0000
21
52.5000
31
0
0
LINE
8
FINA
10
287.0000
20
52.5000
30
0
11
297.0000
21
52.5000
31
0
0
LINE
8
FINA
10
0.0000
20
105.0000
30
0
11
10.0000
21
105.0000
31
0
0
LINE
8
FINA
10
287.0000
20
105.0000
30
0
11
297.0000
21
105.0000
31
0
0
LINE
8
FINA
10
0.0000
20
157.5000
30
0
11
10.0000
21
157.5000
31
0
0
LINE
8
FINA
10
287.0000
20
157.5000
30
0
11
297.0000
21
157.5000
31
0
0
TEXT
8
TEXTO
10
24.7500
20
5.0000
30
0
40
2.5000
1
1
72
1
73
2
11
24.7500
21
5.0000
31
0
0
TEXT
8
TEXTO
10
24.7500
20
205.0000
30
0
40
2.5000
1
1
72
1
73
2
11
24.7500
21
205.0000
31
0
0
TEXT
8
TEXTO
10
74.2500
20
5.0000
30
0
40
2.5000
1
2
72
1
73
2
11
74.2500
21
5.0000
31
0
0
TEXT
8
TEXTO
10
74.2500
20
205.0000
30
0
40
2.5000
1
2
72
1
73
2
11
74.2500
21
205.0000
31
0
0
TEXT
8
TEXTO
10
123.7500
20
5.0000
30
0
40
2.5000
1
3
72
1
73
2
11
123.7500
21
5.0000
31
0
0
TEXT
8
TEXTO
10
123.7500
20
205.0000
30
0
40
2.5000
1
3
72
1
73
2
11
123.7500
21
205.0000
31
0
0
TEXT
8
TEXTO
10
173.2500
20
5.0000
30
0
40
2.5000
1
4
72
1
73
2
11
173.2500
21
5.0000
31
0
0
TEXT
8
TEXTO
10
173.2500
20
205.0000
30
0
40
2.5000
1
4
72
1
73
2
11
173.2500
21
205.0000
31
0
0
TEXT
8
TEXTO
10
222.7500
20
5.0000
30
0
40
2.5000
1
5
72
1
73
2
11
222.7500
21
5.0000
31
0
0
TEXT
8
TEXTO
10
222.7500
20
205.0000
30
0
40
2.5000
1
5
72
1
73
2
11
222.7500
21
205.0000
31
0
0
TEXT
8
TEXTO
10
272.2500
20
5.0000
30
0
40
2.5000
1
6
72
1
73
2
11
272.2500
21
5.0000
31
0
0
TEXT
8
TEXTO
10
272.2500
20
205.0000
30
0
40
2.5000
1
6
72
1
73
2
11
272.2500
21
205.0000
31
0
0
TEXT
8
TEXTO
10
5.0000
20
183.7500
30
0
40
2.5000
1
A
72
1
73
2
11
5.0000
21
183.7500
31
0
0
TEXT
8
TEXTO
10
292.0000
20
183.7500
30
0
40
2.5000
1
A
72
1
73
2
11
292.0000
21
183.7500
31
0
0
TEXT
8
TEXTO
10
5.0000
20
131.2500
30
0
40
2.5000
1
B
72
1
73
2
11
5.0000
21
131.2500
31
0
0
TEXT
8
TEXTO
10
292.0000
20
131.2500
30
0
40
2.5000
1
B
72
1
73
2
11
292.0000
21
131.2500
31
0
0
TEXT
8
TEXTO
10
5.0000
20
78.7500
30
0
40
2.5000
1
C
72
1
73
2
11
5.0000
21
78.7500
31
0
0
TEXT
8
TEXTO
10
292.0000
20
78.7500
30
0
40
2.5000
1
C
72
1
73
2
11
292.0000
21
78.7500
31
0
0
TEXT
8
TEXTO
10
5.0000
20
26.2500
30
0
40
2.5000
1
D
72
1
73
2
11
5.0000
21
26.2500
31
0
0
TEXT
8
TEXTO
10
292.0000
20
26.2500
30
0
40
2.5000
1
D
72
1
73
2
11
292.0000
21
26.2500
31
0
0
LINE
8
NORMA
10
107.0000
20
10.0000
30
0
11
287.0000
21
10.0000
31
0
0
LINE
8
NORMA
10
287.0000
20
10.0000
30
0
11
287.0000
21
52.0000
31
0
0
LINE
8
NORMA
10
287.0000
20
52.0000
30
0
11
107.0000
21
52.0000
31
0
0
LINE
8
NORMA
10
107.0000
20
52.0000
30
0
11
107.0000
21
10.0000
31
0
0
LINE
8
NORMA
10
147.0000
20
10.0000
30
0
11
147.0000
21
52.0000
31
0
0
LINE
8
NORMA
10
241.0000
20
10.0000
30
0
11
241.0000
21
52.0000
31
0
0
LINE
8
FINA
10
107.0000
20
29.0000
30
0
11
147.0000
21
29.0000
31
0
0
TEXT
8
TEXTO
10
127.0000
20
43.8000
30
0
40
6.0000
1
foto3d
72
1
73
2
11
127.0000
21
43.8000
31
0
0
LINE
8
FINA
10
113.5000
20
38.6000
30
0
11
140.5000
21
38.6000
31
0
0
TEXT
8
TEXTO
10
127.0000
20
35.8000
30
0
40
1.3000
1
CAD · DISEŃO CAPA USER
72
1
73
2
11
127.0000
21
35.8000
31
0
0
TEXT
8
TEXTO
10
127.0000
20
32.6000
30
0
40
1.3000
1
ISO 5457 · 7200 · 129 · 5456-2
72
1
73
2
11
127.0000
21
32.6000
31
0
0
TEXT
8
TEXTO
10
127.0000
20
26.6000
30
0
40
1.4000
1
PROYECCIÓN — PRIMER DIEDRO
72
1
73
2
11
127.0000
21
26.6000
31
0
0
CIRCLE
8
TEXTO
10
122.4000
20
17.5000
30
0
40
2.9900
0
CIRCLE
8
TEXTO
10
122.4000
20
17.5000
30
0
40
1.6100
0
LINE
8
TEXTO
10
127.4600
20
14.5100
30
0
11
134.5900
21
15.8900
31
0
0
LINE
8
TEXTO
10
134.5900
20
15.8900
30
0
11
134.5900
21
19.1100
31
0
0
LINE
8
TEXTO
10
134.5900
20
19.1100
30
0
11
127.4600
21
20.4900
31
0
0
LINE
8
TEXTO
10
127.4600
20
20.4900
30
0
11
127.4600
21
14.5100
31
0
0
LINE
8
FINA
10
118.0300
20
17.5000
30
0
11
135.9700
21
17.5000
31
0
0
LINE
8
FINA
10
147.0000
20
39.0000
30
0
11
241.0000
21
39.0000
31
0
0
LINE
8
FINA
10
147.0000
20
29.0000
30
0
11
241.0000
21
29.0000
31
0
0
LINE
8
FINA
10
147.0000
20
19.0000
30
0
11
241.0000
21
19.0000
31
0
0
LINE
8
FINA
10
194.0000
20
29.0000
30
0
11
194.0000
21
39.0000
31
0
0
LINE
8
FINA
10
203.0000
20
19.0000
30
0
11
203.0000
21
29.0000
31
0
0
TEXT
8
TEXTO
10
148.3000
20
49.6000
30
0
40
1.4000
1
DESIGNACIÓN
0
TEXT
8
TEXTO
10
148.6000
20
44.1000
30
0
40
4.2000
1
Shim de nivelación 1 mm
72
0
73
2
11
148.6000
21
44.1000
31
0
0
TEXT
8
TEXTO
10
148.3000
20
36.6000
30
0
40
1.4000
1
PROYECTO
0
TEXT
8
TEXTO
10
148.6000
20
32.6000
30
0
40
2.8000
1
TRANSFERENCIA 90°
72
0
73
2
11
148.6000
21
32.6000
31
0
0
TEXT
8
TEXTO
10
195.3000
20
36.6000
30
0
40
1.4000
1
FUENTE
0
TEXT
8
TEXTO
10
195.6000
20
32.6000
30
0
40
2.4000
1
diseńo paramétrico — capa user
72
0
73
2
11
195.6000
21
32.6000
31
0
0
TEXT
8
TEXTO
10
148.3000
20
26.6000
30
0
40
1.4000
1
VERIFICACIÓN DE ESCALA
0
TEXT
8
TEXTO
10
148.6000
20
22.6000
30
0
40
2.4000
1
CAD EN MM (CAPA USER)
72
0
73
2
11
148.6000
21
22.6000
31
0
0
TEXT
8
TEXTO
10
204.3000
20
26.6000
30
0
40
1.4000
1
PIEZAS
0
TEXT
8
TEXTO
10
204.6000
20
22.6000
30
0
40
2.6000
1
4
72
0
73
2
11
204.6000
21
22.6000
31
0
0
TEXT
8
TEXTO
10
148.3000
20
16.6000
30
0
40
1.4000
1
NOTA
0
TEXT
8
TEXTO
10
148.6000
20
13.1000
30
0
40
2.2000
1
Material: Acero · tol. gral. ISO 2768-mK
72
0
73
2
11
148.6000
21
13.1000
31
0
0
LINE
8
FINA
10
241.0000
20
39.0000
30
0
11
287.0000
21
39.0000
31
0
0
LINE
8
FINA
10
241.0000
20
29.0000
30
0
11
287.0000
21
29.0000
31
0
0
LINE
8
FINA
10
241.0000
20
19.0000
30
0
11
287.0000
21
19.0000
31
0
0
LINE
8
FINA
10
264.0000
20
29.0000
30
0
11
264.0000
21
39.0000
31
0
0
LINE
8
FINA
10
267.0000
20
19.0000
30
0
11
267.0000
21
29.0000
31
0
0
TEXT
8
TEXTO
10
242.3000
20
49.6000
30
0
40
1.4000
1
ESCALA
0
TEXT
8
TEXTO
10
264.0000
20
44.1000
30
0
40
5.0000
1
1:1
72
1
73
2
11
264.0000
21
44.1000
31
0
0
TEXT
8
TEXTO
10
242.3000
20
36.6000
30
0
40
1.4000
1
FORMATO
0
TEXT
8
TEXTO
10
252.5000
20
32.6000
30
0
40
3.0000
1
A4
72
1
73
2
11
252.5000
21
32.6000
31
0
0
TEXT
8
TEXTO
10
265.3000
20
36.6000
30
0
40
1.4000
1
LÁMINA
0
TEXT
8
TEXTO
10
275.5000
20
32.6000
30
0
40
3.0000
1
1 / 1
72
1
73
2
11
275.5000
21
32.6000
31
0
0
TEXT
8
TEXTO
10
242.3000
20
26.6000
30
0
40
1.4000
1
FECHA
0
TEXT
8
TEXTO
10
254.0000
20
22.6000
30
0
40
2.6000
1
2026-07-20
72
1
73
2
11
254.0000
21
22.6000
31
0
0
TEXT
8
TEXTO
10
268.3000
20
26.6000
30
0
40
1.4000
1
UNIDADES
0
TEXT
8
TEXTO
10
277.0000
20
22.6000
30
0
40
3.0000
1
mm
72
1
73
2
11
277.0000
21
22.6000
31
0
0
TEXT
8
TEXTO
10
242.3000
20
16.6000
30
0
40
1.4000
1
Nş DE PLANO
0
TEXT
8
TEXTO
10
264.0000
20
13.1000
30
0
40
2.6000
1
TR-09
72
1
73
2
11
264.0000
21
13.1000
31
0
0
ENDSEC
0
EOF
