0
SECTION
2
HEADER
9
$ACADVER
1
AC1009
9
$DWGCODEPAGE
3
ANSI_1252
0
ENDSEC
0
SECTION
2
TABLES
0
TABLE
2
LTYPE
70
2
0
LTYPE
2
CONTINUOUS
70
0
3
Solid line
72
65
73
0
40
0
0
LTYPE
2
DASHED
70
0
3
Segmentada __ __ __
72
65
73
2
40
6
49
4
49
-2
0
ENDTAB
0
TABLE
2
LAYER
70
7
0
LAYER
2
SOMBRA
70
0
62
8
6
CONTINUOUS
0
LAYER
2
NORMA
70
0
62
7
6
CONTINUOUS
0
LAYER
2
FINA
70
0
62
7
6
CONTINUOUS
0
LAYER
2
VISIBLE
70
0
62
7
6
CONTINUOUS
0
LAYER
2
COTAS
70
0
62
7
6
CONTINUOUS
0
LAYER
2
TEXTO
70
0
62
7
6
CONTINUOUS
0
LAYER
2
PLIEGUE
70
0
62
1
6
DASHED
0
ENDTAB
0
ENDSEC
0
SECTION
2
ENTITIES
0
LINE
8
VISIBLE
10
116.2365
20
134.8617
30
0
11
116.2365
21
157.6793
31
0
0
LINE
8
VISIBLE
10
116.2365
20
157.6793
30
0
11
116.2365
21
157.6793
31
0
0
LINE
8
VISIBLE
10
116.2365
20
157.6793
30
0
11
116.2365
21
134.8617
31
0
0
LINE
8
VISIBLE
10
116.2365
20
133.1007
30
0
11
116.2365
21
134.8617
31
0
0
LINE
8
VISIBLE
10
116.2365
20
134.8617
30
0
11
116.2365
21
133.1007
31
0
0
LINE
8
VISIBLE
10
116.2365
20
131.3551
30
0
11
116.2365
21
133.1007
31
0
0
LINE
8
VISIBLE
10
116.2365
20
133.1007
30
0
11
116.2365
21
131.3551
31
0
0
LINE
8
VISIBLE
10
116.2365
20
129.6793
30
0
11
116.2365
21
131.3551
31
0
0
LINE
8
VISIBLE
10
116.2365
20
131.3551
30
0
11
116.2365
21
129.6793
31
0
0
LINE
8
VISIBLE
10
116.2365
20
129.6793
30
0
11
116.2365
21
129.6793
31
0
0
LINE
8
VISIBLE
10
88.2365
20
157.6793
30
0
11
88.2365
21
136.6969
31
0
0
LINE
8
VISIBLE
10
88.2365
20
136.6969
30
0
11
88.2365
21
157.6793
31
0
0
LINE
8
VISIBLE
10
88.2365
20
157.6793
30
0
11
88.2365
21
157.6793
31
0
0
LINE
8
VISIBLE
10
88.2365
20
129.7965
30
0
11
88.2365
21
129.6793
31
0
0
LINE
8
VISIBLE
10
88.2365
20
129.6793
30
0
11
88.2365
21
129.6793
31
0
0
LINE
8
VISIBLE
10
88.2365
20
129.6793
30
0
11
88.2365
21
129.7965
31
0
0
LINE
8
VISIBLE
10
88.2365
20
131.7131
30
0
11
88.2365
21
129.7965
31
0
0
LINE
8
VISIBLE
10
88.2365
20
129.7965
30
0
11
88.2365
21
131.7131
31
0
0
LINE
8
VISIBLE
10
88.2365
20
133.8610
30
0
11
88.2365
21
131.7131
31
0
0
LINE
8
VISIBLE
10
88.2365
20
131.7131
30
0
11
88.2365
21
133.8610
31
0
0
LINE
8
VISIBLE
10
88.2365
20
136.4115
30
0
11
88.2365
21
133.8610
31
0
0
LINE
8
VISIBLE
10
88.2365
20
133.8610
30
0
11
88.2365
21
136.4115
31
0
0
LINE
8
VISIBLE
10
88.2365
20
136.6969
30
0
11
88.2365
21
136.4115
31
0
0
LINE
8
VISIBLE
10
88.2365
20
136.4115
30
0
11
88.2365
21
136.6969
31
0
0
LINE
8
VISIBLE
10
88.2365
20
157.6793
30
0
11
116.2365
21
157.6793
31
0
0
LINE
8
VISIBLE
10
116.2365
20
129.6793
30
0
11
115.9989
21
129.6793
31
0
0
LINE
8
VISIBLE
10
115.9989
20
129.6793
30
0
11
113.1928
21
129.6793
31
0
0
LINE
8
VISIBLE
10
113.1928
20
129.6793
30
0
11
111.4683
21
129.6793
31
0
0
LINE
8
VISIBLE
10
111.4683
20
129.6793
30
0
11
110.3326
21
129.6793
31
0
0
LINE
8
VISIBLE
10
110.3326
20
129.6793
30
0
11
109.5572
21
129.6793
31
0
0
LINE
8
VISIBLE
10
109.5572
20
129.6793
30
0
11
109.0234
21
129.6793
31
0
0
LINE
8
VISIBLE
10
109.0234
20
129.6793
30
0
11
108.6646
21
129.6793
31
0
0
LINE
8
VISIBLE
10
108.6646
20
129.6793
30
0
11
108.4427
21
129.6793
31
0
0
LINE
8
VISIBLE
10
108.4427
20
129.6793
30
0
11
108.1287
21
131.2581
31
0
0
LINE
8
VISIBLE
10
108.4427
20
129.6793
30
0
11
108.3365
21
129.6793
31
0
0
LINE
8
VISIBLE
10
108.3365
20
129.6793
30
0
11
108.2844
21
130.4755
31
0
0
LINE
8
VISIBLE
10
88.4742
20
129.6793
30
0
11
88.2365
21
129.6793
31
0
0
LINE
8
VISIBLE
10
91.2803
20
129.6793
30
0
11
88.4742
21
129.6793
31
0
0
LINE
8
VISIBLE
10
93.0048
20
129.6793
30
0
11
91.2803
21
129.6793
31
0
0
LINE
8
VISIBLE
10
94.1405
20
129.6793
30
0
11
93.0048
21
129.6793
31
0
0
LINE
8
VISIBLE
10
94.9158
20
129.6793
30
0
11
94.1405
21
129.6793
31
0
0
LINE
8
VISIBLE
10
95.4497
20
129.6793
30
0
11
94.9158
21
129.6793
31
0
0
LINE
8
VISIBLE
10
95.8085
20
129.6793
30
0
11
95.4497
21
129.6793
31
0
0
LINE
8
VISIBLE
10
96.0304
20
129.6793
30
0
11
95.8085
21
129.6793
31
0
0
LINE
8
VISIBLE
10
96.1365
20
129.6793
30
0
11
96.0304
21
129.6793
31
0
0
LINE
8
VISIBLE
10
101.0072
20
135.8599
30
0
11
99.1865
21
134.9621
31
0
0
LINE
8
VISIBLE
10
101.4265
20
135.8324
30
0
11
99.9022
21
135.3150
31
0
0
LINE
8
VISIBLE
10
101.8350
20
135.8057
30
0
11
100.6577
21
135.5715
31
0
0
LINE
8
VISIBLE
10
102.2365
20
135.7793
30
0
11
101.4403
21
135.7272
31
0
0
LINE
8
VISIBLE
10
116.2365
20
157.6793
30
0
11
88.2365
21
157.6793
31
0
0
LINE
8
VISIBLE
10
115.9989
20
129.6793
30
0
11
116.2365
21
129.6793
31
0
0
LINE
8
VISIBLE
10
113.1928
20
129.6793
30
0
11
115.9989
21
129.6793
31
0
0
LINE
8
VISIBLE
10
111.4683
20
129.6793
30
0
11
113.1928
21
129.6793
31
0
0
LINE
8
VISIBLE
10
110.3326
20
129.6793
30
0
11
111.4683
21
129.6793
31
0
0
LINE
8
VISIBLE
10
109.5572
20
129.6793
30
0
11
110.3326
21
129.6793
31
0
0
LINE
8
VISIBLE
10
109.0234
20
129.6793
30
0
11
109.5572
21
129.6793
31
0
0
LINE
8
VISIBLE
10
108.6646
20
129.6793
30
0
11
109.0234
21
129.6793
31
0
0
LINE
8
VISIBLE
10
108.4427
20
129.6793
30
0
11
108.6646
21
129.6793
31
0
0
LINE
8
VISIBLE
10
108.3365
20
129.6793
30
0
11
108.4427
21
129.6793
31
0
0
LINE
8
VISIBLE
10
88.2365
20
129.6793
30
0
11
88.4742
21
129.6793
31
0
0
LINE
8
VISIBLE
10
88.4742
20
129.6793
30
0
11
91.2803
21
129.6793
31
0
0
LINE
8
VISIBLE
10
91.2803
20
129.6793
30
0
11
93.0048
21
129.6793
31
0
0
LINE
8
VISIBLE
10
93.0048
20
129.6793
30
0
11
94.1405
21
129.6793
31
0
0
LINE
8
VISIBLE
10
94.1405
20
129.6793
30
0
11
94.9158
21
129.6793
31
0
0
LINE
8
VISIBLE
10
94.9158
20
129.6793
30
0
11
95.4497
21
129.6793
31
0
0
LINE
8
VISIBLE
10
95.4497
20
129.6793
30
0
11
95.8085
21
129.6793
31
0
0
LINE
8
VISIBLE
10
95.8085
20
129.6793
30
0
11
96.0304
21
129.6793
31
0
0
LINE
8
VISIBLE
10
96.0304
20
129.6793
30
0
11
96.1365
21
129.6793
31
0
0
LINE
8
VISIBLE
10
96.1365
20
129.6793
30
0
11
108.3365
21
129.6793
31
0
0
LINE
8
VISIBLE
10
108.3365
20
129.6793
30
0
11
108.3365
21
129.6793
31
0
0
LINE
8
VISIBLE
10
96.1365
20
129.6793
30
0
11
96.1365
21
129.6793
31
0
0
LINE
8
VISIBLE
10
103.0143
20
129.6793
30
0
11
108.3365
21
129.6793
31
0
0
LINE
8
VISIBLE
10
96.1365
20
129.6793
30
0
11
103.0143
21
129.6793
31
0
0
LINE
8
VISIBLE
10
102.2365
20
135.7793
30
0
11
102.4046
21
135.7683
31
0
0
LINE
8
VISIBLE
10
102.4046
20
135.7683
30
0
11
103.0328
21
135.7272
31
0
0
LINE
8
VISIBLE
10
103.0328
20
135.7272
30
0
11
102.2365
21
135.7793
31
0
0
LINE
8
VISIBLE
10
103.0328
20
135.7272
30
0
11
103.1980
21
135.6943
31
0
0
LINE
8
VISIBLE
10
103.1980
20
135.6943
30
0
11
103.8153
21
135.5715
31
0
0
LINE
8
VISIBLE
10
103.8153
20
135.5715
30
0
11
103.0328
21
135.7272
31
0
0
LINE
8
VISIBLE
10
103.8153
20
135.5715
30
0
11
103.9749
21
135.5173
31
0
0
LINE
8
VISIBLE
10
103.9749
20
135.5173
30
0
11
104.5709
21
135.3150
31
0
0
LINE
8
VISIBLE
10
104.5709
20
135.3150
30
0
11
103.8153
21
135.5715
31
0
0
LINE
8
VISIBLE
10
104.5709
20
135.3150
30
0
11
104.7220
21
135.2405
31
0
0
LINE
8
VISIBLE
10
104.7220
20
135.2405
30
0
11
105.2865
21
134.9621
31
0
0
LINE
8
VISIBLE
10
105.2865
20
134.9621
30
0
11
104.5709
21
135.3150
31
0
0
LINE
8
VISIBLE
10
105.2865
20
134.9621
30
0
11
105.4266
21
134.8685
31
0
0
LINE
8
VISIBLE
10
105.4266
20
134.8685
30
0
11
105.9500
21
134.5188
31
0
0
LINE
8
VISIBLE
10
105.9500
20
134.5188
30
0
11
105.2865
21
134.9621
31
0
0
LINE
8
VISIBLE
10
105.9500
20
134.5188
30
0
11
106.0766
21
134.4077
31
0
0
LINE
8
VISIBLE
10
106.0766
20
134.4077
30
0
11
106.5499
21
133.9927
31
0
0
LINE
8
VISIBLE
10
106.5499
20
133.9927
30
0
11
105.9500
21
134.5188
31
0
0
LINE
8
VISIBLE
10
106.5499
20
133.9927
30
0
11
106.6610
21
133.8660
31
0
0
LINE
8
VISIBLE
10
106.6610
20
133.8660
30
0
11
107.0760
21
133.3928
31
0
0
LINE
8
VISIBLE
10
107.0760
20
133.3928
30
0
11
106.5499
21
133.9927
31
0
0
LINE
8
VISIBLE
10
107.0760
20
133.3928
30
0
11
107.1696
21
133.2527
31
0
0
LINE
8
VISIBLE
10
107.1696
20
133.2527
30
0
11
107.5193
21
132.7293
31
0
0
LINE
8
VISIBLE
10
107.5193
20
132.7293
30
0
11
107.0760
21
133.3928
31
0
0
LINE
8
VISIBLE
10
107.5193
20
132.7293
30
0
11
107.5938
21
132.5782
31
0
0
LINE
8
VISIBLE
10
107.5938
20
132.5782
30
0
11
107.8722
21
132.0137
31
0
0
LINE
8
VISIBLE
10
107.8722
20
132.0137
30
0
11
107.5193
21
132.7293
31
0
0
LINE
8
VISIBLE
10
107.8722
20
132.0137
30
0
11
107.9264
21
131.8542
31
0
0
LINE
8
VISIBLE
10
107.9264
20
131.8542
30
0
11
108.1287
21
131.2581
31
0
0
LINE
8
VISIBLE
10
108.1287
20
131.2581
30
0
11
107.8722
21
132.0137
31
0
0
LINE
8
VISIBLE
10
108.1287
20
131.2581
30
0
11
108.1616
21
131.0929
31
0
0
LINE
8
VISIBLE
10
108.1616
20
131.0929
30
0
11
108.2844
21
130.4755
31
0
0
LINE
8
VISIBLE
10
108.2844
20
130.4755
30
0
11
108.1287
21
131.2581
31
0
0
LINE
8
VISIBLE
10
108.2844
20
130.4755
30
0
11
108.2954
21
130.3074
31
0
0
LINE
8
VISIBLE
10
108.2954
20
130.3074
30
0
11
108.3365
21
129.6793
31
0
0
LINE
8
VISIBLE
10
108.3365
20
129.6793
30
0
11
108.3365
21
129.6793
31
0
0
LINE
8
VISIBLE
10
108.3365
20
129.6793
30
0
11
108.2844
21
130.4755
31
0
0
LINE
8
VISIBLE
10
96.1365
20
129.6793
30
0
11
96.1365
21
129.6793
31
0
0
LINE
8
VISIBLE
10
96.1365
20
129.6793
30
0
11
96.1476
21
129.8474
31
0
0
LINE
8
VISIBLE
10
96.1476
20
129.8474
30
0
11
96.1887
21
130.4755
31
0
0
LINE
8
VISIBLE
10
96.1887
20
130.4755
30
0
11
96.1365
21
129.6793
31
0
0
LINE
8
VISIBLE
10
96.1887
20
130.4755
30
0
11
96.2216
21
130.6408
31
0
0
LINE
8
VISIBLE
10
96.2216
20
130.6408
30
0
11
96.3444
21
131.2581
31
0
0
LINE
8
VISIBLE
10
96.3444
20
131.2581
30
0
11
96.1887
21
130.4755
31
0
0
LINE
8
VISIBLE
10
96.3444
20
131.2581
30
0
11
96.3985
21
131.4177
31
0
0
LINE
8
VISIBLE
10
96.3985
20
131.4177
30
0
11
96.6009
21
132.0137
31
0
0
LINE
8
VISIBLE
10
96.6009
20
132.0137
30
0
11
96.3444
21
131.2581
31
0
0
LINE
8
VISIBLE
10
96.6009
20
132.0137
30
0
11
96.6754
21
132.1648
31
0
0
LINE
8
VISIBLE
10
96.6754
20
132.1648
30
0
11
96.9538
21
132.7293
31
0
0
LINE
8
VISIBLE
10
96.9538
20
132.7293
30
0
11
96.6009
21
132.0137
31
0
0
LINE
8
VISIBLE
10
96.9538
20
132.7293
30
0
11
97.0474
21
132.8694
31
0
0
LINE
8
VISIBLE
10
97.0474
20
132.8694
30
0
11
97.3971
21
133.3928
31
0
0
LINE
8
VISIBLE
10
97.3971
20
133.3928
30
0
11
96.9538
21
132.7293
31
0
0
LINE
8
VISIBLE
10
97.3971
20
133.3928
30
0
11
97.5082
21
133.5194
31
0
0
LINE
8
VISIBLE
10
97.5082
20
133.5194
30
0
11
97.9232
21
133.9927
31
0
0
LINE
8
VISIBLE
10
97.9232
20
133.9927
30
0
11
97.3971
21
133.3928
31
0
0
LINE
8
VISIBLE
10
97.9232
20
133.9927
30
0
11
98.0498
21
134.1038
31
0
0
LINE
8
VISIBLE
10
98.0498
20
134.1038
30
0
11
98.5231
21
134.5188
31
0
0
LINE
8
VISIBLE
10
98.5231
20
134.5188
30
0
11
97.9232
21
133.9927
31
0
0
LINE
8
VISIBLE
10
98.5231
20
134.5188
30
0
11
98.6632
21
134.6124
31
0
0
LINE
8
VISIBLE
10
98.6632
20
134.6124
30
0
11
99.1865
21
134.9621
31
0
0
LINE
8
VISIBLE
10
99.1865
20
134.9621
30
0
11
98.5231
21
134.5188
31
0
0
LINE
8
VISIBLE
10
99.1865
20
134.9621
30
0
11
99.3376
21
135.0366
31
0
0
LINE
8
VISIBLE
10
99.3376
20
135.0366
30
0
11
99.9022
21
135.3150
31
0
0
LINE
8
VISIBLE
10
99.9022
20
135.3150
30
0
11
99.1865
21
134.9621
31
0
0
LINE
8
VISIBLE
10
99.9022
20
135.3150
30
0
11
100.0617
21
135.3692
31
0
0
LINE
8
VISIBLE
10
100.0617
20
135.3692
30
0
11
100.6577
21
135.5715
31
0
0
LINE
8
VISIBLE
10
100.6577
20
135.5715
30
0
11
99.9022
21
135.3150
31
0
0
LINE
8
VISIBLE
10
100.6577
20
135.5715
30
0
11
100.8230
21
135.6043
31
0
0
LINE
8
VISIBLE
10
100.8230
20
135.6043
30
0
11
101.4403
21
135.7272
31
0
0
LINE
8
VISIBLE
10
101.4403
20
135.7272
30
0
11
100.6577
21
135.5715
31
0
0
LINE
8
VISIBLE
10
101.4403
20
135.7272
30
0
11
101.6084
21
135.7382
31
0
0
LINE
8
VISIBLE
10
101.6084
20
135.7382
30
0
11
102.2365
21
135.7793
31
0
0
LINE
8
VISIBLE
10
102.2365
20
135.7793
30
0
11
101.4403
21
135.7272
31
0
0
LINE
8
VISIBLE
10
108.3365
20
129.6793
30
0
11
102.2365
21
129.6793
31
0
0
LINE
8
VISIBLE
10
102.2365
20
129.6793
30
0
11
96.1365
21
129.6793
31
0
0
TEXT
8
TEXTO
10
102.2365
20
161.6793
30
0
40
3.5000
1
ALZADO
72
1
73
2
11
102.2365
21
161.6793
31
0
0
LINE
8
COTAS
10
88.2365
20
128.6793
30
0
11
88.2365
21
119.1793
31
0
0
LINE
8
COTAS
10
116.2365
20
128.6793
30
0
11
116.2365
21
119.1793
31
0
0
LINE
8
COTAS
10
88.2365
20
120.6793
30
0
11
116.2365
21
120.6793
31
0
0
SOLID
8
COTAS
10
88.2365
20
120.6793
30
0
11
90.7365
21
121.1293
31
0
12
90.7365
22
120.2293
32
0
13
90.7365
23
120.2293
33
0
0
SOLID
8
COTAS
10
116.2365
20
120.6793
30
0
11
113.7365
21
121.1293
31
0
12
113.7365
22
120.2293
32
0
13
113.7365
23
120.2293
33
0
0
TEXT
8
COTAS
10
102.2365
20
122.8793
30
0
40
3.5000
1
28
72
1
73
2
11
102.2365
21
122.8793
31
0
0
LINE
8
COTAS
10
117.2365
20
129.6793
30
0
11
126.7365
21
129.6793
31
0
0
LINE
8
COTAS
10
117.2365
20
157.6793
30
0
11
126.7365
21
157.6793
31
0
0
LINE
8
COTAS
10
125.2365
20
129.6793
30
0
11
125.2365
21
157.6793
31
0
0
SOLID
8
COTAS
10
125.2365
20
129.6793
30
0
11
125.6865
21
132.1793
31
0
12
124.7865
22
132.1793
32
0
13
124.7865
23
132.1793
33
0
0
SOLID
8
COTAS
10
125.2365
20
157.6793
30
0
11
125.6865
21
155.1793
31
0
12
124.7865
22
155.1793
32
0
13
124.7865
23
155.1793
33
0
0
TEXT
8
COTAS
10
127.4365
20
143.6793
30
0
40
3.5000
1
28
72
1
73
2
11
127.4365
21
143.6793
31
0
0
LINE
8
VISIBLE
10
116.2365
20
103.6793
30
0
11
116.2365
21
103.6793
31
0
0
LINE
8
VISIBLE
10
116.2365
20
103.6793
30
0
11
116.2365
21
85.6793
31
0
0
LINE
8
VISIBLE
10
116.2365
20
85.6793
30
0
11
116.2365
21
85.6793
31
0
0
LINE
8
VISIBLE
10
116.2365
20
103.6793
30
0
11
116.2365
21
103.6793
31
0
0
LINE
8
VISIBLE
10
116.2365
20
85.6793
30
0
11
116.2365
21
85.6793
31
0
0
LINE
8
VISIBLE
10
116.2365
20
103.6793
30
0
11
116.2365
21
103.6793
31
0
0
LINE
8
VISIBLE
10
116.2365
20
85.6793
30
0
11
116.2365
21
85.6793
31
0
0
LINE
8
VISIBLE
10
116.2365
20
103.6793
30
0
11
116.2365
21
103.6793
31
0
0
LINE
8
VISIBLE
10
116.2365
20
85.6793
30
0
11
116.2365
21
85.6793
31
0
0
LINE
8
VISIBLE
10
116.2365
20
85.6793
30
0
11
116.2365
21
103.6793
31
0
0
LINE
8
VISIBLE
10
88.2365
20
103.6793
30
0
11
88.2365
21
103.6793
31
0
0
LINE
8
VISIBLE
10
88.2365
20
85.6793
30
0
11
88.2365
21
85.6793
31
0
0
LINE
8
VISIBLE
10
88.2365
20
85.6793
30
0
11
88.2365
21
103.6793
31
0
0
LINE
8
VISIBLE
10
88.2365
20
103.6793
30
0
11
88.2365
21
103.6793
31
0
0
LINE
8
VISIBLE
10
88.2365
20
103.6793
30
0
11
88.2365
21
85.6793
31
0
0
LINE
8
VISIBLE
10
88.2365
20
85.6793
30
0
11
88.2365
21
85.6793
31
0
0
LINE
8
VISIBLE
10
88.2365
20
103.6793
30
0
11
88.2365
21
103.6793
31
0
0
LINE
8
VISIBLE
10
88.2365
20
85.6793
30
0
11
88.2365
21
85.6793
31
0
0
LINE
8
VISIBLE
10
88.2365
20
103.6793
30
0
11
88.2365
21
103.6793
31
0
0
LINE
8
VISIBLE
10
88.2365
20
85.6793
30
0
11
88.2365
21
85.6793
31
0
0
LINE
8
VISIBLE
10
88.2365
20
103.6793
30
0
11
88.2365
21
103.6793
31
0
0
LINE
8
VISIBLE
10
88.2365
20
85.6793
30
0
11
88.2365
21
85.6793
31
0
0
LINE
8
VISIBLE
10
88.2365
20
103.6793
30
0
11
88.2365
21
103.6793
31
0
0
LINE
8
VISIBLE
10
88.2365
20
85.6793
30
0
11
88.2365
21
85.6793
31
0
0
LINE
8
VISIBLE
10
88.2365
20
103.6793
30
0
11
116.2365
21
103.6793
31
0
0
LINE
8
VISIBLE
10
116.2365
20
103.6793
30
0
11
115.9989
21
103.6793
31
0
0
LINE
8
VISIBLE
10
115.9989
20
103.6793
30
0
11
113.1928
21
103.6793
31
0
0
LINE
8
VISIBLE
10
113.1928
20
103.6793
30
0
11
111.4683
21
103.6793
31
0
0
LINE
8
VISIBLE
10
111.4683
20
103.6793
30
0
11
110.3326
21
103.6793
31
0
0
LINE
8
VISIBLE
10
110.3326
20
103.6793
30
0
11
109.5572
21
103.6793
31
0
0
LINE
8
VISIBLE
10
109.5572
20
103.6793
30
0
11
109.0234
21
103.6793
31
0
0
LINE
8
VISIBLE
10
109.0234
20
103.6793
30
0
11
108.6646
21
103.6793
31
0
0
LINE
8
VISIBLE
10
108.6646
20
103.6793
30
0
11
108.4427
21
103.6793
31
0
0
LINE
8
VISIBLE
10
108.4427
20
103.6793
30
0
11
108.1287
21
103.6793
31
0
0
LINE
8
VISIBLE
10
108.4427
20
103.6793
30
0
11
108.3365
21
103.6793
31
0
0
LINE
8
VISIBLE
10
108.3365
20
103.6793
30
0
11
108.2844
21
103.6793
31
0
0
LINE
8
VISIBLE
10
88.4742
20
103.6793
30
0
11
88.2365
21
103.6793
31
0
0
LINE
8
VISIBLE
10
91.2803
20
103.6793
30
0
11
88.4742
21
103.6793
31
0
0
LINE
8
VISIBLE
10
93.0048
20
103.6793
30
0
11
91.2803
21
103.6793
31
0
0
LINE
8
VISIBLE
10
94.1405
20
103.6793
30
0
11
93.0048
21
103.6793
31
0
0
LINE
8
VISIBLE
10
94.9158
20
103.6793
30
0
11
94.1405
21
103.6793
31
0
0
LINE
8
VISIBLE
10
95.4497
20
103.6793
30
0
11
94.9158
21
103.6793
31
0
0
LINE
8
VISIBLE
10
95.8085
20
103.6793
30
0
11
95.4497
21
103.6793
31
0
0
LINE
8
VISIBLE
10
96.0304
20
103.6793
30
0
11
95.8085
21
103.6793
31
0
0
LINE
8
VISIBLE
10
96.1365
20
103.6793
30
0
11
96.0304
21
103.6793
31
0
0
LINE
8
VISIBLE
10
101.0072
20
103.6793
30
0
11
99.1865
21
103.6793
31
0
0
LINE
8
VISIBLE
10
101.4265
20
103.6793
30
0
11
99.9022
21
103.6793
31
0
0
LINE
8
VISIBLE
10
101.8350
20
103.6793
30
0
11
100.6577
21
103.6793
31
0
0
LINE
8
VISIBLE
10
102.2365
20
103.6793
30
0
11
101.4403
21
103.6793
31
0
0
LINE
8
VISIBLE
10
116.2365
20
85.6793
30
0
11
88.2365
21
85.6793
31
0
0
LINE
8
VISIBLE
10
115.9989
20
85.6793
30
0
11
116.2365
21
85.6793
31
0
0
LINE
8
VISIBLE
10
113.1928
20
85.6793
30
0
11
115.9989
21
85.6793
31
0
0
LINE
8
VISIBLE
10
111.4683
20
85.6793
30
0
11
113.1928
21
85.6793
31
0
0
LINE
8
VISIBLE
10
110.3326
20
85.6793
30
0
11
111.4683
21
85.6793
31
0
0
LINE
8
VISIBLE
10
109.5572
20
85.6793
30
0
11
110.3326
21
85.6793
31
0
0
LINE
8
VISIBLE
10
109.0234
20
85.6793
30
0
11
109.5572
21
85.6793
31
0
0
LINE
8
VISIBLE
10
108.6646
20
85.6793
30
0
11
109.0234
21
85.6793
31
0
0
LINE
8
VISIBLE
10
108.4427
20
85.6793
30
0
11
108.6646
21
85.6793
31
0
0
LINE
8
VISIBLE
10
108.3365
20
85.6793
30
0
11
108.4427
21
85.6793
31
0
0
LINE
8
VISIBLE
10
88.2365
20
85.6793
30
0
11
88.4742
21
85.6793
31
0
0
LINE
8
VISIBLE
10
88.4742
20
85.6793
30
0
11
91.2803
21
85.6793
31
0
0
LINE
8
VISIBLE
10
91.2803
20
85.6793
30
0
11
93.0048
21
85.6793
31
0
0
LINE
8
VISIBLE
10
93.0048
20
85.6793
30
0
11
94.1405
21
85.6793
31
0
0
LINE
8
VISIBLE
10
94.1405
20
85.6793
30
0
11
94.9158
21
85.6793
31
0
0
LINE
8
VISIBLE
10
94.9158
20
85.6793
30
0
11
95.4497
21
85.6793
31
0
0
LINE
8
VISIBLE
10
95.4497
20
85.6793
30
0
11
95.8085
21
85.6793
31
0
0
LINE
8
VISIBLE
10
95.8085
20
85.6793
30
0
11
96.0304
21
85.6793
31
0
0
LINE
8
VISIBLE
10
96.0304
20
85.6793
30
0
11
96.1365
21
85.6793
31
0
0
LINE
8
VISIBLE
10
96.1365
20
85.6793
30
0
11
108.3365
21
85.6793
31
0
0
LINE
8
VISIBLE
10
108.3365
20
90.7579
30
0
11
108.3365
21
103.6793
31
0
0
LINE
8
VISIBLE
10
96.1365
20
103.6793
30
0
11
96.1365
21
98.6008
31
0
0
LINE
8
VISIBLE
10
103.0143
20
94.1793
30
0
11
108.3365
21
94.1793
31
0
0
LINE
8
VISIBLE
10
96.1365
20
94.1793
30
0
11
103.0143
21
94.1793
31
0
0
LINE
8
VISIBLE
10
102.2365
20
103.6793
30
0
11
102.4046
21
103.6793
31
0
0
LINE
8
VISIBLE
10
102.4046
20
103.6793
30
0
11
103.0328
21
103.6793
31
0
0
LINE
8
VISIBLE
10
103.0328
20
94.1793
30
0
11
102.2365
21
94.1793
31
0
0
LINE
8
VISIBLE
10
103.0328
20
103.6793
30
0
11
103.1980
21
103.6793
31
0
0
LINE
8
VISIBLE
10
103.1980
20
103.6793
30
0
11
103.8153
21
103.6793
31
0
0
LINE
8
VISIBLE
10
103.8153
20
94.1793
30
0
11
103.0328
21
94.1793
31
0
0
LINE
8
VISIBLE
10
103.8153
20
103.6793
30
0
11
103.9749
21
103.6793
31
0
0
LINE
8
VISIBLE
10
103.9749
20
103.6793
30
0
11
104.5709
21
103.6793
31
0
0
LINE
8
VISIBLE
10
104.5709
20
94.1793
30
0
11
103.8153
21
94.1793
31
0
0
LINE
8
VISIBLE
10
104.5709
20
103.6793
30
0
11
104.7220
21
103.6793
31
0
0
LINE
8
VISIBLE
10
104.7220
20
103.6793
30
0
11
105.2865
21
103.6793
31
0
0
LINE
8
VISIBLE
10
105.2865
20
94.1793
30
0
11
104.5709
21
94.1793
31
0
0
LINE
8
VISIBLE
10
105.2865
20
103.6793
30
0
11
105.4266
21
103.6793
31
0
0
LINE
8
VISIBLE
10
105.4266
20
103.6793
30
0
11
105.9500
21
103.6793
31
0
0
LINE
8
VISIBLE
10
105.9500
20
94.1793
30
0
11
105.2865
21
94.1793
31
0
0
LINE
8
VISIBLE
10
105.9500
20
103.6793
30
0
11
106.0766
21
103.6793
31
0
0
LINE
8
VISIBLE
10
106.0766
20
103.6793
30
0
11
106.5499
21
103.6793
31
0
0
LINE
8
VISIBLE
10
106.5499
20
94.1793
30
0
11
105.9500
21
94.1793
31
0
0
LINE
8
VISIBLE
10
106.5499
20
103.6793
30
0
11
106.6610
21
103.6793
31
0
0
LINE
8
VISIBLE
10
106.6610
20
103.6793
30
0
11
107.0760
21
103.6793
31
0
0
LINE
8
VISIBLE
10
107.0760
20
94.1793
30
0
11
106.5499
21
94.1793
31
0
0
LINE
8
VISIBLE
10
107.0760
20
103.6793
30
0
11
107.1696
21
103.6793
31
0
0
LINE
8
VISIBLE
10
107.1696
20
103.6793
30
0
11
107.5193
21
103.6793
31
0
0
LINE
8
VISIBLE
10
107.5193
20
94.1793
30
0
11
107.0760
21
94.1793
31
0
0
LINE
8
VISIBLE
10
107.5193
20
103.6793
30
0
11
107.5938
21
103.6793
31
0
0
LINE
8
VISIBLE
10
107.5938
20
103.6793
30
0
11
107.8722
21
103.6793
31
0
0
LINE
8
VISIBLE
10
107.8722
20
94.1793
30
0
11
107.5193
21
94.1793
31
0
0
LINE
8
VISIBLE
10
107.8722
20
103.6793
30
0
11
107.9264
21
103.6793
31
0
0
LINE
8
VISIBLE
10
107.9264
20
103.6793
30
0
11
108.1287
21
103.6793
31
0
0
LINE
8
VISIBLE
10
108.1287
20
94.1793
30
0
11
107.8722
21
94.1793
31
0
0
LINE
8
VISIBLE
10
108.1287
20
103.6793
30
0
11
108.1616
21
103.6793
31
0
0
LINE
8
VISIBLE
10
108.1616
20
103.6793
30
0
11
108.2844
21
103.6793
31
0
0
LINE
8
VISIBLE
10
108.2844
20
94.1793
30
0
11
108.1287
21
94.1793
31
0
0
LINE
8
VISIBLE
10
108.2844
20
103.6793
30
0
11
108.2954
21
103.6793
31
0
0
LINE
8
VISIBLE
10
108.2954
20
103.6793
30
0
11
108.3365
21
103.6793
31
0
0
LINE
8
VISIBLE
10
108.3365
20
103.6793
30
0
11
108.3365
21
94.1793
31
0
0
LINE
8
VISIBLE
10
108.3365
20
94.1793
30
0
11
108.2844
21
94.1793
31
0
0
LINE
8
VISIBLE
10
96.1365
20
94.1793
30
0
11
96.1365
21
103.6793
31
0
0
LINE
8
VISIBLE
10
96.1365
20
103.6793
30
0
11
96.1476
21
103.6793
31
0
0
LINE
8
VISIBLE
10
96.1476
20
103.6793
30
0
11
96.1887
21
103.6793
31
0
0
LINE
8
VISIBLE
10
96.1887
20
94.1793
30
0
11
96.1365
21
94.1793
31
0
0
LINE
8
VISIBLE
10
96.1887
20
103.6793
30
0
11
96.2216
21
103.6793
31
0
0
LINE
8
VISIBLE
10
96.2216
20
103.6793
30
0
11
96.3444
21
103.6793
31
0
0
LINE
8
VISIBLE
10
96.3444
20
94.1793
30
0
11
96.1887
21
94.1793
31
0
0
LINE
8
VISIBLE
10
96.3444
20
103.6793
30
0
11
96.3985
21
103.6793
31
0
0
LINE
8
VISIBLE
10
96.3985
20
103.6793
30
0
11
96.6009
21
103.6793
31
0
0
LINE
8
VISIBLE
10
96.6009
20
94.1793
30
0
11
96.3444
21
94.1793
31
0
0
LINE
8
VISIBLE
10
96.6009
20
103.6793
30
0
11
96.6754
21
103.6793
31
0
0
LINE
8
VISIBLE
10
96.6754
20
103.6793
30
0
11
96.9538
21
103.6793
31
0
0
LINE
8
VISIBLE
10
96.9538
20
94.1793
30
0
11
96.6009
21
94.1793
31
0
0
LINE
8
VISIBLE
10
96.9538
20
103.6793
30
0
11
97.0474
21
103.6793
31
0
0
LINE
8
VISIBLE
10
97.0474
20
103.6793
30
0
11
97.3971
21
103.6793
31
0
0
LINE
8
VISIBLE
10
97.3971
20
94.1793
30
0
11
96.9538
21
94.1793
31
0
0
LINE
8
VISIBLE
10
97.3971
20
103.6793
30
0
11
97.5082
21
103.6793
31
0
0
LINE
8
VISIBLE
10
97.5082
20
103.6793
30
0
11
97.9232
21
103.6793
31
0
0
LINE
8
VISIBLE
10
97.9232
20
94.1793
30
0
11
97.3971
21
94.1793
31
0
0
LINE
8
VISIBLE
10
97.9232
20
103.6793
30
0
11
98.0498
21
103.6793
31
0
0
LINE
8
VISIBLE
10
98.0498
20
103.6793
30
0
11
98.5231
21
103.6793
31
0
0
LINE
8
VISIBLE
10
98.5231
20
94.1793
30
0
11
97.9232
21
94.1793
31
0
0
LINE
8
VISIBLE
10
98.5231
20
103.6793
30
0
11
98.6632
21
103.6793
31
0
0
LINE
8
VISIBLE
10
98.6632
20
103.6793
30
0
11
99.1865
21
103.6793
31
0
0
LINE
8
VISIBLE
10
99.1865
20
94.1793
30
0
11
98.5231
21
94.1793
31
0
0
LINE
8
VISIBLE
10
99.1865
20
103.6793
30
0
11
99.3376
21
103.6793
31
0
0
LINE
8
VISIBLE
10
99.3376
20
103.6793
30
0
11
99.9022
21
103.6793
31
0
0
LINE
8
VISIBLE
10
99.9022
20
94.1793
30
0
11
99.1865
21
94.1793
31
0
0
LINE
8
VISIBLE
10
99.9022
20
103.6793
30
0
11
100.0617
21
103.6793
31
0
0
LINE
8
VISIBLE
10
100.0617
20
103.6793
30
0
11
100.6577
21
103.6793
31
0
0
LINE
8
VISIBLE
10
100.6577
20
94.1793
30
0
11
99.9022
21
94.1793
31
0
0
LINE
8
VISIBLE
10
100.6577
20
103.6793
30
0
11
100.8230
21
103.6793
31
0
0
LINE
8
VISIBLE
10
100.8230
20
103.6793
30
0
11
101.4403
21
103.6793
31
0
0
LINE
8
VISIBLE
10
101.4403
20
94.1793
30
0
11
100.6577
21
94.1793
31
0
0
LINE
8
VISIBLE
10
101.4403
20
103.6793
30
0
11
101.6084
21
103.6793
31
0
0
LINE
8
VISIBLE
10
101.6084
20
103.6793
30
0
11
102.2365
21
103.6793
31
0
0
LINE
8
VISIBLE
10
102.2365
20
94.1793
30
0
11
101.4403
21
94.1793
31
0
0
LINE
8
VISIBLE
10
108.3365
20
94.1793
30
0
11
102.2365
21
94.1793
31
0
0
LINE
8
VISIBLE
10
102.2365
20
94.1793
30
0
11
96.1365
21
94.1793
31
0
0
TEXT
8
TEXTO
10
102.2365
20
107.6793
30
0
40
3.5000
1
PLANTA
72
1
73
2
11
102.2365
21
107.6793
31
0
0
LINE
8
COTAS
10
117.2365
20
85.6793
30
0
11
126.7365
21
85.6793
31
0
0
LINE
8
COTAS
10
117.2365
20
103.6793
30
0
11
126.7365
21
103.6793
31
0
0
LINE
8
COTAS
10
125.2365
20
85.6793
30
0
11
125.2365
21
103.6793
31
0
0
SOLID
8
COTAS
10
125.2365
20
85.6793
30
0
11
125.6865
21
88.1793
31
0
12
124.7865
22
88.1793
32
0
13
124.7865
23
88.1793
33
0
0
SOLID
8
COTAS
10
125.2365
20
103.6793
30
0
11
125.6865
21
101.1793
31
0
12
124.7865
22
101.1793
32
0
13
124.7865
23
101.1793
33
0
0
TEXT
8
COTAS
10
127.4365
20
94.6793
30
0
40
3.5000
1
18
72
1
73
2
11
127.4365
21
94.6793
31
0
0
LINE
8
VISIBLE
10
142.2365
20
134.8617
30
0
11
142.2365
21
157.6793
31
0
0
LINE
8
VISIBLE
10
142.2365
20
157.6793
30
0
11
160.2365
21
157.6793
31
0
0
LINE
8
VISIBLE
10
160.2365
20
157.6793
30
0
11
160.2365
21
134.8617
31
0
0
LINE
8
VISIBLE
10
142.2365
20
133.1007
30
0
11
142.2365
21
134.8617
31
0
0
LINE
8
VISIBLE
10
160.2365
20
134.8617
30
0
11
160.2365
21
133.1007
31
0
0
LINE
8
VISIBLE
10
142.2365
20
131.3551
30
0
11
142.2365
21
133.1007
31
0
0
LINE
8
VISIBLE
10
160.2365
20
133.1007
30
0
11
160.2365
21
131.3551
31
0
0
LINE
8
VISIBLE
10
142.2365
20
129.6793
30
0
11
142.2365
21
131.3551
31
0
0
LINE
8
VISIBLE
10
160.2365
20
131.3551
30
0
11
160.2365
21
129.6793
31
0
0
LINE
8
VISIBLE
10
160.2365
20
129.6793
30
0
11
142.2365
21
129.6793
31
0
0
LINE
8
VISIBLE
10
142.2365
20
157.6793
30
0
11
142.2365
21
136.6969
31
0
0
LINE
8
VISIBLE
10
160.2365
20
136.6969
30
0
11
160.2365
21
157.6793
31
0
0
LINE
8
VISIBLE
10
160.2365
20
157.6793
30
0
11
142.2365
21
157.6793
31
0
0
LINE
8
VISIBLE
10
142.2365
20
129.7965
30
0
11
142.2365
21
129.6793
31
0
0
LINE
8
VISIBLE
10
142.2365
20
129.6793
30
0
11
160.2365
21
129.6793
31
0
0
LINE
8
VISIBLE
10
160.2365
20
129.6793
30
0
11
160.2365
21
129.7965
31
0
0
LINE
8
VISIBLE
10
142.2365
20
131.7131
30
0
11
142.2365
21
129.7965
31
0
0
LINE
8
VISIBLE
10
160.2365
20
129.7965
30
0
11
160.2365
21
131.7131
31
0
0
LINE
8
VISIBLE
10
142.2365
20
133.8610
30
0
11
142.2365
21
131.7131
31
0
0
LINE
8
VISIBLE
10
160.2365
20
131.7131
30
0
11
160.2365
21
133.8610
31
0
0
LINE
8
VISIBLE
10
142.2365
20
136.4115
30
0
11
142.2365
21
133.8610
31
0
0
LINE
8
VISIBLE
10
160.2365
20
133.8610
30
0
11
160.2365
21
136.4115
31
0
0
LINE
8
VISIBLE
10
142.2365
20
136.6969
30
0
11
142.2365
21
136.4115
31
0
0
LINE
8
VISIBLE
10
160.2365
20
136.4115
30
0
11
160.2365
21
136.6969
31
0
0
LINE
8
VISIBLE
10
142.2365
20
157.6793
30
0
11
142.2365
21
157.6793
31
0
0
LINE
8
VISIBLE
10
142.2365
20
129.6793
30
0
11
142.2365
21
129.6793
31
0
0
LINE
8
VISIBLE
10
142.2365
20
129.6793
30
0
11
142.2365
21
129.6793
31
0
0
LINE
8
VISIBLE
10
142.2365
20
129.6793
30
0
11
142.2365
21
129.6793
31
0
0
LINE
8
VISIBLE
10
142.2365
20
129.6793
30
0
11
142.2365
21
129.6793
31
0
0
LINE
8
VISIBLE
10
142.2365
20
129.6793
30
0
11
142.2365
21
129.6793
31
0
0
LINE
8
VISIBLE
10
142.2365
20
129.6793
30
0
11
142.2365
21
129.6793
31
0
0
LINE
8
VISIBLE
10
142.2365
20
129.6793
30
0
11
142.2365
21
129.6793
31
0
0
LINE
8
VISIBLE
10
142.2365
20
129.6793
30
0
11
142.2365
21
129.6793
31
0
0
LINE
8
VISIBLE
10
142.2365
20
129.6793
30
0
11
142.2365
21
131.2581
31
0
0
LINE
8
VISIBLE
10
142.2365
20
129.6793
30
0
11
142.2365
21
129.6793
31
0
0
LINE
8
VISIBLE
10
142.2365
20
129.6793
30
0
11
142.2365
21
130.4755
31
0
0
LINE
8
VISIBLE
10
142.2365
20
129.6793
30
0
11
142.2365
21
129.6793
31
0
0
LINE
8
VISIBLE
10
142.2365
20
129.6793
30
0
11
142.2365
21
129.6793
31
0
0
LINE
8
VISIBLE
10
142.2365
20
129.6793
30
0
11
142.2365
21
129.6793
31
0
0
LINE
8
VISIBLE
10
142.2365
20
129.6793
30
0
11
142.2365
21
129.6793
31
0
0
LINE
8
VISIBLE
10
142.2365
20
129.6793
30
0
11
142.2365
21
129.6793
31
0
0
LINE
8
VISIBLE
10
142.2365
20
129.6793
30
0
11
142.2365
21
129.6793
31
0
0
LINE
8
VISIBLE
10
142.2365
20
129.6793
30
0
11
142.2365
21
129.6793
31
0
0
LINE
8
VISIBLE
10
142.2365
20
129.6793
30
0
11
142.2365
21
129.6793
31
0
0
LINE
8
VISIBLE
10
142.2365
20
129.6793
30
0
11
142.2365
21
129.6793
31
0
0
LINE
8
VISIBLE
10
142.2365
20
135.8599
30
0
11
142.2365
21
134.9621
31
0
0
LINE
8
VISIBLE
10
142.2365
20
135.8324
30
0
11
142.2365
21
135.3150
31
0
0
LINE
8
VISIBLE
10
142.2365
20
135.8057
30
0
11
142.2365
21
135.5715
31
0
0
LINE
8
VISIBLE
10
142.2365
20
135.7793
30
0
11
142.2365
21
135.7272
31
0
0
LINE
8
VISIBLE
10
160.2365
20
157.6793
30
0
11
160.2365
21
157.6793
31
0
0
LINE
8
VISIBLE
10
160.2365
20
129.6793
30
0
11
160.2365
21
129.6793
31
0
0
LINE
8
VISIBLE
10
160.2365
20
129.6793
30
0
11
160.2365
21
129.6793
31
0
0
LINE
8
VISIBLE
10
160.2365
20
129.6793
30
0
11
160.2365
21
129.6793
31
0
0
LINE
8
VISIBLE
10
160.2365
20
129.6793
30
0
11
160.2365
21
129.6793
31
0
0
LINE
8
VISIBLE
10
160.2365
20
129.6793
30
0
11
160.2365
21
129.6793
31
0
0
LINE
8
VISIBLE
10
160.2365
20
129.6793
30
0
11
160.2365
21
129.6793
31
0
0
LINE
8
VISIBLE
10
160.2365
20
129.6793
30
0
11
160.2365
21
129.6793
31
0
0
LINE
8
VISIBLE
10
160.2365
20
129.6793
30
0
11
160.2365
21
129.6793
31
0
0
LINE
8
VISIBLE
10
160.2365
20
129.6793
30
0
11
160.2365
21
129.6793
31
0
0
LINE
8
VISIBLE
10
160.2365
20
129.6793
30
0
11
160.2365
21
129.6793
31
0
0
LINE
8
VISIBLE
10
160.2365
20
129.6793
30
0
11
160.2365
21
129.6793
31
0
0
LINE
8
VISIBLE
10
160.2365
20
129.6793
30
0
11
160.2365
21
129.6793
31
0
0
LINE
8
VISIBLE
10
160.2365
20
129.6793
30
0
11
160.2365
21
129.6793
31
0
0
LINE
8
VISIBLE
10
160.2365
20
129.6793
30
0
11
160.2365
21
129.6793
31
0
0
LINE
8
VISIBLE
10
160.2365
20
129.6793
30
0
11
160.2365
21
129.6793
31
0
0
LINE
8
VISIBLE
10
160.2365
20
129.6793
30
0
11
160.2365
21
129.6793
31
0
0
LINE
8
VISIBLE
10
160.2365
20
129.6793
30
0
11
160.2365
21
129.6793
31
0
0
LINE
8
VISIBLE
10
160.2365
20
129.6793
30
0
11
160.2365
21
129.6793
31
0
0
LINE
8
VISIBLE
10
160.2365
20
129.6793
30
0
11
160.2365
21
129.6793
31
0
0
LINE
8
VISIBLE
10
155.1580
20
129.6793
30
0
11
142.2365
21
129.6793
31
0
0
LINE
8
VISIBLE
10
142.2365
20
129.6793
30
0
11
147.3151
21
129.6793
31
0
0
LINE
8
VISIBLE
10
151.7365
20
129.6793
30
0
11
151.7365
21
129.6793
31
0
0
LINE
8
VISIBLE
10
151.7365
20
129.6793
30
0
11
151.7365
21
129.6793
31
0
0
LINE
8
VISIBLE
10
142.2365
20
135.7793
30
0
11
142.2365
21
135.7683
31
0
0
LINE
8
VISIBLE
10
142.2365
20
135.7683
30
0
11
142.2365
21
135.7272
31
0
0
LINE
8
VISIBLE
10
151.7365
20
135.7272
30
0
11
151.7365
21
135.7793
31
0
0
LINE
8
VISIBLE
10
142.2365
20
135.7272
30
0
11
142.2365
21
135.6943
31
0
0
LINE
8
VISIBLE
10
142.2365
20
135.6943
30
0
11
142.2365
21
135.5715
31
0
0
LINE
8
VISIBLE
10
151.7365
20
135.5715
30
0
11
151.7365
21
135.7272
31
0
0
LINE
8
VISIBLE
10
142.2365
20
135.5715
30
0
11
142.2365
21
135.5173
31
0
0
LINE
8
VISIBLE
10
142.2365
20
135.5173
30
0
11
142.2365
21
135.3150
31
0
0
LINE
8
VISIBLE
10
151.7365
20
135.3150
30
0
11
151.7365
21
135.5715
31
0
0
LINE
8
VISIBLE
10
142.2365
20
135.3150
30
0
11
142.2365
21
135.2405
31
0
0
LINE
8
VISIBLE
10
142.2365
20
135.2405
30
0
11
142.2365
21
134.9621
31
0
0
LINE
8
VISIBLE
10
151.7365
20
134.9621
30
0
11
151.7365
21
135.3150
31
0
0
LINE
8
VISIBLE
10
142.2365
20
134.9621
30
0
11
142.2365
21
134.8685
31
0
0
LINE
8
VISIBLE
10
142.2365
20
134.8685
30
0
11
142.2365
21
134.5188
31
0
0
LINE
8
VISIBLE
10
151.7365
20
134.5188
30
0
11
151.7365
21
134.9621
31
0
0
LINE
8
VISIBLE
10
142.2365
20
134.5188
30
0
11
142.2365
21
134.4077
31
0
0
LINE
8
VISIBLE
10
142.2365
20
134.4077
30
0
11
142.2365
21
133.9927
31
0
0
LINE
8
VISIBLE
10
151.7365
20
133.9927
30
0
11
151.7365
21
134.5188
31
0
0
LINE
8
VISIBLE
10
142.2365
20
133.9927
30
0
11
142.2365
21
133.8660
31
0
0
LINE
8
VISIBLE
10
142.2365
20
133.8660
30
0
11
142.2365
21
133.3928
31
0
0
LINE
8
VISIBLE
10
151.7365
20
133.3928
30
0
11
151.7365
21
133.9927
31
0
0
LINE
8
VISIBLE
10
142.2365
20
133.3928
30
0
11
142.2365
21
133.2527
31
0
0
LINE
8
VISIBLE
10
142.2365
20
133.2527
30
0
11
142.2365
21
132.7293
31
0
0
LINE
8
VISIBLE
10
151.7365
20
132.7293
30
0
11
151.7365
21
133.3928
31
0
0
LINE
8
VISIBLE
10
142.2365
20
132.7293
30
0
11
142.2365
21
132.5782
31
0
0
LINE
8
VISIBLE
10
142.2365
20
132.5782
30
0
11
142.2365
21
132.0137
31
0
0
LINE
8
VISIBLE
10
151.7365
20
132.0137
30
0
11
151.7365
21
132.7293
31
0
0
LINE
8
VISIBLE
10
142.2365
20
132.0137
30
0
11
142.2365
21
131.8542
31
0
0
LINE
8
VISIBLE
10
142.2365
20
131.8542
30
0
11
142.2365
21
131.2581
31
0
0
LINE
8
VISIBLE
10
151.7365
20
131.2581
30
0
11
151.7365
21
132.0137
31
0
0
LINE
8
VISIBLE
10
142.2365
20
131.2581
30
0
11
142.2365
21
131.0929
31
0
0
LINE
8
VISIBLE
10
142.2365
20
131.0929
30
0
11
142.2365
21
130.4755
31
0
0
LINE
8
VISIBLE
10
151.7365
20
130.4755
30
0
11
151.7365
21
131.2581
31
0
0
LINE
8
VISIBLE
10
142.2365
20
130.4755
30
0
11
142.2365
21
130.3074
31
0
0
LINE
8
VISIBLE
10
142.2365
20
130.3074
30
0
11
142.2365
21
129.6793
31
0
0
LINE
8
VISIBLE
10
142.2365
20
129.6793
30
0
11
151.7365
21
129.6793
31
0
0
LINE
8
VISIBLE
10
151.7365
20
129.6793
30
0
11
151.7365
21
130.4755
31
0
0
LINE
8
VISIBLE
10
151.7365
20
129.6793
30
0
11
142.2365
21
129.6793
31
0
0
LINE
8
VISIBLE
10
142.2365
20
129.6793
30
0
11
142.2365
21
129.8474
31
0
0
LINE
8
VISIBLE
10
142.2365
20
129.8474
30
0
11
142.2365
21
130.4755
31
0
0
LINE
8
VISIBLE
10
151.7365
20
130.4755
30
0
11
151.7365
21
129.6793
31
0
0
LINE
8
VISIBLE
10
142.2365
20
130.4755
30
0
11
142.2365
21
130.6408
31
0
0
LINE
8
VISIBLE
10
142.2365
20
130.6408
30
0
11
142.2365
21
131.2581
31
0
0
LINE
8
VISIBLE
10
151.7365
20
131.2581
30
0
11
151.7365
21
130.4755
31
0
0
LINE
8
VISIBLE
10
142.2365
20
131.2581
30
0
11
142.2365
21
131.4177
31
0
0
LINE
8
VISIBLE
10
142.2365
20
131.4177
30
0
11
142.2365
21
132.0137
31
0
0
LINE
8
VISIBLE
10
151.7365
20
132.0137
30
0
11
151.7365
21
131.2581
31
0
0
LINE
8
VISIBLE
10
142.2365
20
132.0137
30
0
11
142.2365
21
132.1648
31
0
0
LINE
8
VISIBLE
10
142.2365
20
132.1648
30
0
11
142.2365
21
132.7293
31
0
0
LINE
8
VISIBLE
10
151.7365
20
132.7293
30
0
11
151.7365
21
132.0137
31
0
0
LINE
8
VISIBLE
10
142.2365
20
132.7293
30
0
11
142.2365
21
132.8694
31
0
0
LINE
8
VISIBLE
10
142.2365
20
132.8694
30
0
11
142.2365
21
133.3928
31
0
0
LINE
8
VISIBLE
10
151.7365
20
133.3928
30
0
11
151.7365
21
132.7293
31
0
0
LINE
8
VISIBLE
10
142.2365
20
133.3928
30
0
11
142.2365
21
133.5194
31
0
0
LINE
8
VISIBLE
10
142.2365
20
133.5194
30
0
11
142.2365
21
133.9927
31
0
0
LINE
8
VISIBLE
10
151.7365
20
133.9927
30
0
11
151.7365
21
133.3928
31
0
0
LINE
8
VISIBLE
10
142.2365
20
133.9927
30
0
11
142.2365
21
134.1038
31
0
0
LINE
8
VISIBLE
10
142.2365
20
134.1038
30
0
11
142.2365
21
134.5188
31
0
0
LINE
8
VISIBLE
10
151.7365
20
134.5188
30
0
11
151.7365
21
133.9927
31
0
0
LINE
8
VISIBLE
10
142.2365
20
134.5188
30
0
11
142.2365
21
134.6124
31
0
0
LINE
8
VISIBLE
10
142.2365
20
134.6124
30
0
11
142.2365
21
134.9621
31
0
0
LINE
8
VISIBLE
10
151.7365
20
134.9621
30
0
11
151.7365
21
134.5188
31
0
0
LINE
8
VISIBLE
10
142.2365
20
134.9621
30
0
11
142.2365
21
135.0366
31
0
0
LINE
8
VISIBLE
10
142.2365
20
135.0366
30
0
11
142.2365
21
135.3150
31
0
0
LINE
8
VISIBLE
10
151.7365
20
135.3150
30
0
11
151.7365
21
134.9621
31
0
0
LINE
8
VISIBLE
10
142.2365
20
135.3150
30
0
11
142.2365
21
135.3692
31
0
0
LINE
8
VISIBLE
10
142.2365
20
135.3692
30
0
11
142.2365
21
135.5715
31
0
0
LINE
8
VISIBLE
10
151.7365
20
135.5715
30
0
11
151.7365
21
135.3150
31
0
0
LINE
8
VISIBLE
10
142.2365
20
135.5715
30
0
11
142.2365
21
135.6043
31
0
0
LINE
8
VISIBLE
10
142.2365
20
135.6043
30
0
11
142.2365
21
135.7272
31
0
0
LINE
8
VISIBLE
10
151.7365
20
135.7272
30
0
11
151.7365
21
135.5715
31
0
0
LINE
8
VISIBLE
10
142.2365
20
135.7272
30
0
11
142.2365
21
135.7382
31
0
0
LINE
8
VISIBLE
10
142.2365
20
135.7382
30
0
11
142.2365
21
135.7793
31
0
0
LINE
8
VISIBLE
10
151.7365
20
135.7793
30
0
11
151.7365
21
135.7272
31
0
0
LINE
8
VISIBLE
10
151.7365
20
129.6793
30
0
11
151.7365
21
129.6793
31
0
0
LINE
8
VISIBLE
10
151.7365
20
129.6793
30
0
11
151.7365
21
129.6793
31
0
0
TEXT
8
TEXTO
10
151.2365
20
161.6793
30
0
40
3.5000
1
PERFIL
72
1
73
2
11
151.2365
21
161.6793
31
0
0
SOLID
8
SOMBRA
62
253
10
206.0355
20
148.5544
30
0
11
206.0355
21
148.4588
31
0
12
205.9800
22
148.4908
32
0
13
205.9800
23
148.4908
33
0
0
SOLID
8
SOMBRA
62
253
10
206.0888
20
148.5237
30
0
11
206.0355
21
148.4588
31
0
12
206.0355
22
148.5544
32
0
13
206.0355
23
148.5544
33
0
0
SOLID
8
SOMBRA
62
253
10
205.9800
20
148.4908
30
0
11
206.0355
21
148.4588
31
0
12
205.8675
22
148.3617
32
0
13
205.8675
23
148.3617
33
0
0
SOLID
8
SOMBRA
62
253
10
206.0355
20
150.1193
30
0
11
206.0355
21
148.5544
31
0
12
205.9800
22
148.4908
32
0
13
205.9800
23
148.4908
33
0
0
SOLID
8
SOMBRA
62
253
10
205.1734
20
148.9565
30
0
11
205.9800
21
148.4908
31
0
12
205.8675
22
148.3617
32
0
13
205.8675
23
148.3617
33
0
0
SOLID
8
SOMBRA
62
253
10
206.9600
20
149.5856
30
0
11
206.0888
21
148.5237
31
0
12
206.0355
22
148.5544
32
0
13
206.0355
23
148.5544
33
0
0
SOLID
8
SOMBRA
62
253
10
206.0355
20
150.1193
30
0
11
205.9800
21
148.4908
31
0
12
205.1734
22
148.9565
32
0
13
205.1734
23
148.9565
33
0
0
SOLID
8
SOMBRA
62
253
10
206.9600
20
149.5856
30
0
11
206.0355
21
148.5544
31
0
12
206.0355
22
150.1193
32
0
13
206.0355
23
150.1193
33
0
0
SOLID
8
SOMBRA
62
253
10
205.1734
20
148.9565
30
0
11
205.8675
21
148.3617
31
0
12
203.8832
22
147.2161
32
0
13
203.8832
23
147.2161
33
0
0
SOLID
8
SOMBRA
62
253
10
206.0355
20
151.8730
30
0
11
206.0355
21
150.1193
31
0
12
205.1734
22
148.9565
32
0
13
205.1734
23
148.9565
33
0
0
SOLID
8
SOMBRA
62
253
10
204.4602
20
149.3683
30
0
11
205.1734
21
148.9565
31
0
12
203.8832
22
147.2161
32
0
13
203.8832
23
147.2161
33
0
0
SOLID
8
SOMBRA
62
253
10
206.0355
20
151.8730
30
0
11
205.1734
21
148.9565
31
0
12
204.4602
22
149.3683
32
0
13
204.4602
23
149.3683
33
0
0
SOLID
8
SOMBRA
62
253
10
207.9364
20
150.7756
30
0
11
206.9600
21
149.5856
31
0
12
206.0355
22
150.1193
32
0
13
206.0355
23
150.1193
33
0
0
SOLID
8
SOMBRA
62
253
10
204.4602
20
149.3683
30
0
11
203.8832
21
147.2161
31
0
12
202.6639
22
146.5121
32
0
13
202.6639
23
146.5121
33
0
0
SOLID
8
SOMBRA
62
253
10
207.9364
20
150.7756
30
0
11
206.0355
21
150.1193
31
0
12
206.0355
22
151.8730
32
0
13
206.0355
23
151.8730
33
0
0
SOLID
8
SOMBRA
62
253
10
206.0355
20
153.9555
30
0
11
206.0355
21
151.8730
31
0
12
204.4602
22
149.3683
32
0
13
204.4602
23
149.3683
33
0
0
SOLID
8
SOMBRA
62
253
10
203.8114
20
149.7429
30
0
11
204.4602
21
149.3683
31
0
12
202.6639
22
146.5121
32
0
13
202.6639
23
146.5121
33
0
0
SOLID
8
SOMBRA
62
253
10
203.8114
20
149.7429
30
0
11
202.6639
21
146.5121
31
0
12
201.8608
22
146.0485
32
0
13
201.8608
23
146.0485
33
0
0
SOLID
8
SOMBRA
62
253
10
206.0355
20
153.9555
30
0
11
204.4602
21
149.3683
31
0
12
203.8114
22
149.7429
32
0
13
203.8114
23
149.7429
33
0
0
SOLID
8
SOMBRA
62
253
10
218.7635
20
141.2060
30
0
11
206.0355
21
148.4588
31
0
12
206.0888
22
148.5237
32
0
13
206.0888
23
148.5237
33
0
0
SOLID
8
SOMBRA
62
252
10
218.4874
20
141.0756
30
0
11
205.8675
21
148.3617
31
0
12
206.0355
22
148.4588
32
0
13
206.0355
23
148.4588
33
0
0
SOLID
8
SOMBRA
62
253
10
203.2043
20
150.0934
30
0
11
203.8114
21
149.7429
31
0
12
201.8608
22
146.0485
32
0
13
201.8608
23
146.0485
33
0
0
SOLID
8
SOMBRA
62
253
10
203.2043
20
150.0934
30
0
11
201.8608
21
146.0485
31
0
12
201.3126
22
145.7319
32
0
13
201.3126
23
145.7319
33
0
0
SOLID
8
SOMBRA
62
252
10
218.4874
20
141.0756
30
0
11
203.8832
21
147.2161
31
0
12
205.8675
22
148.3617
32
0
13
205.8675
23
148.3617
33
0
0
SOLID
8
SOMBRA
62
253
10
209.0958
20
152.1887
30
0
11
206.0355
21
151.8730
31
0
12
206.0355
22
153.9555
32
0
13
206.0355
23
153.9555
33
0
0
SOLID
8
SOMBRA
62
253
10
204.5637
20
153.2275
30
0
11
206.0355
21
153.9555
31
0
12
203.8114
22
149.7429
32
0
13
203.8114
23
149.7429
33
0
0
SOLID
8
SOMBRA
62
253
10
209.0958
20
152.1887
30
0
11
207.9364
21
150.7756
31
0
12
206.0355
22
151.8730
32
0
13
206.0355
23
151.8730
33
0
0
SOLID
8
SOMBRA
62
253
10
204.5637
20
153.2275
30
0
11
206.0355
21
154.1886
31
0
12
206.0355
22
153.9555
32
0
13
206.0355
23
153.9555
33
0
0
SOLID
8
SOMBRA
62
253
10
204.5637
20
153.2275
30
0
11
203.8114
21
149.7429
31
0
12
203.2043
22
150.0934
32
0
13
203.2043
23
150.0934
33
0
0
SOLID
8
SOMBRA
62
253
10
202.6196
20
150.4309
30
0
11
201.3126
21
145.7319
31
0
12
200.9351
22
145.5140
32
0
13
200.9351
23
145.5140
33
0
0
SOLID
8
SOMBRA
62
253
10
218.7635
20
142.7709
30
0
11
206.0888
21
148.5237
31
0
12
206.9600
22
149.5856
32
0
13
206.9600
23
149.5856
33
0
0
SOLID
8
SOMBRA
62
253
10
202.6196
20
150.4309
30
0
11
203.2043
21
150.0934
31
0
12
201.3126
22
145.7319
32
0
13
201.3126
23
145.7319
33
0
0
SOLID
8
SOMBRA
62
253
10
209.2255
20
152.3469
30
0
11
206.0355
21
153.9555
31
0
12
206.0355
22
154.1886
32
0
13
206.0355
23
154.1886
33
0
0
SOLID
8
SOMBRA
62
253
10
202.0383
20
150.7666
30
0
11
200.9351
21
145.5140
31
0
12
200.6814
22
145.3675
32
0
13
200.6814
23
145.3675
33
0
0
SOLID
8
SOMBRA
62
252
10
215.2276
20
140.6665
30
0
11
202.6639
21
146.5121
31
0
12
203.8832
22
147.2161
32
0
13
203.8832
23
147.2161
33
0
0
SOLID
8
SOMBRA
62
253
10
203.2935
20
152.3980
30
0
11
204.5637
21
153.2275
31
0
12
203.2043
22
150.0934
32
0
13
203.2043
23
150.0934
33
0
0
SOLID
8
SOMBRA
62
253
10
202.0383
20
150.7666
30
0
11
202.6196
21
150.4309
31
0
12
200.9351
22
145.5140
32
0
13
200.9351
23
145.5140
33
0
0
SOLID
8
SOMBRA
62
253
10
203.2935
20
152.3980
30
0
11
203.2043
21
150.0934
31
0
12
202.6196
22
150.4309
32
0
13
202.6196
23
150.4309
33
0
0
SOLID
8
SOMBRA
62
253
10
201.4388
20
151.1127
30
0
11
200.6814
21
145.3675
31
0
12
200.5245
22
145.2769
32
0
13
200.5245
23
145.2769
33
0
0
SOLID
8
SOMBRA
62
253
10
209.2255
20
152.3469
30
0
11
209.0958
21
152.1887
31
0
12
206.0355
22
153.9555
32
0
13
206.0355
23
153.9555
33
0
0
SOLID
8
SOMBRA
62
253
10
200.7519
20
150.7382
30
0
11
200.5245
21
145.2769
31
0
12
200.4494
22
145.2336
32
0
13
200.4494
23
145.2336
33
0
0
SOLID
8
SOMBRA
62
252
10
213.2243
20
140.4151
30
0
11
201.8608
21
146.0485
31
0
12
202.6639
22
146.5121
32
0
13
202.6639
23
146.5121
33
0
0
SOLID
8
SOMBRA
62
253
10
201.4388
20
151.1127
30
0
11
202.0383
21
150.7666
31
0
12
200.6814
22
145.3675
32
0
13
200.6814
23
145.3675
33
0
0
SOLID
8
SOMBRA
62
253
10
202.2823
20
151.7376
30
0
11
203.2935
21
152.3980
31
0
12
202.6196
22
150.4309
32
0
13
202.6196
23
150.4309
33
0
0
SOLID
8
SOMBRA
62
253
10
218.7635
20
144.5246
30
0
11
206.9600
21
149.5856
31
0
12
207.9364
22
150.7756
32
0
13
207.9364
23
150.7756
33
0
0
SOLID
8
SOMBRA
62
252
10
211.9050
20
140.2495
30
0
11
201.3126
21
145.7319
31
0
12
201.8608
22
146.0485
32
0
13
201.8608
23
146.0485
33
0
0
SOLID
8
SOMBRA
62
253
10
202.2823
20
151.7376
30
0
11
202.6196
21
150.4309
31
0
12
202.0383
22
150.7666
32
0
13
202.0383
23
150.7666
33
0
0
SOLID
8
SOMBRA
62
252
10
211.0043
20
140.1364
30
0
11
200.9351
21
145.5140
31
0
12
201.3126
22
145.7319
32
0
13
201.3126
23
145.7319
33
0
0
SOLID
8
SOMBRA
62
253
10
200.7519
20
150.7382
30
0
11
201.4388
21
151.1127
31
0
12
200.5245
22
145.2769
32
0
13
200.5245
23
145.2769
33
0
0
SOLID
8
SOMBRA
62
252
10
210.3841
20
140.0586
30
0
11
200.6814
21
145.3675
31
0
12
200.9351
22
145.5140
32
0
13
200.9351
23
145.5140
33
0
0
SOLID
8
SOMBRA
62
252
10
209.9673
20
140.0063
30
0
11
200.5245
21
145.2769
31
0
12
200.6814
22
145.3675
32
0
13
200.6814
23
145.3675
33
0
0
SOLID
8
SOMBRA
62
252
10
218.4874
20
141.0756
30
0
11
206.0355
21
148.4588
31
0
12
218.7635
22
141.1103
32
0
13
218.7635
23
141.1103
33
0
0
SOLID
8
SOMBRA
62
253
10
218.7635
20
141.2060
30
0
11
218.7635
21
141.1103
31
0
12
206.0355
22
148.4588
32
0
13
206.0355
23
148.4588
33
0
0
SOLID
8
SOMBRA
62
253
10
201.4518
20
151.1953
30
0
11
202.2823
21
151.7376
31
0
12
202.0383
22
150.7666
32
0
13
202.0383
23
150.7666
33
0
0
SOLID
8
SOMBRA
62
252
10
209.7096
20
139.9739
30
0
11
200.4494
21
145.2336
31
0
12
200.5245
22
145.2769
32
0
13
200.5245
23
145.2769
33
0
0
SOLID
8
SOMBRA
62
253
10
200.1494
20
150.3448
30
0
11
200.7519
21
150.7382
31
0
12
200.4494
22
145.2336
32
0
13
200.4494
23
145.2336
33
0
0
SOLID
8
SOMBRA
62
253
10
201.4518
20
151.1953
30
0
11
202.0383
21
150.7666
31
0
12
201.4388
22
151.1127
32
0
13
201.4388
23
151.1127
33
0
0
SOLID
8
SOMBRA
62
253
10
191.8596
20
140.9244
30
0
11
200.4125
21
145.8624
31
0
12
200.4494
22
145.2336
32
0
13
200.4494
23
145.2336
33
0
0
SOLID
8
SOMBRA
62
253
10
218.7635
20
142.7709
30
0
11
218.7635
21
141.2060
31
0
12
206.0888
22
148.5237
32
0
13
206.0888
23
148.5237
33
0
0
SOLID
8
SOMBRA
62
253
10
199.6211
20
149.9997
30
0
11
200.1494
21
150.3448
31
0
12
200.4125
22
145.8624
32
0
13
200.4125
23
145.8624
33
0
0
SOLID
8
SOMBRA
62
253
10
201.4518
20
151.1953
30
0
11
201.4388
21
151.1127
31
0
12
201.3786
22
151.1475
32
0
13
201.3786
23
151.1475
33
0
0
SOLID
8
SOMBRA
62
253
10
191.8596
20
140.9244
30
0
11
200.3024
21
146.4378
31
0
12
200.4125
22
145.8624
32
0
13
200.4125
23
145.8624
33
0
0
SOLID
8
SOMBRA
62
253
10
200.7519
20
150.7382
30
0
11
201.3786
21
151.1475
31
0
12
201.4388
22
151.1127
32
0
13
201.4388
23
151.1127
33
0
0
SOLID
8
SOMBRA
62
252
10
218.4874
20
141.0756
30
0
11
215.2276
21
140.6665
31
0
12
203.8832
22
147.2161
32
0
13
203.8832
23
147.2161
33
0
0
SOLID
8
SOMBRA
62
253
10
191.8596
20
140.9244
30
0
11
200.1211
21
146.9500
31
0
12
200.3024
22
146.4378
32
0
13
200.3024
23
146.4378
33
0
0
SOLID
8
SOMBRA
62
253
10
199.1501
20
149.6922
30
0
11
199.6211
21
149.9997
31
0
12
200.3024
22
146.4378
32
0
13
200.3024
23
146.4378
33
0
0
SOLID
8
SOMBRA
62
253
10
218.7635
20
146.6071
30
0
11
207.9364
21
150.7756
31
0
12
209.0958
22
152.1887
32
0
13
209.0958
23
152.1887
33
0
0
SOLID
8
SOMBRA
62
253
10
191.8596
20
140.9244
30
0
11
199.8715
21
147.3903
31
0
12
200.1211
22
146.9500
32
0
13
200.1211
23
146.9500
33
0
0
SOLID
8
SOMBRA
62
253
10
198.7243
20
149.4141
30
0
11
199.1501
21
149.6922
31
0
12
200.1211
22
146.9500
32
0
13
200.1211
23
146.9500
33
0
0
SOLID
8
SOMBRA
62
252
10
215.2276
20
140.6665
30
0
11
213.2243
21
140.4151
31
0
12
202.6639
22
146.5121
32
0
13
202.6639
23
146.5121
33
0
0
SOLID
8
SOMBRA
62
252
10
206.4598
20
141.7635
30
0
11
191.8227
21
140.2530
31
0
12
200.4494
22
145.2336
32
0
13
200.4494
23
145.2336
33
0
0
SOLID
8
SOMBRA
62
253
10
191.8596
20
140.9244
30
0
11
199.5581
21
147.7510
31
0
12
199.8715
22
147.3903
32
0
13
199.8715
23
147.3903
33
0
0
SOLID
8
SOMBRA
62
253
10
218.7635
20
144.5246
30
0
11
218.7635
21
142.7709
31
0
12
206.9600
22
149.5856
32
0
13
206.9600
23
149.5856
33
0
0
SOLID
8
SOMBRA
62
253
10
198.3342
20
149.1594
30
0
11
198.7243
21
149.4141
31
0
12
199.8715
22
147.3903
32
0
13
199.8715
23
147.3903
33
0
0
SOLID
8
SOMBRA
62
252
10
213.2243
20
140.4151
30
0
11
211.9050
21
140.2495
31
0
12
201.8608
22
146.0485
32
0
13
201.8608
23
146.0485
33
0
0
SOLID
8
SOMBRA
62
253
10
209.2255
20
152.3469
30
0
11
206.0355
21
154.1886
31
0
12
206.0355
22
171.3207
32
0
13
206.0355
23
171.3207
33
0
0
SOLID
8
SOMBRA
62
252
10
211.9050
20
140.2495
30
0
11
211.0043
21
140.1364
31
0
12
201.3126
22
145.7319
32
0
13
201.3126
23
145.7319
33
0
0
SOLID
8
SOMBRA
62
253
10
218.7635
20
146.8401
30
0
11
209.0958
21
152.1887
31
0
12
209.2255
22
152.3469
32
0
13
209.2255
23
152.3469
33
0
0
SOLID
8
SOMBRA
62
253
10
191.8596
20
140.9244
30
0
11
199.1860
21
148.0260
31
0
12
199.5581
22
147.7510
32
0
13
199.5581
23
147.7510
33
0
0
SOLID
8
SOMBRA
62
253
10
197.9725
20
148.9232
30
0
11
198.3342
21
149.1594
31
0
12
199.5581
22
147.7510
32
0
13
199.5581
23
147.7510
33
0
0
SOLID
8
SOMBRA
62
252
10
211.0043
20
140.1364
30
0
11
210.3841
21
140.0586
31
0
12
200.9351
22
145.5140
32
0
13
200.9351
23
145.5140
33
0
0
SOLID
8
SOMBRA
62
253
10
206.0355
20
171.3207
30
0
11
206.0355
21
154.1886
31
0
12
201.3786
22
151.1475
32
0
13
201.3786
23
151.1475
33
0
0
SOLID
8
SOMBRA
62
253
10
191.8596
20
140.9244
30
0
11
200.4494
21
145.2336
31
0
12
191.8227
22
140.2530
32
0
13
191.8227
23
140.2530
33
0
0
SOLID
8
SOMBRA
62
252
10
210.3841
20
140.0586
30
0
11
209.9673
21
140.0063
31
0
12
200.6814
22
145.3675
32
0
13
200.6814
23
145.3675
33
0
0
SOLID
8
SOMBRA
62
252
10
209.9673
20
140.0063
30
0
11
209.7096
21
139.9739
31
0
12
200.5245
22
145.2769
32
0
13
200.5245
23
145.2769
33
0
0
SOLID
8
SOMBRA
62
252
10
209.7096
20
139.9739
30
0
11
209.5862
21
139.9584
31
0
12
200.4494
22
145.2336
32
0
13
200.4494
23
145.2336
33
0
0
SOLID
8
SOMBRA
62
253
10
197.6335
20
148.7018
30
0
11
197.9725
21
148.9232
31
0
12
199.1860
22
148.0260
32
0
13
199.1860
23
148.0260
33
0
0
SOLID
8
SOMBRA
62
253
10
191.8596
20
140.9244
30
0
11
198.7618
21
148.2107
31
0
12
199.1860
22
148.0260
32
0
13
199.1860
23
148.0260
33
0
0
SOLID
8
SOMBRA
62
253
10
197.3125
20
148.4922
30
0
11
197.6335
21
148.7018
31
0
12
198.7618
22
148.2107
32
0
13
198.7618
23
148.2107
33
0
0
SOLID
8
SOMBRA
62
253
10
191.8596
20
140.9244
30
0
11
198.2927
21
148.3018
31
0
12
198.7618
22
148.2107
32
0
13
198.7618
23
148.2107
33
0
0
SOLID
8
SOMBRA
62
253
10
197.0054
20
148.2916
30
0
11
197.3125
21
148.4922
31
0
12
198.2927
22
148.3018
32
0
13
198.2927
23
148.3018
33
0
0
SOLID
8
SOMBRA
62
253
10
218.7635
20
146.6071
30
0
11
218.7635
21
144.5246
31
0
12
207.9364
22
150.7756
32
0
13
207.9364
23
150.7756
33
0
0
SOLID
8
SOMBRA
62
252
10
218.5954
20
141.0133
30
0
11
218.4874
21
141.0756
31
0
12
218.7635
22
141.1103
32
0
13
218.7635
23
141.1103
33
0
0
SOLID
8
SOMBRA
62
252
10
218.5954
20
141.0133
30
0
11
218.7635
21
141.1103
31
0
12
218.7635
22
141.2060
32
0
13
218.7635
23
141.2060
33
0
0
SOLID
8
SOMBRA
62
253
10
191.8596
20
140.9244
30
0
11
197.7867
21
148.2978
31
0
12
198.2927
22
148.3018
32
0
13
198.2927
23
148.3018
33
0
0
SOLID
8
SOMBRA
62
252
10
218.5954
20
141.0133
30
0
11
215.2276
21
140.6665
31
0
12
218.4874
22
141.0756
32
0
13
218.4874
23
141.0756
33
0
0
SOLID
8
SOMBRA
62
253
10
196.7088
20
148.0980
30
0
11
197.0054
21
148.2916
31
0
12
197.7867
22
148.2978
32
0
13
197.7867
23
148.2978
33
0
0
SOLID
8
SOMBRA
62
252
10
202.1464
20
139.2732
30
0
11
206.4598
21
141.7635
31
0
12
206.4229
22
142.3923
32
0
13
206.4229
23
142.3923
33
0
0
SOLID
8
SOMBRA
62
253
10
191.8596
20
140.9244
30
0
11
197.2524
21
148.1987
31
0
12
197.7867
22
148.2978
32
0
13
197.7867
23
148.2978
33
0
0
SOLID
8
SOMBRA
62
253
10
196.4200
20
147.9093
30
0
11
196.7088
21
148.0980
31
0
12
197.2524
22
148.1987
32
0
13
197.2524
23
148.1987
33
0
0
SOLID
8
SOMBRA
62
252
10
216.6112
20
139.8677
30
0
11
218.5954
21
141.0133
31
0
12
218.7635
22
141.2060
32
0
13
218.7635
23
141.2060
33
0
0
SOLID
8
SOMBRA
62
252
10
202.1464
20
139.2732
30
0
11
206.4229
21
142.3923
31
0
12
206.3128
22
142.9677
32
0
13
206.3128
23
142.9677
33
0
0
SOLID
8
SOMBRA
62
252
10
218.5954
20
141.0133
30
0
11
216.6112
21
139.8677
31
0
12
215.2276
22
140.6665
32
0
13
215.2276
23
140.6665
33
0
0
SOLID
8
SOMBRA
62
253
10
191.8596
20
140.9244
30
0
11
196.6990
21
148.0064
31
0
12
197.2524
22
148.1987
32
0
13
197.2524
23
148.1987
33
0
0
SOLID
8
SOMBRA
62
253
10
196.1360
20
147.7239
30
0
11
196.4200
21
147.9093
31
0
12
196.6990
22
148.0064
32
0
13
196.6990
23
148.0064
33
0
0
SOLID
8
SOMBRA
62
252
10
216.6112
20
139.8677
30
0
11
218.7635
21
141.2060
31
0
12
218.7635
22
142.7709
32
0
13
218.7635
23
142.7709
33
0
0
SOLID
8
SOMBRA
62
252
10
213.1695
20
138.0179
30
0
11
206.4229
21
142.3923
31
0
12
206.4598
22
141.7635
32
0
13
206.4598
23
141.7635
33
0
0
SOLID
8
SOMBRA
62
252
10
216.6112
20
139.8677
30
0
11
213.2243
21
140.4151
31
0
12
215.2276
22
140.6665
32
0
13
215.2276
23
140.6665
33
0
0
SOLID
8
SOMBRA
62
252
10
202.1464
20
139.2732
30
0
11
206.3128
21
142.9677
31
0
12
206.1315
22
143.4799
32
0
13
206.1315
23
143.4799
33
0
0
SOLID
8
SOMBRA
62
253
10
191.8596
20
140.9244
30
0
11
196.1360
21
147.7239
31
0
12
196.6990
22
148.0064
32
0
13
196.6990
23
148.0064
33
0
0
SOLID
8
SOMBRA
62
253
10
218.7635
20
146.8401
30
0
11
218.7635
21
146.6071
31
0
12
209.0958
22
152.1887
32
0
13
209.0958
23
152.1887
33
0
0
SOLID
8
SOMBRA
62
253
10
191.8596
20
140.9244
30
0
11
191.8227
21
140.2530
31
0
12
191.7476
22
140.2096
32
0
13
191.7476
23
140.2096
33
0
0
SOLID
8
SOMBRA
62
252
10
206.4598
20
141.7635
30
0
11
195.4138
21
138.1796
31
0
12
191.8227
22
140.2530
32
0
13
191.8227
23
140.2530
33
0
0
SOLID
8
SOMBRA
62
253
10
191.8596
20
140.9244
30
0
11
195.5730
21
147.3563
31
0
12
196.1360
22
147.7239
32
0
13
196.1360
23
147.7239
33
0
0
SOLID
8
SOMBRA
62
252
10
202.1464
20
139.2732
30
0
11
206.1315
21
143.4799
31
0
12
205.8819
22
143.9202
32
0
13
205.8819
23
143.9202
33
0
0
SOLID
8
SOMBRA
62
253
10
191.9697
20
141.6269
30
0
11
191.7476
21
140.2096
31
0
12
191.5907
22
140.1190
32
0
13
191.5907
23
140.1190
33
0
0
SOLID
8
SOMBRA
62
252
10
213.1172
20
138.6354
30
0
11
206.3128
21
142.9677
31
0
12
206.4229
22
142.3923
32
0
13
206.4229
23
142.3923
33
0
0
SOLID
8
SOMBRA
62
252
10
215.3918
20
139.1637
30
0
11
211.9050
21
140.2495
31
0
12
213.2243
22
140.4151
32
0
13
213.2243
23
140.4151
33
0
0
SOLID
8
SOMBRA
62
253
10
191.8596
20
140.9244
30
0
11
195.0197
21
146.9097
31
0
12
195.5730
22
147.3563
32
0
13
195.5730
23
147.3563
33
0
0
SOLID
8
SOMBRA
62
253
10
192.1510
20
142.3485
30
0
11
191.5907
21
140.1190
31
0
12
191.3370
22
139.9726
32
0
13
191.3370
23
139.9726
33
0
0
SOLID
8
SOMBRA
62
252
10
216.6112
20
139.8677
30
0
11
215.3918
21
139.1637
31
0
12
213.2243
22
140.4151
32
0
13
213.2243
23
140.4151
33
0
0
SOLID
8
SOMBRA
62
252
10
215.3918
20
139.1637
30
0
11
216.6112
21
139.8677
31
0
12
218.7635
22
142.7709
32
0
13
218.7635
23
142.7709
33
0
0
SOLID
8
SOMBRA
62
252
10
202.1464
20
139.2732
30
0
11
205.8819
21
143.9202
31
0
12
205.5685
22
144.2809
32
0
13
205.5685
23
144.2809
33
0
0
SOLID
8
SOMBRA
62
253
10
191.8596
20
140.9244
30
0
11
191.9697
21
141.6269
31
0
12
192.1510
22
142.3485
32
0
13
192.1510
23
142.3485
33
0
0
SOLID
8
SOMBRA
62
253
10
191.8596
20
140.9244
30
0
11
194.4854
21
146.3918
31
0
12
195.0197
22
146.9097
32
0
13
195.0197
23
146.9097
33
0
0
SOLID
8
SOMBRA
62
252
10
214.5887
20
138.7000
30
0
11
211.0043
21
140.1364
31
0
12
211.9050
22
140.2495
32
0
13
211.9050
23
140.2495
33
0
0
SOLID
8
SOMBRA
62
253
10
192.4006
20
143.0769
30
0
11
191.3370
21
139.9726
31
0
12
190.9595
22
139.7546
32
0
13
190.9595
23
139.7546
33
0
0
SOLID
8
SOMBRA
62
252
10
206.4598
20
141.7635
30
0
11
201.5965
21
138.9556
31
0
12
195.4138
22
138.1796
32
0
13
195.4138
23
138.1796
33
0
0
SOLID
8
SOMBRA
62
252
10
215.3918
20
139.1637
30
0
11
218.7635
21
142.7709
31
0
12
218.7635
22
144.5246
32
0
13
218.7635
23
144.5246
33
0
0
SOLID
8
SOMBRA
62
253
10
191.8596
20
140.9244
30
0
11
192.1510
21
142.3485
31
0
12
192.4006
22
143.0769
32
0
13
192.4006
23
143.0769
33
0
0
SOLID
8
SOMBRA
62
253
10
191.8596
20
140.9244
30
0
11
193.9794
21
145.8115
31
0
12
194.4854
22
146.3918
32
0
13
194.4854
23
146.3918
33
0
0
SOLID
8
SOMBRA
62
252
10
212.9920
20
139.1975
30
0
11
206.1315
21
143.4799
31
0
12
206.3128
22
142.9677
32
0
13
206.3128
23
142.9677
33
0
0
SOLID
8
SOMBRA
62
252
10
195.4138
20
138.1796
30
0
11
191.7476
21
140.2096
31
0
12
191.8227
22
140.2530
32
0
13
191.8227
23
140.2530
33
0
0
SOLID
8
SOMBRA
62
252
10
214.0405
20
138.3835
30
0
11
210.3841
21
140.0586
31
0
12
211.0043
22
140.1364
32
0
13
211.0043
23
140.1364
33
0
0
SOLID
8
SOMBRA
62
253
10
191.8596
20
140.9244
30
0
11
192.4006
21
143.0769
31
0
12
192.7140
22
143.7996
32
0
13
192.7140
23
143.7996
33
0
0
SOLID
8
SOMBRA
62
253
10
191.8596
20
140.9244
30
0
11
193.5102
21
145.1787
31
0
12
193.9794
22
145.8115
32
0
13
193.9794
23
145.8115
33
0
0
SOLID
8
SOMBRA
62
252
10
195.2904
20
138.1642
30
0
11
191.5907
21
140.1190
31
0
12
191.7476
22
140.2096
32
0
13
191.7476
23
140.2096
33
0
0
SOLID
8
SOMBRA
62
253
10
192.7140
20
143.7996
30
0
11
190.9595
21
139.7546
31
0
12
190.4113
22
139.4381
32
0
13
190.4113
23
139.4381
33
0
0
SOLID
8
SOMBRA
62
253
10
191.8596
20
140.9244
30
0
11
193.0860
21
144.5042
31
0
12
193.5102
22
145.1787
32
0
13
193.5102
23
145.1787
33
0
0
SOLID
8
SOMBRA
62
253
10
191.8596
20
140.9244
30
0
11
192.7140
21
143.7996
31
0
12
193.0860
22
144.5042
32
0
13
193.0860
23
144.5042
33
0
0
SOLID
8
SOMBRA
62
252
10
202.1464
20
139.2732
30
0
11
205.5685
21
144.2809
31
0
12
205.1964
22
144.5559
32
0
13
205.1964
23
144.5559
33
0
0
SOLID
8
SOMBRA
62
252
10
213.6630
20
138.1655
30
0
11
209.9673
21
140.0063
31
0
12
210.3841
22
140.0586
32
0
13
210.3841
23
140.0586
33
0
0
SOLID
8
SOMBRA
62
252
10
195.0327
20
138.1318
30
0
11
191.3370
21
139.9726
31
0
12
191.5907
22
140.1190
32
0
13
191.5907
23
140.1190
33
0
0
SOLID
8
SOMBRA
62
252
10
215.3918
20
139.1637
30
0
11
214.5887
21
138.7000
31
0
12
211.9050
22
140.2495
32
0
13
211.9050
23
140.2495
33
0
0
SOLID
8
SOMBRA
62
252
10
213.4093
20
138.0191
30
0
11
209.7096
21
139.9739
31
0
12
209.9673
22
140.0063
32
0
13
209.9673
23
140.0063
33
0
0
SOLID
8
SOMBRA
62
252
10
213.2524
20
137.9285
30
0
11
209.5862
21
139.9584
31
0
12
209.7096
22
139.9739
32
0
13
209.7096
23
139.9739
33
0
0
SOLID
8
SOMBRA
62
252
10
194.6159
20
138.0795
30
0
11
190.9595
21
139.7546
31
0
12
191.3370
22
139.9726
32
0
13
191.3370
23
139.9726
33
0
0
SOLID
8
SOMBRA
62
253
10
193.0860
20
144.5042
30
0
11
190.4113
21
139.4381
31
0
12
189.6082
22
138.9744
32
0
13
189.6082
23
138.9744
33
0
0
SOLID
8
SOMBRA
62
252
10
213.1695
20
138.0179
30
0
11
206.4598
21
141.7635
31
0
12
213.1773
22
137.8851
32
0
13
213.1773
23
137.8851
33
0
0
SOLID
8
SOMBRA
62
252
10
212.7963
20
139.6945
30
0
11
205.8819
21
143.9202
31
0
12
206.1315
22
143.4799
32
0
13
206.1315
23
143.4799
33
0
0
SOLID
8
SOMBRA
62
252
10
202.1464
20
139.2732
30
0
11
205.1964
21
144.5559
31
0
12
204.7722
22
144.7406
32
0
13
204.7722
23
144.7406
33
0
0
SOLID
8
SOMBRA
62
252
10
214.5887
20
138.7000
30
0
11
215.3918
21
139.1637
31
0
12
218.7635
22
144.5246
32
0
13
218.7635
23
144.5246
33
0
0
SOLID
8
SOMBRA
62
252
10
214.5887
20
138.7000
30
0
11
214.0405
21
138.3835
31
0
12
211.0043
22
140.1364
32
0
13
211.0043
23
140.1364
33
0
0
SOLID
8
SOMBRA
62
252
10
193.9957
20
138.0017
30
0
11
190.4113
21
139.4381
31
0
12
190.9595
22
139.7546
32
0
13
190.9595
23
139.7546
33
0
0
SOLID
8
SOMBRA
62
252
10
213.1695
20
138.0179
30
0
11
213.1404
21
138.5139
31
0
12
206.4229
22
142.3923
32
0
13
206.4229
23
142.3923
33
0
0
SOLID
8
SOMBRA
62
252
10
214.0405
20
138.3835
30
0
11
213.6630
21
138.1655
31
0
12
210.3841
22
140.0586
32
0
13
210.3841
23
140.0586
33
0
0
SOLID
8
SOMBRA
62
252
10
195.4138
20
138.1796
30
0
11
195.2904
21
138.1642
31
0
12
191.7476
22
140.2096
32
0
13
191.7476
23
140.2096
33
0
0
SOLID
8
SOMBRA
62
253
10
193.5102
20
145.1787
30
0
11
189.6082
21
138.9744
31
0
12
188.3888
22
138.2704
32
0
13
188.3888
23
138.2704
33
0
0
SOLID
8
SOMBRA
62
252
10
214.5887
20
138.7000
30
0
11
218.7635
21
144.5246
31
0
12
218.7635
22
146.6071
32
0
13
218.7635
23
146.6071
33
0
0
SOLID
8
SOMBRA
62
252
10
202.1464
20
139.2732
30
0
11
204.7722
21
144.7406
31
0
12
204.3031
22
144.8317
32
0
13
204.3031
23
144.8317
33
0
0
SOLID
8
SOMBRA
62
252
10
195.2904
20
138.1642
30
0
11
195.0327
21
138.1318
31
0
12
191.5907
22
140.1190
32
0
13
191.5907
23
140.1190
33
0
0
SOLID
8
SOMBRA
62
252
10
213.1172
20
138.6354
30
0
11
206.4229
21
142.3923
31
0
12
213.1404
22
138.5139
32
0
13
213.1404
23
138.5139
33
0
0
SOLID
8
SOMBRA
62
252
10
193.0950
20
137.8886
30
0
11
189.6082
21
138.9744
31
0
12
190.4113
22
139.4381
32
0
13
190.4113
23
139.4381
33
0
0
SOLID
8
SOMBRA
62
252
10
213.6630
20
138.1655
30
0
11
213.4093
21
138.0191
31
0
12
209.9673
22
140.0063
32
0
13
209.9673
23
140.0063
33
0
0
SOLID
8
SOMBRA
62
252
10
195.0327
20
138.1318
30
0
11
194.6159
21
138.0795
31
0
12
191.3370
22
139.9726
32
0
13
191.3370
23
139.9726
33
0
0
SOLID
8
SOMBRA
62
252
10
212.5333
20
140.1180
30
0
11
205.5685
21
144.2809
31
0
12
205.8819
22
143.9202
32
0
13
205.8819
23
143.9202
33
0
0
SOLID
8
SOMBRA
62
252
10
213.4093
20
138.0191
30
0
11
213.2524
21
137.9285
31
0
12
209.7096
22
139.9739
32
0
13
209.7096
23
139.9739
33
0
0
SOLID
8
SOMBRA
62
252
10
194.6159
20
138.0795
30
0
11
193.9957
21
138.0017
31
0
12
190.9595
22
139.7546
32
0
13
190.9595
23
139.7546
33
0
0
SOLID
8
SOMBRA
62
252
10
213.2524
20
137.9285
30
0
11
213.1773
21
137.8851
31
0
12
209.5862
22
139.9584
32
0
13
209.5862
23
139.9584
33
0
0
SOLID
8
SOMBRA
62
252
10
213.1172
20
138.6354
30
0
11
213.0303
21
139.0894
31
0
12
206.3128
22
142.9677
32
0
13
206.3128
23
142.9677
33
0
0
SOLID
8
SOMBRA
62
252
10
202.1464
20
139.2732
30
0
11
204.3031
21
144.8317
31
0
12
203.7971
22
144.8277
32
0
13
203.7971
23
144.8277
33
0
0
SOLID
8
SOMBRA
62
252
10
214.0405
20
138.3835
30
0
11
214.5887
21
138.7000
31
0
12
218.7635
22
146.6071
32
0
13
218.7635
23
146.6071
33
0
0
SOLID
8
SOMBRA
62
252
10
193.9957
20
138.0017
30
0
11
193.0950
21
137.8886
31
0
12
190.4113
22
139.4381
32
0
13
190.4113
23
139.4381
33
0
0
SOLID
8
SOMBRA
62
252
10
212.9920
20
139.1975
30
0
11
206.3128
21
142.9677
31
0
12
213.0303
22
139.0894
32
0
13
213.0303
23
139.0894
33
0
0
SOLID
8
SOMBRA
62
252
10
214.0405
20
138.3835
30
0
11
218.7635
21
146.6071
31
0
12
218.7635
22
146.8401
32
0
13
218.7635
23
146.8401
33
0
0
SOLID
8
SOMBRA
62
252
10
191.7757
20
137.7230
30
0
11
188.3888
21
138.2704
31
0
12
189.6082
22
138.9744
32
0
13
189.6082
23
138.9744
33
0
0
SOLID
8
SOMBRA
62
252
10
212.2074
20
140.4606
30
0
11
205.1964
21
144.5559
31
0
12
205.5685
22
144.2809
32
0
13
205.5685
23
144.2809
33
0
0
SOLID
8
SOMBRA
62
253
10
193.9794
20
145.8115
30
0
11
188.3888
21
138.2704
31
0
12
186.4046
22
137.1248
32
0
13
186.4046
23
137.1248
33
0
0
SOLID
8
SOMBRA
62
252
10
202.1464
20
139.2732
30
0
11
203.7971
21
144.8277
31
0
12
203.2628
22
144.7286
32
0
13
203.2628
23
144.7286
33
0
0
SOLID
8
SOMBRA
62
252
10
193.0950
20
137.8886
30
0
11
191.7757
21
137.7230
31
0
12
189.6082
22
138.9744
32
0
13
189.6082
23
138.9744
33
0
0
SOLID
8
SOMBRA
62
252
10
212.9920
20
139.1975
30
0
11
212.8490
21
139.6016
31
0
12
206.1315
22
143.4799
32
0
13
206.1315
23
143.4799
33
0
0
SOLID
8
SOMBRA
62
252
10
214.0405
20
138.3835
30
0
11
218.7635
21
146.8401
31
0
12
217.2916
22
145.8790
32
0
13
217.2916
23
145.8790
33
0
0
SOLID
8
SOMBRA
62
252
10
212.7963
20
139.6945
30
0
11
206.1315
21
143.4799
31
0
12
212.8490
22
139.6016
32
0
13
212.8490
23
139.6016
33
0
0
SOLID
8
SOMBRA
62
252
10
213.6630
20
138.1655
30
0
11
214.0405
21
138.3835
31
0
12
217.2916
22
145.8790
32
0
13
217.2916
23
145.8790
33
0
0
SOLID
8
SOMBRA
62
252
10
197.8331
20
136.7829
30
0
11
195.4138
21
138.1796
31
0
12
201.5965
22
138.9556
32
0
13
201.5965
23
138.9556
33
0
0
SOLID
8
SOMBRA
62
252
10
202.1464
20
139.2732
30
0
11
203.2628
21
144.7286
31
0
12
202.7095
22
144.5362
32
0
13
202.7095
23
144.5362
33
0
0
SOLID
8
SOMBRA
62
253
10
194.4854
20
146.3918
30
0
11
186.4046
21
137.1248
31
0
12
186.2365
22
137.0278
32
0
13
186.2365
23
137.0278
33
0
0
SOLID
8
SOMBRA
62
252
10
191.7757
20
137.7230
30
0
11
189.7724
21
137.4716
31
0
12
188.3888
22
138.2704
32
0
13
188.3888
23
138.2704
33
0
0
SOLID
8
SOMBRA
62
252
10
211.8244
20
140.7166
30
0
11
204.7722
21
144.7406
31
0
12
205.1964
22
144.5559
32
0
13
205.1964
23
144.5559
33
0
0
SOLID
8
SOMBRA
62
252
10
202.1464
20
139.2732
30
0
11
202.7095
21
144.5362
31
0
12
202.1464
22
144.2538
32
0
13
202.1464
23
144.2538
33
0
0
SOLID
8
SOMBRA
62
252
10
212.7963
20
139.6945
30
0
11
212.5994
21
140.0418
31
0
12
205.8819
22
143.9202
32
0
13
205.8819
23
143.9202
33
0
0
SOLID
8
SOMBRA
62
252
10
213.4093
20
138.0191
30
0
11
213.6630
21
138.1655
31
0
12
216.0214
22
145.0495
32
0
13
216.0214
23
145.0495
33
0
0
SOLID
8
SOMBRA
62
252
10
189.7724
20
137.4716
30
0
11
186.4046
21
137.1248
31
0
12
188.3888
22
138.2704
32
0
13
188.3888
23
138.2704
33
0
0
SOLID
8
SOMBRA
62
253
10
194.4854
20
146.3918
30
0
11
186.2365
21
137.0278
31
0
12
186.2365
22
138.3960
32
0
13
186.2365
23
138.3960
33
0
0
SOLID
8
SOMBRA
62
252
10
212.5333
20
140.1180
30
0
11
205.8819
21
143.9202
31
0
12
212.5994
22
140.0418
32
0
13
212.5994
23
140.0418
33
0
0
SOLID
8
SOMBRA
62
252
10
202.1464
20
139.2732
30
0
11
202.1464
21
144.2538
31
0
12
201.5834
22
143.8861
32
0
13
201.5834
23
143.8861
33
0
0
SOLID
8
SOMBRA
62
252
10
202.1464
20
139.2732
30
0
11
197.8700
21
137.4543
31
0
12
197.8331
22
136.7829
32
0
13
197.8331
23
136.7829
33
0
0
SOLID
8
SOMBRA
62
252
10
213.6630
20
138.1655
30
0
11
217.2916
21
145.8790
31
0
12
216.0214
22
145.0495
32
0
13
216.0214
23
145.0495
33
0
0
SOLID
8
SOMBRA
62
252
10
213.2524
20
137.9285
30
0
11
213.4093
21
138.0191
31
0
12
215.0102
22
144.3892
32
0
13
215.0102
23
144.3892
33
0
0
SOLID
8
SOMBRA
62
252
10
211.3907
20
140.8815
30
0
11
204.3031
21
144.8317
31
0
12
204.7722
22
144.7406
32
0
13
204.7722
23
144.7406
33
0
0
SOLID
8
SOMBRA
62
252
10
202.1464
20
139.2732
30
0
11
197.9801
21
138.1568
31
0
12
197.8700
22
137.4543
32
0
13
197.8700
23
137.4543
33
0
0
SOLID
8
SOMBRA
62
252
10
202.1464
20
139.2732
30
0
11
201.5834
21
143.8861
31
0
12
201.0301
22
143.4395
32
0
13
201.0301
23
143.4395
33
0
0
SOLID
8
SOMBRA
62
252
10
212.5333
20
140.1180
30
0
11
212.2860
21
140.4025
31
0
12
205.5685
22
144.2809
32
0
13
205.5685
23
144.2809
33
0
0
SOLID
8
SOMBRA
62
253
10
218.7635
20
146.8401
30
0
11
209.2255
21
152.3469
31
0
12
218.7635
22
163.9722
32
0
13
218.7635
23
163.9722
33
0
0
SOLID
8
SOMBRA
62
253
10
195.0197
20
146.9097
30
0
11
186.2365
21
138.3960
31
0
12
186.2365
22
139.8214
32
0
13
186.2365
23
139.8214
33
0
0
SOLID
8
SOMBRA
62
252
10
189.7724
20
137.4716
30
0
11
186.5126
21
137.0625
31
0
12
186.4046
22
137.1248
32
0
13
186.4046
23
137.1248
33
0
0
SOLID
8
SOMBRA
62
252
10
213.1773
20
137.8851
30
0
11
213.2524
21
137.9285
31
0
12
214.1797
22
143.8468
32
0
13
214.1797
23
143.8468
33
0
0
SOLID
8
SOMBRA
62
252
10
202.1464
20
139.2732
30
0
11
201.0301
21
143.4395
31
0
12
200.4958
22
142.9217
32
0
13
200.4958
23
142.9217
33
0
0
SOLID
8
SOMBRA
62
252
10
202.1464
20
139.2732
30
0
11
198.1614
21
138.8784
31
0
12
197.9801
22
138.1568
32
0
13
197.9801
23
138.1568
33
0
0
SOLID
8
SOMBRA
62
252
10
212.2074
20
140.4606
30
0
11
205.5685
21
144.2809
31
0
12
212.2860
22
140.4025
32
0
13
212.2860
23
140.4025
33
0
0
SOLID
8
SOMBRA
62
252
10
186.5126
20
137.0625
30
0
11
186.2365
21
137.0278
31
0
12
186.4046
22
137.1248
32
0
13
186.4046
23
137.1248
33
0
0
SOLID
8
SOMBRA
62
252
10
202.1464
20
139.2732
30
0
11
200.4958
21
142.9217
31
0
12
199.9898
22
142.3414
32
0
13
199.9898
23
142.3414
33
0
0
SOLID
8
SOMBRA
62
252
10
202.1464
20
139.2732
30
0
11
198.4110
21
139.6068
31
0
12
198.1614
22
138.8784
32
0
13
198.1614
23
138.8784
33
0
0
SOLID
8
SOMBRA
62
252
10
213.4093
20
138.0191
30
0
11
216.0214
21
145.0495
31
0
12
215.0102
22
144.3892
32
0
13
215.0102
23
144.3892
33
0
0
SOLID
8
SOMBRA
62
252
10
202.1464
20
139.2732
30
0
11
198.7244
21
140.3295
31
0
12
198.4110
22
139.6068
32
0
13
198.4110
23
139.6068
33
0
0
SOLID
8
SOMBRA
62
252
10
202.1464
20
139.2732
30
0
11
199.9898
21
142.3414
31
0
12
199.5206
22
141.7086
32
0
13
199.5206
23
141.7086
33
0
0
SOLID
8
SOMBRA
62
252
10
202.1464
20
139.2732
30
0
11
199.5206
21
141.7086
31
0
12
199.0964
22
141.0341
32
0
13
199.0964
23
141.0341
33
0
0
SOLID
8
SOMBRA
62
252
10
202.1464
20
139.2732
30
0
11
199.0964
21
141.0341
31
0
12
198.7244
22
140.3295
32
0
13
198.7244
23
140.3295
33
0
0
SOLID
8
SOMBRA
62
252
10
210.9138
20
140.9525
30
0
11
203.7971
21
144.8277
31
0
12
204.3031
22
144.8317
32
0
13
204.3031
23
144.8317
33
0
0
SOLID
8
SOMBRA
62
253
10
195.5730
20
147.3563
30
0
11
186.2365
21
139.8214
31
0
12
186.2365
22
141.2592
32
0
13
186.2365
23
141.2592
33
0
0
SOLID
8
SOMBRA
62
253
10
209.2255
20
152.3469
30
0
11
206.0355
21
171.3207
31
0
12
218.7635
22
163.9722
32
0
13
218.7635
23
163.9722
33
0
0
SOLID
8
SOMBRA
62
252
10
212.2074
20
140.4606
30
0
11
211.9140
21
140.6776
31
0
12
205.1964
22
144.5559
32
0
13
205.1964
23
144.5559
33
0
0
SOLID
8
SOMBRA
62
252
10
211.8244
20
140.7166
30
0
11
205.1964
21
144.5559
31
0
12
211.9140
22
140.6776
32
0
13
211.9140
23
140.6776
33
0
0
SOLID
8
SOMBRA
62
252
10
213.2524
20
137.9285
30
0
11
215.0102
21
144.3892
31
0
12
214.1797
22
143.8468
32
0
13
214.1797
23
143.8468
33
0
0
SOLID
8
SOMBRA
62
252
10
210.4018
20
140.9284
30
0
11
203.2628
21
144.7286
31
0
12
203.7971
22
144.8277
32
0
13
203.7971
23
144.8277
33
0
0
SOLID
8
SOMBRA
62
252
10
204.5506
20
132.9045
30
0
11
195.2904
21
138.1642
31
0
12
195.4138
22
138.1796
32
0
13
195.4138
23
138.1796
33
0
0
SOLID
8
SOMBRA
62
252
10
204.4755
20
132.8611
30
0
11
195.0327
21
138.1318
31
0
12
195.2904
22
138.1642
32
0
13
195.2904
23
138.1642
33
0
0
SOLID
8
SOMBRA
62
252
10
213.1773
20
137.8851
30
0
11
214.1797
21
143.8468
31
0
12
213.4799
22
143.3898
32
0
13
213.4799
23
143.3898
33
0
0
SOLID
8
SOMBRA
62
252
10
211.8244
20
140.7166
30
0
11
211.4898
21
140.8622
31
0
12
204.7722
22
144.7406
32
0
13
204.7722
23
144.7406
33
0
0
SOLID
8
SOMBRA
62
252
10
204.3186
20
132.7706
30
0
11
194.6159
21
138.0795
31
0
12
195.0327
22
138.1318
32
0
13
195.0327
23
138.1318
33
0
0
SOLID
8
SOMBRA
62
252
10
204.0649
20
132.6241
30
0
11
193.9957
21
138.0017
31
0
12
194.6159
22
138.0795
32
0
13
194.6159
23
138.0795
33
0
0
SOLID
8
SOMBRA
62
252
10
211.3907
20
140.8815
30
0
11
204.7722
21
144.7406
31
0
12
211.4898
22
140.8622
32
0
13
211.4898
23
140.8622
33
0
0
SOLID
8
SOMBRA
62
252
10
213.1773
20
137.8851
30
0
11
213.4799
21
143.3898
31
0
12
212.8774
22
142.9963
32
0
13
212.8774
23
142.9963
33
0
0
SOLID
8
SOMBRA
62
252
10
203.6874
20
132.4062
30
0
11
193.0950
21
137.8886
31
0
12
193.9957
22
138.0017
32
0
13
193.9957
23
138.0017
33
0
0
SOLID
8
SOMBRA
62
252
10
209.8635
20
140.8097
30
0
11
202.7095
21
144.5362
31
0
12
203.2628
22
144.7286
32
0
13
203.2628
23
144.7286
33
0
0
SOLID
8
SOMBRA
62
252
10
203.1392
20
132.0896
30
0
11
191.7757
21
137.7230
31
0
12
193.0950
22
137.8886
32
0
13
193.0950
23
137.8886
33
0
0
SOLID
8
SOMBRA
62
252
10
211.3907
20
140.8815
30
0
11
211.0206
21
140.9533
31
0
12
204.3031
22
144.8317
32
0
13
204.3031
23
144.8317
33
0
0
SOLID
8
SOMBRA
62
252
10
213.1404
20
138.5139
30
0
11
212.8774
21
142.9963
31
0
12
212.3490
22
142.6513
32
0
13
212.3490
23
142.6513
33
0
0
SOLID
8
SOMBRA
62
252
10
210.9138
20
140.9525
30
0
11
204.3031
21
144.8317
31
0
12
211.0206
22
140.9533
32
0
13
211.0206
23
140.9533
33
0
0
SOLID
8
SOMBRA
62
252
10
209.3081
20
140.5983
30
0
11
202.1464
21
144.2538
31
0
12
202.7095
22
144.5362
32
0
13
202.7095
23
144.5362
33
0
0
SOLID
8
SOMBRA
62
252
10
202.3361
20
131.6260
30
0
11
189.7724
21
137.4716
31
0
12
191.7757
22
137.7230
32
0
13
191.7757
23
137.7230
33
0
0
SOLID
8
SOMBRA
62
252
10
213.0303
20
139.0894
30
0
11
212.3490
21
142.6513
31
0
12
211.8781
22
142.3437
32
0
13
211.8781
23
142.3437
33
0
0
SOLID
8
SOMBRA
62
252
10
210.9138
20
140.9525
30
0
11
210.5146
21
140.9493
31
0
12
203.7971
22
144.8277
32
0
13
203.7971
23
144.8277
33
0
0
SOLID
8
SOMBRA
62
252
10
208.7451
20
140.2978
30
0
11
201.5834
21
143.8861
31
0
12
202.1464
22
144.2538
32
0
13
202.1464
23
144.2538
33
0
0
SOLID
8
SOMBRA
62
252
10
210.4018
20
140.9284
30
0
11
203.7971
21
144.8277
31
0
12
210.5146
22
140.9493
32
0
13
210.5146
23
140.9493
33
0
0
SOLID
8
SOMBRA
62
253
10
204.5797
20
133.4342
30
0
11
197.8331
21
136.7829
31
0
12
197.8700
22
137.4543
32
0
13
197.8700
23
137.4543
33
0
0
SOLID
8
SOMBRA
62
253
10
206.0355
20
171.3207
30
0
11
201.3786
21
151.1475
31
0
12
186.2365
22
159.8897
32
0
13
186.2365
23
159.8897
33
0
0
SOLID
8
SOMBRA
62
252
10
212.8490
20
139.6016
30
0
11
211.8781
21
142.3437
31
0
12
211.4522
22
142.0657
32
0
13
211.4522
23
142.0657
33
0
0
SOLID
8
SOMBRA
62
252
10
201.1168
20
130.9220
30
0
11
186.5126
21
137.0625
31
0
12
189.7724
22
137.4716
32
0
13
189.7724
23
137.4716
33
0
0
SOLID
8
SOMBRA
62
252
10
208.1841
20
139.9135
30
0
11
201.0301
21
143.4395
31
0
12
201.5834
22
143.8861
32
0
13
201.5834
23
143.8861
33
0
0
SOLID
8
SOMBRA
62
252
10
210.4018
20
140.9284
30
0
11
209.9803
21
140.8503
31
0
12
203.2628
22
144.7286
32
0
13
203.2628
23
144.7286
33
0
0
SOLID
8
SOMBRA
62
252
10
204.6743
20
134.1301
30
0
11
197.8700
21
137.4543
31
0
12
197.9801
22
138.1568
32
0
13
197.9801
23
138.1568
33
0
0
SOLID
8
SOMBRA
62
252
10
209.8635
20
140.8097
30
0
11
203.2628
21
144.7286
31
0
12
209.9803
22
140.8503
32
0
13
209.9803
23
140.8503
33
0
0
SOLID
8
SOMBRA
62
252
10
212.5994
20
140.0418
30
0
11
211.4522
21
142.0657
31
0
12
211.0621
22
141.8109
32
0
13
211.0621
23
141.8109
33
0
0
SOLID
8
SOMBRA
62
252
10
207.6348
20
139.4519
30
0
11
200.4958
21
142.9217
31
0
12
201.0301
22
143.4395
32
0
13
201.0301
23
143.4395
33
0
0
SOLID
8
SOMBRA
62
252
10
204.8407
20
134.8477
30
0
11
197.9801
21
138.1568
31
0
12
198.1614
22
138.8784
32
0
13
198.1614
23
138.8784
33
0
0
SOLID
8
SOMBRA
62
252
10
207.1065
20
138.9208
30
0
11
199.9898
21
142.3414
31
0
12
200.4958
22
142.9217
32
0
13
200.4958
23
142.9217
33
0
0
SOLID
8
SOMBRA
62
252
10
209.8635
20
140.8097
30
0
11
209.4270
21
140.6579
31
0
12
202.7095
22
144.5362
32
0
13
202.7095
23
144.5362
33
0
0
SOLID
8
SOMBRA
62
252
10
204.5506
20
132.9045
30
0
11
204.4755
21
132.8611
31
0
12
195.2904
22
138.1642
32
0
13
195.2904
23
138.1642
33
0
0
SOLID
8
SOMBRA
62
252
10
205.0758
20
135.5747
30
0
11
198.1614
21
138.8784
31
0
12
198.4110
22
139.6068
32
0
13
198.4110
23
139.6068
33
0
0
SOLID
8
SOMBRA
62
252
10
199.1325
20
129.7763
30
0
11
186.2365
21
137.0278
31
0
12
186.5126
22
137.0625
32
0
13
186.5126
23
137.0625
33
0
0
SOLID
8
SOMBRA
62
252
10
212.2860
20
140.4025
30
0
11
211.0621
21
141.8109
31
0
12
210.7005
22
141.5747
32
0
13
210.7005
23
141.5747
33
0
0
SOLID
8
SOMBRA
62
252
10
204.4755
20
132.8611
30
0
11
204.3186
21
132.7706
31
0
12
195.0327
22
138.1318
32
0
13
195.0327
23
138.1318
33
0
0
SOLID
8
SOMBRA
62
252
10
206.6082
20
138.3294
30
0
11
199.5206
21
141.7086
31
0
12
199.9898
22
142.3414
32
0
13
199.9898
23
142.3414
33
0
0
SOLID
8
SOMBRA
62
253
10
201.3786
20
151.1475
30
0
11
186.2365
21
141.2592
31
0
12
186.2365
22
159.8897
32
0
13
186.2365
23
159.8897
33
0
0
SOLID
8
SOMBRA
62
252
10
205.3758
20
136.2986
30
0
11
198.4110
21
139.6068
31
0
12
198.7244
22
140.3295
32
0
13
198.7244
23
140.3295
33
0
0
SOLID
8
SOMBRA
62
252
10
209.3081
20
140.5983
30
0
11
202.7095
21
144.5362
31
0
12
209.4270
22
140.6579
32
0
13
209.4270
23
140.6579
33
0
0
SOLID
8
SOMBRA
62
252
10
204.3186
20
132.7706
30
0
11
204.0649
21
132.6241
31
0
12
194.6159
22
138.0795
32
0
13
194.6159
23
138.0795
33
0
0
SOLID
8
SOMBRA
62
252
10
206.1486
20
137.6878
30
0
11
199.0964
21
141.0341
31
0
12
199.5206
22
141.7086
32
0
13
199.5206
23
141.7086
33
0
0
SOLID
8
SOMBRA
62
252
10
205.7354
20
137.0070
30
0
11
198.7244
21
140.3295
31
0
12
199.0964
22
141.0341
32
0
13
199.0964
23
141.0341
33
0
0
SOLID
8
SOMBRA
62
252
10
204.0649
20
132.6241
30
0
11
203.6874
21
132.4062
31
0
12
193.9957
22
138.0017
32
0
13
193.9957
23
138.0017
33
0
0
SOLID
8
SOMBRA
62
252
10
211.9140
20
140.6776
30
0
11
210.7005
21
141.5747
31
0
12
210.3615
22
141.3534
32
0
13
210.3615
23
141.3534
33
0
0
SOLID
8
SOMBRA
62
252
10
209.3081
20
140.5983
30
0
11
208.8640
21
140.3754
31
0
12
202.1464
22
144.2538
32
0
13
202.1464
23
144.2538
33
0
0
SOLID
8
SOMBRA
62
252
10
198.2027
20
131.4873
30
0
11
186.2365
21
138.3960
31
0
12
186.2365
22
137.0278
32
0
13
186.2365
23
137.0278
33
0
0
SOLID
8
SOMBRA
62
252
10
208.7451
20
140.2978
30
0
11
202.1464
21
144.2538
31
0
12
208.8640
22
140.3754
32
0
13
208.8640
23
140.3754
33
0
0
SOLID
8
SOMBRA
62
252
10
203.6874
20
132.4062
30
0
11
203.1392
21
132.0896
31
0
12
193.0950
22
137.8886
32
0
13
193.0950
23
137.8886
33
0
0
SOLID
8
SOMBRA
62
253
10
204.5797
20
133.4342
30
0
11
204.5506
21
132.9045
31
0
12
197.8331
22
136.7829
32
0
13
197.8331
23
136.7829
33
0
0
SOLID
8
SOMBRA
62
252
10
211.4898
20
140.8622
30
0
11
210.3615
21
141.3534
31
0
12
210.0404
22
141.1437
32
0
13
210.0404
23
141.1437
33
0
0
SOLID
8
SOMBRA
62
252
10
208.7451
20
140.2978
30
0
11
208.3010
21
140.0078
31
0
12
201.5834
22
143.8861
32
0
13
201.5834
23
143.8861
33
0
0
SOLID
8
SOMBRA
62
253
10
204.5797
20
133.4342
30
0
11
197.8700
21
137.4543
31
0
12
204.5875
22
133.5759
32
0
13
204.5875
23
133.5759
33
0
0
SOLID
8
SOMBRA
62
252
10
208.1841
20
139.9135
30
0
11
201.5834
21
143.8861
31
0
12
208.3010
22
140.0078
32
0
13
208.3010
23
140.0078
33
0
0
SOLID
8
SOMBRA
62
252
10
204.6743
20
134.1301
30
0
11
204.5875
21
133.5759
31
0
12
197.8700
22
137.4543
32
0
13
197.8700
23
137.4543
33
0
0
SOLID
8
SOMBRA
62
252
10
203.1392
20
132.0896
30
0
11
202.3361
21
131.6260
31
0
12
191.7757
22
137.7230
32
0
13
191.7757
23
137.7230
33
0
0
SOLID
8
SOMBRA
62
252
10
198.2027
20
131.4873
30
0
11
186.2365
21
139.8214
31
0
12
186.2365
22
138.3960
32
0
13
186.2365
23
138.3960
33
0
0
SOLID
8
SOMBRA
62
252
10
211.0206
20
140.9533
30
0
11
210.0404
21
141.1437
31
0
12
209.7333
22
140.9431
32
0
13
209.7333
23
140.9431
33
0
0
SOLID
8
SOMBRA
62
252
10
208.1841
20
139.9135
30
0
11
207.7476
21
139.5612
31
0
12
201.0301
22
143.4395
32
0
13
201.0301
23
143.4395
33
0
0
SOLID
8
SOMBRA
62
252
10
204.6743
20
134.1301
30
0
11
197.9801
21
138.1568
31
0
12
204.6976
22
134.2784
32
0
13
204.6976
23
134.2784
33
0
0
SOLID
8
SOMBRA
62
252
10
207.6348
20
139.4519
30
0
11
201.0301
21
143.4395
31
0
12
207.7476
22
139.5612
32
0
13
207.7476
23
139.5612
33
0
0
SOLID
8
SOMBRA
62
252
10
204.8407
20
134.8477
30
0
11
204.6976
21
134.2784
31
0
12
197.9801
22
138.1568
32
0
13
197.9801
23
138.1568
33
0
0
SOLID
8
SOMBRA
62
252
10
210.5146
20
140.9493
30
0
11
209.7333
21
140.9431
31
0
12
209.4368
22
140.7495
32
0
13
209.4368
23
140.7495
33
0
0
SOLID
8
SOMBRA
62
252
10
207.6348
20
139.4519
30
0
11
207.2133
21
139.0433
31
0
12
200.4958
22
142.9217
32
0
13
200.4958
23
142.9217
33
0
0
SOLID
8
SOMBRA
62
252
10
204.8407
20
134.8477
30
0
11
198.1614
21
138.8784
31
0
12
204.8789
22
135.0001
32
0
13
204.8789
23
135.0001
33
0
0
SOLID
8
SOMBRA
62
252
10
207.1065
20
138.9208
30
0
11
200.4958
21
142.9217
31
0
12
207.2133
22
139.0433
32
0
13
207.2133
23
139.0433
33
0
0
SOLID
8
SOMBRA
62
252
10
205.0758
20
135.5747
30
0
11
204.8789
21
135.0001
31
0
12
198.1614
22
138.8784
32
0
13
198.1614
23
138.8784
33
0
0
SOLID
8
SOMBRA
62
252
10
202.3361
20
131.6260
30
0
11
201.1168
21
130.9220
31
0
12
189.7724
22
137.4716
32
0
13
189.7724
23
137.4716
33
0
0
SOLID
8
SOMBRA
62
252
10
207.1065
20
138.9208
30
0
11
206.7073
21
138.4630
31
0
12
199.9898
22
142.3414
32
0
13
199.9898
23
142.3414
33
0
0
SOLID
8
SOMBRA
62
252
10
209.9803
20
140.8503
30
0
11
209.4368
21
140.7495
31
0
12
209.1479
22
140.5609
32
0
13
209.1479
23
140.5609
33
0
0
SOLID
8
SOMBRA
62
252
10
205.0758
20
135.5747
30
0
11
198.4110
21
139.6068
31
0
12
205.1285
22
135.7285
32
0
13
205.1285
23
135.7285
33
0
0
SOLID
8
SOMBRA
62
252
10
206.6082
20
138.3294
30
0
11
199.9898
21
142.3414
31
0
12
206.7073
22
138.4630
32
0
13
206.7073
23
138.4630
33
0
0
SOLID
8
SOMBRA
62
252
10
205.3758
20
136.2986
30
0
11
205.1285
21
135.7285
31
0
12
198.4110
22
139.6068
32
0
13
198.4110
23
139.6068
33
0
0
SOLID
8
SOMBRA
62
252
10
197.4092
20
133.3708
30
0
11
186.2365
21
141.2592
31
0
12
186.2365
22
139.8214
32
0
13
186.2365
23
139.8214
33
0
0
SOLID
8
SOMBRA
62
252
10
206.6082
20
138.3294
30
0
11
206.2382
21
137.8302
31
0
12
199.5206
22
141.7086
32
0
13
199.5206
23
141.7086
33
0
0
SOLID
8
SOMBRA
62
252
10
205.3758
20
136.2986
30
0
11
198.7244
21
140.3295
31
0
12
205.4419
22
136.4511
32
0
13
205.4419
23
136.4511
33
0
0
SOLID
8
SOMBRA
62
252
10
206.1486
20
137.6878
30
0
11
199.5206
21
141.7086
31
0
12
206.2382
22
137.8302
32
0
13
206.2382
23
137.8302
33
0
0
SOLID
8
SOMBRA
62
252
10
205.7354
20
137.0070
30
0
11
205.4419
21
136.4511
31
0
12
198.7244
22
140.3295
32
0
13
198.7244
23
140.3295
33
0
0
SOLID
8
SOMBRA
62
252
10
206.1486
20
137.6878
30
0
11
205.8140
21
137.1557
31
0
12
199.0964
22
141.0341
32
0
13
199.0964
23
141.0341
33
0
0
SOLID
8
SOMBRA
62
252
10
205.7354
20
137.0070
30
0
11
199.0964
21
141.0341
31
0
12
205.8140
22
137.1557
32
0
13
205.8140
23
137.1557
33
0
0
SOLID
8
SOMBRA
62
252
10
209.4270
20
140.6579
30
0
11
209.1479
21
140.5609
31
0
12
208.8640
22
140.3754
32
0
13
208.8640
23
140.3754
33
0
0
SOLID
8
SOMBRA
62
252
10
204.5875
20
133.5759
30
0
11
204.4755
21
132.8611
31
0
12
204.5506
22
132.9045
32
0
13
204.5506
23
132.9045
33
0
0
SOLID
8
SOMBRA
62
252
10
204.6976
20
134.2784
30
0
11
204.3186
21
132.7706
31
0
12
204.4755
22
132.8611
32
0
13
204.4755
23
132.8611
33
0
0
SOLID
8
SOMBRA
62
252
10
201.1168
20
130.9220
30
0
11
199.1325
21
129.7763
31
0
12
186.5126
22
137.0625
32
0
13
186.5126
23
137.0625
33
0
0
SOLID
8
SOMBRA
62
252
10
218.7635
20
146.8401
30
0
11
218.7635
21
163.9722
31
0
12
202.8860
22
136.4716
32
0
13
202.8860
23
136.4716
33
0
0
SOLID
8
SOMBRA
62
252
10
204.8789
20
135.0001
30
0
11
204.0649
21
132.6241
31
0
12
204.3186
22
132.7706
32
0
13
204.3186
23
132.7706
33
0
0
SOLID
8
SOMBRA
62
252
10
205.1285
20
135.7285
30
0
11
203.6874
21
132.4062
31
0
12
204.0649
22
132.6241
32
0
13
204.0649
23
132.6241
33
0
0
SOLID
8
SOMBRA
62
252
10
199.1325
20
129.7763
30
0
11
198.9645
21
129.6793
31
0
12
186.2365
22
137.0278
32
0
13
186.2365
23
137.0278
33
0
0
SOLID
8
SOMBRA
62
252
10
205.4419
20
136.4511
30
0
11
203.1392
21
132.0896
31
0
12
203.6874
22
132.4062
32
0
13
203.6874
23
132.4062
33
0
0
SOLID
8
SOMBRA
62
252
10
198.2027
20
131.4873
30
0
11
186.2365
21
137.0278
31
0
12
198.9645
22
129.6793
32
0
13
198.9645
23
129.6793
33
0
0
SOLID
8
SOMBRA
62
252
10
205.8140
20
137.1557
30
0
11
202.3361
21
131.6260
31
0
12
203.1392
22
132.0896
32
0
13
203.1392
23
132.0896
33
0
0
SOLID
8
SOMBRA
62
252
10
206.2382
20
137.8302
30
0
11
201.1168
21
130.9220
31
0
12
202.3361
22
131.6260
32
0
13
202.3361
23
131.6260
33
0
0
SOLID
8
SOMBRA
62
252
10
198.2027
20
131.4873
30
0
11
197.4092
21
133.3708
31
0
12
186.2365
22
139.8214
32
0
13
186.2365
23
139.8214
33
0
0
SOLID
8
SOMBRA
62
252
10
197.4092
20
133.3708
30
0
11
196.6087
21
135.2708
31
0
12
186.2365
22
141.2592
32
0
13
186.2365
23
141.2592
33
0
0
SOLID
8
SOMBRA
62
252
10
206.7073
20
138.4630
30
0
11
199.1325
21
129.7763
31
0
12
201.1168
22
130.9220
32
0
13
201.1168
23
130.9220
33
0
0
SOLID
8
SOMBRA
62
252
10
208.3010
20
140.0078
30
0
11
202.8860
21
136.4716
31
0
12
201.9845
22
134.9102
32
0
13
201.9845
23
134.9102
33
0
0
SOLID
8
SOMBRA
62
252
10
207.7476
20
139.5612
30
0
11
201.9845
21
134.9102
31
0
12
200.7583
22
132.7863
32
0
13
200.7583
23
132.7863
33
0
0
SOLID
8
SOMBRA
62
252
10
199.1325
20
129.7763
30
0
11
207.2133
21
139.0433
31
0
12
200.7583
22
132.7863
32
0
13
200.7583
23
132.7863
33
0
0
SOLID
8
SOMBRA
62
252
10
196.6087
20
135.2708
30
0
11
186.2365
21
159.8897
31
0
12
186.2365
22
141.2592
32
0
13
186.2365
23
141.2592
33
0
0
SOLID
8
SOMBRA
62
252
10
199.1325
20
129.7763
30
0
11
200.7583
21
132.7863
31
0
12
198.9645
22
129.6793
32
0
13
198.9645
23
129.6793
33
0
0
SOLID
8
SOMBRA
62
252
10
200.7583
20
132.7863
30
0
11
198.9645
21
131.0476
31
0
12
198.9645
22
129.6793
32
0
13
198.9645
23
129.6793
33
0
0
SOLID
8
SOMBRA
62
252
10
198.9645
20
131.0476
30
0
11
198.2027
21
131.4873
31
0
12
198.9645
22
129.6793
32
0
13
198.9645
23
129.6793
33
0
0
SOLID
8
SOMBRA
62
252
10
200.7583
20
132.7863
30
0
11
201.9845
21
134.9102
31
0
12
198.9645
22
132.4729
32
0
13
198.9645
23
132.4729
33
0
0
SOLID
8
SOMBRA
62
252
10
198.9645
20
131.0476
30
0
11
197.4092
21
133.3708
31
0
12
198.2027
22
131.4873
32
0
13
198.2027
23
131.4873
33
0
0
SOLID
8
SOMBRA
62
252
10
200.7583
20
132.7863
30
0
11
198.9645
21
132.4729
31
0
12
198.9645
22
131.0476
32
0
13
198.9645
23
131.0476
33
0
0
SOLID
8
SOMBRA
62
252
10
201.9845
20
134.9102
30
0
11
202.8860
21
136.4716
31
0
12
198.9645
22
133.9107
32
0
13
198.9645
23
133.9107
33
0
0
SOLID
8
SOMBRA
62
252
10
198.9645
20
131.0476
30
0
11
198.9645
21
132.4729
31
0
12
197.4092
22
133.3708
32
0
13
197.4092
23
133.3708
33
0
0
SOLID
8
SOMBRA
62
252
10
198.9645
20
132.4729
30
0
11
196.6087
21
135.2708
31
0
12
197.4092
22
133.3708
32
0
13
197.4092
23
133.3708
33
0
0
SOLID
8
SOMBRA
62
252
10
201.9845
20
134.9102
30
0
11
198.9645
21
133.9107
31
0
12
198.9645
22
132.4729
32
0
13
198.9645
23
132.4729
33
0
0
SOLID
8
SOMBRA
62
254
10
218.7635
20
163.9722
30
0
11
206.0355
21
171.3207
31
0
12
198.9645
22
152.5412
32
0
13
198.9645
23
152.5412
33
0
0
SOLID
8
SOMBRA
62
252
10
198.9645
20
132.4729
30
0
11
198.9645
21
133.9107
31
0
12
196.6087
22
135.2708
32
0
13
196.6087
23
135.2708
33
0
0
SOLID
8
SOMBRA
62
252
10
198.9645
20
133.9107
30
0
11
186.2365
21
159.8897
31
0
12
196.6087
22
135.2708
32
0
13
196.6087
23
135.2708
33
0
0
SOLID
8
SOMBRA
62
254
10
206.0355
20
171.3207
30
0
11
186.2365
21
159.8897
31
0
12
198.9645
22
152.5412
32
0
13
198.9645
23
152.5412
33
0
0
SOLID
8
SOMBRA
62
252
10
202.8860
20
136.4716
30
0
11
218.7635
21
163.9722
31
0
12
198.9645
22
152.5412
32
0
13
198.9645
23
152.5412
33
0
0
SOLID
8
SOMBRA
62
252
10
202.8860
20
136.4716
30
0
11
198.9645
21
152.5412
31
0
12
198.9645
22
133.9107
32
0
13
198.9645
23
133.9107
33
0
0
SOLID
8
SOMBRA
62
252
10
198.9645
20
133.9107
30
0
11
198.9645
21
152.5412
31
0
12
186.2365
22
159.8897
32
0
13
186.2365
23
159.8897
33
0
0
LINE
8
VISIBLE
10
198.9645
20
133.9107
30
0
11
198.9645
21
152.5412
31
0
0
LINE
8
VISIBLE
10
198.9645
20
152.5412
30
0
11
186.2365
21
159.8897
31
0
0
LINE
8
VISIBLE
10
186.2365
20
159.8897
30
0
11
186.2365
21
141.2592
31
0
0
LINE
8
VISIBLE
10
198.9645
20
132.4729
30
0
11
198.9645
21
133.9107
31
0
0
LINE
8
VISIBLE
10
186.2365
20
141.2592
30
0
11
186.2365
21
139.8214
31
0
0
LINE
8
VISIBLE
10
198.9645
20
131.0476
30
0
11
198.9645
21
132.4729
31
0
0
LINE
8
VISIBLE
10
186.2365
20
139.8214
30
0
11
186.2365
21
138.3960
31
0
0
LINE
8
VISIBLE
10
198.9645
20
129.6793
30
0
11
198.9645
21
131.0476
31
0
0
LINE
8
VISIBLE
10
186.2365
20
138.3960
30
0
11
186.2365
21
137.0278
31
0
0
LINE
8
VISIBLE
10
186.2365
20
137.0278
30
0
11
198.9645
21
129.6793
31
0
0
LINE
8
VISIBLE
10
218.7635
20
163.9722
30
0
11
218.7635
21
146.8401
31
0
0
LINE
8
VISIBLE
10
206.0355
20
154.1886
30
0
11
206.0355
21
171.3207
31
0
0
LINE
8
VISIBLE
10
206.0355
20
171.3207
30
0
11
218.7635
21
163.9722
31
0
0
LINE
8
VISIBLE
10
218.7635
20
141.2060
30
0
11
218.7635
21
141.1103
31
0
0
LINE
8
VISIBLE
10
218.7635
20
141.1103
30
0
11
206.0355
21
148.4588
31
0
0
LINE
8
VISIBLE
10
206.0355
20
148.4588
30
0
11
206.0355
21
148.5544
31
0
0
LINE
8
VISIBLE
10
218.7635
20
142.7709
30
0
11
218.7635
21
141.2060
31
0
0
LINE
8
VISIBLE
10
206.0355
20
148.5544
30
0
11
206.0355
21
150.1193
31
0
0
LINE
8
VISIBLE
10
218.7635
20
144.5246
30
0
11
218.7635
21
142.7709
31
0
0
LINE
8
VISIBLE
10
206.0355
20
150.1193
30
0
11
206.0355
21
151.8730
31
0
0
LINE
8
VISIBLE
10
218.7635
20
146.6071
30
0
11
218.7635
21
144.5246
31
0
0
LINE
8
VISIBLE
10
206.0355
20
151.8730
30
0
11
206.0355
21
153.9555
31
0
0
LINE
8
VISIBLE
10
218.7635
20
146.8401
30
0
11
218.7635
21
146.6071
31
0
0
LINE
8
VISIBLE
10
206.0355
20
153.9555
30
0
11
206.0355
21
154.1886
31
0
0
LINE
8
VISIBLE
10
218.7635
20
163.9722
30
0
11
198.9645
21
152.5412
31
0
0
LINE
8
VISIBLE
10
198.9645
20
129.6793
30
0
11
199.1325
21
129.7763
31
0
0
LINE
8
VISIBLE
10
199.1325
20
129.7763
30
0
11
201.1168
21
130.9220
31
0
0
LINE
8
VISIBLE
10
201.1168
20
130.9220
30
0
11
202.3361
21
131.6260
31
0
0
LINE
8
VISIBLE
10
202.3361
20
131.6260
30
0
11
203.1392
21
132.0896
31
0
0
LINE
8
VISIBLE
10
203.1392
20
132.0896
30
0
11
203.6874
21
132.4062
31
0
0
LINE
8
VISIBLE
10
203.6874
20
132.4062
30
0
11
204.0649
21
132.6241
31
0
0
LINE
8
VISIBLE
10
204.0649
20
132.6241
30
0
11
204.3186
21
132.7706
31
0
0
LINE
8
VISIBLE
10
204.3186
20
132.7706
30
0
11
204.4755
21
132.8611
31
0
0
LINE
8
VISIBLE
10
204.4755
20
132.8611
30
0
11
204.6976
21
134.2784
31
0
0
LINE
8
VISIBLE
10
204.4755
20
132.8611
30
0
11
204.5506
21
132.9045
31
0
0
LINE
8
VISIBLE
10
204.5506
20
132.9045
30
0
11
204.5875
21
133.5759
31
0
0
LINE
8
VISIBLE
10
218.5954
20
141.0133
30
0
11
218.7635
21
141.1103
31
0
0
LINE
8
VISIBLE
10
216.6112
20
139.8677
30
0
11
218.5954
21
141.0133
31
0
0
LINE
8
VISIBLE
10
215.3918
20
139.1637
30
0
11
216.6112
21
139.8677
31
0
0
LINE
8
VISIBLE
10
214.5887
20
138.7000
30
0
11
215.3918
21
139.1637
31
0
0
LINE
8
VISIBLE
10
214.0405
20
138.3835
30
0
11
214.5887
21
138.7000
31
0
0
LINE
8
VISIBLE
10
213.6630
20
138.1655
30
0
11
214.0405
21
138.3835
31
0
0
LINE
8
VISIBLE
10
213.4093
20
138.0191
30
0
11
213.6630
21
138.1655
31
0
0
LINE
8
VISIBLE
10
213.2524
20
137.9285
30
0
11
213.4093
21
138.0191
31
0
0
LINE
8
VISIBLE
10
213.1773
20
137.8851
30
0
11
213.2524
21
137.9285
31
0
0
LINE
8
VISIBLE
10
209.7333
20
140.9431
30
0
11
211.0206
21
140.9533
31
0
0
LINE
8
VISIBLE
10
209.4368
20
140.7495
30
0
11
210.5146
21
140.9493
31
0
0
LINE
8
VISIBLE
10
209.1479
20
140.5609
30
0
11
209.9803
21
140.8503
31
0
0
LINE
8
VISIBLE
10
208.8640
20
140.3754
30
0
11
209.4270
21
140.6579
31
0
0
LINE
8
VISIBLE
10
186.2365
20
159.8897
30
0
11
206.0355
21
171.3207
31
0
0
LINE
8
VISIBLE
10
186.4046
20
137.1248
30
0
11
186.2365
21
137.0278
31
0
0
LINE
8
VISIBLE
10
188.3888
20
138.2704
30
0
11
186.4046
21
137.1248
31
0
0
LINE
8
VISIBLE
10
189.6082
20
138.9744
30
0
11
188.3888
21
138.2704
31
0
0
LINE
8
VISIBLE
10
190.4113
20
139.4381
30
0
11
189.6082
21
138.9744
31
0
0
LINE
8
VISIBLE
10
190.9595
20
139.7546
30
0
11
190.4113
21
139.4381
31
0
0
LINE
8
VISIBLE
10
191.3370
20
139.9726
30
0
11
190.9595
21
139.7546
31
0
0
LINE
8
VISIBLE
10
191.5907
20
140.1190
30
0
11
191.3370
21
139.9726
31
0
0
LINE
8
VISIBLE
10
191.7476
20
140.2096
30
0
11
191.5907
21
140.1190
31
0
0
LINE
8
VISIBLE
10
191.8227
20
140.2530
30
0
11
191.7476
21
140.2096
31
0
0
LINE
8
VISIBLE
10
206.0355
20
148.4588
30
0
11
205.8675
21
148.3617
31
0
0
LINE
8
VISIBLE
10
205.8675
20
148.3617
30
0
11
203.8832
21
147.2161
31
0
0
LINE
8
VISIBLE
10
203.8832
20
147.2161
30
0
11
202.6639
21
146.5121
31
0
0
LINE
8
VISIBLE
10
202.6639
20
146.5121
30
0
11
201.8608
21
146.0485
31
0
0
LINE
8
VISIBLE
10
201.8608
20
146.0485
30
0
11
201.3126
21
145.7319
31
0
0
LINE
8
VISIBLE
10
201.3126
20
145.7319
30
0
11
200.9351
21
145.5140
31
0
0
LINE
8
VISIBLE
10
200.9351
20
145.5140
30
0
11
200.6814
21
145.3675
31
0
0
LINE
8
VISIBLE
10
200.6814
20
145.3675
30
0
11
200.5245
21
145.2769
31
0
0
LINE
8
VISIBLE
10
200.5245
20
145.2769
30
0
11
200.4494
21
145.2336
31
0
0
LINE
8
VISIBLE
10
200.4494
20
145.2336
30
0
11
191.8227
21
140.2530
31
0
0
LINE
8
VISIBLE
10
195.4138
20
138.1796
30
0
11
204.5506
21
132.9045
31
0
0
LINE
8
VISIBLE
10
213.1773
20
137.8851
30
0
11
209.5862
21
139.9584
31
0
0
LINE
8
VISIBLE
10
201.5965
20
138.9556
30
0
11
197.8331
21
136.7829
31
0
0
LINE
8
VISIBLE
10
206.4598
20
141.7635
30
0
11
201.5965
21
138.9556
31
0
0
LINE
8
VISIBLE
10
208.8640
20
140.3754
30
0
11
208.7451
21
140.2978
31
0
0
LINE
8
VISIBLE
10
208.7451
20
140.2978
30
0
11
208.3010
21
140.0078
31
0
0
LINE
8
VISIBLE
10
201.5834
20
143.8861
30
0
11
202.1464
21
144.2538
31
0
0
LINE
8
VISIBLE
10
208.3010
20
140.0078
30
0
11
208.1841
21
139.9135
31
0
0
LINE
8
VISIBLE
10
208.1841
20
139.9135
30
0
11
207.7476
21
139.5612
31
0
0
LINE
8
VISIBLE
10
201.0301
20
143.4395
30
0
11
201.5834
21
143.8861
31
0
0
LINE
8
VISIBLE
10
207.7476
20
139.5612
30
0
11
207.6348
21
139.4519
31
0
0
LINE
8
VISIBLE
10
207.6348
20
139.4519
30
0
11
207.2133
21
139.0433
31
0
0
LINE
8
VISIBLE
10
200.4958
20
142.9217
30
0
11
201.0301
21
143.4395
31
0
0
LINE
8
VISIBLE
10
207.2133
20
139.0433
30
0
11
207.1065
21
138.9208
31
0
0
LINE
8
VISIBLE
10
207.1065
20
138.9208
30
0
11
206.7073
21
138.4630
31
0
0
LINE
8
VISIBLE
10
199.9898
20
142.3414
30
0
11
200.4958
21
142.9217
31
0
0
LINE
8
VISIBLE
10
206.7073
20
138.4630
30
0
11
206.6082
21
138.3294
31
0
0
LINE
8
VISIBLE
10
206.6082
20
138.3294
30
0
11
206.2382
21
137.8302
31
0
0
LINE
8
VISIBLE
10
199.5206
20
141.7086
30
0
11
199.9898
21
142.3414
31
0
0
LINE
8
VISIBLE
10
206.2382
20
137.8302
30
0
11
206.1486
21
137.6878
31
0
0
LINE
8
VISIBLE
10
206.1486
20
137.6878
30
0
11
205.8140
21
137.1557
31
0
0
LINE
8
VISIBLE
10
199.0964
20
141.0341
30
0
11
199.5206
21
141.7086
31
0
0
LINE
8
VISIBLE
10
205.8140
20
137.1557
30
0
11
205.7354
21
137.0070
31
0
0
LINE
8
VISIBLE
10
205.7354
20
137.0070
30
0
11
205.4419
21
136.4511
31
0
0
LINE
8
VISIBLE
10
198.7244
20
140.3295
30
0
11
199.0964
21
141.0341
31
0
0
LINE
8
VISIBLE
10
205.4419
20
136.4511
30
0
11
205.3758
21
136.2986
31
0
0
LINE
8
VISIBLE
10
205.3758
20
136.2986
30
0
11
205.1285
21
135.7285
31
0
0
LINE
8
VISIBLE
10
198.4110
20
139.6068
30
0
11
198.7244
21
140.3295
31
0
0
LINE
8
VISIBLE
10
205.1285
20
135.7285
30
0
11
205.0758
21
135.5747
31
0
0
LINE
8
VISIBLE
10
205.0758
20
135.5747
30
0
11
204.8789
21
135.0001
31
0
0
LINE
8
VISIBLE
10
198.1614
20
138.8784
30
0
11
198.4110
21
139.6068
31
0
0
LINE
8
VISIBLE
10
204.8789
20
135.0001
30
0
11
204.8407
21
134.8477
31
0
0
LINE
8
VISIBLE
10
204.8407
20
134.8477
30
0
11
204.6976
21
134.2784
31
0
0
LINE
8
VISIBLE
10
197.9801
20
138.1568
30
0
11
198.1614
21
138.8784
31
0
0
LINE
8
VISIBLE
10
204.6976
20
134.2784
30
0
11
204.6743
21
134.1301
31
0
0
LINE
8
VISIBLE
10
204.6743
20
134.1301
30
0
11
204.5875
21
133.5759
31
0
0
LINE
8
VISIBLE
10
197.8700
20
137.4543
30
0
11
197.9801
21
138.1568
31
0
0
LINE
8
VISIBLE
10
204.5875
20
133.5759
30
0
11
204.5797
21
133.4342
31
0
0
LINE
8
VISIBLE
10
204.5797
20
133.4342
30
0
11
204.5506
21
132.9045
31
0
0
LINE
8
VISIBLE
10
204.5506
20
132.9045
30
0
11
197.8331
21
136.7829
31
0
0
LINE
8
VISIBLE
10
197.8331
20
136.7829
30
0
11
197.8700
21
137.4543
31
0
0
LINE
8
VISIBLE
10
206.4598
20
141.7635
30
0
11
213.1773
21
137.8851
31
0
0
LINE
8
VISIBLE
10
213.1773
20
137.8851
30
0
11
213.1695
21
138.0179
31
0
0
LINE
8
VISIBLE
10
213.1695
20
138.0179
30
0
11
213.1404
21
138.5139
31
0
0
LINE
8
VISIBLE
10
206.4229
20
142.3923
30
0
11
206.4598
21
141.7635
31
0
0
LINE
8
VISIBLE
10
213.1404
20
138.5139
30
0
11
213.1172
21
138.6354
31
0
0
LINE
8
VISIBLE
10
213.1172
20
138.6354
30
0
11
213.0303
21
139.0894
31
0
0
LINE
8
VISIBLE
10
206.3128
20
142.9677
30
0
11
206.4229
21
142.3923
31
0
0
LINE
8
VISIBLE
10
213.0303
20
139.0894
30
0
11
212.9920
21
139.1975
31
0
0
LINE
8
VISIBLE
10
212.9920
20
139.1975
30
0
11
212.8490
21
139.6016
31
0
0
LINE
8
VISIBLE
10
206.1315
20
143.4799
30
0
11
206.3128
21
142.9677
31
0
0
LINE
8
VISIBLE
10
212.8490
20
139.6016
30
0
11
212.7963
21
139.6945
31
0
0
LINE
8
VISIBLE
10
212.7963
20
139.6945
30
0
11
212.5994
21
140.0418
31
0
0
LINE
8
VISIBLE
10
205.8819
20
143.9202
30
0
11
206.1315
21
143.4799
31
0
0
LINE
8
VISIBLE
10
212.5994
20
140.0418
30
0
11
212.5333
21
140.1180
31
0
0
LINE
8
VISIBLE
10
212.5333
20
140.1180
30
0
11
212.2860
21
140.4025
31
0
0
LINE
8
VISIBLE
10
205.5685
20
144.2809
30
0
11
205.8819
21
143.9202
31
0
0
LINE
8
VISIBLE
10
212.2860
20
140.4025
30
0
11
212.2074
21
140.4606
31
0
0
LINE
8
VISIBLE
10
212.2074
20
140.4606
30
0
11
211.9140
21
140.6776
31
0
0
LINE
8
VISIBLE
10
205.1964
20
144.5559
30
0
11
205.5685
21
144.2809
31
0
0
LINE
8
VISIBLE
10
211.9140
20
140.6776
30
0
11
211.8244
21
140.7166
31
0
0
LINE
8
VISIBLE
10
211.8244
20
140.7166
30
0
11
211.4898
21
140.8622
31
0
0
LINE
8
VISIBLE
10
204.7722
20
144.7406
30
0
11
205.1964
21
144.5559
31
0
0
LINE
8
VISIBLE
10
211.4898
20
140.8622
30
0
11
211.3907
21
140.8815
31
0
0
LINE
8
VISIBLE
10
211.3907
20
140.8815
30
0
11
211.0206
21
140.9533
31
0
0
LINE
8
VISIBLE
10
204.3031
20
144.8317
30
0
11
204.7722
21
144.7406
31
0
0
LINE
8
VISIBLE
10
211.0206
20
140.9533
30
0
11
210.9138
21
140.9525
31
0
0
LINE
8
VISIBLE
10
210.9138
20
140.9525
30
0
11
210.5146
21
140.9493
31
0
0
LINE
8
VISIBLE
10
203.7971
20
144.8277
30
0
11
204.3031
21
144.8317
31
0
0
LINE
8
VISIBLE
10
210.5146
20
140.9493
30
0
11
210.4018
21
140.9284
31
0
0
LINE
8
VISIBLE
10
210.4018
20
140.9284
30
0
11
209.9803
21
140.8503
31
0
0
LINE
8
VISIBLE
10
203.2628
20
144.7286
30
0
11
203.7971
21
144.8277
31
0
0
LINE
8
VISIBLE
10
209.9803
20
140.8503
30
0
11
209.8635
21
140.8097
31
0
0
LINE
8
VISIBLE
10
209.8635
20
140.8097
30
0
11
209.4270
21
140.6579
31
0
0
LINE
8
VISIBLE
10
202.7095
20
144.5362
30
0
11
203.2628
21
144.7286
31
0
0
LINE
8
VISIBLE
10
209.4270
20
140.6579
30
0
11
209.3081
21
140.5983
31
0
0
LINE
8
VISIBLE
10
209.3081
20
140.5983
30
0
11
208.8640
21
140.3754
31
0
0
LINE
8
VISIBLE
10
202.1464
20
144.2538
30
0
11
202.7095
21
144.5362
31
0
0
LINE
8
VISIBLE
10
197.8331
20
136.7829
30
0
11
202.1464
21
139.2732
31
0
0
LINE
8
VISIBLE
10
202.1464
20
139.2732
30
0
11
206.4598
21
141.7635
31
0
0
TEXT
8
TEXTO
10
202.5000
20
175.3207
30
0
40
3.5000
1
ISOMÉTRICA
72
1
73
2
11
202.5000
21
175.3207
31
0
0
LINE
8
FINA
10
0.0000
20
0.0000
30
0
11
297.0000
21
0.0000
31
0
0
LINE
8
FINA
10
297.0000
20
0.0000
30
0
11
297.0000
21
210.0000
31
0
0
LINE
8
FINA
10
297.0000
20
210.0000
30
0
11
0.0000
21
210.0000
31
0
0
LINE
8
FINA
10
0.0000
20
210.0000
30
0
11
0.0000
21
0.0000
31
0
0
LINE
8
NORMA
10
20.0000
20
10.0000
30
0
11
287.0000
21
10.0000
31
0
0
LINE
8
NORMA
10
287.0000
20
10.0000
30
0
11
287.0000
21
200.0000
31
0
0
LINE
8
NORMA
10
287.0000
20
200.0000
30
0
11
20.0000
21
200.0000
31
0
0
LINE
8
NORMA
10
20.0000
20
200.0000
30
0
11
20.0000
21
10.0000
31
0
0
LINE
8
NORMA
10
0.0000
20
105.0000
30
0
11
25.0000
21
105.0000
31
0
0
LINE
8
NORMA
10
297.0000
20
105.0000
30
0
11
282.0000
21
105.0000
31
0
0
LINE
8
NORMA
10
148.5000
20
0.0000
30
0
11
148.5000
21
15.0000
31
0
0
LINE
8
NORMA
10
148.5000
20
210.0000
30
0
11
148.5000
21
195.0000
31
0
0
LINE
8
FINA
10
49.5000
20
0.0000
30
0
11
49.5000
21
10.0000
31
0
0
LINE
8
FINA
10
49.5000
20
200.0000
30
0
11
49.5000
21
210.0000
31
0
0
LINE
8
FINA
10
99.0000
20
0.0000
30
0
11
99.0000
21
10.0000
31
0
0
LINE
8
FINA
10
99.0000
20
200.0000
30
0
11
99.0000
21
210.0000
31
0
0
LINE
8
FINA
10
148.5000
20
0.0000
30
0
11
148.5000
21
10.0000
31
0
0
LINE
8
FINA
10
148.5000
20
200.0000
30
0
11
148.5000
21
210.0000
31
0
0
LINE
8
FINA
10
198.0000
20
0.0000
30
0
11
198.0000
21
10.0000
31
0
0
LINE
8
FINA
10
198.0000
20
200.0000
30
0
11
198.0000
21
210.0000
31
0
0
LINE
8
FINA
10
247.5000
20
0.0000
30
0
11
247.5000
21
10.0000
31
0
0
LINE
8
FINA
10
247.5000
20
200.0000
30
0
11
247.5000
21
210.0000
31
0
0
LINE
8
FINA
10
0.0000
20
52.5000
30
0
11
10.0000
21
52.5000
31
0
0
LINE
8
FINA
10
287.0000
20
52.5000
30
0
11
297.0000
21
52.5000
31
0
0
LINE
8
FINA
10
0.0000
20
105.0000
30
0
11
10.0000
21
105.0000
31
0
0
LINE
8
FINA
10
287.0000
20
105.0000
30
0
11
297.0000
21
105.0000
31
0
0
LINE
8
FINA
10
0.0000
20
157.5000
30
0
11
10.0000
21
157.5000
31
0
0
LINE
8
FINA
10
287.0000
20
157.5000
30
0
11
297.0000
21
157.5000
31
0
0
TEXT
8
TEXTO
10
24.7500
20
5.0000
30
0
40
2.5000
1
1
72
1
73
2
11
24.7500
21
5.0000
31
0
0
TEXT
8
TEXTO
10
24.7500
20
205.0000
30
0
40
2.5000
1
1
72
1
73
2
11
24.7500
21
205.0000
31
0
0
TEXT
8
TEXTO
10
74.2500
20
5.0000
30
0
40
2.5000
1
2
72
1
73
2
11
74.2500
21
5.0000
31
0
0
TEXT
8
TEXTO
10
74.2500
20
205.0000
30
0
40
2.5000
1
2
72
1
73
2
11
74.2500
21
205.0000
31
0
0
TEXT
8
TEXTO
10
123.7500
20
5.0000
30
0
40
2.5000
1
3
72
1
73
2
11
123.7500
21
5.0000
31
0
0
TEXT
8
TEXTO
10
123.7500
20
205.0000
30
0
40
2.5000
1
3
72
1
73
2
11
123.7500
21
205.0000
31
0
0
TEXT
8
TEXTO
10
173.2500
20
5.0000
30
0
40
2.5000
1
4
72
1
73
2
11
173.2500
21
5.0000
31
0
0
TEXT
8
TEXTO
10
173.2500
20
205.0000
30
0
40
2.5000
1
4
72
1
73
2
11
173.2500
21
205.0000
31
0
0
TEXT
8
TEXTO
10
222.7500
20
5.0000
30
0
40
2.5000
1
5
72
1
73
2
11
222.7500
21
5.0000
31
0
0
TEXT
8
TEXTO
10
222.7500
20
205.0000
30
0
40
2.5000
1
5
72
1
73
2
11
222.7500
21
205.0000
31
0
0
TEXT
8
TEXTO
10
272.2500
20
5.0000
30
0
40
2.5000
1
6
72
1
73
2
11
272.2500
21
5.0000
31
0
0
TEXT
8
TEXTO
10
272.2500
20
205.0000
30
0
40
2.5000
1
6
72
1
73
2
11
272.2500
21
205.0000
31
0
0
TEXT
8
TEXTO
10
5.0000
20
183.7500
30
0
40
2.5000
1
A
72
1
73
2
11
5.0000
21
183.7500
31
0
0
TEXT
8
TEXTO
10
292.0000
20
183.7500
30
0
40
2.5000
1
A
72
1
73
2
11
292.0000
21
183.7500
31
0
0
TEXT
8
TEXTO
10
5.0000
20
131.2500
30
0
40
2.5000
1
B
72
1
73
2
11
5.0000
21
131.2500
31
0
0
TEXT
8
TEXTO
10
292.0000
20
131.2500
30
0
40
2.5000
1
B
72
1
73
2
11
292.0000
21
131.2500
31
0
0
TEXT
8
TEXTO
10
5.0000
20
78.7500
30
0
40
2.5000
1
C
72
1
73
2
11
5.0000
21
78.7500
31
0
0
TEXT
8
TEXTO
10
292.0000
20
78.7500
30
0
40
2.5000
1
C
72
1
73
2
11
292.0000
21
78.7500
31
0
0
TEXT
8
TEXTO
10
5.0000
20
26.2500
30
0
40
2.5000
1
D
72
1
73
2
11
5.0000
21
26.2500
31
0
0
TEXT
8
TEXTO
10
292.0000
20
26.2500
30
0
40
2.5000
1
D
72
1
73
2
11
292.0000
21
26.2500
31
0
0
LINE
8
NORMA
10
107.0000
20
10.0000
30
0
11
287.0000
21
10.0000
31
0
0
LINE
8
NORMA
10
287.0000
20
10.0000
30
0
11
287.0000
21
52.0000
31
0
0
LINE
8
NORMA
10
287.0000
20
52.0000
30
0
11
107.0000
21
52.0000
31
0
0
LINE
8
NORMA
10
107.0000
20
52.0000
30
0
11
107.0000
21
10.0000
31
0
0
LINE
8
NORMA
10
147.0000
20
10.0000
30
0
11
147.0000
21
52.0000
31
0
0
LINE
8
NORMA
10
241.0000
20
10.0000
30
0
11
241.0000
21
52.0000
31
0
0
LINE
8
FINA
10
107.0000
20
29.0000
30
0
11
147.0000
21
29.0000
31
0
0
TEXT
8
TEXTO
10
127.0000
20
43.8000
30
0
40
6.0000
1
foto3d
72
1
73
2
11
127.0000
21
43.8000
31
0
0
LINE
8
FINA
10
113.5000
20
38.6000
30
0
11
140.5000
21
38.6000
31
0
0
TEXT
8
TEXTO
10
127.0000
20
35.8000
30
0
40
1.3000
1
CAD · DISEŃO CAPA USER
72
1
73
2
11
127.0000
21
35.8000
31
0
0
TEXT
8
TEXTO
10
127.0000
20
32.6000
30
0
40
1.3000
1
ISO 5457 · 7200 · 129 · 5456-2
72
1
73
2
11
127.0000
21
32.6000
31
0
0
TEXT
8
TEXTO
10
127.0000
20
26.6000
30
0
40
1.4000
1
PROYECCIÓN — PRIMER DIEDRO
72
1
73
2
11
127.0000
21
26.6000
31
0
0
CIRCLE
8
TEXTO
10
122.4000
20
17.5000
30
0
40
2.9900
0
CIRCLE
8
TEXTO
10
122.4000
20
17.5000
30
0
40
1.6100
0
LINE
8
TEXTO
10
127.4600
20
14.5100
30
0
11
134.5900
21
15.8900
31
0
0
LINE
8
TEXTO
10
134.5900
20
15.8900
30
0
11
134.5900
21
19.1100
31
0
0
LINE
8
TEXTO
10
134.5900
20
19.1100
30
0
11
127.4600
21
20.4900
31
0
0
LINE
8
TEXTO
10
127.4600
20
20.4900
30
0
11
127.4600
21
14.5100
31
0
0
LINE
8
FINA
10
118.0300
20
17.5000
30
0
11
135.9700
21
17.5000
31
0
0
LINE
8
FINA
10
147.0000
20
39.0000
30
0
11
241.0000
21
39.0000
31
0
0
LINE
8
FINA
10
147.0000
20
29.0000
30
0
11
241.0000
21
29.0000
31
0
0
LINE
8
FINA
10
147.0000
20
19.0000
30
0
11
241.0000
21
19.0000
31
0
0
LINE
8
FINA
10
194.0000
20
29.0000
30
0
11
194.0000
21
39.0000
31
0
0
LINE
8
FINA
10
203.0000
20
19.0000
30
0
11
203.0000
21
29.0000
31
0
0
TEXT
8
TEXTO
10
148.3000
20
49.6000
30
0
40
1.4000
1
DESIGNACIÓN
0
TEXT
8
TEXTO
10
148.6000
20
44.1000
30
0
40
4.2000
1
Nudillo de bisagra placa
72
0
73
2
11
148.6000
21
44.1000
31
0
0
TEXT
8
TEXTO
10
148.3000
20
36.6000
30
0
40
1.4000
1
PROYECTO
0
TEXT
8
TEXTO
10
148.6000
20
32.6000
30
0
40
2.8000
1
TRANSFERENCIA 90°
72
0
73
2
11
148.6000
21
32.6000
31
0
0
TEXT
8
TEXTO
10
195.3000
20
36.6000
30
0
40
1.4000
1
FUENTE
0
TEXT
8
TEXTO
10
195.6000
20
32.6000
30
0
40
2.4000
1
diseńo paramétrico — capa user
72
0
73
2
11
195.6000
21
32.6000
31
0
0
TEXT
8
TEXTO
10
148.3000
20
26.6000
30
0
40
1.4000
1
VERIFICACIÓN DE ESCALA
0
TEXT
8
TEXTO
10
148.6000
20
22.6000
30
0
40
2.4000
1
CAD EN MM (CAPA USER)
72
0
73
2
11
148.6000
21
22.6000
31
0
0
TEXT
8
TEXTO
10
204.3000
20
26.6000
30
0
40
1.4000
1
PIEZAS
0
TEXT
8
TEXTO
10
204.6000
20
22.6000
30
0
40
2.6000
1
2
72
0
73
2
11
204.6000
21
22.6000
31
0
0
TEXT
8
TEXTO
10
148.3000
20
16.6000
30
0
40
1.4000
1
NOTA
0
TEXT
8
TEXTO
10
148.6000
20
13.1000
30
0
40
2.2000
1
Material: Acero · tol. gral. ISO 2768-mK
72
0
73
2
11
148.6000
21
13.1000
31
0
0
LINE
8
FINA
10
241.0000
20
39.0000
30
0
11
287.0000
21
39.0000
31
0
0
LINE
8
FINA
10
241.0000
20
29.0000
30
0
11
287.0000
21
29.0000
31
0
0
LINE
8
FINA
10
241.0000
20
19.0000
30
0
11
287.0000
21
19.0000
31
0
0
LINE
8
FINA
10
264.0000
20
29.0000
30
0
11
264.0000
21
39.0000
31
0
0
LINE
8
FINA
10
267.0000
20
19.0000
30
0
11
267.0000
21
29.0000
31
0
0
TEXT
8
TEXTO
10
242.3000
20
49.6000
30
0
40
1.4000
1
ESCALA
0
TEXT
8
TEXTO
10
264.0000
20
44.1000
30
0
40
5.0000
1
1:1
72
1
73
2
11
264.0000
21
44.1000
31
0
0
TEXT
8
TEXTO
10
242.3000
20
36.6000
30
0
40
1.4000
1
FORMATO
0
TEXT
8
TEXTO
10
252.5000
20
32.6000
30
0
40
3.0000
1
A4
72
1
73
2
11
252.5000
21
32.6000
31
0
0
TEXT
8
TEXTO
10
265.3000
20
36.6000
30
0
40
1.4000
1
LÁMINA
0
TEXT
8
TEXTO
10
275.5000
20
32.6000
30
0
40
3.0000
1
1 / 1
72
1
73
2
11
275.5000
21
32.6000
31
0
0
TEXT
8
TEXTO
10
242.3000
20
26.6000
30
0
40
1.4000
1
FECHA
0
TEXT
8
TEXTO
10
254.0000
20
22.6000
30
0
40
2.6000
1
2026-07-20
72
1
73
2
11
254.0000
21
22.6000
31
0
0
TEXT
8
TEXTO
10
268.3000
20
26.6000
30
0
40
1.4000
1
UNIDADES
0
TEXT
8
TEXTO
10
277.0000
20
22.6000
30
0
40
3.0000
1
mm
72
1
73
2
11
277.0000
21
22.6000
31
0
0
TEXT
8
TEXTO
10
242.3000
20
16.6000
30
0
40
1.4000
1
Nş DE PLANO
0
TEXT
8
TEXTO
10
264.0000
20
13.1000
30
0
40
2.6000
1
TR-17
72
1
73
2
11
264.0000
21
13.1000
31
0
0
ENDSEC
0
EOF
