0
SECTION
2
HEADER
9
$ACADVER
1
AC1009
9
$DWGCODEPAGE
3
ANSI_1252
0
ENDSEC
0
SECTION
2
TABLES
0
TABLE
2
LTYPE
70
2
0
LTYPE
2
CONTINUOUS
70
0
3
Solid line
72
65
73
0
40
0
0
LTYPE
2
DASHED
70
0
3
Segmentada __ __ __
72
65
73
2
40
6
49
4
49
-2
0
ENDTAB
0
TABLE
2
LAYER
70
7
0
LAYER
2
SOMBRA
70
0
62
8
6
CONTINUOUS
0
LAYER
2
NORMA
70
0
62
7
6
CONTINUOUS
0
LAYER
2
FINA
70
0
62
7
6
CONTINUOUS
0
LAYER
2
VISIBLE
70
0
62
7
6
CONTINUOUS
0
LAYER
2
COTAS
70
0
62
7
6
CONTINUOUS
0
LAYER
2
TEXTO
70
0
62
7
6
CONTINUOUS
0
LAYER
2
PLIEGUE
70
0
62
1
6
DASHED
0
ENDTAB
0
ENDSEC
0
SECTION
2
ENTITIES
0
LINE
8
VISIBLE
10
120.1863
20
193.0000
30
0
11
120.1863
21
193.0000
31
0
0
LINE
8
VISIBLE
10
120.1863
20
193.0000
30
0
11
120.1863
21
102.0000
31
0
0
LINE
8
VISIBLE
10
120.1863
20
102.0000
30
0
11
120.1863
21
102.0000
31
0
0
LINE
8
VISIBLE
10
120.1863
20
193.0000
30
0
11
120.1863
21
193.0000
31
0
0
LINE
8
VISIBLE
10
120.1863
20
102.0000
30
0
11
120.1863
21
102.0000
31
0
0
LINE
8
VISIBLE
10
120.1863
20
193.0000
30
0
11
120.1863
21
193.0000
31
0
0
LINE
8
VISIBLE
10
120.1863
20
102.0000
30
0
11
120.1863
21
102.0000
31
0
0
LINE
8
VISIBLE
10
120.1863
20
193.0000
30
0
11
120.1863
21
193.0000
31
0
0
LINE
8
VISIBLE
10
120.1863
20
102.0000
30
0
11
120.1863
21
102.0000
31
0
0
LINE
8
VISIBLE
10
120.1863
20
193.0000
30
0
11
120.1863
21
193.0000
31
0
0
LINE
8
VISIBLE
10
120.1863
20
102.0000
30
0
11
120.1863
21
102.0000
31
0
0
LINE
8
VISIBLE
10
120.1863
20
193.0000
30
0
11
120.1863
21
193.0000
31
0
0
LINE
8
VISIBLE
10
120.1863
20
102.0000
30
0
11
120.1863
21
102.0000
31
0
0
LINE
8
VISIBLE
10
120.1863
20
193.0000
30
0
11
120.1863
21
193.0000
31
0
0
LINE
8
VISIBLE
10
120.1863
20
102.0000
30
0
11
120.1863
21
102.0000
31
0
0
LINE
8
VISIBLE
10
120.1863
20
193.0000
30
0
11
120.1863
21
193.0000
31
0
0
LINE
8
VISIBLE
10
120.1863
20
102.0000
30
0
11
120.1863
21
102.0000
31
0
0
LINE
8
VISIBLE
10
120.1863
20
193.0000
30
0
11
120.1863
21
193.0000
31
0
0
LINE
8
VISIBLE
10
120.1863
20
102.0000
30
0
11
120.1863
21
193.0000
31
0
0
LINE
8
VISIBLE
10
120.1863
20
102.0000
30
0
11
120.1863
21
102.0000
31
0
0
LINE
8
VISIBLE
10
100.1863
20
102.0000
30
0
11
100.1863
21
102.0000
31
0
0
LINE
8
VISIBLE
10
100.1863
20
193.0000
30
0
11
100.1863
21
102.0000
31
0
0
LINE
8
VISIBLE
10
100.1863
20
193.0000
30
0
11
100.1863
21
193.0000
31
0
0
LINE
8
VISIBLE
10
100.1863
20
102.0000
30
0
11
100.1863
21
102.0000
31
0
0
LINE
8
VISIBLE
10
100.1863
20
193.0000
30
0
11
100.1863
21
193.0000
31
0
0
LINE
8
VISIBLE
10
100.1863
20
102.0000
30
0
11
100.1863
21
102.0000
31
0
0
LINE
8
VISIBLE
10
100.1863
20
193.0000
30
0
11
100.1863
21
193.0000
31
0
0
LINE
8
VISIBLE
10
100.1863
20
102.0000
30
0
11
100.1863
21
102.0000
31
0
0
LINE
8
VISIBLE
10
100.1863
20
193.0000
30
0
11
100.1863
21
193.0000
31
0
0
LINE
8
VISIBLE
10
100.1863
20
102.0000
30
0
11
100.1863
21
102.0000
31
0
0
LINE
8
VISIBLE
10
100.1863
20
193.0000
30
0
11
100.1863
21
193.0000
31
0
0
LINE
8
VISIBLE
10
100.1863
20
102.0000
30
0
11
100.1863
21
102.0000
31
0
0
LINE
8
VISIBLE
10
100.1863
20
193.0000
30
0
11
100.1863
21
193.0000
31
0
0
LINE
8
VISIBLE
10
100.1863
20
102.0000
30
0
11
100.1863
21
102.0000
31
0
0
LINE
8
VISIBLE
10
100.1863
20
193.0000
30
0
11
100.1863
21
193.0000
31
0
0
LINE
8
VISIBLE
10
100.1863
20
102.0000
30
0
11
100.1863
21
102.0000
31
0
0
LINE
8
VISIBLE
10
100.1863
20
193.0000
30
0
11
100.1863
21
193.0000
31
0
0
LINE
8
VISIBLE
10
100.1863
20
102.0000
30
0
11
100.1863
21
102.0000
31
0
0
LINE
8
VISIBLE
10
100.1863
20
102.0000
30
0
11
100.1863
21
193.0000
31
0
0
LINE
8
VISIBLE
10
100.1863
20
193.0000
30
0
11
100.1863
21
193.0000
31
0
0
LINE
8
VISIBLE
10
120.1863
20
102.0000
30
0
11
119.2645
21
102.0000
31
0
0
LINE
8
VISIBLE
10
119.2645
20
193.0000
30
0
11
120.1863
21
193.0000
31
0
0
LINE
8
VISIBLE
10
119.2645
20
102.0000
30
0
11
118.0188
21
102.0000
31
0
0
LINE
8
VISIBLE
10
118.0188
20
193.0000
30
0
11
119.2645
21
193.0000
31
0
0
LINE
8
VISIBLE
10
118.0188
20
102.0000
30
0
11
116.9755
21
102.0000
31
0
0
LINE
8
VISIBLE
10
116.9755
20
193.0000
30
0
11
118.0188
21
193.0000
31
0
0
LINE
8
VISIBLE
10
116.9755
20
102.0000
30
0
11
116.0796
21
102.0000
31
0
0
LINE
8
VISIBLE
10
116.0796
20
193.0000
30
0
11
116.9755
21
193.0000
31
0
0
LINE
8
VISIBLE
10
116.0796
20
102.0000
30
0
11
115.2930
21
102.0000
31
0
0
LINE
8
VISIBLE
10
115.2930
20
193.0000
30
0
11
116.0796
21
193.0000
31
0
0
LINE
8
VISIBLE
10
115.2930
20
102.0000
30
0
11
114.5886
21
102.0000
31
0
0
LINE
8
VISIBLE
10
114.5886
20
193.0000
30
0
11
115.2930
21
193.0000
31
0
0
LINE
8
VISIBLE
10
114.5886
20
102.0000
30
0
11
113.9454
21
102.0000
31
0
0
LINE
8
VISIBLE
10
113.9454
20
193.0000
30
0
11
114.5886
21
193.0000
31
0
0
LINE
8
VISIBLE
10
113.9454
20
102.0000
30
0
11
113.3467
21
102.0000
31
0
0
LINE
8
VISIBLE
10
113.3467
20
193.0000
30
0
11
113.9454
21
193.0000
31
0
0
LINE
8
VISIBLE
10
113.3467
20
102.0000
30
0
11
112.7779
21
102.0000
31
0
0
LINE
8
VISIBLE
10
112.7779
20
193.0000
30
0
11
113.3467
21
193.0000
31
0
0
LINE
8
VISIBLE
10
112.7779
20
102.0000
30
0
11
112.2242
21
102.0000
31
0
0
LINE
8
VISIBLE
10
112.2242
20
193.0000
30
0
11
112.7779
21
193.0000
31
0
0
LINE
8
VISIBLE
10
112.2242
20
102.0000
30
0
11
111.6683
21
102.0000
31
0
0
LINE
8
VISIBLE
10
111.6683
20
193.0000
30
0
11
112.2242
21
193.0000
31
0
0
LINE
8
VISIBLE
10
111.6683
20
102.0000
30
0
11
111.0852
21
102.0000
31
0
0
LINE
8
VISIBLE
10
111.0852
20
193.0000
30
0
11
111.6683
21
193.0000
31
0
0
LINE
8
VISIBLE
10
111.0852
20
102.0000
30
0
11
110.4282
21
102.0000
31
0
0
LINE
8
VISIBLE
10
110.4282
20
193.0000
30
0
11
111.0852
21
193.0000
31
0
0
LINE
8
VISIBLE
10
110.4282
20
102.0000
30
0
11
109.5848
21
102.0000
31
0
0
LINE
8
VISIBLE
10
109.5848
20
193.0000
30
0
11
110.4282
21
193.0000
31
0
0
LINE
8
VISIBLE
10
109.5848
20
102.0000
30
0
11
108.1540
21
102.0000
31
0
0
LINE
8
VISIBLE
10
108.1540
20
193.0000
30
0
11
109.5848
21
193.0000
31
0
0
LINE
8
VISIBLE
10
108.1540
20
102.0000
30
0
11
102.5578
21
102.0000
31
0
0
LINE
8
VISIBLE
10
102.5578
20
193.0000
30
0
11
108.1540
21
193.0000
31
0
0
LINE
8
VISIBLE
10
102.5578
20
102.0000
30
0
11
100.1863
21
102.0000
31
0
0
LINE
8
VISIBLE
10
100.1863
20
193.0000
30
0
11
102.5578
21
193.0000
31
0
0
LINE
8
VISIBLE
10
120.1863
20
193.0000
30
0
11
102.5578
21
193.0000
31
0
0
LINE
8
VISIBLE
10
102.5578
20
102.0000
30
0
11
120.1863
21
102.0000
31
0
0
LINE
8
VISIBLE
10
101.1081
20
193.0000
30
0
11
100.1863
21
193.0000
31
0
0
LINE
8
VISIBLE
10
100.1863
20
102.0000
30
0
11
101.1081
21
102.0000
31
0
0
LINE
8
VISIBLE
10
102.3538
20
193.0000
30
0
11
101.1081
21
193.0000
31
0
0
LINE
8
VISIBLE
10
101.1081
20
102.0000
30
0
11
102.3538
21
102.0000
31
0
0
LINE
8
VISIBLE
10
102.5578
20
193.0000
30
0
11
102.3538
21
193.0000
31
0
0
LINE
8
VISIBLE
10
102.3538
20
102.0000
30
0
11
102.5578
21
102.0000
31
0
0
LINE
8
VISIBLE
10
115.0014
20
193.0000
30
0
11
115.4989
21
193.0000
31
0
0
LINE
8
VISIBLE
10
114.9084
20
193.0000
30
0
11
115.2676
21
193.0000
31
0
0
LINE
8
VISIBLE
10
114.8980
20
193.0000
30
0
11
114.9494
21
193.0000
31
0
0
LINE
8
VISIBLE
10
102.5578
20
193.0000
30
0
11
103.4082
21
193.0000
31
0
0
LINE
8
VISIBLE
10
105.3712
20
193.0000
30
0
11
104.8737
21
193.0000
31
0
0
LINE
8
VISIBLE
10
105.4642
20
193.0000
30
0
11
105.1050
21
193.0000
31
0
0
LINE
8
VISIBLE
10
105.4746
20
193.0000
30
0
11
105.4232
21
193.0000
31
0
0
LINE
8
VISIBLE
10
109.0778
20
193.0000
30
0
11
107.4363
21
193.0000
31
0
0
LINE
8
VISIBLE
10
109.4559
20
193.0000
30
0
11
108.0815
21
193.0000
31
0
0
LINE
8
VISIBLE
10
109.8242
20
193.0000
30
0
11
108.7628
21
193.0000
31
0
0
LINE
8
VISIBLE
10
110.1863
20
193.0000
30
0
11
109.4684
21
193.0000
31
0
0
LINE
8
VISIBLE
10
103.4082
20
102.0000
30
0
11
102.5578
21
102.0000
31
0
0
LINE
8
VISIBLE
10
110.1863
20
193.0000
30
0
11
110.2038
21
193.0000
31
0
0
LINE
8
VISIBLE
10
110.2038
20
193.0000
30
0
11
110.9042
21
193.0000
31
0
0
LINE
8
VISIBLE
10
110.9042
20
192.5000
30
0
11
110.1863
21
192.5000
31
0
0
LINE
8
VISIBLE
10
110.9042
20
193.0000
30
0
11
110.9214
21
193.0000
31
0
0
LINE
8
VISIBLE
10
110.9214
20
193.0000
30
0
11
111.6098
21
193.0000
31
0
0
LINE
8
VISIBLE
10
111.6098
20
192.5000
30
0
11
110.9042
21
192.5000
31
0
0
LINE
8
VISIBLE
10
111.6098
20
193.0000
30
0
11
111.6264
21
193.0000
31
0
0
LINE
8
VISIBLE
10
111.6264
20
193.0000
30
0
11
112.2911
21
193.0000
31
0
0
LINE
8
VISIBLE
10
112.2911
20
192.5000
30
0
11
111.6098
21
192.5000
31
0
0
LINE
8
VISIBLE
10
112.2911
20
193.0000
30
0
11
112.3068
21
193.0000
31
0
0
LINE
8
VISIBLE
10
112.3068
20
193.0000
30
0
11
112.9363
21
193.0000
31
0
0
LINE
8
VISIBLE
10
112.9363
20
192.5000
30
0
11
112.2911
21
192.5000
31
0
0
LINE
8
VISIBLE
10
112.9363
20
193.0000
30
0
11
112.9509
21
193.0000
31
0
0
LINE
8
VISIBLE
10
112.9509
20
193.0000
30
0
11
113.5345
21
193.0000
31
0
0
LINE
8
VISIBLE
10
113.5345
20
192.5000
30
0
11
112.9363
21
192.5000
31
0
0
LINE
8
VISIBLE
10
113.5345
20
193.0000
30
0
11
113.5477
21
193.0000
31
0
0
LINE
8
VISIBLE
10
113.5477
20
193.0000
30
0
11
114.0754
21
193.0000
31
0
0
LINE
8
VISIBLE
10
114.0754
20
192.5000
30
0
11
113.5345
21
192.5000
31
0
0
LINE
8
VISIBLE
10
114.0754
20
193.0000
30
0
11
114.0869
21
193.0000
31
0
0
LINE
8
VISIBLE
10
114.0869
20
193.0000
30
0
11
114.5497
21
193.0000
31
0
0
LINE
8
VISIBLE
10
114.5497
20
192.5000
30
0
11
114.0754
21
192.5000
31
0
0
LINE
8
VISIBLE
10
114.5497
20
193.0000
30
0
11
114.5595
21
193.0000
31
0
0
LINE
8
VISIBLE
10
114.5595
20
193.0000
30
0
11
114.9494
21
193.0000
31
0
0
LINE
8
VISIBLE
10
114.9494
20
192.5000
30
0
11
114.5497
21
192.5000
31
0
0
LINE
8
VISIBLE
10
114.9494
20
193.0000
30
0
11
114.9572
21
193.0000
31
0
0
LINE
8
VISIBLE
10
114.9572
20
193.0000
30
0
11
115.2676
21
193.0000
31
0
0
LINE
8
VISIBLE
10
115.2676
20
192.5000
30
0
11
114.9494
21
192.5000
31
0
0
LINE
8
VISIBLE
10
115.2676
20
193.0000
30
0
11
115.2733
21
193.0000
31
0
0
LINE
8
VISIBLE
10
115.2733
20
193.0000
30
0
11
115.4989
21
193.0000
31
0
0
LINE
8
VISIBLE
10
115.4989
20
192.5000
30
0
11
115.2676
21
192.5000
31
0
0
LINE
8
VISIBLE
10
115.4989
20
193.0000
30
0
11
115.5023
21
193.0000
31
0
0
LINE
8
VISIBLE
10
115.5023
20
193.0000
30
0
11
115.6392
21
193.0000
31
0
0
LINE
8
VISIBLE
10
115.6392
20
192.5000
30
0
11
115.4989
21
192.5000
31
0
0
LINE
8
VISIBLE
10
115.6392
20
193.0000
30
0
11
115.6404
21
193.0000
31
0
0
LINE
8
VISIBLE
10
115.6404
20
193.0000
30
0
11
115.6863
21
193.0000
31
0
0
LINE
8
VISIBLE
10
115.6863
20
192.5000
30
0
11
115.6392
21
192.5000
31
0
0
LINE
8
VISIBLE
10
115.6863
20
193.0000
30
0
11
115.6851
21
193.0000
31
0
0
LINE
8
VISIBLE
10
115.6851
20
193.0000
30
0
11
115.6392
21
193.0000
31
0
0
LINE
8
VISIBLE
10
115.6392
20
192.5000
30
0
11
115.6863
21
192.5000
31
0
0
LINE
8
VISIBLE
10
115.6392
20
193.0000
30
0
11
115.6358
21
193.0000
31
0
0
LINE
8
VISIBLE
10
115.6358
20
193.0000
30
0
11
115.4989
21
193.0000
31
0
0
LINE
8
VISIBLE
10
115.4989
20
192.5000
30
0
11
115.6392
21
192.5000
31
0
0
LINE
8
VISIBLE
10
115.4989
20
193.0000
30
0
11
115.4932
21
193.0000
31
0
0
LINE
8
VISIBLE
10
115.4932
20
193.0000
30
0
11
115.2676
21
193.0000
31
0
0
LINE
8
VISIBLE
10
115.2676
20
192.5000
30
0
11
115.4989
21
192.5000
31
0
0
LINE
8
VISIBLE
10
115.2676
20
193.0000
30
0
11
115.2599
21
193.0000
31
0
0
LINE
8
VISIBLE
10
115.2599
20
193.0000
30
0
11
114.9494
21
193.0000
31
0
0
LINE
8
VISIBLE
10
114.9494
20
192.5000
30
0
11
115.2676
21
192.5000
31
0
0
LINE
8
VISIBLE
10
114.9494
20
193.0000
30
0
11
114.9397
21
193.0000
31
0
0
LINE
8
VISIBLE
10
114.9397
20
193.0000
30
0
11
114.5497
21
193.0000
31
0
0
LINE
8
VISIBLE
10
114.5497
20
192.5000
30
0
11
114.9494
21
192.5000
31
0
0
LINE
8
VISIBLE
10
114.5497
20
193.0000
30
0
11
114.5382
21
193.0000
31
0
0
LINE
8
VISIBLE
10
114.5382
20
193.0000
30
0
11
114.0754
21
193.0000
31
0
0
LINE
8
VISIBLE
10
114.0754
20
192.5000
30
0
11
114.5497
21
192.5000
31
0
0
LINE
8
VISIBLE
10
114.0754
20
193.0000
30
0
11
114.0622
21
193.0000
31
0
0
LINE
8
VISIBLE
10
114.0622
20
193.0000
30
0
11
113.5345
21
193.0000
31
0
0
LINE
8
VISIBLE
10
113.5345
20
192.5000
30
0
11
114.0754
21
192.5000
31
0
0
LINE
8
VISIBLE
10
113.5345
20
193.0000
30
0
11
113.5199
21
193.0000
31
0
0
LINE
8
VISIBLE
10
113.5199
20
193.0000
30
0
11
112.9363
21
193.0000
31
0
0
LINE
8
VISIBLE
10
112.9363
20
192.5000
30
0
11
113.5345
21
192.5000
31
0
0
LINE
8
VISIBLE
10
112.9363
20
193.0000
30
0
11
112.9206
21
193.0000
31
0
0
LINE
8
VISIBLE
10
112.9206
20
193.0000
30
0
11
112.2911
21
193.0000
31
0
0
LINE
8
VISIBLE
10
112.2911
20
192.5000
30
0
11
112.9363
21
192.5000
31
0
0
LINE
8
VISIBLE
10
112.2911
20
193.0000
30
0
11
112.2744
21
193.0000
31
0
0
LINE
8
VISIBLE
10
112.2744
20
193.0000
30
0
11
111.6098
21
193.0000
31
0
0
LINE
8
VISIBLE
10
111.6098
20
192.5000
30
0
11
112.2911
21
192.5000
31
0
0
LINE
8
VISIBLE
10
111.6098
20
193.0000
30
0
11
111.5926
21
193.0000
31
0
0
LINE
8
VISIBLE
10
111.5926
20
193.0000
30
0
11
110.9042
21
193.0000
31
0
0
LINE
8
VISIBLE
10
110.9042
20
192.5000
30
0
11
111.6098
21
192.5000
31
0
0
LINE
8
VISIBLE
10
110.9042
20
193.0000
30
0
11
110.8867
21
193.0000
31
0
0
LINE
8
VISIBLE
10
110.8867
20
193.0000
30
0
11
110.1863
21
193.0000
31
0
0
LINE
8
VISIBLE
10
110.1863
20
192.5000
30
0
11
110.9042
21
192.5000
31
0
0
LINE
8
VISIBLE
10
110.1863
20
193.0000
30
0
11
110.1688
21
193.0000
31
0
0
LINE
8
VISIBLE
10
110.1688
20
193.0000
30
0
11
109.4684
21
193.0000
31
0
0
LINE
8
VISIBLE
10
109.4684
20
192.5000
30
0
11
110.1863
21
192.5000
31
0
0
LINE
8
VISIBLE
10
109.4684
20
193.0000
30
0
11
109.4512
21
193.0000
31
0
0
LINE
8
VISIBLE
10
109.4512
20
193.0000
30
0
11
108.7628
21
193.0000
31
0
0
LINE
8
VISIBLE
10
108.7628
20
192.5000
30
0
11
109.4684
21
192.5000
31
0
0
LINE
8
VISIBLE
10
108.7628
20
193.0000
30
0
11
108.7462
21
193.0000
31
0
0
LINE
8
VISIBLE
10
108.7462
20
193.0000
30
0
11
108.0815
21
193.0000
31
0
0
LINE
8
VISIBLE
10
108.0815
20
192.5000
30
0
11
108.7628
21
192.5000
31
0
0
LINE
8
VISIBLE
10
108.0815
20
193.0000
30
0
11
108.0658
21
193.0000
31
0
0
LINE
8
VISIBLE
10
108.0658
20
193.0000
30
0
11
107.4363
21
193.0000
31
0
0
LINE
8
VISIBLE
10
107.4363
20
192.5000
30
0
11
108.0815
21
192.5000
31
0
0
LINE
8
VISIBLE
10
107.4363
20
193.0000
30
0
11
107.4217
21
193.0000
31
0
0
LINE
8
VISIBLE
10
107.4217
20
193.0000
30
0
11
106.8381
21
193.0000
31
0
0
LINE
8
VISIBLE
10
106.8381
20
192.5000
30
0
11
107.4363
21
192.5000
31
0
0
LINE
8
VISIBLE
10
106.8381
20
193.0000
30
0
11
106.8249
21
193.0000
31
0
0
LINE
8
VISIBLE
10
106.8249
20
193.0000
30
0
11
106.2972
21
193.0000
31
0
0
LINE
8
VISIBLE
10
106.2972
20
192.5000
30
0
11
106.8381
21
192.5000
31
0
0
LINE
8
VISIBLE
10
106.2972
20
193.0000
30
0
11
106.2856
21
193.0000
31
0
0
LINE
8
VISIBLE
10
106.2856
20
193.0000
30
0
11
105.8228
21
193.0000
31
0
0
LINE
8
VISIBLE
10
105.8228
20
192.5000
30
0
11
106.2972
21
192.5000
31
0
0
LINE
8
VISIBLE
10
105.8228
20
193.0000
30
0
11
105.8131
21
193.0000
31
0
0
LINE
8
VISIBLE
10
105.8131
20
193.0000
30
0
11
105.4232
21
193.0000
31
0
0
LINE
8
VISIBLE
10
105.4232
20
192.5000
30
0
11
105.8228
21
192.5000
31
0
0
LINE
8
VISIBLE
10
105.4232
20
193.0000
30
0
11
105.4154
21
193.0000
31
0
0
LINE
8
VISIBLE
10
105.4154
20
193.0000
30
0
11
105.1050
21
193.0000
31
0
0
LINE
8
VISIBLE
10
105.1050
20
192.5000
30
0
11
105.4232
21
192.5000
31
0
0
LINE
8
VISIBLE
10
105.1050
20
193.0000
30
0
11
105.0993
21
193.0000
31
0
0
LINE
8
VISIBLE
10
105.0993
20
193.0000
30
0
11
104.8737
21
193.0000
31
0
0
LINE
8
VISIBLE
10
104.8737
20
192.5000
30
0
11
105.1050
21
192.5000
31
0
0
LINE
8
VISIBLE
10
104.8737
20
193.0000
30
0
11
104.8703
21
193.0000
31
0
0
LINE
8
VISIBLE
10
104.8703
20
193.0000
30
0
11
104.7333
21
193.0000
31
0
0
LINE
8
VISIBLE
10
104.7333
20
192.5000
30
0
11
104.8737
21
192.5000
31
0
0
LINE
8
VISIBLE
10
104.7333
20
193.0000
30
0
11
104.7322
21
193.0000
31
0
0
LINE
8
VISIBLE
10
104.7322
20
193.0000
30
0
11
104.6863
21
193.0000
31
0
0
LINE
8
VISIBLE
10
104.6863
20
192.5000
30
0
11
104.7333
21
192.5000
31
0
0
LINE
8
VISIBLE
10
104.6863
20
193.0000
30
0
11
104.6874
21
193.0000
31
0
0
LINE
8
VISIBLE
10
104.6874
20
193.0000
30
0
11
104.7333
21
193.0000
31
0
0
LINE
8
VISIBLE
10
104.7333
20
192.5000
30
0
11
104.6863
21
192.5000
31
0
0
LINE
8
VISIBLE
10
104.7333
20
193.0000
30
0
11
104.7368
21
193.0000
31
0
0
LINE
8
VISIBLE
10
104.7368
20
193.0000
30
0
11
104.8737
21
193.0000
31
0
0
LINE
8
VISIBLE
10
104.8737
20
192.5000
30
0
11
104.7333
21
192.5000
31
0
0
LINE
8
VISIBLE
10
104.8737
20
193.0000
30
0
11
104.8793
21
193.0000
31
0
0
LINE
8
VISIBLE
10
104.8793
20
193.0000
30
0
11
105.1050
21
193.0000
31
0
0
LINE
8
VISIBLE
10
105.1050
20
192.5000
30
0
11
104.8737
21
192.5000
31
0
0
LINE
8
VISIBLE
10
105.1050
20
193.0000
30
0
11
105.1127
21
193.0000
31
0
0
LINE
8
VISIBLE
10
105.1127
20
193.0000
30
0
11
105.4232
21
193.0000
31
0
0
LINE
8
VISIBLE
10
105.4232
20
192.5000
30
0
11
105.1050
21
192.5000
31
0
0
LINE
8
VISIBLE
10
105.4232
20
193.0000
30
0
11
105.4329
21
193.0000
31
0
0
LINE
8
VISIBLE
10
105.4329
20
193.0000
30
0
11
105.8228
21
193.0000
31
0
0
LINE
8
VISIBLE
10
105.8228
20
192.5000
30
0
11
105.4232
21
192.5000
31
0
0
LINE
8
VISIBLE
10
105.8228
20
193.0000
30
0
11
105.8344
21
193.0000
31
0
0
LINE
8
VISIBLE
10
105.8344
20
193.0000
30
0
11
106.2972
21
193.0000
31
0
0
LINE
8
VISIBLE
10
106.2972
20
192.5000
30
0
11
105.8228
21
192.5000
31
0
0
LINE
8
VISIBLE
10
106.2972
20
193.0000
30
0
11
106.3104
21
193.0000
31
0
0
LINE
8
VISIBLE
10
106.3104
20
193.0000
30
0
11
106.8381
21
193.0000
31
0
0
LINE
8
VISIBLE
10
106.8381
20
192.5000
30
0
11
106.2972
21
192.5000
31
0
0
LINE
8
VISIBLE
10
106.8381
20
193.0000
30
0
11
106.8527
21
193.0000
31
0
0
LINE
8
VISIBLE
10
106.8527
20
193.0000
30
0
11
107.4363
21
193.0000
31
0
0
LINE
8
VISIBLE
10
107.4363
20
192.5000
30
0
11
106.8381
21
192.5000
31
0
0
LINE
8
VISIBLE
10
107.4363
20
193.0000
30
0
11
107.4520
21
193.0000
31
0
0
LINE
8
VISIBLE
10
107.4520
20
193.0000
30
0
11
108.0815
21
193.0000
31
0
0
LINE
8
VISIBLE
10
108.0815
20
192.5000
30
0
11
107.4363
21
192.5000
31
0
0
LINE
8
VISIBLE
10
108.0815
20
193.0000
30
0
11
108.0981
21
193.0000
31
0
0
LINE
8
VISIBLE
10
108.0981
20
193.0000
30
0
11
108.7628
21
193.0000
31
0
0
LINE
8
VISIBLE
10
108.7628
20
192.5000
30
0
11
108.0815
21
192.5000
31
0
0
LINE
8
VISIBLE
10
108.7628
20
193.0000
30
0
11
108.7800
21
193.0000
31
0
0
LINE
8
VISIBLE
10
108.7800
20
193.0000
30
0
11
109.4684
21
193.0000
31
0
0
LINE
8
VISIBLE
10
109.4684
20
192.5000
30
0
11
108.7628
21
192.5000
31
0
0
LINE
8
VISIBLE
10
109.4684
20
193.0000
30
0
11
109.4859
21
193.0000
31
0
0
LINE
8
VISIBLE
10
109.4859
20
193.0000
30
0
11
110.1863
21
193.0000
31
0
0
LINE
8
VISIBLE
10
110.1863
20
192.5000
30
0
11
109.4684
21
192.5000
31
0
0
TEXT
8
TEXTO
10
110.1863
20
197.0000
30
0
40
3.5000
1
ALZADO
72
1
73
2
11
110.1863
21
197.0000
31
0
0
LINE
8
COTAS
10
100.1863
20
101.0000
30
0
11
100.1863
21
91.5000
31
0
0
LINE
8
COTAS
10
120.1863
20
101.0000
30
0
11
120.1863
21
91.5000
31
0
0
LINE
8
COTAS
10
100.1863
20
93.0000
30
0
11
120.1863
21
93.0000
31
0
0
SOLID
8
COTAS
10
100.1863
20
93.0000
30
0
11
102.6863
21
93.4500
31
0
12
102.6863
22
92.5500
32
0
13
102.6863
23
92.5500
33
0
0
SOLID
8
COTAS
10
120.1863
20
93.0000
30
0
11
117.6863
21
93.4500
31
0
12
117.6863
22
92.5500
32
0
13
117.6863
23
92.5500
33
0
0
TEXT
8
COTAS
10
110.1863
20
95.2000
30
0
40
3.5000
1
20
72
1
73
2
11
110.1863
21
95.2000
31
0
0
LINE
8
COTAS
10
121.1863
20
102.0000
30
0
11
130.6863
21
102.0000
31
0
0
LINE
8
COTAS
10
121.1863
20
193.0000
30
0
11
130.6863
21
193.0000
31
0
0
LINE
8
COTAS
10
129.1863
20
102.0000
30
0
11
129.1863
21
193.0000
31
0
0
SOLID
8
COTAS
10
129.1863
20
102.0000
30
0
11
129.6363
21
104.5000
31
0
12
128.7363
22
104.5000
32
0
13
128.7363
23
104.5000
33
0
0
SOLID
8
COTAS
10
129.1863
20
193.0000
30
0
11
129.6363
21
190.5000
31
0
12
128.7363
22
190.5000
32
0
13
128.7363
23
190.5000
33
0
0
TEXT
8
COTAS
10
131.3863
20
147.5000
30
0
40
3.5000
1
91
72
1
73
2
11
131.3863
21
147.5000
31
0
0
LINE
8
VISIBLE
10
120.1863
20
65.1554
30
0
11
120.1863
21
64.0000
31
0
0
LINE
8
VISIBLE
10
120.1863
20
64.0000
30
0
11
120.1863
21
64.0000
31
0
0
LINE
8
VISIBLE
10
120.1863
20
64.0000
30
0
11
120.1863
21
65.1554
31
0
0
LINE
8
VISIBLE
10
120.1863
20
66.3934
30
0
11
120.1863
21
65.1554
31
0
0
LINE
8
VISIBLE
10
120.1863
20
65.1554
30
0
11
120.1863
21
66.3934
31
0
0
LINE
8
VISIBLE
10
120.1863
20
67.5987
30
0
11
120.1863
21
66.3934
31
0
0
LINE
8
VISIBLE
10
120.1863
20
66.3934
30
0
11
120.1863
21
67.5987
31
0
0
LINE
8
VISIBLE
10
120.1863
20
68.8122
30
0
11
120.1863
21
67.5987
31
0
0
LINE
8
VISIBLE
10
120.1863
20
67.5987
30
0
11
120.1863
21
68.8122
31
0
0
LINE
8
VISIBLE
10
120.1863
20
70.0812
30
0
11
120.1863
21
68.8122
31
0
0
LINE
8
VISIBLE
10
120.1863
20
68.8122
30
0
11
120.1863
21
70.0812
31
0
0
LINE
8
VISIBLE
10
120.1863
20
71.4700
30
0
11
120.1863
21
70.0812
31
0
0
LINE
8
VISIBLE
10
120.1863
20
70.0812
30
0
11
120.1863
21
71.4700
31
0
0
LINE
8
VISIBLE
10
120.1863
20
73.0791
30
0
11
120.1863
21
71.4700
31
0
0
LINE
8
VISIBLE
10
120.1863
20
71.4700
30
0
11
120.1863
21
73.0791
31
0
0
LINE
8
VISIBLE
10
120.1863
20
75.0875
30
0
11
120.1863
21
73.0791
31
0
0
LINE
8
VISIBLE
10
120.1863
20
73.0791
30
0
11
120.1863
21
75.0875
31
0
0
LINE
8
VISIBLE
10
120.1863
20
76.0000
30
0
11
120.1863
21
75.0875
31
0
0
LINE
8
VISIBLE
10
120.1863
20
76.0000
30
0
11
120.1863
21
76.0000
31
0
0
LINE
8
VISIBLE
10
120.1863
20
75.0875
30
0
11
120.1863
21
76.0000
31
0
0
LINE
8
VISIBLE
10
100.1863
20
76.0000
30
0
11
100.1863
21
74.8446
31
0
0
LINE
8
VISIBLE
10
100.1863
20
76.0000
30
0
11
100.1863
21
76.0000
31
0
0
LINE
8
VISIBLE
10
100.1863
20
74.8446
30
0
11
100.1863
21
76.0000
31
0
0
LINE
8
VISIBLE
10
100.1863
20
74.8446
30
0
11
100.1863
21
73.6066
31
0
0
LINE
8
VISIBLE
10
100.1863
20
73.6066
30
0
11
100.1863
21
74.8446
31
0
0
LINE
8
VISIBLE
10
100.1863
20
73.6066
30
0
11
100.1863
21
72.4013
31
0
0
LINE
8
VISIBLE
10
100.1863
20
72.4013
30
0
11
100.1863
21
73.6066
31
0
0
LINE
8
VISIBLE
10
100.1863
20
72.4013
30
0
11
100.1863
21
71.1878
31
0
0
LINE
8
VISIBLE
10
100.1863
20
71.1878
30
0
11
100.1863
21
72.4013
31
0
0
LINE
8
VISIBLE
10
100.1863
20
71.1878
30
0
11
100.1863
21
69.9188
31
0
0
LINE
8
VISIBLE
10
100.1863
20
69.9188
30
0
11
100.1863
21
71.1878
31
0
0
LINE
8
VISIBLE
10
100.1863
20
69.9188
30
0
11
100.1863
21
68.5300
31
0
0
LINE
8
VISIBLE
10
100.1863
20
68.5300
30
0
11
100.1863
21
69.9188
31
0
0
LINE
8
VISIBLE
10
100.1863
20
68.5300
30
0
11
100.1863
21
66.9209
31
0
0
LINE
8
VISIBLE
10
100.1863
20
66.9209
30
0
11
100.1863
21
68.5300
31
0
0
LINE
8
VISIBLE
10
100.1863
20
66.9209
30
0
11
100.1863
21
64.9125
31
0
0
LINE
8
VISIBLE
10
100.1863
20
64.9125
30
0
11
100.1863
21
66.9209
31
0
0
LINE
8
VISIBLE
10
100.1863
20
64.9125
30
0
11
100.1863
21
64.0000
31
0
0
LINE
8
VISIBLE
10
100.1863
20
64.0000
30
0
11
100.1863
21
64.0000
31
0
0
LINE
8
VISIBLE
10
100.1863
20
64.0000
30
0
11
100.1863
21
64.9125
31
0
0
LINE
8
VISIBLE
10
120.1863
20
76.0000
30
0
11
119.2645
21
76.0000
31
0
0
LINE
8
VISIBLE
10
119.2645
20
76.0000
30
0
11
120.1863
21
76.0000
31
0
0
LINE
8
VISIBLE
10
119.2645
20
76.0000
30
0
11
118.0188
21
76.0000
31
0
0
LINE
8
VISIBLE
10
118.0188
20
76.0000
30
0
11
119.2645
21
76.0000
31
0
0
LINE
8
VISIBLE
10
118.0188
20
76.0000
30
0
11
116.9755
21
76.0000
31
0
0
LINE
8
VISIBLE
10
116.9755
20
76.0000
30
0
11
118.0188
21
76.0000
31
0
0
LINE
8
VISIBLE
10
116.9755
20
76.0000
30
0
11
116.0796
21
76.0000
31
0
0
LINE
8
VISIBLE
10
116.0796
20
76.0000
30
0
11
116.9755
21
76.0000
31
0
0
LINE
8
VISIBLE
10
116.0796
20
76.0000
30
0
11
115.2930
21
76.0000
31
0
0
LINE
8
VISIBLE
10
115.2930
20
76.0000
30
0
11
116.0796
21
76.0000
31
0
0
LINE
8
VISIBLE
10
115.2930
20
76.0000
30
0
11
114.5886
21
76.0000
31
0
0
LINE
8
VISIBLE
10
114.5886
20
76.0000
30
0
11
115.2930
21
76.0000
31
0
0
LINE
8
VISIBLE
10
114.5886
20
76.0000
30
0
11
113.9454
21
76.0000
31
0
0
LINE
8
VISIBLE
10
113.9454
20
76.0000
30
0
11
114.5886
21
76.0000
31
0
0
LINE
8
VISIBLE
10
113.9454
20
76.0000
30
0
11
113.3467
21
76.0000
31
0
0
LINE
8
VISIBLE
10
113.3467
20
76.0000
30
0
11
113.9454
21
76.0000
31
0
0
LINE
8
VISIBLE
10
113.3467
20
76.0000
30
0
11
112.7779
21
76.0000
31
0
0
LINE
8
VISIBLE
10
112.7779
20
76.0000
30
0
11
113.3467
21
76.0000
31
0
0
LINE
8
VISIBLE
10
112.7779
20
76.0000
30
0
11
112.2242
21
76.0000
31
0
0
LINE
8
VISIBLE
10
112.2242
20
76.0000
30
0
11
112.7779
21
76.0000
31
0
0
LINE
8
VISIBLE
10
112.2242
20
76.0000
30
0
11
111.6683
21
76.0000
31
0
0
LINE
8
VISIBLE
10
111.6683
20
76.0000
30
0
11
112.2242
21
76.0000
31
0
0
LINE
8
VISIBLE
10
111.6683
20
76.0000
30
0
11
111.0852
21
76.0000
31
0
0
LINE
8
VISIBLE
10
111.0852
20
76.0000
30
0
11
111.6683
21
76.0000
31
0
0
LINE
8
VISIBLE
10
111.0852
20
76.0000
30
0
11
110.4282
21
76.0000
31
0
0
LINE
8
VISIBLE
10
110.4282
20
76.0000
30
0
11
111.0852
21
76.0000
31
0
0
LINE
8
VISIBLE
10
110.4282
20
76.0000
30
0
11
109.5848
21
76.0000
31
0
0
LINE
8
VISIBLE
10
109.5848
20
76.0000
30
0
11
110.4282
21
76.0000
31
0
0
LINE
8
VISIBLE
10
109.5848
20
76.0000
30
0
11
108.1540
21
76.0000
31
0
0
LINE
8
VISIBLE
10
108.1540
20
76.0000
30
0
11
109.5848
21
76.0000
31
0
0
LINE
8
VISIBLE
10
108.1540
20
76.0000
30
0
11
102.5578
21
76.0000
31
0
0
LINE
8
VISIBLE
10
102.5578
20
76.0000
30
0
11
108.1540
21
76.0000
31
0
0
LINE
8
VISIBLE
10
102.5578
20
76.0000
30
0
11
100.1863
21
76.0000
31
0
0
LINE
8
VISIBLE
10
100.1863
20
76.0000
30
0
11
102.5578
21
76.0000
31
0
0
LINE
8
VISIBLE
10
120.1863
20
64.0000
30
0
11
102.5578
21
64.0000
31
0
0
LINE
8
VISIBLE
10
102.5578
20
64.0000
30
0
11
120.1863
21
64.0000
31
0
0
LINE
8
VISIBLE
10
101.1081
20
64.0000
30
0
11
100.1863
21
64.0000
31
0
0
LINE
8
VISIBLE
10
100.1863
20
64.0000
30
0
11
101.1081
21
64.0000
31
0
0
LINE
8
VISIBLE
10
102.3538
20
64.0000
30
0
11
101.1081
21
64.0000
31
0
0
LINE
8
VISIBLE
10
101.1081
20
64.0000
30
0
11
102.3538
21
64.0000
31
0
0
LINE
8
VISIBLE
10
102.5578
20
64.0000
30
0
11
102.3538
21
64.0000
31
0
0
LINE
8
VISIBLE
10
102.3538
20
64.0000
30
0
11
102.5578
21
64.0000
31
0
0
LINE
8
VISIBLE
10
115.0014
20
72.8891
30
0
11
115.4989
21
71.4235
31
0
0
LINE
8
VISIBLE
10
114.9084
20
72.8333
30
0
11
115.2676
21
72.1048
31
0
0
LINE
8
VISIBLE
10
114.8980
20
72.8270
30
0
11
114.9494
21
72.7500
31
0
0
LINE
8
VISIBLE
10
102.5578
20
64.0000
30
0
11
103.4082
21
64.0557
31
0
0
LINE
8
VISIBLE
10
105.3712
20
67.1109
30
0
11
104.8737
21
68.5765
31
0
0
LINE
8
VISIBLE
10
105.4642
20
67.1667
30
0
11
105.1050
21
67.8952
31
0
0
LINE
8
VISIBLE
10
105.4746
20
67.1730
30
0
11
105.4232
21
67.2500
31
0
0
LINE
8
VISIBLE
10
109.0778
20
64.4273
30
0
11
107.4363
21
65.2369
31
0
0
LINE
8
VISIBLE
10
109.4559
20
64.4521
30
0
11
108.0815
21
64.9187
31
0
0
LINE
8
VISIBLE
10
109.8242
20
64.4763
30
0
11
108.7628
21
64.6874
31
0
0
LINE
8
VISIBLE
10
110.1863
20
64.5000
30
0
11
109.4684
21
64.5471
31
0
0
LINE
8
VISIBLE
10
103.4082
20
64.0557
30
0
11
102.5578
21
64.0000
31
0
0
LINE
8
VISIBLE
10
110.1863
20
64.5000
30
0
11
110.2038
21
64.5011
31
0
0
LINE
8
VISIBLE
10
110.2038
20
64.5011
30
0
11
110.9042
21
64.5471
31
0
0
LINE
8
VISIBLE
10
110.9042
20
64.5471
30
0
11
110.1863
21
64.5000
31
0
0
LINE
8
VISIBLE
10
110.9042
20
64.5471
30
0
11
110.9214
21
64.5505
31
0
0
LINE
8
VISIBLE
10
110.9214
20
64.5505
30
0
11
111.6098
21
64.6874
31
0
0
LINE
8
VISIBLE
10
111.6098
20
64.6874
30
0
11
110.9042
21
64.5471
31
0
0
LINE
8
VISIBLE
10
111.6098
20
64.6874
30
0
11
111.6264
21
64.6930
31
0
0
LINE
8
VISIBLE
10
111.6264
20
64.6930
30
0
11
112.2911
21
64.9187
31
0
0
LINE
8
VISIBLE
10
112.2911
20
64.9187
30
0
11
111.6098
21
64.6874
31
0
0
LINE
8
VISIBLE
10
112.2911
20
64.9187
30
0
11
112.3068
21
64.9264
31
0
0
LINE
8
VISIBLE
10
112.3068
20
64.9264
30
0
11
112.9363
21
65.2369
31
0
0
LINE
8
VISIBLE
10
112.9363
20
65.2369
30
0
11
112.2911
21
64.9187
31
0
0
LINE
8
VISIBLE
10
112.9363
20
65.2369
30
0
11
112.9509
21
65.2466
31
0
0
LINE
8
VISIBLE
10
112.9509
20
65.2466
30
0
11
113.5345
21
65.6366
31
0
0
LINE
8
VISIBLE
10
113.5345
20
65.6366
30
0
11
112.9363
21
65.2369
31
0
0
LINE
8
VISIBLE
10
113.5345
20
65.6366
30
0
11
113.5477
21
65.6481
31
0
0
LINE
8
VISIBLE
10
113.5477
20
65.6481
30
0
11
114.0754
21
66.1109
31
0
0
LINE
8
VISIBLE
10
114.0754
20
66.1109
30
0
11
113.5345
21
65.6366
31
0
0
LINE
8
VISIBLE
10
114.0754
20
66.1109
30
0
11
114.0869
21
66.1241
31
0
0
LINE
8
VISIBLE
10
114.0869
20
66.1241
30
0
11
114.5497
21
66.6518
31
0
0
LINE
8
VISIBLE
10
114.5497
20
66.6518
30
0
11
114.0754
21
66.1109
31
0
0
LINE
8
VISIBLE
10
114.5497
20
66.6518
30
0
11
114.5595
21
66.6664
31
0
0
LINE
8
VISIBLE
10
114.5595
20
66.6664
30
0
11
114.9494
21
67.2500
31
0
0
LINE
8
VISIBLE
10
114.9494
20
67.2500
30
0
11
114.5497
21
66.6518
31
0
0
LINE
8
VISIBLE
10
114.9494
20
67.2500
30
0
11
114.9572
21
67.2657
31
0
0
LINE
8
VISIBLE
10
114.9572
20
67.2657
30
0
11
115.2676
21
67.8952
31
0
0
LINE
8
VISIBLE
10
115.2676
20
67.8952
30
0
11
114.9494
21
67.2500
31
0
0
LINE
8
VISIBLE
10
115.2676
20
67.8952
30
0
11
115.2733
21
67.9119
31
0
0
LINE
8
VISIBLE
10
115.2733
20
67.9119
30
0
11
115.4989
21
68.5765
31
0
0
LINE
8
VISIBLE
10
115.4989
20
68.5765
30
0
11
115.2676
21
67.8952
31
0
0
LINE
8
VISIBLE
10
115.4989
20
68.5765
30
0
11
115.5023
21
68.5937
31
0
0
LINE
8
VISIBLE
10
115.5023
20
68.5937
30
0
11
115.6392
21
69.2821
31
0
0
LINE
8
VISIBLE
10
115.6392
20
69.2821
30
0
11
115.4989
21
68.5765
31
0
0
LINE
8
VISIBLE
10
115.6392
20
69.2821
30
0
11
115.6404
21
69.2996
31
0
0
LINE
8
VISIBLE
10
115.6404
20
69.2996
30
0
11
115.6863
21
70.0000
31
0
0
LINE
8
VISIBLE
10
115.6863
20
70.0000
30
0
11
115.6392
21
69.2821
31
0
0
LINE
8
VISIBLE
10
115.6863
20
70.0000
30
0
11
115.6851
21
70.0175
31
0
0
LINE
8
VISIBLE
10
115.6851
20
70.0175
30
0
11
115.6392
21
70.7179
31
0
0
LINE
8
VISIBLE
10
115.6392
20
70.7179
30
0
11
115.6863
21
70.0000
31
0
0
LINE
8
VISIBLE
10
115.6392
20
70.7179
30
0
11
115.6358
21
70.7351
31
0
0
LINE
8
VISIBLE
10
115.6358
20
70.7351
30
0
11
115.4989
21
71.4235
31
0
0
LINE
8
VISIBLE
10
115.4989
20
71.4235
30
0
11
115.6392
21
70.7179
31
0
0
LINE
8
VISIBLE
10
115.4989
20
71.4235
30
0
11
115.4932
21
71.4401
31
0
0
LINE
8
VISIBLE
10
115.4932
20
71.4401
30
0
11
115.2676
21
72.1048
31
0
0
LINE
8
VISIBLE
10
115.2676
20
72.1048
30
0
11
115.4989
21
71.4235
31
0
0
LINE
8
VISIBLE
10
115.2676
20
72.1048
30
0
11
115.2599
21
72.1205
31
0
0
LINE
8
VISIBLE
10
115.2599
20
72.1205
30
0
11
114.9494
21
72.7500
31
0
0
LINE
8
VISIBLE
10
114.9494
20
72.7500
30
0
11
115.2676
21
72.1048
31
0
0
LINE
8
VISIBLE
10
114.9494
20
72.7500
30
0
11
114.9397
21
72.7646
31
0
0
LINE
8
VISIBLE
10
114.9397
20
72.7646
30
0
11
114.5497
21
73.3482
31
0
0
LINE
8
VISIBLE
10
114.5497
20
73.3482
30
0
11
114.9494
21
72.7500
31
0
0
LINE
8
VISIBLE
10
114.5497
20
73.3482
30
0
11
114.5382
21
73.3614
31
0
0
LINE
8
VISIBLE
10
114.5382
20
73.3614
30
0
11
114.0754
21
73.8891
31
0
0
LINE
8
VISIBLE
10
114.0754
20
73.8891
30
0
11
114.5497
21
73.3482
31
0
0
LINE
8
VISIBLE
10
114.0754
20
73.8891
30
0
11
114.0622
21
73.9007
31
0
0
LINE
8
VISIBLE
10
114.0622
20
73.9007
30
0
11
113.5345
21
74.3634
31
0
0
LINE
8
VISIBLE
10
113.5345
20
74.3634
30
0
11
114.0754
21
73.8891
31
0
0
LINE
8
VISIBLE
10
113.5345
20
74.3634
30
0
11
113.5199
21
74.3732
31
0
0
LINE
8
VISIBLE
10
113.5199
20
74.3732
30
0
11
112.9363
21
74.7631
31
0
0
LINE
8
VISIBLE
10
112.9363
20
74.7631
30
0
11
113.5345
21
74.3634
31
0
0
LINE
8
VISIBLE
10
112.9363
20
74.7631
30
0
11
112.9206
21
74.7709
31
0
0
LINE
8
VISIBLE
10
112.9206
20
74.7709
30
0
11
112.2911
21
75.0813
31
0
0
LINE
8
VISIBLE
10
112.2911
20
75.0813
30
0
11
112.9363
21
74.7631
31
0
0
LINE
8
VISIBLE
10
112.2911
20
75.0813
30
0
11
112.2744
21
75.0870
31
0
0
LINE
8
VISIBLE
10
112.2744
20
75.0870
30
0
11
111.6098
21
75.3126
31
0
0
LINE
8
VISIBLE
10
111.6098
20
75.3126
30
0
11
112.2911
21
75.0813
31
0
0
LINE
8
VISIBLE
10
111.6098
20
75.3126
30
0
11
111.5926
21
75.3160
31
0
0
LINE
8
VISIBLE
10
111.5926
20
75.3160
30
0
11
110.9042
21
75.4529
31
0
0
LINE
8
VISIBLE
10
110.9042
20
75.4529
30
0
11
111.6098
21
75.3126
31
0
0
LINE
8
VISIBLE
10
110.9042
20
75.4529
30
0
11
110.8867
21
75.4541
31
0
0
LINE
8
VISIBLE
10
110.8867
20
75.4541
30
0
11
110.1863
21
75.5000
31
0
0
LINE
8
VISIBLE
10
110.1863
20
75.5000
30
0
11
110.9042
21
75.4529
31
0
0
LINE
8
VISIBLE
10
110.1863
20
75.5000
30
0
11
110.1688
21
75.4989
31
0
0
LINE
8
VISIBLE
10
110.1688
20
75.4989
30
0
11
109.4684
21
75.4529
31
0
0
LINE
8
VISIBLE
10
109.4684
20
75.4529
30
0
11
110.1863
21
75.5000
31
0
0
LINE
8
VISIBLE
10
109.4684
20
75.4529
30
0
11
109.4512
21
75.4495
31
0
0
LINE
8
VISIBLE
10
109.4512
20
75.4495
30
0
11
108.7628
21
75.3126
31
0
0
LINE
8
VISIBLE
10
108.7628
20
75.3126
30
0
11
109.4684
21
75.4529
31
0
0
LINE
8
VISIBLE
10
108.7628
20
75.3126
30
0
11
108.7462
21
75.3070
31
0
0
LINE
8
VISIBLE
10
108.7462
20
75.3070
30
0
11
108.0815
21
75.0813
31
0
0
LINE
8
VISIBLE
10
108.0815
20
75.0813
30
0
11
108.7628
21
75.3126
31
0
0
LINE
8
VISIBLE
10
108.0815
20
75.0813
30
0
11
108.0658
21
75.0736
31
0
0
LINE
8
VISIBLE
10
108.0658
20
75.0736
30
0
11
107.4363
21
74.7631
31
0
0
LINE
8
VISIBLE
10
107.4363
20
74.7631
30
0
11
108.0815
21
75.0813
31
0
0
LINE
8
VISIBLE
10
107.4363
20
74.7631
30
0
11
107.4217
21
74.7534
31
0
0
LINE
8
VISIBLE
10
107.4217
20
74.7534
30
0
11
106.8381
21
74.3634
31
0
0
LINE
8
VISIBLE
10
106.8381
20
74.3634
30
0
11
107.4363
21
74.7631
31
0
0
LINE
8
VISIBLE
10
106.8381
20
74.3634
30
0
11
106.8249
21
74.3519
31
0
0
LINE
8
VISIBLE
10
106.8249
20
74.3519
30
0
11
106.2972
21
73.8891
31
0
0
LINE
8
VISIBLE
10
106.2972
20
73.8891
30
0
11
106.8381
21
74.3634
31
0
0
LINE
8
VISIBLE
10
106.2972
20
73.8891
30
0
11
106.2856
21
73.8759
31
0
0
LINE
8
VISIBLE
10
106.2856
20
73.8759
30
0
11
105.8228
21
73.3482
31
0
0
LINE
8
VISIBLE
10
105.8228
20
73.3482
30
0
11
106.2972
21
73.8891
31
0
0
LINE
8
VISIBLE
10
105.8228
20
73.3482
30
0
11
105.8131
21
73.3336
31
0
0
LINE
8
VISIBLE
10
105.8131
20
73.3336
30
0
11
105.4232
21
72.7500
31
0
0
LINE
8
VISIBLE
10
105.4232
20
72.7500
30
0
11
105.8228
21
73.3482
31
0
0
LINE
8
VISIBLE
10
105.4232
20
72.7500
30
0
11
105.4154
21
72.7343
31
0
0
LINE
8
VISIBLE
10
105.4154
20
72.7343
30
0
11
105.1050
21
72.1048
31
0
0
LINE
8
VISIBLE
10
105.1050
20
72.1048
30
0
11
105.4232
21
72.7500
31
0
0
LINE
8
VISIBLE
10
105.1050
20
72.1048
30
0
11
105.0993
21
72.0881
31
0
0
LINE
8
VISIBLE
10
105.0993
20
72.0881
30
0
11
104.8737
21
71.4235
31
0
0
LINE
8
VISIBLE
10
104.8737
20
71.4235
30
0
11
105.1050
21
72.1048
31
0
0
LINE
8
VISIBLE
10
104.8737
20
71.4235
30
0
11
104.8703
21
71.4063
31
0
0
LINE
8
VISIBLE
10
104.8703
20
71.4063
30
0
11
104.7333
21
70.7179
31
0
0
LINE
8
VISIBLE
10
104.7333
20
70.7179
30
0
11
104.8737
21
71.4235
31
0
0
LINE
8
VISIBLE
10
104.7333
20
70.7179
30
0
11
104.7322
21
70.7004
31
0
0
LINE
8
VISIBLE
10
104.7322
20
70.7004
30
0
11
104.6863
21
70.0000
31
0
0
LINE
8
VISIBLE
10
104.6863
20
70.0000
30
0
11
104.7333
21
70.7179
31
0
0
LINE
8
VISIBLE
10
104.6863
20
70.0000
30
0
11
104.6874
21
69.9825
31
0
0
LINE
8
VISIBLE
10
104.6874
20
69.9825
30
0
11
104.7333
21
69.2821
31
0
0
LINE
8
VISIBLE
10
104.7333
20
69.2821
30
0
11
104.6863
21
70.0000
31
0
0
LINE
8
VISIBLE
10
104.7333
20
69.2821
30
0
11
104.7368
21
69.2649
31
0
0
LINE
8
VISIBLE
10
104.7368
20
69.2649
30
0
11
104.8737
21
68.5765
31
0
0
LINE
8
VISIBLE
10
104.8737
20
68.5765
30
0
11
104.7333
21
69.2821
31
0
0
LINE
8
VISIBLE
10
104.8737
20
68.5765
30
0
11
104.8793
21
68.5599
31
0
0
LINE
8
VISIBLE
10
104.8793
20
68.5599
30
0
11
105.1050
21
67.8952
31
0
0
LINE
8
VISIBLE
10
105.1050
20
67.8952
30
0
11
104.8737
21
68.5765
31
0
0
LINE
8
VISIBLE
10
105.1050
20
67.8952
30
0
11
105.1127
21
67.8795
31
0
0
LINE
8
VISIBLE
10
105.1127
20
67.8795
30
0
11
105.4232
21
67.2500
31
0
0
LINE
8
VISIBLE
10
105.4232
20
67.2500
30
0
11
105.1050
21
67.8952
31
0
0
LINE
8
VISIBLE
10
105.4232
20
67.2500
30
0
11
105.4329
21
67.2354
31
0
0
LINE
8
VISIBLE
10
105.4329
20
67.2354
30
0
11
105.8228
21
66.6518
31
0
0
LINE
8
VISIBLE
10
105.8228
20
66.6518
30
0
11
105.4232
21
67.2500
31
0
0
LINE
8
VISIBLE
10
105.8228
20
66.6518
30
0
11
105.8344
21
66.6386
31
0
0
LINE
8
VISIBLE
10
105.8344
20
66.6386
30
0
11
106.2972
21
66.1109
31
0
0
LINE
8
VISIBLE
10
106.2972
20
66.1109
30
0
11
105.8228
21
66.6518
31
0
0
LINE
8
VISIBLE
10
106.2972
20
66.1109
30
0
11
106.3104
21
66.0993
31
0
0
LINE
8
VISIBLE
10
106.3104
20
66.0993
30
0
11
106.8381
21
65.6366
31
0
0
LINE
8
VISIBLE
10
106.8381
20
65.6366
30
0
11
106.2972
21
66.1109
31
0
0
LINE
8
VISIBLE
10
106.8381
20
65.6366
30
0
11
106.8527
21
65.6268
31
0
0
LINE
8
VISIBLE
10
106.8527
20
65.6268
30
0
11
107.4363
21
65.2369
31
0
0
LINE
8
VISIBLE
10
107.4363
20
65.2369
30
0
11
106.8381
21
65.6366
31
0
0
LINE
8
VISIBLE
10
107.4363
20
65.2369
30
0
11
107.4520
21
65.2291
31
0
0
LINE
8
VISIBLE
10
107.4520
20
65.2291
30
0
11
108.0815
21
64.9187
31
0
0
LINE
8
VISIBLE
10
108.0815
20
64.9187
30
0
11
107.4363
21
65.2369
31
0
0
LINE
8
VISIBLE
10
108.0815
20
64.9187
30
0
11
108.0981
21
64.9130
31
0
0
LINE
8
VISIBLE
10
108.0981
20
64.9130
30
0
11
108.7628
21
64.6874
31
0
0
LINE
8
VISIBLE
10
108.7628
20
64.6874
30
0
11
108.0815
21
64.9187
31
0
0
LINE
8
VISIBLE
10
108.7628
20
64.6874
30
0
11
108.7800
21
64.6840
31
0
0
LINE
8
VISIBLE
10
108.7800
20
64.6840
30
0
11
109.4684
21
64.5471
31
0
0
LINE
8
VISIBLE
10
109.4684
20
64.5471
30
0
11
108.7628
21
64.6874
31
0
0
LINE
8
VISIBLE
10
109.4684
20
64.5471
30
0
11
109.4859
21
64.5459
31
0
0
LINE
8
VISIBLE
10
109.4859
20
64.5459
30
0
11
110.1863
21
64.5000
31
0
0
LINE
8
VISIBLE
10
110.1863
20
64.5000
30
0
11
109.4684
21
64.5471
31
0
0
TEXT
8
TEXTO
10
110.1863
20
80.0000
30
0
40
3.5000
1
PLANTA
72
1
73
2
11
110.1863
21
80.0000
31
0
0
LINE
8
COTAS
10
121.1863
20
64.0000
30
0
11
130.6863
21
64.0000
31
0
0
LINE
8
COTAS
10
121.1863
20
76.0000
30
0
11
130.6863
21
76.0000
31
0
0
LINE
8
COTAS
10
129.1863
20
64.0000
30
0
11
129.1863
21
76.0000
31
0
0
SOLID
8
COTAS
10
129.1863
20
64.0000
30
0
11
129.6363
21
66.5000
31
0
12
128.7363
22
66.5000
32
0
13
128.7363
23
66.5000
33
0
0
SOLID
8
COTAS
10
129.1863
20
76.0000
30
0
11
129.6363
21
73.5000
31
0
12
128.7363
22
73.5000
32
0
13
128.7363
23
73.5000
33
0
0
TEXT
8
COTAS
10
131.3863
20
70.0000
30
0
40
3.5000
1
12
72
1
73
2
11
131.3863
21
70.0000
31
0
0
LINE
8
VISIBLE
10
157.0309
20
193.0000
30
0
11
158.1863
21
193.0000
31
0
0
LINE
8
VISIBLE
10
158.1863
20
193.0000
30
0
11
158.1863
21
102.0000
31
0
0
LINE
8
VISIBLE
10
158.1863
20
102.0000
30
0
11
157.0309
21
102.0000
31
0
0
LINE
8
VISIBLE
10
155.7929
20
193.0000
30
0
11
157.0309
21
193.0000
31
0
0
LINE
8
VISIBLE
10
157.0309
20
102.0000
30
0
11
155.7929
21
102.0000
31
0
0
LINE
8
VISIBLE
10
154.5876
20
193.0000
30
0
11
155.7929
21
193.0000
31
0
0
LINE
8
VISIBLE
10
155.7929
20
102.0000
30
0
11
154.5876
21
102.0000
31
0
0
LINE
8
VISIBLE
10
153.3741
20
193.0000
30
0
11
154.5876
21
193.0000
31
0
0
LINE
8
VISIBLE
10
154.5876
20
102.0000
30
0
11
153.3741
21
102.0000
31
0
0
LINE
8
VISIBLE
10
152.1051
20
193.0000
30
0
11
153.3741
21
193.0000
31
0
0
LINE
8
VISIBLE
10
153.3741
20
102.0000
30
0
11
152.1051
21
102.0000
31
0
0
LINE
8
VISIBLE
10
150.7162
20
193.0000
30
0
11
152.1051
21
193.0000
31
0
0
LINE
8
VISIBLE
10
152.1051
20
102.0000
30
0
11
150.7162
21
102.0000
31
0
0
LINE
8
VISIBLE
10
149.1072
20
193.0000
30
0
11
150.7162
21
193.0000
31
0
0
LINE
8
VISIBLE
10
150.7162
20
102.0000
30
0
11
149.1072
21
102.0000
31
0
0
LINE
8
VISIBLE
10
147.0988
20
193.0000
30
0
11
149.1072
21
193.0000
31
0
0
LINE
8
VISIBLE
10
149.1072
20
102.0000
30
0
11
147.0988
21
102.0000
31
0
0
LINE
8
VISIBLE
10
146.1863
20
193.0000
30
0
11
147.0988
21
193.0000
31
0
0
LINE
8
VISIBLE
10
146.1863
20
102.0000
30
0
11
146.1863
21
193.0000
31
0
0
LINE
8
VISIBLE
10
147.0988
20
102.0000
30
0
11
146.1863
21
102.0000
31
0
0
LINE
8
VISIBLE
10
146.1863
20
102.0000
30
0
11
147.3417
21
102.0000
31
0
0
LINE
8
VISIBLE
10
146.1863
20
193.0000
30
0
11
146.1863
21
102.0000
31
0
0
LINE
8
VISIBLE
10
147.3417
20
193.0000
30
0
11
146.1863
21
193.0000
31
0
0
LINE
8
VISIBLE
10
147.3417
20
102.0000
30
0
11
148.5797
21
102.0000
31
0
0
LINE
8
VISIBLE
10
148.5797
20
193.0000
30
0
11
147.3417
21
193.0000
31
0
0
LINE
8
VISIBLE
10
148.5797
20
102.0000
30
0
11
149.7850
21
102.0000
31
0
0
LINE
8
VISIBLE
10
149.7850
20
193.0000
30
0
11
148.5797
21
193.0000
31
0
0
LINE
8
VISIBLE
10
149.7850
20
102.0000
30
0
11
150.9985
21
102.0000
31
0
0
LINE
8
VISIBLE
10
150.9985
20
193.0000
30
0
11
149.7850
21
193.0000
31
0
0
LINE
8
VISIBLE
10
150.9985
20
102.0000
30
0
11
152.2674
21
102.0000
31
0
0
LINE
8
VISIBLE
10
152.2674
20
193.0000
30
0
11
150.9985
21
193.0000
31
0
0
LINE
8
VISIBLE
10
152.2674
20
102.0000
30
0
11
153.6563
21
102.0000
31
0
0
LINE
8
VISIBLE
10
153.6563
20
193.0000
30
0
11
152.2674
21
193.0000
31
0
0
LINE
8
VISIBLE
10
153.6563
20
102.0000
30
0
11
155.2654
21
102.0000
31
0
0
LINE
8
VISIBLE
10
155.2654
20
193.0000
30
0
11
153.6563
21
193.0000
31
0
0
LINE
8
VISIBLE
10
155.2654
20
102.0000
30
0
11
157.2738
21
102.0000
31
0
0
LINE
8
VISIBLE
10
157.2738
20
193.0000
30
0
11
155.2654
21
193.0000
31
0
0
LINE
8
VISIBLE
10
157.2738
20
102.0000
30
0
11
158.1863
21
102.0000
31
0
0
LINE
8
VISIBLE
10
158.1863
20
102.0000
30
0
11
158.1863
21
193.0000
31
0
0
LINE
8
VISIBLE
10
158.1863
20
193.0000
30
0
11
157.2738
21
193.0000
31
0
0
LINE
8
VISIBLE
10
146.1863
20
102.0000
30
0
11
146.1863
21
102.0000
31
0
0
LINE
8
VISIBLE
10
146.1863
20
193.0000
30
0
11
146.1863
21
193.0000
31
0
0
LINE
8
VISIBLE
10
146.1863
20
102.0000
30
0
11
146.1863
21
102.0000
31
0
0
LINE
8
VISIBLE
10
146.1863
20
193.0000
30
0
11
146.1863
21
193.0000
31
0
0
LINE
8
VISIBLE
10
146.1863
20
102.0000
30
0
11
146.1863
21
102.0000
31
0
0
LINE
8
VISIBLE
10
146.1863
20
193.0000
30
0
11
146.1863
21
193.0000
31
0
0
LINE
8
VISIBLE
10
146.1863
20
102.0000
30
0
11
146.1863
21
102.0000
31
0
0
LINE
8
VISIBLE
10
146.1863
20
193.0000
30
0
11
146.1863
21
193.0000
31
0
0
LINE
8
VISIBLE
10
146.1863
20
102.0000
30
0
11
146.1863
21
102.0000
31
0
0
LINE
8
VISIBLE
10
146.1863
20
193.0000
30
0
11
146.1863
21
193.0000
31
0
0
LINE
8
VISIBLE
10
146.1863
20
102.0000
30
0
11
146.1863
21
102.0000
31
0
0
LINE
8
VISIBLE
10
146.1863
20
193.0000
30
0
11
146.1863
21
193.0000
31
0
0
LINE
8
VISIBLE
10
146.1863
20
102.0000
30
0
11
146.1863
21
102.0000
31
0
0
LINE
8
VISIBLE
10
146.1863
20
193.0000
30
0
11
146.1863
21
193.0000
31
0
0
LINE
8
VISIBLE
10
146.1863
20
102.0000
30
0
11
146.1863
21
102.0000
31
0
0
LINE
8
VISIBLE
10
146.1863
20
193.0000
30
0
11
146.1863
21
193.0000
31
0
0
LINE
8
VISIBLE
10
146.1863
20
102.0000
30
0
11
146.1863
21
102.0000
31
0
0
LINE
8
VISIBLE
10
146.1863
20
193.0000
30
0
11
146.1863
21
193.0000
31
0
0
LINE
8
VISIBLE
10
146.1863
20
102.0000
30
0
11
146.1863
21
102.0000
31
0
0
LINE
8
VISIBLE
10
146.1863
20
193.0000
30
0
11
146.1863
21
193.0000
31
0
0
LINE
8
VISIBLE
10
146.1863
20
102.0000
30
0
11
146.1863
21
102.0000
31
0
0
LINE
8
VISIBLE
10
146.1863
20
193.0000
30
0
11
146.1863
21
193.0000
31
0
0
LINE
8
VISIBLE
10
146.1863
20
102.0000
30
0
11
146.1863
21
102.0000
31
0
0
LINE
8
VISIBLE
10
146.1863
20
193.0000
30
0
11
146.1863
21
193.0000
31
0
0
LINE
8
VISIBLE
10
146.1863
20
102.0000
30
0
11
146.1863
21
102.0000
31
0
0
LINE
8
VISIBLE
10
146.1863
20
193.0000
30
0
11
146.1863
21
193.0000
31
0
0
LINE
8
VISIBLE
10
146.1863
20
102.0000
30
0
11
146.1863
21
102.0000
31
0
0
LINE
8
VISIBLE
10
146.1863
20
193.0000
30
0
11
146.1863
21
193.0000
31
0
0
LINE
8
VISIBLE
10
146.1863
20
102.0000
30
0
11
146.1863
21
102.0000
31
0
0
LINE
8
VISIBLE
10
146.1863
20
193.0000
30
0
11
146.1863
21
193.0000
31
0
0
LINE
8
VISIBLE
10
146.1863
20
102.0000
30
0
11
146.1863
21
102.0000
31
0
0
LINE
8
VISIBLE
10
146.1863
20
193.0000
30
0
11
146.1863
21
193.0000
31
0
0
LINE
8
VISIBLE
10
146.1863
20
102.0000
30
0
11
146.1863
21
102.0000
31
0
0
LINE
8
VISIBLE
10
146.1863
20
193.0000
30
0
11
146.1863
21
193.0000
31
0
0
LINE
8
VISIBLE
10
158.1863
20
193.0000
30
0
11
158.1863
21
193.0000
31
0
0
LINE
8
VISIBLE
10
158.1863
20
102.0000
30
0
11
158.1863
21
102.0000
31
0
0
LINE
8
VISIBLE
10
158.1863
20
193.0000
30
0
11
158.1863
21
193.0000
31
0
0
LINE
8
VISIBLE
10
158.1863
20
102.0000
30
0
11
158.1863
21
102.0000
31
0
0
LINE
8
VISIBLE
10
158.1863
20
193.0000
30
0
11
158.1863
21
193.0000
31
0
0
LINE
8
VISIBLE
10
158.1863
20
102.0000
30
0
11
158.1863
21
102.0000
31
0
0
LINE
8
VISIBLE
10
158.1863
20
193.0000
30
0
11
158.1863
21
193.0000
31
0
0
LINE
8
VISIBLE
10
158.1863
20
102.0000
30
0
11
158.1863
21
102.0000
31
0
0
LINE
8
VISIBLE
10
149.2972
20
193.0000
30
0
11
150.7628
21
193.0000
31
0
0
LINE
8
VISIBLE
10
149.3530
20
193.0000
30
0
11
150.0815
21
193.0000
31
0
0
LINE
8
VISIBLE
10
149.3593
20
193.0000
30
0
11
149.4363
21
193.0000
31
0
0
LINE
8
VISIBLE
10
158.1863
20
193.0000
30
0
11
158.1306
21
193.0000
31
0
0
LINE
8
VISIBLE
10
155.0754
20
193.0000
30
0
11
153.6098
21
193.0000
31
0
0
LINE
8
VISIBLE
10
155.0195
20
193.0000
30
0
11
154.2911
21
193.0000
31
0
0
LINE
8
VISIBLE
10
155.0133
20
193.0000
30
0
11
154.9363
21
193.0000
31
0
0
LINE
8
VISIBLE
10
157.7589
20
193.0000
30
0
11
156.9494
21
193.0000
31
0
0
LINE
8
VISIBLE
10
157.7342
20
193.0000
30
0
11
157.2676
21
193.0000
31
0
0
LINE
8
VISIBLE
10
157.7100
20
193.0000
30
0
11
157.4989
21
193.0000
31
0
0
LINE
8
VISIBLE
10
157.6863
20
193.0000
30
0
11
157.6392
21
193.0000
31
0
0
LINE
8
VISIBLE
10
158.1306
20
102.0000
30
0
11
158.1863
21
102.0000
31
0
0
LINE
8
VISIBLE
10
157.6863
20
193.0000
30
0
11
157.6851
21
193.0000
31
0
0
LINE
8
VISIBLE
10
157.6851
20
193.0000
30
0
11
157.6392
21
193.0000
31
0
0
LINE
8
VISIBLE
10
157.6392
20
192.5000
30
0
11
157.6863
21
192.5000
31
0
0
LINE
8
VISIBLE
10
157.6392
20
193.0000
30
0
11
157.6358
21
193.0000
31
0
0
LINE
8
VISIBLE
10
157.6358
20
193.0000
30
0
11
157.4989
21
193.0000
31
0
0
LINE
8
VISIBLE
10
157.4989
20
192.5000
30
0
11
157.6392
21
192.5000
31
0
0
LINE
8
VISIBLE
10
157.4989
20
193.0000
30
0
11
157.4932
21
193.0000
31
0
0
LINE
8
VISIBLE
10
157.4932
20
193.0000
30
0
11
157.2676
21
193.0000
31
0
0
LINE
8
VISIBLE
10
157.2676
20
192.5000
30
0
11
157.4989
21
192.5000
31
0
0
LINE
8
VISIBLE
10
157.2676
20
193.0000
30
0
11
157.2599
21
193.0000
31
0
0
LINE
8
VISIBLE
10
157.2599
20
193.0000
30
0
11
156.9494
21
193.0000
31
0
0
LINE
8
VISIBLE
10
156.9494
20
192.5000
30
0
11
157.2676
21
192.5000
31
0
0
LINE
8
VISIBLE
10
156.9494
20
193.0000
30
0
11
156.9397
21
193.0000
31
0
0
LINE
8
VISIBLE
10
156.9397
20
193.0000
30
0
11
156.5497
21
193.0000
31
0
0
LINE
8
VISIBLE
10
156.5497
20
192.5000
30
0
11
156.9494
21
192.5000
31
0
0
LINE
8
VISIBLE
10
156.5497
20
193.0000
30
0
11
156.5382
21
193.0000
31
0
0
LINE
8
VISIBLE
10
156.5382
20
193.0000
30
0
11
156.0754
21
193.0000
31
0
0
LINE
8
VISIBLE
10
156.0754
20
192.5000
30
0
11
156.5497
21
192.5000
31
0
0
LINE
8
VISIBLE
10
156.0754
20
193.0000
30
0
11
156.0622
21
193.0000
31
0
0
LINE
8
VISIBLE
10
156.0622
20
193.0000
30
0
11
155.5345
21
193.0000
31
0
0
LINE
8
VISIBLE
10
155.5345
20
192.5000
30
0
11
156.0754
21
192.5000
31
0
0
LINE
8
VISIBLE
10
155.5345
20
193.0000
30
0
11
155.5199
21
193.0000
31
0
0
LINE
8
VISIBLE
10
155.5199
20
193.0000
30
0
11
154.9363
21
193.0000
31
0
0
LINE
8
VISIBLE
10
154.9363
20
192.5000
30
0
11
155.5345
21
192.5000
31
0
0
LINE
8
VISIBLE
10
154.9363
20
193.0000
30
0
11
154.9206
21
193.0000
31
0
0
LINE
8
VISIBLE
10
154.9206
20
193.0000
30
0
11
154.2911
21
193.0000
31
0
0
LINE
8
VISIBLE
10
154.2911
20
192.5000
30
0
11
154.9363
21
192.5000
31
0
0
LINE
8
VISIBLE
10
154.2911
20
193.0000
30
0
11
154.2744
21
193.0000
31
0
0
LINE
8
VISIBLE
10
154.2744
20
193.0000
30
0
11
153.6098
21
193.0000
31
0
0
LINE
8
VISIBLE
10
153.6098
20
192.5000
30
0
11
154.2911
21
192.5000
31
0
0
LINE
8
VISIBLE
10
153.6098
20
193.0000
30
0
11
153.5926
21
193.0000
31
0
0
LINE
8
VISIBLE
10
153.5926
20
193.0000
30
0
11
152.9042
21
193.0000
31
0
0
LINE
8
VISIBLE
10
152.9042
20
192.5000
30
0
11
153.6098
21
192.5000
31
0
0
LINE
8
VISIBLE
10
152.9042
20
193.0000
30
0
11
152.8867
21
193.0000
31
0
0
LINE
8
VISIBLE
10
152.8867
20
193.0000
30
0
11
152.1863
21
193.0000
31
0
0
LINE
8
VISIBLE
10
152.1863
20
192.5000
30
0
11
152.9042
21
192.5000
31
0
0
LINE
8
VISIBLE
10
152.1863
20
193.0000
30
0
11
152.1688
21
193.0000
31
0
0
LINE
8
VISIBLE
10
152.1688
20
193.0000
30
0
11
151.4684
21
193.0000
31
0
0
LINE
8
VISIBLE
10
151.4684
20
192.5000
30
0
11
152.1863
21
192.5000
31
0
0
LINE
8
VISIBLE
10
151.4684
20
193.0000
30
0
11
151.4512
21
193.0000
31
0
0
LINE
8
VISIBLE
10
151.4512
20
193.0000
30
0
11
150.7628
21
193.0000
31
0
0
LINE
8
VISIBLE
10
150.7628
20
192.5000
30
0
11
151.4684
21
192.5000
31
0
0
LINE
8
VISIBLE
10
150.7628
20
193.0000
30
0
11
150.7462
21
193.0000
31
0
0
LINE
8
VISIBLE
10
150.7462
20
193.0000
30
0
11
150.0815
21
193.0000
31
0
0
LINE
8
VISIBLE
10
150.0815
20
192.5000
30
0
11
150.7628
21
192.5000
31
0
0
LINE
8
VISIBLE
10
150.0815
20
193.0000
30
0
11
150.0658
21
193.0000
31
0
0
LINE
8
VISIBLE
10
150.0658
20
193.0000
30
0
11
149.4363
21
193.0000
31
0
0
LINE
8
VISIBLE
10
149.4363
20
192.5000
30
0
11
150.0815
21
192.5000
31
0
0
LINE
8
VISIBLE
10
149.4363
20
193.0000
30
0
11
149.4217
21
193.0000
31
0
0
LINE
8
VISIBLE
10
149.4217
20
193.0000
30
0
11
148.8381
21
193.0000
31
0
0
LINE
8
VISIBLE
10
148.8381
20
192.5000
30
0
11
149.4363
21
192.5000
31
0
0
LINE
8
VISIBLE
10
148.8381
20
193.0000
30
0
11
148.8249
21
193.0000
31
0
0
LINE
8
VISIBLE
10
148.8249
20
193.0000
30
0
11
148.2972
21
193.0000
31
0
0
LINE
8
VISIBLE
10
148.2972
20
192.5000
30
0
11
148.8381
21
192.5000
31
0
0
LINE
8
VISIBLE
10
148.2972
20
193.0000
30
0
11
148.2856
21
193.0000
31
0
0
LINE
8
VISIBLE
10
148.2856
20
193.0000
30
0
11
147.8228
21
193.0000
31
0
0
LINE
8
VISIBLE
10
147.8228
20
192.5000
30
0
11
148.2972
21
192.5000
31
0
0
LINE
8
VISIBLE
10
147.8228
20
193.0000
30
0
11
147.8131
21
193.0000
31
0
0
LINE
8
VISIBLE
10
147.8131
20
193.0000
30
0
11
147.4232
21
193.0000
31
0
0
LINE
8
VISIBLE
10
147.4232
20
192.5000
30
0
11
147.8228
21
192.5000
31
0
0
LINE
8
VISIBLE
10
147.4232
20
193.0000
30
0
11
147.4154
21
193.0000
31
0
0
LINE
8
VISIBLE
10
147.4154
20
193.0000
30
0
11
147.1050
21
193.0000
31
0
0
LINE
8
VISIBLE
10
147.1050
20
192.5000
30
0
11
147.4232
21
192.5000
31
0
0
LINE
8
VISIBLE
10
147.1050
20
193.0000
30
0
11
147.0993
21
193.0000
31
0
0
LINE
8
VISIBLE
10
147.0993
20
193.0000
30
0
11
146.8737
21
193.0000
31
0
0
LINE
8
VISIBLE
10
146.8737
20
192.5000
30
0
11
147.1050
21
192.5000
31
0
0
LINE
8
VISIBLE
10
146.8737
20
193.0000
30
0
11
146.8703
21
193.0000
31
0
0
LINE
8
VISIBLE
10
146.8703
20
193.0000
30
0
11
146.7333
21
193.0000
31
0
0
LINE
8
VISIBLE
10
146.7333
20
192.5000
30
0
11
146.8737
21
192.5000
31
0
0
LINE
8
VISIBLE
10
146.7333
20
193.0000
30
0
11
146.7322
21
193.0000
31
0
0
LINE
8
VISIBLE
10
146.7322
20
193.0000
30
0
11
146.6863
21
193.0000
31
0
0
LINE
8
VISIBLE
10
146.6863
20
192.5000
30
0
11
146.7333
21
192.5000
31
0
0
LINE
8
VISIBLE
10
146.6863
20
193.0000
30
0
11
146.6874
21
193.0000
31
0
0
LINE
8
VISIBLE
10
146.6874
20
193.0000
30
0
11
146.7333
21
193.0000
31
0
0
LINE
8
VISIBLE
10
146.7333
20
192.5000
30
0
11
146.6863
21
192.5000
31
0
0
LINE
8
VISIBLE
10
146.7333
20
193.0000
30
0
11
146.7368
21
193.0000
31
0
0
LINE
8
VISIBLE
10
146.7368
20
193.0000
30
0
11
146.8737
21
193.0000
31
0
0
LINE
8
VISIBLE
10
146.8737
20
192.5000
30
0
11
146.7333
21
192.5000
31
0
0
LINE
8
VISIBLE
10
146.8737
20
193.0000
30
0
11
146.8793
21
193.0000
31
0
0
LINE
8
VISIBLE
10
146.8793
20
193.0000
30
0
11
147.1050
21
193.0000
31
0
0
LINE
8
VISIBLE
10
147.1050
20
192.5000
30
0
11
146.8737
21
192.5000
31
0
0
LINE
8
VISIBLE
10
147.1050
20
193.0000
30
0
11
147.1127
21
193.0000
31
0
0
LINE
8
VISIBLE
10
147.1127
20
193.0000
30
0
11
147.4232
21
193.0000
31
0
0
LINE
8
VISIBLE
10
147.4232
20
192.5000
30
0
11
147.1050
21
192.5000
31
0
0
LINE
8
VISIBLE
10
147.4232
20
193.0000
30
0
11
147.4329
21
193.0000
31
0
0
LINE
8
VISIBLE
10
147.4329
20
193.0000
30
0
11
147.8228
21
193.0000
31
0
0
LINE
8
VISIBLE
10
147.8228
20
192.5000
30
0
11
147.4232
21
192.5000
31
0
0
LINE
8
VISIBLE
10
147.8228
20
193.0000
30
0
11
147.8344
21
193.0000
31
0
0
LINE
8
VISIBLE
10
147.8344
20
193.0000
30
0
11
148.2972
21
193.0000
31
0
0
LINE
8
VISIBLE
10
148.2972
20
192.5000
30
0
11
147.8228
21
192.5000
31
0
0
LINE
8
VISIBLE
10
148.2972
20
193.0000
30
0
11
148.3104
21
193.0000
31
0
0
LINE
8
VISIBLE
10
148.3104
20
193.0000
30
0
11
148.8381
21
193.0000
31
0
0
LINE
8
VISIBLE
10
148.8381
20
192.5000
30
0
11
148.2972
21
192.5000
31
0
0
LINE
8
VISIBLE
10
148.8381
20
193.0000
30
0
11
148.8527
21
193.0000
31
0
0
LINE
8
VISIBLE
10
148.8527
20
193.0000
30
0
11
149.4363
21
193.0000
31
0
0
LINE
8
VISIBLE
10
149.4363
20
192.5000
30
0
11
148.8381
21
192.5000
31
0
0
LINE
8
VISIBLE
10
149.4363
20
193.0000
30
0
11
149.4520
21
193.0000
31
0
0
LINE
8
VISIBLE
10
149.4520
20
193.0000
30
0
11
150.0815
21
193.0000
31
0
0
LINE
8
VISIBLE
10
150.0815
20
192.5000
30
0
11
149.4363
21
192.5000
31
0
0
LINE
8
VISIBLE
10
150.0815
20
193.0000
30
0
11
150.0981
21
193.0000
31
0
0
LINE
8
VISIBLE
10
150.0981
20
193.0000
30
0
11
150.7628
21
193.0000
31
0
0
LINE
8
VISIBLE
10
150.7628
20
192.5000
30
0
11
150.0815
21
192.5000
31
0
0
LINE
8
VISIBLE
10
150.7628
20
193.0000
30
0
11
150.7800
21
193.0000
31
0
0
LINE
8
VISIBLE
10
150.7800
20
193.0000
30
0
11
151.4684
21
193.0000
31
0
0
LINE
8
VISIBLE
10
151.4684
20
192.5000
30
0
11
150.7628
21
192.5000
31
0
0
LINE
8
VISIBLE
10
151.4684
20
193.0000
30
0
11
151.4859
21
193.0000
31
0
0
LINE
8
VISIBLE
10
151.4859
20
193.0000
30
0
11
152.1863
21
193.0000
31
0
0
LINE
8
VISIBLE
10
152.1863
20
192.5000
30
0
11
151.4684
21
192.5000
31
0
0
LINE
8
VISIBLE
10
152.1863
20
193.0000
30
0
11
152.2038
21
193.0000
31
0
0
LINE
8
VISIBLE
10
152.2038
20
193.0000
30
0
11
152.9042
21
193.0000
31
0
0
LINE
8
VISIBLE
10
152.9042
20
192.5000
30
0
11
152.1863
21
192.5000
31
0
0
LINE
8
VISIBLE
10
152.9042
20
193.0000
30
0
11
152.9214
21
193.0000
31
0
0
LINE
8
VISIBLE
10
152.9214
20
193.0000
30
0
11
153.6098
21
193.0000
31
0
0
LINE
8
VISIBLE
10
153.6098
20
192.5000
30
0
11
152.9042
21
192.5000
31
0
0
LINE
8
VISIBLE
10
153.6098
20
193.0000
30
0
11
153.6264
21
193.0000
31
0
0
LINE
8
VISIBLE
10
153.6264
20
193.0000
30
0
11
154.2911
21
193.0000
31
0
0
LINE
8
VISIBLE
10
154.2911
20
192.5000
30
0
11
153.6098
21
192.5000
31
0
0
LINE
8
VISIBLE
10
154.2911
20
193.0000
30
0
11
154.3068
21
193.0000
31
0
0
LINE
8
VISIBLE
10
154.3068
20
193.0000
30
0
11
154.9363
21
193.0000
31
0
0
LINE
8
VISIBLE
10
154.9363
20
192.5000
30
0
11
154.2911
21
192.5000
31
0
0
LINE
8
VISIBLE
10
154.9363
20
193.0000
30
0
11
154.9509
21
193.0000
31
0
0
LINE
8
VISIBLE
10
154.9509
20
193.0000
30
0
11
155.5345
21
193.0000
31
0
0
LINE
8
VISIBLE
10
155.5345
20
192.5000
30
0
11
154.9363
21
192.5000
31
0
0
LINE
8
VISIBLE
10
155.5345
20
193.0000
30
0
11
155.5477
21
193.0000
31
0
0
LINE
8
VISIBLE
10
155.5477
20
193.0000
30
0
11
156.0754
21
193.0000
31
0
0
LINE
8
VISIBLE
10
156.0754
20
192.5000
30
0
11
155.5345
21
192.5000
31
0
0
LINE
8
VISIBLE
10
156.0754
20
193.0000
30
0
11
156.0869
21
193.0000
31
0
0
LINE
8
VISIBLE
10
156.0869
20
193.0000
30
0
11
156.5497
21
193.0000
31
0
0
LINE
8
VISIBLE
10
156.5497
20
192.5000
30
0
11
156.0754
21
192.5000
31
0
0
LINE
8
VISIBLE
10
156.5497
20
193.0000
30
0
11
156.5595
21
193.0000
31
0
0
LINE
8
VISIBLE
10
156.5595
20
193.0000
30
0
11
156.9494
21
193.0000
31
0
0
LINE
8
VISIBLE
10
156.9494
20
192.5000
30
0
11
156.5497
21
192.5000
31
0
0
LINE
8
VISIBLE
10
156.9494
20
193.0000
30
0
11
156.9572
21
193.0000
31
0
0
LINE
8
VISIBLE
10
156.9572
20
193.0000
30
0
11
157.2676
21
193.0000
31
0
0
LINE
8
VISIBLE
10
157.2676
20
192.5000
30
0
11
156.9494
21
192.5000
31
0
0
LINE
8
VISIBLE
10
157.2676
20
193.0000
30
0
11
157.2733
21
193.0000
31
0
0
LINE
8
VISIBLE
10
157.2733
20
193.0000
30
0
11
157.4989
21
193.0000
31
0
0
LINE
8
VISIBLE
10
157.4989
20
192.5000
30
0
11
157.2676
21
192.5000
31
0
0
LINE
8
VISIBLE
10
157.4989
20
193.0000
30
0
11
157.5023
21
193.0000
31
0
0
LINE
8
VISIBLE
10
157.5023
20
193.0000
30
0
11
157.6392
21
193.0000
31
0
0
LINE
8
VISIBLE
10
157.6392
20
192.5000
30
0
11
157.4989
21
192.5000
31
0
0
LINE
8
VISIBLE
10
157.6392
20
193.0000
30
0
11
157.6404
21
193.0000
31
0
0
LINE
8
VISIBLE
10
157.6404
20
193.0000
30
0
11
157.6863
21
193.0000
31
0
0
LINE
8
VISIBLE
10
157.6863
20
192.5000
30
0
11
157.6392
21
192.5000
31
0
0
TEXT
8
TEXTO
10
152.1863
20
197.0000
30
0
40
3.5000
1
PERFIL
72
1
73
2
11
152.1863
21
197.0000
31
0
0
SOLID
8
SOMBRA
62
253
10
197.6766
20
118.1123
30
0
11
198.3284
21
115.0639
31
0
12
197.6766
22
114.6876
32
0
13
197.6766
23
114.6876
33
0
0
SOLID
8
SOMBRA
62
253
10
198.9737
20
114.6914
30
0
11
198.3284
21
115.0639
31
0
12
198.9737
22
120.3413
32
0
13
198.9737
23
120.3413
33
0
0
SOLID
8
SOMBRA
62
253
10
200.3938
20
113.8715
30
0
11
198.9737
21
114.6914
31
0
12
198.9737
22
120.3413
32
0
13
198.9737
23
120.3413
33
0
0
SOLID
8
SOMBRA
62
252
10
200.8126
20
109.3538
30
0
11
198.3284
21
115.0639
31
0
12
198.9737
22
114.6914
32
0
13
198.9737
23
114.6914
33
0
0
SOLID
8
SOMBRA
62
252
10
200.8126
20
109.3538
30
0
11
197.6766
21
114.6876
31
0
12
198.3284
22
115.0639
32
0
13
198.3284
23
115.0639
33
0
0
SOLID
8
SOMBRA
62
253
10
196.7958
20
122.2314
30
0
11
197.6766
21
114.6876
31
0
12
196.7958
22
114.1791
32
0
13
196.7958
23
114.1791
33
0
0
SOLID
8
SOMBRA
62
252
10
200.5813
20
109.7472
30
0
11
196.7958
21
114.1791
31
0
12
197.6766
22
114.6876
32
0
13
197.6766
23
114.6876
33
0
0
SOLID
8
SOMBRA
62
252
10
200.2631
20
110.1197
30
0
11
196.6515
21
114.0958
31
0
12
196.7958
22
114.1791
32
0
13
196.7958
23
114.1791
33
0
0
SOLID
8
SOMBRA
62
253
10
196.6515
20
122.9060
30
0
11
196.7958
21
114.1791
31
0
12
196.6515
22
114.0958
32
0
13
196.6515
23
114.0958
33
0
0
SOLID
8
SOMBRA
62
252
10
200.2631
20
110.1197
30
0
11
196.0896
21
113.7259
31
0
12
196.6515
22
114.0958
32
0
13
196.6515
23
114.0958
33
0
0
SOLID
8
SOMBRA
62
252
10
200.9113
20
109.3130
30
0
11
198.9737
21
114.6914
31
0
12
200.3938
22
113.8715
32
0
13
200.3938
23
113.8715
33
0
0
SOLID
8
SOMBRA
62
253
10
196.7958
20
122.2314
30
0
11
197.6766
21
118.1123
31
0
12
197.6766
22
114.6876
32
0
13
197.6766
23
114.6876
33
0
0
SOLID
8
SOMBRA
62
252
10
199.8634
20
110.4650
30
0
11
195.5000
21
113.3377
31
0
12
196.0896
22
113.7259
32
0
13
196.0896
23
113.7259
33
0
0
SOLID
8
SOMBRA
62
252
10
199.3891
20
110.7773
30
0
11
194.9924
21
113.0035
31
0
12
195.5000
22
113.3377
32
0
13
195.5000
23
113.3377
33
0
0
SOLID
8
SOMBRA
62
252
10
198.8482
20
111.0512
30
0
11
194.5472
21
112.7104
31
0
12
194.9924
22
113.0035
32
0
13
194.9924
23
113.0035
33
0
0
SOLID
8
SOMBRA
62
252
10
198.2500
20
111.2820
30
0
11
194.1504
21
112.4492
31
0
12
194.5472
22
112.7104
32
0
13
194.5472
23
112.7104
33
0
0
SOLID
8
SOMBRA
62
252
10
201.0916
20
109.3391
30
0
11
200.3938
21
113.8715
31
0
12
201.5316
22
113.2146
32
0
13
201.5316
23
113.2146
33
0
0
SOLID
8
SOMBRA
62
252
10
197.6048
20
111.4657
30
0
11
193.7916
21
112.2130
31
0
12
194.1504
22
112.4492
32
0
13
194.1504
23
112.4492
33
0
0
SOLID
8
SOMBRA
62
252
10
196.9235
20
111.5992
30
0
11
193.4630
21
111.9966
31
0
12
193.7916
22
112.2130
32
0
13
193.7916
23
112.2130
33
0
0
SOLID
8
SOMBRA
62
252
10
196.2179
20
111.6802
30
0
11
193.1582
21
111.7960
31
0
12
193.4630
22
111.9966
32
0
13
193.4630
23
111.9966
33
0
0
SOLID
8
SOMBRA
62
252
10
201.3886
20
109.3819
30
0
11
201.5316
21
113.2146
31
0
12
202.5137
22
112.6476
32
0
13
202.5137
23
112.6476
33
0
0
SOLID
8
SOMBRA
62
252
10
195.5000
20
111.7074
30
0
11
192.8726
21
111.6080
31
0
12
193.1582
22
111.7960
32
0
13
193.1582
23
111.7960
33
0
0
SOLID
8
SOMBRA
62
252
10
194.7821
20
111.6802
30
0
11
192.6021
21
111.4299
31
0
12
192.8726
22
111.6080
32
0
13
192.8726
23
111.6080
33
0
0
SOLID
8
SOMBRA
62
252
10
192.1518
20
111.0512
30
0
11
195.5000
21
111.7074
31
0
12
196.2179
22
111.6802
32
0
13
196.2179
23
111.6802
33
0
0
SOLID
8
SOMBRA
62
252
10
192.1518
20
111.0512
30
0
11
194.7821
21
111.6802
31
0
12
195.5000
22
111.7074
32
0
13
195.5000
23
111.7074
33
0
0
SOLID
8
SOMBRA
62
252
10
192.1518
20
111.0512
30
0
11
194.0765
21
111.5992
31
0
12
194.7821
22
111.6802
32
0
13
194.7821
23
111.6802
33
0
0
SOLID
8
SOMBRA
62
252
10
192.1518
20
111.0512
30
0
11
196.2179
21
111.6802
31
0
12
196.9235
22
111.5992
32
0
13
196.9235
23
111.5992
33
0
0
SOLID
8
SOMBRA
62
252
10
194.0765
20
111.5992
30
0
11
192.3433
21
111.2595
31
0
12
192.6021
22
111.4299
32
0
13
192.6021
23
111.4299
33
0
0
SOLID
8
SOMBRA
62
252
10
201.8333
20
109.4461
30
0
11
202.5137
21
112.6476
31
0
12
203.4110
22
112.1295
32
0
13
203.4110
23
112.1295
33
0
0
SOLID
8
SOMBRA
62
252
10
192.1518
20
111.0512
30
0
11
193.3952
21
111.4657
31
0
12
194.0765
22
111.5992
32
0
13
194.0765
23
111.5992
33
0
0
SOLID
8
SOMBRA
62
252
10
192.1518
20
111.0512
30
0
11
196.9235
21
111.5992
31
0
12
197.6048
22
111.4657
32
0
13
197.6048
23
111.4657
33
0
0
SOLID
8
SOMBRA
62
253
10
196.6515
20
122.9060
30
0
11
196.7958
21
122.2314
31
0
12
196.7958
22
114.1791
32
0
13
196.7958
23
114.1791
33
0
0
SOLID
8
SOMBRA
62
252
10
193.3952
20
111.4657
30
0
11
192.0935
21
111.0951
31
0
12
192.3433
22
111.2595
32
0
13
192.3433
23
111.2595
33
0
0
SOLID
8
SOMBRA
62
252
10
192.1518
20
111.0512
30
0
11
192.7500
21
111.2820
31
0
12
193.3952
22
111.4657
32
0
13
193.3952
23
111.4657
33
0
0
SOLID
8
SOMBRA
62
252
10
192.1518
20
111.0512
30
0
11
197.6048
21
111.4657
31
0
12
198.2500
22
111.2820
32
0
13
198.2500
23
111.2820
33
0
0
SOLID
8
SOMBRA
62
252
10
192.1518
20
111.0512
30
0
11
198.2500
21
111.2820
31
0
12
198.8482
22
111.0512
32
0
13
198.8482
23
111.0512
33
0
0
SOLID
8
SOMBRA
62
252
10
192.7500
20
111.2820
30
0
11
191.8501
21
110.9348
31
0
12
192.0935
22
111.0951
32
0
13
192.0935
23
111.0951
33
0
0
SOLID
8
SOMBRA
62
252
10
200.9113
20
109.3130
30
0
11
200.8307
21
109.3014
31
0
12
198.9737
22
114.6914
32
0
13
198.9737
23
114.6914
33
0
0
SOLID
8
SOMBRA
62
252
10
202.4798
20
109.5394
30
0
11
203.4110
21
112.1295
31
0
12
204.2690
22
111.6341
32
0
13
204.2690
23
111.6341
33
0
0
SOLID
8
SOMBRA
62
252
10
192.1518
20
111.0512
30
0
11
198.8482
21
111.0512
31
0
12
199.3891
22
110.7773
32
0
13
199.3891
23
110.7773
33
0
0
SOLID
8
SOMBRA
62
252
10
192.1518
20
111.0512
30
0
11
191.6109
21
110.7773
31
0
12
191.8501
22
110.9348
32
0
13
191.8501
23
110.9348
33
0
0
SOLID
8
SOMBRA
62
252
10
201.0916
20
109.3391
30
0
11
200.9113
21
109.3130
31
0
12
200.3938
22
113.8715
32
0
13
200.3938
23
113.8715
33
0
0
SOLID
8
SOMBRA
62
252
10
203.4244
20
109.6758
30
0
11
204.2690
21
111.6341
31
0
12
205.1213
22
111.1421
32
0
13
205.1213
23
111.1421
33
0
0
SOLID
8
SOMBRA
62
252
10
192.1518
20
111.0512
30
0
11
199.3891
21
110.7773
31
0
12
199.8634
22
110.4650
32
0
13
199.8634
23
110.4650
33
0
0
SOLID
8
SOMBRA
62
252
10
192.1518
20
111.0512
30
0
11
191.1366
21
110.4650
31
0
12
191.6109
22
110.7773
32
0
13
191.6109
23
110.7773
33
0
0
SOLID
8
SOMBRA
62
252
10
201.3886
20
109.3819
30
0
11
201.0916
21
109.3391
31
0
12
201.5316
22
113.2146
32
0
13
201.5316
23
113.2146
33
0
0
SOLID
8
SOMBRA
62
253
10
201.5316
20
113.2146
30
0
11
200.3938
21
113.8715
31
0
12
200.3938
22
131.9572
32
0
13
200.3938
23
131.9572
33
0
0
SOLID
8
SOMBRA
62
252
10
204.8496
20
109.8815
30
0
11
205.1213
21
111.1421
31
0
12
205.9967
22
110.6367
32
0
13
205.9967
23
110.6367
33
0
0
SOLID
8
SOMBRA
62
252
10
192.1518
20
111.0512
30
0
11
199.8634
21
110.4650
31
0
12
200.2631
22
110.1197
32
0
13
200.2631
23
110.1197
33
0
0
SOLID
8
SOMBRA
62
252
10
192.1518
20
111.0512
30
0
11
190.7369
21
110.1197
31
0
12
191.1366
22
110.4650
32
0
13
191.1366
23
110.4650
33
0
0
SOLID
8
SOMBRA
62
252
10
201.8333
20
109.4461
30
0
11
201.3886
21
109.3819
31
0
12
202.5137
22
112.6476
32
0
13
202.5137
23
112.6476
33
0
0
SOLID
8
SOMBRA
62
252
10
202.4798
20
109.5394
30
0
11
201.8333
21
109.4461
31
0
12
203.4110
22
112.1295
32
0
13
203.4110
23
112.1295
33
0
0
SOLID
8
SOMBRA
62
252
10
192.1518
20
111.0512
30
0
11
190.4187
21
109.7472
31
0
12
190.7369
22
110.1197
32
0
13
190.7369
23
110.1197
33
0
0
SOLID
8
SOMBRA
62
252
10
192.1518
20
111.0512
30
0
11
200.2631
21
110.1197
31
0
12
200.5813
22
109.7472
32
0
13
200.5813
23
109.7472
33
0
0
SOLID
8
SOMBRA
62
252
10
203.4244
20
109.6758
30
0
11
202.4798
21
109.5394
31
0
12
204.2690
22
111.6341
32
0
13
204.2690
23
111.6341
33
0
0
SOLID
8
SOMBRA
62
252
10
204.8496
20
109.8815
30
0
11
203.4244
21
109.6758
31
0
12
205.1213
22
111.1421
32
0
13
205.1213
23
111.1421
33
0
0
SOLID
8
SOMBRA
62
253
10
196.6515
20
122.9060
30
0
11
196.6515
21
114.0958
31
0
12
184.1863
22
106.8990
32
0
13
184.1863
23
106.8990
33
0
0
SOLID
8
SOMBRA
62
252
10
204.8496
20
109.8815
30
0
11
205.9967
21
110.6367
31
0
12
206.8137
22
110.1650
32
0
13
206.8137
23
110.1650
33
0
0
SOLID
8
SOMBRA
62
253
10
200.3938
20
113.8715
30
0
11
198.9737
21
120.3413
31
0
12
200.3938
22
131.9572
32
0
13
200.3938
23
131.9572
33
0
0
SOLID
8
SOMBRA
62
252
10
192.1518
20
111.0512
30
0
11
200.5813
21
109.7472
31
0
12
200.8126
22
109.3538
32
0
13
200.8126
23
109.3538
33
0
0
SOLID
8
SOMBRA
62
252
10
192.1518
20
111.0512
30
0
11
190.1874
21
109.3538
31
0
12
190.4187
22
109.7472
32
0
13
190.4187
23
109.7472
33
0
0
SOLID
8
SOMBRA
62
252
10
192.1518
20
111.0512
30
0
11
200.8126
21
109.3538
31
0
12
200.8307
22
109.3014
32
0
13
200.8307
23
109.3014
33
0
0
SOLID
8
SOMBRA
62
252
10
192.1518
20
111.0512
30
0
11
190.0471
21
108.9464
31
0
12
190.1874
22
109.3538
32
0
13
190.1874
23
109.3538
33
0
0
SOLID
8
SOMBRA
62
252
10
205.1368
20
109.1968
30
0
11
204.8496
21
109.8815
31
0
12
206.8137
22
110.1650
32
0
13
206.8137
23
110.1650
33
0
0
SOLID
8
SOMBRA
62
252
10
192.1518
20
111.0512
30
0
11
190.0000
21
108.5320
31
0
12
190.0471
22
108.9464
32
0
13
190.0471
23
108.9464
33
0
0
SOLID
8
SOMBRA
62
252
10
186.1504
20
107.1825
30
0
11
184.1863
21
106.8990
31
0
12
196.6515
22
114.0958
32
0
13
196.6515
23
114.0958
33
0
0
SOLID
8
SOMBRA
62
252
10
192.1518
20
111.0512
30
0
11
200.8307
21
109.3014
31
0
12
190.1693
22
107.7626
32
0
13
190.1693
23
107.7626
33
0
0
SOLID
8
SOMBRA
62
252
10
192.1518
20
111.0512
30
0
11
190.0471
21
108.1175
31
0
12
190.0000
22
108.5320
32
0
13
190.0000
23
108.5320
33
0
0
SOLID
8
SOMBRA
62
252
10
200.9529
20
108.9464
30
0
11
200.8307
21
109.3014
31
0
12
200.9113
22
109.3130
32
0
13
200.9113
23
109.3130
33
0
0
SOLID
8
SOMBRA
62
252
10
201.0000
20
108.5320
30
0
11
200.9113
21
109.3130
31
0
12
201.0916
22
109.3391
32
0
13
201.0916
23
109.3391
33
0
0
SOLID
8
SOMBRA
62
252
10
192.1518
20
111.0512
30
0
11
190.1693
21
107.7626
31
0
12
190.0471
22
108.1175
32
0
13
190.0471
23
108.1175
33
0
0
SOLID
8
SOMBRA
62
252
10
200.9529
20
108.1175
30
0
11
201.0916
21
109.3391
31
0
12
201.3886
22
109.3819
32
0
13
201.3886
23
109.3819
33
0
0
SOLID
8
SOMBRA
62
252
10
200.8126
20
107.7101
30
0
11
201.3886
21
109.3819
31
0
12
201.8333
22
109.4461
32
0
13
201.8333
23
109.4461
33
0
0
SOLID
8
SOMBRA
62
252
10
200.5813
20
107.3168
30
0
11
201.8333
21
109.4461
31
0
12
202.4798
22
109.5394
32
0
13
202.4798
23
109.5394
33
0
0
SOLID
8
SOMBRA
62
252
10
200.2631
20
106.9443
30
0
11
202.4798
21
109.5394
31
0
12
203.4244
22
109.6758
32
0
13
203.4244
23
109.6758
33
0
0
SOLID
8
SOMBRA
62
252
10
199.8634
20
106.5989
30
0
11
203.4244
21
109.6758
31
0
12
204.8496
22
109.8815
32
0
13
204.8496
23
109.8815
33
0
0
SOLID
8
SOMBRA
62
252
10
200.9529
20
108.9464
30
0
11
190.1693
21
107.7626
31
0
12
200.8307
22
109.3014
32
0
13
200.8307
23
109.3014
33
0
0
SOLID
8
SOMBRA
62
252
10
200.9529
20
108.9464
30
0
11
201.0000
21
108.5320
31
0
12
200.9529
22
108.1175
32
0
13
200.9529
23
108.1175
33
0
0
SOLID
8
SOMBRA
62
252
10
205.1368
20
109.1968
30
0
11
199.3891
21
106.2866
31
0
12
204.8496
22
109.8815
32
0
13
204.8496
23
109.8815
33
0
0
SOLID
8
SOMBRA
62
253
10
202.5137
20
112.6476
30
0
11
201.5316
21
113.2146
31
0
12
201.5316
22
141.2630
32
0
13
201.5316
23
141.2630
33
0
0
SOLID
8
SOMBRA
62
252
10
187.5756
20
107.3882
30
0
11
186.1504
21
107.1825
31
0
12
191.1366
22
110.4650
32
0
13
191.1366
23
110.4650
33
0
0
SOLID
8
SOMBRA
62
252
10
188.5202
20
107.5245
30
0
11
187.5756
21
107.3882
31
0
12
190.7369
22
110.1197
32
0
13
190.7369
23
110.1197
33
0
0
SOLID
8
SOMBRA
62
252
10
189.1667
20
107.6178
30
0
11
188.5202
21
107.5245
31
0
12
190.4187
22
109.7472
32
0
13
190.4187
23
109.7472
33
0
0
SOLID
8
SOMBRA
62
252
10
200.9529
20
108.9464
30
0
11
200.9529
21
108.1175
31
0
12
200.8126
22
107.7101
32
0
13
200.8126
23
107.7101
33
0
0
SOLID
8
SOMBRA
62
252
10
189.6114
20
107.6820
30
0
11
189.1667
21
107.6178
31
0
12
190.1874
22
109.3538
32
0
13
190.1874
23
109.3538
33
0
0
SOLID
8
SOMBRA
62
252
10
200.9529
20
108.9464
30
0
11
190.1874
21
107.7101
31
0
12
190.1693
22
107.7626
32
0
13
190.1693
23
107.7626
33
0
0
SOLID
8
SOMBRA
62
252
10
189.9084
20
107.7249
30
0
11
189.6114
21
107.6820
31
0
12
190.0471
22
108.9464
32
0
13
190.0471
23
108.9464
33
0
0
SOLID
8
SOMBRA
62
252
10
190.0887
20
107.7509
30
0
11
189.9084
21
107.7249
31
0
12
190.0000
22
108.5320
32
0
13
190.0000
23
108.5320
33
0
0
SOLID
8
SOMBRA
62
252
10
200.9529
20
108.9464
30
0
11
200.8126
21
107.7101
31
0
12
200.5813
22
107.3168
32
0
13
200.5813
23
107.3168
33
0
0
SOLID
8
SOMBRA
62
252
10
200.9529
20
108.9464
30
0
11
190.4187
21
107.3168
31
0
12
190.1874
22
107.7101
32
0
13
190.1874
23
107.7101
33
0
0
SOLID
8
SOMBRA
62
252
10
190.1693
20
107.7626
30
0
11
190.0887
21
107.7509
31
0
12
190.0471
22
108.1175
32
0
13
190.0471
23
108.1175
33
0
0
SOLID
8
SOMBRA
62
252
10
200.9529
20
108.9464
30
0
11
200.5813
21
107.3168
31
0
12
200.2631
22
106.9443
32
0
13
200.2631
23
106.9443
33
0
0
SOLID
8
SOMBRA
62
252
10
200.9529
20
108.9464
30
0
11
190.7369
21
106.9443
31
0
12
190.4187
22
107.3168
32
0
13
190.4187
23
107.3168
33
0
0
SOLID
8
SOMBRA
62
252
10
200.9529
20
108.9464
30
0
11
200.2631
21
106.9443
31
0
12
199.8634
22
106.5989
32
0
13
199.8634
23
106.5989
33
0
0
SOLID
8
SOMBRA
62
252
10
200.9529
20
108.9464
30
0
11
191.1366
21
106.5989
31
0
12
190.7369
22
106.9443
32
0
13
190.7369
23
106.9443
33
0
0
SOLID
8
SOMBRA
62
252
10
205.1368
20
109.1968
30
0
11
201.1797
21
106.9122
31
0
12
198.8482
22
106.0127
32
0
13
198.8482
23
106.0127
33
0
0
SOLID
8
SOMBRA
62
252
10
200.9529
20
108.9464
30
0
11
191.6109
21
106.2866
31
0
12
191.1366
22
106.5989
32
0
13
191.1366
23
106.5989
33
0
0
SOLID
8
SOMBRA
62
252
10
200.9529
20
108.9464
30
0
11
199.8634
21
106.5989
31
0
12
199.3891
22
106.2866
32
0
13
199.3891
23
106.2866
33
0
0
SOLID
8
SOMBRA
62
252
10
200.9529
20
108.9464
30
0
11
192.1518
21
106.0127
31
0
12
191.6109
22
106.2866
32
0
13
191.6109
23
106.2866
33
0
0
SOLID
8
SOMBRA
62
252
10
200.9529
20
108.9464
30
0
11
199.3891
21
106.2866
31
0
12
198.8482
22
106.0127
32
0
13
198.8482
23
106.0127
33
0
0
SOLID
8
SOMBRA
62
252
10
200.9529
20
108.9464
30
0
11
198.8482
21
106.0127
31
0
12
198.2500
22
105.7820
32
0
13
198.2500
23
105.7820
33
0
0
SOLID
8
SOMBRA
62
252
10
200.9529
20
108.9464
30
0
11
192.7500
21
105.7820
31
0
12
192.1518
22
106.0127
32
0
13
192.1518
23
106.0127
33
0
0
SOLID
8
SOMBRA
62
252
10
185.0033
20
106.4273
30
0
11
184.1863
21
106.8990
31
0
12
186.1504
22
107.1825
32
0
13
186.1504
23
107.1825
33
0
0
SOLID
8
SOMBRA
62
252
10
185.8787
20
105.9219
30
0
11
186.1504
21
107.1825
31
0
12
187.5756
22
107.3882
32
0
13
187.5756
23
107.3882
33
0
0
SOLID
8
SOMBRA
62
252
10
186.7310
20
105.4298
30
0
11
187.5756
21
107.3882
31
0
12
188.5202
22
107.5245
32
0
13
188.5202
23
107.5245
33
0
0
SOLID
8
SOMBRA
62
252
10
200.9529
20
108.9464
30
0
11
198.2500
21
105.7820
31
0
12
197.6048
22
105.5983
32
0
13
197.6048
23
105.5983
33
0
0
SOLID
8
SOMBRA
62
252
10
200.9529
20
108.9464
30
0
11
193.3952
21
105.5983
31
0
12
192.7500
22
105.7820
32
0
13
192.7500
23
105.7820
33
0
0
SOLID
8
SOMBRA
62
252
10
187.5890
20
104.9344
30
0
11
188.5202
21
107.5245
31
0
12
189.1667
22
107.6178
32
0
13
189.1667
23
107.6178
33
0
0
SOLID
8
SOMBRA
62
252
10
200.9529
20
108.9464
30
0
11
197.6048
21
105.5983
31
0
12
196.9235
22
105.4647
32
0
13
196.9235
23
105.4647
33
0
0
SOLID
8
SOMBRA
62
252
10
200.9529
20
108.9464
30
0
11
194.0765
21
105.4647
31
0
12
193.3952
22
105.5983
32
0
13
193.3952
23
105.5983
33
0
0
SOLID
8
SOMBRA
62
252
10
200.9529
20
108.9464
30
0
11
196.9235
21
105.4647
31
0
12
196.2179
22
105.3837
32
0
13
196.2179
23
105.3837
33
0
0
SOLID
8
SOMBRA
62
252
10
200.9529
20
108.9464
30
0
11
194.7821
21
105.3837
31
0
12
194.0765
22
105.4647
32
0
13
194.0765
23
105.4647
33
0
0
SOLID
8
SOMBRA
62
252
10
188.4863
20
104.4164
30
0
11
189.1667
21
107.6178
31
0
12
189.6114
22
107.6820
32
0
13
189.6114
23
107.6820
33
0
0
SOLID
8
SOMBRA
62
252
10
200.9529
20
108.9464
30
0
11
196.2179
21
105.3837
31
0
12
195.5000
22
105.3565
32
0
13
195.5000
23
105.3565
33
0
0
SOLID
8
SOMBRA
62
252
10
200.9529
20
108.9464
30
0
11
195.5000
21
105.3565
31
0
12
194.7821
22
105.3837
32
0
13
194.7821
23
105.3837
33
0
0
SOLID
8
SOMBRA
62
252
10
185.8787
20
105.9219
30
0
11
185.0033
21
106.4273
31
0
12
186.1504
22
107.1825
32
0
13
186.1504
23
107.1825
33
0
0
SOLID
8
SOMBRA
62
252
10
189.4684
20
103.8493
30
0
11
189.6114
21
107.6820
31
0
12
189.9084
22
107.7249
32
0
13
189.9084
23
107.7249
33
0
0
SOLID
8
SOMBRA
62
253
10
203.4110
20
112.1295
30
0
11
202.5137
21
112.6476
31
0
12
202.5137
22
149.2957
32
0
13
202.5137
23
149.2957
33
0
0
SOLID
8
SOMBRA
62
252
10
201.1797
20
106.9122
30
0
11
200.1680
21
106.3281
31
0
12
198.2500
22
105.7820
32
0
13
198.2500
23
105.7820
33
0
0
SOLID
8
SOMBRA
62
252
10
186.7310
20
105.4298
30
0
11
185.8787
21
105.9219
31
0
12
187.5756
22
107.3882
32
0
13
187.5756
23
107.3882
33
0
0
SOLID
8
SOMBRA
62
252
10
190.6062
20
103.1925
30
0
11
189.9084
21
107.7249
31
0
12
190.0887
22
107.7509
32
0
13
190.0887
23
107.7509
33
0
0
SOLID
8
SOMBRA
62
252
10
200.1680
20
106.3281
30
0
11
199.5716
21
105.9837
31
0
12
197.6048
22
105.5983
32
0
13
197.6048
23
105.5983
33
0
0
SOLID
8
SOMBRA
62
252
10
187.5890
20
104.9344
30
0
11
186.7310
21
105.4298
31
0
12
188.5202
22
107.5245
32
0
13
188.5202
23
107.5245
33
0
0
SOLID
8
SOMBRA
62
252
10
192.0263
20
102.3725
30
0
11
190.0887
21
107.7509
31
0
12
190.1693
22
107.7626
32
0
13
190.1693
23
107.7626
33
0
0
SOLID
8
SOMBRA
62
253
10
201.5316
20
113.2146
30
0
11
200.3938
21
131.9572
31
0
12
201.5316
22
141.2630
32
0
13
201.5316
23
141.2630
33
0
0
SOLID
8
SOMBRA
62
252
10
199.5716
20
105.9837
30
0
11
199.1070
21
105.7155
31
0
12
196.9235
22
105.4647
32
0
13
196.9235
23
105.4647
33
0
0
SOLID
8
SOMBRA
62
252
10
188.4863
20
104.4164
30
0
11
187.5890
21
104.9344
31
0
12
189.1667
22
107.6178
32
0
13
189.1667
23
107.6178
33
0
0
SOLID
8
SOMBRA
62
252
10
199.1070
20
105.7155
30
0
11
198.6947
21
105.4774
31
0
12
196.2179
22
105.3837
32
0
13
196.2179
23
105.3837
33
0
0
SOLID
8
SOMBRA
62
252
10
198.6947
20
105.4774
30
0
11
198.3017
21
105.2505
31
0
12
195.5000
22
105.3565
32
0
13
195.5000
23
105.3565
33
0
0
SOLID
8
SOMBRA
62
252
10
189.4684
20
103.8493
30
0
11
188.4863
21
104.4164
31
0
12
189.6114
22
107.6820
32
0
13
189.6114
23
107.6820
33
0
0
SOLID
8
SOMBRA
62
252
10
198.3017
20
105.2505
30
0
11
197.9101
21
105.0245
31
0
12
194.7821
22
105.3837
32
0
13
194.7821
23
105.3837
33
0
0
SOLID
8
SOMBRA
62
252
10
197.9101
20
105.0245
30
0
11
197.5079
21
104.7922
31
0
12
194.0765
22
105.4647
32
0
13
194.0765
23
105.4647
33
0
0
SOLID
8
SOMBRA
62
252
10
197.5079
20
104.7922
30
0
11
197.0846
21
104.5478
31
0
12
193.3952
22
105.5983
32
0
13
193.3952
23
105.5983
33
0
0
SOLID
8
SOMBRA
62
252
10
190.6062
20
103.1925
30
0
11
189.4684
21
103.8493
31
0
12
189.9084
22
107.7249
32
0
13
189.9084
23
107.7249
33
0
0
SOLID
8
SOMBRA
62
252
10
197.0846
20
104.5478
30
0
11
196.6298
21
104.2853
31
0
12
192.7500
22
105.7820
32
0
13
192.7500
23
105.7820
33
0
0
SOLID
8
SOMBRA
62
252
10
196.6298
20
104.2853
30
0
11
196.1316
21
103.9977
31
0
12
192.1518
22
106.0127
32
0
13
192.1518
23
106.0127
33
0
0
SOLID
8
SOMBRA
62
252
10
196.1316
20
103.9977
30
0
11
195.5755
21
103.6766
31
0
12
191.6109
22
106.2866
32
0
13
191.6109
23
106.2866
33
0
0
SOLID
8
SOMBRA
62
253
10
204.2690
20
111.6341
30
0
11
203.4110
21
112.1295
31
0
12
203.4110
22
156.6349
32
0
13
203.4110
23
156.6349
33
0
0
SOLID
8
SOMBRA
62
252
10
195.5755
20
103.6766
30
0
11
194.9419
21
103.3108
31
0
12
191.1366
22
106.5989
32
0
13
191.1366
23
106.5989
33
0
0
SOLID
8
SOMBRA
62
252
10
192.0263
20
102.3725
30
0
11
190.6062
21
103.1925
31
0
12
190.0887
22
107.7509
32
0
13
190.0887
23
107.7509
33
0
0
SOLID
8
SOMBRA
62
252
10
194.9419
20
103.3108
30
0
11
194.2042
21
102.8849
31
0
12
190.7369
22
106.9443
32
0
13
190.7369
23
106.9443
33
0
0
SOLID
8
SOMBRA
62
252
10
194.2042
20
102.8849
30
0
11
193.3234
21
102.3763
31
0
12
190.4187
22
107.3168
32
0
13
190.4187
23
107.3168
33
0
0
SOLID
8
SOMBRA
62
252
10
193.3234
20
102.3763
30
0
11
192.0263
21
102.3725
31
0
12
190.1874
22
107.7101
32
0
13
190.1874
23
107.7101
33
0
0
SOLID
8
SOMBRA
62
253
10
205.1213
20
111.1421
30
0
11
204.2690
21
111.6341
31
0
12
204.2690
22
163.6528
32
0
13
204.2690
23
163.6528
33
0
0
SOLID
8
SOMBRA
62
252
10
193.3234
20
102.3763
30
0
11
192.6716
21
102.0000
31
0
12
192.0263
22
102.3725
32
0
13
192.0263
23
102.3725
33
0
0
SOLID
8
SOMBRA
62
253
10
202.5137
20
112.6476
30
0
11
201.5316
21
141.2630
31
0
12
202.5137
22
149.2957
32
0
13
202.5137
23
149.2957
33
0
0
SOLID
8
SOMBRA
62
253
10
197.6766
20
188.9888
30
0
11
198.3284
21
115.0639
31
0
12
197.6766
22
118.1123
32
0
13
197.6766
23
118.1123
33
0
0
SOLID
8
SOMBRA
62
252
10
192.0263
20
108.0224
30
0
11
190.6062
21
103.1925
31
0
12
192.0263
22
102.3725
32
0
13
192.0263
23
102.3725
33
0
0
SOLID
8
SOMBRA
62
252
10
193.3234
20
102.3763
30
0
11
193.3234
21
105.8010
31
0
12
192.6716
22
102.0000
32
0
13
192.6716
23
102.0000
33
0
0
SOLID
8
SOMBRA
62
253
10
198.9737
20
120.3413
30
0
11
198.3284
21
115.0639
31
0
12
198.3284
22
189.3651
32
0
13
198.3284
23
189.3651
33
0
0
SOLID
8
SOMBRA
62
252
10
193.3234
20
102.3763
30
0
11
194.2042
21
102.8849
31
0
12
194.2042
22
110.9371
32
0
13
194.2042
23
110.9371
33
0
0
SOLID
8
SOMBRA
62
252
10
192.0263
20
108.0224
30
0
11
192.0263
21
102.3725
31
0
12
192.6716
22
102.0000
32
0
13
192.6716
23
102.0000
33
0
0
SOLID
8
SOMBRA
62
252
10
194.2042
20
102.8849
30
0
11
194.9419
21
103.3108
31
0
12
194.9419
22
115.2390
32
0
13
194.9419
23
115.2390
33
0
0
SOLID
8
SOMBRA
62
253
10
205.9967
20
110.6367
30
0
11
205.1213
21
111.1421
31
0
12
205.1213
22
170.6240
32
0
13
205.1213
23
170.6240
33
0
0
SOLID
8
SOMBRA
62
252
10
194.9419
20
103.3108
30
0
11
195.5755
21
103.6766
31
0
12
195.5755
22
118.9333
32
0
13
195.5755
23
118.9333
33
0
0
SOLID
8
SOMBRA
62
252
10
195.5755
20
103.6766
30
0
11
196.1316
21
103.9977
31
0
12
196.1316
22
122.1764
32
0
13
196.1316
23
122.1764
33
0
0
SOLID
8
SOMBRA
62
252
10
196.1316
20
103.9977
30
0
11
196.6298
21
104.2853
31
0
12
196.6298
22
125.0812
32
0
13
196.6298
23
125.0812
33
0
0
SOLID
8
SOMBRA
62
252
10
193.3234
20
102.3763
30
0
11
194.2042
21
110.9371
31
0
12
193.3234
22
105.8010
32
0
13
193.3234
23
105.8010
33
0
0
SOLID
8
SOMBRA
62
252
10
196.6298
20
104.2853
30
0
11
197.0846
21
104.5478
31
0
12
197.0846
22
127.7332
32
0
13
197.0846
23
127.7332
33
0
0
SOLID
8
SOMBRA
62
252
10
197.0846
20
104.5478
30
0
11
197.5079
21
104.7922
31
0
12
197.5079
22
130.2017
32
0
13
197.5079
23
130.2017
33
0
0
SOLID
8
SOMBRA
62
252
10
190.6062
20
121.2782
30
0
11
189.4684
21
103.8493
31
0
12
190.6062
22
103.1925
32
0
13
190.6062
23
103.1925
33
0
0
SOLID
8
SOMBRA
62
252
10
197.5079
20
104.7922
30
0
11
197.9101
21
105.0245
31
0
12
197.9101
22
132.5473
32
0
13
197.9101
23
132.5473
33
0
0
SOLID
8
SOMBRA
62
252
10
197.9101
20
105.0245
30
0
11
198.3017
21
105.2505
31
0
12
198.3017
22
134.8303
32
0
13
198.3017
23
134.8303
33
0
0
SOLID
8
SOMBRA
62
252
10
198.3017
20
105.2505
30
0
11
198.6947
21
105.4774
31
0
12
198.6947
22
137.1221
32
0
13
198.6947
23
137.1221
33
0
0
SOLID
8
SOMBRA
62
253
10
196.7958
20
188.4803
30
0
11
197.6766
21
118.1123
31
0
12
196.7958
22
122.2314
32
0
13
196.7958
23
122.2314
33
0
0
SOLID
8
SOMBRA
62
252
10
198.6947
20
105.4774
30
0
11
199.1070
21
105.7155
31
0
12
199.1070
22
139.5266
32
0
13
199.1070
23
139.5266
33
0
0
SOLID
8
SOMBRA
62
252
10
199.1070
20
105.7155
30
0
11
199.5716
21
105.9837
31
0
12
199.5716
22
142.2357
32
0
13
199.5716
23
142.2357
33
0
0
SOLID
8
SOMBRA
62
252
10
194.2042
20
102.8849
30
0
11
194.9419
21
115.2390
31
0
12
194.2042
22
110.9371
32
0
13
194.2042
23
110.9371
33
0
0
SOLID
8
SOMBRA
62
252
10
199.5716
20
105.9837
30
0
11
200.1680
21
106.3281
31
0
12
200.1680
22
145.7134
32
0
13
200.1680
23
145.7134
33
0
0
SOLID
8
SOMBRA
62
252
10
189.4684
20
131.8978
30
0
11
188.4863
21
104.4164
31
0
12
189.4684
22
103.8493
32
0
13
189.4684
23
103.8493
33
0
0
SOLID
8
SOMBRA
62
253
10
206.8137
20
110.1650
30
0
11
205.9967
21
110.6367
31
0
12
205.9967
22
177.7837
32
0
13
205.9967
23
177.7837
33
0
0
SOLID
8
SOMBRA
62
252
10
200.1680
20
106.3281
30
0
11
201.1797
21
106.9122
31
0
12
201.1797
22
151.6130
32
0
13
201.1797
23
151.6130
33
0
0
SOLID
8
SOMBRA
62
252
10
192.0263
20
108.0224
30
0
11
190.6062
21
121.2782
31
0
12
190.6062
22
103.1925
32
0
13
190.6062
23
103.1925
33
0
0
SOLID
8
SOMBRA
62
253
10
196.6515
20
188.3970
30
0
11
196.7958
21
122.2314
31
0
12
196.6515
22
122.9060
32
0
13
196.6515
23
122.9060
33
0
0
SOLID
8
SOMBRA
62
252
10
194.9419
20
103.3108
30
0
11
195.5755
21
118.9333
31
0
12
194.9419
22
115.2390
32
0
13
194.9419
23
115.2390
33
0
0
SOLID
8
SOMBRA
62
253
10
203.4110
20
112.1295
30
0
11
202.5137
21
149.2957
31
0
12
203.4110
22
156.6349
32
0
13
203.4110
23
156.6349
33
0
0
SOLID
8
SOMBRA
62
252
10
188.4863
20
141.0645
30
0
11
187.5890
21
104.9344
31
0
12
188.4863
22
104.4164
32
0
13
188.4863
23
104.4164
33
0
0
SOLID
8
SOMBRA
62
252
10
195.5755
20
103.6766
30
0
11
196.1316
21
122.1764
31
0
12
195.5755
22
118.9333
32
0
13
195.5755
23
118.9333
33
0
0
SOLID
8
SOMBRA
62
253
10
200.3938
20
131.9572
30
0
11
198.9737
21
120.3413
31
0
12
198.9737
22
188.9926
32
0
13
198.9737
23
188.9926
33
0
0
SOLID
8
SOMBRA
62
252
10
187.5890
20
149.4398
30
0
11
186.7310
21
105.4298
31
0
12
187.5890
22
104.9344
32
0
13
187.5890
23
104.9344
33
0
0
SOLID
8
SOMBRA
62
252
10
196.1316
20
103.9977
30
0
11
196.6298
21
125.0812
31
0
12
196.1316
22
122.1764
32
0
13
196.1316
23
122.1764
33
0
0
SOLID
8
SOMBRA
62
252
10
201.1797
20
106.9122
30
0
11
205.1368
21
109.1968
31
0
12
205.1368
22
174.6878
32
0
13
205.1368
23
174.6878
33
0
0
SOLID
8
SOMBRA
62
252
10
205.1368
20
109.1968
30
0
11
206.8137
21
110.1650
31
0
12
206.8137
22
184.4662
32
0
13
206.8137
23
184.4662
33
0
0
SOLID
8
SOMBRA
62
252
10
196.6298
20
104.2853
30
0
11
197.0846
21
127.7332
31
0
12
196.6298
22
125.0812
32
0
13
196.6298
23
125.0812
33
0
0
SOLID
8
SOMBRA
62
252
10
186.7310
20
157.4485
30
0
11
185.8787
21
105.9219
31
0
12
186.7310
22
105.4298
32
0
13
186.7310
23
105.4298
33
0
0
SOLID
8
SOMBRA
62
252
10
197.0846
20
104.5478
30
0
11
197.5079
21
130.2017
31
0
12
197.0846
22
127.7332
32
0
13
197.0846
23
127.7332
33
0
0
SOLID
8
SOMBRA
62
252
10
185.8787
20
165.4038
30
0
11
185.0033
21
106.4273
31
0
12
185.8787
22
105.9219
32
0
13
185.8787
23
105.9219
33
0
0
SOLID
8
SOMBRA
62
252
10
197.5079
20
104.7922
30
0
11
197.9101
21
132.5473
31
0
12
197.5079
22
130.2017
32
0
13
197.5079
23
130.2017
33
0
0
SOLID
8
SOMBRA
62
252
10
190.6062
20
121.2782
30
0
11
189.4684
21
131.8978
31
0
12
189.4684
22
103.8493
32
0
13
189.4684
23
103.8493
33
0
0
SOLID
8
SOMBRA
62
253
10
204.2690
20
111.6341
30
0
11
203.4110
21
156.6349
31
0
12
204.2690
22
163.6528
32
0
13
204.2690
23
163.6528
33
0
0
SOLID
8
SOMBRA
62
252
10
197.9101
20
105.0245
30
0
11
198.3017
21
134.8303
31
0
12
197.9101
22
132.5473
32
0
13
197.9101
23
132.5473
33
0
0
SOLID
8
SOMBRA
62
253
10
196.6515
20
122.9060
30
0
11
184.1863
21
106.8990
31
0
12
184.1863
22
181.2002
32
0
13
184.1863
23
181.2002
33
0
0
SOLID
8
SOMBRA
62
252
10
185.0033
20
173.5743
30
0
11
184.1863
21
106.8990
31
0
12
185.0033
22
106.4273
32
0
13
185.0033
23
106.4273
33
0
0
SOLID
8
SOMBRA
62
252
10
198.3017
20
105.2505
30
0
11
198.6947
21
137.1221
31
0
12
198.3017
22
134.8303
32
0
13
198.3017
23
134.8303
33
0
0
SOLID
8
SOMBRA
62
252
10
198.6947
20
105.4774
30
0
11
199.1070
21
139.5266
31
0
12
198.6947
22
137.1221
32
0
13
198.6947
23
137.1221
33
0
0
SOLID
8
SOMBRA
62
252
10
199.1070
20
105.7155
30
0
11
199.5716
21
142.2357
31
0
12
199.1070
22
139.5266
32
0
13
199.1070
23
139.5266
33
0
0
SOLID
8
SOMBRA
62
253
10
201.5316
20
141.2630
30
0
11
200.3938
21
131.9572
31
0
12
200.3938
22
188.1727
32
0
13
200.3938
23
188.1727
33
0
0
SOLID
8
SOMBRA
62
252
10
199.5716
20
105.9837
30
0
11
200.1680
21
145.7134
31
0
12
199.5716
22
142.2357
32
0
13
199.5716
23
142.2357
33
0
0
SOLID
8
SOMBRA
62
252
10
189.4684
20
131.8978
30
0
11
188.4863
21
141.0645
31
0
12
188.4863
22
104.4164
32
0
13
188.4863
23
104.4164
33
0
0
SOLID
8
SOMBRA
62
253
10
205.1213
20
111.1421
30
0
11
204.2690
21
163.6528
31
0
12
205.1213
22
170.6240
32
0
13
205.1213
23
170.6240
33
0
0
SOLID
8
SOMBRA
62
252
10
200.1680
20
106.3281
30
0
11
201.1797
21
151.6130
31
0
12
200.1680
22
145.7134
32
0
13
200.1680
23
145.7134
33
0
0
SOLID
8
SOMBRA
62
252
10
188.4863
20
141.0645
30
0
11
187.5890
21
149.4398
31
0
12
187.5890
22
104.9344
32
0
13
187.5890
23
104.9344
33
0
0
SOLID
8
SOMBRA
62
253
10
197.6766
20
188.9888
30
0
11
198.3284
21
189.3651
31
0
12
198.3284
22
115.0639
32
0
13
198.3284
23
115.0639
33
0
0
SOLID
8
SOMBRA
62
253
10
202.5137
20
149.2957
30
0
11
201.5316
21
141.2630
31
0
12
201.5316
22
187.5158
32
0
13
201.5316
23
187.5158
33
0
0
SOLID
8
SOMBRA
62
253
10
205.9967
20
110.6367
30
0
11
205.1213
21
170.6240
31
0
12
205.9967
22
177.7837
32
0
13
205.9967
23
177.7837
33
0
0
SOLID
8
SOMBRA
62
252
10
201.1797
20
106.9122
30
0
11
205.1368
21
174.6878
31
0
12
201.1797
22
151.6130
32
0
13
201.1797
23
151.6130
33
0
0
SOLID
8
SOMBRA
62
253
10
196.7958
20
188.4803
30
0
11
197.6766
21
188.9888
31
0
12
197.6766
22
118.1123
32
0
13
197.6766
23
118.1123
33
0
0
SOLID
8
SOMBRA
62
252
10
187.5890
20
149.4398
30
0
11
186.7310
21
157.4485
31
0
12
186.7310
22
105.4298
32
0
13
186.7310
23
105.4298
33
0
0
SOLID
8
SOMBRA
62
252
10
193.3234
20
105.8010
30
0
11
192.6716
21
176.3012
31
0
12
192.6716
22
102.0000
32
0
13
192.6716
23
102.0000
33
0
0
SOLID
8
SOMBRA
62
253
10
198.9737
20
120.3413
30
0
11
198.3284
21
189.3651
31
0
12
198.9737
22
188.9926
32
0
13
198.9737
23
188.9926
33
0
0
SOLID
8
SOMBRA
62
252
10
192.6716
20
176.3012
30
0
11
192.0263
21
108.0224
31
0
12
192.6716
22
102.0000
32
0
13
192.6716
23
102.0000
33
0
0
SOLID
8
SOMBRA
62
252
10
193.3234
20
105.8010
30
0
11
194.2042
21
110.9371
31
0
12
194.2042
22
177.1861
32
0
13
194.2042
23
177.1861
33
0
0
SOLID
8
SOMBRA
62
253
10
196.6515
20
188.3970
30
0
11
196.7958
21
188.4803
31
0
12
196.7958
22
122.2314
32
0
13
196.7958
23
122.2314
33
0
0
SOLID
8
SOMBRA
62
252
10
194.2042
20
110.9371
30
0
11
194.9419
21
115.2390
31
0
12
194.9419
22
177.6120
32
0
13
194.9419
23
177.6120
33
0
0
SOLID
8
SOMBRA
62
252
10
186.7310
20
157.4485
30
0
11
185.8787
21
165.4038
31
0
12
185.8787
22
105.9219
32
0
13
185.8787
23
105.9219
33
0
0
SOLID
8
SOMBRA
62
253
10
206.8137
20
110.1650
30
0
11
205.9967
21
177.7837
31
0
12
206.8137
22
184.4662
32
0
13
206.8137
23
184.4662
33
0
0
SOLID
8
SOMBRA
62
252
10
194.9419
20
115.2390
30
0
11
195.5755
21
118.9333
31
0
12
195.5755
22
177.9778
32
0
13
195.5755
23
177.9778
33
0
0
SOLID
8
SOMBRA
62
253
10
203.4110
20
156.6349
30
0
11
202.5137
21
149.2957
31
0
12
202.5137
22
186.9488
32
0
13
202.5137
23
186.9488
33
0
0
SOLID
8
SOMBRA
62
253
10
200.3938
20
131.9572
30
0
11
198.9737
21
188.9926
31
0
12
200.3938
22
188.1727
32
0
13
200.3938
23
188.1727
33
0
0
SOLID
8
SOMBRA
62
252
10
192.0263
20
176.6737
30
0
11
190.6062
21
121.2782
31
0
12
192.0263
22
108.0224
32
0
13
192.0263
23
108.0224
33
0
0
SOLID
8
SOMBRA
62
252
10
205.1368
20
109.1968
30
0
11
206.8137
21
184.4662
31
0
12
205.1368
22
174.6878
32
0
13
205.1368
23
174.6878
33
0
0
SOLID
8
SOMBRA
62
252
10
195.5755
20
118.9333
30
0
11
196.1316
21
122.1764
31
0
12
196.1316
22
178.2989
32
0
13
196.1316
23
178.2989
33
0
0
SOLID
8
SOMBRA
62
253
10
196.6515
20
188.3970
30
0
11
196.6515
21
122.9060
31
0
12
184.1863
22
181.2002
32
0
13
184.1863
23
181.2002
33
0
0
SOLID
8
SOMBRA
62
252
10
196.1316
20
122.1764
30
0
11
196.6298
21
125.0812
31
0
12
196.6298
22
178.5865
32
0
13
196.6298
23
178.5865
33
0
0
SOLID
8
SOMBRA
62
252
10
185.8787
20
165.4038
30
0
11
185.0033
21
173.5743
31
0
12
185.0033
22
106.4273
32
0
13
185.0033
23
106.4273
33
0
0
SOLID
8
SOMBRA
62
252
10
196.6298
20
125.0812
30
0
11
197.0846
21
127.7332
31
0
12
197.0846
22
178.8490
32
0
13
197.0846
23
178.8490
33
0
0
SOLID
8
SOMBRA
62
252
10
197.0846
20
127.7332
30
0
11
197.5079
21
130.2017
31
0
12
197.5079
22
179.0934
32
0
13
197.5079
23
179.0934
33
0
0
SOLID
8
SOMBRA
62
253
10
201.5316
20
141.2630
30
0
11
200.3938
21
188.1727
31
0
12
201.5316
22
187.5158
32
0
13
201.5316
23
187.5158
33
0
0
SOLID
8
SOMBRA
62
252
10
197.5079
20
130.2017
30
0
11
197.9101
21
132.5473
31
0
12
197.9101
22
179.3257
32
0
13
197.9101
23
179.3257
33
0
0
SOLID
8
SOMBRA
62
253
10
204.2690
20
163.6528
30
0
11
203.4110
21
156.6349
31
0
12
203.4110
22
186.4307
32
0
13
203.4110
23
186.4307
33
0
0
SOLID
8
SOMBRA
62
252
10
190.6062
20
177.4937
30
0
11
189.4684
21
131.8978
31
0
12
190.6062
22
121.2782
32
0
13
190.6062
23
121.2782
33
0
0
SOLID
8
SOMBRA
62
252
10
197.9101
20
132.5473
30
0
11
198.3017
21
134.8303
31
0
12
198.3017
22
179.5517
32
0
13
198.3017
23
179.5517
33
0
0
SOLID
8
SOMBRA
62
252
10
185.0033
20
173.5743
30
0
11
184.1863
21
181.2002
31
0
12
184.1863
22
106.8990
32
0
13
184.1863
23
106.8990
33
0
0
SOLID
8
SOMBRA
62
252
10
198.3017
20
134.8303
30
0
11
198.6947
21
137.1221
31
0
12
198.6947
22
179.7786
32
0
13
198.6947
23
179.7786
33
0
0
SOLID
8
SOMBRA
62
252
10
198.6947
20
137.1221
30
0
11
199.1070
21
139.5266
31
0
12
199.1070
22
180.0167
32
0
13
199.1070
23
180.0167
33
0
0
SOLID
8
SOMBRA
62
253
10
202.5137
20
149.2957
30
0
11
201.5316
21
187.5158
31
0
12
202.5137
22
186.9488
32
0
13
202.5137
23
186.9488
33
0
0
SOLID
8
SOMBRA
62
252
10
199.1070
20
139.5266
30
0
11
199.5716
21
142.2357
31
0
12
199.5716
22
180.2849
32
0
13
199.5716
23
180.2849
33
0
0
SOLID
8
SOMBRA
62
252
10
199.5716
20
142.2357
30
0
11
200.1680
21
145.7134
31
0
12
200.1680
22
180.6292
32
0
13
200.1680
23
180.6292
33
0
0
SOLID
8
SOMBRA
62
252
10
189.4684
20
178.1505
30
0
11
188.4863
21
141.0645
31
0
12
189.4684
22
131.8978
32
0
13
189.4684
23
131.8978
33
0
0
SOLID
8
SOMBRA
62
253
10
205.1213
20
170.6240
30
0
11
204.2690
21
163.6528
31
0
12
204.2690
22
185.9353
32
0
13
204.2690
23
185.9353
33
0
0
SOLID
8
SOMBRA
62
252
10
200.1680
20
145.7134
30
0
11
201.1797
21
151.6130
31
0
12
201.1797
22
181.2134
32
0
13
201.1797
23
181.2134
33
0
0
SOLID
8
SOMBRA
62
253
10
203.4110
20
156.6349
30
0
11
202.5137
21
186.9488
31
0
12
203.4110
22
186.4307
32
0
13
203.4110
23
186.4307
33
0
0
SOLID
8
SOMBRA
62
252
10
188.4863
20
178.7175
30
0
11
187.5890
21
149.4398
31
0
12
188.4863
22
141.0645
32
0
13
188.4863
23
141.0645
33
0
0
SOLID
8
SOMBRA
62
253
10
204.2690
20
163.6528
30
0
11
203.4110
21
186.4307
31
0
12
204.2690
22
185.9353
32
0
13
204.2690
23
185.9353
33
0
0
SOLID
8
SOMBRA
62
252
10
201.1797
20
151.6130
30
0
11
205.1368
21
174.6878
31
0
12
205.1368
22
183.4980
32
0
13
205.1368
23
183.4980
33
0
0
SOLID
8
SOMBRA
62
254
10
197.9581
20
188.5100
30
0
11
198.3284
21
189.3651
31
0
12
197.6766
22
188.9888
32
0
13
197.6766
23
188.9888
33
0
0
SOLID
8
SOMBRA
62
253
10
205.9967
20
177.7837
30
0
11
205.1213
21
170.6240
31
0
12
205.1213
22
185.4432
32
0
13
205.1213
23
185.4432
33
0
0
SOLID
8
SOMBRA
62
252
10
193.3234
20
105.8010
30
0
11
194.2042
21
177.1861
31
0
12
193.3234
22
176.6775
32
0
13
193.3234
23
176.6775
33
0
0
SOLID
8
SOMBRA
62
252
10
194.2042
20
110.9371
30
0
11
194.9419
21
177.6120
31
0
12
194.2042
22
177.1861
32
0
13
194.2042
23
177.1861
33
0
0
SOLID
8
SOMBRA
62
252
10
193.3234
20
105.8010
30
0
11
193.3234
21
176.6775
31
0
12
192.6716
22
176.3012
32
0
13
192.6716
23
176.3012
33
0
0
SOLID
8
SOMBRA
62
254
10
197.5586
20
187.5872
30
0
11
197.9581
21
188.5100
31
0
12
197.6766
22
188.9888
32
0
13
197.6766
23
188.9888
33
0
0
SOLID
8
SOMBRA
62
254
10
197.5586
20
187.5872
30
0
11
197.6766
21
188.9888
31
0
12
196.7958
22
188.4803
32
0
13
196.7958
23
188.4803
33
0
0
SOLID
8
SOMBRA
62
252
10
194.9419
20
115.2390
30
0
11
195.5755
21
177.9778
31
0
12
194.9419
22
177.6120
32
0
13
194.9419
23
177.6120
33
0
0
SOLID
8
SOMBRA
62
252
10
187.5890
20
179.2356
30
0
11
186.7310
21
157.4485
31
0
12
187.5890
22
149.4398
32
0
13
187.5890
23
149.4398
33
0
0
SOLID
8
SOMBRA
62
253
10
205.1213
20
170.6240
30
0
11
204.2690
21
185.9353
31
0
12
205.1213
22
185.4432
32
0
13
205.1213
23
185.4432
33
0
0
SOLID
8
SOMBRA
62
252
10
192.6716
20
176.3012
30
0
11
192.0263
21
176.6737
31
0
12
192.0263
22
108.0224
32
0
13
192.0263
23
108.0224
33
0
0
SOLID
8
SOMBRA
62
254
10
197.2972
20
186.9836
30
0
11
196.7958
21
188.4803
31
0
12
196.6515
22
188.3970
32
0
13
196.6515
23
188.3970
33
0
0
SOLID
8
SOMBRA
62
252
10
195.5755
20
118.9333
30
0
11
196.1316
21
178.2989
31
0
12
195.5755
22
177.9778
32
0
13
195.5755
23
177.9778
33
0
0
SOLID
8
SOMBRA
62
254
10
197.2972
20
186.9836
30
0
11
196.6515
21
188.3970
31
0
12
196.0896
22
188.0271
32
0
13
196.0896
23
188.0271
33
0
0
SOLID
8
SOMBRA
62
252
10
196.1316
20
122.1764
30
0
11
196.6298
21
178.5865
31
0
12
196.1316
22
178.2989
32
0
13
196.1316
23
178.2989
33
0
0
SOLID
8
SOMBRA
62
254
10
197.2972
20
186.9836
30
0
11
197.5586
21
187.5872
31
0
12
196.7958
22
188.4803
32
0
13
196.7958
23
188.4803
33
0
0
SOLID
8
SOMBRA
62
252
10
196.6298
20
125.0812
30
0
11
197.0846
21
178.8490
31
0
12
196.6298
22
178.5865
32
0
13
196.6298
23
178.5865
33
0
0
SOLID
8
SOMBRA
62
252
10
197.0846
20
127.7332
30
0
11
197.5079
21
179.0934
31
0
12
197.0846
22
178.8490
32
0
13
197.0846
23
178.8490
33
0
0
SOLID
8
SOMBRA
62
254
10
197.1193
20
186.5728
30
0
11
196.0896
21
188.0271
31
0
12
195.5000
22
187.6389
32
0
13
195.5000
23
187.6389
33
0
0
SOLID
8
SOMBRA
62
254
10
200.8126
20
183.6550
30
0
11
198.9737
21
188.9926
31
0
12
198.3284
22
189.3651
32
0
13
198.3284
23
189.3651
33
0
0
SOLID
8
SOMBRA
62
252
10
197.5079
20
130.2017
30
0
11
197.9101
21
179.3257
31
0
12
197.5079
22
179.0934
32
0
13
197.5079
23
179.0934
33
0
0
SOLID
8
SOMBRA
62
252
10
197.9101
20
132.5473
30
0
11
198.3017
21
179.5517
31
0
12
197.9101
22
179.3257
32
0
13
197.9101
23
179.3257
33
0
0
SOLID
8
SOMBRA
62
254
10
197.1193
20
186.5728
30
0
11
197.2972
21
186.9836
31
0
12
196.0896
22
188.0271
32
0
13
196.0896
23
188.0271
33
0
0
SOLID
8
SOMBRA
62
254
10
200.8126
20
183.6550
30
0
11
198.3284
21
189.3651
31
0
12
197.9581
22
188.5100
32
0
13
197.9581
23
188.5100
33
0
0
SOLID
8
SOMBRA
62
252
10
198.3017
20
134.8303
30
0
11
198.6947
21
179.7786
31
0
12
198.3017
22
179.5517
32
0
13
198.3017
23
179.5517
33
0
0
SOLID
8
SOMBRA
62
254
10
196.9968
20
186.2898
30
0
11
195.5000
21
187.6389
31
0
12
194.9924
22
187.3047
32
0
13
194.9924
23
187.3047
33
0
0
SOLID
8
SOMBRA
62
252
10
198.6947
20
137.1221
30
0
11
199.1070
21
180.0167
31
0
12
198.6947
22
179.7786
32
0
13
198.6947
23
179.7786
33
0
0
SOLID
8
SOMBRA
62
252
10
201.1797
20
151.6130
30
0
11
205.1368
21
183.4980
31
0
12
201.1797
22
181.2134
32
0
13
201.1797
23
181.2134
33
0
0
SOLID
8
SOMBRA
62
252
10
199.1070
20
139.5266
30
0
11
199.5716
21
180.2849
31
0
12
199.1070
22
180.0167
32
0
13
199.1070
23
180.0167
33
0
0
SOLID
8
SOMBRA
62
254
10
196.9968
20
186.2898
30
0
11
197.1193
21
186.5728
31
0
12
195.5000
22
187.6389
32
0
13
195.5000
23
187.6389
33
0
0
SOLID
8
SOMBRA
62
254
10
196.9140
20
186.0986
30
0
11
194.9924
21
187.3047
31
0
12
194.5472
22
187.0116
32
0
13
194.5472
23
187.0116
33
0
0
SOLID
8
SOMBRA
62
254
10
200.9529
20
183.2476
30
0
11
200.3938
21
188.1727
31
0
12
198.9737
22
188.9926
32
0
13
198.9737
23
188.9926
33
0
0
SOLID
8
SOMBRA
62
252
10
199.5716
20
142.2357
30
0
11
200.1680
21
180.6292
31
0
12
199.5716
22
180.2849
32
0
13
199.5716
23
180.2849
33
0
0
SOLID
8
SOMBRA
62
254
10
200.5813
20
184.0483
30
0
11
197.9581
21
188.5100
31
0
12
197.5586
22
187.5872
32
0
13
197.5586
23
187.5872
33
0
0
SOLID
8
SOMBRA
62
252
10
200.1680
20
145.7134
30
0
11
201.1797
21
181.2134
31
0
12
200.1680
22
180.6292
32
0
13
200.1680
23
180.6292
33
0
0
SOLID
8
SOMBRA
62
252
10
192.0263
20
176.6737
30
0
11
190.6062
21
177.4937
31
0
12
190.6062
22
121.2782
32
0
13
190.6062
23
121.2782
33
0
0
SOLID
8
SOMBRA
62
254
10
196.8619
20
185.9784
30
0
11
194.5472
21
187.0116
31
0
12
194.1504
22
186.7504
32
0
13
194.1504
23
186.7504
33
0
0
SOLID
8
SOMBRA
62
254
10
196.9140
20
186.0986
30
0
11
196.9968
21
186.2898
31
0
12
194.9924
22
187.3047
32
0
13
194.9924
23
187.3047
33
0
0
SOLID
8
SOMBRA
62
254
10
196.8356
20
185.9176
30
0
11
194.1504
21
186.7504
31
0
12
193.7916
22
186.5142
32
0
13
193.7916
23
186.5142
33
0
0
SOLID
8
SOMBRA
62
254
10
196.8619
20
185.9784
30
0
11
196.9140
21
186.0986
31
0
12
194.5472
22
187.0116
32
0
13
194.5472
23
187.0116
33
0
0
SOLID
8
SOMBRA
62
254
10
200.2631
20
184.4209
30
0
11
197.5586
21
187.5872
31
0
12
197.2972
22
186.9836
32
0
13
197.2972
23
186.9836
33
0
0
SOLID
8
SOMBRA
62
253
10
205.9967
20
177.7837
30
0
11
205.1213
21
185.4432
31
0
12
205.9967
22
184.9379
32
0
13
205.9967
23
184.9379
33
0
0
SOLID
8
SOMBRA
62
254
10
196.8327
20
185.9108
30
0
11
193.7916
21
186.5142
31
0
12
193.4630
22
186.2978
32
0
13
193.4630
23
186.2978
33
0
0
SOLID
8
SOMBRA
62
254
10
196.8356
20
185.9176
30
0
11
196.8619
21
185.9784
31
0
12
194.1504
22
186.7504
32
0
13
194.1504
23
186.7504
33
0
0
SOLID
8
SOMBRA
62
254
10
201.0000
20
182.8332
30
0
11
201.5316
21
187.5158
31
0
12
200.3938
22
188.1727
32
0
13
200.3938
23
188.1727
33
0
0
SOLID
8
SOMBRA
62
252
10
195.4825
20
186.0079
30
0
11
194.7821
21
185.5732
31
0
12
195.5000
22
185.6003
32
0
13
195.5000
23
185.6003
33
0
0
SOLID
8
SOMBRA
62
252
10
196.2004
20
185.9821
30
0
11
195.5000
21
185.6003
31
0
12
196.2179
22
185.5732
32
0
13
196.2179
23
185.5732
33
0
0
SOLID
8
SOMBRA
62
254
10
196.2179
20
185.9814
30
0
11
193.4630
21
186.2978
31
0
12
193.1582
22
186.0972
32
0
13
193.1582
23
186.0972
33
0
0
SOLID
8
SOMBRA
62
254
10
196.8327
20
185.9108
30
0
11
196.8356
21
185.9176
31
0
12
193.7916
22
186.5142
32
0
13
193.7916
23
186.5142
33
0
0
SOLID
8
SOMBRA
62
254
10
199.8634
20
184.7662
30
0
11
197.2972
21
186.9836
31
0
12
197.1193
22
186.5728
32
0
13
197.1193
23
186.5728
33
0
0
SOLID
8
SOMBRA
62
252
10
194.7649
20
185.9794
30
0
11
194.0765
21
185.4921
31
0
12
194.7821
22
185.5732
32
0
13
194.7821
23
185.5732
33
0
0
SOLID
8
SOMBRA
62
252
10
186.7310
20
179.7310
30
0
11
185.8787
21
165.4038
31
0
12
186.7310
22
157.4485
32
0
13
186.7310
23
157.4485
33
0
0
SOLID
8
SOMBRA
62
252
10
195.4825
20
186.0079
30
0
11
195.5000
21
185.6003
31
0
12
195.5000
22
186.0086
32
0
13
195.5000
23
186.0086
33
0
0
SOLID
8
SOMBRA
62
252
10
196.2004
20
185.9821
30
0
11
195.5000
21
186.0086
31
0
12
195.5000
22
185.6003
32
0
13
195.5000
23
185.6003
33
0
0
SOLID
8
SOMBRA
62
252
10
196.9063
20
185.9024
30
0
11
196.2179
21
185.5732
31
0
12
196.9235
22
185.4921
32
0
13
196.9235
23
185.4921
33
0
0
SOLID
8
SOMBRA
62
252
10
195.4825
20
186.0079
30
0
11
194.7821
21
185.9814
31
0
12
194.7821
22
185.5732
32
0
13
194.7821
23
185.5732
33
0
0
SOLID
8
SOMBRA
62
252
10
196.2004
20
185.9821
30
0
11
196.2179
21
185.5732
31
0
12
196.2179
22
185.9814
32
0
13
196.2179
23
185.9814
33
0
0
SOLID
8
SOMBRA
62
252
10
194.7649
20
185.9794
30
0
11
194.7821
21
185.5732
31
0
12
194.7821
22
185.9814
32
0
13
194.7821
23
185.9814
33
0
0
SOLID
8
SOMBRA
62
252
10
196.9063
20
185.9024
30
0
11
196.2179
21
185.9814
31
0
12
196.2179
22
185.5732
32
0
13
196.2179
23
185.5732
33
0
0
SOLID
8
SOMBRA
62
254
10
195.5000
20
186.0086
30
0
11
193.1582
21
186.0972
31
0
12
192.8726
22
185.9092
32
0
13
192.8726
23
185.9092
33
0
0
SOLID
8
SOMBRA
62
252
10
194.7649
20
185.9794
30
0
11
194.0765
21
185.9004
31
0
12
194.0765
22
185.4921
32
0
13
194.0765
23
185.4921
33
0
0
SOLID
8
SOMBRA
62
252
10
194.0599
20
185.8971
30
0
11
193.3952
21
185.3586
31
0
12
194.0765
22
185.4921
32
0
13
194.0765
23
185.4921
33
0
0
SOLID
8
SOMBRA
62
254
10
199.3891
20
185.0785
30
0
11
197.1193
21
186.5728
31
0
12
196.9968
22
186.2898
32
0
13
196.9968
23
186.2898
33
0
0
SOLID
8
SOMBRA
62
253
10
205.9967
20
177.7837
30
0
11
205.9967
21
184.9379
31
0
12
206.8137
22
184.4662
32
0
13
206.8137
23
184.4662
33
0
0
SOLID
8
SOMBRA
62
252
10
196.9063
20
185.9024
30
0
11
196.9235
21
185.4921
31
0
12
196.9235
22
185.9004
32
0
13
196.9235
23
185.9004
33
0
0
SOLID
8
SOMBRA
62
252
10
194.0599
20
185.8971
30
0
11
194.0765
21
185.4921
31
0
12
194.0765
22
185.9004
32
0
13
194.0765
23
185.9004
33
0
0
SOLID
8
SOMBRA
62
252
10
197.5881
20
185.7701
30
0
11
196.9235
21
185.4921
31
0
12
197.6048
22
185.3586
32
0
13
197.6048
23
185.3586
33
0
0
SOLID
8
SOMBRA
62
252
10
197.5881
20
185.7701
30
0
11
196.9235
21
185.9004
31
0
12
196.9235
22
185.4921
32
0
13
196.9235
23
185.4921
33
0
0
SOLID
8
SOMBRA
62
254
10
198.8482
20
185.3524
30
0
11
196.9968
21
186.2898
31
0
12
196.9140
22
186.0986
32
0
13
196.9140
23
186.0986
33
0
0
SOLID
8
SOMBRA
62
254
10
196.9235
20
185.9004
30
0
11
196.8356
21
185.9176
31
0
12
196.8327
22
185.9108
32
0
13
196.8327
23
185.9108
33
0
0
SOLID
8
SOMBRA
62
254
10
197.6048
20
185.7669
30
0
11
196.8619
21
185.9784
31
0
12
196.8356
22
185.9176
32
0
13
196.8356
23
185.9176
33
0
0
SOLID
8
SOMBRA
62
254
10
198.2500
20
185.5832
30
0
11
196.9140
21
186.0986
31
0
12
196.8619
22
185.9784
32
0
13
196.8619
23
185.9784
33
0
0
SOLID
8
SOMBRA
62
252
10
194.0599
20
185.8971
30
0
11
193.3952
21
185.7669
31
0
12
193.3952
22
185.3586
32
0
13
193.3952
23
185.3586
33
0
0
SOLID
8
SOMBRA
62
254
10
194.7821
20
185.9814
30
0
11
192.8726
21
185.9092
31
0
12
192.6021
22
185.7311
32
0
13
192.6021
23
185.7311
33
0
0
SOLID
8
SOMBRA
62
252
10
193.3795
20
185.7624
30
0
11
192.7500
21
185.1749
31
0
12
193.3952
22
185.3586
32
0
13
193.3952
23
185.3586
33
0
0
SOLID
8
SOMBRA
62
252
10
197.5881
20
185.7701
30
0
11
197.6048
21
185.3586
31
0
12
197.6048
22
185.7669
32
0
13
197.6048
23
185.7669
33
0
0
SOLID
8
SOMBRA
62
252
10
193.3795
20
185.7624
30
0
11
193.3952
21
185.3586
31
0
12
193.3952
22
185.7669
32
0
13
193.3952
23
185.7669
33
0
0
SOLID
8
SOMBRA
62
252
10
198.2343
20
185.5876
30
0
11
197.6048
21
185.3586
31
0
12
198.2500
22
185.1749
32
0
13
198.2500
23
185.1749
33
0
0
SOLID
8
SOMBRA
62
252
10
198.2343
20
185.5876
30
0
11
197.6048
21
185.7669
31
0
12
197.6048
22
185.3586
32
0
13
197.6048
23
185.3586
33
0
0
SOLID
8
SOMBRA
62
254
10
194.0765
20
185.9004
30
0
11
192.6021
21
185.7311
31
0
12
192.3433
22
185.5607
32
0
13
192.3433
23
185.5607
33
0
0
SOLID
8
SOMBRA
62
252
10
193.3795
20
185.7624
30
0
11
192.7500
21
185.5832
31
0
12
192.7500
22
185.1749
32
0
13
192.7500
23
185.1749
33
0
0
SOLID
8
SOMBRA
62
252
10
198.2343
20
185.5876
30
0
11
198.2500
21
185.1749
31
0
12
198.2500
22
185.5832
32
0
13
198.2500
23
185.5832
33
0
0
SOLID
8
SOMBRA
62
252
10
192.7354
20
185.5775
30
0
11
192.7500
21
185.1749
31
0
12
192.7500
22
185.5832
32
0
13
192.7500
23
185.5832
33
0
0
SOLID
8
SOMBRA
62
252
10
192.7354
20
185.5775
30
0
11
192.1518
21
184.9441
31
0
12
192.7500
22
185.1749
32
0
13
192.7500
23
185.1749
33
0
0
SOLID
8
SOMBRA
62
252
10
190.6062
20
177.4937
30
0
11
189.4684
21
178.1505
31
0
12
189.4684
22
131.8978
32
0
13
189.4684
23
131.8978
33
0
0
SOLID
8
SOMBRA
62
254
10
200.9529
20
182.4187
30
0
11
202.5137
21
186.9488
31
0
12
201.5316
22
187.5158
32
0
13
201.5316
23
187.5158
33
0
0
SOLID
8
SOMBRA
62
252
10
198.8336
20
185.3580
30
0
11
198.2500
21
185.5832
31
0
12
198.2500
22
185.1749
32
0
13
198.2500
23
185.1749
33
0
0
SOLID
8
SOMBRA
62
254
10
193.3952
20
185.7669
30
0
11
192.3433
21
185.5607
31
0
12
192.0935
22
185.3963
32
0
13
192.0935
23
185.3963
33
0
0
SOLID
8
SOMBRA
62
252
10
198.8336
20
185.3580
30
0
11
198.2500
21
185.1749
31
0
12
198.8482
22
184.9441
32
0
13
198.8482
23
184.9441
33
0
0
SOLID
8
SOMBRA
62
252
10
192.7354
20
185.5775
30
0
11
192.1518
21
185.3524
31
0
12
192.1518
22
184.9441
32
0
13
192.1518
23
184.9441
33
0
0
SOLID
8
SOMBRA
62
252
10
198.8336
20
185.3580
30
0
11
198.8482
21
184.9441
31
0
12
198.8482
22
185.3524
32
0
13
198.8482
23
185.3524
33
0
0
SOLID
8
SOMBRA
62
252
10
192.1386
20
185.3457
30
0
11
192.1518
21
184.9441
31
0
12
192.1518
22
185.3524
32
0
13
192.1518
23
185.3524
33
0
0
SOLID
8
SOMBRA
62
254
10
192.7500
20
185.5832
30
0
11
192.0935
21
185.3963
31
0
12
191.8501
22
185.2360
32
0
13
191.8501
23
185.2360
33
0
0
SOLID
8
SOMBRA
62
252
10
192.1386
20
185.3457
30
0
11
191.6109
21
184.6703
31
0
12
192.1518
22
184.9441
32
0
13
192.1518
23
184.9441
33
0
0
SOLID
8
SOMBRA
62
252
10
199.3759
20
185.0852
30
0
11
198.8482
21
185.3524
31
0
12
198.8482
22
184.9441
32
0
13
198.8482
23
184.9441
33
0
0
SOLID
8
SOMBRA
62
252
10
199.3759
20
185.0852
30
0
11
198.8482
21
184.9441
31
0
12
199.3891
22
184.6703
32
0
13
199.3891
23
184.6703
33
0
0
SOLID
8
SOMBRA
62
252
10
205.1368
20
174.6878
30
0
11
206.8137
21
184.4662
31
0
12
205.1368
22
183.4980
32
0
13
205.1368
23
183.4980
33
0
0
SOLID
8
SOMBRA
62
252
10
192.1386
20
185.3457
30
0
11
191.6109
21
185.0785
31
0
12
191.6109
22
184.6703
32
0
13
191.6109
23
184.6703
33
0
0
SOLID
8
SOMBRA
62
254
10
192.1518
20
185.3524
30
0
11
191.8501
21
185.2360
31
0
12
191.6109
22
185.0785
32
0
13
191.6109
23
185.0785
33
0
0
SOLID
8
SOMBRA
62
252
10
199.3759
20
185.0852
30
0
11
199.3891
21
184.6703
31
0
12
199.3891
22
185.0785
32
0
13
199.3891
23
185.0785
33
0
0
SOLID
8
SOMBRA
62
254
10
195.5000
20
182.4249
30
0
11
196.2179
21
185.5732
31
0
12
195.5000
22
185.6003
32
0
13
195.5000
23
185.6003
33
0
0
SOLID
8
SOMBRA
62
254
10
195.5000
20
182.4249
30
0
11
195.5000
21
185.6003
31
0
12
194.7821
22
185.5732
32
0
13
194.7821
23
185.5732
33
0
0
SOLID
8
SOMBRA
62
252
10
191.5993
20
185.0709
30
0
11
191.6109
21
184.6703
31
0
12
191.6109
22
185.0785
32
0
13
191.6109
23
185.0785
33
0
0
SOLID
8
SOMBRA
62
254
10
200.8126
20
182.0113
30
0
11
203.4110
21
186.4307
31
0
12
202.5137
22
186.9488
32
0
13
202.5137
23
186.9488
33
0
0
SOLID
8
SOMBRA
62
254
10
195.5000
20
182.4249
30
0
11
196.9235
21
185.4921
31
0
12
196.2179
22
185.5732
32
0
13
196.2179
23
185.5732
33
0
0
SOLID
8
SOMBRA
62
254
10
195.5000
20
182.4249
30
0
11
194.7821
21
185.5732
31
0
12
194.0765
22
185.4921
32
0
13
194.0765
23
185.4921
33
0
0
SOLID
8
SOMBRA
62
252
10
191.5993
20
185.0709
30
0
11
191.1366
21
184.3580
31
0
12
191.6109
22
184.6703
32
0
13
191.6109
23
184.6703
33
0
0
SOLID
8
SOMBRA
62
252
10
199.8519
20
184.7739
30
0
11
199.3891
21
185.0785
31
0
12
199.3891
22
184.6703
32
0
13
199.3891
23
184.6703
33
0
0
SOLID
8
SOMBRA
62
254
10
195.5000
20
182.4249
30
0
11
197.6048
21
185.3586
31
0
12
196.9235
22
185.4921
32
0
13
196.9235
23
185.4921
33
0
0
SOLID
8
SOMBRA
62
254
10
195.5000
20
182.4249
30
0
11
194.0765
21
185.4921
31
0
12
193.3952
22
185.3586
32
0
13
193.3952
23
185.3586
33
0
0
SOLID
8
SOMBRA
62
252
10
199.8519
20
184.7739
30
0
11
199.3891
21
184.6703
31
0
12
199.8634
22
184.3580
32
0
13
199.8634
23
184.3580
33
0
0
SOLID
8
SOMBRA
62
252
10
191.5993
20
185.0709
30
0
11
191.1366
21
184.7662
31
0
12
191.1366
22
184.3580
32
0
13
191.1366
23
184.3580
33
0
0
SOLID
8
SOMBRA
62
254
10
195.5000
20
182.4249
30
0
11
198.2500
21
185.1749
31
0
12
197.6048
22
185.3586
32
0
13
197.6048
23
185.3586
33
0
0
SOLID
8
SOMBRA
62
254
10
195.5000
20
182.4249
30
0
11
193.3952
21
185.3586
31
0
12
192.7500
22
185.1749
32
0
13
192.7500
23
185.1749
33
0
0
SOLID
8
SOMBRA
62
252
10
199.8519
20
184.7739
30
0
11
199.8634
21
184.3580
31
0
12
199.8634
22
184.7662
32
0
13
199.8634
23
184.7662
33
0
0
SOLID
8
SOMBRA
62
252
10
191.1268
20
184.7578
30
0
11
191.1366
21
184.3580
31
0
12
191.1366
22
184.7662
32
0
13
191.1366
23
184.7662
33
0
0
SOLID
8
SOMBRA
62
252
10
189.4684
20
178.1505
30
0
11
188.4863
21
178.7175
31
0
12
188.4863
22
141.0645
32
0
13
188.4863
23
141.0645
33
0
0
SOLID
8
SOMBRA
62
254
10
195.5000
20
182.4249
30
0
11
198.8482
21
184.9441
31
0
12
198.2500
22
185.1749
32
0
13
198.2500
23
185.1749
33
0
0
SOLID
8
SOMBRA
62
254
10
195.5000
20
182.4249
30
0
11
192.7500
21
185.1749
31
0
12
192.1518
22
184.9441
32
0
13
192.1518
23
184.9441
33
0
0
SOLID
8
SOMBRA
62
252
10
191.1268
20
184.7578
30
0
11
190.7369
21
184.0126
31
0
12
191.1366
22
184.3580
32
0
13
191.1366
23
184.3580
33
0
0
SOLID
8
SOMBRA
62
252
10
200.2534
20
184.4293
30
0
11
199.8634
21
184.7662
31
0
12
199.8634
22
184.3580
32
0
13
199.8634
23
184.3580
33
0
0
SOLID
8
SOMBRA
62
252
10
200.2534
20
184.4293
30
0
11
199.8634
21
184.3580
31
0
12
200.2631
22
184.0126
32
0
13
200.2631
23
184.0126
33
0
0
SOLID
8
SOMBRA
62
254
10
200.5813
20
181.6180
30
0
11
204.2690
21
185.9353
31
0
12
203.4110
22
186.4307
32
0
13
203.4110
23
186.4307
33
0
0
SOLID
8
SOMBRA
62
254
10
195.5000
20
182.4249
30
0
11
199.3891
21
184.6703
31
0
12
198.8482
22
184.9441
32
0
13
198.8482
23
184.9441
33
0
0
SOLID
8
SOMBRA
62
254
10
195.5000
20
182.4249
30
0
11
192.1518
21
184.9441
31
0
12
191.6109
22
184.6703
32
0
13
191.6109
23
184.6703
33
0
0
SOLID
8
SOMBRA
62
252
10
191.1268
20
184.7578
30
0
11
190.7369
21
184.4209
31
0
12
190.7369
22
184.0126
32
0
13
190.7369
23
184.0126
33
0
0
SOLID
8
SOMBRA
62
252
10
200.2534
20
184.4293
30
0
11
200.2631
21
184.0126
31
0
12
200.2631
22
184.4209
32
0
13
200.2631
23
184.4209
33
0
0
SOLID
8
SOMBRA
62
252
10
190.7291
20
184.4118
30
0
11
190.7369
21
184.0126
31
0
12
190.7369
22
184.4209
32
0
13
190.7369
23
184.4209
33
0
0
SOLID
8
SOMBRA
62
254
10
195.5000
20
182.4249
30
0
11
191.6109
21
184.6703
31
0
12
191.1366
22
184.3580
32
0
13
191.1366
23
184.3580
33
0
0
SOLID
8
SOMBRA
62
254
10
195.5000
20
182.4249
30
0
11
199.8634
21
184.3580
31
0
12
199.3891
22
184.6703
32
0
13
199.3891
23
184.6703
33
0
0
SOLID
8
SOMBRA
62
252
10
190.7291
20
184.4118
30
0
11
190.4187
21
183.6401
31
0
12
190.7369
22
184.0126
32
0
13
190.7369
23
184.0126
33
0
0
SOLID
8
SOMBRA
62
252
10
200.5736
20
184.0574
30
0
11
200.2631
21
184.4209
31
0
12
200.2631
22
184.0126
32
0
13
200.2631
23
184.0126
33
0
0
SOLID
8
SOMBRA
62
252
10
200.5736
20
184.0574
30
0
11
200.2631
21
184.0126
31
0
12
200.5813
22
183.6401
32
0
13
200.5813
23
183.6401
33
0
0
SOLID
8
SOMBRA
62
252
10
190.7291
20
184.4118
30
0
11
190.4187
21
184.0483
31
0
12
190.4187
22
183.6401
32
0
13
190.4187
23
183.6401
33
0
0
SOLID
8
SOMBRA
62
254
10
195.5000
20
182.4249
30
0
11
200.2631
21
184.0126
31
0
12
199.8634
22
184.3580
32
0
13
199.8634
23
184.3580
33
0
0
SOLID
8
SOMBRA
62
254
10
195.5000
20
182.4249
30
0
11
191.1366
21
184.3580
31
0
12
190.7369
22
184.0126
32
0
13
190.7369
23
184.0126
33
0
0
SOLID
8
SOMBRA
62
254
10
200.2631
20
181.2454
30
0
11
205.1213
21
185.4432
31
0
12
204.2690
22
185.9353
32
0
13
204.2690
23
185.9353
33
0
0
SOLID
8
SOMBRA
62
252
10
200.5736
20
184.0574
30
0
11
200.5813
21
183.6401
31
0
12
200.5813
22
184.0483
32
0
13
200.5813
23
184.0483
33
0
0
SOLID
8
SOMBRA
62
252
10
190.4130
20
184.0388
30
0
11
190.4187
21
183.6401
31
0
12
190.4187
22
184.0483
32
0
13
190.4187
23
184.0483
33
0
0
SOLID
8
SOMBRA
62
252
10
185.8787
20
180.2231
30
0
11
185.0033
21
173.5743
31
0
12
185.8787
22
165.4038
32
0
13
185.8787
23
165.4038
33
0
0
SOLID
8
SOMBRA
62
252
10
190.4130
20
184.0388
30
0
11
190.1874
21
183.2468
31
0
12
190.4187
22
183.6401
32
0
13
190.4187
23
183.6401
33
0
0
SOLID
8
SOMBRA
62
252
10
188.4863
20
178.7175
30
0
11
187.5890
21
179.2356
31
0
12
187.5890
22
149.4398
32
0
13
187.5890
23
149.4398
33
0
0
SOLID
8
SOMBRA
62
252
10
200.8070
20
183.6646
30
0
11
200.5813
21
184.0483
31
0
12
200.5813
22
183.6401
32
0
13
200.5813
23
183.6401
33
0
0
SOLID
8
SOMBRA
62
254
10
195.5000
20
182.4249
30
0
11
190.7369
21
184.0126
31
0
12
190.4187
22
183.6401
32
0
13
190.4187
23
183.6401
33
0
0
SOLID
8
SOMBRA
62
254
10
195.5000
20
182.4249
30
0
11
200.5813
21
183.6401
31
0
12
200.2631
22
184.0126
32
0
13
200.2631
23
184.0126
33
0
0
SOLID
8
SOMBRA
62
252
10
200.8070
20
183.6646
30
0
11
200.5813
21
183.6401
31
0
12
200.8126
22
183.2468
32
0
13
200.8126
23
183.2468
33
0
0
SOLID
8
SOMBRA
62
252
10
190.4130
20
184.0388
30
0
11
190.1874
21
183.6550
31
0
12
190.1874
22
183.2468
32
0
13
190.1874
23
183.2468
33
0
0
SOLID
8
SOMBRA
62
254
10
199.8634
20
180.9001
30
0
11
205.9967
21
184.9379
31
0
12
205.1213
22
185.4432
32
0
13
205.1213
23
185.4432
33
0
0
SOLID
8
SOMBRA
62
252
10
200.8070
20
183.6646
30
0
11
200.8126
21
183.2468
31
0
12
200.8126
22
183.6550
32
0
13
200.8126
23
183.6550
33
0
0
SOLID
8
SOMBRA
62
252
10
190.1840
20
183.6451
30
0
11
190.1874
21
183.2468
31
0
12
190.1874
22
183.6550
32
0
13
190.1874
23
183.6550
33
0
0
SOLID
8
SOMBRA
62
254
10
195.5000
20
182.4249
30
0
11
190.4187
21
183.6401
31
0
12
190.1874
22
183.2468
32
0
13
190.1874
23
183.2468
33
0
0
SOLID
8
SOMBRA
62
254
10
195.5000
20
182.4249
30
0
11
200.8126
21
183.2468
31
0
12
200.5813
22
183.6401
32
0
13
200.5813
23
183.6401
33
0
0
SOLID
8
SOMBRA
62
252
10
190.1840
20
183.6451
30
0
11
190.0471
21
182.8394
31
0
12
190.1874
22
183.2468
32
0
13
190.1874
23
183.2468
33
0
0
SOLID
8
SOMBRA
62
252
10
200.9495
20
183.2576
30
0
11
200.8126
21
183.6550
31
0
12
200.8126
22
183.2468
32
0
13
200.8126
23
183.2468
33
0
0
SOLID
8
SOMBRA
62
252
10
200.9495
20
183.2576
30
0
11
200.8126
21
183.2468
31
0
12
200.9529
22
182.8394
32
0
13
200.9529
23
182.8394
33
0
0
SOLID
8
SOMBRA
62
254
10
195.5000
20
182.4249
30
0
11
190.1874
21
183.2468
31
0
12
190.0471
22
182.8394
32
0
13
190.0471
23
182.8394
33
0
0
SOLID
8
SOMBRA
62
254
10
195.5000
20
182.4249
30
0
11
200.9529
21
182.8394
31
0
12
200.8126
22
183.2468
32
0
13
200.8126
23
183.2468
33
0
0
SOLID
8
SOMBRA
62
252
10
190.1840
20
183.6451
30
0
11
190.0471
21
183.2476
31
0
12
190.0471
22
182.8394
32
0
13
190.0471
23
182.8394
33
0
0
SOLID
8
SOMBRA
62
254
10
196.6515
20
188.3970
30
0
11
184.1863
21
181.2002
31
0
12
185.0033
22
180.7285
32
0
13
185.0033
23
180.7285
33
0
0
SOLID
8
SOMBRA
62
254
10
199.3891
20
180.5878
30
0
11
206.8137
21
184.4662
31
0
12
205.9967
22
184.9379
32
0
13
205.9967
23
184.9379
33
0
0
SOLID
8
SOMBRA
62
252
10
200.9495
20
183.2576
30
0
11
200.9529
21
182.8394
31
0
12
200.9529
22
183.2476
32
0
13
200.9529
23
183.2476
33
0
0
SOLID
8
SOMBRA
62
252
10
190.0459
20
183.2375
30
0
11
190.0471
21
182.8394
31
0
12
190.0471
22
183.2476
32
0
13
190.0471
23
183.2476
33
0
0
SOLID
8
SOMBRA
62
252
10
187.5890
20
179.2356
30
0
11
186.7310
21
179.7310
31
0
12
186.7310
22
157.4485
32
0
13
186.7310
23
157.4485
33
0
0
SOLID
8
SOMBRA
62
252
10
190.0459
20
183.2375
30
0
11
190.0000
21
182.4249
31
0
12
190.0471
22
182.8394
32
0
13
190.0471
23
182.8394
33
0
0
SOLID
8
SOMBRA
62
252
10
200.9989
20
182.8433
30
0
11
200.9529
21
183.2476
31
0
12
200.9529
22
182.8394
32
0
13
200.9529
23
182.8394
33
0
0
SOLID
8
SOMBRA
62
254
10
195.5000
20
182.4249
30
0
11
190.0471
21
182.8394
31
0
12
190.0000
22
182.4249
32
0
13
190.0000
23
182.4249
33
0
0
SOLID
8
SOMBRA
62
254
10
195.5000
20
182.4249
30
0
11
201.0000
21
182.4249
31
0
12
200.9529
22
182.8394
32
0
13
200.9529
23
182.8394
33
0
0
SOLID
8
SOMBRA
62
252
10
200.9989
20
182.8433
30
0
11
200.9529
21
182.8394
31
0
12
201.0000
22
182.4249
32
0
13
201.0000
23
182.4249
33
0
0
SOLID
8
SOMBRA
62
252
10
190.0459
20
183.2375
30
0
11
190.0000
21
182.8332
31
0
12
190.0000
22
182.4249
32
0
13
190.0000
23
182.4249
33
0
0
SOLID
8
SOMBRA
62
252
10
200.9989
20
182.8433
30
0
11
201.0000
21
182.4249
31
0
12
201.0000
22
182.8332
32
0
13
201.0000
23
182.8332
33
0
0
SOLID
8
SOMBRA
62
254
10
195.5000
20
182.4249
30
0
11
190.0000
21
182.4249
31
0
12
190.0471
22
182.0104
32
0
13
190.0471
23
182.0104
33
0
0
SOLID
8
SOMBRA
62
254
10
195.5000
20
182.4249
30
0
11
200.9529
21
182.0104
31
0
12
201.0000
22
182.4249
32
0
13
201.0000
23
182.4249
33
0
0
SOLID
8
SOMBRA
62
252
10
190.0011
20
182.8231
30
0
11
190.0000
21
182.4249
31
0
12
190.0000
22
182.8332
32
0
13
190.0000
23
182.8332
33
0
0
SOLID
8
SOMBRA
62
254
10
199.3891
20
180.5878
30
0
11
205.1368
21
183.4980
31
0
12
206.8137
22
184.4662
32
0
13
206.8137
23
184.4662
33
0
0
SOLID
8
SOMBRA
62
252
10
190.0011
20
182.8231
30
0
11
190.0471
21
182.0104
31
0
12
190.0000
22
182.4249
32
0
13
190.0000
23
182.4249
33
0
0
SOLID
8
SOMBRA
62
252
10
200.9541
20
182.4288
30
0
11
201.0000
21
182.8332
31
0
12
201.0000
22
182.4249
32
0
13
201.0000
23
182.4249
33
0
0
SOLID
8
SOMBRA
62
252
10
200.9541
20
182.4288
30
0
11
201.0000
21
182.4249
31
0
12
200.9529
22
182.0104
32
0
13
200.9529
23
182.0104
33
0
0
SOLID
8
SOMBRA
62
254
10
195.5000
20
182.4249
30
0
11
190.0471
21
182.0104
31
0
12
190.1874
22
181.6031
32
0
13
190.1874
23
181.6031
33
0
0
SOLID
8
SOMBRA
62
254
10
195.5000
20
182.4249
30
0
11
200.8126
21
181.6031
31
0
12
200.9529
22
182.0104
32
0
13
200.9529
23
182.0104
33
0
0
SOLID
8
SOMBRA
62
252
10
190.0011
20
182.8231
30
0
11
190.0471
21
182.4187
31
0
12
190.0471
22
182.0104
32
0
13
190.0471
23
182.0104
33
0
0
SOLID
8
SOMBRA
62
252
10
186.7310
20
179.7310
30
0
11
185.8787
21
180.2231
31
0
12
185.8787
22
165.4038
32
0
13
185.8787
23
165.4038
33
0
0
SOLID
8
SOMBRA
62
252
10
200.9541
20
182.4288
30
0
11
200.9529
21
182.0104
31
0
12
200.9529
22
182.4187
32
0
13
200.9529
23
182.4187
33
0
0
SOLID
8
SOMBRA
62
252
10
190.0505
20
182.4087
30
0
11
190.0471
21
182.0104
31
0
12
190.0471
22
182.4187
32
0
13
190.0471
23
182.4187
33
0
0
SOLID
8
SOMBRA
62
252
10
190.0505
20
182.4087
30
0
11
190.1874
21
181.6031
31
0
12
190.0471
22
182.0104
32
0
13
190.0471
23
182.0104
33
0
0
SOLID
8
SOMBRA
62
254
10
195.5000
20
182.4249
30
0
11
190.1874
21
181.6031
31
0
12
190.4187
22
181.2097
32
0
13
190.4187
23
181.2097
33
0
0
SOLID
8
SOMBRA
62
254
10
195.5000
20
182.4249
30
0
11
200.5813
21
181.2097
31
0
12
200.8126
22
181.6031
32
0
13
200.8126
23
181.6031
33
0
0
SOLID
8
SOMBRA
62
253
10
200.8160
20
182.0212
30
0
11
200.9529
21
182.4187
31
0
12
200.9529
22
182.0104
32
0
13
200.9529
23
182.0104
33
0
0
SOLID
8
SOMBRA
62
253
10
200.8160
20
182.0212
30
0
11
200.9529
21
182.0104
31
0
12
200.8126
22
181.6031
32
0
13
200.8126
23
181.6031
33
0
0
SOLID
8
SOMBRA
62
252
10
190.0505
20
182.4087
30
0
11
190.1874
21
182.0113
31
0
12
190.1874
22
181.6031
32
0
13
190.1874
23
181.6031
33
0
0
SOLID
8
SOMBRA
62
254
10
195.5000
20
182.4249
30
0
11
190.4187
21
181.2097
31
0
12
190.7369
22
180.8372
32
0
13
190.7369
23
180.8372
33
0
0
SOLID
8
SOMBRA
62
254
10
195.5000
20
182.4249
30
0
11
200.2631
21
180.8372
31
0
12
200.5813
22
181.2097
32
0
13
200.5813
23
181.2097
33
0
0
SOLID
8
SOMBRA
62
253
10
200.8160
20
182.0212
30
0
11
200.8126
21
181.6031
31
0
12
200.8126
22
182.0113
32
0
13
200.8126
23
182.0113
33
0
0
SOLID
8
SOMBRA
62
252
10
185.0033
20
180.7285
30
0
11
184.1863
21
181.2002
31
0
12
185.0033
22
173.5743
32
0
13
185.0033
23
173.5743
33
0
0
SOLID
8
SOMBRA
62
252
10
190.1930
20
182.0017
30
0
11
190.1874
21
181.6031
31
0
12
190.1874
22
182.0113
32
0
13
190.1874
23
182.0113
33
0
0
SOLID
8
SOMBRA
62
252
10
190.1930
20
182.0017
30
0
11
190.4187
21
181.2097
31
0
12
190.1874
22
181.6031
32
0
13
190.1874
23
181.6031
33
0
0
SOLID
8
SOMBRA
62
253
10
200.5870
20
181.6276
30
0
11
200.8126
21
182.0113
31
0
12
200.8126
22
181.6031
32
0
13
200.8126
23
181.6031
33
0
0
SOLID
8
SOMBRA
62
254
10
191.1366
20
184.7662
30
0
11
185.0033
21
180.7285
31
0
12
185.8787
22
180.2231
32
0
13
185.8787
23
180.2231
33
0
0
SOLID
8
SOMBRA
62
253
10
200.5870
20
181.6276
30
0
11
200.8126
21
181.6031
31
0
12
200.5813
22
181.2097
32
0
13
200.5813
23
181.2097
33
0
0
SOLID
8
SOMBRA
62
254
10
195.5000
20
182.4249
30
0
11
199.8634
21
180.4918
31
0
12
200.2631
22
180.8372
32
0
13
200.2631
23
180.8372
33
0
0
SOLID
8
SOMBRA
62
254
10
195.5000
20
182.4249
30
0
11
190.7369
21
180.8372
31
0
12
191.1366
22
180.4918
32
0
13
191.1366
23
180.4918
33
0
0
SOLID
8
SOMBRA
62
252
10
190.1930
20
182.0017
30
0
11
190.4187
21
181.6180
31
0
12
190.4187
22
181.2097
32
0
13
190.4187
23
181.2097
33
0
0
SOLID
8
SOMBRA
62
252
10
185.8787
20
180.2231
30
0
11
185.0033
21
180.7285
31
0
12
185.0033
22
173.5743
32
0
13
185.0033
23
173.5743
33
0
0
SOLID
8
SOMBRA
62
253
10
200.5870
20
181.6276
30
0
11
200.5813
21
181.2097
31
0
12
200.5813
22
181.6180
32
0
13
200.5813
23
181.6180
33
0
0
SOLID
8
SOMBRA
62
252
10
190.4264
20
181.6089
30
0
11
190.4187
21
181.2097
31
0
12
190.4187
22
181.6180
32
0
13
190.4187
23
181.6180
33
0
0
SOLID
8
SOMBRA
62
254
10
198.8482
20
180.3139
30
0
11
201.1797
21
181.2134
31
0
12
205.1368
22
183.4980
32
0
13
205.1368
23
183.4980
33
0
0
SOLID
8
SOMBRA
62
254
10
195.5000
20
182.4249
30
0
11
191.1366
21
180.4918
31
0
12
191.6109
22
180.1795
32
0
13
191.6109
23
180.1795
33
0
0
SOLID
8
SOMBRA
62
254
10
195.5000
20
182.4249
30
0
11
199.3891
21
180.1795
31
0
12
199.8634
22
180.4918
32
0
13
199.8634
23
180.4918
33
0
0
SOLID
8
SOMBRA
62
252
10
190.4264
20
181.6089
30
0
11
190.7369
21
180.8372
31
0
12
190.4187
22
181.2097
32
0
13
190.4187
23
181.2097
33
0
0
SOLID
8
SOMBRA
62
253
10
200.2709
20
181.2545
30
0
11
200.5813
21
181.6180
31
0
12
200.5813
22
181.2097
32
0
13
200.5813
23
181.2097
33
0
0
SOLID
8
SOMBRA
62
253
10
200.2709
20
181.2545
30
0
11
200.5813
21
181.2097
31
0
12
200.2631
22
180.8372
32
0
13
200.2631
23
180.8372
33
0
0
SOLID
8
SOMBRA
62
254
10
190.7369
20
184.4209
30
0
11
185.8787
21
180.2231
31
0
12
186.7310
22
179.7310
32
0
13
186.7310
23
179.7310
33
0
0
SOLID
8
SOMBRA
62
254
10
195.5000
20
182.4249
30
0
11
191.6109
21
180.1795
31
0
12
192.1518
22
179.9057
32
0
13
192.1518
23
179.9057
33
0
0
SOLID
8
SOMBRA
62
254
10
195.5000
20
182.4249
30
0
11
198.8482
21
179.9057
31
0
12
199.3891
22
180.1795
32
0
13
199.3891
23
180.1795
33
0
0
SOLID
8
SOMBRA
62
252
10
190.4264
20
181.6089
30
0
11
190.7369
21
181.2454
31
0
12
190.7369
22
180.8372
32
0
13
190.7369
23
180.8372
33
0
0
SOLID
8
SOMBRA
62
253
10
200.2709
20
181.2545
30
0
11
200.2631
21
180.8372
31
0
12
200.2631
22
181.2454
32
0
13
200.2631
23
181.2454
33
0
0
SOLID
8
SOMBRA
62
253
10
190.7466
20
181.2370
30
0
11
190.7369
21
180.8372
31
0
12
190.7369
22
181.2454
32
0
13
190.7369
23
181.2454
33
0
0
SOLID
8
SOMBRA
62
254
10
195.5000
20
182.4249
30
0
11
192.1518
21
179.9057
31
0
12
192.7500
22
179.6749
32
0
13
192.7500
23
179.6749
33
0
0
SOLID
8
SOMBRA
62
254
10
195.5000
20
182.4249
30
0
11
198.2500
21
179.6749
31
0
12
198.8482
22
179.9057
32
0
13
198.8482
23
179.9057
33
0
0
SOLID
8
SOMBRA
62
253
10
190.7466
20
181.2370
30
0
11
191.1366
21
180.4918
31
0
12
190.7369
22
180.8372
32
0
13
190.7369
23
180.8372
33
0
0
SOLID
8
SOMBRA
62
253
10
199.8732
20
180.9085
30
0
11
200.2631
21
181.2454
31
0
12
200.2631
22
180.8372
32
0
13
200.2631
23
180.8372
33
0
0
SOLID
8
SOMBRA
62
253
10
199.8732
20
180.9085
30
0
11
200.2631
21
180.8372
31
0
12
199.8634
22
180.4918
32
0
13
199.8634
23
180.4918
33
0
0
SOLID
8
SOMBRA
62
254
10
195.5000
20
182.4249
30
0
11
192.7500
21
179.6749
31
0
12
193.3952
22
179.4912
32
0
13
193.3952
23
179.4912
33
0
0
SOLID
8
SOMBRA
62
254
10
195.5000
20
182.4249
30
0
11
197.6048
21
179.4912
31
0
12
198.2500
22
179.6749
32
0
13
198.2500
23
179.6749
33
0
0
SOLID
8
SOMBRA
62
253
10
190.7466
20
181.2370
30
0
11
191.1366
21
180.9001
31
0
12
191.1366
22
180.4918
32
0
13
191.1366
23
180.4918
33
0
0
SOLID
8
SOMBRA
62
254
10
195.5000
20
182.4249
30
0
11
193.3952
21
179.4912
31
0
12
194.0765
22
179.3577
32
0
13
194.0765
23
179.3577
33
0
0
SOLID
8
SOMBRA
62
254
10
195.5000
20
182.4249
30
0
11
196.9235
21
179.3577
31
0
12
197.6048
22
179.4912
32
0
13
197.6048
23
179.4912
33
0
0
SOLID
8
SOMBRA
62
254
10
190.4187
20
184.0483
30
0
11
186.7310
21
179.7310
31
0
12
187.5890
22
179.2356
32
0
13
187.5890
23
179.2356
33
0
0
SOLID
8
SOMBRA
62
253
10
199.8732
20
180.9085
30
0
11
199.8634
21
180.4918
31
0
12
199.8634
22
180.9001
32
0
13
199.8634
23
180.9001
33
0
0
SOLID
8
SOMBRA
62
253
10
191.1481
20
180.8925
30
0
11
191.1366
21
180.4918
31
0
12
191.1366
22
180.9001
32
0
13
191.1366
23
180.9001
33
0
0
SOLID
8
SOMBRA
62
254
10
195.5000
20
182.4249
30
0
11
194.0765
21
179.3577
31
0
12
194.7821
22
179.2767
32
0
13
194.7821
23
179.2767
33
0
0
SOLID
8
SOMBRA
62
254
10
195.5000
20
182.4249
30
0
11
196.2179
21
179.2767
31
0
12
196.9235
22
179.3577
32
0
13
196.9235
23
179.3577
33
0
0
SOLID
8
SOMBRA
62
253
10
191.1481
20
180.8925
30
0
11
191.6109
21
180.1795
31
0
12
191.1366
22
180.4918
32
0
13
191.1366
23
180.4918
33
0
0
SOLID
8
SOMBRA
62
254
10
195.5000
20
182.4249
30
0
11
194.7821
21
179.2767
31
0
12
195.5000
22
179.2495
32
0
13
195.5000
23
179.2495
33
0
0
SOLID
8
SOMBRA
62
254
10
195.5000
20
182.4249
30
0
11
195.5000
21
179.2495
31
0
12
196.2179
22
179.2767
32
0
13
196.2179
23
179.2767
33
0
0
SOLID
8
SOMBRA
62
253
10
199.4007
20
180.5954
30
0
11
199.8634
21
180.9001
31
0
12
199.8634
22
180.4918
32
0
13
199.8634
23
180.4918
33
0
0
SOLID
8
SOMBRA
62
253
10
199.4007
20
180.5954
30
0
11
199.8634
21
180.4918
31
0
12
199.3891
22
180.1795
32
0
13
199.3891
23
180.1795
33
0
0
SOLID
8
SOMBRA
62
253
10
191.1481
20
180.8925
30
0
11
191.6109
21
180.5878
31
0
12
191.6109
22
180.1795
32
0
13
191.6109
23
180.1795
33
0
0
SOLID
8
SOMBRA
62
253
10
199.4007
20
180.5954
30
0
11
199.3891
21
180.1795
31
0
12
199.3891
22
180.5878
32
0
13
199.3891
23
180.5878
33
0
0
SOLID
8
SOMBRA
62
253
10
191.6241
20
180.5811
30
0
11
191.6109
21
180.1795
31
0
12
191.6109
22
180.5878
32
0
13
191.6109
23
180.5878
33
0
0
SOLID
8
SOMBRA
62
254
10
198.2500
20
180.0832
30
0
11
200.1680
21
180.6292
31
0
12
201.1797
22
181.2134
32
0
13
201.1797
23
181.2134
33
0
0
SOLID
8
SOMBRA
62
253
10
191.6241
20
180.5811
30
0
11
192.1518
21
179.9057
31
0
12
191.6109
22
180.1795
32
0
13
191.6109
23
180.1795
33
0
0
SOLID
8
SOMBRA
62
253
10
198.8614
20
180.3206
30
0
11
199.3891
21
180.5878
31
0
12
199.3891
22
180.1795
32
0
13
199.3891
23
180.1795
33
0
0
SOLID
8
SOMBRA
62
253
10
198.8614
20
180.3206
30
0
11
199.3891
21
180.1795
31
0
12
198.8482
22
179.9057
32
0
13
198.8482
23
179.9057
33
0
0
SOLID
8
SOMBRA
62
254
10
190.1874
20
183.6550
30
0
11
187.5890
21
179.2356
31
0
12
188.4863
22
178.7175
32
0
13
188.4863
23
178.7175
33
0
0
SOLID
8
SOMBRA
62
253
10
191.6241
20
180.5811
30
0
11
192.1518
21
180.3139
31
0
12
192.1518
22
179.9057
32
0
13
192.1518
23
179.9057
33
0
0
SOLID
8
SOMBRA
62
253
10
198.8614
20
180.3206
30
0
11
198.8482
21
179.9057
31
0
12
198.8482
22
180.3139
32
0
13
198.8482
23
180.3139
33
0
0
SOLID
8
SOMBRA
62
253
10
192.1664
20
180.3083
30
0
11
192.1518
21
179.9057
31
0
12
192.1518
22
180.3139
32
0
13
192.1518
23
180.3139
33
0
0
SOLID
8
SOMBRA
62
253
10
192.1664
20
180.3083
30
0
11
192.7500
21
179.6749
31
0
12
192.1518
22
179.9057
32
0
13
192.1518
23
179.9057
33
0
0
SOLID
8
SOMBRA
62
253
10
198.2646
20
180.0888
30
0
11
198.8482
21
180.3139
31
0
12
198.8482
22
179.9057
32
0
13
198.8482
23
179.9057
33
0
0
SOLID
8
SOMBRA
62
253
10
198.2646
20
180.0888
30
0
11
198.8482
21
179.9057
31
0
12
198.2500
22
179.6749
32
0
13
198.2500
23
179.6749
33
0
0
SOLID
8
SOMBRA
62
254
10
197.6048
20
179.8994
30
0
11
199.5716
21
180.2849
31
0
12
200.1680
22
180.6292
32
0
13
200.1680
23
180.6292
33
0
0
SOLID
8
SOMBRA
62
253
10
192.1664
20
180.3083
30
0
11
192.7500
21
180.0832
31
0
12
192.7500
22
179.6749
32
0
13
192.7500
23
179.6749
33
0
0
SOLID
8
SOMBRA
62
253
10
192.7657
20
180.0787
30
0
11
193.3952
21
179.4912
31
0
12
192.7500
22
179.6749
32
0
13
192.7500
23
179.6749
33
0
0
SOLID
8
SOMBRA
62
253
10
198.2646
20
180.0888
30
0
11
198.2500
21
179.6749
31
0
12
198.2500
22
180.0832
32
0
13
198.2500
23
180.0832
33
0
0
SOLID
8
SOMBRA
62
253
10
192.7657
20
180.0787
30
0
11
192.7500
21
179.6749
31
0
12
192.7500
22
180.0832
32
0
13
192.7500
23
180.0832
33
0
0
SOLID
8
SOMBRA
62
253
10
197.6205
20
179.9039
30
0
11
198.2500
21
179.6749
31
0
12
197.6048
22
179.4912
32
0
13
197.6048
23
179.4912
33
0
0
SOLID
8
SOMBRA
62
253
10
197.6205
20
179.9039
30
0
11
198.2500
21
180.0832
31
0
12
198.2500
22
179.6749
32
0
13
198.2500
23
179.6749
33
0
0
SOLID
8
SOMBRA
62
254
10
190.0471
20
183.2476
30
0
11
188.4863
21
178.7175
31
0
12
189.4684
22
178.1505
32
0
13
189.4684
23
178.1505
33
0
0
SOLID
8
SOMBRA
62
253
10
192.7657
20
180.0787
30
0
11
193.3952
21
179.8994
31
0
12
193.3952
22
179.4912
32
0
13
193.3952
23
179.4912
33
0
0
SOLID
8
SOMBRA
62
254
10
196.9235
20
179.7659
30
0
11
199.1070
21
180.0167
31
0
12
199.5716
22
180.2849
32
0
13
199.5716
23
180.2849
33
0
0
SOLID
8
SOMBRA
62
253
10
193.4119
20
179.8962
30
0
11
194.0765
21
179.3577
31
0
12
193.3952
22
179.4912
32
0
13
193.3952
23
179.4912
33
0
0
SOLID
8
SOMBRA
62
253
10
197.6205
20
179.9039
30
0
11
197.6048
21
179.4912
31
0
12
197.6048
22
179.8994
32
0
13
197.6048
23
179.8994
33
0
0
SOLID
8
SOMBRA
62
253
10
193.4119
20
179.8962
30
0
11
193.3952
21
179.4912
31
0
12
193.3952
22
179.8994
32
0
13
193.3952
23
179.8994
33
0
0
SOLID
8
SOMBRA
62
253
10
196.9401
20
179.7692
30
0
11
197.6048
21
179.4912
31
0
12
196.9235
22
179.3577
32
0
13
196.9235
23
179.3577
33
0
0
SOLID
8
SOMBRA
62
253
10
196.9401
20
179.7692
30
0
11
197.6048
21
179.8994
31
0
12
197.6048
22
179.4912
32
0
13
197.6048
23
179.4912
33
0
0
SOLID
8
SOMBRA
62
253
10
193.4119
20
179.8962
30
0
11
194.0765
21
179.7659
31
0
12
194.0765
22
179.3577
32
0
13
194.0765
23
179.3577
33
0
0
SOLID
8
SOMBRA
62
253
10
194.0937
20
179.7640
30
0
11
194.7821
21
179.2767
31
0
12
194.0765
22
179.3577
32
0
13
194.0765
23
179.3577
33
0
0
SOLID
8
SOMBRA
62
253
10
196.2351
20
179.6869
30
0
11
196.9235
21
179.3577
31
0
12
196.2179
22
179.2767
32
0
13
196.2179
23
179.2767
33
0
0
SOLID
8
SOMBRA
62
253
10
196.9401
20
179.7692
30
0
11
196.9235
21
179.3577
31
0
12
196.9235
22
179.7659
32
0
13
196.9235
23
179.7659
33
0
0
SOLID
8
SOMBRA
62
253
10
194.0937
20
179.7640
30
0
11
194.0765
21
179.3577
31
0
12
194.0765
22
179.7659
32
0
13
194.0765
23
179.7659
33
0
0
SOLID
8
SOMBRA
62
254
10
196.2179
20
179.6849
30
0
11
198.6947
21
179.7786
31
0
12
199.1070
22
180.0167
32
0
13
199.1070
23
180.0167
33
0
0
SOLID
8
SOMBRA
62
253
10
194.7996
20
179.6842
30
0
11
195.5000
21
179.2495
31
0
12
194.7821
22
179.2767
32
0
13
194.7821
23
179.2767
33
0
0
SOLID
8
SOMBRA
62
253
10
196.2351
20
179.6869
30
0
11
196.9235
21
179.7659
31
0
12
196.9235
22
179.3577
32
0
13
196.9235
23
179.3577
33
0
0
SOLID
8
SOMBRA
62
253
10
195.5175
20
179.6584
30
0
11
196.2179
21
179.2767
31
0
12
195.5000
22
179.2495
32
0
13
195.5000
23
179.2495
33
0
0
SOLID
8
SOMBRA
62
254
10
192.7500
20
180.0832
30
0
11
194.0860
21
179.5678
31
0
12
194.1381
22
179.6879
32
0
13
194.1381
23
179.6879
33
0
0
SOLID
8
SOMBRA
62
253
10
194.0937
20
179.7640
30
0
11
194.7821
21
179.6849
31
0
12
194.7821
22
179.2767
32
0
13
194.7821
23
179.2767
33
0
0
SOLID
8
SOMBRA
62
254
10
193.3952
20
179.8994
30
0
11
194.1381
21
179.6879
31
0
12
194.1644
22
179.7487
32
0
13
194.1644
23
179.7487
33
0
0
SOLID
8
SOMBRA
62
254
10
194.0765
20
179.7659
30
0
11
194.1644
21
179.7487
31
0
12
194.1673
22
179.7555
32
0
13
194.1673
23
179.7555
33
0
0
SOLID
8
SOMBRA
62
253
10
196.2351
20
179.6869
30
0
11
196.2179
21
179.2767
31
0
12
196.2179
22
179.6849
32
0
13
196.2179
23
179.6849
33
0
0
SOLID
8
SOMBRA
62
254
10
192.1518
20
180.3139
30
0
11
194.0032
21
179.3765
31
0
12
194.0860
22
179.5678
32
0
13
194.0860
23
179.5678
33
0
0
SOLID
8
SOMBRA
62
253
10
194.7996
20
179.6842
30
0
11
194.7821
21
179.2767
31
0
12
194.7821
22
179.6849
32
0
13
194.7821
23
179.6849
33
0
0
SOLID
8
SOMBRA
62
253
10
195.5175
20
179.6584
30
0
11
196.2179
21
179.6849
31
0
12
196.2179
22
179.2767
32
0
13
196.2179
23
179.2767
33
0
0
SOLID
8
SOMBRA
62
253
10
194.7996
20
179.6842
30
0
11
195.5000
21
179.6577
31
0
12
195.5000
22
179.2495
32
0
13
195.5000
23
179.2495
33
0
0
SOLID
8
SOMBRA
62
253
10
195.5175
20
179.6584
30
0
11
195.5000
21
179.2495
31
0
12
195.5000
22
179.6577
32
0
13
195.5000
23
179.6577
33
0
0
SOLID
8
SOMBRA
62
254
10
191.6109
20
180.5878
30
0
11
193.8807
21
179.0935
31
0
12
194.0032
22
179.3765
32
0
13
194.0032
23
179.3765
33
0
0
SOLID
8
SOMBRA
62
254
10
195.5000
20
179.6577
30
0
11
198.3017
21
179.5517
31
0
12
198.6947
22
179.7786
32
0
13
198.6947
23
179.7786
33
0
0
SOLID
8
SOMBRA
62
254
10
191.1366
20
180.9001
30
0
11
193.7028
21
178.6827
31
0
12
193.8807
22
179.0935
32
0
13
193.8807
23
179.0935
33
0
0
SOLID
8
SOMBRA
62
254
10
197.5079
20
179.0934
30
0
11
194.1673
21
179.7555
31
0
12
194.1644
22
179.7487
32
0
13
194.1644
23
179.7487
33
0
0
SOLID
8
SOMBRA
62
254
10
194.7821
20
179.6849
30
0
11
197.9101
21
179.3257
31
0
12
198.3017
22
179.5517
32
0
13
198.3017
23
179.5517
33
0
0
SOLID
8
SOMBRA
62
254
10
190.0000
20
182.8332
30
0
11
189.4684
21
178.1505
31
0
12
190.6062
22
177.4937
32
0
13
190.6062
23
177.4937
33
0
0
SOLID
8
SOMBRA
62
254
10
197.0846
20
178.8490
30
0
11
194.1644
21
179.7487
31
0
12
194.1381
22
179.6879
32
0
13
194.1381
23
179.6879
33
0
0
SOLID
8
SOMBRA
62
254
10
197.5079
20
179.0934
30
0
11
197.9101
21
179.3257
31
0
12
194.1673
22
179.7555
32
0
13
194.1673
23
179.7555
33
0
0
SOLID
8
SOMBRA
62
254
10
190.7369
20
181.2454
30
0
11
193.4414
21
178.0791
31
0
12
193.7028
22
178.6827
32
0
13
193.7028
23
178.6827
33
0
0
SOLID
8
SOMBRA
62
254
10
196.6298
20
178.5865
30
0
11
194.1381
21
179.6879
31
0
12
194.0860
22
179.5678
32
0
13
194.0860
23
179.5678
33
0
0
SOLID
8
SOMBRA
62
254
10
197.0846
20
178.8490
30
0
11
197.5079
21
179.0934
31
0
12
194.1644
22
179.7487
32
0
13
194.1644
23
179.7487
33
0
0
SOLID
8
SOMBRA
62
254
10
196.1316
20
178.2989
30
0
11
194.0860
21
179.5678
31
0
12
194.0032
22
179.3765
32
0
13
194.0032
23
179.3765
33
0
0
SOLID
8
SOMBRA
62
254
10
196.6298
20
178.5865
30
0
11
197.0846
21
178.8490
31
0
12
194.1381
22
179.6879
32
0
13
194.1381
23
179.6879
33
0
0
SOLID
8
SOMBRA
62
254
10
190.4187
20
181.6180
30
0
11
193.0419
21
177.1564
31
0
12
193.4414
22
178.0791
32
0
13
193.4414
23
178.0791
33
0
0
SOLID
8
SOMBRA
62
254
10
190.0471
20
182.4187
30
0
11
190.6062
21
177.4937
31
0
12
192.0263
22
176.6737
32
0
13
192.0263
23
176.6737
33
0
0
SOLID
8
SOMBRA
62
254
10
196.1316
20
178.2989
30
0
11
196.6298
21
178.5865
31
0
12
194.0860
22
179.5678
32
0
13
194.0860
23
179.5678
33
0
0
SOLID
8
SOMBRA
62
254
10
195.5755
20
177.9778
30
0
11
194.0032
21
179.3765
31
0
12
193.8807
22
179.0935
32
0
13
193.8807
23
179.0935
33
0
0
SOLID
8
SOMBRA
62
254
10
193.0419
20
177.1564
30
0
11
190.1874
21
182.0113
31
0
12
192.0263
22
176.6737
32
0
13
192.0263
23
176.6737
33
0
0
SOLID
8
SOMBRA
62
254
10
195.5755
20
177.9778
30
0
11
196.1316
21
178.2989
31
0
12
194.0032
22
179.3765
32
0
13
194.0032
23
179.3765
33
0
0
SOLID
8
SOMBRA
62
254
10
194.9419
20
177.6120
30
0
11
193.8807
21
179.0935
31
0
12
193.7028
22
178.6827
32
0
13
193.7028
23
178.6827
33
0
0
SOLID
8
SOMBRA
62
254
10
194.9419
20
177.6120
30
0
11
195.5755
21
177.9778
31
0
12
193.8807
22
179.0935
32
0
13
193.8807
23
179.0935
33
0
0
SOLID
8
SOMBRA
62
254
10
194.2042
20
177.1861
30
0
11
193.7028
21
178.6827
31
0
12
193.4414
22
178.0791
32
0
13
193.4414
23
178.0791
33
0
0
SOLID
8
SOMBRA
62
254
10
194.2042
20
177.1861
30
0
11
194.9419
21
177.6120
31
0
12
193.7028
22
178.6827
32
0
13
193.7028
23
178.6827
33
0
0
SOLID
8
SOMBRA
62
254
10
193.3234
20
176.6775
30
0
11
194.2042
21
177.1861
31
0
12
193.4414
22
178.0791
32
0
13
193.4414
23
178.0791
33
0
0
SOLID
8
SOMBRA
62
254
10
193.3234
20
176.6775
30
0
11
193.4414
21
178.0791
31
0
12
193.0419
22
177.1564
32
0
13
193.0419
23
177.1564
33
0
0
SOLID
8
SOMBRA
62
254
10
193.3234
20
176.6775
30
0
11
193.0419
21
177.1564
31
0
12
192.6716
22
176.3012
32
0
13
192.6716
23
176.3012
33
0
0
SOLID
8
SOMBRA
62
254
10
193.0419
20
177.1564
30
0
11
192.0263
21
176.6737
31
0
12
192.6716
22
176.3012
32
0
13
192.6716
23
176.3012
33
0
0
LINE
8
VISIBLE
10
185.0033
20
180.7285
30
0
11
184.1863
21
181.2002
31
0
0
LINE
8
VISIBLE
10
184.1863
20
181.2002
30
0
11
184.1863
21
106.8990
31
0
0
LINE
8
VISIBLE
10
184.1863
20
106.8990
30
0
11
185.0033
21
106.4273
31
0
0
LINE
8
VISIBLE
10
185.8787
20
180.2231
30
0
11
185.0033
21
180.7285
31
0
0
LINE
8
VISIBLE
10
185.0033
20
106.4273
30
0
11
185.8787
21
105.9219
31
0
0
LINE
8
VISIBLE
10
186.7310
20
179.7310
30
0
11
185.8787
21
180.2231
31
0
0
LINE
8
VISIBLE
10
185.8787
20
105.9219
30
0
11
186.7310
21
105.4298
31
0
0
LINE
8
VISIBLE
10
187.5890
20
179.2356
30
0
11
186.7310
21
179.7310
31
0
0
LINE
8
VISIBLE
10
186.7310
20
105.4298
30
0
11
187.5890
21
104.9344
31
0
0
LINE
8
VISIBLE
10
188.4863
20
178.7175
30
0
11
187.5890
21
179.2356
31
0
0
LINE
8
VISIBLE
10
187.5890
20
104.9344
30
0
11
188.4863
21
104.4164
31
0
0
LINE
8
VISIBLE
10
189.4684
20
178.1505
30
0
11
188.4863
21
178.7175
31
0
0
LINE
8
VISIBLE
10
188.4863
20
104.4164
30
0
11
189.4684
21
103.8493
31
0
0
LINE
8
VISIBLE
10
190.6062
20
177.4937
30
0
11
189.4684
21
178.1505
31
0
0
LINE
8
VISIBLE
10
189.4684
20
103.8493
30
0
11
190.6062
21
103.1925
31
0
0
LINE
8
VISIBLE
10
192.0263
20
176.6737
30
0
11
190.6062
21
177.4937
31
0
0
LINE
8
VISIBLE
10
190.6062
20
103.1925
30
0
11
192.0263
21
102.3725
31
0
0
LINE
8
VISIBLE
10
192.6716
20
176.3012
30
0
11
192.0263
21
176.6737
31
0
0
LINE
8
VISIBLE
10
192.6716
20
102.0000
30
0
11
192.6716
21
176.3012
31
0
0
LINE
8
VISIBLE
10
192.0263
20
102.3725
30
0
11
192.6716
21
102.0000
31
0
0
LINE
8
VISIBLE
10
206.8137
20
110.1650
30
0
11
205.9967
21
110.6367
31
0
0
LINE
8
VISIBLE
10
206.8137
20
184.4662
30
0
11
206.8137
21
110.1650
31
0
0
LINE
8
VISIBLE
10
205.9967
20
184.9379
30
0
11
206.8137
21
184.4662
31
0
0
LINE
8
VISIBLE
10
205.9967
20
110.6367
30
0
11
205.1213
21
111.1421
31
0
0
LINE
8
VISIBLE
10
205.1213
20
185.4432
30
0
11
205.9967
21
184.9379
31
0
0
LINE
8
VISIBLE
10
205.1213
20
111.1421
30
0
11
204.2690
21
111.6341
31
0
0
LINE
8
VISIBLE
10
204.2690
20
185.9353
30
0
11
205.1213
21
185.4432
31
0
0
LINE
8
VISIBLE
10
204.2690
20
111.6341
30
0
11
203.4110
21
112.1295
31
0
0
LINE
8
VISIBLE
10
203.4110
20
186.4307
30
0
11
204.2690
21
185.9353
31
0
0
LINE
8
VISIBLE
10
203.4110
20
112.1295
30
0
11
202.5137
21
112.6476
31
0
0
LINE
8
VISIBLE
10
202.5137
20
186.9488
30
0
11
203.4110
21
186.4307
31
0
0
LINE
8
VISIBLE
10
202.5137
20
112.6476
30
0
11
201.5316
21
113.2146
31
0
0
LINE
8
VISIBLE
10
201.5316
20
187.5158
30
0
11
202.5137
21
186.9488
31
0
0
LINE
8
VISIBLE
10
201.5316
20
113.2146
30
0
11
200.3938
21
113.8715
31
0
0
LINE
8
VISIBLE
10
200.3938
20
188.1727
30
0
11
201.5316
21
187.5158
31
0
0
LINE
8
VISIBLE
10
200.3938
20
113.8715
30
0
11
198.9737
21
114.6914
31
0
0
LINE
8
VISIBLE
10
198.9737
20
188.9926
30
0
11
200.3938
21
188.1727
31
0
0
LINE
8
VISIBLE
10
198.9737
20
114.6914
30
0
11
198.3284
21
115.0639
31
0
0
LINE
8
VISIBLE
10
198.3284
20
115.0639
30
0
11
198.3284
21
189.3651
31
0
0
LINE
8
VISIBLE
10
198.3284
20
189.3651
30
0
11
198.9737
21
188.9926
31
0
0
LINE
8
VISIBLE
10
192.6716
20
102.0000
30
0
11
193.3234
21
102.3763
31
0
0
LINE
8
VISIBLE
10
193.3234
20
176.6775
30
0
11
192.6716
21
176.3012
31
0
0
LINE
8
VISIBLE
10
193.3234
20
102.3763
30
0
11
194.2042
21
102.8849
31
0
0
LINE
8
VISIBLE
10
194.2042
20
177.1861
30
0
11
193.3234
21
176.6775
31
0
0
LINE
8
VISIBLE
10
194.2042
20
102.8849
30
0
11
194.9419
21
103.3108
31
0
0
LINE
8
VISIBLE
10
194.9419
20
177.6120
30
0
11
194.2042
21
177.1861
31
0
0
LINE
8
VISIBLE
10
194.9419
20
103.3108
30
0
11
195.5755
21
103.6766
31
0
0
LINE
8
VISIBLE
10
195.5755
20
177.9778
30
0
11
194.9419
21
177.6120
31
0
0
LINE
8
VISIBLE
10
195.5755
20
103.6766
30
0
11
196.1316
21
103.9977
31
0
0
LINE
8
VISIBLE
10
196.1316
20
178.2989
30
0
11
195.5755
21
177.9778
31
0
0
LINE
8
VISIBLE
10
196.1316
20
103.9977
30
0
11
196.6298
21
104.2853
31
0
0
LINE
8
VISIBLE
10
196.6298
20
178.5865
30
0
11
196.1316
21
178.2989
31
0
0
LINE
8
VISIBLE
10
196.6298
20
104.2853
30
0
11
197.0846
21
104.5478
31
0
0
LINE
8
VISIBLE
10
197.0846
20
178.8490
30
0
11
196.6298
21
178.5865
31
0
0
LINE
8
VISIBLE
10
197.0846
20
104.5478
30
0
11
197.5079
21
104.7922
31
0
0
LINE
8
VISIBLE
10
197.5079
20
179.0934
30
0
11
197.0846
21
178.8490
31
0
0
LINE
8
VISIBLE
10
197.5079
20
104.7922
30
0
11
197.9101
21
105.0245
31
0
0
LINE
8
VISIBLE
10
197.9101
20
179.3257
30
0
11
197.5079
21
179.0934
31
0
0
LINE
8
VISIBLE
10
197.9101
20
105.0245
30
0
11
198.3017
21
105.2505
31
0
0
LINE
8
VISIBLE
10
198.3017
20
179.5517
30
0
11
197.9101
21
179.3257
31
0
0
LINE
8
VISIBLE
10
198.3017
20
105.2505
30
0
11
198.6947
21
105.4774
31
0
0
LINE
8
VISIBLE
10
198.6947
20
179.7786
30
0
11
198.3017
21
179.5517
31
0
0
LINE
8
VISIBLE
10
198.6947
20
105.4774
30
0
11
199.1070
21
105.7155
31
0
0
LINE
8
VISIBLE
10
199.1070
20
180.0167
30
0
11
198.6947
21
179.7786
31
0
0
LINE
8
VISIBLE
10
199.1070
20
105.7155
30
0
11
199.5716
21
105.9837
31
0
0
LINE
8
VISIBLE
10
199.5716
20
180.2849
30
0
11
199.1070
21
180.0167
31
0
0
LINE
8
VISIBLE
10
199.5716
20
105.9837
30
0
11
200.1680
21
106.3281
31
0
0
LINE
8
VISIBLE
10
200.1680
20
180.6292
30
0
11
199.5716
21
180.2849
31
0
0
LINE
8
VISIBLE
10
200.1680
20
106.3281
30
0
11
201.1797
21
106.9122
31
0
0
LINE
8
VISIBLE
10
201.1797
20
181.2134
30
0
11
200.1680
21
180.6292
31
0
0
LINE
8
VISIBLE
10
201.1797
20
106.9122
30
0
11
205.1368
21
109.1968
31
0
0
LINE
8
VISIBLE
10
205.1368
20
183.4980
30
0
11
201.1797
21
181.2134
31
0
0
LINE
8
VISIBLE
10
205.1368
20
109.1968
30
0
11
206.8137
21
110.1650
31
0
0
LINE
8
VISIBLE
10
206.8137
20
184.4662
30
0
11
205.1368
21
183.4980
31
0
0
LINE
8
VISIBLE
10
184.1863
20
181.2002
30
0
11
196.6515
21
188.3970
31
0
0
LINE
8
VISIBLE
10
196.6515
20
114.0958
30
0
11
184.1863
21
106.8990
31
0
0
LINE
8
VISIBLE
10
197.6766
20
188.9888
30
0
11
198.3284
21
189.3651
31
0
0
LINE
8
VISIBLE
10
198.3284
20
115.0639
30
0
11
197.6766
21
114.6876
31
0
0
LINE
8
VISIBLE
10
196.7958
20
188.4803
30
0
11
197.6766
21
188.9888
31
0
0
LINE
8
VISIBLE
10
197.6766
20
114.6876
30
0
11
196.7958
21
114.1791
31
0
0
LINE
8
VISIBLE
10
196.6515
20
188.3970
30
0
11
196.7958
21
188.4803
31
0
0
LINE
8
VISIBLE
10
196.7958
20
114.1791
30
0
11
196.6515
21
114.0958
31
0
0
LINE
8
VISIBLE
10
194.1381
20
179.6879
30
0
11
192.7500
21
180.0832
31
0
0
LINE
8
VISIBLE
10
194.1644
20
179.7487
30
0
11
193.3952
21
179.8994
31
0
0
LINE
8
VISIBLE
10
194.1673
20
179.7555
30
0
11
194.0765
21
179.7659
31
0
0
LINE
8
VISIBLE
10
196.6515
20
188.3970
30
0
11
196.0896
21
188.0271
31
0
0
LINE
8
VISIBLE
10
196.8619
20
185.9784
30
0
11
198.2500
21
185.5832
31
0
0
LINE
8
VISIBLE
10
196.8356
20
185.9176
30
0
11
197.6048
21
185.7669
31
0
0
LINE
8
VISIBLE
10
196.8327
20
185.9108
30
0
11
196.9235
21
185.9004
31
0
0
LINE
8
VISIBLE
10
192.3433
20
185.5607
30
0
11
194.0765
21
185.9004
31
0
0
LINE
8
VISIBLE
10
192.0935
20
185.3963
30
0
11
193.3952
21
185.7669
31
0
0
LINE
8
VISIBLE
10
191.8501
20
185.2360
30
0
11
192.7500
21
185.5832
31
0
0
LINE
8
VISIBLE
10
191.6109
20
185.0785
30
0
11
192.1518
21
185.3524
31
0
0
LINE
8
VISIBLE
10
196.0896
20
113.7259
30
0
11
196.6515
21
114.0958
31
0
0
LINE
8
VISIBLE
10
191.6109
20
185.0785
30
0
11
191.5993
21
185.0709
31
0
0
LINE
8
VISIBLE
10
191.5993
20
185.0709
30
0
11
191.1366
21
184.7662
31
0
0
LINE
8
VISIBLE
10
191.1366
20
184.3580
30
0
11
191.6109
21
184.6703
31
0
0
LINE
8
VISIBLE
10
191.1366
20
184.7662
30
0
11
191.1268
21
184.7578
31
0
0
LINE
8
VISIBLE
10
191.1268
20
184.7578
30
0
11
190.7369
21
184.4209
31
0
0
LINE
8
VISIBLE
10
190.7369
20
184.0126
30
0
11
191.1366
21
184.3580
31
0
0
LINE
8
VISIBLE
10
190.7369
20
184.4209
30
0
11
190.7291
21
184.4118
31
0
0
LINE
8
VISIBLE
10
190.7291
20
184.4118
30
0
11
190.4187
21
184.0483
31
0
0
LINE
8
VISIBLE
10
190.4187
20
183.6401
30
0
11
190.7369
21
184.0126
31
0
0
LINE
8
VISIBLE
10
190.4187
20
184.0483
30
0
11
190.4130
21
184.0388
31
0
0
LINE
8
VISIBLE
10
190.4130
20
184.0388
30
0
11
190.1874
21
183.6550
31
0
0
LINE
8
VISIBLE
10
190.1874
20
183.2468
30
0
11
190.4187
21
183.6401
31
0
0
LINE
8
VISIBLE
10
190.1874
20
183.6550
30
0
11
190.1840
21
183.6451
31
0
0
LINE
8
VISIBLE
10
190.1840
20
183.6451
30
0
11
190.0471
21
183.2476
31
0
0
LINE
8
VISIBLE
10
190.0471
20
182.8394
30
0
11
190.1874
21
183.2468
31
0
0
LINE
8
VISIBLE
10
190.0471
20
183.2476
30
0
11
190.0459
21
183.2375
31
0
0
LINE
8
VISIBLE
10
190.0459
20
183.2375
30
0
11
190.0000
21
182.8332
31
0
0
LINE
8
VISIBLE
10
190.0000
20
182.4249
30
0
11
190.0471
21
182.8394
31
0
0
LINE
8
VISIBLE
10
190.0000
20
182.8332
30
0
11
190.0011
21
182.8231
31
0
0
LINE
8
VISIBLE
10
190.0011
20
182.8231
30
0
11
190.0471
21
182.4187
31
0
0
LINE
8
VISIBLE
10
190.0471
20
182.0104
30
0
11
190.0000
21
182.4249
31
0
0
LINE
8
VISIBLE
10
190.0471
20
182.4187
30
0
11
190.0505
21
182.4087
31
0
0
LINE
8
VISIBLE
10
190.0505
20
182.4087
30
0
11
190.1874
21
182.0113
31
0
0
LINE
8
VISIBLE
10
190.1874
20
181.6031
30
0
11
190.0471
21
182.0104
31
0
0
LINE
8
VISIBLE
10
190.1874
20
182.0113
30
0
11
190.1930
21
182.0017
31
0
0
LINE
8
VISIBLE
10
190.1930
20
182.0017
30
0
11
190.4187
21
181.6180
31
0
0
LINE
8
VISIBLE
10
190.4187
20
181.2097
30
0
11
190.1874
21
181.6031
31
0
0
LINE
8
VISIBLE
10
190.4187
20
181.6180
30
0
11
190.4264
21
181.6089
31
0
0
LINE
8
VISIBLE
10
190.4264
20
181.6089
30
0
11
190.7369
21
181.2454
31
0
0
LINE
8
VISIBLE
10
190.7369
20
180.8372
30
0
11
190.4187
21
181.2097
31
0
0
LINE
8
VISIBLE
10
190.7369
20
181.2454
30
0
11
190.7466
21
181.2370
31
0
0
LINE
8
VISIBLE
10
190.7466
20
181.2370
30
0
11
191.1366
21
180.9001
31
0
0
LINE
8
VISIBLE
10
191.1366
20
180.4918
30
0
11
190.7369
21
180.8372
31
0
0
LINE
8
VISIBLE
10
191.1366
20
180.9001
30
0
11
191.1481
21
180.8925
31
0
0
LINE
8
VISIBLE
10
191.1481
20
180.8925
30
0
11
191.6109
21
180.5878
31
0
0
LINE
8
VISIBLE
10
191.6109
20
180.1795
30
0
11
191.1366
21
180.4918
31
0
0
LINE
8
VISIBLE
10
191.6109
20
180.5878
30
0
11
191.6241
21
180.5811
31
0
0
LINE
8
VISIBLE
10
191.6241
20
180.5811
30
0
11
192.1518
21
180.3139
31
0
0
LINE
8
VISIBLE
10
192.1518
20
179.9057
30
0
11
191.6109
21
180.1795
31
0
0
LINE
8
VISIBLE
10
192.1518
20
180.3139
30
0
11
192.1664
21
180.3083
31
0
0
LINE
8
VISIBLE
10
192.1664
20
180.3083
30
0
11
192.7500
21
180.0832
31
0
0
LINE
8
VISIBLE
10
192.7500
20
179.6749
30
0
11
192.1518
21
179.9057
31
0
0
LINE
8
VISIBLE
10
192.7500
20
180.0832
30
0
11
192.7657
21
180.0787
31
0
0
LINE
8
VISIBLE
10
192.7657
20
180.0787
30
0
11
193.3952
21
179.8994
31
0
0
LINE
8
VISIBLE
10
193.3952
20
179.4912
30
0
11
192.7500
21
179.6749
31
0
0
LINE
8
VISIBLE
10
193.3952
20
179.8994
30
0
11
193.4119
21
179.8962
31
0
0
LINE
8
VISIBLE
10
193.4119
20
179.8962
30
0
11
194.0765
21
179.7659
31
0
0
LINE
8
VISIBLE
10
194.0765
20
179.3577
30
0
11
193.3952
21
179.4912
31
0
0
LINE
8
VISIBLE
10
194.0765
20
179.7659
30
0
11
194.0937
21
179.7640
31
0
0
LINE
8
VISIBLE
10
194.0937
20
179.7640
30
0
11
194.7821
21
179.6849
31
0
0
LINE
8
VISIBLE
10
194.7821
20
179.2767
30
0
11
194.0765
21
179.3577
31
0
0
LINE
8
VISIBLE
10
194.7821
20
179.6849
30
0
11
194.7996
21
179.6842
31
0
0
LINE
8
VISIBLE
10
194.7996
20
179.6842
30
0
11
195.5000
21
179.6577
31
0
0
LINE
8
VISIBLE
10
195.5000
20
179.2495
30
0
11
194.7821
21
179.2767
31
0
0
LINE
8
VISIBLE
10
195.5000
20
179.6577
30
0
11
195.5175
21
179.6584
31
0
0
LINE
8
VISIBLE
10
195.5175
20
179.6584
30
0
11
196.2179
21
179.6849
31
0
0
LINE
8
VISIBLE
10
196.2179
20
179.2767
30
0
11
195.5000
21
179.2495
31
0
0
LINE
8
VISIBLE
10
196.2179
20
179.6849
30
0
11
196.2351
21
179.6869
31
0
0
LINE
8
VISIBLE
10
196.2351
20
179.6869
30
0
11
196.9235
21
179.7659
31
0
0
LINE
8
VISIBLE
10
196.9235
20
179.3577
30
0
11
196.2179
21
179.2767
31
0
0
LINE
8
VISIBLE
10
196.9235
20
179.7659
30
0
11
196.9401
21
179.7692
31
0
0
LINE
8
VISIBLE
10
196.9401
20
179.7692
30
0
11
197.6048
21
179.8994
31
0
0
LINE
8
VISIBLE
10
197.6048
20
179.4912
30
0
11
196.9235
21
179.3577
31
0
0
LINE
8
VISIBLE
10
197.6048
20
179.8994
30
0
11
197.6205
21
179.9039
31
0
0
LINE
8
VISIBLE
10
197.6205
20
179.9039
30
0
11
198.2500
21
180.0832
31
0
0
LINE
8
VISIBLE
10
198.2500
20
179.6749
30
0
11
197.6048
21
179.4912
31
0
0
LINE
8
VISIBLE
10
198.2500
20
180.0832
30
0
11
198.2646
21
180.0888
31
0
0
LINE
8
VISIBLE
10
198.2646
20
180.0888
30
0
11
198.8482
21
180.3139
31
0
0
LINE
8
VISIBLE
10
198.8482
20
179.9057
30
0
11
198.2500
21
179.6749
31
0
0
LINE
8
VISIBLE
10
198.8482
20
180.3139
30
0
11
198.8614
21
180.3206
31
0
0
LINE
8
VISIBLE
10
198.8614
20
180.3206
30
0
11
199.3891
21
180.5878
31
0
0
LINE
8
VISIBLE
10
199.3891
20
180.1795
30
0
11
198.8482
21
179.9057
31
0
0
LINE
8
VISIBLE
10
199.3891
20
180.5878
30
0
11
199.4007
21
180.5954
31
0
0
LINE
8
VISIBLE
10
199.4007
20
180.5954
30
0
11
199.8634
21
180.9001
31
0
0
LINE
8
VISIBLE
10
199.8634
20
180.4918
30
0
11
199.3891
21
180.1795
31
0
0
LINE
8
VISIBLE
10
199.8634
20
180.9001
30
0
11
199.8732
21
180.9085
31
0
0
LINE
8
VISIBLE
10
199.8732
20
180.9085
30
0
11
200.2631
21
181.2454
31
0
0
LINE
8
VISIBLE
10
200.2631
20
180.8372
30
0
11
199.8634
21
180.4918
31
0
0
LINE
8
VISIBLE
10
200.2631
20
181.2454
30
0
11
200.2709
21
181.2545
31
0
0
LINE
8
VISIBLE
10
200.2709
20
181.2545
30
0
11
200.5813
21
181.6180
31
0
0
LINE
8
VISIBLE
10
200.5813
20
181.2097
30
0
11
200.2631
21
180.8372
31
0
0
LINE
8
VISIBLE
10
200.5813
20
181.6180
30
0
11
200.5870
21
181.6276
31
0
0
LINE
8
VISIBLE
10
200.5870
20
181.6276
30
0
11
200.8126
21
182.0113
31
0
0
LINE
8
VISIBLE
10
200.8126
20
181.6031
30
0
11
200.5813
21
181.2097
31
0
0
LINE
8
VISIBLE
10
200.8126
20
182.0113
30
0
11
200.8160
21
182.0212
31
0
0
LINE
8
VISIBLE
10
200.8160
20
182.0212
30
0
11
200.9529
21
182.4187
31
0
0
LINE
8
VISIBLE
10
200.9529
20
182.0104
30
0
11
200.8126
21
181.6031
31
0
0
LINE
8
VISIBLE
10
200.9529
20
182.4187
30
0
11
200.9541
21
182.4288
31
0
0
LINE
8
VISIBLE
10
200.9541
20
182.4288
30
0
11
201.0000
21
182.8332
31
0
0
LINE
8
VISIBLE
10
201.0000
20
182.4249
30
0
11
200.9529
21
182.0104
31
0
0
LINE
8
VISIBLE
10
201.0000
20
182.8332
30
0
11
200.9989
21
182.8433
31
0
0
LINE
8
VISIBLE
10
200.9989
20
182.8433
30
0
11
200.9529
21
183.2476
31
0
0
LINE
8
VISIBLE
10
200.9529
20
182.8394
30
0
11
201.0000
21
182.4249
31
0
0
LINE
8
VISIBLE
10
200.9529
20
183.2476
30
0
11
200.9495
21
183.2576
31
0
0
LINE
8
VISIBLE
10
200.9495
20
183.2576
30
0
11
200.8126
21
183.6550
31
0
0
LINE
8
VISIBLE
10
200.8126
20
183.2468
30
0
11
200.9529
21
182.8394
31
0
0
LINE
8
VISIBLE
10
200.8126
20
183.6550
30
0
11
200.8070
21
183.6646
31
0
0
LINE
8
VISIBLE
10
200.8070
20
183.6646
30
0
11
200.5813
21
184.0483
31
0
0
LINE
8
VISIBLE
10
200.5813
20
183.6401
30
0
11
200.8126
21
183.2468
31
0
0
LINE
8
VISIBLE
10
200.5813
20
184.0483
30
0
11
200.5736
21
184.0574
31
0
0
LINE
8
VISIBLE
10
200.5736
20
184.0574
30
0
11
200.2631
21
184.4209
31
0
0
LINE
8
VISIBLE
10
200.2631
20
184.0126
30
0
11
200.5813
21
183.6401
31
0
0
LINE
8
VISIBLE
10
200.2631
20
184.4209
30
0
11
200.2534
21
184.4293
31
0
0
LINE
8
VISIBLE
10
200.2534
20
184.4293
30
0
11
199.8634
21
184.7662
31
0
0
LINE
8
VISIBLE
10
199.8634
20
184.3580
30
0
11
200.2631
21
184.0126
31
0
0
LINE
8
VISIBLE
10
199.8634
20
184.7662
30
0
11
199.8519
21
184.7739
31
0
0
LINE
8
VISIBLE
10
199.8519
20
184.7739
30
0
11
199.3891
21
185.0785
31
0
0
LINE
8
VISIBLE
10
199.3891
20
184.6703
30
0
11
199.8634
21
184.3580
31
0
0
LINE
8
VISIBLE
10
199.3891
20
185.0785
30
0
11
199.3759
21
185.0852
31
0
0
LINE
8
VISIBLE
10
199.3759
20
185.0852
30
0
11
198.8482
21
185.3524
31
0
0
LINE
8
VISIBLE
10
198.8482
20
184.9441
30
0
11
199.3891
21
184.6703
31
0
0
LINE
8
VISIBLE
10
198.8482
20
185.3524
30
0
11
198.8336
21
185.3580
31
0
0
LINE
8
VISIBLE
10
198.8336
20
185.3580
30
0
11
198.2500
21
185.5832
31
0
0
LINE
8
VISIBLE
10
198.2500
20
185.1749
30
0
11
198.8482
21
184.9441
31
0
0
LINE
8
VISIBLE
10
198.2500
20
185.5832
30
0
11
198.2343
21
185.5876
31
0
0
LINE
8
VISIBLE
10
198.2343
20
185.5876
30
0
11
197.6048
21
185.7669
31
0
0
LINE
8
VISIBLE
10
197.6048
20
185.3586
30
0
11
198.2500
21
185.1749
31
0
0
LINE
8
VISIBLE
10
197.6048
20
185.7669
30
0
11
197.5881
21
185.7701
31
0
0
LINE
8
VISIBLE
10
197.5881
20
185.7701
30
0
11
196.9235
21
185.9004
31
0
0
LINE
8
VISIBLE
10
196.9235
20
185.4921
30
0
11
197.6048
21
185.3586
31
0
0
LINE
8
VISIBLE
10
196.9235
20
185.9004
30
0
11
196.9063
21
185.9024
31
0
0
LINE
8
VISIBLE
10
196.9063
20
185.9024
30
0
11
196.2179
21
185.9814
31
0
0
LINE
8
VISIBLE
10
196.2179
20
185.5732
30
0
11
196.9235
21
185.4921
31
0
0
LINE
8
VISIBLE
10
196.2179
20
185.9814
30
0
11
196.2004
21
185.9821
31
0
0
LINE
8
VISIBLE
10
196.2004
20
185.9821
30
0
11
195.5000
21
186.0086
31
0
0
LINE
8
VISIBLE
10
195.5000
20
185.6003
30
0
11
196.2179
21
185.5732
31
0
0
LINE
8
VISIBLE
10
195.5000
20
186.0086
30
0
11
195.4825
21
186.0079
31
0
0
LINE
8
VISIBLE
10
195.4825
20
186.0079
30
0
11
194.7821
21
185.9814
31
0
0
LINE
8
VISIBLE
10
194.7821
20
185.5732
30
0
11
195.5000
21
185.6003
31
0
0
LINE
8
VISIBLE
10
194.7821
20
185.9814
30
0
11
194.7649
21
185.9794
31
0
0
LINE
8
VISIBLE
10
194.7649
20
185.9794
30
0
11
194.0765
21
185.9004
31
0
0
LINE
8
VISIBLE
10
194.0765
20
185.4921
30
0
11
194.7821
21
185.5732
31
0
0
LINE
8
VISIBLE
10
194.0765
20
185.9004
30
0
11
194.0599
21
185.8971
31
0
0
LINE
8
VISIBLE
10
194.0599
20
185.8971
30
0
11
193.3952
21
185.7669
31
0
0
LINE
8
VISIBLE
10
193.3952
20
185.3586
30
0
11
194.0765
21
185.4921
31
0
0
LINE
8
VISIBLE
10
193.3952
20
185.7669
30
0
11
193.3795
21
185.7624
31
0
0
LINE
8
VISIBLE
10
193.3795
20
185.7624
30
0
11
192.7500
21
185.5832
31
0
0
LINE
8
VISIBLE
10
192.7500
20
185.1749
30
0
11
193.3952
21
185.3586
31
0
0
LINE
8
VISIBLE
10
192.7500
20
185.5832
30
0
11
192.7354
21
185.5775
31
0
0
LINE
8
VISIBLE
10
192.7354
20
185.5775
30
0
11
192.1518
21
185.3524
31
0
0
LINE
8
VISIBLE
10
192.1518
20
184.9441
30
0
11
192.7500
21
185.1749
31
0
0
LINE
8
VISIBLE
10
192.1518
20
185.3524
30
0
11
192.1386
21
185.3457
31
0
0
LINE
8
VISIBLE
10
192.1386
20
185.3457
30
0
11
191.6109
21
185.0785
31
0
0
LINE
8
VISIBLE
10
191.6109
20
184.6703
30
0
11
192.1518
21
184.9441
31
0
0
TEXT
8
TEXTO
10
195.5000
20
193.3651
30
0
40
3.5000
1
ISOMÉTRICA
72
1
73
2
11
195.5000
21
193.3651
31
0
0
LINE
8
FINA
10
0.0000
20
0.0000
30
0
11
297.0000
21
0.0000
31
0
0
LINE
8
FINA
10
297.0000
20
0.0000
30
0
11
297.0000
21
210.0000
31
0
0
LINE
8
FINA
10
297.0000
20
210.0000
30
0
11
0.0000
21
210.0000
31
0
0
LINE
8
FINA
10
0.0000
20
210.0000
30
0
11
0.0000
21
0.0000
31
0
0
LINE
8
NORMA
10
20.0000
20
10.0000
30
0
11
287.0000
21
10.0000
31
0
0
LINE
8
NORMA
10
287.0000
20
10.0000
30
0
11
287.0000
21
200.0000
31
0
0
LINE
8
NORMA
10
287.0000
20
200.0000
30
0
11
20.0000
21
200.0000
31
0
0
LINE
8
NORMA
10
20.0000
20
200.0000
30
0
11
20.0000
21
10.0000
31
0
0
LINE
8
NORMA
10
0.0000
20
105.0000
30
0
11
25.0000
21
105.0000
31
0
0
LINE
8
NORMA
10
297.0000
20
105.0000
30
0
11
282.0000
21
105.0000
31
0
0
LINE
8
NORMA
10
148.5000
20
0.0000
30
0
11
148.5000
21
15.0000
31
0
0
LINE
8
NORMA
10
148.5000
20
210.0000
30
0
11
148.5000
21
195.0000
31
0
0
LINE
8
FINA
10
49.5000
20
0.0000
30
0
11
49.5000
21
10.0000
31
0
0
LINE
8
FINA
10
49.5000
20
200.0000
30
0
11
49.5000
21
210.0000
31
0
0
LINE
8
FINA
10
99.0000
20
0.0000
30
0
11
99.0000
21
10.0000
31
0
0
LINE
8
FINA
10
99.0000
20
200.0000
30
0
11
99.0000
21
210.0000
31
0
0
LINE
8
FINA
10
148.5000
20
0.0000
30
0
11
148.5000
21
10.0000
31
0
0
LINE
8
FINA
10
148.5000
20
200.0000
30
0
11
148.5000
21
210.0000
31
0
0
LINE
8
FINA
10
198.0000
20
0.0000
30
0
11
198.0000
21
10.0000
31
0
0
LINE
8
FINA
10
198.0000
20
200.0000
30
0
11
198.0000
21
210.0000
31
0
0
LINE
8
FINA
10
247.5000
20
0.0000
30
0
11
247.5000
21
10.0000
31
0
0
LINE
8
FINA
10
247.5000
20
200.0000
30
0
11
247.5000
21
210.0000
31
0
0
LINE
8
FINA
10
0.0000
20
52.5000
30
0
11
10.0000
21
52.5000
31
0
0
LINE
8
FINA
10
287.0000
20
52.5000
30
0
11
297.0000
21
52.5000
31
0
0
LINE
8
FINA
10
0.0000
20
105.0000
30
0
11
10.0000
21
105.0000
31
0
0
LINE
8
FINA
10
287.0000
20
105.0000
30
0
11
297.0000
21
105.0000
31
0
0
LINE
8
FINA
10
0.0000
20
157.5000
30
0
11
10.0000
21
157.5000
31
0
0
LINE
8
FINA
10
287.0000
20
157.5000
30
0
11
297.0000
21
157.5000
31
0
0
TEXT
8
TEXTO
10
24.7500
20
5.0000
30
0
40
2.5000
1
1
72
1
73
2
11
24.7500
21
5.0000
31
0
0
TEXT
8
TEXTO
10
24.7500
20
205.0000
30
0
40
2.5000
1
1
72
1
73
2
11
24.7500
21
205.0000
31
0
0
TEXT
8
TEXTO
10
74.2500
20
5.0000
30
0
40
2.5000
1
2
72
1
73
2
11
74.2500
21
5.0000
31
0
0
TEXT
8
TEXTO
10
74.2500
20
205.0000
30
0
40
2.5000
1
2
72
1
73
2
11
74.2500
21
205.0000
31
0
0
TEXT
8
TEXTO
10
123.7500
20
5.0000
30
0
40
2.5000
1
3
72
1
73
2
11
123.7500
21
5.0000
31
0
0
TEXT
8
TEXTO
10
123.7500
20
205.0000
30
0
40
2.5000
1
3
72
1
73
2
11
123.7500
21
205.0000
31
0
0
TEXT
8
TEXTO
10
173.2500
20
5.0000
30
0
40
2.5000
1
4
72
1
73
2
11
173.2500
21
5.0000
31
0
0
TEXT
8
TEXTO
10
173.2500
20
205.0000
30
0
40
2.5000
1
4
72
1
73
2
11
173.2500
21
205.0000
31
0
0
TEXT
8
TEXTO
10
222.7500
20
5.0000
30
0
40
2.5000
1
5
72
1
73
2
11
222.7500
21
5.0000
31
0
0
TEXT
8
TEXTO
10
222.7500
20
205.0000
30
0
40
2.5000
1
5
72
1
73
2
11
222.7500
21
205.0000
31
0
0
TEXT
8
TEXTO
10
272.2500
20
5.0000
30
0
40
2.5000
1
6
72
1
73
2
11
272.2500
21
5.0000
31
0
0
TEXT
8
TEXTO
10
272.2500
20
205.0000
30
0
40
2.5000
1
6
72
1
73
2
11
272.2500
21
205.0000
31
0
0
TEXT
8
TEXTO
10
5.0000
20
183.7500
30
0
40
2.5000
1
A
72
1
73
2
11
5.0000
21
183.7500
31
0
0
TEXT
8
TEXTO
10
292.0000
20
183.7500
30
0
40
2.5000
1
A
72
1
73
2
11
292.0000
21
183.7500
31
0
0
TEXT
8
TEXTO
10
5.0000
20
131.2500
30
0
40
2.5000
1
B
72
1
73
2
11
5.0000
21
131.2500
31
0
0
TEXT
8
TEXTO
10
292.0000
20
131.2500
30
0
40
2.5000
1
B
72
1
73
2
11
292.0000
21
131.2500
31
0
0
TEXT
8
TEXTO
10
5.0000
20
78.7500
30
0
40
2.5000
1
C
72
1
73
2
11
5.0000
21
78.7500
31
0
0
TEXT
8
TEXTO
10
292.0000
20
78.7500
30
0
40
2.5000
1
C
72
1
73
2
11
292.0000
21
78.7500
31
0
0
TEXT
8
TEXTO
10
5.0000
20
26.2500
30
0
40
2.5000
1
D
72
1
73
2
11
5.0000
21
26.2500
31
0
0
TEXT
8
TEXTO
10
292.0000
20
26.2500
30
0
40
2.5000
1
D
72
1
73
2
11
292.0000
21
26.2500
31
0
0
LINE
8
NORMA
10
107.0000
20
10.0000
30
0
11
287.0000
21
10.0000
31
0
0
LINE
8
NORMA
10
287.0000
20
10.0000
30
0
11
287.0000
21
52.0000
31
0
0
LINE
8
NORMA
10
287.0000
20
52.0000
30
0
11
107.0000
21
52.0000
31
0
0
LINE
8
NORMA
10
107.0000
20
52.0000
30
0
11
107.0000
21
10.0000
31
0
0
LINE
8
NORMA
10
147.0000
20
10.0000
30
0
11
147.0000
21
52.0000
31
0
0
LINE
8
NORMA
10
241.0000
20
10.0000
30
0
11
241.0000
21
52.0000
31
0
0
LINE
8
FINA
10
107.0000
20
29.0000
30
0
11
147.0000
21
29.0000
31
0
0
TEXT
8
TEXTO
10
127.0000
20
43.8000
30
0
40
6.0000
1
foto3d
72
1
73
2
11
127.0000
21
43.8000
31
0
0
LINE
8
FINA
10
113.5000
20
38.6000
30
0
11
140.5000
21
38.6000
31
0
0
TEXT
8
TEXTO
10
127.0000
20
35.8000
30
0
40
1.3000
1
CAD · DISEŃO CAPA USER
72
1
73
2
11
127.0000
21
35.8000
31
0
0
TEXT
8
TEXTO
10
127.0000
20
32.6000
30
0
40
1.3000
1
ISO 5457 · 7200 · 129 · 5456-2
72
1
73
2
11
127.0000
21
32.6000
31
0
0
TEXT
8
TEXTO
10
127.0000
20
26.6000
30
0
40
1.4000
1
PROYECCIÓN — PRIMER DIEDRO
72
1
73
2
11
127.0000
21
26.6000
31
0
0
CIRCLE
8
TEXTO
10
122.4000
20
17.5000
30
0
40
2.9900
0
CIRCLE
8
TEXTO
10
122.4000
20
17.5000
30
0
40
1.6100
0
LINE
8
TEXTO
10
127.4600
20
14.5100
30
0
11
134.5900
21
15.8900
31
0
0
LINE
8
TEXTO
10
134.5900
20
15.8900
30
0
11
134.5900
21
19.1100
31
0
0
LINE
8
TEXTO
10
134.5900
20
19.1100
30
0
11
127.4600
21
20.4900
31
0
0
LINE
8
TEXTO
10
127.4600
20
20.4900
30
0
11
127.4600
21
14.5100
31
0
0
LINE
8
FINA
10
118.0300
20
17.5000
30
0
11
135.9700
21
17.5000
31
0
0
LINE
8
FINA
10
147.0000
20
39.0000
30
0
11
241.0000
21
39.0000
31
0
0
LINE
8
FINA
10
147.0000
20
29.0000
30
0
11
241.0000
21
29.0000
31
0
0
LINE
8
FINA
10
147.0000
20
19.0000
30
0
11
241.0000
21
19.0000
31
0
0
LINE
8
FINA
10
194.0000
20
29.0000
30
0
11
194.0000
21
39.0000
31
0
0
LINE
8
FINA
10
203.0000
20
19.0000
30
0
11
203.0000
21
29.0000
31
0
0
TEXT
8
TEXTO
10
148.3000
20
49.6000
30
0
40
1.4000
1
DESIGNACIÓN
0
TEXT
8
TEXTO
10
148.6000
20
44.1000
30
0
40
4.2000
1
Tope de altura +6 regulable
72
0
73
2
11
148.6000
21
44.1000
31
0
0
TEXT
8
TEXTO
10
148.3000
20
36.6000
30
0
40
1.4000
1
PROYECTO
0
TEXT
8
TEXTO
10
148.6000
20
32.6000
30
0
40
2.8000
1
TRANSFERENCIA 90°
72
0
73
2
11
148.6000
21
32.6000
31
0
0
TEXT
8
TEXTO
10
195.3000
20
36.6000
30
0
40
1.4000
1
FUENTE
0
TEXT
8
TEXTO
10
195.6000
20
32.6000
30
0
40
2.4000
1
diseńo paramétrico — capa user
72
0
73
2
11
195.6000
21
32.6000
31
0
0
TEXT
8
TEXTO
10
148.3000
20
26.6000
30
0
40
1.4000
1
VERIFICACIÓN DE ESCALA
0
TEXT
8
TEXTO
10
148.6000
20
22.6000
30
0
40
2.4000
1
CAD EN MM (CAPA USER)
72
0
73
2
11
148.6000
21
22.6000
31
0
0
TEXT
8
TEXTO
10
204.3000
20
26.6000
30
0
40
1.4000
1
PIEZAS
0
TEXT
8
TEXTO
10
204.6000
20
22.6000
30
0
40
2.6000
1
2
72
0
73
2
11
204.6000
21
22.6000
31
0
0
TEXT
8
TEXTO
10
148.3000
20
16.6000
30
0
40
1.4000
1
NOTA
0
TEXT
8
TEXTO
10
148.6000
20
13.1000
30
0
40
2.2000
1
Material: Acero · tol. gral. ISO 2768-mK
72
0
73
2
11
148.6000
21
13.1000
31
0
0
LINE
8
FINA
10
241.0000
20
39.0000
30
0
11
287.0000
21
39.0000
31
0
0
LINE
8
FINA
10
241.0000
20
29.0000
30
0
11
287.0000
21
29.0000
31
0
0
LINE
8
FINA
10
241.0000
20
19.0000
30
0
11
287.0000
21
19.0000
31
0
0
LINE
8
FINA
10
264.0000
20
29.0000
30
0
11
264.0000
21
39.0000
31
0
0
LINE
8
FINA
10
267.0000
20
19.0000
30
0
11
267.0000
21
29.0000
31
0
0
TEXT
8
TEXTO
10
242.3000
20
49.6000
30
0
40
1.4000
1
ESCALA
0
TEXT
8
TEXTO
10
264.0000
20
44.1000
30
0
40
5.0000
1
1:1
72
1
73
2
11
264.0000
21
44.1000
31
0
0
TEXT
8
TEXTO
10
242.3000
20
36.6000
30
0
40
1.4000
1
FORMATO
0
TEXT
8
TEXTO
10
252.5000
20
32.6000
30
0
40
3.0000
1
A4
72
1
73
2
11
252.5000
21
32.6000
31
0
0
TEXT
8
TEXTO
10
265.3000
20
36.6000
30
0
40
1.4000
1
LÁMINA
0
TEXT
8
TEXTO
10
275.5000
20
32.6000
30
0
40
3.0000
1
1 / 1
72
1
73
2
11
275.5000
21
32.6000
31
0
0
TEXT
8
TEXTO
10
242.3000
20
26.6000
30
0
40
1.4000
1
FECHA
0
TEXT
8
TEXTO
10
254.0000
20
22.6000
30
0
40
2.6000
1
2026-07-20
72
1
73
2
11
254.0000
21
22.6000
31
0
0
TEXT
8
TEXTO
10
268.3000
20
26.6000
30
0
40
1.4000
1
UNIDADES
0
TEXT
8
TEXTO
10
277.0000
20
22.6000
30
0
40
3.0000
1
mm
72
1
73
2
11
277.0000
21
22.6000
31
0
0
TEXT
8
TEXTO
10
242.3000
20
16.6000
30
0
40
1.4000
1
Nş DE PLANO
0
TEXT
8
TEXTO
10
264.0000
20
13.1000
30
0
40
2.6000
1
TR-10
72
1
73
2
11
264.0000
21
13.1000
31
0
0
ENDSEC
0
EOF
